<?xml version="1.0" encoding="UTF-8" standalone="no"?>
<!DOCTYPE svg PUBLIC "-//W3C//DTD SVG 1.1//EN"
 "http://www.w3.org/Graphics/SVG/1.1/DTD/svg11.dtd">
<!-- Generated by graphviz version 2.43.0 (0)
 -->
<!-- Title: netspeak/bighashmap/BigHashMap.hpp Pages: 1 -->
<svg width="949pt" height="412pt"
 viewBox="0.00 0.00 948.65 412.00" xmlns="http://www.w3.org/2000/svg" xmlns:xlink="http://www.w3.org/1999/xlink">
<g id="graph0" class="graph" transform="scale(1 1) rotate(0) translate(4 408)">
<title>netspeak/bighashmap/BigHashMap.hpp</title>
<!-- Node1 -->
<g id="Node000001" class="node">
<title>Node1</title>
<g id="a_Node000001"><a xlink:title=" ">
<polygon fill="#999999" stroke="#666666" points="845.65,-404 720.65,-404 720.65,-374 845.65,-374 845.65,-404"/>
<text text-anchor="start" x="728.65" y="-392" font-family="Helvetica,sans-Serif" font-size="10.00">netspeak/bighashmap</text>
<text text-anchor="middle" x="783.15" y="-381" font-family="Helvetica,sans-Serif" font-size="10.00">/BigHashMap.hpp</text>
</a>
</g>
</g>
<!-- Node2 -->
<g id="Node000002" class="node">
<title>Node2</title>
<g id="a_Node000002"><a xlink:href="PhraseDictionary_8hpp.html" target="_top" xlink:title=" ">
<polygon fill="white" stroke="#666666" points="698.65,-266.5 531.65,-266.5 531.65,-247.5 698.65,-247.5 698.65,-266.5"/>
<text text-anchor="middle" x="615.15" y="-254.5" font-family="Helvetica,sans-Serif" font-size="10.00">netspeak/PhraseDictionary.hpp</text>
</a>
</g>
</g>
<!-- Node1&#45;&gt;Node2 -->
<g id="edge1_Node000001_Node000002" class="edge">
<title>Node1&#45;&gt;Node2</title>
<g id="a_edge1_Node000001_Node000002"><a xlink:title=" ">
<path fill="none" stroke="#63b8ff" d="M751.75,-368.29C738.09,-359.41 722.06,-348.55 708.15,-338 676.09,-313.67 640.68,-281.66 624.34,-266.57"/>
<polygon fill="#63b8ff" stroke="#63b8ff" points="750.04,-371.35 760.34,-373.82 753.83,-365.46 750.04,-371.35"/>
</a>
</g>
</g>
<!-- Node8 -->
<g id="Node000008" class="node">
<title>Node8</title>
<g id="a_Node000008"><a xlink:href="indexing_8cpp.html" target="_top" xlink:title=" ">
<polygon fill="white" stroke="#666666" points="940.65,-90.5 813.65,-90.5 813.65,-71.5 940.65,-71.5 940.65,-90.5"/>
<text text-anchor="middle" x="877.15" y="-78.5" font-family="Helvetica,sans-Serif" font-size="10.00">netspeak/indexing.cpp</text>
</a>
</g>
</g>
<!-- Node1&#45;&gt;Node8 -->
<g id="edge16_Node000001_Node000008" class="edge">
<title>Node1&#45;&gt;Node8</title>
<g id="a_edge16_Node000001_Node000008"><a xlink:title=" ">
<path fill="none" stroke="#63b8ff" d="M823.46,-368.83C836.27,-360.93 849.36,-350.63 858.15,-338 879.03,-308 877.15,-294.54 877.15,-258 877.15,-258 877.15,-258 877.15,-195.5 877.15,-156.29 877.15,-109.45 877.15,-90.54"/>
<polygon fill="#63b8ff" stroke="#63b8ff" points="821.59,-365.87 814.7,-373.92 825.11,-371.92 821.59,-365.87"/>
</a>
</g>
</g>
<!-- Node15 -->
<g id="Node000015" class="node">
<title>Node15</title>
<g id="a_Node000015"><a xlink:href="StorageReader_8hpp.html" target="_top" xlink:title=" ">
<polygon fill="white" stroke="#666666" points="849.15,-338 717.15,-338 717.15,-308 849.15,-308 849.15,-338"/>
<text text-anchor="start" x="725.15" y="-326" font-family="Helvetica,sans-Serif" font-size="10.00">netspeak/invertedindex</text>
<text text-anchor="middle" x="783.15" y="-315" font-family="Helvetica,sans-Serif" font-size="10.00">/StorageReader.hpp</text>
</a>
</g>
</g>
<!-- Node1&#45;&gt;Node15 -->
<g id="edge17_Node000001_Node000015" class="edge">
<title>Node1&#45;&gt;Node15</title>
<g id="a_edge17_Node000001_Node000015"><a xlink:title=" ">
<path fill="none" stroke="#63b8ff" d="M783.15,-363.54C783.15,-354.96 783.15,-345.61 783.15,-338.16"/>
<polygon fill="#63b8ff" stroke="#63b8ff" points="779.65,-363.8 783.15,-373.8 786.65,-363.8 779.65,-363.8"/>
</a>
</g>
</g>
<!-- Node3 -->
<g id="Node000003" class="node">
<title>Node3</title>
<g id="a_Node000003"><a xlink:href="Netspeak_8hpp.html" target="_top" xlink:title=" ">
<polygon fill="white" stroke="#666666" points="604.15,-151 472.15,-151 472.15,-132 604.15,-132 604.15,-151"/>
<text text-anchor="middle" x="538.15" y="-139" font-family="Helvetica,sans-Serif" font-size="10.00">netspeak/Netspeak.hpp</text>
</a>
</g>
</g>
<!-- Node2&#45;&gt;Node3 -->
<g id="edge2_Node000002_Node000003" class="edge">
<title>Node2&#45;&gt;Node3</title>
<g id="a_edge2_Node000002_Node000003"><a xlink:title=" ">
<path fill="none" stroke="#63b8ff" d="M592.85,-241.53C580.71,-232.61 566.35,-220.18 557.15,-206 545.89,-188.62 541.07,-164.29 539.2,-151.37"/>
<polygon fill="#63b8ff" stroke="#63b8ff" points="590.99,-244.5 601.18,-247.38 595.01,-238.77 590.99,-244.5"/>
</a>
</g>
</g>
<!-- Node14 -->
<g id="Node000014" class="node">
<title>Node14</title>
<g id="a_Node000014"><a xlink:href="RetrievalStrategy3_8hpp.html" target="_top" xlink:title=" ">
<polygon fill="white" stroke="#666666" points="742.65,-206 565.65,-206 565.65,-187 742.65,-187 742.65,-206"/>
<text text-anchor="middle" x="654.15" y="-194" font-family="Helvetica,sans-Serif" font-size="10.00">netspeak/RetrievalStrategy3.hpp</text>
</a>
</g>
</g>
<!-- Node2&#45;&gt;Node14 -->
<g id="edge14_Node000002_Node000014" class="edge">
<title>Node2&#45;&gt;Node14</title>
<g id="a_edge14_Node000002_Node000014"><a xlink:title=" ">
<path fill="none" stroke="#63b8ff" d="M626.62,-238.8C633.77,-228.08 642.66,-214.73 648.37,-206.17"/>
<polygon fill="#63b8ff" stroke="#63b8ff" points="623.54,-237.11 620.91,-247.37 629.37,-240.99 623.54,-237.11"/>
</a>
</g>
</g>
<!-- Node4 -->
<g id="Node000004" class="node">
<title>Node4</title>
<g id="a_Node000004"><a xlink:href="ProxyCommand_8cpp.html" target="_top" xlink:title=" ">
<polygon fill="white" stroke="#666666" points="795.65,-90.5 666.65,-90.5 666.65,-71.5 795.65,-71.5 795.65,-90.5"/>
<text text-anchor="middle" x="731.15" y="-78.5" font-family="Helvetica,sans-Serif" font-size="10.00">cli/ProxyCommand.cpp</text>
</a>
</g>
</g>
<!-- Node3&#45;&gt;Node4 -->
<g id="edge3_Node000003_Node000004" class="edge">
<title>Node3&#45;&gt;Node4</title>
<g id="a_edge3_Node000003_Node000004"><a xlink:title=" ">
<path fill="none" stroke="#63b8ff" d="M576.22,-128.96C613.55,-117.65 669.59,-100.66 703.06,-90.52"/>
<polygon fill="#63b8ff" stroke="#63b8ff" points="574.77,-125.74 566.22,-131.99 576.8,-132.44 574.77,-125.74"/>
</a>
</g>
</g>
<!-- Node5 -->
<g id="Node000005" class="node">
<title>Node5</title>
<g id="a_Node000005"><a xlink:href="ServeCommand_8cpp.html" target="_top" xlink:title=" ">
<polygon fill="white" stroke="#666666" points="171.65,-24.5 42.65,-24.5 42.65,-5.5 171.65,-5.5 171.65,-24.5"/>
<text text-anchor="middle" x="107.15" y="-12.5" font-family="Helvetica,sans-Serif" font-size="10.00">cli/ServeCommand.cpp</text>
</a>
</g>
</g>
<!-- Node3&#45;&gt;Node5 -->
<g id="edge4_Node000003_Node000005" class="edge">
<title>Node3&#45;&gt;Node5</title>
<g id="a_edge4_Node000003_Node000005"><a xlink:title=" ">
<path fill="none" stroke="#63b8ff" d="M461.77,-139.69C322.15,-137.41 37.28,-128.76 7.15,-96 -20.39,-66.05 42.55,-38.04 80.68,-24.5"/>
<polygon fill="#63b8ff" stroke="#63b8ff" points="461.92,-143.19 471.97,-139.85 462.03,-136.19 461.92,-143.19"/>
</a>
</g>
</g>
<!-- Node6 -->
<g id="Node000006" class="node">
<title>Node6</title>
<g id="a_Node000006"><a xlink:href="ShellCommand_8cpp.html" target="_top" xlink:title=" ">
<polygon fill="white" stroke="#666666" points="141.65,-90.5 16.65,-90.5 16.65,-71.5 141.65,-71.5 141.65,-90.5"/>
<text text-anchor="middle" x="79.15" y="-78.5" font-family="Helvetica,sans-Serif" font-size="10.00">cli/ShellCommand.cpp</text>
</a>
</g>
</g>
<!-- Node3&#45;&gt;Node6 -->
<g id="edge5_Node000003_Node000006" class="edge">
<title>Node3&#45;&gt;Node6</title>
<g id="a_edge5_Node000003_Node000006"><a xlink:title=" ">
<path fill="none" stroke="#63b8ff" d="M461.76,-133.57C383.33,-126.03 257.87,-112.77 150.15,-96 140.22,-94.45 129.56,-92.51 119.6,-90.56"/>
<polygon fill="#63b8ff" stroke="#63b8ff" points="461.74,-137.08 472.03,-134.55 462.41,-130.12 461.74,-137.08"/>
</a>
</g>
</g>
<!-- Node7 -->
<g id="Node000007" class="node">
<title>Node7</title>
<g id="a_Node000007"><a xlink:href="Netspeak_8cpp.html" target="_top" xlink:title=" ">
<polygon fill="white" stroke="#666666" points="290.65,-90.5 159.65,-90.5 159.65,-71.5 290.65,-71.5 290.65,-90.5"/>
<text text-anchor="middle" x="225.15" y="-78.5" font-family="Helvetica,sans-Serif" font-size="10.00">netspeak/Netspeak.cpp</text>
</a>
</g>
</g>
<!-- Node3&#45;&gt;Node7 -->
<g id="edge6_Node000003_Node000007" class="edge">
<title>Node3&#45;&gt;Node7</title>
<g id="a_edge6_Node000003_Node000007"><a xlink:title=" ">
<path fill="none" stroke="#63b8ff" d="M481.91,-130.08C433.47,-121.09 361.7,-107.74 299.15,-96 289.77,-94.24 279.72,-92.34 270.15,-90.53"/>
<polygon fill="#63b8ff" stroke="#63b8ff" points="481.41,-133.54 491.88,-131.93 482.69,-126.66 481.41,-133.54"/>
</a>
</g>
</g>
<!-- Node3&#45;&gt;Node8 -->
<g id="edge7_Node000003_Node000008" class="edge">
<title>Node3&#45;&gt;Node8</title>
<g id="a_edge7_Node000003_Node000008"><a xlink:title=" ">
<path fill="none" stroke="#63b8ff" d="M602.06,-130.34C656.21,-121.62 735.86,-108.51 805.15,-96 814.55,-94.3 824.62,-92.4 834.17,-90.55"/>
<polygon fill="#63b8ff" stroke="#63b8ff" points="601.24,-126.93 591.92,-131.97 602.35,-133.84 601.24,-126.93"/>
</a>
</g>
</g>
<!-- Node9 -->
<g id="Node000009" class="node">
<title>Node9</title>
<g id="a_Node000009"><a xlink:href="RequestLogger_8hpp.html" target="_top" xlink:title=" ">
<polygon fill="white" stroke="#666666" points="648.65,-96 505.65,-96 505.65,-66 648.65,-66 648.65,-96"/>
<text text-anchor="start" x="513.65" y="-84" font-family="Helvetica,sans-Serif" font-size="10.00">netspeak/service/Request</text>
<text text-anchor="middle" x="577.15" y="-73" font-family="Helvetica,sans-Serif" font-size="10.00">Logger.hpp</text>
</a>
</g>
</g>
<!-- Node3&#45;&gt;Node9 -->
<g id="edge8_Node000003_Node000009" class="edge">
<title>Node3&#45;&gt;Node9</title>
<g id="a_edge8_Node000003_Node000009"><a xlink:title=" ">
<path fill="none" stroke="#63b8ff" d="M549.6,-123.33C555.37,-114.67 562.29,-104.3 567.74,-96.11"/>
<polygon fill="#63b8ff" stroke="#63b8ff" points="546.54,-121.61 543.91,-131.87 552.37,-125.49 546.54,-121.61"/>
</a>
</g>
</g>
<!-- Node12 -->
<g id="Node000012" class="node">
<title>Node12</title>
<g id="a_Node000012"><a xlink:href="UniqueMap_8hpp.html" target="_top" xlink:title=" ">
<polygon fill="white" stroke="#666666" points="487.65,-90.5 308.65,-90.5 308.65,-71.5 487.65,-71.5 487.65,-90.5"/>
<text text-anchor="middle" x="398.15" y="-78.5" font-family="Helvetica,sans-Serif" font-size="10.00">netspeak/service/UniqueMap.hpp</text>
</a>
</g>
</g>
<!-- Node3&#45;&gt;Node12 -->
<g id="edge11_Node000003_Node000012" class="edge">
<title>Node3&#45;&gt;Node12</title>
<g id="a_edge11_Node000003_Node000012"><a xlink:title=" ">
<path fill="none" stroke="#63b8ff" d="M508.43,-128.08C481.39,-116.78 442.19,-100.4 418.53,-90.52"/>
<polygon fill="#63b8ff" stroke="#63b8ff" points="507.22,-131.37 517.8,-131.99 509.92,-124.91 507.22,-131.37"/>
</a>
</g>
</g>
<!-- Node10 -->
<g id="Node000010" class="node">
<title>Node10</title>
<g id="a_Node000010"><a xlink:href="cli_2logging_8cpp.html" target="_top" xlink:title=" ">
<polygon fill="white" stroke="#666666" points="606.65,-24.5 519.65,-24.5 519.65,-5.5 606.65,-5.5 606.65,-24.5"/>
<text text-anchor="middle" x="563.15" y="-12.5" font-family="Helvetica,sans-Serif" font-size="10.00">cli/logging.cpp</text>
</a>
</g>
</g>
<!-- Node9&#45;&gt;Node10 -->
<g id="edge9_Node000009_Node000010" class="edge">
<title>Node9&#45;&gt;Node10</title>
<g id="a_edge9_Node000009_Node000010"><a xlink:title=" ">
<path fill="none" stroke="#63b8ff" d="M571.89,-55.94C569.51,-45.06 566.84,-32.86 565.09,-24.84"/>
<polygon fill="#63b8ff" stroke="#63b8ff" points="568.49,-56.78 574.05,-65.8 575.33,-55.28 568.49,-56.78"/>
</a>
</g>
</g>
<!-- Node11 -->
<g id="Node000011" class="node">
<title>Node11</title>
<g id="a_Node000011"><a xlink:href="RequestLogger_8cpp.html" target="_top" xlink:title=" ">
<polygon fill="white" stroke="#666666" points="767.65,-30 624.65,-30 624.65,0 767.65,0 767.65,-30"/>
<text text-anchor="start" x="632.65" y="-18" font-family="Helvetica,sans-Serif" font-size="10.00">netspeak/service/Request</text>
<text text-anchor="middle" x="696.15" y="-7" font-family="Helvetica,sans-Serif" font-size="10.00">Logger.cpp</text>
</a>
</g>
</g>
<!-- Node9&#45;&gt;Node11 -->
<g id="edge10_Node000009_Node000011" class="edge">
<title>Node9&#45;&gt;Node11</title>
<g id="a_edge10_Node000009_Node000011"><a xlink:title=" ">
<path fill="none" stroke="#63b8ff" d="M612.29,-61.11C630.81,-51.14 653.14,-39.13 670.1,-30.01"/>
<polygon fill="#63b8ff" stroke="#63b8ff" points="610.42,-58.14 603.27,-65.95 613.73,-64.3 610.42,-58.14"/>
</a>
</g>
</g>
<!-- Node12&#45;&gt;Node5 -->
<g id="edge12_Node000012_Node000005" class="edge">
<title>Node12&#45;&gt;Node5</title>
<g id="a_edge12_Node000012_Node000005"><a xlink:title=" ">
<path fill="none" stroke="#63b8ff" d="M349.31,-69.26C292.05,-56.67 198.34,-36.06 145.87,-24.51"/>
<polygon fill="#63b8ff" stroke="#63b8ff" points="348.69,-72.71 359.21,-71.44 350.19,-65.87 348.69,-72.71"/>
</a>
</g>
</g>
<!-- Node13 -->
<g id="Node000013" class="node">
<title>Node13</title>
<g id="a_Node000013"><a xlink:href="UniqueMap_8cpp.html" target="_top" xlink:title=" ">
<polygon fill="white" stroke="#666666" points="487.65,-24.5 308.65,-24.5 308.65,-5.5 487.65,-5.5 487.65,-24.5"/>
<text text-anchor="middle" x="398.15" y="-12.5" font-family="Helvetica,sans-Serif" font-size="10.00">netspeak/service/UniqueMap.cpp</text>
</a>
</g>
</g>
<!-- Node12&#45;&gt;Node13 -->
<g id="edge13_Node000012_Node000013" class="edge">
<title>Node12&#45;&gt;Node13</title>
<g id="a_edge13_Node000012_Node000013"><a xlink:title=" ">
<path fill="none" stroke="#63b8ff" d="M398.15,-61.08C398.15,-49.13 398.15,-34.22 398.15,-24.91"/>
<polygon fill="#63b8ff" stroke="#63b8ff" points="394.65,-61.37 398.15,-71.37 401.65,-61.37 394.65,-61.37"/>
</a>
</g>
</g>
<!-- Node14&#45;&gt;Node3 -->
<g id="edge15_Node000014_Node000003" class="edge">
<title>Node14&#45;&gt;Node3</title>
<g id="a_edge15_Node000014_Node000003"><a xlink:title=" ">
<path fill="none" stroke="#63b8ff" d="M626.28,-182.77C604.88,-172.99 575.91,-159.75 557.13,-151.17"/>
<polygon fill="#63b8ff" stroke="#63b8ff" points="624.97,-186.01 635.52,-186.98 627.87,-179.65 624.97,-186.01"/>
</a>
</g>
</g>
<!-- Node16 -->
<g id="Node000016" class="node">
<title>Node16</title>
<g id="a_Node000016"><a xlink:href="Searcher_8hpp.html" target="_top" xlink:title=" ">
<polygon fill="white" stroke="#666666" points="849.15,-272 717.15,-272 717.15,-242 849.15,-242 849.15,-272"/>
<text text-anchor="start" x="725.15" y="-260" font-family="Helvetica,sans-Serif" font-size="10.00">netspeak/invertedindex</text>
<text text-anchor="middle" x="783.15" y="-249" font-family="Helvetica,sans-Serif" font-size="10.00">/Searcher.hpp</text>
</a>
</g>
</g>
<!-- Node15&#45;&gt;Node16 -->
<g id="edge18_Node000015_Node000016" class="edge">
<title>Node15&#45;&gt;Node16</title>
<g id="a_edge18_Node000015_Node000016"><a xlink:title=" ">
<path fill="none" stroke="#63b8ff" d="M783.15,-297.54C783.15,-288.96 783.15,-279.61 783.15,-272.16"/>
<polygon fill="#63b8ff" stroke="#63b8ff" points="779.65,-297.8 783.15,-307.8 786.65,-297.8 779.65,-297.8"/>
</a>
</g>
</g>
<!-- Node16&#45;&gt;Node8 -->
<g id="edge20_Node000016_Node000008" class="edge">
<title>Node16&#45;&gt;Node8</title>
<g id="a_edge20_Node000016_Node000008"><a xlink:title=" ">
<path fill="none" stroke="#63b8ff" d="M795.74,-232.69C816.87,-193.59 858.5,-116.53 872.46,-90.68"/>
<polygon fill="#63b8ff" stroke="#63b8ff" points="792.52,-231.3 790.85,-241.76 798.68,-234.63 792.52,-231.3"/>
</a>
</g>
</g>
<!-- Node16&#45;&gt;Node14 -->
<g id="edge19_Node000016_Node000014" class="edge">
<title>Node16&#45;&gt;Node14</title>
<g id="a_edge19_Node000016_Node000014"><a xlink:title=" ">
<path fill="none" stroke="#63b8ff" d="M742.96,-237.77C719.7,-227.22 691.49,-214.43 673.2,-206.14"/>
<polygon fill="#63b8ff" stroke="#63b8ff" points="741.7,-241.05 752.25,-241.99 744.59,-234.67 741.7,-241.05"/>
</a>
</g>
</g>
</g>
</svg>
