<?xml version="1.0" encoding="UTF-8" standalone="no"?>
<!DOCTYPE svg PUBLIC "-//W3C//DTD SVG 1.1//EN"
 "http://www.w3.org/Graphics/SVG/1.1/DTD/svg11.dtd">
<!-- Generated by graphviz version 2.43.0 (0)
 -->
<!-- Title: netspeak/invertedindex/ByteBuffer.cpp Pages: 1 -->
<svg width="1563pt" height="291pt"
 viewBox="0.00 0.00 1562.50 291.00" xmlns="http://www.w3.org/2000/svg" xmlns:xlink="http://www.w3.org/1999/xlink">
<g id="graph0" class="graph" transform="scale(1 1) rotate(0) translate(4 287)">
<title>netspeak/invertedindex/ByteBuffer.cpp</title>
<!-- Node1 -->
<g id="Node000001" class="node">
<title>Node1</title>
<g id="a_Node000001"><a xlink:title=" ">
<polygon fill="#999999" stroke="#666666" points="1047,-283 915,-283 915,-253 1047,-253 1047,-283"/>
<text text-anchor="start" x="923" y="-271" font-family="Helvetica,sans-Serif" font-size="10.00">netspeak/invertedindex</text>
<text text-anchor="middle" x="981" y="-260" font-family="Helvetica,sans-Serif" font-size="10.00">/ByteBuffer.cpp</text>
</a>
</g>
</g>
<!-- Node2 -->
<g id="Node000002" class="node">
<title>Node2</title>
<g id="a_Node000002"><a xlink:title=" ">
<polygon fill="#e0e0e0" stroke="#999999" points="711,-19 661,-19 661,0 711,0 711,-19"/>
<text text-anchor="middle" x="686" y="-7" font-family="Helvetica,sans-Serif" font-size="10.00">format</text>
</a>
</g>
</g>
<!-- Node1&#45;&gt;Node2 -->
<g id="edge1_Node000001_Node000002" class="edge">
<title>Node1&#45;&gt;Node2</title>
<g id="a_edge1_Node000001_Node000002"><a xlink:title=" ">
<path fill="none" stroke="#63b8ff" d="M921.65,-252.96C866.48,-237.01 785.56,-205.8 736,-151 704.11,-115.74 692.24,-58.78 688.08,-29.38"/>
<polygon fill="#63b8ff" stroke="#63b8ff" points="691.53,-28.74 686.8,-19.25 684.58,-29.61 691.53,-28.74"/>
</a>
</g>
</g>
<!-- Node3 -->
<g id="Node000003" class="node">
<title>Node3</title>
<g id="a_Node000003"><a xlink:href="ByteBuffer_8hpp.html" target="_top" xlink:title=" ">
<polygon fill="white" stroke="#666666" points="1047,-217 915,-217 915,-187 1047,-187 1047,-217"/>
<text text-anchor="start" x="923" y="-205" font-family="Helvetica,sans-Serif" font-size="10.00">netspeak/invertedindex</text>
<text text-anchor="middle" x="981" y="-194" font-family="Helvetica,sans-Serif" font-size="10.00">/ByteBuffer.hpp</text>
</a>
</g>
</g>
<!-- Node1&#45;&gt;Node3 -->
<g id="edge2_Node000001_Node000003" class="edge">
<title>Node1&#45;&gt;Node3</title>
<g id="a_edge2_Node000001_Node000003"><a xlink:title=" ">
<path fill="none" stroke="#63b8ff" d="M981,-252.8C981,-245.34 981,-235.99 981,-227.41"/>
<polygon fill="#63b8ff" stroke="#63b8ff" points="984.5,-227.16 981,-217.16 977.5,-227.16 984.5,-227.16"/>
</a>
</g>
</g>
<!-- Node7 -->
<g id="Node000007" class="node">
<title>Node7</title>
<g id="a_Node000007"><a xlink:title=" ">
<polygon fill="#e0e0e0" stroke="#999999" points="1554.5,-19 1489.5,-19 1489.5,0 1554.5,0 1554.5,-19"/>
<text text-anchor="middle" x="1522" y="-7" font-family="Helvetica,sans-Serif" font-size="10.00">stdexcept</text>
</a>
</g>
</g>
<!-- Node1&#45;&gt;Node7 -->
<g id="edge52_Node000001_Node000007" class="edge">
<title>Node1&#45;&gt;Node7</title>
<g id="a_edge52_Node000001_Node000007"><a xlink:title=" ">
<path fill="none" stroke="#63b8ff" d="M1047.15,-266.05C1149.88,-261.64 1350.47,-241.08 1490,-151 1520.92,-131.04 1528.28,-119.88 1540,-85 1546.34,-66.14 1539.13,-43.9 1532.04,-28.66"/>
<polygon fill="#63b8ff" stroke="#63b8ff" points="1534.97,-26.69 1527.32,-19.36 1528.73,-29.86 1534.97,-26.69"/>
</a>
</g>
</g>
<!-- Node3&#45;&gt;Node2 -->
<g id="edge5_Node000003_Node000002" class="edge">
<title>Node3&#45;&gt;Node2</title>
<g id="a_edge5_Node000003_Node000002"><a xlink:title=" ">
<path fill="none" stroke="#63b8ff" d="M987.33,-186.9C999.13,-158.23 1020.51,-92.65 988,-55 953.9,-15.51 793.61,-10.44 721.41,-10.21"/>
<polygon fill="#63b8ff" stroke="#63b8ff" points="721.02,-6.71 711.02,-10.2 721.02,-13.71 721.02,-6.71"/>
</a>
</g>
</g>
<!-- Node4 -->
<g id="Node000004" class="node">
<title>Node4</title>
<g id="a_Node000004"><a xlink:title=" ">
<polygon fill="#e0e0e0" stroke="#999999" points="979.5,-145.5 930.5,-145.5 930.5,-126.5 979.5,-126.5 979.5,-145.5"/>
<text text-anchor="middle" x="955" y="-133.5" font-family="Helvetica,sans-Serif" font-size="10.00">cstdlib</text>
</a>
</g>
</g>
<!-- Node3&#45;&gt;Node4 -->
<g id="edge3_Node000003_Node000004" class="edge">
<title>Node3&#45;&gt;Node4</title>
<g id="a_edge3_Node000003_Node000004"><a xlink:title=" ">
<path fill="none" stroke="#63b8ff" d="M975.23,-186.8C971.45,-177.5 966.49,-165.27 962.42,-155.26"/>
<polygon fill="#63b8ff" stroke="#63b8ff" points="965.6,-153.79 958.59,-145.84 959.11,-156.43 965.6,-153.79"/>
</a>
</g>
</g>
<!-- Node5 -->
<g id="Node000005" class="node">
<title>Node5</title>
<g id="a_Node000005"><a xlink:title=" ">
<polygon fill="#e0e0e0" stroke="#999999" points="1253,-19 1203,-19 1203,0 1253,0 1253,-19"/>
<text text-anchor="middle" x="1228" y="-7" font-family="Helvetica,sans-Serif" font-size="10.00">cstring</text>
</a>
</g>
</g>
<!-- Node3&#45;&gt;Node5 -->
<g id="edge4_Node000003_Node000005" class="edge">
<title>Node3&#45;&gt;Node5</title>
<g id="a_edge4_Node000003_Node000005"><a xlink:title=" ">
<path fill="none" stroke="#63b8ff" d="M1036.88,-186.95C1089.06,-170.93 1165.29,-139.61 1209,-85 1221.62,-69.23 1225.96,-46.09 1227.4,-29.79"/>
<polygon fill="#63b8ff" stroke="#63b8ff" points="1230.92,-29.52 1228.01,-19.33 1223.93,-29.11 1230.92,-29.52"/>
</a>
</g>
</g>
<!-- Node6 -->
<g id="Node000006" class="node">
<title>Node6</title>
<g id="a_Node000006"><a xlink:title=" ">
<polygon fill="#e0e0e0" stroke="#999999" points="1442,-145.5 1384,-145.5 1384,-126.5 1442,-126.5 1442,-145.5"/>
<text text-anchor="middle" x="1413" y="-133.5" font-family="Helvetica,sans-Serif" font-size="10.00">memory</text>
</a>
</g>
</g>
<!-- Node3&#45;&gt;Node6 -->
<g id="edge6_Node000003_Node000006" class="edge">
<title>Node3&#45;&gt;Node6</title>
<g id="a_edge6_Node000003_Node000006"><a xlink:title=" ">
<path fill="none" stroke="#63b8ff" d="M1047.01,-197.21C1125.95,-191.63 1261.63,-178.7 1375,-151 1377.51,-150.39 1380.08,-149.66 1382.65,-148.87"/>
<polygon fill="#63b8ff" stroke="#63b8ff" points="1384.02,-152.1 1392.36,-145.57 1381.76,-145.47 1384.02,-152.1"/>
</a>
</g>
</g>
<!-- Node3&#45;&gt;Node7 -->
<g id="edge7_Node000003_Node000007" class="edge">
<title>Node3&#45;&gt;Node7</title>
<g id="a_edge7_Node000003_Node000007"><a xlink:title=" ">
<path fill="none" stroke="#63b8ff" d="M1047.07,-198.99C1158.94,-194.76 1380.4,-182.57 1451,-151 1490.93,-133.14 1506.25,-124.98 1524,-85 1531.86,-67.3 1529.84,-44.83 1526.82,-29.22"/>
<polygon fill="#63b8ff" stroke="#63b8ff" points="1530.18,-28.21 1524.56,-19.23 1523.35,-29.76 1530.18,-28.21"/>
</a>
</g>
</g>
<!-- Node8 -->
<g id="Node000008" class="node">
<title>Node8</title>
<g id="a_Node000008"><a xlink:href="systemio_8hpp.html" target="_top" xlink:title=" ">
<polygon fill="white" stroke="#666666" points="1366,-145.5 1256,-145.5 1256,-126.5 1366,-126.5 1366,-145.5"/>
<text text-anchor="middle" x="1311" y="-133.5" font-family="Helvetica,sans-Serif" font-size="10.00">../util/systemio.hpp</text>
</a>
</g>
</g>
<!-- Node3&#45;&gt;Node8 -->
<g id="edge8_Node000003_Node000008" class="edge">
<title>Node3&#45;&gt;Node8</title>
<g id="a_edge8_Node000003_Node000008"><a xlink:title=" ">
<path fill="none" stroke="#63b8ff" d="M1047.01,-188.56C1099.8,-178.56 1175.69,-164.08 1242,-151 1247.69,-149.88 1253.63,-148.69 1259.55,-147.5"/>
<polygon fill="#63b8ff" stroke="#63b8ff" points="1260.31,-150.92 1269.42,-145.51 1258.92,-144.06 1260.31,-150.92"/>
</a>
</g>
</g>
<!-- Node14 -->
<g id="Node000014" class="node">
<title>Node14</title>
<g id="a_Node000014"><a xlink:href="pair__traits_8hpp.html" target="_top" xlink:title=" ">
<polygon fill="white" stroke="#666666" points="232,-145.5 106,-145.5 106,-126.5 232,-126.5 232,-145.5"/>
<text text-anchor="middle" x="169" y="-133.5" font-family="Helvetica,sans-Serif" font-size="10.00">../value/pair_traits.hpp</text>
</a>
</g>
</g>
<!-- Node3&#45;&gt;Node14 -->
<g id="edge19_Node000003_Node000014" class="edge">
<title>Node3&#45;&gt;Node14</title>
<g id="a_edge19_Node000003_Node000014"><a xlink:title=" ">
<path fill="none" stroke="#63b8ff" d="M914.62,-196.89C792.62,-189.16 524.54,-171.41 299,-151 280.59,-149.33 260.74,-147.31 242.23,-145.33"/>
<polygon fill="#63b8ff" stroke="#63b8ff" points="242.42,-141.83 232.1,-144.23 241.67,-148.79 242.42,-141.83"/>
</a>
</g>
</g>
<!-- Node22 -->
<g id="Node000022" class="node">
<title>Node22</title>
<g id="a_Node000022"><a xlink:href="quadruple__traits_8hpp.html" target="_top" xlink:title=" ">
<polygon fill="white" stroke="#666666" points="412,-151 308,-151 308,-121 412,-121 412,-151"/>
<text text-anchor="start" x="316" y="-139" font-family="Helvetica,sans-Serif" font-size="10.00">../value/quadruple</text>
<text text-anchor="middle" x="360" y="-128" font-family="Helvetica,sans-Serif" font-size="10.00">_traits.hpp</text>
</a>
</g>
</g>
<!-- Node3&#45;&gt;Node22 -->
<g id="edge33_Node000003_Node000022" class="edge">
<title>Node3&#45;&gt;Node22</title>
<g id="a_edge33_Node000003_Node000022"><a xlink:title=" ">
<path fill="none" stroke="#63b8ff" d="M914.83,-194.24C821.15,-184.67 644.48,-166.59 494,-151 470.6,-148.58 444.89,-145.9 422.31,-143.53"/>
<polygon fill="#63b8ff" stroke="#63b8ff" points="422.49,-140.03 412.18,-142.47 421.76,-147 422.49,-140.03"/>
</a>
</g>
</g>
<!-- Node24 -->
<g id="Node000024" class="node">
<title>Node24</title>
<g id="a_Node000024"><a xlink:href="string__traits_8hpp.html" target="_top" xlink:title=" ">
<polygon fill="white" stroke="#666666" points="880.5,-145.5 745.5,-145.5 745.5,-126.5 880.5,-126.5 880.5,-145.5"/>
<text text-anchor="middle" x="813" y="-133.5" font-family="Helvetica,sans-Serif" font-size="10.00">../value/string_traits.hpp</text>
</a>
</g>
</g>
<!-- Node3&#45;&gt;Node24 -->
<g id="edge39_Node000003_Node000024" class="edge">
<title>Node3&#45;&gt;Node24</title>
<g id="a_edge39_Node000003_Node000024"><a xlink:title=" ">
<path fill="none" stroke="#63b8ff" d="M944.13,-186.95C914.41,-175.63 873.05,-159.88 844.77,-149.1"/>
<polygon fill="#63b8ff" stroke="#63b8ff" points="845.95,-145.81 835.36,-145.52 843.46,-152.35 845.95,-145.81"/>
</a>
</g>
</g>
<!-- Node27 -->
<g id="Node000027" class="node">
<title>Node27</title>
<g id="a_Node000027"><a xlink:href="triple__traits_8hpp.html" target="_top" xlink:title=" ">
<polygon fill="white" stroke="#666666" points="636.5,-145.5 503.5,-145.5 503.5,-126.5 636.5,-126.5 636.5,-145.5"/>
<text text-anchor="middle" x="570" y="-133.5" font-family="Helvetica,sans-Serif" font-size="10.00">../value/triple_traits.hpp</text>
</a>
</g>
</g>
<!-- Node3&#45;&gt;Node27 -->
<g id="edge46_Node000003_Node000027" class="edge">
<title>Node3&#45;&gt;Node27</title>
<g id="a_edge46_Node000003_Node000027"><a xlink:title=" ">
<path fill="none" stroke="#63b8ff" d="M914.97,-190.72C837.87,-178.71 711.2,-158.99 634.69,-147.07"/>
<polygon fill="#63b8ff" stroke="#63b8ff" points="635.11,-143.6 624.69,-145.52 634.04,-150.51 635.11,-143.6"/>
</a>
</g>
</g>
<!-- Node8&#45;&gt;Node2 -->
<g id="edge13_Node000008_Node000002" class="edge">
<title>Node8&#45;&gt;Node2</title>
<g id="a_edge13_Node000008_Node000002"><a xlink:title=" ">
<path fill="none" stroke="#63b8ff" d="M1255.63,-130.02C1204.72,-124 1127.98,-111.19 1066,-85 1044.2,-75.79 1044.11,-63.45 1022,-55 918.08,-15.28 784.39,-9.96 721.59,-9.89"/>
<polygon fill="#63b8ff" stroke="#63b8ff" points="721.41,-6.39 711.42,-9.93 721.43,-13.39 721.41,-6.39"/>
</a>
</g>
</g>
<!-- Node8&#45;&gt;Node5 -->
<g id="edge11_Node000008_Node000005" class="edge">
<title>Node8&#45;&gt;Node5</title>
<g id="a_edge11_Node000008_Node000005"><a xlink:title=" ">
<path fill="none" stroke="#63b8ff" d="M1305.3,-126.44C1291.73,-106.1 1257.35,-54.53 1239.36,-27.54"/>
<polygon fill="#63b8ff" stroke="#63b8ff" points="1242.2,-25.5 1233.74,-19.12 1236.38,-29.38 1242.2,-25.5"/>
</a>
</g>
</g>
<!-- Node8&#45;&gt;Node7 -->
<g id="edge18_Node000008_Node000007" class="edge">
<title>Node8&#45;&gt;Node7</title>
<g id="a_edge18_Node000008_Node000007"><a xlink:title=" ">
<path fill="none" stroke="#63b8ff" d="M1347.58,-126.48C1401.72,-113.74 1497.44,-90.59 1503,-85 1517.53,-70.39 1521.45,-46.31 1522.27,-29.49"/>
<polygon fill="#63b8ff" stroke="#63b8ff" points="1525.77,-29.27 1522.43,-19.22 1518.77,-29.16 1525.77,-29.27"/>
</a>
</g>
</g>
<!-- Node9 -->
<g id="Node000009" class="node">
<title>Node9</title>
<g id="a_Node000009"><a xlink:title=" ">
<polygon fill="#e0e0e0" stroke="#999999" points="1494,-79.5 1438,-79.5 1438,-60.5 1494,-60.5 1494,-79.5"/>
<text text-anchor="middle" x="1466" y="-67.5" font-family="Helvetica,sans-Serif" font-size="10.00">assert.h</text>
</a>
</g>
</g>
<!-- Node8&#45;&gt;Node9 -->
<g id="edge9_Node000008_Node000009" class="edge">
<title>Node8&#45;&gt;Node9</title>
<g id="a_edge9_Node000008_Node000009"><a xlink:title=" ">
<path fill="none" stroke="#63b8ff" d="M1331.9,-126.37C1358.6,-115.35 1404.99,-96.19 1435.59,-83.55"/>
<polygon fill="#63b8ff" stroke="#63b8ff" points="1437.02,-86.75 1444.93,-79.7 1434.35,-80.28 1437.02,-86.75"/>
</a>
</g>
</g>
<!-- Node10 -->
<g id="Node000010" class="node">
<title>Node10</title>
<g id="a_Node000010"><a xlink:title=" ">
<polygon fill="#e0e0e0" stroke="#999999" points="1382,-79.5 1332,-79.5 1332,-60.5 1382,-60.5 1382,-79.5"/>
<text text-anchor="middle" x="1357" y="-67.5" font-family="Helvetica,sans-Serif" font-size="10.00">climits</text>
</a>
</g>
</g>
<!-- Node8&#45;&gt;Node10 -->
<g id="edge10_Node000008_Node000010" class="edge">
<title>Node8&#45;&gt;Node10</title>
<g id="a_edge10_Node000008_Node000010"><a xlink:title=" ">
<path fill="none" stroke="#63b8ff" d="M1317.2,-126.37C1324.23,-116.59 1335.85,-100.42 1344.73,-88.08"/>
<polygon fill="#63b8ff" stroke="#63b8ff" points="1347.61,-90.07 1350.6,-79.91 1341.92,-85.98 1347.61,-90.07"/>
</a>
</g>
</g>
<!-- Node11 -->
<g id="Node000011" class="node">
<title>Node11</title>
<g id="a_Node000011"><a xlink:title=" ">
<polygon fill="#e0e0e0" stroke="#999999" points="1392,-19 1324,-19 1324,0 1392,0 1392,-19"/>
<text text-anchor="middle" x="1358" y="-7" font-family="Helvetica,sans-Serif" font-size="10.00">filesystem</text>
</a>
</g>
</g>
<!-- Node8&#45;&gt;Node11 -->
<g id="edge12_Node000008_Node000011" class="edge">
<title>Node8&#45;&gt;Node11</title>
<g id="a_edge12_Node000008_Node000011"><a xlink:title=" ">
<path fill="none" stroke="#63b8ff" d="M1337.36,-126.35C1356.01,-118.69 1379.65,-105.49 1391,-85 1401.76,-65.58 1386.93,-41.97 1373.83,-26.61"/>
<polygon fill="#63b8ff" stroke="#63b8ff" points="1376.23,-24.04 1366.91,-19 1371.05,-28.75 1376.23,-24.04"/>
</a>
</g>
</g>
<!-- Node12 -->
<g id="Node000012" class="node">
<title>Node12</title>
<g id="a_Node000012"><a xlink:href="std__path__formatter_8hpp.html" target="_top" xlink:title="Defines an std::formatter for std::filesystem::path. MUST be deleted when C++26 is available with tha...">
<polygon fill="white" stroke="#666666" points="1199.5,-85 1074.5,-85 1074.5,-55 1199.5,-55 1199.5,-85"/>
<text text-anchor="start" x="1082.5" y="-73" font-family="Helvetica,sans-Serif" font-size="10.00">netspeak/util/std_path</text>
<text text-anchor="middle" x="1137" y="-62" font-family="Helvetica,sans-Serif" font-size="10.00">_formatter.hpp</text>
</a>
</g>
</g>
<!-- Node8&#45;&gt;Node12 -->
<g id="edge14_Node000008_Node000012" class="edge">
<title>Node8&#45;&gt;Node12</title>
<g id="a_edge14_Node000008_Node000012"><a xlink:title=" ">
<path fill="none" stroke="#63b8ff" d="M1287.53,-126.37C1261.36,-116.74 1218.32,-100.91 1184.95,-88.64"/>
<polygon fill="#63b8ff" stroke="#63b8ff" points="1185.97,-85.28 1175.38,-85.12 1183.55,-91.85 1185.97,-85.28"/>
</a>
</g>
</g>
<!-- Node12&#45;&gt;Node2 -->
<g id="edge16_Node000012_Node000002" class="edge">
<title>Node12&#45;&gt;Node2</title>
<g id="a_edge16_Node000012_Node000002"><a xlink:title=" ">
<path fill="none" stroke="#63b8ff" d="M1074.44,-57.29C1069.56,-56.48 1064.7,-55.71 1060,-55 935.96,-36.36 787.82,-20.67 721.34,-13.97"/>
<polygon fill="#63b8ff" stroke="#63b8ff" points="721.32,-10.45 711.02,-12.94 720.62,-17.42 721.32,-10.45"/>
</a>
</g>
</g>
<!-- Node12&#45;&gt;Node11 -->
<g id="edge15_Node000012_Node000011" class="edge">
<title>Node12&#45;&gt;Node11</title>
<g id="a_edge15_Node000012_Node000011"><a xlink:title=" ">
<path fill="none" stroke="#63b8ff" d="M1189.94,-54.99C1228.41,-44.8 1279.79,-31.2 1315.57,-21.73"/>
<polygon fill="#63b8ff" stroke="#63b8ff" points="1316.91,-25 1325.69,-19.05 1315.12,-18.23 1316.91,-25"/>
</a>
</g>
</g>
<!-- Node13 -->
<g id="Node000013" class="node">
<title>Node13</title>
<g id="a_Node000013"><a xlink:title=" ">
<polygon fill="#e0e0e0" stroke="#999999" points="512,-19 468,-19 468,0 512,0 512,-19"/>
<text text-anchor="middle" x="490" y="-7" font-family="Helvetica,sans-Serif" font-size="10.00">string</text>
</a>
</g>
</g>
<!-- Node12&#45;&gt;Node13 -->
<g id="edge17_Node000012_Node000013" class="edge">
<title>Node12&#45;&gt;Node13</title>
<g id="a_edge17_Node000012_Node000013"><a xlink:title=" ">
<path fill="none" stroke="#63b8ff" d="M1074.3,-63.04C1047.69,-60.53 1016.33,-57.6 988,-55 812.57,-38.92 602.3,-20.37 522.69,-13.37"/>
<polygon fill="#63b8ff" stroke="#63b8ff" points="522.61,-9.85 512.34,-12.46 521.99,-16.82 522.61,-9.85"/>
</a>
</g>
</g>
<!-- Node14&#45;&gt;Node2 -->
<g id="edge30_Node000014_Node000002" class="edge">
<title>Node14&#45;&gt;Node2</title>
<g id="a_edge30_Node000014_Node000002"><a xlink:title=" ">
<path fill="none" stroke="#63b8ff" d="M166.98,-126.26C163.74,-109.7 159.55,-73.75 179,-55 196.01,-38.61 538.4,-18.55 650.68,-12.39"/>
<polygon fill="#63b8ff" stroke="#63b8ff" points="651.01,-15.88 660.81,-11.84 650.63,-8.89 651.01,-15.88"/>
</a>
</g>
</g>
<!-- Node14&#45;&gt;Node13 -->
<g id="edge32_Node000014_Node000013" class="edge">
<title>Node14&#45;&gt;Node13</title>
<g id="a_edge32_Node000014_Node000013"><a xlink:title=" ">
<path fill="none" stroke="#63b8ff" d="M154.11,-126.46C129.67,-111.43 85.88,-79.5 108,-55 158.59,1.04 365.73,-30.83 457.65,-18.68"/>
<polygon fill="#63b8ff" stroke="#63b8ff" points="458.43,-22.1 467.75,-17.07 457.33,-15.19 458.43,-22.1"/>
</a>
</g>
</g>
<!-- Node15 -->
<g id="Node000015" class="node">
<title>Node15</title>
<g id="a_Node000015"><a xlink:href="pair_8hpp.html" target="_top" xlink:title=" ">
<polygon fill="white" stroke="#666666" points="56,-79.5 0,-79.5 0,-60.5 56,-60.5 56,-79.5"/>
<text text-anchor="middle" x="28" y="-67.5" font-family="Helvetica,sans-Serif" font-size="10.00">pair.hpp</text>
</a>
</g>
</g>
<!-- Node14&#45;&gt;Node15 -->
<g id="edge20_Node000014_Node000015" class="edge">
<title>Node14&#45;&gt;Node15</title>
<g id="a_edge20_Node000014_Node000015"><a xlink:title=" ">
<path fill="none" stroke="#63b8ff" d="M149.98,-126.37C125.91,-115.44 84.23,-96.52 56.39,-83.88"/>
<polygon fill="#63b8ff" stroke="#63b8ff" points="57.72,-80.65 47.16,-79.7 54.82,-87.02 57.72,-80.65"/>
</a>
</g>
</g>
<!-- Node17 -->
<g id="Node000017" class="node">
<title>Node17</title>
<g id="a_Node000017"><a xlink:href="value__traits_8hpp.html" target="_top" xlink:title=" ">
<polygon fill="white" stroke="#666666" points="461.5,-79.5 366.5,-79.5 366.5,-60.5 461.5,-60.5 461.5,-79.5"/>
<text text-anchor="middle" x="414" y="-67.5" font-family="Helvetica,sans-Serif" font-size="10.00">value_traits.hpp</text>
</a>
</g>
</g>
<!-- Node14&#45;&gt;Node17 -->
<g id="edge22_Node000014_Node000017" class="edge">
<title>Node14&#45;&gt;Node17</title>
<g id="a_edge22_Node000014_Node000017"><a xlink:title=" ">
<path fill="none" stroke="#63b8ff" d="M201.79,-126.44C245.61,-114.99 323.34,-94.68 371.58,-82.08"/>
<polygon fill="#63b8ff" stroke="#63b8ff" points="372.62,-85.43 381.41,-79.51 370.85,-78.66 372.62,-85.43"/>
</a>
</g>
</g>
<!-- Node21 -->
<g id="Node000021" class="node">
<title>Node21</title>
<g id="a_Node000021"><a xlink:title=" ">
<polygon fill="#e0e0e0" stroke="#999999" points="244,-79.5 188,-79.5 188,-60.5 244,-60.5 244,-79.5"/>
<text text-anchor="middle" x="216" y="-67.5" font-family="Helvetica,sans-Serif" font-size="10.00">sstream</text>
</a>
</g>
</g>
<!-- Node14&#45;&gt;Node21 -->
<g id="edge31_Node000014_Node000021" class="edge">
<title>Node14&#45;&gt;Node21</title>
<g id="a_edge31_Node000014_Node000021"><a xlink:title=" ">
<path fill="none" stroke="#63b8ff" d="M175.34,-126.37C182.52,-116.59 194.39,-100.42 203.46,-88.08"/>
<polygon fill="#63b8ff" stroke="#63b8ff" points="206.36,-90.04 209.46,-79.91 200.72,-85.89 206.36,-90.04"/>
</a>
</g>
</g>
<!-- Node16 -->
<g id="Node000016" class="node">
<title>Node16</title>
<g id="a_Node000016"><a xlink:title=" ">
<polygon fill="#e0e0e0" stroke="#999999" points="50.5,-19 5.5,-19 5.5,0 50.5,0 50.5,-19"/>
<text text-anchor="middle" x="28" y="-7" font-family="Helvetica,sans-Serif" font-size="10.00">utility</text>
</a>
</g>
</g>
<!-- Node15&#45;&gt;Node16 -->
<g id="edge21_Node000015_Node000016" class="edge">
<title>Node15&#45;&gt;Node16</title>
<g id="a_edge21_Node000015_Node000016"><a xlink:title=" ">
<path fill="none" stroke="#63b8ff" d="M28,-60.37C28,-52.25 28,-39.81 28,-29.39"/>
<polygon fill="#63b8ff" stroke="#63b8ff" points="31.5,-29.17 28,-19.17 24.5,-29.17 31.5,-29.17"/>
</a>
</g>
</g>
<!-- Node17&#45;&gt;Node2 -->
<g id="edge25_Node000017_Node000002" class="edge">
<title>Node17&#45;&gt;Node2</title>
<g id="a_edge25_Node000017_Node000002"><a xlink:title=" ">
<path fill="none" stroke="#63b8ff" d="M453.55,-60.49C506.62,-49.08 600.06,-28.98 650.81,-18.07"/>
<polygon fill="#63b8ff" stroke="#63b8ff" points="651.62,-21.47 660.66,-15.95 650.15,-14.63 651.62,-21.47"/>
</a>
</g>
</g>
<!-- Node17&#45;&gt;Node5 -->
<g id="edge24_Node000017_Node000005" class="edge">
<title>Node17&#45;&gt;Node5</title>
<g id="a_edge24_Node000017_Node000005"><a xlink:title=" ">
<path fill="none" stroke="#63b8ff" d="M461.66,-63.52C486.99,-60.73 518.66,-57.42 547,-55 793.88,-33.95 1091.87,-17.59 1192.7,-12.31"/>
<polygon fill="#63b8ff" stroke="#63b8ff" points="1193.12,-15.79 1202.93,-11.78 1192.76,-8.8 1193.12,-15.79"/>
</a>
</g>
</g>
<!-- Node17&#45;&gt;Node7 -->
<g id="edge27_Node000017_Node000007" class="edge">
<title>Node17&#45;&gt;Node7</title>
<g id="a_edge27_Node000017_Node000007"><a xlink:title=" ">
<path fill="none" stroke="#63b8ff" d="M461.64,-63.25C486.96,-60.38 518.63,-57.09 547,-55 925.87,-27.1 1021.71,-40.31 1401,-19 1426.98,-17.54 1456.07,-15.51 1479.22,-13.8"/>
<polygon fill="#63b8ff" stroke="#63b8ff" points="1479.69,-17.27 1489.4,-13.04 1479.17,-10.29 1479.69,-17.27"/>
</a>
</g>
</g>
<!-- Node17&#45;&gt;Node13 -->
<g id="edge28_Node000017_Node000013" class="edge">
<title>Node17&#45;&gt;Node13</title>
<g id="a_edge28_Node000017_Node000013"><a xlink:title=" ">
<path fill="none" stroke="#63b8ff" d="M425.21,-60.37C437.11,-51.21 456.14,-36.56 470.51,-25.51"/>
<polygon fill="#63b8ff" stroke="#63b8ff" points="472.95,-28.04 478.74,-19.17 468.68,-22.49 472.95,-28.04"/>
</a>
</g>
</g>
<!-- Node18 -->
<g id="Node000018" class="node">
<title>Node18</title>
<g id="a_Node000018"><a xlink:title=" ">
<polygon fill="#e0e0e0" stroke="#999999" points="450,-19 400,-19 400,0 450,0 450,-19"/>
<text text-anchor="middle" x="425" y="-7" font-family="Helvetica,sans-Serif" font-size="10.00">cstdint</text>
</a>
</g>
</g>
<!-- Node17&#45;&gt;Node18 -->
<g id="edge23_Node000017_Node000018" class="edge">
<title>Node17&#45;&gt;Node18</title>
<g id="a_edge23_Node000017_Node000018"><a xlink:title=" ">
<path fill="none" stroke="#63b8ff" d="M415.62,-60.37C417.17,-52.16 419.54,-39.54 421.51,-29.05"/>
<polygon fill="#63b8ff" stroke="#63b8ff" points="424.96,-29.64 423.37,-19.17 418.08,-28.35 424.96,-29.64"/>
</a>
</g>
</g>
<!-- Node19 -->
<g id="Node000019" class="node">
<title>Node19</title>
<g id="a_Node000019"><a xlink:title=" ">
<polygon fill="#e0e0e0" stroke="#999999" points="294,-19 234,-19 234,0 294,0 294,-19"/>
<text text-anchor="middle" x="264" y="-7" font-family="Helvetica,sans-Serif" font-size="10.00">iostream</text>
</a>
</g>
</g>
<!-- Node17&#45;&gt;Node19 -->
<g id="edge26_Node000017_Node000019" class="edge">
<title>Node17&#45;&gt;Node19</title>
<g id="a_edge26_Node000017_Node000019"><a xlink:title=" ">
<path fill="none" stroke="#63b8ff" d="M392.19,-60.49C366.75,-50.57 324.49,-34.09 295.49,-22.78"/>
<polygon fill="#63b8ff" stroke="#63b8ff" points="296.43,-19.39 285.84,-19.02 293.88,-25.91 296.43,-19.39"/>
</a>
</g>
</g>
<!-- Node20 -->
<g id="Node000020" class="node">
<title>Node20</title>
<g id="a_Node000020"><a xlink:title=" ">
<polygon fill="#e0e0e0" stroke="#999999" points="381.5,-19 312.5,-19 312.5,0 381.5,0 381.5,-19"/>
<text text-anchor="middle" x="347" y="-7" font-family="Helvetica,sans-Serif" font-size="10.00">type_traits</text>
</a>
</g>
</g>
<!-- Node17&#45;&gt;Node20 -->
<g id="edge29_Node000017_Node000020" class="edge">
<title>Node17&#45;&gt;Node20</title>
<g id="a_edge29_Node000017_Node000020"><a xlink:title=" ">
<path fill="none" stroke="#63b8ff" d="M404.11,-60.37C393.72,-51.3 377.16,-36.84 364.55,-25.82"/>
<polygon fill="#63b8ff" stroke="#63b8ff" points="366.76,-23.11 356.93,-19.17 362.16,-28.38 366.76,-23.11"/>
</a>
</g>
</g>
<!-- Node22&#45;&gt;Node2 -->
<g id="edge36_Node000022_Node000002" class="edge">
<title>Node22&#45;&gt;Node2</title>
<g id="a_edge36_Node000022_Node000002"><a xlink:title=" ">
<path fill="none" stroke="#63b8ff" d="M390.41,-120.94C427.12,-104.21 490.92,-75.92 547,-55 581.99,-41.95 622.77,-29.17 651.07,-20.68"/>
<polygon fill="#63b8ff" stroke="#63b8ff" points="652.31,-23.97 660.9,-17.76 650.32,-17.26 652.31,-23.97"/>
</a>
</g>
</g>
<!-- Node22&#45;&gt;Node13 -->
<g id="edge38_Node000022_Node000013" class="edge">
<title>Node22&#45;&gt;Node13</title>
<g id="a_edge38_Node000022_Node000013"><a xlink:title=" ">
<path fill="none" stroke="#63b8ff" d="M307.74,-129.93C241.02,-121.48 138.78,-100.72 179,-55 218.57,-10.01 381.85,-29.36 457.65,-18.72"/>
<polygon fill="#63b8ff" stroke="#63b8ff" points="458.46,-22.13 467.74,-17 457.29,-15.23 458.46,-22.13"/>
</a>
</g>
</g>
<!-- Node22&#45;&gt;Node17 -->
<g id="edge35_Node000022_Node000017" class="edge">
<title>Node22&#45;&gt;Node17</title>
<g id="a_edge35_Node000022_Node000017"><a xlink:title=" ">
<path fill="none" stroke="#63b8ff" d="M371.98,-120.8C380.24,-111.01 391.24,-97.98 399.91,-87.7"/>
<polygon fill="#63b8ff" stroke="#63b8ff" points="402.76,-89.74 406.54,-79.84 397.41,-85.23 402.76,-89.74"/>
</a>
</g>
</g>
<!-- Node22&#45;&gt;Node21 -->
<g id="edge37_Node000022_Node000021" class="edge">
<title>Node22&#45;&gt;Node21</title>
<g id="a_edge37_Node000022_Node000021"><a xlink:title=" ">
<path fill="none" stroke="#63b8ff" d="M328.4,-120.95C303.37,-109.83 268.7,-94.42 244.51,-83.67"/>
<polygon fill="#63b8ff" stroke="#63b8ff" points="245.72,-80.38 235.16,-79.52 242.88,-86.78 245.72,-80.38"/>
</a>
</g>
</g>
<!-- Node23 -->
<g id="Node000023" class="node">
<title>Node23</title>
<g id="a_Node000023"><a xlink:href="quadruple_8hpp.html" target="_top" xlink:title=" ">
<polygon fill="white" stroke="#666666" points="348,-79.5 262,-79.5 262,-60.5 348,-60.5 348,-79.5"/>
<text text-anchor="middle" x="305" y="-67.5" font-family="Helvetica,sans-Serif" font-size="10.00">quadruple.hpp</text>
</a>
</g>
</g>
<!-- Node22&#45;&gt;Node23 -->
<g id="edge34_Node000022_Node000023" class="edge">
<title>Node22&#45;&gt;Node23</title>
<g id="a_edge34_Node000022_Node000023"><a xlink:title=" ">
<path fill="none" stroke="#63b8ff" d="M347.79,-120.8C339.39,-111.01 328.19,-97.98 319.35,-87.7"/>
<polygon fill="#63b8ff" stroke="#63b8ff" points="321.77,-85.15 312.6,-79.84 316.46,-89.71 321.77,-85.15"/>
</a>
</g>
</g>
<!-- Node24&#45;&gt;Node2 -->
<g id="edge41_Node000024_Node000002" class="edge">
<title>Node24&#45;&gt;Node2</title>
<g id="a_edge41_Node000024_Node000002"><a xlink:title=" ">
<path fill="none" stroke="#63b8ff" d="M805.41,-126.3C792.19,-111.28 763.88,-79.73 738,-55 727.26,-44.74 714.61,-33.89 704.48,-25.47"/>
<polygon fill="#63b8ff" stroke="#63b8ff" points="706.6,-22.69 696.65,-19.04 702.16,-28.09 706.6,-22.69"/>
</a>
</g>
</g>
<!-- Node24&#45;&gt;Node7 -->
<g id="edge42_Node000024_Node000007" class="edge">
<title>Node24&#45;&gt;Node7</title>
<g id="a_edge42_Node000024_Node000007"><a xlink:title=" ">
<path fill="none" stroke="#63b8ff" d="M878.39,-126.48C892.44,-124.66 907.21,-122.76 921,-121 1048.96,-104.71 1082.35,-109.47 1209,-85 1260.44,-75.06 1272.09,-67.39 1323,-55 1376.64,-41.95 1438.76,-28.29 1479.14,-19.6"/>
<polygon fill="#63b8ff" stroke="#63b8ff" points="1480.12,-22.97 1489.16,-17.45 1478.65,-16.13 1480.12,-22.97"/>
</a>
</g>
</g>
<!-- Node24&#45;&gt;Node13 -->
<g id="edge43_Node000024_Node000013" class="edge">
<title>Node24&#45;&gt;Node13</title>
<g id="a_edge43_Node000024_Node000013"><a xlink:title=" ">
<path fill="none" stroke="#63b8ff" d="M794.86,-126.46C761.99,-111.15 690.22,-78.42 628,-55 592.12,-41.49 550.09,-28.31 521.93,-19.84"/>
<polygon fill="#63b8ff" stroke="#63b8ff" points="522.8,-16.45 512.21,-16.94 520.8,-23.16 522.8,-16.45"/>
</a>
</g>
</g>
<!-- Node24&#45;&gt;Node17 -->
<g id="edge45_Node000024_Node000017" class="edge">
<title>Node24&#45;&gt;Node17</title>
<g id="a_edge45_Node000024_Node000017"><a xlink:title=" ">
<path fill="none" stroke="#63b8ff" d="M759.6,-126.44C684.71,-114.42 549.02,-92.66 471.82,-80.27"/>
<polygon fill="#63b8ff" stroke="#63b8ff" points="472.21,-76.79 461.79,-78.66 471.11,-83.7 472.21,-76.79"/>
</a>
</g>
</g>
<!-- Node25 -->
<g id="Node000025" class="node">
<title>Node25</title>
<g id="a_Node000025"><a xlink:title=" ">
<polygon fill="#e0e0e0" stroke="#999999" points="836,-79.5 790,-79.5 790,-60.5 836,-60.5 836,-79.5"/>
<text text-anchor="middle" x="813" y="-67.5" font-family="Helvetica,sans-Serif" font-size="10.00">cstdio</text>
</a>
</g>
</g>
<!-- Node24&#45;&gt;Node25 -->
<g id="edge40_Node000024_Node000025" class="edge">
<title>Node24&#45;&gt;Node25</title>
<g id="a_edge40_Node000024_Node000025"><a xlink:title=" ">
<path fill="none" stroke="#63b8ff" d="M813,-126.37C813,-117.16 813,-102.29 813,-90.27"/>
<polygon fill="#63b8ff" stroke="#63b8ff" points="816.5,-89.91 813,-79.91 809.5,-89.91 816.5,-89.91"/>
</a>
</g>
</g>
<!-- Node26 -->
<g id="Node000026" class="node">
<title>Node26</title>
<g id="a_Node000026"><a xlink:title=" ">
<polygon fill="#e0e0e0" stroke="#999999" points="979.5,-85 854.5,-85 854.5,-55 979.5,-55 979.5,-85"/>
<text text-anchor="start" x="862.5" y="-73" font-family="Helvetica,sans-Serif" font-size="10.00">boost/algorithm/string</text>
<text text-anchor="middle" x="917" y="-62" font-family="Helvetica,sans-Serif" font-size="10.00">/trim.hpp</text>
</a>
</g>
</g>
<!-- Node24&#45;&gt;Node26 -->
<g id="edge44_Node000024_Node000026" class="edge">
<title>Node24&#45;&gt;Node26</title>
<g id="a_edge44_Node000024_Node000026"><a xlink:title=" ">
<path fill="none" stroke="#63b8ff" d="M827.03,-126.37C841.93,-117.2 865.99,-102.39 885.48,-90.4"/>
<polygon fill="#63b8ff" stroke="#63b8ff" points="887.38,-93.34 894.06,-85.12 883.71,-87.38 887.38,-93.34"/>
</a>
</g>
</g>
<!-- Node27&#45;&gt;Node2 -->
<g id="edge49_Node000027_Node000002" class="edge">
<title>Node27&#45;&gt;Node2</title>
<g id="a_edge49_Node000027_Node000002"><a xlink:title=" ">
<path fill="none" stroke="#63b8ff" d="M581.27,-126.39C593.4,-116.87 612.97,-100.8 628,-85 645.57,-66.53 663.19,-43.02 674.32,-27.4"/>
<polygon fill="#63b8ff" stroke="#63b8ff" points="677.19,-29.4 680.08,-19.21 671.46,-25.38 677.19,-29.4"/>
</a>
</g>
</g>
<!-- Node27&#45;&gt;Node13 -->
<g id="edge51_Node000027_Node000013" class="edge">
<title>Node27&#45;&gt;Node13</title>
<g id="a_edge51_Node000027_Node000013"><a xlink:title=" ">
<path fill="none" stroke="#63b8ff" d="M564.5,-126.44C551.43,-106.1 518.29,-54.53 500.95,-27.54"/>
<polygon fill="#63b8ff" stroke="#63b8ff" points="503.89,-25.64 495.54,-19.12 498,-29.42 503.89,-25.64"/>
</a>
</g>
</g>
<!-- Node27&#45;&gt;Node17 -->
<g id="edge48_Node000027_Node000017" class="edge">
<title>Node27&#45;&gt;Node17</title>
<g id="a_edge48_Node000027_Node000017"><a xlink:title=" ">
<path fill="none" stroke="#63b8ff" d="M548.96,-126.37C522.02,-115.32 475.14,-96.08 444.34,-83.45"/>
<polygon fill="#63b8ff" stroke="#63b8ff" points="445.53,-80.15 434.95,-79.6 442.88,-86.63 445.53,-80.15"/>
</a>
</g>
</g>
<!-- Node27&#45;&gt;Node21 -->
<g id="edge50_Node000027_Node000021" class="edge">
<title>Node27&#45;&gt;Node21</title>
<g id="a_edge50_Node000027_Node000021"><a xlink:title=" ">
<path fill="none" stroke="#63b8ff" d="M503.3,-128.51C438.58,-121.27 337.96,-107.52 253,-85 250.7,-84.39 248.35,-83.69 246,-82.94"/>
<polygon fill="#63b8ff" stroke="#63b8ff" points="247.09,-79.61 236.5,-79.61 244.78,-86.22 247.09,-79.61"/>
</a>
</g>
</g>
<!-- Node28 -->
<g id="Node000028" class="node">
<title>Node28</title>
<g id="a_Node000028"><a xlink:href="triple_8hpp.html" target="_top" xlink:title=" ">
<polygon fill="white" stroke="#666666" points="619.5,-79.5 556.5,-79.5 556.5,-60.5 619.5,-60.5 619.5,-79.5"/>
<text text-anchor="middle" x="588" y="-67.5" font-family="Helvetica,sans-Serif" font-size="10.00">triple.hpp</text>
</a>
</g>
</g>
<!-- Node27&#45;&gt;Node28 -->
<g id="edge47_Node000027_Node000028" class="edge">
<title>Node27&#45;&gt;Node28</title>
<g id="a_edge47_Node000027_Node000028"><a xlink:title=" ">
<path fill="none" stroke="#63b8ff" d="M572.43,-126.37C575.04,-117.07 579.29,-101.98 582.68,-89.9"/>
<polygon fill="#63b8ff" stroke="#63b8ff" points="586.16,-90.48 585.5,-79.91 579.42,-88.58 586.16,-90.48"/>
</a>
</g>
</g>
</g>
</svg>
