<?xml version="1.0" encoding="UTF-8" standalone="no"?>
<!DOCTYPE svg PUBLIC "-//W3C//DTD SVG 1.1//EN"
 "http://www.w3.org/Graphics/SVG/1.1/DTD/svg11.dtd">
<!-- Generated by graphviz version 2.43.0 (0)
 -->
<!-- Title: netspeak/util/check.hpp Pages: 1 -->
<svg width="302pt" height="148pt"
 viewBox="0.00 0.00 301.50 148.00" xmlns="http://www.w3.org/2000/svg" xmlns:xlink="http://www.w3.org/1999/xlink">
<g id="graph0" class="graph" transform="scale(1 1) rotate(0) translate(4 144)">
<title>netspeak/util/check.hpp</title>
<!-- Node1 -->
<g id="Node000001" class="node">
<title>Node1</title>
<g id="a_Node000001"><a xlink:title=" ">
<polygon fill="#999999" stroke="#666666" points="220.5,-140 87.5,-140 87.5,-121 220.5,-121 220.5,-140"/>
<text text-anchor="middle" x="154" y="-128" font-family="Helvetica,sans-Serif" font-size="10.00">netspeak/util/check.hpp</text>
</a>
</g>
</g>
<!-- Node2 -->
<g id="Node000002" class="node">
<title>Node2</title>
<g id="a_Node000002"><a xlink:title=" ">
<polygon fill="#e0e0e0" stroke="#999999" points="50,-19 0,-19 0,0 50,0 50,-19"/>
<text text-anchor="middle" x="25" y="-7" font-family="Helvetica,sans-Serif" font-size="10.00">format</text>
</a>
</g>
</g>
<!-- Node1&#45;&gt;Node2 -->
<g id="edge1_Node000001_Node000002" class="edge">
<title>Node1&#45;&gt;Node2</title>
<g id="a_edge1_Node000001_Node000002"><a xlink:title=" ">
<path fill="none" stroke="#63b8ff" d="M98.88,-120.93C76.47,-114.65 52.3,-103.79 37,-85 24.36,-69.48 22.53,-45.96 23.11,-29.51"/>
<polygon fill="#63b8ff" stroke="#63b8ff" points="26.61,-29.65 23.8,-19.43 19.63,-29.17 26.61,-29.65"/>
</a>
</g>
</g>
<!-- Node3 -->
<g id="Node000003" class="node">
<title>Node3</title>
<g id="a_Node000003"><a xlink:href="std__path__formatter_8hpp.html" target="_top" xlink:title="Defines an std::formatter for std::filesystem::path. MUST be deleted when C++26 is available with tha...">
<polygon fill="white" stroke="#666666" points="171.5,-85 46.5,-85 46.5,-55 171.5,-55 171.5,-85"/>
<text text-anchor="start" x="54.5" y="-73" font-family="Helvetica,sans-Serif" font-size="10.00">netspeak/util/std_path</text>
<text text-anchor="middle" x="109" y="-62" font-family="Helvetica,sans-Serif" font-size="10.00">_formatter.hpp</text>
</a>
</g>
</g>
<!-- Node1&#45;&gt;Node3 -->
<g id="edge2_Node000001_Node000003" class="edge">
<title>Node1&#45;&gt;Node3</title>
<g id="a_edge2_Node000001_Node000003"><a xlink:title=" ">
<path fill="none" stroke="#63b8ff" d="M147.36,-120.87C141.76,-113.59 133.5,-102.85 126.08,-93.2"/>
<polygon fill="#63b8ff" stroke="#63b8ff" points="128.73,-90.91 119.86,-85.11 123.18,-95.17 128.73,-90.91"/>
</a>
</g>
</g>
<!-- Node5 -->
<g id="Node000005" class="node">
<title>Node5</title>
<g id="a_Node000005"><a xlink:title=" ">
<polygon fill="#e0e0e0" stroke="#999999" points="213,-19 169,-19 169,0 213,0 213,-19"/>
<text text-anchor="middle" x="191" y="-7" font-family="Helvetica,sans-Serif" font-size="10.00">string</text>
</a>
</g>
</g>
<!-- Node1&#45;&gt;Node5 -->
<g id="edge7_Node000001_Node000005" class="edge">
<title>Node1&#45;&gt;Node5</title>
<g id="a_edge7_Node000001_Node000005"><a xlink:title=" ">
<path fill="none" stroke="#63b8ff" d="M160.45,-120.79C166.51,-112.16 175.32,-98.34 180,-85 186.42,-66.72 189.09,-44.63 190.21,-29.27"/>
<polygon fill="#63b8ff" stroke="#63b8ff" points="193.72,-29.2 190.79,-19.02 186.73,-28.8 193.72,-29.2"/>
</a>
</g>
</g>
<!-- Node6 -->
<g id="Node000006" class="node">
<title>Node6</title>
<g id="a_Node000006"><a xlink:title=" ">
<polygon fill="#e0e0e0" stroke="#999999" points="293.5,-79.5 228.5,-79.5 228.5,-60.5 293.5,-60.5 293.5,-79.5"/>
<text text-anchor="middle" x="261" y="-67.5" font-family="Helvetica,sans-Serif" font-size="10.00">stdexcept</text>
</a>
</g>
</g>
<!-- Node1&#45;&gt;Node6 -->
<g id="edge6_Node000001_Node000006" class="edge">
<title>Node1&#45;&gt;Node6</title>
<g id="a_edge6_Node000001_Node000006"><a xlink:title=" ">
<path fill="none" stroke="#63b8ff" d="M169.79,-120.87C187.33,-111.28 215.88,-95.67 236.37,-84.47"/>
<polygon fill="#63b8ff" stroke="#63b8ff" points="238.05,-87.54 245.15,-79.67 234.69,-81.39 238.05,-87.54"/>
</a>
</g>
</g>
<!-- Node3&#45;&gt;Node2 -->
<g id="edge4_Node000003_Node000002" class="edge">
<title>Node3&#45;&gt;Node2</title>
<g id="a_edge4_Node000003_Node000002"><a xlink:title=" ">
<path fill="none" stroke="#63b8ff" d="M88.67,-54.84C75.73,-45.83 59.01,-34.18 45.95,-25.09"/>
<polygon fill="#63b8ff" stroke="#63b8ff" points="47.79,-22.11 37.59,-19.27 43.79,-27.85 47.79,-22.11"/>
</a>
</g>
</g>
<!-- Node4 -->
<g id="Node000004" class="node">
<title>Node4</title>
<g id="a_Node000004"><a xlink:title=" ">
<polygon fill="#e0e0e0" stroke="#999999" points="143,-19 75,-19 75,0 143,0 143,-19"/>
<text text-anchor="middle" x="109" y="-7" font-family="Helvetica,sans-Serif" font-size="10.00">filesystem</text>
</a>
</g>
</g>
<!-- Node3&#45;&gt;Node4 -->
<g id="edge3_Node000003_Node000004" class="edge">
<title>Node3&#45;&gt;Node4</title>
<g id="a_edge3_Node000003_Node000004"><a xlink:title=" ">
<path fill="none" stroke="#63b8ff" d="M109,-54.84C109,-47.21 109,-37.7 109,-29.45"/>
<polygon fill="#63b8ff" stroke="#63b8ff" points="112.5,-29.27 109,-19.27 105.5,-29.27 112.5,-29.27"/>
</a>
</g>
</g>
<!-- Node3&#45;&gt;Node5 -->
<g id="edge5_Node000003_Node000005" class="edge">
<title>Node3&#45;&gt;Node5</title>
<g id="a_edge5_Node000003_Node000005"><a xlink:title=" ">
<path fill="none" stroke="#63b8ff" d="M128.85,-54.84C141.48,-45.83 157.8,-34.18 170.55,-25.09"/>
<polygon fill="#63b8ff" stroke="#63b8ff" points="172.6,-27.92 178.71,-19.27 168.54,-22.22 172.6,-27.92"/>
</a>
</g>
</g>
</g>
</svg>
