<?xml version="1.0" encoding="UTF-8" standalone="no"?>
<!DOCTYPE svg PUBLIC "-//W3C//DTD SVG 1.1//EN"
 "http://www.w3.org/Graphics/SVG/1.1/DTD/svg11.dtd">
<!-- Generated by graphviz version 2.43.0 (0)
 -->
<!-- Title: netspeak::SimpleQueryOptimizer::optimize_simple_children Pages: 1 -->
<svg width="767pt" height="150pt"
 viewBox="0.00 0.00 767.00 150.37" xmlns="http://www.w3.org/2000/svg" xmlns:xlink="http://www.w3.org/1999/xlink">
<g id="graph0" class="graph" transform="scale(1 1) rotate(0) translate(4 146.37)">
<title>netspeak::SimpleQueryOptimizer::optimize_simple_children</title>
<!-- Node1 -->
<g id="Node000001" class="node">
<title>Node1</title>
<g id="a_Node000001"><a xlink:title=" ">
<polygon fill="#999999" stroke="#666666" points="759,-70.37 580,-70.37 580,-40.37 759,-40.37 759,-70.37"/>
<text text-anchor="start" x="588" y="-58.37" font-family="Helvetica,sans-Serif" font-size="10.00">netspeak::SimpleQueryOptimizer</text>
<text text-anchor="middle" x="669.5" y="-47.37" font-family="Helvetica,sans-Serif" font-size="10.00">::optimize_simple_children</text>
</a>
</g>
</g>
<!-- Node2 -->
<g id="Node000002" class="node">
<title>Node2</title>
<g id="a_Node000002"><a xlink:href="classnetspeak_1_1SimpleQueryOptimizer.html#a605b78bfa6d1898f7b5b5ca66fd95c31" target="_top" xlink:title=" ">
<polygon fill="white" stroke="#666666" points="544,-142.37 365,-142.37 365,-112.37 544,-112.37 544,-142.37"/>
<text text-anchor="start" x="373" y="-130.37" font-family="Helvetica,sans-Serif" font-size="10.00">netspeak::SimpleQueryOptimizer</text>
<text text-anchor="middle" x="454.5" y="-119.37" font-family="Helvetica,sans-Serif" font-size="10.00">::optimize</text>
</a>
</g>
</g>
<!-- Node1&#45;&gt;Node2 -->
<g id="edge1_Node000001_Node000002" class="edge">
<title>Node1&#45;&gt;Node2</title>
<g id="a_edge1_Node000001_Node000002"><a xlink:title=" ">
<path fill="none" stroke="#63b8ff" d="M623.03,-74.2C599.62,-83.56 570.51,-94.69 544,-103.37 534.47,-106.49 524.27,-109.53 514.31,-112.34"/>
<polygon fill="#63b8ff" stroke="#63b8ff" points="624.39,-77.42 632.36,-70.44 621.77,-70.93 624.39,-77.42"/>
</a>
</g>
</g>
<!-- Node5 -->
<g id="Node000005" class="node">
<title>Node5</title>
<g id="a_Node000005"><a xlink:href="classnetspeak_1_1SimpleQueryOptimizer.html#a55c4015de0d1fa34754beb52f95119f6" target="_top" xlink:title=" ">
<polygon fill="white" stroke="#666666" points="544,-94.37 365,-94.37 365,-64.37 544,-64.37 544,-94.37"/>
<text text-anchor="start" x="373" y="-82.37" font-family="Helvetica,sans-Serif" font-size="10.00">netspeak::SimpleQueryOptimizer</text>
<text text-anchor="middle" x="454.5" y="-71.37" font-family="Helvetica,sans-Serif" font-size="10.00">::optimize_simple_alt</text>
</a>
</g>
</g>
<!-- Node1&#45;&gt;Node5 -->
<g id="edge4_Node000001_Node000005" class="edge">
<title>Node1&#45;&gt;Node5</title>
<g id="a_edge4_Node000001_Node000005"><a xlink:title=" ">
<path fill="none" stroke="#63b8ff" d="M569.73,-66.5C561.2,-67.46 552.59,-68.43 544.14,-69.38"/>
<polygon fill="#63b8ff" stroke="#63b8ff" points="570.17,-69.97 579.71,-65.37 569.38,-63.02 570.17,-69.97"/>
</a>
</g>
</g>
<!-- Node7 -->
<g id="Node000007" class="node">
<title>Node7</title>
<g id="a_Node000007"><a xlink:href="classnetspeak_1_1SimpleQueryOptimizer.html#a1ef947a07a36069a5be13d260b518350" target="_top" xlink:title=" ">
<polygon fill="white" stroke="#666666" points="544,-46.37 365,-46.37 365,-16.37 544,-16.37 544,-46.37"/>
<text text-anchor="start" x="373" y="-34.37" font-family="Helvetica,sans-Serif" font-size="10.00">netspeak::SimpleQueryOptimizer</text>
<text text-anchor="middle" x="454.5" y="-23.37" font-family="Helvetica,sans-Serif" font-size="10.00">::optimize_simple_concat</text>
</a>
</g>
</g>
<!-- Node1&#45;&gt;Node7 -->
<g id="edge7_Node000001_Node000007" class="edge">
<title>Node1&#45;&gt;Node7</title>
<g id="a_edge7_Node000001_Node000007"><a xlink:title=" ">
<path fill="none" stroke="#63b8ff" d="M569.73,-44.24C561.2,-43.28 552.59,-42.31 544.14,-41.36"/>
<polygon fill="#63b8ff" stroke="#63b8ff" points="569.38,-47.72 579.71,-45.37 570.17,-40.77 569.38,-47.72"/>
</a>
</g>
</g>
<!-- Node3 -->
<g id="Node000003" class="node">
<title>Node3</title>
<g id="a_Node000003"><a xlink:href="classnetspeak_1_1QueryNormalizer.html#a70187ab668d98c93cfc3a8d05ca1508e" target="_top" xlink:title=" ">
<polygon fill="white" stroke="#666666" points="315,-142.37 164,-142.37 164,-112.37 315,-112.37 315,-142.37"/>
<text text-anchor="start" x="172" y="-130.37" font-family="Helvetica,sans-Serif" font-size="10.00">netspeak::QueryNormalizer</text>
<text text-anchor="middle" x="239.5" y="-119.37" font-family="Helvetica,sans-Serif" font-size="10.00">::normalize</text>
</a>
</g>
</g>
<!-- Node2&#45;&gt;Node3 -->
<g id="edge2_Node000002_Node000003" class="edge">
<title>Node2&#45;&gt;Node3</title>
<g id="a_edge2_Node000002_Node000003"><a xlink:title=" ">
<path fill="none" stroke="#63b8ff" d="M354.64,-127.37C341.4,-127.37 328.01,-127.37 315.29,-127.37"/>
<polygon fill="#63b8ff" stroke="#63b8ff" points="354.71,-130.87 364.71,-127.37 354.71,-123.87 354.71,-130.87"/>
</a>
</g>
</g>
<!-- Node4 -->
<g id="Node000004" class="node">
<title>Node4</title>
<g id="a_Node000004"><a xlink:href="classnetspeak_1_1Netspeak.html#aaa049275c7a0a7f6721acf7422402bff" target="_top" xlink:title=" ">
<polygon fill="white" stroke="#666666" points="114,-142.37 0,-142.37 0,-112.37 114,-112.37 114,-142.37"/>
<text text-anchor="start" x="8" y="-130.37" font-family="Helvetica,sans-Serif" font-size="10.00">netspeak::Netspeak</text>
<text text-anchor="middle" x="57" y="-119.37" font-family="Helvetica,sans-Serif" font-size="10.00">::search_raw_</text>
</a>
</g>
</g>
<!-- Node3&#45;&gt;Node4 -->
<g id="edge3_Node000003_Node000004" class="edge">
<title>Node3&#45;&gt;Node4</title>
<g id="a_edge3_Node000003_Node000004"><a xlink:title=" ">
<path fill="none" stroke="#63b8ff" d="M153.6,-127.37C140.23,-127.37 126.7,-127.37 114.19,-127.37"/>
<polygon fill="#63b8ff" stroke="#63b8ff" points="153.78,-130.87 163.78,-127.37 153.78,-123.87 153.78,-130.87"/>
</a>
</g>
</g>
<!-- Node6 -->
<g id="Node000006" class="node">
<title>Node6</title>
<g id="a_Node000006"><a xlink:href="classnetspeak_1_1SimpleQueryOptimizer.html#a6df1cdcea41d9914bb1063642d615bdf" target="_top" xlink:title=" ">
<polygon fill="white" stroke="#666666" points="329,-46.37 150,-46.37 150,-16.37 329,-16.37 329,-46.37"/>
<text text-anchor="start" x="158" y="-34.37" font-family="Helvetica,sans-Serif" font-size="10.00">netspeak::SimpleQueryOptimizer</text>
<text text-anchor="middle" x="239.5" y="-23.37" font-family="Helvetica,sans-Serif" font-size="10.00">::optimize_simple_unit</text>
</a>
</g>
</g>
<!-- Node5&#45;&gt;Node6 -->
<g id="edge5_Node000005_Node000006" class="edge">
<title>Node5&#45;&gt;Node6</title>
<g id="a_edge5_Node000005_Node000006"><a xlink:title=" ">
<path fill="none" stroke="#63b8ff" d="M376.72,-62.07C353.92,-56.93 329.16,-51.35 307.07,-46.37"/>
<polygon fill="#63b8ff" stroke="#63b8ff" points="376.17,-65.53 386.69,-64.31 377.7,-58.7 376.17,-65.53"/>
</a>
</g>
</g>
<!-- Node6&#45;&gt;Node1 -->
<g id="edge6_Node000006_Node000001" class="edge">
<title>Node6&#45;&gt;Node1</title>
<g id="a_edge6_Node000006_Node000001"><a xlink:title=" ">
<path fill="none" stroke="#63b8ff" d="M316.19,-14.47C377.95,-3.28 467.21,6.92 544,-7.37 577.71,-13.64 614.05,-28.71 638.72,-40.3"/>
<polygon fill="#63b8ff" stroke="#63b8ff" points="315.33,-11.07 306.14,-16.34 316.62,-17.95 315.33,-11.07"/>
</a>
</g>
</g>
<!-- Node7&#45;&gt;Node6 -->
<g id="edge8_Node000007_Node000006" class="edge">
<title>Node7&#45;&gt;Node6</title>
<g id="a_edge8_Node000007_Node000006"><a xlink:title=" ">
<path fill="none" stroke="#63b8ff" d="M354.46,-31.37C346.01,-31.37 337.5,-31.37 329.14,-31.37"/>
<polygon fill="#63b8ff" stroke="#63b8ff" points="354.71,-34.87 364.71,-31.37 354.71,-27.87 354.71,-34.87"/>
</a>
</g>
</g>
</g>
</svg>
