<?xml version="1.0" encoding="UTF-8" standalone="no"?>
<!DOCTYPE svg PUBLIC "-//W3C//DTD SVG 1.1//EN"
 "http://www.w3.org/Graphics/SVG/1.1/DTD/svg11.dtd">
<!-- Generated by graphviz version 2.43.0 (0)
 -->
<!-- Title: netspeak::util::Config::merge_properties Pages: 1 -->
<svg width="1250pt" height="705pt"
 viewBox="0.00 0.00 1250.00 704.60" xmlns="http://www.w3.org/2000/svg" xmlns:xlink="http://www.w3.org/1999/xlink">
<g id="graph0" class="graph" transform="scale(1 1) rotate(0) translate(4 700.6)">
<title>netspeak::util::Config::merge_properties</title>
<!-- Node1 -->
<g id="Node000001" class="node">
<title>Node1</title>
<g id="a_Node000001"><a xlink:title="Inserts all key&#45;value&#45;pairs of the given .properties file into this config overwriting existing keys.">
<polygon fill="#999999" stroke="#666666" points="120,-603.51 0,-603.51 0,-573.51 120,-573.51 120,-603.51"/>
<text text-anchor="start" x="8" y="-591.51" font-family="Helvetica,sans-Serif" font-size="10.00">netspeak::util::Config</text>
<text text-anchor="middle" x="60" y="-580.51" font-family="Helvetica,sans-Serif" font-size="10.00">::merge_properties</text>
</a>
</g>
</g>
<!-- Node2 -->
<g id="Node000002" class="node">
<title>Node2</title>
<g id="a_Node000002"><a xlink:href="namespacenetspeak_1_1util.html#a4c91ad572508b4021399ac7dddff574d" target="_top" xlink:title=" ">
<polygon fill="white" stroke="#666666" points="1242,-450.01 1129,-450.01 1129,-431.01 1242,-431.01 1242,-450.01"/>
<text text-anchor="middle" x="1185.5" y="-438.01" font-family="Helvetica,sans-Serif" font-size="10.00">netspeak::util::hash</text>
</a>
</g>
</g>
<!-- Node1&#45;&gt;Node2 -->
<g id="edge1_Node000001_Node000002" class="edge">
<title>Node1&#45;&gt;Node2</title>
<g id="a_edge1_Node000001_Node000002"><a xlink:title=" ">
<path fill="none" stroke="#63b8ff" d="M87.72,-603.63C141.29,-632.47 266.36,-692.51 379.5,-692.51 379.5,-692.51 379.5,-692.51 814,-692.51 940.3,-692.51 993.58,-716.4 1093,-638.51 1151.58,-592.61 1174.14,-500.5 1181.46,-460.17"/>
<polygon fill="#63b8ff" stroke="#63b8ff" points="1184.93,-460.69 1183.14,-450.25 1178.02,-459.53 1184.93,-460.69"/>
</a>
</g>
</g>
<!-- Node3 -->
<g id="Node000003" class="node">
<title>Node3</title>
<g id="a_Node000003"><a xlink:href="namespacenetspeak_1_1util.html#ab983702eeba4e18c2a929f67b8a81f8e" target="_top" xlink:title=" ">
<polygon fill="white" stroke="#666666" points="267,-525.51 156,-525.51 156,-495.51 267,-495.51 267,-525.51"/>
<text text-anchor="start" x="164" y="-513.51" font-family="Helvetica,sans-Serif" font-size="10.00">netspeak::util::read</text>
<text text-anchor="middle" x="211.5" y="-502.51" font-family="Helvetica,sans-Serif" font-size="10.00">_properties</text>
</a>
</g>
</g>
<!-- Node1&#45;&gt;Node3 -->
<g id="edge2_Node000001_Node000003" class="edge">
<title>Node1&#45;&gt;Node3</title>
<g id="a_edge2_Node000001_Node000003"><a xlink:title=" ">
<path fill="none" stroke="#63b8ff" d="M89.83,-573.47C113.33,-561.2 146.72,-543.78 172.42,-530.37"/>
<polygon fill="#63b8ff" stroke="#63b8ff" points="174.26,-533.36 181.51,-525.63 171.02,-527.15 174.26,-533.36"/>
</a>
</g>
</g>
<!-- Node3&#45;&gt;Node2 -->
<g id="edge22_Node000003_Node000002" class="edge">
<title>Node3&#45;&gt;Node2</title>
<g id="a_edge22_Node000003_Node000002"><a xlink:title=" ">
<path fill="none" stroke="#63b8ff" d="M234.67,-525.64C291.05,-562.62 445.55,-654.51 588.5,-654.51 588.5,-654.51 588.5,-654.51 814,-654.51 867.91,-654.51 1070.85,-624.33 1093,-608.51 1144.7,-571.57 1170.22,-496.03 1179.83,-460.2"/>
<polygon fill="#63b8ff" stroke="#63b8ff" points="1183.33,-460.61 1182.4,-450.06 1176.55,-458.89 1183.33,-460.61"/>
</a>
</g>
</g>
<!-- Node4 -->
<g id="Node000004" class="node">
<title>Node4</title>
<g id="a_Node000004"><a xlink:href="namespacenetspeak_1_1util_1_1____properties__format__impl.html#a79974e3fe882dbb2691fd91d40b8c12a" target="_top" xlink:title=" ">
<polygon fill="white" stroke="#666666" points="680.5,-502.51 498.5,-502.51 498.5,-472.51 680.5,-472.51 680.5,-502.51"/>
<text text-anchor="start" x="506.5" y="-490.51" font-family="Helvetica,sans-Serif" font-size="10.00">netspeak::util::__properties</text>
<text text-anchor="middle" x="589.5" y="-479.51" font-family="Helvetica,sans-Serif" font-size="10.00">_format_impl::consume_delimiter</text>
</a>
</g>
</g>
<!-- Node3&#45;&gt;Node4 -->
<g id="edge3_Node000003_Node000004" class="edge">
<title>Node3&#45;&gt;Node4</title>
<g id="a_edge3_Node000003_Node000004"><a xlink:title=" ">
<path fill="none" stroke="#63b8ff" d="M267.17,-507.16C324.93,-503.63 417.27,-497.98 488.17,-493.64"/>
<polygon fill="#63b8ff" stroke="#63b8ff" points="488.7,-497.12 498.47,-493.01 488.27,-490.13 488.7,-497.12"/>
</a>
</g>
</g>
<!-- Node8 -->
<g id="Node000008" class="node">
<title>Node8</title>
<g id="a_Node000008"><a xlink:href="namespacenetspeak_1_1util_1_1____properties__format__impl.html#ac99408cc0a540ee09b3b8b704e629e21" target="_top" xlink:title=" ">
<polygon fill="white" stroke="#666666" points="458,-169.51 303,-169.51 303,-139.51 458,-139.51 458,-169.51"/>
<text text-anchor="start" x="311" y="-157.51" font-family="Helvetica,sans-Serif" font-size="10.00">netspeak::util::__properties</text>
<text text-anchor="middle" x="380.5" y="-146.51" font-family="Helvetica,sans-Serif" font-size="10.00">_format_impl::has_next_key</text>
</a>
</g>
</g>
<!-- Node3&#45;&gt;Node8 -->
<g id="edge12_Node000003_Node000008" class="edge">
<title>Node3&#45;&gt;Node8</title>
<g id="a_edge12_Node000003_Node000008"><a xlink:title=" ">
<path fill="none" stroke="#63b8ff" d="M219.68,-495.21C245.8,-439.52 335.97,-247.31 368.05,-178.91"/>
<polygon fill="#63b8ff" stroke="#63b8ff" points="371.27,-180.28 372.35,-169.75 364.94,-177.31 371.27,-180.28"/>
</a>
</g>
</g>
<!-- Node12 -->
<g id="Node000012" class="node">
<title>Node12</title>
<g id="a_Node000012"><a xlink:href="namespacenetspeak_1_1util_1_1____properties__format__impl.html#adc344752ed982478c94e200219251a68" target="_top" xlink:title=" ">
<polygon fill="white" stroke="#666666" points="455,-411.51 306,-411.51 306,-381.51 455,-381.51 455,-411.51"/>
<text text-anchor="start" x="314" y="-399.51" font-family="Helvetica,sans-Serif" font-size="10.00">netspeak::util::__properties</text>
<text text-anchor="middle" x="380.5" y="-388.51" font-family="Helvetica,sans-Serif" font-size="10.00">_format_impl::read_key</text>
</a>
</g>
</g>
<!-- Node3&#45;&gt;Node12 -->
<g id="edge23_Node000003_Node000012" class="edge">
<title>Node3&#45;&gt;Node12</title>
<g id="a_edge23_Node000003_Node000012"><a xlink:title=" ">
<path fill="none" stroke="#63b8ff" d="M234.68,-495.37C264.08,-475.3 316.09,-439.79 349.13,-417.24"/>
<polygon fill="#63b8ff" stroke="#63b8ff" points="351.21,-420.05 357.5,-411.52 347.27,-414.27 351.21,-420.05"/>
</a>
</g>
</g>
<!-- Node14 -->
<g id="Node000014" class="node">
<title>Node14</title>
<g id="a_Node000014"><a xlink:href="namespacenetspeak_1_1util_1_1____properties__format__impl.html#ade4a46287211bbb82452f355c871959f" target="_top" xlink:title=" ">
<polygon fill="white" stroke="#666666" points="455,-549.51 306,-549.51 306,-519.51 455,-519.51 455,-549.51"/>
<text text-anchor="start" x="314" y="-537.51" font-family="Helvetica,sans-Serif" font-size="10.00">netspeak::util::__properties</text>
<text text-anchor="middle" x="380.5" y="-526.51" font-family="Helvetica,sans-Serif" font-size="10.00">_format_impl::read_value</text>
</a>
</g>
</g>
<!-- Node3&#45;&gt;Node14 -->
<g id="edge31_Node000003_Node000014" class="edge">
<title>Node3&#45;&gt;Node14</title>
<g id="a_edge31_Node000003_Node000014"><a xlink:title=" ">
<path fill="none" stroke="#63b8ff" d="M267.18,-518.36C276.36,-519.68 286.07,-521.08 295.78,-522.47"/>
<polygon fill="#63b8ff" stroke="#63b8ff" points="295.48,-525.97 305.88,-523.93 296.48,-519.04 295.48,-525.97"/>
</a>
</g>
</g>
<!-- Node4&#45;&gt;Node2 -->
<g id="edge8_Node000004_Node000002" class="edge">
<title>Node4&#45;&gt;Node2</title>
<g id="a_edge8_Node000004_Node000002"><a xlink:title=" ">
<path fill="none" stroke="#63b8ff" d="M680.54,-489.55C781.59,-490.42 950.1,-487.59 1093,-464.51 1109.89,-461.78 1128.19,-457.29 1143.95,-452.94"/>
<polygon fill="#63b8ff" stroke="#63b8ff" points="1145.23,-456.21 1153.9,-450.11 1143.32,-449.48 1145.23,-456.21"/>
</a>
</g>
</g>
<!-- Node5 -->
<g id="Node000005" class="node">
<title>Node5</title>
<g id="a_Node000005"><a xlink:href="namespacenetspeak_1_1util_1_1____properties__format__impl.html#a7a52afc2a2c7f77e22813f03db4201f7" target="_top" xlink:title="Consumes any number of spaces and tabs.">
<polygon fill="white" stroke="#666666" points="898.5,-550.51 727.5,-550.51 727.5,-520.51 898.5,-520.51 898.5,-550.51"/>
<text text-anchor="start" x="735.5" y="-538.51" font-family="Helvetica,sans-Serif" font-size="10.00">netspeak::util::__properties</text>
<text text-anchor="middle" x="813" y="-527.51" font-family="Helvetica,sans-Serif" font-size="10.00">_format_impl::consume_spaces</text>
</a>
</g>
</g>
<!-- Node4&#45;&gt;Node5 -->
<g id="edge4_Node000004_Node000005" class="edge">
<title>Node4&#45;&gt;Node5</title>
<g id="a_edge4_Node000004_Node000005"><a xlink:title=" ">
<path fill="none" stroke="#63b8ff" d="M659.98,-502.56C683.07,-507.56 708.95,-513.17 732.72,-518.33"/>
<polygon fill="#63b8ff" stroke="#63b8ff" points="732.26,-521.81 742.77,-520.5 733.74,-514.96 732.26,-521.81"/>
</a>
</g>
</g>
<!-- Node6 -->
<g id="Node000006" class="node">
<title>Node6</title>
<g id="a_Node000006"><a xlink:href="namespacenetspeak_1_1util_1_1____properties__format__impl.html#aa1caae33d5ecb274023b62bc9244f942" target="_top" xlink:title=" ">
<polygon fill="white" stroke="#666666" points="1091.5,-455.51 942.5,-455.51 942.5,-425.51 1091.5,-425.51 1091.5,-455.51"/>
<text text-anchor="start" x="950.5" y="-443.51" font-family="Helvetica,sans-Serif" font-size="10.00">netspeak::util::__properties</text>
<text text-anchor="middle" x="1017" y="-432.51" font-family="Helvetica,sans-Serif" font-size="10.00">_format_impl::is_space</text>
</a>
</g>
</g>
<!-- Node4&#45;&gt;Node6 -->
<g id="edge11_Node000004_Node000006" class="edge">
<title>Node4&#45;&gt;Node6</title>
<g id="a_edge11_Node000004_Node000006"><a xlink:title=" ">
<path fill="none" stroke="#63b8ff" d="M680.74,-477.54C755.06,-469.33 859.65,-457.78 932.16,-449.77"/>
<polygon fill="#63b8ff" stroke="#63b8ff" points="932.62,-453.24 942.17,-448.66 931.85,-446.28 932.62,-453.24"/>
</a>
</g>
</g>
<!-- Node7 -->
<g id="Node000007" class="node">
<title>Node7</title>
<g id="a_Node000007"><a xlink:href="namespacenetspeak_1_1util_1_1____properties__format__impl.html#a72f1b7f09e99f69f4169835c85f0a926" target="_top" xlink:title=" ">
<polygon fill="white" stroke="#666666" points="887.5,-388.51 738.5,-388.51 738.5,-358.51 887.5,-358.51 887.5,-388.51"/>
<text text-anchor="start" x="746.5" y="-376.51" font-family="Helvetica,sans-Serif" font-size="10.00">netspeak::util::__properties</text>
<text text-anchor="middle" x="813" y="-365.51" font-family="Helvetica,sans-Serif" font-size="10.00">_format_impl::is_delimiter</text>
</a>
</g>
</g>
<!-- Node4&#45;&gt;Node7 -->
<g id="edge9_Node000004_Node000007" class="edge">
<title>Node4&#45;&gt;Node7</title>
<g id="a_edge9_Node000004_Node000007"><a xlink:title=" ">
<path fill="none" stroke="#63b8ff" d="M619.91,-472.37C659.49,-452 729.96,-415.73 773.65,-393.24"/>
<polygon fill="#63b8ff" stroke="#63b8ff" points="775.53,-396.21 782.82,-388.52 772.32,-389.99 775.53,-396.21"/>
</a>
</g>
</g>
<!-- Node5&#45;&gt;Node2 -->
<g id="edge5_Node000005_Node000002" class="edge">
<title>Node5&#45;&gt;Node2</title>
<g id="a_edge5_Node000005_Node000002"><a xlink:title=" ">
<path fill="none" stroke="#63b8ff" d="M898.71,-537.93C955.42,-536.88 1030.77,-530.23 1093,-506.51 1121.94,-495.47 1150.04,-472.89 1167.29,-457.23"/>
<polygon fill="#63b8ff" stroke="#63b8ff" points="1169.92,-459.56 1174.85,-450.18 1165.15,-454.45 1169.92,-459.56"/>
</a>
</g>
</g>
<!-- Node5&#45;&gt;Node6 -->
<g id="edge6_Node000005_Node000006" class="edge">
<title>Node5&#45;&gt;Node6</title>
<g id="a_edge6_Node000005_Node000006"><a xlink:title=" ">
<path fill="none" stroke="#63b8ff" d="M846.01,-520.45C880.77,-504.1 936.43,-477.93 974.53,-460.01"/>
<polygon fill="#63b8ff" stroke="#63b8ff" points="976.25,-463.07 983.81,-455.64 973.27,-456.73 976.25,-463.07"/>
</a>
</g>
</g>
<!-- Node6&#45;&gt;Node2 -->
<g id="edge7_Node000006_Node000002" class="edge">
<title>Node6&#45;&gt;Node2</title>
<g id="a_edge7_Node000006_Node000002"><a xlink:title=" ">
<path fill="none" stroke="#63b8ff" d="M1091.51,-440.51C1100.53,-440.51 1109.7,-440.51 1118.6,-440.51"/>
<polygon fill="#63b8ff" stroke="#63b8ff" points="1118.88,-444.01 1128.88,-440.51 1118.88,-437.01 1118.88,-444.01"/>
</a>
</g>
</g>
<!-- Node7&#45;&gt;Node2 -->
<g id="edge10_Node000007_Node000002" class="edge">
<title>Node7&#45;&gt;Node2</title>
<g id="a_edge10_Node000007_Node000002"><a xlink:title=" ">
<path fill="none" stroke="#63b8ff" d="M887.51,-382.72C943.98,-390.31 1023.78,-402.13 1093,-416.51 1108.96,-419.82 1126.3,-424.17 1141.55,-428.26"/>
<polygon fill="#63b8ff" stroke="#63b8ff" points="1140.66,-431.64 1151.23,-430.89 1142.5,-424.89 1140.66,-431.64"/>
</a>
</g>
</g>
<!-- Node8&#45;&gt;Node2 -->
<g id="edge21_Node000008_Node000002" class="edge">
<title>Node8&#45;&gt;Node2</title>
<g id="a_edge21_Node000008_Node000002"><a xlink:title=" ">
<path fill="none" stroke="#63b8ff" d="M408.06,-139.35C509.72,-83.53 879.16,98.74 1093,-70.51 1149.4,-115.14 1176,-350.79 1182.73,-420.85"/>
<polygon fill="#63b8ff" stroke="#63b8ff" points="1179.26,-421.32 1183.68,-430.95 1186.23,-420.66 1179.26,-421.32"/>
</a>
</g>
</g>
<!-- Node9 -->
<g id="Node000009" class="node">
<title>Node9</title>
<g id="a_Node000009"><a xlink:href="namespacenetspeak_1_1util_1_1____properties__format__impl.html#a52f1ab753d9c8ccb115fc828a3257fae" target="_top" xlink:title="Consumes all spaces, empty lines, can comments before a key.">
<polygon fill="white" stroke="#666666" points="685,-169.51 494,-169.51 494,-139.51 685,-139.51 685,-169.51"/>
<text text-anchor="start" x="502" y="-157.51" font-family="Helvetica,sans-Serif" font-size="10.00">netspeak::util::__properties</text>
<text text-anchor="middle" x="589.5" y="-146.51" font-family="Helvetica,sans-Serif" font-size="10.00">_format_impl::consume_before_key</text>
</a>
</g>
</g>
<!-- Node8&#45;&gt;Node9 -->
<g id="edge13_Node000008_Node000009" class="edge">
<title>Node8&#45;&gt;Node9</title>
<g id="a_edge13_Node000008_Node000009"><a xlink:title=" ">
<path fill="none" stroke="#63b8ff" d="M458.28,-154.51C466.64,-154.51 475.24,-154.51 483.85,-154.51"/>
<polygon fill="#63b8ff" stroke="#63b8ff" points="483.95,-158.01 493.95,-154.51 483.95,-151.01 483.95,-158.01"/>
</a>
</g>
</g>
<!-- Node9&#45;&gt;Node2 -->
<g id="edge18_Node000009_Node000002" class="edge">
<title>Node9&#45;&gt;Node2</title>
<g id="a_edge18_Node000009_Node000002"><a xlink:title=" ">
<path fill="none" stroke="#63b8ff" d="M623.73,-139.45C711.86,-102.05 954.26,-15.96 1093,-131.51 1138.83,-169.68 1171.8,-358.63 1181.53,-420.71"/>
<polygon fill="#63b8ff" stroke="#63b8ff" points="1178.1,-421.4 1183.07,-430.76 1185.01,-420.34 1178.1,-421.4"/>
</a>
</g>
</g>
<!-- Node9&#45;&gt;Node6 -->
<g id="edge20_Node000009_Node000006" class="edge">
<title>Node9&#45;&gt;Node6</title>
<g id="a_edge20_Node000009_Node000006"><a xlink:title=" ">
<path fill="none" stroke="#63b8ff" d="M617.35,-169.55C672.64,-200.86 802.58,-276.25 905,-349.51 935.87,-371.58 969.29,-399.6 991.31,-418.67"/>
<polygon fill="#63b8ff" stroke="#63b8ff" points="989.04,-421.34 998.88,-425.27 993.64,-416.06 989.04,-421.34"/>
</a>
</g>
</g>
<!-- Node10 -->
<g id="Node000010" class="node">
<title>Node10</title>
<g id="a_Node000010"><a xlink:href="namespacenetspeak_1_1util_1_1____properties__format__impl.html#aa59494f19b87314e52797323b69dbaa9" target="_top" xlink:title="Consumes a comment.">
<polygon fill="white" stroke="#666666" points="905,-150.51 721,-150.51 721,-120.51 905,-120.51 905,-150.51"/>
<text text-anchor="start" x="729" y="-138.51" font-family="Helvetica,sans-Serif" font-size="10.00">netspeak::util::__properties</text>
<text text-anchor="middle" x="813" y="-127.51" font-family="Helvetica,sans-Serif" font-size="10.00">_format_impl::consume_comment</text>
</a>
</g>
</g>
<!-- Node9&#45;&gt;Node10 -->
<g id="edge14_Node000009_Node000010" class="edge">
<title>Node9&#45;&gt;Node10</title>
<g id="a_edge14_Node000009_Node000010"><a xlink:title=" ">
<path fill="none" stroke="#63b8ff" d="M685.08,-146.39C693.61,-145.66 702.28,-144.92 710.87,-144.18"/>
<polygon fill="#63b8ff" stroke="#63b8ff" points="711.24,-147.66 720.9,-143.32 710.64,-140.69 711.24,-147.66"/>
</a>
</g>
</g>
<!-- Node11 -->
<g id="Node000011" class="node">
<title>Node11</title>
<g id="a_Node000011"><a xlink:href="namespacenetspeak_1_1util_1_1____properties__format__impl.html#a1edacf213d0577079a2dd1e6381db099" target="_top" xlink:title=" ">
<polygon fill="white" stroke="#666666" points="1093,-231.51 941,-231.51 941,-201.51 1093,-201.51 1093,-231.51"/>
<text text-anchor="start" x="949" y="-219.51" font-family="Helvetica,sans-Serif" font-size="10.00">netspeak::util::__properties</text>
<text text-anchor="middle" x="1017" y="-208.51" font-family="Helvetica,sans-Serif" font-size="10.00">_format_impl::is_line_break</text>
</a>
</g>
</g>
<!-- Node9&#45;&gt;Node11 -->
<g id="edge19_Node000009_Node000011" class="edge">
<title>Node9&#45;&gt;Node11</title>
<g id="a_edge19_Node000009_Node000011"><a xlink:title=" ">
<path fill="none" stroke="#63b8ff" d="M685.2,-168.3C758.6,-179 859.44,-193.69 930.44,-204.04"/>
<polygon fill="#63b8ff" stroke="#63b8ff" points="930.29,-207.55 940.69,-205.53 931.3,-200.63 930.29,-207.55"/>
</a>
</g>
</g>
<!-- Node10&#45;&gt;Node2 -->
<g id="edge15_Node000010_Node000002" class="edge">
<title>Node10&#45;&gt;Node2</title>
<g id="a_edge15_Node000010_Node000002"><a xlink:title=" ">
<path fill="none" stroke="#63b8ff" d="M905.17,-132.39C965.04,-135.12 1041.52,-148.31 1093,-192.51 1163.61,-253.13 1179.77,-373.31 1183.44,-420.67"/>
<polygon fill="#63b8ff" stroke="#63b8ff" points="1179.95,-421.07 1184.11,-430.82 1186.94,-420.61 1179.95,-421.07"/>
</a>
</g>
</g>
<!-- Node10&#45;&gt;Node11 -->
<g id="edge16_Node000010_Node000011" class="edge">
<title>Node10&#45;&gt;Node11</title>
<g id="a_edge16_Node000010_Node000011"><a xlink:title=" ">
<path fill="none" stroke="#63b8ff" d="M865.43,-150.61C878.45,-154.79 892.34,-159.55 905,-164.51 929.4,-174.06 956.01,-186.46 977.06,-196.75"/>
<polygon fill="#63b8ff" stroke="#63b8ff" points="975.79,-200.03 986.31,-201.31 978.89,-193.75 975.79,-200.03"/>
</a>
</g>
</g>
<!-- Node11&#45;&gt;Node2 -->
<g id="edge17_Node000011_Node000002" class="edge">
<title>Node11&#45;&gt;Node2</title>
<g id="a_edge17_Node000011_Node000002"><a xlink:title=" ">
<path fill="none" stroke="#63b8ff" d="M1029.47,-231.73C1044.22,-251.3 1070.59,-286.38 1093,-316.51 1121.04,-354.19 1153.65,-398.51 1171.38,-422.64"/>
<polygon fill="#63b8ff" stroke="#63b8ff" points="1168.67,-424.85 1177.41,-430.84 1174.31,-420.71 1168.67,-424.85"/>
</a>
</g>
</g>
<!-- Node12&#45;&gt;Node2 -->
<g id="edge24_Node000012_Node000002" class="edge">
<title>Node12&#45;&gt;Node2</title>
<g id="a_edge24_Node000012_Node000002"><a xlink:title=" ">
<path fill="none" stroke="#63b8ff" d="M454.35,-381.48C555.51,-362.56 744.21,-334.25 905,-349.51 989.69,-357.54 1013.54,-355.12 1093,-385.51 1118.8,-395.37 1145.57,-412.39 1163.44,-424.89"/>
<polygon fill="#63b8ff" stroke="#63b8ff" points="1161.74,-427.98 1171.91,-430.95 1165.82,-422.29 1161.74,-427.98"/>
</a>
</g>
</g>
<!-- Node12&#45;&gt;Node6 -->
<g id="edge27_Node000012_Node000006" class="edge">
<title>Node12&#45;&gt;Node6</title>
<g id="a_edge27_Node000012_Node000006"><a xlink:title=" ">
<path fill="none" stroke="#63b8ff" d="M455.22,-401.62C574.01,-409.85 807.08,-426.02 932.08,-434.69"/>
<polygon fill="#63b8ff" stroke="#63b8ff" points="932.14,-438.2 942.36,-435.4 932.63,-431.22 932.14,-438.2"/>
</a>
</g>
</g>
<!-- Node12&#45;&gt;Node7 -->
<g id="edge25_Node000012_Node000007" class="edge">
<title>Node12&#45;&gt;Node7</title>
<g id="a_edge25_Node000012_Node000007"><a xlink:title=" ">
<path fill="none" stroke="#63b8ff" d="M455.02,-392.58C530.75,-388.53 648.61,-382.23 727.98,-377.99"/>
<polygon fill="#63b8ff" stroke="#63b8ff" points="728.63,-381.46 738.43,-377.44 728.25,-374.47 728.63,-381.46"/>
</a>
</g>
</g>
<!-- Node12&#45;&gt;Node11 -->
<g id="edge26_Node000012_Node000011" class="edge">
<title>Node12&#45;&gt;Node11</title>
<g id="a_edge26_Node000012_Node000011"><a xlink:title=" ">
<path fill="none" stroke="#63b8ff" d="M387.06,-381.45C400,-348.85 435.56,-272.13 494,-240.51 567.02,-200.99 802.49,-205.71 930.77,-211.61"/>
<polygon fill="#63b8ff" stroke="#63b8ff" points="930.8,-215.12 940.95,-212.1 931.13,-208.13 930.8,-215.12"/>
</a>
</g>
</g>
<!-- Node13 -->
<g id="Node000013" class="node">
<title>Node13</title>
<g id="a_Node000013"><a xlink:href="namespacenetspeak_1_1util_1_1____properties__format__impl.html#a7e7be7309c9b3600a7b0bc065e4ffcd8" target="_top" xlink:title=" ">
<polygon fill="white" stroke="#666666" points="667,-550.51 512,-550.51 512,-520.51 667,-520.51 667,-550.51"/>
<text text-anchor="start" x="520" y="-538.51" font-family="Helvetica,sans-Serif" font-size="10.00">netspeak::util::__properties</text>
<text text-anchor="middle" x="589.5" y="-527.51" font-family="Helvetica,sans-Serif" font-size="10.00">_format_impl::read_escaped</text>
</a>
</g>
</g>
<!-- Node12&#45;&gt;Node13 -->
<g id="edge28_Node000012_Node000013" class="edge">
<title>Node12&#45;&gt;Node13</title>
<g id="a_edge28_Node000012_Node000013"><a xlink:title=" ">
<path fill="none" stroke="#63b8ff" d="M392.04,-411.78C409.99,-436.62 448.98,-485.58 494,-511.51 497.19,-513.35 500.53,-515.05 503.96,-516.62"/>
<polygon fill="#63b8ff" stroke="#63b8ff" points="502.64,-519.86 513.22,-520.48 505.34,-513.4 502.64,-519.86"/>
</a>
</g>
</g>
<!-- Node13&#45;&gt;Node2 -->
<g id="edge30_Node000013_Node000002" class="edge">
<title>Node13&#45;&gt;Node2</title>
<g id="a_edge30_Node000013_Node000002"><a xlink:title=" ">
<path fill="none" stroke="#63b8ff" d="M645.47,-550.55C741.99,-573.79 945.66,-608.52 1093,-534.51 1127.9,-516.97 1157.11,-480.74 1172.58,-458.74"/>
<polygon fill="#63b8ff" stroke="#63b8ff" points="1175.61,-460.51 1178.35,-450.27 1169.83,-456.57 1175.61,-460.51"/>
</a>
</g>
</g>
<!-- Node13&#45;&gt;Node5 -->
<g id="edge29_Node000013_Node000005" class="edge">
<title>Node13&#45;&gt;Node5</title>
<g id="a_edge29_Node000013_Node000005"><a xlink:title=" ">
<path fill="none" stroke="#63b8ff" d="M667.04,-535.51C683.09,-535.51 700.2,-535.51 716.84,-535.51"/>
<polygon fill="#63b8ff" stroke="#63b8ff" points="717.12,-539.01 727.12,-535.51 717.12,-532.01 717.12,-539.01"/>
</a>
</g>
</g>
<!-- Node14&#45;&gt;Node2 -->
<g id="edge32_Node000014_Node000002" class="edge">
<title>Node14&#45;&gt;Node2</title>
<g id="a_edge32_Node000014_Node000002"><a xlink:title=" ">
<path fill="none" stroke="#63b8ff" d="M419.17,-549.51C530.97,-591.47 867.19,-698.64 1093,-568.51 1136.42,-543.48 1164.6,-488.58 1177.08,-459.48"/>
<polygon fill="#63b8ff" stroke="#63b8ff" points="1180.4,-460.61 1180.97,-450.03 1173.93,-457.95 1180.4,-460.61"/>
</a>
</g>
</g>
<!-- Node14&#45;&gt;Node11 -->
<g id="edge33_Node000014_Node000011" class="edge">
<title>Node14&#45;&gt;Node11</title>
<g id="a_edge33_Node000014_Node000011"><a xlink:title=" ">
<path fill="none" stroke="#63b8ff" d="M403.94,-519.43C426.37,-504.58 462.03,-481.57 494,-463.51 664.31,-367.3 878.2,-274.28 970.34,-235.46"/>
<polygon fill="#63b8ff" stroke="#63b8ff" points="971.79,-238.64 979.66,-231.54 969.08,-232.19 971.79,-238.64"/>
</a>
</g>
</g>
<!-- Node14&#45;&gt;Node13 -->
<g id="edge34_Node000014_Node000013" class="edge">
<title>Node14&#45;&gt;Node13</title>
<g id="a_edge34_Node000014_Node000013"><a xlink:title=" ">
<path fill="none" stroke="#63b8ff" d="M455.06,-534.86C470.12,-534.93 486.11,-535.01 501.59,-535.09"/>
<polygon fill="#63b8ff" stroke="#63b8ff" points="501.66,-538.59 511.67,-535.13 501.69,-531.59 501.66,-538.59"/>
</a>
</g>
</g>
</g>
</svg>
