<?xml version="1.0" encoding="UTF-8" standalone="no"?>
<!DOCTYPE svg PUBLIC "-//W3C//DTD SVG 1.1//EN"
 "http://www.w3.org/Graphics/SVG/1.1/DTD/svg11.dtd">
<!-- Generated by graphviz version 2.43.0 (0)
 -->
<!-- Title: netspeak::bighashmap::Builder::Partition Pages: 1 -->
<svg width="601pt" height="236pt"
 viewBox="0.00 0.00 601.00 236.00" xmlns="http://www.w3.org/2000/svg" xmlns:xlink="http://www.w3.org/1999/xlink">
<g id="graph0" class="graph" transform="scale(1 1) rotate(0) translate(4 232)">
<title>netspeak::bighashmap::Builder::Partition</title>
<!-- Node1 -->
<g id="Node000001" class="node">
<title>Node1</title>
<g id="a_Node000001"><a xlink:title=" ">
<polygon fill="#999999" stroke="#666666" points="128,-166 0,-166 0,-136 128,-136 128,-166"/>
<text text-anchor="start" x="8" y="-154" font-family="Helvetica,sans-Serif" font-size="10.00">netspeak::bighashmap</text>
<text text-anchor="middle" x="64" y="-143" font-family="Helvetica,sans-Serif" font-size="10.00">::Builder::Partition</text>
</a>
</g>
</g>
<!-- Node2 -->
<g id="Node000002" class="node">
<title>Node2</title>
<g id="a_Node000002"><a xlink:href="classnetspeak_1_1bighashmap_1_1Builder.html#ae4e2ef8f5512442b408c6ad678f152bf" target="_top" xlink:title=" ">
<polygon fill="white" stroke="#666666" points="295,-228 164,-228 164,-198 295,-198 295,-228"/>
<text text-anchor="start" x="172" y="-216" font-family="Helvetica,sans-Serif" font-size="10.00">netspeak::bighashmap</text>
<text text-anchor="middle" x="229.5" y="-205" font-family="Helvetica,sans-Serif" font-size="10.00">::Builder::CountRecords</text>
</a>
</g>
</g>
<!-- Node1&#45;&gt;Node2 -->
<g id="edge1_Node000001_Node000002" class="edge">
<title>Node1&#45;&gt;Node2</title>
<g id="a_edge1_Node000001_Node000002"><a xlink:title=" ">
<path fill="none" stroke="#63b8ff" d="M104.58,-166.01C127.01,-174.51 155.26,-185.23 179.13,-194.28"/>
<polygon fill="#63b8ff" stroke="#63b8ff" points="178.13,-197.64 188.72,-197.91 180.61,-191.1 178.13,-197.64"/>
</a>
</g>
</g>
<!-- Node3 -->
<g id="Node000003" class="node">
<title>Node3</title>
<g id="a_Node000003"><a xlink:href="namespacenetspeak_1_1util.html#ae4193ec25e44c93bd465d74e4ef7df48" target="_top" xlink:title=" ">
<polygon fill="white" stroke="#666666" points="436.5,-212 338.5,-212 338.5,-182 436.5,-182 436.5,-212"/>
<text text-anchor="start" x="346.5" y="-200" font-family="Helvetica,sans-Serif" font-size="10.00">netspeak::util::is</text>
<text text-anchor="middle" x="387.5" y="-189" font-family="Helvetica,sans-Serif" font-size="10.00">_hidden_file</text>
</a>
</g>
</g>
<!-- Node1&#45;&gt;Node3 -->
<g id="edge7_Node000001_Node000003" class="edge">
<title>Node1&#45;&gt;Node3</title>
<g id="a_edge7_Node000001_Node000003"><a xlink:title=" ">
<path fill="none" stroke="#63b8ff" d="M128.13,-160.03C186.15,-168.33 271.47,-180.54 327.98,-188.63"/>
<polygon fill="#63b8ff" stroke="#63b8ff" points="327.79,-192.13 338.18,-190.09 328.78,-185.21 327.79,-192.13"/>
</a>
</g>
</g>
<!-- Node5 -->
<g id="Node000005" class="node">
<title>Node5</title>
<g id="a_Node000005"><a xlink:href="namespacenetspeak_1_1util.html#ab36ee03e8b2f69483c3ac0e160da3cf4" target="_top" xlink:title=" ">
<polygon fill="white" stroke="#666666" points="292,-141.5 167,-141.5 167,-122.5 292,-122.5 292,-141.5"/>
<text text-anchor="middle" x="229.5" y="-129.5" font-family="Helvetica,sans-Serif" font-size="10.00">netspeak::util::hash32</text>
</a>
</g>
</g>
<!-- Node1&#45;&gt;Node5 -->
<g id="edge4_Node000001_Node000005" class="edge">
<title>Node1&#45;&gt;Node5</title>
<g id="a_edge4_Node000001_Node000005"><a xlink:title=" ">
<path fill="none" stroke="#63b8ff" d="M128.21,-143.65C137.52,-142.57 147.16,-141.45 156.63,-140.35"/>
<polygon fill="#63b8ff" stroke="#63b8ff" points="157.27,-143.8 166.8,-139.17 156.46,-136.85 157.27,-143.8"/>
</a>
</g>
</g>
<!-- Node7 -->
<g id="Node000007" class="node">
<title>Node7</title>
<g id="a_Node000007"><a xlink:href="namespacenetspeak_1_1util.html#ad2441a387c3a4c47e09c373e9412fad0" target="_top" xlink:title=" ">
<polygon fill="white" stroke="#666666" points="281.5,-96.5 177.5,-96.5 177.5,-77.5 281.5,-77.5 281.5,-96.5"/>
<text text-anchor="middle" x="229.5" y="-84.5" font-family="Helvetica,sans-Serif" font-size="10.00">netspeak::util::log</text>
</a>
</g>
</g>
<!-- Node1&#45;&gt;Node7 -->
<g id="edge8_Node000001_Node000007" class="edge">
<title>Node1&#45;&gt;Node7</title>
<g id="a_edge8_Node000001_Node000007"><a xlink:title=" ">
<path fill="none" stroke="#63b8ff" d="M103.33,-135.99C130.95,-125.18 167.89,-110.73 194.46,-100.32"/>
<polygon fill="#63b8ff" stroke="#63b8ff" points="196.07,-103.45 204.1,-96.55 193.52,-96.94 196.07,-103.45"/>
</a>
</g>
</g>
<!-- Node2&#45;&gt;Node3 -->
<g id="edge2_Node000002_Node000003" class="edge">
<title>Node2&#45;&gt;Node3</title>
<g id="a_edge2_Node000002_Node000003"><a xlink:title=" ">
<path fill="none" stroke="#63b8ff" d="M295.3,-206.35C306.21,-205.23 317.48,-204.08 328.21,-202.98"/>
<polygon fill="#63b8ff" stroke="#63b8ff" points="328.72,-206.44 338.31,-201.94 328.01,-199.48 328.72,-206.44"/>
</a>
</g>
</g>
<!-- Node4 -->
<g id="Node000004" class="node">
<title>Node4</title>
<g id="a_Node000004"><a xlink:href="namespacenetspeak_1_1util.html#a4c91ad572508b4021399ac7dddff574d" target="_top" xlink:title=" ">
<polygon fill="white" stroke="#666666" points="593,-136.5 480,-136.5 480,-117.5 593,-117.5 593,-136.5"/>
<text text-anchor="middle" x="536.5" y="-124.5" font-family="Helvetica,sans-Serif" font-size="10.00">netspeak::util::hash</text>
</a>
</g>
</g>
<!-- Node3&#45;&gt;Node4 -->
<g id="edge3_Node000003_Node000004" class="edge">
<title>Node3&#45;&gt;Node4</title>
<g id="a_edge3_Node000003_Node000004"><a xlink:title=" ">
<path fill="none" stroke="#63b8ff" d="M424.16,-181.94C430.79,-179.04 437.63,-175.98 444,-173 465.61,-162.91 489.7,-150.76 507.73,-141.48"/>
<polygon fill="#63b8ff" stroke="#63b8ff" points="509.8,-144.35 517.08,-136.65 506.59,-138.14 509.8,-144.35"/>
</a>
</g>
</g>
<!-- Node6 -->
<g id="Node000006" class="node">
<title>Node6</title>
<g id="a_Node000006"><a xlink:href="namespacenetspeak_1_1util.html#a9b5dd24226608e9fa5cca9d8abd5fd8b" target="_top" xlink:title=" ">
<polygon fill="white" stroke="#666666" points="444,-164 331,-164 331,-134 444,-134 444,-164"/>
<text text-anchor="start" x="339" y="-152" font-family="Helvetica,sans-Serif" font-size="10.00">netspeak::util::hash</text>
<text text-anchor="middle" x="387.5" y="-141" font-family="Helvetica,sans-Serif" font-size="10.00">&lt; uint32_t &gt;</text>
</a>
</g>
</g>
<!-- Node5&#45;&gt;Node6 -->
<g id="edge5_Node000005_Node000006" class="edge">
<title>Node5&#45;&gt;Node6</title>
<g id="a_edge5_Node000005_Node000006"><a xlink:title=" ">
<path fill="none" stroke="#63b8ff" d="M292.16,-138.72C301.54,-139.74 311.25,-140.8 320.71,-141.83"/>
<polygon fill="#63b8ff" stroke="#63b8ff" points="320.54,-145.33 330.86,-142.94 321.3,-138.37 320.54,-145.33"/>
</a>
</g>
</g>
<!-- Node6&#45;&gt;Node4 -->
<g id="edge6_Node000006_Node000004" class="edge">
<title>Node6&#45;&gt;Node4</title>
<g id="a_edge6_Node000006_Node000004"><a xlink:title=" ">
<path fill="none" stroke="#63b8ff" d="M444.07,-140.68C452.49,-139.42 461.24,-138.11 469.84,-136.83"/>
<polygon fill="#63b8ff" stroke="#63b8ff" points="470.48,-140.27 479.85,-135.33 469.44,-133.35 470.48,-140.27"/>
</a>
</g>
</g>
<!-- Node7&#45;&gt;Node4 -->
<g id="edge10_Node000007_Node000004" class="edge">
<title>Node7&#45;&gt;Node4</title>
<g id="a_edge10_Node000007_Node000004"><a xlink:title=" ">
<path fill="none" stroke="#63b8ff" d="M281.55,-93.7C333.2,-100.47 413.25,-110.97 469.65,-118.36"/>
<polygon fill="#63b8ff" stroke="#63b8ff" points="469.52,-121.88 479.89,-119.71 470.43,-114.94 469.52,-121.88"/>
</a>
</g>
</g>
<!-- Node8 -->
<g id="Node000008" class="node">
<title>Node8</title>
<g id="a_Node000008"><a xlink:href="namespacenetspeak_1_1util.html#ab27a22c787271513007af0719b17cef9" target="_top" xlink:title=" ">
<polygon fill="white" stroke="#666666" points="440,-78 335,-78 335,-48 440,-48 440,-78"/>
<text text-anchor="start" x="343" y="-66" font-family="Helvetica,sans-Serif" font-size="10.00">netspeak::util::get</text>
<text text-anchor="middle" x="387.5" y="-55" font-family="Helvetica,sans-Serif" font-size="10.00">_log_mutex</text>
</a>
</g>
</g>
<!-- Node7&#45;&gt;Node8 -->
<g id="edge9_Node000007_Node000008" class="edge">
<title>Node7&#45;&gt;Node8</title>
<g id="a_edge9_Node000007_Node000008"><a xlink:title=" ">
<path fill="none" stroke="#63b8ff" d="M281.58,-79.14C295.31,-77.03 310.31,-74.72 324.56,-72.53"/>
<polygon fill="#63b8ff" stroke="#63b8ff" points="325.42,-75.94 334.77,-70.96 324.35,-69.02 325.42,-75.94"/>
</a>
</g>
</g>
<!-- Node9 -->
<g id="Node000009" class="node">
<title>Node9</title>
<g id="a_Node000009"><a xlink:href="namespacenetspeak_1_1util.html#a93e18aaa529a497b6afdf4b3bd221182" target="_top" xlink:title=" ">
<polygon fill="white" stroke="#666666" points="443.5,-30 331.5,-30 331.5,0 443.5,0 443.5,-30"/>
<text text-anchor="start" x="339.5" y="-18" font-family="Helvetica,sans-Serif" font-size="10.00">netspeak::util::print</text>
<text text-anchor="middle" x="387.5" y="-7" font-family="Helvetica,sans-Serif" font-size="10.00">_timestamp_to</text>
</a>
</g>
</g>
<!-- Node7&#45;&gt;Node9 -->
<g id="edge11_Node000007_Node000009" class="edge">
<title>Node7&#45;&gt;Node9</title>
<g id="a_edge11_Node000007_Node000009"><a xlink:title=" ">
<path fill="none" stroke="#63b8ff" d="M250.04,-77.4C270.22,-67.55 302.66,-51.89 331,-39 334.55,-37.38 338.25,-35.73 341.96,-34.09"/>
<polygon fill="#63b8ff" stroke="#63b8ff" points="343.43,-37.26 351.18,-30.04 340.62,-30.85 343.43,-37.26"/>
</a>
</g>
</g>
<!-- Node9&#45;&gt;Node4 -->
<g id="edge12_Node000009_Node000004" class="edge">
<title>Node9&#45;&gt;Node4</title>
<g id="a_edge12_Node000009_Node000004"><a xlink:title=" ">
<path fill="none" stroke="#63b8ff" d="M428.23,-30.09C433.7,-32.76 439.11,-35.74 444,-39 474.53,-59.31 504.03,-90.39 520.93,-109.66"/>
<polygon fill="#63b8ff" stroke="#63b8ff" points="518.4,-112.08 527.58,-117.37 523.7,-107.51 518.4,-112.08"/>
</a>
</g>
</g>
</g>
</svg>
