<?xml version="1.0" encoding="UTF-8" standalone="no"?>
<!DOCTYPE svg PUBLIC "-//W3C//DTD SVG 1.1//EN"
 "http://www.w3.org/Graphics/SVG/1.1/DTD/svg11.dtd">
<!-- Generated by graphviz version 2.43.0 (0)
 -->
<!-- Title: netspeak::model::SimpleQueryUnit__::new_alternation Pages: 1 -->
<svg width="1372pt" height="327pt"
 viewBox="0.00 0.00 1372.00 327.00" xmlns="http://www.w3.org/2000/svg" xmlns:xlink="http://www.w3.org/1999/xlink">
<g id="graph0" class="graph" transform="scale(1 1) rotate(0) translate(4 323)">
<title>netspeak::model::SimpleQueryUnit__::new_alternation</title>
<!-- Node1 -->
<g id="Node000001" class="node">
<title>Node1</title>
<g id="a_Node000001"><a xlink:title=" ">
<polygon fill="#999999" stroke="#666666" points="1364,-185 1197,-185 1197,-155 1364,-155 1364,-185"/>
<text text-anchor="start" x="1205" y="-173" font-family="Helvetica,sans-Serif" font-size="10.00">netspeak::model::SimpleQuery</text>
<text text-anchor="middle" x="1280.5" y="-162" font-family="Helvetica,sans-Serif" font-size="10.00">Unit__::new_alternation</text>
</a>
</g>
</g>
<!-- Node2 -->
<g id="Node000002" class="node">
<title>Node2</title>
<g id="a_Node000002"><a xlink:href="classnetspeak_1_1QuerySimplifier.html#a3b44d549420ef21f82bde54ad4858ba5" target="_top" xlink:title=" ">
<polygon fill="white" stroke="#666666" points="1143,-233 1000,-233 1000,-203 1143,-203 1143,-233"/>
<text text-anchor="start" x="1008" y="-221" font-family="Helvetica,sans-Serif" font-size="10.00">netspeak::QuerySimplifier</text>
<text text-anchor="middle" x="1071.5" y="-210" font-family="Helvetica,sans-Serif" font-size="10.00">::alt_to_simple</text>
</a>
</g>
</g>
<!-- Node1&#45;&gt;Node2 -->
<g id="edge1_Node000001_Node000002" class="edge">
<title>Node1&#45;&gt;Node2</title>
<g id="a_edge1_Node000001_Node000002"><a xlink:title=" ">
<path fill="none" stroke="#63b8ff" d="M1204.58,-187.37C1182.51,-192.49 1158.57,-198.04 1137.2,-203"/>
<polygon fill="#63b8ff" stroke="#63b8ff" points="1205.62,-190.72 1214.57,-185.06 1204.04,-183.91 1205.62,-190.72"/>
</a>
</g>
</g>
<!-- Node5 -->
<g id="Node000005" class="node">
<title>Node5</title>
<g id="a_Node000005"><a xlink:href="classnetspeak_1_1QuerySimplifier.html#abafc853573d650c19c989cebbdc10ce4" target="_top" xlink:title=" ">
<polygon fill="white" stroke="#666666" points="713,-265 570,-265 570,-235 713,-235 713,-265"/>
<text text-anchor="start" x="578" y="-253" font-family="Helvetica,sans-Serif" font-size="10.00">netspeak::QuerySimplifier</text>
<text text-anchor="middle" x="641.5" y="-242" font-family="Helvetica,sans-Serif" font-size="10.00">::option_to_simple</text>
</a>
</g>
</g>
<!-- Node1&#45;&gt;Node5 -->
<g id="edge25_Node000001_Node000005" class="edge">
<title>Node1&#45;&gt;Node5</title>
<g id="a_edge25_Node000001_Node000005"><a xlink:title=" ">
<path fill="none" stroke="#63b8ff" d="M1253.56,-191.41C1230.76,-208.77 1195.87,-231.95 1161,-242 1006.37,-286.58 814.89,-272.81 713.41,-260.43"/>
<polygon fill="#63b8ff" stroke="#63b8ff" points="1255.94,-193.99 1261.68,-185.08 1251.64,-188.47 1255.94,-193.99"/>
</a>
</g>
</g>
<!-- Node6 -->
<g id="Node000006" class="node">
<title>Node6</title>
<g id="a_Node000006"><a xlink:href="classnetspeak_1_1QuerySimplifier.html#a2f67510a9b668e751894cdeb6e97b349" target="_top" xlink:title=" ">
<polygon fill="white" stroke="#666666" points="713,-131 570,-131 570,-101 713,-101 713,-131"/>
<text text-anchor="start" x="578" y="-119" font-family="Helvetica,sans-Serif" font-size="10.00">netspeak::QuerySimplifier</text>
<text text-anchor="middle" x="641.5" y="-108" font-family="Helvetica,sans-Serif" font-size="10.00">::order_to_simple</text>
</a>
</g>
</g>
<!-- Node1&#45;&gt;Node6 -->
<g id="edge26_Node000001_Node000006" class="edge">
<title>Node1&#45;&gt;Node6</title>
<g id="a_edge26_Node000001_Node000006"><a xlink:title=" ">
<path fill="none" stroke="#63b8ff" d="M1253.6,-148.46C1230.82,-131.01 1195.94,-107.78 1161,-98 1004.01,-54.04 809.82,-81.24 709.51,-100.95"/>
<polygon fill="#63b8ff" stroke="#63b8ff" points="1251.68,-151.4 1261.71,-154.82 1256,-145.89 1251.68,-151.4"/>
</a>
</g>
</g>
<!-- Node10 -->
<g id="Node000010" class="node">
<title>Node10</title>
<g id="a_Node000010"><a xlink:href="classnetspeak_1_1QuerySimplifier.html#ac1ac4b76923d0b209354bf42e2a59d00" target="_top" xlink:title=" ">
<polygon fill="white" stroke="#666666" points="1143,-185 1000,-185 1000,-155 1143,-155 1143,-185"/>
<text text-anchor="start" x="1008" y="-173" font-family="Helvetica,sans-Serif" font-size="10.00">netspeak::QuerySimplifier</text>
<text text-anchor="middle" x="1071.5" y="-162" font-family="Helvetica,sans-Serif" font-size="10.00">::dict_to_simple</text>
</a>
</g>
</g>
<!-- Node1&#45;&gt;Node10 -->
<g id="edge13_Node000001_Node000010" class="edge">
<title>Node1&#45;&gt;Node10</title>
<g id="a_edge13_Node000001_Node000010"><a xlink:title=" ">
<path fill="none" stroke="#63b8ff" d="M1186.71,-170C1172.06,-170 1157.11,-170 1143.07,-170"/>
<polygon fill="#63b8ff" stroke="#63b8ff" points="1186.8,-173.5 1196.8,-170 1186.8,-166.5 1186.8,-173.5"/>
</a>
</g>
</g>
<!-- Node11 -->
<g id="Node000011" class="node">
<title>Node11</title>
<g id="a_Node000011"><a xlink:href="namespacenetspeak.html#abad07282259830ea1d26af81f1755844" target="_top" xlink:title=" ">
<polygon fill="white" stroke="#666666" points="914.5,-319 798.5,-319 798.5,-289 914.5,-289 914.5,-319"/>
<text text-anchor="start" x="806.5" y="-307" font-family="Helvetica,sans-Serif" font-size="10.00">netspeak::normalize</text>
<text text-anchor="middle" x="856.5" y="-296" font-family="Helvetica,sans-Serif" font-size="10.00">_regexes</text>
</a>
</g>
</g>
<!-- Node1&#45;&gt;Node11 -->
<g id="edge15_Node000001_Node000011" class="edge">
<title>Node1&#45;&gt;Node11</title>
<g id="a_edge15_Node000001_Node000011"><a xlink:title=" ">
<path fill="none" stroke="#63b8ff" d="M1261.46,-192.97C1240.34,-217.96 1202.9,-256.78 1161,-275 1080.79,-309.88 977.67,-311.81 914.64,-308.8"/>
<polygon fill="#63b8ff" stroke="#63b8ff" points="1264.31,-195.01 1267.97,-185.07 1258.91,-190.55 1264.31,-195.01"/>
</a>
</g>
</g>
<!-- Node12 -->
<g id="Node000012" class="node">
<title>Node12</title>
<g id="a_Node000012"><a xlink:href="classnetspeak_1_1SimpleQueryOptimizer.html#a1ef947a07a36069a5be13d260b518350" target="_top" xlink:title=" ">
<polygon fill="white" stroke="#666666" points="1161,-51 982,-51 982,-21 1161,-21 1161,-51"/>
<text text-anchor="start" x="990" y="-39" font-family="Helvetica,sans-Serif" font-size="10.00">netspeak::SimpleQueryOptimizer</text>
<text text-anchor="middle" x="1071.5" y="-28" font-family="Helvetica,sans-Serif" font-size="10.00">::optimize_simple_concat</text>
</a>
</g>
</g>
<!-- Node1&#45;&gt;Node12 -->
<g id="edge17_Node000001_Node000012" class="edge">
<title>Node1&#45;&gt;Node12</title>
<g id="a_edge17_Node000001_Node000012"><a xlink:title=" ">
<path fill="none" stroke="#63b8ff" d="M1259.54,-147.55C1237.51,-124 1199.99,-87.37 1161,-65 1151.46,-59.53 1140.75,-54.92 1130.16,-51.1"/>
<polygon fill="#63b8ff" stroke="#63b8ff" points="1257.05,-150.01 1266.4,-154.99 1262.2,-145.26 1257.05,-150.01"/>
</a>
</g>
</g>
<!-- Node17 -->
<g id="Node000017" class="node">
<title>Node17</title>
<g id="a_Node000017"><a xlink:href="classnetspeak_1_1QuerySimplifier.html#a7a61e022386f41896500001dcd46858c" target="_top" xlink:title=" ">
<polygon fill="white" stroke="#666666" points="1143,-137 1000,-137 1000,-107 1143,-107 1143,-137"/>
<text text-anchor="start" x="1008" y="-125" font-family="Helvetica,sans-Serif" font-size="10.00">netspeak::QuerySimplifier</text>
<text text-anchor="middle" x="1071.5" y="-114" font-family="Helvetica,sans-Serif" font-size="10.00">::regex_to_simple</text>
</a>
</g>
</g>
<!-- Node1&#45;&gt;Node17 -->
<g id="edge27_Node000001_Node000017" class="edge">
<title>Node1&#45;&gt;Node17</title>
<g id="a_edge27_Node000001_Node000017"><a xlink:title=" ">
<path fill="none" stroke="#63b8ff" d="M1204.58,-152.63C1182.51,-147.51 1158.57,-141.96 1137.2,-137"/>
<polygon fill="#63b8ff" stroke="#63b8ff" points="1204.04,-156.09 1214.57,-154.94 1205.62,-149.28 1204.04,-156.09"/>
</a>
</g>
</g>
<!-- Node3 -->
<g id="Node000003" class="node">
<title>Node3</title>
<g id="a_Node000003"><a xlink:href="classnetspeak_1_1QuerySimplifier.html#ab2f06fcd290543e7a04f2e5614a5f719" target="_top" xlink:title=" ">
<polygon fill="white" stroke="#666666" points="928,-217 785,-217 785,-187 928,-187 928,-217"/>
<text text-anchor="start" x="793" y="-205" font-family="Helvetica,sans-Serif" font-size="10.00">netspeak::QuerySimplifier</text>
<text text-anchor="middle" x="856.5" y="-194" font-family="Helvetica,sans-Serif" font-size="10.00">::unit_to_simple</text>
</a>
</g>
</g>
<!-- Node2&#45;&gt;Node3 -->
<g id="edge2_Node000002_Node000003" class="edge">
<title>Node2&#45;&gt;Node3</title>
<g id="a_edge2_Node000002_Node000003"><a xlink:title=" ">
<path fill="none" stroke="#63b8ff" d="M989.75,-205.36C969.53,-203.56 948,-202 928.3,-200.92"/>
<polygon fill="#63b8ff" stroke="#63b8ff" points="989.59,-208.86 999.87,-206.3 990.23,-201.89 989.59,-208.86"/>
</a>
</g>
</g>
<!-- Node3&#45;&gt;Node2 -->
<g id="edge3_Node000003_Node000002" class="edge">
<title>Node3&#45;&gt;Node2</title>
<g id="a_edge3_Node000003_Node000002"><a xlink:title=" ">
<path fill="none" stroke="#63b8ff" d="M938.43,-214.65C958.65,-216.46 980.19,-218.01 999.87,-219.09"/>
<polygon fill="#63b8ff" stroke="#63b8ff" points="938.58,-211.15 928.3,-213.72 937.94,-218.12 938.58,-211.15"/>
</a>
</g>
</g>
<!-- Node4 -->
<g id="Node000004" class="node">
<title>Node4</title>
<g id="a_Node000004"><a xlink:href="classnetspeak_1_1QuerySimplifier.html#a1f629b768d053c64ba136f00661e601d" target="_top" xlink:title=" ">
<polygon fill="white" stroke="#666666" points="713,-217 570,-217 570,-187 713,-187 713,-217"/>
<text text-anchor="start" x="578" y="-205" font-family="Helvetica,sans-Serif" font-size="10.00">netspeak::QuerySimplifier</text>
<text text-anchor="middle" x="641.5" y="-194" font-family="Helvetica,sans-Serif" font-size="10.00">::concat_to_simple</text>
</a>
</g>
</g>
<!-- Node3&#45;&gt;Node4 -->
<g id="edge4_Node000003_Node000004" class="edge">
<title>Node3&#45;&gt;Node4</title>
<g id="a_edge4_Node000003_Node000004"><a xlink:title=" ">
<path fill="none" stroke="#63b8ff" d="M774.75,-195.43C754.53,-195.14 733,-195.2 713.3,-195.6"/>
<polygon fill="#63b8ff" stroke="#63b8ff" points="774.81,-198.93 784.87,-195.6 774.93,-191.93 774.81,-198.93"/>
</a>
</g>
</g>
<!-- Node3&#45;&gt;Node5 -->
<g id="edge6_Node000003_Node000005" class="edge">
<title>Node3&#45;&gt;Node5</title>
<g id="a_edge6_Node000003_Node000005"><a xlink:title=" ">
<path fill="none" stroke="#63b8ff" d="M775.01,-213.57C744.28,-220.06 710.46,-228.03 684.68,-234.99"/>
<polygon fill="#63b8ff" stroke="#63b8ff" points="775.79,-216.98 784.87,-211.52 774.37,-210.13 775.79,-216.98"/>
</a>
</g>
</g>
<!-- Node3&#45;&gt;Node6 -->
<g id="edge8_Node000003_Node000006" class="edge">
<title>Node3&#45;&gt;Node6</title>
<g id="a_edge8_Node000003_Node000006"><a xlink:title=" ">
<path fill="none" stroke="#63b8ff" d="M828.76,-181.7C803.8,-167.53 765.35,-149.44 731,-136 725.28,-133.76 719.31,-131.55 713.28,-129.43"/>
<polygon fill="#63b8ff" stroke="#63b8ff" points="827.24,-184.86 837.63,-186.92 830.79,-178.83 827.24,-184.86"/>
</a>
</g>
</g>
<!-- Node7 -->
<g id="Node000007" class="node">
<title>Node7</title>
<g id="a_Node000007"><a xlink:href="classnetspeak_1_1QuerySimplifier.html#a47411b51e5d329b77e30c2204c12627d" target="_top" xlink:title=" ">
<polygon fill="white" stroke="#666666" points="498,-174 355,-174 355,-144 498,-144 498,-174"/>
<text text-anchor="start" x="363" y="-162" font-family="Helvetica,sans-Serif" font-size="10.00">netspeak::QuerySimplifier</text>
<text text-anchor="middle" x="426.5" y="-151" font-family="Helvetica,sans-Serif" font-size="10.00">::to_simple</text>
</a>
</g>
</g>
<!-- Node3&#45;&gt;Node7 -->
<g id="edge10_Node000003_Node000007" class="edge">
<title>Node3&#45;&gt;Node7</title>
<g id="a_edge10_Node000003_Node000007"><a xlink:title=" ">
<path fill="none" stroke="#63b8ff" d="M775.79,-185.07C760.96,-182.36 745.55,-179.85 731,-178 651.66,-167.91 559.93,-163.11 498.27,-160.87"/>
<polygon fill="#63b8ff" stroke="#63b8ff" points="775.48,-188.57 785.95,-186.97 776.77,-181.69 775.48,-188.57"/>
</a>
</g>
</g>
<!-- Node4&#45;&gt;Node3 -->
<g id="edge5_Node000004_Node000003" class="edge">
<title>Node4&#45;&gt;Node3</title>
<g id="a_edge5_Node000004_Node000003"><a xlink:title=" ">
<path fill="none" stroke="#63b8ff" d="M723.43,-208.57C743.65,-208.86 765.19,-208.8 784.87,-208.4"/>
<polygon fill="#63b8ff" stroke="#63b8ff" points="723.36,-205.07 713.3,-208.4 723.24,-212.07 723.36,-205.07"/>
</a>
</g>
</g>
<!-- Node5&#45;&gt;Node3 -->
<g id="edge7_Node000005_Node000003" class="edge">
<title>Node5&#45;&gt;Node3</title>
<g id="a_edge7_Node000005_Node000003"><a xlink:title=" ">
<path fill="none" stroke="#63b8ff" d="M723.1,-238.41C753.75,-231.94 787.44,-223.99 813.16,-217.06"/>
<polygon fill="#63b8ff" stroke="#63b8ff" points="722.35,-234.99 713.27,-240.45 723.78,-241.84 722.35,-234.99"/>
</a>
</g>
</g>
<!-- Node6&#45;&gt;Node3 -->
<g id="edge9_Node000006_Node000003" class="edge">
<title>Node6&#45;&gt;Node3</title>
<g id="a_edge9_Node000006_Node000003"><a xlink:title=" ">
<path fill="none" stroke="#63b8ff" d="M677.66,-134.7C694.03,-140.67 713.67,-147.22 731,-154 756.9,-164.14 785.13,-176.91 808.15,-186.94"/>
<polygon fill="#63b8ff" stroke="#63b8ff" points="678.54,-131.29 667.95,-131.06 676.08,-137.85 678.54,-131.29"/>
</a>
</g>
</g>
<!-- Node8 -->
<g id="Node000008" class="node">
<title>Node8</title>
<g id="a_Node000008"><a xlink:href="classnetspeak_1_1QueryNormalizer.html#a70187ab668d98c93cfc3a8d05ca1508e" target="_top" xlink:title=" ">
<polygon fill="white" stroke="#666666" points="301,-174 150,-174 150,-144 301,-144 301,-174"/>
<text text-anchor="start" x="158" y="-162" font-family="Helvetica,sans-Serif" font-size="10.00">netspeak::QueryNormalizer</text>
<text text-anchor="middle" x="225.5" y="-151" font-family="Helvetica,sans-Serif" font-size="10.00">::normalize</text>
</a>
</g>
</g>
<!-- Node7&#45;&gt;Node8 -->
<g id="edge11_Node000007_Node000008" class="edge">
<title>Node7&#45;&gt;Node8</title>
<g id="a_edge11_Node000007_Node000008"><a xlink:title=" ">
<path fill="none" stroke="#63b8ff" d="M344.44,-159C330.08,-159 315.2,-159 301.03,-159"/>
<polygon fill="#63b8ff" stroke="#63b8ff" points="344.78,-162.5 354.78,-159 344.78,-155.5 344.78,-162.5"/>
</a>
</g>
</g>
<!-- Node9 -->
<g id="Node000009" class="node">
<title>Node9</title>
<g id="a_Node000009"><a xlink:href="classnetspeak_1_1Netspeak.html#aaa049275c7a0a7f6721acf7422402bff" target="_top" xlink:title=" ">
<polygon fill="white" stroke="#666666" points="114,-174 0,-174 0,-144 114,-144 114,-174"/>
<text text-anchor="start" x="8" y="-162" font-family="Helvetica,sans-Serif" font-size="10.00">netspeak::Netspeak</text>
<text text-anchor="middle" x="57" y="-151" font-family="Helvetica,sans-Serif" font-size="10.00">::search_raw_</text>
</a>
</g>
</g>
<!-- Node8&#45;&gt;Node9 -->
<g id="edge12_Node000008_Node000009" class="edge">
<title>Node8&#45;&gt;Node9</title>
<g id="a_edge12_Node000008_Node000009"><a xlink:title=" ">
<path fill="none" stroke="#63b8ff" d="M139.45,-159C130.85,-159 122.28,-159 114.1,-159"/>
<polygon fill="#63b8ff" stroke="#63b8ff" points="139.53,-162.5 149.53,-159 139.53,-155.5 139.53,-162.5"/>
</a>
</g>
</g>
<!-- Node10&#45;&gt;Node3 -->
<g id="edge14_Node000010_Node000003" class="edge">
<title>Node10&#45;&gt;Node3</title>
<g id="a_edge14_Node000010_Node000003"><a xlink:title=" ">
<path fill="none" stroke="#63b8ff" d="M989.75,-182.13C969.53,-185.17 948,-188.4 928.3,-191.36"/>
<polygon fill="#63b8ff" stroke="#63b8ff" points="990.5,-185.56 999.87,-180.61 989.46,-178.64 990.5,-185.56"/>
</a>
</g>
</g>
<!-- Node11&#45;&gt;Node8 -->
<g id="edge16_Node000011_Node000008" class="edge">
<title>Node11&#45;&gt;Node8</title>
<g id="a_edge16_Node000011_Node000008"><a xlink:title=" ">
<path fill="none" stroke="#63b8ff" d="M788.31,-302C726.32,-299.06 632.04,-291.82 552,-274 442.31,-249.58 318.69,-199.24 260.38,-174.05"/>
<polygon fill="#63b8ff" stroke="#63b8ff" points="788.21,-305.5 798.36,-302.45 788.53,-298.5 788.21,-305.5"/>
</a>
</g>
</g>
<!-- Node13 -->
<g id="Node000013" class="node">
<title>Node13</title>
<g id="a_Node000013"><a xlink:href="classnetspeak_1_1SimpleQueryOptimizer.html#a6df1cdcea41d9914bb1063642d615bdf" target="_top" xlink:title=" ">
<polygon fill="white" stroke="#666666" points="946,-51 767,-51 767,-21 946,-21 946,-51"/>
<text text-anchor="start" x="775" y="-39" font-family="Helvetica,sans-Serif" font-size="10.00">netspeak::SimpleQueryOptimizer</text>
<text text-anchor="middle" x="856.5" y="-28" font-family="Helvetica,sans-Serif" font-size="10.00">::optimize_simple_unit</text>
</a>
</g>
</g>
<!-- Node12&#45;&gt;Node13 -->
<g id="edge18_Node000012_Node000013" class="edge">
<title>Node12&#45;&gt;Node13</title>
<g id="a_edge18_Node000012_Node000013"><a xlink:title=" ">
<path fill="none" stroke="#63b8ff" d="M971.46,-36C963.01,-36 954.5,-36 946.14,-36"/>
<polygon fill="#63b8ff" stroke="#63b8ff" points="971.71,-39.5 981.71,-36 971.71,-32.5 971.71,-39.5"/>
</a>
</g>
</g>
<!-- Node14 -->
<g id="Node000014" class="node">
<title>Node14</title>
<g id="a_Node000014"><a xlink:href="classnetspeak_1_1SimpleQueryOptimizer.html#a0a56e07cb81afd1e5893bc469342b0b2" target="_top" xlink:title=" ">
<polygon fill="white" stroke="#666666" points="731,-32 552,-32 552,-2 731,-2 731,-32"/>
<text text-anchor="start" x="560" y="-20" font-family="Helvetica,sans-Serif" font-size="10.00">netspeak::SimpleQueryOptimizer</text>
<text text-anchor="middle" x="641.5" y="-9" font-family="Helvetica,sans-Serif" font-size="10.00">::optimize_simple_children</text>
</a>
</g>
</g>
<!-- Node13&#45;&gt;Node14 -->
<g id="edge19_Node000013_Node000014" class="edge">
<title>Node13&#45;&gt;Node14</title>
<g id="a_edge19_Node000013_Node000014"><a xlink:title=" ">
<path fill="none" stroke="#63b8ff" d="M756.73,-27.19C748.2,-26.43 739.59,-25.66 731.14,-24.91"/>
<polygon fill="#63b8ff" stroke="#63b8ff" points="756.44,-30.68 766.71,-28.08 757.06,-23.71 756.44,-30.68"/>
</a>
</g>
</g>
<!-- Node14&#45;&gt;Node12 -->
<g id="edge24_Node000014_Node000012" class="edge">
<title>Node14&#45;&gt;Node12</title>
<g id="a_edge24_Node000014_Node000012"><a xlink:title=" ">
<path fill="none" stroke="#63b8ff" d="M741.16,-9.82C800.63,-6.88 877.81,-5.49 946,-12 965.28,-13.84 986.02,-17.25 1004.93,-20.94"/>
<polygon fill="#63b8ff" stroke="#63b8ff" points="740.83,-6.34 731.02,-10.35 741.19,-13.33 740.83,-6.34"/>
</a>
</g>
</g>
<!-- Node15 -->
<g id="Node000015" class="node">
<title>Node15</title>
<g id="a_Node000015"><a xlink:href="classnetspeak_1_1SimpleQueryOptimizer.html#a605b78bfa6d1898f7b5b5ca66fd95c31" target="_top" xlink:title=" ">
<polygon fill="white" stroke="#666666" points="516,-30 337,-30 337,0 516,0 516,-30"/>
<text text-anchor="start" x="345" y="-18" font-family="Helvetica,sans-Serif" font-size="10.00">netspeak::SimpleQueryOptimizer</text>
<text text-anchor="middle" x="426.5" y="-7" font-family="Helvetica,sans-Serif" font-size="10.00">::optimize</text>
</a>
</g>
</g>
<!-- Node14&#45;&gt;Node15 -->
<g id="edge20_Node000014_Node000015" class="edge">
<title>Node14&#45;&gt;Node15</title>
<g id="a_edge20_Node000014_Node000015"><a xlink:title=" ">
<path fill="none" stroke="#63b8ff" d="M541.46,-16.07C533.01,-15.99 524.5,-15.91 516.14,-15.83"/>
<polygon fill="#63b8ff" stroke="#63b8ff" points="541.68,-19.57 551.71,-16.17 541.74,-12.57 541.68,-19.57"/>
</a>
</g>
</g>
<!-- Node16 -->
<g id="Node000016" class="node">
<title>Node16</title>
<g id="a_Node000016"><a xlink:href="classnetspeak_1_1SimpleQueryOptimizer.html#a55c4015de0d1fa34754beb52f95119f6" target="_top" xlink:title=" ">
<polygon fill="white" stroke="#666666" points="516,-78 337,-78 337,-48 516,-48 516,-78"/>
<text text-anchor="start" x="345" y="-66" font-family="Helvetica,sans-Serif" font-size="10.00">netspeak::SimpleQueryOptimizer</text>
<text text-anchor="middle" x="426.5" y="-55" font-family="Helvetica,sans-Serif" font-size="10.00">::optimize_simple_alt</text>
</a>
</g>
</g>
<!-- Node14&#45;&gt;Node16 -->
<g id="edge22_Node000014_Node000016" class="edge">
<title>Node14&#45;&gt;Node16</title>
<g id="a_edge22_Node000014_Node000016"><a xlink:title=" ">
<path fill="none" stroke="#63b8ff" d="M560.91,-34.19C539.93,-38.72 517.45,-43.57 497.04,-47.98"/>
<polygon fill="#63b8ff" stroke="#63b8ff" points="561.72,-37.59 570.76,-32.06 560.24,-30.75 561.72,-37.59"/>
</a>
</g>
</g>
<!-- Node15&#45;&gt;Node8 -->
<g id="edge21_Node000015_Node000008" class="edge">
<title>Node15&#45;&gt;Node8</title>
<g id="a_edge21_Node000015_Node000008"><a xlink:title=" ">
<path fill="none" stroke="#63b8ff" d="M345.69,-34.26C342.7,-35.73 339.79,-37.31 337,-39 291.49,-66.63 253.23,-118.4 236.11,-143.95"/>
<polygon fill="#63b8ff" stroke="#63b8ff" points="347.17,-37.44 354.89,-30.18 344.33,-31.04 347.17,-37.44"/>
</a>
</g>
</g>
<!-- Node16&#45;&gt;Node13 -->
<g id="edge23_Node000016_Node000013" class="edge">
<title>Node16&#45;&gt;Node13</title>
<g id="a_edge23_Node000016_Node000013"><a xlink:title=" ">
<path fill="none" stroke="#63b8ff" d="M526.14,-56.78C598.76,-52.2 696.66,-46.02 766.82,-41.59"/>
<polygon fill="#63b8ff" stroke="#63b8ff" points="525.83,-53.29 516.07,-57.41 526.27,-60.28 525.83,-53.29"/>
</a>
</g>
</g>
<!-- Node17&#45;&gt;Node3 -->
<g id="edge28_Node000017_Node000003" class="edge">
<title>Node17&#45;&gt;Node3</title>
<g id="a_edge28_Node000017_Node000003"><a xlink:title=" ">
<path fill="none" stroke="#63b8ff" d="M1000.31,-139.93C994.08,-141.86 987.9,-143.89 982,-146 948.98,-157.82 912.52,-174.69 887.65,-186.82"/>
<polygon fill="#63b8ff" stroke="#63b8ff" points="1001.54,-143.22 1010.12,-137 999.54,-136.51 1001.54,-143.22"/>
</a>
</g>
</g>
</g>
</svg>
