<?xml version="1.0" encoding="UTF-8" standalone="no"?>
<!DOCTYPE svg PUBLIC "-//W3C//DTD SVG 1.1//EN"
 "http://www.w3.org/Graphics/SVG/1.1/DTD/svg11.dtd">
<!-- Generated by graphviz version 2.43.0 (0)
 -->
<!-- Title: netspeak::invertedindex::RawPostlist::head Pages: 1 -->
<svg width="493pt" height="134pt"
 viewBox="0.00 0.00 493.00 134.00" xmlns="http://www.w3.org/2000/svg" xmlns:xlink="http://www.w3.org/1999/xlink">
<g id="graph0" class="graph" transform="scale(1 1) rotate(0) translate(4 130)">
<title>netspeak::invertedindex::RawPostlist::head</title>
<!-- Node1 -->
<g id="Node000001" class="node">
<title>Node1</title>
<g id="a_Node000001"><a xlink:title=" ">
<polygon fill="#999999" stroke="#666666" points="485,-78 350,-78 350,-48 485,-48 485,-78"/>
<text text-anchor="start" x="358" y="-66" font-family="Helvetica,sans-Serif" font-size="10.00">netspeak::invertedindex</text>
<text text-anchor="middle" x="417.5" y="-55" font-family="Helvetica,sans-Serif" font-size="10.00">::RawPostlist::head</text>
</a>
</g>
</g>
<!-- Node2 -->
<g id="Node000002" class="node">
<title>Node2</title>
<g id="a_Node000002"><a xlink:href="classnetspeak_1_1invertedindex_1_1RawPostlist.html#ae62748c986d1357bfd2ad772970346dc" target="_top" xlink:title=" ">
<polygon fill="white" stroke="#666666" points="314,-126 171,-126 171,-96 314,-96 314,-126"/>
<text text-anchor="start" x="179" y="-114" font-family="Helvetica,sans-Serif" font-size="10.00">netspeak::invertedindex</text>
<text text-anchor="middle" x="242.5" y="-103" font-family="Helvetica,sans-Serif" font-size="10.00">::RawPostlist::RawPostlist</text>
</a>
</g>
</g>
<!-- Node1&#45;&gt;Node2 -->
<g id="edge1_Node000001_Node000002" class="edge">
<title>Node1&#45;&gt;Node2</title>
<g id="a_edge1_Node000001_Node000002"><a xlink:title=" ">
<path fill="none" stroke="#63b8ff" d="M352.39,-80.79C334.36,-85.79 314.95,-91.18 297.57,-96"/>
<polygon fill="#63b8ff" stroke="#63b8ff" points="353.54,-84.1 362.24,-78.06 351.66,-77.36 353.54,-84.1"/>
</a>
</g>
</g>
<!-- Node3 -->
<g id="Node000003" class="node">
<title>Node3</title>
<g id="a_Node000003"><a xlink:href="classnetspeak_1_1invertedindex_1_1RawPostlist.html#a7af1755940386df33b6cbc9f9e99439c" target="_top" xlink:title=" ">
<polygon fill="white" stroke="#666666" points="314,-78 171,-78 171,-48 314,-48 314,-78"/>
<text text-anchor="start" x="179" y="-66" font-family="Helvetica,sans-Serif" font-size="10.00">netspeak::invertedindex</text>
<text text-anchor="middle" x="242.5" y="-55" font-family="Helvetica,sans-Serif" font-size="10.00">::RawPostlist::RawPostlist</text>
</a>
</g>
</g>
<!-- Node1&#45;&gt;Node3 -->
<g id="edge2_Node000001_Node000003" class="edge">
<title>Node1&#45;&gt;Node3</title>
<g id="a_edge2_Node000001_Node000003"><a xlink:title=" ">
<path fill="none" stroke="#63b8ff" d="M339.45,-63C331.05,-63 322.54,-63 314.22,-63"/>
<polygon fill="#63b8ff" stroke="#63b8ff" points="339.61,-66.5 349.61,-63 339.61,-59.5 339.61,-66.5"/>
</a>
</g>
</g>
<!-- Node4 -->
<g id="Node000004" class="node">
<title>Node4</title>
<g id="a_Node000004"><a xlink:href="classnetspeak_1_1invertedindex_1_1PostlistSorter.html#a58f01b8d58f6487a4ceb2f1ab3d2f0a1" target="_top" xlink:title=" ">
<polygon fill="white" stroke="#666666" points="310,-30 175,-30 175,0 310,0 310,-30"/>
<text text-anchor="start" x="183" y="-18" font-family="Helvetica,sans-Serif" font-size="10.00">netspeak::invertedindex</text>
<text text-anchor="middle" x="242.5" y="-7" font-family="Helvetica,sans-Serif" font-size="10.00">::PostlistSorter::sort</text>
</a>
</g>
</g>
<!-- Node1&#45;&gt;Node4 -->
<g id="edge3_Node000001_Node000004" class="edge">
<title>Node1&#45;&gt;Node4</title>
<g id="a_edge3_Node000001_Node000004"><a xlink:title=" ">
<path fill="none" stroke="#63b8ff" d="M352.39,-45.21C334.36,-40.21 314.95,-34.82 297.57,-30"/>
<polygon fill="#63b8ff" stroke="#63b8ff" points="351.66,-48.64 362.24,-47.94 353.54,-41.9 351.66,-48.64"/>
</a>
</g>
</g>
<!-- Node5 -->
<g id="Node000005" class="node">
<title>Node5</title>
<g id="a_Node000005"><a xlink:href="classnetspeak_1_1invertedindex_1_1UnsortedInput.html#ac107e445403ad38a4774f83e92e9bb70" target="_top" xlink:title=" ">
<polygon fill="white" stroke="#666666" points="135,-30 0,-30 0,0 135,0 135,-30"/>
<text text-anchor="start" x="8" y="-18" font-family="Helvetica,sans-Serif" font-size="10.00">netspeak::invertedindex</text>
<text text-anchor="middle" x="67.5" y="-7" font-family="Helvetica,sans-Serif" font-size="10.00">::UnsortedInput::sort</text>
</a>
</g>
</g>
<!-- Node4&#45;&gt;Node5 -->
<g id="edge4_Node000004_Node000005" class="edge">
<title>Node4&#45;&gt;Node5</title>
<g id="a_edge4_Node000004_Node000005"><a xlink:title=" ">
<path fill="none" stroke="#63b8ff" d="M164.51,-15C154.74,-15 144.8,-15 135.21,-15"/>
<polygon fill="#63b8ff" stroke="#63b8ff" points="164.61,-18.5 174.61,-15 164.61,-11.5 164.61,-18.5"/>
</a>
</g>
</g>
</g>
</svg>
