<?xml version="1.0" encoding="UTF-8" standalone="no"?>
<!DOCTYPE svg PUBLIC "-//W3C//DTD SVG 1.1//EN"
 "http://www.w3.org/Graphics/SVG/1.1/DTD/svg11.dtd">
<!-- Generated by graphviz version 2.43.0 (0)
 -->
<!-- Title: netspeak::value::triple&lt; T1, T2, T3 &gt; Pages: 1 -->
<svg width="128pt" height="293pt"
 viewBox="0.00 0.00 128.00 293.00" xmlns="http://www.w3.org/2000/svg" xmlns:xlink="http://www.w3.org/1999/xlink">
<g id="graph0" class="graph" transform="scale(1 1) rotate(0) translate(4 289)">
<title>netspeak::value::triple&lt; T1, T2, T3 &gt;</title>
<!-- Node1 -->
<g id="Node000001" class="node">
<title>Node1</title>
<g id="a_Node000001"><a xlink:title=" ">
<polygon fill="#999999" stroke="transparent" points="120,-285 0,-285 0,0 120,0 120,-285"/>
<text text-anchor="start" x="5" y="-272.5" font-family="Helvetica,sans-Serif" font-size="10.00">netspeak::value::triple</text>
<text text-anchor="start" x="24.5" y="-261.5" font-family="Helvetica,sans-Serif" font-size="10.00">&lt; T1, T2, T3 &gt;</text>
<text text-anchor="start" x="20.5" y="-246.5" font-family="Helvetica,sans-Serif" font-size="10.00">&#45;</text>
<text text-anchor="start" x="45" y="-246.5" font-family="Helvetica,sans-Serif" font-size="10.00">e1_</text>
<text text-anchor="start" x="20.5" y="-231.5" font-family="Helvetica,sans-Serif" font-size="10.00">&#45;</text>
<text text-anchor="start" x="45" y="-231.5" font-family="Helvetica,sans-Serif" font-size="10.00">e2_</text>
<text text-anchor="start" x="20.5" y="-216.5" font-family="Helvetica,sans-Serif" font-size="10.00">&#45;</text>
<text text-anchor="start" x="45" y="-216.5" font-family="Helvetica,sans-Serif" font-size="10.00">e3_</text>
<text text-anchor="start" x="18" y="-201.5" font-family="Helvetica,sans-Serif" font-size="10.00">+</text>
<text text-anchor="start" x="45" y="-201.5" font-family="Helvetica,sans-Serif" font-size="10.00">triple()</text>
<text text-anchor="start" x="18" y="-186.5" font-family="Helvetica,sans-Serif" font-size="10.00">+</text>
<text text-anchor="start" x="45" y="-186.5" font-family="Helvetica,sans-Serif" font-size="10.00">triple()</text>
<text text-anchor="start" x="18" y="-171.5" font-family="Helvetica,sans-Serif" font-size="10.00">+</text>
<text text-anchor="start" x="45" y="-171.5" font-family="Helvetica,sans-Serif" font-size="10.00">triple()</text>
<text text-anchor="start" x="18" y="-156.5" font-family="Helvetica,sans-Serif" font-size="10.00">+</text>
<text text-anchor="start" x="45" y="-156.5" font-family="Helvetica,sans-Serif" font-size="10.00">~triple()</text>
<text text-anchor="start" x="18" y="-141.5" font-family="Helvetica,sans-Serif" font-size="10.00">+</text>
<text text-anchor="start" x="45" y="-141.5" font-family="Helvetica,sans-Serif" font-size="10.00">e1()</text>
<text text-anchor="start" x="18" y="-126.5" font-family="Helvetica,sans-Serif" font-size="10.00">+</text>
<text text-anchor="start" x="45" y="-126.5" font-family="Helvetica,sans-Serif" font-size="10.00">e2()</text>
<text text-anchor="start" x="18" y="-111.5" font-family="Helvetica,sans-Serif" font-size="10.00">+</text>
<text text-anchor="start" x="45" y="-111.5" font-family="Helvetica,sans-Serif" font-size="10.00">e3()</text>
<text text-anchor="start" x="18" y="-96.5" font-family="Helvetica,sans-Serif" font-size="10.00">+</text>
<text text-anchor="start" x="45" y="-96.5" font-family="Helvetica,sans-Serif" font-size="10.00">e1()</text>
<text text-anchor="start" x="18" y="-81.5" font-family="Helvetica,sans-Serif" font-size="10.00">+</text>
<text text-anchor="start" x="45" y="-81.5" font-family="Helvetica,sans-Serif" font-size="10.00">e2()</text>
<text text-anchor="start" x="18" y="-66.5" font-family="Helvetica,sans-Serif" font-size="10.00">+</text>
<text text-anchor="start" x="45" y="-66.5" font-family="Helvetica,sans-Serif" font-size="10.00">e3()</text>
<text text-anchor="start" x="18" y="-51.5" font-family="Helvetica,sans-Serif" font-size="10.00">+</text>
<text text-anchor="start" x="45" y="-51.5" font-family="Helvetica,sans-Serif" font-size="10.00">set_e1()</text>
<text text-anchor="start" x="18" y="-36.5" font-family="Helvetica,sans-Serif" font-size="10.00">+</text>
<text text-anchor="start" x="45" y="-36.5" font-family="Helvetica,sans-Serif" font-size="10.00">set_e2()</text>
<text text-anchor="start" x="18" y="-21.5" font-family="Helvetica,sans-Serif" font-size="10.00">+</text>
<text text-anchor="start" x="45" y="-21.5" font-family="Helvetica,sans-Serif" font-size="10.00">set_e3()</text>
<text text-anchor="start" x="18" y="-6.5" font-family="Helvetica,sans-Serif" font-size="10.00">+</text>
<text text-anchor="start" x="45" y="-6.5" font-family="Helvetica,sans-Serif" font-size="10.00">set()</text>
<polygon fill="#666666" stroke="#666666" points="0,-256.5 0,-256.5 120,-256.5 120,-256.5 0,-256.5"/>
<polygon fill="#666666" stroke="#666666" points="0,-211.5 0,-211.5 43,-211.5 43,-211.5 0,-211.5"/>
<polygon fill="#666666" stroke="#666666" points="43,-211.5 43,-211.5 120,-211.5 120,-211.5 43,-211.5"/>
<polygon fill="none" stroke="#666666" points="0,0 0,-285 120,-285 120,0 0,0"/>
</a>
</g>
</g>
</g>
</svg>
