<?xml version="1.0" encoding="UTF-8" standalone="no"?>
<!DOCTYPE svg PUBLIC "-//W3C//DTD SVG 1.1//EN"
 "http://www.w3.org/Graphics/SVG/1.1/DTD/svg11.dtd">
<!-- Generated by graphviz version 2.43.0 (0)
 -->
<!-- Title: netspeak::model::NormQueryUnit__::text Pages: 1 -->
<svg width="1146pt" height="186pt"
 viewBox="0.00 0.00 1146.00 185.50" xmlns="http://www.w3.org/2000/svg" xmlns:xlink="http://www.w3.org/1999/xlink">
<g id="graph0" class="graph" transform="scale(1 1) rotate(0) translate(4 181.5)">
<title>netspeak::model::NormQueryUnit__::text</title>
<!-- Node1 -->
<g id="Node000001" class="node">
<title>Node1</title>
<g id="a_Node000001"><a xlink:title=" ">
<polygon fill="#999999" stroke="#666666" points="1138,-118 977,-118 977,-88 1138,-88 1138,-118"/>
<text text-anchor="start" x="985" y="-106" font-family="Helvetica,sans-Serif" font-size="10.00">netspeak::model::NormQuery</text>
<text text-anchor="middle" x="1057.5" y="-95" font-family="Helvetica,sans-Serif" font-size="10.00">Unit__::text</text>
</a>
</g>
</g>
<!-- Node2 -->
<g id="Node000002" class="node">
<title>Node2</title>
<g id="a_Node000002"><a xlink:href="namespacenetspeak_1_1model.html#a76cb5f6f16196d78de0430ccd2bb43a4" target="_top" xlink:title=" ">
<polygon fill="white" stroke="#666666" points="941,-177.5 779,-177.5 779,-158.5 941,-158.5 941,-177.5"/>
<text text-anchor="middle" x="860" y="-165.5" font-family="Helvetica,sans-Serif" font-size="10.00">netspeak::model::operator&lt;&lt;</text>
</a>
</g>
</g>
<!-- Node1&#45;&gt;Node2 -->
<g id="edge1_Node000001_Node000002" class="edge">
<title>Node1&#45;&gt;Node2</title>
<g id="a_edge1_Node000001_Node000002"><a xlink:title=" ">
<path fill="none" stroke="#63b8ff" d="M1013.13,-122.01C991.69,-130.96 965.27,-141.33 941,-149 929.84,-152.53 917.62,-155.74 906.17,-158.49"/>
<polygon fill="#63b8ff" stroke="#63b8ff" points="1014.75,-125.13 1022.61,-118.02 1012.03,-118.68 1014.75,-125.13"/>
</a>
</g>
</g>
<!-- Node3 -->
<g id="Node000003" class="node">
<title>Node3</title>
<g id="a_Node000003"><a xlink:href="classnetspeak_1_1model_1_1NormQueryUnit____.html#ad6a8f6f0ad9b7d031398e1b4b2f90f4d" target="_top" xlink:title=" ">
<polygon fill="white" stroke="#666666" points="940.5,-140 779.5,-140 779.5,-110 940.5,-110 940.5,-140"/>
<text text-anchor="start" x="787.5" y="-128" font-family="Helvetica,sans-Serif" font-size="10.00">netspeak::model::NormQuery</text>
<text text-anchor="middle" x="860" y="-117" font-family="Helvetica,sans-Serif" font-size="10.00">Unit__::operator==</text>
</a>
</g>
</g>
<!-- Node1&#45;&gt;Node3 -->
<g id="edge2_Node000001_Node000003" class="edge">
<title>Node1&#45;&gt;Node3</title>
<g id="a_edge2_Node000001_Node000003"><a xlink:title=" ">
<path fill="none" stroke="#63b8ff" d="M966.83,-113.09C958.14,-114.07 949.35,-115.06 940.76,-116.02"/>
<polygon fill="#63b8ff" stroke="#63b8ff" points="967.44,-116.54 976.98,-111.95 966.65,-109.59 967.44,-116.54"/>
</a>
</g>
</g>
<!-- Node4 -->
<g id="Node000004" class="node">
<title>Node4</title>
<g id="a_Node000004"><a xlink:href="namespacenetspeak_1_1model.html#a48cbc76c3e91dedbda542ebaac4d9302" target="_top" xlink:title=" ">
<polygon fill="white" stroke="#666666" points="941,-91.5 779,-91.5 779,-72.5 941,-72.5 941,-91.5"/>
<text text-anchor="middle" x="860" y="-79.5" font-family="Helvetica,sans-Serif" font-size="10.00">netspeak::model::operator==</text>
</a>
</g>
</g>
<!-- Node1&#45;&gt;Node4 -->
<g id="edge3_Node000001_Node000004" class="edge">
<title>Node1&#45;&gt;Node4</title>
<g id="a_edge3_Node000001_Node000004"><a xlink:title=" ">
<path fill="none" stroke="#63b8ff" d="M966.92,-93.38C958.3,-92.45 949.6,-91.52 941.08,-90.6"/>
<polygon fill="#63b8ff" stroke="#63b8ff" points="966.67,-96.87 976.98,-94.46 967.41,-89.91 966.67,-96.87"/>
</a>
</g>
</g>
<!-- Node5 -->
<g id="Node000005" class="node">
<title>Node5</title>
<g id="a_Node000005"><a xlink:href="classnetspeak_1_1model_1_1NormQueryUnit____.html#a90ea86da4e6967f5690e0483b810e897" target="_top" xlink:title=" ">
<polygon fill="white" stroke="#666666" points="940.5,-54 779.5,-54 779.5,-24 940.5,-24 940.5,-54"/>
<text text-anchor="start" x="787.5" y="-42" font-family="Helvetica,sans-Serif" font-size="10.00">netspeak::model::NormQuery</text>
<text text-anchor="middle" x="860" y="-31" font-family="Helvetica,sans-Serif" font-size="10.00">Unit__::word</text>
</a>
</g>
</g>
<!-- Node1&#45;&gt;Node5 -->
<g id="edge4_Node000001_Node000005" class="edge">
<title>Node1&#45;&gt;Node5</title>
<g id="a_edge4_Node000001_Node000005"><a xlink:title=" ">
<path fill="none" stroke="#63b8ff" d="M1003.07,-84.68C983.57,-78.06 961.32,-70.6 941,-64 930.9,-60.72 920.05,-57.27 909.71,-54.03"/>
<polygon fill="#63b8ff" stroke="#63b8ff" points="1002.11,-88.05 1012.7,-87.95 1004.36,-81.42 1002.11,-88.05"/>
</a>
</g>
</g>
<!-- Node6 -->
<g id="Node000006" class="node">
<title>Node6</title>
<g id="a_Node000006"><a xlink:href="classnetspeak_1_1SimpleQueryNormalizer.html#afd2caf62dcb75af59e7d95298d431f29" target="_top" xlink:title=" ">
<polygon fill="white" stroke="#666666" points="743,-78 558,-78 558,-48 743,-48 743,-78"/>
<text text-anchor="start" x="566" y="-66" font-family="Helvetica,sans-Serif" font-size="10.00">netspeak::SimpleQueryNormalizer</text>
<text text-anchor="middle" x="650.5" y="-55" font-family="Helvetica,sans-Serif" font-size="10.00">::add_simple</text>
</a>
</g>
</g>
<!-- Node5&#45;&gt;Node6 -->
<g id="edge5_Node000005_Node000006" class="edge">
<title>Node5&#45;&gt;Node6</title>
<g id="a_edge5_Node000005_Node000006"><a xlink:title=" ">
<path fill="none" stroke="#63b8ff" d="M769.25,-49.38C760.56,-50.39 751.74,-51.41 743.04,-52.41"/>
<polygon fill="#63b8ff" stroke="#63b8ff" points="769.84,-52.84 779.37,-48.21 769.03,-45.88 769.84,-52.84"/>
</a>
</g>
</g>
<!-- Node10 -->
<g id="Node000010" class="node">
<title>Node10</title>
<g id="a_Node000010"><a xlink:href="classnetspeak_1_1SimpleQueryNormalizer.html#a64b4efb1803b5ed2bd2b1dc7197938f5" target="_top" xlink:title=" ">
<polygon fill="white" stroke="#666666" points="743,-30 558,-30 558,0 743,0 743,-30"/>
<text text-anchor="start" x="566" y="-18" font-family="Helvetica,sans-Serif" font-size="10.00">netspeak::SimpleQueryNormalizer</text>
<text text-anchor="middle" x="650.5" y="-7" font-family="Helvetica,sans-Serif" font-size="10.00">::add_with_stars</text>
</a>
</g>
</g>
<!-- Node5&#45;&gt;Node10 -->
<g id="edge9_Node000005_Node000010" class="edge">
<title>Node5&#45;&gt;Node10</title>
<g id="a_edge9_Node000005_Node000010"><a xlink:title=" ">
<path fill="none" stroke="#63b8ff" d="M769.25,-28.62C760.56,-27.61 751.74,-26.59 743.04,-25.59"/>
<polygon fill="#63b8ff" stroke="#63b8ff" points="769.03,-32.12 779.37,-29.79 769.84,-25.16 769.03,-32.12"/>
</a>
</g>
</g>
<!-- Node7 -->
<g id="Node000007" class="node">
<title>Node7</title>
<g id="a_Node000007"><a xlink:href="classnetspeak_1_1SimpleQueryNormalizer.html#a64fc82bf1d46c167bbb645835120b233" target="_top" xlink:title="Converts the given simple query into norm queries and adds them to the given list of norm queries.">
<polygon fill="white" stroke="#666666" points="522,-54 337,-54 337,-24 522,-24 522,-54"/>
<text text-anchor="start" x="345" y="-42" font-family="Helvetica,sans-Serif" font-size="10.00">netspeak::SimpleQueryNormalizer</text>
<text text-anchor="middle" x="429.5" y="-31" font-family="Helvetica,sans-Serif" font-size="10.00">::to_norm_queries</text>
</a>
</g>
</g>
<!-- Node6&#45;&gt;Node7 -->
<g id="edge6_Node000006_Node000007" class="edge">
<title>Node6&#45;&gt;Node7</title>
<g id="a_edge6_Node000006_Node000007"><a xlink:title=" ">
<path fill="none" stroke="#63b8ff" d="M547.85,-51.86C539.26,-50.92 530.6,-49.97 522.09,-49.04"/>
<polygon fill="#63b8ff" stroke="#63b8ff" points="547.57,-55.35 557.89,-52.96 548.33,-48.39 547.57,-55.35"/>
</a>
</g>
</g>
<!-- Node8 -->
<g id="Node000008" class="node">
<title>Node8</title>
<g id="a_Node000008"><a xlink:href="classnetspeak_1_1QueryNormalizer.html#a70187ab668d98c93cfc3a8d05ca1508e" target="_top" xlink:title=" ">
<polygon fill="white" stroke="#666666" points="301,-54 150,-54 150,-24 301,-24 301,-54"/>
<text text-anchor="start" x="158" y="-42" font-family="Helvetica,sans-Serif" font-size="10.00">netspeak::QueryNormalizer</text>
<text text-anchor="middle" x="225.5" y="-31" font-family="Helvetica,sans-Serif" font-size="10.00">::normalize</text>
</a>
</g>
</g>
<!-- Node7&#45;&gt;Node8 -->
<g id="edge7_Node000007_Node000008" class="edge">
<title>Node7&#45;&gt;Node8</title>
<g id="a_edge7_Node000007_Node000008"><a xlink:title=" ">
<path fill="none" stroke="#63b8ff" d="M326.8,-39C318.14,-39 309.48,-39 301.09,-39"/>
<polygon fill="#63b8ff" stroke="#63b8ff" points="326.96,-42.5 336.96,-39 326.96,-35.5 326.96,-42.5"/>
</a>
</g>
</g>
<!-- Node9 -->
<g id="Node000009" class="node">
<title>Node9</title>
<g id="a_Node000009"><a xlink:href="classnetspeak_1_1Netspeak.html#aaa049275c7a0a7f6721acf7422402bff" target="_top" xlink:title=" ">
<polygon fill="white" stroke="#666666" points="114,-54 0,-54 0,-24 114,-24 114,-54"/>
<text text-anchor="start" x="8" y="-42" font-family="Helvetica,sans-Serif" font-size="10.00">netspeak::Netspeak</text>
<text text-anchor="middle" x="57" y="-31" font-family="Helvetica,sans-Serif" font-size="10.00">::search_raw_</text>
</a>
</g>
</g>
<!-- Node8&#45;&gt;Node9 -->
<g id="edge8_Node000008_Node000009" class="edge">
<title>Node8&#45;&gt;Node9</title>
<g id="a_edge8_Node000008_Node000009"><a xlink:title=" ">
<path fill="none" stroke="#63b8ff" d="M139.45,-39C130.85,-39 122.28,-39 114.1,-39"/>
<polygon fill="#63b8ff" stroke="#63b8ff" points="139.53,-42.5 149.53,-39 139.53,-35.5 139.53,-42.5"/>
</a>
</g>
</g>
<!-- Node10&#45;&gt;Node7 -->
<g id="edge10_Node000010_Node000007" class="edge">
<title>Node10&#45;&gt;Node7</title>
<g id="a_edge10_Node000010_Node000007"><a xlink:title=" ">
<path fill="none" stroke="#63b8ff" d="M547.85,-26.14C539.26,-27.08 530.6,-28.03 522.09,-28.96"/>
<polygon fill="#63b8ff" stroke="#63b8ff" points="548.33,-29.61 557.89,-25.04 547.57,-22.65 548.33,-29.61"/>
</a>
</g>
</g>
</g>
</svg>
