<?xml version="1.0" encoding="UTF-8" standalone="no"?>
<!DOCTYPE svg PUBLIC "-//W3C//DTD SVG 1.1//EN"
 "http://www.w3.org/Graphics/SVG/1.1/DTD/svg11.dtd">
<!-- Generated by graphviz version 2.43.0 (0)
 -->
<!-- Title: netspeak::model::Phrase::id Pages: 1 -->
<svg width="508pt" height="172pt"
 viewBox="0.00 0.00 508.00 172.00" xmlns="http://www.w3.org/2000/svg" xmlns:xlink="http://www.w3.org/1999/xlink">
<g id="graph0" class="graph" transform="scale(1 1) rotate(0) translate(4 168)">
<title>netspeak::model::Phrase::id</title>
<!-- Node1 -->
<g id="Node000001" class="node">
<title>Node1</title>
<g id="a_Node000001"><a xlink:title=" ">
<polygon fill="#999999" stroke="#666666" points="500,-93.5 348,-93.5 348,-74.5 500,-74.5 500,-93.5"/>
<text text-anchor="middle" x="424" y="-81.5" font-family="Helvetica,sans-Serif" font-size="10.00">netspeak::model::Phrase::id</text>
</a>
</g>
</g>
<!-- Node2 -->
<g id="Node000002" class="node">
<title>Node2</title>
<g id="a_Node000002"><a xlink:href="classnetspeak_1_1model_1_1Phrase.html#a6bf658047f362edc2d3015618048a563" target="_top" xlink:title=" ">
<polygon fill="white" stroke="#666666" points="299.5,-164 162.5,-164 162.5,-134 299.5,-134 299.5,-164"/>
<text text-anchor="start" x="170.5" y="-152" font-family="Helvetica,sans-Serif" font-size="10.00">netspeak::model::Phrase</text>
<text text-anchor="middle" x="231" y="-141" font-family="Helvetica,sans-Serif" font-size="10.00">::operator&lt;</text>
</a>
</g>
</g>
<!-- Node1&#45;&gt;Node2 -->
<g id="edge1_Node000001_Node000002" class="edge">
<title>Node1&#45;&gt;Node2</title>
<g id="a_edge1_Node000001_Node000002"><a xlink:title=" ">
<path fill="none" stroke="#63b8ff" d="M388.97,-97.2C367.1,-105.52 338.02,-116.3 312,-125 302.92,-128.03 293.21,-131.1 283.79,-133.98"/>
<polygon fill="#63b8ff" stroke="#63b8ff" points="390.38,-100.4 398.47,-93.56 387.88,-93.87 390.38,-100.4"/>
</a>
</g>
</g>
<!-- Node3 -->
<g id="Node000003" class="node">
<title>Node3</title>
<g id="a_Node000003"><a xlink:href="namespacenetspeak_1_1model.html#a0bb06f99c4497fc312b17865e0b093f7" target="_top" xlink:title=" ">
<polygon fill="white" stroke="#666666" points="312,-115.5 150,-115.5 150,-96.5 312,-96.5 312,-115.5"/>
<text text-anchor="middle" x="231" y="-103.5" font-family="Helvetica,sans-Serif" font-size="10.00">netspeak::model::operator&lt;&lt;</text>
</a>
</g>
</g>
<!-- Node1&#45;&gt;Node3 -->
<g id="edge2_Node000001_Node000003" class="edge">
<title>Node1&#45;&gt;Node3</title>
<g id="a_edge2_Node000001_Node000003"><a xlink:title=" ">
<path fill="none" stroke="#63b8ff" d="M337.84,-93.81C329.3,-94.79 320.66,-95.79 312.18,-96.76"/>
<polygon fill="#63b8ff" stroke="#63b8ff" points="338.25,-97.28 347.79,-92.66 337.45,-90.33 338.25,-97.28"/>
</a>
</g>
</g>
<!-- Node4 -->
<g id="Node000004" class="node">
<title>Node4</title>
<g id="a_Node000004"><a xlink:href="classnetspeak_1_1model_1_1Phrase.html#ab8c673980229dbffbcdb65f1dcf6f6c8" target="_top" xlink:title=" ">
<polygon fill="white" stroke="#666666" points="299.5,-78 162.5,-78 162.5,-48 299.5,-48 299.5,-78"/>
<text text-anchor="start" x="170.5" y="-66" font-family="Helvetica,sans-Serif" font-size="10.00">netspeak::model::Phrase</text>
<text text-anchor="middle" x="231" y="-55" font-family="Helvetica,sans-Serif" font-size="10.00">::operator==</text>
</a>
</g>
</g>
<!-- Node1&#45;&gt;Node4 -->
<g id="edge3_Node000001_Node000004" class="edge">
<title>Node1&#45;&gt;Node4</title>
<g id="a_edge3_Node000001_Node000004"><a xlink:title=" ">
<path fill="none" stroke="#63b8ff" d="M337.66,-74.62C324.94,-73.22 311.98,-71.79 299.7,-70.44"/>
<polygon fill="#63b8ff" stroke="#63b8ff" points="337.46,-78.12 347.79,-75.73 338.23,-71.16 337.46,-78.12"/>
</a>
</g>
</g>
<!-- Node5 -->
<g id="Node000005" class="node">
<title>Node5</title>
<g id="a_Node000005"><a xlink:href="namespacenetspeak.html#ad74fec567cecadce429daf41e8d8cd32" target="_top" xlink:title="Converts the given search result item into a (service) phrase.">
<polygon fill="white" stroke="#666666" points="297,-30 165,-30 165,0 297,0 297,-30"/>
<text text-anchor="start" x="173" y="-18" font-family="Helvetica,sans-Serif" font-size="10.00">netspeak::set_response</text>
<text text-anchor="middle" x="231" y="-7" font-family="Helvetica,sans-Serif" font-size="10.00">_phrase</text>
</a>
</g>
</g>
<!-- Node1&#45;&gt;Node5 -->
<g id="edge4_Node000001_Node000005" class="edge">
<title>Node1&#45;&gt;Node5</title>
<g id="a_edge4_Node000001_Node000005"><a xlink:title=" ">
<path fill="none" stroke="#63b8ff" d="M391.9,-70.48C369.81,-61.1 339.34,-48.62 312,-39 303.25,-35.92 293.87,-32.88 284.73,-30.05"/>
<polygon fill="#63b8ff" stroke="#63b8ff" points="390.55,-73.71 401.12,-74.42 393.3,-67.27 390.55,-73.71"/>
</a>
</g>
</g>
<!-- Node6 -->
<g id="Node000006" class="node">
<title>Node6</title>
<g id="a_Node000006"><a xlink:href="classnetspeak_1_1Netspeak.html#a1e105b00012dec5fc8e8534f2d9d8180" target="_top" xlink:title=" ">
<polygon fill="white" stroke="#666666" points="114,-30 0,-30 0,0 114,0 114,-30"/>
<text text-anchor="start" x="8" y="-18" font-family="Helvetica,sans-Serif" font-size="10.00">netspeak::Netspeak</text>
<text text-anchor="middle" x="57" y="-7" font-family="Helvetica,sans-Serif" font-size="10.00">::search</text>
</a>
</g>
</g>
<!-- Node5&#45;&gt;Node6 -->
<g id="edge5_Node000005_Node000006" class="edge">
<title>Node5&#45;&gt;Node6</title>
<g id="a_edge5_Node000005_Node000006"><a xlink:title=" ">
<path fill="none" stroke="#63b8ff" d="M154.65,-15C141.04,-15 127.06,-15 114.11,-15"/>
<polygon fill="#63b8ff" stroke="#63b8ff" points="154.97,-18.5 164.97,-15 154.97,-11.5 154.97,-18.5"/>
</a>
</g>
</g>
</g>
</svg>
