<?xml version="1.0" encoding="UTF-8" standalone="no"?>
<!DOCTYPE svg PUBLIC "-//W3C//DTD SVG 1.1//EN"
 "http://www.w3.org/Graphics/SVG/1.1/DTD/svg11.dtd">
<!-- Generated by graphviz version 2.43.0 (0)
 -->
<!-- Title: netspeak::regex::DefaultRegexIndex::optimize_query Pages: 1 -->
<svg width="753pt" height="273pt"
 viewBox="0.00 0.00 753.00 272.69" xmlns="http://www.w3.org/2000/svg" xmlns:xlink="http://www.w3.org/1999/xlink">
<g id="graph0" class="graph" transform="scale(1 1) rotate(0) translate(4 268.69)">
<title>netspeak::regex::DefaultRegexIndex::optimize_query</title>
<!-- Node1 -->
<g id="Node000001" class="node">
<title>Node1</title>
<g id="a_Node000001"><a xlink:title="Optimizes the given query considering the properties of the vocabulary of the index.">
<polygon fill="#999999" stroke="#666666" points="156,-102.69 0,-102.69 0,-72.69 156,-72.69 156,-102.69"/>
<text text-anchor="start" x="8" y="-90.69" font-family="Helvetica,sans-Serif" font-size="10.00">netspeak::regex::Default</text>
<text text-anchor="middle" x="78" y="-79.69" font-family="Helvetica,sans-Serif" font-size="10.00">RegexIndex::optimize_query</text>
</a>
</g>
</g>
<!-- Node2 -->
<g id="Node000002" class="node">
<title>Node2</title>
<g id="a_Node000002"><a xlink:href="classnetspeak_1_1regex_1_1RegexQueryBuilder.html#a626cce510f80b416ea26d8d1e9d4891c" target="_top" xlink:title="Adds the given unit to the internal query.">
<polygon fill="white" stroke="#666666" points="353,-198.69 192,-198.69 192,-168.69 353,-168.69 353,-198.69"/>
<text text-anchor="start" x="200" y="-186.69" font-family="Helvetica,sans-Serif" font-size="10.00">netspeak::regex::RegexQuery</text>
<text text-anchor="middle" x="272.5" y="-175.69" font-family="Helvetica,sans-Serif" font-size="10.00">Builder::add</text>
</a>
</g>
</g>
<!-- Node1&#45;&gt;Node2 -->
<g id="edge1_Node000001_Node000002" class="edge">
<title>Node1&#45;&gt;Node2</title>
<g id="a_edge1_Node000001_Node000002"><a xlink:title=" ">
<path fill="none" stroke="#63b8ff" d="M98.86,-102.73C120.7,-118.7 157.33,-143.77 192,-159.69 196.28,-161.65 200.76,-163.5 205.32,-165.24"/>
<polygon fill="#63b8ff" stroke="#63b8ff" points="204.17,-168.55 214.76,-168.65 206.54,-161.96 204.17,-168.55"/>
</a>
</g>
</g>
<!-- Node4 -->
<g id="Node000004" class="node">
<title>Node4</title>
<g id="a_Node000004"><a xlink:href="structnetspeak_1_1regex_1_1RegexUnit.html#a98dff8023a5bb0d25f87f544dbb39659" target="_top" xlink:title=" ">
<polygon fill="white" stroke="#666666" points="745,-102.69 593,-102.69 593,-72.69 745,-72.69 745,-102.69"/>
<text text-anchor="start" x="601" y="-90.69" font-family="Helvetica,sans-Serif" font-size="10.00">netspeak::regex::RegexUnit</text>
<text text-anchor="middle" x="669" y="-79.69" font-family="Helvetica,sans-Serif" font-size="10.00">::char_set</text>
</a>
</g>
</g>
<!-- Node1&#45;&gt;Node4 -->
<g id="edge10_Node000001_Node000004" class="edge">
<title>Node1&#45;&gt;Node4</title>
<g id="a_edge10_Node000001_Node000004"><a xlink:title=" ">
<path fill="none" stroke="#63b8ff" d="M95.84,-72.52C116.66,-54.87 154.03,-26.75 192,-15.69 347.3,29.58 539.84,-34.75 624.55,-68.84"/>
<polygon fill="#63b8ff" stroke="#63b8ff" points="623.28,-72.1 633.86,-72.63 625.92,-65.61 623.28,-72.1"/>
</a>
</g>
</g>
<!-- Node9 -->
<g id="Node000009" class="node">
<title>Node9</title>
<g id="a_Node000009"><a xlink:href="namespacenetspeak_1_1regex.html#aebd2483ad4c4c5830b3a7b1f4dbe1e67" target="_top" xlink:title=" ">
<polygon fill="white" stroke="#666666" points="344,-102.69 201,-102.69 201,-72.69 344,-72.69 344,-102.69"/>
<text text-anchor="start" x="209" y="-90.69" font-family="Helvetica,sans-Serif" font-size="10.00">netspeak::regex::contains</text>
<text text-anchor="middle" x="272.5" y="-79.69" font-family="Helvetica,sans-Serif" font-size="10.00">_unknown_characters</text>
</a>
</g>
</g>
<!-- Node1&#45;&gt;Node9 -->
<g id="edge11_Node000001_Node000009" class="edge">
<title>Node1&#45;&gt;Node9</title>
<g id="a_edge11_Node000001_Node000009"><a xlink:title=" ">
<path fill="none" stroke="#63b8ff" d="M156.19,-87.69C167.48,-87.69 179.14,-87.69 190.5,-87.69"/>
<polygon fill="#63b8ff" stroke="#63b8ff" points="190.84,-91.19 200.84,-87.69 190.84,-84.19 190.84,-91.19"/>
</a>
</g>
</g>
<!-- Node10 -->
<g id="Node000010" class="node">
<title>Node10</title>
<g id="a_Node000010"><a xlink:href="classnetspeak_1_1regex_1_1RegexQuery.html#ace5fe64453987c6f605300a8aa5d4ee4" target="_top" xlink:title="Get the underlying units.">
<polygon fill="white" stroke="#666666" points="353,-54.69 192,-54.69 192,-24.69 353,-24.69 353,-54.69"/>
<text text-anchor="start" x="200" y="-42.69" font-family="Helvetica,sans-Serif" font-size="10.00">netspeak::regex::RegexQuery</text>
<text text-anchor="middle" x="272.5" y="-31.69" font-family="Helvetica,sans-Serif" font-size="10.00">::get_units</text>
</a>
</g>
</g>
<!-- Node1&#45;&gt;Node10 -->
<g id="edge12_Node000001_Node000010" class="edge">
<title>Node1&#45;&gt;Node10</title>
<g id="a_edge12_Node000001_Node000010"><a xlink:title=" ">
<path fill="none" stroke="#63b8ff" d="M139.38,-72.63C159.09,-67.72 181.14,-62.22 201.5,-57.14"/>
<polygon fill="#63b8ff" stroke="#63b8ff" points="202.48,-60.5 211.33,-54.69 200.78,-53.71 202.48,-60.5"/>
</a>
</g>
</g>
<!-- Node11 -->
<g id="Node000011" class="node">
<title>Node11</title>
<g id="a_Node000011"><a xlink:href="classnetspeak_1_1regex_1_1RegexQueryBuilder.html#a7ef4e5553d0ec791b3960977a25e463f" target="_top" xlink:title="Creates a query from the current internal state.">
<polygon fill="white" stroke="#666666" points="353,-150.69 192,-150.69 192,-120.69 353,-120.69 353,-150.69"/>
<text text-anchor="start" x="200" y="-138.69" font-family="Helvetica,sans-Serif" font-size="10.00">netspeak::regex::RegexQuery</text>
<text text-anchor="middle" x="272.5" y="-127.69" font-family="Helvetica,sans-Serif" font-size="10.00">Builder::to_query</text>
</a>
</g>
</g>
<!-- Node1&#45;&gt;Node11 -->
<g id="edge13_Node000001_Node000011" class="edge">
<title>Node1&#45;&gt;Node11</title>
<g id="a_edge13_Node000001_Node000011"><a xlink:title=" ">
<path fill="none" stroke="#63b8ff" d="M139.38,-102.74C159.09,-107.66 181.14,-113.15 201.5,-118.23"/>
<polygon fill="#63b8ff" stroke="#63b8ff" points="200.78,-121.66 211.33,-120.68 202.48,-114.87 200.78,-121.66"/>
</a>
</g>
</g>
<!-- Node3 -->
<g id="Node000003" class="node">
<title>Node3</title>
<g id="a_Node000003"><a xlink:href="namespacenetspeak_1_1regex.html#a7bcd9407eaeeaacfbdac4b3b53246bb8" target="_top" xlink:title=" ">
<polygon fill="white" stroke="#666666" points="557,-151.19 389,-151.19 389,-132.19 557,-132.19 557,-151.19"/>
<text text-anchor="middle" x="473" y="-139.19" font-family="Helvetica,sans-Serif" font-size="10.00">netspeak::regex::optimize_unit</text>
</a>
</g>
</g>
<!-- Node2&#45;&gt;Node3 -->
<g id="edge2_Node000002_Node000003" class="edge">
<title>Node2&#45;&gt;Node3</title>
<g id="a_edge2_Node000002_Node000003"><a xlink:title=" ">
<path fill="none" stroke="#63b8ff" d="M344.6,-168.64C368.43,-163.6 394.62,-158.06 417.02,-153.32"/>
<polygon fill="#63b8ff" stroke="#63b8ff" points="417.97,-156.7 427.03,-151.2 416.52,-149.85 417.97,-156.7"/>
</a>
</g>
</g>
<!-- Node6 -->
<g id="Node000006" class="node">
<title>Node6</title>
<g id="a_Node000006"><a xlink:href="structnetspeak_1_1regex_1_1RegexUnit.html#a4da1987f131aa9640b7e77d7960b031b" target="_top" xlink:title=" ">
<polygon fill="white" stroke="#666666" points="745,-198.69 593,-198.69 593,-168.69 745,-168.69 745,-198.69"/>
<text text-anchor="start" x="601" y="-186.69" font-family="Helvetica,sans-Serif" font-size="10.00">netspeak::regex::RegexUnit</text>
<text text-anchor="middle" x="669" y="-175.69" font-family="Helvetica,sans-Serif" font-size="10.00">::word</text>
</a>
</g>
</g>
<!-- Node2&#45;&gt;Node6 -->
<g id="edge9_Node000002_Node000006" class="edge">
<title>Node2&#45;&gt;Node6</title>
<g id="a_edge9_Node000002_Node000006"><a xlink:title=" ">
<path fill="none" stroke="#63b8ff" d="M353.33,-183.69C419.93,-183.69 514.61,-183.69 582.7,-183.69"/>
<polygon fill="#63b8ff" stroke="#63b8ff" points="582.96,-187.19 592.96,-183.69 582.96,-180.19 582.96,-187.19"/>
</a>
</g>
</g>
<!-- Node7 -->
<g id="Node000007" class="node">
<title>Node7</title>
<g id="a_Node000007"><a xlink:href="namespacenetspeak_1_1regex.html#af699a70a2450bb3c60f6eb849b7e6176" target="_top" xlink:title="Removes all trailing optional words.">
<polygon fill="white" stroke="#666666" points="542.5,-252.69 403.5,-252.69 403.5,-222.69 542.5,-222.69 542.5,-252.69"/>
<text text-anchor="start" x="411.5" y="-240.69" font-family="Helvetica,sans-Serif" font-size="10.00">netspeak::regex::remove</text>
<text text-anchor="middle" x="473" y="-229.69" font-family="Helvetica,sans-Serif" font-size="10.00">_trailing_optional_words</text>
</a>
</g>
</g>
<!-- Node2&#45;&gt;Node7 -->
<g id="edge7_Node000002_Node000007" class="edge">
<title>Node2&#45;&gt;Node7</title>
<g id="a_edge7_Node000002_Node000007"><a xlink:title=" ">
<path fill="none" stroke="#63b8ff" d="M328.79,-198.73C353,-205.31 381.57,-213.09 406.81,-219.95"/>
<polygon fill="#63b8ff" stroke="#63b8ff" points="406.09,-223.38 416.66,-222.63 407.93,-216.63 406.09,-223.38"/>
</a>
</g>
</g>
<!-- Node3&#45;&gt;Node4 -->
<g id="edge3_Node000003_Node000004" class="edge">
<title>Node3&#45;&gt;Node4</title>
<g id="a_edge3_Node000003_Node000004"><a xlink:title=" ">
<path fill="none" stroke="#63b8ff" d="M508.24,-132.16C534.75,-124.78 572.24,-114.34 604.24,-105.43"/>
<polygon fill="#63b8ff" stroke="#63b8ff" points="605.28,-108.78 613.97,-102.73 603.4,-102.03 605.28,-108.78"/>
</a>
</g>
</g>
<!-- Node5 -->
<g id="Node000005" class="node">
<title>Node5</title>
<g id="a_Node000005"><a xlink:href="namespacenetspeak_1_1regex.html#a330e12f037f1cfe62d8e2bd33d3fd1e7" target="_top" xlink:title="Returns a new string in which all duplicate characters of the given string are removed.">
<polygon fill="white" stroke="#666666" points="738,-150.69 600,-150.69 600,-120.69 738,-120.69 738,-150.69"/>
<text text-anchor="start" x="608" y="-138.69" font-family="Helvetica,sans-Serif" font-size="10.00">netspeak::regex::without</text>
<text text-anchor="middle" x="669" y="-127.69" font-family="Helvetica,sans-Serif" font-size="10.00">_duplicates</text>
</a>
</g>
</g>
<!-- Node3&#45;&gt;Node5 -->
<g id="edge4_Node000003_Node000005" class="edge">
<title>Node3&#45;&gt;Node5</title>
<g id="a_edge4_Node000003_Node000005"><a xlink:title=" ">
<path fill="none" stroke="#63b8ff" d="M557.12,-139.12C567.95,-138.78 579.02,-138.44 589.77,-138.11"/>
<polygon fill="#63b8ff" stroke="#63b8ff" points="590.07,-141.6 599.96,-137.79 589.85,-134.6 590.07,-141.6"/>
</a>
</g>
</g>
<!-- Node3&#45;&gt;Node6 -->
<g id="edge5_Node000003_Node000006" class="edge">
<title>Node3&#45;&gt;Node6</title>
<g id="a_edge5_Node000003_Node000006"><a xlink:title=" ">
<path fill="none" stroke="#63b8ff" d="M518.02,-151.22C538.95,-155.75 564.62,-161.31 588.78,-166.53"/>
<polygon fill="#63b8ff" stroke="#63b8ff" points="588.14,-169.98 598.66,-168.67 589.62,-163.14 588.14,-169.98"/>
</a>
</g>
</g>
<!-- Node6&#45;&gt;Node6 -->
<g id="edge6_Node000006_Node000006" class="edge">
<title>Node6&#45;&gt;Node6</title>
<g id="a_edge6_Node000006_Node000006"><a xlink:title=" ">
<path fill="none" stroke="#63b8ff" d="M634.55,-198.96C626.89,-208.09 638.38,-216.69 669,-216.69 687.18,-216.69 698.62,-213.66 703.31,-209.28"/>
<polygon fill="#63b8ff" stroke="#63b8ff" points="706.81,-209.01 703.45,-198.96 699.81,-208.91 706.81,-209.01"/>
</a>
</g>
</g>
<!-- Node8 -->
<g id="Node000008" class="node">
<title>Node8</title>
<g id="a_Node000008"><a xlink:href="structnetspeak_1_1regex_1_1RegexUnit.html#a3b20469cd1d0f8e97d6d6ce6626fd5a5" target="_top" xlink:title=" ">
<polygon fill="white" stroke="#666666" points="745,-264.69 593,-264.69 593,-234.69 745,-234.69 745,-264.69"/>
<text text-anchor="start" x="601" y="-252.69" font-family="Helvetica,sans-Serif" font-size="10.00">netspeak::regex::RegexUnit</text>
<text text-anchor="middle" x="669" y="-241.69" font-family="Helvetica,sans-Serif" font-size="10.00">::qmark</text>
</a>
</g>
</g>
<!-- Node7&#45;&gt;Node8 -->
<g id="edge8_Node000007_Node000008" class="edge">
<title>Node7&#45;&gt;Node8</title>
<g id="a_edge8_Node000007_Node000008"><a xlink:title=" ">
<path fill="none" stroke="#63b8ff" d="M542.67,-241.93C555.61,-242.73 569.29,-243.58 582.67,-244.41"/>
<polygon fill="#63b8ff" stroke="#63b8ff" points="582.63,-247.91 592.83,-245.04 583.06,-240.93 582.63,-247.91"/>
</a>
</g>
</g>
<!-- Node12 -->
<g id="Node000012" class="node">
<title>Node12</title>
<g id="a_Node000012"><a xlink:href="classnetspeak_1_1regex_1_1RegexQuery.html#a74390b07cc488876e518d35979f3f814" target="_top" xlink:title="Create a new RegexQuery that rejects all words.">
<polygon fill="white" stroke="#666666" points="553.5,-106.69 392.5,-106.69 392.5,-76.69 553.5,-76.69 553.5,-106.69"/>
<text text-anchor="start" x="400.5" y="-94.69" font-family="Helvetica,sans-Serif" font-size="10.00">netspeak::regex::RegexQuery</text>
<text text-anchor="middle" x="473" y="-83.69" font-family="Helvetica,sans-Serif" font-size="10.00">::create_reject_all</text>
</a>
</g>
</g>
<!-- Node11&#45;&gt;Node12 -->
<g id="edge14_Node000011_Node000012" class="edge">
<title>Node11&#45;&gt;Node12</title>
<g id="a_edge14_Node000011_Node000012"><a xlink:title=" ">
<path fill="none" stroke="#63b8ff" d="M341.26,-120.67C358.25,-116.9 376.62,-112.83 394.06,-108.96"/>
<polygon fill="#63b8ff" stroke="#63b8ff" points="395.21,-112.29 404.21,-106.71 393.69,-105.46 395.21,-112.29"/>
</a>
</g>
</g>
<!-- Node12&#45;&gt;Node4 -->
<g id="edge15_Node000012_Node000004" class="edge">
<title>Node12&#45;&gt;Node4</title>
<g id="a_edge15_Node000012_Node000004"><a xlink:title=" ">
<path fill="none" stroke="#63b8ff" d="M553.75,-90.04C563.37,-89.84 573.22,-89.64 582.91,-89.44"/>
<polygon fill="#63b8ff" stroke="#63b8ff" points="583.01,-92.94 592.93,-89.23 582.86,-85.94 583.01,-92.94"/>
</a>
</g>
</g>
</g>
</svg>
