<?xml version="1.0" encoding="UTF-8" standalone="no"?>
<!DOCTYPE svg PUBLIC "-//W3C//DTD SVG 1.1//EN"
 "http://www.w3.org/Graphics/SVG/1.1/DTD/svg11.dtd">
<!-- Generated by graphviz version 2.43.0 (0)
 -->
<!-- Title: netspeak::Configuration::get_bool Pages: 1 -->
<svg width="813pt" height="95pt"
 viewBox="0.00 0.00 813.00 94.50" xmlns="http://www.w3.org/2000/svg" xmlns:xlink="http://www.w3.org/1999/xlink">
<g id="graph0" class="graph" transform="scale(1 1) rotate(0) translate(4 90.5)">
<title>netspeak::Configuration::get_bool</title>
<!-- Node1 -->
<g id="Node000001" class="node">
<title>Node1</title>
<g id="a_Node000001"><a xlink:title=" ">
<polygon fill="#999999" stroke="#666666" points="133,-45.5 0,-45.5 0,-15.5 133,-15.5 133,-45.5"/>
<text text-anchor="start" x="8" y="-33.5" font-family="Helvetica,sans-Serif" font-size="10.00">netspeak::Configuration</text>
<text text-anchor="middle" x="66.5" y="-22.5" font-family="Helvetica,sans-Serif" font-size="10.00">::get_bool</text>
</a>
</g>
</g>
<!-- Node2 -->
<g id="Node000002" class="node">
<title>Node2</title>
<g id="a_Node000002"><a xlink:href="classnetspeak_1_1Configuration.html#aed2594665f7f0529186a7f50b318ef54" target="_top" xlink:title=" ">
<polygon fill="white" stroke="#666666" points="302,-45.5 169,-45.5 169,-15.5 302,-15.5 302,-45.5"/>
<text text-anchor="start" x="177" y="-33.5" font-family="Helvetica,sans-Serif" font-size="10.00">netspeak::Configuration</text>
<text text-anchor="middle" x="235.5" y="-22.5" font-family="Helvetica,sans-Serif" font-size="10.00">::get_optional_bool</text>
</a>
</g>
</g>
<!-- Node1&#45;&gt;Node2 -->
<g id="edge1_Node000001_Node000002" class="edge">
<title>Node1&#45;&gt;Node2</title>
<g id="a_edge1_Node000001_Node000002"><a xlink:title=" ">
<path fill="none" stroke="#63b8ff" d="M133.02,-30.5C141.5,-30.5 150.23,-30.5 158.85,-30.5"/>
<polygon fill="#63b8ff" stroke="#63b8ff" points="158.89,-34 168.89,-30.5 158.89,-27 158.89,-34"/>
</a>
</g>
</g>
<!-- Node3 -->
<g id="Node000003" class="node">
<title>Node3</title>
<g id="a_Node000003"><a xlink:href="classnetspeak_1_1Configuration.html#aff9301d99209481a48c20c33a15de752" target="_top" xlink:title=" ">
<polygon fill="white" stroke="#666666" points="471,-67.5 338,-67.5 338,-37.5 471,-37.5 471,-67.5"/>
<text text-anchor="start" x="346" y="-55.5" font-family="Helvetica,sans-Serif" font-size="10.00">netspeak::Configuration</text>
<text text-anchor="middle" x="404.5" y="-44.5" font-family="Helvetica,sans-Serif" font-size="10.00">::get_optional</text>
</a>
</g>
</g>
<!-- Node2&#45;&gt;Node3 -->
<g id="edge2_Node000002_Node000003" class="edge">
<title>Node2&#45;&gt;Node3</title>
<g id="a_edge2_Node000002_Node000003"><a xlink:title=" ">
<path fill="none" stroke="#63b8ff" d="M302.02,-39.13C310.5,-40.25 319.23,-41.4 327.85,-42.53"/>
<polygon fill="#63b8ff" stroke="#63b8ff" points="327.52,-46.02 337.89,-43.86 328.43,-39.08 327.52,-46.02"/>
</a>
</g>
</g>
<!-- Node7 -->
<g id="Node000007" class="node">
<title>Node7</title>
<g id="a_Node000007"><a xlink:href="namespacenetspeak.html#a566ee443ef0d78969a1b1376d1937067" target="_top" xlink:title=" ">
<polygon fill="white" stroke="#666666" points="465,-19 344,-19 344,0 465,0 465,-19"/>
<text text-anchor="middle" x="404.5" y="-7" font-family="Helvetica,sans-Serif" font-size="10.00">netspeak::parse_bool</text>
</a>
</g>
</g>
<!-- Node2&#45;&gt;Node7 -->
<g id="edge7_Node000002_Node000007" class="edge">
<title>Node2&#45;&gt;Node7</title>
<g id="a_edge7_Node000002_Node000007"><a xlink:title=" ">
<path fill="none" stroke="#63b8ff" d="M302.02,-22.26C312.48,-20.95 323.33,-19.58 333.88,-18.25"/>
<polygon fill="#63b8ff" stroke="#63b8ff" points="334.39,-21.72 343.88,-17 333.52,-14.77 334.39,-21.72"/>
</a>
</g>
</g>
<!-- Node4 -->
<g id="Node000004" class="node">
<title>Node4</title>
<g id="a_Node000004"><a xlink:href="classnetspeak_1_1util_1_1Config.html#ab380dc04a08e5c65adfdc3b13aa27fad" target="_top" xlink:title=" ">
<polygon fill="white" stroke="#666666" points="805,-86.5 685,-86.5 685,-56.5 805,-56.5 805,-86.5"/>
<text text-anchor="start" x="693" y="-74.5" font-family="Helvetica,sans-Serif" font-size="10.00">netspeak::util::Config</text>
<text text-anchor="middle" x="745" y="-63.5" font-family="Helvetica,sans-Serif" font-size="10.00">::contains</text>
</a>
</g>
</g>
<!-- Node3&#45;&gt;Node4 -->
<g id="edge3_Node000003_Node000004" class="edge">
<title>Node3&#45;&gt;Node4</title>
<g id="a_edge3_Node000003_Node000004"><a xlink:title=" ">
<path fill="none" stroke="#63b8ff" d="M471.17,-56.19C529.69,-59.47 615.06,-64.26 674.67,-67.61"/>
<polygon fill="#63b8ff" stroke="#63b8ff" points="674.57,-71.11 684.75,-68.17 674.96,-64.12 674.57,-71.11"/>
</a>
</g>
</g>
<!-- Node5 -->
<g id="Node000005" class="node">
<title>Node5</title>
<g id="a_Node000005"><a xlink:href="classnetspeak_1_1util_1_1Config.html#a3664f30f248a879b1940df27a37f4f81" target="_top" xlink:title="Returns the value of the given key or the given default value if the key is not part of the config.">
<polygon fill="white" stroke="#666666" points="649,-43 507,-43 507,-24 649,-24 649,-43"/>
<text text-anchor="middle" x="578" y="-31" font-family="Helvetica,sans-Serif" font-size="10.00">netspeak::util::Config::get</text>
</a>
</g>
</g>
<!-- Node3&#45;&gt;Node5 -->
<g id="edge4_Node000003_Node000005" class="edge">
<title>Node3&#45;&gt;Node5</title>
<g id="a_edge4_Node000003_Node000005"><a xlink:title=" ">
<path fill="none" stroke="#63b8ff" d="M471.32,-45.21C479.67,-44.28 488.28,-43.33 496.83,-42.38"/>
<polygon fill="#63b8ff" stroke="#63b8ff" points="497.25,-45.86 506.8,-41.28 496.48,-38.9 497.25,-45.86"/>
</a>
</g>
</g>
<!-- Node5&#45;&gt;Node4 -->
<g id="edge5_Node000005_Node000004" class="edge">
<title>Node5&#45;&gt;Node4</title>
<g id="a_edge5_Node000005_Node000004"><a xlink:title=" ">
<path fill="none" stroke="#63b8ff" d="M620.64,-43.09C637.15,-46.89 656.57,-51.37 675.07,-55.62"/>
<polygon fill="#63b8ff" stroke="#63b8ff" points="674.4,-59.06 684.93,-57.9 675.97,-52.24 674.4,-59.06"/>
</a>
</g>
</g>
<!-- Node6 -->
<g id="Node000006" class="node">
<title>Node6</title>
<g id="a_Node000006"><a xlink:href="namespacenetspeak_1_1util.html#a4c91ad572508b4021399ac7dddff574d" target="_top" xlink:title=" ">
<polygon fill="white" stroke="#666666" points="801.5,-38 688.5,-38 688.5,-19 801.5,-19 801.5,-38"/>
<text text-anchor="middle" x="745" y="-26" font-family="Helvetica,sans-Serif" font-size="10.00">netspeak::util::hash</text>
</a>
</g>
</g>
<!-- Node5&#45;&gt;Node6 -->
<g id="edge6_Node000005_Node000006" class="edge">
<title>Node5&#45;&gt;Node6</title>
<g id="a_edge6_Node000005_Node000006"><a xlink:title=" ">
<path fill="none" stroke="#63b8ff" d="M649.45,-31.37C659.04,-31.07 668.84,-30.78 678.34,-30.49"/>
<polygon fill="#63b8ff" stroke="#63b8ff" points="678.61,-33.98 688.5,-30.18 678.39,-26.99 678.61,-33.98"/>
</a>
</g>
</g>
</g>
</svg>
