<?xml version="1.0" encoding="UTF-8" standalone="no"?>
<!DOCTYPE svg PUBLIC "-//W3C//DTD SVG 1.1//EN"
 "http://www.w3.org/Graphics/SVG/1.1/DTD/svg11.dtd">
<!-- Generated by graphviz version 2.43.0 (0)
 -->
<!-- Title: netspeak::model::Words::end Pages: 1 -->
<svg width="545pt" height="86pt"
 viewBox="0.00 0.00 545.00 86.00" xmlns="http://www.w3.org/2000/svg" xmlns:xlink="http://www.w3.org/1999/xlink">
<g id="graph0" class="graph" transform="scale(1 1) rotate(0) translate(4 82)">
<title>netspeak::model::Words::end</title>
<!-- Node1 -->
<g id="Node000001" class="node">
<title>Node1</title>
<g id="a_Node000001"><a xlink:title=" ">
<polygon fill="#999999" stroke="#666666" points="537,-48.5 379,-48.5 379,-29.5 537,-29.5 537,-48.5"/>
<text text-anchor="middle" x="458" y="-36.5" font-family="Helvetica,sans-Serif" font-size="10.00">netspeak::model::Words::end</text>
</a>
</g>
</g>
<!-- Node2 -->
<g id="Node000002" class="node">
<title>Node2</title>
<g id="a_Node000002"><a xlink:href="classnetspeak_1_1model_1_1Words.html#a9a31d31969ad367049fb5cc69a673cbb" target="_top" xlink:title=" ">
<polygon fill="white" stroke="#666666" points="336,-78 202,-78 202,-48 336,-48 336,-78"/>
<text text-anchor="start" x="210" y="-66" font-family="Helvetica,sans-Serif" font-size="10.00">netspeak::model::Words</text>
<text text-anchor="middle" x="269" y="-55" font-family="Helvetica,sans-Serif" font-size="10.00">::is_subsequence_of</text>
</a>
</g>
</g>
<!-- Node1&#45;&gt;Node2 -->
<g id="edge1_Node000001_Node000002" class="edge">
<title>Node1&#45;&gt;Node2</title>
<g id="a_edge1_Node000001_Node000002"><a xlink:title=" ">
<path fill="none" stroke="#63b8ff" d="M372.63,-49.83C360.42,-51.4 348,-52.99 336.21,-54.5"/>
<polygon fill="#63b8ff" stroke="#63b8ff" points="373.35,-53.26 382.82,-48.52 372.46,-46.32 373.35,-53.26"/>
</a>
</g>
</g>
<!-- Node3 -->
<g id="Node000003" class="node">
<title>Node3</title>
<g id="a_Node000003"><a xlink:href="classnetspeak_1_1PhraseFileParser.html#abce49e07ba62c82ddf7a63722ef80208" target="_top" xlink:title=" ">
<polygon fill="white" stroke="#666666" points="343,-30 195,-30 195,0 343,0 343,-30"/>
<text text-anchor="start" x="203" y="-18" font-family="Helvetica,sans-Serif" font-size="10.00">netspeak::PhraseFileParser</text>
<text text-anchor="middle" x="269" y="-7" font-family="Helvetica,sans-Serif" font-size="10.00">::write</text>
</a>
</g>
</g>
<!-- Node1&#45;&gt;Node3 -->
<g id="edge2_Node000001_Node000003" class="edge">
<title>Node1&#45;&gt;Node3</title>
<g id="a_edge2_Node000001_Node000003"><a xlink:title=" ">
<path fill="none" stroke="#63b8ff" d="M372.64,-28.17C362.81,-26.91 352.84,-25.63 343.17,-24.39"/>
<polygon fill="#63b8ff" stroke="#63b8ff" points="372.46,-31.68 382.82,-29.48 373.35,-24.74 372.46,-31.68"/>
</a>
</g>
</g>
<!-- Node4 -->
<g id="Node000004" class="node">
<title>Node4</title>
<g id="a_Node000004"><a xlink:href="namespacenetspeak.html#ada202c21bedf32e697fdfb62ad980688" target="_top" xlink:title=" ">
<polygon fill="white" stroke="#666666" points="159,-24.5 0,-24.5 0,-5.5 159,-5.5 159,-24.5"/>
<text text-anchor="middle" x="79.5" y="-12.5" font-family="Helvetica,sans-Serif" font-size="10.00">netspeak::BuildPhraseCorpus</text>
</a>
</g>
</g>
<!-- Node3&#45;&gt;Node4 -->
<g id="edge3_Node000003_Node000004" class="edge">
<title>Node3&#45;&gt;Node4</title>
<g id="a_edge3_Node000003_Node000004"><a xlink:title=" ">
<path fill="none" stroke="#63b8ff" d="M184.71,-15C176.24,-15 167.65,-15 159.22,-15"/>
<polygon fill="#63b8ff" stroke="#63b8ff" points="184.97,-18.5 194.97,-15 184.97,-11.5 184.97,-18.5"/>
</a>
</g>
</g>
</g>
</svg>
