<?xml version="1.0" encoding="UTF-8" standalone="no"?>
<!DOCTYPE svg PUBLIC "-//W3C//DTD SVG 1.1//EN"
 "http://www.w3.org/Graphics/SVG/1.1/DTD/svg11.dtd">
<!-- Generated by graphviz version 2.43.0 (0)
 -->
<!-- Title: netspeak::invertedindex::Indexer&lt; T &gt; Pages: 1 -->
<svg width="137pt" height="351pt"
 viewBox="0.00 0.00 137.00 351.00" xmlns="http://www.w3.org/2000/svg" xmlns:xlink="http://www.w3.org/1999/xlink">
<g id="graph0" class="graph" transform="scale(1 1) rotate(0) translate(4 347)">
<title>netspeak::invertedindex::Indexer&lt; T &gt;</title>
<!-- Node1 -->
<g id="Node000001" class="node">
<title>Node1</title>
<g id="a_Node000001"><a xlink:title=" ">
<polygon fill="#999999" stroke="transparent" points="129,-191 0,-191 0,0 129,0 129,-191"/>
<text text-anchor="start" x="5.5" y="-178.5" font-family="Helvetica,sans-Serif" font-size="10.00">netspeak::invertedindex</text>
<text text-anchor="start" x="29.5" y="-167.5" font-family="Helvetica,sans-Serif" font-size="10.00">::Indexer&lt; T &gt;</text>
<text text-anchor="start" x="8.5" y="-152.5" font-family="Helvetica,sans-Serif" font-size="10.00">&#45;</text>
<text text-anchor="start" x="20.5" y="-152.5" font-family="Helvetica,sans-Serif" font-size="10.00">strategy_</text>
<text text-anchor="start" x="6" y="-137.5" font-family="Helvetica,sans-Serif" font-size="10.00">+</text>
<text text-anchor="start" x="20.5" y="-137.5" font-family="Helvetica,sans-Serif" font-size="10.00">Indexer()</text>
<text text-anchor="start" x="6" y="-122.5" font-family="Helvetica,sans-Serif" font-size="10.00">+</text>
<text text-anchor="start" x="20.5" y="-122.5" font-family="Helvetica,sans-Serif" font-size="10.00">~Indexer()</text>
<text text-anchor="start" x="6" y="-107.5" font-family="Helvetica,sans-Serif" font-size="10.00">+</text>
<text text-anchor="start" x="20.5" y="-107.5" font-family="Helvetica,sans-Serif" font-size="10.00">index()</text>
<text text-anchor="start" x="6" y="-92.5" font-family="Helvetica,sans-Serif" font-size="10.00">+</text>
<text text-anchor="start" x="20.5" y="-92.5" font-family="Helvetica,sans-Serif" font-size="10.00">insert()</text>
<text text-anchor="start" x="6" y="-77.5" font-family="Helvetica,sans-Serif" font-size="10.00">+</text>
<text text-anchor="start" x="20.5" y="-77.5" font-family="Helvetica,sans-Serif" font-size="10.00">insert()</text>
<text text-anchor="start" x="6" y="-62.5" font-family="Helvetica,sans-Serif" font-size="10.00">+</text>
<text text-anchor="start" x="20.5" y="-62.5" font-family="Helvetica,sans-Serif" font-size="10.00">insert()</text>
<text text-anchor="start" x="6" y="-47.5" font-family="Helvetica,sans-Serif" font-size="10.00">+</text>
<text text-anchor="start" x="20.5" y="-47.5" font-family="Helvetica,sans-Serif" font-size="10.00">set_expected_record</text>
<text text-anchor="start" x="20.5" y="-36.5" font-family="Helvetica,sans-Serif" font-size="10.00">_count()</text>
<text text-anchor="start" x="8.5" y="-21.5" font-family="Helvetica,sans-Serif" font-size="10.00">&#45;</text>
<text text-anchor="start" x="20.5" y="-21.5" font-family="Helvetica,sans-Serif" font-size="10.00">assert_config()</text>
<text text-anchor="start" x="8.5" y="-6.5" font-family="Helvetica,sans-Serif" font-size="10.00">&#45;</text>
<text text-anchor="start" x="20.5" y="-6.5" font-family="Helvetica,sans-Serif" font-size="10.00">assert_record()</text>
<polygon fill="#666666" stroke="#666666" points="0.5,-162.5 0.5,-162.5 129.5,-162.5 129.5,-162.5 0.5,-162.5"/>
<polygon fill="#666666" stroke="#666666" points="0.5,-147.5 0.5,-147.5 18.5,-147.5 18.5,-147.5 0.5,-147.5"/>
<polygon fill="#666666" stroke="#666666" points="18.5,-147.5 18.5,-147.5 129.5,-147.5 129.5,-147.5 18.5,-147.5"/>
<polygon fill="none" stroke="#666666" points="0,0 0,-191 129,-191 129,0 0,0"/>
</a>
</g>
</g>
<!-- Node2 -->
<g id="Node000002" class="node">
<title>Node2</title>
<g id="a_Node000002"><a xlink:href="classnetspeak_1_1invertedindex_1_1RawIndexer.html" target="_top" xlink:title=" ">
<polygon fill="white" stroke="transparent" points="129,-343 0,-343 0,-227 129,-227 129,-343"/>
<text text-anchor="start" x="5.5" y="-331" font-family="Helvetica,sans-Serif" font-size="10.00">netspeak::invertedindex</text>
<text text-anchor="start" x="33" y="-320" font-family="Helvetica,sans-Serif" font-size="10.00">::RawIndexer</text>
<text text-anchor="start" x="63" y="-305" font-family="Helvetica,sans-Serif" font-size="10.00"> </text>
<text text-anchor="start" x="6" y="-290" font-family="Helvetica,sans-Serif" font-size="10.00">+</text>
<text text-anchor="start" x="20.5" y="-290" font-family="Helvetica,sans-Serif" font-size="10.00">~RawIndexer()</text>
<text text-anchor="start" x="6" y="-275" font-family="Helvetica,sans-Serif" font-size="10.00">+</text>
<text text-anchor="start" x="20.5" y="-275" font-family="Helvetica,sans-Serif" font-size="10.00">index()</text>
<text text-anchor="start" x="6" y="-260" font-family="Helvetica,sans-Serif" font-size="10.00">+</text>
<text text-anchor="start" x="20.5" y="-260" font-family="Helvetica,sans-Serif" font-size="10.00">insert()</text>
<text text-anchor="start" x="6" y="-245" font-family="Helvetica,sans-Serif" font-size="10.00">+</text>
<text text-anchor="start" x="20.5" y="-245" font-family="Helvetica,sans-Serif" font-size="10.00">set_expected_record</text>
<text text-anchor="start" x="20.5" y="-234" font-family="Helvetica,sans-Serif" font-size="10.00">_count()</text>
<polygon fill="#666666" stroke="#666666" points="0.5,-315 0.5,-315 129.5,-315 129.5,-315 0.5,-315"/>
<polygon fill="#666666" stroke="#666666" points="0.5,-300 0.5,-300 129.5,-300 129.5,-300 0.5,-300"/>
<polygon fill="none" stroke="#666666" points="0,-227 0,-343 129,-343 129,-227 0,-227"/>
</a>
</g>
</g>
<!-- Node2&#45;&gt;Node1 -->
<g id="edge1_Node000001_Node000002" class="edge">
<title>Node2&#45;&gt;Node1</title>
<g id="a_edge1_Node000001_Node000002"><a xlink:title=" ">
<path fill="none" stroke="#63b8ff" d="M64.5,-216.98C64.5,-208.64 64.5,-199.98 64.5,-191.32"/>
<polygon fill="none" stroke="#63b8ff" points="61,-216.98 64.5,-226.98 68,-216.98 61,-216.98"/>
</a>
</g>
</g>
</g>
</svg>
