<?xml version="1.0" encoding="UTF-8" standalone="no"?>
<!DOCTYPE svg PUBLIC "-//W3C//DTD SVG 1.1//EN"
 "http://www.w3.org/Graphics/SVG/1.1/DTD/svg11.dtd">
<!-- Generated by graphviz version 2.43.0 (0)
 -->
<!-- Title: netspeak::util::StringIdMap::get_c_str Pages: 1 -->
<svg width="461pt" height="182pt"
 viewBox="0.00 0.00 461.00 182.00" xmlns="http://www.w3.org/2000/svg" xmlns:xlink="http://www.w3.org/1999/xlink">
<g id="graph0" class="graph" transform="scale(1 1) rotate(0) translate(4 178)">
<title>netspeak::util::StringIdMap::get_c_str</title>
<!-- Node1 -->
<g id="Node000001" class="node">
<title>Node1</title>
<g id="a_Node000001"><a xlink:title=" ">
<polygon fill="#999999" stroke="#666666" points="453,-102 326,-102 326,-72 453,-72 453,-102"/>
<text text-anchor="start" x="334" y="-90" font-family="Helvetica,sans-Serif" font-size="10.00">netspeak::util::StringId</text>
<text text-anchor="middle" x="389.5" y="-79" font-family="Helvetica,sans-Serif" font-size="10.00">Map::get_c_str</text>
</a>
</g>
</g>
<!-- Node2 -->
<g id="Node000002" class="node">
<title>Node2</title>
<g id="a_Node000002"><a xlink:href="classnetspeak_1_1util_1_1StringIdMap.html#a1cdc7218c7acf35bd01cc38b2fa9710f" target="_top" xlink:title=" ">
<polygon fill="white" stroke="#666666" points="290,-174 163,-174 163,-144 290,-144 290,-174"/>
<text text-anchor="start" x="171" y="-162" font-family="Helvetica,sans-Serif" font-size="10.00">netspeak::util::StringId</text>
<text text-anchor="middle" x="226.5" y="-151" font-family="Helvetica,sans-Serif" font-size="10.00">Map::find_for_word</text>
</a>
</g>
</g>
<!-- Node1&#45;&gt;Node2 -->
<g id="edge1_Node000001_Node000002" class="edge">
<title>Node1&#45;&gt;Node2</title>
<g id="a_edge1_Node000001_Node000002"><a xlink:title=" ">
<path fill="none" stroke="#63b8ff" d="M350.01,-106.72C331.96,-115.71 310.06,-126.28 290,-135 283.07,-138.01 275.63,-141.04 268.39,-143.89"/>
<polygon fill="#63b8ff" stroke="#63b8ff" points="351.7,-109.78 359.07,-102.17 348.56,-103.53 351.7,-109.78"/>
</a>
</g>
</g>
<!-- Node4 -->
<g id="Node000004" class="node">
<title>Node4</title>
<g id="a_Node000004"><a xlink:href="classnetspeak_1_1util_1_1StringIdMap.html#a6dd7b3a6fd77871afdf2221405610cb0" target="_top" xlink:title=" ">
<polygon fill="white" stroke="#666666" points="290,-126 163,-126 163,-96 290,-96 290,-126"/>
<text text-anchor="start" x="171" y="-114" font-family="Helvetica,sans-Serif" font-size="10.00">netspeak::util::StringId</text>
<text text-anchor="middle" x="226.5" y="-103" font-family="Helvetica,sans-Serif" font-size="10.00">Map::get_c_str</text>
</a>
</g>
</g>
<!-- Node1&#45;&gt;Node4 -->
<g id="edge3_Node000001_Node000004" class="edge">
<title>Node1&#45;&gt;Node4</title>
<g id="a_edge3_Node000001_Node000004"><a xlink:title=" ">
<path fill="none" stroke="#63b8ff" d="M315.78,-97.84C307.19,-99.12 298.47,-100.42 290.04,-101.68"/>
<polygon fill="#63b8ff" stroke="#63b8ff" points="316.42,-101.28 325.79,-96.35 315.39,-94.36 316.42,-101.28"/>
</a>
</g>
</g>
<!-- Node5 -->
<g id="Node000005" class="node">
<title>Node5</title>
<g id="a_Node000005"><a xlink:href="classnetspeak_1_1util_1_1StringIdMap.html#a4579d9c38e561d4b838d492567ecf601" target="_top" xlink:title=" ">
<polygon fill="white" stroke="#666666" points="290,-78 163,-78 163,-48 290,-48 290,-78"/>
<text text-anchor="start" x="171" y="-66" font-family="Helvetica,sans-Serif" font-size="10.00">netspeak::util::StringId</text>
<text text-anchor="middle" x="226.5" y="-55" font-family="Helvetica,sans-Serif" font-size="10.00">Map::get_c_str</text>
</a>
</g>
</g>
<!-- Node1&#45;&gt;Node5 -->
<g id="edge4_Node000001_Node000005" class="edge">
<title>Node1&#45;&gt;Node5</title>
<g id="a_edge4_Node000001_Node000005"><a xlink:title=" ">
<path fill="none" stroke="#63b8ff" d="M315.78,-76.16C307.19,-74.88 298.47,-73.58 290.04,-72.32"/>
<polygon fill="#63b8ff" stroke="#63b8ff" points="315.39,-79.64 325.79,-77.65 316.42,-72.72 315.39,-79.64"/>
</a>
</g>
</g>
<!-- Node6 -->
<g id="Node000006" class="node">
<title>Node6</title>
<g id="a_Node000006"><a xlink:href="classnetspeak_1_1util_1_1StringIdMap.html#a70e6a75127ee463b2d1ab41af0e4a4f1" target="_top" xlink:title=" ">
<polygon fill="white" stroke="#666666" points="290,-30 163,-30 163,0 290,0 290,-30"/>
<text text-anchor="start" x="171" y="-18" font-family="Helvetica,sans-Serif" font-size="10.00">netspeak::util::StringId</text>
<text text-anchor="middle" x="226.5" y="-7" font-family="Helvetica,sans-Serif" font-size="10.00">Map::get_c_str</text>
</a>
</g>
</g>
<!-- Node1&#45;&gt;Node6 -->
<g id="edge5_Node000001_Node000006" class="edge">
<title>Node1&#45;&gt;Node6</title>
<g id="a_edge5_Node000001_Node000006"><a xlink:title=" ">
<path fill="none" stroke="#63b8ff" d="M350.01,-67.28C331.96,-58.29 310.06,-47.72 290,-39 283.07,-35.99 275.63,-32.96 268.39,-30.11"/>
<polygon fill="#63b8ff" stroke="#63b8ff" points="348.56,-70.47 359.07,-71.83 351.7,-64.22 348.56,-70.47"/>
</a>
</g>
</g>
<!-- Node3 -->
<g id="Node000003" class="node">
<title>Node3</title>
<g id="a_Node000003"><a xlink:href="classnetspeak_1_1util_1_1StringIdMap.html#a00b57c0c1b65878e038840cc4fcc931f" target="_top" xlink:title=" ">
<polygon fill="white" stroke="#666666" points="127,-174 0,-174 0,-144 127,-144 127,-174"/>
<text text-anchor="start" x="8" y="-162" font-family="Helvetica,sans-Serif" font-size="10.00">netspeak::util::StringId</text>
<text text-anchor="middle" x="63.5" y="-151" font-family="Helvetica,sans-Serif" font-size="10.00">Map::find_for_word</text>
</a>
</g>
</g>
<!-- Node2&#45;&gt;Node3 -->
<g id="edge2_Node000002_Node000003" class="edge">
<title>Node2&#45;&gt;Node3</title>
<g id="a_edge2_Node000002_Node000003"><a xlink:title=" ">
<path fill="none" stroke="#63b8ff" d="M152.78,-159C144.19,-159 135.47,-159 127.04,-159"/>
<polygon fill="#63b8ff" stroke="#63b8ff" points="152.79,-162.5 162.79,-159 152.79,-155.5 152.79,-162.5"/>
</a>
</g>
</g>
</g>
</svg>
