<?xml version="1.0" encoding="UTF-8" standalone="no"?>
<!DOCTYPE svg PUBLIC "-//W3C//DTD SVG 1.1//EN"
 "http://www.w3.org/Graphics/SVG/1.1/DTD/svg11.dtd">
<!-- Generated by graphviz version 2.43.0 (0)
 -->
<!-- Title: netspeak::value::quadruple&lt; T1, T2, T3, T4 &gt; Pages: 1 -->
<svg width="151pt" height="263pt"
 viewBox="0.00 0.00 151.00 263.00" xmlns="http://www.w3.org/2000/svg" xmlns:xlink="http://www.w3.org/1999/xlink">
<g id="graph0" class="graph" transform="scale(1 1) rotate(0) translate(4 259)">
<title>netspeak::value::quadruple&lt; T1, T2, T3, T4 &gt;</title>
<!-- Node1 -->
<g id="Node000001" class="node">
<title>Node1</title>
<g id="a_Node000001"><a xlink:title=" ">
<polygon fill="#999999" stroke="transparent" points="143,-255 0,-255 0,0 143,0 143,-255"/>
<text text-anchor="start" x="5.5" y="-242.5" font-family="Helvetica,sans-Serif" font-size="10.00">netspeak::value::quadruple</text>
<text text-anchor="start" x="27.5" y="-231.5" font-family="Helvetica,sans-Serif" font-size="10.00">&lt; T1, T2, T3, T4 &gt;</text>
<text text-anchor="start" x="21" y="-216.5" font-family="Helvetica,sans-Serif" font-size="10.00">&#45;</text>
<text text-anchor="start" x="45.5" y="-216.5" font-family="Helvetica,sans-Serif" font-size="10.00">e1_</text>
<text text-anchor="start" x="21" y="-201.5" font-family="Helvetica,sans-Serif" font-size="10.00">&#45;</text>
<text text-anchor="start" x="45.5" y="-201.5" font-family="Helvetica,sans-Serif" font-size="10.00">e2_</text>
<text text-anchor="start" x="21" y="-186.5" font-family="Helvetica,sans-Serif" font-size="10.00">&#45;</text>
<text text-anchor="start" x="45.5" y="-186.5" font-family="Helvetica,sans-Serif" font-size="10.00">e3_</text>
<text text-anchor="start" x="21" y="-171.5" font-family="Helvetica,sans-Serif" font-size="10.00">&#45;</text>
<text text-anchor="start" x="45.5" y="-171.5" font-family="Helvetica,sans-Serif" font-size="10.00">e4_</text>
<text text-anchor="start" x="18.5" y="-156.5" font-family="Helvetica,sans-Serif" font-size="10.00">+</text>
<text text-anchor="start" x="45.5" y="-156.5" font-family="Helvetica,sans-Serif" font-size="10.00">quadruple()</text>
<text text-anchor="start" x="18.5" y="-141.5" font-family="Helvetica,sans-Serif" font-size="10.00">+</text>
<text text-anchor="start" x="45.5" y="-141.5" font-family="Helvetica,sans-Serif" font-size="10.00">quadruple()</text>
<text text-anchor="start" x="18.5" y="-126.5" font-family="Helvetica,sans-Serif" font-size="10.00">+</text>
<text text-anchor="start" x="45.5" y="-126.5" font-family="Helvetica,sans-Serif" font-size="10.00">quadruple()</text>
<text text-anchor="start" x="18.5" y="-111.5" font-family="Helvetica,sans-Serif" font-size="10.00">+</text>
<text text-anchor="start" x="45.5" y="-111.5" font-family="Helvetica,sans-Serif" font-size="10.00">~quadruple()</text>
<text text-anchor="start" x="18.5" y="-96.5" font-family="Helvetica,sans-Serif" font-size="10.00">+</text>
<text text-anchor="start" x="45.5" y="-96.5" font-family="Helvetica,sans-Serif" font-size="10.00">e1()</text>
<text text-anchor="start" x="18.5" y="-81.5" font-family="Helvetica,sans-Serif" font-size="10.00">+</text>
<text text-anchor="start" x="45.5" y="-81.5" font-family="Helvetica,sans-Serif" font-size="10.00">e2()</text>
<text text-anchor="start" x="18.5" y="-66.5" font-family="Helvetica,sans-Serif" font-size="10.00">+</text>
<text text-anchor="start" x="45.5" y="-66.5" font-family="Helvetica,sans-Serif" font-size="10.00">e3()</text>
<text text-anchor="start" x="18.5" y="-51.5" font-family="Helvetica,sans-Serif" font-size="10.00">+</text>
<text text-anchor="start" x="45.5" y="-51.5" font-family="Helvetica,sans-Serif" font-size="10.00">e4()</text>
<text text-anchor="start" x="18.5" y="-36.5" font-family="Helvetica,sans-Serif" font-size="10.00">+</text>
<text text-anchor="start" x="45.5" y="-36.5" font-family="Helvetica,sans-Serif" font-size="10.00">e1()</text>
<text text-anchor="start" x="18.5" y="-21.5" font-family="Helvetica,sans-Serif" font-size="10.00">+</text>
<text text-anchor="start" x="45.5" y="-21.5" font-family="Helvetica,sans-Serif" font-size="10.00">e2()</text>
<text text-anchor="start" x="45.5" y="-6.5" font-family="Helvetica,sans-Serif" font-size="10.00">and 7 more...</text>
<polygon fill="#666666" stroke="#666666" points="0.5,-226.5 0.5,-226.5 143.5,-226.5 143.5,-226.5 0.5,-226.5"/>
<polygon fill="#666666" stroke="#666666" points="0.5,-166.5 0.5,-166.5 43.5,-166.5 43.5,-166.5 0.5,-166.5"/>
<polygon fill="#666666" stroke="#666666" points="43.5,-166.5 43.5,-166.5 143.5,-166.5 143.5,-166.5 43.5,-166.5"/>
<polygon fill="none" stroke="#666666" points="0,0 0,-255 143,-255 143,0 0,0"/>
</a>
</g>
</g>
</g>
</svg>
