<?xml version="1.0" encoding="UTF-8" standalone="no"?>
<!DOCTYPE svg PUBLIC "-//W3C//DTD SVG 1.1//EN"
 "http://www.w3.org/Graphics/SVG/1.1/DTD/svg11.dtd">
<!-- Generated by graphviz version 2.43.0 (0)
 -->
<!-- Title: netspeak::RetrievalStrategy&lt; RetrievalStrategy3Tag &gt;::search_ Pages: 1 -->
<svg width="334pt" height="64pt"
 viewBox="0.00 0.00 334.00 64.00" xmlns="http://www.w3.org/2000/svg" xmlns:xlink="http://www.w3.org/1999/xlink">
<g id="graph0" class="graph" transform="scale(1 1) rotate(0) translate(4 60)">
<title>netspeak::RetrievalStrategy&lt; RetrievalStrategy3Tag &gt;::search_</title>
<!-- Node1 -->
<g id="Node000001" class="node">
<title>Node1</title>
<g id="a_Node000001"><a xlink:title=" ">
<polygon fill="#999999" stroke="#666666" points="153,-48 0,-48 0,-7 153,-7 153,-48"/>
<text text-anchor="start" x="8" y="-36" font-family="Helvetica,sans-Serif" font-size="10.00">netspeak::RetrievalStrategy</text>
<text text-anchor="start" x="8" y="-25" font-family="Helvetica,sans-Serif" font-size="10.00">&lt; RetrievalStrategy3Tag</text>
<text text-anchor="middle" x="76.5" y="-14" font-family="Helvetica,sans-Serif" font-size="10.00"> &gt;::search_</text>
</a>
</g>
</g>
<!-- Node2 -->
<g id="Node000002" class="node">
<title>Node2</title>
<g id="a_Node000002"><a xlink:href="classnetspeak_1_1value_1_1pair.html#aa0eed395020ba5b37636746da8619982" target="_top" xlink:title=" ">
<polygon fill="white" stroke="#666666" points="326,-56 189,-56 189,-37 326,-37 326,-56"/>
<text text-anchor="middle" x="257.5" y="-44" font-family="Helvetica,sans-Serif" font-size="10.00">netspeak::value::pair::e1</text>
</a>
</g>
</g>
<!-- Node1&#45;&gt;Node2 -->
<g id="edge1_Node000001_Node000002" class="edge">
<title>Node1&#45;&gt;Node2</title>
<g id="a_edge1_Node000001_Node000002"><a xlink:title=" ">
<path fill="none" stroke="#63b8ff" d="M153.15,-35.53C161.56,-36.42 170.14,-37.33 178.58,-38.23"/>
<polygon fill="#63b8ff" stroke="#63b8ff" points="178.47,-41.74 188.79,-39.31 179.21,-34.78 178.47,-41.74"/>
</a>
</g>
</g>
<!-- Node3 -->
<g id="Node000003" class="node">
<title>Node3</title>
<g id="a_Node000003"><a xlink:href="classnetspeak_1_1value_1_1pair.html#a52d349f5f25b356c4436a983182e4b6c" target="_top" xlink:title=" ">
<polygon fill="white" stroke="#666666" points="326,-19 189,-19 189,0 326,0 326,-19"/>
<text text-anchor="middle" x="257.5" y="-7" font-family="Helvetica,sans-Serif" font-size="10.00">netspeak::value::pair::e2</text>
</a>
</g>
</g>
<!-- Node1&#45;&gt;Node3 -->
<g id="edge2_Node000001_Node000003" class="edge">
<title>Node1&#45;&gt;Node3</title>
<g id="a_edge2_Node000001_Node000003"><a xlink:title=" ">
<path fill="none" stroke="#63b8ff" d="M153.15,-19.89C161.56,-19.05 170.14,-18.18 178.58,-17.34"/>
<polygon fill="#63b8ff" stroke="#63b8ff" points="179.19,-20.79 188.79,-16.31 178.49,-13.83 179.19,-20.79"/>
</a>
</g>
</g>
</g>
</svg>
