<?xml version="1.0" encoding="UTF-8" standalone="no"?>
<!DOCTYPE svg PUBLIC "-//W3C//DTD SVG 1.1//EN"
 "http://www.w3.org/Graphics/SVG/1.1/DTD/svg11.dtd">
<!-- Generated by graphviz version 2.43.0 (0)
 -->
<!-- Title: netspeak::invertedindex::StorageReader::ReadHead Pages: 1 -->
<svg width="802pt" height="65pt"
 viewBox="0.00 0.00 802.00 64.75" xmlns="http://www.w3.org/2000/svg" xmlns:xlink="http://www.w3.org/1999/xlink">
<g id="graph0" class="graph" transform="scale(1 1) rotate(0) translate(4 60.75)">
<title>netspeak::invertedindex::StorageReader::ReadHead</title>
<!-- Node1 -->
<g id="Node000001" class="node">
<title>Node1</title>
<g id="a_Node000001"><a xlink:title=" ">
<polygon fill="#999999" stroke="#666666" points="151,-42.5 0,-42.5 0,-12.5 151,-12.5 151,-42.5"/>
<text text-anchor="start" x="8" y="-30.5" font-family="Helvetica,sans-Serif" font-size="10.00">netspeak::invertedindex</text>
<text text-anchor="middle" x="75.5" y="-19.5" font-family="Helvetica,sans-Serif" font-size="10.00">::StorageReader::ReadHead</text>
</a>
</g>
</g>
<!-- Node2 -->
<g id="Node000002" class="node">
<title>Node2</title>
<g id="a_Node000002"><a xlink:href="classnetspeak_1_1invertedindex_1_1StorageReader.html#a62ed78016173bd9e7d42832d702518a6" target="_top" xlink:title=" ">
<polygon fill="white" stroke="#666666" points="338,-42.5 187,-42.5 187,-12.5 338,-12.5 338,-42.5"/>
<text text-anchor="start" x="195" y="-30.5" font-family="Helvetica,sans-Serif" font-size="10.00">netspeak::invertedindex</text>
<text text-anchor="middle" x="262.5" y="-19.5" font-family="Helvetica,sans-Serif" font-size="10.00">::StorageReader::ReadHead</text>
</a>
</g>
</g>
<!-- Node1&#45;&gt;Node2 -->
<g id="edge1_Node000001_Node000002" class="edge">
<title>Node1&#45;&gt;Node2</title>
<g id="a_edge1_Node000001_Node000002"><a xlink:title=" ">
<path fill="none" stroke="#63b8ff" d="M151.21,-27.5C159.55,-27.5 168.1,-27.5 176.55,-27.5"/>
<polygon fill="#63b8ff" stroke="#63b8ff" points="176.81,-31 186.81,-27.5 176.81,-24 176.81,-31"/>
</a>
</g>
</g>
<!-- Node3 -->
<g id="Node000003" class="node">
<title>Node3</title>
<g id="a_Node000003"><a xlink:href="namespacenetspeak_1_1util.html#a0f64660040077bd1ae3a46941a000b07" target="_top" xlink:title=" ">
<polygon fill="white" stroke="#666666" points="489.5,-56 374.5,-56 374.5,-37 489.5,-37 489.5,-56"/>
<text text-anchor="middle" x="432" y="-44" font-family="Helvetica,sans-Serif" font-size="10.00">netspeak::util::fread</text>
</a>
</g>
</g>
<!-- Node2&#45;&gt;Node3 -->
<g id="edge2_Node000002_Node000003" class="edge">
<title>Node2&#45;&gt;Node3</title>
<g id="a_edge2_Node000002_Node000003"><a xlink:title=" ">
<path fill="none" stroke="#63b8ff" d="M338.43,-36C346.98,-36.97 355.65,-37.95 364.08,-38.91"/>
<polygon fill="#63b8ff" stroke="#63b8ff" points="363.89,-42.41 374.22,-40.06 364.68,-35.45 363.89,-42.41"/>
</a>
</g>
</g>
<!-- Node6 -->
<g id="Node000006" class="node">
<title>Node6</title>
<g id="a_Node000006"><a xlink:href="namespacenetspeak_1_1util.html#a3015ae7c69935f843a1915958d0de042" target="_top" xlink:title=" ">
<polygon fill="white" stroke="#666666" points="490,-19 374,-19 374,0 490,0 490,-19"/>
<text text-anchor="middle" x="432" y="-7" font-family="Helvetica,sans-Serif" font-size="10.00">netspeak::util::fseek</text>
</a>
</g>
</g>
<!-- Node2&#45;&gt;Node6 -->
<g id="edge6_Node000002_Node000006" class="edge">
<title>Node2&#45;&gt;Node6</title>
<g id="a_edge6_Node000002_Node000006"><a xlink:title=" ">
<path fill="none" stroke="#63b8ff" d="M338.43,-19.45C346.85,-18.54 355.4,-17.62 363.71,-16.73"/>
<polygon fill="#63b8ff" stroke="#63b8ff" points="364.15,-20.2 373.72,-15.66 363.41,-13.24 364.15,-20.2"/>
</a>
</g>
</g>
<!-- Node4 -->
<g id="Node000004" class="node">
<title>Node4</title>
<g id="a_Node000004"><a xlink:href="namespacenetspeak_1_1util.html#a4c91ad572508b4021399ac7dddff574d" target="_top" xlink:title=" ">
<polygon fill="white" stroke="#666666" points="794,-38 681,-38 681,-19 794,-19 794,-38"/>
<text text-anchor="middle" x="737.5" y="-26" font-family="Helvetica,sans-Serif" font-size="10.00">netspeak::util::hash</text>
</a>
</g>
</g>
<!-- Node3&#45;&gt;Node4 -->
<g id="edge3_Node000003_Node000004" class="edge">
<title>Node3&#45;&gt;Node4</title>
<g id="a_edge3_Node000003_Node000004"><a xlink:title=" ">
<path fill="none" stroke="#63b8ff" d="M489.93,-52.91C532.75,-56.57 592.78,-59.23 645,-52.5 662.67,-50.22 681.8,-45.56 697.97,-40.95"/>
<polygon fill="#63b8ff" stroke="#63b8ff" points="699.02,-44.29 707.62,-38.11 697.04,-37.58 699.02,-44.29"/>
</a>
</g>
</g>
<!-- Node5 -->
<g id="Node000005" class="node">
<title>Node5</title>
<g id="a_Node000005"><a xlink:href="namespacenetspeak_1_1util.html#af94d48fda5f335ddcb461a8237079866" target="_top" xlink:title=" ">
<polygon fill="white" stroke="#666666" points="645,-43.5 526,-43.5 526,-13.5 645,-13.5 645,-43.5"/>
<text text-anchor="start" x="534" y="-31.5" font-family="Helvetica,sans-Serif" font-size="10.00">netspeak::util::signal</text>
<text text-anchor="middle" x="585.5" y="-20.5" font-family="Helvetica,sans-Serif" font-size="10.00">_error</text>
</a>
</g>
</g>
<!-- Node3&#45;&gt;Node5 -->
<g id="edge4_Node000003_Node000005" class="edge">
<title>Node3&#45;&gt;Node5</title>
<g id="a_edge4_Node000003_Node000005"><a xlink:title=" ">
<path fill="none" stroke="#63b8ff" d="M489.84,-39.75C498.29,-38.74 507.08,-37.7 515.74,-36.67"/>
<polygon fill="#63b8ff" stroke="#63b8ff" points="516.3,-40.13 525.82,-35.47 515.48,-33.18 516.3,-40.13"/>
</a>
</g>
</g>
<!-- Node5&#45;&gt;Node4 -->
<g id="edge5_Node000005_Node000004" class="edge">
<title>Node5&#45;&gt;Node4</title>
<g id="a_edge5_Node000005_Node000004"><a xlink:title=" ">
<path fill="none" stroke="#63b8ff" d="M645.35,-28.5C653.64,-28.5 662.2,-28.5 670.61,-28.5"/>
<polygon fill="#63b8ff" stroke="#63b8ff" points="670.76,-32 680.76,-28.5 670.76,-25 670.76,-32"/>
</a>
</g>
</g>
<!-- Node6&#45;&gt;Node4 -->
<g id="edge7_Node000006_Node000004" class="edge">
<title>Node6&#45;&gt;Node4</title>
<g id="a_edge7_Node000006_Node000004"><a xlink:title=" ">
<path fill="none" stroke="#63b8ff" d="M490.38,-3.47C533.17,-0.1 592.97,2.21 645,-4.5 662.67,-6.78 681.8,-11.44 697.97,-16.05"/>
<polygon fill="#63b8ff" stroke="#63b8ff" points="697.04,-19.42 707.62,-18.89 699.02,-12.71 697.04,-19.42"/>
</a>
</g>
</g>
<!-- Node6&#45;&gt;Node5 -->
<g id="edge8_Node000006_Node000005" class="edge">
<title>Node6&#45;&gt;Node5</title>
<g id="a_edge8_Node000006_Node000005"><a xlink:title=" ">
<path fill="none" stroke="#63b8ff" d="M490.28,-16.68C498.65,-17.73 507.34,-18.82 515.91,-19.9"/>
<polygon fill="#63b8ff" stroke="#63b8ff" points="515.53,-23.38 525.88,-21.15 516.4,-16.43 515.53,-23.38"/>
</a>
</g>
</g>
</g>
</svg>
