<?xml version="1.0" encoding="UTF-8" standalone="no"?>
<!DOCTYPE svg PUBLIC "-//W3C//DTD SVG 1.1//EN"
 "http://www.w3.org/Graphics/SVG/1.1/DTD/svg11.dtd">
<!-- Generated by graphviz version 2.43.0 (0)
 -->
<!-- Title: netspeak::invertedindex::RawPostlist::write Pages: 1 -->
<svg width="600pt" height="59pt"
 viewBox="0.00 0.00 600.00 59.00" xmlns="http://www.w3.org/2000/svg" xmlns:xlink="http://www.w3.org/1999/xlink">
<g id="graph0" class="graph" transform="scale(1 1) rotate(0) translate(4 55)">
<title>netspeak::invertedindex::RawPostlist::write</title>
<!-- Node1 -->
<g id="Node000001" class="node">
<title>Node1</title>
<g id="a_Node000001"><a xlink:title=" ">
<polygon fill="#999999" stroke="#666666" points="135,-51 0,-51 0,-21 135,-21 135,-51"/>
<text text-anchor="start" x="8" y="-39" font-family="Helvetica,sans-Serif" font-size="10.00">netspeak::invertedindex</text>
<text text-anchor="middle" x="67.5" y="-28" font-family="Helvetica,sans-Serif" font-size="10.00">::RawPostlist::write</text>
</a>
</g>
</g>
<!-- Node2 -->
<g id="Node000002" class="node">
<title>Node2</title>
<g id="a_Node000002"><a xlink:href="namespacenetspeak_1_1util.html#a33fbb28caf0f5be34cbce2f84faecb87" target="_top" xlink:title=" ">
<polygon fill="white" stroke="#666666" points="288,-45.5 171,-45.5 171,-26.5 288,-26.5 288,-45.5"/>
<text text-anchor="middle" x="229.5" y="-33.5" font-family="Helvetica,sans-Serif" font-size="10.00">netspeak::util::fwrite</text>
</a>
</g>
</g>
<!-- Node1&#45;&gt;Node2 -->
<g id="edge1_Node000001_Node000002" class="edge">
<title>Node1&#45;&gt;Node2</title>
<g id="a_edge1_Node000001_Node000002"><a xlink:title=" ">
<path fill="none" stroke="#63b8ff" d="M135.43,-36C143.83,-36 152.43,-36 160.84,-36"/>
<polygon fill="#63b8ff" stroke="#63b8ff" points="160.98,-39.5 170.98,-36 160.98,-32.5 160.98,-39.5"/>
</a>
</g>
</g>
<!-- Node3 -->
<g id="Node000003" class="node">
<title>Node3</title>
<g id="a_Node000003"><a xlink:href="namespacenetspeak_1_1util.html#a4c91ad572508b4021399ac7dddff574d" target="_top" xlink:title=" ">
<polygon fill="white" stroke="#666666" points="592,-45.5 479,-45.5 479,-26.5 592,-26.5 592,-45.5"/>
<text text-anchor="middle" x="535.5" y="-33.5" font-family="Helvetica,sans-Serif" font-size="10.00">netspeak::util::hash</text>
</a>
</g>
</g>
<!-- Node2&#45;&gt;Node3 -->
<g id="edge2_Node000002_Node000003" class="edge">
<title>Node2&#45;&gt;Node3</title>
<g id="a_edge2_Node000002_Node000003"><a xlink:title=" ">
<path fill="none" stroke="#63b8ff" d="M288.35,-38.15C300.14,-38.5 312.47,-38.82 324,-39 376.88,-39.85 390.12,-39.87 443,-39 451.34,-38.86 460.1,-38.66 468.77,-38.41"/>
<polygon fill="#63b8ff" stroke="#63b8ff" points="468.97,-41.91 478.86,-38.12 468.76,-34.91 468.97,-41.91"/>
</a>
</g>
</g>
<!-- Node4 -->
<g id="Node000004" class="node">
<title>Node4</title>
<g id="a_Node000004"><a xlink:href="namespacenetspeak_1_1util.html#af94d48fda5f335ddcb461a8237079866" target="_top" xlink:title=" ">
<polygon fill="white" stroke="#666666" points="443,-30 324,-30 324,0 443,0 443,-30"/>
<text text-anchor="start" x="332" y="-18" font-family="Helvetica,sans-Serif" font-size="10.00">netspeak::util::signal</text>
<text text-anchor="middle" x="383.5" y="-7" font-family="Helvetica,sans-Serif" font-size="10.00">_error</text>
</a>
</g>
</g>
<!-- Node2&#45;&gt;Node4 -->
<g id="edge3_Node000002_Node000004" class="edge">
<title>Node2&#45;&gt;Node4</title>
<g id="a_edge3_Node000002_Node000004"><a xlink:title=" ">
<path fill="none" stroke="#63b8ff" d="M288.4,-28C296.63,-26.86 305.16,-25.68 313.58,-24.52"/>
<polygon fill="#63b8ff" stroke="#63b8ff" points="314.33,-27.95 323.75,-23.12 313.37,-21.02 314.33,-27.95"/>
</a>
</g>
</g>
<!-- Node4&#45;&gt;Node3 -->
<g id="edge4_Node000004_Node000003" class="edge">
<title>Node4&#45;&gt;Node3</title>
<g id="a_edge4_Node000004_Node000003"><a xlink:title=" ">
<path fill="none" stroke="#63b8ff" d="M443.35,-23.24C451.64,-24.4 460.2,-25.6 468.61,-26.78"/>
<polygon fill="#63b8ff" stroke="#63b8ff" points="468.37,-30.28 478.76,-28.2 469.34,-23.34 468.37,-30.28"/>
</a>
</g>
</g>
</g>
</svg>
