<?xml version="1.0" encoding="UTF-8" standalone="no"?>
<!DOCTYPE svg PUBLIC "-//W3C//DTD SVG 1.1//EN"
 "http://www.w3.org/Graphics/SVG/1.1/DTD/svg11.dtd">
<!-- Generated by graphviz version 2.43.0 (0)
 -->
<!-- Title: netspeak::invertedindex::PostlistSorter::sort Pages: 1 -->
<svg width="1210pt" height="588pt"
 viewBox="0.00 0.00 1210.00 587.58" xmlns="http://www.w3.org/2000/svg" xmlns:xlink="http://www.w3.org/1999/xlink">
<g id="graph0" class="graph" transform="scale(1 1) rotate(0) translate(4 583.58)">
<title>netspeak::invertedindex::PostlistSorter::sort</title>
<!-- Node1 -->
<g id="Node000001" class="node">
<title>Node1</title>
<g id="a_Node000001"><a xlink:title=" ">
<polygon fill="#999999" stroke="#666666" points="135,-283.5 0,-283.5 0,-253.5 135,-253.5 135,-283.5"/>
<text text-anchor="start" x="8" y="-271.5" font-family="Helvetica,sans-Serif" font-size="10.00">netspeak::invertedindex</text>
<text text-anchor="middle" x="67.5" y="-260.5" font-family="Helvetica,sans-Serif" font-size="10.00">::PostlistSorter::sort</text>
</a>
</g>
</g>
<!-- Node2 -->
<g id="Node000002" class="node">
<title>Node2</title>
<g id="a_Node000002"><a xlink:href="classnetspeak_1_1invertedindex_1_1RawPostlist.html#ada21e5ca7d45dabba362df79271eaa9f" target="_top" xlink:title=" ">
<polygon fill="white" stroke="#666666" points="316,-403.5 181,-403.5 181,-373.5 316,-373.5 316,-403.5"/>
<text text-anchor="start" x="189" y="-391.5" font-family="Helvetica,sans-Serif" font-size="10.00">netspeak::invertedindex</text>
<text text-anchor="middle" x="248.5" y="-380.5" font-family="Helvetica,sans-Serif" font-size="10.00">::RawPostlist::head</text>
</a>
</g>
</g>
<!-- Node1&#45;&gt;Node2 -->
<g id="edge1_Node000001_Node000002" class="edge">
<title>Node1&#45;&gt;Node2</title>
<g id="a_edge1_Node000001_Node000002"><a xlink:title=" ">
<path fill="none" stroke="#63b8ff" d="M80.81,-283.71C98.61,-304.76 133.52,-342.62 171,-364.5 173.98,-366.24 177.09,-367.86 180.29,-369.38"/>
<polygon fill="#63b8ff" stroke="#63b8ff" points="178.92,-372.6 189.49,-373.39 181.72,-366.18 178.92,-372.6"/>
</a>
</g>
</g>
<!-- Node3 -->
<g id="Node000003" class="node">
<title>Node3</title>
<g id="a_Node000003"><a xlink:href="classnetspeak_1_1invertedindex_1_1PostlistSorter.html#a0bb0492d40e3460f4463a35843df5bf7" target="_top" xlink:title=" ">
<polygon fill="white" stroke="#666666" points="326,-259.5 171,-259.5 171,-229.5 326,-229.5 326,-259.5"/>
<text text-anchor="start" x="179" y="-247.5" font-family="Helvetica,sans-Serif" font-size="10.00">netspeak::invertedindex</text>
<text text-anchor="middle" x="248.5" y="-236.5" font-family="Helvetica,sans-Serif" font-size="10.00">::PostlistSorter::internal_sort</text>
</a>
</g>
</g>
<!-- Node1&#45;&gt;Node3 -->
<g id="edge2_Node000001_Node000003" class="edge">
<title>Node1&#45;&gt;Node3</title>
<g id="a_edge2_Node000001_Node000003"><a xlink:title=" ">
<path fill="none" stroke="#63b8ff" d="M135.15,-259.56C143.51,-258.44 152.16,-257.28 160.77,-256.13"/>
<polygon fill="#63b8ff" stroke="#63b8ff" points="161.39,-259.58 170.84,-254.78 160.46,-252.64 161.39,-259.58"/>
</a>
</g>
</g>
<!-- Node25 -->
<g id="Node000025" class="node">
<title>Node25</title>
<g id="a_Node000025"><a xlink:href="classnetspeak_1_1invertedindex_1_1PostlistSorter.html#a3a4bdc4279ad3c23c77d69c629f4b89a" target="_top" xlink:title=" ">
<polygon fill="white" stroke="#666666" points="316,-355.5 181,-355.5 181,-325.5 316,-325.5 316,-355.5"/>
<text text-anchor="start" x="189" y="-343.5" font-family="Helvetica,sans-Serif" font-size="10.00">netspeak::invertedindex</text>
<text text-anchor="middle" x="248.5" y="-332.5" font-family="Helvetica,sans-Serif" font-size="10.00">::PostlistSorter::merge</text>
</a>
</g>
</g>
<!-- Node1&#45;&gt;Node25 -->
<g id="edge30_Node000001_Node000025" class="edge">
<title>Node1&#45;&gt;Node25</title>
<g id="a_edge30_Node000001_Node000025"><a xlink:title=" ">
<path fill="none" stroke="#63b8ff" d="M106.02,-283.59C133.47,-294.63 170.9,-309.69 200.36,-321.54"/>
<polygon fill="#63b8ff" stroke="#63b8ff" points="199.44,-324.94 210.03,-325.43 202.05,-318.45 199.44,-324.94"/>
</a>
</g>
</g>
<!-- Node27 -->
<g id="Node000027" class="node">
<title>Node27</title>
<g id="a_Node000027"><a xlink:href="classnetspeak_1_1invertedindex_1_1PostlistSorter.html#a7fe08d86571e6379cfed197d2570e0e4" target="_top" xlink:title=" ">
<polygon fill="white" stroke="#666666" points="316,-187.5 181,-187.5 181,-157.5 316,-157.5 316,-187.5"/>
<text text-anchor="start" x="189" y="-175.5" font-family="Helvetica,sans-Serif" font-size="10.00">netspeak::invertedindex</text>
<text text-anchor="middle" x="248.5" y="-164.5" font-family="Helvetica,sans-Serif" font-size="10.00">::PostlistSorter::scatter</text>
</a>
</g>
</g>
<!-- Node1&#45;&gt;Node27 -->
<g id="edge35_Node000001_Node000027" class="edge">
<title>Node1&#45;&gt;Node27</title>
<g id="a_edge35_Node000001_Node000027"><a xlink:title=" ">
<path fill="none" stroke="#63b8ff" d="M96.47,-253.5C127.12,-237.06 176.42,-210.62 210.31,-192.44"/>
<polygon fill="#63b8ff" stroke="#63b8ff" points="212.27,-195.36 219.43,-187.55 208.97,-189.19 212.27,-195.36"/>
</a>
</g>
</g>
<!-- Node4 -->
<g id="Node000004" class="node">
<title>Node4</title>
<g id="a_Node000004"><a xlink:href="classnetspeak_1_1invertedindex_1_1PostlistBuilder.html#aa133eb47feb79d3d4565aebc9d3c9c07" target="_top" xlink:title=" ">
<polygon fill="white" stroke="#666666" points="505,-379.5 370,-379.5 370,-349.5 505,-349.5 505,-379.5"/>
<text text-anchor="start" x="378" y="-367.5" font-family="Helvetica,sans-Serif" font-size="10.00">netspeak::invertedindex</text>
<text text-anchor="middle" x="437.5" y="-356.5" font-family="Helvetica,sans-Serif" font-size="10.00">::PostlistBuilder::build</text>
</a>
</g>
</g>
<!-- Node3&#45;&gt;Node4 -->
<g id="edge3_Node000003_Node000004" class="edge">
<title>Node3&#45;&gt;Node4</title>
<g id="a_edge3_Node000003_Node000004"><a xlink:title=" ">
<path fill="none" stroke="#63b8ff" d="M273.18,-259.7C306.48,-281.07 367.24,-320.05 404.52,-343.98"/>
<polygon fill="#63b8ff" stroke="#63b8ff" points="402.7,-346.97 413.01,-349.43 406.48,-341.08 402.7,-346.97"/>
</a>
</g>
</g>
<!-- Node15 -->
<g id="Node000015" class="node">
<title>Node15</title>
<g id="a_Node000015"><a xlink:href="classnetspeak_1_1invertedindex_1_1Postlist.html#ab06669698fad7265804bf091ec2aa122" target="_top" xlink:title=" ">
<polygon fill="white" stroke="#666666" points="505,-187.5 370,-187.5 370,-157.5 505,-157.5 505,-187.5"/>
<text text-anchor="start" x="378" y="-175.5" font-family="Helvetica,sans-Serif" font-size="10.00">netspeak::invertedindex</text>
<text text-anchor="middle" x="437.5" y="-164.5" font-family="Helvetica,sans-Serif" font-size="10.00">::Postlist::next</text>
</a>
</g>
</g>
<!-- Node3&#45;&gt;Node15 -->
<g id="edge16_Node000003_Node000015" class="edge">
<title>Node3&#45;&gt;Node15</title>
<g id="a_edge16_Node000003_Node000015"><a xlink:title=" ">
<path fill="none" stroke="#63b8ff" d="M282.65,-229.41C304.89,-219.52 334.95,-206.6 362,-196.5 367.09,-194.6 372.41,-192.7 377.76,-190.86"/>
<polygon fill="#63b8ff" stroke="#63b8ff" points="379.03,-194.13 387.39,-187.61 376.79,-187.5 379.03,-194.13"/>
</a>
</g>
</g>
<!-- Node18 -->
<g id="Node000018" class="node">
<title>Node18</title>
<g id="a_Node000018"><a xlink:href="classnetspeak_1_1invertedindex_1_1PostlistBuilder.html#ab81c87c60382f082e402313fdbc92521" target="_top" xlink:title=" ">
<polygon fill="white" stroke="#666666" points="513,-283.5 362,-283.5 362,-253.5 513,-253.5 513,-283.5"/>
<text text-anchor="start" x="370" y="-271.5" font-family="Helvetica,sans-Serif" font-size="10.00">netspeak::invertedindex</text>
<text text-anchor="middle" x="437.5" y="-260.5" font-family="Helvetica,sans-Serif" font-size="10.00">::PostlistBuilder::push_back</text>
</a>
</g>
</g>
<!-- Node3&#45;&gt;Node18 -->
<g id="edge19_Node000003_Node000018" class="edge">
<title>Node3&#45;&gt;Node18</title>
<g id="a_edge19_Node000003_Node000018"><a xlink:title=" ">
<path fill="none" stroke="#63b8ff" d="M326.1,-254.33C334.58,-255.42 343.26,-256.53 351.83,-257.63"/>
<polygon fill="#63b8ff" stroke="#63b8ff" points="351.47,-261.12 361.83,-258.92 352.36,-254.17 351.47,-261.12"/>
</a>
</g>
</g>
<!-- Node23 -->
<g id="Node000023" class="node">
<title>Node23</title>
<g id="a_Node000023"><a xlink:href="classnetspeak_1_1invertedindex_1_1RawPostlist.html#a8e15649712ba358a3ec1b605ee61e0a0" target="_top" xlink:title=" ">
<polygon fill="white" stroke="#666666" points="505,-139.5 370,-139.5 370,-109.5 505,-109.5 505,-139.5"/>
<text text-anchor="start" x="378" y="-127.5" font-family="Helvetica,sans-Serif" font-size="10.00">netspeak::invertedindex</text>
<text text-anchor="middle" x="437.5" y="-116.5" font-family="Helvetica,sans-Serif" font-size="10.00">::RawPostlist::rewind</text>
</a>
</g>
</g>
<!-- Node3&#45;&gt;Node23 -->
<g id="edge28_Node000003_Node000023" class="edge">
<title>Node3&#45;&gt;Node23</title>
<g id="a_edge28_Node000003_Node000023"><a xlink:title=" ">
<path fill="none" stroke="#63b8ff" d="M278.87,-229.46C293.89,-220.96 311.92,-209.45 326,-196.5 345.62,-178.44 340.29,-163.98 362,-148.5 364.08,-147.02 366.26,-145.62 368.51,-144.31"/>
<polygon fill="#63b8ff" stroke="#63b8ff" points="370.22,-147.36 377.48,-139.65 366.99,-141.15 370.22,-147.36"/>
</a>
</g>
</g>
<!-- Node24 -->
<g id="Node000024" class="node">
<title>Node24</title>
<g id="a_Node000024"><a xlink:href="classnetspeak_1_1invertedindex_1_1RawPostlist.html#aafc5e8df8e1718bb2e644538a5acd17a" target="_top" xlink:title=" ">
<polygon fill="white" stroke="#666666" points="505,-235.5 370,-235.5 370,-205.5 505,-205.5 505,-235.5"/>
<text text-anchor="start" x="378" y="-223.5" font-family="Helvetica,sans-Serif" font-size="10.00">netspeak::invertedindex</text>
<text text-anchor="middle" x="437.5" y="-212.5" font-family="Helvetica,sans-Serif" font-size="10.00">::RawPostlist::size</text>
</a>
</g>
</g>
<!-- Node3&#45;&gt;Node24 -->
<g id="edge29_Node000003_Node000024" class="edge">
<title>Node3&#45;&gt;Node24</title>
<g id="a_edge29_Node000003_Node000024"><a xlink:title=" ">
<path fill="none" stroke="#63b8ff" d="M326.1,-234.67C337.22,-233.24 348.67,-231.77 359.79,-230.34"/>
<polygon fill="#63b8ff" stroke="#63b8ff" points="360.42,-233.79 369.9,-229.05 359.53,-226.85 360.42,-233.79"/>
</a>
</g>
</g>
<!-- Node5 -->
<g id="Node000005" class="node">
<title>Node5</title>
<g id="a_Node000005"><a xlink:href="classnetspeak_1_1invertedindex_1_1PostlistBuilder.html#aa8341dc51b109df63b5114f1212a64b5" target="_top" xlink:title=" ">
<polygon fill="white" stroke="#666666" points="692.5,-427.5 557.5,-427.5 557.5,-397.5 692.5,-397.5 692.5,-427.5"/>
<text text-anchor="start" x="565.5" y="-415.5" font-family="Helvetica,sans-Serif" font-size="10.00">netspeak::invertedindex</text>
<text text-anchor="middle" x="625" y="-404.5" font-family="Helvetica,sans-Serif" font-size="10.00">::PostlistBuilder::clear</text>
</a>
</g>
</g>
<!-- Node4&#45;&gt;Node5 -->
<g id="edge4_Node000004_Node000005" class="edge">
<title>Node4&#45;&gt;Node5</title>
<g id="a_edge4_Node000004_Node000005"><a xlink:title=" ">
<path fill="none" stroke="#63b8ff" d="M496.68,-379.56C515.59,-384.45 536.73,-389.92 556.27,-394.98"/>
<polygon fill="#63b8ff" stroke="#63b8ff" points="555.46,-398.38 566.02,-397.5 557.22,-391.6 555.46,-398.38"/>
</a>
</g>
</g>
<!-- Node9 -->
<g id="Node000009" class="node">
<title>Node9</title>
<g id="a_Node000009"><a xlink:href="classnetspeak_1_1invertedindex_1_1ByteBuffer.html#aa752333cd73080cff87f7baaa5c0edfe" target="_top" xlink:title=" ">
<polygon fill="white" stroke="#666666" points="692.5,-523.5 557.5,-523.5 557.5,-493.5 692.5,-493.5 692.5,-523.5"/>
<text text-anchor="start" x="565.5" y="-511.5" font-family="Helvetica,sans-Serif" font-size="10.00">netspeak::invertedindex</text>
<text text-anchor="middle" x="625" y="-500.5" font-family="Helvetica,sans-Serif" font-size="10.00">::ByteBuffer::end</text>
</a>
</g>
</g>
<!-- Node4&#45;&gt;Node9 -->
<g id="edge9_Node000004_Node000009" class="edge">
<title>Node4&#45;&gt;Node9</title>
<g id="a_edge9_Node000004_Node000009"><a xlink:title=" ">
<path fill="none" stroke="#63b8ff" d="M500.79,-379.52C505.22,-382.06 509.36,-385.03 513,-388.5 545.97,-419.95 516,-453.08 549,-484.5 550.11,-485.56 551.27,-486.57 552.48,-487.54"/>
<polygon fill="#63b8ff" stroke="#63b8ff" points="550.7,-490.57 560.93,-493.31 554.64,-484.78 550.7,-490.57"/>
</a>
</g>
</g>
<!-- Node10 -->
<g id="Node000010" class="node">
<title>Node10</title>
<g id="a_Node000010"><a xlink:href="classnetspeak_1_1invertedindex_1_1PostlistBuilder.html#a65cf7ffab2be1fb0a3ff7a9ec2906b9b" target="_top" xlink:title=" ">
<polygon fill="white" stroke="#666666" points="701,-331.5 549,-331.5 549,-301.5 701,-301.5 701,-331.5"/>
<text text-anchor="start" x="557" y="-319.5" font-family="Helvetica,sans-Serif" font-size="10.00">netspeak::invertedindex</text>
<text text-anchor="middle" x="625" y="-308.5" font-family="Helvetica,sans-Serif" font-size="10.00">::PostlistBuilder::has_swap_</text>
</a>
</g>
</g>
<!-- Node4&#45;&gt;Node10 -->
<g id="edge10_Node000004_Node000010" class="edge">
<title>Node4&#45;&gt;Node10</title>
<g id="a_edge10_Node000004_Node000010"><a xlink:title=" ">
<path fill="none" stroke="#63b8ff" d="M496.68,-349.44C515.59,-344.55 536.73,-339.08 556.27,-334.02"/>
<polygon fill="#63b8ff" stroke="#63b8ff" points="557.22,-337.4 566.02,-331.5 555.46,-330.62 557.22,-337.4"/>
</a>
</g>
</g>
<!-- Node11 -->
<g id="Node000011" class="node">
<title>Node11</title>
<g id="a_Node000011"><a xlink:href="classnetspeak_1_1invertedindex_1_1ByteBuffer.html#af6a5e40f34b9a46557e519b5a4998450" target="_top" xlink:title=" ">
<polygon fill="white" stroke="#666666" points="692.5,-475.5 557.5,-475.5 557.5,-445.5 692.5,-445.5 692.5,-475.5"/>
<text text-anchor="start" x="565.5" y="-463.5" font-family="Helvetica,sans-Serif" font-size="10.00">netspeak::invertedindex</text>
<text text-anchor="middle" x="625" y="-452.5" font-family="Helvetica,sans-Serif" font-size="10.00">::ByteBuffer::position</text>
</a>
</g>
</g>
<!-- Node4&#45;&gt;Node11 -->
<g id="edge11_Node000004_Node000011" class="edge">
<title>Node4&#45;&gt;Node11</title>
<g id="a_edge11_Node000004_Node000011"><a xlink:title=" ">
<path fill="none" stroke="#63b8ff" d="M497.52,-379.65C502.98,-382.18 508.24,-385.11 513,-388.5 534.71,-403.98 527.27,-421.04 549,-436.5 551.1,-437.99 553.29,-439.39 555.55,-440.71"/>
<polygon fill="#63b8ff" stroke="#63b8ff" points="554.09,-443.9 564.58,-445.38 557.31,-437.68 554.09,-443.9"/>
</a>
</g>
</g>
<!-- Node12 -->
<g id="Node000012" class="node">
<title>Node12</title>
<g id="a_Node000012"><a xlink:href="classnetspeak_1_1invertedindex_1_1ByteBuffer.html#a2e83fde864788328fa5ababc235e3036" target="_top" xlink:title=" ">
<polygon fill="white" stroke="#666666" points="692.5,-379.5 557.5,-379.5 557.5,-349.5 692.5,-349.5 692.5,-379.5"/>
<text text-anchor="start" x="565.5" y="-367.5" font-family="Helvetica,sans-Serif" font-size="10.00">netspeak::invertedindex</text>
<text text-anchor="middle" x="625" y="-356.5" font-family="Helvetica,sans-Serif" font-size="10.00">::ByteBuffer::put</text>
</a>
</g>
</g>
<!-- Node4&#45;&gt;Node12 -->
<g id="edge12_Node000004_Node000012" class="edge">
<title>Node4&#45;&gt;Node12</title>
<g id="a_edge12_Node000004_Node000012"><a xlink:title=" ">
<path fill="none" stroke="#63b8ff" d="M505.21,-364.5C518.83,-364.5 533.27,-364.5 547.21,-364.5"/>
<polygon fill="#63b8ff" stroke="#63b8ff" points="547.26,-368 557.26,-364.5 547.26,-361 547.26,-368"/>
</a>
</g>
</g>
<!-- Node14 -->
<g id="Node000014" class="node">
<title>Node14</title>
<g id="a_Node000014"><a xlink:href="namespacenetspeak_1_1util.html#a0a70d04eac08c447619ba0fcdf796d19" target="_top" xlink:title=" ">
<polygon fill="white" stroke="#666666" points="1053,-510 931,-510 931,-491 1053,-491 1053,-510"/>
<text text-anchor="middle" x="992" y="-498" font-family="Helvetica,sans-Serif" font-size="10.00">netspeak::util::rewind</text>
</a>
</g>
</g>
<!-- Node4&#45;&gt;Node14 -->
<g id="edge14_Node000004_Node000014" class="edge">
<title>Node4&#45;&gt;Node14</title>
<g id="a_edge14_Node000004_Node000014"><a xlink:title=" ">
<path fill="none" stroke="#63b8ff" d="M501.94,-379.51C506,-382.05 509.75,-385.03 513,-388.5 558.07,-436.68 497,-491.9 549,-532.5 674.36,-630.38 885.47,-549.32 962.1,-514.48"/>
<polygon fill="#63b8ff" stroke="#63b8ff" points="963.99,-517.47 971.59,-510.09 961.05,-511.11 963.99,-517.47"/>
</a>
</g>
</g>
<!-- Node6 -->
<g id="Node000006" class="node">
<title>Node6</title>
<g id="a_Node000006"><a xlink:href="namespacenetspeak_1_1util.html#a978978e70b474657b12402a3db711ef0" target="_top" xlink:title=" ">
<polygon fill="white" stroke="#666666" points="875.5,-422 756.5,-422 756.5,-403 875.5,-403 875.5,-422"/>
<text text-anchor="middle" x="816" y="-410" font-family="Helvetica,sans-Serif" font-size="10.00">netspeak::util::fclose</text>
</a>
</g>
</g>
<!-- Node5&#45;&gt;Node6 -->
<g id="edge5_Node000005_Node000006" class="edge">
<title>Node5&#45;&gt;Node6</title>
<g id="a_edge5_Node000005_Node000006"><a xlink:title=" ">
<path fill="none" stroke="#63b8ff" d="M692.63,-412.5C709.96,-412.5 728.65,-412.5 746.09,-412.5"/>
<polygon fill="#63b8ff" stroke="#63b8ff" points="746.2,-416 756.2,-412.5 746.2,-409 746.2,-416"/>
</a>
</g>
</g>
<!-- Node7 -->
<g id="Node000007" class="node">
<title>Node7</title>
<g id="a_Node000007"><a xlink:href="namespacenetspeak_1_1util.html#a4c91ad572508b4021399ac7dddff574d" target="_top" xlink:title=" ">
<polygon fill="white" stroke="#666666" points="1202,-400 1089,-400 1089,-381 1202,-381 1202,-400"/>
<text text-anchor="middle" x="1145.5" y="-388" font-family="Helvetica,sans-Serif" font-size="10.00">netspeak::util::hash</text>
</a>
</g>
</g>
<!-- Node6&#45;&gt;Node7 -->
<g id="edge6_Node000006_Node000007" class="edge">
<title>Node6&#45;&gt;Node7</title>
<g id="a_edge6_Node000006_Node000007"><a xlink:title=" ">
<path fill="none" stroke="#63b8ff" d="M875.55,-408.57C932.68,-404.73 1019.45,-398.9 1078.88,-394.91"/>
<polygon fill="#63b8ff" stroke="#63b8ff" points="1079.17,-398.4 1088.91,-394.23 1078.7,-391.41 1079.17,-398.4"/>
</a>
</g>
</g>
<!-- Node8 -->
<g id="Node000008" class="node">
<title>Node8</title>
<g id="a_Node000008"><a xlink:href="namespacenetspeak_1_1util.html#af94d48fda5f335ddcb461a8237079866" target="_top" xlink:title=" ">
<polygon fill="white" stroke="#666666" points="1051.5,-384.5 932.5,-384.5 932.5,-354.5 1051.5,-354.5 1051.5,-384.5"/>
<text text-anchor="start" x="940.5" y="-372.5" font-family="Helvetica,sans-Serif" font-size="10.00">netspeak::util::signal</text>
<text text-anchor="middle" x="992" y="-361.5" font-family="Helvetica,sans-Serif" font-size="10.00">_error</text>
</a>
</g>
</g>
<!-- Node6&#45;&gt;Node8 -->
<g id="edge7_Node000006_Node000008" class="edge">
<title>Node6&#45;&gt;Node8</title>
<g id="a_edge7_Node000006_Node000008"><a xlink:title=" ">
<path fill="none" stroke="#63b8ff" d="M855.62,-402.96C875.24,-398.11 899.68,-392.07 922.37,-386.46"/>
<polygon fill="#63b8ff" stroke="#63b8ff" points="923.44,-389.8 932.31,-384 921.76,-383.01 923.44,-389.8"/>
</a>
</g>
</g>
<!-- Node8&#45;&gt;Node7 -->
<g id="edge8_Node000008_Node000007" class="edge">
<title>Node8&#45;&gt;Node7</title>
<g id="a_edge8_Node000008_Node000007"><a xlink:title=" ">
<path fill="none" stroke="#63b8ff" d="M1051.57,-377.62C1060.41,-378.84 1069.57,-380.11 1078.54,-381.36"/>
<polygon fill="#63b8ff" stroke="#63b8ff" points="1078.18,-384.84 1088.57,-382.75 1079.14,-377.91 1078.18,-384.84"/>
</a>
</g>
</g>
<!-- Node13 -->
<g id="Node000013" class="node">
<title>Node13</title>
<g id="a_Node000013"><a xlink:href="classnetspeak_1_1invertedindex_1_1ByteBuffer.html#a5e811891fd5fe2fb29572fee4e148959" target="_top" xlink:title=" ">
<polygon fill="white" stroke="#666666" points="895,-379.5 737,-379.5 737,-349.5 895,-349.5 895,-379.5"/>
<text text-anchor="start" x="745" y="-367.5" font-family="Helvetica,sans-Serif" font-size="10.00">netspeak::invertedindex</text>
<text text-anchor="middle" x="816" y="-356.5" font-family="Helvetica,sans-Serif" font-size="10.00">::ByteBuffer::bytes_available</text>
</a>
</g>
</g>
<!-- Node12&#45;&gt;Node13 -->
<g id="edge13_Node000012_Node000013" class="edge">
<title>Node12&#45;&gt;Node13</title>
<g id="a_edge13_Node000012_Node000013"><a xlink:title=" ">
<path fill="none" stroke="#63b8ff" d="M692.63,-364.5C703.65,-364.5 715.22,-364.5 726.67,-364.5"/>
<polygon fill="#63b8ff" stroke="#63b8ff" points="726.68,-368 736.68,-364.5 726.68,-361 726.68,-368"/>
</a>
</g>
</g>
<!-- Node14&#45;&gt;Node7 -->
<g id="edge15_Node000014_Node000007" class="edge">
<title>Node14&#45;&gt;Node7</title>
<g id="a_edge15_Node000014_Node000007"><a xlink:title=" ">
<path fill="none" stroke="#63b8ff" d="M1006.18,-490.93C1032.37,-471.91 1091.17,-429.22 1123.02,-406.09"/>
<polygon fill="#63b8ff" stroke="#63b8ff" points="1125.21,-408.83 1131.24,-400.13 1121.09,-403.17 1125.21,-408.83"/>
</a>
</g>
</g>
<!-- Node16 -->
<g id="Node000016" class="node">
<title>Node16</title>
<g id="a_Node000016"><a xlink:href="structnetspeak_1_1value_1_1value__traits.html#a27c68558505f16e261d678ee62c8a4f0" target="_top" xlink:title=" ">
<polygon fill="white" stroke="#666666" points="689,-89.5 561,-89.5 561,-59.5 689,-59.5 689,-89.5"/>
<text text-anchor="start" x="569" y="-77.5" font-family="Helvetica,sans-Serif" font-size="10.00">netspeak::value::value</text>
<text text-anchor="middle" x="625" y="-66.5" font-family="Helvetica,sans-Serif" font-size="10.00">_traits::copy_from</text>
</a>
</g>
</g>
<!-- Node15&#45;&gt;Node16 -->
<g id="edge17_Node000015_Node000016" class="edge">
<title>Node15&#45;&gt;Node16</title>
<g id="a_edge17_Node000015_Node000016"><a xlink:title=" ">
<path fill="none" stroke="#63b8ff" d="M497.59,-157.45C503.04,-154.9 508.28,-151.94 513,-148.5 535.14,-132.38 526.85,-114.59 549,-98.5 551.08,-96.99 553.26,-95.57 555.51,-94.24"/>
<polygon fill="#63b8ff" stroke="#63b8ff" points="557.28,-97.26 564.51,-89.52 554.03,-91.06 557.28,-97.26"/>
</a>
</g>
</g>
<!-- Node17 -->
<g id="Node000017" class="node">
<title>Node17</title>
<g id="a_Node000017"><a xlink:href="classnetspeak_1_1invertedindex_1_1RawPostlist.html#a7c4b7fb06700bdfc0bf52ca3aae85f77" target="_top" xlink:title=" ">
<polygon fill="white" stroke="#666666" points="692.5,-137.5 557.5,-137.5 557.5,-107.5 692.5,-107.5 692.5,-137.5"/>
<text text-anchor="start" x="565.5" y="-125.5" font-family="Helvetica,sans-Serif" font-size="10.00">netspeak::invertedindex</text>
<text text-anchor="middle" x="625" y="-114.5" font-family="Helvetica,sans-Serif" font-size="10.00">::RawPostlist::next</text>
</a>
</g>
</g>
<!-- Node15&#45;&gt;Node17 -->
<g id="edge18_Node000015_Node000017" class="edge">
<title>Node15&#45;&gt;Node17</title>
<g id="a_edge18_Node000015_Node000017"><a xlink:title=" ">
<path fill="none" stroke="#63b8ff" d="M494.16,-157.5C514.33,-152.06 537.31,-145.87 558.27,-140.22"/>
<polygon fill="#63b8ff" stroke="#63b8ff" points="559.32,-143.56 568.06,-137.58 557.5,-136.8 559.32,-143.56"/>
</a>
</g>
</g>
<!-- Node18&#45;&gt;Node10 -->
<g id="edge20_Node000018_Node000010" class="edge">
<title>Node18&#45;&gt;Node10</title>
<g id="a_edge20_Node000018_Node000010"><a xlink:title=" ">
<path fill="none" stroke="#63b8ff" d="M496.68,-283.56C515.59,-288.45 536.73,-293.92 556.27,-298.98"/>
<polygon fill="#63b8ff" stroke="#63b8ff" points="555.46,-302.38 566.02,-301.5 557.22,-295.6 555.46,-302.38"/>
</a>
</g>
</g>
<!-- Node19 -->
<g id="Node000019" class="node">
<title>Node19</title>
<g id="a_Node000019"><a xlink:href="structnetspeak_1_1value_1_1value__traits.html#a1de8038347bdd72008ef72ad481f4a77" target="_top" xlink:title=" ">
<polygon fill="white" stroke="#666666" points="689,-283.5 561,-283.5 561,-253.5 689,-253.5 689,-283.5"/>
<text text-anchor="start" x="569" y="-271.5" font-family="Helvetica,sans-Serif" font-size="10.00">netspeak::value::value</text>
<text text-anchor="middle" x="625" y="-260.5" font-family="Helvetica,sans-Serif" font-size="10.00">_traits::size_of</text>
</a>
</g>
</g>
<!-- Node18&#45;&gt;Node19 -->
<g id="edge21_Node000018_Node000019" class="edge">
<title>Node18&#45;&gt;Node19</title>
<g id="a_edge21_Node000018_Node000019"><a xlink:title=" ">
<path fill="none" stroke="#63b8ff" d="M513.15,-268.5C525.5,-268.5 538.29,-268.5 550.61,-268.5"/>
<polygon fill="#63b8ff" stroke="#63b8ff" points="550.82,-272 560.82,-268.5 550.82,-265 550.82,-272"/>
</a>
</g>
</g>
<!-- Node20 -->
<g id="Node000020" class="node">
<title>Node20</title>
<g id="a_Node000020"><a xlink:href="classnetspeak_1_1invertedindex_1_1PostlistBuilder.html#a8ddce60535a42049c39477e03bdc43ed" target="_top" xlink:title=" ">
<polygon fill="white" stroke="#666666" points="692.5,-197 557.5,-197 557.5,-156 692.5,-156 692.5,-197"/>
<text text-anchor="start" x="565.5" y="-185" font-family="Helvetica,sans-Serif" font-size="10.00">netspeak::invertedindex</text>
<text text-anchor="start" x="565.5" y="-174" font-family="Helvetica,sans-Serif" font-size="10.00">::PostlistBuilder::swap</text>
<text text-anchor="middle" x="625" y="-163" font-family="Helvetica,sans-Serif" font-size="10.00">_out_values_</text>
</a>
</g>
</g>
<!-- Node18&#45;&gt;Node20 -->
<g id="edge22_Node000018_Node000020" class="edge">
<title>Node18&#45;&gt;Node20</title>
<g id="a_edge22_Node000018_Node000020"><a xlink:title=" ">
<path fill="none" stroke="#63b8ff" d="M494.57,-253.37C500.96,-250.79 507.24,-247.85 513,-244.5 531.76,-233.59 530.96,-223.56 549,-211.5 554.17,-208.04 559.74,-204.75 565.43,-201.67"/>
<polygon fill="#63b8ff" stroke="#63b8ff" points="567.15,-204.72 574.41,-197.01 563.92,-198.51 567.15,-204.72"/>
</a>
</g>
</g>
<!-- Node22 -->
<g id="Node000022" class="node">
<title>Node22</title>
<g id="a_Node000022"><a xlink:href="structnetspeak_1_1value_1_1value__traits.html#a1d2c047e82f197702794fb868e80c24b" target="_top" xlink:title=" ">
<polygon fill="white" stroke="#666666" points="880,-234.5 752,-234.5 752,-204.5 880,-204.5 880,-234.5"/>
<text text-anchor="start" x="760" y="-222.5" font-family="Helvetica,sans-Serif" font-size="10.00">netspeak::value::value</text>
<text text-anchor="middle" x="816" y="-211.5" font-family="Helvetica,sans-Serif" font-size="10.00">_traits::write_to</text>
</a>
</g>
</g>
<!-- Node18&#45;&gt;Node22 -->
<g id="edge27_Node000018_Node000022" class="edge">
<title>Node18&#45;&gt;Node22</title>
<g id="a_edge27_Node000018_Node000022"><a xlink:title=" ">
<path fill="none" stroke="#63b8ff" d="M501.36,-253.48C516.87,-250.15 533.48,-246.91 549,-244.5 613.81,-234.45 688.17,-227.88 741.76,-224.01"/>
<polygon fill="#63b8ff" stroke="#63b8ff" points="742.13,-227.49 751.85,-223.29 741.63,-220.51 742.13,-227.49"/>
</a>
</g>
</g>
<!-- Node21 -->
<g id="Node000021" class="node">
<title>Node21</title>
<g id="a_Node000021"><a xlink:href="namespacenetspeak_1_1util.html#a90ad222cbfa3cee11c3ed1dfa1235d10" target="_top" xlink:title=" ">
<polygon fill="white" stroke="#666666" points="878,-186 754,-186 754,-167 878,-167 878,-186"/>
<text text-anchor="middle" x="816" y="-174" font-family="Helvetica,sans-Serif" font-size="10.00">netspeak::util::tmpfile</text>
</a>
</g>
</g>
<!-- Node20&#45;&gt;Node21 -->
<g id="edge23_Node000020_Node000021" class="edge">
<title>Node20&#45;&gt;Node21</title>
<g id="a_edge23_Node000020_Node000021"><a xlink:title=" ">
<path fill="none" stroke="#63b8ff" d="M692.63,-176.5C709.09,-176.5 726.79,-176.5 743.47,-176.5"/>
<polygon fill="#63b8ff" stroke="#63b8ff" points="743.7,-180 753.7,-176.5 743.7,-173 743.7,-180"/>
</a>
</g>
</g>
<!-- Node20&#45;&gt;Node22 -->
<g id="edge26_Node000020_Node000022" class="edge">
<title>Node20&#45;&gt;Node22</title>
<g id="a_edge26_Node000020_Node000022"><a xlink:title=" ">
<path fill="none" stroke="#63b8ff" d="M692.63,-191.66C708.56,-195.28 725.65,-199.17 741.86,-202.86"/>
<polygon fill="#63b8ff" stroke="#63b8ff" points="741.29,-206.32 751.82,-205.13 742.84,-199.49 741.29,-206.32"/>
</a>
</g>
</g>
<!-- Node21&#45;&gt;Node7 -->
<g id="edge24_Node000021_Node000007" class="edge">
<title>Node21&#45;&gt;Node7</title>
<g id="a_edge24_Node000021_Node000007"><a xlink:title=" ">
<path fill="none" stroke="#63b8ff" d="M869.68,-186.09C878.36,-188.58 887.1,-191.67 895,-195.5 993.85,-243.39 1090.37,-335.3 1127.99,-373.35"/>
<polygon fill="#63b8ff" stroke="#63b8ff" points="1125.61,-375.92 1135.11,-380.62 1130.61,-371.02 1125.61,-375.92"/>
</a>
</g>
</g>
<!-- Node21&#45;&gt;Node8 -->
<g id="edge25_Node000021_Node000008" class="edge">
<title>Node21&#45;&gt;Node8</title>
<g id="a_edge25_Node000021_Node000008"><a xlink:title=" ">
<path fill="none" stroke="#63b8ff" d="M878.18,-185.87C884.22,-188.38 889.96,-191.53 895,-195.5 922.48,-217.15 914.25,-234.78 931,-265.5 946.14,-293.27 964.42,-324.67 976.79,-345.63"/>
<polygon fill="#63b8ff" stroke="#63b8ff" points="973.92,-347.65 982.03,-354.47 979.94,-344.08 973.92,-347.65"/>
</a>
</g>
</g>
<!-- Node25&#45;&gt;Node4 -->
<g id="edge31_Node000025_Node000004" class="edge">
<title>Node25&#45;&gt;Node4</title>
<g id="a_edge31_Node000025_Node000004"><a xlink:title=" ">
<path fill="none" stroke="#63b8ff" d="M316.22,-349.06C330.23,-350.86 345.12,-352.77 359.47,-354.61"/>
<polygon fill="#63b8ff" stroke="#63b8ff" points="359.44,-358.14 369.81,-355.94 360.33,-351.2 359.44,-358.14"/>
</a>
</g>
</g>
<!-- Node25&#45;&gt;Node6 -->
<g id="edge32_Node000025_Node000006" class="edge">
<title>Node25&#45;&gt;Node6</title>
<g id="a_edge32_Node000025_Node000006"><a xlink:title=" ">
<path fill="none" stroke="#63b8ff" d="M312.68,-355.61C317.46,-358.13 321.97,-361.07 326,-364.5 353.23,-387.7 336.84,-411.07 362,-436.5 427.71,-502.91 458.19,-510.55 549,-532.5 614.66,-548.37 638.92,-559.15 701,-532.5 749.42,-511.71 786.97,-459.13 804.37,-430.97"/>
<polygon fill="#63b8ff" stroke="#63b8ff" points="807.54,-432.5 809.67,-422.12 801.53,-428.9 807.54,-432.5"/>
</a>
</g>
</g>
<!-- Node25&#45;&gt;Node18 -->
<g id="edge33_Node000025_Node000018" class="edge">
<title>Node25&#45;&gt;Node18</title>
<g id="a_edge33_Node000025_Node000018"><a xlink:title=" ">
<path fill="none" stroke="#63b8ff" d="M288.7,-325.41C317.5,-314.32 356.82,-299.18 387.66,-287.31"/>
<polygon fill="#63b8ff" stroke="#63b8ff" points="389.28,-290.43 397.35,-283.57 386.76,-283.9 389.28,-290.43"/>
</a>
</g>
</g>
<!-- Node26 -->
<g id="Node000026" class="node">
<title>Node26</title>
<g id="a_Node000026"><a xlink:href="structnetspeak_1_1value_1_1value__traits.html#ae0ea99c085b1395ddf5651ff4604c96a" target="_top" xlink:title=" ">
<polygon fill="white" stroke="#666666" points="501.5,-427.5 373.5,-427.5 373.5,-397.5 501.5,-397.5 501.5,-427.5"/>
<text text-anchor="start" x="381.5" y="-415.5" font-family="Helvetica,sans-Serif" font-size="10.00">netspeak::value::value</text>
<text text-anchor="middle" x="437.5" y="-404.5" font-family="Helvetica,sans-Serif" font-size="10.00">_traits::read_from</text>
</a>
</g>
</g>
<!-- Node25&#45;&gt;Node26 -->
<g id="edge34_Node000025_Node000026" class="edge">
<title>Node25&#45;&gt;Node26</title>
<g id="a_edge34_Node000025_Node000026"><a xlink:title=" ">
<path fill="none" stroke="#63b8ff" d="M304.15,-355.55C311.62,-358.21 319.09,-361.2 326,-364.5 343.35,-372.79 344.68,-380.14 362,-388.5 365.79,-390.33 369.74,-392.06 373.78,-393.71"/>
<polygon fill="#63b8ff" stroke="#63b8ff" points="372.7,-397.04 383.29,-397.36 375.21,-390.5 372.7,-397.04"/>
</a>
</g>
</g>
<!-- Node27&#45;&gt;Node15 -->
<g id="edge36_Node000027_Node000015" class="edge">
<title>Node27&#45;&gt;Node15</title>
<g id="a_edge36_Node000027_Node000015"><a xlink:title=" ">
<path fill="none" stroke="#63b8ff" d="M316.22,-172.5C330.23,-172.5 345.12,-172.5 359.47,-172.5"/>
<polygon fill="#63b8ff" stroke="#63b8ff" points="359.81,-176 369.81,-172.5 359.81,-169 359.81,-176"/>
</a>
</g>
</g>
<!-- Node27&#45;&gt;Node23 -->
<g id="edge37_Node000027_Node000023" class="edge">
<title>Node27&#45;&gt;Node23</title>
<g id="a_edge37_Node000027_Node000023"><a xlink:title=" ">
<path fill="none" stroke="#63b8ff" d="M308.15,-157.44C327.21,-152.55 348.53,-147.08 368.23,-142.02"/>
<polygon fill="#63b8ff" stroke="#63b8ff" points="369.24,-145.38 378.05,-139.5 367.5,-138.6 369.24,-145.38"/>
</a>
</g>
</g>
<!-- Node27&#45;&gt;Node24 -->
<g id="edge38_Node000027_Node000024" class="edge">
<title>Node27&#45;&gt;Node24</title>
<g id="a_edge38_Node000027_Node000024"><a xlink:title=" ">
<path fill="none" stroke="#63b8ff" d="M308.15,-187.56C327.21,-192.45 348.53,-197.92 368.23,-202.98"/>
<polygon fill="#63b8ff" stroke="#63b8ff" points="367.5,-206.4 378.05,-205.5 369.24,-199.62 367.5,-206.4"/>
</a>
</g>
</g>
<!-- Node28 -->
<g id="Node000028" class="node">
<title>Node28</title>
<g id="a_Node000028"><a xlink:href="classnetspeak_1_1invertedindex_1_1PostlistSorter.html#a25b3202fca3d22c1ac9f24470196f6d3" target="_top" xlink:title=" ">
<polygon fill="white" stroke="#666666" points="692.5,-41 557.5,-41 557.5,0 692.5,0 692.5,-41"/>
<text text-anchor="start" x="565.5" y="-29" font-family="Helvetica,sans-Serif" font-size="10.00">netspeak::invertedindex</text>
<text text-anchor="start" x="565.5" y="-18" font-family="Helvetica,sans-Serif" font-size="10.00">::PostlistSorter::write</text>
<text text-anchor="middle" x="625" y="-7" font-family="Helvetica,sans-Serif" font-size="10.00">_to_tmpfile</text>
</a>
</g>
</g>
<!-- Node27&#45;&gt;Node28 -->
<g id="edge39_Node000027_Node000028" class="edge">
<title>Node27&#45;&gt;Node28</title>
<g id="a_edge39_Node000027_Node000028"><a xlink:title=" ">
<path fill="none" stroke="#63b8ff" d="M269.27,-157.47C291.02,-141.51 327.48,-116.45 362,-100.5 422.05,-72.75 494.19,-51.54 547.56,-37.95"/>
<polygon fill="#63b8ff" stroke="#63b8ff" points="548.45,-41.34 557.3,-35.51 546.74,-34.55 548.45,-41.34"/>
</a>
</g>
</g>
<!-- Node28&#45;&gt;Node21 -->
<g id="edge40_Node000028_Node000021" class="edge">
<title>Node28&#45;&gt;Node21</title>
<g id="a_edge40_Node000028_Node000021"><a xlink:title=" ">
<path fill="none" stroke="#63b8ff" d="M685.08,-41.09C690.65,-43.92 696.05,-47.06 701,-50.5 744.97,-81.1 783.92,-131.68 802.85,-158.51"/>
<polygon fill="#63b8ff" stroke="#63b8ff" points="800.11,-160.7 808.69,-166.93 805.87,-156.72 800.11,-160.7"/>
</a>
</g>
</g>
<!-- Node28&#45;&gt;Node22 -->
<g id="edge41_Node000028_Node000022" class="edge">
<title>Node28&#45;&gt;Node22</title>
<g id="a_edge41_Node000028_Node000022"><a xlink:title=" ">
<path fill="none" stroke="#63b8ff" d="M690.65,-41.2C694.45,-43.93 697.96,-47.01 701,-50.5 744.38,-100.2 691.9,-146.36 737,-194.5 739.01,-196.64 741.19,-198.6 743.52,-200.39"/>
<polygon fill="#63b8ff" stroke="#63b8ff" points="741.63,-203.33 751.92,-205.86 745.45,-197.47 741.63,-203.33"/>
</a>
</g>
</g>
</g>
</svg>
