<?xml version="1.0" encoding="UTF-8" standalone="no"?>
<!DOCTYPE svg PUBLIC "-//W3C//DTD SVG 1.1//EN"
 "http://www.w3.org/Graphics/SVG/1.1/DTD/svg11.dtd">
<!-- Generated by graphviz version 2.43.0 (0)
 -->
<!-- Title: netspeak::invertedindex::StorageReader::StorageReader Pages: 1 -->
<svg width="881pt" height="250pt"
 viewBox="0.00 0.00 881.00 249.65" xmlns="http://www.w3.org/2000/svg" xmlns:xlink="http://www.w3.org/1999/xlink">
<g id="graph0" class="graph" transform="scale(1 1) rotate(0) translate(4 245.65)">
<title>netspeak::invertedindex::StorageReader::StorageReader</title>
<!-- Node1 -->
<g id="Node000001" class="node">
<title>Node1</title>
<g id="a_Node000001"><a xlink:title=" ">
<polygon fill="#999999" stroke="#666666" points="173,-156.5 0,-156.5 0,-126.5 173,-126.5 173,-156.5"/>
<text text-anchor="start" x="8" y="-144.5" font-family="Helvetica,sans-Serif" font-size="10.00">netspeak::invertedindex</text>
<text text-anchor="middle" x="86.5" y="-133.5" font-family="Helvetica,sans-Serif" font-size="10.00">::StorageReader::StorageReader</text>
</a>
</g>
</g>
<!-- Node2 -->
<g id="Node000002" class="node">
<title>Node2</title>
<g id="a_Node000002"><a xlink:href="classnetspeak_1_1invertedindex_1_1StorageReader.html#abc68bcbfd21694b8f5ab27dfb22bd042" target="_top" xlink:title=" ">
<polygon fill="white" stroke="#666666" points="344,-156.5 209,-156.5 209,-126.5 344,-126.5 344,-156.5"/>
<text text-anchor="start" x="217" y="-144.5" font-family="Helvetica,sans-Serif" font-size="10.00">netspeak::invertedindex</text>
<text text-anchor="middle" x="276.5" y="-133.5" font-family="Helvetica,sans-Serif" font-size="10.00">::StorageReader::Open</text>
</a>
</g>
</g>
<!-- Node1&#45;&gt;Node2 -->
<g id="edge1_Node000001_Node000002" class="edge">
<title>Node1&#45;&gt;Node2</title>
<g id="a_edge1_Node000001_Node000002"><a xlink:title=" ">
<path fill="none" stroke="#63b8ff" d="M173.25,-141.5C181.72,-141.5 190.27,-141.5 198.65,-141.5"/>
<polygon fill="#63b8ff" stroke="#63b8ff" points="198.74,-145 208.74,-141.5 198.74,-138 198.74,-145"/>
</a>
</g>
</g>
<!-- Node3 -->
<g id="Node000003" class="node">
<title>Node3</title>
<g id="a_Node000003"><a xlink:href="namespacenetspeak_1_1util.html#a4acc3d13f8d541f4b65dd44f486403fd" target="_top" xlink:title=" ">
<polygon fill="white" stroke="#666666" points="506,-218 389,-218 389,-199 506,-199 506,-218"/>
<text text-anchor="middle" x="447.5" y="-206" font-family="Helvetica,sans-Serif" font-size="10.00">netspeak::util::fopen</text>
</a>
</g>
</g>
<!-- Node2&#45;&gt;Node3 -->
<g id="edge2_Node000002_Node000003" class="edge">
<title>Node2&#45;&gt;Node3</title>
<g id="a_edge2_Node000002_Node000003"><a xlink:title=" ">
<path fill="none" stroke="#63b8ff" d="M306.57,-156.63C326.8,-166.79 354.6,-179.99 380,-189.5 386.27,-191.85 392.97,-194.07 399.6,-196.12"/>
<polygon fill="#63b8ff" stroke="#63b8ff" points="398.64,-199.49 409.23,-198.98 400.64,-192.78 398.64,-199.49"/>
</a>
</g>
</g>
<!-- Node6 -->
<g id="Node000006" class="node">
<title>Node6</title>
<g id="a_Node000006"><a xlink:href="classnetspeak_1_1invertedindex_1_1StorageReader.html#a0ccfd2e5d27cfb0baf12c2bf9870b199" target="_top" xlink:title=" ">
<polygon fill="white" stroke="#666666" points="515,-84.5 380,-84.5 380,-54.5 515,-54.5 515,-84.5"/>
<text text-anchor="start" x="388" y="-72.5" font-family="Helvetica,sans-Serif" font-size="10.00">netspeak::invertedindex</text>
<text text-anchor="middle" x="447.5" y="-61.5" font-family="Helvetica,sans-Serif" font-size="10.00">::StorageReader::IsOpen</text>
</a>
</g>
</g>
<!-- Node2&#45;&gt;Node6 -->
<g id="edge6_Node000002_Node000006" class="edge">
<title>Node2&#45;&gt;Node6</title>
<g id="a_edge6_Node000002_Node000006"><a xlink:title=" ">
<path fill="none" stroke="#63b8ff" d="M307.67,-126.48C327.92,-116.62 355.31,-103.71 380,-93.5 384.38,-91.69 388.95,-89.88 393.55,-88.11"/>
<polygon fill="#63b8ff" stroke="#63b8ff" points="394.87,-91.35 403,-84.55 392.4,-84.8 394.87,-91.35"/>
</a>
</g>
</g>
<!-- Node7 -->
<g id="Node000007" class="node">
<title>Node7</title>
<g id="a_Node000007"><a xlink:href="classnetspeak_1_1bighashmap_1_1BigHashMap.html#addfe7cd1002c06e1e4eabca8f7d74222" target="_top" xlink:title=" ">
<polygon fill="white" stroke="#666666" points="511.5,-132.5 383.5,-132.5 383.5,-102.5 511.5,-102.5 511.5,-132.5"/>
<text text-anchor="start" x="391.5" y="-120.5" font-family="Helvetica,sans-Serif" font-size="10.00">netspeak::bighashmap</text>
<text text-anchor="middle" x="447.5" y="-109.5" font-family="Helvetica,sans-Serif" font-size="10.00">::BigHashMap::Open</text>
</a>
</g>
</g>
<!-- Node2&#45;&gt;Node7 -->
<g id="edge7_Node000002_Node000007" class="edge">
<title>Node2&#45;&gt;Node7</title>
<g id="a_edge7_Node000002_Node000007"><a xlink:title=" ">
<path fill="none" stroke="#63b8ff" d="M344.29,-132.01C353.88,-130.65 363.78,-129.25 373.48,-127.87"/>
<polygon fill="#63b8ff" stroke="#63b8ff" points="374.09,-131.32 383.5,-126.45 373.1,-124.39 374.09,-131.32"/>
</a>
</g>
</g>
<!-- Node12 -->
<g id="Node000012" class="node">
<title>Node12</title>
<g id="a_Node000012"><a xlink:href="namespacenetspeak_1_1util.html#ac8b0cdf55599b33fd7d4013948d48f43" target="_top" xlink:title=" ">
<polygon fill="white" stroke="#666666" points="497,-180.5 398,-180.5 398,-150.5 497,-150.5 497,-180.5"/>
<text text-anchor="start" x="406" y="-168.5" font-family="Helvetica,sans-Serif" font-size="10.00">netspeak::util::to</text>
<text text-anchor="middle" x="447.5" y="-157.5" font-family="Helvetica,sans-Serif" font-size="10.00">_string</text>
</a>
</g>
</g>
<!-- Node2&#45;&gt;Node12 -->
<g id="edge13_Node000002_Node000012" class="edge">
<title>Node2&#45;&gt;Node12</title>
<g id="a_edge13_Node000002_Node000012"><a xlink:title=" ">
<path fill="none" stroke="#63b8ff" d="M344.29,-150.99C358.7,-153.03 373.82,-155.18 387.88,-157.18"/>
<polygon fill="#63b8ff" stroke="#63b8ff" points="387.52,-160.66 397.91,-158.6 388.5,-153.73 387.52,-160.66"/>
</a>
</g>
</g>
<!-- Node4 -->
<g id="Node000004" class="node">
<title>Node4</title>
<g id="a_Node000004"><a xlink:href="namespacenetspeak_1_1util.html#a4c91ad572508b4021399ac7dddff574d" target="_top" xlink:title=" ">
<polygon fill="white" stroke="#666666" points="865.5,-196 752.5,-196 752.5,-177 865.5,-177 865.5,-196"/>
<text text-anchor="middle" x="809" y="-184" font-family="Helvetica,sans-Serif" font-size="10.00">netspeak::util::hash</text>
</a>
</g>
</g>
<!-- Node3&#45;&gt;Node4 -->
<g id="edge3_Node000003_Node000004" class="edge">
<title>Node3&#45;&gt;Node4</title>
<g id="a_edge3_Node000003_Node000004"><a xlink:title=" ">
<path fill="none" stroke="#63b8ff" d="M480.94,-218.11C500.93,-223.53 527.22,-229.75 551,-232.5 620.76,-240.56 640.43,-247.65 709,-232.5 736.19,-226.49 764.79,-212.22 784.22,-201.16"/>
<polygon fill="#63b8ff" stroke="#63b8ff" points="786.11,-204.11 792.97,-196.03 782.57,-198.06 786.11,-204.11"/>
</a>
</g>
</g>
<!-- Node5 -->
<g id="Node000005" class="node">
<title>Node5</title>
<g id="a_Node000005"><a xlink:href="namespacenetspeak_1_1util.html#af94d48fda5f335ddcb461a8237079866" target="_top" xlink:title=" ">
<polygon fill="white" stroke="#666666" points="689.5,-223.5 570.5,-223.5 570.5,-193.5 689.5,-193.5 689.5,-223.5"/>
<text text-anchor="start" x="578.5" y="-211.5" font-family="Helvetica,sans-Serif" font-size="10.00">netspeak::util::signal</text>
<text text-anchor="middle" x="630" y="-200.5" font-family="Helvetica,sans-Serif" font-size="10.00">_error</text>
</a>
</g>
</g>
<!-- Node3&#45;&gt;Node5 -->
<g id="edge4_Node000003_Node000005" class="edge">
<title>Node3&#45;&gt;Node5</title>
<g id="a_edge4_Node000003_Node000005"><a xlink:title=" ">
<path fill="none" stroke="#63b8ff" d="M506.11,-208.5C523.27,-208.5 542.25,-208.5 560.06,-208.5"/>
<polygon fill="#63b8ff" stroke="#63b8ff" points="560.39,-212 570.39,-208.5 560.39,-205 560.39,-212"/>
</a>
</g>
</g>
<!-- Node5&#45;&gt;Node4 -->
<g id="edge5_Node000005_Node000004" class="edge">
<title>Node5&#45;&gt;Node4</title>
<g id="a_edge5_Node000005_Node000004"><a xlink:title=" ">
<path fill="none" stroke="#63b8ff" d="M689.94,-201.17C706.75,-199.08 725.17,-196.79 742.36,-194.66"/>
<polygon fill="#63b8ff" stroke="#63b8ff" points="742.82,-198.13 752.31,-193.42 741.96,-191.18 742.82,-198.13"/>
</a>
</g>
</g>
<!-- Node8 -->
<g id="Node000008" class="node">
<title>Node8</title>
<g id="a_Node000008"><a xlink:href="classnetspeak_1_1bighashmap_1_1BigHashMap.html#afb28596057a29e92f5abf6d2853c6bbe" target="_top" xlink:title=" ">
<polygon fill="white" stroke="#666666" points="706,-89.5 554,-89.5 554,-59.5 706,-59.5 706,-89.5"/>
<text text-anchor="start" x="562" y="-77.5" font-family="Helvetica,sans-Serif" font-size="10.00">netspeak::bighashmap</text>
<text text-anchor="middle" x="630" y="-66.5" font-family="Helvetica,sans-Serif" font-size="10.00">::BigHashMap::BigHashMap</text>
</a>
</g>
</g>
<!-- Node7&#45;&gt;Node8 -->
<g id="edge8_Node000007_Node000008" class="edge">
<title>Node7&#45;&gt;Node8</title>
<g id="a_edge8_Node000007_Node000008"><a xlink:title=" ">
<path fill="none" stroke="#63b8ff" d="M511.63,-102.46C525.92,-99.06 541.21,-95.41 555.87,-91.92"/>
<polygon fill="#63b8ff" stroke="#63b8ff" points="556.99,-95.25 565.91,-89.53 555.37,-88.44 556.99,-95.25"/>
</a>
</g>
</g>
<!-- Node9 -->
<g id="Node000009" class="node">
<title>Node9</title>
<g id="a_Node000009"><a xlink:href="classnetspeak_1_1bighashmap_1_1BigHashMap.html#a30e5adf3b3c2ba414ecaaf11b23499ab" target="_top" xlink:title=" ">
<polygon fill="white" stroke="#666666" points="709,-41 551,-41 551,0 709,0 709,-41"/>
<text text-anchor="start" x="559" y="-29" font-family="Helvetica,sans-Serif" font-size="10.00">netspeak::bighashmap</text>
<text text-anchor="start" x="559" y="-18" font-family="Helvetica,sans-Serif" font-size="10.00">::BigHashMap::SerializedSize</text>
<text text-anchor="middle" x="630" y="-7" font-family="Helvetica,sans-Serif" font-size="10.00">InBytes</text>
</a>
</g>
</g>
<!-- Node7&#45;&gt;Node9 -->
<g id="edge9_Node000007_Node000009" class="edge">
<title>Node7&#45;&gt;Node9</title>
<g id="a_edge9_Node000007_Node000009"><a xlink:title=" ">
<path fill="none" stroke="#63b8ff" d="M499.3,-102.4C504.82,-99.83 510.17,-96.88 515,-93.5 535.43,-79.22 530.72,-64.99 551,-50.5 553.12,-48.99 555.32,-47.54 557.59,-46.15"/>
<polygon fill="#63b8ff" stroke="#63b8ff" points="559.58,-49.05 566.6,-41.12 556.16,-42.94 559.58,-49.05"/>
</a>
</g>
</g>
<!-- Node11 -->
<g id="Node000011" class="node">
<title>Node11</title>
<g id="a_Node000011"><a xlink:href="namespacenetspeak_1_1util.html#a181da1a6c7faff3652bf4a48cadfb848" target="_top" xlink:title=" ">
<polygon fill="white" stroke="#666666" points="679.5,-137.5 580.5,-137.5 580.5,-107.5 679.5,-107.5 679.5,-137.5"/>
<text text-anchor="start" x="588.5" y="-125.5" font-family="Helvetica,sans-Serif" font-size="10.00">netspeak::util::to</text>
<text text-anchor="middle" x="630" y="-114.5" font-family="Helvetica,sans-Serif" font-size="10.00">_bytes</text>
</a>
</g>
</g>
<!-- Node7&#45;&gt;Node11 -->
<g id="edge11_Node000007_Node000011" class="edge">
<title>Node7&#45;&gt;Node11</title>
<g id="a_edge11_Node000007_Node000011"><a xlink:title=" ">
<path fill="none" stroke="#63b8ff" d="M511.63,-119.25C530.67,-119.78 551.49,-120.35 570.24,-120.87"/>
<polygon fill="#63b8ff" stroke="#63b8ff" points="570.32,-124.38 580.41,-121.15 570.51,-117.38 570.32,-124.38"/>
</a>
</g>
</g>
<!-- Node10 -->
<g id="Node000010" class="node">
<title>Node10</title>
<g id="a_Node000010"><a xlink:href="classnetspeak_1_1bighashmap_1_1BigHashMap.html#a22bfd67df06f8f3d239769251b1d5b70" target="_top" xlink:title=" ">
<polygon fill="white" stroke="#666666" points="873,-35.5 745,-35.5 745,-5.5 873,-5.5 873,-35.5"/>
<text text-anchor="start" x="753" y="-23.5" font-family="Helvetica,sans-Serif" font-size="10.00">netspeak::bighashmap</text>
<text text-anchor="middle" x="809" y="-12.5" font-family="Helvetica,sans-Serif" font-size="10.00">::BigHashMap::size</text>
</a>
</g>
</g>
<!-- Node9&#45;&gt;Node10 -->
<g id="edge10_Node000009_Node000010" class="edge">
<title>Node9&#45;&gt;Node10</title>
<g id="a_edge10_Node000009_Node000010"><a xlink:title=" ">
<path fill="none" stroke="#63b8ff" d="M709.15,-20.5C717.64,-20.5 726.27,-20.5 734.7,-20.5"/>
<polygon fill="#63b8ff" stroke="#63b8ff" points="734.87,-24 744.87,-20.5 734.87,-17 734.87,-24"/>
</a>
</g>
</g>
<!-- Node11&#45;&gt;Node4 -->
<g id="edge12_Node000011_Node000004" class="edge">
<title>Node11&#45;&gt;Node4</title>
<g id="a_edge12_Node000011_Node000004"><a xlink:title=" ">
<path fill="none" stroke="#63b8ff" d="M672.5,-137.51C702.66,-148.41 743.09,-163.03 771.91,-173.45"/>
<polygon fill="#63b8ff" stroke="#63b8ff" points="771,-176.84 781.59,-176.95 773.38,-170.26 771,-176.84"/>
</a>
</g>
</g>
<!-- Node12&#45;&gt;Node4 -->
<g id="edge14_Node000012_Node000004" class="edge">
<title>Node12&#45;&gt;Node4</title>
<g id="a_edge14_Node000012_Node000004"><a xlink:title=" ">
<path fill="none" stroke="#63b8ff" d="M497.36,-168.35C560.76,-172.06 671.62,-178.53 742.33,-182.66"/>
<polygon fill="#63b8ff" stroke="#63b8ff" points="742.27,-186.17 752.46,-183.26 742.68,-179.18 742.27,-186.17"/>
</a>
</g>
</g>
</g>
</svg>
