<?xml version="1.0" encoding="UTF-8" standalone="no"?>
<!DOCTYPE svg PUBLIC "-//W3C//DTD SVG 1.1//EN"
 "http://www.w3.org/Graphics/SVG/1.1/DTD/svg11.dtd">
<!-- Generated by graphviz version 2.43.0 (0)
 -->
<!-- Title: netspeak::invertedindex::Searcher::search_raw_postlist Pages: 1 -->
<svg width="761pt" height="124pt"
 viewBox="0.00 0.00 761.00 124.00" xmlns="http://www.w3.org/2000/svg" xmlns:xlink="http://www.w3.org/1999/xlink">
<g id="graph0" class="graph" transform="scale(1 1) rotate(0) translate(4 120)">
<title>netspeak::invertedindex::Searcher::search_raw_postlist</title>
<!-- Node1 -->
<g id="Node000001" class="node">
<title>Node1</title>
<g id="a_Node000001"><a xlink:title=" ">
<polygon fill="#999999" stroke="#666666" points="135,-78.5 0,-78.5 0,-37.5 135,-37.5 135,-78.5"/>
<text text-anchor="start" x="8" y="-66.5" font-family="Helvetica,sans-Serif" font-size="10.00">netspeak::invertedindex</text>
<text text-anchor="start" x="8" y="-55.5" font-family="Helvetica,sans-Serif" font-size="10.00">::Searcher::search_raw</text>
<text text-anchor="middle" x="67.5" y="-44.5" font-family="Helvetica,sans-Serif" font-size="10.00">_postlist</text>
</a>
</g>
</g>
<!-- Node2 -->
<g id="Node000002" class="node">
<title>Node2</title>
<g id="a_Node000002"><a xlink:href="classnetspeak_1_1invertedindex_1_1Searcher.html#ae220c334383caa61518612c3b2d4c60d" target="_top" xlink:title=" ">
<polygon fill="white" stroke="#666666" points="316,-73 171,-73 171,-43 316,-43 316,-73"/>
<text text-anchor="start" x="179" y="-61" font-family="Helvetica,sans-Serif" font-size="10.00">netspeak::invertedindex</text>
<text text-anchor="middle" x="243.5" y="-50" font-family="Helvetica,sans-Serif" font-size="10.00">::Searcher::search_postlist</text>
</a>
</g>
</g>
<!-- Node1&#45;&gt;Node2 -->
<g id="edge1_Node000001_Node000002" class="edge">
<title>Node1&#45;&gt;Node2</title>
<g id="a_edge1_Node000001_Node000002"><a xlink:title=" ">
<path fill="none" stroke="#63b8ff" d="M135.28,-58C143.68,-58 152.35,-58 160.95,-58"/>
<polygon fill="#63b8ff" stroke="#63b8ff" points="160.99,-61.5 170.99,-58 160.99,-54.5 160.99,-61.5"/>
</a>
</g>
</g>
<!-- Node3 -->
<g id="Node000003" class="node">
<title>Node3</title>
<g id="a_Node000003"><a xlink:href="namespacenetspeak_1_1util.html#ad2441a387c3a4c47e09c373e9412fad0" target="_top" xlink:title=" ">
<polygon fill="white" stroke="#666666" points="456,-67.5 352,-67.5 352,-48.5 456,-48.5 456,-67.5"/>
<text text-anchor="middle" x="404" y="-55.5" font-family="Helvetica,sans-Serif" font-size="10.00">netspeak::util::log</text>
</a>
</g>
</g>
<!-- Node2&#45;&gt;Node3 -->
<g id="edge2_Node000002_Node000003" class="edge">
<title>Node2&#45;&gt;Node3</title>
<g id="a_edge2_Node000002_Node000003"><a xlink:title=" ">
<path fill="none" stroke="#63b8ff" d="M316.33,-58C324.83,-58 333.45,-58 341.78,-58"/>
<polygon fill="#63b8ff" stroke="#63b8ff" points="341.79,-61.5 351.79,-58 341.79,-54.5 341.79,-61.5"/>
</a>
</g>
</g>
<!-- Node4 -->
<g id="Node000004" class="node">
<title>Node4</title>
<g id="a_Node000004"><a xlink:href="namespacenetspeak_1_1util.html#ab27a22c787271513007af0719b17cef9" target="_top" xlink:title=" ">
<polygon fill="white" stroke="#666666" points="600.5,-116 495.5,-116 495.5,-86 600.5,-86 600.5,-116"/>
<text text-anchor="start" x="503.5" y="-104" font-family="Helvetica,sans-Serif" font-size="10.00">netspeak::util::get</text>
<text text-anchor="middle" x="548" y="-93" font-family="Helvetica,sans-Serif" font-size="10.00">_log_mutex</text>
</a>
</g>
</g>
<!-- Node3&#45;&gt;Node4 -->
<g id="edge3_Node000003_Node000004" class="edge">
<title>Node3&#45;&gt;Node4</title>
<g id="a_edge3_Node000003_Node000004"><a xlink:title=" ">
<path fill="none" stroke="#63b8ff" d="M436.51,-67.54C451.61,-72.12 470.2,-77.74 487.8,-83.07"/>
<polygon fill="#63b8ff" stroke="#63b8ff" points="486.86,-86.45 497.44,-85.99 488.89,-79.75 486.86,-86.45"/>
</a>
</g>
</g>
<!-- Node5 -->
<g id="Node000005" class="node">
<title>Node5</title>
<g id="a_Node000005"><a xlink:href="namespacenetspeak_1_1util.html#a4c91ad572508b4021399ac7dddff574d" target="_top" xlink:title=" ">
<polygon fill="white" stroke="#666666" points="753,-45.5 640,-45.5 640,-26.5 753,-26.5 753,-45.5"/>
<text text-anchor="middle" x="696.5" y="-33.5" font-family="Helvetica,sans-Serif" font-size="10.00">netspeak::util::hash</text>
</a>
</g>
</g>
<!-- Node3&#45;&gt;Node5 -->
<g id="edge4_Node000003_Node000005" class="edge">
<title>Node3&#45;&gt;Node5</title>
<g id="a_edge4_Node000003_Node000005"><a xlink:title=" ">
<path fill="none" stroke="#63b8ff" d="M456.27,-54.12C504.52,-50.46 577.03,-44.97 629.57,-40.99"/>
<polygon fill="#63b8ff" stroke="#63b8ff" points="630.09,-44.46 639.79,-40.22 629.56,-37.48 630.09,-44.46"/>
</a>
</g>
</g>
<!-- Node6 -->
<g id="Node000006" class="node">
<title>Node6</title>
<g id="a_Node000006"><a xlink:href="namespacenetspeak_1_1util.html#a93e18aaa529a497b6afdf4b3bd221182" target="_top" xlink:title=" ">
<polygon fill="white" stroke="#666666" points="604,-30 492,-30 492,0 604,0 604,-30"/>
<text text-anchor="start" x="500" y="-18" font-family="Helvetica,sans-Serif" font-size="10.00">netspeak::util::print</text>
<text text-anchor="middle" x="548" y="-7" font-family="Helvetica,sans-Serif" font-size="10.00">_timestamp_to</text>
</a>
</g>
</g>
<!-- Node3&#45;&gt;Node6 -->
<g id="edge5_Node000003_Node000006" class="edge">
<title>Node3&#45;&gt;Node6</title>
<g id="a_edge5_Node000003_Node000006"><a xlink:title=" ">
<path fill="none" stroke="#63b8ff" d="M436.51,-48.46C451.61,-43.88 470.2,-38.26 487.8,-32.93"/>
<polygon fill="#63b8ff" stroke="#63b8ff" points="488.89,-36.25 497.44,-30.01 486.86,-29.55 488.89,-36.25"/>
</a>
</g>
</g>
<!-- Node6&#45;&gt;Node5 -->
<g id="edge6_Node000006_Node000005" class="edge">
<title>Node6&#45;&gt;Node5</title>
<g id="a_edge6_Node000006_Node000005"><a xlink:title=" ">
<path fill="none" stroke="#63b8ff" d="M604.39,-22.94C612.57,-24.11 621.06,-25.33 629.43,-26.53"/>
<polygon fill="#63b8ff" stroke="#63b8ff" points="629.15,-30.03 639.55,-27.98 630.15,-23.1 629.15,-30.03"/>
</a>
</g>
</g>
</g>
</svg>
