<?xml version="1.0" encoding="UTF-8" standalone="no"?>
<!DOCTYPE svg PUBLIC "-//W3C//DTD SVG 1.1//EN"
 "http://www.w3.org/Graphics/SVG/1.1/DTD/svg11.dtd">
<!-- Generated by graphviz version 2.43.0 (0)
 -->
<!-- Title: netspeak::SimpleQueryOptimizer::optimize Pages: 1 -->
<svg width="1465pt" height="363pt"
 viewBox="0.00 0.00 1465.00 363.19" xmlns="http://www.w3.org/2000/svg" xmlns:xlink="http://www.w3.org/1999/xlink">
<g id="graph0" class="graph" transform="scale(1 1) rotate(0) translate(4 359.19)">
<title>netspeak::SimpleQueryOptimizer::optimize</title>
<!-- Node1 -->
<g id="Node000001" class="node">
<title>Node1</title>
<g id="a_Node000001"><a xlink:title=" ">
<polygon fill="#999999" stroke="#666666" points="179,-107.84 0,-107.84 0,-77.84 179,-77.84 179,-107.84"/>
<text text-anchor="start" x="8" y="-95.84" font-family="Helvetica,sans-Serif" font-size="10.00">netspeak::SimpleQueryOptimizer</text>
<text text-anchor="middle" x="89.5" y="-84.84" font-family="Helvetica,sans-Serif" font-size="10.00">::optimize</text>
</a>
</g>
</g>
<!-- Node2 -->
<g id="Node000002" class="node">
<title>Node2</title>
<g id="a_Node000002"><a xlink:href="classnetspeak_1_1SimpleQueryOptimizer.html#a0a56e07cb81afd1e5893bc469342b0b2" target="_top" xlink:title=" ">
<polygon fill="white" stroke="#666666" points="394,-131.84 215,-131.84 215,-101.84 394,-101.84 394,-131.84"/>
<text text-anchor="start" x="223" y="-119.84" font-family="Helvetica,sans-Serif" font-size="10.00">netspeak::SimpleQueryOptimizer</text>
<text text-anchor="middle" x="304.5" y="-108.84" font-family="Helvetica,sans-Serif" font-size="10.00">::optimize_simple_children</text>
</a>
</g>
</g>
<!-- Node1&#45;&gt;Node2 -->
<g id="edge1_Node000001_Node000002" class="edge">
<title>Node1&#45;&gt;Node2</title>
<g id="a_edge1_Node000001_Node000002"><a xlink:title=" ">
<path fill="none" stroke="#63b8ff" d="M179.29,-102.84C187.74,-103.79 196.34,-104.76 204.88,-105.72"/>
<polygon fill="#63b8ff" stroke="#63b8ff" points="204.53,-109.21 214.86,-106.85 205.31,-102.25 204.53,-109.21"/>
</a>
</g>
</g>
<!-- Node16 -->
<g id="Node000016" class="node">
<title>Node16</title>
<g id="a_Node000016"><a xlink:href="classnetspeak_1_1model_1_1SimpleQuery.html#aacd9450bbdddc1274a461e21075335db" target="_top" xlink:title=" ">
<polygon fill="white" stroke="#666666" points="388,-83.84 221,-83.84 221,-53.84 388,-53.84 388,-83.84"/>
<text text-anchor="start" x="229" y="-71.84" font-family="Helvetica,sans-Serif" font-size="10.00">netspeak::model::SimpleQuery</text>
<text text-anchor="middle" x="304.5" y="-60.84" font-family="Helvetica,sans-Serif" font-size="10.00">::root</text>
</a>
</g>
</g>
<!-- Node1&#45;&gt;Node16 -->
<g id="edge24_Node000001_Node000016" class="edge">
<title>Node1&#45;&gt;Node16</title>
<g id="a_edge24_Node000001_Node000016"><a xlink:title=" ">
<path fill="none" stroke="#63b8ff" d="M179.29,-82.83C189.76,-81.65 200.46,-80.45 210.97,-79.26"/>
<polygon fill="#63b8ff" stroke="#63b8ff" points="211.44,-82.73 220.99,-78.13 210.66,-75.77 211.44,-82.73"/>
</a>
</g>
</g>
<!-- Node3 -->
<g id="Node000003" class="node">
<title>Node3</title>
<g id="a_Node000003"><a xlink:href="classnetspeak_1_1model_1_1SimpleQueryUnit____.html#a8840caeb703398accd6bf417b0b1ae8e" target="_top" xlink:title=" ">
<polygon fill="white" stroke="#666666" points="1457,-231.84 1290,-231.84 1290,-201.84 1457,-201.84 1457,-231.84"/>
<text text-anchor="start" x="1298" y="-219.84" font-family="Helvetica,sans-Serif" font-size="10.00">netspeak::model::SimpleQuery</text>
<text text-anchor="middle" x="1373.5" y="-208.84" font-family="Helvetica,sans-Serif" font-size="10.00">Unit__::children</text>
</a>
</g>
</g>
<!-- Node2&#45;&gt;Node3 -->
<g id="edge2_Node000002_Node000003" class="edge">
<title>Node2&#45;&gt;Node3</title>
<g id="a_edge2_Node000002_Node000003"><a xlink:title=" ">
<path fill="none" stroke="#63b8ff" d="M363.65,-101.79C476.28,-72.76 714.85,-11.84 733.5,-11.84 733.5,-11.84 733.5,-11.84 950.5,-11.84 1086,-11.84 1137.55,28.45 1254,-40.84 1312.82,-75.84 1348.69,-152.76 1363.93,-192.3"/>
<polygon fill="#63b8ff" stroke="#63b8ff" points="1360.67,-193.58 1367.44,-201.73 1367.23,-191.13 1360.67,-193.58"/>
</a>
</g>
</g>
<!-- Node4 -->
<g id="Node000004" class="node">
<title>Node4</title>
<g id="a_Node000004"><a xlink:href="classnetspeak_1_1SimpleQueryOptimizer.html#a6df1cdcea41d9914bb1063642d615bdf" target="_top" xlink:title=" ">
<polygon fill="white" stroke="#666666" points="609,-153.84 430,-153.84 430,-123.84 609,-123.84 609,-153.84"/>
<text text-anchor="start" x="438" y="-141.84" font-family="Helvetica,sans-Serif" font-size="10.00">netspeak::SimpleQueryOptimizer</text>
<text text-anchor="middle" x="519.5" y="-130.84" font-family="Helvetica,sans-Serif" font-size="10.00">::optimize_simple_unit</text>
</a>
</g>
</g>
<!-- Node2&#45;&gt;Node4 -->
<g id="edge3_Node000002_Node000004" class="edge">
<title>Node2&#45;&gt;Node4</title>
<g id="a_edge3_Node000002_Node000004"><a xlink:title=" ">
<path fill="none" stroke="#63b8ff" d="M394.29,-126.01C402.74,-126.88 411.34,-127.77 419.88,-128.65"/>
<polygon fill="#63b8ff" stroke="#63b8ff" points="419.55,-132.13 429.86,-129.68 420.27,-125.17 419.55,-132.13"/>
</a>
</g>
</g>
<!-- Node5 -->
<g id="Node000005" class="node">
<title>Node5</title>
<g id="a_Node000005"><a xlink:href="classnetspeak_1_1SimpleQueryOptimizer.html#a55c4015de0d1fa34754beb52f95119f6" target="_top" xlink:title=" ">
<polygon fill="white" stroke="#666666" points="824,-107.84 645,-107.84 645,-77.84 824,-77.84 824,-107.84"/>
<text text-anchor="start" x="653" y="-95.84" font-family="Helvetica,sans-Serif" font-size="10.00">netspeak::SimpleQueryOptimizer</text>
<text text-anchor="middle" x="734.5" y="-84.84" font-family="Helvetica,sans-Serif" font-size="10.00">::optimize_simple_alt</text>
</a>
</g>
</g>
<!-- Node4&#45;&gt;Node5 -->
<g id="edge4_Node000004_Node000005" class="edge">
<title>Node4&#45;&gt;Node5</title>
<g id="a_edge4_Node000004_Node000005"><a xlink:title=" ">
<path fill="none" stroke="#63b8ff" d="M590.24,-123.77C610.67,-119.36 633.15,-114.51 654.12,-109.98"/>
<polygon fill="#63b8ff" stroke="#63b8ff" points="654.93,-113.39 663.96,-107.85 653.45,-106.54 654.93,-113.39"/>
</a>
</g>
</g>
<!-- Node11 -->
<g id="Node000011" class="node">
<title>Node11</title>
<g id="a_Node000011"><a xlink:href="classnetspeak_1_1SimpleQueryOptimizer.html#a1ef947a07a36069a5be13d260b518350" target="_top" xlink:title=" ">
<polygon fill="white" stroke="#666666" points="824,-203.84 645,-203.84 645,-173.84 824,-173.84 824,-203.84"/>
<text text-anchor="start" x="653" y="-191.84" font-family="Helvetica,sans-Serif" font-size="10.00">netspeak::SimpleQueryOptimizer</text>
<text text-anchor="middle" x="734.5" y="-180.84" font-family="Helvetica,sans-Serif" font-size="10.00">::optimize_simple_concat</text>
</a>
</g>
</g>
<!-- Node4&#45;&gt;Node11 -->
<g id="edge13_Node000004_Node000011" class="edge">
<title>Node4&#45;&gt;Node11</title>
<g id="a_edge13_Node000004_Node000011"><a xlink:title=" ">
<path fill="none" stroke="#63b8ff" d="M584.41,-153.84C607.99,-159.37 634.92,-165.69 659.34,-171.43"/>
<polygon fill="#63b8ff" stroke="#63b8ff" points="658.74,-174.88 669.27,-173.76 660.33,-168.07 658.74,-174.88"/>
</a>
</g>
</g>
<!-- Node15 -->
<g id="Node000015" class="node">
<title>Node15</title>
<g id="a_Node000015"><a xlink:href="classnetspeak_1_1model_1_1SimpleQueryUnit____.html#a06c21084859addaa75c754815d691d39" target="_top" xlink:title=" ">
<polygon fill="white" stroke="#666666" points="818,-155.84 651,-155.84 651,-125.84 818,-125.84 818,-155.84"/>
<text text-anchor="start" x="659" y="-143.84" font-family="Helvetica,sans-Serif" font-size="10.00">netspeak::model::SimpleQuery</text>
<text text-anchor="middle" x="734.5" y="-132.84" font-family="Helvetica,sans-Serif" font-size="10.00">Unit__::tag</text>
</a>
</g>
</g>
<!-- Node4&#45;&gt;Node15 -->
<g id="edge23_Node000004_Node000015" class="edge">
<title>Node4&#45;&gt;Node15</title>
<g id="a_edge23_Node000004_Node000015"><a xlink:title=" ">
<path fill="none" stroke="#63b8ff" d="M609.29,-139.67C619.76,-139.77 630.46,-139.87 640.97,-139.97"/>
<polygon fill="#63b8ff" stroke="#63b8ff" points="640.95,-143.47 650.99,-140.06 641.02,-136.47 640.95,-143.47"/>
</a>
</g>
</g>
<!-- Node5&#45;&gt;Node2 -->
<g id="edge11_Node000005_Node000002" class="edge">
<title>Node5&#45;&gt;Node2</title>
<g id="a_edge11_Node000005_Node000002"><a xlink:title=" ">
<path fill="none" stroke="#63b8ff" d="M644.93,-97.8C574.81,-101.73 476.91,-107.22 404.26,-111.3"/>
<polygon fill="#63b8ff" stroke="#63b8ff" points="403.97,-107.81 394.18,-111.86 404.36,-114.8 403.97,-107.81"/>
</a>
</g>
</g>
<!-- Node5&#45;&gt;Node3 -->
<g id="edge5_Node000005_Node000003" class="edge">
<title>Node5&#45;&gt;Node3</title>
<g id="a_edge5_Node000005_Node000003"><a xlink:title=" ">
<path fill="none" stroke="#63b8ff" d="M787.07,-77.82C884.27,-52.55 1098.77,-11.32 1254,-87.84 1301.46,-111.23 1339.15,-162.42 1358.42,-192.81"/>
<polygon fill="#63b8ff" stroke="#63b8ff" points="1355.57,-194.85 1363.8,-201.52 1361.53,-191.17 1355.57,-194.85"/>
</a>
</g>
</g>
<!-- Node6 -->
<g id="Node000006" class="node">
<title>Node6</title>
<g id="a_Node000006"><a xlink:href="classnetspeak_1_1SimpleQueryOptimizer.html#a90004a090dc4838d5a696e0f3c9cb2be" target="_top" xlink:title=" ">
<polygon fill="white" stroke="#666666" points="1039,-155.84 860,-155.84 860,-125.84 1039,-125.84 1039,-155.84"/>
<text text-anchor="start" x="868" y="-143.84" font-family="Helvetica,sans-Serif" font-size="10.00">netspeak::SimpleQueryOptimizer</text>
<text text-anchor="middle" x="949.5" y="-132.84" font-family="Helvetica,sans-Serif" font-size="10.00">::inline_nested</text>
</a>
</g>
</g>
<!-- Node5&#45;&gt;Node6 -->
<g id="edge6_Node000005_Node000006" class="edge">
<title>Node5&#45;&gt;Node6</title>
<g id="a_edge6_Node000005_Node000006"><a xlink:title=" ">
<path fill="none" stroke="#63b8ff" d="M802.31,-107.89C824.42,-112.87 849.18,-118.45 871.96,-123.59"/>
<polygon fill="#63b8ff" stroke="#63b8ff" points="871.4,-127.05 881.93,-125.83 872.94,-120.22 871.4,-127.05"/>
</a>
</g>
</g>
<!-- Node10 -->
<g id="Node000010" class="node">
<title>Node10</title>
<g id="a_Node000010"><a xlink:href="classnetspeak_1_1model_1_1SimpleQueryUnit____.html#a3e3899b5df64bb59fc7f0b2e205382f6" target="_top" xlink:title=" ">
<polygon fill="white" stroke="#666666" points="1033,-107.84 866,-107.84 866,-77.84 1033,-77.84 1033,-107.84"/>
<text text-anchor="start" x="874" y="-95.84" font-family="Helvetica,sans-Serif" font-size="10.00">netspeak::model::SimpleQuery</text>
<text text-anchor="middle" x="949.5" y="-84.84" font-family="Helvetica,sans-Serif" font-size="10.00">Unit__::pop_back</text>
</a>
</g>
</g>
<!-- Node5&#45;&gt;Node10 -->
<g id="edge12_Node000005_Node000010" class="edge">
<title>Node5&#45;&gt;Node10</title>
<g id="a_edge12_Node000005_Node000010"><a xlink:title=" ">
<path fill="none" stroke="#63b8ff" d="M824.29,-92.84C834.76,-92.84 845.46,-92.84 855.97,-92.84"/>
<polygon fill="#63b8ff" stroke="#63b8ff" points="855.99,-96.34 865.99,-92.84 855.99,-89.34 855.99,-96.34"/>
</a>
</g>
</g>
<!-- Node7 -->
<g id="Node000007" class="node">
<title>Node7</title>
<g id="a_Node000007"><a xlink:href="classnetspeak_1_1model_1_1SimpleQueryUnit____.html#a9ae973c7bcbb9faa098c64327bad3073" target="_top" xlink:title=" ">
<polygon fill="white" stroke="#666666" points="1248,-174.84 1081,-174.84 1081,-144.84 1248,-144.84 1248,-174.84"/>
<text text-anchor="start" x="1089" y="-162.84" font-family="Helvetica,sans-Serif" font-size="10.00">netspeak::model::SimpleQuery</text>
<text text-anchor="middle" x="1164.5" y="-151.84" font-family="Helvetica,sans-Serif" font-size="10.00">Unit__::add_child</text>
</a>
</g>
</g>
<!-- Node6&#45;&gt;Node7 -->
<g id="edge7_Node000006_Node000007" class="edge">
<title>Node6&#45;&gt;Node7</title>
<g id="a_edge7_Node000006_Node000007"><a xlink:title=" ">
<path fill="none" stroke="#63b8ff" d="M1039.29,-148.76C1049.76,-149.69 1060.46,-150.64 1070.97,-151.58"/>
<polygon fill="#63b8ff" stroke="#63b8ff" points="1070.72,-155.07 1080.99,-152.48 1071.34,-148.1 1070.72,-155.07"/>
</a>
</g>
</g>
<!-- Node8 -->
<g id="Node000008" class="node">
<title>Node8</title>
<g id="a_Node000008"><a xlink:href="classnetspeak_1_1SimpleQueryOptimizer.html#a77d726b94a9d80c743c3b5546aab766f" target="_top" xlink:title=" ">
<polygon fill="white" stroke="#666666" points="1254,-231.84 1075,-231.84 1075,-201.84 1254,-201.84 1254,-231.84"/>
<text text-anchor="start" x="1083" y="-219.84" font-family="Helvetica,sans-Serif" font-size="10.00">netspeak::SimpleQueryOptimizer</text>
<text text-anchor="middle" x="1164.5" y="-208.84" font-family="Helvetica,sans-Serif" font-size="10.00">::contains_child</text>
</a>
</g>
</g>
<!-- Node6&#45;&gt;Node8 -->
<g id="edge8_Node000006_Node000008" class="edge">
<title>Node6&#45;&gt;Node8</title>
<g id="a_edge8_Node000006_Node000008"><a xlink:title=" ">
<path fill="none" stroke="#63b8ff" d="M1012.96,-155.91C1021.8,-158.58 1030.71,-161.57 1039,-164.84 1055.83,-171.47 1058.49,-176.44 1075,-183.84 1086.22,-188.86 1098.47,-193.78 1110.17,-198.22"/>
<polygon fill="#63b8ff" stroke="#63b8ff" points="1109.24,-201.61 1119.84,-201.82 1111.69,-195.05 1109.24,-201.61"/>
</a>
</g>
</g>
<!-- Node9 -->
<g id="Node000009" class="node">
<title>Node9</title>
<g id="a_Node000009"><a xlink:href="classnetspeak_1_1model_1_1SimpleQueryUnit____.html#aa0ce1e648305547379b806a24111e7a0" target="_top" xlink:title=" ">
<polygon fill="white" stroke="#666666" points="1248,-126.84 1081,-126.84 1081,-96.84 1248,-96.84 1248,-126.84"/>
<text text-anchor="start" x="1089" y="-114.84" font-family="Helvetica,sans-Serif" font-size="10.00">netspeak::model::SimpleQuery</text>
<text text-anchor="middle" x="1164.5" y="-103.84" font-family="Helvetica,sans-Serif" font-size="10.00">Unit__::drain_children</text>
</a>
</g>
</g>
<!-- Node6&#45;&gt;Node9 -->
<g id="edge10_Node000006_Node000009" class="edge">
<title>Node6&#45;&gt;Node9</title>
<g id="a_edge10_Node000006_Node000009"><a xlink:title=" ">
<path fill="none" stroke="#63b8ff" d="M1039.29,-128.75C1049.76,-127.32 1060.46,-125.86 1070.97,-124.43"/>
<polygon fill="#63b8ff" stroke="#63b8ff" points="1071.55,-127.89 1080.99,-123.07 1070.61,-120.95 1071.55,-127.89"/>
</a>
</g>
</g>
<!-- Node8&#45;&gt;Node3 -->
<g id="edge9_Node000008_Node000003" class="edge">
<title>Node8&#45;&gt;Node3</title>
<g id="a_edge9_Node000008_Node000003"><a xlink:title=" ">
<path fill="none" stroke="#63b8ff" d="M1254.19,-216.84C1262.61,-216.84 1271.17,-216.84 1279.64,-216.84"/>
<polygon fill="#63b8ff" stroke="#63b8ff" points="1279.9,-220.34 1289.9,-216.84 1279.9,-213.34 1279.9,-220.34"/>
</a>
</g>
</g>
<!-- Node11&#45;&gt;Node2 -->
<g id="edge21_Node000011_Node000002" class="edge">
<title>Node11&#45;&gt;Node2</title>
<g id="a_edge21_Node000011_Node000002"><a xlink:title=" ">
<path fill="none" stroke="#63b8ff" d="M644.9,-187.49C583.85,-185.05 501.23,-178.74 430,-162.84 402.03,-156.59 371.85,-145.56 348.22,-135.86"/>
<polygon fill="#63b8ff" stroke="#63b8ff" points="349.42,-132.57 338.84,-131.95 346.72,-139.03 349.42,-132.57"/>
</a>
</g>
</g>
<!-- Node11&#45;&gt;Node3 -->
<g id="edge14_Node000011_Node000003" class="edge">
<title>Node11&#45;&gt;Node3</title>
<g id="a_edge14_Node000011_Node000003"><a xlink:title=" ">
<path fill="none" stroke="#63b8ff" d="M772.41,-203.88C796.83,-213.1 829.8,-224.2 860,-229.84 1032.2,-261.99 1079.69,-258.31 1254,-240.84 1269.08,-239.32 1285.07,-236.76 1300.27,-233.85"/>
<polygon fill="#63b8ff" stroke="#63b8ff" points="1301,-237.27 1310.13,-231.9 1299.64,-230.41 1301,-237.27"/>
</a>
</g>
</g>
<!-- Node11&#45;&gt;Node6 -->
<g id="edge19_Node000011_Node000006" class="edge">
<title>Node11&#45;&gt;Node6</title>
<g id="a_edge19_Node000011_Node000006"><a xlink:title=" ">
<path fill="none" stroke="#63b8ff" d="M802.31,-173.78C824.42,-168.8 849.18,-163.22 871.96,-158.08"/>
<polygon fill="#63b8ff" stroke="#63b8ff" points="872.94,-161.45 881.93,-155.84 871.4,-154.62 872.94,-161.45"/>
</a>
</g>
</g>
<!-- Node11&#45;&gt;Node8 -->
<g id="edge18_Node000011_Node000008" class="edge">
<title>Node11&#45;&gt;Node8</title>
<g id="a_edge18_Node000011_Node000008"><a xlink:title=" ">
<path fill="none" stroke="#63b8ff" d="M801.73,-203.86C820.47,-207.49 840.95,-210.89 860,-212.84 928.14,-219.8 1005.33,-220.72 1064.81,-219.94"/>
<polygon fill="#63b8ff" stroke="#63b8ff" points="1065,-223.44 1074.95,-219.79 1064.9,-216.44 1065,-223.44"/>
</a>
</g>
</g>
<!-- Node11&#45;&gt;Node10 -->
<g id="edge22_Node000011_Node000010" class="edge">
<title>Node11&#45;&gt;Node10</title>
<g id="a_edge22_Node000011_Node000010"><a xlink:title=" ">
<path fill="none" stroke="#63b8ff" d="M807.84,-173.65C813.52,-171.15 818.99,-168.23 824,-164.84 846.07,-149.87 837.93,-131.81 860,-116.84 862.27,-115.3 864.63,-113.86 867.07,-112.51"/>
<polygon fill="#63b8ff" stroke="#63b8ff" points="868.74,-115.58 876.16,-108.02 865.65,-109.31 868.74,-115.58"/>
</a>
</g>
</g>
<!-- Node12 -->
<g id="Node000012" class="node">
<title>Node12</title>
<g id="a_Node000012"><a xlink:href="classnetspeak_1_1SimpleQueryOptimizer.html#a2fd2078d6604e20582903f7a41430e16" target="_top" xlink:title=" ">
<polygon fill="white" stroke="#666666" points="1039,-327.84 860,-327.84 860,-297.84 1039,-297.84 1039,-327.84"/>
<text text-anchor="start" x="868" y="-315.84" font-family="Helvetica,sans-Serif" font-size="10.00">netspeak::SimpleQueryOptimizer</text>
<text text-anchor="middle" x="949.5" y="-304.84" font-family="Helvetica,sans-Serif" font-size="10.00">::concat_star_optimization</text>
</a>
</g>
</g>
<!-- Node11&#45;&gt;Node12 -->
<g id="edge15_Node000011_Node000012" class="edge">
<title>Node11&#45;&gt;Node12</title>
<g id="a_edge15_Node000011_Node000012"><a xlink:title=" ">
<path fill="none" stroke="#63b8ff" d="M751.58,-203.99C774.2,-224.59 817.41,-261.43 860,-283.84 867.41,-287.73 875.43,-291.24 883.53,-294.35"/>
<polygon fill="#63b8ff" stroke="#63b8ff" points="882.44,-297.68 893.03,-297.83 884.84,-291.1 882.44,-297.68"/>
</a>
</g>
</g>
<!-- Node14 -->
<g id="Node000014" class="node">
<title>Node14</title>
<g id="a_Node000014"><a xlink:href="classnetspeak_1_1model_1_1SimpleQueryUnit____.html#a3080baa4a48b461ec365cec8f3aa967c" target="_top" xlink:title=" ">
<polygon fill="white" stroke="#666666" points="1033,-203.84 866,-203.84 866,-173.84 1033,-173.84 1033,-203.84"/>
<text text-anchor="start" x="874" y="-191.84" font-family="Helvetica,sans-Serif" font-size="10.00">netspeak::model::SimpleQuery</text>
<text text-anchor="middle" x="949.5" y="-180.84" font-family="Helvetica,sans-Serif" font-size="10.00">Unit__::new_alternation</text>
</a>
</g>
</g>
<!-- Node11&#45;&gt;Node14 -->
<g id="edge20_Node000011_Node000014" class="edge">
<title>Node11&#45;&gt;Node14</title>
<g id="a_edge20_Node000011_Node000014"><a xlink:title=" ">
<path fill="none" stroke="#63b8ff" d="M824.29,-188.84C834.76,-188.84 845.46,-188.84 855.97,-188.84"/>
<polygon fill="#63b8ff" stroke="#63b8ff" points="855.99,-192.34 865.99,-188.84 855.99,-185.34 855.99,-192.34"/>
</a>
</g>
</g>
<!-- Node12&#45;&gt;Node3 -->
<g id="edge16_Node000012_Node000003" class="edge">
<title>Node12&#45;&gt;Node3</title>
<g id="a_edge16_Node000012_Node000003"><a xlink:title=" ">
<path fill="none" stroke="#63b8ff" d="M992.41,-327.86C1052.79,-346.97 1166.58,-373.37 1254,-336.84 1300.56,-317.38 1338.14,-269.73 1357.72,-240.67"/>
<polygon fill="#63b8ff" stroke="#63b8ff" points="1360.89,-242.23 1363.44,-231.95 1355.03,-238.39 1360.89,-242.23"/>
</a>
</g>
</g>
<!-- Node13 -->
<g id="Node000013" class="node">
<title>Node13</title>
<g id="a_Node000013"><a xlink:href="classnetspeak_1_1model_1_1SimpleQueryUnit____.html#a52b4f019ead669f1bb9bcfe122a8ae79" target="_top" xlink:title=" ">
<polygon fill="white" stroke="#666666" points="1248,-327.84 1081,-327.84 1081,-297.84 1248,-297.84 1248,-327.84"/>
<text text-anchor="start" x="1089" y="-315.84" font-family="Helvetica,sans-Serif" font-size="10.00">netspeak::model::SimpleQuery</text>
<text text-anchor="middle" x="1164.5" y="-304.84" font-family="Helvetica,sans-Serif" font-size="10.00">Unit__::remove_child</text>
</a>
</g>
</g>
<!-- Node12&#45;&gt;Node13 -->
<g id="edge17_Node000012_Node000013" class="edge">
<title>Node12&#45;&gt;Node13</title>
<g id="a_edge17_Node000012_Node000013"><a xlink:title=" ">
<path fill="none" stroke="#63b8ff" d="M1039.29,-312.84C1049.76,-312.84 1060.46,-312.84 1070.97,-312.84"/>
<polygon fill="#63b8ff" stroke="#63b8ff" points="1070.99,-316.34 1080.99,-312.84 1070.99,-309.34 1070.99,-316.34"/>
</a>
</g>
</g>
</g>
</svg>
