<?xml version="1.0" encoding="UTF-8" standalone="no"?>
<!DOCTYPE svg PUBLIC "-//W3C//DTD SVG 1.1//EN"
 "http://www.w3.org/Graphics/SVG/1.1/DTD/svg11.dtd">
<!-- Generated by graphviz version 2.43.0 (0)
 -->
<!-- Title: netspeak::value::pair::e2 Pages: 1 -->
<svg width="1088pt" height="1025pt"
 viewBox="0.00 0.00 1088.00 1025.00" xmlns="http://www.w3.org/2000/svg" xmlns:xlink="http://www.w3.org/1999/xlink">
<g id="graph0" class="graph" transform="scale(1 1) rotate(0) translate(4 1021)">
<title>netspeak::value::pair::e2</title>
<!-- Node1 -->
<g id="Node000001" class="node">
<title>Node1</title>
<g id="a_Node000001"><a xlink:title=" ">
<polygon fill="#999999" stroke="#666666" points="1080,-498 943,-498 943,-479 1080,-479 1080,-498"/>
<text text-anchor="middle" x="1011.5" y="-486" font-family="Helvetica,sans-Serif" font-size="10.00">netspeak::value::pair::e2</text>
</a>
</g>
</g>
<!-- Node2 -->
<g id="Node000002" class="node">
<title>Node2</title>
<g id="a_Node000002"><a xlink:href="classnetspeak_1_1bighashmap_1_1Builder.html#a333ad1bb51cee1f0177b6b631148a423" target="_top" xlink:title=" ">
<polygon fill="white" stroke="#666666" points="889,-976.5 751,-976.5 751,-946.5 889,-946.5 889,-976.5"/>
<text text-anchor="start" x="759" y="-964.5" font-family="Helvetica,sans-Serif" font-size="10.00">netspeak::bighashmap</text>
<text text-anchor="middle" x="820" y="-953.5" font-family="Helvetica,sans-Serif" font-size="10.00">::Builder::BuildHashTable</text>
</a>
</g>
</g>
<!-- Node1&#45;&gt;Node2 -->
<g id="edge1_Node000001_Node000002" class="edge">
<title>Node1&#45;&gt;Node2</title>
<g id="a_edge1_Node000001_Node000002"><a xlink:title=" ">
<path fill="none" stroke="#63b8ff" d="M1008.61,-508.17C1000.73,-586.32 967.97,-873.69 907,-937.5 901.97,-942.77 895.88,-946.91 889.3,-950.16"/>
<polygon fill="#63b8ff" stroke="#63b8ff" points="1012.1,-508.51 1009.6,-498.21 1005.13,-507.82 1012.1,-508.51"/>
</a>
</g>
</g>
<!-- Node11 -->
<g id="Node000011" class="node">
<title>Node11</title>
<g id="a_Node000011"><a xlink:href="structnetspeak_1_1value_1_1value__traits_3_01pair_3_01T1_00_01T2_01_4_01_4.html#a721174b04412492d05318a71112b2227" target="_top" xlink:title=" ">
<polygon fill="white" stroke="#666666" points="884,-928 756,-928 756,-887 884,-887 884,-928"/>
<text text-anchor="start" x="764" y="-916" font-family="Helvetica,sans-Serif" font-size="10.00">netspeak::value::value</text>
<text text-anchor="start" x="764" y="-905" font-family="Helvetica,sans-Serif" font-size="10.00">_traits&lt; pair&lt; T1, T2</text>
<text text-anchor="middle" x="820" y="-894" font-family="Helvetica,sans-Serif" font-size="10.00"> &gt; &gt;::copy_from</text>
</a>
</g>
</g>
<!-- Node1&#45;&gt;Node11 -->
<g id="edge10_Node000001_Node000011" class="edge">
<title>Node1&#45;&gt;Node11</title>
<g id="a_edge10_Node000001_Node000011"><a xlink:title=" ">
<path fill="none" stroke="#63b8ff" d="M1007.76,-508.2C997.49,-579.49 959.15,-822.8 907,-878.5 900.65,-885.29 892.65,-890.48 884.11,-894.47"/>
<polygon fill="#63b8ff" stroke="#63b8ff" points="1011.23,-508.68 1009.17,-498.29 1004.3,-507.7 1011.23,-508.68"/>
</a>
</g>
</g>
<!-- Node12 -->
<g id="Node000012" class="node">
<title>Node12</title>
<g id="a_Node000012"><a xlink:href="structnetspeak_1_1value_1_1value__traits_3_01pair_3_01T1_00_01T2_01_4_01_4.html#a0348a31a094f4817282cf9d8d4ecd839" target="_top" xlink:title=" ">
<polygon fill="white" stroke="#666666" points="884,-869 756,-869 756,-828 884,-828 884,-869"/>
<text text-anchor="start" x="764" y="-857" font-family="Helvetica,sans-Serif" font-size="10.00">netspeak::value::value</text>
<text text-anchor="start" x="764" y="-846" font-family="Helvetica,sans-Serif" font-size="10.00">_traits&lt; pair&lt; T1, T2</text>
<text text-anchor="middle" x="820" y="-835" font-family="Helvetica,sans-Serif" font-size="10.00"> &gt; &gt;::copy_to</text>
</a>
</g>
</g>
<!-- Node1&#45;&gt;Node12 -->
<g id="edge11_Node000001_Node000012" class="edge">
<title>Node1&#45;&gt;Node12</title>
<g id="a_edge11_Node000001_Node000012"><a xlink:title=" ">
<path fill="none" stroke="#63b8ff" d="M1010.16,-508.22C1008.12,-564.58 994.55,-728.13 907,-818.5 900.62,-825.09 892.71,-830.23 884.3,-834.24"/>
<polygon fill="#63b8ff" stroke="#63b8ff" points="1013.66,-508.24 1010.44,-498.15 1006.66,-508.05 1013.66,-508.24"/>
</a>
</g>
</g>
<!-- Node13 -->
<g id="Node000013" class="node">
<title>Node13</title>
<g id="a_Node000013"><a xlink:href="classnetspeak_1_1bighashmap_1_1ExternalMap.html#ab4c1b42fd3ea23b4bb6543f24d4fa062" target="_top" xlink:title=" ">
<polygon fill="white" stroke="#666666" points="884,-809.5 756,-809.5 756,-779.5 884,-779.5 884,-809.5"/>
<text text-anchor="start" x="764" y="-797.5" font-family="Helvetica,sans-Serif" font-size="10.00">netspeak::bighashmap</text>
<text text-anchor="middle" x="820" y="-786.5" font-family="Helvetica,sans-Serif" font-size="10.00">::ExternalMap::Get</text>
</a>
</g>
</g>
<!-- Node1&#45;&gt;Node13 -->
<g id="edge12_Node000001_Node000013" class="edge">
<title>Node1&#45;&gt;Node13</title>
<g id="a_edge12_Node000001_Node000013"><a xlink:title=" ">
<path fill="none" stroke="#63b8ff" d="M1009.23,-508.28C1004.84,-559.53 985.9,-697.64 907,-770.5 900.51,-776.49 892.64,-781.01 884.34,-784.41"/>
<polygon fill="#63b8ff" stroke="#63b8ff" points="1012.72,-508.45 1009.99,-498.21 1005.74,-507.92 1012.72,-508.45"/>
</a>
</g>
</g>
<!-- Node14 -->
<g id="Node000014" class="node">
<title>Node14</title>
<g id="a_Node000014"><a xlink:href="classnetspeak_1_1bighashmap_1_1InternalMap.html#af7547d2d66d8db1f2e9585ac049a414a" target="_top" xlink:title=" ">
<polygon fill="white" stroke="#666666" points="884,-761.5 756,-761.5 756,-731.5 884,-731.5 884,-761.5"/>
<text text-anchor="start" x="764" y="-749.5" font-family="Helvetica,sans-Serif" font-size="10.00">netspeak::bighashmap</text>
<text text-anchor="middle" x="820" y="-738.5" font-family="Helvetica,sans-Serif" font-size="10.00">::InternalMap::Get</text>
</a>
</g>
</g>
<!-- Node1&#45;&gt;Node14 -->
<g id="edge13_Node000001_Node000014" class="edge">
<title>Node1&#45;&gt;Node14</title>
<g id="a_edge13_Node000001_Node000014"><a xlink:title=" ">
<path fill="none" stroke="#63b8ff" d="M1007.57,-508.19C999.81,-553.18 974.51,-664.09 907,-722.5 900.44,-728.18 892.63,-732.52 884.43,-735.84"/>
<polygon fill="#63b8ff" stroke="#63b8ff" points="1011.03,-508.68 1009.18,-498.25 1004.12,-507.56 1011.03,-508.68"/>
</a>
</g>
</g>
<!-- Node15 -->
<g id="Node000015" class="node">
<title>Node15</title>
<g id="a_Node000015"><a xlink:href="structnetspeak_1_1index__entry__traits_3_01RetrievalStrategy3Tag_01_4.html#a06719339616b24cc3eeb5c4542277fcb" target="_top" xlink:title=" ">
<polygon fill="white" stroke="#666666" points="895,-713 745,-713 745,-672 895,-672 895,-713"/>
<text text-anchor="start" x="753" y="-701" font-family="Helvetica,sans-Serif" font-size="10.00">netspeak::index_entry</text>
<text text-anchor="start" x="753" y="-690" font-family="Helvetica,sans-Serif" font-size="10.00">_traits&lt; RetrievalStrategy3</text>
<text text-anchor="middle" x="820" y="-679" font-family="Helvetica,sans-Serif" font-size="10.00">Tag &gt;::get_phrase_id</text>
</a>
</g>
</g>
<!-- Node1&#45;&gt;Node15 -->
<g id="edge14_Node000001_Node000015" class="edge">
<title>Node1&#45;&gt;Node15</title>
<g id="a_edge14_Node000001_Node000015"><a xlink:title=" ">
<path fill="none" stroke="#63b8ff" d="M1003.97,-508.12C991.09,-543.9 959.05,-619.98 907,-662.5 902.71,-666 897.99,-669.11 893.03,-671.86"/>
<polygon fill="#63b8ff" stroke="#63b8ff" points="1007.38,-508.98 1007.35,-498.39 1000.76,-506.69 1007.38,-508.98"/>
</a>
</g>
</g>
<!-- Node16 -->
<g id="Node000016" class="node">
<title>Node16</title>
<g id="a_Node000016"><a xlink:href="structnetspeak_1_1value_1_1generator_3_01pair_3_01T1_00_01T2_01_4_01_4.html#a75e609f11748792ed009382b6b17dc62" target="_top" xlink:title=" ">
<polygon fill="white" stroke="#666666" points="903,-653.5 737,-653.5 737,-623.5 903,-623.5 903,-653.5"/>
<text text-anchor="start" x="745" y="-641.5" font-family="Helvetica,sans-Serif" font-size="10.00">netspeak::value::generator</text>
<text text-anchor="middle" x="820" y="-630.5" font-family="Helvetica,sans-Serif" font-size="10.00">&lt; pair&lt; T1, T2 &gt; &gt;::numbered</text>
</a>
</g>
</g>
<!-- Node1&#45;&gt;Node16 -->
<g id="edge15_Node000001_Node000016" class="edge">
<title>Node1&#45;&gt;Node16</title>
<g id="a_edge15_Node000001_Node000016"><a xlink:title=" ">
<path fill="none" stroke="#63b8ff" d="M1000.29,-507.09C984.15,-534.73 950.09,-586.41 907,-614.5 901.68,-617.97 895.85,-620.94 889.82,-623.49"/>
<polygon fill="#63b8ff" stroke="#63b8ff" points="1003.51,-508.5 1005.41,-498.08 997.43,-505.04 1003.51,-508.5"/>
</a>
</g>
</g>
<!-- Node17 -->
<g id="Node000017" class="node">
<title>Node17</title>
<g id="a_Node000017"><a xlink:href="namespacenetspeak_1_1value.html#a5fa241657b9bb5a5ee196b761952052c" target="_top" xlink:title=" ">
<polygon fill="white" stroke="#666666" points="899,-605 741,-605 741,-586 899,-586 899,-605"/>
<text text-anchor="middle" x="820" y="-593" font-family="Helvetica,sans-Serif" font-size="10.00">netspeak::value::operator==</text>
</a>
</g>
</g>
<!-- Node1&#45;&gt;Node17 -->
<g id="edge16_Node000001_Node000017" class="edge">
<title>Node1&#45;&gt;Node17</title>
<g id="a_edge16_Node000001_Node000017"><a xlink:title=" ">
<path fill="none" stroke="#63b8ff" d="M995.71,-505.67C977.12,-526.08 943.24,-559.62 907,-577.5 900.02,-580.94 892.41,-583.73 884.7,-585.98"/>
<polygon fill="#63b8ff" stroke="#63b8ff" points="998.45,-507.85 1002.48,-498.05 993.22,-503.2 998.45,-507.85"/>
</a>
</g>
</g>
<!-- Node18 -->
<g id="Node000018" class="node">
<title>Node18</title>
<g id="a_Node000018"><a xlink:href="structnetspeak_1_1value_1_1value__traits_3_01pair_3_01T1_00_01T2_01_4_01_4.html#ac8cdfbc2ef6dbec07338be8ca9918ca7" target="_top" xlink:title=" ">
<polygon fill="white" stroke="#666666" points="884,-568 756,-568 756,-527 884,-527 884,-568"/>
<text text-anchor="start" x="764" y="-556" font-family="Helvetica,sans-Serif" font-size="10.00">netspeak::value::value</text>
<text text-anchor="start" x="764" y="-545" font-family="Helvetica,sans-Serif" font-size="10.00">_traits&lt; pair&lt; T1, T2</text>
<text text-anchor="middle" x="820" y="-534" font-family="Helvetica,sans-Serif" font-size="10.00"> &gt; &gt;::parse_from</text>
</a>
</g>
</g>
<!-- Node1&#45;&gt;Node18 -->
<g id="edge17_Node000001_Node000018" class="edge">
<title>Node1&#45;&gt;Node18</title>
<g id="a_edge17_Node000001_Node000018"><a xlink:title=" ">
<path fill="none" stroke="#63b8ff" d="M969.77,-501.18C944.8,-508.96 912.31,-519.07 884.07,-527.86"/>
<polygon fill="#63b8ff" stroke="#63b8ff" points="971.12,-504.43 979.63,-498.11 969.04,-497.74 971.12,-504.43"/>
</a>
</g>
</g>
<!-- Node19 -->
<g id="Node000019" class="node">
<title>Node19</title>
<g id="a_Node000019"><a xlink:href="structnetspeak_1_1value_1_1value__traits_3_01pair_3_01T1_00_01T2_01_4_01_4.html#adb23d1d33e15bed03dd89f486b5748d9" target="_top" xlink:title=" ">
<polygon fill="white" stroke="#666666" points="884,-509 756,-509 756,-468 884,-468 884,-509"/>
<text text-anchor="start" x="764" y="-497" font-family="Helvetica,sans-Serif" font-size="10.00">netspeak::value::value</text>
<text text-anchor="start" x="764" y="-486" font-family="Helvetica,sans-Serif" font-size="10.00">_traits&lt; pair&lt; T1, T2</text>
<text text-anchor="middle" x="820" y="-475" font-family="Helvetica,sans-Serif" font-size="10.00"> &gt; &gt;::print_to</text>
</a>
</g>
</g>
<!-- Node1&#45;&gt;Node19 -->
<g id="edge18_Node000001_Node000019" class="edge">
<title>Node1&#45;&gt;Node19</title>
<g id="a_edge18_Node000001_Node000019"><a xlink:title=" ">
<path fill="none" stroke="#63b8ff" d="M932.44,-488.5C916.36,-488.5 899.62,-488.5 884.15,-488.5"/>
<polygon fill="#63b8ff" stroke="#63b8ff" points="932.89,-492 942.89,-488.5 932.89,-485 932.89,-492"/>
</a>
</g>
</g>
<!-- Node20 -->
<g id="Node000020" class="node">
<title>Node20</title>
<g id="a_Node000020"><a xlink:href="structnetspeak_1_1value_1_1generator_3_01pair_3_01T1_00_01T2_01_4_01_4.html#afb1bc8ed2888a89caf9fc3863d71ac42" target="_top" xlink:title=" ">
<polygon fill="white" stroke="#666666" points="907,-449.5 733,-449.5 733,-419.5 907,-419.5 907,-449.5"/>
<text text-anchor="start" x="741" y="-437.5" font-family="Helvetica,sans-Serif" font-size="10.00">netspeak::value::generator</text>
<text text-anchor="middle" x="820" y="-426.5" font-family="Helvetica,sans-Serif" font-size="10.00">&lt; pair&lt; T1, T2 &gt; &gt;::randomized</text>
</a>
</g>
</g>
<!-- Node1&#45;&gt;Node20 -->
<g id="edge19_Node000001_Node000020" class="edge">
<title>Node1&#45;&gt;Node20</title>
<g id="a_edge19_Node000001_Node000020"><a xlink:title=" ">
<path fill="none" stroke="#63b8ff" d="M967.24,-476.17C939.47,-468.26 903.23,-457.93 873.78,-449.54"/>
<polygon fill="#63b8ff" stroke="#63b8ff" points="966.48,-479.6 977.06,-478.97 968.4,-472.86 966.48,-479.6"/>
</a>
</g>
</g>
<!-- Node21 -->
<g id="Node000021" class="node">
<title>Node21</title>
<g id="a_Node000021"><a xlink:href="structnetspeak_1_1value_1_1value__traits_3_01pair_3_01T1_00_01T2_01_4_01_4.html#aa209e7a7cbde832df4307cada9ef2821" target="_top" xlink:title=" ">
<polygon fill="white" stroke="#666666" points="884,-401 756,-401 756,-360 884,-360 884,-401"/>
<text text-anchor="start" x="764" y="-389" font-family="Helvetica,sans-Serif" font-size="10.00">netspeak::value::value</text>
<text text-anchor="start" x="764" y="-378" font-family="Helvetica,sans-Serif" font-size="10.00">_traits&lt; pair&lt; T1, T2</text>
<text text-anchor="middle" x="820" y="-367" font-family="Helvetica,sans-Serif" font-size="10.00"> &gt; &gt;::read_from</text>
</a>
</g>
</g>
<!-- Node1&#45;&gt;Node21 -->
<g id="edge20_Node000001_Node000021" class="edge">
<title>Node1&#45;&gt;Node21</title>
<g id="a_edge20_Node000001_Node000021"><a xlink:title=" ">
<path fill="none" stroke="#63b8ff" d="M992.48,-472.14C972.72,-454.89 939.47,-427.85 907,-410.5 899.89,-406.7 892.2,-403.22 884.44,-400.09"/>
<polygon fill="#63b8ff" stroke="#63b8ff" points="990.28,-474.86 1000.08,-478.88 994.92,-469.62 990.28,-474.86"/>
</a>
</g>
</g>
<!-- Node22 -->
<g id="Node000022" class="node">
<title>Node22</title>
<g id="a_Node000022"><a xlink:href="classnetspeak_1_1invertedindex_1_1StorageReader.html#a9ea857eb693897e97ff1c454160edf32" target="_top" xlink:title=" ">
<polygon fill="white" stroke="#666666" points="895.5,-341.5 744.5,-341.5 744.5,-311.5 895.5,-311.5 895.5,-341.5"/>
<text text-anchor="start" x="752.5" y="-329.5" font-family="Helvetica,sans-Serif" font-size="10.00">netspeak::invertedindex</text>
<text text-anchor="middle" x="820" y="-318.5" font-family="Helvetica,sans-Serif" font-size="10.00">::StorageReader::ReadHead</text>
</a>
</g>
</g>
<!-- Node1&#45;&gt;Node22 -->
<g id="edge21_Node000001_Node000022" class="edge">
<title>Node1&#45;&gt;Node22</title>
<g id="a_edge21_Node000001_Node000022"><a xlink:title=" ">
<path fill="none" stroke="#63b8ff" d="M1001.33,-469.6C985.97,-439.95 952.23,-382.67 907,-351.5 901.37,-347.62 895.13,-344.33 888.66,-341.55"/>
<polygon fill="#63b8ff" stroke="#63b8ff" points="998.36,-471.49 1005.98,-478.85 1004.62,-468.34 998.36,-471.49"/>
</a>
</g>
</g>
<!-- Node23 -->
<g id="Node000023" class="node">
<title>Node23</title>
<g id="a_Node000023"><a xlink:href="classnetspeak_1_1invertedindex_1_1StorageReader.html#a529c086e636606ac8adc5a72abfe57f5" target="_top" xlink:title=" ">
<polygon fill="white" stroke="#666666" points="900.5,-293.5 739.5,-293.5 739.5,-263.5 900.5,-263.5 900.5,-293.5"/>
<text text-anchor="start" x="747.5" y="-281.5" font-family="Helvetica,sans-Serif" font-size="10.00">netspeak::invertedindex</text>
<text text-anchor="middle" x="820" y="-270.5" font-family="Helvetica,sans-Serif" font-size="10.00">::StorageReader::ReadPostlist</text>
</a>
</g>
</g>
<!-- Node1&#45;&gt;Node23 -->
<g id="edge22_Node000001_Node000023" class="edge">
<title>Node1&#45;&gt;Node23</title>
<g id="a_edge22_Node000001_Node000023"><a xlink:title=" ">
<path fill="none" stroke="#63b8ff" d="M1005.11,-468.78C993.67,-430.7 963.26,-346.85 907,-302.5 902.62,-299.05 897.77,-296.09 892.67,-293.56"/>
<polygon fill="#63b8ff" stroke="#63b8ff" points="1001.82,-470 1007.95,-478.64 1008.55,-468.07 1001.82,-470"/>
</a>
</g>
</g>
<!-- Node24 -->
<g id="Node000024" class="node">
<title>Node24</title>
<g id="a_Node000024"><a xlink:href="classnetspeak_1_1RetrievalStrategy_3_01RetrievalStrategy3Tag_01_4.html#af095959d675af0b9b2384df4a23195d7" target="_top" xlink:title=" ">
<polygon fill="white" stroke="#666666" points="896.5,-245 743.5,-245 743.5,-204 896.5,-204 896.5,-245"/>
<text text-anchor="start" x="751.5" y="-233" font-family="Helvetica,sans-Serif" font-size="10.00">netspeak::RetrievalStrategy</text>
<text text-anchor="start" x="751.5" y="-222" font-family="Helvetica,sans-Serif" font-size="10.00">&lt; RetrievalStrategy3Tag</text>
<text text-anchor="middle" x="820" y="-211" font-family="Helvetica,sans-Serif" font-size="10.00"> &gt;::search_</text>
</a>
</g>
</g>
<!-- Node1&#45;&gt;Node24 -->
<g id="edge23_Node000001_Node000024" class="edge">
<title>Node1&#45;&gt;Node24</title>
<g id="a_edge23_Node000001_Node000024"><a xlink:title=" ">
<path fill="none" stroke="#63b8ff" d="M1007.25,-468.82C998.89,-424.27 972.48,-314.9 907,-254.5 903.16,-250.96 898.89,-247.84 894.35,-245.08"/>
<polygon fill="#63b8ff" stroke="#63b8ff" points="1003.85,-469.67 1009.04,-478.9 1010.74,-468.45 1003.85,-469.67"/>
</a>
</g>
</g>
<!-- Node25 -->
<g id="Node000025" class="node">
<title>Node25</title>
<g id="a_Node000025"><a xlink:href="classnetspeak_1_1value_1_1pair.html#a88768d1e605580d6734e3cca3df6c70c" target="_top" xlink:title=" ">
<polygon fill="white" stroke="#666666" points="890,-186 750,-186 750,-167 890,-167 890,-186"/>
<text text-anchor="middle" x="820" y="-174" font-family="Helvetica,sans-Serif" font-size="10.00">netspeak::value::pair::set</text>
</a>
</g>
</g>
<!-- Node1&#45;&gt;Node25 -->
<g id="edge24_Node000001_Node000025" class="edge">
<title>Node1&#45;&gt;Node25</title>
<g id="a_edge24_Node000001_Node000025"><a xlink:title=" ">
<path fill="none" stroke="#63b8ff" d="M1009.78,-468.76C1006.73,-415.81 990.75,-269.6 907,-195.5 902.08,-191.14 896.38,-187.71 890.31,-185.02"/>
<polygon fill="#63b8ff" stroke="#63b8ff" points="1006.29,-469.03 1010.27,-478.85 1013.28,-468.69 1006.29,-469.03"/>
</a>
</g>
</g>
<!-- Node26 -->
<g id="Node000026" class="node">
<title>Node26</title>
<g id="a_Node000026"><a xlink:href="classnetspeak_1_1value_1_1pair.html#adae2712aa6548981c076f75d15871109" target="_top" xlink:title=" ">
<polygon fill="white" stroke="#666666" points="879.5,-148.5 760.5,-148.5 760.5,-118.5 879.5,-118.5 879.5,-148.5"/>
<text text-anchor="start" x="768.5" y="-136.5" font-family="Helvetica,sans-Serif" font-size="10.00">netspeak::value::pair</text>
<text text-anchor="middle" x="820" y="-125.5" font-family="Helvetica,sans-Serif" font-size="10.00">::set_e2</text>
</a>
</g>
</g>
<!-- Node1&#45;&gt;Node26 -->
<g id="edge25_Node000001_Node000026" class="edge">
<title>Node1&#45;&gt;Node26</title>
<g id="a_edge25_Node000001_Node000026"><a xlink:title=" ">
<path fill="none" stroke="#63b8ff" d="M1010.47,-468.83C1009.27,-411.91 997.79,-245.53 907,-157.5 899.43,-150.16 889.82,-145.03 879.78,-141.45"/>
<polygon fill="#63b8ff" stroke="#63b8ff" points="1006.97,-469.02 1010.59,-478.97 1013.97,-468.93 1006.97,-469.02"/>
</a>
</g>
</g>
<!-- Node28 -->
<g id="Node000028" class="node">
<title>Node28</title>
<g id="a_Node000028"><a xlink:href="structnetspeak_1_1value_1_1value__traits_3_01pair_3_01T1_00_01T2_01_4_01_4.html#a2499cd63c7b175dd20ccf97f69dccb5f" target="_top" xlink:title=" ">
<polygon fill="white" stroke="#666666" points="884,-100 756,-100 756,-59 884,-59 884,-100"/>
<text text-anchor="start" x="764" y="-88" font-family="Helvetica,sans-Serif" font-size="10.00">netspeak::value::value</text>
<text text-anchor="start" x="764" y="-77" font-family="Helvetica,sans-Serif" font-size="10.00">_traits&lt; pair&lt; T1, T2</text>
<text text-anchor="middle" x="820" y="-66" font-family="Helvetica,sans-Serif" font-size="10.00"> &gt; &gt;::size_of</text>
</a>
</g>
</g>
<!-- Node1&#45;&gt;Node28 -->
<g id="edge27_Node000001_Node000028" class="edge">
<title>Node1&#45;&gt;Node28</title>
<g id="a_edge27_Node000001_Node000028"><a xlink:title=" ">
<path fill="none" stroke="#63b8ff" d="M1011.12,-468.41C1011.91,-406.32 1005.81,-215.37 907,-109.5 900.63,-102.68 892.64,-97.41 884.09,-93.34"/>
<polygon fill="#63b8ff" stroke="#63b8ff" points="1007.61,-468.68 1010.9,-478.75 1014.61,-468.82 1007.61,-468.68"/>
</a>
</g>
</g>
<!-- Node29 -->
<g id="Node000029" class="node">
<title>Node29</title>
<g id="a_Node000029"><a xlink:href="structnetspeak_1_1value_1_1value__traits_3_01pair_3_01T1_00_01T2_01_4_01_4.html#aca3587b6085d070921ee982bced592bb" target="_top" xlink:title=" ">
<polygon fill="white" stroke="#666666" points="884,-41 756,-41 756,0 884,0 884,-41"/>
<text text-anchor="start" x="764" y="-29" font-family="Helvetica,sans-Serif" font-size="10.00">netspeak::value::value</text>
<text text-anchor="start" x="764" y="-18" font-family="Helvetica,sans-Serif" font-size="10.00">_traits&lt; pair&lt; T1, T2</text>
<text text-anchor="middle" x="820" y="-7" font-family="Helvetica,sans-Serif" font-size="10.00"> &gt; &gt;::write_to</text>
</a>
</g>
</g>
<!-- Node1&#45;&gt;Node29 -->
<g id="edge28_Node000001_Node000029" class="edge">
<title>Node1&#45;&gt;Node29</title>
<g id="a_edge28_Node000001_Node000029"><a xlink:title=" ">
<path fill="none" stroke="#63b8ff" d="M1008.34,-468.38C999.66,-390.92 964.91,-113.11 907,-49.5 900.74,-42.63 892.8,-37.38 884.28,-33.38"/>
<polygon fill="#63b8ff" stroke="#63b8ff" points="1004.9,-469.11 1009.47,-478.67 1011.86,-468.35 1004.9,-469.11"/>
</a>
</g>
</g>
<!-- Node3 -->
<g id="Node000003" class="node">
<title>Node3</title>
<g id="a_Node000003"><a xlink:href="classnetspeak_1_1bighashmap_1_1Builder.html#a8435164185bac78bacf97c66e78b9a27" target="_top" xlink:title=" ">
<polygon fill="white" stroke="#666666" points="686,-976.5 558,-976.5 558,-946.5 686,-946.5 686,-976.5"/>
<text text-anchor="start" x="566" y="-964.5" font-family="Helvetica,sans-Serif" font-size="10.00">netspeak::bighashmap</text>
<text text-anchor="middle" x="622" y="-953.5" font-family="Helvetica,sans-Serif" font-size="10.00">::Builder::BuildMap</text>
</a>
</g>
</g>
<!-- Node2&#45;&gt;Node3 -->
<g id="edge2_Node000002_Node000003" class="edge">
<title>Node2&#45;&gt;Node3</title>
<g id="a_edge2_Node000002_Node000003"><a xlink:title=" ">
<path fill="none" stroke="#63b8ff" d="M740.77,-961.5C722.67,-961.5 703.64,-961.5 686.27,-961.5"/>
<polygon fill="#63b8ff" stroke="#63b8ff" points="741,-965 751,-961.5 741,-958 741,-965"/>
</a>
</g>
</g>
<!-- Node4 -->
<g id="Node000004" class="node">
<title>Node4</title>
<g id="a_Node000004"><a xlink:href="classnetspeak_1_1bighashmap_1_1Builder.html#a66906e74a9afa4707cfb7c999c0c635a" target="_top" xlink:title=" ">
<polygon fill="white" stroke="#666666" points="511,-976.5 383,-976.5 383,-946.5 511,-946.5 511,-976.5"/>
<text text-anchor="start" x="391" y="-964.5" font-family="Helvetica,sans-Serif" font-size="10.00">netspeak::bighashmap</text>
<text text-anchor="middle" x="447" y="-953.5" font-family="Helvetica,sans-Serif" font-size="10.00">::Builder::Build</text>
</a>
</g>
</g>
<!-- Node3&#45;&gt;Node4 -->
<g id="edge3_Node000003_Node000004" class="edge">
<title>Node3&#45;&gt;Node4</title>
<g id="a_edge3_Node000003_Node000004"><a xlink:title=" ">
<path fill="none" stroke="#63b8ff" d="M547.5,-961.5C535.4,-961.5 522.96,-961.5 511.14,-961.5"/>
<polygon fill="#63b8ff" stroke="#63b8ff" points="547.56,-965 557.56,-961.5 547.56,-958 547.56,-965"/>
</a>
</g>
</g>
<!-- Node5 -->
<g id="Node000005" class="node">
<title>Node5</title>
<g id="a_Node000005"><a xlink:href="classnetspeak_1_1bighashmap_1_1BigHashMap.html#a962d40196fcce78f1ddef98eb3d8344c" target="_top" xlink:title=" ">
<polygon fill="white" stroke="#666666" points="343.5,-1011.5 215.5,-1011.5 215.5,-981.5 343.5,-981.5 343.5,-1011.5"/>
<text text-anchor="start" x="223.5" y="-999.5" font-family="Helvetica,sans-Serif" font-size="10.00">netspeak::bighashmap</text>
<text text-anchor="middle" x="279.5" y="-988.5" font-family="Helvetica,sans-Serif" font-size="10.00">::BigHashMap::Build</text>
</a>
</g>
</g>
<!-- Node4&#45;&gt;Node5 -->
<g id="edge4_Node000004_Node000005" class="edge">
<title>Node4&#45;&gt;Node5</title>
<g id="a_edge4_Node000004_Node000005"><a xlink:title=" ">
<path fill="none" stroke="#63b8ff" d="M372.89,-976.96C363.13,-979.02 353.2,-981.13 343.64,-983.15"/>
<polygon fill="#63b8ff" stroke="#63b8ff" points="373.9,-980.33 382.96,-974.83 372.45,-973.48 373.9,-980.33"/>
</a>
</g>
</g>
<!-- Node7 -->
<g id="Node000007" class="node">
<title>Node7</title>
<g id="a_Node000007"><a xlink:href="classnetspeak_1_1invertedindex_1_1StorageWriter.html#a504b8f6d78f6946fcdb5ee52b85348ce" target="_top" xlink:title=" ">
<polygon fill="white" stroke="#666666" points="347,-952.5 212,-952.5 212,-922.5 347,-922.5 347,-952.5"/>
<text text-anchor="start" x="220" y="-940.5" font-family="Helvetica,sans-Serif" font-size="10.00">netspeak::invertedindex</text>
<text text-anchor="middle" x="279.5" y="-929.5" font-family="Helvetica,sans-Serif" font-size="10.00">::StorageWriter::close</text>
</a>
</g>
</g>
<!-- Node4&#45;&gt;Node7 -->
<g id="edge6_Node000004_Node000007" class="edge">
<title>Node4&#45;&gt;Node7</title>
<g id="a_edge6_Node000004_Node000007"><a xlink:title=" ">
<path fill="none" stroke="#63b8ff" d="M372.98,-950.91C364.41,-949.67 355.7,-948.4 347.22,-947.18"/>
<polygon fill="#63b8ff" stroke="#63b8ff" points="372.56,-954.39 382.96,-952.36 373.57,-947.46 372.56,-954.39"/>
</a>
</g>
</g>
<!-- Node6 -->
<g id="Node000006" class="node">
<title>Node6</title>
<g id="a_Node000006"><a xlink:href="namespacenetspeak.html#a84f2fcf7a89eca20f721ce3c30b85001" target="_top" xlink:title=" ">
<polygon fill="white" stroke="#666666" points="176,-1017 0,-1017 0,-998 176,-998 176,-1017"/>
<text text-anchor="middle" x="88" y="-1005" font-family="Helvetica,sans-Serif" font-size="10.00">netspeak::BuildPhraseDictionary</text>
</a>
</g>
</g>
<!-- Node5&#45;&gt;Node6 -->
<g id="edge5_Node000005_Node000006" class="edge">
<title>Node5&#45;&gt;Node6</title>
<g id="a_edge5_Node000005_Node000006"><a xlink:title=" ">
<path fill="none" stroke="#63b8ff" d="M205.2,-1000.75C195.68,-1001.31 185.84,-1001.88 176.12,-1002.44"/>
<polygon fill="#63b8ff" stroke="#63b8ff" points="205.62,-1004.24 215.4,-1000.16 205.21,-997.25 205.62,-1004.24"/>
</a>
</g>
</g>
<!-- Node8 -->
<g id="Node000008" class="node">
<title>Node8</title>
<g id="a_Node000008"><a xlink:href="classnetspeak_1_1invertedindex_1_1UnsortedInput.html#a3bf52078c65c198e542a3e16d42eff20" target="_top" xlink:title=" ">
<polygon fill="white" stroke="#666666" points="155.5,-979.5 20.5,-979.5 20.5,-949.5 155.5,-949.5 155.5,-979.5"/>
<text text-anchor="start" x="28.5" y="-967.5" font-family="Helvetica,sans-Serif" font-size="10.00">netspeak::invertedindex</text>
<text text-anchor="middle" x="88" y="-956.5" font-family="Helvetica,sans-Serif" font-size="10.00">::UnsortedInput::index</text>
</a>
</g>
</g>
<!-- Node7&#45;&gt;Node8 -->
<g id="edge7_Node000007_Node000008" class="edge">
<title>Node7&#45;&gt;Node8</title>
<g id="a_edge7_Node000007_Node000008"><a xlink:title=" ">
<path fill="none" stroke="#63b8ff" d="M201.99,-948.4C186.66,-950.58 170.67,-952.86 155.7,-955"/>
<polygon fill="#63b8ff" stroke="#63b8ff" points="202.55,-951.86 211.96,-946.98 201.56,-944.93 202.55,-951.86"/>
</a>
</g>
</g>
<!-- Node9 -->
<g id="Node000009" class="node">
<title>Node9</title>
<g id="a_Node000009"><a xlink:href="classnetspeak_1_1invertedindex_1_1SortedInput.html#ae3183e635b4fa91c0b855773b95ce99c" target="_top" xlink:title=" ">
<polygon fill="white" stroke="#666666" points="155.5,-931.5 20.5,-931.5 20.5,-901.5 155.5,-901.5 155.5,-931.5"/>
<text text-anchor="start" x="28.5" y="-919.5" font-family="Helvetica,sans-Serif" font-size="10.00">netspeak::invertedindex</text>
<text text-anchor="middle" x="88" y="-908.5" font-family="Helvetica,sans-Serif" font-size="10.00">::SortedInput::index</text>
</a>
</g>
</g>
<!-- Node7&#45;&gt;Node9 -->
<g id="edge8_Node000007_Node000009" class="edge">
<title>Node7&#45;&gt;Node9</title>
<g id="a_edge8_Node000007_Node000009"><a xlink:title=" ">
<path fill="none" stroke="#63b8ff" d="M201.99,-929.02C186.66,-927.32 170.67,-925.55 155.7,-923.89"/>
<polygon fill="#63b8ff" stroke="#63b8ff" points="201.63,-932.5 211.96,-930.13 202.4,-925.55 201.63,-932.5"/>
</a>
</g>
</g>
<!-- Node10 -->
<g id="Node000010" class="node">
<title>Node10</title>
<g id="a_Node000010"><a xlink:href="classnetspeak_1_1invertedindex_1_1StorageWriter.html#af783f33c33c210523e44c0aef00b7ccd" target="_top" xlink:title=" ">
<polygon fill="white" stroke="#666666" points="174,-883.5 2,-883.5 2,-853.5 174,-853.5 174,-883.5"/>
<text text-anchor="start" x="10" y="-871.5" font-family="Helvetica,sans-Serif" font-size="10.00">netspeak::invertedindex</text>
<text text-anchor="middle" x="88" y="-860.5" font-family="Helvetica,sans-Serif" font-size="10.00">::StorageWriter::~StorageWriter</text>
</a>
</g>
</g>
<!-- Node7&#45;&gt;Node10 -->
<g id="edge9_Node000007_Node000010" class="edge">
<title>Node7&#45;&gt;Node10</title>
<g id="a_edge9_Node000007_Node000010"><a xlink:title=" ">
<path fill="none" stroke="#63b8ff" d="M238.04,-918.12C219.4,-909.62 196.84,-899.9 176,-892.5 167.14,-889.35 157.66,-886.36 148.33,-883.63"/>
<polygon fill="#63b8ff" stroke="#63b8ff" points="236.57,-921.3 247.12,-922.31 239.51,-914.94 236.57,-921.3"/>
</a>
</g>
</g>
<!-- Node27 -->
<g id="Node000027" class="node">
<title>Node27</title>
<g id="a_Node000027"><a xlink:href="structnetspeak_1_1index__entry__traits_3_01RetrievalStrategy3Tag_01_4.html#a48b91f085f726e2d477a96746064ef24" target="_top" xlink:title=" ">
<polygon fill="white" stroke="#666666" points="697,-154 547,-154 547,-113 697,-113 697,-154"/>
<text text-anchor="start" x="555" y="-142" font-family="Helvetica,sans-Serif" font-size="10.00">netspeak::index_entry</text>
<text text-anchor="start" x="555" y="-131" font-family="Helvetica,sans-Serif" font-size="10.00">_traits&lt; RetrievalStrategy3</text>
<text text-anchor="middle" x="622" y="-120" font-family="Helvetica,sans-Serif" font-size="10.00">Tag &gt;::set_phrase_id</text>
</a>
</g>
</g>
<!-- Node26&#45;&gt;Node27 -->
<g id="edge26_Node000026_Node000027" class="edge">
<title>Node26&#45;&gt;Node27</title>
<g id="a_edge26_Node000026_Node000027"><a xlink:title=" ">
<path fill="none" stroke="#63b8ff" d="M750.01,-133.5C732.94,-133.5 714.56,-133.5 697.25,-133.5"/>
<polygon fill="#63b8ff" stroke="#63b8ff" points="750.46,-137 760.46,-133.5 750.46,-130 750.46,-137"/>
</a>
</g>
</g>
</g>
</svg>
