<?xml version="1.0" encoding="UTF-8" standalone="no"?>
<!DOCTYPE svg PUBLIC "-//W3C//DTD SVG 1.1//EN"
 "http://www.w3.org/Graphics/SVG/1.1/DTD/svg11.dtd">
<!-- Generated by graphviz version 2.43.0 (0)
 -->
<!-- Title: netspeak::PhraseFileParser::read_next Pages: 1 -->
<svg width="813pt" height="150pt"
 viewBox="0.00 0.00 813.00 149.50" xmlns="http://www.w3.org/2000/svg" xmlns:xlink="http://www.w3.org/1999/xlink">
<g id="graph0" class="graph" transform="scale(1 1) rotate(0) translate(4 145.5)">
<title>netspeak::PhraseFileParser::read_next</title>
<!-- Node1 -->
<g id="Node000001" class="node">
<title>Node1</title>
<g id="a_Node000001"><a xlink:title=" ">
<polygon fill="#999999" stroke="#666666" points="148,-78 0,-78 0,-48 148,-48 148,-78"/>
<text text-anchor="start" x="8" y="-66" font-family="Helvetica,sans-Serif" font-size="10.00">netspeak::PhraseFileParser</text>
<text text-anchor="middle" x="74" y="-55" font-family="Helvetica,sans-Serif" font-size="10.00">::read_next</text>
</a>
</g>
</g>
<!-- Node2 -->
<g id="Node000002" class="node">
<title>Node2</title>
<g id="a_Node000002"><a xlink:href="classnetspeak_1_1PhraseFileParser.html#a2b1e4624be15f416aa1248496795497f" target="_top" xlink:title=" ">
<polygon fill="white" stroke="#666666" points="332,-78 184,-78 184,-48 332,-48 332,-78"/>
<text text-anchor="start" x="192" y="-66" font-family="Helvetica,sans-Serif" font-size="10.00">netspeak::PhraseFileParser</text>
<text text-anchor="middle" x="258" y="-55" font-family="Helvetica,sans-Serif" font-size="10.00">::read</text>
</a>
</g>
</g>
<!-- Node1&#45;&gt;Node2 -->
<g id="edge1_Node000001_Node000002" class="edge">
<title>Node1&#45;&gt;Node2</title>
<g id="a_edge1_Node000001_Node000002"><a xlink:title=" ">
<path fill="none" stroke="#63b8ff" d="M148.24,-63C156.6,-63 165.16,-63 173.64,-63"/>
<polygon fill="#63b8ff" stroke="#63b8ff" points="173.91,-66.5 183.91,-63 173.91,-59.5 173.91,-66.5"/>
</a>
</g>
</g>
<!-- Node3 -->
<g id="Node000003" class="node">
<title>Node3</title>
<g id="a_Node000003"><a xlink:href="namespacenetspeak_1_1util.html#a1f7aa14f6cb81f98cbca5413e3026096" target="_top" xlink:title=" ">
<polygon fill="white" stroke="#666666" points="494,-126 376,-126 376,-96 494,-96 494,-126"/>
<text text-anchor="start" x="384" y="-114" font-family="Helvetica,sans-Serif" font-size="10.00">netspeak::util::check</text>
<text text-anchor="middle" x="435" y="-103" font-family="Helvetica,sans-Serif" font-size="10.00">_valid_utf8</text>
</a>
</g>
</g>
<!-- Node2&#45;&gt;Node3 -->
<g id="edge2_Node000002_Node000003" class="edge">
<title>Node2&#45;&gt;Node3</title>
<g id="a_edge2_Node000002_Node000003"><a xlink:title=" ">
<path fill="none" stroke="#63b8ff" d="M313.89,-78.06C331.56,-82.9 351.31,-88.32 369.6,-93.34"/>
<polygon fill="#63b8ff" stroke="#63b8ff" points="368.73,-96.73 379.3,-96 370.59,-89.98 368.73,-96.73"/>
</a>
</g>
</g>
<!-- Node7 -->
<g id="Node000007" class="node">
<title>Node7</title>
<g id="a_Node000007"><a xlink:href="classnetspeak_1_1model_1_1Words.html#abb26187aa586f258c8eb4271f3d5af0f" target="_top" xlink:title=" ">
<polygon fill="white" stroke="#666666" points="502,-78 368,-78 368,-48 502,-48 502,-78"/>
<text text-anchor="start" x="376" y="-66" font-family="Helvetica,sans-Serif" font-size="10.00">netspeak::model::Words</text>
<text text-anchor="middle" x="435" y="-55" font-family="Helvetica,sans-Serif" font-size="10.00">::data</text>
</a>
</g>
</g>
<!-- Node2&#45;&gt;Node7 -->
<g id="edge7_Node000002_Node000007" class="edge">
<title>Node2&#45;&gt;Node7</title>
<g id="a_edge7_Node000002_Node000007"><a xlink:title=" ">
<path fill="none" stroke="#63b8ff" d="M332.2,-63C340.59,-63 349.16,-63 357.59,-63"/>
<polygon fill="#63b8ff" stroke="#63b8ff" points="357.79,-66.5 367.79,-63 357.79,-59.5 357.79,-66.5"/>
</a>
</g>
</g>
<!-- Node8 -->
<g id="Node000008" class="node">
<title>Node8</title>
<g id="a_Node000008"><a xlink:href="classnetspeak_1_1model_1_1Words.html#a74ce9e9ed9745cdfffd806ec605974df" target="_top" xlink:title=" ">
<polygon fill="white" stroke="#666666" points="502,-30 368,-30 368,0 502,0 502,-30"/>
<text text-anchor="start" x="376" y="-18" font-family="Helvetica,sans-Serif" font-size="10.00">netspeak::model::Words</text>
<text text-anchor="middle" x="435" y="-7" font-family="Helvetica,sans-Serif" font-size="10.00">::push_back</text>
</a>
</g>
</g>
<!-- Node2&#45;&gt;Node8 -->
<g id="edge8_Node000002_Node000008" class="edge">
<title>Node2&#45;&gt;Node8</title>
<g id="a_edge8_Node000002_Node000008"><a xlink:title=" ">
<path fill="none" stroke="#63b8ff" d="M313.89,-47.94C331.56,-43.1 351.31,-37.68 369.6,-32.66"/>
<polygon fill="#63b8ff" stroke="#63b8ff" points="370.59,-36.02 379.3,-30 368.73,-29.27 370.59,-36.02"/>
</a>
</g>
</g>
<!-- Node4 -->
<g id="Node000004" class="node">
<title>Node4</title>
<g id="a_Node000004"><a xlink:href="namespacenetspeak_1_1util.html#aad6c5a8708322dd600c23507cc2035f1" target="_top" xlink:title=" ">
<polygon fill="white" stroke="#666666" points="656,-141.5 538,-141.5 538,-122.5 656,-122.5 656,-141.5"/>
<text text-anchor="middle" x="597" y="-129.5" font-family="Helvetica,sans-Serif" font-size="10.00">netspeak::util::check</text>
</a>
</g>
</g>
<!-- Node3&#45;&gt;Node4 -->
<g id="edge3_Node000003_Node000004" class="edge">
<title>Node3&#45;&gt;Node4</title>
<g id="a_edge3_Node000003_Node000004"><a xlink:title=" ">
<path fill="none" stroke="#63b8ff" d="M494.22,-118.64C505.09,-120.07 516.55,-121.57 527.7,-123.04"/>
<polygon fill="#63b8ff" stroke="#63b8ff" points="527.46,-126.53 537.83,-124.36 528.37,-119.59 527.46,-126.53"/>
</a>
</g>
</g>
<!-- Node6 -->
<g id="Node000006" class="node">
<title>Node6</title>
<g id="a_Node000006"><a xlink:href="namespacenetspeak_1_1util.html#a53fac399fbfab002a4a512c161eb184f" target="_top" xlink:title=" ">
<polygon fill="white" stroke="#666666" points="646,-104 548,-104 548,-74 646,-74 646,-104"/>
<text text-anchor="start" x="556" y="-92" font-family="Helvetica,sans-Serif" font-size="10.00">netspeak::util::is</text>
<text text-anchor="middle" x="597" y="-81" font-family="Helvetica,sans-Serif" font-size="10.00">_valid_utf8</text>
</a>
</g>
</g>
<!-- Node3&#45;&gt;Node6 -->
<g id="edge5_Node000003_Node000006" class="edge">
<title>Node3&#45;&gt;Node6</title>
<g id="a_edge5_Node000003_Node000006"><a xlink:title=" ">
<path fill="none" stroke="#63b8ff" d="M494.22,-103C508.38,-101.05 523.53,-98.96 537.7,-97.02"/>
<polygon fill="#63b8ff" stroke="#63b8ff" points="538.38,-100.46 547.81,-95.63 537.43,-93.52 538.38,-100.46"/>
</a>
</g>
</g>
<!-- Node5 -->
<g id="Node000005" class="node">
<title>Node5</title>
<g id="a_Node000005"><a xlink:href="namespacenetspeak_1_1util.html#a4c91ad572508b4021399ac7dddff574d" target="_top" xlink:title=" ">
<polygon fill="white" stroke="#666666" points="805,-119.5 692,-119.5 692,-100.5 805,-100.5 805,-119.5"/>
<text text-anchor="middle" x="748.5" y="-107.5" font-family="Helvetica,sans-Serif" font-size="10.00">netspeak::util::hash</text>
</a>
</g>
</g>
<!-- Node4&#45;&gt;Node5 -->
<g id="edge4_Node000004_Node000005" class="edge">
<title>Node4&#45;&gt;Node5</title>
<g id="a_edge4_Node000004_Node000005"><a xlink:title=" ">
<path fill="none" stroke="#63b8ff" d="M656.23,-123.43C664.51,-122.21 673.07,-120.95 681.48,-119.72"/>
<polygon fill="#63b8ff" stroke="#63b8ff" points="682.25,-123.14 691.64,-118.22 681.23,-116.21 682.25,-123.14"/>
</a>
</g>
</g>
<!-- Node6&#45;&gt;Node5 -->
<g id="edge6_Node000006_Node000005" class="edge">
<title>Node6&#45;&gt;Node5</title>
<g id="a_edge6_Node000006_Node000005"><a xlink:title=" ">
<path fill="none" stroke="#63b8ff" d="M646.13,-95.76C657.53,-97.36 669.88,-99.1 681.92,-100.79"/>
<polygon fill="#63b8ff" stroke="#63b8ff" points="681.53,-104.27 691.92,-102.19 682.5,-97.34 681.53,-104.27"/>
</a>
</g>
</g>
</g>
</svg>
