<?xml version="1.0" encoding="UTF-8" standalone="no"?>
<!DOCTYPE svg PUBLIC "-//W3C//DTD SVG 1.1//EN"
 "http://www.w3.org/Graphics/SVG/1.1/DTD/svg11.dtd">
<!-- Generated by graphviz version 2.43.0 (0)
 -->
<!-- Title: netspeak::model::RawResult Pages: 1 -->
<svg width="158pt" height="177pt"
 viewBox="0.00 0.00 158.00 177.00" xmlns="http://www.w3.org/2000/svg" xmlns:xlink="http://www.w3.org/1999/xlink">
<g id="graph0" class="graph" transform="scale(1 1) rotate(0) translate(4 173)">
<title>netspeak::model::RawResult</title>
<!-- Node1 -->
<g id="Node000001" class="node">
<title>Node1</title>
<g id="a_Node000001"><a xlink:title="A result set of phrase and phrase references of multiple norm queries.">
<polygon fill="#999999" stroke="transparent" points="150,-169 0,-169 0,0 150,0 150,-169"/>
<text text-anchor="start" x="5" y="-156.5" font-family="Helvetica,sans-Serif" font-size="10.00">netspeak::model::RawResult</text>
<text text-anchor="start" x="17" y="-141.5" font-family="Helvetica,sans-Serif" font-size="10.00">&#45;</text>
<text text-anchor="start" x="38" y="-141.5" font-family="Helvetica,sans-Serif" font-size="10.00">phrases_</text>
<text text-anchor="start" x="17" y="-126.5" font-family="Helvetica,sans-Serif" font-size="10.00">&#45;</text>
<text text-anchor="start" x="38" y="-126.5" font-family="Helvetica,sans-Serif" font-size="10.00">refs_</text>
<text text-anchor="start" x="17" y="-111.5" font-family="Helvetica,sans-Serif" font-size="10.00">&#45;</text>
<text text-anchor="start" x="38" y="-111.5" font-family="Helvetica,sans-Serif" font-size="10.00">unknown_words_</text>
<text text-anchor="start" x="14.5" y="-96.5" font-family="Helvetica,sans-Serif" font-size="10.00">+</text>
<text text-anchor="start" x="38" y="-96.5" font-family="Helvetica,sans-Serif" font-size="10.00">RawResult()</text>
<text text-anchor="start" x="14.5" y="-81.5" font-family="Helvetica,sans-Serif" font-size="10.00">+</text>
<text text-anchor="start" x="38" y="-81.5" font-family="Helvetica,sans-Serif" font-size="10.00">phrases()</text>
<text text-anchor="start" x="14.5" y="-66.5" font-family="Helvetica,sans-Serif" font-size="10.00">+</text>
<text text-anchor="start" x="38" y="-66.5" font-family="Helvetica,sans-Serif" font-size="10.00">refs()</text>
<text text-anchor="start" x="14.5" y="-51.5" font-family="Helvetica,sans-Serif" font-size="10.00">+</text>
<text text-anchor="start" x="38" y="-51.5" font-family="Helvetica,sans-Serif" font-size="10.00">empty()</text>
<text text-anchor="start" x="14.5" y="-36.5" font-family="Helvetica,sans-Serif" font-size="10.00">+</text>
<text text-anchor="start" x="38" y="-36.5" font-family="Helvetica,sans-Serif" font-size="10.00">add_item()</text>
<text text-anchor="start" x="14.5" y="-21.5" font-family="Helvetica,sans-Serif" font-size="10.00">+</text>
<text text-anchor="start" x="38" y="-21.5" font-family="Helvetica,sans-Serif" font-size="10.00">add_item()</text>
<text text-anchor="start" x="14.5" y="-6.5" font-family="Helvetica,sans-Serif" font-size="10.00">+</text>
<text text-anchor="start" x="38" y="-6.5" font-family="Helvetica,sans-Serif" font-size="10.00">unknown_words()</text>
<polygon fill="#666666" stroke="#666666" points="0,-151.5 0,-151.5 150,-151.5 150,-151.5 0,-151.5"/>
<polygon fill="#666666" stroke="#666666" points="0,-106.5 0,-106.5 36,-106.5 36,-106.5 0,-106.5"/>
<polygon fill="#666666" stroke="#666666" points="36,-106.5 36,-106.5 150,-106.5 150,-106.5 36,-106.5"/>
<polygon fill="none" stroke="#666666" points="0,0 0,-169 150,-169 150,0 0,0"/>
</a>
</g>
</g>
</g>
</svg>
