<?xml version="1.0" encoding="UTF-8" standalone="no"?>
<!DOCTYPE svg PUBLIC "-//W3C//DTD SVG 1.1//EN"
 "http://www.w3.org/Graphics/SVG/1.1/DTD/svg11.dtd">
<!-- Generated by graphviz version 2.43.0 (0)
 -->
<!-- Title: netspeak::regex::DefaultRegexIndex::match_query Pages: 1 -->
<svg width="954pt" height="719pt"
 viewBox="0.00 0.00 954.00 719.00" xmlns="http://www.w3.org/2000/svg" xmlns:xlink="http://www.w3.org/1999/xlink">
<g id="graph0" class="graph" transform="scale(1 1) rotate(0) translate(4 715)">
<title>netspeak::regex::DefaultRegexIndex::match_query</title>
<!-- Node1 -->
<g id="Node000001" class="node">
<title>Node1</title>
<g id="a_Node000001"><a xlink:title="Adds all words matching the given query to the given vector.">
<polygon fill="#999999" stroke="#666666" points="144,-528 0,-528 0,-498 144,-498 144,-528"/>
<text text-anchor="start" x="8" y="-516" font-family="Helvetica,sans-Serif" font-size="10.00">netspeak::regex::Default</text>
<text text-anchor="middle" x="72" y="-505" font-family="Helvetica,sans-Serif" font-size="10.00">RegexIndex::match_query</text>
</a>
</g>
</g>
<!-- Node2 -->
<g id="Node000002" class="node">
<title>Node2</title>
<g id="a_Node000002"><a xlink:href="classnetspeak_1_1regex_1_1RegexQuery.html#a1da7c2171dd8f2aebe9e0053a828ccb4" target="_top" xlink:title="Returns whether this query will accept all non&#45;empty words.">
<polygon fill="white" stroke="#666666" points="349,-708 188,-708 188,-678 349,-678 349,-708"/>
<text text-anchor="start" x="196" y="-696" font-family="Helvetica,sans-Serif" font-size="10.00">netspeak::regex::RegexQuery</text>
<text text-anchor="middle" x="268.5" y="-685" font-family="Helvetica,sans-Serif" font-size="10.00">::accept_all_non_empty</text>
</a>
</g>
</g>
<!-- Node1&#45;&gt;Node2 -->
<g id="edge1_Node000001_Node000002" class="edge">
<title>Node1&#45;&gt;Node2</title>
<g id="a_edge1_Node000001_Node000002"><a xlink:title=" ">
<path fill="none" stroke="#63b8ff" d="M79.81,-528.14C94.09,-558.2 130,-625.71 180,-663 185.45,-667.06 191.49,-670.6 197.77,-673.68"/>
<polygon fill="#63b8ff" stroke="#63b8ff" points="196.56,-676.97 207.12,-677.87 199.42,-670.59 196.56,-676.97"/>
</a>
</g>
</g>
<!-- Node4 -->
<g id="Node000004" class="node">
<title>Node4</title>
<g id="a_Node000004"><a xlink:href="classnetspeak_1_1regex_1_1RegexQuery.html#a8f2543e1cc1b4460233f700f547a89f6" target="_top" xlink:title="Returns an upper bound for the number of possible words, the query can match. If UINT32_MAX is return...">
<polygon fill="white" stroke="#666666" points="554,-663 393,-663 393,-633 554,-633 554,-663"/>
<text text-anchor="start" x="401" y="-651" font-family="Helvetica,sans-Serif" font-size="10.00">netspeak::regex::RegexQuery</text>
<text text-anchor="middle" x="473.5" y="-640" font-family="Helvetica,sans-Serif" font-size="10.00">::combinations_upper_bound</text>
</a>
</g>
</g>
<!-- Node1&#45;&gt;Node4 -->
<g id="edge3_Node000001_Node000004" class="edge">
<title>Node1&#45;&gt;Node4</title>
<g id="a_edge3_Node000001_Node000004"><a xlink:title=" ">
<path fill="none" stroke="#63b8ff" d="M114.75,-528.09C175.67,-549.97 292.59,-591.45 393,-624 399.03,-625.96 405.33,-627.95 411.64,-629.9"/>
<polygon fill="#63b8ff" stroke="#63b8ff" points="410.92,-633.35 421.51,-632.94 412.98,-626.66 410.92,-633.35"/>
</a>
</g>
</g>
<!-- Node5 -->
<g id="Node000005" class="node">
<title>Node5</title>
<g id="a_Node000005"><a xlink:href="classnetspeak_1_1regex_1_1DefaultRegexIndex.html#a5c0cbc299628d069cfd1d800d74875d3" target="_top" xlink:title=" ">
<polygon fill="white" stroke="#666666" points="340.5,-533.5 196.5,-533.5 196.5,-492.5 340.5,-492.5 340.5,-533.5"/>
<text text-anchor="start" x="204.5" y="-521.5" font-family="Helvetica,sans-Serif" font-size="10.00">netspeak::regex::Default</text>
<text text-anchor="start" x="204.5" y="-510.5" font-family="Helvetica,sans-Serif" font-size="10.00">RegexIndex::match_query</text>
<text text-anchor="middle" x="268.5" y="-499.5" font-family="Helvetica,sans-Serif" font-size="10.00">_hash_lookup</text>
</a>
</g>
</g>
<!-- Node1&#45;&gt;Node5 -->
<g id="edge4_Node000001_Node000005" class="edge">
<title>Node1&#45;&gt;Node5</title>
<g id="a_edge4_Node000001_Node000005"><a xlink:title=" ">
<path fill="none" stroke="#63b8ff" d="M144.04,-513C157.75,-513 172.22,-513 186.22,-513"/>
<polygon fill="#63b8ff" stroke="#63b8ff" points="186.32,-516.5 196.32,-513 186.32,-509.5 186.32,-516.5"/>
</a>
</g>
</g>
<!-- Node11 -->
<g id="Node000011" class="node">
<title>Node11</title>
<g id="a_Node000011"><a xlink:href="classnetspeak_1_1regex_1_1DefaultRegexIndex.html#a6670d85281af35910d5d00d8997f7f37" target="_top" xlink:title="Returns the word at the given index in the word list.">
<polygon fill="white" stroke="#666666" points="549.5,-453 397.5,-453 397.5,-423 549.5,-423 549.5,-453"/>
<text text-anchor="start" x="405.5" y="-441" font-family="Helvetica,sans-Serif" font-size="10.00">netspeak::regex::Default</text>
<text text-anchor="middle" x="473.5" y="-430" font-family="Helvetica,sans-Serif" font-size="10.00">RegexIndex::word_at_index</text>
</a>
</g>
</g>
<!-- Node1&#45;&gt;Node11 -->
<g id="edge40_Node000001_Node000011" class="edge">
<title>Node1&#45;&gt;Node11</title>
<g id="a_edge40_Node000001_Node000011"><a xlink:title=" ">
<path fill="none" stroke="#63b8ff" d="M123.88,-498C141.55,-493.11 161.55,-487.94 180,-484 249.27,-469.21 328.7,-457.02 387.29,-448.91"/>
<polygon fill="#63b8ff" stroke="#63b8ff" points="387.81,-452.37 397.25,-447.54 386.86,-445.44 387.81,-452.37"/>
</a>
</g>
</g>
<!-- Node13 -->
<g id="Node000013" class="node">
<title>Node13</title>
<g id="a_Node000013"><a xlink:href="classnetspeak_1_1regex_1_1DefaultRegexIndex.html#aa6875223b64c6979bd2135023f71f2ce" target="_top" xlink:title=" ">
<polygon fill="white" stroke="#666666" points="357,-367 180,-367 180,-337 357,-337 357,-367"/>
<text text-anchor="start" x="188" y="-355" font-family="Helvetica,sans-Serif" font-size="10.00">netspeak::regex::Default</text>
<text text-anchor="middle" x="268.5" y="-344" font-family="Helvetica,sans-Serif" font-size="10.00">RegexIndex::match_query_regex</text>
</a>
</g>
</g>
<!-- Node1&#45;&gt;Node13 -->
<g id="edge13_Node000001_Node000013" class="edge">
<title>Node1&#45;&gt;Node13</title>
<g id="a_edge13_Node000001_Node000013"><a xlink:title=" ">
<path fill="none" stroke="#63b8ff" d="M91.3,-497.85C125.98,-469.15 201.38,-406.73 241.37,-373.63"/>
<polygon fill="#63b8ff" stroke="#63b8ff" points="243.64,-376.3 249.11,-367.22 239.17,-370.9 243.64,-376.3"/>
</a>
</g>
</g>
<!-- Node19 -->
<g id="Node000019" class="node">
<title>Node19</title>
<g id="a_Node000019"><a xlink:href="classnetspeak_1_1regex_1_1DefaultRegexIndex.html#a445e83616a9f062d4f44db53017f3e9c" target="_top" xlink:title="Optimizes the given query considering the properties of the vocabulary of the index.">
<polygon fill="white" stroke="#666666" points="346.5,-150 190.5,-150 190.5,-120 346.5,-120 346.5,-150"/>
<text text-anchor="start" x="198.5" y="-138" font-family="Helvetica,sans-Serif" font-size="10.00">netspeak::regex::Default</text>
<text text-anchor="middle" x="268.5" y="-127" font-family="Helvetica,sans-Serif" font-size="10.00">RegexIndex::optimize_query</text>
</a>
</g>
</g>
<!-- Node1&#45;&gt;Node19 -->
<g id="edge22_Node000001_Node000019" class="edge">
<title>Node1&#45;&gt;Node19</title>
<g id="a_edge22_Node000001_Node000019"><a xlink:title=" ">
<path fill="none" stroke="#63b8ff" d="M80.87,-497.71C110.87,-439.41 218.27,-230.67 255.04,-159.21"/>
<polygon fill="#63b8ff" stroke="#63b8ff" points="258.29,-160.56 259.75,-150.06 252.06,-157.35 258.29,-160.56"/>
</a>
</g>
</g>
<!-- Node30 -->
<g id="Node000030" class="node">
<title>Node30</title>
<g id="a_Node000030"><a xlink:href="classnetspeak_1_1regex_1_1RegexQuery.html#a2f4d2e52bef616730e1395063c3e82ed" target="_top" xlink:title="Returns whether this query will reject all words.">
<polygon fill="white" stroke="#666666" points="349,-654 188,-654 188,-624 349,-624 349,-654"/>
<text text-anchor="start" x="196" y="-642" font-family="Helvetica,sans-Serif" font-size="10.00">netspeak::regex::RegexQuery</text>
<text text-anchor="middle" x="268.5" y="-631" font-family="Helvetica,sans-Serif" font-size="10.00">::reject_all</text>
</a>
</g>
</g>
<!-- Node1&#45;&gt;Node30 -->
<g id="edge38_Node000001_Node000030" class="edge">
<title>Node1&#45;&gt;Node30</title>
<g id="a_edge38_Node000001_Node000030"><a xlink:title=" ">
<path fill="none" stroke="#63b8ff" d="M89.08,-528.07C109.23,-546.42 145.32,-577.6 180,-599 192.35,-606.62 206.4,-613.68 219.57,-619.68"/>
<polygon fill="#63b8ff" stroke="#63b8ff" points="218.41,-622.99 228.97,-623.85 221.25,-616.59 218.41,-622.99"/>
</a>
</g>
</g>
<!-- Node3 -->
<g id="Node000003" class="node">
<title>Node3</title>
<g id="a_Node000003"><a xlink:href="classnetspeak_1_1regex_1_1RegexQuery.html#aa0a5cc38ccc6098fa3a77bcf9cb79edd" target="_top" xlink:title="Returns whether this query will accept all words.">
<polygon fill="white" stroke="#666666" points="554,-711 393,-711 393,-681 554,-681 554,-711"/>
<text text-anchor="start" x="401" y="-699" font-family="Helvetica,sans-Serif" font-size="10.00">netspeak::regex::RegexQuery</text>
<text text-anchor="middle" x="473.5" y="-688" font-family="Helvetica,sans-Serif" font-size="10.00">::accept_all</text>
</a>
</g>
</g>
<!-- Node2&#45;&gt;Node3 -->
<g id="edge2_Node000002_Node000003" class="edge">
<title>Node2&#45;&gt;Node3</title>
<g id="a_edge2_Node000002_Node000003"><a xlink:title=" ">
<path fill="none" stroke="#63b8ff" d="M349.15,-694.18C360.12,-694.34 371.45,-694.51 382.59,-694.67"/>
<polygon fill="#63b8ff" stroke="#63b8ff" points="382.7,-698.17 392.75,-694.82 382.8,-691.17 382.7,-698.17"/>
</a>
</g>
</g>
<!-- Node6 -->
<g id="Node000006" class="node">
<title>Node6</title>
<g id="a_Node000006"><a xlink:href="classnetspeak_1_1regex_1_1DefaultRegexIndex.html#aebcc95cc799f637dbdca131be9380c8c" target="_top" xlink:title="Returns the index of the given word or UINT32_MAX if the given word is not a word of the vocabulary.">
<polygon fill="white" stroke="#666666" points="542,-615 405,-615 405,-585 542,-585 542,-615"/>
<text text-anchor="start" x="413" y="-603" font-family="Helvetica,sans-Serif" font-size="10.00">netspeak::regex::Default</text>
<text text-anchor="middle" x="473.5" y="-592" font-family="Helvetica,sans-Serif" font-size="10.00">RegexIndex::find_word</text>
</a>
</g>
</g>
<!-- Node5&#45;&gt;Node6 -->
<g id="edge5_Node000005_Node000006" class="edge">
<title>Node5&#45;&gt;Node6</title>
<g id="a_edge5_Node000005_Node000006"><a xlink:title=" ">
<path fill="none" stroke="#63b8ff" d="M305.72,-533.64C329.92,-546.89 362.74,-563.83 393,-576 397.81,-577.93 402.84,-579.8 407.92,-581.57"/>
<polygon fill="#63b8ff" stroke="#63b8ff" points="407.15,-585.01 417.74,-584.88 409.38,-578.37 407.15,-585.01"/>
</a>
</g>
</g>
<!-- Node8 -->
<g id="Node000008" class="node">
<title>Node8</title>
<g id="a_Node000008"><a xlink:href="namespacenetspeak_1_1regex.html#ace4835f8060dcf407b0f4bdf422de2b2" target="_top" xlink:title=" ">
<polygon fill="white" stroke="#666666" points="536.5,-501 410.5,-501 410.5,-471 536.5,-471 536.5,-501"/>
<text text-anchor="start" x="418.5" y="-489" font-family="Helvetica,sans-Serif" font-size="10.00">netspeak::regex::finite</text>
<text text-anchor="middle" x="473.5" y="-478" font-family="Helvetica,sans-Serif" font-size="10.00">_query_to_utf8</text>
</a>
</g>
</g>
<!-- Node5&#45;&gt;Node8 -->
<g id="edge7_Node000005_Node000008" class="edge">
<title>Node5&#45;&gt;Node8</title>
<g id="a_edge7_Node000005_Node000008"><a xlink:title=" ">
<path fill="none" stroke="#63b8ff" d="M340.78,-503.52C360.14,-500.94 381.12,-498.15 400.52,-495.57"/>
<polygon fill="#63b8ff" stroke="#63b8ff" points="401.05,-499.03 410.5,-494.25 400.13,-492.1 401.05,-499.03"/>
</a>
</g>
</g>
<!-- Node10 -->
<g id="Node000010" class="node">
<title>Node10</title>
<g id="a_Node000010"><a xlink:href="namespacenetspeak_1_1regex.html#a51168d153e77973b3bc1329b2ab4420c" target="_top" xlink:title=" ">
<polygon fill="white" stroke="#666666" points="545,-549 402,-549 402,-519 545,-519 545,-549"/>
<text text-anchor="start" x="410" y="-537" font-family="Helvetica,sans-Serif" font-size="10.00">netspeak::regex::match</text>
<text text-anchor="middle" x="473.5" y="-526" font-family="Helvetica,sans-Serif" font-size="10.00">_query_hash_lookup_impl</text>
</a>
</g>
</g>
<!-- Node5&#45;&gt;Node10 -->
<g id="edge9_Node000005_Node000010" class="edge">
<title>Node5&#45;&gt;Node10</title>
<g id="a_edge9_Node000005_Node000010"><a xlink:title=" ">
<path fill="none" stroke="#63b8ff" d="M340.78,-520.37C357.15,-522.07 374.67,-523.88 391.42,-525.61"/>
<polygon fill="#63b8ff" stroke="#63b8ff" points="391.42,-529.13 401.73,-526.68 392.14,-522.17 391.42,-529.13"/>
</a>
</g>
</g>
<!-- Node5&#45;&gt;Node11 -->
<g id="edge11_Node000005_Node000011" class="edge">
<title>Node5&#45;&gt;Node11</title>
<g id="a_edge11_Node000005_Node000011"><a xlink:title=" ">
<path fill="none" stroke="#63b8ff" d="M316.29,-492.41C339.2,-482.65 367.33,-471.15 393,-462 398.57,-460.02 404.39,-458.05 410.25,-456.15"/>
<polygon fill="#63b8ff" stroke="#63b8ff" points="411.62,-459.39 420.09,-453.02 409.5,-452.72 411.62,-459.39"/>
</a>
</g>
</g>
<!-- Node7 -->
<g id="Node000007" class="node">
<title>Node7</title>
<g id="a_Node000007"><a xlink:href="namespacenetspeak_1_1regex.html#a6f4fc36a36d53c9404c8c58994db4f16" target="_top" xlink:title=" ">
<polygon fill="white" stroke="#666666" points="751,-609.5 597,-609.5 597,-590.5 751,-590.5 751,-609.5"/>
<text text-anchor="middle" x="674" y="-597.5" font-family="Helvetica,sans-Serif" font-size="10.00">netspeak::regex::hash_word</text>
</a>
</g>
</g>
<!-- Node6&#45;&gt;Node7 -->
<g id="edge6_Node000006_Node000007" class="edge">
<title>Node6&#45;&gt;Node7</title>
<g id="a_edge6_Node000006_Node000007"><a xlink:title=" ">
<path fill="none" stroke="#63b8ff" d="M542.26,-600C556.49,-600 571.69,-600 586.51,-600"/>
<polygon fill="#63b8ff" stroke="#63b8ff" points="586.69,-603.5 596.68,-600 586.68,-596.5 586.69,-603.5"/>
</a>
</g>
</g>
<!-- Node9 -->
<g id="Node000009" class="node">
<title>Node9</title>
<g id="a_Node000009"><a xlink:href="classnetspeak_1_1regex_1_1RegexQuery.html#ace5fe64453987c6f605300a8aa5d4ee4" target="_top" xlink:title="Get the underlying units.">
<polygon fill="white" stroke="#666666" points="754.5,-336 593.5,-336 593.5,-306 754.5,-306 754.5,-336"/>
<text text-anchor="start" x="601.5" y="-324" font-family="Helvetica,sans-Serif" font-size="10.00">netspeak::regex::RegexQuery</text>
<text text-anchor="middle" x="674" y="-313" font-family="Helvetica,sans-Serif" font-size="10.00">::get_units</text>
</a>
</g>
</g>
<!-- Node8&#45;&gt;Node9 -->
<g id="edge8_Node000008_Node000009" class="edge">
<title>Node8&#45;&gt;Node9</title>
<g id="a_edge8_Node000008_Node000009"><a xlink:title=" ">
<path fill="none" stroke="#63b8ff" d="M536.55,-474.07C542.99,-470.94 548.99,-466.98 554,-462 592.57,-423.63 551.2,-383.14 590,-345 591.1,-343.92 592.25,-342.88 593.44,-341.89"/>
<polygon fill="#63b8ff" stroke="#63b8ff" points="595.65,-344.62 601.82,-336.01 591.62,-338.89 595.65,-344.62"/>
</a>
</g>
</g>
<!-- Node10&#45;&gt;Node10 -->
<g id="edge10_Node000010_Node000010" class="edge">
<title>Node10&#45;&gt;Node10</title>
<g id="a_edge10_Node000010_Node000010"><a xlink:title=" ">
<path fill="none" stroke="#63b8ff" d="M438.34,-549.28C430.53,-558.41 442.25,-567 473.5,-567 492.05,-567 503.72,-563.97 508.51,-559.6"/>
<polygon fill="#63b8ff" stroke="#63b8ff" points="512.01,-559.32 508.66,-549.28 505.01,-559.22 512.01,-559.32"/>
</a>
</g>
</g>
<!-- Node12 -->
<g id="Node000012" class="node">
<title>Node12</title>
<g id="a_Node000012"><a xlink:href="classnetspeak_1_1regex_1_1DefaultRegexIndex.html#a54963c57bab5c92e0044c351b69da357" target="_top" xlink:title="Returns the word string from the given entry.">
<polygon fill="white" stroke="#666666" points="756,-439 592,-439 592,-409 756,-409 756,-439"/>
<text text-anchor="start" x="600" y="-427" font-family="Helvetica,sans-Serif" font-size="10.00">netspeak::regex::Default</text>
<text text-anchor="middle" x="674" y="-416" font-family="Helvetica,sans-Serif" font-size="10.00">RegexIndex::word_from_entry</text>
</a>
</g>
</g>
<!-- Node11&#45;&gt;Node12 -->
<g id="edge12_Node000011_Node000012" class="edge">
<title>Node11&#45;&gt;Node12</title>
<g id="a_edge12_Node000011_Node000012"><a xlink:title=" ">
<path fill="none" stroke="#63b8ff" d="M549.54,-432.71C560.03,-431.97 570.89,-431.2 581.64,-430.44"/>
<polygon fill="#63b8ff" stroke="#63b8ff" points="582.15,-433.92 591.88,-429.72 581.66,-426.93 582.15,-433.92"/>
</a>
</g>
</g>
<!-- Node13&#45;&gt;Node12 -->
<g id="edge21_Node000013_Node000012" class="edge">
<title>Node13&#45;&gt;Node12</title>
<g id="a_edge21_Node000013_Node000012"><a xlink:title=" ">
<path fill="none" stroke="#63b8ff" d="M345.54,-367.05C361.22,-370.08 377.64,-373.19 393,-376 455.91,-387.5 526.94,-399.67 581.71,-408.88"/>
<polygon fill="#63b8ff" stroke="#63b8ff" points="581.3,-412.36 591.74,-410.56 582.46,-405.45 581.3,-412.36"/>
</a>
</g>
</g>
<!-- Node14 -->
<g id="Node000014" class="node">
<title>Node14</title>
<g id="a_Node000014"><a xlink:href="namespacenetspeak_1_1regex.html#afac3221e2a2d1a5db57380f4b12386c9" target="_top" xlink:title=" ">
<polygon fill="white" stroke="#666666" points="539.5,-367 407.5,-367 407.5,-337 539.5,-337 539.5,-367"/>
<text text-anchor="start" x="415.5" y="-355" font-family="Helvetica,sans-Serif" font-size="10.00">netspeak::regex::create</text>
<text text-anchor="middle" x="473.5" y="-344" font-family="Helvetica,sans-Serif" font-size="10.00">_regex_pattern</text>
</a>
</g>
</g>
<!-- Node13&#45;&gt;Node14 -->
<g id="edge14_Node000013_Node000014" class="edge">
<title>Node13&#45;&gt;Node14</title>
<g id="a_edge14_Node000013_Node000014"><a xlink:title=" ">
<path fill="none" stroke="#63b8ff" d="M357.06,-352C370.36,-352 383.98,-352 396.98,-352"/>
<polygon fill="#63b8ff" stroke="#63b8ff" points="397.27,-355.5 407.27,-352 397.27,-348.5 397.27,-355.5"/>
</a>
</g>
</g>
<!-- Node16 -->
<g id="Node000016" class="node">
<title>Node16</title>
<g id="a_Node000016"><a xlink:href="classnetspeak_1_1regex_1_1RegexQuery.html#a027a4b5415fce264c86bdd7c038ca46b" target="_top" xlink:title="Returns the maximum number of UTF8 bytes a word can to have to match this query.">
<polygon fill="white" stroke="#666666" points="554,-281 393,-281 393,-251 554,-251 554,-281"/>
<text text-anchor="start" x="401" y="-269" font-family="Helvetica,sans-Serif" font-size="10.00">netspeak::regex::RegexQuery</text>
<text text-anchor="middle" x="473.5" y="-258" font-family="Helvetica,sans-Serif" font-size="10.00">::max_utf8_input_length</text>
</a>
</g>
</g>
<!-- Node13&#45;&gt;Node16 -->
<g id="edge17_Node000013_Node000016" class="edge">
<title>Node13&#45;&gt;Node16</title>
<g id="a_edge17_Node000013_Node000016"><a xlink:title=" ">
<path fill="none" stroke="#63b8ff" d="M305.33,-336.82C339.39,-322.39 390.74,-300.64 427.54,-285.05"/>
<polygon fill="#63b8ff" stroke="#63b8ff" points="429.19,-288.15 437.03,-281.03 426.46,-281.7 429.19,-288.15"/>
</a>
</g>
</g>
<!-- Node18 -->
<g id="Node000018" class="node">
<title>Node18</title>
<g id="a_Node000018"><a xlink:href="classnetspeak_1_1regex_1_1RegexQuery.html#a634da32c1d91b1d13ffcb3bc0edf259c" target="_top" xlink:title="Returns the minimum number of UTF8 bytes a word has to have to match this query.">
<polygon fill="white" stroke="#666666" points="554,-233 393,-233 393,-203 554,-203 554,-233"/>
<text text-anchor="start" x="401" y="-221" font-family="Helvetica,sans-Serif" font-size="10.00">netspeak::regex::RegexQuery</text>
<text text-anchor="middle" x="473.5" y="-210" font-family="Helvetica,sans-Serif" font-size="10.00">::min_utf8_input_length</text>
</a>
</g>
</g>
<!-- Node13&#45;&gt;Node18 -->
<g id="edge19_Node000013_Node000018" class="edge">
<title>Node13&#45;&gt;Node18</title>
<g id="a_edge19_Node000013_Node000018"><a xlink:title=" ">
<path fill="none" stroke="#63b8ff" d="M282.37,-336.92C303.27,-313.34 346.9,-267.81 393,-242 396.21,-240.2 399.57,-238.53 403.01,-236.96"/>
<polygon fill="#63b8ff" stroke="#63b8ff" points="404.42,-240.17 412.3,-233.09 401.72,-233.71 404.42,-240.17"/>
</a>
</g>
</g>
<!-- Node14&#45;&gt;Node9 -->
<g id="edge15_Node000014_Node000009" class="edge">
<title>Node14&#45;&gt;Node9</title>
<g id="a_edge15_Node000014_Node000009"><a xlink:title=" ">
<path fill="none" stroke="#63b8ff" d="M539.77,-341.81C553.73,-339.63 568.7,-337.29 583.39,-334.99"/>
<polygon fill="#63b8ff" stroke="#63b8ff" points="584.16,-338.42 593.5,-333.42 583.08,-331.5 584.16,-338.42"/>
</a>
</g>
</g>
<!-- Node15 -->
<g id="Node000015" class="node">
<title>Node15</title>
<g id="a_Node000015"><a xlink:href="namespacenetspeak_1_1regex.html#a2012930d0c5c43d0ad661a49adceb26b" target="_top" xlink:title=" ">
<polygon fill="white" stroke="#666666" points="738.5,-384 609.5,-384 609.5,-354 738.5,-354 738.5,-384"/>
<text text-anchor="start" x="617.5" y="-372" font-family="Helvetica,sans-Serif" font-size="10.00">netspeak::regex::regex</text>
<text text-anchor="middle" x="674" y="-361" font-family="Helvetica,sans-Serif" font-size="10.00">_pattern_append_char</text>
</a>
</g>
</g>
<!-- Node14&#45;&gt;Node15 -->
<g id="edge16_Node000014_Node000015" class="edge">
<title>Node14&#45;&gt;Node15</title>
<g id="a_edge16_Node000014_Node000015"><a xlink:title=" ">
<path fill="none" stroke="#63b8ff" d="M539.77,-357.59C558.82,-359.22 579.78,-361.02 599.31,-362.69"/>
<polygon fill="#63b8ff" stroke="#63b8ff" points="599.12,-366.19 609.38,-363.55 599.71,-359.21 599.12,-366.19"/>
</a>
</g>
</g>
<!-- Node17 -->
<g id="Node000017" class="node">
<title>Node17</title>
<g id="a_Node000017"><a xlink:href="namespacenetspeak_1_1regex.html#a6e50f7971c5d223b3dfc4ed586fd45d6" target="_top" xlink:title=" ">
<polygon fill="white" stroke="#666666" points="743.5,-284 604.5,-284 604.5,-254 743.5,-254 743.5,-284"/>
<text text-anchor="start" x="612.5" y="-272" font-family="Helvetica,sans-Serif" font-size="10.00">netspeak::regex::number</text>
<text text-anchor="middle" x="674" y="-261" font-family="Helvetica,sans-Serif" font-size="10.00">_of_utf8_bytes</text>
</a>
</g>
</g>
<!-- Node16&#45;&gt;Node17 -->
<g id="edge18_Node000016_Node000017" class="edge">
<title>Node16&#45;&gt;Node17</title>
<g id="a_edge18_Node000016_Node000017"><a xlink:title=" ">
<path fill="none" stroke="#63b8ff" d="M554.09,-267.2C567.2,-267.4 580.78,-267.61 593.88,-267.8"/>
<polygon fill="#63b8ff" stroke="#63b8ff" points="594.21,-271.31 604.26,-267.96 594.31,-264.31 594.21,-271.31"/>
</a>
</g>
</g>
<!-- Node18&#45;&gt;Node17 -->
<g id="edge20_Node000018_Node000017" class="edge">
<title>Node18&#45;&gt;Node17</title>
<g id="a_edge20_Node000018_Node000017"><a xlink:title=" ">
<path fill="none" stroke="#63b8ff" d="M532.98,-233.03C555.5,-238.81 581.4,-245.47 604.76,-251.47"/>
<polygon fill="#63b8ff" stroke="#63b8ff" points="604.04,-254.89 614.59,-253.99 605.78,-248.12 604.04,-254.89"/>
</a>
</g>
</g>
<!-- Node19&#45;&gt;Node9 -->
<g id="edge34_Node000019_Node000009" class="edge">
<title>Node19&#45;&gt;Node9</title>
<g id="a_edge34_Node000019_Node000009"><a xlink:title=" ">
<path fill="none" stroke="#63b8ff" d="M276.46,-150.2C292.09,-182.37 333.35,-257.09 393,-290 450.77,-321.87 525.41,-328.76 583.09,-328.15"/>
<polygon fill="#63b8ff" stroke="#63b8ff" points="583.36,-331.64 593.29,-327.96 583.23,-324.64 583.36,-331.64"/>
</a>
</g>
</g>
<!-- Node20 -->
<g id="Node000020" class="node">
<title>Node20</title>
<g id="a_Node000020"><a xlink:href="classnetspeak_1_1regex_1_1RegexQueryBuilder.html#a626cce510f80b416ea26d8d1e9d4891c" target="_top" xlink:title="Adds the given unit to the internal query.">
<polygon fill="white" stroke="#666666" points="554,-178 393,-178 393,-148 554,-148 554,-178"/>
<text text-anchor="start" x="401" y="-166" font-family="Helvetica,sans-Serif" font-size="10.00">netspeak::regex::RegexQuery</text>
<text text-anchor="middle" x="473.5" y="-155" font-family="Helvetica,sans-Serif" font-size="10.00">Builder::add</text>
</a>
</g>
</g>
<!-- Node19&#45;&gt;Node20 -->
<g id="edge23_Node000019_Node000020" class="edge">
<title>Node19&#45;&gt;Node20</title>
<g id="a_edge23_Node000019_Node000020"><a xlink:title=" ">
<path fill="none" stroke="#63b8ff" d="M346.54,-145.63C358.36,-147.26 370.67,-148.95 382.74,-150.62"/>
<polygon fill="#63b8ff" stroke="#63b8ff" points="382.43,-154.11 392.82,-152.01 383.39,-147.18 382.43,-154.11"/>
</a>
</g>
</g>
<!-- Node22 -->
<g id="Node000022" class="node">
<title>Node22</title>
<g id="a_Node000022"><a xlink:href="structnetspeak_1_1regex_1_1RegexUnit.html#a98dff8023a5bb0d25f87f544dbb39659" target="_top" xlink:title=" ">
<polygon fill="white" stroke="#666666" points="946,-97 794,-97 794,-67 946,-67 946,-97"/>
<text text-anchor="start" x="802" y="-85" font-family="Helvetica,sans-Serif" font-size="10.00">netspeak::regex::RegexUnit</text>
<text text-anchor="middle" x="870" y="-74" font-family="Helvetica,sans-Serif" font-size="10.00">::char_set</text>
</a>
</g>
</g>
<!-- Node19&#45;&gt;Node22 -->
<g id="edge32_Node000019_Node000022" class="edge">
<title>Node19&#45;&gt;Node22</title>
<g id="a_edge32_Node000019_Node000022"><a xlink:title=" ">
<path fill="none" stroke="#63b8ff" d="M346.65,-128.18C458.96,-118.25 666.79,-99.88 783.59,-89.55"/>
<polygon fill="#63b8ff" stroke="#63b8ff" points="783.91,-93.04 793.57,-88.67 783.3,-86.06 783.91,-93.04"/>
</a>
</g>
</g>
<!-- Node27 -->
<g id="Node000027" class="node">
<title>Node27</title>
<g id="a_Node000027"><a xlink:href="namespacenetspeak_1_1regex.html#aebd2483ad4c4c5830b3a7b1f4dbe1e67" target="_top" xlink:title=" ">
<polygon fill="white" stroke="#666666" points="545,-78 402,-78 402,-48 545,-48 545,-78"/>
<text text-anchor="start" x="410" y="-66" font-family="Helvetica,sans-Serif" font-size="10.00">netspeak::regex::contains</text>
<text text-anchor="middle" x="473.5" y="-55" font-family="Helvetica,sans-Serif" font-size="10.00">_unknown_characters</text>
</a>
</g>
</g>
<!-- Node19&#45;&gt;Node27 -->
<g id="edge33_Node000019_Node000027" class="edge">
<title>Node19&#45;&gt;Node27</title>
<g id="a_edge33_Node000019_Node000027"><a xlink:title=" ">
<path fill="none" stroke="#63b8ff" d="M312.06,-119.91C343.59,-108.72 386.74,-93.42 420.35,-81.5"/>
<polygon fill="#63b8ff" stroke="#63b8ff" points="421.75,-84.72 430,-78.07 419.41,-78.12 421.75,-84.72"/>
</a>
</g>
</g>
<!-- Node28 -->
<g id="Node000028" class="node">
<title>Node28</title>
<g id="a_Node000028"><a xlink:href="classnetspeak_1_1regex_1_1RegexQueryBuilder.html#a7ef4e5553d0ec791b3960977a25e463f" target="_top" xlink:title="Creates a query from the current internal state.">
<polygon fill="white" stroke="#666666" points="554,-30 393,-30 393,0 554,0 554,-30"/>
<text text-anchor="start" x="401" y="-18" font-family="Helvetica,sans-Serif" font-size="10.00">netspeak::regex::RegexQuery</text>
<text text-anchor="middle" x="473.5" y="-7" font-family="Helvetica,sans-Serif" font-size="10.00">Builder::to_query</text>
</a>
</g>
</g>
<!-- Node19&#45;&gt;Node28 -->
<g id="edge35_Node000019_Node000028" class="edge">
<title>Node19&#45;&gt;Node28</title>
<g id="a_edge35_Node000019_Node000028"><a xlink:title=" ">
<path fill="none" stroke="#63b8ff" d="M284.95,-119.88C307.12,-98.94 350.06,-61.19 393,-39 396.67,-37.1 400.52,-35.33 404.46,-33.67"/>
<polygon fill="#63b8ff" stroke="#63b8ff" points="405.74,-36.93 413.77,-30.03 403.19,-30.41 405.74,-36.93"/>
</a>
</g>
</g>
<!-- Node21 -->
<g id="Node000021" class="node">
<title>Node21</title>
<g id="a_Node000021"><a xlink:href="namespacenetspeak_1_1regex.html#a7bcd9407eaeeaacfbdac4b3b53246bb8" target="_top" xlink:title=" ">
<polygon fill="white" stroke="#666666" points="758,-149.5 590,-149.5 590,-130.5 758,-130.5 758,-149.5"/>
<text text-anchor="middle" x="674" y="-137.5" font-family="Helvetica,sans-Serif" font-size="10.00">netspeak::regex::optimize_unit</text>
</a>
</g>
</g>
<!-- Node20&#45;&gt;Node21 -->
<g id="edge24_Node000020_Node000021" class="edge">
<title>Node20&#45;&gt;Node21</title>
<g id="a_edge24_Node000020_Node000021"><a xlink:title=" ">
<path fill="none" stroke="#63b8ff" d="M554.09,-153.78C562.87,-152.76 571.86,-151.72 580.78,-150.69"/>
<polygon fill="#63b8ff" stroke="#63b8ff" points="581.26,-154.15 590.79,-149.53 580.46,-147.2 581.26,-154.15"/>
</a>
</g>
</g>
<!-- Node24 -->
<g id="Node000024" class="node">
<title>Node24</title>
<g id="a_Node000024"><a xlink:href="structnetspeak_1_1regex_1_1RegexUnit.html#a4da1987f131aa9640b7e77d7960b031b" target="_top" xlink:title=" ">
<polygon fill="white" stroke="#666666" points="946,-193 794,-193 794,-163 946,-163 946,-193"/>
<text text-anchor="start" x="802" y="-181" font-family="Helvetica,sans-Serif" font-size="10.00">netspeak::regex::RegexUnit</text>
<text text-anchor="middle" x="870" y="-170" font-family="Helvetica,sans-Serif" font-size="10.00">::word</text>
</a>
</g>
</g>
<!-- Node20&#45;&gt;Node24 -->
<g id="edge31_Node000020_Node000024" class="edge">
<title>Node20&#45;&gt;Node24</title>
<g id="a_edge31_Node000020_Node000024"><a xlink:title=" ">
<path fill="none" stroke="#63b8ff" d="M554.33,-166.04C620.93,-168.57 715.61,-172.17 783.7,-174.76"/>
<polygon fill="#63b8ff" stroke="#63b8ff" points="783.84,-178.26 793.96,-175.15 784.1,-171.27 783.84,-178.26"/>
</a>
</g>
</g>
<!-- Node25 -->
<g id="Node000025" class="node">
<title>Node25</title>
<g id="a_Node000025"><a xlink:href="namespacenetspeak_1_1regex.html#af699a70a2450bb3c60f6eb849b7e6176" target="_top" xlink:title="Removes all trailing optional words.">
<polygon fill="white" stroke="#666666" points="743.5,-236 604.5,-236 604.5,-206 743.5,-206 743.5,-236"/>
<text text-anchor="start" x="612.5" y="-224" font-family="Helvetica,sans-Serif" font-size="10.00">netspeak::regex::remove</text>
<text text-anchor="middle" x="674" y="-213" font-family="Helvetica,sans-Serif" font-size="10.00">_trailing_optional_words</text>
</a>
</g>
</g>
<!-- Node20&#45;&gt;Node25 -->
<g id="edge29_Node000020_Node000025" class="edge">
<title>Node20&#45;&gt;Node25</title>
<g id="a_edge29_Node000020_Node000025"><a xlink:title=" ">
<path fill="none" stroke="#63b8ff" d="M525.88,-178.01C552.07,-185.66 584.11,-195.03 611.59,-203.06"/>
<polygon fill="#63b8ff" stroke="#63b8ff" points="610.91,-206.51 621.49,-205.95 612.88,-199.79 610.91,-206.51"/>
</a>
</g>
</g>
<!-- Node21&#45;&gt;Node22 -->
<g id="edge25_Node000021_Node000022" class="edge">
<title>Node21&#45;&gt;Node22</title>
<g id="a_edge25_Node000021_Node000022"><a xlink:title=" ">
<path fill="none" stroke="#63b8ff" d="M708.55,-130.43C723.68,-126.08 741.75,-120.84 758,-116 775.12,-110.9 793.68,-105.26 810.64,-100.06"/>
<polygon fill="#63b8ff" stroke="#63b8ff" points="811.89,-103.34 820.42,-97.06 809.83,-96.65 811.89,-103.34"/>
</a>
</g>
</g>
<!-- Node23 -->
<g id="Node000023" class="node">
<title>Node23</title>
<g id="a_Node000023"><a xlink:href="namespacenetspeak_1_1regex.html#a330e12f037f1cfe62d8e2bd33d3fd1e7" target="_top" xlink:title="Returns a new string in which all duplicate characters of the given string are removed.">
<polygon fill="white" stroke="#666666" points="939,-145 801,-145 801,-115 939,-115 939,-145"/>
<text text-anchor="start" x="809" y="-133" font-family="Helvetica,sans-Serif" font-size="10.00">netspeak::regex::without</text>
<text text-anchor="middle" x="870" y="-122" font-family="Helvetica,sans-Serif" font-size="10.00">_duplicates</text>
</a>
</g>
</g>
<!-- Node21&#45;&gt;Node23 -->
<g id="edge26_Node000021_Node000023" class="edge">
<title>Node21&#45;&gt;Node23</title>
<g id="a_edge26_Node000021_Node000023"><a xlink:title=" ">
<path fill="none" stroke="#63b8ff" d="M758.12,-135.72C768.95,-135.16 780.02,-134.59 790.77,-134.03"/>
<polygon fill="#63b8ff" stroke="#63b8ff" points="791.15,-137.52 800.96,-133.51 790.79,-130.53 791.15,-137.52"/>
</a>
</g>
</g>
<!-- Node21&#45;&gt;Node24 -->
<g id="edge27_Node000021_Node000024" class="edge">
<title>Node21&#45;&gt;Node24</title>
<g id="a_edge27_Node000021_Node000024"><a xlink:title=" ">
<path fill="none" stroke="#63b8ff" d="M723.95,-149.59C742.19,-153.16 763.45,-157.32 783.98,-161.35"/>
<polygon fill="#63b8ff" stroke="#63b8ff" points="783.5,-164.82 793.99,-163.31 784.85,-157.95 783.5,-164.82"/>
</a>
</g>
</g>
<!-- Node24&#45;&gt;Node24 -->
<g id="edge28_Node000024_Node000024" class="edge">
<title>Node24&#45;&gt;Node24</title>
<g id="a_edge28_Node000024_Node000024"><a xlink:title=" ">
<path fill="none" stroke="#63b8ff" d="M835.55,-193.28C827.89,-202.41 839.38,-211 870,-211 888.18,-211 899.62,-207.97 904.31,-203.6"/>
<polygon fill="#63b8ff" stroke="#63b8ff" points="907.81,-203.32 904.45,-193.28 900.81,-203.22 907.81,-203.32"/>
</a>
</g>
</g>
<!-- Node26 -->
<g id="Node000026" class="node">
<title>Node26</title>
<g id="a_Node000026"><a xlink:href="structnetspeak_1_1regex_1_1RegexUnit.html#a3b20469cd1d0f8e97d6d6ce6626fd5a5" target="_top" xlink:title=" ">
<polygon fill="white" stroke="#666666" points="946,-259 794,-259 794,-229 946,-229 946,-259"/>
<text text-anchor="start" x="802" y="-247" font-family="Helvetica,sans-Serif" font-size="10.00">netspeak::regex::RegexUnit</text>
<text text-anchor="middle" x="870" y="-236" font-family="Helvetica,sans-Serif" font-size="10.00">::qmark</text>
</a>
</g>
</g>
<!-- Node25&#45;&gt;Node26 -->
<g id="edge30_Node000025_Node000026" class="edge">
<title>Node25&#45;&gt;Node26</title>
<g id="a_edge30_Node000025_Node000026"><a xlink:title=" ">
<path fill="none" stroke="#63b8ff" d="M743.67,-229.14C756.61,-230.68 770.29,-232.3 783.67,-233.88"/>
<polygon fill="#63b8ff" stroke="#63b8ff" points="783.48,-237.39 793.83,-235.09 784.31,-230.43 783.48,-237.39"/>
</a>
</g>
</g>
<!-- Node29 -->
<g id="Node000029" class="node">
<title>Node29</title>
<g id="a_Node000029"><a xlink:href="classnetspeak_1_1regex_1_1RegexQuery.html#a74390b07cc488876e518d35979f3f814" target="_top" xlink:title="Create a new RegexQuery that rejects all words.">
<polygon fill="white" stroke="#666666" points="754.5,-54 593.5,-54 593.5,-24 754.5,-24 754.5,-54"/>
<text text-anchor="start" x="601.5" y="-42" font-family="Helvetica,sans-Serif" font-size="10.00">netspeak::regex::RegexQuery</text>
<text text-anchor="middle" x="674" y="-31" font-family="Helvetica,sans-Serif" font-size="10.00">::create_reject_all</text>
</a>
</g>
</g>
<!-- Node28&#45;&gt;Node29 -->
<g id="edge36_Node000028_Node000029" class="edge">
<title>Node28&#45;&gt;Node29</title>
<g id="a_edge36_Node000028_Node000029"><a xlink:title=" ">
<path fill="none" stroke="#63b8ff" d="M554.09,-24.62C563.7,-25.78 573.56,-26.98 583.3,-28.15"/>
<polygon fill="#63b8ff" stroke="#63b8ff" points="583.04,-31.65 593.39,-29.37 583.88,-24.7 583.04,-31.65"/>
</a>
</g>
</g>
<!-- Node29&#45;&gt;Node22 -->
<g id="edge37_Node000029_Node000022" class="edge">
<title>Node29&#45;&gt;Node22</title>
<g id="a_edge37_Node000029_Node000022"><a xlink:title=" ">
<path fill="none" stroke="#63b8ff" d="M742.85,-54.04C758.51,-57.51 775.28,-61.23 791.31,-64.78"/>
<polygon fill="#63b8ff" stroke="#63b8ff" points="790.67,-68.22 801.19,-66.97 792.18,-61.39 790.67,-68.22"/>
</a>
</g>
</g>
<!-- Node30&#45;&gt;Node4 -->
<g id="edge39_Node000030_Node000004" class="edge">
<title>Node30&#45;&gt;Node4</title>
<g id="a_edge39_Node000030_Node000004"><a xlink:title=" ">
<path fill="none" stroke="#63b8ff" d="M349.15,-642.53C360.12,-643.02 371.45,-643.52 382.59,-644.01"/>
<polygon fill="#63b8ff" stroke="#63b8ff" points="382.6,-647.52 392.75,-644.46 382.91,-640.52 382.6,-647.52"/>
</a>
</g>
</g>
</g>
</svg>
