<?xml version="1.0" encoding="UTF-8" standalone="no"?>
<!DOCTYPE svg PUBLIC "-//W3C//DTD SVG 1.1//EN"
 "http://www.w3.org/Graphics/SVG/1.1/DTD/svg11.dtd">
<!-- Generated by graphviz version 2.43.0 (0)
 -->
<!-- Title: netspeak::Configuration::get_optional Pages: 1 -->
<svg width="475pt" height="76pt"
 viewBox="0.00 0.00 475.00 75.50" xmlns="http://www.w3.org/2000/svg" xmlns:xlink="http://www.w3.org/1999/xlink">
<g id="graph0" class="graph" transform="scale(1 1) rotate(0) translate(4 71.5)">
<title>netspeak::Configuration::get_optional</title>
<!-- Node1 -->
<g id="Node000001" class="node">
<title>Node1</title>
<g id="a_Node000001"><a xlink:title=" ">
<polygon fill="#999999" stroke="#666666" points="133,-48.5 0,-48.5 0,-18.5 133,-18.5 133,-48.5"/>
<text text-anchor="start" x="8" y="-36.5" font-family="Helvetica,sans-Serif" font-size="10.00">netspeak::Configuration</text>
<text text-anchor="middle" x="66.5" y="-25.5" font-family="Helvetica,sans-Serif" font-size="10.00">::get_optional</text>
</a>
</g>
</g>
<!-- Node2 -->
<g id="Node000002" class="node">
<title>Node2</title>
<g id="a_Node000002"><a xlink:href="classnetspeak_1_1util_1_1Config.html#ab380dc04a08e5c65adfdc3b13aa27fad" target="_top" xlink:title=" ">
<polygon fill="white" stroke="#666666" points="467,-67.5 347,-67.5 347,-37.5 467,-37.5 467,-67.5"/>
<text text-anchor="start" x="355" y="-55.5" font-family="Helvetica,sans-Serif" font-size="10.00">netspeak::util::Config</text>
<text text-anchor="middle" x="407" y="-44.5" font-family="Helvetica,sans-Serif" font-size="10.00">::contains</text>
</a>
</g>
</g>
<!-- Node1&#45;&gt;Node2 -->
<g id="edge1_Node000001_Node000002" class="edge">
<title>Node1&#45;&gt;Node2</title>
<g id="a_edge1_Node000001_Node000002"><a xlink:title=" ">
<path fill="none" stroke="#63b8ff" d="M133.17,-37.19C191.69,-40.47 277.06,-45.26 336.67,-48.61"/>
<polygon fill="#63b8ff" stroke="#63b8ff" points="336.57,-52.11 346.75,-49.17 336.96,-45.12 336.57,-52.11"/>
</a>
</g>
</g>
<!-- Node3 -->
<g id="Node000003" class="node">
<title>Node3</title>
<g id="a_Node000003"><a xlink:href="classnetspeak_1_1util_1_1Config.html#a3664f30f248a879b1940df27a37f4f81" target="_top" xlink:title="Returns the value of the given key or the given default value if the key is not part of the config.">
<polygon fill="white" stroke="#666666" points="311,-24 169,-24 169,-5 311,-5 311,-24"/>
<text text-anchor="middle" x="240" y="-12" font-family="Helvetica,sans-Serif" font-size="10.00">netspeak::util::Config::get</text>
</a>
</g>
</g>
<!-- Node1&#45;&gt;Node3 -->
<g id="edge2_Node000001_Node000003" class="edge">
<title>Node1&#45;&gt;Node3</title>
<g id="a_edge2_Node000001_Node000003"><a xlink:title=" ">
<path fill="none" stroke="#63b8ff" d="M133.32,-26.21C141.67,-25.28 150.28,-24.33 158.83,-23.38"/>
<polygon fill="#63b8ff" stroke="#63b8ff" points="159.25,-26.86 168.8,-22.28 158.48,-19.9 159.25,-26.86"/>
</a>
</g>
</g>
<!-- Node3&#45;&gt;Node2 -->
<g id="edge3_Node000003_Node000002" class="edge">
<title>Node3&#45;&gt;Node2</title>
<g id="a_edge3_Node000003_Node000002"><a xlink:title=" ">
<path fill="none" stroke="#63b8ff" d="M282.64,-24.09C299.15,-27.89 318.57,-32.37 337.07,-36.62"/>
<polygon fill="#63b8ff" stroke="#63b8ff" points="336.4,-40.06 346.93,-38.9 337.97,-33.24 336.4,-40.06"/>
</a>
</g>
</g>
<!-- Node4 -->
<g id="Node000004" class="node">
<title>Node4</title>
<g id="a_Node000004"><a xlink:href="namespacenetspeak_1_1util.html#a4c91ad572508b4021399ac7dddff574d" target="_top" xlink:title=" ">
<polygon fill="white" stroke="#666666" points="463.5,-19 350.5,-19 350.5,0 463.5,0 463.5,-19"/>
<text text-anchor="middle" x="407" y="-7" font-family="Helvetica,sans-Serif" font-size="10.00">netspeak::util::hash</text>
</a>
</g>
</g>
<!-- Node3&#45;&gt;Node4 -->
<g id="edge4_Node000003_Node000004" class="edge">
<title>Node3&#45;&gt;Node4</title>
<g id="a_edge4_Node000003_Node000004"><a xlink:title=" ">
<path fill="none" stroke="#63b8ff" d="M311.45,-12.37C321.04,-12.07 330.84,-11.78 340.34,-11.49"/>
<polygon fill="#63b8ff" stroke="#63b8ff" points="340.61,-14.98 350.5,-11.18 340.39,-7.99 340.61,-14.98"/>
</a>
</g>
</g>
</g>
</svg>
