<?xml version="1.0" encoding="UTF-8" standalone="no"?>
<!DOCTYPE svg PUBLIC "-//W3C//DTD SVG 1.1//EN"
 "http://www.w3.org/Graphics/SVG/1.1/DTD/svg11.dtd">
<!-- Generated by graphviz version 2.43.0 (0)
 -->
<!-- Title: netspeak::model::Words::data Pages: 1 -->
<svg width="719pt" height="142pt"
 viewBox="0.00 0.00 719.00 142.00" xmlns="http://www.w3.org/2000/svg" xmlns:xlink="http://www.w3.org/1999/xlink">
<g id="graph0" class="graph" transform="scale(1 1) rotate(0) translate(4 138)">
<title>netspeak::model::Words::data</title>
<!-- Node1 -->
<g id="Node000001" class="node">
<title>Node1</title>
<g id="a_Node000001"><a xlink:title=" ">
<polygon fill="#999999" stroke="#666666" points="711,-73 577,-73 577,-43 711,-43 711,-73"/>
<text text-anchor="start" x="585" y="-61" font-family="Helvetica,sans-Serif" font-size="10.00">netspeak::model::Words</text>
<text text-anchor="middle" x="644" y="-50" font-family="Helvetica,sans-Serif" font-size="10.00">::data</text>
</a>
</g>
</g>
<!-- Node2 -->
<g id="Node000002" class="node">
<title>Node2</title>
<g id="a_Node000002"><a xlink:href="classnetspeak_1_1model_1_1Words.html#ae1d45c24f8bb407dc2f4494510538d78" target="_top" xlink:title=" ">
<polygon fill="white" stroke="#666666" points="527,-116 393,-116 393,-86 527,-86 527,-116"/>
<text text-anchor="start" x="401" y="-104" font-family="Helvetica,sans-Serif" font-size="10.00">netspeak::model::Words</text>
<text text-anchor="middle" x="460" y="-93" font-family="Helvetica,sans-Serif" font-size="10.00">::is_subsequence_of</text>
</a>
</g>
</g>
<!-- Node1&#45;&gt;Node2 -->
<g id="edge1_Node000001_Node000002" class="edge">
<title>Node1&#45;&gt;Node2</title>
<g id="a_edge1_Node000001_Node000002"><a xlink:title=" ">
<path fill="none" stroke="#63b8ff" d="M569.23,-75.43C554.44,-78.92 539.03,-82.57 524.62,-85.97"/>
<polygon fill="#63b8ff" stroke="#63b8ff" points="570.42,-78.74 579.35,-73.04 568.81,-71.93 570.42,-78.74"/>
</a>
</g>
</g>
<!-- Node3 -->
<g id="Node000003" class="node">
<title>Node3</title>
<g id="a_Node000003"><a xlink:href="namespacenetspeak_1_1model.html#a26a0512efa3a7f1131d195f1b2f945a7" target="_top" xlink:title=" ">
<polygon fill="white" stroke="#666666" points="541,-67.5 379,-67.5 379,-48.5 541,-48.5 541,-67.5"/>
<text text-anchor="middle" x="460" y="-55.5" font-family="Helvetica,sans-Serif" font-size="10.00">netspeak::model::operator&lt;&lt;</text>
</a>
</g>
</g>
<!-- Node1&#45;&gt;Node3 -->
<g id="edge3_Node000001_Node000003" class="edge">
<title>Node1&#45;&gt;Node3</title>
<g id="a_edge3_Node000001_Node000003"><a xlink:title=" ">
<path fill="none" stroke="#63b8ff" d="M566.61,-58C558.18,-58 549.58,-58 541.11,-58"/>
<polygon fill="#63b8ff" stroke="#63b8ff" points="566.78,-61.5 576.78,-58 566.78,-54.5 566.78,-61.5"/>
</a>
</g>
</g>
<!-- Node4 -->
<g id="Node000004" class="node">
<title>Node4</title>
<g id="a_Node000004"><a xlink:href="classnetspeak_1_1PhraseFileParser.html#a2b1e4624be15f416aa1248496795497f" target="_top" xlink:title=" ">
<polygon fill="white" stroke="#666666" points="534,-30 386,-30 386,0 534,0 534,-30"/>
<text text-anchor="start" x="394" y="-18" font-family="Helvetica,sans-Serif" font-size="10.00">netspeak::PhraseFileParser</text>
<text text-anchor="middle" x="460" y="-7" font-family="Helvetica,sans-Serif" font-size="10.00">::read</text>
</a>
</g>
</g>
<!-- Node1&#45;&gt;Node4 -->
<g id="edge4_Node000001_Node000004" class="edge">
<title>Node1&#45;&gt;Node4</title>
<g id="a_edge4_Node000001_Node000004"><a xlink:title=" ">
<path fill="none" stroke="#63b8ff" d="M569.23,-40.57C554.44,-37.08 539.03,-33.43 524.62,-30.03"/>
<polygon fill="#63b8ff" stroke="#63b8ff" points="568.81,-44.07 579.35,-42.96 570.42,-37.26 568.81,-44.07"/>
</a>
</g>
</g>
<!-- Node2&#45;&gt;Node2 -->
<g id="edge2_Node000002_Node000002" class="edge">
<title>Node2&#45;&gt;Node2</title>
<g id="a_edge2_Node000002_Node000002"><a xlink:title=" ">
<path fill="none" stroke="#63b8ff" d="M492.21,-126.6C487.81,-130.97 477.07,-134 460,-134 431.25,-134 420.47,-125.41 427.66,-116.28"/>
<polygon fill="#63b8ff" stroke="#63b8ff" points="495.71,-126.32 492.34,-116.28 488.71,-126.23 495.71,-126.32"/>
</a>
</g>
</g>
<!-- Node5 -->
<g id="Node000005" class="node">
<title>Node5</title>
<g id="a_Node000005"><a xlink:href="classnetspeak_1_1PhraseFileParser.html#aa90dd22dcf63b47242edb7345cee89b5" target="_top" xlink:title=" ">
<polygon fill="white" stroke="#666666" points="343,-30 195,-30 195,0 343,0 343,-30"/>
<text text-anchor="start" x="203" y="-18" font-family="Helvetica,sans-Serif" font-size="10.00">netspeak::PhraseFileParser</text>
<text text-anchor="middle" x="269" y="-7" font-family="Helvetica,sans-Serif" font-size="10.00">::read_next</text>
</a>
</g>
</g>
<!-- Node4&#45;&gt;Node5 -->
<g id="edge5_Node000004_Node000005" class="edge">
<title>Node4&#45;&gt;Node5</title>
<g id="a_edge5_Node000004_Node000005"><a xlink:title=" ">
<path fill="none" stroke="#63b8ff" d="M375.64,-15C364.83,-15 353.82,-15 343.19,-15"/>
<polygon fill="#63b8ff" stroke="#63b8ff" points="375.93,-18.5 385.93,-15 375.93,-11.5 375.93,-18.5"/>
</a>
</g>
</g>
<!-- Node6 -->
<g id="Node000006" class="node">
<title>Node6</title>
<g id="a_Node000006"><a xlink:href="namespacenetspeak.html#ada202c21bedf32e697fdfb62ad980688" target="_top" xlink:title=" ">
<polygon fill="white" stroke="#666666" points="159,-24.5 0,-24.5 0,-5.5 159,-5.5 159,-24.5"/>
<text text-anchor="middle" x="79.5" y="-12.5" font-family="Helvetica,sans-Serif" font-size="10.00">netspeak::BuildPhraseCorpus</text>
</a>
</g>
</g>
<!-- Node5&#45;&gt;Node6 -->
<g id="edge6_Node000005_Node000006" class="edge">
<title>Node5&#45;&gt;Node6</title>
<g id="a_edge6_Node000005_Node000006"><a xlink:title=" ">
<path fill="none" stroke="#63b8ff" d="M184.71,-15C176.24,-15 167.65,-15 159.22,-15"/>
<polygon fill="#63b8ff" stroke="#63b8ff" points="184.97,-18.5 194.97,-15 184.97,-11.5 184.97,-18.5"/>
</a>
</g>
</g>
</g>
</svg>
