<?xml version="1.0" encoding="UTF-8" standalone="no"?>
<!DOCTYPE svg PUBLIC "-//W3C//DTD SVG 1.1//EN"
 "http://www.w3.org/Graphics/SVG/1.1/DTD/svg11.dtd">
<!-- Generated by graphviz version 2.43.0 (0)
 -->
<!-- Title: netspeak::invertedindex::Configuration::set_index_directory Pages: 1 -->
<svg width="340pt" height="123pt"
 viewBox="0.00 0.00 340.00 123.00" xmlns="http://www.w3.org/2000/svg" xmlns:xlink="http://www.w3.org/1999/xlink">
<g id="graph0" class="graph" transform="scale(1 1) rotate(0) translate(4 119)">
<title>netspeak::invertedindex::Configuration::set_index_directory</title>
<!-- Node1 -->
<g id="Node000001" class="node">
<title>Node1</title>
<g id="a_Node000001"><a xlink:title=" ">
<polygon fill="#999999" stroke="#666666" points="332,-89 191,-89 191,-48 332,-48 332,-89"/>
<text text-anchor="start" x="199" y="-77" font-family="Helvetica,sans-Serif" font-size="10.00">netspeak::invertedindex</text>
<text text-anchor="start" x="199" y="-66" font-family="Helvetica,sans-Serif" font-size="10.00">::Configuration::set_index</text>
<text text-anchor="middle" x="261.5" y="-55" font-family="Helvetica,sans-Serif" font-size="10.00">_directory</text>
</a>
</g>
</g>
<!-- Node2 -->
<g id="Node000002" class="node">
<title>Node2</title>
<g id="a_Node000002"><a xlink:href="namespacenetspeak.html#af0939222da277e564f28d44a69641517" target="_top" xlink:title=" ">
<polygon fill="white" stroke="#666666" points="153.5,-115 1.5,-115 1.5,-96 153.5,-96 153.5,-115"/>
<text text-anchor="middle" x="77.5" y="-103" font-family="Helvetica,sans-Serif" font-size="10.00">netspeak::BuildPhraseIndex</text>
</a>
</g>
</g>
<!-- Node1&#45;&gt;Node2 -->
<g id="edge1_Node000001_Node000002" class="edge">
<title>Node1&#45;&gt;Node2</title>
<g id="a_edge1_Node000001_Node000002"><a xlink:title=" ">
<path fill="none" stroke="#63b8ff" d="M181.07,-84.65C162.11,-88.5 142.45,-92.5 125.49,-95.95"/>
<polygon fill="#63b8ff" stroke="#63b8ff" points="181.81,-88.07 190.91,-82.65 180.42,-81.21 181.81,-88.07"/>
</a>
</g>
</g>
<!-- Node3 -->
<g id="Node000003" class="node">
<title>Node3</title>
<g id="a_Node000003"><a xlink:href="namespacenetspeak.html#af42806304a02200d2a12099b3b54f35d" target="_top" xlink:title=" ">
<polygon fill="white" stroke="#666666" points="155,-78 0,-78 0,-59 155,-59 155,-78"/>
<text text-anchor="middle" x="77.5" y="-66" font-family="Helvetica,sans-Serif" font-size="10.00">netspeak::BuildPostlistIndex</text>
</a>
</g>
</g>
<!-- Node1&#45;&gt;Node3 -->
<g id="edge2_Node000001_Node000003" class="edge">
<title>Node1&#45;&gt;Node3</title>
<g id="a_edge2_Node000001_Node000003"><a xlink:title=" ">
<path fill="none" stroke="#63b8ff" d="M180.91,-68.5C172.31,-68.5 163.58,-68.5 155.02,-68.5"/>
<polygon fill="#63b8ff" stroke="#63b8ff" points="180.91,-72 190.91,-68.5 180.91,-65 180.91,-72"/>
</a>
</g>
</g>
<!-- Node4 -->
<g id="Node000004" class="node">
<title>Node4</title>
<g id="a_Node000004"><a xlink:href="classnetspeak_1_1RetrievalStrategy_3_01RetrievalStrategy3Tag_01_4.html#a2caa474eae2060143eb6ad2769f93a6d" target="_top" xlink:title=" ">
<polygon fill="white" stroke="#666666" points="154,-41 1,-41 1,0 154,0 154,-41"/>
<text text-anchor="start" x="9" y="-29" font-family="Helvetica,sans-Serif" font-size="10.00">netspeak::RetrievalStrategy</text>
<text text-anchor="start" x="9" y="-18" font-family="Helvetica,sans-Serif" font-size="10.00">&lt; RetrievalStrategy3Tag</text>
<text text-anchor="middle" x="77.5" y="-7" font-family="Helvetica,sans-Serif" font-size="10.00"> &gt;::initialize</text>
</a>
</g>
</g>
<!-- Node1&#45;&gt;Node4 -->
<g id="edge3_Node000001_Node000004" class="edge">
<title>Node1&#45;&gt;Node4</title>
<g id="a_edge3_Node000001_Node000004"><a xlink:title=" ">
<path fill="none" stroke="#63b8ff" d="M181.22,-47.59C172.22,-45.22 163.06,-42.8 154.11,-40.44"/>
<polygon fill="#63b8ff" stroke="#63b8ff" points="180.35,-50.98 190.91,-50.15 182.14,-44.21 180.35,-50.98"/>
</a>
</g>
</g>
</g>
</svg>
