<?xml version="1.0" encoding="UTF-8" standalone="no"?>
<!DOCTYPE svg PUBLIC "-//W3C//DTD SVG 1.1//EN"
 "http://www.w3.org/Graphics/SVG/1.1/DTD/svg11.dtd">
<!-- Generated by graphviz version 2.43.0 (0)
 -->
<!-- Title: netspeak::Netspeak::process_non_wildcard_query_ Pages: 1 -->
<svg width="532pt" height="268pt"
 viewBox="0.00 0.00 532.00 268.00" xmlns="http://www.w3.org/2000/svg" xmlns:xlink="http://www.w3.org/1999/xlink">
<g id="graph0" class="graph" transform="scale(1 1) rotate(0) translate(4 264)">
<title>netspeak::Netspeak::process_non_wildcard_query_</title>
<!-- Node1 -->
<g id="Node000001" class="node">
<title>Node1</title>
<g id="a_Node000001"><a xlink:title=" ">
<polygon fill="#999999" stroke="#666666" points="130,-152.5 0,-152.5 0,-111.5 130,-111.5 130,-152.5"/>
<text text-anchor="start" x="8" y="-140.5" font-family="Helvetica,sans-Serif" font-size="10.00">netspeak::Netspeak</text>
<text text-anchor="start" x="8" y="-129.5" font-family="Helvetica,sans-Serif" font-size="10.00">::process_non_wildcard</text>
<text text-anchor="middle" x="65" y="-118.5" font-family="Helvetica,sans-Serif" font-size="10.00">_query_</text>
</a>
</g>
</g>
<!-- Node2 -->
<g id="Node000002" class="node">
<title>Node2</title>
<g id="a_Node000002"><a xlink:href="classnetspeak_1_1PhraseCorpus.html#a783d35e8d7ee608615d86d0e0f33f2f7" target="_top" xlink:title=" ">
<polygon fill="white" stroke="#666666" points="313.5,-260 179.5,-260 179.5,-230 313.5,-230 313.5,-260"/>
<text text-anchor="start" x="187.5" y="-248" font-family="Helvetica,sans-Serif" font-size="10.00">netspeak::PhraseCorpus</text>
<text text-anchor="middle" x="246.5" y="-237" font-family="Helvetica,sans-Serif" font-size="10.00">::contains</text>
</a>
</g>
</g>
<!-- Node1&#45;&gt;Node2 -->
<g id="edge1_Node000001_Node000002" class="edge">
<title>Node1&#45;&gt;Node2</title>
<g id="a_edge1_Node000001_Node000002"><a xlink:title=" ">
<path fill="none" stroke="#63b8ff" d="M84.3,-152.88C102.99,-172.99 133.75,-202.95 166,-221 169.21,-222.8 172.57,-224.47 176.01,-226.03"/>
<polygon fill="#63b8ff" stroke="#63b8ff" points="174.72,-229.29 185.3,-229.91 177.42,-222.83 174.72,-229.29"/>
</a>
</g>
</g>
<!-- Node3 -->
<g id="Node000003" class="node">
<title>Node3</title>
<g id="a_Node000003"><a xlink:href="namespacenetspeak.html#ae7f7321abeae1a74ab51068b929fbab6" target="_top" xlink:title="Returns a unique string representation for the given query.">
<polygon fill="white" stroke="#666666" points="309.5,-212 183.5,-212 183.5,-182 309.5,-182 309.5,-212"/>
<text text-anchor="start" x="191.5" y="-200" font-family="Helvetica,sans-Serif" font-size="10.00">netspeak::norm_query</text>
<text text-anchor="middle" x="246.5" y="-189" font-family="Helvetica,sans-Serif" font-size="10.00">_to_key</text>
</a>
</g>
</g>
<!-- Node1&#45;&gt;Node3 -->
<g id="edge2_Node000001_Node000003" class="edge">
<title>Node1&#45;&gt;Node3</title>
<g id="a_edge2_Node000001_Node000003"><a xlink:title=" ">
<path fill="none" stroke="#63b8ff" d="M122.79,-152.57C145.7,-160.86 171.93,-170.36 194.24,-178.44"/>
<polygon fill="#63b8ff" stroke="#63b8ff" points="193.27,-181.81 203.87,-181.92 195.66,-175.23 193.27,-181.81"/>
</a>
</g>
</g>
<!-- Node4 -->
<g id="Node000004" class="node">
<title>Node4</title>
<g id="a_Node000004"><a xlink:href="classnetspeak_1_1model_1_1NormQuery.html#a1026b5afae11d5cdfecc06eb4fa6c005" target="_top" xlink:title=" ">
<polygon fill="white" stroke="#666666" points="524,-190 363,-190 363,-160 524,-160 524,-190"/>
<text text-anchor="start" x="371" y="-178" font-family="Helvetica,sans-Serif" font-size="10.00">netspeak::model::NormQuery</text>
<text text-anchor="middle" x="443.5" y="-167" font-family="Helvetica,sans-Serif" font-size="10.00">::units</text>
</a>
</g>
</g>
<!-- Node1&#45;&gt;Node4 -->
<g id="edge6_Node000001_Node000004" class="edge">
<title>Node1&#45;&gt;Node4</title>
<g id="a_edge6_Node000001_Node000004"><a xlink:title=" ">
<path fill="none" stroke="#63b8ff" d="M130.29,-139.34C191.42,-146.32 283.95,-156.89 352.41,-164.71"/>
<polygon fill="#63b8ff" stroke="#63b8ff" points="352.43,-168.24 362.76,-165.89 353.22,-161.28 352.43,-168.24"/>
</a>
</g>
</g>
<!-- Node5 -->
<g id="Node000005" class="node">
<title>Node5</title>
<g id="a_Node000005"><a xlink:href="classnetspeak_1_1model_1_1Words.html#a74ce9e9ed9745cdfffd806ec605974df" target="_top" xlink:title=" ">
<polygon fill="white" stroke="#666666" points="313.5,-126 179.5,-126 179.5,-96 313.5,-96 313.5,-126"/>
<text text-anchor="start" x="187.5" y="-114" font-family="Helvetica,sans-Serif" font-size="10.00">netspeak::model::Words</text>
<text text-anchor="middle" x="246.5" y="-103" font-family="Helvetica,sans-Serif" font-size="10.00">::push_back</text>
</a>
</g>
</g>
<!-- Node1&#45;&gt;Node5 -->
<g id="edge4_Node000001_Node000005" class="edge">
<title>Node1&#45;&gt;Node5</title>
<g id="a_edge4_Node000001_Node000005"><a xlink:title=" ">
<path fill="none" stroke="#63b8ff" d="M130.04,-124.51C142.68,-123.03 156.05,-121.47 169.04,-119.94"/>
<polygon fill="#63b8ff" stroke="#63b8ff" points="169.83,-123.38 179.36,-118.74 169.02,-116.42 169.83,-123.38"/>
</a>
</g>
</g>
<!-- Node6 -->
<g id="Node000006" class="node">
<title>Node6</title>
<g id="a_Node000006"><a xlink:href="classnetspeak_1_1model_1_1NormQuery.html#a0d7789ccab66ae884162a6c3076efd5d" target="_top" xlink:title=" ">
<polygon fill="white" stroke="#666666" points="327,-78 166,-78 166,-48 327,-48 327,-78"/>
<text text-anchor="start" x="174" y="-66" font-family="Helvetica,sans-Serif" font-size="10.00">netspeak::model::NormQuery</text>
<text text-anchor="middle" x="246.5" y="-55" font-family="Helvetica,sans-Serif" font-size="10.00">::size</text>
</a>
</g>
</g>
<!-- Node1&#45;&gt;Node6 -->
<g id="edge5_Node000001_Node000006" class="edge">
<title>Node1&#45;&gt;Node6</title>
<g id="a_edge5_Node000001_Node000006"><a xlink:title=" ">
<path fill="none" stroke="#63b8ff" d="M108.31,-111.49C125.94,-103.34 146.74,-94.2 166,-87 171.36,-84.99 176.98,-83.03 182.63,-81.15"/>
<polygon fill="#63b8ff" stroke="#63b8ff" points="183.72,-84.48 192.15,-78.06 181.56,-77.82 183.72,-84.48"/>
</a>
</g>
</g>
<!-- Node7 -->
<g id="Node000007" class="node">
<title>Node7</title>
<g id="a_Node000007"><a xlink:href="classnetspeak_1_1model_1_1Phrase.html#a0cfea75b7cad4d3c9a3cd111789bd42f" target="_top" xlink:title=" ">
<polygon fill="white" stroke="#666666" points="315,-30 178,-30 178,0 315,0 315,-30"/>
<text text-anchor="start" x="186" y="-18" font-family="Helvetica,sans-Serif" font-size="10.00">netspeak::model::Phrase</text>
<text text-anchor="middle" x="246.5" y="-7" font-family="Helvetica,sans-Serif" font-size="10.00">::words</text>
</a>
</g>
</g>
<!-- Node1&#45;&gt;Node7 -->
<g id="edge7_Node000001_Node000007" class="edge">
<title>Node1&#45;&gt;Node7</title>
<g id="a_edge7_Node000001_Node000007"><a xlink:title=" ">
<path fill="none" stroke="#63b8ff" d="M83.07,-111.33C101.49,-90.29 132.69,-58.12 166,-39 169.03,-37.26 172.2,-35.64 175.45,-34.12"/>
<polygon fill="#63b8ff" stroke="#63b8ff" points="176.98,-37.27 184.81,-30.12 174.23,-30.83 176.98,-37.27"/>
</a>
</g>
</g>
<!-- Node3&#45;&gt;Node4 -->
<g id="edge3_Node000003_Node000004" class="edge">
<title>Node3&#45;&gt;Node4</title>
<g id="a_edge3_Node000003_Node000004"><a xlink:title=" ">
<path fill="none" stroke="#63b8ff" d="M309.74,-189.98C323.41,-188.44 338.15,-186.77 352.67,-185.13"/>
<polygon fill="#63b8ff" stroke="#63b8ff" points="353.12,-188.61 362.67,-184.01 352.34,-181.65 353.12,-188.61"/>
</a>
</g>
</g>
</g>
</svg>
