<?xml version="1.0" encoding="UTF-8" standalone="no"?>
<!DOCTYPE svg PUBLIC "-//W3C//DTD SVG 1.1//EN"
 "http://www.w3.org/Graphics/SVG/1.1/DTD/svg11.dtd">
<!-- Generated by graphviz version 2.43.0 (0)
 -->
<!-- Title: netspeak::model::SimpleQuery Pages: 1 -->
<svg width="169pt" height="676pt"
 viewBox="0.00 0.00 169.00 676.00" xmlns="http://www.w3.org/2000/svg" xmlns:xlink="http://www.w3.org/1999/xlink">
<g id="graph0" class="graph" transform="scale(1 1) rotate(0) translate(4 672)">
<title>netspeak::model::SimpleQuery</title>
<!-- Node1 -->
<g id="Node000001" class="node">
<title>Node1</title>
<g id="a_Node000001"><a xlink:title=" ">
<polygon fill="#999999" stroke="transparent" points="161,-154 0,-154 0,0 161,0 161,-154"/>
<text text-anchor="start" x="5.5" y="-142" font-family="Helvetica,sans-Serif" font-size="10.00">netspeak::model::SimpleQuery</text>
<text text-anchor="start" x="79" y="-127" font-family="Helvetica,sans-Serif" font-size="10.00"> </text>
<text text-anchor="start" x="20" y="-112" font-family="Helvetica,sans-Serif" font-size="10.00">+</text>
<text text-anchor="start" x="48.5" y="-112" font-family="Helvetica,sans-Serif" font-size="10.00">SimpleQuery()</text>
<text text-anchor="start" x="20" y="-97" font-family="Helvetica,sans-Serif" font-size="10.00">+</text>
<text text-anchor="start" x="48.5" y="-97" font-family="Helvetica,sans-Serif" font-size="10.00">operator=()</text>
<text text-anchor="start" x="20" y="-82" font-family="Helvetica,sans-Serif" font-size="10.00">+</text>
<text text-anchor="start" x="48.5" y="-82" font-family="Helvetica,sans-Serif" font-size="10.00">SimpleQuery()</text>
<text text-anchor="start" x="20" y="-67" font-family="Helvetica,sans-Serif" font-size="10.00">+</text>
<text text-anchor="start" x="48.5" y="-67" font-family="Helvetica,sans-Serif" font-size="10.00">root()</text>
<text text-anchor="start" x="20" y="-52" font-family="Helvetica,sans-Serif" font-size="10.00">+</text>
<text text-anchor="start" x="48.5" y="-52" font-family="Helvetica,sans-Serif" font-size="10.00">root()</text>
<text text-anchor="start" x="20" y="-37" font-family="Helvetica,sans-Serif" font-size="10.00">+</text>
<text text-anchor="start" x="48.5" y="-37" font-family="Helvetica,sans-Serif" font-size="10.00">has_wildcards()</text>
<text text-anchor="start" x="22.5" y="-22" font-family="Helvetica,sans-Serif" font-size="10.00">&#45;</text>
<text text-anchor="start" x="48.5" y="-22" font-family="Helvetica,sans-Serif" font-size="10.00">SimpleQuery()</text>
<text text-anchor="start" x="22.5" y="-7" font-family="Helvetica,sans-Serif" font-size="10.00">&#45;</text>
<text text-anchor="start" x="48.5" y="-7" font-family="Helvetica,sans-Serif" font-size="10.00">SimpleQuery()</text>
<polygon fill="#666666" stroke="#666666" points="0.5,-137 0.5,-137 161.5,-137 161.5,-137 0.5,-137"/>
<polygon fill="#666666" stroke="#666666" points="0.5,-122 0.5,-122 161.5,-122 161.5,-122 0.5,-122"/>
<polygon fill="none" stroke="#666666" points="0,0 0,-154 161,-154 161,0 0,0"/>
</a>
</g>
</g>
<!-- Node2 -->
<g id="Node000002" class="node">
<title>Node2</title>
<g id="a_Node000002"><a xlink:href="classnetspeak_1_1model_1_1SimpleQueryUnit____.html" target="_top" xlink:title=" ">
<polygon fill="white" stroke="transparent" points="161,-546 0,-546 0,-201 161,-201 161,-546"/>
<text text-anchor="start" x="5.5" y="-533.5" font-family="Helvetica,sans-Serif" font-size="10.00">netspeak::model::SimpleQuery</text>
<text text-anchor="start" x="65.5" y="-522.5" font-family="Helvetica,sans-Serif" font-size="10.00">Unit__</text>
<text text-anchor="start" x="16.5" y="-507.5" font-family="Helvetica,sans-Serif" font-size="10.00">&#45;</text>
<text text-anchor="start" x="36.5" y="-507.5" font-family="Helvetica,sans-Serif" font-size="10.00">tag_</text>
<text text-anchor="start" x="16.5" y="-492.5" font-family="Helvetica,sans-Serif" font-size="10.00">&#45;</text>
<text text-anchor="start" x="36.5" y="-492.5" font-family="Helvetica,sans-Serif" font-size="10.00">text_</text>
<text text-anchor="start" x="16.5" y="-477.5" font-family="Helvetica,sans-Serif" font-size="10.00">&#45;</text>
<text text-anchor="start" x="36.5" y="-477.5" font-family="Helvetica,sans-Serif" font-size="10.00">children_</text>
<text text-anchor="start" x="14" y="-462.5" font-family="Helvetica,sans-Serif" font-size="10.00">+</text>
<text text-anchor="start" x="36.5" y="-462.5" font-family="Helvetica,sans-Serif" font-size="10.00">SimpleQueryUnit__()</text>
<text text-anchor="start" x="14" y="-447.5" font-family="Helvetica,sans-Serif" font-size="10.00">+</text>
<text text-anchor="start" x="36.5" y="-447.5" font-family="Helvetica,sans-Serif" font-size="10.00">SimpleQueryUnit__()</text>
<text text-anchor="start" x="14" y="-432.5" font-family="Helvetica,sans-Serif" font-size="10.00">+</text>
<text text-anchor="start" x="36.5" y="-432.5" font-family="Helvetica,sans-Serif" font-size="10.00">SimpleQueryUnit__()</text>
<text text-anchor="start" x="14" y="-417.5" font-family="Helvetica,sans-Serif" font-size="10.00">+</text>
<text text-anchor="start" x="36.5" y="-417.5" font-family="Helvetica,sans-Serif" font-size="10.00">operator=()</text>
<text text-anchor="start" x="14" y="-402.5" font-family="Helvetica,sans-Serif" font-size="10.00">+</text>
<text text-anchor="start" x="36.5" y="-402.5" font-family="Helvetica,sans-Serif" font-size="10.00">SimpleQueryUnit__()</text>
<text text-anchor="start" x="14" y="-387.5" font-family="Helvetica,sans-Serif" font-size="10.00">+</text>
<text text-anchor="start" x="36.5" y="-387.5" font-family="Helvetica,sans-Serif" font-size="10.00">clone()</text>
<text text-anchor="start" x="14" y="-372.5" font-family="Helvetica,sans-Serif" font-size="10.00">+</text>
<text text-anchor="start" x="36.5" y="-372.5" font-family="Helvetica,sans-Serif" font-size="10.00">tag()</text>
<text text-anchor="start" x="14" y="-357.5" font-family="Helvetica,sans-Serif" font-size="10.00">+</text>
<text text-anchor="start" x="36.5" y="-357.5" font-family="Helvetica,sans-Serif" font-size="10.00">text()</text>
<text text-anchor="start" x="14" y="-342.5" font-family="Helvetica,sans-Serif" font-size="10.00">+</text>
<text text-anchor="start" x="36.5" y="-342.5" font-family="Helvetica,sans-Serif" font-size="10.00">source()</text>
<text text-anchor="start" x="14" y="-327.5" font-family="Helvetica,sans-Serif" font-size="10.00">+</text>
<text text-anchor="start" x="36.5" y="-327.5" font-family="Helvetica,sans-Serif" font-size="10.00">children()</text>
<text text-anchor="start" x="36.5" y="-312.5" font-family="Helvetica,sans-Serif" font-size="10.00">and 9 more...</text>
<text text-anchor="start" x="14" y="-297.5" font-family="Helvetica,sans-Serif" font-size="10.00">+</text>
<text text-anchor="start" x="36.5" y="-297.5" font-family="Helvetica,sans-Serif" font-size="10.00">new_word()</text>
<text text-anchor="start" x="14" y="-282.5" font-family="Helvetica,sans-Serif" font-size="10.00">+</text>
<text text-anchor="start" x="36.5" y="-282.5" font-family="Helvetica,sans-Serif" font-size="10.00">new_regex()</text>
<text text-anchor="start" x="14" y="-267.5" font-family="Helvetica,sans-Serif" font-size="10.00">+</text>
<text text-anchor="start" x="36.5" y="-267.5" font-family="Helvetica,sans-Serif" font-size="10.00">new_qmark()</text>
<text text-anchor="start" x="14" y="-252.5" font-family="Helvetica,sans-Serif" font-size="10.00">+</text>
<text text-anchor="start" x="36.5" y="-252.5" font-family="Helvetica,sans-Serif" font-size="10.00">new_star()</text>
<text text-anchor="start" x="14" y="-237.5" font-family="Helvetica,sans-Serif" font-size="10.00">+</text>
<text text-anchor="start" x="36.5" y="-237.5" font-family="Helvetica,sans-Serif" font-size="10.00">new_concat()</text>
<text text-anchor="start" x="14" y="-222.5" font-family="Helvetica,sans-Serif" font-size="10.00">+</text>
<text text-anchor="start" x="36.5" y="-222.5" font-family="Helvetica,sans-Serif" font-size="10.00">new_alternation()</text>
<text text-anchor="start" x="16.5" y="-207.5" font-family="Helvetica,sans-Serif" font-size="10.00">&#45;</text>
<text text-anchor="start" x="36.5" y="-207.5" font-family="Helvetica,sans-Serif" font-size="10.00">new_unit()</text>
<polygon fill="#666666" stroke="#666666" points="0.5,-517.5 0.5,-517.5 161.5,-517.5 161.5,-517.5 0.5,-517.5"/>
<polygon fill="#666666" stroke="#666666" points="0.5,-472.5 0.5,-472.5 34.5,-472.5 34.5,-472.5 0.5,-472.5"/>
<polygon fill="#666666" stroke="#666666" points="34.5,-472.5 34.5,-472.5 161.5,-472.5 161.5,-472.5 34.5,-472.5"/>
<polygon fill="none" stroke="#666666" points="0,-201 0,-546 161,-546 161,-201 0,-201"/>
</a>
</g>
</g>
<!-- Node2&#45;&gt;Node1 -->
<g id="edge1_Node000001_Node000002" class="edge">
<title>Node2&#45;&gt;Node1</title>
<g id="a_edge1_Node000001_Node000002"><a xlink:title=" ">
<path fill="none" stroke="#63b8ff" d="M80.5,-200.76C80.5,-189.02 80.5,-177.5 80.5,-166.5"/>
<polygon fill="none" stroke="#63b8ff" points="80.5,-166.32 76.5,-160.32 80.5,-154.32 84.5,-160.32 80.5,-166.32"/>
</a>
</g>
<text text-anchor="middle" x="96.5" y="-175" font-family="Helvetica,sans-Serif" font-size="10.00" fill="grey"> &#45;root_</text>
</g>
<!-- Node3 -->
<g id="Node000003" class="node">
<title>Node3</title>
<g id="a_Node000003"><a xlink:href="structnetspeak_1_1model_1_1NormQueryUnit_____1_1Source.html" target="_top" xlink:title=" ">
<polygon fill="white" stroke="transparent" points="158,-668 3,-668 3,-593 158,-593 158,-668"/>
<text text-anchor="start" x="8.5" y="-655.5" font-family="Helvetica,sans-Serif" font-size="10.00">netspeak::model::NormQuery</text>
<text text-anchor="start" x="46" y="-644.5" font-family="Helvetica,sans-Serif" font-size="10.00">Unit__::Source</text>
<text text-anchor="start" x="30.5" y="-629.5" font-family="Helvetica,sans-Serif" font-size="10.00">+</text>
<text text-anchor="start" x="66.5" y="-629.5" font-family="Helvetica,sans-Serif" font-size="10.00">query</text>
<text text-anchor="start" x="30.5" y="-614.5" font-family="Helvetica,sans-Serif" font-size="10.00">+</text>
<text text-anchor="start" x="66.5" y="-614.5" font-family="Helvetica,sans-Serif" font-size="10.00">unit</text>
<text text-anchor="start" x="30.5" y="-599.5" font-family="Helvetica,sans-Serif" font-size="10.00">+</text>
<text text-anchor="start" x="66.5" y="-599.5" font-family="Helvetica,sans-Serif" font-size="10.00">Source()</text>
<polygon fill="#666666" stroke="#666666" points="3.5,-639.5 3.5,-639.5 158.5,-639.5 158.5,-639.5 3.5,-639.5"/>
<polygon fill="#666666" stroke="#666666" points="3.5,-609.5 3.5,-609.5 64.5,-609.5 64.5,-609.5 3.5,-609.5"/>
<polygon fill="#666666" stroke="#666666" points="64.5,-609.5 64.5,-609.5 158.5,-609.5 158.5,-609.5 64.5,-609.5"/>
<polygon fill="none" stroke="#666666" points="3,-593 3,-668 158,-668 158,-593 3,-593"/>
</a>
</g>
</g>
<!-- Node3&#45;&gt;Node2 -->
<g id="edge2_Node000002_Node000003" class="edge">
<title>Node3&#45;&gt;Node2</title>
<g id="a_edge2_Node000002_Node000003"><a xlink:title=" ">
<path fill="none" stroke="#63b8ff" d="M80.5,-592.96C80.5,-582.84 80.5,-571.12 80.5,-558.47"/>
<polygon fill="none" stroke="#63b8ff" points="80.5,-558.08 76.5,-552.08 80.5,-546.08 84.5,-552.08 80.5,-558.08"/>
</a>
</g>
<text text-anchor="middle" x="103" y="-567" font-family="Helvetica,sans-Serif" font-size="10.00" fill="grey"> &#45;source_</text>
</g>
</g>
</svg>
