<?xml version="1.0" encoding="UTF-8" standalone="no"?>
<!DOCTYPE svg PUBLIC "-//W3C//DTD SVG 1.1//EN"
 "http://www.w3.org/Graphics/SVG/1.1/DTD/svg11.dtd">
<!-- Generated by graphviz version 2.43.0 (0)
 -->
<!-- Title: netspeak::regex::DefaultRegexIndex::word_from_entry Pages: 1 -->
<svg width="926pt" height="136pt"
 viewBox="0.00 0.00 926.00 135.50" xmlns="http://www.w3.org/2000/svg" xmlns:xlink="http://www.w3.org/1999/xlink">
<g id="graph0" class="graph" transform="scale(1 1) rotate(0) translate(4 131.5)">
<title>netspeak::regex::DefaultRegexIndex::word_from_entry</title>
<!-- Node1 -->
<g id="Node000001" class="node">
<title>Node1</title>
<g id="a_Node000001"><a xlink:title="Returns the word string from the given entry.">
<polygon fill="#999999" stroke="#666666" points="918,-105.5 754,-105.5 754,-75.5 918,-75.5 918,-105.5"/>
<text text-anchor="start" x="762" y="-93.5" font-family="Helvetica,sans-Serif" font-size="10.00">netspeak::regex::Default</text>
<text text-anchor="middle" x="836" y="-82.5" font-family="Helvetica,sans-Serif" font-size="10.00">RegexIndex::word_from_entry</text>
</a>
</g>
</g>
<!-- Node2 -->
<g id="Node000002" class="node">
<title>Node2</title>
<g id="a_Node000002"><a xlink:href="classnetspeak_1_1regex_1_1DefaultRegexIndex.html#aa6875223b64c6979bd2135023f71f2ce" target="_top" xlink:title=" ">
<polygon fill="white" stroke="#666666" points="530,-127.5 353,-127.5 353,-97.5 530,-97.5 530,-127.5"/>
<text text-anchor="start" x="361" y="-115.5" font-family="Helvetica,sans-Serif" font-size="10.00">netspeak::regex::Default</text>
<text text-anchor="middle" x="441.5" y="-104.5" font-family="Helvetica,sans-Serif" font-size="10.00">RegexIndex::match_query_regex</text>
</a>
</g>
</g>
<!-- Node1&#45;&gt;Node2 -->
<g id="edge1_Node000001_Node000002" class="edge">
<title>Node1&#45;&gt;Node2</title>
<g id="a_edge1_Node000001_Node000002"><a xlink:title=" ">
<path fill="none" stroke="#63b8ff" d="M743.54,-95.63C679.23,-99.23 593.67,-104.03 530.2,-107.58"/>
<polygon fill="#63b8ff" stroke="#63b8ff" points="743.89,-99.11 753.67,-95.06 743.49,-92.12 743.89,-99.11"/>
</a>
</g>
</g>
<!-- Node5 -->
<g id="Node000005" class="node">
<title>Node5</title>
<g id="a_Node000005"><a xlink:href="classnetspeak_1_1regex_1_1DefaultRegexIndex.html#a6670d85281af35910d5d00d8997f7f37" target="_top" xlink:title="Returns the word at the given index in the word list.">
<polygon fill="white" stroke="#666666" points="718,-84.5 566,-84.5 566,-54.5 718,-54.5 718,-84.5"/>
<text text-anchor="start" x="574" y="-72.5" font-family="Helvetica,sans-Serif" font-size="10.00">netspeak::regex::Default</text>
<text text-anchor="middle" x="642" y="-61.5" font-family="Helvetica,sans-Serif" font-size="10.00">RegexIndex::word_at_index</text>
</a>
</g>
</g>
<!-- Node1&#45;&gt;Node5 -->
<g id="edge4_Node000001_Node000005" class="edge">
<title>Node1&#45;&gt;Node5</title>
<g id="a_edge4_Node000001_Node000005"><a xlink:title=" ">
<path fill="none" stroke="#63b8ff" d="M743.78,-80.52C735.16,-79.58 726.5,-78.63 718.05,-77.71"/>
<polygon fill="#63b8ff" stroke="#63b8ff" points="743.53,-84.02 753.85,-81.62 744.29,-77.06 743.53,-84.02"/>
</a>
</g>
</g>
<!-- Node3 -->
<g id="Node000003" class="node">
<title>Node3</title>
<g id="a_Node000003"><a xlink:href="classnetspeak_1_1regex_1_1DefaultRegexIndex.html#a243db53a6f592cf81dc78ab6abe09bc2" target="_top" xlink:title="Adds all words matching the given query to the given vector.">
<polygon fill="white" stroke="#666666" points="317,-84.5 173,-84.5 173,-54.5 317,-54.5 317,-84.5"/>
<text text-anchor="start" x="181" y="-72.5" font-family="Helvetica,sans-Serif" font-size="10.00">netspeak::regex::Default</text>
<text text-anchor="middle" x="245" y="-61.5" font-family="Helvetica,sans-Serif" font-size="10.00">RegexIndex::match_query</text>
</a>
</g>
</g>
<!-- Node2&#45;&gt;Node3 -->
<g id="edge2_Node000002_Node000003" class="edge">
<title>Node2&#45;&gt;Node3</title>
<g id="a_edge2_Node000002_Node000003"><a xlink:title=" ">
<path fill="none" stroke="#63b8ff" d="M362.57,-95.27C346.49,-91.72 329.68,-88 313.99,-84.53"/>
<polygon fill="#63b8ff" stroke="#63b8ff" points="361.95,-98.72 372.47,-97.46 363.46,-91.88 361.95,-98.72"/>
</a>
</g>
</g>
<!-- Node4 -->
<g id="Node000004" class="node">
<title>Node4</title>
<g id="a_Node000004"><a xlink:href="classcli_1_1RegexCommand.html#a359a924652eac2c3d8664bfc5ff29f3e" target="_top" xlink:title=" ">
<polygon fill="white" stroke="#666666" points="137,-79 0,-79 0,-60 137,-60 137,-79"/>
<text text-anchor="middle" x="68.5" y="-67" font-family="Helvetica,sans-Serif" font-size="10.00">cli::RegexCommand::run</text>
</a>
</g>
</g>
<!-- Node3&#45;&gt;Node4 -->
<g id="edge3_Node000003_Node000004" class="edge">
<title>Node3&#45;&gt;Node4</title>
<g id="a_edge3_Node000003_Node000004"><a xlink:title=" ">
<path fill="none" stroke="#63b8ff" d="M162.76,-69.5C154.18,-69.5 145.52,-69.5 137.12,-69.5"/>
<polygon fill="#63b8ff" stroke="#63b8ff" points="162.77,-73 172.77,-69.5 162.77,-66 162.77,-73"/>
</a>
</g>
</g>
<!-- Node5&#45;&gt;Node3 -->
<g id="edge5_Node000005_Node000003" class="edge">
<title>Node5&#45;&gt;Node3</title>
<g id="a_edge5_Node000005_Node000003"><a xlink:title=" ">
<path fill="none" stroke="#63b8ff" d="M555.49,-69.5C484.33,-69.5 384.19,-69.5 317.29,-69.5"/>
<polygon fill="#63b8ff" stroke="#63b8ff" points="555.77,-73 565.77,-69.5 555.77,-66 555.77,-73"/>
</a>
</g>
</g>
<!-- Node6 -->
<g id="Node000006" class="node">
<title>Node6</title>
<g id="a_Node000006"><a xlink:href="classnetspeak_1_1regex_1_1DefaultRegexIndex.html#a5c0cbc299628d069cfd1d800d74875d3" target="_top" xlink:title=" ">
<polygon fill="white" stroke="#666666" points="513.5,-41 369.5,-41 369.5,0 513.5,0 513.5,-41"/>
<text text-anchor="start" x="377.5" y="-29" font-family="Helvetica,sans-Serif" font-size="10.00">netspeak::regex::Default</text>
<text text-anchor="start" x="377.5" y="-18" font-family="Helvetica,sans-Serif" font-size="10.00">RegexIndex::match_query</text>
<text text-anchor="middle" x="441.5" y="-7" font-family="Helvetica,sans-Serif" font-size="10.00">_hash_lookup</text>
</a>
</g>
</g>
<!-- Node5&#45;&gt;Node6 -->
<g id="edge6_Node000005_Node000006" class="edge">
<title>Node5&#45;&gt;Node6</title>
<g id="a_edge6_Node000005_Node000006"><a xlink:title=" ">
<path fill="none" stroke="#63b8ff" d="M570.34,-52.06C551.96,-47.52 532.15,-42.63 513.74,-38.09"/>
<polygon fill="#63b8ff" stroke="#63b8ff" points="569.55,-55.47 580.09,-54.47 571.22,-48.67 569.55,-55.47"/>
</a>
</g>
</g>
<!-- Node6&#45;&gt;Node3 -->
<g id="edge7_Node000006_Node000003" class="edge">
<title>Node6&#45;&gt;Node3</title>
<g id="a_edge7_Node000006_Node000003"><a xlink:title=" ">
<path fill="none" stroke="#63b8ff" d="M359.53,-40.9C341.48,-45.45 322.67,-50.19 305.66,-54.47"/>
<polygon fill="#63b8ff" stroke="#63b8ff" points="360.61,-44.24 369.46,-38.4 358.9,-37.45 360.61,-44.24"/>
</a>
</g>
</g>
</g>
</svg>
