<?xml version="1.0" encoding="UTF-8" standalone="no"?>
<!DOCTYPE svg PUBLIC "-//W3C//DTD SVG 1.1//EN"
 "http://www.w3.org/Graphics/SVG/1.1/DTD/svg11.dtd">
<!-- Generated by graphviz version 2.43.0 (0)
 -->
<!-- Title: netspeak::QuerySimplifier::get_text Pages: 1 -->
<svg width="1025pt" height="230pt"
 viewBox="0.00 0.00 1025.00 230.00" xmlns="http://www.w3.org/2000/svg" xmlns:xlink="http://www.w3.org/1999/xlink">
<g id="graph0" class="graph" transform="scale(1 1) rotate(0) translate(4 226)">
<title>netspeak::QuerySimplifier::get_text</title>
<!-- Node1 -->
<g id="Node000001" class="node">
<title>Node1</title>
<g id="a_Node000001"><a xlink:title=" ">
<polygon fill="#999999" stroke="#666666" points="1017,-126 874,-126 874,-96 1017,-96 1017,-126"/>
<text text-anchor="start" x="882" y="-114" font-family="Helvetica,sans-Serif" font-size="10.00">netspeak::QuerySimplifier</text>
<text text-anchor="middle" x="945.5" y="-103" font-family="Helvetica,sans-Serif" font-size="10.00">::get_text</text>
</a>
</g>
</g>
<!-- Node2 -->
<g id="Node000002" class="node">
<title>Node2</title>
<g id="a_Node000002"><a xlink:href="classnetspeak_1_1QuerySimplifier.html#ac1ac4b76923d0b209354bf42e2a59d00" target="_top" xlink:title=" ">
<polygon fill="white" stroke="#666666" points="838,-169 695,-169 695,-139 838,-139 838,-169"/>
<text text-anchor="start" x="703" y="-157" font-family="Helvetica,sans-Serif" font-size="10.00">netspeak::QuerySimplifier</text>
<text text-anchor="middle" x="766.5" y="-146" font-family="Helvetica,sans-Serif" font-size="10.00">::dict_to_simple</text>
</a>
</g>
</g>
<!-- Node1&#45;&gt;Node2 -->
<g id="edge1_Node000001_Node000002" class="edge">
<title>Node1&#45;&gt;Node2</title>
<g id="a_edge1_Node000001_Node000002"><a xlink:title=" ">
<path fill="none" stroke="#63b8ff" d="M872.76,-128.43C858.38,-131.92 843.38,-135.57 829.37,-138.97"/>
<polygon fill="#63b8ff" stroke="#63b8ff" points="873.7,-131.8 882.59,-126.04 872.05,-125 873.7,-131.8"/>
</a>
</g>
</g>
<!-- Node3 -->
<g id="Node000003" class="node">
<title>Node3</title>
<g id="a_Node000003"><a xlink:href="classnetspeak_1_1QuerySimplifier.html#ab2f06fcd290543e7a04f2e5614a5f719" target="_top" xlink:title=" ">
<polygon fill="white" stroke="#666666" points="659,-126 516,-126 516,-96 659,-96 659,-126"/>
<text text-anchor="start" x="524" y="-114" font-family="Helvetica,sans-Serif" font-size="10.00">netspeak::QuerySimplifier</text>
<text text-anchor="middle" x="587.5" y="-103" font-family="Helvetica,sans-Serif" font-size="10.00">::unit_to_simple</text>
</a>
</g>
</g>
<!-- Node1&#45;&gt;Node3 -->
<g id="edge16_Node000001_Node000003" class="edge">
<title>Node1&#45;&gt;Node3</title>
<g id="a_edge16_Node000001_Node000003"><a xlink:title=" ">
<path fill="none" stroke="#63b8ff" d="M863.67,-111C802.06,-111 718.06,-111 659.13,-111"/>
<polygon fill="#63b8ff" stroke="#63b8ff" points="863.74,-114.5 873.74,-111 863.74,-107.5 863.74,-114.5"/>
</a>
</g>
</g>
<!-- Node11 -->
<g id="Node000011" class="node">
<title>Node11</title>
<g id="a_Node000011"><a xlink:href="classnetspeak_1_1QuerySimplifier.html#a7a61e022386f41896500001dcd46858c" target="_top" xlink:title=" ">
<polygon fill="white" stroke="#666666" points="838,-83 695,-83 695,-53 838,-53 838,-83"/>
<text text-anchor="start" x="703" y="-71" font-family="Helvetica,sans-Serif" font-size="10.00">netspeak::QuerySimplifier</text>
<text text-anchor="middle" x="766.5" y="-60" font-family="Helvetica,sans-Serif" font-size="10.00">::regex_to_simple</text>
</a>
</g>
</g>
<!-- Node1&#45;&gt;Node11 -->
<g id="edge14_Node000001_Node000011" class="edge">
<title>Node1&#45;&gt;Node11</title>
<g id="a_edge14_Node000001_Node000011"><a xlink:title=" ">
<path fill="none" stroke="#63b8ff" d="M872.76,-93.57C858.38,-90.08 843.38,-86.43 829.37,-83.03"/>
<polygon fill="#63b8ff" stroke="#63b8ff" points="872.05,-97 882.59,-95.96 873.7,-90.2 872.05,-97"/>
</a>
</g>
</g>
<!-- Node2&#45;&gt;Node3 -->
<g id="edge2_Node000002_Node000003" class="edge">
<title>Node2&#45;&gt;Node3</title>
<g id="a_edge2_Node000002_Node000003"><a xlink:title=" ">
<path fill="none" stroke="#63b8ff" d="M693.76,-136.57C679.38,-133.08 664.38,-129.43 650.37,-126.03"/>
<polygon fill="#63b8ff" stroke="#63b8ff" points="693.05,-140 703.59,-138.96 694.7,-133.2 693.05,-140"/>
</a>
</g>
</g>
<!-- Node4 -->
<g id="Node000004" class="node">
<title>Node4</title>
<g id="a_Node000004"><a xlink:href="classnetspeak_1_1QuerySimplifier.html#a3b44d549420ef21f82bde54ad4858ba5" target="_top" xlink:title=" ">
<polygon fill="white" stroke="#666666" points="480,-222 337,-222 337,-192 480,-192 480,-222"/>
<text text-anchor="start" x="345" y="-210" font-family="Helvetica,sans-Serif" font-size="10.00">netspeak::QuerySimplifier</text>
<text text-anchor="middle" x="408.5" y="-199" font-family="Helvetica,sans-Serif" font-size="10.00">::alt_to_simple</text>
</a>
</g>
</g>
<!-- Node3&#45;&gt;Node4 -->
<g id="edge3_Node000003_Node000004" class="edge">
<title>Node3&#45;&gt;Node4</title>
<g id="a_edge3_Node000003_Node000004"><a xlink:title=" ">
<path fill="none" stroke="#63b8ff" d="M549.1,-131.85C529.33,-145.21 504.2,-161.97 480,-174 465.87,-181.02 449.2,-186.8 435.62,-191.9"/>
<polygon fill="#63b8ff" stroke="#63b8ff" points="551.18,-134.66 557.51,-126.16 547.26,-128.86 551.18,-134.66"/>
</a>
</g>
</g>
<!-- Node5 -->
<g id="Node000005" class="node">
<title>Node5</title>
<g id="a_Node000005"><a xlink:href="classnetspeak_1_1QuerySimplifier.html#a1f629b768d053c64ba136f00661e601d" target="_top" xlink:title=" ">
<polygon fill="white" stroke="#666666" points="480,-174 337,-174 337,-144 480,-144 480,-174"/>
<text text-anchor="start" x="345" y="-162" font-family="Helvetica,sans-Serif" font-size="10.00">netspeak::QuerySimplifier</text>
<text text-anchor="middle" x="408.5" y="-151" font-family="Helvetica,sans-Serif" font-size="10.00">::concat_to_simple</text>
</a>
</g>
</g>
<!-- Node3&#45;&gt;Node5 -->
<g id="edge5_Node000003_Node000005" class="edge">
<title>Node3&#45;&gt;Node5</title>
<g id="a_edge5_Node000003_Node000005"><a xlink:title=" ">
<path fill="none" stroke="#63b8ff" d="M505.96,-126.12C484.43,-131.82 462.27,-138.24 444.63,-143.96"/>
<polygon fill="#63b8ff" stroke="#63b8ff" points="506.99,-129.46 515.78,-123.55 505.22,-122.69 506.99,-129.46"/>
</a>
</g>
</g>
<!-- Node6 -->
<g id="Node000006" class="node">
<title>Node6</title>
<g id="a_Node000006"><a xlink:href="classnetspeak_1_1QuerySimplifier.html#abafc853573d650c19c989cebbdc10ce4" target="_top" xlink:title=" ">
<polygon fill="white" stroke="#666666" points="480,-126 337,-126 337,-96 480,-96 480,-126"/>
<text text-anchor="start" x="345" y="-114" font-family="Helvetica,sans-Serif" font-size="10.00">netspeak::QuerySimplifier</text>
<text text-anchor="middle" x="408.5" y="-103" font-family="Helvetica,sans-Serif" font-size="10.00">::option_to_simple</text>
</a>
</g>
</g>
<!-- Node3&#45;&gt;Node6 -->
<g id="edge7_Node000003_Node000006" class="edge">
<title>Node3&#45;&gt;Node6</title>
<g id="a_edge7_Node000003_Node000006"><a xlink:title=" ">
<path fill="none" stroke="#63b8ff" d="M505.51,-104.27C497.03,-104.22 488.46,-104.26 480.11,-104.37"/>
<polygon fill="#63b8ff" stroke="#63b8ff" points="505.75,-107.77 515.78,-104.37 505.82,-100.77 505.75,-107.77"/>
</a>
</g>
</g>
<!-- Node7 -->
<g id="Node000007" class="node">
<title>Node7</title>
<g id="a_Node000007"><a xlink:href="classnetspeak_1_1QuerySimplifier.html#a2f67510a9b668e751894cdeb6e97b349" target="_top" xlink:title=" ">
<polygon fill="white" stroke="#666666" points="480,-78 337,-78 337,-48 480,-48 480,-78"/>
<text text-anchor="start" x="345" y="-66" font-family="Helvetica,sans-Serif" font-size="10.00">netspeak::QuerySimplifier</text>
<text text-anchor="middle" x="408.5" y="-55" font-family="Helvetica,sans-Serif" font-size="10.00">::order_to_simple</text>
</a>
</g>
</g>
<!-- Node3&#45;&gt;Node7 -->
<g id="edge9_Node000003_Node000007" class="edge">
<title>Node3&#45;&gt;Node7</title>
<g id="a_edge9_Node000003_Node000007"><a xlink:title=" ">
<path fill="none" stroke="#63b8ff" d="M541.46,-92.82C522.9,-87.06 500.94,-80.88 480.32,-75.58"/>
<polygon fill="#63b8ff" stroke="#63b8ff" points="540.52,-96.19 551.11,-95.88 542.63,-89.52 540.52,-96.19"/>
</a>
</g>
</g>
<!-- Node8 -->
<g id="Node000008" class="node">
<title>Node8</title>
<g id="a_Node000008"><a xlink:href="classnetspeak_1_1QuerySimplifier.html#a47411b51e5d329b77e30c2204c12627d" target="_top" xlink:title=" ">
<polygon fill="white" stroke="#666666" points="480,-30 337,-30 337,0 480,0 480,-30"/>
<text text-anchor="start" x="345" y="-18" font-family="Helvetica,sans-Serif" font-size="10.00">netspeak::QuerySimplifier</text>
<text text-anchor="middle" x="408.5" y="-7" font-family="Helvetica,sans-Serif" font-size="10.00">::to_simple</text>
</a>
</g>
</g>
<!-- Node3&#45;&gt;Node8 -->
<g id="edge11_Node000003_Node000008" class="edge">
<title>Node3&#45;&gt;Node8</title>
<g id="a_edge11_Node000003_Node000008"><a xlink:title=" ">
<path fill="none" stroke="#63b8ff" d="M559.39,-89.69C538.57,-74.08 508.63,-53.23 480,-39 473.4,-35.72 466.24,-32.71 459.11,-30.01"/>
<polygon fill="#63b8ff" stroke="#63b8ff" points="557.36,-92.55 567.44,-95.81 561.6,-86.97 557.36,-92.55"/>
</a>
</g>
</g>
<!-- Node4&#45;&gt;Node3 -->
<g id="edge4_Node000004_Node000003" class="edge">
<title>Node4&#45;&gt;Node3</title>
<g id="a_edge4_Node000004_Node000003"><a xlink:title=" ">
<path fill="none" stroke="#63b8ff" d="M488.81,-187.43C523.03,-169 557.26,-143.02 574.69,-126.2"/>
<polygon fill="#63b8ff" stroke="#63b8ff" points="486.92,-184.46 479.65,-192.17 490.14,-190.68 486.92,-184.46"/>
</a>
</g>
</g>
<!-- Node5&#45;&gt;Node3 -->
<g id="edge6_Node000005_Node000003" class="edge">
<title>Node5&#45;&gt;Node3</title>
<g id="a_edge6_Node000005_Node000003"><a xlink:title=" ">
<path fill="none" stroke="#63b8ff" d="M490.1,-143.87C511.5,-138.2 533.52,-131.82 551.11,-126.12"/>
<polygon fill="#63b8ff" stroke="#63b8ff" points="489.12,-140.51 480.32,-146.42 490.88,-147.28 489.12,-140.51"/>
</a>
</g>
</g>
<!-- Node6&#45;&gt;Node3 -->
<g id="edge8_Node000006_Node000003" class="edge">
<title>Node6&#45;&gt;Node3</title>
<g id="a_edge8_Node000006_Node000003"><a xlink:title=" ">
<path fill="none" stroke="#63b8ff" d="M490.38,-117.73C498.86,-117.78 507.43,-117.74 515.78,-117.63"/>
<polygon fill="#63b8ff" stroke="#63b8ff" points="490.14,-114.23 480.11,-117.63 490.07,-121.22 490.14,-114.23"/>
</a>
</g>
</g>
<!-- Node7&#45;&gt;Node3 -->
<g id="edge10_Node000007_Node000003" class="edge">
<title>Node7&#45;&gt;Node3</title>
<g id="a_edge10_Node000007_Node000003"><a xlink:title=" ">
<path fill="none" stroke="#63b8ff" d="M454.32,-81.11C472.96,-86.9 495.05,-93.12 515.78,-98.45"/>
<polygon fill="#63b8ff" stroke="#63b8ff" points="455.22,-77.73 444.63,-78.04 453.11,-84.4 455.22,-77.73"/>
</a>
</g>
</g>
<!-- Node9 -->
<g id="Node000009" class="node">
<title>Node9</title>
<g id="a_Node000009"><a xlink:href="classnetspeak_1_1QueryNormalizer.html#a70187ab668d98c93cfc3a8d05ca1508e" target="_top" xlink:title=" ">
<polygon fill="white" stroke="#666666" points="301,-30 150,-30 150,0 301,0 301,-30"/>
<text text-anchor="start" x="158" y="-18" font-family="Helvetica,sans-Serif" font-size="10.00">netspeak::QueryNormalizer</text>
<text text-anchor="middle" x="225.5" y="-7" font-family="Helvetica,sans-Serif" font-size="10.00">::normalize</text>
</a>
</g>
</g>
<!-- Node8&#45;&gt;Node9 -->
<g id="edge12_Node000008_Node000009" class="edge">
<title>Node8&#45;&gt;Node9</title>
<g id="a_edge12_Node000008_Node000009"><a xlink:title=" ">
<path fill="none" stroke="#63b8ff" d="M326.5,-15C318.04,-15 309.47,-15 301.09,-15"/>
<polygon fill="#63b8ff" stroke="#63b8ff" points="326.74,-18.5 336.74,-15 326.74,-11.5 326.74,-18.5"/>
</a>
</g>
</g>
<!-- Node10 -->
<g id="Node000010" class="node">
<title>Node10</title>
<g id="a_Node000010"><a xlink:href="classnetspeak_1_1Netspeak.html#aaa049275c7a0a7f6721acf7422402bff" target="_top" xlink:title=" ">
<polygon fill="white" stroke="#666666" points="114,-30 0,-30 0,0 114,0 114,-30"/>
<text text-anchor="start" x="8" y="-18" font-family="Helvetica,sans-Serif" font-size="10.00">netspeak::Netspeak</text>
<text text-anchor="middle" x="57" y="-7" font-family="Helvetica,sans-Serif" font-size="10.00">::search_raw_</text>
</a>
</g>
</g>
<!-- Node9&#45;&gt;Node10 -->
<g id="edge13_Node000009_Node000010" class="edge">
<title>Node9&#45;&gt;Node10</title>
<g id="a_edge13_Node000009_Node000010"><a xlink:title=" ">
<path fill="none" stroke="#63b8ff" d="M139.45,-15C130.85,-15 122.28,-15 114.1,-15"/>
<polygon fill="#63b8ff" stroke="#63b8ff" points="139.53,-18.5 149.53,-15 139.53,-11.5 139.53,-18.5"/>
</a>
</g>
</g>
<!-- Node11&#45;&gt;Node3 -->
<g id="edge15_Node000011_Node000003" class="edge">
<title>Node11&#45;&gt;Node3</title>
<g id="a_edge15_Node000011_Node000003"><a xlink:title=" ">
<path fill="none" stroke="#63b8ff" d="M693.76,-85.43C679.38,-88.92 664.38,-92.57 650.37,-95.97"/>
<polygon fill="#63b8ff" stroke="#63b8ff" points="694.7,-88.8 703.59,-83.04 693.05,-82 694.7,-88.8"/>
</a>
</g>
</g>
</g>
</svg>
