<?xml version="1.0" encoding="UTF-8" standalone="no"?>
<!DOCTYPE svg PUBLIC "-//W3C//DTD SVG 1.1//EN"
 "http://www.w3.org/Graphics/SVG/1.1/DTD/svg11.dtd">
<!-- Generated by graphviz version 2.43.0 (0)
 -->
<!-- Title: netspeak::invertedindex::PostlistBuilder::build Pages: 1 -->
<svg width="832pt" height="276pt"
 viewBox="0.00 0.00 832.00 275.56" xmlns="http://www.w3.org/2000/svg" xmlns:xlink="http://www.w3.org/1999/xlink">
<g id="graph0" class="graph" transform="scale(1 1) rotate(0) translate(4 271.56)">
<title>netspeak::invertedindex::PostlistBuilder::build</title>
<!-- Node1 -->
<g id="Node000001" class="node">
<title>Node1</title>
<g id="a_Node000001"><a xlink:title=" ">
<polygon fill="#999999" stroke="#666666" points="135,-147.56 0,-147.56 0,-117.56 135,-117.56 135,-147.56"/>
<text text-anchor="start" x="8" y="-135.56" font-family="Helvetica,sans-Serif" font-size="10.00">netspeak::invertedindex</text>
<text text-anchor="middle" x="67.5" y="-124.56" font-family="Helvetica,sans-Serif" font-size="10.00">::PostlistBuilder::build</text>
</a>
</g>
</g>
<!-- Node2 -->
<g id="Node000002" class="node">
<title>Node2</title>
<g id="a_Node000002"><a xlink:href="classnetspeak_1_1invertedindex_1_1PostlistBuilder.html#aa8341dc51b109df63b5114f1212a64b5" target="_top" xlink:title=" ">
<polygon fill="white" stroke="#666666" points="314.5,-267.56 179.5,-267.56 179.5,-237.56 314.5,-237.56 314.5,-267.56"/>
<text text-anchor="start" x="187.5" y="-255.56" font-family="Helvetica,sans-Serif" font-size="10.00">netspeak::invertedindex</text>
<text text-anchor="middle" x="247" y="-244.56" font-family="Helvetica,sans-Serif" font-size="10.00">::PostlistBuilder::clear</text>
</a>
</g>
</g>
<!-- Node1&#45;&gt;Node2 -->
<g id="edge1_Node000001_Node000002" class="edge">
<title>Node1&#45;&gt;Node2</title>
<g id="a_edge1_Node000001_Node000002"><a xlink:title=" ">
<path fill="none" stroke="#63b8ff" d="M80.83,-147.74C98.64,-168.75 133.58,-206.57 171,-228.56 173.98,-230.31 177.1,-231.94 180.31,-233.47"/>
<polygon fill="#63b8ff" stroke="#63b8ff" points="178.96,-236.71 189.52,-237.51 181.77,-230.29 178.96,-236.71"/>
</a>
</g>
</g>
<!-- Node6 -->
<g id="Node000006" class="node">
<title>Node6</title>
<g id="a_Node000006"><a xlink:href="classnetspeak_1_1invertedindex_1_1ByteBuffer.html#aa752333cd73080cff87f7baaa5c0edfe" target="_top" xlink:title=" ">
<polygon fill="white" stroke="#666666" points="314.5,-219.56 179.5,-219.56 179.5,-189.56 314.5,-189.56 314.5,-219.56"/>
<text text-anchor="start" x="187.5" y="-207.56" font-family="Helvetica,sans-Serif" font-size="10.00">netspeak::invertedindex</text>
<text text-anchor="middle" x="247" y="-196.56" font-family="Helvetica,sans-Serif" font-size="10.00">::ByteBuffer::end</text>
</a>
</g>
</g>
<!-- Node1&#45;&gt;Node6 -->
<g id="edge6_Node000001_Node000006" class="edge">
<title>Node1&#45;&gt;Node6</title>
<g id="a_edge6_Node000001_Node000006"><a xlink:title=" ">
<path fill="none" stroke="#63b8ff" d="M98.11,-147.66C118.35,-157.67 145.94,-170.72 171,-180.56 175.81,-182.44 180.83,-184.29 185.9,-186.08"/>
<polygon fill="#63b8ff" stroke="#63b8ff" points="185.07,-189.5 195.66,-189.43 187.34,-182.87 185.07,-189.5"/>
</a>
</g>
</g>
<!-- Node7 -->
<g id="Node000007" class="node">
<title>Node7</title>
<g id="a_Node000007"><a xlink:href="classnetspeak_1_1invertedindex_1_1PostlistBuilder.html#a65cf7ffab2be1fb0a3ff7a9ec2906b9b" target="_top" xlink:title=" ">
<polygon fill="white" stroke="#666666" points="323,-171.56 171,-171.56 171,-141.56 323,-141.56 323,-171.56"/>
<text text-anchor="start" x="179" y="-159.56" font-family="Helvetica,sans-Serif" font-size="10.00">netspeak::invertedindex</text>
<text text-anchor="middle" x="247" y="-148.56" font-family="Helvetica,sans-Serif" font-size="10.00">::PostlistBuilder::has_swap_</text>
</a>
</g>
</g>
<!-- Node1&#45;&gt;Node7 -->
<g id="edge7_Node000001_Node000007" class="edge">
<title>Node1&#45;&gt;Node7</title>
<g id="a_edge7_Node000001_Node000007"><a xlink:title=" ">
<path fill="none" stroke="#63b8ff" d="M135.1,-141.56C143.51,-142.7 152.21,-143.87 160.86,-145.04"/>
<polygon fill="#63b8ff" stroke="#63b8ff" points="160.6,-148.54 170.98,-146.41 161.54,-141.6 160.6,-148.54"/>
</a>
</g>
</g>
<!-- Node8 -->
<g id="Node000008" class="node">
<title>Node8</title>
<g id="a_Node000008"><a xlink:href="classnetspeak_1_1invertedindex_1_1ByteBuffer.html#af6a5e40f34b9a46557e519b5a4998450" target="_top" xlink:title=" ">
<polygon fill="white" stroke="#666666" points="314.5,-123.56 179.5,-123.56 179.5,-93.56 314.5,-93.56 314.5,-123.56"/>
<text text-anchor="start" x="187.5" y="-111.56" font-family="Helvetica,sans-Serif" font-size="10.00">netspeak::invertedindex</text>
<text text-anchor="middle" x="247" y="-100.56" font-family="Helvetica,sans-Serif" font-size="10.00">::ByteBuffer::position</text>
</a>
</g>
</g>
<!-- Node1&#45;&gt;Node8 -->
<g id="edge8_Node000001_Node000008" class="edge">
<title>Node1&#45;&gt;Node8</title>
<g id="a_edge8_Node000001_Node000008"><a xlink:title=" ">
<path fill="none" stroke="#63b8ff" d="M135.1,-123.55C146.28,-122.04 157.97,-120.46 169.38,-118.92"/>
<polygon fill="#63b8ff" stroke="#63b8ff" points="169.88,-122.38 179.32,-117.57 168.94,-115.44 169.88,-122.38"/>
</a>
</g>
</g>
<!-- Node9 -->
<g id="Node000009" class="node">
<title>Node9</title>
<g id="a_Node000009"><a xlink:href="classnetspeak_1_1invertedindex_1_1ByteBuffer.html#a2e83fde864788328fa5ababc235e3036" target="_top" xlink:title=" ">
<polygon fill="white" stroke="#666666" points="314.5,-75.56 179.5,-75.56 179.5,-45.56 314.5,-45.56 314.5,-75.56"/>
<text text-anchor="start" x="187.5" y="-63.56" font-family="Helvetica,sans-Serif" font-size="10.00">netspeak::invertedindex</text>
<text text-anchor="middle" x="247" y="-52.56" font-family="Helvetica,sans-Serif" font-size="10.00">::ByteBuffer::put</text>
</a>
</g>
</g>
<!-- Node1&#45;&gt;Node9 -->
<g id="edge9_Node000001_Node000009" class="edge">
<title>Node1&#45;&gt;Node9</title>
<g id="a_edge9_Node000001_Node000009"><a xlink:title=" ">
<path fill="none" stroke="#63b8ff" d="M98.11,-117.46C118.35,-107.44 145.94,-94.39 171,-84.56 175.81,-82.67 180.83,-80.82 185.9,-79.03"/>
<polygon fill="#63b8ff" stroke="#63b8ff" points="187.34,-82.24 195.66,-75.68 185.07,-75.62 187.34,-82.24"/>
</a>
</g>
</g>
<!-- Node11 -->
<g id="Node000011" class="node">
<title>Node11</title>
<g id="a_Node000011"><a xlink:href="namespacenetspeak_1_1util.html#a0a70d04eac08c447619ba0fcdf796d19" target="_top" xlink:title=" ">
<polygon fill="white" stroke="#666666" points="675,-101.06 553,-101.06 553,-82.06 675,-82.06 675,-101.06"/>
<text text-anchor="middle" x="614" y="-89.06" font-family="Helvetica,sans-Serif" font-size="10.00">netspeak::util::rewind</text>
</a>
</g>
</g>
<!-- Node1&#45;&gt;Node11 -->
<g id="edge11_Node000001_Node000011" class="edge">
<title>Node1&#45;&gt;Node11</title>
<g id="a_edge11_Node000001_Node000011"><a xlink:title=" ">
<path fill="none" stroke="#63b8ff" d="M78.9,-117.22C95.33,-94.51 129.73,-52.86 171,-36.56 314.02,19.96 368.4,3 517,-36.56 545.55,-44.16 574.45,-62.48 592.98,-75.9"/>
<polygon fill="#63b8ff" stroke="#63b8ff" points="591.08,-78.85 601.19,-82.02 595.26,-73.24 591.08,-78.85"/>
</a>
</g>
</g>
<!-- Node3 -->
<g id="Node000003" class="node">
<title>Node3</title>
<g id="a_Node000003"><a xlink:href="namespacenetspeak_1_1util.html#a978978e70b474657b12402a3db711ef0" target="_top" xlink:title=" ">
<polygon fill="white" stroke="#666666" points="497.5,-224.06 378.5,-224.06 378.5,-205.06 497.5,-205.06 497.5,-224.06"/>
<text text-anchor="middle" x="438" y="-212.06" font-family="Helvetica,sans-Serif" font-size="10.00">netspeak::util::fclose</text>
</a>
</g>
</g>
<!-- Node2&#45;&gt;Node3 -->
<g id="edge2_Node000002_Node000003" class="edge">
<title>Node2&#45;&gt;Node3</title>
<g id="a_edge2_Node000002_Node000003"><a xlink:title=" ">
<path fill="none" stroke="#63b8ff" d="M314.63,-239.16C335.91,-234.88 359.27,-230.18 379.81,-226.05"/>
<polygon fill="#63b8ff" stroke="#63b8ff" points="380.54,-229.48 389.65,-224.08 379.16,-222.62 380.54,-229.48"/>
</a>
</g>
</g>
<!-- Node4 -->
<g id="Node000004" class="node">
<title>Node4</title>
<g id="a_Node000004"><a xlink:href="namespacenetspeak_1_1util.html#a4c91ad572508b4021399ac7dddff574d" target="_top" xlink:title=" ">
<polygon fill="white" stroke="#666666" points="824,-181.06 711,-181.06 711,-162.06 824,-162.06 824,-181.06"/>
<text text-anchor="middle" x="767.5" y="-169.06" font-family="Helvetica,sans-Serif" font-size="10.00">netspeak::util::hash</text>
</a>
</g>
</g>
<!-- Node3&#45;&gt;Node4 -->
<g id="edge3_Node000003_Node000004" class="edge">
<title>Node3&#45;&gt;Node4</title>
<g id="a_edge3_Node000003_Node000004"><a xlink:title=" ">
<path fill="none" stroke="#63b8ff" d="M497.55,-212.71C545.52,-210.51 615.03,-205.75 675,-195.56 691.73,-192.71 709.87,-188.25 725.55,-183.94"/>
<polygon fill="#63b8ff" stroke="#63b8ff" points="726.78,-187.23 735.46,-181.15 724.89,-180.49 726.78,-187.23"/>
</a>
</g>
</g>
<!-- Node5 -->
<g id="Node000005" class="node">
<title>Node5</title>
<g id="a_Node000005"><a xlink:href="namespacenetspeak_1_1util.html#af94d48fda5f335ddcb461a8237079866" target="_top" xlink:title=" ">
<polygon fill="white" stroke="#666666" points="673.5,-186.56 554.5,-186.56 554.5,-156.56 673.5,-156.56 673.5,-186.56"/>
<text text-anchor="start" x="562.5" y="-174.56" font-family="Helvetica,sans-Serif" font-size="10.00">netspeak::util::signal</text>
<text text-anchor="middle" x="614" y="-163.56" font-family="Helvetica,sans-Serif" font-size="10.00">_error</text>
</a>
</g>
</g>
<!-- Node3&#45;&gt;Node5 -->
<g id="edge4_Node000003_Node000005" class="edge">
<title>Node3&#45;&gt;Node5</title>
<g id="a_edge4_Node000003_Node000005"><a xlink:title=" ">
<path fill="none" stroke="#63b8ff" d="M477.62,-205.01C497.24,-200.16 521.68,-194.12 544.37,-188.52"/>
<polygon fill="#63b8ff" stroke="#63b8ff" points="545.44,-191.86 554.31,-186.06 543.76,-185.06 545.44,-191.86"/>
</a>
</g>
</g>
<!-- Node5&#45;&gt;Node4 -->
<g id="edge5_Node000005_Node000004" class="edge">
<title>Node5&#45;&gt;Node4</title>
<g id="a_edge5_Node000005_Node000004"><a xlink:title=" ">
<path fill="none" stroke="#63b8ff" d="M673.57,-171.56C682.41,-171.56 691.57,-171.56 700.54,-171.56"/>
<polygon fill="#63b8ff" stroke="#63b8ff" points="700.57,-175.06 710.57,-171.56 700.57,-168.06 700.57,-175.06"/>
</a>
</g>
</g>
<!-- Node10 -->
<g id="Node000010" class="node">
<title>Node10</title>
<g id="a_Node000010"><a xlink:href="classnetspeak_1_1invertedindex_1_1ByteBuffer.html#a5e811891fd5fe2fb29572fee4e148959" target="_top" xlink:title=" ">
<polygon fill="white" stroke="#666666" points="517,-75.56 359,-75.56 359,-45.56 517,-45.56 517,-75.56"/>
<text text-anchor="start" x="367" y="-63.56" font-family="Helvetica,sans-Serif" font-size="10.00">netspeak::invertedindex</text>
<text text-anchor="middle" x="438" y="-52.56" font-family="Helvetica,sans-Serif" font-size="10.00">::ByteBuffer::bytes_available</text>
</a>
</g>
</g>
<!-- Node9&#45;&gt;Node10 -->
<g id="edge10_Node000009_Node000010" class="edge">
<title>Node9&#45;&gt;Node10</title>
<g id="a_edge10_Node000009_Node000010"><a xlink:title=" ">
<path fill="none" stroke="#63b8ff" d="M314.63,-60.56C325.65,-60.56 337.22,-60.56 348.67,-60.56"/>
<polygon fill="#63b8ff" stroke="#63b8ff" points="348.68,-64.06 358.68,-60.56 348.68,-57.06 348.68,-64.06"/>
</a>
</g>
</g>
<!-- Node11&#45;&gt;Node4 -->
<g id="edge12_Node000011_Node000004" class="edge">
<title>Node11&#45;&gt;Node4</title>
<g id="a_edge12_Node000011_Node000004"><a xlink:title=" ">
<path fill="none" stroke="#63b8ff" d="M633.27,-101.21C659.66,-115.14 708.63,-141 739.28,-157.18"/>
<polygon fill="#63b8ff" stroke="#63b8ff" points="737.68,-160.3 748.16,-161.87 740.95,-154.11 737.68,-160.3"/>
</a>
</g>
</g>
</g>
</svg>
