<?xml version="1.0" encoding="UTF-8" standalone="no"?>
<!DOCTYPE svg PUBLIC "-//W3C//DTD SVG 1.1//EN"
 "http://www.w3.org/Graphics/SVG/1.1/DTD/svg11.dtd">
<!-- Generated by graphviz version 2.43.0 (0)
 -->
<!-- Title: netspeak::model::SimpleQueryUnit__::source Pages: 1 -->
<svg width="1133pt" height="104pt"
 viewBox="0.00 0.00 1133.00 104.00" xmlns="http://www.w3.org/2000/svg" xmlns:xlink="http://www.w3.org/1999/xlink">
<g id="graph0" class="graph" transform="scale(1 1) rotate(0) translate(4 100)">
<title>netspeak::model::SimpleQueryUnit__::source</title>
<!-- Node1 -->
<g id="Node000001" class="node">
<title>Node1</title>
<g id="a_Node000001"><a xlink:title=" ">
<polygon fill="#999999" stroke="#666666" points="1125,-84 958,-84 958,-54 1125,-54 1125,-84"/>
<text text-anchor="start" x="966" y="-72" font-family="Helvetica,sans-Serif" font-size="10.00">netspeak::model::SimpleQuery</text>
<text text-anchor="middle" x="1041.5" y="-61" font-family="Helvetica,sans-Serif" font-size="10.00">Unit__::source</text>
</a>
</g>
</g>
<!-- Node2 -->
<g id="Node000002" class="node">
<title>Node2</title>
<g id="a_Node000002"><a xlink:href="classnetspeak_1_1StarQueryConverter.html#a3b9f125a061331acd1c667c8bf50fb2b" target="_top" xlink:title=" ">
<polygon fill="white" stroke="#666666" points="922,-54 758,-54 758,-24 922,-24 922,-54"/>
<text text-anchor="start" x="766" y="-42" font-family="Helvetica,sans-Serif" font-size="10.00">netspeak::StarQueryConverter</text>
<text text-anchor="middle" x="840" y="-31" font-family="Helvetica,sans-Serif" font-size="10.00">::alternation</text>
</a>
</g>
</g>
<!-- Node1&#45;&gt;Node2 -->
<g id="edge1_Node000001_Node000002" class="edge">
<title>Node1&#45;&gt;Node2</title>
<g id="a_edge1_Node000001_Node000002"><a xlink:title=" ">
<path fill="none" stroke="#63b8ff" d="M947.9,-55.08C939.33,-53.79 930.69,-52.49 922.24,-51.22"/>
<polygon fill="#63b8ff" stroke="#63b8ff" points="947.51,-58.56 957.92,-56.58 948.55,-51.63 947.51,-58.56"/>
</a>
</g>
</g>
<!-- Node3 -->
<g id="Node000003" class="node">
<title>Node3</title>
<g id="a_Node000003"><a xlink:href="classnetspeak_1_1StarQueryConverter.html#a603db91f5a1da4fcc11c7e99f71ece2f" target="_top" xlink:title=" ">
<polygon fill="white" stroke="#666666" points="722,-78 558,-78 558,-48 722,-48 722,-78"/>
<text text-anchor="start" x="566" y="-66" font-family="Helvetica,sans-Serif" font-size="10.00">netspeak::StarQueryConverter</text>
<text text-anchor="middle" x="640" y="-55" font-family="Helvetica,sans-Serif" font-size="10.00">::concat</text>
</a>
</g>
</g>
<!-- Node1&#45;&gt;Node3 -->
<g id="edge10_Node000001_Node000003" class="edge">
<title>Node1&#45;&gt;Node3</title>
<g id="a_edge10_Node000001_Node000003"><a xlink:title=" ">
<path fill="none" stroke="#63b8ff" d="M947.58,-79.31C938.94,-80 930.31,-80.58 922,-81 849.2,-84.68 830.68,-86.56 758,-81 746.32,-80.11 734.04,-78.72 722.01,-77.1"/>
<polygon fill="#63b8ff" stroke="#63b8ff" points="948.03,-82.78 957.71,-78.46 947.45,-75.81 948.03,-82.78"/>
</a>
</g>
</g>
<!-- Node2&#45;&gt;Node2 -->
<g id="edge2_Node000002_Node000002" class="edge">
<title>Node2&#45;&gt;Node2</title>
<g id="a_edge2_Node000002_Node000002"><a xlink:title=" ">
<path fill="none" stroke="#63b8ff" d="M875.01,-64.6C870.22,-68.97 858.55,-72 840,-72 808.75,-72 797.03,-63.41 804.84,-54.28"/>
<polygon fill="#63b8ff" stroke="#63b8ff" points="878.51,-64.32 875.16,-54.28 871.51,-64.22 878.51,-64.32"/>
</a>
</g>
</g>
<!-- Node2&#45;&gt;Node3 -->
<g id="edge3_Node000002_Node000003" class="edge">
<title>Node2&#45;&gt;Node3</title>
<g id="a_edge3_Node000002_Node000003"><a xlink:title=" ">
<path fill="none" stroke="#63b8ff" d="M747.73,-43.33C735.57,-44.75 723.26,-46.32 711.52,-47.96"/>
<polygon fill="#63b8ff" stroke="#63b8ff" points="748.35,-46.78 757.89,-42.18 747.56,-39.83 748.35,-46.78"/>
</a>
</g>
</g>
<!-- Node4 -->
<g id="Node000004" class="node">
<title>Node4</title>
<g id="a_Node000004"><a xlink:href="classnetspeak_1_1StarQueryConverter.html#a72012a4108886c30c45ec19164f42dfd" target="_top" xlink:title=" ">
<polygon fill="white" stroke="#666666" points="722,-30 558,-30 558,0 722,0 722,-30"/>
<text text-anchor="start" x="566" y="-18" font-family="Helvetica,sans-Serif" font-size="10.00">netspeak::StarQueryConverter</text>
<text text-anchor="middle" x="640" y="-7" font-family="Helvetica,sans-Serif" font-size="10.00">::to_star_queries</text>
</a>
</g>
</g>
<!-- Node2&#45;&gt;Node4 -->
<g id="edge6_Node000002_Node000004" class="edge">
<title>Node2&#45;&gt;Node4</title>
<g id="a_edge6_Node000002_Node000004"><a xlink:title=" ">
<path fill="none" stroke="#63b8ff" d="M747.92,-27.96C739.37,-26.92 730.75,-25.88 722.3,-24.85"/>
<polygon fill="#63b8ff" stroke="#63b8ff" points="747.55,-31.44 757.89,-29.17 748.39,-24.49 747.55,-31.44"/>
</a>
</g>
</g>
<!-- Node3&#45;&gt;Node2 -->
<g id="edge4_Node000003_Node000002" class="edge">
<title>Node3&#45;&gt;Node2</title>
<g id="a_edge4_Node000003_Node000002"><a xlink:title=" ">
<path fill="none" stroke="#63b8ff" d="M732.45,-58.65C744.6,-57.23 756.91,-55.66 768.64,-54.02"/>
<polygon fill="#63b8ff" stroke="#63b8ff" points="731.83,-55.2 722.29,-59.8 732.62,-62.15 731.83,-55.2"/>
</a>
</g>
</g>
<!-- Node3&#45;&gt;Node3 -->
<g id="edge5_Node000003_Node000003" class="edge">
<title>Node3&#45;&gt;Node3</title>
<g id="a_edge5_Node000003_Node000003"><a xlink:title=" ">
<path fill="none" stroke="#63b8ff" d="M675.01,-88.6C670.22,-92.97 658.55,-96 640,-96 608.75,-96 597.03,-87.41 604.84,-78.28"/>
<polygon fill="#63b8ff" stroke="#63b8ff" points="678.51,-88.32 675.16,-78.28 671.51,-88.22 678.51,-88.32"/>
</a>
</g>
</g>
<!-- Node5 -->
<g id="Node000005" class="node">
<title>Node5</title>
<g id="a_Node000005"><a xlink:href="classnetspeak_1_1SimpleQueryNormalizer.html#a64fc82bf1d46c167bbb645835120b233" target="_top" xlink:title="Converts the given simple query into norm queries and adds them to the given list of norm queries.">
<polygon fill="white" stroke="#666666" points="522,-30 337,-30 337,0 522,0 522,-30"/>
<text text-anchor="start" x="345" y="-18" font-family="Helvetica,sans-Serif" font-size="10.00">netspeak::SimpleQueryNormalizer</text>
<text text-anchor="middle" x="429.5" y="-7" font-family="Helvetica,sans-Serif" font-size="10.00">::to_norm_queries</text>
</a>
</g>
</g>
<!-- Node4&#45;&gt;Node5 -->
<g id="edge7_Node000004_Node000005" class="edge">
<title>Node4&#45;&gt;Node5</title>
<g id="a_edge7_Node000004_Node000005"><a xlink:title=" ">
<path fill="none" stroke="#63b8ff" d="M547.59,-15C539.17,-15 530.64,-15 522.21,-15"/>
<polygon fill="#63b8ff" stroke="#63b8ff" points="547.79,-18.5 557.79,-15 547.79,-11.5 547.79,-18.5"/>
</a>
</g>
</g>
<!-- Node6 -->
<g id="Node000006" class="node">
<title>Node6</title>
<g id="a_Node000006"><a xlink:href="classnetspeak_1_1QueryNormalizer.html#a70187ab668d98c93cfc3a8d05ca1508e" target="_top" xlink:title=" ">
<polygon fill="white" stroke="#666666" points="301,-30 150,-30 150,0 301,0 301,-30"/>
<text text-anchor="start" x="158" y="-18" font-family="Helvetica,sans-Serif" font-size="10.00">netspeak::QueryNormalizer</text>
<text text-anchor="middle" x="225.5" y="-7" font-family="Helvetica,sans-Serif" font-size="10.00">::normalize</text>
</a>
</g>
</g>
<!-- Node5&#45;&gt;Node6 -->
<g id="edge8_Node000005_Node000006" class="edge">
<title>Node5&#45;&gt;Node6</title>
<g id="a_edge8_Node000005_Node000006"><a xlink:title=" ">
<path fill="none" stroke="#63b8ff" d="M326.8,-15C318.14,-15 309.48,-15 301.09,-15"/>
<polygon fill="#63b8ff" stroke="#63b8ff" points="326.96,-18.5 336.96,-15 326.96,-11.5 326.96,-18.5"/>
</a>
</g>
</g>
<!-- Node7 -->
<g id="Node000007" class="node">
<title>Node7</title>
<g id="a_Node000007"><a xlink:href="classnetspeak_1_1Netspeak.html#aaa049275c7a0a7f6721acf7422402bff" target="_top" xlink:title=" ">
<polygon fill="white" stroke="#666666" points="114,-30 0,-30 0,0 114,0 114,-30"/>
<text text-anchor="start" x="8" y="-18" font-family="Helvetica,sans-Serif" font-size="10.00">netspeak::Netspeak</text>
<text text-anchor="middle" x="57" y="-7" font-family="Helvetica,sans-Serif" font-size="10.00">::search_raw_</text>
</a>
</g>
</g>
<!-- Node6&#45;&gt;Node7 -->
<g id="edge9_Node000006_Node000007" class="edge">
<title>Node6&#45;&gt;Node7</title>
<g id="a_edge9_Node000006_Node000007"><a xlink:title=" ">
<path fill="none" stroke="#63b8ff" d="M139.45,-15C130.85,-15 122.28,-15 114.1,-15"/>
<polygon fill="#63b8ff" stroke="#63b8ff" points="139.53,-18.5 149.53,-15 139.53,-11.5 139.53,-18.5"/>
</a>
</g>
</g>
</g>
</svg>
