<?xml version="1.0" encoding="UTF-8" standalone="no"?>
<!DOCTYPE svg PUBLIC "-//W3C//DTD SVG 1.1//EN"
 "http://www.w3.org/Graphics/SVG/1.1/DTD/svg11.dtd">
<!-- Generated by graphviz version 2.43.0 (0)
 -->
<!-- Title: netspeak::value::pair::e1 Pages: 1 -->
<svg width="1260pt" height="1047pt"
 viewBox="0.00 0.00 1260.00 1047.00" xmlns="http://www.w3.org/2000/svg" xmlns:xlink="http://www.w3.org/1999/xlink">
<g id="graph0" class="graph" transform="scale(1 1) rotate(0) translate(4 1043)">
<title>netspeak::value::pair::e1</title>
<!-- Node1 -->
<g id="Node000001" class="node">
<title>Node1</title>
<g id="a_Node000001"><a xlink:title=" ">
<polygon fill="#999999" stroke="#666666" points="1252,-557 1115,-557 1115,-538 1252,-538 1252,-557"/>
<text text-anchor="middle" x="1183.5" y="-545" font-family="Helvetica,sans-Serif" font-size="10.00">netspeak::value::pair::e1</text>
</a>
</g>
</g>
<!-- Node2 -->
<g id="Node000002" class="node">
<title>Node2</title>
<g id="a_Node000002"><a xlink:href="structnetspeak_1_1value_1_1value__traits_3_01pair_3_01T1_00_01T2_01_4_01_4.html#a721174b04412492d05318a71112b2227" target="_top" xlink:title=" ">
<polygon fill="white" stroke="#666666" points="1056,-1039 928,-1039 928,-998 1056,-998 1056,-1039"/>
<text text-anchor="start" x="936" y="-1027" font-family="Helvetica,sans-Serif" font-size="10.00">netspeak::value::value</text>
<text text-anchor="start" x="936" y="-1016" font-family="Helvetica,sans-Serif" font-size="10.00">_traits&lt; pair&lt; T1, T2</text>
<text text-anchor="middle" x="992" y="-1005" font-family="Helvetica,sans-Serif" font-size="10.00"> &gt; &gt;::copy_from</text>
</a>
</g>
</g>
<!-- Node1&#45;&gt;Node2 -->
<g id="edge1_Node000001_Node000002" class="edge">
<title>Node1&#45;&gt;Node2</title>
<g id="a_edge1_Node000001_Node000002"><a xlink:title=" ">
<path fill="none" stroke="#63b8ff" d="M1180.42,-567.25C1171.9,-644.53 1137.37,-925.29 1079,-989.5 1072.75,-996.38 1064.81,-1001.63 1056.29,-1005.63"/>
<polygon fill="#63b8ff" stroke="#63b8ff" points="1183.93,-567.33 1181.52,-557.02 1176.97,-566.58 1183.93,-567.33"/>
</a>
</g>
</g>
<!-- Node3 -->
<g id="Node000003" class="node">
<title>Node3</title>
<g id="a_Node000003"><a xlink:href="structnetspeak_1_1value_1_1value__traits_3_01pair_3_01T1_00_01T2_01_4_01_4.html#a0348a31a094f4817282cf9d8d4ecd839" target="_top" xlink:title=" ">
<polygon fill="white" stroke="#666666" points="1056,-980 928,-980 928,-939 1056,-939 1056,-980"/>
<text text-anchor="start" x="936" y="-968" font-family="Helvetica,sans-Serif" font-size="10.00">netspeak::value::value</text>
<text text-anchor="start" x="936" y="-957" font-family="Helvetica,sans-Serif" font-size="10.00">_traits&lt; pair&lt; T1, T2</text>
<text text-anchor="middle" x="992" y="-946" font-family="Helvetica,sans-Serif" font-size="10.00"> &gt; &gt;::copy_to</text>
</a>
</g>
</g>
<!-- Node1&#45;&gt;Node3 -->
<g id="edge2_Node000001_Node000003" class="edge">
<title>Node1&#45;&gt;Node3</title>
<g id="a_edge2_Node000001_Node000003"><a xlink:title=" ">
<path fill="none" stroke="#63b8ff" d="M1183.17,-567.33C1184.15,-629.46 1178.65,-822.51 1079,-929.5 1072.64,-936.33 1064.65,-941.6 1056.11,-945.67"/>
<polygon fill="#63b8ff" stroke="#63b8ff" points="1186.66,-566.93 1182.92,-557.01 1179.66,-567.09 1186.66,-566.93"/>
</a>
</g>
</g>
<!-- Node4 -->
<g id="Node000004" class="node">
<title>Node4</title>
<g id="a_Node000004"><a xlink:href="classnetspeak_1_1bighashmap_1_1ExternalMap.html#ab4c1b42fd3ea23b4bb6543f24d4fa062" target="_top" xlink:title=" ">
<polygon fill="white" stroke="#666666" points="1056,-920.5 928,-920.5 928,-890.5 1056,-890.5 1056,-920.5"/>
<text text-anchor="start" x="936" y="-908.5" font-family="Helvetica,sans-Serif" font-size="10.00">netspeak::bighashmap</text>
<text text-anchor="middle" x="992" y="-897.5" font-family="Helvetica,sans-Serif" font-size="10.00">::ExternalMap::Get</text>
</a>
</g>
</g>
<!-- Node1&#45;&gt;Node4 -->
<g id="edge3_Node000001_Node000004" class="edge">
<title>Node1&#45;&gt;Node4</title>
<g id="a_edge3_Node000001_Node000004"><a xlink:title=" ">
<path fill="none" stroke="#63b8ff" d="M1182.53,-567.34C1181.5,-624.77 1170.43,-792.63 1079,-881.5 1072.55,-887.77 1064.61,-892.43 1056.19,-895.88"/>
<polygon fill="#63b8ff" stroke="#63b8ff" points="1186.03,-567.14 1182.62,-557.11 1179.03,-567.08 1186.03,-567.14"/>
</a>
</g>
</g>
<!-- Node5 -->
<g id="Node000005" class="node">
<title>Node5</title>
<g id="a_Node000005"><a xlink:href="classnetspeak_1_1bighashmap_1_1InternalMap.html#af7547d2d66d8db1f2e9585ac049a414a" target="_top" xlink:title=" ">
<polygon fill="white" stroke="#666666" points="1056,-872.5 928,-872.5 928,-842.5 1056,-842.5 1056,-872.5"/>
<text text-anchor="start" x="936" y="-860.5" font-family="Helvetica,sans-Serif" font-size="10.00">netspeak::bighashmap</text>
<text text-anchor="middle" x="992" y="-849.5" font-family="Helvetica,sans-Serif" font-size="10.00">::InternalMap::Get</text>
</a>
</g>
</g>
<!-- Node1&#45;&gt;Node5 -->
<g id="edge4_Node000001_Node000005" class="edge">
<title>Node1&#45;&gt;Node5</title>
<g id="a_edge4_Node000001_Node000005"><a xlink:title=" ">
<path fill="none" stroke="#63b8ff" d="M1181.35,-567.21C1177.24,-618.88 1158.9,-759.38 1079,-833.5 1072.52,-839.51 1064.67,-844.03 1056.37,-847.43"/>
<polygon fill="#63b8ff" stroke="#63b8ff" points="1184.85,-567.3 1182.06,-557.08 1177.87,-566.81 1184.85,-567.3"/>
</a>
</g>
</g>
<!-- Node6 -->
<g id="Node000006" class="node">
<title>Node6</title>
<g id="a_Node000006"><a xlink:href="structnetspeak_1_1index__entry__traits_3_01RetrievalStrategy3Tag_01_4.html#a8232348a9bb8f6dc300e2493c507b0bc" target="_top" xlink:title=" ">
<polygon fill="white" stroke="#666666" points="1071,-824 913,-824 913,-783 1071,-783 1071,-824"/>
<text text-anchor="start" x="921" y="-812" font-family="Helvetica,sans-Serif" font-size="10.00">netspeak::index_entry</text>
<text text-anchor="start" x="921" y="-801" font-family="Helvetica,sans-Serif" font-size="10.00">_traits&lt; RetrievalStrategy3</text>
<text text-anchor="middle" x="992" y="-790" font-family="Helvetica,sans-Serif" font-size="10.00">Tag &gt;::get_phrase_frequency</text>
</a>
</g>
</g>
<!-- Node1&#45;&gt;Node6 -->
<g id="edge5_Node000001_Node000006" class="edge">
<title>Node1&#45;&gt;Node6</title>
<g id="a_edge5_Node000001_Node000006"><a xlink:title=" ">
<path fill="none" stroke="#63b8ff" d="M1178.99,-567.25C1170.21,-610.96 1143.19,-716.58 1079,-774.5 1075.61,-777.56 1071.88,-780.3 1067.94,-782.75"/>
<polygon fill="#63b8ff" stroke="#63b8ff" points="1182.45,-567.79 1180.88,-557.32 1175.57,-566.48 1182.45,-567.79"/>
</a>
</g>
</g>
<!-- Node7 -->
<g id="Node000007" class="node">
<title>Node7</title>
<g id="a_Node000007"><a xlink:href="namespacenetspeak.html#a05ba0ecaeb06e7655d8afee94653f6c4" target="_top" xlink:title=" ">
<polygon fill="white" stroke="#666666" points="1057.5,-765 926.5,-765 926.5,-746 1057.5,-746 1057.5,-765"/>
<text text-anchor="middle" x="992" y="-753" font-family="Helvetica,sans-Serif" font-size="10.00">netspeak::IndexPostlist</text>
</a>
</g>
</g>
<!-- Node1&#45;&gt;Node7 -->
<g id="edge6_Node000001_Node000007" class="edge">
<title>Node1&#45;&gt;Node7</title>
<g id="a_edge6_Node000001_Node000007"><a xlink:title=" ">
<path fill="none" stroke="#63b8ff" d="M1177.57,-567.26C1166.79,-606.18 1137.29,-692.77 1079,-736.5 1072.64,-741.27 1065.31,-744.89 1057.68,-747.62"/>
<polygon fill="#63b8ff" stroke="#63b8ff" points="1181.06,-567.78 1180.23,-557.21 1174.29,-565.99 1181.06,-567.78"/>
</a>
</g>
</g>
<!-- Node8 -->
<g id="Node000008" class="node">
<title>Node8</title>
<g id="a_Node000008"><a xlink:href="structnetspeak_1_1value_1_1generator_3_01pair_3_01T1_00_01T2_01_4_01_4.html#a75e609f11748792ed009382b6b17dc62" target="_top" xlink:title=" ">
<polygon fill="white" stroke="#666666" points="1075,-727.5 909,-727.5 909,-697.5 1075,-697.5 1075,-727.5"/>
<text text-anchor="start" x="917" y="-715.5" font-family="Helvetica,sans-Serif" font-size="10.00">netspeak::value::generator</text>
<text text-anchor="middle" x="992" y="-704.5" font-family="Helvetica,sans-Serif" font-size="10.00">&lt; pair&lt; T1, T2 &gt; &gt;::numbered</text>
</a>
</g>
</g>
<!-- Node1&#45;&gt;Node8 -->
<g id="edge7_Node000001_Node000008" class="edge">
<title>Node1&#45;&gt;Node8</title>
<g id="a_edge7_Node000001_Node000008"><a xlink:title=" ">
<path fill="none" stroke="#63b8ff" d="M1173.93,-566.17C1159.04,-596.52 1125.45,-656.39 1079,-688.5 1074.03,-691.94 1068.57,-694.89 1062.9,-697.41"/>
<polygon fill="#63b8ff" stroke="#63b8ff" points="1177.12,-567.62 1178.26,-557.09 1170.8,-564.61 1177.12,-567.62"/>
</a>
</g>
</g>
<!-- Node9 -->
<g id="Node000009" class="node">
<title>Node9</title>
<g id="a_Node000009"><a xlink:href="namespacenetspeak_1_1value.html#a6c6b87b0e36f5329c4f650b032387972" target="_top" xlink:title=" ">
<polygon fill="white" stroke="#666666" points="1067,-679 917,-679 917,-660 1067,-660 1067,-679"/>
<text text-anchor="middle" x="992" y="-667" font-family="Helvetica,sans-Serif" font-size="10.00">netspeak::value::operator&lt;</text>
</a>
</g>
</g>
<!-- Node1&#45;&gt;Node9 -->
<g id="edge8_Node000001_Node000009" class="edge">
<title>Node1&#45;&gt;Node9</title>
<g id="a_edge8_Node000001_Node000009"><a xlink:title=" ">
<path fill="none" stroke="#63b8ff" d="M1169.94,-565.49C1152.43,-589.13 1118.34,-630.16 1079,-651.5 1072.7,-654.92 1065.81,-657.69 1058.77,-659.93"/>
<polygon fill="#63b8ff" stroke="#63b8ff" points="1173,-567.23 1176.02,-557.08 1167.33,-563.13 1173,-567.23"/>
</a>
</g>
</g>
<!-- Node10 -->
<g id="Node000010" class="node">
<title>Node10</title>
<g id="a_Node000010"><a xlink:href="namespacenetspeak_1_1value.html#a5fa241657b9bb5a5ee196b761952052c" target="_top" xlink:title=" ">
<polygon fill="white" stroke="#666666" points="1071,-642 913,-642 913,-623 1071,-623 1071,-642"/>
<text text-anchor="middle" x="992" y="-630" font-family="Helvetica,sans-Serif" font-size="10.00">netspeak::value::operator==</text>
</a>
</g>
</g>
<!-- Node1&#45;&gt;Node10 -->
<g id="edge9_Node000001_Node000010" class="edge">
<title>Node1&#45;&gt;Node10</title>
<g id="a_edge9_Node000001_Node000010"><a xlink:title=" ">
<path fill="none" stroke="#63b8ff" d="M1162.89,-563.37C1142.94,-578.72 1110.55,-601.51 1079,-614.5 1070.82,-617.87 1061.93,-620.63 1053.07,-622.9"/>
<polygon fill="#63b8ff" stroke="#63b8ff" points="1165.18,-566.03 1170.89,-557.1 1160.86,-560.52 1165.18,-566.03"/>
</a>
</g>
</g>
<!-- Node11 -->
<g id="Node000011" class="node">
<title>Node11</title>
<g id="a_Node000011"><a xlink:href="namespacenetspeak_1_1value.html#ab8278f5e1da3b512178e2d32551b8b09" target="_top" xlink:title=" ">
<polygon fill="white" stroke="#666666" points="1067,-605 917,-605 917,-586 1067,-586 1067,-605"/>
<text text-anchor="middle" x="992" y="-593" font-family="Helvetica,sans-Serif" font-size="10.00">netspeak::value::operator&gt;</text>
</a>
</g>
</g>
<!-- Node1&#45;&gt;Node11 -->
<g id="edge10_Node000001_Node000011" class="edge">
<title>Node1&#45;&gt;Node11</title>
<g id="a_edge10_Node000001_Node000011"><a xlink:title=" ">
<path fill="none" stroke="#63b8ff" d="M1142.03,-560C1122.99,-565.68 1099.93,-572.28 1079,-577.5 1067.01,-580.49 1054,-583.39 1041.81,-585.95"/>
<polygon fill="#63b8ff" stroke="#63b8ff" points="1143.3,-563.27 1151.87,-557.04 1141.28,-556.57 1143.3,-563.27"/>
</a>
</g>
</g>
<!-- Node12 -->
<g id="Node000012" class="node">
<title>Node12</title>
<g id="a_Node000012"><a xlink:href="structnetspeak_1_1value_1_1value__traits_3_01pair_3_01T1_00_01T2_01_4_01_4.html#ac8cdfbc2ef6dbec07338be8ca9918ca7" target="_top" xlink:title=" ">
<polygon fill="white" stroke="#666666" points="1056,-568 928,-568 928,-527 1056,-527 1056,-568"/>
<text text-anchor="start" x="936" y="-556" font-family="Helvetica,sans-Serif" font-size="10.00">netspeak::value::value</text>
<text text-anchor="start" x="936" y="-545" font-family="Helvetica,sans-Serif" font-size="10.00">_traits&lt; pair&lt; T1, T2</text>
<text text-anchor="middle" x="992" y="-534" font-family="Helvetica,sans-Serif" font-size="10.00"> &gt; &gt;::parse_from</text>
</a>
</g>
</g>
<!-- Node1&#45;&gt;Node12 -->
<g id="edge11_Node000001_Node000012" class="edge">
<title>Node1&#45;&gt;Node12</title>
<g id="a_edge11_Node000001_Node000012"><a xlink:title=" ">
<path fill="none" stroke="#63b8ff" d="M1104.44,-547.5C1088.36,-547.5 1071.62,-547.5 1056.15,-547.5"/>
<polygon fill="#63b8ff" stroke="#63b8ff" points="1104.89,-551 1114.89,-547.5 1104.89,-544 1104.89,-551"/>
</a>
</g>
</g>
<!-- Node13 -->
<g id="Node000013" class="node">
<title>Node13</title>
<g id="a_Node000013"><a xlink:href="structnetspeak_1_1value_1_1value__traits_3_01pair_3_01T1_00_01T2_01_4_01_4.html#adb23d1d33e15bed03dd89f486b5748d9" target="_top" xlink:title=" ">
<polygon fill="white" stroke="#666666" points="1056,-509 928,-509 928,-468 1056,-468 1056,-509"/>
<text text-anchor="start" x="936" y="-497" font-family="Helvetica,sans-Serif" font-size="10.00">netspeak::value::value</text>
<text text-anchor="start" x="936" y="-486" font-family="Helvetica,sans-Serif" font-size="10.00">_traits&lt; pair&lt; T1, T2</text>
<text text-anchor="middle" x="992" y="-475" font-family="Helvetica,sans-Serif" font-size="10.00"> &gt; &gt;::print_to</text>
</a>
</g>
</g>
<!-- Node1&#45;&gt;Node13 -->
<g id="edge12_Node000001_Node000013" class="edge">
<title>Node1&#45;&gt;Node13</title>
<g id="a_edge12_Node000001_Node000013"><a xlink:title=" ">
<path fill="none" stroke="#63b8ff" d="M1141.77,-534.82C1116.8,-527.04 1084.31,-516.93 1056.07,-508.14"/>
<polygon fill="#63b8ff" stroke="#63b8ff" points="1141.04,-538.26 1151.63,-537.89 1143.12,-531.57 1141.04,-538.26"/>
</a>
</g>
</g>
<!-- Node14 -->
<g id="Node000014" class="node">
<title>Node14</title>
<g id="a_Node000014"><a xlink:href="structnetspeak_1_1value_1_1generator_3_01pair_3_01T1_00_01T2_01_4_01_4.html#afb1bc8ed2888a89caf9fc3863d71ac42" target="_top" xlink:title=" ">
<polygon fill="white" stroke="#666666" points="1079,-449.5 905,-449.5 905,-419.5 1079,-419.5 1079,-449.5"/>
<text text-anchor="start" x="913" y="-437.5" font-family="Helvetica,sans-Serif" font-size="10.00">netspeak::value::generator</text>
<text text-anchor="middle" x="992" y="-426.5" font-family="Helvetica,sans-Serif" font-size="10.00">&lt; pair&lt; T1, T2 &gt; &gt;::randomized</text>
</a>
</g>
</g>
<!-- Node1&#45;&gt;Node14 -->
<g id="edge13_Node000001_Node000014" class="edge">
<title>Node1&#45;&gt;Node14</title>
<g id="a_edge13_Node000001_Node000014"><a xlink:title=" ">
<path fill="none" stroke="#63b8ff" d="M1166.84,-530.38C1147.86,-510.6 1114.05,-478.36 1079,-459.5 1071.88,-455.67 1064.1,-452.36 1056.23,-449.52"/>
<polygon fill="#63b8ff" stroke="#63b8ff" points="1164.4,-532.89 1173.8,-537.77 1169.5,-528.09 1164.4,-532.89"/>
</a>
</g>
</g>
<!-- Node15 -->
<g id="Node000015" class="node">
<title>Node15</title>
<g id="a_Node000015"><a xlink:href="structnetspeak_1_1value_1_1value__traits_3_01pair_3_01T1_00_01T2_01_4_01_4.html#aa209e7a7cbde832df4307cada9ef2821" target="_top" xlink:title=" ">
<polygon fill="white" stroke="#666666" points="1056,-401 928,-401 928,-360 1056,-360 1056,-401"/>
<text text-anchor="start" x="936" y="-389" font-family="Helvetica,sans-Serif" font-size="10.00">netspeak::value::value</text>
<text text-anchor="start" x="936" y="-378" font-family="Helvetica,sans-Serif" font-size="10.00">_traits&lt; pair&lt; T1, T2</text>
<text text-anchor="middle" x="992" y="-367" font-family="Helvetica,sans-Serif" font-size="10.00"> &gt; &gt;::read_from</text>
</a>
</g>
</g>
<!-- Node1&#45;&gt;Node15 -->
<g id="edge14_Node000001_Node000015" class="edge">
<title>Node1&#45;&gt;Node15</title>
<g id="a_edge14_Node000001_Node000015"><a xlink:title=" ">
<path fill="none" stroke="#63b8ff" d="M1172.9,-528.45C1157.17,-499.06 1123.18,-442.69 1079,-410.5 1072.1,-405.47 1064.28,-401.23 1056.24,-397.67"/>
<polygon fill="#63b8ff" stroke="#63b8ff" points="1169.97,-530.39 1177.69,-537.64 1176.17,-527.15 1169.97,-530.39"/>
</a>
</g>
</g>
<!-- Node16 -->
<g id="Node000016" class="node">
<title>Node16</title>
<g id="a_Node000016"><a xlink:href="classnetspeak_1_1invertedindex_1_1StorageReader.html#a9ea857eb693897e97ff1c454160edf32" target="_top" xlink:title=" ">
<polygon fill="white" stroke="#666666" points="1067.5,-341.5 916.5,-341.5 916.5,-311.5 1067.5,-311.5 1067.5,-341.5"/>
<text text-anchor="start" x="924.5" y="-329.5" font-family="Helvetica,sans-Serif" font-size="10.00">netspeak::invertedindex</text>
<text text-anchor="middle" x="992" y="-318.5" font-family="Helvetica,sans-Serif" font-size="10.00">::StorageReader::ReadHead</text>
</a>
</g>
</g>
<!-- Node1&#45;&gt;Node16 -->
<g id="edge15_Node000001_Node000016" class="edge">
<title>Node1&#45;&gt;Node16</title>
<g id="a_edge15_Node000001_Node000016"><a xlink:title=" ">
<path fill="none" stroke="#63b8ff" d="M1177.68,-527.86C1166.95,-488.37 1137.34,-399.06 1079,-351.5 1074.3,-347.67 1069.04,-344.42 1063.49,-341.68"/>
<polygon fill="#63b8ff" stroke="#63b8ff" points="1174.31,-528.81 1180.21,-537.61 1181.08,-527.05 1174.31,-528.81"/>
</a>
</g>
</g>
<!-- Node17 -->
<g id="Node000017" class="node">
<title>Node17</title>
<g id="a_Node000017"><a xlink:href="classnetspeak_1_1invertedindex_1_1StorageReader.html#a529c086e636606ac8adc5a72abfe57f5" target="_top" xlink:title=" ">
<polygon fill="white" stroke="#666666" points="1072.5,-293.5 911.5,-293.5 911.5,-263.5 1072.5,-263.5 1072.5,-293.5"/>
<text text-anchor="start" x="919.5" y="-281.5" font-family="Helvetica,sans-Serif" font-size="10.00">netspeak::invertedindex</text>
<text text-anchor="middle" x="992" y="-270.5" font-family="Helvetica,sans-Serif" font-size="10.00">::StorageReader::ReadPostlist</text>
</a>
</g>
</g>
<!-- Node1&#45;&gt;Node17 -->
<g id="edge16_Node000001_Node000017" class="edge">
<title>Node1&#45;&gt;Node17</title>
<g id="a_edge16_Node000001_Node000017"><a xlink:title=" ">
<path fill="none" stroke="#63b8ff" d="M1180.01,-527.84C1173.06,-481.4 1149.13,-364.21 1079,-302.5 1075.16,-299.12 1070.88,-296.21 1066.34,-293.71"/>
<polygon fill="#63b8ff" stroke="#63b8ff" points="1176.55,-528.39 1181.4,-537.81 1183.48,-527.42 1176.55,-528.39"/>
</a>
</g>
</g>
<!-- Node18 -->
<g id="Node000018" class="node">
<title>Node18</title>
<g id="a_Node000018"><a xlink:href="classnetspeak_1_1RetrievalStrategy_3_01RetrievalStrategy3Tag_01_4.html#af095959d675af0b9b2384df4a23195d7" target="_top" xlink:title=" ">
<polygon fill="white" stroke="#666666" points="1068.5,-245 915.5,-245 915.5,-204 1068.5,-204 1068.5,-245"/>
<text text-anchor="start" x="923.5" y="-233" font-family="Helvetica,sans-Serif" font-size="10.00">netspeak::RetrievalStrategy</text>
<text text-anchor="start" x="923.5" y="-222" font-family="Helvetica,sans-Serif" font-size="10.00">&lt; RetrievalStrategy3Tag</text>
<text text-anchor="middle" x="992" y="-211" font-family="Helvetica,sans-Serif" font-size="10.00"> &gt;::search_</text>
</a>
</g>
</g>
<!-- Node1&#45;&gt;Node18 -->
<g id="edge17_Node000001_Node000018" class="edge">
<title>Node1&#45;&gt;Node18</title>
<g id="a_edge17_Node000001_Node000018"><a xlink:title=" ">
<path fill="none" stroke="#63b8ff" d="M1181.23,-527.61C1176.85,-475.4 1157.89,-333.08 1079,-254.5 1075.41,-250.93 1071.38,-247.78 1067.07,-245.01"/>
<polygon fill="#63b8ff" stroke="#63b8ff" points="1177.76,-528.13 1182,-537.84 1184.74,-527.61 1177.76,-528.13"/>
</a>
</g>
</g>
<!-- Node19 -->
<g id="Node000019" class="node">
<title>Node19</title>
<g id="a_Node000019"><a xlink:href="classnetspeak_1_1value_1_1pair.html#a88768d1e605580d6734e3cca3df6c70c" target="_top" xlink:title=" ">
<polygon fill="white" stroke="#666666" points="1062,-186 922,-186 922,-167 1062,-167 1062,-186"/>
<text text-anchor="middle" x="992" y="-174" font-family="Helvetica,sans-Serif" font-size="10.00">netspeak::value::pair::set</text>
</a>
</g>
</g>
<!-- Node1&#45;&gt;Node19 -->
<g id="edge18_Node000001_Node000019" class="edge">
<title>Node1&#45;&gt;Node19</title>
<g id="a_edge18_Node000001_Node000019"><a xlink:title=" ">
<path fill="none" stroke="#63b8ff" d="M1183.13,-527.54C1183.87,-467.57 1177.43,-287.4 1079,-195.5 1074.08,-190.91 1068.31,-187.33 1062.13,-184.56"/>
<polygon fill="#63b8ff" stroke="#63b8ff" points="1179.63,-527.8 1182.91,-537.88 1186.62,-527.95 1179.63,-527.8"/>
</a>
</g>
</g>
<!-- Node20 -->
<g id="Node000020" class="node">
<title>Node20</title>
<g id="a_Node000020"><a xlink:href="classnetspeak_1_1value_1_1pair.html#a5fa59bfb0238ad39a6aa497bd4e2dab6" target="_top" xlink:title=" ">
<polygon fill="white" stroke="#666666" points="1051.5,-148.5 932.5,-148.5 932.5,-118.5 1051.5,-118.5 1051.5,-148.5"/>
<text text-anchor="start" x="940.5" y="-136.5" font-family="Helvetica,sans-Serif" font-size="10.00">netspeak::value::pair</text>
<text text-anchor="middle" x="992" y="-125.5" font-family="Helvetica,sans-Serif" font-size="10.00">::set_e1</text>
</a>
</g>
</g>
<!-- Node1&#45;&gt;Node20 -->
<g id="edge19_Node000001_Node000020" class="edge">
<title>Node1&#45;&gt;Node20</title>
<g id="a_edge19_Node000001_Node000020"><a xlink:title=" ">
<path fill="none" stroke="#63b8ff" d="M1179.83,-527.78C1169.81,-456.41 1132.21,-212.94 1079,-158.5 1071.5,-150.83 1061.8,-145.47 1051.62,-141.75"/>
<polygon fill="#63b8ff" stroke="#63b8ff" points="1176.37,-528.27 1181.2,-537.7 1183.3,-527.32 1176.37,-528.27"/>
</a>
</g>
</g>
<!-- Node31 -->
<g id="Node000031" class="node">
<title>Node31</title>
<g id="a_Node000031"><a xlink:href="structnetspeak_1_1value_1_1value__traits_3_01pair_3_01T1_00_01T2_01_4_01_4.html#a2499cd63c7b175dd20ccf97f69dccb5f" target="_top" xlink:title=" ">
<polygon fill="white" stroke="#666666" points="1056,-100 928,-100 928,-59 1056,-59 1056,-100"/>
<text text-anchor="start" x="936" y="-88" font-family="Helvetica,sans-Serif" font-size="10.00">netspeak::value::value</text>
<text text-anchor="start" x="936" y="-77" font-family="Helvetica,sans-Serif" font-size="10.00">_traits&lt; pair&lt; T1, T2</text>
<text text-anchor="middle" x="992" y="-66" font-family="Helvetica,sans-Serif" font-size="10.00"> &gt; &gt;::size_of</text>
</a>
</g>
</g>
<!-- Node1&#45;&gt;Node31 -->
<g id="edge30_Node000001_Node000031" class="edge">
<title>Node1&#45;&gt;Node31</title>
<g id="a_edge30_Node000001_Node000031"><a xlink:title=" ">
<path fill="none" stroke="#63b8ff" d="M1180.32,-527.45C1171.53,-450.22 1136.47,-173.26 1079,-109.5 1072.75,-102.57 1064.82,-97.24 1056.3,-93.14"/>
<polygon fill="#63b8ff" stroke="#63b8ff" points="1176.87,-528.15 1181.46,-537.7 1183.83,-527.38 1176.87,-528.15"/>
</a>
</g>
</g>
<!-- Node32 -->
<g id="Node000032" class="node">
<title>Node32</title>
<g id="a_Node000032"><a xlink:href="structnetspeak_1_1value_1_1value__traits_3_01pair_3_01T1_00_01T2_01_4_01_4.html#aca3587b6085d070921ee982bced592bb" target="_top" xlink:title=" ">
<polygon fill="white" stroke="#666666" points="1056,-41 928,-41 928,0 1056,0 1056,-41"/>
<text text-anchor="start" x="936" y="-29" font-family="Helvetica,sans-Serif" font-size="10.00">netspeak::value::value</text>
<text text-anchor="start" x="936" y="-18" font-family="Helvetica,sans-Serif" font-size="10.00">_traits&lt; pair&lt; T1, T2</text>
<text text-anchor="middle" x="992" y="-7" font-family="Helvetica,sans-Serif" font-size="10.00"> &gt; &gt;::write_to</text>
</a>
</g>
</g>
<!-- Node1&#45;&gt;Node32 -->
<g id="edge31_Node000001_Node000032" class="edge">
<title>Node1&#45;&gt;Node32</title>
<g id="a_edge31_Node000001_Node000032"><a xlink:title=" ">
<path fill="none" stroke="#63b8ff" d="M1180.95,-527.43C1174.12,-443.65 1144.03,-122.87 1079,-49.5 1072.73,-42.43 1064.67,-37.07 1056.01,-33.03"/>
<polygon fill="#63b8ff" stroke="#63b8ff" points="1177.48,-527.93 1181.77,-537.62 1184.46,-527.38 1177.48,-527.93"/>
</a>
</g>
</g>
<!-- Node21 -->
<g id="Node000021" class="node">
<title>Node21</title>
<g id="a_Node000021"><a xlink:href="classnetspeak_1_1bighashmap_1_1Builder.html#a333ad1bb51cee1f0177b6b631148a423" target="_top" xlink:title=" ">
<polygon fill="white" stroke="#666666" points="859,-175.5 721,-175.5 721,-145.5 859,-145.5 859,-175.5"/>
<text text-anchor="start" x="729" y="-163.5" font-family="Helvetica,sans-Serif" font-size="10.00">netspeak::bighashmap</text>
<text text-anchor="middle" x="790" y="-152.5" font-family="Helvetica,sans-Serif" font-size="10.00">::Builder::BuildHashTable</text>
</a>
</g>
</g>
<!-- Node20&#45;&gt;Node21 -->
<g id="edge20_Node000020_Node000021" class="edge">
<title>Node20&#45;&gt;Node21</title>
<g id="a_edge20_Node000020_Node000021"><a xlink:title=" ">
<path fill="none" stroke="#63b8ff" d="M922.2,-142.79C901.82,-145.54 879.51,-148.55 859.17,-151.3"/>
<polygon fill="#63b8ff" stroke="#63b8ff" points="922.9,-146.22 932.34,-141.42 921.97,-139.29 922.9,-146.22"/>
</a>
</g>
</g>
<!-- Node30 -->
<g id="Node000030" class="node">
<title>Node30</title>
<g id="a_Node000030"><a xlink:href="structnetspeak_1_1index__entry__traits_3_01RetrievalStrategy3Tag_01_4.html#a7264ad523cd7672b737a1379357f7794" target="_top" xlink:title=" ">
<polygon fill="white" stroke="#666666" points="869,-127 711,-127 711,-86 869,-86 869,-127"/>
<text text-anchor="start" x="719" y="-115" font-family="Helvetica,sans-Serif" font-size="10.00">netspeak::index_entry</text>
<text text-anchor="start" x="719" y="-104" font-family="Helvetica,sans-Serif" font-size="10.00">_traits&lt; RetrievalStrategy3</text>
<text text-anchor="middle" x="790" y="-93" font-family="Helvetica,sans-Serif" font-size="10.00">Tag &gt;::set_phrase_frequency</text>
</a>
</g>
</g>
<!-- Node20&#45;&gt;Node30 -->
<g id="edge29_Node000020_Node000030" class="edge">
<title>Node20&#45;&gt;Node30</title>
<g id="a_edge29_Node000020_Node000030"><a xlink:title=" ">
<path fill="none" stroke="#63b8ff" d="M921.97,-124.18C905.01,-121.89 886.72,-119.42 869.35,-117.08"/>
<polygon fill="#63b8ff" stroke="#63b8ff" points="921.97,-127.71 932.34,-125.58 922.9,-120.78 921.97,-127.71"/>
</a>
</g>
</g>
<!-- Node22 -->
<g id="Node000022" class="node">
<title>Node22</title>
<g id="a_Node000022"><a xlink:href="classnetspeak_1_1bighashmap_1_1Builder.html#a8435164185bac78bacf97c66e78b9a27" target="_top" xlink:title=" ">
<polygon fill="white" stroke="#666666" points="675,-175.5 547,-175.5 547,-145.5 675,-145.5 675,-175.5"/>
<text text-anchor="start" x="555" y="-163.5" font-family="Helvetica,sans-Serif" font-size="10.00">netspeak::bighashmap</text>
<text text-anchor="middle" x="611" y="-152.5" font-family="Helvetica,sans-Serif" font-size="10.00">::Builder::BuildMap</text>
</a>
</g>
</g>
<!-- Node21&#45;&gt;Node22 -->
<g id="edge21_Node000021_Node000022" class="edge">
<title>Node21&#45;&gt;Node22</title>
<g id="a_edge21_Node000021_Node000022"><a xlink:title=" ">
<path fill="none" stroke="#63b8ff" d="M710.52,-160.5C698.71,-160.5 686.65,-160.5 675.21,-160.5"/>
<polygon fill="#63b8ff" stroke="#63b8ff" points="710.82,-164 720.82,-160.5 710.82,-157 710.82,-164"/>
</a>
</g>
</g>
<!-- Node23 -->
<g id="Node000023" class="node">
<title>Node23</title>
<g id="a_Node000023"><a xlink:href="classnetspeak_1_1bighashmap_1_1Builder.html#a66906e74a9afa4707cfb7c999c0c635a" target="_top" xlink:title=" ">
<polygon fill="white" stroke="#666666" points="511,-175.5 383,-175.5 383,-145.5 511,-145.5 511,-175.5"/>
<text text-anchor="start" x="391" y="-163.5" font-family="Helvetica,sans-Serif" font-size="10.00">netspeak::bighashmap</text>
<text text-anchor="middle" x="447" y="-152.5" font-family="Helvetica,sans-Serif" font-size="10.00">::Builder::Build</text>
</a>
</g>
</g>
<!-- Node22&#45;&gt;Node23 -->
<g id="edge22_Node000022_Node000023" class="edge">
<title>Node22&#45;&gt;Node23</title>
<g id="a_edge22_Node000022_Node000023"><a xlink:title=" ">
<path fill="none" stroke="#63b8ff" d="M536.63,-160.5C528.14,-160.5 519.53,-160.5 511.19,-160.5"/>
<polygon fill="#63b8ff" stroke="#63b8ff" points="536.9,-164 546.9,-160.5 536.9,-157 536.9,-164"/>
</a>
</g>
</g>
<!-- Node24 -->
<g id="Node000024" class="node">
<title>Node24</title>
<g id="a_Node000024"><a xlink:href="classnetspeak_1_1bighashmap_1_1BigHashMap.html#a962d40196fcce78f1ddef98eb3d8344c" target="_top" xlink:title=" ">
<polygon fill="white" stroke="#666666" points="343.5,-210.5 215.5,-210.5 215.5,-180.5 343.5,-180.5 343.5,-210.5"/>
<text text-anchor="start" x="223.5" y="-198.5" font-family="Helvetica,sans-Serif" font-size="10.00">netspeak::bighashmap</text>
<text text-anchor="middle" x="279.5" y="-187.5" font-family="Helvetica,sans-Serif" font-size="10.00">::BigHashMap::Build</text>
</a>
</g>
</g>
<!-- Node23&#45;&gt;Node24 -->
<g id="edge23_Node000023_Node000024" class="edge">
<title>Node23&#45;&gt;Node24</title>
<g id="a_edge23_Node000023_Node000024"><a xlink:title=" ">
<path fill="none" stroke="#63b8ff" d="M372.89,-175.96C363.13,-178.02 353.2,-180.13 343.64,-182.15"/>
<polygon fill="#63b8ff" stroke="#63b8ff" points="373.9,-179.33 382.96,-173.83 372.45,-172.48 373.9,-179.33"/>
</a>
</g>
</g>
<!-- Node26 -->
<g id="Node000026" class="node">
<title>Node26</title>
<g id="a_Node000026"><a xlink:href="classnetspeak_1_1invertedindex_1_1StorageWriter.html#a504b8f6d78f6946fcdb5ee52b85348ce" target="_top" xlink:title=" ">
<polygon fill="white" stroke="#666666" points="347,-151.5 212,-151.5 212,-121.5 347,-121.5 347,-151.5"/>
<text text-anchor="start" x="220" y="-139.5" font-family="Helvetica,sans-Serif" font-size="10.00">netspeak::invertedindex</text>
<text text-anchor="middle" x="279.5" y="-128.5" font-family="Helvetica,sans-Serif" font-size="10.00">::StorageWriter::close</text>
</a>
</g>
</g>
<!-- Node23&#45;&gt;Node26 -->
<g id="edge25_Node000023_Node000026" class="edge">
<title>Node23&#45;&gt;Node26</title>
<g id="a_edge25_Node000023_Node000026"><a xlink:title=" ">
<path fill="none" stroke="#63b8ff" d="M372.98,-149.91C364.41,-148.67 355.7,-147.4 347.22,-146.18"/>
<polygon fill="#63b8ff" stroke="#63b8ff" points="372.56,-153.39 382.96,-151.36 373.57,-146.46 372.56,-153.39"/>
</a>
</g>
</g>
<!-- Node25 -->
<g id="Node000025" class="node">
<title>Node25</title>
<g id="a_Node000025"><a xlink:href="namespacenetspeak.html#a84f2fcf7a89eca20f721ce3c30b85001" target="_top" xlink:title=" ">
<polygon fill="white" stroke="#666666" points="176,-216 0,-216 0,-197 176,-197 176,-216"/>
<text text-anchor="middle" x="88" y="-204" font-family="Helvetica,sans-Serif" font-size="10.00">netspeak::BuildPhraseDictionary</text>
</a>
</g>
</g>
<!-- Node24&#45;&gt;Node25 -->
<g id="edge24_Node000024_Node000025" class="edge">
<title>Node24&#45;&gt;Node25</title>
<g id="a_edge24_Node000024_Node000025"><a xlink:title=" ">
<path fill="none" stroke="#63b8ff" d="M205.2,-199.75C195.68,-200.31 185.84,-200.88 176.12,-201.44"/>
<polygon fill="#63b8ff" stroke="#63b8ff" points="205.62,-203.24 215.4,-199.16 205.21,-196.25 205.62,-203.24"/>
</a>
</g>
</g>
<!-- Node27 -->
<g id="Node000027" class="node">
<title>Node27</title>
<g id="a_Node000027"><a xlink:href="classnetspeak_1_1invertedindex_1_1UnsortedInput.html#a3bf52078c65c198e542a3e16d42eff20" target="_top" xlink:title=" ">
<polygon fill="white" stroke="#666666" points="155.5,-178.5 20.5,-178.5 20.5,-148.5 155.5,-148.5 155.5,-178.5"/>
<text text-anchor="start" x="28.5" y="-166.5" font-family="Helvetica,sans-Serif" font-size="10.00">netspeak::invertedindex</text>
<text text-anchor="middle" x="88" y="-155.5" font-family="Helvetica,sans-Serif" font-size="10.00">::UnsortedInput::index</text>
</a>
</g>
</g>
<!-- Node26&#45;&gt;Node27 -->
<g id="edge26_Node000026_Node000027" class="edge">
<title>Node26&#45;&gt;Node27</title>
<g id="a_edge26_Node000026_Node000027"><a xlink:title=" ">
<path fill="none" stroke="#63b8ff" d="M201.99,-147.4C186.66,-149.58 170.67,-151.86 155.7,-154"/>
<polygon fill="#63b8ff" stroke="#63b8ff" points="202.55,-150.86 211.96,-145.98 201.56,-143.93 202.55,-150.86"/>
</a>
</g>
</g>
<!-- Node28 -->
<g id="Node000028" class="node">
<title>Node28</title>
<g id="a_Node000028"><a xlink:href="classnetspeak_1_1invertedindex_1_1SortedInput.html#ae3183e635b4fa91c0b855773b95ce99c" target="_top" xlink:title=" ">
<polygon fill="white" stroke="#666666" points="155.5,-130.5 20.5,-130.5 20.5,-100.5 155.5,-100.5 155.5,-130.5"/>
<text text-anchor="start" x="28.5" y="-118.5" font-family="Helvetica,sans-Serif" font-size="10.00">netspeak::invertedindex</text>
<text text-anchor="middle" x="88" y="-107.5" font-family="Helvetica,sans-Serif" font-size="10.00">::SortedInput::index</text>
</a>
</g>
</g>
<!-- Node26&#45;&gt;Node28 -->
<g id="edge27_Node000026_Node000028" class="edge">
<title>Node26&#45;&gt;Node28</title>
<g id="a_edge27_Node000026_Node000028"><a xlink:title=" ">
<path fill="none" stroke="#63b8ff" d="M201.99,-128.02C186.66,-126.32 170.67,-124.55 155.7,-122.89"/>
<polygon fill="#63b8ff" stroke="#63b8ff" points="201.63,-131.5 211.96,-129.13 202.4,-124.55 201.63,-131.5"/>
</a>
</g>
</g>
<!-- Node29 -->
<g id="Node000029" class="node">
<title>Node29</title>
<g id="a_Node000029"><a xlink:href="classnetspeak_1_1invertedindex_1_1StorageWriter.html#af783f33c33c210523e44c0aef00b7ccd" target="_top" xlink:title=" ">
<polygon fill="white" stroke="#666666" points="174,-82.5 2,-82.5 2,-52.5 174,-52.5 174,-82.5"/>
<text text-anchor="start" x="10" y="-70.5" font-family="Helvetica,sans-Serif" font-size="10.00">netspeak::invertedindex</text>
<text text-anchor="middle" x="88" y="-59.5" font-family="Helvetica,sans-Serif" font-size="10.00">::StorageWriter::~StorageWriter</text>
</a>
</g>
</g>
<!-- Node26&#45;&gt;Node29 -->
<g id="edge28_Node000026_Node000029" class="edge">
<title>Node26&#45;&gt;Node29</title>
<g id="a_edge28_Node000026_Node000029"><a xlink:title=" ">
<path fill="none" stroke="#63b8ff" d="M238.04,-117.12C219.4,-108.62 196.84,-98.9 176,-91.5 167.14,-88.35 157.66,-85.36 148.33,-82.63"/>
<polygon fill="#63b8ff" stroke="#63b8ff" points="236.57,-120.3 247.12,-121.31 239.51,-113.94 236.57,-120.3"/>
</a>
</g>
</g>
</g>
</svg>
