<?xml version="1.0" encoding="UTF-8" standalone="no"?>
<!DOCTYPE svg PUBLIC "-//W3C//DTD SVG 1.1//EN"
 "http://www.w3.org/Graphics/SVG/1.1/DTD/svg11.dtd">
<!-- Generated by graphviz version 2.43.0 (0)
 -->
<!-- Title: netspeak::invertedindex::RawIndexer Pages: 1 -->
<svg width="137pt" height="124pt"
 viewBox="0.00 0.00 137.00 124.00" xmlns="http://www.w3.org/2000/svg" xmlns:xlink="http://www.w3.org/1999/xlink">
<g id="graph0" class="graph" transform="scale(1 1) rotate(0) translate(4 120)">
<title>netspeak::invertedindex::RawIndexer</title>
<!-- Node1 -->
<g id="Node000001" class="node">
<title>Node1</title>
<g id="a_Node000001"><a xlink:title=" ">
<polygon fill="#999999" stroke="transparent" points="129,-116 0,-116 0,0 129,0 129,-116"/>
<text text-anchor="start" x="5.5" y="-104" font-family="Helvetica,sans-Serif" font-size="10.00">netspeak::invertedindex</text>
<text text-anchor="start" x="33" y="-93" font-family="Helvetica,sans-Serif" font-size="10.00">::RawIndexer</text>
<text text-anchor="start" x="63" y="-78" font-family="Helvetica,sans-Serif" font-size="10.00"> </text>
<text text-anchor="start" x="6" y="-63" font-family="Helvetica,sans-Serif" font-size="10.00">+</text>
<text text-anchor="start" x="20.5" y="-63" font-family="Helvetica,sans-Serif" font-size="10.00">~RawIndexer()</text>
<text text-anchor="start" x="6" y="-48" font-family="Helvetica,sans-Serif" font-size="10.00">+</text>
<text text-anchor="start" x="20.5" y="-48" font-family="Helvetica,sans-Serif" font-size="10.00">index()</text>
<text text-anchor="start" x="6" y="-33" font-family="Helvetica,sans-Serif" font-size="10.00">+</text>
<text text-anchor="start" x="20.5" y="-33" font-family="Helvetica,sans-Serif" font-size="10.00">insert()</text>
<text text-anchor="start" x="6" y="-18" font-family="Helvetica,sans-Serif" font-size="10.00">+</text>
<text text-anchor="start" x="20.5" y="-18" font-family="Helvetica,sans-Serif" font-size="10.00">set_expected_record</text>
<text text-anchor="start" x="20.5" y="-7" font-family="Helvetica,sans-Serif" font-size="10.00">_count()</text>
<polygon fill="#666666" stroke="#666666" points="0.5,-88 0.5,-88 129.5,-88 129.5,-88 0.5,-88"/>
<polygon fill="#666666" stroke="#666666" points="0.5,-73 0.5,-73 129.5,-73 129.5,-73 0.5,-73"/>
<polygon fill="none" stroke="#666666" points="0,0 0,-116 129,-116 129,0 0,0"/>
</a>
</g>
</g>
</g>
</svg>
