<?xml version="1.0" encoding="UTF-8" standalone="no"?>
<!DOCTYPE svg PUBLIC "-//W3C//DTD SVG 1.1//EN"
 "http://www.w3.org/Graphics/SVG/1.1/DTD/svg11.dtd">
<!-- Generated by graphviz version 2.43.0 (0)
 -->
<!-- Title: netspeak::invertedindex::UnsortedInput::rehash_ Pages: 1 -->
<svg width="799pt" height="526pt"
 viewBox="0.00 0.00 799.00 525.84" xmlns="http://www.w3.org/2000/svg" xmlns:xlink="http://www.w3.org/1999/xlink">
<g id="graph0" class="graph" transform="scale(1 1) rotate(0) translate(4 521.84)">
<title>netspeak::invertedindex::UnsortedInput::rehash_</title>
<!-- Node1 -->
<g id="Node000001" class="node">
<title>Node1</title>
<g id="a_Node000001"><a xlink:title=" ">
<polygon fill="#999999" stroke="#666666" points="136,-178.84 0,-178.84 0,-148.84 136,-148.84 136,-178.84"/>
<text text-anchor="start" x="8" y="-166.84" font-family="Helvetica,sans-Serif" font-size="10.00">netspeak::invertedindex</text>
<text text-anchor="middle" x="68" y="-155.84" font-family="Helvetica,sans-Serif" font-size="10.00">::UnsortedInput::rehash_</text>
</a>
</g>
</g>
<!-- Node2 -->
<g id="Node000002" class="node">
<title>Node2</title>
<g id="a_Node000002"><a xlink:href="classnetspeak_1_1invertedindex_1_1UnsortedInput.html#a73407b6fe41e1204f787398082b4555e" target="_top" xlink:title=" ">
<polygon fill="white" stroke="#666666" points="307,-47.84 172,-47.84 172,-17.84 307,-17.84 307,-47.84"/>
<text text-anchor="start" x="180" y="-35.84" font-family="Helvetica,sans-Serif" font-size="10.00">netspeak::invertedindex</text>
<text text-anchor="middle" x="239.5" y="-24.84" font-family="Helvetica,sans-Serif" font-size="10.00">::UnsortedInput::close</text>
</a>
</g>
</g>
<!-- Node1&#45;&gt;Node2 -->
<g id="edge1_Node000001_Node000002" class="edge">
<title>Node1&#45;&gt;Node2</title>
<g id="a_edge1_Node000001_Node000002"><a xlink:title=" ">
<path fill="none" stroke="#63b8ff" d="M85.21,-148.81C105.04,-130.7 139.94,-99.73 172,-75.84 182.33,-68.14 194.02,-60.31 204.68,-53.48"/>
<polygon fill="#63b8ff" stroke="#63b8ff" points="206.76,-56.31 213.34,-48 203.01,-50.39 206.76,-56.31"/>
</a>
</g>
</g>
<!-- Node6 -->
<g id="Node000006" class="node">
<title>Node6</title>
<g id="a_Node000006"><a xlink:href="classnetspeak_1_1invertedindex_1_1IndexStrategy.html#a8ebd3e75416a396d35d9dca2a6dcb399" target="_top" xlink:title=" ">
<polygon fill="white" stroke="#666666" points="307,-248.84 172,-248.84 172,-218.84 307,-218.84 307,-248.84"/>
<text text-anchor="start" x="180" y="-236.84" font-family="Helvetica,sans-Serif" font-size="10.00">netspeak::invertedindex</text>
<text text-anchor="middle" x="239.5" y="-225.84" font-family="Helvetica,sans-Serif" font-size="10.00">::IndexStrategy::config</text>
</a>
</g>
</g>
<!-- Node1&#45;&gt;Node6 -->
<g id="edge6_Node000001_Node000006" class="edge">
<title>Node1&#45;&gt;Node6</title>
<g id="a_edge6_Node000001_Node000006"><a xlink:title=" ">
<path fill="none" stroke="#63b8ff" d="M101.21,-178.96C121.39,-188.24 148.02,-200.17 172,-209.84 176.46,-211.64 181.11,-213.45 185.8,-215.22"/>
<polygon fill="#63b8ff" stroke="#63b8ff" points="184.8,-218.59 195.4,-218.81 187.25,-212.03 184.8,-218.59"/>
</a>
</g>
</g>
<!-- Node7 -->
<g id="Node000007" class="node">
<title>Node7</title>
<g id="a_Node000007"><a xlink:href="namespacenetspeak_1_1util.html#ad2441a387c3a4c47e09c373e9412fad0" target="_top" xlink:title=" ">
<polygon fill="white" stroke="#666666" points="462.5,-447.34 358.5,-447.34 358.5,-428.34 462.5,-428.34 462.5,-447.34"/>
<text text-anchor="middle" x="410.5" y="-435.34" font-family="Helvetica,sans-Serif" font-size="10.00">netspeak::util::log</text>
</a>
</g>
</g>
<!-- Node1&#45;&gt;Node7 -->
<g id="edge7_Node000001_Node000007" class="edge">
<title>Node1&#45;&gt;Node7</title>
<g id="a_edge7_Node000001_Node000007"><a xlink:title=" ">
<path fill="none" stroke="#63b8ff" d="M84.72,-178.87C104.64,-197.75 140.21,-230.94 172,-257.84 245.71,-320.2 265.26,-334.57 343,-391.84 357.33,-402.39 373.77,-413.77 386.72,-422.57"/>
<polygon fill="#63b8ff" stroke="#63b8ff" points="384.81,-425.51 395.06,-428.21 388.73,-419.71 384.81,-425.51"/>
</a>
</g>
</g>
<!-- Node10 -->
<g id="Node000010" class="node">
<title>Node10</title>
<g id="a_Node000010"><a xlink:href="classnetspeak_1_1invertedindex_1_1UnsortedInput.html#aa5262dcbf66a5e0cb722f0bec7775b62" target="_top" xlink:title=" ">
<polygon fill="white" stroke="#666666" points="307,-200.84 172,-200.84 172,-170.84 307,-170.84 307,-200.84"/>
<text text-anchor="start" x="180" y="-188.84" font-family="Helvetica,sans-Serif" font-size="10.00">netspeak::invertedindex</text>
<text text-anchor="middle" x="239.5" y="-177.84" font-family="Helvetica,sans-Serif" font-size="10.00">::UnsortedInput::rehash</text>
</a>
</g>
</g>
<!-- Node1&#45;&gt;Node10 -->
<g id="edge12_Node000001_Node000010" class="edge">
<title>Node1&#45;&gt;Node10</title>
<g id="a_edge12_Node000001_Node000010"><a xlink:title=" ">
<path fill="none" stroke="#63b8ff" d="M136.48,-172.6C144.75,-173.67 153.25,-174.77 161.64,-175.86"/>
<polygon fill="#63b8ff" stroke="#63b8ff" points="161.44,-179.37 171.81,-177.18 162.34,-172.42 161.44,-179.37"/>
</a>
</g>
</g>
<!-- Node22 -->
<g id="Node000022" class="node">
<title>Node22</title>
<g id="a_Node000022"><a xlink:href="classnetspeak_1_1invertedindex_1_1IndexStrategy.html#a85ef2b2302f224b7948ced64148f5289" target="_top" xlink:title=" ">
<polygon fill="white" stroke="#666666" points="307,-114.84 172,-114.84 172,-84.84 307,-84.84 307,-114.84"/>
<text text-anchor="start" x="180" y="-102.84" font-family="Helvetica,sans-Serif" font-size="10.00">netspeak::invertedindex</text>
<text text-anchor="middle" x="239.5" y="-91.84" font-family="Helvetica,sans-Serif" font-size="10.00">::IndexStrategy::stats</text>
</a>
</g>
</g>
<!-- Node1&#45;&gt;Node22 -->
<g id="edge30_Node000001_Node000022" class="edge">
<title>Node1&#45;&gt;Node22</title>
<g id="a_edge30_Node000001_Node000022"><a xlink:title=" ">
<path fill="none" stroke="#63b8ff" d="M108.74,-148.83C132.77,-139.76 163.61,-128.11 189.19,-118.46"/>
<polygon fill="#63b8ff" stroke="#63b8ff" points="190.6,-121.67 198.72,-114.86 188.12,-115.12 190.6,-121.67"/>
</a>
</g>
</g>
<!-- Node23 -->
<g id="Node000023" class="node">
<title>Node23</title>
<g id="a_Node000023"><a xlink:href="namespacenetspeak_1_1util.html#aff2588cdc5eba0270462c499ffc66ffb" target="_top" xlink:title=" ">
<polygon fill="white" stroke="#666666" points="471.5,-59.34 349.5,-59.34 349.5,-40.34 471.5,-40.34 471.5,-59.34"/>
<text text-anchor="middle" x="410.5" y="-47.34" font-family="Helvetica,sans-Serif" font-size="10.00">netspeak::util::tmpdir</text>
</a>
</g>
</g>
<!-- Node1&#45;&gt;Node23 -->
<g id="edge31_Node000001_Node000023" class="edge">
<title>Node1&#45;&gt;Node23</title>
<g id="a_edge31_Node000001_Node000023"><a xlink:title=" ">
<path fill="none" stroke="#63b8ff" d="M136.01,-163.82C185.82,-161.22 254.03,-152.06 307,-123.84 327.53,-112.9 324.54,-100 343,-85.84 353.93,-77.45 367.08,-69.89 378.78,-63.89"/>
<polygon fill="#63b8ff" stroke="#63b8ff" points="380.39,-67 387.79,-59.42 377.28,-60.73 380.39,-67"/>
</a>
</g>
</g>
<!-- Node3 -->
<g id="Node000003" class="node">
<title>Node3</title>
<g id="a_Node000003"><a xlink:href="namespacenetspeak_1_1util.html#a978978e70b474657b12402a3db711ef0" target="_top" xlink:title=" ">
<polygon fill="white" stroke="#666666" points="470,-22.34 351,-22.34 351,-3.34 470,-3.34 470,-22.34"/>
<text text-anchor="middle" x="410.5" y="-10.34" font-family="Helvetica,sans-Serif" font-size="10.00">netspeak::util::fclose</text>
</a>
</g>
</g>
<!-- Node2&#45;&gt;Node3 -->
<g id="edge2_Node000002_Node000003" class="edge">
<title>Node2&#45;&gt;Node3</title>
<g id="a_edge2_Node000002_Node000003"><a xlink:title=" ">
<path fill="none" stroke="#63b8ff" d="M307.29,-24.93C318.31,-23.63 329.75,-22.28 340.82,-20.97"/>
<polygon fill="#63b8ff" stroke="#63b8ff" points="341.33,-24.43 350.85,-19.78 340.51,-17.48 341.33,-24.43"/>
</a>
</g>
</g>
<!-- Node4 -->
<g id="Node000004" class="node">
<title>Node4</title>
<g id="a_Node000004"><a xlink:href="namespacenetspeak_1_1util.html#a4c91ad572508b4021399ac7dddff574d" target="_top" xlink:title=" ">
<polygon fill="white" stroke="#666666" points="791,-186.34 678,-186.34 678,-167.34 791,-167.34 791,-186.34"/>
<text text-anchor="middle" x="734.5" y="-174.34" font-family="Helvetica,sans-Serif" font-size="10.00">netspeak::util::hash</text>
</a>
</g>
</g>
<!-- Node3&#45;&gt;Node4 -->
<g id="edge3_Node000003_Node000004" class="edge">
<title>Node3&#45;&gt;Node4</title>
<g id="a_edge3_Node000003_Node000004"><a xlink:title=" ">
<path fill="none" stroke="#63b8ff" d="M465.97,-3.34C515.5,2.39 588.77,3.3 642,-28.84 690.56,-58.16 717.11,-124.09 727.81,-157.15"/>
<polygon fill="#63b8ff" stroke="#63b8ff" points="724.56,-158.48 730.85,-167 731.25,-156.42 724.56,-158.48"/>
</a>
</g>
</g>
<!-- Node5 -->
<g id="Node000005" class="node">
<title>Node5</title>
<g id="a_Node000005"><a xlink:href="namespacenetspeak_1_1util.html#af94d48fda5f335ddcb461a8237079866" target="_top" xlink:title=" ">
<polygon fill="white" stroke="#666666" points="637.5,-67.84 518.5,-67.84 518.5,-37.84 637.5,-37.84 637.5,-67.84"/>
<text text-anchor="start" x="526.5" y="-55.84" font-family="Helvetica,sans-Serif" font-size="10.00">netspeak::util::signal</text>
<text text-anchor="middle" x="578" y="-44.84" font-family="Helvetica,sans-Serif" font-size="10.00">_error</text>
</a>
</g>
</g>
<!-- Node3&#45;&gt;Node5 -->
<g id="edge4_Node000003_Node000005" class="edge">
<title>Node3&#45;&gt;Node5</title>
<g id="a_edge4_Node000003_Node000005"><a xlink:title=" ">
<path fill="none" stroke="#63b8ff" d="M451.14,-22.42C468.32,-26.57 488.94,-31.55 508.47,-36.27"/>
<polygon fill="#63b8ff" stroke="#63b8ff" points="507.71,-39.69 518.25,-38.64 509.35,-32.89 507.71,-39.69"/>
</a>
</g>
</g>
<!-- Node5&#45;&gt;Node4 -->
<g id="edge5_Node000005_Node000004" class="edge">
<title>Node5&#45;&gt;Node4</title>
<g id="a_edge5_Node000005_Node000004"><a xlink:title=" ">
<path fill="none" stroke="#63b8ff" d="M617.91,-67.98C626.18,-71.95 634.64,-76.61 642,-81.84 673.52,-104.24 703.27,-138.42 719.87,-159.1"/>
<polygon fill="#63b8ff" stroke="#63b8ff" points="717.21,-161.37 726.15,-167.06 722.71,-157.04 717.21,-161.37"/>
</a>
</g>
</g>
<!-- Node7&#45;&gt;Node4 -->
<g id="edge9_Node000007_Node000004" class="edge">
<title>Node7&#45;&gt;Node4</title>
<g id="a_edge9_Node000007_Node000004"><a xlink:title=" ">
<path fill="none" stroke="#63b8ff" d="M437.94,-447.36C484.11,-462.16 580.38,-484.7 642,-440.84 723.38,-382.91 733.04,-247.35 733.71,-196.54"/>
<polygon fill="#63b8ff" stroke="#63b8ff" points="737.21,-196.54 733.73,-186.53 730.21,-196.53 737.21,-196.54"/>
</a>
</g>
</g>
<!-- Node8 -->
<g id="Node000008" class="node">
<title>Node8</title>
<g id="a_Node000008"><a xlink:href="namespacenetspeak_1_1util.html#ab27a22c787271513007af0719b17cef9" target="_top" xlink:title=" ">
<polygon fill="white" stroke="#666666" points="630.5,-517.84 525.5,-517.84 525.5,-487.84 630.5,-487.84 630.5,-517.84"/>
<text text-anchor="start" x="533.5" y="-505.84" font-family="Helvetica,sans-Serif" font-size="10.00">netspeak::util::get</text>
<text text-anchor="middle" x="578" y="-494.84" font-family="Helvetica,sans-Serif" font-size="10.00">_log_mutex</text>
</a>
</g>
</g>
<!-- Node7&#45;&gt;Node8 -->
<g id="edge8_Node000007_Node000008" class="edge">
<title>Node7&#45;&gt;Node8</title>
<g id="a_edge8_Node000007_Node000008"><a xlink:title=" ">
<path fill="none" stroke="#63b8ff" d="M435.92,-447.43C460.34,-457.02 498.55,-472.03 529.05,-484.01"/>
<polygon fill="#63b8ff" stroke="#63b8ff" points="528.07,-487.38 538.66,-487.78 530.63,-480.87 528.07,-487.38"/>
</a>
</g>
</g>
<!-- Node9 -->
<g id="Node000009" class="node">
<title>Node9</title>
<g id="a_Node000009"><a xlink:href="namespacenetspeak_1_1util.html#a93e18aaa529a497b6afdf4b3bd221182" target="_top" xlink:title=" ">
<polygon fill="white" stroke="#666666" points="634,-431.84 522,-431.84 522,-401.84 634,-401.84 634,-431.84"/>
<text text-anchor="start" x="530" y="-419.84" font-family="Helvetica,sans-Serif" font-size="10.00">netspeak::util::print</text>
<text text-anchor="middle" x="578" y="-408.84" font-family="Helvetica,sans-Serif" font-size="10.00">_timestamp_to</text>
</a>
</g>
</g>
<!-- Node7&#45;&gt;Node9 -->
<g id="edge10_Node000007_Node000009" class="edge">
<title>Node7&#45;&gt;Node9</title>
<g id="a_edge10_Node000007_Node000009"><a xlink:title=" ">
<path fill="none" stroke="#63b8ff" d="M462.51,-431.37C478.08,-429.39 495.42,-427.19 511.8,-425.11"/>
<polygon fill="#63b8ff" stroke="#63b8ff" points="512.37,-428.57 521.85,-423.84 511.49,-421.62 512.37,-428.57"/>
</a>
</g>
</g>
<!-- Node9&#45;&gt;Node4 -->
<g id="edge11_Node000009_Node000004" class="edge">
<title>Node9&#45;&gt;Node4</title>
<g id="a_edge11_Node000009_Node000004"><a xlink:title=" ">
<path fill="none" stroke="#63b8ff" d="M630.05,-401.72C634.39,-399.19 638.46,-396.25 642,-392.84 700.01,-336.91 723.01,-238.41 730.46,-196.55"/>
<polygon fill="#63b8ff" stroke="#63b8ff" points="733.94,-196.98 732.14,-186.54 727.03,-195.82 733.94,-196.98"/>
</a>
</g>
</g>
<!-- Node10&#45;&gt;Node3 -->
<g id="edge13_Node000010_Node000003" class="edge">
<title>Node10&#45;&gt;Node3</title>
<g id="a_edge13_Node000010_Node000003"><a xlink:title=" ">
<path fill="none" stroke="#63b8ff" d="M261.15,-170.7C275.62,-159.21 294.53,-142.27 307,-123.84 331.84,-87.13 310.06,-60.49 343,-30.84 344.31,-29.66 345.7,-28.55 347.14,-27.51"/>
<polygon fill="#63b8ff" stroke="#63b8ff" points="349.09,-30.43 355.94,-22.34 345.54,-24.39 349.09,-30.43"/>
</a>
</g>
</g>
<!-- Node11 -->
<g id="Node000011" class="node">
<title>Node11</title>
<g id="a_Node000011"><a xlink:href="namespacenetspeak_1_1util.html#a4acc3d13f8d541f4b65dd44f486403fd" target="_top" xlink:title=" ">
<polygon fill="white" stroke="#666666" points="469,-114.34 352,-114.34 352,-95.34 469,-95.34 469,-114.34"/>
<text text-anchor="middle" x="410.5" y="-102.34" font-family="Helvetica,sans-Serif" font-size="10.00">netspeak::util::fopen</text>
</a>
</g>
</g>
<!-- Node10&#45;&gt;Node11 -->
<g id="edge14_Node000010_Node000011" class="edge">
<title>Node10&#45;&gt;Node11</title>
<g id="a_edge14_Node000010_Node000011"><a xlink:title=" ">
<path fill="none" stroke="#63b8ff" d="M279.64,-170.71C288.84,-166.63 298.45,-161.92 307,-156.84 324.43,-146.48 325.25,-138.62 343,-128.84 350.57,-124.66 359.01,-120.97 367.27,-117.81"/>
<polygon fill="#63b8ff" stroke="#63b8ff" points="368.61,-121.05 376.81,-114.34 366.22,-114.47 368.61,-121.05"/>
</a>
</g>
</g>
<!-- Node12 -->
<g id="Node000012" class="node">
<title>Node12</title>
<g id="a_Node000012"><a xlink:href="namespacenetspeak_1_1util.html#ab36ee03e8b2f69483c3ac0e160da3cf4" target="_top" xlink:title=" ">
<polygon fill="white" stroke="#666666" points="473,-382.34 348,-382.34 348,-363.34 473,-363.34 473,-382.34"/>
<text text-anchor="middle" x="410.5" y="-370.34" font-family="Helvetica,sans-Serif" font-size="10.00">netspeak::util::hash32</text>
</a>
</g>
</g>
<!-- Node10&#45;&gt;Node12 -->
<g id="edge17_Node000010_Node000012" class="edge">
<title>Node10&#45;&gt;Node12</title>
<g id="a_edge17_Node000010_Node000012"><a xlink:title=" ">
<path fill="none" stroke="#63b8ff" d="M296.24,-200.88C300.21,-203.41 303.87,-206.38 307,-209.84 351.22,-258.79 297.14,-306.42 343,-353.84 344.41,-355.29 345.92,-356.64 347.52,-357.89"/>
<polygon fill="#63b8ff" stroke="#63b8ff" points="345.77,-360.93 356.1,-363.31 349.51,-355.01 345.77,-360.93"/>
</a>
</g>
</g>
<!-- Node14 -->
<g id="Node000014" class="node">
<title>Node14</title>
<g id="a_Node000014"><a xlink:href="classnetspeak_1_1invertedindex_1_1Record.html#a8c31f71f3940ea11d85fbfca276f0eca" target="_top" xlink:title=" ">
<polygon fill="white" stroke="#666666" points="478,-200.84 343,-200.84 343,-170.84 478,-170.84 478,-200.84"/>
<text text-anchor="start" x="351" y="-188.84" font-family="Helvetica,sans-Serif" font-size="10.00">netspeak::invertedindex</text>
<text text-anchor="middle" x="410.5" y="-177.84" font-family="Helvetica,sans-Serif" font-size="10.00">::Record::key</text>
</a>
</g>
</g>
<!-- Node10&#45;&gt;Node14 -->
<g id="edge20_Node000010_Node000014" class="edge">
<title>Node10&#45;&gt;Node14</title>
<g id="a_edge20_Node000010_Node000014"><a xlink:title=" ">
<path fill="none" stroke="#63b8ff" d="M307.29,-185.84C315.62,-185.84 324.19,-185.84 332.66,-185.84"/>
<polygon fill="#63b8ff" stroke="#63b8ff" points="332.92,-189.34 342.92,-185.84 332.92,-182.34 332.92,-189.34"/>
</a>
</g>
</g>
<!-- Node15 -->
<g id="Node000015" class="node">
<title>Node15</title>
<g id="a_Node000015"><a xlink:href="namespacenetspeak_1_1util.html#ac58571e9b104c9440b6c4f067e75696f" target="_top" xlink:title=" ">
<polygon fill="white" stroke="#666666" points="466,-344.84 355,-344.84 355,-314.84 466,-314.84 466,-344.84"/>
<text text-anchor="start" x="363" y="-332.84" font-family="Helvetica,sans-Serif" font-size="10.00">netspeak::util::next</text>
<text text-anchor="middle" x="410.5" y="-321.84" font-family="Helvetica,sans-Serif" font-size="10.00">_prime</text>
</a>
</g>
</g>
<!-- Node10&#45;&gt;Node15 -->
<g id="edge21_Node000010_Node000015" class="edge">
<title>Node10&#45;&gt;Node15</title>
<g id="a_edge21_Node000010_Node000015"><a xlink:title=" ">
<path fill="none" stroke="#63b8ff" d="M295.18,-200.89C299.48,-203.43 303.51,-206.39 307,-209.84 339.42,-241.86 310.58,-273.82 343,-305.84 344.09,-306.92 345.24,-307.95 346.42,-308.93"/>
<polygon fill="#63b8ff" stroke="#63b8ff" points="344.62,-311.94 354.82,-314.78 348.62,-306.19 344.62,-311.94"/>
</a>
</g>
</g>
<!-- Node17 -->
<g id="Node000017" class="node">
<title>Node17</title>
<g id="a_Node000017"><a xlink:href="classnetspeak_1_1invertedindex_1_1Record.html#a6661e7a0659dc3fc968d7992fca4732c" target="_top" xlink:title=" ">
<polygon fill="white" stroke="#666666" points="478,-296.84 343,-296.84 343,-266.84 478,-266.84 478,-296.84"/>
<text text-anchor="start" x="351" y="-284.84" font-family="Helvetica,sans-Serif" font-size="10.00">netspeak::invertedindex</text>
<text text-anchor="middle" x="410.5" y="-273.84" font-family="Helvetica,sans-Serif" font-size="10.00">::Record::read</text>
</a>
</g>
</g>
<!-- Node10&#45;&gt;Node17 -->
<g id="edge24_Node000010_Node000017" class="edge">
<title>Node10&#45;&gt;Node17</title>
<g id="a_edge24_Node000010_Node000017"><a xlink:title=" ">
<path fill="none" stroke="#63b8ff" d="M291.82,-200.85C297.19,-203.43 302.36,-206.41 307,-209.84 328.44,-225.7 321.56,-241.98 343,-257.84 345.03,-259.34 347.16,-260.75 349.37,-262.09"/>
<polygon fill="#63b8ff" stroke="#63b8ff" points="347.71,-265.17 358.18,-266.83 351.03,-259.01 347.71,-265.17"/>
</a>
</g>
</g>
<!-- Node19 -->
<g id="Node000019" class="node">
<title>Node19</title>
<g id="a_Node000019"><a xlink:href="namespacenetspeak_1_1util.html#ac8b0cdf55599b33fd7d4013948d48f43" target="_top" xlink:title=" ">
<polygon fill="white" stroke="#666666" points="627.5,-191.84 528.5,-191.84 528.5,-161.84 627.5,-161.84 627.5,-191.84"/>
<text text-anchor="start" x="536.5" y="-179.84" font-family="Helvetica,sans-Serif" font-size="10.00">netspeak::util::to</text>
<text text-anchor="middle" x="578" y="-168.84" font-family="Helvetica,sans-Serif" font-size="10.00">_string</text>
</a>
</g>
</g>
<!-- Node10&#45;&gt;Node19 -->
<g id="edge26_Node000010_Node000019" class="edge">
<title>Node10&#45;&gt;Node19</title>
<g id="a_edge26_Node000010_Node000019"><a xlink:title=" ">
<path fill="none" stroke="#63b8ff" d="M294.35,-170.78C309.92,-167.1 327.02,-163.68 343,-161.84 402.6,-154.95 418.17,-157.33 478,-161.84 491.12,-162.83 505.14,-164.54 518.38,-166.47"/>
<polygon fill="#63b8ff" stroke="#63b8ff" points="517.91,-169.94 528.32,-167.97 518.96,-163.02 517.91,-169.94"/>
</a>
</g>
</g>
<!-- Node20 -->
<g id="Node000020" class="node">
<title>Node20</title>
<g id="a_Node000020"><a xlink:href="classnetspeak_1_1invertedindex_1_1Record.html#a33ee9ec074a6f0f11e862bf9aec78160" target="_top" xlink:title=" ">
<polygon fill="white" stroke="#666666" points="478,-248.84 343,-248.84 343,-218.84 478,-218.84 478,-248.84"/>
<text text-anchor="start" x="351" y="-236.84" font-family="Helvetica,sans-Serif" font-size="10.00">netspeak::invertedindex</text>
<text text-anchor="middle" x="410.5" y="-225.84" font-family="Helvetica,sans-Serif" font-size="10.00">::Record::write</text>
</a>
</g>
</g>
<!-- Node10&#45;&gt;Node20 -->
<g id="edge28_Node000010_Node000020" class="edge">
<title>Node10&#45;&gt;Node20</title>
<g id="a_edge28_Node000010_Node000020"><a xlink:title=" ">
<path fill="none" stroke="#63b8ff" d="M293.51,-200.89C310.34,-205.67 329.12,-211.01 346.58,-215.97"/>
<polygon fill="#63b8ff" stroke="#63b8ff" points="346.1,-219.47 356.68,-218.84 348.02,-212.74 346.1,-219.47"/>
</a>
</g>
</g>
<!-- Node11&#45;&gt;Node4 -->
<g id="edge15_Node000011_Node000004" class="edge">
<title>Node11&#45;&gt;Node4</title>
<g id="a_edge15_Node000011_Node000004"><a xlink:title=" ">
<path fill="none" stroke="#63b8ff" d="M461.12,-114.41C507.91,-123.61 579.93,-138.24 642,-152.84 657.33,-156.44 674.01,-160.71 688.88,-164.64"/>
<polygon fill="#63b8ff" stroke="#63b8ff" points="688.28,-168.11 698.85,-167.3 690.08,-161.34 688.28,-168.11"/>
</a>
</g>
</g>
<!-- Node11&#45;&gt;Node5 -->
<g id="edge16_Node000011_Node000005" class="edge">
<title>Node11&#45;&gt;Node5</title>
<g id="a_edge16_Node000011_Node000005"><a xlink:title=" ">
<path fill="none" stroke="#63b8ff" d="M446.1,-95.26C456.39,-92.33 467.68,-89.03 478,-85.84 492.91,-81.23 508.99,-75.98 523.77,-71.05"/>
<polygon fill="#63b8ff" stroke="#63b8ff" points="524.9,-74.37 533.27,-67.87 522.68,-67.73 524.9,-74.37"/>
</a>
</g>
</g>
<!-- Node13 -->
<g id="Node000013" class="node">
<title>Node13</title>
<g id="a_Node000013"><a xlink:href="namespacenetspeak_1_1util.html#a9b5dd24226608e9fa5cca9d8abd5fd8b" target="_top" xlink:title=" ">
<polygon fill="white" stroke="#666666" points="634.5,-383.84 521.5,-383.84 521.5,-353.84 634.5,-353.84 634.5,-383.84"/>
<text text-anchor="start" x="529.5" y="-371.84" font-family="Helvetica,sans-Serif" font-size="10.00">netspeak::util::hash</text>
<text text-anchor="middle" x="578" y="-360.84" font-family="Helvetica,sans-Serif" font-size="10.00">&lt; uint32_t &gt;</text>
</a>
</g>
</g>
<!-- Node12&#45;&gt;Node13 -->
<g id="edge18_Node000012_Node000013" class="edge">
<title>Node12&#45;&gt;Node13</title>
<g id="a_edge18_Node000012_Node000013"><a xlink:title=" ">
<path fill="none" stroke="#63b8ff" d="M473.13,-371.35C485.48,-371.05 498.5,-370.74 510.99,-370.43"/>
<polygon fill="#63b8ff" stroke="#63b8ff" points="511.42,-373.92 521.33,-370.18 511.25,-366.93 511.42,-373.92"/>
</a>
</g>
</g>
<!-- Node13&#45;&gt;Node4 -->
<g id="edge19_Node000013_Node000004" class="edge">
<title>Node13&#45;&gt;Node4</title>
<g id="a_edge19_Node000013_Node000004"><a xlink:title=" ">
<path fill="none" stroke="#63b8ff" d="M629.08,-353.69C633.72,-351.16 638.12,-348.23 642,-344.84 689.4,-303.43 716.76,-231.28 727.78,-196.58"/>
<polygon fill="#63b8ff" stroke="#63b8ff" points="731.22,-197.3 730.79,-186.72 724.52,-195.26 731.22,-197.3"/>
</a>
</g>
</g>
<!-- Node16 -->
<g id="Node000016" class="node">
<title>Node16</title>
<g id="a_Node000016"><a xlink:href="namespacenetspeak_1_1util.html#af26e5357869d1662720eabb639fbf27e" target="_top" xlink:title=" ">
<polygon fill="white" stroke="#666666" points="627,-335.84 529,-335.84 529,-305.84 627,-305.84 627,-335.84"/>
<text text-anchor="start" x="537" y="-323.84" font-family="Helvetica,sans-Serif" font-size="10.00">netspeak::util::is</text>
<text text-anchor="middle" x="578" y="-312.84" font-family="Helvetica,sans-Serif" font-size="10.00">_prime</text>
</a>
</g>
</g>
<!-- Node15&#45;&gt;Node16 -->
<g id="edge22_Node000015_Node000016" class="edge">
<title>Node15&#45;&gt;Node16</title>
<g id="a_edge22_Node000015_Node000016"><a xlink:title=" ">
<path fill="none" stroke="#63b8ff" d="M466.15,-326.87C482.91,-325.95 501.42,-324.95 518.44,-324.02"/>
<polygon fill="#63b8ff" stroke="#63b8ff" points="519.01,-327.5 528.81,-323.46 518.63,-320.51 519.01,-327.5"/>
</a>
</g>
</g>
<!-- Node16&#45;&gt;Node4 -->
<g id="edge23_Node000016_Node000004" class="edge">
<title>Node16&#45;&gt;Node4</title>
<g id="a_edge23_Node000016_Node000004"><a xlink:title=" ">
<path fill="none" stroke="#63b8ff" d="M627.27,-305.71C632.47,-303.15 637.5,-300.2 642,-296.84 679.59,-268.75 709.37,-221.22 723.87,-195.21"/>
<polygon fill="#63b8ff" stroke="#63b8ff" points="726.97,-196.83 728.66,-186.38 720.82,-193.5 726.97,-196.83"/>
</a>
</g>
</g>
<!-- Node18 -->
<g id="Node000018" class="node">
<title>Node18</title>
<g id="a_Node000018"><a xlink:href="structnetspeak_1_1value_1_1value__traits.html#ae0ea99c085b1395ddf5651ff4604c96a" target="_top" xlink:title=" ">
<polygon fill="white" stroke="#666666" points="642,-287.84 514,-287.84 514,-257.84 642,-257.84 642,-287.84"/>
<text text-anchor="start" x="522" y="-275.84" font-family="Helvetica,sans-Serif" font-size="10.00">netspeak::value::value</text>
<text text-anchor="middle" x="578" y="-264.84" font-family="Helvetica,sans-Serif" font-size="10.00">_traits::read_from</text>
</a>
</g>
</g>
<!-- Node17&#45;&gt;Node18 -->
<g id="edge25_Node000017_Node000018" class="edge">
<title>Node17&#45;&gt;Node18</title>
<g id="a_edge25_Node000017_Node000018"><a xlink:title=" ">
<path fill="none" stroke="#63b8ff" d="M478.34,-278.2C486.69,-277.75 495.27,-277.28 503.72,-276.82"/>
<polygon fill="#63b8ff" stroke="#63b8ff" points="504.14,-280.31 513.93,-276.27 503.76,-273.32 504.14,-280.31"/>
</a>
</g>
</g>
<!-- Node19&#45;&gt;Node4 -->
<g id="edge27_Node000019_Node000004" class="edge">
<title>Node19&#45;&gt;Node4</title>
<g id="a_edge27_Node000019_Node000004"><a xlink:title=" ">
<path fill="none" stroke="#63b8ff" d="M627.88,-176.84C640.57,-176.84 654.43,-176.84 667.82,-176.84"/>
<polygon fill="#63b8ff" stroke="#63b8ff" points="667.94,-180.34 677.94,-176.84 667.94,-173.34 667.94,-180.34"/>
</a>
</g>
</g>
<!-- Node21 -->
<g id="Node000021" class="node">
<title>Node21</title>
<g id="a_Node000021"><a xlink:href="structnetspeak_1_1value_1_1value__traits.html#a1d2c047e82f197702794fb868e80c24b" target="_top" xlink:title=" ">
<polygon fill="white" stroke="#666666" points="642,-239.84 514,-239.84 514,-209.84 642,-209.84 642,-239.84"/>
<text text-anchor="start" x="522" y="-227.84" font-family="Helvetica,sans-Serif" font-size="10.00">netspeak::value::value</text>
<text text-anchor="middle" x="578" y="-216.84" font-family="Helvetica,sans-Serif" font-size="10.00">_traits::write_to</text>
</a>
</g>
</g>
<!-- Node20&#45;&gt;Node21 -->
<g id="edge29_Node000020_Node000021" class="edge">
<title>Node20&#45;&gt;Node21</title>
<g id="a_edge29_Node000020_Node000021"><a xlink:title=" ">
<path fill="none" stroke="#63b8ff" d="M478.34,-230.2C486.69,-229.75 495.27,-229.28 503.72,-228.82"/>
<polygon fill="#63b8ff" stroke="#63b8ff" points="504.14,-232.31 513.93,-228.27 503.76,-225.32 504.14,-232.31"/>
</a>
</g>
</g>
<!-- Node23&#45;&gt;Node4 -->
<g id="edge32_Node000023_Node000004" class="edge">
<title>Node23&#45;&gt;Node4</title>
<g id="a_edge32_Node000023_Node000004"><a xlink:title=" ">
<path fill="none" stroke="#63b8ff" d="M446.26,-59.39C501.48,-74.76 606.6,-104.86 642,-120.84 667.01,-132.13 693.53,-148.97 711.55,-161.23"/>
<polygon fill="#63b8ff" stroke="#63b8ff" points="709.93,-164.37 720.14,-167.18 713.91,-158.61 709.93,-164.37"/>
</a>
</g>
</g>
<!-- Node23&#45;&gt;Node5 -->
<g id="edge33_Node000023_Node000005" class="edge">
<title>Node23&#45;&gt;Node5</title>
<g id="a_edge33_Node000023_Node000005"><a xlink:title=" ">
<path fill="none" stroke="#63b8ff" d="M471.72,-50.93C483.63,-51.15 496.22,-51.37 508.39,-51.59"/>
<polygon fill="#63b8ff" stroke="#63b8ff" points="508.42,-55.1 518.49,-51.78 508.55,-48.1 508.42,-55.1"/>
</a>
</g>
</g>
<!-- Node23&#45;&gt;Node23 -->
<g id="edge34_Node000023_Node000023" class="edge">
<title>Node23&#45;&gt;Node23</title>
<g id="a_edge34_Node000023_Node000023"><a xlink:title=" ">
<path fill="none" stroke="#63b8ff" d="M384.91,-59.42C372.47,-68.07 381,-77.34 410.5,-77.34 429.86,-77.34 440.19,-73.35 441.49,-68.16"/>
<polygon fill="#63b8ff" stroke="#63b8ff" points="444.32,-66.09 436.09,-59.42 438.37,-69.77 444.32,-66.09"/>
</a>
</g>
</g>
</g>
</svg>
