<?xml version="1.0" encoding="UTF-8" standalone="no"?>
<!DOCTYPE svg PUBLIC "-//W3C//DTD SVG 1.1//EN"
 "http://www.w3.org/Graphics/SVG/1.1/DTD/svg11.dtd">
<!-- Generated by graphviz version 2.43.0 (0)
 -->
<!-- Title: netspeak::StarQueryConverter Pages: 1 -->
<svg width="166pt" height="284pt"
 viewBox="0.00 0.00 166.00 284.00" xmlns="http://www.w3.org/2000/svg" xmlns:xlink="http://www.w3.org/1999/xlink">
<g id="graph0" class="graph" transform="scale(1 1) rotate(0) translate(4 280)">
<title>netspeak::StarQueryConverter</title>
<!-- Node1 -->
<g id="Node000001" class="node">
<title>Node1</title>
<g id="a_Node000001"><a xlink:title=" ">
<polygon fill="#999999" stroke="transparent" points="158,-109 0,-109 0,0 158,0 158,-109"/>
<text text-anchor="start" x="5" y="-96.5" font-family="Helvetica,sans-Serif" font-size="10.00">netspeak::StarQueryConverter</text>
<text text-anchor="start" x="77" y="-81.5" font-family="Helvetica,sans-Serif" font-size="10.00"> </text>
<text text-anchor="start" x="12" y="-66.5" font-family="Helvetica,sans-Serif" font-size="10.00">+</text>
<text text-anchor="start" x="33" y="-66.5" font-family="Helvetica,sans-Serif" font-size="10.00">StarQueryConverter()</text>
<text text-anchor="start" x="12" y="-51.5" font-family="Helvetica,sans-Serif" font-size="10.00">+</text>
<text text-anchor="start" x="33" y="-51.5" font-family="Helvetica,sans-Serif" font-size="10.00">StarQueryConverter()</text>
<text text-anchor="start" x="12" y="-36.5" font-family="Helvetica,sans-Serif" font-size="10.00">+</text>
<text text-anchor="start" x="33" y="-36.5" font-family="Helvetica,sans-Serif" font-size="10.00">to_star_queries()</text>
<text text-anchor="start" x="14.5" y="-21.5" font-family="Helvetica,sans-Serif" font-size="10.00">&#45;</text>
<text text-anchor="start" x="33" y="-21.5" font-family="Helvetica,sans-Serif" font-size="10.00">concat()</text>
<text text-anchor="start" x="14.5" y="-6.5" font-family="Helvetica,sans-Serif" font-size="10.00">&#45;</text>
<text text-anchor="start" x="33" y="-6.5" font-family="Helvetica,sans-Serif" font-size="10.00">alternation()</text>
<polygon fill="#666666" stroke="#666666" points="0,-91.5 0,-91.5 158,-91.5 158,-91.5 0,-91.5"/>
<polygon fill="#666666" stroke="#666666" points="0,-76.5 0,-76.5 158,-76.5 158,-76.5 0,-76.5"/>
<polygon fill="none" stroke="#666666" points="0,0 0,-109 158,-109 158,0 0,0"/>
</a>
</g>
</g>
<!-- Node2 -->
<g id="Node000002" class="node">
<title>Node2</title>
<g id="a_Node000002"><a xlink:href="structnetspeak_1_1QueryNormalizer_1_1Options.html" target="_top" xlink:title=" ">
<polygon fill="white" stroke="transparent" points="151.5,-276 6.5,-276 6.5,-156 151.5,-156 151.5,-276"/>
<text text-anchor="start" x="12" y="-264" font-family="Helvetica,sans-Serif" font-size="10.00">netspeak::QueryNormalizer</text>
<text text-anchor="start" x="57.5" y="-253" font-family="Helvetica,sans-Serif" font-size="10.00">::Options</text>
<text text-anchor="start" x="16" y="-238" font-family="Helvetica,sans-Serif" font-size="10.00">+</text>
<text text-anchor="start" x="34" y="-238" font-family="Helvetica,sans-Serif" font-size="10.00">max_norm_queries</text>
<text text-anchor="start" x="16" y="-223" font-family="Helvetica,sans-Serif" font-size="10.00">+</text>
<text text-anchor="start" x="34" y="-223" font-family="Helvetica,sans-Serif" font-size="10.00">min_length</text>
<text text-anchor="start" x="16" y="-208" font-family="Helvetica,sans-Serif" font-size="10.00">+</text>
<text text-anchor="start" x="34" y="-208" font-family="Helvetica,sans-Serif" font-size="10.00">max_length</text>
<text text-anchor="start" x="16" y="-193" font-family="Helvetica,sans-Serif" font-size="10.00">+</text>
<text text-anchor="start" x="34" y="-193" font-family="Helvetica,sans-Serif" font-size="10.00">max_regex_matches</text>
<text text-anchor="start" x="16" y="-178" font-family="Helvetica,sans-Serif" font-size="10.00">+</text>
<text text-anchor="start" x="34" y="-178" font-family="Helvetica,sans-Serif" font-size="10.00">max_regex_time</text>
<text text-anchor="start" x="77.5" y="-163" font-family="Helvetica,sans-Serif" font-size="10.00"> </text>
<polygon fill="#666666" stroke="#666666" points="7,-248 7,-248 152,-248 152,-248 7,-248"/>
<polygon fill="#666666" stroke="#666666" points="7,-173 7,-173 32,-173 32,-173 7,-173"/>
<polygon fill="#666666" stroke="#666666" points="32,-173 32,-173 152,-173 152,-173 32,-173"/>
<polygon fill="none" stroke="#666666" points="6.5,-156 6.5,-276 151.5,-276 151.5,-156 6.5,-156"/>
</a>
</g>
</g>
<!-- Node2&#45;&gt;Node1 -->
<g id="edge1_Node000001_Node000002" class="edge">
<title>Node2&#45;&gt;Node1</title>
<g id="a_edge1_Node000001_Node000002"><a xlink:title=" ">
<path fill="none" stroke="#63b8ff" d="M79,-155.61C79,-144.42 79,-132.66 79,-121.29"/>
<polygon fill="none" stroke="#63b8ff" points="79,-121.15 75,-115.15 79,-109.15 83,-115.15 79,-121.15"/>
</a>
</g>
<text text-anchor="middle" x="103" y="-130" font-family="Helvetica,sans-Serif" font-size="10.00" fill="grey"> +options</text>
</g>
</g>
</svg>
