<?xml version="1.0" encoding="UTF-8" standalone="no"?>
<!DOCTYPE svg PUBLIC "-//W3C//DTD SVG 1.1//EN"
 "http://www.w3.org/Graphics/SVG/1.1/DTD/svg11.dtd">
<!-- Generated by graphviz version 2.43.0 (0)
 -->
<!-- Title: netspeak::invertedindex::Postlist&lt; T &gt; Pages: 1 -->
<svg width="137pt" height="602pt"
 viewBox="0.00 0.00 137.00 602.00" xmlns="http://www.w3.org/2000/svg" xmlns:xlink="http://www.w3.org/1999/xlink">
<g id="graph0" class="graph" transform="scale(1 1) rotate(0) translate(4 598)">
<title>netspeak::invertedindex::Postlist&lt; T &gt;</title>
<!-- Node1 -->
<g id="Node000001" class="node">
<title>Node1</title>
<g id="a_Node000001"><a xlink:title=" ">
<polygon fill="#999999" stroke="transparent" points="129,-150 0,-150 0,0 129,0 129,-150"/>
<text text-anchor="start" x="5.5" y="-138" font-family="Helvetica,sans-Serif" font-size="10.00">netspeak::invertedindex</text>
<text text-anchor="start" x="29.5" y="-127" font-family="Helvetica,sans-Serif" font-size="10.00">::Postlist&lt; T &gt;</text>
<text text-anchor="start" x="63" y="-112" font-family="Helvetica,sans-Serif" font-size="10.00"> </text>
<text text-anchor="start" x="18.5" y="-97" font-family="Helvetica,sans-Serif" font-size="10.00">+</text>
<text text-anchor="start" x="45.5" y="-97" font-family="Helvetica,sans-Serif" font-size="10.00">Postlist()</text>
<text text-anchor="start" x="18.5" y="-82" font-family="Helvetica,sans-Serif" font-size="10.00">+</text>
<text text-anchor="start" x="45.5" y="-82" font-family="Helvetica,sans-Serif" font-size="10.00">Postlist()</text>
<text text-anchor="start" x="18.5" y="-67" font-family="Helvetica,sans-Serif" font-size="10.00">+</text>
<text text-anchor="start" x="45.5" y="-67" font-family="Helvetica,sans-Serif" font-size="10.00">Postlist()</text>
<text text-anchor="start" x="18.5" y="-52" font-family="Helvetica,sans-Serif" font-size="10.00">+</text>
<text text-anchor="start" x="45.5" y="-52" font-family="Helvetica,sans-Serif" font-size="10.00">Postlist()</text>
<text text-anchor="start" x="18.5" y="-37" font-family="Helvetica,sans-Serif" font-size="10.00">+</text>
<text text-anchor="start" x="45.5" y="-37" font-family="Helvetica,sans-Serif" font-size="10.00">Postlist()</text>
<text text-anchor="start" x="18.5" y="-22" font-family="Helvetica,sans-Serif" font-size="10.00">+</text>
<text text-anchor="start" x="45.5" y="-22" font-family="Helvetica,sans-Serif" font-size="10.00">~Postlist()</text>
<text text-anchor="start" x="18.5" y="-7" font-family="Helvetica,sans-Serif" font-size="10.00">+</text>
<text text-anchor="start" x="45.5" y="-7" font-family="Helvetica,sans-Serif" font-size="10.00">next()</text>
<polygon fill="#666666" stroke="#666666" points="0.5,-122 0.5,-122 129.5,-122 129.5,-122 0.5,-122"/>
<polygon fill="#666666" stroke="#666666" points="0.5,-107 0.5,-107 129.5,-107 129.5,-107 0.5,-107"/>
<polygon fill="none" stroke="#666666" points="0,0 0,-150 129,-150 129,0 0,0"/>
</a>
</g>
</g>
<!-- Node2 -->
<g id="Node000002" class="node">
<title>Node2</title>
<g id="a_Node000002"><a xlink:href="classnetspeak_1_1invertedindex_1_1RawPostlist.html" target="_top" xlink:title=" ">
<polygon fill="white" stroke="transparent" points="129,-442 0,-442 0,-187 129,-187 129,-442"/>
<text text-anchor="start" x="5.5" y="-429.5" font-family="Helvetica,sans-Serif" font-size="10.00">netspeak::invertedindex</text>
<text text-anchor="start" x="33" y="-418.5" font-family="Helvetica,sans-Serif" font-size="10.00">::RawPostlist</text>
<text text-anchor="start" x="15.5" y="-403.5" font-family="Helvetica,sans-Serif" font-size="10.00">&#45;</text>
<text text-anchor="start" x="34.5" y="-403.5" font-family="Helvetica,sans-Serif" font-size="10.00">iter_</text>
<text text-anchor="start" x="13" y="-388.5" font-family="Helvetica,sans-Serif" font-size="10.00">+</text>
<text text-anchor="start" x="34.5" y="-388.5" font-family="Helvetica,sans-Serif" font-size="10.00">RawPostlist()</text>
<text text-anchor="start" x="13" y="-373.5" font-family="Helvetica,sans-Serif" font-size="10.00">+</text>
<text text-anchor="start" x="34.5" y="-373.5" font-family="Helvetica,sans-Serif" font-size="10.00">RawPostlist()</text>
<text text-anchor="start" x="13" y="-358.5" font-family="Helvetica,sans-Serif" font-size="10.00">+</text>
<text text-anchor="start" x="34.5" y="-358.5" font-family="Helvetica,sans-Serif" font-size="10.00">RawPostlist()</text>
<text text-anchor="start" x="13" y="-343.5" font-family="Helvetica,sans-Serif" font-size="10.00">+</text>
<text text-anchor="start" x="34.5" y="-343.5" font-family="Helvetica,sans-Serif" font-size="10.00">RawPostlist()</text>
<text text-anchor="start" x="13" y="-328.5" font-family="Helvetica,sans-Serif" font-size="10.00">+</text>
<text text-anchor="start" x="34.5" y="-328.5" font-family="Helvetica,sans-Serif" font-size="10.00">RawPostlist()</text>
<text text-anchor="start" x="13" y="-313.5" font-family="Helvetica,sans-Serif" font-size="10.00">+</text>
<text text-anchor="start" x="34.5" y="-313.5" font-family="Helvetica,sans-Serif" font-size="10.00">~RawPostlist()</text>
<text text-anchor="start" x="13" y="-298.5" font-family="Helvetica,sans-Serif" font-size="10.00">+</text>
<text text-anchor="start" x="34.5" y="-298.5" font-family="Helvetica,sans-Serif" font-size="10.00">byte_size()</text>
<text text-anchor="start" x="13" y="-283.5" font-family="Helvetica,sans-Serif" font-size="10.00">+</text>
<text text-anchor="start" x="34.5" y="-283.5" font-family="Helvetica,sans-Serif" font-size="10.00">empty()</text>
<text text-anchor="start" x="13" y="-268.5" font-family="Helvetica,sans-Serif" font-size="10.00">+</text>
<text text-anchor="start" x="34.5" y="-268.5" font-family="Helvetica,sans-Serif" font-size="10.00">head()</text>
<text text-anchor="start" x="13" y="-253.5" font-family="Helvetica,sans-Serif" font-size="10.00">+</text>
<text text-anchor="start" x="34.5" y="-253.5" font-family="Helvetica,sans-Serif" font-size="10.00">next()</text>
<text text-anchor="start" x="13" y="-238.5" font-family="Helvetica,sans-Serif" font-size="10.00">+</text>
<text text-anchor="start" x="34.5" y="-238.5" font-family="Helvetica,sans-Serif" font-size="10.00">print()</text>
<text text-anchor="start" x="13" y="-223.5" font-family="Helvetica,sans-Serif" font-size="10.00">+</text>
<text text-anchor="start" x="34.5" y="-223.5" font-family="Helvetica,sans-Serif" font-size="10.00">rewind()</text>
<text text-anchor="start" x="13" y="-208.5" font-family="Helvetica,sans-Serif" font-size="10.00">+</text>
<text text-anchor="start" x="34.5" y="-208.5" font-family="Helvetica,sans-Serif" font-size="10.00">size()</text>
<text text-anchor="start" x="13" y="-193.5" font-family="Helvetica,sans-Serif" font-size="10.00">+</text>
<text text-anchor="start" x="34.5" y="-193.5" font-family="Helvetica,sans-Serif" font-size="10.00">write()</text>
<polygon fill="#666666" stroke="#666666" points="0.5,-413.5 0.5,-413.5 129.5,-413.5 129.5,-413.5 0.5,-413.5"/>
<polygon fill="#666666" stroke="#666666" points="0.5,-398.5 0.5,-398.5 32.5,-398.5 32.5,-398.5 0.5,-398.5"/>
<polygon fill="#666666" stroke="#666666" points="32.5,-398.5 32.5,-398.5 129.5,-398.5 129.5,-398.5 32.5,-398.5"/>
<polygon fill="none" stroke="#666666" points="0,-187 0,-442 129,-442 129,-187 0,-187"/>
</a>
</g>
</g>
<!-- Node2&#45;&gt;Node1 -->
<g id="edge1_Node000001_Node000002" class="edge">
<title>Node2&#45;&gt;Node1</title>
<g id="a_edge1_Node000001_Node000002"><a xlink:title=" ">
<path fill="none" stroke="#63b8ff" d="M64.5,-176.55C64.5,-167.55 64.5,-158.69 64.5,-150.19"/>
<polygon fill="none" stroke="#63b8ff" points="61,-176.75 64.5,-186.75 68,-176.75 61,-176.75"/>
</a>
</g>
</g>
<!-- Node3 -->
<g id="Node000003" class="node">
<title>Node3</title>
<g id="a_Node000003"><a xlink:href="structnetspeak_1_1invertedindex_1_1Head.html" target="_top" xlink:title=" ">
<polygon fill="white" stroke="transparent" points="129,-594 0,-594 0,-489 129,-489 129,-594"/>
<text text-anchor="start" x="5.5" y="-581.5" font-family="Helvetica,sans-Serif" font-size="10.00">netspeak::invertedindex</text>
<text text-anchor="start" x="49" y="-570.5" font-family="Helvetica,sans-Serif" font-size="10.00">::Head</text>
<text text-anchor="start" x="16.5" y="-555.5" font-family="Helvetica,sans-Serif" font-size="10.00">+</text>
<text text-anchor="start" x="41.5" y="-555.5" font-family="Helvetica,sans-Serif" font-size="10.00">value_count</text>
<text text-anchor="start" x="16.5" y="-540.5" font-family="Helvetica,sans-Serif" font-size="10.00">+</text>
<text text-anchor="start" x="41.5" y="-540.5" font-family="Helvetica,sans-Serif" font-size="10.00">value_size</text>
<text text-anchor="start" x="16.5" y="-525.5" font-family="Helvetica,sans-Serif" font-size="10.00">+</text>
<text text-anchor="start" x="41.5" y="-525.5" font-family="Helvetica,sans-Serif" font-size="10.00">total_size</text>
<text text-anchor="start" x="16.5" y="-510.5" font-family="Helvetica,sans-Serif" font-size="10.00">+</text>
<text text-anchor="start" x="41.5" y="-510.5" font-family="Helvetica,sans-Serif" font-size="10.00">Head()</text>
<text text-anchor="start" x="16.5" y="-495.5" font-family="Helvetica,sans-Serif" font-size="10.00">+</text>
<text text-anchor="start" x="41.5" y="-495.5" font-family="Helvetica,sans-Serif" font-size="10.00">PrintTo()</text>
<polygon fill="#666666" stroke="#666666" points="0.5,-565.5 0.5,-565.5 129.5,-565.5 129.5,-565.5 0.5,-565.5"/>
<polygon fill="#666666" stroke="#666666" points="0.5,-520.5 0.5,-520.5 39.5,-520.5 39.5,-520.5 0.5,-520.5"/>
<polygon fill="#666666" stroke="#666666" points="39.5,-520.5 39.5,-520.5 129.5,-520.5 129.5,-520.5 39.5,-520.5"/>
<polygon fill="none" stroke="#666666" points="0,-489 0,-594 129,-594 129,-489 0,-489"/>
</a>
</g>
</g>
<!-- Node3&#45;&gt;Node2 -->
<g id="edge2_Node000002_Node000003" class="edge">
<title>Node3&#45;&gt;Node2</title>
<g id="a_edge2_Node000002_Node000003"><a xlink:title=" ">
<path fill="none" stroke="#63b8ff" d="M64.5,-488.88C64.5,-478.27 64.5,-466.63 64.5,-454.56"/>
<polygon fill="none" stroke="#63b8ff" points="64.5,-454.37 60.5,-448.37 64.5,-442.37 68.5,-448.37 64.5,-454.37"/>
</a>
</g>
<text text-anchor="middle" x="83" y="-463" font-family="Helvetica,sans-Serif" font-size="10.00" fill="grey"> &#45;head_</text>
</g>
</g>
</svg>
