<?xml version="1.0" encoding="UTF-8" standalone="no"?>
<!DOCTYPE svg PUBLIC "-//W3C//DTD SVG 1.1//EN"
 "http://www.w3.org/Graphics/SVG/1.1/DTD/svg11.dtd">
<!-- Generated by graphviz version 2.43.0 (0)
 -->
<!-- Title: netspeak::model::SimpleQuery::has_wildcards Pages: 1 -->
<svg width="575pt" height="104pt"
 viewBox="0.00 0.00 575.00 104.00" xmlns="http://www.w3.org/2000/svg" xmlns:xlink="http://www.w3.org/1999/xlink">
<g id="graph0" class="graph" transform="scale(1 1) rotate(0) translate(4 100)">
<title>netspeak::model::SimpleQuery::has_wildcards</title>
<!-- Node1 -->
<g id="Node000001" class="node">
<title>Node1</title>
<g id="a_Node000001"><a xlink:title=" ">
<polygon fill="#999999" stroke="#666666" points="167,-63 0,-63 0,-33 167,-33 167,-63"/>
<text text-anchor="start" x="8" y="-51" font-family="Helvetica,sans-Serif" font-size="10.00">netspeak::model::SimpleQuery</text>
<text text-anchor="middle" x="83.5" y="-40" font-family="Helvetica,sans-Serif" font-size="10.00">::has_wildcards</text>
</a>
</g>
</g>
<!-- Node2 -->
<g id="Node000002" class="node">
<title>Node2</title>
<g id="a_Node000002"><a xlink:href="classnetspeak_1_1model_1_1SimpleQuery.html#aacd9450bbdddc1274a461e21075335db" target="_top" xlink:title=" ">
<polygon fill="white" stroke="#666666" points="370,-96 203,-96 203,-66 370,-66 370,-96"/>
<text text-anchor="start" x="211" y="-84" font-family="Helvetica,sans-Serif" font-size="10.00">netspeak::model::SimpleQuery</text>
<text text-anchor="middle" x="286.5" y="-73" font-family="Helvetica,sans-Serif" font-size="10.00">::root</text>
</a>
</g>
</g>
<!-- Node1&#45;&gt;Node2 -->
<g id="edge1_Node000001_Node000002" class="edge">
<title>Node1&#45;&gt;Node2</title>
<g id="a_edge1_Node000001_Node000002"><a xlink:title=" ">
<path fill="none" stroke="#63b8ff" d="M167.12,-61.57C175.61,-62.96 184.27,-64.38 192.85,-65.79"/>
<polygon fill="#63b8ff" stroke="#63b8ff" points="192.44,-69.27 202.87,-67.43 193.57,-62.36 192.44,-69.27"/>
</a>
</g>
</g>
<!-- Node3 -->
<g id="Node000003" class="node">
<title>Node3</title>
<g id="a_Node000003"><a xlink:href="namespacenetspeak_1_1model.html#a2e3fa40462fc88abd33620b09736dc0e" target="_top" xlink:title=" ">
<polygon fill="white" stroke="#666666" points="348,-30 225,-30 225,0 348,0 348,-30"/>
<text text-anchor="start" x="233" y="-18" font-family="Helvetica,sans-Serif" font-size="10.00">netspeak::model::unit</text>
<text text-anchor="middle" x="286.5" y="-7" font-family="Helvetica,sans-Serif" font-size="10.00">_contains_wildcards</text>
</a>
</g>
</g>
<!-- Node1&#45;&gt;Node3 -->
<g id="edge2_Node000001_Node000003" class="edge">
<title>Node1&#45;&gt;Node3</title>
<g id="a_edge2_Node000001_Node000003"><a xlink:title=" ">
<path fill="none" stroke="#63b8ff" d="M167.12,-34.43C182.93,-31.84 199.36,-29.14 214.75,-26.62"/>
<polygon fill="#63b8ff" stroke="#63b8ff" points="215.4,-30.06 224.7,-24.98 214.27,-23.15 215.4,-30.06"/>
</a>
</g>
</g>
<!-- Node3&#45;&gt;Node3 -->
<g id="edge4_Node000003_Node000003" class="edge">
<title>Node3&#45;&gt;Node3</title>
<g id="a_edge4_Node000003_Node000003"><a xlink:title=" ">
<path fill="none" stroke="#63b8ff" d="M251.34,-30.28C243.53,-39.41 255.25,-48 286.5,-48 305.05,-48 316.72,-44.97 321.51,-40.6"/>
<polygon fill="#63b8ff" stroke="#63b8ff" points="325.01,-40.32 321.66,-30.28 318.01,-40.22 325.01,-40.32"/>
</a>
</g>
</g>
<!-- Node4 -->
<g id="Node000004" class="node">
<title>Node4</title>
<g id="a_Node000004"><a xlink:href="classnetspeak_1_1model_1_1NormQueryUnit____.html#acfa30079a8434df0560b0930cc185d51" target="_top" xlink:title=" ">
<polygon fill="white" stroke="#666666" points="567,-30 406,-30 406,0 567,0 567,-30"/>
<text text-anchor="start" x="414" y="-18" font-family="Helvetica,sans-Serif" font-size="10.00">netspeak::model::NormQuery</text>
<text text-anchor="middle" x="486.5" y="-7" font-family="Helvetica,sans-Serif" font-size="10.00">Unit__::tag</text>
</a>
</g>
</g>
<!-- Node3&#45;&gt;Node4 -->
<g id="edge3_Node000003_Node000004" class="edge">
<title>Node3&#45;&gt;Node4</title>
<g id="a_edge3_Node000003_Node000004"><a xlink:title=" ">
<path fill="none" stroke="#63b8ff" d="M348.25,-15C363.17,-15 379.46,-15 395.44,-15"/>
<polygon fill="#63b8ff" stroke="#63b8ff" points="395.88,-18.5 405.88,-15 395.88,-11.5 395.88,-18.5"/>
</a>
</g>
</g>
</g>
</svg>
