<?xml version="1.0" encoding="UTF-8" standalone="no"?>
<!DOCTYPE svg PUBLIC "-//W3C//DTD SVG 1.1//EN"
 "http://www.w3.org/Graphics/SVG/1.1/DTD/svg11.dtd">
<!-- Generated by graphviz version 2.43.0 (0)
 -->
<!-- Title: netspeak::model::Words Pages: 1 -->
<svg width="136pt" height="222pt"
 viewBox="0.00 0.00 136.00 222.00" xmlns="http://www.w3.org/2000/svg" xmlns:xlink="http://www.w3.org/1999/xlink">
<g id="graph0" class="graph" transform="scale(1 1) rotate(0) translate(4 218)">
<title>netspeak::model::Words</title>
<!-- Node1 -->
<g id="Node000001" class="node">
<title>Node1</title>
<g id="a_Node000001"><a xlink:title=" ">
<polygon fill="#999999" stroke="transparent" points="128,-214 0,-214 0,0 128,0 128,-214"/>
<text text-anchor="start" x="5" y="-202" font-family="Helvetica,sans-Serif" font-size="10.00">netspeak::model::Words</text>
<text text-anchor="start" x="8" y="-187" font-family="Helvetica,sans-Serif" font-size="10.00">&#45;</text>
<text text-anchor="start" x="20" y="-187" font-family="Helvetica,sans-Serif" font-size="10.00">data_</text>
<text text-anchor="start" x="5.5" y="-172" font-family="Helvetica,sans-Serif" font-size="10.00">+</text>
<text text-anchor="start" x="20" y="-172" font-family="Helvetica,sans-Serif" font-size="10.00">Words()</text>
<text text-anchor="start" x="5.5" y="-157" font-family="Helvetica,sans-Serif" font-size="10.00">+</text>
<text text-anchor="start" x="20" y="-157" font-family="Helvetica,sans-Serif" font-size="10.00">data()</text>
<text text-anchor="start" x="5.5" y="-142" font-family="Helvetica,sans-Serif" font-size="10.00">+</text>
<text text-anchor="start" x="20" y="-142" font-family="Helvetica,sans-Serif" font-size="10.00">data()</text>
<text text-anchor="start" x="5.5" y="-127" font-family="Helvetica,sans-Serif" font-size="10.00">+</text>
<text text-anchor="start" x="20" y="-127" font-family="Helvetica,sans-Serif" font-size="10.00">empty()</text>
<text text-anchor="start" x="5.5" y="-112" font-family="Helvetica,sans-Serif" font-size="10.00">+</text>
<text text-anchor="start" x="20" y="-112" font-family="Helvetica,sans-Serif" font-size="10.00">size()</text>
<text text-anchor="start" x="5.5" y="-97" font-family="Helvetica,sans-Serif" font-size="10.00">+</text>
<text text-anchor="start" x="20" y="-97" font-family="Helvetica,sans-Serif" font-size="10.00">begin()</text>
<text text-anchor="start" x="5.5" y="-82" font-family="Helvetica,sans-Serif" font-size="10.00">+</text>
<text text-anchor="start" x="20" y="-82" font-family="Helvetica,sans-Serif" font-size="10.00">end()</text>
<text text-anchor="start" x="5.5" y="-67" font-family="Helvetica,sans-Serif" font-size="10.00">+</text>
<text text-anchor="start" x="20" y="-67" font-family="Helvetica,sans-Serif" font-size="10.00">operator[]()</text>
<text text-anchor="start" x="5.5" y="-52" font-family="Helvetica,sans-Serif" font-size="10.00">+</text>
<text text-anchor="start" x="20" y="-52" font-family="Helvetica,sans-Serif" font-size="10.00">push_back()</text>
<text text-anchor="start" x="5.5" y="-37" font-family="Helvetica,sans-Serif" font-size="10.00">+</text>
<text text-anchor="start" x="20" y="-37" font-family="Helvetica,sans-Serif" font-size="10.00">push_back()</text>
<text text-anchor="start" x="5.5" y="-22" font-family="Helvetica,sans-Serif" font-size="10.00">+</text>
<text text-anchor="start" x="20" y="-22" font-family="Helvetica,sans-Serif" font-size="10.00">is_subsequence_of()</text>
<text text-anchor="start" x="5.5" y="-7" font-family="Helvetica,sans-Serif" font-size="10.00">+</text>
<text text-anchor="start" x="20" y="-7" font-family="Helvetica,sans-Serif" font-size="10.00">is_subsequence_of()</text>
<polygon fill="#666666" stroke="#666666" points="0,-197 0,-197 128,-197 128,-197 0,-197"/>
<polygon fill="#666666" stroke="#666666" points="0,-182 0,-182 18,-182 18,-182 0,-182"/>
<polygon fill="#666666" stroke="#666666" points="18,-182 18,-182 128,-182 128,-182 18,-182"/>
<polygon fill="none" stroke="#666666" points="0,0 0,-214 128,-214 128,0 0,0"/>
</a>
</g>
</g>
</g>
</svg>
