<?xml version="1.0" encoding="UTF-8" standalone="no"?>
<!DOCTYPE svg PUBLIC "-//W3C//DTD SVG 1.1//EN"
 "http://www.w3.org/Graphics/SVG/1.1/DTD/svg11.dtd">
<!-- Generated by graphviz version 2.43.0 (0)
 -->
<!-- Title: netspeak::util::StringIdMap::find_for_word Pages: 1 -->
<svg width="610pt" height="220pt"
 viewBox="0.00 0.00 610.00 220.00" xmlns="http://www.w3.org/2000/svg" xmlns:xlink="http://www.w3.org/1999/xlink">
<g id="graph0" class="graph" transform="scale(1 1) rotate(0) translate(4 216)">
<title>netspeak::util::StringIdMap::find_for_word</title>
<!-- Node1 -->
<g id="Node000001" class="node">
<title>Node1</title>
<g id="a_Node000001"><a xlink:title=" ">
<polygon fill="#999999" stroke="#666666" points="127,-116 0,-116 0,-86 127,-86 127,-116"/>
<text text-anchor="start" x="8" y="-104" font-family="Helvetica,sans-Serif" font-size="10.00">netspeak::util::StringId</text>
<text text-anchor="middle" x="63.5" y="-93" font-family="Helvetica,sans-Serif" font-size="10.00">Map::find_for_word</text>
</a>
</g>
</g>
<!-- Node2 -->
<g id="Node000002" class="node">
<title>Node2</title>
<g id="a_Node000002"><a xlink:href="classnetspeak_1_1util_1_1StringIdMap.html#a1cdc7218c7acf35bd01cc38b2fa9710f" target="_top" xlink:title=" ">
<polygon fill="white" stroke="#666666" points="290,-116 163,-116 163,-86 290,-86 290,-116"/>
<text text-anchor="start" x="171" y="-104" font-family="Helvetica,sans-Serif" font-size="10.00">netspeak::util::StringId</text>
<text text-anchor="middle" x="226.5" y="-93" font-family="Helvetica,sans-Serif" font-size="10.00">Map::find_for_word</text>
</a>
</g>
</g>
<!-- Node1&#45;&gt;Node2 -->
<g id="edge1_Node000001_Node000002" class="edge">
<title>Node1&#45;&gt;Node2</title>
<g id="a_edge1_Node000001_Node000002"><a xlink:title=" ">
<path fill="none" stroke="#63b8ff" d="M127.21,-101C135.65,-101 144.36,-101 152.96,-101"/>
<polygon fill="#63b8ff" stroke="#63b8ff" points="152.96,-104.5 162.96,-101 152.96,-97.5 152.96,-104.5"/>
</a>
</g>
</g>
<!-- Node3 -->
<g id="Node000003" class="node">
<title>Node3</title>
<g id="a_Node000003"><a xlink:href="classnetspeak_1_1util_1_1StringIdMap.html#af817a86e1addec6603c0312c90f333f2" target="_top" xlink:title=" ">
<polygon fill="white" stroke="#666666" points="453,-212 326,-212 326,-182 453,-182 453,-212"/>
<text text-anchor="start" x="334" y="-200" font-family="Helvetica,sans-Serif" font-size="10.00">netspeak::util::StringId</text>
<text text-anchor="middle" x="389.5" y="-189" font-family="Helvetica,sans-Serif" font-size="10.00">Map::begin</text>
</a>
</g>
</g>
<!-- Node2&#45;&gt;Node3 -->
<g id="edge2_Node000002_Node000003" class="edge">
<title>Node2&#45;&gt;Node3</title>
<g id="a_edge2_Node000002_Node000003"><a xlink:title=" ">
<path fill="none" stroke="#63b8ff" d="M245.05,-116.06C264.04,-131.81 295.68,-156.48 326,-173 329.05,-174.66 332.24,-176.27 335.5,-177.8"/>
<polygon fill="#63b8ff" stroke="#63b8ff" points="334.23,-181.06 344.79,-181.93 337.08,-174.67 334.23,-181.06"/>
</a>
</g>
</g>
<!-- Node4 -->
<g id="Node000004" class="node">
<title>Node4</title>
<g id="a_Node000004"><a xlink:href="classnetspeak_1_1util_1_1StringIdMap.html#ae0ffe4e90073fe919e20dee19880e6d9" target="_top" xlink:title=" ">
<polygon fill="white" stroke="#666666" points="453,-164 326,-164 326,-134 453,-134 453,-164"/>
<text text-anchor="start" x="334" y="-152" font-family="Helvetica,sans-Serif" font-size="10.00">netspeak::util::StringId</text>
<text text-anchor="middle" x="389.5" y="-141" font-family="Helvetica,sans-Serif" font-size="10.00">Map::end</text>
</a>
</g>
</g>
<!-- Node2&#45;&gt;Node4 -->
<g id="edge3_Node000002_Node000004" class="edge">
<title>Node2&#45;&gt;Node4</title>
<g id="a_edge3_Node000002_Node000004"><a xlink:title=" ">
<path fill="none" stroke="#63b8ff" d="M278,-116.06C294.03,-120.84 311.92,-126.17 328.55,-131.13"/>
<polygon fill="#63b8ff" stroke="#63b8ff" points="327.6,-134.49 338.18,-134 329.6,-127.79 327.6,-134.49"/>
</a>
</g>
</g>
<!-- Node5 -->
<g id="Node000005" class="node">
<title>Node5</title>
<g id="a_Node000005"><a xlink:href="classnetspeak_1_1util_1_1StringIdMap.html#ace79a2b3cd9e522f5aaa5ce3121e434a" target="_top" xlink:title=" ">
<polygon fill="white" stroke="#666666" points="453,-116 326,-116 326,-86 453,-86 453,-116"/>
<text text-anchor="start" x="334" y="-104" font-family="Helvetica,sans-Serif" font-size="10.00">netspeak::util::StringId</text>
<text text-anchor="middle" x="389.5" y="-93" font-family="Helvetica,sans-Serif" font-size="10.00">Map::get_c_str</text>
</a>
</g>
</g>
<!-- Node2&#45;&gt;Node5 -->
<g id="edge4_Node000002_Node000005" class="edge">
<title>Node2&#45;&gt;Node5</title>
<g id="a_edge4_Node000002_Node000005"><a xlink:title=" ">
<path fill="none" stroke="#63b8ff" d="M290.21,-101C298.65,-101 307.36,-101 315.96,-101"/>
<polygon fill="#63b8ff" stroke="#63b8ff" points="315.96,-104.5 325.96,-101 315.96,-97.5 315.96,-104.5"/>
</a>
</g>
</g>
<!-- Node6 -->
<g id="Node000006" class="node">
<title>Node6</title>
<g id="a_Node000006"><a xlink:href="namespacenetspeak_1_1util.html#a4c91ad572508b4021399ac7dddff574d" target="_top" xlink:title=" ">
<polygon fill="white" stroke="#666666" points="602,-45.5 489,-45.5 489,-26.5 602,-26.5 602,-45.5"/>
<text text-anchor="middle" x="545.5" y="-33.5" font-family="Helvetica,sans-Serif" font-size="10.00">netspeak::util::hash</text>
</a>
</g>
</g>
<!-- Node2&#45;&gt;Node6 -->
<g id="edge5_Node000002_Node000006" class="edge">
<title>Node2&#45;&gt;Node6</title>
<g id="a_edge5_Node000002_Node000006"><a xlink:title=" ">
<path fill="none" stroke="#63b8ff" d="M287.02,-85.95C299.85,-82.86 313.35,-79.73 326,-77 377.28,-65.95 435.7,-55.08 479.22,-47.31"/>
<polygon fill="#63b8ff" stroke="#63b8ff" points="479.88,-50.75 489.11,-45.55 478.65,-43.85 479.88,-50.75"/>
</a>
</g>
</g>
<!-- Node7 -->
<g id="Node000007" class="node">
<title>Node7</title>
<g id="a_Node000007"><a xlink:href="classnetspeak_1_1util_1_1StringIdMap.html#a5be1dcc7f75bdc04d6246d3b6c6d5ed2" target="_top" xlink:title=" ">
<polygon fill="white" stroke="#666666" points="453,-30 326,-30 326,0 453,0 453,-30"/>
<text text-anchor="start" x="334" y="-18" font-family="Helvetica,sans-Serif" font-size="10.00">netspeak::util::StringId</text>
<text text-anchor="middle" x="389.5" y="-7" font-family="Helvetica,sans-Serif" font-size="10.00">Map::str_less_than</text>
</a>
</g>
</g>
<!-- Node2&#45;&gt;Node7 -->
<g id="edge6_Node000002_Node000007" class="edge">
<title>Node2&#45;&gt;Node7</title>
<g id="a_edge6_Node000002_Node000007"><a xlink:title=" ">
<path fill="none" stroke="#63b8ff" d="M252.25,-85.84C271.97,-73.98 300.41,-57.31 326,-44 332.13,-40.81 338.68,-37.58 345.14,-34.5"/>
<polygon fill="#63b8ff" stroke="#63b8ff" points="346.94,-37.52 354.5,-30.1 343.96,-31.19 346.94,-37.52"/>
</a>
</g>
</g>
<!-- Node7&#45;&gt;Node6 -->
<g id="edge7_Node000007_Node000006" class="edge">
<title>Node7&#45;&gt;Node6</title>
<g id="a_edge7_Node000007_Node000006"><a xlink:title=" ">
<path fill="none" stroke="#63b8ff" d="M453.14,-23.54C461.64,-24.7 470.38,-25.89 478.93,-27.06"/>
<polygon fill="#63b8ff" stroke="#63b8ff" points="478.47,-30.53 488.85,-28.41 479.41,-23.59 478.47,-30.53"/>
</a>
</g>
</g>
</g>
</svg>
