<?xml version="1.0" encoding="UTF-8" standalone="no"?>
<!DOCTYPE svg PUBLIC "-//W3C//DTD SVG 1.1//EN"
 "http://www.w3.org/Graphics/SVG/1.1/DTD/svg11.dtd">
<!-- Generated by graphviz version 2.43.0 (0)
 -->
<!-- Title: cli::RegexCommand::run Pages: 1 -->
<svg width="1127pt" height="1101pt"
 viewBox="0.00 0.00 1127.00 1101.00" xmlns="http://www.w3.org/2000/svg" xmlns:xlink="http://www.w3.org/1999/xlink">
<g id="graph0" class="graph" transform="scale(1 1) rotate(0) translate(4 1097)">
<title>cli::RegexCommand::run</title>
<!-- Node1 -->
<g id="Node000001" class="node">
<title>Node1</title>
<g id="a_Node000001"><a xlink:title=" ">
<polygon fill="#999999" stroke="#666666" points="137,-797.5 0,-797.5 0,-778.5 137,-778.5 137,-797.5"/>
<text text-anchor="middle" x="68.5" y="-785.5" font-family="Helvetica,sans-Serif" font-size="10.00">cli::RegexCommand::run</text>
</a>
</g>
</g>
<!-- Node2 -->
<g id="Node000002" class="node">
<title>Node2</title>
<g id="a_Node000002"><a xlink:href="namespacecli.html#adae54133585658a447ba1db3fcd4d232" target="_top" xlink:title=" ">
<polygon fill="white" stroke="#666666" points="282.5,-1044.5 207.5,-1044.5 207.5,-1025.5 282.5,-1025.5 282.5,-1044.5"/>
<text text-anchor="middle" x="245" y="-1032.5" font-family="Helvetica,sans-Serif" font-size="10.00">cli::load_file</text>
</a>
</g>
</g>
<!-- Node1&#45;&gt;Node2 -->
<g id="edge1_Node000001_Node000002" class="edge">
<title>Node1&#45;&gt;Node2</title>
<g id="a_edge1_Node000001_Node000002"><a xlink:title=" ">
<path fill="none" stroke="#63b8ff" d="M76.34,-797.68C102.57,-834.8 196.93,-968.38 231.34,-1017.07"/>
<polygon fill="#63b8ff" stroke="#63b8ff" points="228.58,-1019.24 237.21,-1025.38 234.3,-1015.2 228.58,-1019.24"/>
</a>
</g>
</g>
<!-- Node6 -->
<g id="Node000006" class="node">
<title>Node6</title>
<g id="a_Node000006"><a xlink:href="classnetspeak_1_1regex_1_1DefaultRegexIndex.html#a243db53a6f592cf81dc78ab6abe09bc2" target="_top" xlink:title="Adds all words matching the given query to the given vector.">
<polygon fill="white" stroke="#666666" points="317,-803 173,-803 173,-773 317,-773 317,-803"/>
<text text-anchor="start" x="181" y="-791" font-family="Helvetica,sans-Serif" font-size="10.00">netspeak::regex::Default</text>
<text text-anchor="middle" x="245" y="-780" font-family="Helvetica,sans-Serif" font-size="10.00">RegexIndex::match_query</text>
</a>
</g>
</g>
<!-- Node1&#45;&gt;Node6 -->
<g id="edge5_Node000001_Node000006" class="edge">
<title>Node1&#45;&gt;Node6</title>
<g id="a_edge5_Node000001_Node000006"><a xlink:title=" ">
<path fill="none" stroke="#63b8ff" d="M137.47,-788C145.7,-788 154.17,-788 162.57,-788"/>
<polygon fill="#63b8ff" stroke="#63b8ff" points="162.76,-791.5 172.76,-788 162.76,-784.5 162.76,-791.5"/>
</a>
</g>
</g>
<!-- Node36 -->
<g id="Node000036" class="node">
<title>Node36</title>
<g id="a_Node000036"><a xlink:href="namespacenetspeak_1_1regex.html#a8ce7eefaa185e2118cece76d1099ad04" target="_top" xlink:title="Parses the given Netspeak regex query and returns the equivalent general regex query.">
<polygon fill="white" stroke="#666666" points="508,-255 375,-255 375,-225 508,-225 508,-255"/>
<text text-anchor="start" x="383" y="-243" font-family="Helvetica,sans-Serif" font-size="10.00">netspeak::regex::parse</text>
<text text-anchor="middle" x="441.5" y="-232" font-family="Helvetica,sans-Serif" font-size="10.00">_netspeak_regex_query</text>
</a>
</g>
</g>
<!-- Node1&#45;&gt;Node36 -->
<g id="edge46_Node000001_Node000036" class="edge">
<title>Node1&#45;&gt;Node36</title>
<g id="a_edge46_Node000001_Node000036"><a xlink:title=" ">
<path fill="none" stroke="#63b8ff" d="M75.94,-778.49C118.54,-715.57 360.04,-358.84 424.62,-263.45"/>
<polygon fill="#63b8ff" stroke="#63b8ff" points="427.6,-265.3 430.31,-255.06 421.8,-261.38 427.6,-265.3"/>
</a>
</g>
</g>
<!-- Node3 -->
<g id="Node000003" class="node">
<title>Node3</title>
<g id="a_Node000003"><a xlink:href="namespacenetspeak_1_1error__message.html#a2a36ff57b354714213502a72e6d9d416" target="_top" xlink:title=" ">
<polygon fill="white" stroke="#666666" points="511.5,-1093 371.5,-1093 371.5,-1063 511.5,-1063 511.5,-1093"/>
<text text-anchor="start" x="379.5" y="-1081" font-family="Helvetica,sans-Serif" font-size="10.00">netspeak::error_message</text>
<text text-anchor="middle" x="441.5" y="-1070" font-family="Helvetica,sans-Serif" font-size="10.00">::cannot_open</text>
</a>
</g>
</g>
<!-- Node2&#45;&gt;Node3 -->
<g id="edge2_Node000002_Node000003" class="edge">
<title>Node2&#45;&gt;Node3</title>
<g id="a_edge2_Node000002_Node000003"><a xlink:title=" ">
<path fill="none" stroke="#63b8ff" d="M282.58,-1043.09C305.13,-1048.07 334.91,-1054.66 362.53,-1060.76"/>
<polygon fill="#63b8ff" stroke="#63b8ff" points="362.07,-1064.24 372.59,-1062.99 363.58,-1057.41 362.07,-1064.24"/>
</a>
</g>
</g>
<!-- Node4 -->
<g id="Node000004" class="node">
<title>Node4</title>
<g id="a_Node000004"><a xlink:href="namespacenetspeak_1_1util.html#aad6c5a8708322dd600c23507cc2035f1" target="_top" xlink:title=" ">
<polygon fill="white" stroke="#666666" points="500.5,-1044.5 382.5,-1044.5 382.5,-1025.5 500.5,-1025.5 500.5,-1044.5"/>
<text text-anchor="middle" x="441.5" y="-1032.5" font-family="Helvetica,sans-Serif" font-size="10.00">netspeak::util::check</text>
</a>
</g>
</g>
<!-- Node2&#45;&gt;Node4 -->
<g id="edge3_Node000002_Node000004" class="edge">
<title>Node2&#45;&gt;Node4</title>
<g id="a_edge3_Node000002_Node000004"><a xlink:title=" ">
<path fill="none" stroke="#63b8ff" d="M282.58,-1035C307.79,-1035 342.06,-1035 372.23,-1035"/>
<polygon fill="#63b8ff" stroke="#63b8ff" points="372.29,-1038.5 382.29,-1035 372.29,-1031.5 372.29,-1038.5"/>
</a>
</g>
</g>
<!-- Node5 -->
<g id="Node000005" class="node">
<title>Node5</title>
<g id="a_Node000005"><a xlink:href="namespacenetspeak_1_1util.html#a4c91ad572508b4021399ac7dddff574d" target="_top" xlink:title=" ">
<polygon fill="white" stroke="#666666" points="703,-1047.5 590,-1047.5 590,-1028.5 703,-1028.5 703,-1047.5"/>
<text text-anchor="middle" x="646.5" y="-1035.5" font-family="Helvetica,sans-Serif" font-size="10.00">netspeak::util::hash</text>
</a>
</g>
</g>
<!-- Node4&#45;&gt;Node5 -->
<g id="edge4_Node000004_Node000005" class="edge">
<title>Node4&#45;&gt;Node5</title>
<g id="a_edge4_Node000004_Node000005"><a xlink:title=" ">
<path fill="none" stroke="#63b8ff" d="M500.67,-1035.86C525.28,-1036.22 554.08,-1036.65 579.48,-1037.02"/>
<polygon fill="#63b8ff" stroke="#63b8ff" points="579.72,-1040.53 589.77,-1037.18 579.82,-1033.53 579.72,-1040.53"/>
</a>
</g>
</g>
<!-- Node7 -->
<g id="Node000007" class="node">
<title>Node7</title>
<g id="a_Node000007"><a xlink:href="classnetspeak_1_1regex_1_1RegexQuery.html#a1da7c2171dd8f2aebe9e0053a828ccb4" target="_top" xlink:title="Returns whether this query will accept all non&#45;empty words.">
<polygon fill="white" stroke="#666666" points="522,-1002 361,-1002 361,-972 522,-972 522,-1002"/>
<text text-anchor="start" x="369" y="-990" font-family="Helvetica,sans-Serif" font-size="10.00">netspeak::regex::RegexQuery</text>
<text text-anchor="middle" x="441.5" y="-979" font-family="Helvetica,sans-Serif" font-size="10.00">::accept_all_non_empty</text>
</a>
</g>
</g>
<!-- Node6&#45;&gt;Node7 -->
<g id="edge6_Node000006_Node000007" class="edge">
<title>Node6&#45;&gt;Node7</title>
<g id="a_edge6_Node000006_Node000007"><a xlink:title=" ">
<path fill="none" stroke="#63b8ff" d="M252.68,-803.16C266.97,-834.02 303.27,-904.81 353,-947 362.65,-955.19 374.25,-962.03 385.8,-967.61"/>
<polygon fill="#63b8ff" stroke="#63b8ff" points="384.46,-970.85 395.01,-971.81 387.37,-964.48 384.46,-970.85"/>
</a>
</g>
</g>
<!-- Node9 -->
<g id="Node000009" class="node">
<title>Node9</title>
<g id="a_Node000009"><a xlink:href="classnetspeak_1_1regex_1_1RegexQuery.html#a8f2543e1cc1b4460233f700f547a89f6" target="_top" xlink:title="Returns an upper bound for the number of possible words, the query can match. If UINT32_MAX is return...">
<polygon fill="white" stroke="#666666" points="727,-962 566,-962 566,-932 727,-932 727,-962"/>
<text text-anchor="start" x="574" y="-950" font-family="Helvetica,sans-Serif" font-size="10.00">netspeak::regex::RegexQuery</text>
<text text-anchor="middle" x="646.5" y="-939" font-family="Helvetica,sans-Serif" font-size="10.00">::combinations_upper_bound</text>
</a>
</g>
</g>
<!-- Node6&#45;&gt;Node9 -->
<g id="edge8_Node000006_Node000009" class="edge">
<title>Node6&#45;&gt;Node9</title>
<g id="a_edge8_Node000006_Node000009"><a xlink:title=" ">
<path fill="none" stroke="#63b8ff" d="M255.78,-803.02C272.51,-827.36 309.11,-875 353,-898 415.62,-930.81 495.22,-942.52 555.56,-946.33"/>
<polygon fill="#63b8ff" stroke="#63b8ff" points="555.65,-949.84 565.83,-946.91 556.05,-942.85 555.65,-949.84"/>
</a>
</g>
</g>
<!-- Node10 -->
<g id="Node000010" class="node">
<title>Node10</title>
<g id="a_Node000010"><a xlink:href="classnetspeak_1_1regex_1_1DefaultRegexIndex.html#a5c0cbc299628d069cfd1d800d74875d3" target="_top" xlink:title=" ">
<polygon fill="white" stroke="#666666" points="513.5,-808.5 369.5,-808.5 369.5,-767.5 513.5,-767.5 513.5,-808.5"/>
<text text-anchor="start" x="377.5" y="-796.5" font-family="Helvetica,sans-Serif" font-size="10.00">netspeak::regex::Default</text>
<text text-anchor="start" x="377.5" y="-785.5" font-family="Helvetica,sans-Serif" font-size="10.00">RegexIndex::match_query</text>
<text text-anchor="middle" x="441.5" y="-774.5" font-family="Helvetica,sans-Serif" font-size="10.00">_hash_lookup</text>
</a>
</g>
</g>
<!-- Node6&#45;&gt;Node10 -->
<g id="edge9_Node000006_Node000010" class="edge">
<title>Node6&#45;&gt;Node10</title>
<g id="a_edge9_Node000006_Node000010"><a xlink:title=" ">
<path fill="none" stroke="#63b8ff" d="M317.04,-788C330.75,-788 345.22,-788 359.22,-788"/>
<polygon fill="#63b8ff" stroke="#63b8ff" points="359.32,-791.5 369.32,-788 359.32,-784.5 359.32,-791.5"/>
</a>
</g>
</g>
<!-- Node16 -->
<g id="Node000016" class="node">
<title>Node16</title>
<g id="a_Node000016"><a xlink:href="classnetspeak_1_1regex_1_1DefaultRegexIndex.html#a6670d85281af35910d5d00d8997f7f37" target="_top" xlink:title="Returns the word at the given index in the word list.">
<polygon fill="white" stroke="#666666" points="722.5,-704 570.5,-704 570.5,-674 722.5,-674 722.5,-704"/>
<text text-anchor="start" x="578.5" y="-692" font-family="Helvetica,sans-Serif" font-size="10.00">netspeak::regex::Default</text>
<text text-anchor="middle" x="646.5" y="-681" font-family="Helvetica,sans-Serif" font-size="10.00">RegexIndex::word_at_index</text>
</a>
</g>
</g>
<!-- Node6&#45;&gt;Node16 -->
<g id="edge45_Node000006_Node000016" class="edge">
<title>Node6&#45;&gt;Node16</title>
<g id="a_edge45_Node000006_Node000016"><a xlink:title=" ">
<path fill="none" stroke="#63b8ff" d="M300.35,-772.93C317.2,-768.35 335.84,-763.38 353,-759 426.65,-740.21 511.13,-720.15 570.3,-706.35"/>
<polygon fill="#63b8ff" stroke="#63b8ff" points="571.36,-709.69 580.31,-704.02 569.77,-702.88 571.36,-709.69"/>
</a>
</g>
</g>
<!-- Node18 -->
<g id="Node000018" class="node">
<title>Node18</title>
<g id="a_Node000018"><a xlink:href="classnetspeak_1_1regex_1_1DefaultRegexIndex.html#aa6875223b64c6979bd2135023f71f2ce" target="_top" xlink:title=" ">
<polygon fill="white" stroke="#666666" points="530,-623 353,-623 353,-593 530,-593 530,-623"/>
<text text-anchor="start" x="361" y="-611" font-family="Helvetica,sans-Serif" font-size="10.00">netspeak::regex::Default</text>
<text text-anchor="middle" x="441.5" y="-600" font-family="Helvetica,sans-Serif" font-size="10.00">RegexIndex::match_query_regex</text>
</a>
</g>
</g>
<!-- Node6&#45;&gt;Node18 -->
<g id="edge18_Node000006_Node000018" class="edge">
<title>Node6&#45;&gt;Node18</title>
<g id="a_edge18_Node000006_Node000018"><a xlink:title=" ">
<path fill="none" stroke="#63b8ff" d="M262.25,-772.96C296.57,-741.2 376.59,-667.14 416.7,-630.03"/>
<polygon fill="#63b8ff" stroke="#63b8ff" points="419.2,-632.48 424.16,-623.12 414.44,-627.34 419.2,-632.48"/>
</a>
</g>
</g>
<!-- Node24 -->
<g id="Node000024" class="node">
<title>Node24</title>
<g id="a_Node000024"><a xlink:href="classnetspeak_1_1regex_1_1DefaultRegexIndex.html#a445e83616a9f062d4f44db53017f3e9c" target="_top" xlink:title="Optimizes the given query considering the properties of the vocabulary of the index.">
<polygon fill="white" stroke="#666666" points="519.5,-468 363.5,-468 363.5,-438 519.5,-438 519.5,-468"/>
<text text-anchor="start" x="371.5" y="-456" font-family="Helvetica,sans-Serif" font-size="10.00">netspeak::regex::Default</text>
<text text-anchor="middle" x="441.5" y="-445" font-family="Helvetica,sans-Serif" font-size="10.00">RegexIndex::optimize_query</text>
</a>
</g>
</g>
<!-- Node6&#45;&gt;Node24 -->
<g id="edge27_Node000006_Node000024" class="edge">
<title>Node6&#45;&gt;Node24</title>
<g id="a_edge27_Node000006_Node000024"><a xlink:title=" ">
<path fill="none" stroke="#63b8ff" d="M253.26,-772.86C269.82,-738.6 312.15,-652.77 353,-584 375.86,-545.51 405.27,-502.68 423.49,-476.8"/>
<polygon fill="#63b8ff" stroke="#63b8ff" points="426.53,-478.57 429.45,-468.38 420.81,-474.53 426.53,-478.57"/>
</a>
</g>
</g>
<!-- Node35 -->
<g id="Node000035" class="node">
<title>Node35</title>
<g id="a_Node000035"><a xlink:href="classnetspeak_1_1regex_1_1RegexQuery.html#a2f4d2e52bef616730e1395063c3e82ed" target="_top" xlink:title="Returns whether this query will reject all words.">
<polygon fill="white" stroke="#666666" points="522,-889 361,-889 361,-859 522,-859 522,-889"/>
<text text-anchor="start" x="369" y="-877" font-family="Helvetica,sans-Serif" font-size="10.00">netspeak::regex::RegexQuery</text>
<text text-anchor="middle" x="441.5" y="-866" font-family="Helvetica,sans-Serif" font-size="10.00">::reject_all</text>
</a>
</g>
</g>
<!-- Node6&#45;&gt;Node35 -->
<g id="edge43_Node000006_Node000035" class="edge">
<title>Node6&#45;&gt;Node35</title>
<g id="a_edge43_Node000006_Node000035"><a xlink:title=" ">
<path fill="none" stroke="#63b8ff" d="M280.32,-803.18C312.82,-817.55 361.75,-839.18 396.97,-854.75"/>
<polygon fill="#63b8ff" stroke="#63b8ff" points="395.96,-858.13 406.52,-858.97 398.79,-851.73 395.96,-858.13"/>
</a>
</g>
</g>
<!-- Node8 -->
<g id="Node000008" class="node">
<title>Node8</title>
<g id="a_Node000008"><a xlink:href="classnetspeak_1_1regex_1_1RegexQuery.html#aa0a5cc38ccc6098fa3a77bcf9cb79edd" target="_top" xlink:title="Returns whether this query will accept all words.">
<polygon fill="white" stroke="#666666" points="727,-1010 566,-1010 566,-980 727,-980 727,-1010"/>
<text text-anchor="start" x="574" y="-998" font-family="Helvetica,sans-Serif" font-size="10.00">netspeak::regex::RegexQuery</text>
<text text-anchor="middle" x="646.5" y="-987" font-family="Helvetica,sans-Serif" font-size="10.00">::accept_all</text>
</a>
</g>
</g>
<!-- Node7&#45;&gt;Node8 -->
<g id="edge7_Node000007_Node000008" class="edge">
<title>Node7&#45;&gt;Node8</title>
<g id="a_edge7_Node000007_Node000008"><a xlink:title=" ">
<path fill="none" stroke="#63b8ff" d="M522.15,-990.14C533.12,-990.57 544.45,-991.02 555.59,-991.46"/>
<polygon fill="#63b8ff" stroke="#63b8ff" points="555.62,-994.96 565.75,-991.86 555.89,-987.97 555.62,-994.96"/>
</a>
</g>
</g>
<!-- Node11 -->
<g id="Node000011" class="node">
<title>Node11</title>
<g id="a_Node000011"><a xlink:href="classnetspeak_1_1regex_1_1DefaultRegexIndex.html#aebcc95cc799f637dbdca131be9380c8c" target="_top" xlink:title="Returns the index of the given word or UINT32_MAX if the given word is not a word of the vocabulary.">
<polygon fill="white" stroke="#666666" points="715,-914 578,-914 578,-884 715,-884 715,-914"/>
<text text-anchor="start" x="586" y="-902" font-family="Helvetica,sans-Serif" font-size="10.00">netspeak::regex::Default</text>
<text text-anchor="middle" x="646.5" y="-891" font-family="Helvetica,sans-Serif" font-size="10.00">RegexIndex::find_word</text>
</a>
</g>
</g>
<!-- Node10&#45;&gt;Node11 -->
<g id="edge10_Node000010_Node000011" class="edge">
<title>Node10&#45;&gt;Node11</title>
<g id="a_edge10_Node000010_Node000011"><a xlink:title=" ">
<path fill="none" stroke="#63b8ff" d="M471.61,-808.68C507.3,-834.01 563.44,-873.75 566,-875 569.97,-876.94 574.13,-878.75 578.38,-880.45"/>
<polygon fill="#63b8ff" stroke="#63b8ff" points="577.18,-883.74 587.77,-883.97 579.64,-877.18 577.18,-883.74"/>
</a>
</g>
</g>
<!-- Node13 -->
<g id="Node000013" class="node">
<title>Node13</title>
<g id="a_Node000013"><a xlink:href="namespacenetspeak_1_1regex.html#ace4835f8060dcf407b0f4bdf422de2b2" target="_top" xlink:title=" ">
<polygon fill="white" stroke="#666666" points="709.5,-866 583.5,-866 583.5,-836 709.5,-836 709.5,-866"/>
<text text-anchor="start" x="591.5" y="-854" font-family="Helvetica,sans-Serif" font-size="10.00">netspeak::regex::finite</text>
<text text-anchor="middle" x="646.5" y="-843" font-family="Helvetica,sans-Serif" font-size="10.00">_query_to_utf8</text>
</a>
</g>
</g>
<!-- Node10&#45;&gt;Node13 -->
<g id="edge12_Node000010_Node000013" class="edge">
<title>Node10&#45;&gt;Node13</title>
<g id="a_edge12_Node000010_Node000013"><a xlink:title=" ">
<path fill="none" stroke="#63b8ff" d="M507.19,-808.6C526.13,-814.58 546.88,-821.1 566,-827 572.39,-828.97 579.07,-831.02 585.73,-833.04"/>
<polygon fill="#63b8ff" stroke="#63b8ff" points="584.84,-836.43 595.43,-835.99 586.88,-829.74 584.84,-836.43"/>
</a>
</g>
</g>
<!-- Node15 -->
<g id="Node000015" class="node">
<title>Node15</title>
<g id="a_Node000015"><a xlink:href="namespacenetspeak_1_1regex.html#a51168d153e77973b3bc1329b2ab4420c" target="_top" xlink:title=" ">
<polygon fill="white" stroke="#666666" points="718,-800 575,-800 575,-770 718,-770 718,-800"/>
<text text-anchor="start" x="583" y="-788" font-family="Helvetica,sans-Serif" font-size="10.00">netspeak::regex::match</text>
<text text-anchor="middle" x="646.5" y="-777" font-family="Helvetica,sans-Serif" font-size="10.00">_query_hash_lookup_impl</text>
</a>
</g>
</g>
<!-- Node10&#45;&gt;Node15 -->
<g id="edge14_Node000010_Node000015" class="edge">
<title>Node10&#45;&gt;Node15</title>
<g id="a_edge14_Node000010_Node000015"><a xlink:title=" ">
<path fill="none" stroke="#63b8ff" d="M513.78,-786.95C530.15,-786.7 547.67,-786.45 564.42,-786.2"/>
<polygon fill="#63b8ff" stroke="#63b8ff" points="564.78,-789.69 574.73,-786.05 564.68,-782.69 564.78,-789.69"/>
</a>
</g>
</g>
<!-- Node10&#45;&gt;Node16 -->
<g id="edge16_Node000010_Node000016" class="edge">
<title>Node10&#45;&gt;Node16</title>
<g id="a_edge16_Node000010_Node000016"><a xlink:title=" ">
<path fill="none" stroke="#63b8ff" d="M471.79,-767.29C496.11,-750.83 532.09,-728.12 566,-713 570.38,-711.05 574.96,-709.2 579.62,-707.46"/>
<polygon fill="#63b8ff" stroke="#63b8ff" points="581,-710.68 589.25,-704.04 578.66,-704.08 581,-710.68"/>
</a>
</g>
</g>
<!-- Node12 -->
<g id="Node000012" class="node">
<title>Node12</title>
<g id="a_Node000012"><a xlink:href="namespacenetspeak_1_1regex.html#a6f4fc36a36d53c9404c8c58994db4f16" target="_top" xlink:title=" ">
<polygon fill="white" stroke="#666666" points="924,-908.5 770,-908.5 770,-889.5 924,-889.5 924,-908.5"/>
<text text-anchor="middle" x="847" y="-896.5" font-family="Helvetica,sans-Serif" font-size="10.00">netspeak::regex::hash_word</text>
</a>
</g>
</g>
<!-- Node11&#45;&gt;Node12 -->
<g id="edge11_Node000011_Node000012" class="edge">
<title>Node11&#45;&gt;Node12</title>
<g id="a_edge11_Node000011_Node000012"><a xlink:title=" ">
<path fill="none" stroke="#63b8ff" d="M715.26,-899C729.49,-899 744.69,-899 759.51,-899"/>
<polygon fill="#63b8ff" stroke="#63b8ff" points="759.69,-902.5 769.68,-899 759.68,-895.5 759.69,-902.5"/>
</a>
</g>
</g>
<!-- Node14 -->
<g id="Node000014" class="node">
<title>Node14</title>
<g id="a_Node000014"><a xlink:href="classnetspeak_1_1regex_1_1RegexQuery.html#ace5fe64453987c6f605300a8aa5d4ee4" target="_top" xlink:title="Get the underlying units.">
<polygon fill="white" stroke="#666666" points="927.5,-776 766.5,-776 766.5,-746 927.5,-746 927.5,-776"/>
<text text-anchor="start" x="774.5" y="-764" font-family="Helvetica,sans-Serif" font-size="10.00">netspeak::regex::RegexQuery</text>
<text text-anchor="middle" x="847" y="-753" font-family="Helvetica,sans-Serif" font-size="10.00">::get_units</text>
</a>
</g>
</g>
<!-- Node13&#45;&gt;Node14 -->
<g id="edge13_Node000013_Node000014" class="edge">
<title>Node13&#45;&gt;Node14</title>
<g id="a_edge13_Node000013_Node000014"><a xlink:title=" ">
<path fill="none" stroke="#63b8ff" d="M702.78,-835.98C711,-833.27 719.3,-830.25 727,-827 757.35,-814.17 789.96,-795.73 813.35,-781.6"/>
<polygon fill="#63b8ff" stroke="#63b8ff" points="815.44,-784.42 822.15,-776.22 811.79,-778.45 815.44,-784.42"/>
</a>
</g>
</g>
<!-- Node15&#45;&gt;Node15 -->
<g id="edge15_Node000015_Node000015" class="edge">
<title>Node15&#45;&gt;Node15</title>
<g id="a_edge15_Node000015_Node000015"><a xlink:title=" ">
<path fill="none" stroke="#63b8ff" d="M611.34,-800.28C603.53,-809.41 615.25,-818 646.5,-818 665.05,-818 676.72,-814.97 681.51,-810.6"/>
<polygon fill="#63b8ff" stroke="#63b8ff" points="685.01,-810.32 681.66,-800.28 678.01,-810.22 685.01,-810.32"/>
</a>
</g>
</g>
<!-- Node17 -->
<g id="Node000017" class="node">
<title>Node17</title>
<g id="a_Node000017"><a xlink:href="classnetspeak_1_1regex_1_1DefaultRegexIndex.html#a54963c57bab5c92e0044c351b69da357" target="_top" xlink:title="Returns the word string from the given entry.">
<polygon fill="white" stroke="#666666" points="929,-651 765,-651 765,-621 929,-621 929,-651"/>
<text text-anchor="start" x="773" y="-639" font-family="Helvetica,sans-Serif" font-size="10.00">netspeak::regex::Default</text>
<text text-anchor="middle" x="847" y="-628" font-family="Helvetica,sans-Serif" font-size="10.00">RegexIndex::word_from_entry</text>
</a>
</g>
</g>
<!-- Node16&#45;&gt;Node17 -->
<g id="edge17_Node000016_Node000017" class="edge">
<title>Node16&#45;&gt;Node17</title>
<g id="a_edge17_Node000016_Node000017"><a xlink:title=" ">
<path fill="none" stroke="#63b8ff" d="M703.85,-673.95C727.42,-667.66 755,-660.3 779.55,-653.74"/>
<polygon fill="#63b8ff" stroke="#63b8ff" points="780.75,-657.04 789.51,-651.08 778.94,-650.28 780.75,-657.04"/>
</a>
</g>
</g>
<!-- Node18&#45;&gt;Node17 -->
<g id="edge26_Node000018_Node000017" class="edge">
<title>Node18&#45;&gt;Node17</title>
<g id="a_edge26_Node000018_Node000017"><a xlink:title=" ">
<path fill="none" stroke="#63b8ff" d="M530.05,-614.08C596.41,-618.68 687.35,-624.99 754.63,-629.66"/>
<polygon fill="#63b8ff" stroke="#63b8ff" points="754.58,-633.16 764.8,-630.37 755.06,-626.18 754.58,-633.16"/>
</a>
</g>
</g>
<!-- Node19 -->
<g id="Node000019" class="node">
<title>Node19</title>
<g id="a_Node000019"><a xlink:href="namespacenetspeak_1_1regex.html#afac3221e2a2d1a5db57380f4b12386c9" target="_top" xlink:title=" ">
<polygon fill="white" stroke="#666666" points="712.5,-752 580.5,-752 580.5,-722 712.5,-722 712.5,-752"/>
<text text-anchor="start" x="588.5" y="-740" font-family="Helvetica,sans-Serif" font-size="10.00">netspeak::regex::create</text>
<text text-anchor="middle" x="646.5" y="-729" font-family="Helvetica,sans-Serif" font-size="10.00">_regex_pattern</text>
</a>
</g>
</g>
<!-- Node18&#45;&gt;Node19 -->
<g id="edge19_Node000018_Node000019" class="edge">
<title>Node18&#45;&gt;Node19</title>
<g id="a_edge19_Node000018_Node000019"><a xlink:title=" ">
<path fill="none" stroke="#63b8ff" d="M456.22,-623.11C477.58,-645.76 521.02,-688.49 566,-713 569.3,-714.8 572.74,-716.47 576.28,-718.04"/>
<polygon fill="#63b8ff" stroke="#63b8ff" points="575.21,-721.39 585.79,-721.93 577.86,-714.91 575.21,-721.39"/>
</a>
</g>
</g>
<!-- Node21 -->
<g id="Node000021" class="node">
<title>Node21</title>
<g id="a_Node000021"><a xlink:href="classnetspeak_1_1regex_1_1RegexQuery.html#a027a4b5415fce264c86bdd7c038ca46b" target="_top" xlink:title="Returns the maximum number of UTF8 bytes a word can to have to match this query.">
<polygon fill="white" stroke="#666666" points="727,-580 566,-580 566,-550 727,-550 727,-580"/>
<text text-anchor="start" x="574" y="-568" font-family="Helvetica,sans-Serif" font-size="10.00">netspeak::regex::RegexQuery</text>
<text text-anchor="middle" x="646.5" y="-557" font-family="Helvetica,sans-Serif" font-size="10.00">::max_utf8_input_length</text>
</a>
</g>
</g>
<!-- Node18&#45;&gt;Node21 -->
<g id="edge22_Node000018_Node000021" class="edge">
<title>Node18&#45;&gt;Node21</title>
<g id="a_edge22_Node000018_Node000021"><a xlink:title=" ">
<path fill="none" stroke="#63b8ff" d="M513.5,-592.96C530.03,-589.46 547.76,-585.7 564.68,-582.12"/>
<polygon fill="#63b8ff" stroke="#63b8ff" points="565.48,-585.53 574.54,-580.03 564.03,-578.68 565.48,-585.53"/>
</a>
</g>
</g>
<!-- Node23 -->
<g id="Node000023" class="node">
<title>Node23</title>
<g id="a_Node000023"><a xlink:href="classnetspeak_1_1regex_1_1RegexQuery.html#a634da32c1d91b1d13ffcb3bc0edf259c" target="_top" xlink:title="Returns the minimum number of UTF8 bytes a word has to have to match this query.">
<polygon fill="white" stroke="#666666" points="727,-532 566,-532 566,-502 727,-502 727,-532"/>
<text text-anchor="start" x="574" y="-520" font-family="Helvetica,sans-Serif" font-size="10.00">netspeak::regex::RegexQuery</text>
<text text-anchor="middle" x="646.5" y="-509" font-family="Helvetica,sans-Serif" font-size="10.00">::min_utf8_input_length</text>
</a>
</g>
</g>
<!-- Node18&#45;&gt;Node23 -->
<g id="edge24_Node000018_Node000023" class="edge">
<title>Node18&#45;&gt;Node23</title>
<g id="a_edge24_Node000018_Node000023"><a xlink:title=" ">
<path fill="none" stroke="#63b8ff" d="M466.84,-592.86C491.23,-578.16 530.2,-555.93 566,-541 570.7,-539.04 575.62,-537.16 580.61,-535.38"/>
<polygon fill="#63b8ff" stroke="#63b8ff" points="581.92,-538.63 590.24,-532.09 579.65,-532.01 581.92,-538.63"/>
</a>
</g>
</g>
<!-- Node19&#45;&gt;Node14 -->
<g id="edge20_Node000019_Node000014" class="edge">
<title>Node19&#45;&gt;Node14</title>
<g id="a_edge20_Node000019_Node000014"><a xlink:title=" ">
<path fill="none" stroke="#63b8ff" d="M712.77,-744.89C726.73,-746.58 741.7,-748.39 756.39,-750.17"/>
<polygon fill="#63b8ff" stroke="#63b8ff" points="756.15,-753.66 766.5,-751.39 756.99,-746.71 756.15,-753.66"/>
</a>
</g>
</g>
<!-- Node20 -->
<g id="Node000020" class="node">
<title>Node20</title>
<g id="a_Node000020"><a xlink:href="namespacenetspeak_1_1regex.html#a2012930d0c5c43d0ad661a49adceb26b" target="_top" xlink:title=" ">
<polygon fill="white" stroke="#666666" points="911.5,-728 782.5,-728 782.5,-698 911.5,-698 911.5,-728"/>
<text text-anchor="start" x="790.5" y="-716" font-family="Helvetica,sans-Serif" font-size="10.00">netspeak::regex::regex</text>
<text text-anchor="middle" x="847" y="-705" font-family="Helvetica,sans-Serif" font-size="10.00">_pattern_append_char</text>
</a>
</g>
</g>
<!-- Node19&#45;&gt;Node20 -->
<g id="edge21_Node000019_Node000020" class="edge">
<title>Node19&#45;&gt;Node20</title>
<g id="a_edge21_Node000019_Node000020"><a xlink:title=" ">
<path fill="none" stroke="#63b8ff" d="M712.77,-729.11C731.82,-726.8 752.78,-724.27 772.31,-721.91"/>
<polygon fill="#63b8ff" stroke="#63b8ff" points="772.87,-725.37 782.38,-720.69 772.03,-718.42 772.87,-725.37"/>
</a>
</g>
</g>
<!-- Node22 -->
<g id="Node000022" class="node">
<title>Node22</title>
<g id="a_Node000022"><a xlink:href="namespacenetspeak_1_1regex.html#a6e50f7971c5d223b3dfc4ed586fd45d6" target="_top" xlink:title=" ">
<polygon fill="white" stroke="#666666" points="916.5,-556 777.5,-556 777.5,-526 916.5,-526 916.5,-556"/>
<text text-anchor="start" x="785.5" y="-544" font-family="Helvetica,sans-Serif" font-size="10.00">netspeak::regex::number</text>
<text text-anchor="middle" x="847" y="-533" font-family="Helvetica,sans-Serif" font-size="10.00">_of_utf8_bytes</text>
</a>
</g>
</g>
<!-- Node21&#45;&gt;Node22 -->
<g id="edge23_Node000021_Node000022" class="edge">
<title>Node21&#45;&gt;Node22</title>
<g id="a_edge23_Node000021_Node000022"><a xlink:title=" ">
<path fill="none" stroke="#63b8ff" d="M727.09,-555.38C740.33,-553.78 754.05,-552.12 767.27,-550.52"/>
<polygon fill="#63b8ff" stroke="#63b8ff" points="767.75,-553.99 777.26,-549.31 766.91,-547.04 767.75,-553.99"/>
</a>
</g>
</g>
<!-- Node23&#45;&gt;Node22 -->
<g id="edge25_Node000023_Node000022" class="edge">
<title>Node23&#45;&gt;Node22</title>
<g id="a_edge25_Node000023_Node000022"><a xlink:title=" ">
<path fill="none" stroke="#63b8ff" d="M727.09,-526.62C740.33,-528.22 754.05,-529.88 767.27,-531.48"/>
<polygon fill="#63b8ff" stroke="#63b8ff" points="766.91,-534.96 777.26,-532.69 767.75,-528.01 766.91,-534.96"/>
</a>
</g>
</g>
<!-- Node24&#45;&gt;Node14 -->
<g id="edge39_Node000024_Node000014" class="edge">
<title>Node24&#45;&gt;Node14</title>
<g id="a_edge39_Node000024_Node000014"><a xlink:title=" ">
<path fill="none" stroke="#63b8ff" d="M453.18,-468.27C472.86,-495.49 517.3,-552.94 566,-589 629.6,-636.08 670.42,-609.68 727,-665 752.58,-690.01 735.51,-714.11 763,-737 764.56,-738.3 766.18,-739.52 767.86,-740.68"/>
<polygon fill="#63b8ff" stroke="#63b8ff" points="766.28,-743.82 776.66,-745.95 769.87,-737.81 766.28,-743.82"/>
</a>
</g>
</g>
<!-- Node25 -->
<g id="Node000025" class="node">
<title>Node25</title>
<g id="a_Node000025"><a xlink:href="classnetspeak_1_1regex_1_1RegexQueryBuilder.html#a626cce510f80b416ea26d8d1e9d4891c" target="_top" xlink:title="Adds the given unit to the internal query.">
<polygon fill="white" stroke="#666666" points="727,-298 566,-298 566,-268 727,-268 727,-298"/>
<text text-anchor="start" x="574" y="-286" font-family="Helvetica,sans-Serif" font-size="10.00">netspeak::regex::RegexQuery</text>
<text text-anchor="middle" x="646.5" y="-275" font-family="Helvetica,sans-Serif" font-size="10.00">Builder::add</text>
</a>
</g>
</g>
<!-- Node24&#45;&gt;Node25 -->
<g id="edge28_Node000024_Node000025" class="edge">
<title>Node24&#45;&gt;Node25</title>
<g id="a_edge28_Node000024_Node000025"><a xlink:title=" ">
<path fill="none" stroke="#63b8ff" d="M460.51,-437.91C496.63,-407.67 577.99,-339.54 619.73,-304.58"/>
<polygon fill="#63b8ff" stroke="#63b8ff" points="622.11,-307.16 627.53,-298.05 617.61,-301.79 622.11,-307.16"/>
</a>
</g>
</g>
<!-- Node27 -->
<g id="Node000027" class="node">
<title>Node27</title>
<g id="a_Node000027"><a xlink:href="structnetspeak_1_1regex_1_1RegexUnit.html#a98dff8023a5bb0d25f87f544dbb39659" target="_top" xlink:title=" ">
<polygon fill="white" stroke="#666666" points="1119,-395 967,-395 967,-365 1119,-365 1119,-395"/>
<text text-anchor="start" x="975" y="-383" font-family="Helvetica,sans-Serif" font-size="10.00">netspeak::regex::RegexUnit</text>
<text text-anchor="middle" x="1043" y="-372" font-family="Helvetica,sans-Serif" font-size="10.00">::char_set</text>
</a>
</g>
</g>
<!-- Node24&#45;&gt;Node27 -->
<g id="edge37_Node000024_Node000027" class="edge">
<title>Node24&#45;&gt;Node27</title>
<g id="a_edge37_Node000024_Node000027"><a xlink:title=" ">
<path fill="none" stroke="#63b8ff" d="M519.58,-454.44C534.95,-454.67 550.99,-454.88 566,-455 728.92,-456.32 773.53,-462.8 931,-421 953.18,-415.11 977.14,-406.55 997.11,-398.78"/>
<polygon fill="#63b8ff" stroke="#63b8ff" points="998.55,-401.97 1006.56,-395.04 995.97,-395.46 998.55,-401.97"/>
</a>
</g>
</g>
<!-- Node32 -->
<g id="Node000032" class="node">
<title>Node32</title>
<g id="a_Node000032"><a xlink:href="namespacenetspeak_1_1regex.html#aebd2483ad4c4c5830b3a7b1f4dbe1e67" target="_top" xlink:title=" ">
<polygon fill="white" stroke="#666666" points="718,-446 575,-446 575,-416 718,-416 718,-446"/>
<text text-anchor="start" x="583" y="-434" font-family="Helvetica,sans-Serif" font-size="10.00">netspeak::regex::contains</text>
<text text-anchor="middle" x="646.5" y="-423" font-family="Helvetica,sans-Serif" font-size="10.00">_unknown_characters</text>
</a>
</g>
</g>
<!-- Node24&#45;&gt;Node32 -->
<g id="edge38_Node000024_Node000032" class="edge">
<title>Node24&#45;&gt;Node32</title>
<g id="a_edge38_Node000024_Node000032"><a xlink:title=" ">
<path fill="none" stroke="#63b8ff" d="M519.54,-444.65C534.3,-443.05 549.8,-441.37 564.67,-439.76"/>
<polygon fill="#63b8ff" stroke="#63b8ff" points="565.3,-443.21 574.86,-438.66 564.54,-436.25 565.3,-443.21"/>
</a>
</g>
</g>
<!-- Node33 -->
<g id="Node000033" class="node">
<title>Node33</title>
<g id="a_Node000033"><a xlink:href="classnetspeak_1_1regex_1_1RegexQueryBuilder.html#a7ef4e5553d0ec791b3960977a25e463f" target="_top" xlink:title="Creates a query from the current internal state.">
<polygon fill="white" stroke="#666666" points="727,-398 566,-398 566,-368 727,-368 727,-398"/>
<text text-anchor="start" x="574" y="-386" font-family="Helvetica,sans-Serif" font-size="10.00">netspeak::regex::RegexQuery</text>
<text text-anchor="middle" x="646.5" y="-375" font-family="Helvetica,sans-Serif" font-size="10.00">Builder::to_query</text>
</a>
</g>
</g>
<!-- Node24&#45;&gt;Node33 -->
<g id="edge40_Node000024_Node000033" class="edge">
<title>Node24&#45;&gt;Node33</title>
<g id="a_edge40_Node000024_Node000033"><a xlink:title=" ">
<path fill="none" stroke="#63b8ff" d="M480.94,-437.97C505.2,-428.66 537.27,-416.68 566,-407 571.92,-405.01 578.11,-403 584.31,-401.04"/>
<polygon fill="#63b8ff" stroke="#63b8ff" points="585.52,-404.33 594.03,-398.02 583.44,-397.65 585.52,-404.33"/>
</a>
</g>
</g>
<!-- Node26 -->
<g id="Node000026" class="node">
<title>Node26</title>
<g id="a_Node000026"><a xlink:href="namespacenetspeak_1_1regex.html#a7bcd9407eaeeaacfbdac4b3b53246bb8" target="_top" xlink:title=" ">
<polygon fill="white" stroke="#666666" points="931,-325.5 763,-325.5 763,-306.5 931,-306.5 931,-325.5"/>
<text text-anchor="middle" x="847" y="-313.5" font-family="Helvetica,sans-Serif" font-size="10.00">netspeak::regex::optimize_unit</text>
</a>
</g>
</g>
<!-- Node25&#45;&gt;Node26 -->
<g id="edge29_Node000025_Node000026" class="edge">
<title>Node25&#45;&gt;Node26</title>
<g id="a_edge29_Node000025_Node000026"><a xlink:title=" ">
<path fill="none" stroke="#63b8ff" d="M727.09,-296.23C744.15,-299.07 762.02,-302.04 778.57,-304.79"/>
<polygon fill="#63b8ff" stroke="#63b8ff" points="778.24,-308.28 788.68,-306.47 779.39,-301.38 778.24,-308.28"/>
</a>
</g>
</g>
<!-- Node29 -->
<g id="Node000029" class="node">
<title>Node29</title>
<g id="a_Node000029"><a xlink:href="structnetspeak_1_1regex_1_1RegexUnit.html#a4da1987f131aa9640b7e77d7960b031b" target="_top" xlink:title=" ">
<polygon fill="white" stroke="#666666" points="1119,-260 967,-260 967,-230 1119,-230 1119,-260"/>
<text text-anchor="start" x="975" y="-248" font-family="Helvetica,sans-Serif" font-size="10.00">netspeak::regex::RegexUnit</text>
<text text-anchor="middle" x="1043" y="-237" font-family="Helvetica,sans-Serif" font-size="10.00">::word</text>
</a>
</g>
</g>
<!-- Node25&#45;&gt;Node29 -->
<g id="edge36_Node000025_Node000029" class="edge">
<title>Node25&#45;&gt;Node29</title>
<g id="a_edge36_Node000025_Node000029"><a xlink:title=" ">
<path fill="none" stroke="#63b8ff" d="M727.33,-275.31C793.93,-268.89 888.61,-259.77 956.7,-253.22"/>
<polygon fill="#63b8ff" stroke="#63b8ff" points="957.35,-256.67 966.96,-252.23 956.67,-249.7 957.35,-256.67"/>
</a>
</g>
</g>
<!-- Node30 -->
<g id="Node000030" class="node">
<title>Node30</title>
<g id="a_Node000030"><a xlink:href="namespacenetspeak_1_1regex.html#af699a70a2450bb3c60f6eb849b7e6176" target="_top" xlink:title="Removes all trailing optional words.">
<polygon fill="white" stroke="#666666" points="916.5,-164 777.5,-164 777.5,-134 916.5,-134 916.5,-164"/>
<text text-anchor="start" x="785.5" y="-152" font-family="Helvetica,sans-Serif" font-size="10.00">netspeak::regex::remove</text>
<text text-anchor="middle" x="847" y="-141" font-family="Helvetica,sans-Serif" font-size="10.00">_trailing_optional_words</text>
</a>
</g>
</g>
<!-- Node25&#45;&gt;Node30 -->
<g id="edge34_Node000025_Node000030" class="edge">
<title>Node25&#45;&gt;Node30</title>
<g id="a_edge34_Node000025_Node000030"><a xlink:title=" ">
<path fill="none" stroke="#63b8ff" d="M659.28,-267.81C678.48,-244.1 718.81,-198.37 763,-173 766.18,-171.17 769.51,-169.48 772.93,-167.91"/>
<polygon fill="#63b8ff" stroke="#63b8ff" points="774.3,-171.13 782.16,-164.02 771.58,-164.67 774.3,-171.13"/>
</a>
</g>
</g>
<!-- Node26&#45;&gt;Node27 -->
<g id="edge30_Node000026_Node000027" class="edge">
<title>Node26&#45;&gt;Node27</title>
<g id="a_edge30_Node000026_Node000027"><a xlink:title=" ">
<path fill="none" stroke="#63b8ff" d="M882.88,-325.55C897.77,-329.76 915.31,-334.91 931,-340 951.34,-346.6 973.54,-354.46 992.71,-361.47"/>
<polygon fill="#63b8ff" stroke="#63b8ff" points="991.55,-364.77 1002.14,-364.93 993.96,-358.2 991.55,-364.77"/>
</a>
</g>
</g>
<!-- Node28 -->
<g id="Node000028" class="node">
<title>Node28</title>
<g id="a_Node000028"><a xlink:href="namespacenetspeak_1_1regex.html#a330e12f037f1cfe62d8e2bd33d3fd1e7" target="_top" xlink:title="Returns a new string in which all duplicate characters of the given string are removed.">
<polygon fill="white" stroke="#666666" points="1112,-331 974,-331 974,-301 1112,-301 1112,-331"/>
<text text-anchor="start" x="982" y="-319" font-family="Helvetica,sans-Serif" font-size="10.00">netspeak::regex::without</text>
<text text-anchor="middle" x="1043" y="-308" font-family="Helvetica,sans-Serif" font-size="10.00">_duplicates</text>
</a>
</g>
</g>
<!-- Node26&#45;&gt;Node28 -->
<g id="edge31_Node000026_Node000028" class="edge">
<title>Node26&#45;&gt;Node28</title>
<g id="a_edge31_Node000026_Node000028"><a xlink:title=" ">
<path fill="none" stroke="#63b8ff" d="M931.12,-316C941.95,-316 953.02,-316 963.77,-316"/>
<polygon fill="#63b8ff" stroke="#63b8ff" points="963.96,-319.5 973.96,-316 963.96,-312.5 963.96,-319.5"/>
</a>
</g>
</g>
<!-- Node26&#45;&gt;Node29 -->
<g id="edge32_Node000026_Node000029" class="edge">
<title>Node26&#45;&gt;Node29</title>
<g id="a_edge32_Node000026_Node000029"><a xlink:title=" ">
<path fill="none" stroke="#63b8ff" d="M884.66,-306.41C899.21,-302.35 916.02,-297.32 931,-292 954.16,-283.78 979.42,-273.22 999.99,-264.19"/>
<polygon fill="#63b8ff" stroke="#63b8ff" points="1001.65,-267.28 1009.38,-260.03 998.82,-260.88 1001.65,-267.28"/>
</a>
</g>
</g>
<!-- Node29&#45;&gt;Node29 -->
<g id="edge33_Node000029_Node000029" class="edge">
<title>Node29&#45;&gt;Node29</title>
<g id="a_edge33_Node000029_Node000029"><a xlink:title=" ">
<path fill="none" stroke="#63b8ff" d="M1008.55,-260.28C1000.89,-269.41 1012.38,-278 1043,-278 1061.18,-278 1072.62,-274.97 1077.31,-270.6"/>
<polygon fill="#63b8ff" stroke="#63b8ff" points="1080.81,-270.32 1077.45,-260.28 1073.81,-270.22 1080.81,-270.32"/>
</a>
</g>
</g>
<!-- Node31 -->
<g id="Node000031" class="node">
<title>Node31</title>
<g id="a_Node000031"><a xlink:href="structnetspeak_1_1regex_1_1RegexUnit.html#a3b20469cd1d0f8e97d6d6ce6626fd5a5" target="_top" xlink:title=" ">
<polygon fill="white" stroke="#666666" points="1119,-143 967,-143 967,-113 1119,-113 1119,-143"/>
<text text-anchor="start" x="975" y="-131" font-family="Helvetica,sans-Serif" font-size="10.00">netspeak::regex::RegexUnit</text>
<text text-anchor="middle" x="1043" y="-120" font-family="Helvetica,sans-Serif" font-size="10.00">::qmark</text>
</a>
</g>
</g>
<!-- Node30&#45;&gt;Node31 -->
<g id="edge35_Node000030_Node000031" class="edge">
<title>Node30&#45;&gt;Node31</title>
<g id="a_edge35_Node000030_Node000031"><a xlink:title=" ">
<path fill="none" stroke="#63b8ff" d="M916.67,-141.57C929.61,-140.17 943.29,-138.68 956.67,-137.24"/>
<polygon fill="#63b8ff" stroke="#63b8ff" points="957.26,-140.69 966.83,-136.14 956.51,-133.73 957.26,-140.69"/>
</a>
</g>
</g>
<!-- Node34 -->
<g id="Node000034" class="node">
<title>Node34</title>
<g id="a_Node000034"><a xlink:href="classnetspeak_1_1regex_1_1RegexQuery.html#a74390b07cc488876e518d35979f3f814" target="_top" xlink:title="Create a new RegexQuery that rejects all words.">
<polygon fill="white" stroke="#666666" points="927.5,-412 766.5,-412 766.5,-382 927.5,-382 927.5,-412"/>
<text text-anchor="start" x="774.5" y="-400" font-family="Helvetica,sans-Serif" font-size="10.00">netspeak::regex::RegexQuery</text>
<text text-anchor="middle" x="847" y="-389" font-family="Helvetica,sans-Serif" font-size="10.00">::create_reject_all</text>
</a>
</g>
</g>
<!-- Node33&#45;&gt;Node34 -->
<g id="edge41_Node000033_Node000034" class="edge">
<title>Node33&#45;&gt;Node34</title>
<g id="a_edge41_Node000033_Node000034"><a xlink:title=" ">
<path fill="none" stroke="#63b8ff" d="M727.09,-388.61C736.7,-389.29 746.56,-389.99 756.3,-390.67"/>
<polygon fill="#63b8ff" stroke="#63b8ff" points="756.17,-394.17 766.39,-391.39 756.66,-387.19 756.17,-394.17"/>
</a>
</g>
</g>
<!-- Node34&#45;&gt;Node27 -->
<g id="edge42_Node000034_Node000027" class="edge">
<title>Node34&#45;&gt;Node27</title>
<g id="a_edge42_Node000034_Node000027"><a xlink:title=" ">
<path fill="none" stroke="#63b8ff" d="M927.75,-390.01C937.37,-389.17 947.22,-388.31 956.91,-387.46"/>
<polygon fill="#63b8ff" stroke="#63b8ff" points="957.28,-390.94 966.93,-386.58 956.66,-383.96 957.28,-390.94"/>
</a>
</g>
</g>
<!-- Node35&#45;&gt;Node9 -->
<g id="edge44_Node000035_Node000009" class="edge">
<title>Node35&#45;&gt;Node9</title>
<g id="a_edge44_Node000035_Node000009"><a xlink:title=" ">
<path fill="none" stroke="#63b8ff" d="M478.14,-889.07C502.65,-899.2 536.05,-912.56 566,-923 571.58,-924.95 577.41,-926.88 583.28,-928.77"/>
<polygon fill="#63b8ff" stroke="#63b8ff" points="582.53,-932.2 593.12,-931.88 584.64,-925.53 582.53,-932.2"/>
</a>
</g>
</g>
<!-- Node36&#45;&gt;Node25 -->
<g id="edge47_Node000036_Node000025" class="edge">
<title>Node36&#45;&gt;Node25</title>
<g id="a_edge47_Node000036_Node000025"><a xlink:title=" ">
<path fill="none" stroke="#63b8ff" d="M508.13,-253.9C526.1,-257.71 545.79,-261.88 564.51,-265.84"/>
<polygon fill="#63b8ff" stroke="#63b8ff" points="563.98,-269.31 574.49,-267.96 565.43,-262.46 563.98,-269.31"/>
</a>
</g>
</g>
<!-- Node36&#45;&gt;Node27 -->
<g id="edge48_Node000036_Node000027" class="edge">
<title>Node36&#45;&gt;Node27</title>
<g id="a_edge48_Node000036_Node000027"><a xlink:title=" ">
<path fill="none" stroke="#63b8ff" d="M464.63,-255.08C488.55,-270.62 528.32,-294.32 566,-307 636.64,-330.77 839.79,-356.84 956.6,-370.48"/>
<polygon fill="#63b8ff" stroke="#63b8ff" points="956.25,-373.96 966.59,-371.64 957.06,-367.01 956.25,-373.96"/>
</a>
</g>
</g>
<!-- Node36&#45;&gt;Node29 -->
<g id="edge55_Node000036_Node000029" class="edge">
<title>Node36&#45;&gt;Node29</title>
<g id="a_edge55_Node000036_Node000029"><a xlink:title=" ">
<path fill="none" stroke="#63b8ff" d="M508.08,-240.55C617.02,-241.46 835.22,-243.28 956.23,-244.28"/>
<polygon fill="#63b8ff" stroke="#63b8ff" points="956.52,-247.79 966.55,-244.37 956.58,-240.79 956.52,-247.79"/>
</a>
</g>
</g>
<!-- Node36&#45;&gt;Node31 -->
<g id="edge51_Node000036_Node000031" class="edge">
<title>Node36&#45;&gt;Node31</title>
<g id="a_edge51_Node000036_Node000031"><a xlink:title=" ">
<path fill="none" stroke="#63b8ff" d="M473.36,-224.85C529.4,-198.27 652.34,-144.25 763,-125 836.56,-112.2 856.34,-123.99 931,-125 939.31,-125.11 947.97,-125.27 956.63,-125.46"/>
<polygon fill="#63b8ff" stroke="#63b8ff" points="956.7,-128.96 966.77,-125.69 956.86,-121.96 956.7,-128.96"/>
</a>
</g>
</g>
<!-- Node36&#45;&gt;Node33 -->
<g id="edge54_Node000036_Node000033" class="edge">
<title>Node36&#45;&gt;Node33</title>
<g id="a_edge54_Node000036_Node000033"><a xlink:title=" ">
<path fill="none" stroke="#63b8ff" d="M455.43,-255.35C476.42,-279.38 520.16,-326.05 566,-354 572.12,-357.73 578.8,-361.1 585.6,-364.1"/>
<polygon fill="#63b8ff" stroke="#63b8ff" points="584.33,-367.36 594.91,-367.96 587.01,-360.89 584.33,-367.36"/>
</a>
</g>
</g>
<!-- Node37 -->
<g id="Node000037" class="node">
<title>Node37</title>
<g id="a_Node000037"><a xlink:href="structnetspeak_1_1regex_1_1RegexUnit.html#af7031ca21988515e98dc2b3dcf482e0b" target="_top" xlink:title=" ">
<polygon fill="white" stroke="#666666" points="923,-212 771,-212 771,-182 923,-182 923,-212"/>
<text text-anchor="start" x="779" y="-200" font-family="Helvetica,sans-Serif" font-size="10.00">netspeak::regex::RegexUnit</text>
<text text-anchor="middle" x="847" y="-189" font-family="Helvetica,sans-Serif" font-size="10.00">::optional_word</text>
</a>
</g>
</g>
<!-- Node36&#45;&gt;Node37 -->
<g id="edge49_Node000036_Node000037" class="edge">
<title>Node36&#45;&gt;Node37</title>
<g id="a_edge49_Node000036_Node000037"><a xlink:title=" ">
<path fill="none" stroke="#63b8ff" d="M508.18,-232.43C526.86,-230.32 547.23,-228.04 566,-226 631.29,-218.92 705.19,-211.28 760.67,-205.62"/>
<polygon fill="#63b8ff" stroke="#63b8ff" points="761.22,-209.08 770.81,-204.59 760.51,-202.12 761.22,-209.08"/>
</a>
</g>
</g>
<!-- Node38 -->
<g id="Node000038" class="node">
<title>Node38</title>
<g id="a_Node000038"><a xlink:href="namespacenetspeak_1_1regex.html#acd1be471280f1d11b869b2b7c1f4ecb8" target="_top" xlink:title="Reads the given range until it finds a given end characters. If it finds the end characters,...">
<polygon fill="white" stroke="#666666" points="708,-78 585,-78 585,-48 708,-48 708,-78"/>
<text text-anchor="start" x="593" y="-66" font-family="Helvetica,sans-Serif" font-size="10.00">netspeak::regex::read</text>
<text text-anchor="middle" x="646.5" y="-55" font-family="Helvetica,sans-Serif" font-size="10.00">_until_char</text>
</a>
</g>
</g>
<!-- Node36&#45;&gt;Node38 -->
<g id="edge52_Node000036_Node000038" class="edge">
<title>Node36&#45;&gt;Node38</title>
<g id="a_edge52_Node000036_Node000038"><a xlink:title=" ">
<path fill="none" stroke="#63b8ff" d="M451.38,-224.73C469.35,-195.07 512.88,-129.33 566,-92 571.13,-88.4 576.75,-85.19 582.57,-82.35"/>
<polygon fill="#63b8ff" stroke="#63b8ff" points="584.14,-85.47 591.82,-78.17 581.27,-79.09 584.14,-85.47"/>
</a>
</g>
</g>
<!-- Node39 -->
<g id="Node000039" class="node">
<title>Node39</title>
<g id="a_Node000039"><a xlink:href="structnetspeak_1_1regex_1_1RegexUnit.html#abdddfa5541553a0a8a061f31e4d5662a" target="_top" xlink:title=" ">
<polygon fill="white" stroke="#666666" points="722.5,-30 570.5,-30 570.5,0 722.5,0 722.5,-30"/>
<text text-anchor="start" x="578.5" y="-18" font-family="Helvetica,sans-Serif" font-size="10.00">netspeak::regex::RegexUnit</text>
<text text-anchor="middle" x="646.5" y="-7" font-family="Helvetica,sans-Serif" font-size="10.00">::star</text>
</a>
</g>
</g>
<!-- Node36&#45;&gt;Node39 -->
<g id="edge53_Node000036_Node000039" class="edge">
<title>Node36&#45;&gt;Node39</title>
<g id="a_edge53_Node000036_Node000039"><a xlink:title=" ">
<path fill="none" stroke="#63b8ff" d="M447.52,-224.8C460.69,-187.35 499.82,-90 566,-39 567.81,-37.61 569.7,-36.29 571.65,-35.05"/>
<polygon fill="#63b8ff" stroke="#63b8ff" points="573.53,-38.02 580.57,-30.1 570.13,-31.9 573.53,-38.02"/>
</a>
</g>
</g>
<!-- Node37&#45;&gt;Node29 -->
<g id="edge50_Node000037_Node000029" class="edge">
<title>Node37&#45;&gt;Node29</title>
<g id="a_edge50_Node000037_Node000029"><a xlink:title=" ">
<path fill="none" stroke="#63b8ff" d="M908.85,-212.06C928.71,-216.97 950.94,-222.47 971.45,-227.54"/>
<polygon fill="#63b8ff" stroke="#63b8ff" points="970.82,-230.99 981.37,-230 972.5,-224.2 970.82,-230.99"/>
</a>
</g>
</g>
</g>
</svg>
