<?xml version="1.0" encoding="UTF-8" standalone="no"?>
<!DOCTYPE svg PUBLIC "-//W3C//DTD SVG 1.1//EN"
 "http://www.w3.org/Graphics/SVG/1.1/DTD/svg11.dtd">
<!-- Generated by graphviz version 2.43.0 (0)
 -->
<!-- Title: netspeak::RetrievalStrategy&lt; RetrievalStrategy3Tag &gt;::properties Pages: 1 -->
<svg width="499pt" height="86pt"
 viewBox="0.00 0.00 499.00 86.00" xmlns="http://www.w3.org/2000/svg" xmlns:xlink="http://www.w3.org/1999/xlink">
<g id="graph0" class="graph" transform="scale(1 1) rotate(0) translate(4 82)">
<title>netspeak::RetrievalStrategy&lt; RetrievalStrategy3Tag &gt;::properties</title>
<!-- Node1 -->
<g id="Node000001" class="node">
<title>Node1</title>
<g id="a_Node000001"><a xlink:title=" ">
<polygon fill="#999999" stroke="#666666" points="153,-59.5 0,-59.5 0,-18.5 153,-18.5 153,-59.5"/>
<text text-anchor="start" x="8" y="-47.5" font-family="Helvetica,sans-Serif" font-size="10.00">netspeak::RetrievalStrategy</text>
<text text-anchor="start" x="8" y="-36.5" font-family="Helvetica,sans-Serif" font-size="10.00">&lt; RetrievalStrategy3Tag</text>
<text text-anchor="middle" x="76.5" y="-25.5" font-family="Helvetica,sans-Serif" font-size="10.00"> &gt;::properties</text>
</a>
</g>
</g>
<!-- Node2 -->
<g id="Node000002" class="node">
<title>Node2</title>
<g id="a_Node000002"><a xlink:href="classnetspeak_1_1RetrievalStrategy.html#a3e1dc76116bc90d1fa2300fbd6807cfe" target="_top" xlink:title=" ">
<polygon fill="white" stroke="#666666" points="342,-78 189,-78 189,-48 342,-48 342,-78"/>
<text text-anchor="start" x="197" y="-66" font-family="Helvetica,sans-Serif" font-size="10.00">netspeak::RetrievalStrategy</text>
<text text-anchor="middle" x="265.5" y="-55" font-family="Helvetica,sans-Serif" font-size="10.00">::properties</text>
</a>
</g>
</g>
<!-- Node1&#45;&gt;Node2 -->
<g id="edge1_Node000001_Node000002" class="edge">
<title>Node1&#45;&gt;Node2</title>
<g id="a_edge1_Node000001_Node000002"><a xlink:title=" ">
<path fill="none" stroke="#63b8ff" d="M153.02,-48.69C161.47,-49.78 170.13,-50.89 178.7,-51.99"/>
<polygon fill="#63b8ff" stroke="#63b8ff" points="178.33,-55.47 188.7,-53.27 179.22,-48.53 178.33,-55.47"/>
</a>
</g>
</g>
<!-- Node3 -->
<g id="Node000003" class="node">
<title>Node3</title>
<g id="a_Node000003"><a xlink:href="namespacenetspeak_1_1util.html#ac8b0cdf55599b33fd7d4013948d48f43" target="_top" xlink:title=" ">
<polygon fill="white" stroke="#666666" points="315,-30 216,-30 216,0 315,0 315,-30"/>
<text text-anchor="start" x="224" y="-18" font-family="Helvetica,sans-Serif" font-size="10.00">netspeak::util::to</text>
<text text-anchor="middle" x="265.5" y="-7" font-family="Helvetica,sans-Serif" font-size="10.00">_string</text>
</a>
</g>
</g>
<!-- Node1&#45;&gt;Node3 -->
<g id="edge2_Node000001_Node000003" class="edge">
<title>Node1&#45;&gt;Node3</title>
<g id="a_edge2_Node000001_Node000003"><a xlink:title=" ">
<path fill="none" stroke="#63b8ff" d="M153.02,-29.31C170.57,-27.06 188.99,-24.69 205.69,-22.55"/>
<polygon fill="#63b8ff" stroke="#63b8ff" points="206.37,-25.99 215.84,-21.24 205.48,-19.05 206.37,-25.99"/>
</a>
</g>
</g>
<!-- Node4 -->
<g id="Node000004" class="node">
<title>Node4</title>
<g id="a_Node000004"><a xlink:href="namespacenetspeak_1_1util.html#a4c91ad572508b4021399ac7dddff574d" target="_top" xlink:title=" ">
<polygon fill="white" stroke="#666666" points="491,-24.5 378,-24.5 378,-5.5 491,-5.5 491,-24.5"/>
<text text-anchor="middle" x="434.5" y="-12.5" font-family="Helvetica,sans-Serif" font-size="10.00">netspeak::util::hash</text>
</a>
</g>
</g>
<!-- Node3&#45;&gt;Node4 -->
<g id="edge3_Node000003_Node000004" class="edge">
<title>Node3&#45;&gt;Node4</title>
<g id="a_edge3_Node000003_Node000004"><a xlink:title=" ">
<path fill="none" stroke="#63b8ff" d="M315.25,-15C331.67,-15 350.27,-15 367.78,-15"/>
<polygon fill="#63b8ff" stroke="#63b8ff" points="367.93,-18.5 377.93,-15 367.93,-11.5 367.93,-18.5"/>
</a>
</g>
</g>
</g>
</svg>
