<?xml version="1.0" encoding="UTF-8" standalone="no"?>
<!DOCTYPE svg PUBLIC "-//W3C//DTD SVG 1.1//EN"
 "http://www.w3.org/Graphics/SVG/1.1/DTD/svg11.dtd">
<!-- Generated by graphviz version 2.43.0 (0)
 -->
<!-- Title: netspeak::regex::DefaultRegexIndex::word_at_index Pages: 1 -->
<svg width="693pt" height="68pt"
 viewBox="0.00 0.00 693.00 67.50" xmlns="http://www.w3.org/2000/svg" xmlns:xlink="http://www.w3.org/1999/xlink">
<g id="graph0" class="graph" transform="scale(1 1) rotate(0) translate(4 63.5)">
<title>netspeak::regex::DefaultRegexIndex::word_at_index</title>
<!-- Node1 -->
<g id="Node000001" class="node">
<title>Node1</title>
<g id="a_Node000001"><a xlink:title="Returns the word at the given index in the word list.">
<polygon fill="#999999" stroke="#666666" points="685,-59.5 533,-59.5 533,-29.5 685,-29.5 685,-59.5"/>
<text text-anchor="start" x="541" y="-47.5" font-family="Helvetica,sans-Serif" font-size="10.00">netspeak::regex::Default</text>
<text text-anchor="middle" x="609" y="-36.5" font-family="Helvetica,sans-Serif" font-size="10.00">RegexIndex::word_at_index</text>
</a>
</g>
</g>
<!-- Node2 -->
<g id="Node000002" class="node">
<title>Node2</title>
<g id="a_Node000002"><a xlink:href="classnetspeak_1_1regex_1_1DefaultRegexIndex.html#a243db53a6f592cf81dc78ab6abe09bc2" target="_top" xlink:title="Adds all words matching the given query to the given vector.">
<polygon fill="white" stroke="#666666" points="317,-59.5 173,-59.5 173,-29.5 317,-29.5 317,-59.5"/>
<text text-anchor="start" x="181" y="-47.5" font-family="Helvetica,sans-Serif" font-size="10.00">netspeak::regex::Default</text>
<text text-anchor="middle" x="245" y="-36.5" font-family="Helvetica,sans-Serif" font-size="10.00">RegexIndex::match_query</text>
</a>
</g>
</g>
<!-- Node1&#45;&gt;Node2 -->
<g id="edge1_Node000001_Node000002" class="edge">
<title>Node1&#45;&gt;Node2</title>
<g id="a_edge1_Node000001_Node000002"><a xlink:title=" ">
<path fill="none" stroke="#63b8ff" d="M522.65,-49.58C513.99,-49.96 505.32,-50.28 497,-50.5 433.02,-52.23 416.97,-52.29 353,-50.5 341.38,-50.17 329.05,-49.65 317.06,-49.04"/>
<polygon fill="#63b8ff" stroke="#63b8ff" points="522.96,-53.07 532.79,-49.12 522.64,-46.08 522.96,-53.07"/>
</a>
</g>
</g>
<!-- Node4 -->
<g id="Node000004" class="node">
<title>Node4</title>
<g id="a_Node000004"><a xlink:href="classnetspeak_1_1regex_1_1DefaultRegexIndex.html#a5c0cbc299628d069cfd1d800d74875d3" target="_top" xlink:title=" ">
<polygon fill="white" stroke="#666666" points="497,-41 353,-41 353,0 497,0 497,-41"/>
<text text-anchor="start" x="361" y="-29" font-family="Helvetica,sans-Serif" font-size="10.00">netspeak::regex::Default</text>
<text text-anchor="start" x="361" y="-18" font-family="Helvetica,sans-Serif" font-size="10.00">RegexIndex::match_query</text>
<text text-anchor="middle" x="425" y="-7" font-family="Helvetica,sans-Serif" font-size="10.00">_hash_lookup</text>
</a>
</g>
</g>
<!-- Node1&#45;&gt;Node4 -->
<g id="edge3_Node000001_Node000004" class="edge">
<title>Node1&#45;&gt;Node4</title>
<g id="a_edge3_Node000001_Node000004"><a xlink:title=" ">
<path fill="none" stroke="#63b8ff" d="M522.86,-33.27C514.24,-32.14 505.55,-30.99 497.1,-29.88"/>
<polygon fill="#63b8ff" stroke="#63b8ff" points="522.55,-36.76 532.92,-34.6 523.47,-29.82 522.55,-36.76"/>
</a>
</g>
</g>
<!-- Node3 -->
<g id="Node000003" class="node">
<title>Node3</title>
<g id="a_Node000003"><a xlink:href="classcli_1_1RegexCommand.html#a359a924652eac2c3d8664bfc5ff29f3e" target="_top" xlink:title=" ">
<polygon fill="white" stroke="#666666" points="137,-54 0,-54 0,-35 137,-35 137,-54"/>
<text text-anchor="middle" x="68.5" y="-42" font-family="Helvetica,sans-Serif" font-size="10.00">cli::RegexCommand::run</text>
</a>
</g>
</g>
<!-- Node2&#45;&gt;Node3 -->
<g id="edge2_Node000002_Node000003" class="edge">
<title>Node2&#45;&gt;Node3</title>
<g id="a_edge2_Node000002_Node000003"><a xlink:title=" ">
<path fill="none" stroke="#63b8ff" d="M162.76,-44.5C154.18,-44.5 145.52,-44.5 137.12,-44.5"/>
<polygon fill="#63b8ff" stroke="#63b8ff" points="162.77,-48 172.77,-44.5 162.77,-41 162.77,-48"/>
</a>
</g>
</g>
<!-- Node4&#45;&gt;Node2 -->
<g id="edge4_Node000004_Node000002" class="edge">
<title>Node4&#45;&gt;Node2</title>
<g id="a_edge4_Node000004_Node000002"><a xlink:title=" ">
<path fill="none" stroke="#63b8ff" d="M342.83,-31.44C334.21,-32.61 325.49,-33.78 317,-34.93"/>
<polygon fill="#63b8ff" stroke="#63b8ff" points="343.44,-34.89 352.88,-30.09 342.5,-27.96 343.44,-34.89"/>
</a>
</g>
</g>
</g>
</svg>
