<?xml version="1.0" encoding="UTF-8" standalone="no"?>
<!DOCTYPE svg PUBLIC "-//W3C//DTD SVG 1.1//EN"
 "http://www.w3.org/Graphics/SVG/1.1/DTD/svg11.dtd">
<!-- Generated by graphviz version 2.43.0 (0)
 -->
<!-- Title: netspeak::invertedindex::PostlistReader::read Pages: 1 -->
<svg width="789pt" height="324pt"
 viewBox="0.00 0.00 789.00 323.50" xmlns="http://www.w3.org/2000/svg" xmlns:xlink="http://www.w3.org/1999/xlink">
<g id="graph0" class="graph" transform="scale(1 1) rotate(0) translate(4 319.5)">
<title>netspeak::invertedindex::PostlistReader::read</title>
<!-- Node1 -->
<g id="Node000001" class="node">
<title>Node1</title>
<g id="a_Node000001"><a xlink:title=" ">
<polygon fill="#999999" stroke="#666666" points="135,-223 0,-223 0,-193 135,-193 135,-223"/>
<text text-anchor="start" x="8" y="-211" font-family="Helvetica,sans-Serif" font-size="10.00">netspeak::invertedindex</text>
<text text-anchor="middle" x="67.5" y="-200" font-family="Helvetica,sans-Serif" font-size="10.00">::PostlistReader::read</text>
</a>
</g>
</g>
<!-- Node2 -->
<g id="Node000002" class="node">
<title>Node2</title>
<g id="a_Node000002"><a xlink:href="namespacenetspeak_1_1util.html#a4acc3d13f8d541f4b65dd44f486403fd" target="_top" xlink:title=" ">
<polygon fill="white" stroke="#666666" points="468,-315.5 351,-315.5 351,-296.5 468,-296.5 468,-315.5"/>
<text text-anchor="middle" x="409.5" y="-303.5" font-family="Helvetica,sans-Serif" font-size="10.00">netspeak::util::fopen</text>
</a>
</g>
</g>
<!-- Node1&#45;&gt;Node2 -->
<g id="edge1_Node000001_Node000002" class="edge">
<title>Node1&#45;&gt;Node2</title>
<g id="a_edge1_Node000001_Node000002"><a xlink:title=" ">
<path fill="none" stroke="#63b8ff" d="M94.68,-223.08C114.94,-234.18 144,-248.85 171,-258 226.79,-276.9 292.62,-289.49 340.8,-297.01"/>
<polygon fill="#63b8ff" stroke="#63b8ff" points="340.39,-300.49 350.8,-298.54 341.45,-293.57 340.39,-300.49"/>
</a>
</g>
</g>
<!-- Node5 -->
<g id="Node000005" class="node">
<title>Node5</title>
<g id="a_Node000005"><a xlink:href="namespacenetspeak_1_1util.html#a0f64660040077bd1ae3a46941a000b07" target="_top" xlink:title=" ">
<polygon fill="white" stroke="#666666" points="467,-240.5 352,-240.5 352,-221.5 467,-221.5 467,-240.5"/>
<text text-anchor="middle" x="409.5" y="-228.5" font-family="Helvetica,sans-Serif" font-size="10.00">netspeak::util::fread</text>
</a>
</g>
</g>
<!-- Node1&#45;&gt;Node5 -->
<g id="edge5_Node000001_Node000005" class="edge">
<title>Node1&#45;&gt;Node5</title>
<g id="a_edge5_Node000001_Node000005"><a xlink:title=" ">
<path fill="none" stroke="#63b8ff" d="M135.27,-212.52C194.96,-216.55 281.97,-222.44 341.68,-226.48"/>
<polygon fill="#63b8ff" stroke="#63b8ff" points="341.54,-229.98 351.76,-227.16 342.02,-222.99 341.54,-229.98"/>
</a>
</g>
</g>
<!-- Node6 -->
<g id="Node000006" class="node">
<title>Node6</title>
<g id="a_Node000006"><a xlink:href="namespacenetspeak_1_1util.html#a3015ae7c69935f843a1915958d0de042" target="_top" xlink:title=" ">
<polygon fill="white" stroke="#666666" points="467.5,-277.5 351.5,-277.5 351.5,-258.5 467.5,-258.5 467.5,-277.5"/>
<text text-anchor="middle" x="409.5" y="-265.5" font-family="Helvetica,sans-Serif" font-size="10.00">netspeak::util::fseek</text>
</a>
</g>
</g>
<!-- Node1&#45;&gt;Node6 -->
<g id="edge8_Node000001_Node000006" class="edge">
<title>Node1&#45;&gt;Node6</title>
<g id="a_edge8_Node000001_Node000006"><a xlink:title=" ">
<path fill="none" stroke="#63b8ff" d="M126.03,-223.03C140.64,-226.57 156.35,-230.14 171,-233 227.97,-244.12 293.25,-253.5 340.94,-259.74"/>
<polygon fill="#63b8ff" stroke="#63b8ff" points="340.77,-263.25 351.14,-261.07 341.67,-256.31 340.77,-263.25"/>
</a>
</g>
</g>
<!-- Node7 -->
<g id="Node000007" class="node">
<title>Node7</title>
<g id="a_Node000007"><a xlink:href="namespacenetspeak_1_1util.html#a40f06a45e10cacbbc067fdd36cb252b0" target="_top" xlink:title=" ">
<polygon fill="white" stroke="#666666" points="463.5,-106.5 355.5,-106.5 355.5,-87.5 463.5,-87.5 463.5,-106.5"/>
<text text-anchor="middle" x="409.5" y="-94.5" font-family="Helvetica,sans-Serif" font-size="10.00">netspeak::util::ftell</text>
</a>
</g>
</g>
<!-- Node1&#45;&gt;Node7 -->
<g id="edge11_Node000001_Node000007" class="edge">
<title>Node1&#45;&gt;Node7</title>
<g id="a_edge11_Node000001_Node000007"><a xlink:title=" ">
<path fill="none" stroke="#63b8ff" d="M99.89,-192.83C119.94,-183.48 146.65,-171.68 171,-163 234.04,-140.53 308.68,-120.89 357.23,-109"/>
<polygon fill="#63b8ff" stroke="#63b8ff" points="358.29,-112.34 367.18,-106.58 356.64,-105.54 358.29,-112.34"/>
</a>
</g>
</g>
<!-- Node8 -->
<g id="Node000008" class="node">
<title>Node8</title>
<g id="a_Node000008"><a xlink:href="namespacenetspeak_1_1util.html#ad2441a387c3a4c47e09c373e9412fad0" target="_top" xlink:title=" ">
<polygon fill="white" stroke="#666666" points="461.5,-69.5 357.5,-69.5 357.5,-50.5 461.5,-50.5 461.5,-69.5"/>
<text text-anchor="middle" x="409.5" y="-57.5" font-family="Helvetica,sans-Serif" font-size="10.00">netspeak::util::log</text>
</a>
</g>
</g>
<!-- Node1&#45;&gt;Node8 -->
<g id="edge14_Node000001_Node000008" class="edge">
<title>Node1&#45;&gt;Node8</title>
<g id="a_edge14_Node000001_Node000008"><a xlink:title=" ">
<path fill="none" stroke="#63b8ff" d="M81.44,-192.77C99.45,-172.57 134.03,-137.25 171,-118 226.82,-88.93 297.66,-74.08 347.39,-66.73"/>
<polygon fill="#63b8ff" stroke="#63b8ff" points="347.95,-70.18 357.36,-65.31 346.96,-63.25 347.95,-70.18"/>
</a>
</g>
</g>
<!-- Node11 -->
<g id="Node000011" class="node">
<title>Node11</title>
<g id="a_Node000011"><a xlink:href="classnetspeak_1_1invertedindex_1_1ByteBuffer.html#a2f5a59f9d290bd2116bbd73244666171" target="_top" xlink:title=" ">
<polygon fill="white" stroke="#666666" points="306,-202 171,-202 171,-172 306,-172 306,-202"/>
<text text-anchor="start" x="179" y="-190" font-family="Helvetica,sans-Serif" font-size="10.00">netspeak::invertedindex</text>
<text text-anchor="middle" x="238.5" y="-179" font-family="Helvetica,sans-Serif" font-size="10.00">::ByteBuffer::read</text>
</a>
</g>
</g>
<!-- Node1&#45;&gt;Node11 -->
<g id="edge19_Node000001_Node000011" class="edge">
<title>Node1&#45;&gt;Node11</title>
<g id="a_edge19_Node000001_Node000011"><a xlink:title=" ">
<path fill="none" stroke="#63b8ff" d="M135.29,-199.7C143.72,-198.65 152.38,-197.58 160.94,-196.51"/>
<polygon fill="#63b8ff" stroke="#63b8ff" points="161.42,-199.98 170.92,-195.27 160.56,-193.03 161.42,-199.98"/>
</a>
</g>
</g>
<!-- Node3 -->
<g id="Node000003" class="node">
<title>Node3</title>
<g id="a_Node000003"><a xlink:href="namespacenetspeak_1_1util.html#a4c91ad572508b4021399ac7dddff574d" target="_top" xlink:title=" ">
<polygon fill="white" stroke="#666666" points="781,-191.5 668,-191.5 668,-172.5 781,-172.5 781,-191.5"/>
<text text-anchor="middle" x="724.5" y="-179.5" font-family="Helvetica,sans-Serif" font-size="10.00">netspeak::util::hash</text>
</a>
</g>
</g>
<!-- Node2&#45;&gt;Node3 -->
<g id="edge2_Node000002_Node000003" class="edge">
<title>Node2&#45;&gt;Node3</title>
<g id="a_edge2_Node000002_Node000003"><a xlink:title=" ">
<path fill="none" stroke="#63b8ff" d="M468.05,-307.12C514.58,-305.81 580.58,-298.82 632,-273 666.16,-255.85 695.43,-221.14 711.16,-199.89"/>
<polygon fill="#63b8ff" stroke="#63b8ff" points="714.05,-201.86 717.04,-191.7 708.36,-197.78 714.05,-201.86"/>
</a>
</g>
</g>
<!-- Node4 -->
<g id="Node000004" class="node">
<title>Node4</title>
<g id="a_Node000004"><a xlink:href="namespacenetspeak_1_1util.html#af94d48fda5f335ddcb461a8237079866" target="_top" xlink:title=" ">
<polygon fill="white" stroke="#666666" points="632,-240 513,-240 513,-210 632,-210 632,-240"/>
<text text-anchor="start" x="521" y="-228" font-family="Helvetica,sans-Serif" font-size="10.00">netspeak::util::signal</text>
<text text-anchor="middle" x="572.5" y="-217" font-family="Helvetica,sans-Serif" font-size="10.00">_error</text>
</a>
</g>
</g>
<!-- Node2&#45;&gt;Node4 -->
<g id="edge3_Node000002_Node000004" class="edge">
<title>Node2&#45;&gt;Node4</title>
<g id="a_edge3_Node000002_Node000004"><a xlink:title=" ">
<path fill="none" stroke="#63b8ff" d="M451.29,-296.45C459.96,-293.85 468.92,-290.7 477,-287 500.92,-276.05 525.7,-259.56 543.88,-246.34"/>
<polygon fill="#63b8ff" stroke="#63b8ff" points="546.29,-248.92 552.25,-240.16 542.13,-243.29 546.29,-248.92"/>
</a>
</g>
</g>
<!-- Node4&#45;&gt;Node3 -->
<g id="edge4_Node000004_Node000003" class="edge">
<title>Node4&#45;&gt;Node3</title>
<g id="a_edge4_Node000004_Node000003"><a xlink:title=" ">
<path fill="none" stroke="#63b8ff" d="M625.96,-209.96C643.76,-204.86 663.42,-199.22 680.4,-194.35"/>
<polygon fill="#63b8ff" stroke="#63b8ff" points="681.41,-197.71 690.06,-191.59 679.48,-190.98 681.41,-197.71"/>
</a>
</g>
</g>
<!-- Node5&#45;&gt;Node3 -->
<g id="edge6_Node000005_Node000003" class="edge">
<title>Node5&#45;&gt;Node3</title>
<g id="a_edge6_Node000005_Node000003"><a xlink:title=" ">
<path fill="none" stroke="#63b8ff" d="M444.36,-221.45C454.84,-218.47 466.41,-215.13 477,-212 493.04,-207.26 496.58,-204.21 513,-201 560.91,-191.62 615.87,-186.86 657.61,-184.45"/>
<polygon fill="#63b8ff" stroke="#63b8ff" points="657.86,-187.94 667.66,-183.9 657.48,-180.95 657.86,-187.94"/>
</a>
</g>
</g>
<!-- Node5&#45;&gt;Node4 -->
<g id="edge7_Node000005_Node000004" class="edge">
<title>Node5&#45;&gt;Node4</title>
<g id="a_edge7_Node000005_Node000004"><a xlink:title=" ">
<path fill="none" stroke="#63b8ff" d="M467.26,-228.88C478.68,-228.46 490.79,-228.01 502.56,-227.57"/>
<polygon fill="#63b8ff" stroke="#63b8ff" points="502.94,-231.06 512.8,-227.19 502.68,-224.06 502.94,-231.06"/>
</a>
</g>
</g>
<!-- Node6&#45;&gt;Node3 -->
<g id="edge9_Node000006_Node000003" class="edge">
<title>Node6&#45;&gt;Node3</title>
<g id="a_edge9_Node000006_Node000003"><a xlink:title=" ">
<path fill="none" stroke="#63b8ff" d="M467.88,-271.44C513.73,-272.23 578.88,-268.92 632,-249 661.15,-238.07 689.2,-215.08 706.39,-199.1"/>
<polygon fill="#63b8ff" stroke="#63b8ff" points="709.1,-201.34 713.91,-191.9 704.26,-196.28 709.1,-201.34"/>
</a>
</g>
</g>
<!-- Node6&#45;&gt;Node4 -->
<g id="edge10_Node000006_Node000004" class="edge">
<title>Node6&#45;&gt;Node4</title>
<g id="a_edge10_Node000006_Node000004"><a xlink:title=" ">
<path fill="none" stroke="#63b8ff" d="M446.23,-258.46C463.67,-253.8 485.21,-248.05 505.49,-242.63"/>
<polygon fill="#63b8ff" stroke="#63b8ff" points="506.56,-245.97 515.31,-240.01 504.75,-239.21 506.56,-245.97"/>
</a>
</g>
</g>
<!-- Node7&#45;&gt;Node3 -->
<g id="edge12_Node000007_Node000003" class="edge">
<title>Node7&#45;&gt;Node3</title>
<g id="a_edge12_Node000007_Node000003"><a xlink:title=" ">
<path fill="none" stroke="#63b8ff" d="M445.49,-106.5C502.58,-122.01 615.68,-152.72 678.6,-169.81"/>
<polygon fill="#63b8ff" stroke="#63b8ff" points="677.68,-173.18 688.25,-172.43 679.52,-166.43 677.68,-173.18"/>
</a>
</g>
</g>
<!-- Node7&#45;&gt;Node4 -->
<g id="edge13_Node000007_Node000004" class="edge">
<title>Node7&#45;&gt;Node4</title>
<g id="a_edge13_Node000007_Node000004"><a xlink:title=" ">
<path fill="none" stroke="#63b8ff" d="M457.09,-106.52C464.06,-109 470.94,-112.11 477,-116 497.7,-129.27 496.91,-139.41 513,-158 525.8,-172.8 540.26,-189.36 551.6,-202.31"/>
<polygon fill="#63b8ff" stroke="#63b8ff" points="549,-204.65 558.22,-209.87 554.26,-200.04 549,-204.65"/>
</a>
</g>
</g>
<!-- Node8&#45;&gt;Node3 -->
<g id="edge16_Node000008_Node000003" class="edge">
<title>Node8&#45;&gt;Node3</title>
<g id="a_edge16_Node000008_Node000003"><a xlink:title=" ">
<path fill="none" stroke="#63b8ff" d="M446.87,-69.52C505.25,-84.89 615.06,-114.26 632,-122 658.28,-134.01 685.64,-152.93 703.51,-166.31"/>
<polygon fill="#63b8ff" stroke="#63b8ff" points="701.4,-169.1 711.47,-172.38 705.64,-163.53 701.4,-169.1"/>
</a>
</g>
</g>
<!-- Node9 -->
<g id="Node000009" class="node">
<title>Node9</title>
<g id="a_Node000009"><a xlink:href="namespacenetspeak_1_1util.html#ab27a22c787271513007af0719b17cef9" target="_top" xlink:title=" ">
<polygon fill="white" stroke="#666666" points="625,-78 520,-78 520,-48 625,-48 625,-78"/>
<text text-anchor="start" x="528" y="-66" font-family="Helvetica,sans-Serif" font-size="10.00">netspeak::util::get</text>
<text text-anchor="middle" x="572.5" y="-55" font-family="Helvetica,sans-Serif" font-size="10.00">_log_mutex</text>
</a>
</g>
</g>
<!-- Node8&#45;&gt;Node9 -->
<g id="edge15_Node000008_Node000009" class="edge">
<title>Node8&#45;&gt;Node9</title>
<g id="a_edge15_Node000008_Node000009"><a xlink:title=" ">
<path fill="none" stroke="#63b8ff" d="M461.88,-60.96C477.06,-61.24 493.83,-61.55 509.59,-61.85"/>
<polygon fill="#63b8ff" stroke="#63b8ff" points="509.71,-65.35 519.78,-62.04 509.84,-58.35 509.71,-65.35"/>
</a>
</g>
</g>
<!-- Node10 -->
<g id="Node000010" class="node">
<title>Node10</title>
<g id="a_Node000010"><a xlink:href="namespacenetspeak_1_1util.html#a93e18aaa529a497b6afdf4b3bd221182" target="_top" xlink:title=" ">
<polygon fill="white" stroke="#666666" points="628.5,-30 516.5,-30 516.5,0 628.5,0 628.5,-30"/>
<text text-anchor="start" x="524.5" y="-18" font-family="Helvetica,sans-Serif" font-size="10.00">netspeak::util::print</text>
<text text-anchor="middle" x="572.5" y="-7" font-family="Helvetica,sans-Serif" font-size="10.00">_timestamp_to</text>
</a>
</g>
</g>
<!-- Node8&#45;&gt;Node10 -->
<g id="edge17_Node000008_Node000010" class="edge">
<title>Node8&#45;&gt;Node10</title>
<g id="a_edge17_Node000008_Node000010"><a xlink:title=" ">
<path fill="none" stroke="#63b8ff" d="M444.64,-50.46C463.05,-45.31 486.37,-38.79 507.98,-32.75"/>
<polygon fill="#63b8ff" stroke="#63b8ff" points="509.07,-36.08 517.76,-30.02 507.19,-29.34 509.07,-36.08"/>
</a>
</g>
</g>
<!-- Node10&#45;&gt;Node3 -->
<g id="edge18_Node000010_Node000003" class="edge">
<title>Node10&#45;&gt;Node3</title>
<g id="a_edge18_Node000010_Node000003"><a xlink:title=" ">
<path fill="none" stroke="#63b8ff" d="M618.59,-30.1C623.37,-32.67 627.95,-35.62 632,-39 673.7,-73.8 702.78,-132.59 715.8,-162.81"/>
<polygon fill="#63b8ff" stroke="#63b8ff" points="712.64,-164.34 719.73,-172.22 719.1,-161.64 712.64,-164.34"/>
</a>
</g>
</g>
<!-- Node11&#45;&gt;Node5 -->
<g id="edge20_Node000011_Node000005" class="edge">
<title>Node11&#45;&gt;Node5</title>
<g id="a_edge20_Node000011_Node000005"><a xlink:title=" ">
<path fill="none" stroke="#63b8ff" d="M297.19,-202.02C318.37,-207.54 342.07,-213.7 362.13,-218.93"/>
<polygon fill="#63b8ff" stroke="#63b8ff" points="361.4,-222.36 371.96,-221.49 363.17,-215.58 361.4,-222.36"/>
</a>
</g>
</g>
<!-- Node12 -->
<g id="Node000012" class="node">
<title>Node12</title>
<g id="a_Node000012"><a xlink:href="classnetspeak_1_1invertedindex_1_1ByteBuffer.html#a109be725161102fab0e4b4ee0651491e" target="_top" xlink:title=" ">
<polygon fill="white" stroke="#666666" points="477,-155 342,-155 342,-125 477,-125 477,-155"/>
<text text-anchor="start" x="350" y="-143" font-family="Helvetica,sans-Serif" font-size="10.00">netspeak::invertedindex</text>
<text text-anchor="middle" x="409.5" y="-132" font-family="Helvetica,sans-Serif" font-size="10.00">::ByteBuffer::rewind</text>
</a>
</g>
</g>
<!-- Node11&#45;&gt;Node12 -->
<g id="edge21_Node000011_Node000012" class="edge">
<title>Node11&#45;&gt;Node12</title>
<g id="a_edge21_Node000011_Node000012"><a xlink:title=" ">
<path fill="none" stroke="#63b8ff" d="M293.44,-172C309.75,-167.46 327.82,-162.44 344.71,-157.74"/>
<polygon fill="#63b8ff" stroke="#63b8ff" points="345.8,-161.07 354.5,-155.02 343.92,-154.33 345.8,-161.07"/>
</a>
</g>
</g>
<!-- Node13 -->
<g id="Node000013" class="node">
<title>Node13</title>
<g id="a_Node000013"><a xlink:href="classnetspeak_1_1invertedindex_1_1ByteBuffer.html#ac7160f8bd36f86815662909c0722556f" target="_top" xlink:title=" ">
<polygon fill="white" stroke="#666666" points="477,-203 342,-203 342,-173 477,-173 477,-203"/>
<text text-anchor="start" x="350" y="-191" font-family="Helvetica,sans-Serif" font-size="10.00">netspeak::invertedindex</text>
<text text-anchor="middle" x="409.5" y="-180" font-family="Helvetica,sans-Serif" font-size="10.00">::ByteBuffer::size</text>
</a>
</g>
</g>
<!-- Node11&#45;&gt;Node13 -->
<g id="edge22_Node000011_Node000013" class="edge">
<title>Node11&#45;&gt;Node13</title>
<g id="a_edge22_Node000011_Node000013"><a xlink:title=" ">
<path fill="none" stroke="#63b8ff" d="M306.29,-187.4C314.62,-187.44 323.19,-187.5 331.66,-187.55"/>
<polygon fill="#63b8ff" stroke="#63b8ff" points="331.89,-191.05 341.92,-187.61 331.94,-184.05 331.89,-191.05"/>
</a>
</g>
</g>
</g>
</svg>
