<?xml version="1.0" encoding="UTF-8" standalone="no"?>
<!DOCTYPE svg PUBLIC "-//W3C//DTD SVG 1.1//EN"
 "http://www.w3.org/Graphics/SVG/1.1/DTD/svg11.dtd">
<!-- Generated by graphviz version 2.43.0 (0)
 -->
<!-- Title: netspeak::QuerySimplifier::plus_to_simple Pages: 1 -->
<svg width="354pt" height="182pt"
 viewBox="0.00 0.00 354.00 182.00" xmlns="http://www.w3.org/2000/svg" xmlns:xlink="http://www.w3.org/1999/xlink">
<g id="graph0" class="graph" transform="scale(1 1) rotate(0) translate(4 178)">
<title>netspeak::QuerySimplifier::plus_to_simple</title>
<!-- Node1 -->
<g id="Node000001" class="node">
<title>Node1</title>
<g id="a_Node000001"><a xlink:title=" ">
<polygon fill="#999999" stroke="#666666" points="143,-102 0,-102 0,-72 143,-72 143,-102"/>
<text text-anchor="start" x="8" y="-90" font-family="Helvetica,sans-Serif" font-size="10.00">netspeak::QuerySimplifier</text>
<text text-anchor="middle" x="71.5" y="-79" font-family="Helvetica,sans-Serif" font-size="10.00">::plus_to_simple</text>
</a>
</g>
</g>
<!-- Node2 -->
<g id="Node000002" class="node">
<title>Node2</title>
<g id="a_Node000002"><a xlink:href="classnetspeak_1_1model_1_1SimpleQueryUnit____.html#a42d698a0c2b81bb96d5efb842e0c09cd" target="_top" xlink:title=" ">
<polygon fill="white" stroke="#666666" points="346,-174 179,-174 179,-144 346,-144 346,-174"/>
<text text-anchor="start" x="187" y="-162" font-family="Helvetica,sans-Serif" font-size="10.00">netspeak::model::SimpleQuery</text>
<text text-anchor="middle" x="262.5" y="-151" font-family="Helvetica,sans-Serif" font-size="10.00">Unit__::new_concat</text>
</a>
</g>
</g>
<!-- Node1&#45;&gt;Node2 -->
<g id="edge1_Node000001_Node000002" class="edge">
<title>Node1&#45;&gt;Node2</title>
<g id="a_edge1_Node000001_Node000002"><a xlink:title=" ">
<path fill="none" stroke="#63b8ff" d="M102.79,-102.02C123.84,-112.13 152.74,-125.32 179,-135 184.47,-137.02 190.19,-138.98 195.96,-140.85"/>
<polygon fill="#63b8ff" stroke="#63b8ff" points="195.09,-144.25 205.68,-143.92 197.2,-137.57 195.09,-144.25"/>
</a>
</g>
</g>
<!-- Node3 -->
<g id="Node000003" class="node">
<title>Node3</title>
<g id="a_Node000003"><a xlink:href="classnetspeak_1_1model_1_1SimpleQueryUnit____.html#a44428178c9365d823c13fa04d5f9bad6" target="_top" xlink:title=" ">
<polygon fill="white" stroke="#666666" points="346,-126 179,-126 179,-96 346,-96 346,-126"/>
<text text-anchor="start" x="187" y="-114" font-family="Helvetica,sans-Serif" font-size="10.00">netspeak::model::SimpleQuery</text>
<text text-anchor="middle" x="262.5" y="-103" font-family="Helvetica,sans-Serif" font-size="10.00">Unit__::new_qmark</text>
</a>
</g>
</g>
<!-- Node1&#45;&gt;Node3 -->
<g id="edge2_Node000001_Node000003" class="edge">
<title>Node1&#45;&gt;Node3</title>
<g id="a_edge2_Node000001_Node000003"><a xlink:title=" ">
<path fill="none" stroke="#63b8ff" d="M143.15,-95.97C151.51,-97.03 160.14,-98.13 168.75,-99.22"/>
<polygon fill="#63b8ff" stroke="#63b8ff" points="168.48,-102.72 178.84,-100.5 169.36,-95.77 168.48,-102.72"/>
</a>
</g>
</g>
<!-- Node4 -->
<g id="Node000004" class="node">
<title>Node4</title>
<g id="a_Node000004"><a xlink:href="classnetspeak_1_1model_1_1SimpleQueryUnit____.html#a399342037a597b05de0369743456d22f" target="_top" xlink:title=" ">
<polygon fill="white" stroke="#666666" points="346,-78 179,-78 179,-48 346,-48 346,-78"/>
<text text-anchor="start" x="187" y="-66" font-family="Helvetica,sans-Serif" font-size="10.00">netspeak::model::SimpleQuery</text>
<text text-anchor="middle" x="262.5" y="-55" font-family="Helvetica,sans-Serif" font-size="10.00">Unit__::new_star</text>
</a>
</g>
</g>
<!-- Node1&#45;&gt;Node4 -->
<g id="edge3_Node000001_Node000004" class="edge">
<title>Node1&#45;&gt;Node4</title>
<g id="a_edge3_Node000001_Node000004"><a xlink:title=" ">
<path fill="none" stroke="#63b8ff" d="M143.15,-78.03C151.51,-76.97 160.14,-75.87 168.75,-74.78"/>
<polygon fill="#63b8ff" stroke="#63b8ff" points="169.36,-78.23 178.84,-73.5 168.48,-71.28 169.36,-78.23"/>
</a>
</g>
</g>
<!-- Node5 -->
<g id="Node000005" class="node">
<title>Node5</title>
<g id="a_Node000005"><a xlink:href="classnetspeak_1_1QuerySimplifier.html#a18ef84f764ae6f69b3cf33d616e6fc41" target="_top" xlink:title=" ">
<polygon fill="white" stroke="#666666" points="334,-30 191,-30 191,0 334,0 334,-30"/>
<text text-anchor="start" x="199" y="-18" font-family="Helvetica,sans-Serif" font-size="10.00">netspeak::QuerySimplifier</text>
<text text-anchor="middle" x="262.5" y="-7" font-family="Helvetica,sans-Serif" font-size="10.00">::to_source</text>
</a>
</g>
</g>
<!-- Node1&#45;&gt;Node5 -->
<g id="edge4_Node000001_Node000005" class="edge">
<title>Node1&#45;&gt;Node5</title>
<g id="a_edge4_Node000001_Node000005"><a xlink:title=" ">
<path fill="none" stroke="#63b8ff" d="M102.79,-71.98C123.84,-61.87 152.74,-48.68 179,-39 184.47,-36.98 190.19,-35.02 195.96,-33.15"/>
<polygon fill="#63b8ff" stroke="#63b8ff" points="197.2,-36.43 205.68,-30.08 195.09,-29.75 197.2,-36.43"/>
</a>
</g>
</g>
</g>
</svg>
