<?xml version="1.0" encoding="UTF-8" standalone="no"?>
<!DOCTYPE svg PUBLIC "-//W3C//DTD SVG 1.1//EN"
 "http://www.w3.org/Graphics/SVG/1.1/DTD/svg11.dtd">
<!-- Generated by graphviz version 2.43.0 (0)
 -->
<!-- Title: netspeak::invertedindex::ByteBuffer::size Pages: 1 -->
<svg width="888pt" height="400pt"
 viewBox="0.00 0.00 888.00 400.00" xmlns="http://www.w3.org/2000/svg" xmlns:xlink="http://www.w3.org/1999/xlink">
<g id="graph0" class="graph" transform="scale(1 1) rotate(0) translate(4 396)">
<title>netspeak::invertedindex::ByteBuffer::size</title>
<!-- Node1 -->
<g id="Node000001" class="node">
<title>Node1</title>
<g id="a_Node000001"><a xlink:title=" ">
<polygon fill="#999999" stroke="#666666" points="880,-219 745,-219 745,-189 880,-189 880,-219"/>
<text text-anchor="start" x="753" y="-207" font-family="Helvetica,sans-Serif" font-size="10.00">netspeak::invertedindex</text>
<text text-anchor="middle" x="812.5" y="-196" font-family="Helvetica,sans-Serif" font-size="10.00">::ByteBuffer::size</text>
</a>
</g>
</g>
<!-- Node2 -->
<g id="Node000002" class="node">
<title>Node2</title>
<g id="a_Node000002"><a xlink:href="classnetspeak_1_1invertedindex_1_1ByteBuffer.html#a123a9c595224694ecdc3b55ebcf058bc" target="_top" xlink:title=" ">
<polygon fill="white" stroke="#666666" points="708.5,-392 573.5,-392 573.5,-362 708.5,-362 708.5,-392"/>
<text text-anchor="start" x="581.5" y="-380" font-family="Helvetica,sans-Serif" font-size="10.00">netspeak::invertedindex</text>
<text text-anchor="middle" x="641" y="-369" font-family="Helvetica,sans-Serif" font-size="10.00">::ByteBuffer::clone</text>
</a>
</g>
</g>
<!-- Node1&#45;&gt;Node2 -->
<g id="edge1_Node000001_Node000002" class="edge">
<title>Node1&#45;&gt;Node2</title>
<g id="a_edge1_Node000001_Node000002"><a xlink:title=" ">
<path fill="none" stroke="#63b8ff" d="M800.5,-228.79C784.75,-261.63 752.74,-319.33 709,-353 704.59,-356.39 699.67,-359.33 694.54,-361.88"/>
<polygon fill="#63b8ff" stroke="#63b8ff" points="803.81,-229.99 804.87,-219.45 797.46,-227.03 803.81,-229.99"/>
</a>
</g>
</g>
<!-- Node3 -->
<g id="Node000003" class="node">
<title>Node3</title>
<g id="a_Node000003"><a xlink:href="structnetspeak_1_1invertedindex_1_1constant__size__iter.html#adfbbb4a2bf99dee1c71b10557370a656" target="_top" xlink:title=" ">
<polygon fill="white" stroke="#666666" points="708.5,-343.5 573.5,-343.5 573.5,-302.5 708.5,-302.5 708.5,-343.5"/>
<text text-anchor="start" x="581.5" y="-331.5" font-family="Helvetica,sans-Serif" font-size="10.00">netspeak::invertedindex</text>
<text text-anchor="start" x="581.5" y="-320.5" font-family="Helvetica,sans-Serif" font-size="10.00">::constant_size_iter::</text>
<text text-anchor="middle" x="641" y="-309.5" font-family="Helvetica,sans-Serif" font-size="10.00">constant_size_iter</text>
</a>
</g>
</g>
<!-- Node1&#45;&gt;Node3 -->
<g id="edge2_Node000001_Node000003" class="edge">
<title>Node1&#45;&gt;Node3</title>
<g id="a_edge2_Node000001_Node000003"><a xlink:title=" ">
<path fill="none" stroke="#63b8ff" d="M789.73,-226.31C769.96,-245.7 739.34,-273.64 709,-293 703.74,-296.36 698.03,-299.53 692.25,-302.47"/>
<polygon fill="#63b8ff" stroke="#63b8ff" points="792.38,-228.62 797,-219.08 787.44,-223.65 792.38,-228.62"/>
</a>
</g>
</g>
<!-- Node4 -->
<g id="Node000004" class="node">
<title>Node4</title>
<g id="a_Node000004"><a xlink:href="structnetspeak_1_1invertedindex_1_1page__type.html#a377db12b685a7deefdb5b129743c3251" target="_top" xlink:title=" ">
<polygon fill="white" stroke="#666666" points="708.5,-284 573.5,-284 573.5,-254 708.5,-254 708.5,-284"/>
<text text-anchor="start" x="581.5" y="-272" font-family="Helvetica,sans-Serif" font-size="10.00">netspeak::invertedindex</text>
<text text-anchor="middle" x="641" y="-261" font-family="Helvetica,sans-Serif" font-size="10.00">::page_type::print</text>
</a>
</g>
</g>
<!-- Node1&#45;&gt;Node4 -->
<g id="edge3_Node000001_Node000004" class="edge">
<title>Node1&#45;&gt;Node4</title>
<g id="a_edge3_Node000001_Node000004"><a xlink:title=" ">
<path fill="none" stroke="#63b8ff" d="M762.6,-222.75C736.81,-232.64 705.6,-244.61 681.39,-253.89"/>
<polygon fill="#63b8ff" stroke="#63b8ff" points="764.1,-225.92 772.19,-219.08 761.6,-219.39 764.1,-225.92"/>
</a>
</g>
</g>
<!-- Node7 -->
<g id="Node000007" class="node">
<title>Node7</title>
<g id="a_Node000007"><a xlink:href="classnetspeak_1_1invertedindex_1_1ByteBuffer.html#a2f5a59f9d290bd2116bbd73244666171" target="_top" xlink:title=" ">
<polygon fill="white" stroke="#666666" points="708.5,-150 573.5,-150 573.5,-120 708.5,-120 708.5,-150"/>
<text text-anchor="start" x="581.5" y="-138" font-family="Helvetica,sans-Serif" font-size="10.00">netspeak::invertedindex</text>
<text text-anchor="middle" x="641" y="-127" font-family="Helvetica,sans-Serif" font-size="10.00">::ByteBuffer::read</text>
</a>
</g>
</g>
<!-- Node1&#45;&gt;Node7 -->
<g id="edge6_Node000001_Node000007" class="edge">
<title>Node1&#45;&gt;Node7</title>
<g id="a_edge6_Node000001_Node000007"><a xlink:title=" ">
<path fill="none" stroke="#63b8ff" d="M769.24,-184.66C750.86,-176.45 728.99,-166.96 709,-159 701.42,-155.98 693.3,-152.93 685.42,-150.05"/>
<polygon fill="#63b8ff" stroke="#63b8ff" points="767.95,-187.91 778.51,-188.82 770.82,-181.53 767.95,-187.91"/>
</a>
</g>
</g>
<!-- Node18 -->
<g id="Node000018" class="node">
<title>Node18</title>
<g id="a_Node000018"><a xlink:href="structnetspeak_1_1invertedindex_1_1ByteBuffer_1_1buffer__type.html#aa8233478b60164367fa2c775fd83c811" target="_top" xlink:title=" ">
<polygon fill="white" stroke="#666666" points="709,-63.5 573,-63.5 573,-22.5 709,-22.5 709,-63.5"/>
<text text-anchor="start" x="581" y="-51.5" font-family="Helvetica,sans-Serif" font-size="10.00">netspeak::invertedindex</text>
<text text-anchor="start" x="581" y="-40.5" font-family="Helvetica,sans-Serif" font-size="10.00">::ByteBuffer::buffer_type</text>
<text text-anchor="middle" x="641" y="-29.5" font-family="Helvetica,sans-Serif" font-size="10.00">::resize</text>
</a>
</g>
</g>
<!-- Node1&#45;&gt;Node18 -->
<g id="edge17_Node000001_Node000018" class="edge">
<title>Node1&#45;&gt;Node18</title>
<g id="a_edge17_Node000001_Node000018"><a xlink:title=" ">
<path fill="none" stroke="#63b8ff" d="M796.5,-180.19C778.38,-152.86 745.7,-107.96 709,-78 702.49,-72.69 695.05,-67.85 687.55,-63.57"/>
<polygon fill="#63b8ff" stroke="#63b8ff" points="793.68,-182.28 802.08,-188.74 799.55,-178.45 793.68,-182.28"/>
</a>
</g>
</g>
<!-- Node19 -->
<g id="Node000019" class="node">
<title>Node19</title>
<g id="a_Node000019"><a xlink:href="classnetspeak_1_1invertedindex_1_1ByteBuffer.html#ab83184815805ed4606aa924eb9a6f42c" target="_top" xlink:title=" ">
<polygon fill="white" stroke="#666666" points="708.5,-198 573.5,-198 573.5,-168 708.5,-168 708.5,-198"/>
<text text-anchor="start" x="581.5" y="-186" font-family="Helvetica,sans-Serif" font-size="10.00">netspeak::invertedindex</text>
<text text-anchor="middle" x="641" y="-175" font-family="Helvetica,sans-Serif" font-size="10.00">::ByteBuffer::resize</text>
</a>
</g>
</g>
<!-- Node1&#45;&gt;Node19 -->
<g id="edge18_Node000001_Node000019" class="edge">
<title>Node1&#45;&gt;Node19</title>
<g id="a_edge18_Node000001_Node000019"><a xlink:title=" ">
<path fill="none" stroke="#63b8ff" d="M734.8,-194.5C726.05,-193.41 717.19,-192.32 708.59,-191.25"/>
<polygon fill="#63b8ff" stroke="#63b8ff" points="734.64,-198 745,-195.76 735.5,-191.06 734.64,-198"/>
</a>
</g>
</g>
<!-- Node20 -->
<g id="Node000020" class="node">
<title>Node20</title>
<g id="a_Node000020"><a xlink:href="classnetspeak_1_1invertedindex_1_1ByteBuffer.html#aa4bd7f0747700d422b5fe2dbd19b8eda" target="_top" xlink:title=" ">
<polygon fill="white" stroke="#666666" points="533,-246 398,-246 398,-216 533,-216 533,-246"/>
<text text-anchor="start" x="406" y="-234" font-family="Helvetica,sans-Serif" font-size="10.00">netspeak::invertedindex</text>
<text text-anchor="middle" x="465.5" y="-223" font-family="Helvetica,sans-Serif" font-size="10.00">::ByteBuffer::seek</text>
</a>
</g>
</g>
<!-- Node1&#45;&gt;Node20 -->
<g id="edge21_Node000001_Node000020" class="edge">
<title>Node1&#45;&gt;Node20</title>
<g id="a_edge21_Node000001_Node000020"><a xlink:title=" ">
<path fill="none" stroke="#63b8ff" d="M734.72,-210.01C674.25,-214.74 590.79,-221.27 533.11,-225.79"/>
<polygon fill="#63b8ff" stroke="#63b8ff" points="735.28,-213.48 744.98,-209.21 734.74,-206.5 735.28,-213.48"/>
</a>
</g>
</g>
<!-- Node21 -->
<g id="Node000021" class="node">
<title>Node21</title>
<g id="a_Node000021"><a xlink:href="classnetspeak_1_1invertedindex_1_1ByteBuffer.html#aa1d97fc0d4ab34140ed20f41ad28ec49" target="_top" xlink:title=" ">
<polygon fill="white" stroke="#666666" points="533,-102 398,-102 398,-72 533,-72 533,-102"/>
<text text-anchor="start" x="406" y="-90" font-family="Helvetica,sans-Serif" font-size="10.00">netspeak::invertedindex</text>
<text text-anchor="middle" x="465.5" y="-79" font-family="Helvetica,sans-Serif" font-size="10.00">::ByteBuffer::write</text>
</a>
</g>
</g>
<!-- Node1&#45;&gt;Node21 -->
<g id="edge24_Node000001_Node000021" class="edge">
<title>Node1&#45;&gt;Node21</title>
<g id="a_edge24_Node000001_Node000021"><a xlink:title=" ">
<path fill="none" stroke="#63b8ff" d="M793.76,-180.99C775.24,-158.87 744.05,-126.56 709,-111 653.32,-86.28 583.55,-81.78 533.16,-82.57"/>
<polygon fill="#63b8ff" stroke="#63b8ff" points="791.18,-183.38 800.21,-188.92 796.61,-178.95 791.18,-183.38"/>
</a>
</g>
</g>
<!-- Node5 -->
<g id="Node000005" class="node">
<title>Node5</title>
<g id="a_Node000005"><a xlink:href="namespacenetspeak_1_1invertedindex.html#a72254fb87c37471cf0db36e534c14d02" target="_top" xlink:title=" ">
<polygon fill="white" stroke="#666666" points="533,-294 398,-294 398,-264 533,-264 533,-294"/>
<text text-anchor="start" x="406" y="-282" font-family="Helvetica,sans-Serif" font-size="10.00">netspeak::invertedindex</text>
<text text-anchor="middle" x="465.5" y="-271" font-family="Helvetica,sans-Serif" font-size="10.00">::operator&lt;&lt;</text>
</a>
</g>
</g>
<!-- Node4&#45;&gt;Node5 -->
<g id="edge4_Node000004_Node000005" class="edge">
<title>Node4&#45;&gt;Node5</title>
<g id="a_edge4_Node000004_Node000005"><a xlink:title=" ">
<path fill="none" stroke="#63b8ff" d="M563.42,-273.41C553.35,-273.99 543.09,-274.59 533.19,-275.16"/>
<polygon fill="#63b8ff" stroke="#63b8ff" points="563.63,-276.91 573.42,-272.84 563.23,-269.92 563.63,-276.91"/>
</a>
</g>
</g>
<!-- Node6 -->
<g id="Node000006" class="node">
<title>Node6</title>
<g id="a_Node000006"><a xlink:href="structnetspeak_1_1invertedindex_1_1iterator__type.html#a0de824f39e7006c4ae1e3002d1013c36" target="_top" xlink:title=" ">
<polygon fill="white" stroke="#666666" points="533,-342 398,-342 398,-312 533,-312 533,-342"/>
<text text-anchor="start" x="406" y="-330" font-family="Helvetica,sans-Serif" font-size="10.00">netspeak::invertedindex</text>
<text text-anchor="middle" x="465.5" y="-319" font-family="Helvetica,sans-Serif" font-size="10.00">::iterator_type::print</text>
</a>
</g>
</g>
<!-- Node4&#45;&gt;Node6 -->
<g id="edge5_Node000004_Node000006" class="edge">
<title>Node4&#45;&gt;Node6</title>
<g id="a_edge5_Node000004_Node000006"><a xlink:title=" ">
<path fill="none" stroke="#63b8ff" d="M585.27,-287.3C561.49,-295.25 533.96,-304.45 511.41,-311.99"/>
<polygon fill="#63b8ff" stroke="#63b8ff" points="586.49,-290.58 594.87,-284.09 584.27,-283.94 586.49,-290.58"/>
</a>
</g>
</g>
<!-- Node8 -->
<g id="Node000008" class="node">
<title>Node8</title>
<g id="a_Node000008"><a xlink:href="classnetspeak_1_1invertedindex_1_1PostlistReader.html#a842a92ec19eeecf74c7a8ae80e1ee1af" target="_top" xlink:title=" ">
<polygon fill="white" stroke="#666666" points="533,-54 398,-54 398,-24 533,-24 533,-54"/>
<text text-anchor="start" x="406" y="-42" font-family="Helvetica,sans-Serif" font-size="10.00">netspeak::invertedindex</text>
<text text-anchor="middle" x="465.5" y="-31" font-family="Helvetica,sans-Serif" font-size="10.00">::PostlistReader::read</text>
</a>
</g>
</g>
<!-- Node7&#45;&gt;Node8 -->
<g id="edge7_Node000007_Node000008" class="edge">
<title>Node7&#45;&gt;Node8</title>
<g id="a_edge7_Node000007_Node000008"><a xlink:title=" ">
<path fill="none" stroke="#63b8ff" d="M613.62,-113.42C593.56,-97.81 564.76,-77.07 537,-63 530.54,-59.73 523.54,-56.74 516.53,-54.06"/>
<polygon fill="#63b8ff" stroke="#63b8ff" points="611.64,-116.31 621.66,-119.76 615.97,-110.82 611.64,-116.31"/>
</a>
</g>
</g>
<!-- Node12 -->
<g id="Node000012" class="node">
<title>Node12</title>
<g id="a_Node000012"><a xlink:href="structnetspeak_1_1invertedindex_1_1constant__size__iter.html#a8c043bcbf0384d03394ab5ced5fc0feb" target="_top" xlink:title=" ">
<polygon fill="white" stroke="#666666" points="537,-150 394,-150 394,-120 537,-120 537,-150"/>
<text text-anchor="start" x="402" y="-138" font-family="Helvetica,sans-Serif" font-size="10.00">netspeak::invertedindex</text>
<text text-anchor="middle" x="465.5" y="-127" font-family="Helvetica,sans-Serif" font-size="10.00">::constant_size_iter::swap</text>
</a>
</g>
</g>
<!-- Node7&#45;&gt;Node12 -->
<g id="edge11_Node000007_Node000012" class="edge">
<title>Node7&#45;&gt;Node12</title>
<g id="a_edge11_Node000007_Node000012"><a xlink:title=" ">
<path fill="none" stroke="#63b8ff" d="M563.31,-135C554.64,-135 545.82,-135 537.23,-135"/>
<polygon fill="#63b8ff" stroke="#63b8ff" points="563.42,-138.5 573.42,-135 563.42,-131.5 563.42,-138.5"/>
</a>
</g>
</g>
<!-- Node15 -->
<g id="Node000015" class="node">
<title>Node15</title>
<g id="a_Node000015"><a xlink:href="structnetspeak_1_1invertedindex_1_1variable__size__iter.html#a84f326125a36a1055b2c34923767737d" target="_top" xlink:title=" ">
<polygon fill="white" stroke="#666666" points="535.5,-198 395.5,-198 395.5,-168 535.5,-168 535.5,-198"/>
<text text-anchor="start" x="403.5" y="-186" font-family="Helvetica,sans-Serif" font-size="10.00">netspeak::invertedindex</text>
<text text-anchor="middle" x="465.5" y="-175" font-family="Helvetica,sans-Serif" font-size="10.00">::variable_size_iter::swap</text>
</a>
</g>
</g>
<!-- Node7&#45;&gt;Node15 -->
<g id="edge14_Node000007_Node000015" class="edge">
<title>Node7&#45;&gt;Node15</title>
<g id="a_edge14_Node000007_Node000015"><a xlink:title=" ">
<path fill="none" stroke="#63b8ff" d="M575.7,-152.79C557.63,-157.79 538.15,-163.18 520.73,-168"/>
<polygon fill="#63b8ff" stroke="#63b8ff" points="576.87,-156.1 585.58,-150.06 575.01,-149.35 576.87,-156.1"/>
</a>
</g>
</g>
<!-- Node9 -->
<g id="Node000009" class="node">
<title>Node9</title>
<g id="a_Node000009"><a xlink:href="classnetspeak_1_1invertedindex_1_1StorageReader.html#a17bfa1d64575d331ae0a95bc4188005b" target="_top" xlink:title=" ">
<polygon fill="white" stroke="#666666" points="358,-54 197,-54 197,-24 358,-24 358,-54"/>
<text text-anchor="start" x="205" y="-42" font-family="Helvetica,sans-Serif" font-size="10.00">netspeak::invertedindex</text>
<text text-anchor="middle" x="277.5" y="-31" font-family="Helvetica,sans-Serif" font-size="10.00">::StorageReader::ReadPostlist</text>
</a>
</g>
</g>
<!-- Node8&#45;&gt;Node9 -->
<g id="edge8_Node000008_Node000009" class="edge">
<title>Node8&#45;&gt;Node9</title>
<g id="a_edge8_Node000008_Node000009"><a xlink:title=" ">
<path fill="none" stroke="#63b8ff" d="M387.83,-39C378.09,-39 368.1,-39 358.31,-39"/>
<polygon fill="#63b8ff" stroke="#63b8ff" points="387.88,-42.5 397.88,-39 387.88,-35.5 387.88,-42.5"/>
</a>
</g>
</g>
<!-- Node10 -->
<g id="Node000010" class="node">
<title>Node10</title>
<g id="a_Node000010"><a xlink:href="classnetspeak_1_1invertedindex_1_1StorageReader.html#ab6e2061d842d4fd8d35fc000fedd41c2" target="_top" xlink:title=" ">
<polygon fill="white" stroke="#666666" points="161,-78 0,-78 0,-48 161,-48 161,-78"/>
<text text-anchor="start" x="8" y="-66" font-family="Helvetica,sans-Serif" font-size="10.00">netspeak::invertedindex</text>
<text text-anchor="middle" x="80.5" y="-55" font-family="Helvetica,sans-Serif" font-size="10.00">::StorageReader::ReadPostlist</text>
</a>
</g>
</g>
<!-- Node9&#45;&gt;Node10 -->
<g id="edge9_Node000009_Node000010" class="edge">
<title>Node9&#45;&gt;Node10</title>
<g id="a_edge9_Node000009_Node000010"><a xlink:title=" ">
<path fill="none" stroke="#63b8ff" d="M186.88,-50.03C178.3,-51.09 169.64,-52.15 161.16,-53.2"/>
<polygon fill="#63b8ff" stroke="#63b8ff" points="187.41,-53.49 196.9,-48.8 186.55,-46.54 187.41,-53.49"/>
</a>
</g>
</g>
<!-- Node11 -->
<g id="Node000011" class="node">
<title>Node11</title>
<g id="a_Node000011"><a xlink:href="classnetspeak_1_1invertedindex_1_1StorageReader.html#a529c086e636606ac8adc5a72abfe57f5" target="_top" xlink:title=" ">
<polygon fill="white" stroke="#666666" points="161,-30 0,-30 0,0 161,0 161,-30"/>
<text text-anchor="start" x="8" y="-18" font-family="Helvetica,sans-Serif" font-size="10.00">netspeak::invertedindex</text>
<text text-anchor="middle" x="80.5" y="-7" font-family="Helvetica,sans-Serif" font-size="10.00">::StorageReader::ReadPostlist</text>
</a>
</g>
</g>
<!-- Node9&#45;&gt;Node11 -->
<g id="edge10_Node000009_Node000011" class="edge">
<title>Node9&#45;&gt;Node11</title>
<g id="a_edge10_Node000009_Node000011"><a xlink:title=" ">
<path fill="none" stroke="#63b8ff" d="M186.88,-27.97C178.3,-26.91 169.64,-25.85 161.16,-24.8"/>
<polygon fill="#63b8ff" stroke="#63b8ff" points="186.55,-31.46 196.9,-29.2 187.41,-24.51 186.55,-31.46"/>
</a>
</g>
</g>
<!-- Node13 -->
<g id="Node000013" class="node">
<title>Node13</title>
<g id="a_Node000013"><a xlink:href="structnetspeak_1_1invertedindex_1_1constant__size__iter.html#abe8fd3fe3fbaf005c166068116dffdc8" target="_top" xlink:title=" ">
<polygon fill="white" stroke="#666666" points="347,-198 208,-198 208,-168 347,-168 347,-198"/>
<text text-anchor="start" x="216" y="-186" font-family="Helvetica,sans-Serif" font-size="10.00">netspeak::invertedindex</text>
<text text-anchor="middle" x="277.5" y="-175" font-family="Helvetica,sans-Serif" font-size="10.00">::constant_size_iter::next</text>
</a>
</g>
</g>
<!-- Node12&#45;&gt;Node13 -->
<g id="edge12_Node000012_Node000013" class="edge">
<title>Node12&#45;&gt;Node13</title>
<g id="a_edge12_Node000012_Node000013"><a xlink:title=" ">
<path fill="none" stroke="#63b8ff" d="M396.38,-152.58C376.77,-157.64 355.58,-163.11 336.63,-168"/>
<polygon fill="#63b8ff" stroke="#63b8ff" points="397.35,-155.94 406.16,-150.06 395.6,-149.17 397.35,-155.94"/>
</a>
</g>
</g>
<!-- Node14 -->
<g id="Node000014" class="node">
<title>Node14</title>
<g id="a_Node000014"><a xlink:href="structnetspeak_1_1invertedindex_1_1constant__size__iter.html#ad1b3b0bc3cf09bc8098287d3163a2d9f" target="_top" xlink:title=" ">
<polygon fill="white" stroke="#666666" points="348.5,-102 206.5,-102 206.5,-72 348.5,-72 348.5,-102"/>
<text text-anchor="start" x="214.5" y="-90" font-family="Helvetica,sans-Serif" font-size="10.00">netspeak::invertedindex</text>
<text text-anchor="middle" x="277.5" y="-79" font-family="Helvetica,sans-Serif" font-size="10.00">::constant_size_iter::write</text>
</a>
</g>
</g>
<!-- Node12&#45;&gt;Node14 -->
<g id="edge13_Node000012_Node000014" class="edge">
<title>Node12&#45;&gt;Node14</title>
<g id="a_edge13_Node000012_Node000014"><a xlink:title=" ">
<path fill="none" stroke="#63b8ff" d="M396.38,-117.42C376.77,-112.36 355.58,-106.89 336.63,-102"/>
<polygon fill="#63b8ff" stroke="#63b8ff" points="395.6,-120.83 406.16,-119.94 397.35,-114.06 395.6,-120.83"/>
</a>
</g>
</g>
<!-- Node16 -->
<g id="Node000016" class="node">
<title>Node16</title>
<g id="a_Node000016"><a xlink:href="structnetspeak_1_1invertedindex_1_1variable__size__iter.html#accad1a29b6fa4e264f6de1ab478828b2" target="_top" xlink:title=" ">
<polygon fill="white" stroke="#666666" points="346,-246 209,-246 209,-216 346,-216 346,-246"/>
<text text-anchor="start" x="217" y="-234" font-family="Helvetica,sans-Serif" font-size="10.00">netspeak::invertedindex</text>
<text text-anchor="middle" x="277.5" y="-223" font-family="Helvetica,sans-Serif" font-size="10.00">::variable_size_iter::next</text>
</a>
</g>
</g>
<!-- Node15&#45;&gt;Node16 -->
<g id="edge15_Node000015_Node000016" class="edge">
<title>Node15&#45;&gt;Node16</title>
<g id="a_edge15_Node000015_Node000016"><a xlink:title=" ">
<path fill="none" stroke="#63b8ff" d="M396.38,-200.58C376.77,-205.64 355.58,-211.11 336.63,-216"/>
<polygon fill="#63b8ff" stroke="#63b8ff" points="397.35,-203.94 406.16,-198.06 395.6,-197.17 397.35,-203.94"/>
</a>
</g>
</g>
<!-- Node17 -->
<g id="Node000017" class="node">
<title>Node17</title>
<g id="a_Node000017"><a xlink:href="structnetspeak_1_1invertedindex_1_1variable__size__iter.html#ac34d912dfd281b76d060021c24c9fc63" target="_top" xlink:title=" ">
<polygon fill="white" stroke="#666666" points="347.5,-150 207.5,-150 207.5,-120 347.5,-120 347.5,-150"/>
<text text-anchor="start" x="215.5" y="-138" font-family="Helvetica,sans-Serif" font-size="10.00">netspeak::invertedindex</text>
<text text-anchor="middle" x="277.5" y="-127" font-family="Helvetica,sans-Serif" font-size="10.00">::variable_size_iter::write</text>
</a>
</g>
</g>
<!-- Node15&#45;&gt;Node17 -->
<g id="edge16_Node000015_Node000017" class="edge">
<title>Node15&#45;&gt;Node17</title>
<g id="a_edge16_Node000015_Node000017"><a xlink:title=" ">
<path fill="none" stroke="#63b8ff" d="M396.38,-165.42C376.77,-160.36 355.58,-154.89 336.63,-150"/>
<polygon fill="#63b8ff" stroke="#63b8ff" points="395.6,-168.83 406.16,-167.94 397.35,-162.06 395.6,-168.83"/>
</a>
</g>
</g>
<!-- Node19&#45;&gt;Node12 -->
<g id="edge19_Node000019_Node000012" class="edge">
<title>Node19&#45;&gt;Node12</title>
<g id="a_edge19_Node000019_Node000012"><a xlink:title=" ">
<path fill="none" stroke="#63b8ff" d="M575.7,-165.21C557.63,-160.21 538.15,-154.82 520.73,-150"/>
<polygon fill="#63b8ff" stroke="#63b8ff" points="575.01,-168.65 585.58,-167.94 576.87,-161.9 575.01,-168.65"/>
</a>
</g>
</g>
<!-- Node19&#45;&gt;Node15 -->
<g id="edge20_Node000019_Node000015" class="edge">
<title>Node19&#45;&gt;Node15</title>
<g id="a_edge20_Node000019_Node000015"><a xlink:title=" ">
<path fill="none" stroke="#63b8ff" d="M563.2,-183C554.07,-183 544.79,-183 535.78,-183"/>
<polygon fill="#63b8ff" stroke="#63b8ff" points="563.42,-186.5 573.42,-183 563.42,-179.5 563.42,-186.5"/>
</a>
</g>
</g>
<!-- Node20&#45;&gt;Node13 -->
<g id="edge22_Node000020_Node000013" class="edge">
<title>Node20&#45;&gt;Node13</title>
<g id="a_edge22_Node000020_Node000013"><a xlink:title=" ">
<path fill="none" stroke="#63b8ff" d="M396.38,-213.42C376.77,-208.36 355.58,-202.89 336.63,-198"/>
<polygon fill="#63b8ff" stroke="#63b8ff" points="395.6,-216.83 406.16,-215.94 397.35,-210.06 395.6,-216.83"/>
</a>
</g>
</g>
<!-- Node20&#45;&gt;Node16 -->
<g id="edge23_Node000020_Node000016" class="edge">
<title>Node20&#45;&gt;Node16</title>
<g id="a_edge23_Node000020_Node000016"><a xlink:title=" ">
<path fill="none" stroke="#63b8ff" d="M387.51,-231C373.82,-231 359.64,-231 346.22,-231"/>
<polygon fill="#63b8ff" stroke="#63b8ff" points="387.88,-234.5 397.88,-231 387.88,-227.5 387.88,-234.5"/>
</a>
</g>
</g>
<!-- Node21&#45;&gt;Node14 -->
<g id="edge25_Node000021_Node000014" class="edge">
<title>Node21&#45;&gt;Node14</title>
<g id="a_edge25_Node000021_Node000014"><a xlink:title=" ">
<path fill="none" stroke="#63b8ff" d="M387.65,-87C374.77,-87 361.45,-87 348.74,-87"/>
<polygon fill="#63b8ff" stroke="#63b8ff" points="387.88,-90.5 397.88,-87 387.88,-83.5 387.88,-90.5"/>
</a>
</g>
</g>
<!-- Node21&#45;&gt;Node17 -->
<g id="edge26_Node000021_Node000017" class="edge">
<title>Node21&#45;&gt;Node17</title>
<g id="a_edge26_Node000021_Node000017"><a xlink:title=" ">
<path fill="none" stroke="#63b8ff" d="M396.38,-104.58C376.77,-109.64 355.58,-115.11 336.63,-120"/>
<polygon fill="#63b8ff" stroke="#63b8ff" points="397.35,-107.94 406.16,-102.06 395.6,-101.17 397.35,-107.94"/>
</a>
</g>
</g>
</g>
</svg>
