<?xml version="1.0" encoding="UTF-8" standalone="no"?>
<!DOCTYPE svg PUBLIC "-//W3C//DTD SVG 1.1//EN"
 "http://www.w3.org/Graphics/SVG/1.1/DTD/svg11.dtd">
<!-- Generated by graphviz version 2.43.0 (0)
 -->
<!-- Title: netspeak::invertedindex::IndexStrategy::config Pages: 1 -->
<svg width="517pt" height="250pt"
 viewBox="0.00 0.00 517.00 250.00" xmlns="http://www.w3.org/2000/svg" xmlns:xlink="http://www.w3.org/1999/xlink">
<g id="graph0" class="graph" transform="scale(1 1) rotate(0) translate(4 246)">
<title>netspeak::invertedindex::IndexStrategy::config</title>
<!-- Node1 -->
<g id="Node000001" class="node">
<title>Node1</title>
<g id="a_Node000001"><a xlink:title=" ">
<polygon fill="#999999" stroke="#666666" points="509,-156 374,-156 374,-126 509,-126 509,-156"/>
<text text-anchor="start" x="382" y="-144" font-family="Helvetica,sans-Serif" font-size="10.00">netspeak::invertedindex</text>
<text text-anchor="middle" x="441.5" y="-133" font-family="Helvetica,sans-Serif" font-size="10.00">::IndexStrategy::config</text>
</a>
</g>
</g>
<!-- Node2 -->
<g id="Node000002" class="node">
<title>Node2</title>
<g id="a_Node000002"><a xlink:href="classnetspeak_1_1invertedindex_1_1UnsortedInput.html#a3bf52078c65c198e542a3e16d42eff20" target="_top" xlink:title=" ">
<polygon fill="white" stroke="#666666" points="322,-242 187,-242 187,-212 322,-212 322,-242"/>
<text text-anchor="start" x="195" y="-230" font-family="Helvetica,sans-Serif" font-size="10.00">netspeak::invertedindex</text>
<text text-anchor="middle" x="254.5" y="-219" font-family="Helvetica,sans-Serif" font-size="10.00">::UnsortedInput::index</text>
</a>
</g>
</g>
<!-- Node1&#45;&gt;Node2 -->
<g id="edge1_Node000001_Node000002" class="edge">
<title>Node1&#45;&gt;Node2</title>
<g id="a_edge1_Node000001_Node000002"><a xlink:title=" ">
<path fill="none" stroke="#63b8ff" d="M407.63,-161.15C387.88,-172.79 361.99,-187.21 338,-198 326.79,-203.05 314.41,-207.8 302.73,-211.95"/>
<polygon fill="#63b8ff" stroke="#63b8ff" points="409.45,-164.15 416.25,-156.03 405.87,-158.13 409.45,-164.15"/>
</a>
</g>
</g>
<!-- Node3 -->
<g id="Node000003" class="node">
<title>Node3</title>
<g id="a_Node000003"><a xlink:href="classnetspeak_1_1invertedindex_1_1UnsortedInput.html#a14d1dabae0597d0f84e11d9f97eda34e" target="_top" xlink:title=" ">
<polygon fill="white" stroke="#666666" points="135,-177 0,-177 0,-147 135,-147 135,-177"/>
<text text-anchor="start" x="8" y="-165" font-family="Helvetica,sans-Serif" font-size="10.00">netspeak::invertedindex</text>
<text text-anchor="middle" x="67.5" y="-154" font-family="Helvetica,sans-Serif" font-size="10.00">::UnsortedInput::insert_</text>
</a>
</g>
</g>
<!-- Node1&#45;&gt;Node3 -->
<g id="edge2_Node000001_Node000003" class="edge">
<title>Node1&#45;&gt;Node3</title>
<g id="a_edge2_Node000001_Node000003"><a xlink:title=" ">
<path fill="none" stroke="#63b8ff" d="M376.62,-158.34C363.92,-161.11 350.61,-163.54 338,-165 269.21,-172.95 189.88,-170.7 135.19,-167.39"/>
<polygon fill="#63b8ff" stroke="#63b8ff" points="377.68,-161.69 386.65,-156.06 376.12,-154.86 377.68,-161.69"/>
</a>
</g>
</g>
<!-- Node4 -->
<g id="Node000004" class="node">
<title>Node4</title>
<g id="a_Node000004"><a xlink:href="classnetspeak_1_1invertedindex_1_1UnsortedInput.html#abb4d4db8952dbc7771f13d7ea978ada7" target="_top" xlink:title=" ">
<polygon fill="white" stroke="#666666" points="322.5,-156 186.5,-156 186.5,-126 322.5,-126 322.5,-156"/>
<text text-anchor="start" x="194.5" y="-144" font-family="Helvetica,sans-Serif" font-size="10.00">netspeak::invertedindex</text>
<text text-anchor="middle" x="254.5" y="-133" font-family="Helvetica,sans-Serif" font-size="10.00">::UnsortedInput::rehash_</text>
</a>
</g>
</g>
<!-- Node1&#45;&gt;Node4 -->
<g id="edge3_Node000001_Node000004" class="edge">
<title>Node1&#45;&gt;Node4</title>
<g id="a_edge3_Node000001_Node000004"><a xlink:title=" ">
<path fill="none" stroke="#63b8ff" d="M363.68,-141C350.07,-141 336,-141 322.68,-141"/>
<polygon fill="#63b8ff" stroke="#63b8ff" points="363.97,-144.5 373.97,-141 363.97,-137.5 363.97,-144.5"/>
</a>
</g>
</g>
<!-- Node5 -->
<g id="Node000005" class="node">
<title>Node5</title>
<g id="a_Node000005"><a xlink:href="classnetspeak_1_1invertedindex_1_1UnsortedInput.html#a08ef9014c5622dbb729cf8c12ffc92fc" target="_top" xlink:title=" ">
<polygon fill="white" stroke="#666666" points="338,-108 171,-108 171,-78 338,-78 338,-108"/>
<text text-anchor="start" x="179" y="-96" font-family="Helvetica,sans-Serif" font-size="10.00">netspeak::invertedindex</text>
<text text-anchor="middle" x="254.5" y="-85" font-family="Helvetica,sans-Serif" font-size="10.00">::UnsortedInput::UnsortedInput</text>
</a>
</g>
</g>
<!-- Node1&#45;&gt;Node5 -->
<g id="edge5_Node000001_Node000005" class="edge">
<title>Node1&#45;&gt;Node5</title>
<g id="a_edge5_Node000001_Node000005"><a xlink:title=" ">
<path fill="none" stroke="#63b8ff" d="M372.74,-123.42C353.24,-118.36 332.16,-112.89 313.32,-108"/>
<polygon fill="#63b8ff" stroke="#63b8ff" points="371.91,-126.82 382.47,-125.94 373.67,-120.04 371.91,-126.82"/>
</a>
</g>
</g>
<!-- Node6 -->
<g id="Node000006" class="node">
<title>Node6</title>
<g id="a_Node000006"><a xlink:href="classnetspeak_1_1invertedindex_1_1SortedInput.html#a7a0960a0a573256e0887b29e8650a799" target="_top" xlink:title=" ">
<polygon fill="white" stroke="#666666" points="329,-59.5 180,-59.5 180,-18.5 329,-18.5 329,-59.5"/>
<text text-anchor="start" x="188" y="-47.5" font-family="Helvetica,sans-Serif" font-size="10.00">netspeak::invertedindex</text>
<text text-anchor="start" x="188" y="-36.5" font-family="Helvetica,sans-Serif" font-size="10.00">::SortedInput::write_current</text>
<text text-anchor="middle" x="254.5" y="-25.5" font-family="Helvetica,sans-Serif" font-size="10.00">_postlist_</text>
</a>
</g>
</g>
<!-- Node1&#45;&gt;Node6 -->
<g id="edge6_Node000001_Node000006" class="edge">
<title>Node1&#45;&gt;Node6</title>
<g id="a_edge6_Node000001_Node000006"><a xlink:title=" ">
<path fill="none" stroke="#63b8ff" d="M414.18,-119.58C394.18,-104.05 365.5,-83.34 338,-69 331.51,-65.62 324.56,-62.45 317.54,-59.53"/>
<polygon fill="#63b8ff" stroke="#63b8ff" points="412.17,-122.45 422.19,-125.89 416.5,-116.95 412.17,-122.45"/>
</a>
</g>
</g>
<!-- Node4&#45;&gt;Node3 -->
<g id="edge4_Node000004_Node000003" class="edge">
<title>Node4&#45;&gt;Node3</title>
<g id="a_edge4_Node000004_Node000003"><a xlink:title=" ">
<path fill="none" stroke="#63b8ff" d="M176.11,-149.78C162.45,-151.34 148.34,-152.94 135.01,-154.45"/>
<polygon fill="#63b8ff" stroke="#63b8ff" points="176.91,-153.22 186.45,-148.61 176.12,-146.26 176.91,-153.22"/>
</a>
</g>
</g>
<!-- Node7 -->
<g id="Node000007" class="node">
<title>Node7</title>
<g id="a_Node000007"><a xlink:href="classnetspeak_1_1invertedindex_1_1SortedInput.html#ae3183e635b4fa91c0b855773b95ce99c" target="_top" xlink:title=" ">
<polygon fill="white" stroke="#666666" points="135,-78 0,-78 0,-48 135,-48 135,-78"/>
<text text-anchor="start" x="8" y="-66" font-family="Helvetica,sans-Serif" font-size="10.00">netspeak::invertedindex</text>
<text text-anchor="middle" x="67.5" y="-55" font-family="Helvetica,sans-Serif" font-size="10.00">::SortedInput::index</text>
</a>
</g>
</g>
<!-- Node6&#45;&gt;Node7 -->
<g id="edge7_Node000006_Node000007" class="edge">
<title>Node6&#45;&gt;Node7</title>
<g id="a_edge7_Node000006_Node000007"><a xlink:title=" ">
<path fill="none" stroke="#63b8ff" d="M169.7,-49.87C158.07,-51.38 146.26,-52.91 135,-54.37"/>
<polygon fill="#63b8ff" stroke="#63b8ff" points="170.38,-53.31 179.85,-48.55 169.48,-46.37 170.38,-53.31"/>
</a>
</g>
</g>
<!-- Node8 -->
<g id="Node000008" class="node">
<title>Node8</title>
<g id="a_Node000008"><a xlink:href="classnetspeak_1_1invertedindex_1_1SortedInput.html#a6aff15206149d6721ea2bbd44a1aebd6" target="_top" xlink:title=" ">
<polygon fill="white" stroke="#666666" points="135,-30 0,-30 0,0 135,0 135,-30"/>
<text text-anchor="start" x="8" y="-18" font-family="Helvetica,sans-Serif" font-size="10.00">netspeak::invertedindex</text>
<text text-anchor="middle" x="67.5" y="-7" font-family="Helvetica,sans-Serif" font-size="10.00">::SortedInput::insert_</text>
</a>
</g>
</g>
<!-- Node6&#45;&gt;Node8 -->
<g id="edge8_Node000006_Node000008" class="edge">
<title>Node6&#45;&gt;Node8</title>
<g id="a_edge8_Node000006_Node000008"><a xlink:title=" ">
<path fill="none" stroke="#63b8ff" d="M169.7,-28.13C158.07,-26.62 146.26,-25.09 135,-23.63"/>
<polygon fill="#63b8ff" stroke="#63b8ff" points="169.48,-31.63 179.85,-29.45 170.38,-24.69 169.48,-31.63"/>
</a>
</g>
</g>
</g>
</svg>
