<?xml version="1.0" encoding="UTF-8" standalone="no"?>
<!DOCTYPE svg PUBLIC "-//W3C//DTD SVG 1.1//EN"
 "http://www.w3.org/Graphics/SVG/1.1/DTD/svg11.dtd">
<!-- Generated by graphviz version 2.43.0 (0)
 -->
<!-- Title: netspeak::model::SimpleQueryUnit__::new_word Pages: 1 -->
<svg width="1049pt" height="259pt"
 viewBox="0.00 0.00 1049.00 259.00" xmlns="http://www.w3.org/2000/svg" xmlns:xlink="http://www.w3.org/1999/xlink">
<g id="graph0" class="graph" transform="scale(1 1) rotate(0) translate(4 255)">
<title>netspeak::model::SimpleQueryUnit__::new_word</title>
<!-- Node1 -->
<g id="Node000001" class="node">
<title>Node1</title>
<g id="a_Node000001"><a xlink:title=" ">
<polygon fill="#999999" stroke="#666666" points="1041,-112 874,-112 874,-82 1041,-82 1041,-112"/>
<text text-anchor="start" x="882" y="-100" font-family="Helvetica,sans-Serif" font-size="10.00">netspeak::model::SimpleQuery</text>
<text text-anchor="middle" x="957.5" y="-89" font-family="Helvetica,sans-Serif" font-size="10.00">Unit__::new_word</text>
</a>
</g>
</g>
<!-- Node2 -->
<g id="Node000002" class="node">
<title>Node2</title>
<g id="a_Node000002"><a xlink:href="classnetspeak_1_1QuerySimplifier.html#ac1ac4b76923d0b209354bf42e2a59d00" target="_top" xlink:title=" ">
<polygon fill="white" stroke="#666666" points="838,-155 695,-155 695,-125 838,-125 838,-155"/>
<text text-anchor="start" x="703" y="-143" font-family="Helvetica,sans-Serif" font-size="10.00">netspeak::QuerySimplifier</text>
<text text-anchor="middle" x="766.5" y="-132" font-family="Helvetica,sans-Serif" font-size="10.00">::dict_to_simple</text>
</a>
</g>
</g>
<!-- Node1&#45;&gt;Node2 -->
<g id="edge1_Node000001_Node000002" class="edge">
<title>Node1&#45;&gt;Node2</title>
<g id="a_edge1_Node000001_Node000002"><a xlink:title=" ">
<path fill="none" stroke="#63b8ff" d="M880.33,-114.33C864.84,-117.85 848.67,-121.53 833.57,-124.97"/>
<polygon fill="#63b8ff" stroke="#63b8ff" points="881.42,-117.67 890.4,-112.04 879.87,-110.85 881.42,-117.67"/>
</a>
</g>
</g>
<!-- Node3 -->
<g id="Node000003" class="node">
<title>Node3</title>
<g id="a_Node000003"><a xlink:href="classnetspeak_1_1QuerySimplifier.html#ab2f06fcd290543e7a04f2e5614a5f719" target="_top" xlink:title=" ">
<polygon fill="white" stroke="#666666" points="659,-155 516,-155 516,-125 659,-125 659,-155"/>
<text text-anchor="start" x="524" y="-143" font-family="Helvetica,sans-Serif" font-size="10.00">netspeak::QuerySimplifier</text>
<text text-anchor="middle" x="587.5" y="-132" font-family="Helvetica,sans-Serif" font-size="10.00">::unit_to_simple</text>
</a>
</g>
</g>
<!-- Node1&#45;&gt;Node3 -->
<g id="edge16_Node000001_Node000003" class="edge">
<title>Node1&#45;&gt;Node3</title>
<g id="a_edge16_Node000001_Node000003"><a xlink:title=" ">
<path fill="none" stroke="#63b8ff" d="M863.54,-100.38C813.42,-103.05 750.61,-107.76 695,-116 679.63,-118.28 663.17,-121.56 647.91,-124.97"/>
<polygon fill="#63b8ff" stroke="#63b8ff" points="863.9,-103.87 873.71,-99.86 863.54,-96.88 863.9,-103.87"/>
</a>
</g>
</g>
<!-- Node11 -->
<g id="Node000011" class="node">
<title>Node11</title>
<g id="a_Node000011"><a xlink:href="namespacenetspeak.html#abad07282259830ea1d26af81f1755844" target="_top" xlink:title=" ">
<polygon fill="white" stroke="#666666" points="645.5,-30 529.5,-30 529.5,0 645.5,0 645.5,-30"/>
<text text-anchor="start" x="537.5" y="-18" font-family="Helvetica,sans-Serif" font-size="10.00">netspeak::normalize</text>
<text text-anchor="middle" x="587.5" y="-7" font-family="Helvetica,sans-Serif" font-size="10.00">_regexes</text>
</a>
</g>
</g>
<!-- Node1&#45;&gt;Node11 -->
<g id="edge14_Node000001_Node000011" class="edge">
<title>Node1&#45;&gt;Node11</title>
<g id="a_edge14_Node000001_Node000011"><a xlink:title=" ">
<path fill="none" stroke="#63b8ff" d="M878.94,-79.72C809.16,-64.17 708.25,-41.68 645.61,-27.72"/>
<polygon fill="#63b8ff" stroke="#63b8ff" points="878.48,-83.2 889,-81.96 880,-76.37 878.48,-83.2"/>
</a>
</g>
</g>
<!-- Node2&#45;&gt;Node3 -->
<g id="edge2_Node000002_Node000003" class="edge">
<title>Node2&#45;&gt;Node3</title>
<g id="a_edge2_Node000002_Node000003"><a xlink:title=" ">
<path fill="none" stroke="#63b8ff" d="M684.51,-140C676.03,-140 667.46,-140 659.11,-140"/>
<polygon fill="#63b8ff" stroke="#63b8ff" points="684.78,-143.5 694.78,-140 684.78,-136.5 684.78,-143.5"/>
</a>
</g>
</g>
<!-- Node4 -->
<g id="Node000004" class="node">
<title>Node4</title>
<g id="a_Node000004"><a xlink:href="classnetspeak_1_1QuerySimplifier.html#a3b44d549420ef21f82bde54ad4858ba5" target="_top" xlink:title=" ">
<polygon fill="white" stroke="#666666" points="480,-251 337,-251 337,-221 480,-221 480,-251"/>
<text text-anchor="start" x="345" y="-239" font-family="Helvetica,sans-Serif" font-size="10.00">netspeak::QuerySimplifier</text>
<text text-anchor="middle" x="408.5" y="-228" font-family="Helvetica,sans-Serif" font-size="10.00">::alt_to_simple</text>
</a>
</g>
</g>
<!-- Node3&#45;&gt;Node4 -->
<g id="edge3_Node000003_Node000004" class="edge">
<title>Node3&#45;&gt;Node4</title>
<g id="a_edge3_Node000003_Node000004"><a xlink:title=" ">
<path fill="none" stroke="#63b8ff" d="M549.1,-160.85C529.33,-174.21 504.2,-190.97 480,-203 465.87,-210.02 449.2,-215.8 435.62,-220.9"/>
<polygon fill="#63b8ff" stroke="#63b8ff" points="551.18,-163.66 557.51,-155.16 547.26,-157.86 551.18,-163.66"/>
</a>
</g>
</g>
<!-- Node5 -->
<g id="Node000005" class="node">
<title>Node5</title>
<g id="a_Node000005"><a xlink:href="classnetspeak_1_1QuerySimplifier.html#a1f629b768d053c64ba136f00661e601d" target="_top" xlink:title=" ">
<polygon fill="white" stroke="#666666" points="480,-203 337,-203 337,-173 480,-173 480,-203"/>
<text text-anchor="start" x="345" y="-191" font-family="Helvetica,sans-Serif" font-size="10.00">netspeak::QuerySimplifier</text>
<text text-anchor="middle" x="408.5" y="-180" font-family="Helvetica,sans-Serif" font-size="10.00">::concat_to_simple</text>
</a>
</g>
</g>
<!-- Node3&#45;&gt;Node5 -->
<g id="edge5_Node000003_Node000005" class="edge">
<title>Node3&#45;&gt;Node5</title>
<g id="a_edge5_Node000003_Node000005"><a xlink:title=" ">
<path fill="none" stroke="#63b8ff" d="M505.96,-155.12C484.43,-160.82 462.27,-167.24 444.63,-172.96"/>
<polygon fill="#63b8ff" stroke="#63b8ff" points="506.99,-158.46 515.78,-152.55 505.22,-151.69 506.99,-158.46"/>
</a>
</g>
</g>
<!-- Node6 -->
<g id="Node000006" class="node">
<title>Node6</title>
<g id="a_Node000006"><a xlink:href="classnetspeak_1_1QuerySimplifier.html#abafc853573d650c19c989cebbdc10ce4" target="_top" xlink:title=" ">
<polygon fill="white" stroke="#666666" points="480,-155 337,-155 337,-125 480,-125 480,-155"/>
<text text-anchor="start" x="345" y="-143" font-family="Helvetica,sans-Serif" font-size="10.00">netspeak::QuerySimplifier</text>
<text text-anchor="middle" x="408.5" y="-132" font-family="Helvetica,sans-Serif" font-size="10.00">::option_to_simple</text>
</a>
</g>
</g>
<!-- Node3&#45;&gt;Node6 -->
<g id="edge7_Node000003_Node000006" class="edge">
<title>Node3&#45;&gt;Node6</title>
<g id="a_edge7_Node000003_Node000006"><a xlink:title=" ">
<path fill="none" stroke="#63b8ff" d="M505.51,-133.27C497.03,-133.22 488.46,-133.26 480.11,-133.37"/>
<polygon fill="#63b8ff" stroke="#63b8ff" points="505.75,-136.77 515.78,-133.37 505.82,-129.77 505.75,-136.77"/>
</a>
</g>
</g>
<!-- Node7 -->
<g id="Node000007" class="node">
<title>Node7</title>
<g id="a_Node000007"><a xlink:href="classnetspeak_1_1QuerySimplifier.html#a2f67510a9b668e751894cdeb6e97b349" target="_top" xlink:title=" ">
<polygon fill="white" stroke="#666666" points="480,-107 337,-107 337,-77 480,-77 480,-107"/>
<text text-anchor="start" x="345" y="-95" font-family="Helvetica,sans-Serif" font-size="10.00">netspeak::QuerySimplifier</text>
<text text-anchor="middle" x="408.5" y="-84" font-family="Helvetica,sans-Serif" font-size="10.00">::order_to_simple</text>
</a>
</g>
</g>
<!-- Node3&#45;&gt;Node7 -->
<g id="edge9_Node000003_Node000007" class="edge">
<title>Node3&#45;&gt;Node7</title>
<g id="a_edge9_Node000003_Node000007"><a xlink:title=" ">
<path fill="none" stroke="#63b8ff" d="M541.46,-121.82C522.9,-116.06 500.94,-109.88 480.32,-104.58"/>
<polygon fill="#63b8ff" stroke="#63b8ff" points="540.52,-125.19 551.11,-124.88 542.63,-118.52 540.52,-125.19"/>
</a>
</g>
</g>
<!-- Node8 -->
<g id="Node000008" class="node">
<title>Node8</title>
<g id="a_Node000008"><a xlink:href="classnetspeak_1_1QuerySimplifier.html#a47411b51e5d329b77e30c2204c12627d" target="_top" xlink:title=" ">
<polygon fill="white" stroke="#666666" points="480,-59 337,-59 337,-29 480,-29 480,-59"/>
<text text-anchor="start" x="345" y="-47" font-family="Helvetica,sans-Serif" font-size="10.00">netspeak::QuerySimplifier</text>
<text text-anchor="middle" x="408.5" y="-36" font-family="Helvetica,sans-Serif" font-size="10.00">::to_simple</text>
</a>
</g>
</g>
<!-- Node3&#45;&gt;Node8 -->
<g id="edge11_Node000003_Node000008" class="edge">
<title>Node3&#45;&gt;Node8</title>
<g id="a_edge11_Node000003_Node000008"><a xlink:title=" ">
<path fill="none" stroke="#63b8ff" d="M559.39,-118.69C538.57,-103.08 508.63,-82.23 480,-68 473.4,-64.72 466.24,-61.71 459.11,-59.01"/>
<polygon fill="#63b8ff" stroke="#63b8ff" points="557.36,-121.55 567.44,-124.81 561.6,-115.97 557.36,-121.55"/>
</a>
</g>
</g>
<!-- Node4&#45;&gt;Node3 -->
<g id="edge4_Node000004_Node000003" class="edge">
<title>Node4&#45;&gt;Node3</title>
<g id="a_edge4_Node000004_Node000003"><a xlink:title=" ">
<path fill="none" stroke="#63b8ff" d="M488.81,-216.43C523.03,-198 557.26,-172.02 574.69,-155.2"/>
<polygon fill="#63b8ff" stroke="#63b8ff" points="486.92,-213.46 479.65,-221.17 490.14,-219.68 486.92,-213.46"/>
</a>
</g>
</g>
<!-- Node5&#45;&gt;Node3 -->
<g id="edge6_Node000005_Node000003" class="edge">
<title>Node5&#45;&gt;Node3</title>
<g id="a_edge6_Node000005_Node000003"><a xlink:title=" ">
<path fill="none" stroke="#63b8ff" d="M490.1,-172.87C511.5,-167.2 533.52,-160.82 551.11,-155.12"/>
<polygon fill="#63b8ff" stroke="#63b8ff" points="489.12,-169.51 480.32,-175.42 490.88,-176.28 489.12,-169.51"/>
</a>
</g>
</g>
<!-- Node6&#45;&gt;Node3 -->
<g id="edge8_Node000006_Node000003" class="edge">
<title>Node6&#45;&gt;Node3</title>
<g id="a_edge8_Node000006_Node000003"><a xlink:title=" ">
<path fill="none" stroke="#63b8ff" d="M490.38,-146.73C498.86,-146.78 507.43,-146.74 515.78,-146.63"/>
<polygon fill="#63b8ff" stroke="#63b8ff" points="490.14,-143.23 480.11,-146.63 490.07,-150.22 490.14,-143.23"/>
</a>
</g>
</g>
<!-- Node7&#45;&gt;Node3 -->
<g id="edge10_Node000007_Node000003" class="edge">
<title>Node7&#45;&gt;Node3</title>
<g id="a_edge10_Node000007_Node000003"><a xlink:title=" ">
<path fill="none" stroke="#63b8ff" d="M454.32,-110.11C472.96,-115.9 495.05,-122.12 515.78,-127.45"/>
<polygon fill="#63b8ff" stroke="#63b8ff" points="455.22,-106.73 444.63,-107.04 453.11,-113.4 455.22,-106.73"/>
</a>
</g>
</g>
<!-- Node9 -->
<g id="Node000009" class="node">
<title>Node9</title>
<g id="a_Node000009"><a xlink:href="classnetspeak_1_1QueryNormalizer.html#a70187ab668d98c93cfc3a8d05ca1508e" target="_top" xlink:title=" ">
<polygon fill="white" stroke="#666666" points="301,-37 150,-37 150,-7 301,-7 301,-37"/>
<text text-anchor="start" x="158" y="-25" font-family="Helvetica,sans-Serif" font-size="10.00">netspeak::QueryNormalizer</text>
<text text-anchor="middle" x="225.5" y="-14" font-family="Helvetica,sans-Serif" font-size="10.00">::normalize</text>
</a>
</g>
</g>
<!-- Node8&#45;&gt;Node9 -->
<g id="edge12_Node000008_Node000009" class="edge">
<title>Node8&#45;&gt;Node9</title>
<g id="a_edge12_Node000008_Node000009"><a xlink:title=" ">
<path fill="none" stroke="#63b8ff" d="M326.78,-34.19C318.23,-33.15 309.56,-32.1 301.09,-31.07"/>
<polygon fill="#63b8ff" stroke="#63b8ff" points="326.39,-37.67 336.74,-35.4 327.24,-30.72 326.39,-37.67"/>
</a>
</g>
</g>
<!-- Node10 -->
<g id="Node000010" class="node">
<title>Node10</title>
<g id="a_Node000010"><a xlink:href="classnetspeak_1_1Netspeak.html#aaa049275c7a0a7f6721acf7422402bff" target="_top" xlink:title=" ">
<polygon fill="white" stroke="#666666" points="114,-37 0,-37 0,-7 114,-7 114,-37"/>
<text text-anchor="start" x="8" y="-25" font-family="Helvetica,sans-Serif" font-size="10.00">netspeak::Netspeak</text>
<text text-anchor="middle" x="57" y="-14" font-family="Helvetica,sans-Serif" font-size="10.00">::search_raw_</text>
</a>
</g>
</g>
<!-- Node9&#45;&gt;Node10 -->
<g id="edge13_Node000009_Node000010" class="edge">
<title>Node9&#45;&gt;Node10</title>
<g id="a_edge13_Node000009_Node000010"><a xlink:title=" ">
<path fill="none" stroke="#63b8ff" d="M139.45,-22C130.85,-22 122.28,-22 114.1,-22"/>
<polygon fill="#63b8ff" stroke="#63b8ff" points="139.53,-25.5 149.53,-22 139.53,-18.5 139.53,-25.5"/>
</a>
</g>
</g>
<!-- Node11&#45;&gt;Node9 -->
<g id="edge15_Node000011_Node000009" class="edge">
<title>Node11&#45;&gt;Node9</title>
<g id="a_edge15_Node000011_Node000009"><a xlink:title=" ">
<path fill="none" stroke="#63b8ff" d="M519.39,-16.3C457.37,-17.51 365.37,-19.3 301.08,-20.55"/>
<polygon fill="#63b8ff" stroke="#63b8ff" points="519.53,-19.8 529.46,-16.11 519.39,-12.8 519.53,-19.8"/>
</a>
</g>
</g>
</g>
</svg>
