<?xml version="1.0" encoding="UTF-8" standalone="no"?>
<!DOCTYPE svg PUBLIC "-//W3C//DTD SVG 1.1//EN"
 "http://www.w3.org/Graphics/SVG/1.1/DTD/svg11.dtd">
<!-- Generated by graphviz version 2.43.0 (0)
 -->
<!-- Title: netspeak::invertedindex::ByteBuffer::read Pages: 1 -->
<svg width="618pt" height="124pt"
 viewBox="0.00 0.00 618.00 123.50" xmlns="http://www.w3.org/2000/svg" xmlns:xlink="http://www.w3.org/1999/xlink">
<g id="graph0" class="graph" transform="scale(1 1) rotate(0) translate(4 119.5)">
<title>netspeak::invertedindex::ByteBuffer::read</title>
<!-- Node1 -->
<g id="Node000001" class="node">
<title>Node1</title>
<g id="a_Node000001"><a xlink:title=" ">
<polygon fill="#999999" stroke="#666666" points="135,-78 0,-78 0,-48 135,-48 135,-78"/>
<text text-anchor="start" x="8" y="-66" font-family="Helvetica,sans-Serif" font-size="10.00">netspeak::invertedindex</text>
<text text-anchor="middle" x="67.5" y="-55" font-family="Helvetica,sans-Serif" font-size="10.00">::ByteBuffer::read</text>
</a>
</g>
</g>
<!-- Node2 -->
<g id="Node000002" class="node">
<title>Node2</title>
<g id="a_Node000002"><a xlink:href="namespacenetspeak_1_1util.html#a0f64660040077bd1ae3a46941a000b07" target="_top" xlink:title=" ">
<polygon fill="white" stroke="#666666" points="296,-115.5 181,-115.5 181,-96.5 296,-96.5 296,-115.5"/>
<text text-anchor="middle" x="238.5" y="-103.5" font-family="Helvetica,sans-Serif" font-size="10.00">netspeak::util::fread</text>
</a>
</g>
</g>
<!-- Node1&#45;&gt;Node2 -->
<g id="edge1_Node000001_Node000002" class="edge">
<title>Node1&#45;&gt;Node2</title>
<g id="a_edge1_Node000001_Node000002"><a xlink:title=" ">
<path fill="none" stroke="#63b8ff" d="M127.61,-78.04C148.12,-83.26 170.82,-89.03 190.25,-93.98"/>
<polygon fill="#63b8ff" stroke="#63b8ff" points="189.52,-97.4 200.08,-96.48 191.25,-90.62 189.52,-97.4"/>
</a>
</g>
</g>
<!-- Node5 -->
<g id="Node000005" class="node">
<title>Node5</title>
<g id="a_Node000005"><a xlink:href="classnetspeak_1_1invertedindex_1_1ByteBuffer.html#a109be725161102fab0e4b4ee0651491e" target="_top" xlink:title=" ">
<polygon fill="white" stroke="#666666" points="306,-78 171,-78 171,-48 306,-48 306,-78"/>
<text text-anchor="start" x="179" y="-66" font-family="Helvetica,sans-Serif" font-size="10.00">netspeak::invertedindex</text>
<text text-anchor="middle" x="238.5" y="-55" font-family="Helvetica,sans-Serif" font-size="10.00">::ByteBuffer::rewind</text>
</a>
</g>
</g>
<!-- Node1&#45;&gt;Node5 -->
<g id="edge5_Node000001_Node000005" class="edge">
<title>Node1&#45;&gt;Node5</title>
<g id="a_edge5_Node000001_Node000005"><a xlink:title=" ">
<path fill="none" stroke="#63b8ff" d="M135.29,-63C143.62,-63 152.19,-63 160.66,-63"/>
<polygon fill="#63b8ff" stroke="#63b8ff" points="160.92,-66.5 170.92,-63 160.92,-59.5 160.92,-66.5"/>
</a>
</g>
</g>
<!-- Node6 -->
<g id="Node000006" class="node">
<title>Node6</title>
<g id="a_Node000006"><a xlink:href="classnetspeak_1_1invertedindex_1_1ByteBuffer.html#ac7160f8bd36f86815662909c0722556f" target="_top" xlink:title=" ">
<polygon fill="white" stroke="#666666" points="306,-30 171,-30 171,0 306,0 306,-30"/>
<text text-anchor="start" x="179" y="-18" font-family="Helvetica,sans-Serif" font-size="10.00">netspeak::invertedindex</text>
<text text-anchor="middle" x="238.5" y="-7" font-family="Helvetica,sans-Serif" font-size="10.00">::ByteBuffer::size</text>
</a>
</g>
</g>
<!-- Node1&#45;&gt;Node6 -->
<g id="edge6_Node000001_Node000006" class="edge">
<title>Node1&#45;&gt;Node6</title>
<g id="a_edge6_Node000001_Node000006"><a xlink:title=" ">
<path fill="none" stroke="#63b8ff" d="M121.51,-47.94C138.34,-43.16 157.12,-37.83 174.58,-32.87"/>
<polygon fill="#63b8ff" stroke="#63b8ff" points="176.02,-36.1 184.68,-30 174.1,-29.37 176.02,-36.1"/>
</a>
</g>
</g>
<!-- Node3 -->
<g id="Node000003" class="node">
<title>Node3</title>
<g id="a_Node000003"><a xlink:href="namespacenetspeak_1_1util.html#a4c91ad572508b4021399ac7dddff574d" target="_top" xlink:title=" ">
<polygon fill="white" stroke="#666666" points="610,-114.5 497,-114.5 497,-95.5 610,-95.5 610,-114.5"/>
<text text-anchor="middle" x="553.5" y="-102.5" font-family="Helvetica,sans-Serif" font-size="10.00">netspeak::util::hash</text>
</a>
</g>
</g>
<!-- Node2&#45;&gt;Node3 -->
<g id="edge2_Node000002_Node000003" class="edge">
<title>Node2&#45;&gt;Node3</title>
<g id="a_edge2_Node000002_Node000003"><a xlink:title=" ">
<path fill="none" stroke="#63b8ff" d="M296.41,-107.31C341.15,-108.15 405.05,-108.92 461,-108 469.34,-107.86 478.1,-107.66 486.77,-107.41"/>
<polygon fill="#63b8ff" stroke="#63b8ff" points="486.97,-110.91 496.86,-107.12 486.76,-103.91 486.97,-110.91"/>
</a>
</g>
</g>
<!-- Node4 -->
<g id="Node000004" class="node">
<title>Node4</title>
<g id="a_Node000004"><a xlink:href="namespacenetspeak_1_1util.html#af94d48fda5f335ddcb461a8237079866" target="_top" xlink:title=" ">
<polygon fill="white" stroke="#666666" points="461,-99 342,-99 342,-69 461,-69 461,-99"/>
<text text-anchor="start" x="350" y="-87" font-family="Helvetica,sans-Serif" font-size="10.00">netspeak::util::signal</text>
<text text-anchor="middle" x="401.5" y="-76" font-family="Helvetica,sans-Serif" font-size="10.00">_error</text>
</a>
</g>
</g>
<!-- Node2&#45;&gt;Node4 -->
<g id="edge3_Node000002_Node000004" class="edge">
<title>Node2&#45;&gt;Node4</title>
<g id="a_edge3_Node000002_Node000004"><a xlink:title=" ">
<path fill="none" stroke="#63b8ff" d="M296.26,-98.24C307.68,-96.68 319.79,-95.03 331.56,-93.42"/>
<polygon fill="#63b8ff" stroke="#63b8ff" points="332.37,-96.84 341.8,-92.02 331.42,-89.91 332.37,-96.84"/>
</a>
</g>
</g>
<!-- Node4&#45;&gt;Node3 -->
<g id="edge4_Node000004_Node000003" class="edge">
<title>Node4&#45;&gt;Node3</title>
<g id="a_edge4_Node000004_Node000003"><a xlink:title=" ">
<path fill="none" stroke="#63b8ff" d="M461.35,-92.24C469.64,-93.4 478.2,-94.6 486.61,-95.78"/>
<polygon fill="#63b8ff" stroke="#63b8ff" points="486.37,-99.28 496.76,-97.2 487.34,-92.34 486.37,-99.28"/>
</a>
</g>
</g>
</g>
</svg>
