<?xml version="1.0" encoding="UTF-8" standalone="no"?>
<!DOCTYPE svg PUBLIC "-//W3C//DTD SVG 1.1//EN"
 "http://www.w3.org/Graphics/SVG/1.1/DTD/svg11.dtd">
<!-- Generated by graphviz version 2.43.0 (0)
 -->
<!-- Title: antlr4::QueryErrorHandler Pages: 1 -->
<svg width="144pt" height="157pt"
 viewBox="0.00 0.00 144.00 157.00" xmlns="http://www.w3.org/2000/svg" xmlns:xlink="http://www.w3.org/1999/xlink">
<g id="graph0" class="graph" transform="scale(1 1) rotate(0) translate(4 153)">
<title>antlr4::QueryErrorHandler</title>
<!-- Node1 -->
<g id="Node000001" class="node">
<title>Node1</title>
<g id="a_Node000001"><a xlink:title="The QueryErrorHandler class.">
<polygon fill="#999999" stroke="transparent" points="136,-64 0,-64 0,0 136,0 136,-64"/>
<text text-anchor="start" x="5" y="-52" font-family="Helvetica,sans-Serif" font-size="10.00">antlr4::QueryErrorHandler</text>
<text text-anchor="start" x="66" y="-37" font-family="Helvetica,sans-Serif" font-size="10.00"> </text>
<text text-anchor="start" x="8" y="-22" font-family="Helvetica,sans-Serif" font-size="10.00">+</text>
<text text-anchor="start" x="25" y="-22" font-family="Helvetica,sans-Serif" font-size="10.00">QueryErrorHandler()</text>
<text text-anchor="start" x="8" y="-7" font-family="Helvetica,sans-Serif" font-size="10.00">+</text>
<text text-anchor="start" x="25" y="-7" font-family="Helvetica,sans-Serif" font-size="10.00">syntaxError()</text>
<polygon fill="#666666" stroke="#666666" points="0,-47 0,-47 136,-47 136,-47 0,-47"/>
<polygon fill="#666666" stroke="#666666" points="0,-32 0,-32 136,-32 136,-32 0,-32"/>
<polygon fill="none" stroke="#666666" points="0,0 0,-64 136,-64 136,0 0,0"/>
</a>
</g>
</g>
<!-- Node2 -->
<g id="Node000002" class="node">
<title>Node2</title>
<g id="a_Node000002"><a xlink:title=" ">
<polygon fill="white" stroke="transparent" points="133.5,-149 2.5,-149 2.5,-100 133.5,-100 133.5,-149"/>
<text text-anchor="start" x="8" y="-136.5" font-family="Helvetica,sans-Serif" font-size="10.00">antlr4::BaseErrorListener</text>
<text text-anchor="start" x="66.5" y="-121.5" font-family="Helvetica,sans-Serif" font-size="10.00"> </text>
<text text-anchor="start" x="66.5" y="-106.5" font-family="Helvetica,sans-Serif" font-size="10.00"> </text>
<polygon fill="#666666" stroke="#666666" points="3,-131.5 3,-131.5 134,-131.5 134,-131.5 3,-131.5"/>
<polygon fill="#666666" stroke="#666666" points="3,-116.5 3,-116.5 134,-116.5 134,-116.5 3,-116.5"/>
<polygon fill="none" stroke="#666666" points="2.5,-100 2.5,-149 133.5,-149 133.5,-100 2.5,-100"/>
</a>
</g>
</g>
<!-- Node2&#45;&gt;Node1 -->
<g id="edge1_Node000001_Node000002" class="edge">
<title>Node2&#45;&gt;Node1</title>
<g id="a_edge1_Node000001_Node000002"><a xlink:title=" ">
<path fill="none" stroke="#63b8ff" d="M68,-89.54C68,-81.2 68,-72.31 68,-64.11"/>
<polygon fill="none" stroke="#63b8ff" points="64.5,-89.72 68,-99.72 71.5,-89.72 64.5,-89.72"/>
</a>
</g>
</g>
</g>
</svg>
