<?xml version="1.0" encoding="UTF-8" standalone="no"?>
<!DOCTYPE svg PUBLIC "-//W3C//DTD SVG 1.1//EN"
 "http://www.w3.org/Graphics/SVG/1.1/DTD/svg11.dtd">
<!-- Generated by graphviz version 2.43.0 (0)
 -->
<!-- Title: netspeak::service::RequestLogger Pages: 1 -->
<svg width="143pt" height="303pt"
 viewBox="0.00 0.00 143.00 303.00" xmlns="http://www.w3.org/2000/svg" xmlns:xlink="http://www.w3.org/1999/xlink">
<g id="graph0" class="graph" transform="scale(1 1) rotate(0) translate(4 299)">
<title>netspeak::service::RequestLogger</title>
<!-- Node1 -->
<g id="Node000001" class="node">
<title>Node1</title>
<g id="a_Node000001"><a xlink:title=" ">
<polygon fill="#999999" stroke="transparent" points="126,-210 9,-210 9,0 126,0 126,-210"/>
<text text-anchor="start" x="21.5" y="-198" font-family="Helvetica,sans-Serif" font-size="10.00">netspeak::service::</text>
<text text-anchor="start" x="31.5" y="-187" font-family="Helvetica,sans-Serif" font-size="10.00">RequestLogger</text>
<text text-anchor="start" x="16" y="-172" font-family="Helvetica,sans-Serif" font-size="10.00">&#45;</text>
<text text-anchor="start" x="26.5" y="-172" font-family="Helvetica,sans-Serif" font-size="10.00">service_</text>
<text text-anchor="start" x="16" y="-157" font-family="Helvetica,sans-Serif" font-size="10.00">&#45;</text>
<text text-anchor="start" x="26.5" y="-157" font-family="Helvetica,sans-Serif" font-size="10.00">req_counter_</text>
<text text-anchor="start" x="16" y="-142" font-family="Helvetica,sans-Serif" font-size="10.00">&#45;</text>
<text text-anchor="start" x="26.5" y="-142" font-family="Helvetica,sans-Serif" font-size="10.00">f_search_req_</text>
<text text-anchor="start" x="16" y="-127" font-family="Helvetica,sans-Serif" font-size="10.00">&#45;</text>
<text text-anchor="start" x="26.5" y="-127" font-family="Helvetica,sans-Serif" font-size="10.00">f_search_error</text>
<text text-anchor="start" x="16" y="-112" font-family="Helvetica,sans-Serif" font-size="10.00">&#45;</text>
<text text-anchor="start" x="26.5" y="-112" font-family="Helvetica,sans-Serif" font-size="10.00">f_get_corpora_req_</text>
<text text-anchor="start" x="16" y="-97" font-family="Helvetica,sans-Serif" font-size="10.00">&#45;</text>
<text text-anchor="start" x="26.5" y="-97" font-family="Helvetica,sans-Serif" font-size="10.00">f_get_corpora_error</text>
<text text-anchor="start" x="13.5" y="-82" font-family="Helvetica,sans-Serif" font-size="10.00">+</text>
<text text-anchor="start" x="26.5" y="-82" font-family="Helvetica,sans-Serif" font-size="10.00">RequestLogger()</text>
<text text-anchor="start" x="13.5" y="-67" font-family="Helvetica,sans-Serif" font-size="10.00">+</text>
<text text-anchor="start" x="26.5" y="-67" font-family="Helvetica,sans-Serif" font-size="10.00">RequestLogger()</text>
<text text-anchor="start" x="13.5" y="-52" font-family="Helvetica,sans-Serif" font-size="10.00">+</text>
<text text-anchor="start" x="26.5" y="-52" font-family="Helvetica,sans-Serif" font-size="10.00">RequestLogger()</text>
<text text-anchor="start" x="13.5" y="-37" font-family="Helvetica,sans-Serif" font-size="10.00">+</text>
<text text-anchor="start" x="26.5" y="-37" font-family="Helvetica,sans-Serif" font-size="10.00">~RequestLogger()</text>
<text text-anchor="start" x="13.5" y="-22" font-family="Helvetica,sans-Serif" font-size="10.00">+</text>
<text text-anchor="start" x="26.5" y="-22" font-family="Helvetica,sans-Serif" font-size="10.00">Search()</text>
<text text-anchor="start" x="13.5" y="-7" font-family="Helvetica,sans-Serif" font-size="10.00">+</text>
<text text-anchor="start" x="26.5" y="-7" font-family="Helvetica,sans-Serif" font-size="10.00">GetCorpora()</text>
<polygon fill="#666666" stroke="#666666" points="9.5,-182 9.5,-182 126.5,-182 126.5,-182 9.5,-182"/>
<polygon fill="#666666" stroke="#666666" points="9.5,-92 9.5,-92 24.5,-92 24.5,-92 9.5,-92"/>
<polygon fill="#666666" stroke="#666666" points="24.5,-92 24.5,-92 126.5,-92 126.5,-92 24.5,-92"/>
<polygon fill="none" stroke="#666666" points="9,0 9,-210 126,-210 126,0 9,0"/>
</a>
</g>
</g>
<!-- Node2 -->
<g id="Node000002" class="node">
<title>Node2</title>
<g id="a_Node000002"><a xlink:title=" ">
<polygon fill="white" stroke="transparent" points="135,-295 0,-295 0,-246 135,-246 135,-295"/>
<text text-anchor="start" x="5.5" y="-282.5" font-family="Helvetica,sans-Serif" font-size="10.00">NetspeakService::Service</text>
<text text-anchor="start" x="66" y="-267.5" font-family="Helvetica,sans-Serif" font-size="10.00"> </text>
<text text-anchor="start" x="66" y="-252.5" font-family="Helvetica,sans-Serif" font-size="10.00"> </text>
<polygon fill="#666666" stroke="#666666" points="0.5,-277.5 0.5,-277.5 135.5,-277.5 135.5,-277.5 0.5,-277.5"/>
<polygon fill="#666666" stroke="#666666" points="0.5,-262.5 0.5,-262.5 135.5,-262.5 135.5,-262.5 0.5,-262.5"/>
<polygon fill="none" stroke="#666666" points="0,-246 0,-295 135,-295 135,-246 0,-246"/>
</a>
</g>
</g>
<!-- Node2&#45;&gt;Node1 -->
<g id="edge1_Node000001_Node000002" class="edge">
<title>Node2&#45;&gt;Node1</title>
<g id="a_edge1_Node000001_Node000002"><a xlink:title=" ">
<path fill="none" stroke="#63b8ff" d="M67.5,-235.69C67.5,-227.89 67.5,-219.18 67.5,-210.08"/>
<polygon fill="none" stroke="#63b8ff" points="64,-235.73 67.5,-245.73 71,-235.73 64,-235.73"/>
</a>
</g>
</g>
</g>
</svg>
