<?xml version="1.0" encoding="UTF-8" standalone="no"?>
<!DOCTYPE svg PUBLIC "-//W3C//DTD SVG 1.1//EN"
 "http://www.w3.org/Graphics/SVG/1.1/DTD/svg11.dtd">
<!-- Generated by graphviz version 2.43.0 (0)
 -->
<!-- Title: netspeak::model::Words::size Pages: 1 -->
<svg width="337pt" height="124pt"
 viewBox="0.00 0.00 337.00 123.50" xmlns="http://www.w3.org/2000/svg" xmlns:xlink="http://www.w3.org/1999/xlink">
<g id="graph0" class="graph" transform="scale(1 1) rotate(0) translate(4 119.5)">
<title>netspeak::model::Words::size</title>
<!-- Node1 -->
<g id="Node000001" class="node">
<title>Node1</title>
<g id="a_Node000001"><a xlink:title=" ">
<polygon fill="#999999" stroke="#666666" points="329,-78 195,-78 195,-48 329,-48 329,-78"/>
<text text-anchor="start" x="203" y="-66" font-family="Helvetica,sans-Serif" font-size="10.00">netspeak::model::Words</text>
<text text-anchor="middle" x="262" y="-55" font-family="Helvetica,sans-Serif" font-size="10.00">::size</text>
</a>
</g>
</g>
<!-- Node2 -->
<g id="Node000002" class="node">
<title>Node2</title>
<g id="a_Node000002"><a xlink:href="namespacenetspeak.html#ada202c21bedf32e697fdfb62ad980688" target="_top" xlink:title=" ">
<polygon fill="white" stroke="#666666" points="159,-115.5 0,-115.5 0,-96.5 159,-96.5 159,-115.5"/>
<text text-anchor="middle" x="79.5" y="-103.5" font-family="Helvetica,sans-Serif" font-size="10.00">netspeak::BuildPhraseCorpus</text>
</a>
</g>
</g>
<!-- Node1&#45;&gt;Node2 -->
<g id="edge1_Node000001_Node000002" class="edge">
<title>Node1&#45;&gt;Node2</title>
<g id="a_edge1_Node000001_Node000002"><a xlink:title=" ">
<path fill="none" stroke="#63b8ff" d="M188.09,-80.37C165.01,-85.87 140.35,-91.74 120.47,-96.48"/>
<polygon fill="#63b8ff" stroke="#63b8ff" points="188.95,-83.76 197.87,-78.04 187.33,-76.95 188.95,-83.76"/>
</a>
</g>
</g>
<!-- Node3 -->
<g id="Node000003" class="node">
<title>Node3</title>
<g id="a_Node000003"><a xlink:href="classnetspeak_1_1model_1_1Words.html#a9a31d31969ad367049fb5cc69a673cbb" target="_top" xlink:title=" ">
<polygon fill="white" stroke="#666666" points="146.5,-78 12.5,-78 12.5,-48 146.5,-48 146.5,-78"/>
<text text-anchor="start" x="20.5" y="-66" font-family="Helvetica,sans-Serif" font-size="10.00">netspeak::model::Words</text>
<text text-anchor="middle" x="79.5" y="-55" font-family="Helvetica,sans-Serif" font-size="10.00">::is_subsequence_of</text>
</a>
</g>
</g>
<!-- Node1&#45;&gt;Node3 -->
<g id="edge2_Node000001_Node000003" class="edge">
<title>Node1&#45;&gt;Node3</title>
<g id="a_edge2_Node000001_Node000003"><a xlink:title=" ">
<path fill="none" stroke="#63b8ff" d="M184.76,-63C172.1,-63 159.06,-63 146.68,-63"/>
<polygon fill="#63b8ff" stroke="#63b8ff" points="184.81,-66.5 194.81,-63 184.81,-59.5 184.81,-66.5"/>
</a>
</g>
</g>
<!-- Node4 -->
<g id="Node000004" class="node">
<title>Node4</title>
<g id="a_Node000004"><a xlink:href="classnetspeak_1_1PhraseFileReader.html#a6e9b1d48e91229d97509fd248d5d45c8" target="_top" xlink:title=" ">
<polygon fill="white" stroke="#666666" points="155.5,-30 3.5,-30 3.5,0 155.5,0 155.5,-30"/>
<text text-anchor="start" x="11.5" y="-18" font-family="Helvetica,sans-Serif" font-size="10.00">netspeak::PhraseFileReader</text>
<text text-anchor="middle" x="79.5" y="-7" font-family="Helvetica,sans-Serif" font-size="10.00">::read</text>
</a>
</g>
</g>
<!-- Node1&#45;&gt;Node4 -->
<g id="edge3_Node000001_Node000004" class="edge">
<title>Node1&#45;&gt;Node4</title>
<g id="a_edge3_Node000001_Node000004"><a xlink:title=" ">
<path fill="none" stroke="#63b8ff" d="M194.63,-45.35C175.68,-40.31 155.21,-34.87 136.92,-30"/>
<polygon fill="#63b8ff" stroke="#63b8ff" points="193.82,-48.76 204.38,-47.94 195.62,-41.99 193.82,-48.76"/>
</a>
</g>
</g>
</g>
</svg>
