<?xml version="1.0" encoding="UTF-8" standalone="no"?>
<!DOCTYPE svg PUBLIC "-//W3C//DTD SVG 1.1//EN"
 "http://www.w3.org/Graphics/SVG/1.1/DTD/svg11.dtd">
<!-- Generated by graphviz version 2.43.0 (0)
 -->
<!-- Title: netspeak::service::RequestLogger::Search Pages: 1 -->
<svg width="782pt" height="201pt"
 viewBox="0.00 0.00 782.00 201.11" xmlns="http://www.w3.org/2000/svg" xmlns:xlink="http://www.w3.org/1999/xlink">
<g id="graph0" class="graph" transform="scale(1 1) rotate(0) translate(4 197.11)">
<title>netspeak::service::RequestLogger::Search</title>
<!-- Node1 -->
<g id="Node000001" class="node">
<title>Node1</title>
<g id="a_Node000001"><a xlink:title=" ">
<polygon fill="#999999" stroke="#666666" points="128,-129 0,-129 0,-99 128,-99 128,-129"/>
<text text-anchor="start" x="8" y="-117" font-family="Helvetica,sans-Serif" font-size="10.00">netspeak::service::</text>
<text text-anchor="middle" x="64" y="-106" font-family="Helvetica,sans-Serif" font-size="10.00">RequestLogger::Search</text>
</a>
</g>
</g>
<!-- Node2 -->
<g id="Node000002" class="node">
<title>Node2</title>
<g id="a_Node000002"><a xlink:href="classnetspeak_1_1util_1_1JsonWriter.html#acbaa81da8314c01152d8a52ae42dc28b" target="_top" xlink:title=" ">
<polygon fill="white" stroke="#666666" points="625,-191 485,-191 485,-161 625,-161 625,-191"/>
<text text-anchor="start" x="493" y="-179" font-family="Helvetica,sans-Serif" font-size="10.00">netspeak::util::JsonWriter</text>
<text text-anchor="middle" x="555" y="-168" font-family="Helvetica,sans-Serif" font-size="10.00">::create</text>
</a>
</g>
</g>
<!-- Node1&#45;&gt;Node2 -->
<g id="edge1_Node000001_Node000002" class="edge">
<title>Node1&#45;&gt;Node2</title>
<g id="a_edge1_Node000001_Node000002"><a xlink:title=" ">
<path fill="none" stroke="#63b8ff" d="M84.13,-129.02C103.15,-142.94 133.78,-162.71 164,-171 268.58,-199.68 394.95,-194.43 474.91,-186.48"/>
<polygon fill="#63b8ff" stroke="#63b8ff" points="475.32,-189.96 484.91,-185.45 474.6,-182.99 475.32,-189.96"/>
</a>
</g>
</g>
<!-- Node4 -->
<g id="Node000004" class="node">
<title>Node4</title>
<g id="a_Node000004"><a xlink:href="namespacenetspeak_1_1service.html#a2da5e86a109060f47f4261181bd65a4b" target="_top" xlink:title=" ">
<polygon fill="white" stroke="#666666" points="273,-162 164,-162 164,-132 273,-132 273,-162"/>
<text text-anchor="start" x="172" y="-150" font-family="Helvetica,sans-Serif" font-size="10.00">netspeak::service::</text>
<text text-anchor="middle" x="218.5" y="-139" font-family="Helvetica,sans-Serif" font-size="10.00">get_tracking_id</text>
</a>
</g>
</g>
<!-- Node1&#45;&gt;Node4 -->
<g id="edge3_Node000001_Node000004" class="edge">
<title>Node1&#45;&gt;Node4</title>
<g id="a_edge3_Node000001_Node000004"><a xlink:title=" ">
<path fill="none" stroke="#63b8ff" d="M128.35,-127.71C136.82,-129.54 145.51,-131.42 153.98,-133.25"/>
<polygon fill="#63b8ff" stroke="#63b8ff" points="153.29,-136.69 163.8,-135.38 154.77,-129.84 153.29,-136.69"/>
</a>
</g>
</g>
<!-- Node5 -->
<g id="Node000005" class="node">
<title>Node5</title>
<g id="a_Node000005"><a xlink:href="namespacenetspeak_1_1service.html#a75b5182433d6eb37dde58d0efff5b799" target="_top" xlink:title=" ">
<polygon fill="white" stroke="#666666" points="273,-96 164,-96 164,-66 273,-66 273,-96"/>
<text text-anchor="start" x="172" y="-84" font-family="Helvetica,sans-Serif" font-size="10.00">netspeak::service::</text>
<text text-anchor="middle" x="218.5" y="-73" font-family="Helvetica,sans-Serif" font-size="10.00">log_boilerplate</text>
</a>
</g>
</g>
<!-- Node1&#45;&gt;Node5 -->
<g id="edge4_Node000001_Node000005" class="edge">
<title>Node1&#45;&gt;Node5</title>
<g id="a_edge4_Node000001_Node000005"><a xlink:title=" ">
<path fill="none" stroke="#63b8ff" d="M128.35,-100.29C136.82,-98.46 145.51,-96.58 153.98,-94.75"/>
<polygon fill="#63b8ff" stroke="#63b8ff" points="154.77,-98.16 163.8,-92.62 153.29,-91.31 154.77,-98.16"/>
</a>
</g>
</g>
<!-- Node8 -->
<g id="Node000008" class="node">
<title>Node8</title>
<g id="a_Node000008"><a xlink:href="namespacenetspeak_1_1service.html#aebd8a38b84a6aa4b293543abb10f1fb8" target="_top" xlink:title=" ">
<polygon fill="white" stroke="#666666" points="273,-30 164,-30 164,0 273,0 273,-30"/>
<text text-anchor="start" x="172" y="-18" font-family="Helvetica,sans-Serif" font-size="10.00">netspeak::service::</text>
<text text-anchor="middle" x="218.5" y="-7" font-family="Helvetica,sans-Serif" font-size="10.00">log_error_status</text>
</a>
</g>
</g>
<!-- Node1&#45;&gt;Node8 -->
<g id="edge9_Node000001_Node000008" class="edge">
<title>Node1&#45;&gt;Node8</title>
<g id="a_edge9_Node000001_Node000008"><a xlink:title=" ">
<path fill="none" stroke="#63b8ff" d="M88.16,-98.96C114.14,-82.1 156.43,-54.64 185.54,-35.75"/>
<polygon fill="#63b8ff" stroke="#63b8ff" points="187.64,-38.56 194.12,-30.18 183.83,-32.69 187.64,-38.56"/>
</a>
</g>
</g>
<!-- Node3 -->
<g id="Node000003" class="node">
<title>Node3</title>
<g id="a_Node000003"><a xlink:href="namespacenetspeak_1_1util.html#a4c91ad572508b4021399ac7dddff574d" target="_top" xlink:title=" ">
<polygon fill="white" stroke="#666666" points="774,-124.5 661,-124.5 661,-105.5 774,-105.5 774,-124.5"/>
<text text-anchor="middle" x="717.5" y="-112.5" font-family="Helvetica,sans-Serif" font-size="10.00">netspeak::util::hash</text>
</a>
</g>
</g>
<!-- Node2&#45;&gt;Node3 -->
<g id="edge2_Node000002_Node000003" class="edge">
<title>Node2&#45;&gt;Node3</title>
<g id="a_edge2_Node000002_Node000003"><a xlink:title=" ">
<path fill="none" stroke="#63b8ff" d="M595.67,-160.92C622.06,-150.89 656.39,-137.84 681.71,-128.22"/>
<polygon fill="#63b8ff" stroke="#63b8ff" points="683.18,-131.41 691.28,-124.58 680.69,-124.87 683.18,-131.41"/>
</a>
</g>
</g>
<!-- Node5&#45;&gt;Node5 -->
<g id="edge5_Node000005_Node000005" class="edge">
<title>Node5&#45;&gt;Node5</title>
<g id="a_edge5_Node000005_Node000005"><a xlink:title=" ">
<path fill="none" stroke="#63b8ff" d="M191.43,-96.28C185.41,-105.41 194.44,-114 218.5,-114 232.79,-114 241.77,-110.97 245.46,-106.6"/>
<polygon fill="#63b8ff" stroke="#63b8ff" points="248.96,-106.31 245.57,-96.28 241.96,-106.24 248.96,-106.31"/>
</a>
</g>
</g>
<!-- Node6 -->
<g id="Node000006" class="node">
<title>Node6</title>
<g id="a_Node000006"><a xlink:href="classnetspeak_1_1util_1_1JsonWriter_1_1Value.html#a26810075211549614a9b03eb4afbedb9" target="_top" xlink:title=" ">
<polygon fill="white" stroke="#666666" points="625,-130 485,-130 485,-100 625,-100 625,-130"/>
<text text-anchor="start" x="493" y="-118" font-family="Helvetica,sans-Serif" font-size="10.00">netspeak::util::JsonWriter</text>
<text text-anchor="middle" x="555" y="-107" font-family="Helvetica,sans-Serif" font-size="10.00">::Value::object</text>
</a>
</g>
</g>
<!-- Node5&#45;&gt;Node6 -->
<g id="edge6_Node000005_Node000006" class="edge">
<title>Node5&#45;&gt;Node6</title>
<g id="a_edge6_Node000005_Node000006"><a xlink:title=" ">
<path fill="none" stroke="#63b8ff" d="M273.34,-90.82C285.07,-92.73 297.43,-94.58 309,-96 364.25,-102.76 426.82,-107.56 474.9,-110.65"/>
<polygon fill="#63b8ff" stroke="#63b8ff" points="474.73,-114.15 484.93,-111.28 475.17,-107.16 474.73,-114.15"/>
</a>
</g>
</g>
<!-- Node7 -->
<g id="Node000007" class="node">
<title>Node7</title>
<g id="a_Node000007"><a xlink:href="namespacenetspeak_1_1service.html#a2d63ea4d672ce15b7fbc671e76939284" target="_top" xlink:title="Returns the current time formatted as a string following the ISO 8601 format for UTC date and time.">
<polygon fill="white" stroke="#666666" points="433.5,-87 324.5,-87 324.5,-57 433.5,-57 433.5,-87"/>
<text text-anchor="start" x="332.5" y="-75" font-family="Helvetica,sans-Serif" font-size="10.00">netspeak::service::</text>
<text text-anchor="middle" x="379" y="-64" font-family="Helvetica,sans-Serif" font-size="10.00">utc_timestamp</text>
</a>
</g>
</g>
<!-- Node5&#45;&gt;Node7 -->
<g id="edge8_Node000005_Node000007" class="edge">
<title>Node5&#45;&gt;Node7</title>
<g id="a_edge8_Node000005_Node000007"><a xlink:title=" ">
<path fill="none" stroke="#63b8ff" d="M273.16,-77.95C286.33,-77.21 300.55,-76.4 314.15,-75.63"/>
<polygon fill="#63b8ff" stroke="#63b8ff" points="314.61,-79.11 324.39,-75.04 314.21,-72.12 314.61,-79.11"/>
</a>
</g>
</g>
<!-- Node6&#45;&gt;Node3 -->
<g id="edge7_Node000006_Node000003" class="edge">
<title>Node6&#45;&gt;Node3</title>
<g id="a_edge7_Node000006_Node000003"><a xlink:title=" ">
<path fill="none" stroke="#63b8ff" d="M625.46,-115C633.9,-115 642.49,-115 650.87,-115"/>
<polygon fill="#63b8ff" stroke="#63b8ff" points="650.95,-118.5 660.95,-115 650.95,-111.5 650.95,-118.5"/>
</a>
</g>
</g>
<!-- Node8&#45;&gt;Node8 -->
<g id="edge10_Node000008_Node000008" class="edge">
<title>Node8&#45;&gt;Node8</title>
<g id="a_edge10_Node000008_Node000008"><a xlink:title=" ">
<path fill="none" stroke="#63b8ff" d="M191.43,-30.28C185.41,-39.41 194.44,-48 218.5,-48 232.79,-48 241.77,-44.97 245.46,-40.6"/>
<polygon fill="#63b8ff" stroke="#63b8ff" points="248.96,-40.31 245.57,-30.28 241.96,-40.24 248.96,-40.31"/>
</a>
</g>
</g>
<!-- Node9 -->
<g id="Node000009" class="node">
<title>Node9</title>
<g id="a_Node000009"><a xlink:href="classnetspeak_1_1util_1_1JsonWriter_1_1ObjectContinue.html#aa7d3f4f919394e032f405e39e58d7958" target="_top" xlink:title=" ">
<polygon fill="white" stroke="#666666" points="449,-35 309,-35 309,-5 449,-5 449,-35"/>
<text text-anchor="start" x="317" y="-23" font-family="Helvetica,sans-Serif" font-size="10.00">netspeak::util::JsonWriter</text>
<text text-anchor="middle" x="379" y="-12" font-family="Helvetica,sans-Serif" font-size="10.00">::ObjectContinue::prop</text>
</a>
</g>
</g>
<!-- Node8&#45;&gt;Node9 -->
<g id="edge11_Node000008_Node000009" class="edge">
<title>Node8&#45;&gt;Node9</title>
<g id="a_edge11_Node000008_Node000009"><a xlink:title=" ">
<path fill="none" stroke="#63b8ff" d="M273.16,-16.69C281.42,-16.95 290.1,-17.23 298.78,-17.5"/>
<polygon fill="#63b8ff" stroke="#63b8ff" points="298.84,-21 308.94,-17.82 299.06,-14.01 298.84,-21"/>
</a>
</g>
</g>
<!-- Node10 -->
<g id="Node000010" class="node">
<title>Node10</title>
<g id="a_Node000010"><a xlink:href="namespacenetspeak_1_1util.html#a134a9d8c3e5477e6835cb4367cdafebf" target="_top" xlink:title=" ">
<polygon fill="white" stroke="#666666" points="611,-61 499,-61 499,-31 611,-31 611,-61"/>
<text text-anchor="start" x="507" y="-49" font-family="Helvetica,sans-Serif" font-size="10.00">netspeak::util::print</text>
<text text-anchor="middle" x="555" y="-38" font-family="Helvetica,sans-Serif" font-size="10.00">_json_string</text>
</a>
</g>
</g>
<!-- Node9&#45;&gt;Node10 -->
<g id="edge12_Node000009_Node000010" class="edge">
<title>Node9&#45;&gt;Node10</title>
<g id="a_edge12_Node000009_Node000010"><a xlink:title=" ">
<path fill="none" stroke="#63b8ff" d="M449.02,-30.31C462.05,-32.26 475.64,-34.29 488.55,-36.22"/>
<polygon fill="#63b8ff" stroke="#63b8ff" points="488.33,-39.73 498.74,-37.74 489.36,-32.8 488.33,-39.73"/>
</a>
</g>
</g>
<!-- Node10&#45;&gt;Node3 -->
<g id="edge13_Node000010_Node000003" class="edge">
<title>Node10&#45;&gt;Node3</title>
<g id="a_edge13_Node000010_Node000003"><a xlink:title=" ">
<path fill="none" stroke="#63b8ff" d="M591.22,-61.14C619.17,-73.16 657.88,-89.8 684.84,-101.39"/>
<polygon fill="#63b8ff" stroke="#63b8ff" points="683.64,-104.68 694.21,-105.42 686.4,-98.25 683.64,-104.68"/>
</a>
</g>
</g>
<!-- Node11 -->
<g id="Node000011" class="node">
<title>Node11</title>
<g id="a_Node000011"><a xlink:href="namespacenetspeak_1_1util.html#ab81364f286f51c8ceaafc921fd48dd5a" target="_top" xlink:title=" ">
<polygon fill="white" stroke="#666666" points="767,-61 668,-61 668,-31 767,-31 767,-61"/>
<text text-anchor="start" x="676" y="-49" font-family="Helvetica,sans-Serif" font-size="10.00">netspeak::util::to</text>
<text text-anchor="middle" x="717.5" y="-38" font-family="Helvetica,sans-Serif" font-size="10.00">_hex_digit</text>
</a>
</g>
</g>
<!-- Node10&#45;&gt;Node11 -->
<g id="edge14_Node000010_Node000011" class="edge">
<title>Node10&#45;&gt;Node11</title>
<g id="a_edge14_Node000010_Node000011"><a xlink:title=" ">
<path fill="none" stroke="#63b8ff" d="M611.23,-46C626.19,-46 642.44,-46 657.59,-46"/>
<polygon fill="#63b8ff" stroke="#63b8ff" points="657.87,-49.5 667.87,-46 657.87,-42.5 657.87,-49.5"/>
</a>
</g>
</g>
</g>
</svg>
