<?xml version="1.0" encoding="UTF-8" standalone="no"?>
<!DOCTYPE svg PUBLIC "-//W3C//DTD SVG 1.1//EN"
 "http://www.w3.org/Graphics/SVG/1.1/DTD/svg11.dtd">
<!-- Generated by graphviz version 2.43.0 (0)
 -->
<!-- Title: netspeak::invertedindex::StorageReader::ReadPostlist Pages: 1 -->
<svg width="986pt" height="327pt"
 viewBox="0.00 0.00 986.00 327.41" xmlns="http://www.w3.org/2000/svg" xmlns:xlink="http://www.w3.org/1999/xlink">
<g id="graph0" class="graph" transform="scale(1 1) rotate(0) translate(4 323.41)">
<title>netspeak::invertedindex::StorageReader::ReadPostlist</title>
<!-- Node1 -->
<g id="Node000001" class="node">
<title>Node1</title>
<g id="a_Node000001"><a xlink:title=" ">
<polygon fill="#999999" stroke="#666666" points="161,-218 0,-218 0,-188 161,-188 161,-218"/>
<text text-anchor="start" x="8" y="-206" font-family="Helvetica,sans-Serif" font-size="10.00">netspeak::invertedindex</text>
<text text-anchor="middle" x="80.5" y="-195" font-family="Helvetica,sans-Serif" font-size="10.00">::StorageReader::ReadPostlist</text>
</a>
</g>
</g>
<!-- Node2 -->
<g id="Node000002" class="node">
<title>Node2</title>
<g id="a_Node000002"><a xlink:href="namespacenetspeak_1_1util.html#a3015ae7c69935f843a1915958d0de042" target="_top" xlink:title=" ">
<polygon fill="white" stroke="#666666" points="493.5,-306.5 377.5,-306.5 377.5,-287.5 493.5,-287.5 493.5,-306.5"/>
<text text-anchor="middle" x="435.5" y="-294.5" font-family="Helvetica,sans-Serif" font-size="10.00">netspeak::util::fseek</text>
</a>
</g>
</g>
<!-- Node1&#45;&gt;Node2 -->
<g id="edge1_Node000001_Node000002" class="edge">
<title>Node1&#45;&gt;Node2</title>
<g id="a_edge1_Node000001_Node000002"><a xlink:title=" ">
<path fill="none" stroke="#63b8ff" d="M138.22,-218.1C207.77,-236.63 324.33,-267.66 388.56,-284.77"/>
<polygon fill="#63b8ff" stroke="#63b8ff" points="387.84,-288.2 398.4,-287.39 389.64,-281.43 387.84,-288.2"/>
</a>
</g>
</g>
<!-- Node5 -->
<g id="Node000005" class="node">
<title>Node5</title>
<g id="a_Node000005"><a xlink:href="classnetspeak_1_1invertedindex_1_1PostlistReader.html#a842a92ec19eeecf74c7a8ae80e1ee1af" target="_top" xlink:title=" ">
<polygon fill="white" stroke="#666666" points="332,-197 197,-197 197,-167 332,-167 332,-197"/>
<text text-anchor="start" x="205" y="-185" font-family="Helvetica,sans-Serif" font-size="10.00">netspeak::invertedindex</text>
<text text-anchor="middle" x="264.5" y="-174" font-family="Helvetica,sans-Serif" font-size="10.00">::PostlistReader::read</text>
</a>
</g>
</g>
<!-- Node1&#45;&gt;Node5 -->
<g id="edge5_Node000001_Node000005" class="edge">
<title>Node1&#45;&gt;Node5</title>
<g id="a_edge5_Node000001_Node000005"><a xlink:title=" ">
<path fill="none" stroke="#63b8ff" d="M161.06,-193.82C169.66,-192.83 178.39,-191.82 186.95,-190.83"/>
<polygon fill="#63b8ff" stroke="#63b8ff" points="187.36,-194.31 196.89,-189.69 186.56,-187.35 187.36,-194.31"/>
</a>
</g>
</g>
<!-- Node3 -->
<g id="Node000003" class="node">
<title>Node3</title>
<g id="a_Node000003"><a xlink:href="namespacenetspeak_1_1util.html#a4c91ad572508b4021399ac7dddff574d" target="_top" xlink:title=" ">
<polygon fill="white" stroke="#666666" points="978,-191.5 865,-191.5 865,-172.5 978,-172.5 978,-191.5"/>
<text text-anchor="middle" x="921.5" y="-179.5" font-family="Helvetica,sans-Serif" font-size="10.00">netspeak::util::hash</text>
</a>
</g>
</g>
<!-- Node2&#45;&gt;Node3 -->
<g id="edge2_Node000002_Node000003" class="edge">
<title>Node2&#45;&gt;Node3</title>
<g id="a_edge2_Node000002_Node000003"><a xlink:title=" ">
<path fill="none" stroke="#63b8ff" d="M482.14,-306.52C559.24,-320.07 717.72,-336.87 829,-274 862.46,-255.09 891.97,-220.52 907.92,-199.56"/>
<polygon fill="#63b8ff" stroke="#63b8ff" points="910.76,-201.62 913.9,-191.5 905.14,-197.45 910.76,-201.62"/>
</a>
</g>
</g>
<!-- Node4 -->
<g id="Node000004" class="node">
<title>Node4</title>
<g id="a_Node000004"><a xlink:href="namespacenetspeak_1_1util.html#af94d48fda5f335ddcb461a8237079866" target="_top" xlink:title=" ">
<polygon fill="white" stroke="#666666" points="829,-240 710,-240 710,-210 829,-210 829,-240"/>
<text text-anchor="start" x="718" y="-228" font-family="Helvetica,sans-Serif" font-size="10.00">netspeak::util::signal</text>
<text text-anchor="middle" x="769.5" y="-217" font-family="Helvetica,sans-Serif" font-size="10.00">_error</text>
</a>
</g>
</g>
<!-- Node2&#45;&gt;Node4 -->
<g id="edge3_Node000002_Node000004" class="edge">
<title>Node2&#45;&gt;Node4</title>
<g id="a_edge3_Node000002_Node000004"><a xlink:title=" ">
<path fill="none" stroke="#63b8ff" d="M493.71,-304.2C542.8,-308.31 614.8,-309.36 674,-290 700.92,-281.2 727.09,-262.12 745.04,-246.89"/>
<polygon fill="#63b8ff" stroke="#63b8ff" points="747.45,-249.43 752.68,-240.22 742.85,-244.16 747.45,-249.43"/>
</a>
</g>
</g>
<!-- Node4&#45;&gt;Node3 -->
<g id="edge4_Node000004_Node000003" class="edge">
<title>Node4&#45;&gt;Node3</title>
<g id="a_edge4_Node000004_Node000003"><a xlink:title=" ">
<path fill="none" stroke="#63b8ff" d="M822.96,-209.96C840.76,-204.86 860.42,-199.22 877.4,-194.35"/>
<polygon fill="#63b8ff" stroke="#63b8ff" points="878.41,-197.71 887.06,-191.59 876.48,-190.98 878.41,-197.71"/>
</a>
</g>
</g>
<!-- Node5&#45;&gt;Node2 -->
<g id="edge12_Node000005_Node000002" class="edge">
<title>Node5&#45;&gt;Node2</title>
<g id="a_edge12_Node000005_Node000002"><a xlink:title=" ">
<path fill="none" stroke="#63b8ff" d="M287.48,-197.02C300.64,-206.22 317.56,-218.42 332,-230 348.7,-243.39 350.4,-249.81 368,-262 379.15,-269.72 392.2,-276.93 403.78,-282.79"/>
<polygon fill="#63b8ff" stroke="#63b8ff" points="402.56,-286.09 413.08,-287.37 405.65,-279.81 402.56,-286.09"/>
</a>
</g>
</g>
<!-- Node6 -->
<g id="Node000006" class="node">
<title>Node6</title>
<g id="a_Node000006"><a xlink:href="namespacenetspeak_1_1util.html#a4acc3d13f8d541f4b65dd44f486403fd" target="_top" xlink:title=" ">
<polygon fill="white" stroke="#666666" points="665,-280.5 548,-280.5 548,-261.5 665,-261.5 665,-280.5"/>
<text text-anchor="middle" x="606.5" y="-268.5" font-family="Helvetica,sans-Serif" font-size="10.00">netspeak::util::fopen</text>
</a>
</g>
</g>
<!-- Node5&#45;&gt;Node6 -->
<g id="edge6_Node000005_Node000006" class="edge">
<title>Node5&#45;&gt;Node6</title>
<g id="a_edge6_Node000005_Node000006"><a xlink:title=" ">
<path fill="none" stroke="#63b8ff" d="M323.18,-197.1C389.76,-214.53 497.95,-242.85 559.26,-258.9"/>
<polygon fill="#63b8ff" stroke="#63b8ff" points="558.49,-262.31 569.05,-261.46 560.26,-255.54 558.49,-262.31"/>
</a>
</g>
</g>
<!-- Node7 -->
<g id="Node000007" class="node">
<title>Node7</title>
<g id="a_Node000007"><a xlink:href="namespacenetspeak_1_1util.html#a0f64660040077bd1ae3a46941a000b07" target="_top" xlink:title=" ">
<polygon fill="white" stroke="#666666" points="664,-146.5 549,-146.5 549,-127.5 664,-127.5 664,-146.5"/>
<text text-anchor="middle" x="606.5" y="-134.5" font-family="Helvetica,sans-Serif" font-size="10.00">netspeak::util::fread</text>
</a>
</g>
</g>
<!-- Node5&#45;&gt;Node7 -->
<g id="edge9_Node000005_Node000007" class="edge">
<title>Node5&#45;&gt;Node7</title>
<g id="a_edge9_Node000005_Node000007"><a xlink:title=" ">
<path fill="none" stroke="#63b8ff" d="M323.22,-166.98C337.75,-163.61 353.38,-160.35 368,-158 425.12,-148.84 490.65,-143.42 538.39,-140.39"/>
<polygon fill="#63b8ff" stroke="#63b8ff" points="538.83,-143.87 548.6,-139.76 538.4,-136.88 538.83,-143.87"/>
</a>
</g>
</g>
<!-- Node8 -->
<g id="Node000008" class="node">
<title>Node8</title>
<g id="a_Node000008"><a xlink:href="namespacenetspeak_1_1util.html#a40f06a45e10cacbbc067fdd36cb252b0" target="_top" xlink:title=" ">
<polygon fill="white" stroke="#666666" points="660.5,-109.5 552.5,-109.5 552.5,-90.5 660.5,-90.5 660.5,-109.5"/>
<text text-anchor="middle" x="606.5" y="-97.5" font-family="Helvetica,sans-Serif" font-size="10.00">netspeak::util::ftell</text>
</a>
</g>
</g>
<!-- Node5&#45;&gt;Node8 -->
<g id="edge13_Node000005_Node000008" class="edge">
<title>Node5&#45;&gt;Node8</title>
<g id="a_edge13_Node000005_Node000008"><a xlink:title=" ">
<path fill="none" stroke="#63b8ff" d="M295.28,-166.89C315.36,-157.29 342.7,-145.33 368,-138 425.85,-121.24 493.91,-111.3 542.31,-105.82"/>
<polygon fill="#63b8ff" stroke="#63b8ff" points="542.77,-109.29 552.32,-104.72 542,-102.33 542.77,-109.29"/>
</a>
</g>
</g>
<!-- Node9 -->
<g id="Node000009" class="node">
<title>Node9</title>
<g id="a_Node000009"><a xlink:href="namespacenetspeak_1_1util.html#ad2441a387c3a4c47e09c373e9412fad0" target="_top" xlink:title=" ">
<polygon fill="white" stroke="#666666" points="658.5,-72.5 554.5,-72.5 554.5,-53.5 658.5,-53.5 658.5,-72.5"/>
<text text-anchor="middle" x="606.5" y="-60.5" font-family="Helvetica,sans-Serif" font-size="10.00">netspeak::util::log</text>
</a>
</g>
</g>
<!-- Node5&#45;&gt;Node9 -->
<g id="edge16_Node000005_Node000009" class="edge">
<title>Node5&#45;&gt;Node9</title>
<g id="a_edge16_Node000005_Node000009"><a xlink:title=" ">
<path fill="none" stroke="#63b8ff" d="M281.06,-166.79C299.98,-149.23 333.64,-120.87 368,-106 424.72,-81.44 494.93,-70.91 544.25,-66.39"/>
<polygon fill="#63b8ff" stroke="#63b8ff" points="544.78,-69.86 554.44,-65.52 544.18,-62.88 544.78,-69.86"/>
</a>
</g>
</g>
<!-- Node12 -->
<g id="Node000012" class="node">
<title>Node12</title>
<g id="a_Node000012"><a xlink:href="classnetspeak_1_1invertedindex_1_1ByteBuffer.html#a2f5a59f9d290bd2116bbd73244666171" target="_top" xlink:title=" ">
<polygon fill="white" stroke="#666666" points="503,-197 368,-197 368,-167 503,-167 503,-197"/>
<text text-anchor="start" x="376" y="-185" font-family="Helvetica,sans-Serif" font-size="10.00">netspeak::invertedindex</text>
<text text-anchor="middle" x="435.5" y="-174" font-family="Helvetica,sans-Serif" font-size="10.00">::ByteBuffer::read</text>
</a>
</g>
</g>
<!-- Node5&#45;&gt;Node12 -->
<g id="edge21_Node000005_Node000012" class="edge">
<title>Node5&#45;&gt;Node12</title>
<g id="a_edge21_Node000005_Node000012"><a xlink:title=" ">
<path fill="none" stroke="#63b8ff" d="M332.29,-182C340.62,-182 349.19,-182 357.66,-182"/>
<polygon fill="#63b8ff" stroke="#63b8ff" points="357.92,-185.5 367.92,-182 357.92,-178.5 357.92,-185.5"/>
</a>
</g>
</g>
<!-- Node6&#45;&gt;Node3 -->
<g id="edge7_Node000006_Node000003" class="edge">
<title>Node6&#45;&gt;Node3</title>
<g id="a_edge7_Node000006_Node000003"><a xlink:title=" ">
<path fill="none" stroke="#63b8ff" d="M665.39,-273.47C711.23,-273.52 776.13,-269.24 829,-249 858.08,-237.87 886.14,-214.93 903.35,-199.01"/>
<polygon fill="#63b8ff" stroke="#63b8ff" points="906.05,-201.27 910.89,-191.85 901.23,-196.2 906.05,-201.27"/>
</a>
</g>
</g>
<!-- Node6&#45;&gt;Node4 -->
<g id="edge8_Node000006_Node000004" class="edge">
<title>Node6&#45;&gt;Node4</title>
<g id="a_edge8_Node000006_Node000004"><a xlink:title=" ">
<path fill="none" stroke="#63b8ff" d="M640.86,-261.47C659.71,-256.08 683.9,-249.17 706.13,-242.82"/>
<polygon fill="#63b8ff" stroke="#63b8ff" points="707.2,-246.16 715.85,-240.04 705.27,-239.42 707.2,-246.16"/>
</a>
</g>
</g>
<!-- Node7&#45;&gt;Node3 -->
<g id="edge10_Node000007_Node000003" class="edge">
<title>Node7&#45;&gt;Node3</title>
<g id="a_edge10_Node000007_Node000003"><a xlink:title=" ">
<path fill="none" stroke="#63b8ff" d="M649.74,-146.53C668.17,-150.46 690.09,-154.83 710,-158 758.32,-165.69 813.27,-171.87 854.9,-176.03"/>
<polygon fill="#63b8ff" stroke="#63b8ff" points="854.62,-179.52 864.92,-177.02 855.31,-172.55 854.62,-179.52"/>
</a>
</g>
</g>
<!-- Node7&#45;&gt;Node4 -->
<g id="edge11_Node000007_Node000004" class="edge">
<title>Node7&#45;&gt;Node4</title>
<g id="a_edge11_Node000007_Node000004"><a xlink:title=" ">
<path fill="none" stroke="#63b8ff" d="M653.66,-146.53C660.76,-149.01 667.79,-152.12 674,-156 694.29,-168.67 690.95,-181.54 710,-196 714.18,-199.17 718.77,-202.15 723.47,-204.89"/>
<polygon fill="#63b8ff" stroke="#63b8ff" points="722.13,-208.15 732.59,-209.87 725.49,-202.01 722.13,-208.15"/>
</a>
</g>
</g>
<!-- Node8&#45;&gt;Node3 -->
<g id="edge14_Node000008_Node000003" class="edge">
<title>Node8&#45;&gt;Node3</title>
<g id="a_edge14_Node000008_Node000003"><a xlink:title=" ">
<path fill="none" stroke="#63b8ff" d="M643.95,-109.54C687.85,-121.03 763.82,-140.92 829,-158 843.71,-161.86 859.76,-166.06 874.25,-169.86"/>
<polygon fill="#63b8ff" stroke="#63b8ff" points="873.43,-173.27 883.99,-172.42 875.21,-166.5 873.43,-173.27"/>
</a>
</g>
</g>
<!-- Node8&#45;&gt;Node4 -->
<g id="edge15_Node000008_Node000004" class="edge">
<title>Node8&#45;&gt;Node4</title>
<g id="a_edge15_Node000008_Node000004"><a xlink:title=" ">
<path fill="none" stroke="#63b8ff" d="M653.67,-109.5C660.77,-111.99 667.8,-115.11 674,-119 676.32,-120.46 721.15,-171.18 748.21,-201.93"/>
<polygon fill="#63b8ff" stroke="#63b8ff" points="745.77,-204.44 755,-209.64 751.02,-199.82 745.77,-204.44"/>
</a>
</g>
</g>
<!-- Node9&#45;&gt;Node3 -->
<g id="edge18_Node000009_Node000003" class="edge">
<title>Node9&#45;&gt;Node3</title>
<g id="a_edge18_Node000009_Node000003"><a xlink:title=" ">
<path fill="none" stroke="#63b8ff" d="M648.56,-72.52C703.23,-85.47 796.79,-108.67 829,-123 855.03,-134.58 882.13,-152.98 900.01,-166.15"/>
<polygon fill="#63b8ff" stroke="#63b8ff" points="898.37,-169.29 908.47,-172.5 902.57,-163.7 898.37,-169.29"/>
</a>
</g>
</g>
<!-- Node10 -->
<g id="Node000010" class="node">
<title>Node10</title>
<g id="a_Node000010"><a xlink:href="namespacenetspeak_1_1util.html#ab27a22c787271513007af0719b17cef9" target="_top" xlink:title=" ">
<polygon fill="white" stroke="#666666" points="822,-78 717,-78 717,-48 822,-48 822,-78"/>
<text text-anchor="start" x="725" y="-66" font-family="Helvetica,sans-Serif" font-size="10.00">netspeak::util::get</text>
<text text-anchor="middle" x="769.5" y="-55" font-family="Helvetica,sans-Serif" font-size="10.00">_log_mutex</text>
</a>
</g>
</g>
<!-- Node9&#45;&gt;Node10 -->
<g id="edge17_Node000009_Node000010" class="edge">
<title>Node9&#45;&gt;Node10</title>
<g id="a_edge17_Node000009_Node000010"><a xlink:title=" ">
<path fill="none" stroke="#63b8ff" d="M658.88,-63C674.06,-63 690.83,-63 706.59,-63"/>
<polygon fill="#63b8ff" stroke="#63b8ff" points="706.78,-66.5 716.78,-63 706.78,-59.5 706.78,-66.5"/>
</a>
</g>
</g>
<!-- Node11 -->
<g id="Node000011" class="node">
<title>Node11</title>
<g id="a_Node000011"><a xlink:href="namespacenetspeak_1_1util.html#a93e18aaa529a497b6afdf4b3bd221182" target="_top" xlink:title=" ">
<polygon fill="white" stroke="#666666" points="825.5,-30 713.5,-30 713.5,0 825.5,0 825.5,-30"/>
<text text-anchor="start" x="721.5" y="-18" font-family="Helvetica,sans-Serif" font-size="10.00">netspeak::util::print</text>
<text text-anchor="middle" x="769.5" y="-7" font-family="Helvetica,sans-Serif" font-size="10.00">_timestamp_to</text>
</a>
</g>
</g>
<!-- Node9&#45;&gt;Node11 -->
<g id="edge19_Node000009_Node000011" class="edge">
<title>Node9&#45;&gt;Node11</title>
<g id="a_edge19_Node000009_Node000011"><a xlink:title=" ">
<path fill="none" stroke="#63b8ff" d="M639.69,-53.4C659.29,-47.56 684.94,-39.91 708.18,-32.98"/>
<polygon fill="#63b8ff" stroke="#63b8ff" points="709.39,-36.27 717.98,-30.06 707.39,-29.57 709.39,-36.27"/>
</a>
</g>
</g>
<!-- Node11&#45;&gt;Node3 -->
<g id="edge20_Node000011_Node000003" class="edge">
<title>Node11&#45;&gt;Node3</title>
<g id="a_edge20_Node000011_Node000003"><a xlink:title=" ">
<path fill="none" stroke="#63b8ff" d="M815.59,-30.1C820.37,-32.67 824.95,-35.62 829,-39 870.7,-73.8 899.78,-132.59 912.8,-162.81"/>
<polygon fill="#63b8ff" stroke="#63b8ff" points="909.64,-164.34 916.73,-172.22 916.1,-161.64 909.64,-164.34"/>
</a>
</g>
</g>
<!-- Node12&#45;&gt;Node7 -->
<g id="edge22_Node000012_Node000007" class="edge">
<title>Node12&#45;&gt;Node7</title>
<g id="a_edge22_Node000012_Node000007"><a xlink:title=" ">
<path fill="none" stroke="#63b8ff" d="M493.24,-166.89C515,-161.1 539.52,-154.57 560.08,-149.1"/>
<polygon fill="#63b8ff" stroke="#63b8ff" points="561.06,-152.46 569.82,-146.5 559.26,-145.69 561.06,-152.46"/>
</a>
</g>
</g>
<!-- Node13 -->
<g id="Node000013" class="node">
<title>Node13</title>
<g id="a_Node000013"><a xlink:href="classnetspeak_1_1invertedindex_1_1ByteBuffer.html#a109be725161102fab0e4b4ee0651491e" target="_top" xlink:title=" ">
<polygon fill="white" stroke="#666666" points="674,-243 539,-243 539,-213 674,-213 674,-243"/>
<text text-anchor="start" x="547" y="-231" font-family="Helvetica,sans-Serif" font-size="10.00">netspeak::invertedindex</text>
<text text-anchor="middle" x="606.5" y="-220" font-family="Helvetica,sans-Serif" font-size="10.00">::ByteBuffer::rewind</text>
</a>
</g>
</g>
<!-- Node12&#45;&gt;Node13 -->
<g id="edge23_Node000012_Node000013" class="edge">
<title>Node12&#45;&gt;Node13</title>
<g id="a_edge23_Node000012_Node000013"><a xlink:title=" ">
<path fill="none" stroke="#63b8ff" d="M491.84,-197.06C507.38,-201.29 524.43,-205.93 540.48,-210.3"/>
<polygon fill="#63b8ff" stroke="#63b8ff" points="539.76,-213.73 550.33,-212.98 541.6,-206.98 539.76,-213.73"/>
</a>
</g>
</g>
<!-- Node14 -->
<g id="Node000014" class="node">
<title>Node14</title>
<g id="a_Node000014"><a xlink:href="classnetspeak_1_1invertedindex_1_1ByteBuffer.html#ac7160f8bd36f86815662909c0722556f" target="_top" xlink:title=" ">
<polygon fill="white" stroke="#666666" points="674,-195 539,-195 539,-165 674,-165 674,-195"/>
<text text-anchor="start" x="547" y="-183" font-family="Helvetica,sans-Serif" font-size="10.00">netspeak::invertedindex</text>
<text text-anchor="middle" x="606.5" y="-172" font-family="Helvetica,sans-Serif" font-size="10.00">::ByteBuffer::size</text>
</a>
</g>
</g>
<!-- Node12&#45;&gt;Node14 -->
<g id="edge24_Node000012_Node000014" class="edge">
<title>Node12&#45;&gt;Node14</title>
<g id="a_edge24_Node000012_Node000014"><a xlink:title=" ">
<path fill="none" stroke="#63b8ff" d="M503.29,-181.21C511.62,-181.11 520.19,-181.01 528.66,-180.91"/>
<polygon fill="#63b8ff" stroke="#63b8ff" points="528.96,-184.41 538.92,-180.79 528.87,-177.41 528.96,-184.41"/>
</a>
</g>
</g>
</g>
</svg>
