<?xml version="1.0" encoding="UTF-8" standalone="no"?>
<!DOCTYPE svg PUBLIC "-//W3C//DTD SVG 1.1//EN"
 "http://www.w3.org/Graphics/SVG/1.1/DTD/svg11.dtd">
<!-- Generated by graphviz version 2.43.0 (0)
 -->
<!-- Title: netspeak::invertedindex::PostlistBuilder::build Pages: 1 -->
<svg width="676pt" height="161pt"
 viewBox="0.00 0.00 676.00 161.00" xmlns="http://www.w3.org/2000/svg" xmlns:xlink="http://www.w3.org/1999/xlink">
<g id="graph0" class="graph" transform="scale(1 1) rotate(0) translate(4 157)">
<title>netspeak::invertedindex::PostlistBuilder::build</title>
<!-- Node1 -->
<g id="Node000001" class="node">
<title>Node1</title>
<g id="a_Node000001"><a xlink:title=" ">
<polygon fill="#999999" stroke="#666666" points="668,-105 533,-105 533,-75 668,-75 668,-105"/>
<text text-anchor="start" x="541" y="-93" font-family="Helvetica,sans-Serif" font-size="10.00">netspeak::invertedindex</text>
<text text-anchor="middle" x="600.5" y="-82" font-family="Helvetica,sans-Serif" font-size="10.00">::PostlistBuilder::build</text>
</a>
</g>
</g>
<!-- Node2 -->
<g id="Node000002" class="node">
<title>Node2</title>
<g id="a_Node000002"><a xlink:href="classnetspeak_1_1invertedindex_1_1PostlistSorter.html#a0bb0492d40e3460f4463a35843df5bf7" target="_top" xlink:title=" ">
<polygon fill="white" stroke="#666666" points="497,-153 342,-153 342,-123 497,-123 497,-153"/>
<text text-anchor="start" x="350" y="-141" font-family="Helvetica,sans-Serif" font-size="10.00">netspeak::invertedindex</text>
<text text-anchor="middle" x="419.5" y="-130" font-family="Helvetica,sans-Serif" font-size="10.00">::PostlistSorter::internal_sort</text>
</a>
</g>
</g>
<!-- Node1&#45;&gt;Node2 -->
<g id="edge1_Node000001_Node000002" class="edge">
<title>Node1&#45;&gt;Node2</title>
<g id="a_edge1_Node000001_Node000002"><a xlink:title=" ">
<path fill="none" stroke="#63b8ff" d="M533.68,-107.65C514.89,-112.69 494.59,-118.13 476.45,-123"/>
<polygon fill="#63b8ff" stroke="#63b8ff" points="534.6,-111.03 543.35,-105.06 532.79,-104.27 534.6,-111.03"/>
</a>
</g>
</g>
<!-- Node5 -->
<g id="Node000005" class="node">
<title>Node5</title>
<g id="a_Node000005"><a xlink:href="classnetspeak_1_1invertedindex_1_1PostlistSorter.html#a3a4bdc4279ad3c23c77d69c629f4b89a" target="_top" xlink:title=" ">
<polygon fill="white" stroke="#666666" points="487,-105 352,-105 352,-75 487,-75 487,-105"/>
<text text-anchor="start" x="360" y="-93" font-family="Helvetica,sans-Serif" font-size="10.00">netspeak::invertedindex</text>
<text text-anchor="middle" x="419.5" y="-82" font-family="Helvetica,sans-Serif" font-size="10.00">::PostlistSorter::merge</text>
</a>
</g>
</g>
<!-- Node1&#45;&gt;Node5 -->
<g id="edge4_Node000001_Node000005" class="edge">
<title>Node1&#45;&gt;Node5</title>
<g id="a_edge4_Node000001_Node000005"><a xlink:title=" ">
<path fill="none" stroke="#63b8ff" d="M522.59,-90C510.82,-90 498.74,-90 487.21,-90"/>
<polygon fill="#63b8ff" stroke="#63b8ff" points="522.85,-93.5 532.85,-90 522.85,-86.5 522.85,-93.5"/>
</a>
</g>
</g>
<!-- Node6 -->
<g id="Node000006" class="node">
<title>Node6</title>
<g id="a_Node000006"><a xlink:href="classnetspeak_1_1invertedindex_1_1SortedInput.html#a7a0960a0a573256e0887b29e8650a799" target="_top" xlink:title=" ">
<polygon fill="white" stroke="#666666" points="494,-56.5 345,-56.5 345,-15.5 494,-15.5 494,-56.5"/>
<text text-anchor="start" x="353" y="-44.5" font-family="Helvetica,sans-Serif" font-size="10.00">netspeak::invertedindex</text>
<text text-anchor="start" x="353" y="-33.5" font-family="Helvetica,sans-Serif" font-size="10.00">::SortedInput::write_current</text>
<text text-anchor="middle" x="419.5" y="-22.5" font-family="Helvetica,sans-Serif" font-size="10.00">_postlist_</text>
</a>
</g>
</g>
<!-- Node1&#45;&gt;Node6 -->
<g id="edge6_Node000001_Node000006" class="edge">
<title>Node1&#45;&gt;Node6</title>
<g id="a_edge6_Node000001_Node000006"><a xlink:title=" ">
<path fill="none" stroke="#63b8ff" d="M539.64,-71.94C523.23,-66.99 505.32,-61.59 488.49,-56.51"/>
<polygon fill="#63b8ff" stroke="#63b8ff" points="539.05,-75.42 549.64,-74.96 541.08,-68.72 539.05,-75.42"/>
</a>
</g>
</g>
<!-- Node3 -->
<g id="Node000003" class="node">
<title>Node3</title>
<g id="a_Node000003"><a xlink:href="classnetspeak_1_1invertedindex_1_1PostlistSorter.html#a58f01b8d58f6487a4ceb2f1ab3d2f0a1" target="_top" xlink:title=" ">
<polygon fill="white" stroke="#666666" points="306,-139 171,-139 171,-109 306,-109 306,-139"/>
<text text-anchor="start" x="179" y="-127" font-family="Helvetica,sans-Serif" font-size="10.00">netspeak::invertedindex</text>
<text text-anchor="middle" x="238.5" y="-116" font-family="Helvetica,sans-Serif" font-size="10.00">::PostlistSorter::sort</text>
</a>
</g>
</g>
<!-- Node2&#45;&gt;Node3 -->
<g id="edge2_Node000002_Node000003" class="edge">
<title>Node2&#45;&gt;Node3</title>
<g id="a_edge2_Node000002_Node000003"><a xlink:title=" ">
<path fill="none" stroke="#63b8ff" d="M331.75,-131.21C323.15,-130.54 314.51,-129.87 306.16,-129.21"/>
<polygon fill="#63b8ff" stroke="#63b8ff" points="331.57,-134.71 341.81,-132 332.11,-127.73 331.57,-134.71"/>
</a>
</g>
</g>
<!-- Node4 -->
<g id="Node000004" class="node">
<title>Node4</title>
<g id="a_Node000004"><a xlink:href="classnetspeak_1_1invertedindex_1_1UnsortedInput.html#ac107e445403ad38a4774f83e92e9bb70" target="_top" xlink:title=" ">
<polygon fill="white" stroke="#666666" points="135,-139 0,-139 0,-109 135,-109 135,-139"/>
<text text-anchor="start" x="8" y="-127" font-family="Helvetica,sans-Serif" font-size="10.00">netspeak::invertedindex</text>
<text text-anchor="middle" x="67.5" y="-116" font-family="Helvetica,sans-Serif" font-size="10.00">::UnsortedInput::sort</text>
</a>
</g>
</g>
<!-- Node3&#45;&gt;Node4 -->
<g id="edge3_Node000003_Node000004" class="edge">
<title>Node3&#45;&gt;Node4</title>
<g id="a_edge3_Node000003_Node000004"><a xlink:title=" ">
<path fill="none" stroke="#63b8ff" d="M160.45,-124C151.98,-124 143.41,-124 135.08,-124"/>
<polygon fill="#63b8ff" stroke="#63b8ff" points="160.71,-127.5 170.71,-124 160.71,-120.5 160.71,-127.5"/>
</a>
</g>
</g>
<!-- Node5&#45;&gt;Node3 -->
<g id="edge5_Node000005_Node000003" class="edge">
<title>Node5&#45;&gt;Node3</title>
<g id="a_edge5_Node000005_Node000003"><a xlink:title=" ">
<path fill="none" stroke="#63b8ff" d="M341.95,-104.54C330.06,-106.8 317.86,-109.12 306.21,-111.33"/>
<polygon fill="#63b8ff" stroke="#63b8ff" points="342.68,-107.97 351.85,-102.66 341.37,-101.09 342.68,-107.97"/>
</a>
</g>
</g>
<!-- Node7 -->
<g id="Node000007" class="node">
<title>Node7</title>
<g id="a_Node000007"><a xlink:href="classnetspeak_1_1invertedindex_1_1SortedInput.html#ae3183e635b4fa91c0b855773b95ce99c" target="_top" xlink:title=" ">
<polygon fill="white" stroke="#666666" points="306,-78 171,-78 171,-48 306,-48 306,-78"/>
<text text-anchor="start" x="179" y="-66" font-family="Helvetica,sans-Serif" font-size="10.00">netspeak::invertedindex</text>
<text text-anchor="middle" x="238.5" y="-55" font-family="Helvetica,sans-Serif" font-size="10.00">::SortedInput::index</text>
</a>
</g>
</g>
<!-- Node6&#45;&gt;Node7 -->
<g id="edge7_Node000006_Node000007" class="edge">
<title>Node6&#45;&gt;Node7</title>
<g id="a_edge7_Node000006_Node000007"><a xlink:title=" ">
<path fill="none" stroke="#63b8ff" d="M334.93,-48.61C325.29,-50.06 315.56,-51.53 306.19,-52.94"/>
<polygon fill="#63b8ff" stroke="#63b8ff" points="335.55,-52.05 344.92,-47.1 334.51,-45.13 335.55,-52.05"/>
</a>
</g>
</g>
<!-- Node8 -->
<g id="Node000008" class="node">
<title>Node8</title>
<g id="a_Node000008"><a xlink:href="classnetspeak_1_1invertedindex_1_1SortedInput.html#a6aff15206149d6721ea2bbd44a1aebd6" target="_top" xlink:title=" ">
<polygon fill="white" stroke="#666666" points="306,-30 171,-30 171,0 306,0 306,-30"/>
<text text-anchor="start" x="179" y="-18" font-family="Helvetica,sans-Serif" font-size="10.00">netspeak::invertedindex</text>
<text text-anchor="middle" x="238.5" y="-7" font-family="Helvetica,sans-Serif" font-size="10.00">::SortedInput::insert_</text>
</a>
</g>
</g>
<!-- Node6&#45;&gt;Node8 -->
<g id="edge8_Node000006_Node000008" class="edge">
<title>Node6&#45;&gt;Node8</title>
<g id="a_edge8_Node000006_Node000008"><a xlink:title=" ">
<path fill="none" stroke="#63b8ff" d="M334.93,-26.2C325.29,-25.07 315.56,-23.92 306.19,-22.82"/>
<polygon fill="#63b8ff" stroke="#63b8ff" points="334.58,-29.68 344.92,-27.37 335.39,-22.73 334.58,-29.68"/>
</a>
</g>
</g>
</g>
</svg>
