<?xml version="1.0" encoding="UTF-8" standalone="no"?>
<!DOCTYPE svg PUBLIC "-//W3C//DTD SVG 1.1//EN"
 "http://www.w3.org/Graphics/SVG/1.1/DTD/svg11.dtd">
<!-- Generated by graphviz version 2.43.0 (0)
 -->
<!-- Title: netspeak::model::NormQueryUnit__::source Pages: 1 -->
<svg width="1145pt" height="134pt"
 viewBox="0.00 0.00 1145.00 134.00" xmlns="http://www.w3.org/2000/svg" xmlns:xlink="http://www.w3.org/1999/xlink">
<g id="graph0" class="graph" transform="scale(1 1) rotate(0) translate(4 130)">
<title>netspeak::model::NormQueryUnit__::source</title>
<!-- Node1 -->
<g id="Node000001" class="node">
<title>Node1</title>
<g id="a_Node000001"><a xlink:title=" ">
<polygon fill="#999999" stroke="#666666" points="1137,-78 976,-78 976,-48 1137,-48 1137,-78"/>
<text text-anchor="start" x="984" y="-66" font-family="Helvetica,sans-Serif" font-size="10.00">netspeak::model::NormQuery</text>
<text text-anchor="middle" x="1056.5" y="-55" font-family="Helvetica,sans-Serif" font-size="10.00">Unit__::source</text>
</a>
</g>
</g>
<!-- Node2 -->
<g id="Node000002" class="node">
<title>Node2</title>
<g id="a_Node000002"><a xlink:href="classnetspeak_1_1model_1_1NormQueryUnit____.html#a10e94517dedda4444f587c76f12691db" target="_top" xlink:title=" ">
<polygon fill="white" stroke="#666666" points="940,-78 779,-78 779,-48 940,-48 940,-78"/>
<text text-anchor="start" x="787" y="-66" font-family="Helvetica,sans-Serif" font-size="10.00">netspeak::model::NormQuery</text>
<text text-anchor="middle" x="859.5" y="-55" font-family="Helvetica,sans-Serif" font-size="10.00">Unit__::qmark</text>
</a>
</g>
</g>
<!-- Node1&#45;&gt;Node2 -->
<g id="edge1_Node000001_Node000002" class="edge">
<title>Node1&#45;&gt;Node2</title>
<g id="a_edge1_Node000001_Node000002"><a xlink:title=" ">
<path fill="none" stroke="#63b8ff" d="M965.88,-63C957.3,-63 948.64,-63 940.16,-63"/>
<polygon fill="#63b8ff" stroke="#63b8ff" points="965.9,-66.5 975.9,-63 965.9,-59.5 965.9,-66.5"/>
</a>
</g>
</g>
<!-- Node8 -->
<g id="Node000008" class="node">
<title>Node8</title>
<g id="a_Node000008"><a xlink:href="namespacenetspeak.html#a5dfc32f282aa2ad493b13184b11ef68b" target="_top" xlink:title=" ">
<polygon fill="white" stroke="#666666" points="908.5,-27.5 810.5,-27.5 810.5,-8.5 908.5,-8.5 908.5,-27.5"/>
<text text-anchor="middle" x="859.5" y="-15.5" font-family="Helvetica,sans-Serif" font-size="10.00">netspeak::to_tag</text>
</a>
</g>
</g>
<!-- Node1&#45;&gt;Node8 -->
<g id="edge8_Node000001_Node000008" class="edge">
<title>Node1&#45;&gt;Node8</title>
<g id="a_edge8_Node000001_Node000008"><a xlink:title=" ">
<path fill="none" stroke="#63b8ff" d="M980.21,-45.63C953.56,-39.47 924.56,-32.78 901.78,-27.53"/>
<polygon fill="#63b8ff" stroke="#63b8ff" points="979.77,-49.11 990.3,-47.95 981.34,-42.29 979.77,-49.11"/>
</a>
</g>
</g>
<!-- Node11 -->
<g id="Node000011" class="node">
<title>Node11</title>
<g id="a_Node000011"><a xlink:href="classnetspeak_1_1model_1_1NormQueryUnit____.html#a90ea86da4e6967f5690e0483b810e897" target="_top" xlink:title=" ">
<polygon fill="white" stroke="#666666" points="940,-126 779,-126 779,-96 940,-96 940,-126"/>
<text text-anchor="start" x="787" y="-114" font-family="Helvetica,sans-Serif" font-size="10.00">netspeak::model::NormQuery</text>
<text text-anchor="middle" x="859.5" y="-103" font-family="Helvetica,sans-Serif" font-size="10.00">Unit__::word</text>
</a>
</g>
</g>
<!-- Node1&#45;&gt;Node11 -->
<g id="edge11_Node000001_Node000011" class="edge">
<title>Node1&#45;&gt;Node11</title>
<g id="a_edge11_Node000001_Node000011"><a xlink:title=" ">
<path fill="none" stroke="#63b8ff" d="M984.36,-80.51C963.73,-85.59 941.4,-91.09 921.45,-96"/>
<polygon fill="#63b8ff" stroke="#63b8ff" points="985.46,-83.84 994.34,-78.06 983.79,-77.05 985.46,-83.84"/>
</a>
</g>
</g>
<!-- Node3 -->
<g id="Node000003" class="node">
<title>Node3</title>
<g id="a_Node000003"><a xlink:href="classnetspeak_1_1SimpleQueryNormalizer.html#afd2caf62dcb75af59e7d95298d431f29" target="_top" xlink:title=" ">
<polygon fill="white" stroke="#666666" points="743,-126 558,-126 558,-96 743,-96 743,-126"/>
<text text-anchor="start" x="566" y="-114" font-family="Helvetica,sans-Serif" font-size="10.00">netspeak::SimpleQueryNormalizer</text>
<text text-anchor="middle" x="650.5" y="-103" font-family="Helvetica,sans-Serif" font-size="10.00">::add_simple</text>
</a>
</g>
</g>
<!-- Node2&#45;&gt;Node3 -->
<g id="edge2_Node000002_Node000003" class="edge">
<title>Node2&#45;&gt;Node3</title>
<g id="a_edge2_Node000002_Node000003"><a xlink:title=" ">
<path fill="none" stroke="#63b8ff" d="M783.58,-80.37C761.51,-85.49 737.57,-91.04 716.2,-96"/>
<polygon fill="#63b8ff" stroke="#63b8ff" points="784.62,-83.72 793.57,-78.06 783.04,-76.91 784.62,-83.72"/>
</a>
</g>
</g>
<!-- Node7 -->
<g id="Node000007" class="node">
<title>Node7</title>
<g id="a_Node000007"><a xlink:href="classnetspeak_1_1SimpleQueryNormalizer.html#a64b4efb1803b5ed2bd2b1dc7197938f5" target="_top" xlink:title=" ">
<polygon fill="white" stroke="#666666" points="743,-78 558,-78 558,-48 743,-48 743,-78"/>
<text text-anchor="start" x="566" y="-66" font-family="Helvetica,sans-Serif" font-size="10.00">netspeak::SimpleQueryNormalizer</text>
<text text-anchor="middle" x="650.5" y="-55" font-family="Helvetica,sans-Serif" font-size="10.00">::add_with_stars</text>
</a>
</g>
</g>
<!-- Node2&#45;&gt;Node7 -->
<g id="edge6_Node000002_Node000007" class="edge">
<title>Node2&#45;&gt;Node7</title>
<g id="a_edge6_Node000002_Node000007"><a xlink:title=" ">
<path fill="none" stroke="#63b8ff" d="M768.6,-63C760.2,-63 751.69,-63 743.28,-63"/>
<polygon fill="#63b8ff" stroke="#63b8ff" points="768.76,-66.5 778.76,-63 768.76,-59.5 768.76,-66.5"/>
</a>
</g>
</g>
<!-- Node4 -->
<g id="Node000004" class="node">
<title>Node4</title>
<g id="a_Node000004"><a xlink:href="classnetspeak_1_1SimpleQueryNormalizer.html#a64fc82bf1d46c167bbb645835120b233" target="_top" xlink:title="Converts the given simple query into norm queries and adds them to the given list of norm queries.">
<polygon fill="white" stroke="#666666" points="522,-102 337,-102 337,-72 522,-72 522,-102"/>
<text text-anchor="start" x="345" y="-90" font-family="Helvetica,sans-Serif" font-size="10.00">netspeak::SimpleQueryNormalizer</text>
<text text-anchor="middle" x="429.5" y="-79" font-family="Helvetica,sans-Serif" font-size="10.00">::to_norm_queries</text>
</a>
</g>
</g>
<!-- Node3&#45;&gt;Node4 -->
<g id="edge3_Node000003_Node000004" class="edge">
<title>Node3&#45;&gt;Node4</title>
<g id="a_edge3_Node000003_Node000004"><a xlink:title=" ">
<path fill="none" stroke="#63b8ff" d="M547.85,-99.86C539.26,-98.92 530.6,-97.97 522.09,-97.04"/>
<polygon fill="#63b8ff" stroke="#63b8ff" points="547.57,-103.35 557.89,-100.96 548.33,-96.39 547.57,-103.35"/>
</a>
</g>
</g>
<!-- Node5 -->
<g id="Node000005" class="node">
<title>Node5</title>
<g id="a_Node000005"><a xlink:href="classnetspeak_1_1QueryNormalizer.html#a70187ab668d98c93cfc3a8d05ca1508e" target="_top" xlink:title=" ">
<polygon fill="white" stroke="#666666" points="301,-102 150,-102 150,-72 301,-72 301,-102"/>
<text text-anchor="start" x="158" y="-90" font-family="Helvetica,sans-Serif" font-size="10.00">netspeak::QueryNormalizer</text>
<text text-anchor="middle" x="225.5" y="-79" font-family="Helvetica,sans-Serif" font-size="10.00">::normalize</text>
</a>
</g>
</g>
<!-- Node4&#45;&gt;Node5 -->
<g id="edge4_Node000004_Node000005" class="edge">
<title>Node4&#45;&gt;Node5</title>
<g id="a_edge4_Node000004_Node000005"><a xlink:title=" ">
<path fill="none" stroke="#63b8ff" d="M326.8,-87C318.14,-87 309.48,-87 301.09,-87"/>
<polygon fill="#63b8ff" stroke="#63b8ff" points="326.96,-90.5 336.96,-87 326.96,-83.5 326.96,-90.5"/>
</a>
</g>
</g>
<!-- Node6 -->
<g id="Node000006" class="node">
<title>Node6</title>
<g id="a_Node000006"><a xlink:href="classnetspeak_1_1Netspeak.html#aaa049275c7a0a7f6721acf7422402bff" target="_top" xlink:title=" ">
<polygon fill="white" stroke="#666666" points="114,-102 0,-102 0,-72 114,-72 114,-102"/>
<text text-anchor="start" x="8" y="-90" font-family="Helvetica,sans-Serif" font-size="10.00">netspeak::Netspeak</text>
<text text-anchor="middle" x="57" y="-79" font-family="Helvetica,sans-Serif" font-size="10.00">::search_raw_</text>
</a>
</g>
</g>
<!-- Node5&#45;&gt;Node6 -->
<g id="edge5_Node000005_Node000006" class="edge">
<title>Node5&#45;&gt;Node6</title>
<g id="a_edge5_Node000005_Node000006"><a xlink:title=" ">
<path fill="none" stroke="#63b8ff" d="M139.45,-87C130.85,-87 122.28,-87 114.1,-87"/>
<polygon fill="#63b8ff" stroke="#63b8ff" points="139.53,-90.5 149.53,-87 139.53,-83.5 139.53,-90.5"/>
</a>
</g>
</g>
<!-- Node7&#45;&gt;Node4 -->
<g id="edge7_Node000007_Node000004" class="edge">
<title>Node7&#45;&gt;Node4</title>
<g id="a_edge7_Node000007_Node000004"><a xlink:title=" ">
<path fill="none" stroke="#63b8ff" d="M547.85,-74.14C539.26,-75.08 530.6,-76.03 522.09,-76.96"/>
<polygon fill="#63b8ff" stroke="#63b8ff" points="548.33,-77.61 557.89,-73.04 547.57,-70.65 548.33,-77.61"/>
</a>
</g>
</g>
<!-- Node9 -->
<g id="Node000009" class="node">
<title>Node9</title>
<g id="a_Node000009"><a xlink:href="namespacenetspeak.html#ad74fec567cecadce429daf41e8d8cd32" target="_top" xlink:title="Converts the given search result item into a (service) phrase.">
<polygon fill="white" stroke="#666666" points="716.5,-30 584.5,-30 584.5,0 716.5,0 716.5,-30"/>
<text text-anchor="start" x="592.5" y="-18" font-family="Helvetica,sans-Serif" font-size="10.00">netspeak::set_response</text>
<text text-anchor="middle" x="650.5" y="-7" font-family="Helvetica,sans-Serif" font-size="10.00">_phrase</text>
</a>
</g>
</g>
<!-- Node8&#45;&gt;Node9 -->
<g id="edge9_Node000008_Node000009" class="edge">
<title>Node8&#45;&gt;Node9</title>
<g id="a_edge9_Node000008_Node000009"><a xlink:title=" ">
<path fill="none" stroke="#63b8ff" d="M800.41,-17.16C774.43,-16.78 743.68,-16.34 716.89,-15.95"/>
<polygon fill="#63b8ff" stroke="#63b8ff" points="800.44,-20.66 810.49,-17.3 800.54,-13.66 800.44,-20.66"/>
</a>
</g>
</g>
<!-- Node10 -->
<g id="Node000010" class="node">
<title>Node10</title>
<g id="a_Node000010"><a xlink:href="classnetspeak_1_1Netspeak.html#a1e105b00012dec5fc8e8534f2d9d8180" target="_top" xlink:title=" ">
<polygon fill="white" stroke="#666666" points="486.5,-30 372.5,-30 372.5,0 486.5,0 486.5,-30"/>
<text text-anchor="start" x="380.5" y="-18" font-family="Helvetica,sans-Serif" font-size="10.00">netspeak::Netspeak</text>
<text text-anchor="middle" x="429.5" y="-7" font-family="Helvetica,sans-Serif" font-size="10.00">::search</text>
</a>
</g>
</g>
<!-- Node9&#45;&gt;Node10 -->
<g id="edge10_Node000009_Node000010" class="edge">
<title>Node9&#45;&gt;Node10</title>
<g id="a_edge10_Node000009_Node000010"><a xlink:title=" ">
<path fill="none" stroke="#63b8ff" d="M574.02,-15C545.42,-15 513.37,-15 486.83,-15"/>
<polygon fill="#63b8ff" stroke="#63b8ff" points="574.39,-18.5 584.39,-15 574.39,-11.5 574.39,-18.5"/>
</a>
</g>
</g>
<!-- Node11&#45;&gt;Node3 -->
<g id="edge12_Node000011_Node000003" class="edge">
<title>Node11&#45;&gt;Node3</title>
<g id="a_edge12_Node000011_Node000003"><a xlink:title=" ">
<path fill="none" stroke="#63b8ff" d="M768.6,-111C760.2,-111 751.69,-111 743.28,-111"/>
<polygon fill="#63b8ff" stroke="#63b8ff" points="768.76,-114.5 778.76,-111 768.76,-107.5 768.76,-114.5"/>
</a>
</g>
</g>
<!-- Node11&#45;&gt;Node7 -->
<g id="edge13_Node000011_Node000007" class="edge">
<title>Node11&#45;&gt;Node7</title>
<g id="a_edge13_Node000011_Node000007"><a xlink:title=" ">
<path fill="none" stroke="#63b8ff" d="M783.58,-93.63C761.51,-88.51 737.57,-82.96 716.2,-78"/>
<polygon fill="#63b8ff" stroke="#63b8ff" points="783.04,-97.09 793.57,-95.94 784.62,-90.28 783.04,-97.09"/>
</a>
</g>
</g>
</g>
</svg>
