<?xml version="1.0" encoding="UTF-8" standalone="no"?>
<!DOCTYPE svg PUBLIC "-//W3C//DTD SVG 1.1//EN"
 "http://www.w3.org/Graphics/SVG/1.1/DTD/svg11.dtd">
<!-- Generated by graphviz version 2.43.0 (0)
 -->
<!-- Title: netspeak::util::StringIdMap::StringIdMap Pages: 1 -->
<svg width="465pt" height="124pt"
 viewBox="0.00 0.00 465.00 124.00" xmlns="http://www.w3.org/2000/svg" xmlns:xlink="http://www.w3.org/1999/xlink">
<g id="graph0" class="graph" transform="scale(1 1) rotate(0) translate(4 120)">
<title>netspeak::util::StringIdMap::StringIdMap</title>
<!-- Node1 -->
<g id="Node000001" class="node">
<title>Node1</title>
<g id="a_Node000001"><a xlink:title=" ">
<polygon fill="#999999" stroke="#666666" points="127,-73 0,-73 0,-43 127,-43 127,-73"/>
<text text-anchor="start" x="8" y="-61" font-family="Helvetica,sans-Serif" font-size="10.00">netspeak::util::StringId</text>
<text text-anchor="middle" x="63.5" y="-50" font-family="Helvetica,sans-Serif" font-size="10.00">Map::StringIdMap</text>
</a>
</g>
</g>
<!-- Node2 -->
<g id="Node000002" class="node">
<title>Node2</title>
<g id="a_Node000002"><a xlink:href="classnetspeak_1_1util_1_1StringIdMap.html#ac9bb146efee99556794d10947eb9ac2e" target="_top" xlink:title=" ">
<polygon fill="white" stroke="#666666" points="299,-116 172,-116 172,-86 299,-86 299,-116"/>
<text text-anchor="start" x="180" y="-104" font-family="Helvetica,sans-Serif" font-size="10.00">netspeak::util::StringId</text>
<text text-anchor="middle" x="235.5" y="-93" font-family="Helvetica,sans-Serif" font-size="10.00">Map::create_id_map</text>
</a>
</g>
</g>
<!-- Node1&#45;&gt;Node2 -->
<g id="edge1_Node000001_Node000002" class="edge">
<title>Node1&#45;&gt;Node2</title>
<g id="a_edge1_Node000001_Node000002"><a xlink:title=" ">
<path fill="none" stroke="#63b8ff" d="M123.96,-73.04C137.29,-76.41 151.54,-80.02 165.23,-83.48"/>
<polygon fill="#63b8ff" stroke="#63b8ff" points="164.52,-86.91 175.08,-85.97 166.24,-80.12 164.52,-86.91"/>
</a>
</g>
</g>
<!-- Node3 -->
<g id="Node000003" class="node">
<title>Node3</title>
<g id="a_Node000003"><a xlink:href="namespacenetspeak_1_1util.html#a4c91ad572508b4021399ac7dddff574d" target="_top" xlink:title=" ">
<polygon fill="white" stroke="#666666" points="457,-67.5 344,-67.5 344,-48.5 457,-48.5 457,-67.5"/>
<text text-anchor="middle" x="400.5" y="-55.5" font-family="Helvetica,sans-Serif" font-size="10.00">netspeak::util::hash</text>
</a>
</g>
</g>
<!-- Node1&#45;&gt;Node3 -->
<g id="edge5_Node000001_Node000003" class="edge">
<title>Node1&#45;&gt;Node3</title>
<g id="a_edge5_Node000001_Node000003"><a xlink:title=" ">
<path fill="none" stroke="#63b8ff" d="M127.12,-58C186.02,-58 273.86,-58 333.76,-58"/>
<polygon fill="#63b8ff" stroke="#63b8ff" points="333.86,-61.5 343.86,-58 333.86,-54.5 333.86,-61.5"/>
</a>
</g>
</g>
<!-- Node4 -->
<g id="Node000004" class="node">
<title>Node4</title>
<g id="a_Node000004"><a xlink:href="classnetspeak_1_1util_1_1StringIdMap.html#a090557f4d30f1edc918215938c025346" target="_top" xlink:title=" ">
<polygon fill="white" stroke="#666666" points="308,-30 163,-30 163,0 308,0 308,-30"/>
<text text-anchor="start" x="171" y="-18" font-family="Helvetica,sans-Serif" font-size="10.00">netspeak::util::StringId</text>
<text text-anchor="middle" x="235.5" y="-7" font-family="Helvetica,sans-Serif" font-size="10.00">Map::create_sorted_words</text>
</a>
</g>
</g>
<!-- Node1&#45;&gt;Node4 -->
<g id="edge3_Node000001_Node000004" class="edge">
<title>Node1&#45;&gt;Node4</title>
<g id="a_edge3_Node000001_Node000004"><a xlink:title=" ">
<path fill="none" stroke="#63b8ff" d="M123.96,-42.96C137.29,-39.59 151.54,-35.98 165.23,-32.52"/>
<polygon fill="#63b8ff" stroke="#63b8ff" points="166.24,-35.88 175.08,-30.03 164.52,-29.09 166.24,-35.88"/>
</a>
</g>
</g>
<!-- Node2&#45;&gt;Node3 -->
<g id="edge2_Node000002_Node000003" class="edge">
<title>Node2&#45;&gt;Node3</title>
<g id="a_edge2_Node000002_Node000003"><a xlink:title=" ">
<path fill="none" stroke="#63b8ff" d="M293.51,-85.96C313.12,-80.79 334.82,-75.06 353.44,-70.15"/>
<polygon fill="#63b8ff" stroke="#63b8ff" points="354.38,-73.52 363.16,-67.59 352.6,-66.75 354.38,-73.52"/>
</a>
</g>
</g>
<!-- Node4&#45;&gt;Node3 -->
<g id="edge4_Node000004_Node000003" class="edge">
<title>Node4&#45;&gt;Node3</title>
<g id="a_edge4_Node000004_Node000003"><a xlink:title=" ">
<path fill="none" stroke="#63b8ff" d="M293.51,-30.04C313.12,-35.21 334.82,-40.94 353.44,-45.85"/>
<polygon fill="#63b8ff" stroke="#63b8ff" points="352.6,-49.25 363.16,-48.41 354.38,-42.48 352.6,-49.25"/>
</a>
</g>
</g>
</g>
</svg>
