<?xml version="1.0" encoding="UTF-8" standalone="no"?>
<!DOCTYPE svg PUBLIC "-//W3C//DTD SVG 1.1//EN"
 "http://www.w3.org/Graphics/SVG/1.1/DTD/svg11.dtd">
<!-- Generated by graphviz version 2.43.0 (0)
 -->
<!-- Title: netspeak::Configuration::get_path Pages: 1 -->
<svg width="835pt" height="89pt"
 viewBox="0.00 0.00 835.00 88.50" xmlns="http://www.w3.org/2000/svg" xmlns:xlink="http://www.w3.org/1999/xlink">
<g id="graph0" class="graph" transform="scale(1 1) rotate(0) translate(4 84.5)">
<title>netspeak::Configuration::get_path</title>
<!-- Node1 -->
<g id="Node000001" class="node">
<title>Node1</title>
<g id="a_Node000001"><a xlink:title=" ">
<polygon fill="#999999" stroke="#666666" points="133,-42.5 0,-42.5 0,-12.5 133,-12.5 133,-42.5"/>
<text text-anchor="start" x="8" y="-30.5" font-family="Helvetica,sans-Serif" font-size="10.00">netspeak::Configuration</text>
<text text-anchor="middle" x="66.5" y="-19.5" font-family="Helvetica,sans-Serif" font-size="10.00">::get_path</text>
</a>
</g>
</g>
<!-- Node2 -->
<g id="Node000002" class="node">
<title>Node2</title>
<g id="a_Node000002"><a xlink:href="classnetspeak_1_1Configuration.html#a418506b5c21390339b097336b71afa93" target="_top" xlink:title=" ">
<polygon fill="white" stroke="#666666" points="324,-56 169,-56 169,-37 324,-37 324,-56"/>
<text text-anchor="middle" x="246.5" y="-44" font-family="Helvetica,sans-Serif" font-size="10.00">netspeak::Configuration::get</text>
</a>
</g>
</g>
<!-- Node1&#45;&gt;Node2 -->
<g id="edge1_Node000001_Node000002" class="edge">
<title>Node1&#45;&gt;Node2</title>
<g id="a_edge1_Node000001_Node000002"><a xlink:title=" ">
<path fill="none" stroke="#63b8ff" d="M133.02,-34.49C141.43,-35.39 150.14,-36.32 158.82,-37.25"/>
<polygon fill="#63b8ff" stroke="#63b8ff" points="158.66,-40.75 168.97,-38.33 159.4,-33.79 158.66,-40.75"/>
</a>
</g>
</g>
<!-- Node7 -->
<g id="Node000007" class="node">
<title>Node7</title>
<g id="a_Node000007"><a xlink:href="namespacenetspeak.html#a492bdb0b5b15556ec2f71bbe0e6bcf7a" target="_top" xlink:title=" ">
<polygon fill="white" stroke="#666666" points="306.5,-19 186.5,-19 186.5,0 306.5,0 306.5,-19"/>
<text text-anchor="middle" x="246.5" y="-7" font-family="Helvetica,sans-Serif" font-size="10.00">netspeak::relative_to</text>
</a>
</g>
</g>
<!-- Node1&#45;&gt;Node7 -->
<g id="edge7_Node000001_Node000007" class="edge">
<title>Node1&#45;&gt;Node7</title>
<g id="a_edge7_Node000001_Node000007"><a xlink:title=" ">
<path fill="none" stroke="#63b8ff" d="M133.02,-20.87C147.06,-19.45 161.94,-17.95 176.12,-16.52"/>
<polygon fill="#63b8ff" stroke="#63b8ff" points="176.7,-19.98 186.3,-15.49 176,-13.01 176.7,-19.98"/>
</a>
</g>
</g>
<!-- Node3 -->
<g id="Node000003" class="node">
<title>Node3</title>
<g id="a_Node000003"><a xlink:href="classnetspeak_1_1Configuration.html#aff9301d99209481a48c20c33a15de752" target="_top" xlink:title=" ">
<polygon fill="white" stroke="#666666" points="493,-61.5 360,-61.5 360,-31.5 493,-31.5 493,-61.5"/>
<text text-anchor="start" x="368" y="-49.5" font-family="Helvetica,sans-Serif" font-size="10.00">netspeak::Configuration</text>
<text text-anchor="middle" x="426.5" y="-38.5" font-family="Helvetica,sans-Serif" font-size="10.00">::get_optional</text>
</a>
</g>
</g>
<!-- Node2&#45;&gt;Node3 -->
<g id="edge2_Node000002_Node000003" class="edge">
<title>Node2&#45;&gt;Node3</title>
<g id="a_edge2_Node000002_Node000003"><a xlink:title=" ">
<path fill="none" stroke="#63b8ff" d="M324.02,-46.5C332.53,-46.5 341.19,-46.5 349.69,-46.5"/>
<polygon fill="#63b8ff" stroke="#63b8ff" points="349.95,-50 359.95,-46.5 349.95,-43 349.95,-50"/>
</a>
</g>
</g>
<!-- Node4 -->
<g id="Node000004" class="node">
<title>Node4</title>
<g id="a_Node000004"><a xlink:href="classnetspeak_1_1util_1_1Config.html#ab380dc04a08e5c65adfdc3b13aa27fad" target="_top" xlink:title=" ">
<polygon fill="white" stroke="#666666" points="827,-80.5 707,-80.5 707,-50.5 827,-50.5 827,-80.5"/>
<text text-anchor="start" x="715" y="-68.5" font-family="Helvetica,sans-Serif" font-size="10.00">netspeak::util::Config</text>
<text text-anchor="middle" x="767" y="-57.5" font-family="Helvetica,sans-Serif" font-size="10.00">::contains</text>
</a>
</g>
</g>
<!-- Node3&#45;&gt;Node4 -->
<g id="edge3_Node000003_Node000004" class="edge">
<title>Node3&#45;&gt;Node4</title>
<g id="a_edge3_Node000003_Node000004"><a xlink:title=" ">
<path fill="none" stroke="#63b8ff" d="M493.17,-50.19C551.69,-53.47 637.06,-58.26 696.67,-61.61"/>
<polygon fill="#63b8ff" stroke="#63b8ff" points="696.57,-65.11 706.75,-62.17 696.96,-58.12 696.57,-65.11"/>
</a>
</g>
</g>
<!-- Node5 -->
<g id="Node000005" class="node">
<title>Node5</title>
<g id="a_Node000005"><a xlink:href="classnetspeak_1_1util_1_1Config.html#a3664f30f248a879b1940df27a37f4f81" target="_top" xlink:title="Returns the value of the given key or the given default value if the key is not part of the config.">
<polygon fill="white" stroke="#666666" points="671,-37 529,-37 529,-18 671,-18 671,-37"/>
<text text-anchor="middle" x="600" y="-25" font-family="Helvetica,sans-Serif" font-size="10.00">netspeak::util::Config::get</text>
</a>
</g>
</g>
<!-- Node3&#45;&gt;Node5 -->
<g id="edge4_Node000003_Node000005" class="edge">
<title>Node3&#45;&gt;Node5</title>
<g id="a_edge4_Node000003_Node000005"><a xlink:title=" ">
<path fill="none" stroke="#63b8ff" d="M493.32,-39.21C501.67,-38.28 510.28,-37.33 518.83,-36.38"/>
<polygon fill="#63b8ff" stroke="#63b8ff" points="519.25,-39.86 528.8,-35.28 518.48,-32.9 519.25,-39.86"/>
</a>
</g>
</g>
<!-- Node5&#45;&gt;Node4 -->
<g id="edge5_Node000005_Node000004" class="edge">
<title>Node5&#45;&gt;Node4</title>
<g id="a_edge5_Node000005_Node000004"><a xlink:title=" ">
<path fill="none" stroke="#63b8ff" d="M642.64,-37.09C659.15,-40.89 678.57,-45.37 697.07,-49.62"/>
<polygon fill="#63b8ff" stroke="#63b8ff" points="696.4,-53.06 706.93,-51.9 697.97,-46.24 696.4,-53.06"/>
</a>
</g>
</g>
<!-- Node6 -->
<g id="Node000006" class="node">
<title>Node6</title>
<g id="a_Node000006"><a xlink:href="namespacenetspeak_1_1util.html#a4c91ad572508b4021399ac7dddff574d" target="_top" xlink:title=" ">
<polygon fill="white" stroke="#666666" points="823.5,-32 710.5,-32 710.5,-13 823.5,-13 823.5,-32"/>
<text text-anchor="middle" x="767" y="-20" font-family="Helvetica,sans-Serif" font-size="10.00">netspeak::util::hash</text>
</a>
</g>
</g>
<!-- Node5&#45;&gt;Node6 -->
<g id="edge6_Node000005_Node000006" class="edge">
<title>Node5&#45;&gt;Node6</title>
<g id="a_edge6_Node000005_Node000006"><a xlink:title=" ">
<path fill="none" stroke="#63b8ff" d="M671.45,-25.37C681.04,-25.07 690.84,-24.78 700.34,-24.49"/>
<polygon fill="#63b8ff" stroke="#63b8ff" points="700.61,-27.98 710.5,-24.18 700.39,-20.99 700.61,-27.98"/>
</a>
</g>
</g>
</g>
</svg>
