<?xml version="1.0" encoding="UTF-8" standalone="no"?>
<!DOCTYPE svg PUBLIC "-//W3C//DTD SVG 1.1//EN"
 "http://www.w3.org/Graphics/SVG/1.1/DTD/svg11.dtd">
<!-- Generated by graphviz version 2.43.0 (0)
 -->
<!-- Title: netspeak::util::JsonWriter::create Pages: 1 -->
<svg width="335pt" height="86pt"
 viewBox="0.00 0.00 335.00 86.00" xmlns="http://www.w3.org/2000/svg" xmlns:xlink="http://www.w3.org/1999/xlink">
<g id="graph0" class="graph" transform="scale(1 1) rotate(0) translate(4 82)">
<title>netspeak::util::JsonWriter::create</title>
<!-- Node1 -->
<g id="Node000001" class="node">
<title>Node1</title>
<g id="a_Node000001"><a xlink:title=" ">
<polygon fill="#999999" stroke="#666666" points="327,-54 187,-54 187,-24 327,-24 327,-54"/>
<text text-anchor="start" x="195" y="-42" font-family="Helvetica,sans-Serif" font-size="10.00">netspeak::util::JsonWriter</text>
<text text-anchor="middle" x="257" y="-31" font-family="Helvetica,sans-Serif" font-size="10.00">::create</text>
</a>
</g>
</g>
<!-- Node2 -->
<g id="Node000002" class="node">
<title>Node2</title>
<g id="a_Node000002"><a xlink:href="classnetspeak_1_1service_1_1RequestLogger.html#af6f740ce3b61ce0457265f30a7d36488" target="_top" xlink:title=" ">
<polygon fill="white" stroke="#666666" points="151,-78 0,-78 0,-48 151,-48 151,-78"/>
<text text-anchor="start" x="8" y="-66" font-family="Helvetica,sans-Serif" font-size="10.00">netspeak::service::</text>
<text text-anchor="middle" x="75.5" y="-55" font-family="Helvetica,sans-Serif" font-size="10.00">RequestLogger::GetCorpora</text>
</a>
</g>
</g>
<!-- Node1&#45;&gt;Node2 -->
<g id="edge1_Node000001_Node000002" class="edge">
<title>Node1&#45;&gt;Node2</title>
<g id="a_edge1_Node000001_Node000002"><a xlink:title=" ">
<path fill="none" stroke="#63b8ff" d="M176.93,-49.57C168.4,-50.71 159.74,-51.87 151.27,-53"/>
<polygon fill="#63b8ff" stroke="#63b8ff" points="177.41,-53.04 186.86,-48.24 176.48,-46.1 177.41,-53.04"/>
</a>
</g>
</g>
<!-- Node3 -->
<g id="Node000003" class="node">
<title>Node3</title>
<g id="a_Node000003"><a xlink:href="classnetspeak_1_1service_1_1RequestLogger.html#a131feb684685433d4f618ea9ba4e6380" target="_top" xlink:title=" ">
<polygon fill="white" stroke="#666666" points="139.5,-30 11.5,-30 11.5,0 139.5,0 139.5,-30"/>
<text text-anchor="start" x="19.5" y="-18" font-family="Helvetica,sans-Serif" font-size="10.00">netspeak::service::</text>
<text text-anchor="middle" x="75.5" y="-7" font-family="Helvetica,sans-Serif" font-size="10.00">RequestLogger::Search</text>
</a>
</g>
</g>
<!-- Node1&#45;&gt;Node3 -->
<g id="edge2_Node000001_Node000003" class="edge">
<title>Node1&#45;&gt;Node3</title>
<g id="a_edge2_Node000001_Node000003"><a xlink:title=" ">
<path fill="none" stroke="#63b8ff" d="M176.58,-28.38C164.24,-26.73 151.64,-25.05 139.73,-23.45"/>
<polygon fill="#63b8ff" stroke="#63b8ff" points="176.48,-31.9 186.86,-29.76 177.41,-24.96 176.48,-31.9"/>
</a>
</g>
</g>
</g>
</svg>
