<?xml version="1.0" encoding="UTF-8" standalone="no"?>
<!DOCTYPE svg PUBLIC "-//W3C//DTD SVG 1.1//EN"
 "http://www.w3.org/Graphics/SVG/1.1/DTD/svg11.dtd">
<!-- Generated by graphviz version 2.43.0 (0)
 -->
<!-- Title: netspeak::invertedindex::Configuration::set_max_memory_usage Pages: 1 -->
<svg width="335pt" height="123pt"
 viewBox="0.00 0.00 335.00 123.00" xmlns="http://www.w3.org/2000/svg" xmlns:xlink="http://www.w3.org/1999/xlink">
<g id="graph0" class="graph" transform="scale(1 1) rotate(0) translate(4 119)">
<title>netspeak::invertedindex::Configuration::set_max_memory_usage</title>
<!-- Node1 -->
<g id="Node000001" class="node">
<title>Node1</title>
<g id="a_Node000001"><a xlink:title=" ">
<polygon fill="#999999" stroke="#666666" points="327,-89 191,-89 191,-48 327,-48 327,-89"/>
<text text-anchor="start" x="199" y="-77" font-family="Helvetica,sans-Serif" font-size="10.00">netspeak::invertedindex</text>
<text text-anchor="start" x="199" y="-66" font-family="Helvetica,sans-Serif" font-size="10.00">::Configuration::set_max</text>
<text text-anchor="middle" x="259" y="-55" font-family="Helvetica,sans-Serif" font-size="10.00">_memory_usage</text>
</a>
</g>
</g>
<!-- Node2 -->
<g id="Node000002" class="node">
<title>Node2</title>
<g id="a_Node000002"><a xlink:href="namespacenetspeak.html#af0939222da277e564f28d44a69641517" target="_top" xlink:title=" ">
<polygon fill="white" stroke="#666666" points="153.5,-115 1.5,-115 1.5,-96 153.5,-96 153.5,-115"/>
<text text-anchor="middle" x="77.5" y="-103" font-family="Helvetica,sans-Serif" font-size="10.00">netspeak::BuildPhraseIndex</text>
</a>
</g>
</g>
<!-- Node1&#45;&gt;Node2 -->
<g id="edge1_Node000001_Node000002" class="edge">
<title>Node1&#45;&gt;Node2</title>
<g id="a_edge1_Node000001_Node000002"><a xlink:title=" ">
<path fill="none" stroke="#63b8ff" d="M181,-84.37C161.87,-88.31 141.96,-92.42 124.83,-95.95"/>
<polygon fill="#63b8ff" stroke="#63b8ff" points="181.82,-87.78 190.91,-82.33 180.4,-80.92 181.82,-87.78"/>
</a>
</g>
</g>
<!-- Node3 -->
<g id="Node000003" class="node">
<title>Node3</title>
<g id="a_Node000003"><a xlink:href="namespacenetspeak.html#af42806304a02200d2a12099b3b54f35d" target="_top" xlink:title=" ">
<polygon fill="white" stroke="#666666" points="155,-78 0,-78 0,-59 155,-59 155,-78"/>
<text text-anchor="middle" x="77.5" y="-66" font-family="Helvetica,sans-Serif" font-size="10.00">netspeak::BuildPostlistIndex</text>
</a>
</g>
</g>
<!-- Node1&#45;&gt;Node3 -->
<g id="edge2_Node000001_Node000003" class="edge">
<title>Node1&#45;&gt;Node3</title>
<g id="a_edge2_Node000001_Node000003"><a xlink:title=" ">
<path fill="none" stroke="#63b8ff" d="M180.69,-68.5C172.23,-68.5 163.62,-68.5 155.18,-68.5"/>
<polygon fill="#63b8ff" stroke="#63b8ff" points="180.91,-72 190.91,-68.5 180.91,-65 180.91,-72"/>
</a>
</g>
</g>
<!-- Node4 -->
<g id="Node000004" class="node">
<title>Node4</title>
<g id="a_Node000004"><a xlink:href="classnetspeak_1_1RetrievalStrategy_3_01RetrievalStrategy3Tag_01_4.html#a2caa474eae2060143eb6ad2769f93a6d" target="_top" xlink:title=" ">
<polygon fill="white" stroke="#666666" points="154,-41 1,-41 1,0 154,0 154,-41"/>
<text text-anchor="start" x="9" y="-29" font-family="Helvetica,sans-Serif" font-size="10.00">netspeak::RetrievalStrategy</text>
<text text-anchor="start" x="9" y="-18" font-family="Helvetica,sans-Serif" font-size="10.00">&lt; RetrievalStrategy3Tag</text>
<text text-anchor="middle" x="77.5" y="-7" font-family="Helvetica,sans-Serif" font-size="10.00"> &gt;::initialize</text>
</a>
</g>
</g>
<!-- Node1&#45;&gt;Node4 -->
<g id="edge3_Node000001_Node000004" class="edge">
<title>Node1&#45;&gt;Node4</title>
<g id="a_edge3_Node000001_Node000004"><a xlink:title=" ">
<path fill="none" stroke="#63b8ff" d="M180.99,-47.91C172.13,-45.54 163.11,-43.12 154.26,-40.76"/>
<polygon fill="#63b8ff" stroke="#63b8ff" points="180.34,-51.36 190.91,-50.56 182.15,-44.59 180.34,-51.36"/>
</a>
</g>
</g>
</g>
</svg>
