<?xml version="1.0" encoding="UTF-8" standalone="no"?>
<!DOCTYPE svg PUBLIC "-//W3C//DTD SVG 1.1//EN"
 "http://www.w3.org/Graphics/SVG/1.1/DTD/svg11.dtd">
<!-- Generated by graphviz version 2.43.0 (0)
 -->
<!-- Title: cli::Command::desc Pages: 1 -->
<svg width="1106pt" height="123pt"
 viewBox="0.00 0.00 1106.00 122.56" xmlns="http://www.w3.org/2000/svg" xmlns:xlink="http://www.w3.org/1999/xlink">
<g id="graph0" class="graph" transform="scale(1 1) rotate(0) translate(4 118.56)">
<title>cli::Command::desc</title>
<!-- Node1 -->
<g id="Node000001" class="node">
<title>Node1</title>
<g id="a_Node000001"><a xlink:title=" ">
<polygon fill="#999999" stroke="#666666" points="1098,-56 985,-56 985,-37 1098,-37 1098,-56"/>
<text text-anchor="middle" x="1041.5" y="-44" font-family="Helvetica,sans-Serif" font-size="10.00">cli::Command::desc</text>
</a>
</g>
</g>
<!-- Node2 -->
<g id="Node000002" class="node">
<title>Node2</title>
<g id="a_Node000002"><a xlink:href="namespacecli.html#a3aacc4bf1a67732a492a18bc25fcd211" target="_top" xlink:title=" ">
<polygon fill="white" stroke="#666666" points="949,-37 836,-37 836,-18 949,-18 949,-37"/>
<text text-anchor="middle" x="892.5" y="-25" font-family="Helvetica,sans-Serif" font-size="10.00">cli::get_option_desc</text>
</a>
</g>
</g>
<!-- Node1&#45;&gt;Node2 -->
<g id="edge1_Node000001_Node000002" class="edge">
<title>Node1&#45;&gt;Node2</title>
<g id="a_edge1_Node000001_Node000002"><a xlink:title=" ">
<path fill="none" stroke="#63b8ff" d="M974.92,-38.02C966.32,-36.91 957.57,-35.78 949.15,-34.69"/>
<polygon fill="#63b8ff" stroke="#63b8ff" points="974.56,-41.51 984.93,-39.32 975.46,-34.56 974.56,-41.51"/>
</a>
</g>
</g>
<!-- Node3 -->
<g id="Node000003" class="node">
<title>Node3</title>
<g id="a_Node000003"><a xlink:href="namespacecli.html#afa35336b7c594c68eb850544a1ae6b41" target="_top" xlink:title=" ">
<polygon fill="white" stroke="#666666" points="800,-75 663,-75 663,-56 800,-56 800,-75"/>
<text text-anchor="middle" x="731.5" y="-63" font-family="Helvetica,sans-Serif" font-size="10.00">cli::print_command_help</text>
</a>
</g>
</g>
<!-- Node1&#45;&gt;Node3 -->
<g id="edge13_Node000001_Node000003" class="edge">
<title>Node1&#45;&gt;Node3</title>
<g id="a_edge13_Node000001_Node000003"><a xlink:title=" ">
<path fill="none" stroke="#63b8ff" d="M974.72,-50.56C923.31,-53.73 852.12,-58.12 800.22,-61.32"/>
<polygon fill="#63b8ff" stroke="#63b8ff" points="974.96,-54.05 984.72,-49.94 974.53,-47.06 974.96,-54.05"/>
</a>
</g>
</g>
<!-- Node2&#45;&gt;Node3 -->
<g id="edge2_Node000002_Node000003" class="edge">
<title>Node2&#45;&gt;Node3</title>
<g id="a_edge2_Node000002_Node000003"><a xlink:title=" ">
<path fill="none" stroke="#63b8ff" d="M841.42,-39.47C819.14,-44.79 793.27,-50.98 772.33,-55.98"/>
<polygon fill="#63b8ff" stroke="#63b8ff" points="842.47,-42.82 851.38,-37.09 840.84,-36.01 842.47,-42.82"/>
</a>
</g>
</g>
<!-- Node8 -->
<g id="Node000008" class="node">
<title>Node8</title>
<g id="a_Node000008"><a xlink:href="namespacecli.html#a1cbfeb7f5bb332a31f5b87e440cba7b8" target="_top" xlink:title=" ">
<polygon fill="white" stroke="#666666" points="328,-19 224,-19 224,0 328,0 328,-19"/>
<text text-anchor="middle" x="276" y="-7" font-family="Helvetica,sans-Serif" font-size="10.00">cli::run_command</text>
</a>
</g>
</g>
<!-- Node2&#45;&gt;Node8 -->
<g id="edge12_Node000002_Node000008" class="edge">
<title>Node2&#45;&gt;Node8</title>
<g id="a_edge12_Node000002_Node000008"><a xlink:title=" ">
<path fill="none" stroke="#63b8ff" d="M825.83,-25.58C702.63,-21.97 439.26,-14.25 328.14,-11"/>
<polygon fill="#63b8ff" stroke="#63b8ff" points="825.79,-29.08 835.88,-25.87 825.99,-22.08 825.79,-29.08"/>
</a>
</g>
</g>
<!-- Node4 -->
<g id="Node000004" class="node">
<title>Node4</title>
<g id="a_Node000004"><a xlink:href="namespacecli.html#a1fb203adc83f007fd2be352a32997a72" target="_top" xlink:title="Print a short help message that lists all available commands.">
<polygon fill="white" stroke="#666666" points="627,-94 485,-94 485,-75 627,-75 627,-94"/>
<text text-anchor="middle" x="556" y="-82" font-family="Helvetica,sans-Serif" font-size="10.00">cli::print_commands_help</text>
</a>
</g>
</g>
<!-- Node3&#45;&gt;Node4 -->
<g id="edge3_Node000003_Node000004" class="edge">
<title>Node3&#45;&gt;Node4</title>
<g id="a_edge3_Node000003_Node000004"><a xlink:title=" ">
<path fill="none" stroke="#63b8ff" d="M652.95,-73.99C644.39,-74.93 635.72,-75.88 627.25,-76.81"/>
<polygon fill="#63b8ff" stroke="#63b8ff" points="653.36,-77.47 662.92,-72.9 652.6,-70.51 653.36,-77.47"/>
</a>
</g>
</g>
<!-- Node6 -->
<g id="Node000006" class="node">
<title>Node6</title>
<g id="a_Node000006"><a xlink:href="classcli_1_1Commands.html#a6beca4594b46ff931dc339b30bfa8907" target="_top" xlink:title=" ">
<polygon fill="white" stroke="#666666" points="188,-76 77,-76 77,-57 188,-57 188,-76"/>
<text text-anchor="middle" x="132.5" y="-64" font-family="Helvetica,sans-Serif" font-size="10.00">cli::Commands::run</text>
</a>
</g>
</g>
<!-- Node3&#45;&gt;Node6 -->
<g id="edge11_Node000003_Node000006" class="edge">
<title>Node3&#45;&gt;Node6</title>
<g id="a_edge11_Node000003_Node000006"><a xlink:title=" ">
<path fill="none" stroke="#63b8ff" d="M701.54,-79.26C681.2,-88.14 653.08,-98.86 627,-103.5 459.93,-133.2 256.92,-95.05 172.86,-76.07"/>
<polygon fill="#63b8ff" stroke="#63b8ff" points="703.16,-82.37 710.85,-75.09 700.3,-75.98 703.16,-82.37"/>
</a>
</g>
</g>
<!-- Node9 -->
<g id="Node000009" class="node">
<title>Node9</title>
<g id="a_Node000009"><a xlink:href="namespacecli.html#ac6ff98aa5fa9c971821bb0dc351a2ff3" target="_top" xlink:title=" ">
<polygon fill="white" stroke="#666666" points="598.5,-57 513.5,-57 513.5,-38 598.5,-38 598.5,-57"/>
<text text-anchor="middle" x="556" y="-45" font-family="Helvetica,sans-Serif" font-size="10.00">cli::print_error</text>
</a>
</g>
</g>
<!-- Node3&#45;&gt;Node9 -->
<g id="edge10_Node000003_Node000009" class="edge">
<title>Node3&#45;&gt;Node9</title>
<g id="a_edge10_Node000003_Node000009"><a xlink:title=" ">
<path fill="none" stroke="#63b8ff" d="M652.91,-57.45C634.2,-55.51 614.92,-53.51 598.59,-51.82"/>
<polygon fill="#63b8ff" stroke="#63b8ff" points="652.62,-60.94 662.92,-58.49 653.34,-53.98 652.62,-60.94"/>
</a>
</g>
</g>
<!-- Node5 -->
<g id="Node000005" class="node">
<title>Node5</title>
<g id="a_Node000005"><a xlink:href="namespacecli.html#a7df2b55d560146ba04a66ca65e551636" target="_top" xlink:title=" ">
<polygon fill="white" stroke="#666666" points="449,-57 364,-57 364,-38 449,-38 449,-57"/>
<text text-anchor="middle" x="406.5" y="-45" font-family="Helvetica,sans-Serif" font-size="10.00">cli::print_error</text>
</a>
</g>
</g>
<!-- Node4&#45;&gt;Node5 -->
<g id="edge4_Node000004_Node000005" class="edge">
<title>Node4&#45;&gt;Node5</title>
<g id="a_edge4_Node000004_Node000005"><a xlink:title=" ">
<path fill="none" stroke="#63b8ff" d="M507.19,-72.51C487.24,-67.5 464.4,-61.77 445.61,-57.06"/>
<polygon fill="#63b8ff" stroke="#63b8ff" points="506.46,-75.93 517.02,-74.97 508.17,-69.14 506.46,-75.93"/>
</a>
</g>
</g>
<!-- Node4&#45;&gt;Node6 -->
<g id="edge9_Node000004_Node000006" class="edge">
<title>Node4&#45;&gt;Node6</title>
<g id="a_edge9_Node000004_Node000006"><a xlink:title=" ">
<path fill="none" stroke="#63b8ff" d="M474.92,-81.08C390.95,-77.49 261.27,-71.96 188.28,-68.84"/>
<polygon fill="#63b8ff" stroke="#63b8ff" points="474.78,-84.58 484.92,-81.51 475.08,-77.58 474.78,-84.58"/>
</a>
</g>
</g>
<!-- Node5&#45;&gt;Node6 -->
<g id="edge5_Node000005_Node000006" class="edge">
<title>Node5&#45;&gt;Node6</title>
<g id="a_edge5_Node000005_Node000006"><a xlink:title=" ">
<path fill="none" stroke="#63b8ff" d="M353.85,-51.11C306.49,-54.42 236.58,-59.3 188.26,-62.67"/>
<polygon fill="#63b8ff" stroke="#63b8ff" points="354.16,-54.59 363.89,-50.41 353.67,-47.61 354.16,-54.59"/>
</a>
</g>
</g>
<!-- Node5&#45;&gt;Node8 -->
<g id="edge7_Node000005_Node000008" class="edge">
<title>Node5&#45;&gt;Node8</title>
<g id="a_edge7_Node000005_Node000008"><a xlink:title=" ">
<path fill="none" stroke="#63b8ff" d="M363.11,-34.96C345.63,-29.8 325.7,-23.9 309.42,-19.09"/>
<polygon fill="#63b8ff" stroke="#63b8ff" points="362.49,-38.43 373.07,-37.91 364.48,-31.72 362.49,-38.43"/>
</a>
</g>
</g>
<!-- Node7 -->
<g id="Node000007" class="node">
<title>Node7</title>
<g id="a_Node000007"><a xlink:href="CommandLineTool_8cpp.html#a3c04138a5bfe5d72780bb7e82a18e627" target="_top" xlink:title=" ">
<polygon fill="white" stroke="#666666" points="41,-76 0,-76 0,-57 41,-57 41,-76"/>
<text text-anchor="middle" x="20.5" y="-64" font-family="Helvetica,sans-Serif" font-size="10.00">main</text>
</a>
</g>
</g>
<!-- Node6&#45;&gt;Node7 -->
<g id="edge6_Node000006_Node000007" class="edge">
<title>Node6&#45;&gt;Node7</title>
<g id="a_edge6_Node000006_Node000007"><a xlink:title=" ">
<path fill="none" stroke="#63b8ff" d="M66.64,-66.5C57.35,-66.5 48.45,-66.5 41.05,-66.5"/>
<polygon fill="#63b8ff" stroke="#63b8ff" points="66.82,-70 76.82,-66.5 66.82,-63 66.82,-70"/>
</a>
</g>
</g>
<!-- Node8&#45;&gt;Node6 -->
<g id="edge8_Node000008_Node000006" class="edge">
<title>Node8&#45;&gt;Node6</title>
<g id="a_edge8_Node000008_Node000006"><a xlink:title=" ">
<path fill="none" stroke="#63b8ff" d="M241.88,-22.84C215.93,-33.3 180.45,-47.59 157.26,-56.93"/>
<polygon fill="#63b8ff" stroke="#63b8ff" points="243.35,-26.02 251.32,-19.04 240.73,-19.53 243.35,-26.02"/>
</a>
</g>
</g>
</g>
</svg>
