<?xml version="1.0" encoding="UTF-8" standalone="no"?>
<!DOCTYPE svg PUBLIC "-//W3C//DTD SVG 1.1//EN"
 "http://www.w3.org/Graphics/SVG/1.1/DTD/svg11.dtd">
<!-- Generated by graphviz version 2.43.0 (0)
 -->
<!-- Title: netspeak::RetrievalStrategy&lt; RetrievalStrategy3Tag &gt; Pages: 1 -->
<svg width="608pt" height="829pt"
 viewBox="0.00 0.00 608.00 829.00" xmlns="http://www.w3.org/2000/svg" xmlns:xlink="http://www.w3.org/1999/xlink">
<g id="graph0" class="graph" transform="scale(1 1) rotate(0) translate(4 825)">
<title>netspeak::RetrievalStrategy&lt; RetrievalStrategy3Tag &gt;</title>
<!-- Node1 -->
<g id="Node000001" class="node">
<title>Node1</title>
<g id="a_Node000001"><a xlink:title=" ">
<polygon fill="#999999" stroke="transparent" points="380.5,-180 210.5,-180 210.5,0 380.5,0 380.5,-180"/>
<text text-anchor="start" x="227" y="-168" font-family="Helvetica,sans-Serif" font-size="10.00">netspeak::RetrievalStrategy</text>
<text text-anchor="start" x="230" y="-157" font-family="Helvetica,sans-Serif" font-size="10.00">&lt; RetrievalStrategy3Tag &gt;</text>
<text text-anchor="start" x="217" y="-142" font-family="Helvetica,sans-Serif" font-size="10.00">&#45;</text>
<text text-anchor="start" x="227.5" y="-142" font-family="Helvetica,sans-Serif" font-size="10.00">phrase_dictionary_</text>
<text text-anchor="start" x="214.5" y="-127" font-family="Helvetica,sans-Serif" font-size="10.00">+</text>
<text text-anchor="start" x="227.5" y="-127" font-family="Helvetica,sans-Serif" font-size="10.00">initialize()</text>
<text text-anchor="start" x="214.5" y="-112" font-family="Helvetica,sans-Serif" font-size="10.00">+</text>
<text text-anchor="start" x="227.5" y="-112" font-family="Helvetica,sans-Serif" font-size="10.00">initialize_query()</text>
<text text-anchor="start" x="214.5" y="-97" font-family="Helvetica,sans-Serif" font-size="10.00">+</text>
<text text-anchor="start" x="227.5" y="-97" font-family="Helvetica,sans-Serif" font-size="10.00">initialize_result_set()</text>
<text text-anchor="start" x="214.5" y="-82" font-family="Helvetica,sans-Serif" font-size="10.00">+</text>
<text text-anchor="start" x="227.5" y="-82" font-family="Helvetica,sans-Serif" font-size="10.00">intersect_result_set()</text>
<text text-anchor="start" x="214.5" y="-67" font-family="Helvetica,sans-Serif" font-size="10.00">+</text>
<text text-anchor="start" x="227.5" y="-67" font-family="Helvetica,sans-Serif" font-size="10.00">properties()</text>
<text text-anchor="start" x="217" y="-52" font-family="Helvetica,sans-Serif" font-size="10.00">&#45;</text>
<text text-anchor="start" x="227.5" y="-52" font-family="Helvetica,sans-Serif" font-size="10.00">compute_jumpin_frequency_()</text>
<text text-anchor="start" x="217" y="-37" font-family="Helvetica,sans-Serif" font-size="10.00">&#45;</text>
<text text-anchor="start" x="227.5" y="-37" font-family="Helvetica,sans-Serif" font-size="10.00">search_()</text>
<text text-anchor="start" x="217" y="-22" font-family="Helvetica,sans-Serif" font-size="10.00">&#45;</text>
<text text-anchor="start" x="227.5" y="-22" font-family="Helvetica,sans-Serif" font-size="10.00">make_key()</text>
<text text-anchor="start" x="217" y="-7" font-family="Helvetica,sans-Serif" font-size="10.00">&#45;</text>
<text text-anchor="start" x="227.5" y="-7" font-family="Helvetica,sans-Serif" font-size="10.00">extract_longest_substrings()</text>
<polygon fill="#666666" stroke="#666666" points="210.5,-152 210.5,-152 380.5,-152 380.5,-152 210.5,-152"/>
<polygon fill="#666666" stroke="#666666" points="210.5,-137 210.5,-137 225.5,-137 225.5,-137 210.5,-137"/>
<polygon fill="#666666" stroke="#666666" points="225.5,-137 225.5,-137 380.5,-137 380.5,-137 225.5,-137"/>
<polygon fill="none" stroke="#666666" points="210.5,0 210.5,-180 380.5,-180 380.5,0 210.5,0"/>
</a>
</g>
</g>
<!-- Node2 -->
<g id="Node000002" class="node">
<title>Node2</title>
<g id="a_Node000002"><a xlink:href="classnetspeak_1_1invertedindex_1_1Searcher.html" target="_top" xlink:title=" ">
<polygon fill="white" stroke="transparent" points="360,-474 231,-474 231,-238 360,-238 360,-474"/>
<text text-anchor="start" x="236.5" y="-462" font-family="Helvetica,sans-Serif" font-size="10.00">netspeak::invertedindex</text>
<text text-anchor="start" x="236.5" y="-451" font-family="Helvetica,sans-Serif" font-size="10.00">::Searcher&lt; netspeak::</text>
<text text-anchor="start" x="264" y="-440" font-family="Helvetica,sans-Serif" font-size="10.00">value::pair &gt;</text>
<text text-anchor="start" x="294" y="-425" font-family="Helvetica,sans-Serif" font-size="10.00"> </text>
<text text-anchor="start" x="236" y="-410" font-family="Helvetica,sans-Serif" font-size="10.00">+</text>
<text text-anchor="start" x="249.5" y="-410" font-family="Helvetica,sans-Serif" font-size="10.00">Searcher()</text>
<text text-anchor="start" x="236" y="-395" font-family="Helvetica,sans-Serif" font-size="10.00">+</text>
<text text-anchor="start" x="249.5" y="-395" font-family="Helvetica,sans-Serif" font-size="10.00">Searcher()</text>
<text text-anchor="start" x="236" y="-380" font-family="Helvetica,sans-Serif" font-size="10.00">+</text>
<text text-anchor="start" x="249.5" y="-380" font-family="Helvetica,sans-Serif" font-size="10.00">~Searcher()</text>
<text text-anchor="start" x="236" y="-365" font-family="Helvetica,sans-Serif" font-size="10.00">+</text>
<text text-anchor="start" x="249.5" y="-365" font-family="Helvetica,sans-Serif" font-size="10.00">close()</text>
<text text-anchor="start" x="236" y="-350" font-family="Helvetica,sans-Serif" font-size="10.00">+</text>
<text text-anchor="start" x="249.5" y="-350" font-family="Helvetica,sans-Serif" font-size="10.00">is_open()</text>
<text text-anchor="start" x="236" y="-335" font-family="Helvetica,sans-Serif" font-size="10.00">+</text>
<text text-anchor="start" x="249.5" y="-335" font-family="Helvetica,sans-Serif" font-size="10.00">open()</text>
<text text-anchor="start" x="236" y="-320" font-family="Helvetica,sans-Serif" font-size="10.00">+</text>
<text text-anchor="start" x="249.5" y="-320" font-family="Helvetica,sans-Serif" font-size="10.00">search_head()</text>
<text text-anchor="start" x="236" y="-305" font-family="Helvetica,sans-Serif" font-size="10.00">+</text>
<text text-anchor="start" x="249.5" y="-305" font-family="Helvetica,sans-Serif" font-size="10.00">search_postlist()</text>
<text text-anchor="start" x="236" y="-290" font-family="Helvetica,sans-Serif" font-size="10.00">+</text>
<text text-anchor="start" x="249.5" y="-290" font-family="Helvetica,sans-Serif" font-size="10.00">search_raw_postlist()</text>
<text text-anchor="start" x="236" y="-275" font-family="Helvetica,sans-Serif" font-size="10.00">+</text>
<text text-anchor="start" x="249.5" y="-275" font-family="Helvetica,sans-Serif" font-size="10.00">configuration()</text>
<text text-anchor="start" x="236" y="-260" font-family="Helvetica,sans-Serif" font-size="10.00">+</text>
<text text-anchor="start" x="249.5" y="-260" font-family="Helvetica,sans-Serif" font-size="10.00">properties()</text>
<text text-anchor="start" x="238.5" y="-245" font-family="Helvetica,sans-Serif" font-size="10.00">&#45;</text>
<text text-anchor="start" x="249.5" y="-245" font-family="Helvetica,sans-Serif" font-size="10.00">assert_properties()</text>
<polygon fill="#666666" stroke="#666666" points="231.5,-435 231.5,-435 360.5,-435 360.5,-435 231.5,-435"/>
<polygon fill="#666666" stroke="#666666" points="231.5,-420 231.5,-420 360.5,-420 360.5,-420 231.5,-420"/>
<polygon fill="none" stroke="#666666" points="231,-238 231,-474 360,-474 360,-238 231,-238"/>
</a>
</g>
</g>
<!-- Node2&#45;&gt;Node1 -->
<g id="edge1_Node000001_Node000002" class="edge">
<title>Node2&#45;&gt;Node1</title>
<g id="a_edge1_Node000001_Node000002"><a xlink:title=" ">
<path fill="none" stroke="#63b8ff" d="M295.5,-237.67C295.5,-222.61 295.5,-207.29 295.5,-192.51"/>
<polygon fill="none" stroke="#63b8ff" points="295.5,-192.23 291.5,-186.23 295.5,-180.23 299.5,-186.23 295.5,-192.23"/>
</a>
</g>
<text text-anchor="middle" x="334.5" y="-212" font-family="Helvetica,sans-Serif" font-size="10.00" fill="grey"> &#45;phrase_index_</text>
<text text-anchor="middle" x="334.5" y="-201" font-family="Helvetica,sans-Serif" font-size="10.00" fill="grey">&#45;postlist_index_</text>
</g>
<!-- Node3 -->
<g id="Node000003" class="node">
<title>Node3</title>
<g id="a_Node000003"><a xlink:href="classnetspeak_1_1invertedindex_1_1RawSearcher.html" target="_top" xlink:title=" ">
<polygon fill="white" stroke="transparent" points="129,-731 0,-731 0,-611 129,-611 129,-731"/>
<text text-anchor="start" x="5.5" y="-719" font-family="Helvetica,sans-Serif" font-size="10.00">netspeak::invertedindex</text>
<text text-anchor="start" x="30" y="-708" font-family="Helvetica,sans-Serif" font-size="10.00">::RawSearcher</text>
<text text-anchor="start" x="63" y="-693" font-family="Helvetica,sans-Serif" font-size="10.00"> </text>
<text text-anchor="start" x="5" y="-678" font-family="Helvetica,sans-Serif" font-size="10.00">+</text>
<text text-anchor="start" x="18.5" y="-678" font-family="Helvetica,sans-Serif" font-size="10.00">~RawSearcher()</text>
<text text-anchor="start" x="5" y="-663" font-family="Helvetica,sans-Serif" font-size="10.00">+</text>
<text text-anchor="start" x="18.5" y="-663" font-family="Helvetica,sans-Serif" font-size="10.00">close()</text>
<text text-anchor="start" x="5" y="-648" font-family="Helvetica,sans-Serif" font-size="10.00">+</text>
<text text-anchor="start" x="18.5" y="-648" font-family="Helvetica,sans-Serif" font-size="10.00">search_head()</text>
<text text-anchor="start" x="5" y="-633" font-family="Helvetica,sans-Serif" font-size="10.00">+</text>
<text text-anchor="start" x="18.5" y="-633" font-family="Helvetica,sans-Serif" font-size="10.00">search_raw_postlist()</text>
<text text-anchor="start" x="5" y="-618" font-family="Helvetica,sans-Serif" font-size="10.00">+</text>
<text text-anchor="start" x="18.5" y="-618" font-family="Helvetica,sans-Serif" font-size="10.00">properties()</text>
<polygon fill="#666666" stroke="#666666" points="0.5,-703 0.5,-703 129.5,-703 129.5,-703 0.5,-703"/>
<polygon fill="#666666" stroke="#666666" points="0.5,-688 0.5,-688 129.5,-688 129.5,-688 0.5,-688"/>
<polygon fill="none" stroke="#666666" points="0,-611 0,-731 129,-731 129,-611 0,-611"/>
</a>
</g>
</g>
<!-- Node3&#45;&gt;Node2 -->
<g id="edge2_Node000002_Node000003" class="edge">
<title>Node3&#45;&gt;Node2</title>
<g id="a_edge2_Node000002_Node000003"><a xlink:title=" ">
<path fill="none" stroke="#63b8ff" d="M93.14,-601.62C105.46,-575.4 121.05,-545.84 138.5,-521 165.12,-483.1 200.38,-445.44 230.74,-415.79"/>
<polygon fill="none" stroke="#63b8ff" points="89.94,-600.19 88.92,-610.74 96.29,-603.13 89.94,-600.19"/>
</a>
</g>
</g>
<!-- Node4 -->
<g id="Node000004" class="node">
<title>Node4</title>
<g id="a_Node000004"><a xlink:href="classnetspeak_1_1invertedindex_1_1Configuration.html" target="_top" xlink:title=" ">
<polygon fill="white" stroke="transparent" points="289.5,-821 147.5,-821 147.5,-521 289.5,-521 289.5,-821"/>
<text text-anchor="start" x="159" y="-809" font-family="Helvetica,sans-Serif" font-size="10.00">netspeak::invertedindex</text>
<text text-anchor="start" x="182.5" y="-798" font-family="Helvetica,sans-Serif" font-size="10.00">::Configuration</text>
<text text-anchor="start" x="154" y="-783" font-family="Helvetica,sans-Serif" font-size="10.00">&#45;</text>
<text text-anchor="start" x="164.5" y="-783" font-family="Helvetica,sans-Serif" font-size="10.00">input_file_</text>
<text text-anchor="start" x="154" y="-768" font-family="Helvetica,sans-Serif" font-size="10.00">&#45;</text>
<text text-anchor="start" x="164.5" y="-768" font-family="Helvetica,sans-Serif" font-size="10.00">input_directory_</text>
<text text-anchor="start" x="154" y="-753" font-family="Helvetica,sans-Serif" font-size="10.00">&#45;</text>
<text text-anchor="start" x="164.5" y="-753" font-family="Helvetica,sans-Serif" font-size="10.00">index_directory_</text>
<text text-anchor="start" x="154" y="-738" font-family="Helvetica,sans-Serif" font-size="10.00">&#45;</text>
<text text-anchor="start" x="164.5" y="-738" font-family="Helvetica,sans-Serif" font-size="10.00">key_sorting_</text>
<text text-anchor="start" x="154" y="-723" font-family="Helvetica,sans-Serif" font-size="10.00">&#45;</text>
<text text-anchor="start" x="164.5" y="-723" font-family="Helvetica,sans-Serif" font-size="10.00">value_sorting_</text>
<text text-anchor="start" x="154" y="-708" font-family="Helvetica,sans-Serif" font-size="10.00">&#45;</text>
<text text-anchor="start" x="164.5" y="-708" font-family="Helvetica,sans-Serif" font-size="10.00">max_memory_usage_</text>
<text text-anchor="start" x="154" y="-693" font-family="Helvetica,sans-Serif" font-size="10.00">&#45;</text>
<text text-anchor="start" x="164.5" y="-693" font-family="Helvetica,sans-Serif" font-size="10.00">expected_record_count_</text>
<text text-anchor="start" x="151.5" y="-678" font-family="Helvetica,sans-Serif" font-size="10.00">+</text>
<text text-anchor="start" x="164.5" y="-678" font-family="Helvetica,sans-Serif" font-size="10.00">Configuration()</text>
<text text-anchor="start" x="151.5" y="-663" font-family="Helvetica,sans-Serif" font-size="10.00">+</text>
<text text-anchor="start" x="164.5" y="-663" font-family="Helvetica,sans-Serif" font-size="10.00">~Configuration()</text>
<text text-anchor="start" x="151.5" y="-648" font-family="Helvetica,sans-Serif" font-size="10.00">+</text>
<text text-anchor="start" x="164.5" y="-648" font-family="Helvetica,sans-Serif" font-size="10.00">expected_record_count()</text>
<text text-anchor="start" x="151.5" y="-633" font-family="Helvetica,sans-Serif" font-size="10.00">+</text>
<text text-anchor="start" x="164.5" y="-633" font-family="Helvetica,sans-Serif" font-size="10.00">input_file()</text>
<text text-anchor="start" x="151.5" y="-618" font-family="Helvetica,sans-Serif" font-size="10.00">+</text>
<text text-anchor="start" x="164.5" y="-618" font-family="Helvetica,sans-Serif" font-size="10.00">input_directory()</text>
<text text-anchor="start" x="151.5" y="-603" font-family="Helvetica,sans-Serif" font-size="10.00">+</text>
<text text-anchor="start" x="164.5" y="-603" font-family="Helvetica,sans-Serif" font-size="10.00">index_directory()</text>
<text text-anchor="start" x="151.5" y="-588" font-family="Helvetica,sans-Serif" font-size="10.00">+</text>
<text text-anchor="start" x="164.5" y="-588" font-family="Helvetica,sans-Serif" font-size="10.00">key_sorting()</text>
<text text-anchor="start" x="151.5" y="-573" font-family="Helvetica,sans-Serif" font-size="10.00">+</text>
<text text-anchor="start" x="164.5" y="-573" font-family="Helvetica,sans-Serif" font-size="10.00">max_memory_usage()</text>
<text text-anchor="start" x="151.5" y="-558" font-family="Helvetica,sans-Serif" font-size="10.00">+</text>
<text text-anchor="start" x="164.5" y="-558" font-family="Helvetica,sans-Serif" font-size="10.00">value_sorting()</text>
<text text-anchor="start" x="151.5" y="-543" font-family="Helvetica,sans-Serif" font-size="10.00">+</text>
<text text-anchor="start" x="164.5" y="-543" font-family="Helvetica,sans-Serif" font-size="10.00">print()</text>
<text text-anchor="start" x="164.5" y="-528" font-family="Helvetica,sans-Serif" font-size="10.00">and 7 more...</text>
<polygon fill="#666666" stroke="#666666" points="147.5,-793 147.5,-793 289.5,-793 289.5,-793 147.5,-793"/>
<polygon fill="#666666" stroke="#666666" points="147.5,-688 147.5,-688 162.5,-688 162.5,-688 147.5,-688"/>
<polygon fill="#666666" stroke="#666666" points="162.5,-688 162.5,-688 289.5,-688 289.5,-688 162.5,-688"/>
<polygon fill="none" stroke="#666666" points="147.5,-521 147.5,-821 289.5,-821 289.5,-521 147.5,-521"/>
</a>
</g>
</g>
<!-- Node4&#45;&gt;Node2 -->
<g id="edge3_Node000002_Node000004" class="edge">
<title>Node4&#45;&gt;Node2</title>
<g id="a_edge3_Node000002_Node000004"><a xlink:title=" ">
<path fill="none" stroke="#63b8ff" d="M255.2,-520.83C258.04,-509.26 260.9,-497.64 263.71,-486.22"/>
<polygon fill="none" stroke="#63b8ff" points="263.75,-486.05 261.3,-479.27 266.62,-474.4 269.07,-481.18 263.75,-486.05"/>
</a>
</g>
<text text-anchor="middle" x="283.5" y="-495" font-family="Helvetica,sans-Serif" font-size="10.00" fill="grey"> &#45;config_</text>
</g>
<!-- Node5 -->
<g id="Node000005" class="node">
<title>Node5</title>
<g id="a_Node000005"><a xlink:href="structnetspeak_1_1invertedindex_1_1Properties.html" target="_top" xlink:title=" ">
<polygon fill="white" stroke="transparent" points="437,-791 308,-791 308,-551 437,-551 437,-791"/>
<text text-anchor="start" x="313.5" y="-779" font-family="Helvetica,sans-Serif" font-size="10.00">netspeak::invertedindex</text>
<text text-anchor="start" x="345" y="-768" font-family="Helvetica,sans-Serif" font-size="10.00">::Properties</text>
<text text-anchor="start" x="316.5" y="-753" font-family="Helvetica,sans-Serif" font-size="10.00">+</text>
<text text-anchor="start" x="333.5" y="-753" font-family="Helvetica,sans-Serif" font-size="10.00">value_sorting</text>
<text text-anchor="start" x="316.5" y="-738" font-family="Helvetica,sans-Serif" font-size="10.00">+</text>
<text text-anchor="start" x="333.5" y="-738" font-family="Helvetica,sans-Serif" font-size="10.00">version_number</text>
<text text-anchor="start" x="316.5" y="-723" font-family="Helvetica,sans-Serif" font-size="10.00">+</text>
<text text-anchor="start" x="333.5" y="-723" font-family="Helvetica,sans-Serif" font-size="10.00">value_type</text>
<text text-anchor="start" x="316.5" y="-708" font-family="Helvetica,sans-Serif" font-size="10.00">+</text>
<text text-anchor="start" x="333.5" y="-708" font-family="Helvetica,sans-Serif" font-size="10.00">value_count</text>
<text text-anchor="start" x="316.5" y="-693" font-family="Helvetica,sans-Serif" font-size="10.00">+</text>
<text text-anchor="start" x="333.5" y="-693" font-family="Helvetica,sans-Serif" font-size="10.00">total_size</text>
<text text-anchor="start" x="316.5" y="-678" font-family="Helvetica,sans-Serif" font-size="10.00">+</text>
<text text-anchor="start" x="333.5" y="-678" font-family="Helvetica,sans-Serif" font-size="10.00">key_count</text>
<text text-anchor="start" x="316.5" y="-663" font-family="Helvetica,sans-Serif" font-size="10.00">+</text>
<text text-anchor="start" x="333.5" y="-663" font-family="Helvetica,sans-Serif" font-size="10.00">k_version_number</text>
<text text-anchor="start" x="316.5" y="-648" font-family="Helvetica,sans-Serif" font-size="10.00">+</text>
<text text-anchor="start" x="333.5" y="-648" font-family="Helvetica,sans-Serif" font-size="10.00">Properties()</text>
<text text-anchor="start" x="316.5" y="-633" font-family="Helvetica,sans-Serif" font-size="10.00">+</text>
<text text-anchor="start" x="333.5" y="-633" font-family="Helvetica,sans-Serif" font-size="10.00">Properties()</text>
<text text-anchor="start" x="316.5" y="-618" font-family="Helvetica,sans-Serif" font-size="10.00">+</text>
<text text-anchor="start" x="333.5" y="-618" font-family="Helvetica,sans-Serif" font-size="10.00">print()</text>
<text text-anchor="start" x="316.5" y="-603" font-family="Helvetica,sans-Serif" font-size="10.00">+</text>
<text text-anchor="start" x="333.5" y="-603" font-family="Helvetica,sans-Serif" font-size="10.00">read()</text>
<text text-anchor="start" x="316.5" y="-588" font-family="Helvetica,sans-Serif" font-size="10.00">+</text>
<text text-anchor="start" x="333.5" y="-588" font-family="Helvetica,sans-Serif" font-size="10.00">write()</text>
<text text-anchor="start" x="316.5" y="-573" font-family="Helvetica,sans-Serif" font-size="10.00">+</text>
<text text-anchor="start" x="333.5" y="-573" font-family="Helvetica,sans-Serif" font-size="10.00">operator=()</text>
<text text-anchor="start" x="316.5" y="-558" font-family="Helvetica,sans-Serif" font-size="10.00">+</text>
<text text-anchor="start" x="333.5" y="-558" font-family="Helvetica,sans-Serif" font-size="10.00">default_filename()</text>
<polygon fill="#666666" stroke="#666666" points="308.5,-763 308.5,-763 437.5,-763 437.5,-763 308.5,-763"/>
<polygon fill="#666666" stroke="#666666" points="308.5,-658 308.5,-658 331.5,-658 331.5,-658 308.5,-658"/>
<polygon fill="#666666" stroke="#666666" points="331.5,-658 331.5,-658 437.5,-658 437.5,-658 331.5,-658"/>
<polygon fill="none" stroke="#666666" points="308,-551 308,-791 437,-791 437,-551 308,-551"/>
</a>
</g>
</g>
<!-- Node5&#45;&gt;Node2 -->
<g id="edge4_Node000002_Node000005" class="edge">
<title>Node5&#45;&gt;Node2</title>
<g id="a_edge4_Node000002_Node000005"><a xlink:title=" ">
<path fill="none" stroke="#63b8ff" d="M343.17,-550.78C337.95,-529.57 332.5,-507.39 327.22,-485.92"/>
<polygon fill="none" stroke="#63b8ff" points="327.17,-485.74 321.85,-480.86 324.3,-474.08 329.62,-478.95 327.17,-485.74"/>
</a>
</g>
<text text-anchor="middle" x="349.5" y="-495" font-family="Helvetica,sans-Serif" font-size="10.00" fill="grey"> &#45;props_</text>
</g>
<!-- Node6 -->
<g id="Node000006" class="node">
<title>Node6</title>
<g id="a_Node000006"><a xlink:href="classnetspeak_1_1invertedindex_1_1StorageReader.html" target="_top" xlink:title=" ">
<polygon fill="white" stroke="transparent" points="600,-811.5 455,-811.5 455,-530.5 600,-530.5 600,-811.5"/>
<text text-anchor="start" x="460.5" y="-799" font-family="Helvetica,sans-Serif" font-size="10.00">netspeak::invertedindex</text>
<text text-anchor="start" x="460.5" y="-788" font-family="Helvetica,sans-Serif" font-size="10.00">::StorageReader&lt; netspeak</text>
<text text-anchor="start" x="480.5" y="-777" font-family="Helvetica,sans-Serif" font-size="10.00">::value::pair, true &gt;</text>
<text text-anchor="start" x="471" y="-762" font-family="Helvetica,sans-Serif" font-size="10.00">&#45;</text>
<text text-anchor="start" x="490.5" y="-762" font-family="Helvetica,sans-Serif" font-size="10.00">table_</text>
<text text-anchor="start" x="471" y="-747" font-family="Helvetica,sans-Serif" font-size="10.00">&#45;</text>
<text text-anchor="start" x="490.5" y="-747" font-family="Helvetica,sans-Serif" font-size="10.00">files_</text>
<text text-anchor="start" x="471" y="-732" font-family="Helvetica,sans-Serif" font-size="10.00">&#45;</text>
<text text-anchor="start" x="490.5" y="-732" font-family="Helvetica,sans-Serif" font-size="10.00">paths_</text>
<text text-anchor="start" x="471" y="-717" font-family="Helvetica,sans-Serif" font-size="10.00">&#45;</text>
<text text-anchor="start" x="490.5" y="-717" font-family="Helvetica,sans-Serif" font-size="10.00">mutex_</text>
<text text-anchor="start" x="468.5" y="-702" font-family="Helvetica,sans-Serif" font-size="10.00">+</text>
<text text-anchor="start" x="490.5" y="-702" font-family="Helvetica,sans-Serif" font-size="10.00">ReadHead()</text>
<text text-anchor="start" x="468.5" y="-687" font-family="Helvetica,sans-Serif" font-size="10.00">+</text>
<text text-anchor="start" x="490.5" y="-687" font-family="Helvetica,sans-Serif" font-size="10.00">ReadPostlist()</text>
<text text-anchor="start" x="468.5" y="-672" font-family="Helvetica,sans-Serif" font-size="10.00">+</text>
<text text-anchor="start" x="490.5" y="-672" font-family="Helvetica,sans-Serif" font-size="10.00">StorageReader()</text>
<text text-anchor="start" x="468.5" y="-657" font-family="Helvetica,sans-Serif" font-size="10.00">+</text>
<text text-anchor="start" x="490.5" y="-657" font-family="Helvetica,sans-Serif" font-size="10.00">StorageReader()</text>
<text text-anchor="start" x="468.5" y="-642" font-family="Helvetica,sans-Serif" font-size="10.00">+</text>
<text text-anchor="start" x="490.5" y="-642" font-family="Helvetica,sans-Serif" font-size="10.00">~StorageReader()</text>
<text text-anchor="start" x="468.5" y="-627" font-family="Helvetica,sans-Serif" font-size="10.00">+</text>
<text text-anchor="start" x="490.5" y="-627" font-family="Helvetica,sans-Serif" font-size="10.00">Close()</text>
<text text-anchor="start" x="468.5" y="-612" font-family="Helvetica,sans-Serif" font-size="10.00">+</text>
<text text-anchor="start" x="490.5" y="-612" font-family="Helvetica,sans-Serif" font-size="10.00">IsOpen()</text>
<text text-anchor="start" x="468.5" y="-597" font-family="Helvetica,sans-Serif" font-size="10.00">+</text>
<text text-anchor="start" x="490.5" y="-597" font-family="Helvetica,sans-Serif" font-size="10.00">Open()</text>
<text text-anchor="start" x="471" y="-582" font-family="Helvetica,sans-Serif" font-size="10.00">&#45;</text>
<text text-anchor="start" x="490.5" y="-582" font-family="Helvetica,sans-Serif" font-size="10.00">ReadHead()</text>
<text text-anchor="start" x="471" y="-567" font-family="Helvetica,sans-Serif" font-size="10.00">&#45;</text>
<text text-anchor="start" x="490.5" y="-567" font-family="Helvetica,sans-Serif" font-size="10.00">ReadHead()</text>
<text text-anchor="start" x="471" y="-552" font-family="Helvetica,sans-Serif" font-size="10.00">&#45;</text>
<text text-anchor="start" x="490.5" y="-552" font-family="Helvetica,sans-Serif" font-size="10.00">ReadPostlist()</text>
<text text-anchor="start" x="471" y="-537" font-family="Helvetica,sans-Serif" font-size="10.00">&#45;</text>
<text text-anchor="start" x="490.5" y="-537" font-family="Helvetica,sans-Serif" font-size="10.00">ReadPostlist()</text>
<polygon fill="#666666" stroke="#666666" points="455.5,-772 455.5,-772 600.5,-772 600.5,-772 455.5,-772"/>
<polygon fill="#666666" stroke="#666666" points="455.5,-712 455.5,-712 488.5,-712 488.5,-712 455.5,-712"/>
<polygon fill="#666666" stroke="#666666" points="488.5,-712 488.5,-712 600.5,-712 600.5,-712 488.5,-712"/>
<polygon fill="none" stroke="#666666" points="455,-530.5 455,-811.5 600,-811.5 600,-530.5 455,-530.5"/>
</a>
</g>
</g>
<!-- Node6&#45;&gt;Node2 -->
<g id="edge5_Node000002_Node000006" class="edge">
<title>Node6&#45;&gt;Node2</title>
<g id="a_edge5_Node000002_Node000006"><a xlink:title=" ">
<path fill="none" stroke="#63b8ff" d="M454.89,-533.15C452.13,-529.01 449.33,-524.95 446.5,-521 423.44,-488.76 394.66,-456.07 368.43,-428.45"/>
<polygon fill="none" stroke="#63b8ff" points="368.32,-428.33 361.28,-426.77 360.01,-419.67 367.05,-421.23 368.32,-428.33"/>
</a>
</g>
<text text-anchor="middle" x="456" y="-495" font-family="Helvetica,sans-Serif" font-size="10.00" fill="grey"> &#45;storage_</text>
</g>
</g>
</svg>
