<?xml version="1.0" encoding="UTF-8" standalone="no"?>
<!DOCTYPE svg PUBLIC "-//W3C//DTD SVG 1.1//EN"
 "http://www.w3.org/Graphics/SVG/1.1/DTD/svg11.dtd">
<!-- Generated by graphviz version 2.43.0 (0)
 -->
<!-- Title: netspeak::service::LoadBalanceProxy::LoadBalanceProxy Pages: 1 -->
<svg width="702pt" height="49pt"
 viewBox="0.00 0.00 702.00 49.00" xmlns="http://www.w3.org/2000/svg" xmlns:xlink="http://www.w3.org/1999/xlink">
<g id="graph0" class="graph" transform="scale(1 1) rotate(0) translate(4 45)">
<title>netspeak::service::LoadBalanceProxy::LoadBalanceProxy</title>
<!-- Node1 -->
<g id="Node000001" class="node">
<title>Node1</title>
<g id="a_Node000001"><a xlink:title=" ">
<polygon fill="#999999" stroke="#666666" points="174,-41 0,-41 0,0 174,0 174,-41"/>
<text text-anchor="start" x="8" y="-29" font-family="Helvetica,sans-Serif" font-size="10.00">netspeak::service::</text>
<text text-anchor="start" x="8" y="-18" font-family="Helvetica,sans-Serif" font-size="10.00">LoadBalanceProxy::LoadBalance</text>
<text text-anchor="middle" x="87" y="-7" font-family="Helvetica,sans-Serif" font-size="10.00">Proxy</text>
</a>
</g>
</g>
<!-- Node2 -->
<g id="Node000002" class="node">
<title>Node2</title>
<g id="a_Node000002"><a xlink:href="namespacenetspeak_1_1service.html#a345d38ff1fb859d0b86939259e01a8bf" target="_top" xlink:title=" ">
<polygon fill="white" stroke="#666666" points="329,-35.5 210,-35.5 210,-5.5 329,-5.5 329,-35.5"/>
<text text-anchor="start" x="218" y="-23.5" font-family="Helvetica,sans-Serif" font-size="10.00">netspeak::service::</text>
<text text-anchor="middle" x="269.5" y="-12.5" font-family="Helvetica,sans-Serif" font-size="10.00">initialize_from_stubs</text>
</a>
</g>
</g>
<!-- Node1&#45;&gt;Node2 -->
<g id="edge1_Node000001_Node000002" class="edge">
<title>Node1&#45;&gt;Node2</title>
<g id="a_edge1_Node000001_Node000002"><a xlink:title=" ">
<path fill="none" stroke="#63b8ff" d="M174.02,-20.5C182.67,-20.5 191.37,-20.5 199.81,-20.5"/>
<polygon fill="#63b8ff" stroke="#63b8ff" points="199.94,-24 209.94,-20.5 199.94,-17 199.94,-24"/>
</a>
</g>
</g>
<!-- Node3 -->
<g id="Node000003" class="node">
<title>Node3</title>
<g id="a_Node000003"><a xlink:href="namespacenetspeak_1_1service.html#aaa2a00c5d85f05b437d2357b4c75d648" target="_top" xlink:title=" ">
<polygon fill="white" stroke="#666666" points="474,-35.5 365,-35.5 365,-5.5 474,-5.5 474,-35.5"/>
<text text-anchor="start" x="373" y="-23.5" font-family="Helvetica,sans-Serif" font-size="10.00">netspeak::service::</text>
<text text-anchor="middle" x="419.5" y="-12.5" font-family="Helvetica,sans-Serif" font-size="10.00">check_compatible</text>
</a>
</g>
</g>
<!-- Node2&#45;&gt;Node3 -->
<g id="edge2_Node000002_Node000003" class="edge">
<title>Node2&#45;&gt;Node3</title>
<g id="a_edge2_Node000002_Node000003"><a xlink:title=" ">
<path fill="none" stroke="#63b8ff" d="M329.42,-20.5C337.67,-20.5 346.19,-20.5 354.53,-20.5"/>
<polygon fill="#63b8ff" stroke="#63b8ff" points="354.58,-24 364.58,-20.5 354.58,-17 354.58,-24"/>
</a>
</g>
</g>
<!-- Node4 -->
<g id="Node000004" class="node">
<title>Node4</title>
<g id="a_Node000004"><a xlink:href="classnetspeak_1_1service_1_1LoadBalanceProxy.html#a1ed5863b0775c1160e5c793e79516309" target="_top" xlink:title="Returns the whether the two corpora are compatible by the definition of this proxy.">
<polygon fill="white" stroke="#666666" points="694,-35.5 510,-35.5 510,-5.5 694,-5.5 694,-35.5"/>
<text text-anchor="start" x="518" y="-23.5" font-family="Helvetica,sans-Serif" font-size="10.00">netspeak::service::</text>
<text text-anchor="middle" x="602" y="-12.5" font-family="Helvetica,sans-Serif" font-size="10.00">LoadBalanceProxy::areCompatible</text>
</a>
</g>
</g>
<!-- Node3&#45;&gt;Node4 -->
<g id="edge3_Node000003_Node000004" class="edge">
<title>Node3&#45;&gt;Node4</title>
<g id="a_edge3_Node000003_Node000004"><a xlink:title=" ">
<path fill="none" stroke="#63b8ff" d="M474.17,-20.5C482.23,-20.5 490.77,-20.5 499.45,-20.5"/>
<polygon fill="#63b8ff" stroke="#63b8ff" points="499.68,-24 509.68,-20.5 499.68,-17 499.68,-24"/>
</a>
</g>
</g>
</g>
</svg>
