<?xml version="1.0" encoding="UTF-8" standalone="no"?>
<!DOCTYPE svg PUBLIC "-//W3C//DTD SVG 1.1//EN"
 "http://www.w3.org/Graphics/SVG/1.1/DTD/svg11.dtd">
<!-- Generated by graphviz version 2.43.0 (0)
 -->
<!-- Title: netspeak::regex::RegexQuery::reject_all Pages: 1 -->
<svg width="537pt" height="76pt"
 viewBox="0.00 0.00 537.00 75.50" xmlns="http://www.w3.org/2000/svg" xmlns:xlink="http://www.w3.org/1999/xlink">
<g id="graph0" class="graph" transform="scale(1 1) rotate(0) translate(4 71.5)">
<title>netspeak::regex::RegexQuery::reject_all</title>
<!-- Node1 -->
<g id="Node000001" class="node">
<title>Node1</title>
<g id="a_Node000001"><a xlink:title="Returns whether this query will reject all words.">
<polygon fill="#999999" stroke="#666666" points="529,-45.5 368,-45.5 368,-15.5 529,-15.5 529,-45.5"/>
<text text-anchor="start" x="376" y="-33.5" font-family="Helvetica,sans-Serif" font-size="10.00">netspeak::regex::RegexQuery</text>
<text text-anchor="middle" x="448.5" y="-22.5" font-family="Helvetica,sans-Serif" font-size="10.00">::reject_all</text>
</a>
</g>
</g>
<!-- Node2 -->
<g id="Node000002" class="node">
<title>Node2</title>
<g id="a_Node000002"><a xlink:href="classnetspeak_1_1regex_1_1DefaultRegexIndex.html#a243db53a6f592cf81dc78ab6abe09bc2" target="_top" xlink:title="Adds all words matching the given query to the given vector.">
<polygon fill="white" stroke="#666666" points="324.5,-67.5 180.5,-67.5 180.5,-37.5 324.5,-37.5 324.5,-67.5"/>
<text text-anchor="start" x="188.5" y="-55.5" font-family="Helvetica,sans-Serif" font-size="10.00">netspeak::regex::Default</text>
<text text-anchor="middle" x="252.5" y="-44.5" font-family="Helvetica,sans-Serif" font-size="10.00">RegexIndex::match_query</text>
</a>
</g>
</g>
<!-- Node1&#45;&gt;Node2 -->
<g id="edge1_Node000001_Node000002" class="edge">
<title>Node1&#45;&gt;Node2</title>
<g id="a_edge1_Node000001_Node000002"><a xlink:title=" ">
<path fill="none" stroke="#63b8ff" d="M357.62,-40.69C346.52,-41.95 335.31,-43.22 324.55,-44.44"/>
<polygon fill="#63b8ff" stroke="#63b8ff" points="358.21,-44.15 367.75,-39.54 357.42,-37.19 358.21,-44.15"/>
</a>
</g>
</g>
<!-- Node4 -->
<g id="Node000004" class="node">
<title>Node4</title>
<g id="a_Node000004"><a xlink:href="namespacenetspeak_1_1regex.html#a0ad812750b4e0550867c0e250b83e396" target="_top" xlink:title="Appends the general string representation of a regex query.">
<polygon fill="white" stroke="#666666" points="332,-19 173,-19 173,0 332,0 332,-19"/>
<text text-anchor="middle" x="252.5" y="-7" font-family="Helvetica,sans-Serif" font-size="10.00">netspeak::regex::operator&lt;&lt;</text>
</a>
</g>
</g>
<!-- Node1&#45;&gt;Node4 -->
<g id="edge3_Node000001_Node000004" class="edge">
<title>Node1&#45;&gt;Node4</title>
<g id="a_edge3_Node000001_Node000004"><a xlink:title=" ">
<path fill="none" stroke="#63b8ff" d="M357.81,-20.79C349.3,-19.87 340.71,-18.94 332.31,-18.03"/>
<polygon fill="#63b8ff" stroke="#63b8ff" points="357.43,-24.27 367.75,-21.87 358.19,-17.31 357.43,-24.27"/>
</a>
</g>
</g>
<!-- Node3 -->
<g id="Node000003" class="node">
<title>Node3</title>
<g id="a_Node000003"><a xlink:href="classcli_1_1RegexCommand.html#a359a924652eac2c3d8664bfc5ff29f3e" target="_top" xlink:title=" ">
<polygon fill="white" stroke="#666666" points="137,-62 0,-62 0,-43 137,-43 137,-62"/>
<text text-anchor="middle" x="68.5" y="-50" font-family="Helvetica,sans-Serif" font-size="10.00">cli::RegexCommand::run</text>
</a>
</g>
</g>
<!-- Node2&#45;&gt;Node3 -->
<g id="edge2_Node000002_Node000003" class="edge">
<title>Node2&#45;&gt;Node3</title>
<g id="a_edge2_Node000002_Node000003"><a xlink:title=" ">
<path fill="none" stroke="#63b8ff" d="M170.23,-52.5C159.14,-52.5 147.84,-52.5 137.03,-52.5"/>
<polygon fill="#63b8ff" stroke="#63b8ff" points="170.35,-56 180.35,-52.5 170.35,-49 170.35,-56"/>
</a>
</g>
</g>
</g>
</svg>
