<?xml version="1.0" encoding="UTF-8" standalone="no"?>
<!DOCTYPE svg PUBLIC "-//W3C//DTD SVG 1.1//EN"
 "http://www.w3.org/Graphics/SVG/1.1/DTD/svg11.dtd">
<!-- Generated by graphviz version 2.43.0 (0)
 -->
<!-- Title: netspeak::PhraseCorpus::init_vocabulary_ Pages: 1 -->
<svg width="467pt" height="124pt"
 viewBox="0.00 0.00 467.00 123.50" xmlns="http://www.w3.org/2000/svg" xmlns:xlink="http://www.w3.org/1999/xlink">
<g id="graph0" class="graph" transform="scale(1 1) rotate(0) translate(4 119.5)">
<title>netspeak::PhraseCorpus::init_vocabulary_</title>
<!-- Node1 -->
<g id="Node000001" class="node">
<title>Node1</title>
<g id="a_Node000001"><a xlink:title=" ">
<polygon fill="#999999" stroke="#666666" points="134,-67.5 0,-67.5 0,-37.5 134,-37.5 134,-67.5"/>
<text text-anchor="start" x="8" y="-55.5" font-family="Helvetica,sans-Serif" font-size="10.00">netspeak::PhraseCorpus</text>
<text text-anchor="middle" x="67" y="-44.5" font-family="Helvetica,sans-Serif" font-size="10.00">::init_vocabulary_</text>
</a>
</g>
</g>
<!-- Node2 -->
<g id="Node000002" class="node">
<title>Node2</title>
<g id="a_Node000002"><a xlink:href="classnetspeak_1_1util_1_1StringIdMap_1_1Builder.html#aaae054493a636c9a6c9eb186f970e630" target="_top" xlink:title=" ">
<polygon fill="white" stroke="#666666" points="303.5,-115.5 176.5,-115.5 176.5,-85.5 303.5,-85.5 303.5,-115.5"/>
<text text-anchor="start" x="184.5" y="-103.5" font-family="Helvetica,sans-Serif" font-size="10.00">netspeak::util::StringId</text>
<text text-anchor="middle" x="240" y="-92.5" font-family="Helvetica,sans-Serif" font-size="10.00">Map::Builder::append</text>
</a>
</g>
</g>
<!-- Node1&#45;&gt;Node2 -->
<g id="edge1_Node000001_Node000002" class="edge">
<title>Node1&#45;&gt;Node2</title>
<g id="a_edge1_Node000001_Node000002"><a xlink:title=" ">
<path fill="none" stroke="#63b8ff" d="M121.64,-67.56C138.83,-72.38 158.02,-77.77 175.83,-82.77"/>
<polygon fill="#63b8ff" stroke="#63b8ff" points="174.98,-86.16 185.55,-85.5 176.87,-79.43 174.98,-86.16"/>
</a>
</g>
</g>
<!-- Node3 -->
<g id="Node000003" class="node">
<title>Node3</title>
<g id="a_Node000003"><a xlink:href="namespacenetspeak_1_1error__message.html#a2a36ff57b354714213502a72e6d9d416" target="_top" xlink:title=" ">
<polygon fill="white" stroke="#666666" points="310,-67.5 170,-67.5 170,-37.5 310,-37.5 310,-67.5"/>
<text text-anchor="start" x="178" y="-55.5" font-family="Helvetica,sans-Serif" font-size="10.00">netspeak::error_message</text>
<text text-anchor="middle" x="240" y="-44.5" font-family="Helvetica,sans-Serif" font-size="10.00">::cannot_open</text>
</a>
</g>
</g>
<!-- Node1&#45;&gt;Node3 -->
<g id="edge2_Node000001_Node000003" class="edge">
<title>Node1&#45;&gt;Node3</title>
<g id="a_edge2_Node000001_Node000003"><a xlink:title=" ">
<path fill="none" stroke="#63b8ff" d="M134.11,-52.5C142.56,-52.5 151.27,-52.5 159.89,-52.5"/>
<polygon fill="#63b8ff" stroke="#63b8ff" points="159.95,-56 169.95,-52.5 159.95,-49 159.95,-56"/>
</a>
</g>
</g>
<!-- Node4 -->
<g id="Node000004" class="node">
<title>Node4</title>
<g id="a_Node000004"><a xlink:href="namespacenetspeak_1_1util.html#aad6c5a8708322dd600c23507cc2035f1" target="_top" xlink:title=" ">
<polygon fill="white" stroke="#666666" points="299,-19 181,-19 181,0 299,0 299,-19"/>
<text text-anchor="middle" x="240" y="-7" font-family="Helvetica,sans-Serif" font-size="10.00">netspeak::util::check</text>
</a>
</g>
</g>
<!-- Node1&#45;&gt;Node4 -->
<g id="edge3_Node000001_Node000004" class="edge">
<title>Node1&#45;&gt;Node4</title>
<g id="a_edge3_Node000001_Node000004"><a xlink:title=" ">
<path fill="none" stroke="#63b8ff" d="M127.81,-37.46C148.56,-32.24 171.53,-26.47 191.19,-21.52"/>
<polygon fill="#63b8ff" stroke="#63b8ff" points="192.29,-24.86 201.13,-19.02 190.58,-18.07 192.29,-24.86"/>
</a>
</g>
</g>
<!-- Node5 -->
<g id="Node000005" class="node">
<title>Node5</title>
<g id="a_Node000005"><a xlink:href="namespacenetspeak_1_1util.html#a4c91ad572508b4021399ac7dddff574d" target="_top" xlink:title=" ">
<polygon fill="white" stroke="#666666" points="459,-19 346,-19 346,0 459,0 459,-19"/>
<text text-anchor="middle" x="402.5" y="-7" font-family="Helvetica,sans-Serif" font-size="10.00">netspeak::util::hash</text>
</a>
</g>
</g>
<!-- Node4&#45;&gt;Node5 -->
<g id="edge4_Node000004_Node000005" class="edge">
<title>Node4&#45;&gt;Node5</title>
<g id="a_edge4_Node000004_Node000005"><a xlink:title=" ">
<path fill="none" stroke="#63b8ff" d="M299.4,-9.5C311.23,-9.5 323.75,-9.5 335.82,-9.5"/>
<polygon fill="#63b8ff" stroke="#63b8ff" points="335.82,-13 345.82,-9.5 335.82,-6 335.82,-13"/>
</a>
</g>
</g>
</g>
</svg>
