<?xml version="1.0" encoding="UTF-8" standalone="no"?>
<!DOCTYPE svg PUBLIC "-//W3C//DTD SVG 1.1//EN"
 "http://www.w3.org/Graphics/SVG/1.1/DTD/svg11.dtd">
<!-- Generated by graphviz version 2.43.0 (0)
 -->
<!-- Title: netspeak::model::SimpleQueryUnit__::new_concat Pages: 1 -->
<svg width="1049pt" height="199pt"
 viewBox="0.00 0.00 1049.00 199.00" xmlns="http://www.w3.org/2000/svg" xmlns:xlink="http://www.w3.org/1999/xlink">
<g id="graph0" class="graph" transform="scale(1 1) rotate(0) translate(4 195)">
<title>netspeak::model::SimpleQueryUnit__::new_concat</title>
<!-- Node1 -->
<g id="Node000001" class="node">
<title>Node1</title>
<g id="a_Node000001"><a xlink:title=" ">
<polygon fill="#999999" stroke="#666666" points="1041,-95 874,-95 874,-65 1041,-65 1041,-95"/>
<text text-anchor="start" x="882" y="-83" font-family="Helvetica,sans-Serif" font-size="10.00">netspeak::model::SimpleQuery</text>
<text text-anchor="middle" x="957.5" y="-72" font-family="Helvetica,sans-Serif" font-size="10.00">Unit__::new_concat</text>
</a>
</g>
</g>
<!-- Node2 -->
<g id="Node000002" class="node">
<title>Node2</title>
<g id="a_Node000002"><a xlink:href="classnetspeak_1_1QuerySimplifier.html#a1f629b768d053c64ba136f00661e601d" target="_top" xlink:title=" ">
<polygon fill="white" stroke="#666666" points="838,-191 695,-191 695,-161 838,-161 838,-191"/>
<text text-anchor="start" x="703" y="-179" font-family="Helvetica,sans-Serif" font-size="10.00">netspeak::QuerySimplifier</text>
<text text-anchor="middle" x="766.5" y="-168" font-family="Helvetica,sans-Serif" font-size="10.00">::concat_to_simple</text>
</a>
</g>
</g>
<!-- Node1&#45;&gt;Node2 -->
<g id="edge1_Node000001_Node000002" class="edge">
<title>Node1&#45;&gt;Node2</title>
<g id="a_edge1_Node000001_Node000002"><a xlink:title=" ">
<path fill="none" stroke="#63b8ff" d="M926.6,-100.69C903.22,-116.22 869.52,-137.27 838,-152 831.09,-155.23 823.62,-158.24 816.21,-160.97"/>
<polygon fill="#63b8ff" stroke="#63b8ff" points="928.67,-103.51 935.02,-95.03 924.77,-97.7 928.67,-103.51"/>
</a>
</g>
</g>
<!-- Node5 -->
<g id="Node000005" class="node">
<title>Node5</title>
<g id="a_Node000005"><a xlink:href="classnetspeak_1_1QuerySimplifier.html#abafc853573d650c19c989cebbdc10ce4" target="_top" xlink:title=" ">
<polygon fill="white" stroke="#666666" points="480,-78 337,-78 337,-48 480,-48 480,-78"/>
<text text-anchor="start" x="345" y="-66" font-family="Helvetica,sans-Serif" font-size="10.00">netspeak::QuerySimplifier</text>
<text text-anchor="middle" x="408.5" y="-55" font-family="Helvetica,sans-Serif" font-size="10.00">::option_to_simple</text>
</a>
</g>
</g>
<!-- Node1&#45;&gt;Node5 -->
<g id="edge15_Node000001_Node000005" class="edge">
<title>Node1&#45;&gt;Node5</title>
<g id="a_edge15_Node000001_Node000005"><a xlink:title=" ">
<path fill="none" stroke="#63b8ff" d="M884.27,-62.99C869.07,-60.08 853.08,-57.51 838,-56 712.52,-43.42 565.35,-50.57 480.23,-56.83"/>
<polygon fill="#63b8ff" stroke="#63b8ff" points="883.64,-66.43 894.13,-64.94 885,-59.56 883.64,-66.43"/>
</a>
</g>
</g>
<!-- Node6 -->
<g id="Node000006" class="node">
<title>Node6</title>
<g id="a_Node000006"><a xlink:href="classnetspeak_1_1QuerySimplifier.html#a2f67510a9b668e751894cdeb6e97b349" target="_top" xlink:title=" ">
<polygon fill="white" stroke="#666666" points="480,-30 337,-30 337,0 480,0 480,-30"/>
<text text-anchor="start" x="345" y="-18" font-family="Helvetica,sans-Serif" font-size="10.00">netspeak::QuerySimplifier</text>
<text text-anchor="middle" x="408.5" y="-7" font-family="Helvetica,sans-Serif" font-size="10.00">::order_to_simple</text>
</a>
</g>
</g>
<!-- Node1&#45;&gt;Node6 -->
<g id="edge16_Node000001_Node000006" class="edge">
<title>Node1&#45;&gt;Node6</title>
<g id="a_edge16_Node000001_Node000006"><a xlink:title=" ">
<path fill="none" stroke="#63b8ff" d="M902.68,-62.01C882.6,-55.97 859.46,-49.81 838,-46 713.34,-23.85 565.6,-17.45 480.19,-15.64"/>
<polygon fill="#63b8ff" stroke="#63b8ff" points="901.69,-65.36 912.28,-64.95 903.74,-58.67 901.69,-65.36"/>
</a>
</g>
</g>
<!-- Node10 -->
<g id="Node000010" class="node">
<title>Node10</title>
<g id="a_Node000010"><a xlink:href="classnetspeak_1_1QuerySimplifier.html#ac1ac4b76923d0b209354bf42e2a59d00" target="_top" xlink:title=" ">
<polygon fill="white" stroke="#666666" points="838,-143 695,-143 695,-113 838,-113 838,-143"/>
<text text-anchor="start" x="703" y="-131" font-family="Helvetica,sans-Serif" font-size="10.00">netspeak::QuerySimplifier</text>
<text text-anchor="middle" x="766.5" y="-120" font-family="Helvetica,sans-Serif" font-size="10.00">::dict_to_simple</text>
</a>
</g>
</g>
<!-- Node1&#45;&gt;Node10 -->
<g id="edge13_Node000001_Node000010" class="edge">
<title>Node1&#45;&gt;Node10</title>
<g id="a_edge13_Node000001_Node000010"><a xlink:title=" ">
<path fill="none" stroke="#63b8ff" d="M887.28,-97.58C867.36,-102.64 845.82,-108.11 826.57,-113"/>
<polygon fill="#63b8ff" stroke="#63b8ff" points="888.39,-100.91 897.22,-95.06 886.66,-94.13 888.39,-100.91"/>
</a>
</g>
</g>
<!-- Node11 -->
<g id="Node000011" class="node">
<title>Node11</title>
<g id="a_Node000011"><a xlink:href="classnetspeak_1_1QuerySimplifier.html#aa609db274838f9056f0051d2b391c77c" target="_top" xlink:title=" ">
<polygon fill="white" stroke="#666666" points="838,-95 695,-95 695,-65 838,-65 838,-95"/>
<text text-anchor="start" x="703" y="-83" font-family="Helvetica,sans-Serif" font-size="10.00">netspeak::QuerySimplifier</text>
<text text-anchor="middle" x="766.5" y="-72" font-family="Helvetica,sans-Serif" font-size="10.00">::plus_to_simple</text>
</a>
</g>
</g>
<!-- Node1&#45;&gt;Node11 -->
<g id="edge17_Node000001_Node000011" class="edge">
<title>Node1&#45;&gt;Node11</title>
<g id="a_edge17_Node000001_Node000011"><a xlink:title=" ">
<path fill="none" stroke="#63b8ff" d="M863.78,-80C855.15,-80 846.5,-80 838.12,-80"/>
<polygon fill="#63b8ff" stroke="#63b8ff" points="863.88,-83.5 873.88,-80 863.88,-76.5 863.88,-83.5"/>
</a>
</g>
</g>
<!-- Node3 -->
<g id="Node000003" class="node">
<title>Node3</title>
<g id="a_Node000003"><a xlink:href="classnetspeak_1_1QuerySimplifier.html#ab2f06fcd290543e7a04f2e5614a5f719" target="_top" xlink:title=" ">
<polygon fill="white" stroke="#666666" points="659,-126 516,-126 516,-96 659,-96 659,-126"/>
<text text-anchor="start" x="524" y="-114" font-family="Helvetica,sans-Serif" font-size="10.00">netspeak::QuerySimplifier</text>
<text text-anchor="middle" x="587.5" y="-103" font-family="Helvetica,sans-Serif" font-size="10.00">::unit_to_simple</text>
</a>
</g>
</g>
<!-- Node2&#45;&gt;Node3 -->
<g id="edge2_Node000002_Node000003" class="edge">
<title>Node2&#45;&gt;Node3</title>
<g id="a_edge2_Node000002_Node000003"><a xlink:title=" ">
<path fill="none" stroke="#63b8ff" d="M733.88,-157.14C721.69,-152.42 707.66,-147.59 695,-143 680.01,-137.56 663.91,-131.49 648.89,-126"/>
<polygon fill="#63b8ff" stroke="#63b8ff" points="732.61,-160.4 743.2,-160.89 735.23,-153.91 732.61,-160.4"/>
</a>
</g>
</g>
<!-- Node3&#45;&gt;Node2 -->
<g id="edge5_Node000003_Node000002" class="edge">
<title>Node3&#45;&gt;Node2</title>
<g id="a_edge5_Node000003_Node000002"><a xlink:title=" ">
<path fill="none" stroke="#63b8ff" d="M618.4,-130.41C639.68,-140.23 668.99,-151.57 695,-161 695.12,-161.04 695.24,-161.09 695.37,-161.13"/>
<polygon fill="#63b8ff" stroke="#63b8ff" points="619.76,-127.18 609.22,-126.02 616.73,-133.49 619.76,-127.18"/>
</a>
</g>
</g>
<!-- Node4 -->
<g id="Node000004" class="node">
<title>Node4</title>
<g id="a_Node000004"><a xlink:href="classnetspeak_1_1QuerySimplifier.html#a3b44d549420ef21f82bde54ad4858ba5" target="_top" xlink:title=" ">
<polygon fill="white" stroke="#666666" points="480,-174 337,-174 337,-144 480,-144 480,-174"/>
<text text-anchor="start" x="345" y="-162" font-family="Helvetica,sans-Serif" font-size="10.00">netspeak::QuerySimplifier</text>
<text text-anchor="middle" x="408.5" y="-151" font-family="Helvetica,sans-Serif" font-size="10.00">::alt_to_simple</text>
</a>
</g>
</g>
<!-- Node3&#45;&gt;Node4 -->
<g id="edge3_Node000003_Node000004" class="edge">
<title>Node3&#45;&gt;Node4</title>
<g id="a_edge3_Node000003_Node000004"><a xlink:title=" ">
<path fill="none" stroke="#63b8ff" d="M505.96,-126.12C484.43,-131.82 462.27,-138.24 444.63,-143.96"/>
<polygon fill="#63b8ff" stroke="#63b8ff" points="506.99,-129.46 515.78,-123.55 505.22,-122.69 506.99,-129.46"/>
</a>
</g>
</g>
<!-- Node3&#45;&gt;Node5 -->
<g id="edge6_Node000003_Node000005" class="edge">
<title>Node3&#45;&gt;Node5</title>
<g id="a_edge6_Node000003_Node000005"><a xlink:title=" ">
<path fill="none" stroke="#63b8ff" d="M541.46,-92.82C522.9,-87.06 500.94,-80.88 480.32,-75.58"/>
<polygon fill="#63b8ff" stroke="#63b8ff" points="540.52,-96.19 551.11,-95.88 542.63,-89.52 540.52,-96.19"/>
</a>
</g>
</g>
<!-- Node3&#45;&gt;Node6 -->
<g id="edge8_Node000003_Node000006" class="edge">
<title>Node3&#45;&gt;Node6</title>
<g id="a_edge8_Node000003_Node000006"><a xlink:title=" ">
<path fill="none" stroke="#63b8ff" d="M567.23,-88.94C546.61,-70.78 512.46,-46.14 480,-30 479.88,-29.94 479.77,-29.88 479.65,-29.83"/>
<polygon fill="#63b8ff" stroke="#63b8ff" points="564.96,-91.61 574.69,-95.8 569.7,-86.45 564.96,-91.61"/>
</a>
</g>
</g>
<!-- Node7 -->
<g id="Node000007" class="node">
<title>Node7</title>
<g id="a_Node000007"><a xlink:href="classnetspeak_1_1QuerySimplifier.html#a47411b51e5d329b77e30c2204c12627d" target="_top" xlink:title=" ">
<polygon fill="white" stroke="#666666" points="480,-126 337,-126 337,-96 480,-96 480,-126"/>
<text text-anchor="start" x="345" y="-114" font-family="Helvetica,sans-Serif" font-size="10.00">netspeak::QuerySimplifier</text>
<text text-anchor="middle" x="408.5" y="-103" font-family="Helvetica,sans-Serif" font-size="10.00">::to_simple</text>
</a>
</g>
</g>
<!-- Node3&#45;&gt;Node7 -->
<g id="edge10_Node000003_Node000007" class="edge">
<title>Node3&#45;&gt;Node7</title>
<g id="a_edge10_Node000003_Node000007"><a xlink:title=" ">
<path fill="none" stroke="#63b8ff" d="M505.51,-111C497.03,-111 488.46,-111 480.11,-111"/>
<polygon fill="#63b8ff" stroke="#63b8ff" points="505.78,-114.5 515.78,-111 505.78,-107.5 505.78,-114.5"/>
</a>
</g>
</g>
<!-- Node4&#45;&gt;Node3 -->
<g id="edge4_Node000004_Node000003" class="edge">
<title>Node4&#45;&gt;Node3</title>
<g id="a_edge4_Node000004_Node000003"><a xlink:title=" ">
<path fill="none" stroke="#63b8ff" d="M490.1,-143.87C511.5,-138.2 533.52,-131.82 551.11,-126.12"/>
<polygon fill="#63b8ff" stroke="#63b8ff" points="489.12,-140.51 480.32,-146.42 490.88,-147.28 489.12,-140.51"/>
</a>
</g>
</g>
<!-- Node5&#45;&gt;Node3 -->
<g id="edge7_Node000005_Node000003" class="edge">
<title>Node5&#45;&gt;Node3</title>
<g id="a_edge7_Node000005_Node000003"><a xlink:title=" ">
<path fill="none" stroke="#63b8ff" d="M454.32,-81.11C472.96,-86.9 495.05,-93.12 515.78,-98.45"/>
<polygon fill="#63b8ff" stroke="#63b8ff" points="455.22,-77.73 444.63,-78.04 453.11,-84.4 455.22,-77.73"/>
</a>
</g>
</g>
<!-- Node6&#45;&gt;Node3 -->
<g id="edge9_Node000006_Node000003" class="edge">
<title>Node6&#45;&gt;Node3</title>
<g id="a_edge9_Node000006_Node000003"><a xlink:title=" ">
<path fill="none" stroke="#63b8ff" d="M445.26,-33.68C456.63,-37.88 469.08,-42.57 480,-48 507.78,-61.81 536.79,-81.85 557.51,-95.84"/>
<polygon fill="#63b8ff" stroke="#63b8ff" points="446.21,-30.3 435.62,-30.1 443.77,-36.86 446.21,-30.3"/>
</a>
</g>
</g>
<!-- Node8 -->
<g id="Node000008" class="node">
<title>Node8</title>
<g id="a_Node000008"><a xlink:href="classnetspeak_1_1QueryNormalizer.html#a70187ab668d98c93cfc3a8d05ca1508e" target="_top" xlink:title=" ">
<polygon fill="white" stroke="#666666" points="301,-126 150,-126 150,-96 301,-96 301,-126"/>
<text text-anchor="start" x="158" y="-114" font-family="Helvetica,sans-Serif" font-size="10.00">netspeak::QueryNormalizer</text>
<text text-anchor="middle" x="225.5" y="-103" font-family="Helvetica,sans-Serif" font-size="10.00">::normalize</text>
</a>
</g>
</g>
<!-- Node7&#45;&gt;Node8 -->
<g id="edge11_Node000007_Node000008" class="edge">
<title>Node7&#45;&gt;Node8</title>
<g id="a_edge11_Node000007_Node000008"><a xlink:title=" ">
<path fill="none" stroke="#63b8ff" d="M326.5,-111C318.04,-111 309.47,-111 301.09,-111"/>
<polygon fill="#63b8ff" stroke="#63b8ff" points="326.74,-114.5 336.74,-111 326.74,-107.5 326.74,-114.5"/>
</a>
</g>
</g>
<!-- Node9 -->
<g id="Node000009" class="node">
<title>Node9</title>
<g id="a_Node000009"><a xlink:href="classnetspeak_1_1Netspeak.html#aaa049275c7a0a7f6721acf7422402bff" target="_top" xlink:title=" ">
<polygon fill="white" stroke="#666666" points="114,-126 0,-126 0,-96 114,-96 114,-126"/>
<text text-anchor="start" x="8" y="-114" font-family="Helvetica,sans-Serif" font-size="10.00">netspeak::Netspeak</text>
<text text-anchor="middle" x="57" y="-103" font-family="Helvetica,sans-Serif" font-size="10.00">::search_raw_</text>
</a>
</g>
</g>
<!-- Node8&#45;&gt;Node9 -->
<g id="edge12_Node000008_Node000009" class="edge">
<title>Node8&#45;&gt;Node9</title>
<g id="a_edge12_Node000008_Node000009"><a xlink:title=" ">
<path fill="none" stroke="#63b8ff" d="M139.45,-111C130.85,-111 122.28,-111 114.1,-111"/>
<polygon fill="#63b8ff" stroke="#63b8ff" points="139.53,-114.5 149.53,-111 139.53,-107.5 139.53,-114.5"/>
</a>
</g>
</g>
<!-- Node10&#45;&gt;Node3 -->
<g id="edge14_Node000010_Node000003" class="edge">
<title>Node10&#45;&gt;Node3</title>
<g id="a_edge14_Node000010_Node000003"><a xlink:title=" ">
<path fill="none" stroke="#63b8ff" d="M684.79,-120.25C676.22,-119.42 667.55,-118.59 659.11,-117.78"/>
<polygon fill="#63b8ff" stroke="#63b8ff" points="684.49,-123.74 694.78,-121.21 685.16,-116.77 684.49,-123.74"/>
</a>
</g>
</g>
<!-- Node11&#45;&gt;Node3 -->
<g id="edge18_Node000011_Node000003" class="edge">
<title>Node11&#45;&gt;Node3</title>
<g id="a_edge18_Node000011_Node000003"><a xlink:title=" ">
<path fill="none" stroke="#63b8ff" d="M684.79,-94.14C676.22,-95.64 667.55,-97.16 659.11,-98.63"/>
<polygon fill="#63b8ff" stroke="#63b8ff" points="685.54,-97.56 694.78,-92.39 684.33,-90.66 685.54,-97.56"/>
</a>
</g>
</g>
</g>
</svg>
