<?xml version="1.0" encoding="UTF-8" standalone="no"?>
<!DOCTYPE svg PUBLIC "-//W3C//DTD SVG 1.1//EN"
 "http://www.w3.org/Graphics/SVG/1.1/DTD/svg11.dtd">
<!-- Generated by graphviz version 2.43.0 (0)
 -->
<!-- Title: netspeak::Configuration::get Pages: 1 -->
<svg width="482pt" height="108pt"
 viewBox="0.00 0.00 482.00 108.00" xmlns="http://www.w3.org/2000/svg" xmlns:xlink="http://www.w3.org/1999/xlink">
<g id="graph0" class="graph" transform="scale(1 1) rotate(0) translate(4 104)">
<title>netspeak::Configuration::get</title>
<!-- Node1 -->
<g id="Node000001" class="node">
<title>Node1</title>
<g id="a_Node000001"><a xlink:title=" ">
<polygon fill="#999999" stroke="#666666" points="474,-46.5 319,-46.5 319,-27.5 474,-27.5 474,-46.5"/>
<text text-anchor="middle" x="396.5" y="-34.5" font-family="Helvetica,sans-Serif" font-size="10.00">netspeak::Configuration::get</text>
</a>
</g>
</g>
<!-- Node2 -->
<g id="Node000002" class="node">
<title>Node2</title>
<g id="a_Node000002"><a xlink:href="classnetspeak_1_1Configuration.html#a349f4a5c0bf2a9d116ccee84a774cb2a" target="_top" xlink:title=" ">
<polygon fill="white" stroke="#666666" points="283,-100 150,-100 150,-70 283,-70 283,-100"/>
<text text-anchor="start" x="158" y="-88" font-family="Helvetica,sans-Serif" font-size="10.00">netspeak::Configuration</text>
<text text-anchor="middle" x="216.5" y="-77" font-family="Helvetica,sans-Serif" font-size="10.00">::get_path</text>
</a>
</g>
</g>
<!-- Node1&#45;&gt;Node2 -->
<g id="edge1_Node000001_Node000002" class="edge">
<title>Node1&#45;&gt;Node2</title>
<g id="a_edge1_Node000001_Node000002"><a xlink:title=" ">
<path fill="none" stroke="#63b8ff" d="M350.24,-49.2C326.86,-55.51 298.11,-63.26 273.36,-69.94"/>
<polygon fill="#63b8ff" stroke="#63b8ff" points="351.16,-52.58 359.91,-46.6 349.34,-45.82 351.16,-52.58"/>
</a>
</g>
</g>
<!-- Node3 -->
<g id="Node000003" class="node">
<title>Node3</title>
<g id="a_Node000003"><a xlink:href="classnetspeak_1_1Netspeak.html#a8653d43c4d385a1b81075d1b1c6fb1ea" target="_top" xlink:title=" ">
<polygon fill="white" stroke="#666666" points="273.5,-52 159.5,-52 159.5,-22 273.5,-22 273.5,-52"/>
<text text-anchor="start" x="167.5" y="-40" font-family="Helvetica,sans-Serif" font-size="10.00">netspeak::Netspeak</text>
<text text-anchor="middle" x="216.5" y="-29" font-family="Helvetica,sans-Serif" font-size="10.00">::get_search_config</text>
</a>
</g>
</g>
<!-- Node1&#45;&gt;Node3 -->
<g id="edge2_Node000001_Node000003" class="edge">
<title>Node1&#45;&gt;Node3</title>
<g id="a_edge2_Node000001_Node000003"><a xlink:title=" ">
<path fill="none" stroke="#63b8ff" d="M308.91,-37C296.88,-37 284.8,-37 273.53,-37"/>
<polygon fill="#63b8ff" stroke="#63b8ff" points="308.98,-40.5 318.98,-37 308.98,-33.5 308.98,-40.5"/>
</a>
</g>
</g>
<!-- Node4 -->
<g id="Node000004" class="node">
<title>Node4</title>
<g id="a_Node000004"><a xlink:href="classnetspeak_1_1Netspeak.html#a4fa7fcfd57d5c943e1bf476c61610c99" target="_top" xlink:title=" ">
<polygon fill="white" stroke="#666666" points="114,-30 0,-30 0,0 114,0 114,-30"/>
<text text-anchor="start" x="8" y="-18" font-family="Helvetica,sans-Serif" font-size="10.00">netspeak::Netspeak</text>
<text text-anchor="middle" x="57" y="-7" font-family="Helvetica,sans-Serif" font-size="10.00">::initialize</text>
</a>
</g>
</g>
<!-- Node1&#45;&gt;Node4 -->
<g id="edge4_Node000001_Node000004" class="edge">
<title>Node1&#45;&gt;Node4</title>
<g id="a_edge4_Node000001_Node000004"><a xlink:title=" ">
<path fill="none" stroke="#63b8ff" d="M350.14,-25.05C329.77,-20.28 305.34,-15.36 283,-13 224.22,-6.8 209.11,-12.36 150,-13 138.5,-13.13 126.19,-13.34 114.44,-13.58"/>
<polygon fill="#63b8ff" stroke="#63b8ff" points="349.55,-28.51 360.09,-27.45 351.18,-21.7 349.55,-28.51"/>
</a>
</g>
</g>
<!-- Node3&#45;&gt;Node4 -->
<g id="edge3_Node000003_Node000004" class="edge">
<title>Node3&#45;&gt;Node4</title>
<g id="a_edge3_Node000003_Node000004"><a xlink:title=" ">
<path fill="none" stroke="#63b8ff" d="M148.98,-27.71C137.34,-26.08 125.34,-24.41 114.02,-22.83"/>
<polygon fill="#63b8ff" stroke="#63b8ff" points="148.7,-31.2 159.08,-29.12 149.66,-24.27 148.7,-31.2"/>
</a>
</g>
</g>
</g>
</svg>
