<?xml version="1.0" encoding="UTF-8" standalone="no"?>
<!DOCTYPE svg PUBLIC "-//W3C//DTD SVG 1.1//EN"
 "http://www.w3.org/Graphics/SVG/1.1/DTD/svg11.dtd">
<!-- Generated by graphviz version 2.43.0 (0)
 -->
<!-- Title: netspeak::model::SimpleQueryUnit__::tag Pages: 1 -->
<svg width="1378pt" height="491pt"
 viewBox="0.00 0.00 1378.00 491.00" xmlns="http://www.w3.org/2000/svg" xmlns:xlink="http://www.w3.org/1999/xlink">
<g id="graph0" class="graph" transform="scale(1 1) rotate(0) translate(4 487)">
<title>netspeak::model::SimpleQueryUnit__::tag</title>
<!-- Node1 -->
<g id="Node000001" class="node">
<title>Node1</title>
<g id="a_Node000001"><a xlink:title=" ">
<polygon fill="#999999" stroke="#666666" points="1370,-260 1203,-260 1203,-230 1370,-230 1370,-260"/>
<text text-anchor="start" x="1211" y="-248" font-family="Helvetica,sans-Serif" font-size="10.00">netspeak::model::SimpleQuery</text>
<text text-anchor="middle" x="1286.5" y="-237" font-family="Helvetica,sans-Serif" font-size="10.00">Unit__::tag</text>
</a>
</g>
</g>
<!-- Node2 -->
<g id="Node000002" class="node">
<title>Node2</title>
<g id="a_Node000002"><a xlink:href="classnetspeak_1_1QuerySimplifier.html#ae3c3e04a80fa328604bd5287349aebe2" target="_top" xlink:title=" ">
<polygon fill="white" stroke="#666666" points="1149,-435 1006,-435 1006,-405 1149,-405 1149,-435"/>
<text text-anchor="start" x="1014" y="-423" font-family="Helvetica,sans-Serif" font-size="10.00">netspeak::QuerySimplifier</text>
<text text-anchor="middle" x="1077.5" y="-412" font-family="Helvetica,sans-Serif" font-size="10.00">::add_to_alternation</text>
</a>
</g>
</g>
<!-- Node1&#45;&gt;Node2 -->
<g id="edge1_Node000001_Node000002" class="edge">
<title>Node1&#45;&gt;Node2</title>
<g id="a_edge1_Node000001_Node000002"><a xlink:title=" ">
<path fill="none" stroke="#63b8ff" d="M1272.07,-269.01C1252.84,-301.26 1214.48,-358.32 1167,-391 1158.88,-396.59 1149.6,-401.17 1140.18,-404.89"/>
<polygon fill="#63b8ff" stroke="#63b8ff" points="1275.18,-270.63 1277.19,-260.22 1269.13,-267.1 1275.18,-270.63"/>
</a>
</g>
</g>
<!-- Node11 -->
<g id="Node000011" class="node">
<title>Node11</title>
<g id="a_Node000011"><a xlink:href="classnetspeak_1_1QuerySimplifier.html#a6cbbe38bc9244210c3f76635f30daaa3" target="_top" xlink:title=" ">
<polygon fill="white" stroke="#666666" points="719,-387 576,-387 576,-357 719,-357 719,-387"/>
<text text-anchor="start" x="584" y="-375" font-family="Helvetica,sans-Serif" font-size="10.00">netspeak::QuerySimplifier</text>
<text text-anchor="middle" x="647.5" y="-364" font-family="Helvetica,sans-Serif" font-size="10.00">::add_to_concat</text>
</a>
</g>
</g>
<!-- Node1&#45;&gt;Node11 -->
<g id="edge15_Node000001_Node000011" class="edge">
<title>Node1&#45;&gt;Node11</title>
<g id="a_edge15_Node000001_Node000011"><a xlink:title=" ">
<path fill="none" stroke="#63b8ff" d="M1265.38,-267.93C1243.67,-290.91 1206.81,-325.1 1167,-341 1016.46,-401.11 821.7,-392.09 719.03,-381.39"/>
<polygon fill="#63b8ff" stroke="#63b8ff" points="1268.2,-270.04 1272.41,-260.32 1263.05,-265.29 1268.2,-270.04"/>
</a>
</g>
</g>
<!-- Node12 -->
<g id="Node000012" class="node">
<title>Node12</title>
<g id="a_Node000012"><a xlink:href="classnetspeak_1_1StarQueryConverter.html#a3b9f125a061331acd1c667c8bf50fb2b" target="_top" xlink:title=" ">
<polygon fill="white" stroke="#666666" points="1159.5,-293 995.5,-293 995.5,-263 1159.5,-263 1159.5,-293"/>
<text text-anchor="start" x="1003.5" y="-281" font-family="Helvetica,sans-Serif" font-size="10.00">netspeak::StarQueryConverter</text>
<text text-anchor="middle" x="1077.5" y="-270" font-family="Helvetica,sans-Serif" font-size="10.00">::alternation</text>
</a>
</g>
</g>
<!-- Node1&#45;&gt;Node12 -->
<g id="edge18_Node000001_Node000012" class="edge">
<title>Node1&#45;&gt;Node12</title>
<g id="a_edge18_Node000001_Node000012"><a xlink:title=" ">
<path fill="none" stroke="#63b8ff" d="M1192.74,-259.79C1181.73,-261.54 1170.56,-263.32 1159.72,-265.05"/>
<polygon fill="#63b8ff" stroke="#63b8ff" points="1193.47,-263.22 1202.8,-258.18 1192.37,-256.3 1193.47,-263.22"/>
</a>
</g>
</g>
<!-- Node13 -->
<g id="Node000013" class="node">
<title>Node13</title>
<g id="a_Node000013"><a xlink:href="classnetspeak_1_1StarQueryConverter.html#a603db91f5a1da4fcc11c7e99f71ece2f" target="_top" xlink:title=" ">
<polygon fill="white" stroke="#666666" points="944.5,-331 780.5,-331 780.5,-301 944.5,-301 944.5,-331"/>
<text text-anchor="start" x="788.5" y="-319" font-family="Helvetica,sans-Serif" font-size="10.00">netspeak::StarQueryConverter</text>
<text text-anchor="middle" x="862.5" y="-308" font-family="Helvetica,sans-Serif" font-size="10.00">::concat</text>
</a>
</g>
</g>
<!-- Node1&#45;&gt;Node13 -->
<g id="edge26_Node000001_Node000013" class="edge">
<title>Node1&#45;&gt;Node13</title>
<g id="a_edge26_Node000001_Node000013"><a xlink:title=" ">
<path fill="none" stroke="#63b8ff" d="M1260.85,-266.55C1238.2,-284.8 1202.82,-309.62 1167,-320 1093.99,-341.16 1006.9,-337.21 944.77,-329.72"/>
<polygon fill="#63b8ff" stroke="#63b8ff" points="1263.1,-269.22 1268.59,-260.16 1258.65,-263.83 1263.1,-269.22"/>
</a>
</g>
</g>
<!-- Node16 -->
<g id="Node000016" class="node">
<title>Node16</title>
<g id="a_Node000016"><a xlink:href="structnetspeak_1_1NormQueryCounter.html#a72d9822b381ac1a8d8f29521c73c7e45" target="_top" xlink:title=" ">
<polygon fill="white" stroke="#666666" points="1158.5,-227 996.5,-227 996.5,-197 1158.5,-197 1158.5,-227"/>
<text text-anchor="start" x="1004.5" y="-215" font-family="Helvetica,sans-Serif" font-size="10.00">netspeak::NormQueryCounter</text>
<text text-anchor="middle" x="1077.5" y="-204" font-family="Helvetica,sans-Serif" font-size="10.00">::estimate_impl</text>
</a>
</g>
</g>
<!-- Node1&#45;&gt;Node16 -->
<g id="edge27_Node000001_Node000016" class="edge">
<title>Node1&#45;&gt;Node16</title>
<g id="a_edge27_Node000001_Node000016"><a xlink:title=" ">
<path fill="none" stroke="#63b8ff" d="M1192.85,-230.23C1181.46,-228.41 1169.9,-226.57 1158.71,-224.79"/>
<polygon fill="#63b8ff" stroke="#63b8ff" points="1192.37,-233.7 1202.8,-231.82 1193.47,-226.78 1192.37,-233.7"/>
</a>
</g>
</g>
<!-- Node19 -->
<g id="Node000019" class="node">
<title>Node19</title>
<g id="a_Node000019"><a xlink:href="namespacenetspeak.html#af04673586ac70da613567b5220cc7992" target="_top" xlink:title=" ">
<polygon fill="white" stroke="#666666" points="1142,-160.5 1013,-160.5 1013,-141.5 1142,-141.5 1142,-160.5"/>
<text text-anchor="middle" x="1077.5" y="-148.5" font-family="Helvetica,sans-Serif" font-size="10.00">netspeak::find_regexes</text>
</a>
</g>
</g>
<!-- Node1&#45;&gt;Node19 -->
<g id="edge32_Node000001_Node000019" class="edge">
<title>Node1&#45;&gt;Node19</title>
<g id="a_edge32_Node000001_Node000019"><a xlink:title=" ">
<path fill="none" stroke="#63b8ff" d="M1245.94,-225.33C1223.02,-214.1 1193.54,-199.92 1167,-188 1145.28,-178.24 1120.21,-167.84 1102.31,-160.56"/>
<polygon fill="#63b8ff" stroke="#63b8ff" points="1244.5,-228.52 1255.02,-229.79 1247.59,-222.24 1244.5,-228.52"/>
</a>
</g>
</g>
<!-- Node21 -->
<g id="Node000021" class="node">
<title>Node21</title>
<g id="a_Node000021"><a xlink:href="namespacenetspeak_1_1model.html#ad68914eb806cd6f1ad3801a814db9328" target="_top" xlink:title=" ">
<polygon fill="white" stroke="#666666" points="1158.5,-123.5 996.5,-123.5 996.5,-104.5 1158.5,-104.5 1158.5,-123.5"/>
<text text-anchor="middle" x="1077.5" y="-111.5" font-family="Helvetica,sans-Serif" font-size="10.00">netspeak::model::operator&lt;&lt;</text>
</a>
</g>
</g>
<!-- Node1&#45;&gt;Node21 -->
<g id="edge36_Node000001_Node000021" class="edge">
<title>Node1&#45;&gt;Node21</title>
<g id="a_edge36_Node000001_Node000021"><a xlink:title=" ">
<path fill="none" stroke="#63b8ff" d="M1267.7,-221.83C1246.57,-196.02 1208.86,-155.03 1167,-133 1159.63,-129.12 1151.52,-126.04 1143.29,-123.58"/>
<polygon fill="#63b8ff" stroke="#63b8ff" points="1265.23,-224.35 1274.22,-229.96 1270.69,-219.97 1265.23,-224.35"/>
</a>
</g>
</g>
<!-- Node22 -->
<g id="Node000022" class="node">
<title>Node22</title>
<g id="a_Node000022"><a xlink:href="classnetspeak_1_1SimpleQueryOptimizer.html#a6df1cdcea41d9914bb1063642d615bdf" target="_top" xlink:title=" ">
<polygon fill="white" stroke="#666666" points="1167,-80 988,-80 988,-50 1167,-50 1167,-80"/>
<text text-anchor="start" x="996" y="-68" font-family="Helvetica,sans-Serif" font-size="10.00">netspeak::SimpleQueryOptimizer</text>
<text text-anchor="middle" x="1077.5" y="-57" font-family="Helvetica,sans-Serif" font-size="10.00">::optimize_simple_unit</text>
</a>
</g>
</g>
<!-- Node1&#45;&gt;Node22 -->
<g id="edge37_Node000001_Node000022" class="edge">
<title>Node1&#45;&gt;Node22</title>
<g id="a_edge37_Node000001_Node000022"><a xlink:title=" ">
<path fill="none" stroke="#63b8ff" d="M1272.48,-220.91C1253.48,-187.93 1215.13,-128.96 1167,-95 1158.38,-88.92 1148.44,-83.99 1138.39,-80.03"/>
<polygon fill="#63b8ff" stroke="#63b8ff" points="1269.57,-222.87 1277.53,-229.86 1275.66,-219.43 1269.57,-222.87"/>
</a>
</g>
</g>
<!-- Node3 -->
<g id="Node000003" class="node">
<title>Node3</title>
<g id="a_Node000003"><a xlink:href="classnetspeak_1_1QuerySimplifier.html#a3b44d549420ef21f82bde54ad4858ba5" target="_top" xlink:title=" ">
<polygon fill="white" stroke="#666666" points="934,-435 791,-435 791,-405 934,-405 934,-435"/>
<text text-anchor="start" x="799" y="-423" font-family="Helvetica,sans-Serif" font-size="10.00">netspeak::QuerySimplifier</text>
<text text-anchor="middle" x="862.5" y="-412" font-family="Helvetica,sans-Serif" font-size="10.00">::alt_to_simple</text>
</a>
</g>
</g>
<!-- Node2&#45;&gt;Node3 -->
<g id="edge2_Node000002_Node000003" class="edge">
<title>Node2&#45;&gt;Node3</title>
<g id="a_edge2_Node000002_Node000003"><a xlink:title=" ">
<path fill="none" stroke="#63b8ff" d="M995.75,-420C975.53,-420 954,-420 934.3,-420"/>
<polygon fill="#63b8ff" stroke="#63b8ff" points="995.87,-423.5 1005.87,-420 995.87,-416.5 995.87,-423.5"/>
</a>
</g>
</g>
<!-- Node6 -->
<g id="Node000006" class="node">
<title>Node6</title>
<g id="a_Node000006"><a xlink:href="classnetspeak_1_1QuerySimplifier.html#abafc853573d650c19c989cebbdc10ce4" target="_top" xlink:title=" ">
<polygon fill="white" stroke="#666666" points="501,-483 358,-483 358,-453 501,-453 501,-483"/>
<text text-anchor="start" x="366" y="-471" font-family="Helvetica,sans-Serif" font-size="10.00">netspeak::QuerySimplifier</text>
<text text-anchor="middle" x="429.5" y="-460" font-family="Helvetica,sans-Serif" font-size="10.00">::option_to_simple</text>
</a>
</g>
</g>
<!-- Node2&#45;&gt;Node6 -->
<g id="edge14_Node000002_Node000006" class="edge">
<title>Node2&#45;&gt;Node6</title>
<g id="a_edge14_Node000002_Node000006"><a xlink:title=" ">
<path fill="none" stroke="#63b8ff" d="M998.07,-436.9C982.85,-439.68 966.97,-442.22 952,-444 791.57,-463.05 601.72,-467.21 501.2,-467.98"/>
<polygon fill="#63b8ff" stroke="#63b8ff" points="998.77,-440.33 1007.96,-435.05 997.48,-433.45 998.77,-440.33"/>
</a>
</g>
</g>
<!-- Node4 -->
<g id="Node000004" class="node">
<title>Node4</title>
<g id="a_Node000004"><a xlink:href="classnetspeak_1_1QuerySimplifier.html#ab2f06fcd290543e7a04f2e5614a5f719" target="_top" xlink:title=" ">
<polygon fill="white" stroke="#666666" points="719,-435 576,-435 576,-405 719,-405 719,-435"/>
<text text-anchor="start" x="584" y="-423" font-family="Helvetica,sans-Serif" font-size="10.00">netspeak::QuerySimplifier</text>
<text text-anchor="middle" x="647.5" y="-412" font-family="Helvetica,sans-Serif" font-size="10.00">::unit_to_simple</text>
</a>
</g>
</g>
<!-- Node3&#45;&gt;Node4 -->
<g id="edge3_Node000003_Node000004" class="edge">
<title>Node3&#45;&gt;Node4</title>
<g id="a_edge3_Node000003_Node000004"><a xlink:title=" ">
<path fill="none" stroke="#63b8ff" d="M780.75,-413.43C760.53,-413.14 739,-413.2 719.3,-413.6"/>
<polygon fill="#63b8ff" stroke="#63b8ff" points="780.81,-416.93 790.87,-413.6 780.93,-409.93 780.81,-416.93"/>
</a>
</g>
</g>
<!-- Node4&#45;&gt;Node3 -->
<g id="edge4_Node000004_Node000003" class="edge">
<title>Node4&#45;&gt;Node3</title>
<g id="a_edge4_Node000004_Node000003"><a xlink:title=" ">
<path fill="none" stroke="#63b8ff" d="M729.43,-426.57C749.65,-426.86 771.19,-426.8 790.87,-426.4"/>
<polygon fill="#63b8ff" stroke="#63b8ff" points="729.36,-423.07 719.3,-426.4 729.24,-430.07 729.36,-423.07"/>
</a>
</g>
</g>
<!-- Node5 -->
<g id="Node000005" class="node">
<title>Node5</title>
<g id="a_Node000005"><a xlink:href="classnetspeak_1_1QuerySimplifier.html#a1f629b768d053c64ba136f00661e601d" target="_top" xlink:title=" ">
<polygon fill="white" stroke="#666666" points="501,-387 358,-387 358,-357 501,-357 501,-387"/>
<text text-anchor="start" x="366" y="-375" font-family="Helvetica,sans-Serif" font-size="10.00">netspeak::QuerySimplifier</text>
<text text-anchor="middle" x="429.5" y="-364" font-family="Helvetica,sans-Serif" font-size="10.00">::concat_to_simple</text>
</a>
</g>
</g>
<!-- Node4&#45;&gt;Node5 -->
<g id="edge5_Node000004_Node000005" class="edge">
<title>Node4&#45;&gt;Node5</title>
<g id="a_edge5_Node000004_Node000005"><a xlink:title=" ">
<path fill="none" stroke="#63b8ff" d="M593.66,-402.36C565.89,-395.25 531.47,-387.44 501.41,-381.38"/>
<polygon fill="#63b8ff" stroke="#63b8ff" points="593.01,-405.81 603.57,-404.94 594.77,-399.03 593.01,-405.81"/>
</a>
</g>
</g>
<!-- Node4&#45;&gt;Node6 -->
<g id="edge7_Node000004_Node000006" class="edge">
<title>Node4&#45;&gt;Node6</title>
<g id="a_edge7_Node000004_Node000006"><a xlink:title=" ">
<path fill="none" stroke="#63b8ff" d="M565.72,-431.4C534.34,-437.91 499.69,-445.96 473.32,-452.98"/>
<polygon fill="#63b8ff" stroke="#63b8ff" points="566.68,-434.77 575.77,-429.34 565.27,-427.91 566.68,-434.77"/>
</a>
</g>
</g>
<!-- Node7 -->
<g id="Node000007" class="node">
<title>Node7</title>
<g id="a_Node000007"><a xlink:href="classnetspeak_1_1QuerySimplifier.html#a2f67510a9b668e751894cdeb6e97b349" target="_top" xlink:title=" ">
<polygon fill="white" stroke="#666666" points="501,-339 358,-339 358,-309 501,-309 501,-339"/>
<text text-anchor="start" x="366" y="-327" font-family="Helvetica,sans-Serif" font-size="10.00">netspeak::QuerySimplifier</text>
<text text-anchor="middle" x="429.5" y="-316" font-family="Helvetica,sans-Serif" font-size="10.00">::order_to_simple</text>
</a>
</g>
</g>
<!-- Node4&#45;&gt;Node7 -->
<g id="edge9_Node000004_Node000007" class="edge">
<title>Node4&#45;&gt;Node7</title>
<g id="a_edge9_Node000004_Node000007"><a xlink:title=" ">
<path fill="none" stroke="#63b8ff" d="M590.45,-402.02C579.09,-398.34 567.68,-393.57 558,-387 535.93,-372.03 544.13,-353.88 522,-339 515.59,-334.69 508.46,-331.16 501.07,-328.31"/>
<polygon fill="#63b8ff" stroke="#63b8ff" points="589.78,-405.48 600.37,-405 591.79,-398.77 589.78,-405.48"/>
</a>
</g>
</g>
<!-- Node8 -->
<g id="Node000008" class="node">
<title>Node8</title>
<g id="a_Node000008"><a xlink:href="classnetspeak_1_1QuerySimplifier.html#a47411b51e5d329b77e30c2204c12627d" target="_top" xlink:title=" ">
<polygon fill="white" stroke="#666666" points="501,-435 358,-435 358,-405 501,-405 501,-435"/>
<text text-anchor="start" x="366" y="-423" font-family="Helvetica,sans-Serif" font-size="10.00">netspeak::QuerySimplifier</text>
<text text-anchor="middle" x="429.5" y="-412" font-family="Helvetica,sans-Serif" font-size="10.00">::to_simple</text>
</a>
</g>
</g>
<!-- Node4&#45;&gt;Node8 -->
<g id="edge11_Node000004_Node000008" class="edge">
<title>Node4&#45;&gt;Node8</title>
<g id="a_edge11_Node000004_Node000008"><a xlink:title=" ">
<path fill="none" stroke="#63b8ff" d="M565.5,-420C544.3,-420 521.62,-420 501.02,-420"/>
<polygon fill="#63b8ff" stroke="#63b8ff" points="565.77,-423.5 575.77,-420 565.77,-416.5 565.77,-423.5"/>
</a>
</g>
</g>
<!-- Node5&#45;&gt;Node4 -->
<g id="edge6_Node000005_Node000004" class="edge">
<title>Node5&#45;&gt;Node4</title>
<g id="a_edge6_Node000005_Node000004"><a xlink:title=" ">
<path fill="none" stroke="#63b8ff" d="M483.25,-389.62C511.09,-396.75 545.64,-404.59 575.77,-410.66"/>
<polygon fill="#63b8ff" stroke="#63b8ff" points="483.88,-386.16 473.32,-387.02 482.11,-392.94 483.88,-386.16"/>
</a>
</g>
</g>
<!-- Node6&#45;&gt;Node4 -->
<g id="edge8_Node000006_Node000004" class="edge">
<title>Node6&#45;&gt;Node4</title>
<g id="a_edge8_Node000006_Node000004"><a xlink:title=" ">
<path fill="none" stroke="#63b8ff" d="M511.44,-456.57C542.73,-450.07 577.26,-442.05 603.57,-435.06"/>
<polygon fill="#63b8ff" stroke="#63b8ff" points="510.51,-453.19 501.41,-458.62 511.91,-460.05 510.51,-453.19"/>
</a>
</g>
</g>
<!-- Node7&#45;&gt;Node4 -->
<g id="edge10_Node000007_Node000004" class="edge">
<title>Node7&#45;&gt;Node4</title>
<g id="a_edge10_Node000007_Node000004"><a xlink:title=" ">
<path fill="none" stroke="#63b8ff" d="M488.84,-341.85C500.45,-345.53 512.1,-350.34 522,-357 544.13,-371.88 535.93,-390.03 558,-405 563.53,-408.75 569.63,-411.92 575.96,-414.56"/>
<polygon fill="#63b8ff" stroke="#63b8ff" points="489.71,-338.46 479.13,-339 487.74,-345.17 489.71,-338.46"/>
</a>
</g>
</g>
<!-- Node9 -->
<g id="Node000009" class="node">
<title>Node9</title>
<g id="a_Node000009"><a xlink:href="classnetspeak_1_1QueryNormalizer.html#a70187ab668d98c93cfc3a8d05ca1508e" target="_top" xlink:title=" ">
<polygon fill="white" stroke="#666666" points="301,-259 150,-259 150,-229 301,-229 301,-259"/>
<text text-anchor="start" x="158" y="-247" font-family="Helvetica,sans-Serif" font-size="10.00">netspeak::QueryNormalizer</text>
<text text-anchor="middle" x="225.5" y="-236" font-family="Helvetica,sans-Serif" font-size="10.00">::normalize</text>
</a>
</g>
</g>
<!-- Node8&#45;&gt;Node9 -->
<g id="edge12_Node000008_Node000009" class="edge">
<title>Node8&#45;&gt;Node9</title>
<g id="a_edge12_Node000008_Node000009"><a xlink:title=" ">
<path fill="none" stroke="#63b8ff" d="M348.71,-402.79C344.62,-400.77 340.68,-398.52 337,-396 284.2,-359.93 247.48,-289.99 233.16,-259.19"/>
<polygon fill="#63b8ff" stroke="#63b8ff" points="347.3,-405.99 357.86,-406.84 350.13,-399.59 347.3,-405.99"/>
</a>
</g>
</g>
<!-- Node10 -->
<g id="Node000010" class="node">
<title>Node10</title>
<g id="a_Node000010"><a xlink:href="classnetspeak_1_1Netspeak.html#aaa049275c7a0a7f6721acf7422402bff" target="_top" xlink:title=" ">
<polygon fill="white" stroke="#666666" points="114,-259 0,-259 0,-229 114,-229 114,-259"/>
<text text-anchor="start" x="8" y="-247" font-family="Helvetica,sans-Serif" font-size="10.00">netspeak::Netspeak</text>
<text text-anchor="middle" x="57" y="-236" font-family="Helvetica,sans-Serif" font-size="10.00">::search_raw_</text>
</a>
</g>
</g>
<!-- Node9&#45;&gt;Node10 -->
<g id="edge13_Node000009_Node000010" class="edge">
<title>Node9&#45;&gt;Node10</title>
<g id="a_edge13_Node000009_Node000010"><a xlink:title=" ">
<path fill="none" stroke="#63b8ff" d="M139.45,-244C130.85,-244 122.28,-244 114.1,-244"/>
<polygon fill="#63b8ff" stroke="#63b8ff" points="139.53,-247.5 149.53,-244 139.53,-240.5 139.53,-247.5"/>
</a>
</g>
</g>
<!-- Node11&#45;&gt;Node5 -->
<g id="edge16_Node000011_Node000005" class="edge">
<title>Node11&#45;&gt;Node5</title>
<g id="a_edge16_Node000011_Node000005"><a xlink:title=" ">
<path fill="none" stroke="#63b8ff" d="M565.5,-372C544.3,-372 521.62,-372 501.02,-372"/>
<polygon fill="#63b8ff" stroke="#63b8ff" points="565.77,-375.5 575.77,-372 565.77,-368.5 565.77,-375.5"/>
</a>
</g>
</g>
<!-- Node11&#45;&gt;Node7 -->
<g id="edge17_Node000011_Node000007" class="edge">
<title>Node11&#45;&gt;Node7</title>
<g id="a_edge17_Node000011_Node000007"><a xlink:title=" ">
<path fill="none" stroke="#63b8ff" d="M568.95,-354.77C545.75,-349.61 520.51,-344 498.01,-339"/>
<polygon fill="#63b8ff" stroke="#63b8ff" points="568.23,-358.19 578.75,-356.94 569.75,-351.36 568.23,-358.19"/>
</a>
</g>
</g>
<!-- Node12&#45;&gt;Node12 -->
<g id="edge19_Node000012_Node000012" class="edge">
<title>Node12&#45;&gt;Node12</title>
<g id="a_edge19_Node000012_Node000012"><a xlink:title=" ">
<path fill="none" stroke="#63b8ff" d="M1113.91,-303.6C1108.93,-307.97 1096.8,-311 1077.5,-311 1045,-311 1032.81,-302.41 1040.94,-293.28"/>
<polygon fill="#63b8ff" stroke="#63b8ff" points="1117.41,-303.33 1114.06,-293.28 1110.41,-303.22 1117.41,-303.33"/>
</a>
</g>
</g>
<!-- Node12&#45;&gt;Node13 -->
<g id="edge20_Node000012_Node000013" class="edge">
<title>Node12&#45;&gt;Node13</title>
<g id="a_edge20_Node000012_Node000013"><a xlink:title=" ">
<path fill="none" stroke="#63b8ff" d="M985.45,-287.56C961.29,-291.67 936.05,-296.44 914.83,-300.97"/>
<polygon fill="#63b8ff" stroke="#63b8ff" points="986.08,-291 995.37,-285.9 984.93,-284.1 986.08,-291"/>
</a>
</g>
</g>
<!-- Node14 -->
<g id="Node000014" class="node">
<title>Node14</title>
<g id="a_Node000014"><a xlink:href="classnetspeak_1_1StarQueryConverter.html#a72012a4108886c30c45ec19164f42dfd" target="_top" xlink:title=" ">
<polygon fill="white" stroke="#666666" points="944.5,-283 780.5,-283 780.5,-253 944.5,-253 944.5,-283"/>
<text text-anchor="start" x="788.5" y="-271" font-family="Helvetica,sans-Serif" font-size="10.00">netspeak::StarQueryConverter</text>
<text text-anchor="middle" x="862.5" y="-260" font-family="Helvetica,sans-Serif" font-size="10.00">::to_star_queries</text>
</a>
</g>
</g>
<!-- Node12&#45;&gt;Node14 -->
<g id="edge23_Node000012_Node000014" class="edge">
<title>Node12&#45;&gt;Node14</title>
<g id="a_edge23_Node000012_Node000014"><a xlink:title=" ">
<path fill="none" stroke="#63b8ff" d="M985.17,-273.71C971.74,-273.08 957.97,-272.44 944.76,-271.82"/>
<polygon fill="#63b8ff" stroke="#63b8ff" points="985.21,-277.22 995.37,-274.19 985.54,-270.23 985.21,-277.22"/>
</a>
</g>
</g>
<!-- Node13&#45;&gt;Node12 -->
<g id="edge21_Node000013_Node000012" class="edge">
<title>Node13&#45;&gt;Node12</title>
<g id="a_edge21_Node000013_Node000012"><a xlink:title=" ">
<path fill="none" stroke="#63b8ff" d="M954.6,-306.43C978.76,-302.32 1004,-297.55 1025.21,-293.02"/>
<polygon fill="#63b8ff" stroke="#63b8ff" points="953.97,-302.99 944.69,-308.09 955.13,-309.89 953.97,-302.99"/>
</a>
</g>
</g>
<!-- Node13&#45;&gt;Node13 -->
<g id="edge22_Node000013_Node000013" class="edge">
<title>Node13&#45;&gt;Node13</title>
<g id="a_edge22_Node000013_Node000013"><a xlink:title=" ">
<path fill="none" stroke="#63b8ff" d="M899.96,-341.6C894.84,-345.97 882.35,-349 862.5,-349 829.06,-349 816.52,-340.41 824.88,-331.28"/>
<polygon fill="#63b8ff" stroke="#63b8ff" points="903.46,-341.33 900.12,-331.28 896.46,-341.22 903.46,-341.33"/>
</a>
</g>
</g>
<!-- Node15 -->
<g id="Node000015" class="node">
<title>Node15</title>
<g id="a_Node000015"><a xlink:href="classnetspeak_1_1SimpleQueryNormalizer.html#a64fc82bf1d46c167bbb645835120b233" target="_top" xlink:title="Converts the given simple query into norm queries and adds them to the given list of norm queries.">
<polygon fill="white" stroke="#666666" points="522,-280 337,-280 337,-250 522,-250 522,-280"/>
<text text-anchor="start" x="345" y="-268" font-family="Helvetica,sans-Serif" font-size="10.00">netspeak::SimpleQueryNormalizer</text>
<text text-anchor="middle" x="429.5" y="-257" font-family="Helvetica,sans-Serif" font-size="10.00">::to_norm_queries</text>
</a>
</g>
</g>
<!-- Node14&#45;&gt;Node15 -->
<g id="edge24_Node000014_Node000015" class="edge">
<title>Node14&#45;&gt;Node15</title>
<g id="a_edge24_Node000014_Node000015"><a xlink:title=" ">
<path fill="none" stroke="#63b8ff" d="M770.32,-267.37C697.25,-266.86 595.19,-266.15 522.03,-265.64"/>
<polygon fill="#63b8ff" stroke="#63b8ff" points="770.41,-270.87 780.43,-267.44 770.46,-263.87 770.41,-270.87"/>
</a>
</g>
</g>
<!-- Node15&#45;&gt;Node9 -->
<g id="edge25_Node000015_Node000009" class="edge">
<title>Node15&#45;&gt;Node9</title>
<g id="a_edge25_Node000015_Node000009"><a xlink:title=" ">
<path fill="none" stroke="#63b8ff" d="M326.8,-254.43C318.14,-253.53 309.48,-252.63 301.09,-251.75"/>
<polygon fill="#63b8ff" stroke="#63b8ff" points="326.65,-257.93 336.96,-255.48 327.37,-250.97 326.65,-257.93"/>
</a>
</g>
</g>
<!-- Node16&#45;&gt;Node16 -->
<g id="edge31_Node000016_Node000016" class="edge">
<title>Node16&#45;&gt;Node16</title>
<g id="a_edge31_Node000016_Node000016"><a xlink:title=" ">
<path fill="none" stroke="#63b8ff" d="M1113.91,-237.6C1108.93,-241.97 1096.8,-245 1077.5,-245 1045,-245 1032.81,-236.41 1040.94,-227.28"/>
<polygon fill="#63b8ff" stroke="#63b8ff" points="1117.41,-237.33 1114.06,-227.28 1110.41,-237.22 1117.41,-237.33"/>
</a>
</g>
</g>
<!-- Node17 -->
<g id="Node000017" class="node">
<title>Node17</title>
<g id="a_Node000017"><a xlink:href="structnetspeak_1_1NormQueryCounter.html#a853463fd07c510eeef9767164fbfd5bd" target="_top" xlink:title="Returns a function that, given the number of words each regex will be replaced with,...">
<polygon fill="white" stroke="#666666" points="943.5,-235 781.5,-235 781.5,-205 943.5,-205 943.5,-235"/>
<text text-anchor="start" x="789.5" y="-223" font-family="Helvetica,sans-Serif" font-size="10.00">netspeak::NormQueryCounter</text>
<text text-anchor="middle" x="862.5" y="-212" font-family="Helvetica,sans-Serif" font-size="10.00">::estimate</text>
</a>
</g>
</g>
<!-- Node16&#45;&gt;Node17 -->
<g id="edge28_Node000016_Node000017" class="edge">
<title>Node16&#45;&gt;Node17</title>
<g id="a_edge28_Node000016_Node000017"><a xlink:title=" ">
<path fill="none" stroke="#63b8ff" d="M986.09,-215.4C971.99,-215.93 957.5,-216.47 943.65,-216.99"/>
<polygon fill="#63b8ff" stroke="#63b8ff" points="986.42,-218.89 996.28,-215.01 986.15,-211.89 986.42,-218.89"/>
</a>
</g>
</g>
<!-- Node18 -->
<g id="Node000018" class="node">
<title>Node18</title>
<g id="a_Node000018"><a xlink:href="namespacenetspeak.html#abad07282259830ea1d26af81f1755844" target="_top" xlink:title=" ">
<polygon fill="white" stroke="#666666" points="705.5,-235 589.5,-235 589.5,-205 705.5,-205 705.5,-235"/>
<text text-anchor="start" x="597.5" y="-223" font-family="Helvetica,sans-Serif" font-size="10.00">netspeak::normalize</text>
<text text-anchor="middle" x="647.5" y="-212" font-family="Helvetica,sans-Serif" font-size="10.00">_regexes</text>
</a>
</g>
</g>
<!-- Node17&#45;&gt;Node18 -->
<g id="edge29_Node000017_Node000018" class="edge">
<title>Node17&#45;&gt;Node18</title>
<g id="a_edge29_Node000017_Node000018"><a xlink:title=" ">
<path fill="none" stroke="#63b8ff" d="M771.17,-220C749,-220 725.88,-220 705.76,-220"/>
<polygon fill="#63b8ff" stroke="#63b8ff" points="771.28,-223.5 781.28,-220 771.28,-216.5 771.28,-223.5"/>
</a>
</g>
</g>
<!-- Node18&#45;&gt;Node9 -->
<g id="edge30_Node000018_Node000009" class="edge">
<title>Node18&#45;&gt;Node9</title>
<g id="a_edge30_Node000018_Node000009"><a xlink:title=" ">
<path fill="none" stroke="#63b8ff" d="M579.02,-223.86C503.06,-228.2 379.97,-235.23 301.17,-239.73"/>
<polygon fill="#63b8ff" stroke="#63b8ff" points="579.64,-227.33 589.42,-223.26 579.24,-220.34 579.64,-227.33"/>
</a>
</g>
</g>
<!-- Node19&#45;&gt;Node18 -->
<g id="edge35_Node000019_Node000018" class="edge">
<title>Node19&#45;&gt;Node18</title>
<g id="a_edge35_Node000019_Node000018"><a xlink:title=" ">
<path fill="none" stroke="#63b8ff" d="M1002.86,-144.27C940.67,-140.63 849.73,-140.14 773,-159 735.37,-168.25 695.83,-189.99 671.66,-204.85"/>
<polygon fill="#63b8ff" stroke="#63b8ff" points="1002.77,-147.77 1012.97,-144.9 1003.21,-140.78 1002.77,-147.77"/>
</a>
</g>
</g>
<!-- Node19&#45;&gt;Node19 -->
<g id="edge34_Node000019_Node000019" class="edge">
<title>Node19&#45;&gt;Node19</title>
<g id="a_edge34_Node000019_Node000019"><a xlink:title=" ">
<path fill="none" stroke="#63b8ff" d="M1116.48,-167.81C1117.07,-173.71 1104.07,-178.5 1077.5,-178.5 1040.53,-178.5 1029.84,-169.23 1045.44,-160.58"/>
<polygon fill="#63b8ff" stroke="#63b8ff" points="1119,-165.38 1109.56,-160.58 1113.95,-170.23 1119,-165.38"/>
</a>
</g>
</g>
<!-- Node20 -->
<g id="Node000020" class="node">
<title>Node20</title>
<g id="a_Node000020"><a xlink:href="namespacenetspeak.html#a1483e29fb72fc8f5c98544b32add8c6b" target="_top" xlink:title=" ">
<polygon fill="white" stroke="#666666" points="927,-186.5 798,-186.5 798,-167.5 927,-167.5 927,-186.5"/>
<text text-anchor="middle" x="862.5" y="-174.5" font-family="Helvetica,sans-Serif" font-size="10.00">netspeak::find_regexes</text>
</a>
</g>
</g>
<!-- Node19&#45;&gt;Node20 -->
<g id="edge33_Node000019_Node000020" class="edge">
<title>Node19&#45;&gt;Node20</title>
<g id="a_edge33_Node000019_Node000020"><a xlink:title=" ">
<path fill="none" stroke="#63b8ff" d="M1002.86,-159.99C978.22,-163 950.97,-166.32 927.16,-169.23"/>
<polygon fill="#63b8ff" stroke="#63b8ff" points="1003.38,-163.45 1012.88,-158.77 1002.53,-156.5 1003.38,-163.45"/>
</a>
</g>
</g>
<!-- Node23 -->
<g id="Node000023" class="node">
<title>Node23</title>
<g id="a_Node000023"><a xlink:href="classnetspeak_1_1SimpleQueryOptimizer.html#a0a56e07cb81afd1e5893bc469342b0b2" target="_top" xlink:title=" ">
<polygon fill="white" stroke="#666666" points="952,-73 773,-73 773,-43 952,-43 952,-73"/>
<text text-anchor="start" x="781" y="-61" font-family="Helvetica,sans-Serif" font-size="10.00">netspeak::SimpleQueryOptimizer</text>
<text text-anchor="middle" x="862.5" y="-50" font-family="Helvetica,sans-Serif" font-size="10.00">::optimize_simple_children</text>
</a>
</g>
</g>
<!-- Node22&#45;&gt;Node23 -->
<g id="edge38_Node000022_Node000023" class="edge">
<title>Node22&#45;&gt;Node23</title>
<g id="a_edge38_Node000022_Node000023"><a xlink:title=" ">
<path fill="none" stroke="#63b8ff" d="M977.46,-61.75C969.01,-61.47 960.5,-61.19 952.14,-60.91"/>
<polygon fill="#63b8ff" stroke="#63b8ff" points="977.6,-65.25 987.71,-62.08 977.83,-58.26 977.6,-65.25"/>
</a>
</g>
</g>
<!-- Node24 -->
<g id="Node000024" class="node">
<title>Node24</title>
<g id="a_Node000024"><a xlink:href="classnetspeak_1_1SimpleQueryOptimizer.html#a605b78bfa6d1898f7b5b5ca66fd95c31" target="_top" xlink:title=" ">
<polygon fill="white" stroke="#666666" points="519,-134 340,-134 340,-104 519,-104 519,-134"/>
<text text-anchor="start" x="348" y="-122" font-family="Helvetica,sans-Serif" font-size="10.00">netspeak::SimpleQueryOptimizer</text>
<text text-anchor="middle" x="429.5" y="-111" font-family="Helvetica,sans-Serif" font-size="10.00">::optimize</text>
</a>
</g>
</g>
<!-- Node23&#45;&gt;Node24 -->
<g id="edge39_Node000023_Node000024" class="edge">
<title>Node23&#45;&gt;Node24</title>
<g id="a_edge39_Node000023_Node000024"><a xlink:title=" ">
<path fill="none" stroke="#63b8ff" d="M762.58,-57.83C702.86,-59.3 625.5,-63.99 558,-77 526.88,-83 492.84,-94.48 467.77,-103.92"/>
<polygon fill="#63b8ff" stroke="#63b8ff" points="762.84,-61.33 772.76,-57.61 762.69,-54.33 762.84,-61.33"/>
</a>
</g>
</g>
<!-- Node25 -->
<g id="Node000025" class="node">
<title>Node25</title>
<g id="a_Node000025"><a xlink:href="classnetspeak_1_1SimpleQueryOptimizer.html#a55c4015de0d1fa34754beb52f95119f6" target="_top" xlink:title=" ">
<polygon fill="white" stroke="#666666" points="737,-116 558,-116 558,-86 737,-86 737,-116"/>
<text text-anchor="start" x="566" y="-104" font-family="Helvetica,sans-Serif" font-size="10.00">netspeak::SimpleQueryOptimizer</text>
<text text-anchor="middle" x="647.5" y="-93" font-family="Helvetica,sans-Serif" font-size="10.00">::optimize_simple_alt</text>
</a>
</g>
</g>
<!-- Node23&#45;&gt;Node25 -->
<g id="edge41_Node000023_Node000025" class="edge">
<title>Node23&#45;&gt;Node25</title>
<g id="a_edge41_Node000023_Node000025"><a xlink:title=" ">
<path fill="none" stroke="#63b8ff" d="M777.16,-75.03C759.25,-78.64 740.46,-82.43 722.95,-85.97"/>
<polygon fill="#63b8ff" stroke="#63b8ff" points="777.89,-78.45 787,-73.04 776.51,-71.59 777.89,-78.45"/>
</a>
</g>
</g>
<!-- Node26 -->
<g id="Node000026" class="node">
<title>Node26</title>
<g id="a_Node000026"><a xlink:href="classnetspeak_1_1SimpleQueryOptimizer.html#a1ef947a07a36069a5be13d260b518350" target="_top" xlink:title=" ">
<polygon fill="white" stroke="#666666" points="737,-30 558,-30 558,0 737,0 737,-30"/>
<text text-anchor="start" x="566" y="-18" font-family="Helvetica,sans-Serif" font-size="10.00">netspeak::SimpleQueryOptimizer</text>
<text text-anchor="middle" x="647.5" y="-7" font-family="Helvetica,sans-Serif" font-size="10.00">::optimize_simple_concat</text>
</a>
</g>
</g>
<!-- Node23&#45;&gt;Node26 -->
<g id="edge43_Node000023_Node000026" class="edge">
<title>Node23&#45;&gt;Node26</title>
<g id="a_edge43_Node000023_Node000026"><a xlink:title=" ">
<path fill="none" stroke="#63b8ff" d="M777.16,-40.97C759.25,-37.36 740.46,-33.57 722.95,-30.03"/>
<polygon fill="#63b8ff" stroke="#63b8ff" points="776.51,-44.41 787,-42.96 777.89,-37.55 776.51,-44.41"/>
</a>
</g>
</g>
<!-- Node24&#45;&gt;Node9 -->
<g id="edge40_Node000024_Node000009" class="edge">
<title>Node24&#45;&gt;Node9</title>
<g id="a_edge40_Node000024_Node000009"><a xlink:title=" ">
<path fill="none" stroke="#63b8ff" d="M395.43,-139.47C354.88,-164.56 287.1,-206.5 250.95,-228.87"/>
<polygon fill="#63b8ff" stroke="#63b8ff" points="397.47,-142.32 404.13,-134.08 393.79,-136.36 397.47,-142.32"/>
</a>
</g>
</g>
<!-- Node25&#45;&gt;Node22 -->
<g id="edge42_Node000025_Node000022" class="edge">
<title>Node25&#45;&gt;Node22</title>
<g id="a_edge42_Node000025_Node000022"><a xlink:title=" ">
<path fill="none" stroke="#63b8ff" d="M747.41,-96.64C806.81,-93.57 883.84,-88.78 952,-82 963.61,-80.85 975.81,-79.43 987.84,-77.92"/>
<polygon fill="#63b8ff" stroke="#63b8ff" points="747.09,-93.15 737.28,-97.16 747.45,-100.14 747.09,-93.15"/>
</a>
</g>
</g>
<!-- Node26&#45;&gt;Node22 -->
<g id="edge44_Node000026_Node000022" class="edge">
<title>Node26&#45;&gt;Node22</title>
<g id="a_edge44_Node000026_Node000022"><a xlink:title=" ">
<path fill="none" stroke="#63b8ff" d="M747.43,-16.66C806.99,-18.79 884.18,-23.52 952,-34 976.32,-37.76 1002.85,-44.05 1025.14,-49.98"/>
<polygon fill="#63b8ff" stroke="#63b8ff" points="747.38,-13.16 737.27,-16.32 747.15,-20.16 747.38,-13.16"/>
</a>
</g>
</g>
</g>
</svg>
