<?xml version="1.0" encoding="UTF-8" standalone="no"?>
<!DOCTYPE svg PUBLIC "-//W3C//DTD SVG 1.1//EN"
 "http://www.w3.org/Graphics/SVG/1.1/DTD/svg11.dtd">
<!-- Generated by graphviz version 2.43.0 (0)
 -->
<!-- Title: netspeak::invertedindex::ByteBuffer::write Pages: 1 -->
<svg width="618pt" height="124pt"
 viewBox="0.00 0.00 618.00 124.00" xmlns="http://www.w3.org/2000/svg" xmlns:xlink="http://www.w3.org/1999/xlink">
<g id="graph0" class="graph" transform="scale(1 1) rotate(0) translate(4 120)">
<title>netspeak::invertedindex::ByteBuffer::write</title>
<!-- Node1 -->
<g id="Node000001" class="node">
<title>Node1</title>
<g id="a_Node000001"><a xlink:title=" ">
<polygon fill="#999999" stroke="#666666" points="135,-73 0,-73 0,-43 135,-43 135,-73"/>
<text text-anchor="start" x="8" y="-61" font-family="Helvetica,sans-Serif" font-size="10.00">netspeak::invertedindex</text>
<text text-anchor="middle" x="67.5" y="-50" font-family="Helvetica,sans-Serif" font-size="10.00">::ByteBuffer::write</text>
</a>
</g>
</g>
<!-- Node2 -->
<g id="Node000002" class="node">
<title>Node2</title>
<g id="a_Node000002"><a xlink:href="classnetspeak_1_1invertedindex_1_1ByteBuffer.html#ad475d7f84f0c84151455988a2c08e486" target="_top" xlink:title=" ">
<polygon fill="white" stroke="#666666" points="306,-116 171,-116 171,-86 306,-86 306,-116"/>
<text text-anchor="start" x="179" y="-104" font-family="Helvetica,sans-Serif" font-size="10.00">netspeak::invertedindex</text>
<text text-anchor="middle" x="238.5" y="-93" font-family="Helvetica,sans-Serif" font-size="10.00">::ByteBuffer::begin</text>
</a>
</g>
</g>
<!-- Node1&#45;&gt;Node2 -->
<g id="edge1_Node000001_Node000002" class="edge">
<title>Node1&#45;&gt;Node2</title>
<g id="a_edge1_Node000001_Node000002"><a xlink:title=" ">
<path fill="none" stroke="#63b8ff" d="M127.61,-73.04C140.86,-76.41 155.03,-80.02 168.64,-83.48"/>
<polygon fill="#63b8ff" stroke="#63b8ff" points="167.87,-86.9 178.43,-85.97 169.6,-80.11 167.87,-86.9"/>
</a>
</g>
</g>
<!-- Node3 -->
<g id="Node000003" class="node">
<title>Node3</title>
<g id="a_Node000003"><a xlink:href="namespacenetspeak_1_1util.html#a33fbb28caf0f5be34cbce2f84faecb87" target="_top" xlink:title=" ">
<polygon fill="white" stroke="#666666" points="297,-67.5 180,-67.5 180,-48.5 297,-48.5 297,-67.5"/>
<text text-anchor="middle" x="238.5" y="-55.5" font-family="Helvetica,sans-Serif" font-size="10.00">netspeak::util::fwrite</text>
</a>
</g>
</g>
<!-- Node1&#45;&gt;Node3 -->
<g id="edge2_Node000001_Node000003" class="edge">
<title>Node1&#45;&gt;Node3</title>
<g id="a_edge2_Node000001_Node000003"><a xlink:title=" ">
<path fill="none" stroke="#63b8ff" d="M135.29,-58C146.6,-58 158.34,-58 169.67,-58"/>
<polygon fill="#63b8ff" stroke="#63b8ff" points="169.93,-61.5 179.93,-58 169.93,-54.5 169.93,-61.5"/>
</a>
</g>
</g>
<!-- Node6 -->
<g id="Node000006" class="node">
<title>Node6</title>
<g id="a_Node000006"><a xlink:href="classnetspeak_1_1invertedindex_1_1ByteBuffer.html#ac7160f8bd36f86815662909c0722556f" target="_top" xlink:title=" ">
<polygon fill="white" stroke="#666666" points="306,-30 171,-30 171,0 306,0 306,-30"/>
<text text-anchor="start" x="179" y="-18" font-family="Helvetica,sans-Serif" font-size="10.00">netspeak::invertedindex</text>
<text text-anchor="middle" x="238.5" y="-7" font-family="Helvetica,sans-Serif" font-size="10.00">::ByteBuffer::size</text>
</a>
</g>
</g>
<!-- Node1&#45;&gt;Node6 -->
<g id="edge6_Node000001_Node000006" class="edge">
<title>Node1&#45;&gt;Node6</title>
<g id="a_edge6_Node000001_Node000006"><a xlink:title=" ">
<path fill="none" stroke="#63b8ff" d="M127.61,-42.96C140.86,-39.59 155.03,-35.98 168.64,-32.52"/>
<polygon fill="#63b8ff" stroke="#63b8ff" points="169.6,-35.89 178.43,-30.03 167.87,-29.1 169.6,-35.89"/>
</a>
</g>
</g>
<!-- Node4 -->
<g id="Node000004" class="node">
<title>Node4</title>
<g id="a_Node000004"><a xlink:href="namespacenetspeak_1_1util.html#a4c91ad572508b4021399ac7dddff574d" target="_top" xlink:title=" ">
<polygon fill="white" stroke="#666666" points="610,-66.5 497,-66.5 497,-47.5 610,-47.5 610,-66.5"/>
<text text-anchor="middle" x="553.5" y="-54.5" font-family="Helvetica,sans-Serif" font-size="10.00">netspeak::util::hash</text>
</a>
</g>
</g>
<!-- Node3&#45;&gt;Node4 -->
<g id="edge3_Node000003_Node000004" class="edge">
<title>Node3&#45;&gt;Node4</title>
<g id="a_edge3_Node000003_Node000004"><a xlink:title=" ">
<path fill="none" stroke="#63b8ff" d="M297.33,-59.33C342.03,-60.16 405.44,-60.91 461,-60 469.34,-59.86 478.1,-59.66 486.77,-59.41"/>
<polygon fill="#63b8ff" stroke="#63b8ff" points="486.97,-62.91 496.86,-59.12 486.76,-55.91 486.97,-62.91"/>
</a>
</g>
</g>
<!-- Node5 -->
<g id="Node000005" class="node">
<title>Node5</title>
<g id="a_Node000005"><a xlink:href="namespacenetspeak_1_1util.html#af94d48fda5f335ddcb461a8237079866" target="_top" xlink:title=" ">
<polygon fill="white" stroke="#666666" points="461,-51 342,-51 342,-21 461,-21 461,-51"/>
<text text-anchor="start" x="350" y="-39" font-family="Helvetica,sans-Serif" font-size="10.00">netspeak::util::signal</text>
<text text-anchor="middle" x="401.5" y="-28" font-family="Helvetica,sans-Serif" font-size="10.00">_error</text>
</a>
</g>
</g>
<!-- Node3&#45;&gt;Node5 -->
<g id="edge4_Node000003_Node000005" class="edge">
<title>Node3&#45;&gt;Node5</title>
<g id="a_edge4_Node000003_Node000005"><a xlink:title=" ">
<path fill="none" stroke="#63b8ff" d="M297.17,-50.12C308.41,-48.58 320.29,-46.96 331.84,-45.38"/>
<polygon fill="#63b8ff" stroke="#63b8ff" points="332.44,-48.83 341.88,-44.01 331.5,-41.9 332.44,-48.83"/>
</a>
</g>
</g>
<!-- Node5&#45;&gt;Node4 -->
<g id="edge5_Node000005_Node000004" class="edge">
<title>Node5&#45;&gt;Node4</title>
<g id="a_edge5_Node000005_Node000004"><a xlink:title=" ">
<path fill="none" stroke="#63b8ff" d="M461.35,-44.24C469.64,-45.4 478.2,-46.6 486.61,-47.78"/>
<polygon fill="#63b8ff" stroke="#63b8ff" points="486.37,-51.28 496.76,-49.2 487.34,-44.34 486.37,-51.28"/>
</a>
</g>
</g>
</g>
</svg>
