<?xml version="1.0" encoding="UTF-8" standalone="no"?>
<!DOCTYPE svg PUBLIC "-//W3C//DTD SVG 1.1//EN"
 "http://www.w3.org/Graphics/SVG/1.1/DTD/svg11.dtd">
<!-- Generated by graphviz version 2.43.0 (0)
 -->
<!-- Title: netspeak::value::quadruple::e4 Pages: 1 -->
<svg width="381pt" height="644pt"
 viewBox="0.00 0.00 381.00 644.00" xmlns="http://www.w3.org/2000/svg" xmlns:xlink="http://www.w3.org/1999/xlink">
<g id="graph0" class="graph" transform="scale(1 1) rotate(0) translate(4 640)">
<title>netspeak::value::quadruple::e4</title>
<!-- Node1 -->
<g id="Node000001" class="node">
<title>Node1</title>
<g id="a_Node000001"><a xlink:title=" ">
<polygon fill="#999999" stroke="#666666" points="373,-322 206,-322 206,-303 373,-303 373,-322"/>
<text text-anchor="middle" x="289.5" y="-310" font-family="Helvetica,sans-Serif" font-size="10.00">netspeak::value::quadruple::e4</text>
</a>
</g>
</g>
<!-- Node2 -->
<g id="Node000002" class="node">
<title>Node2</title>
<g id="a_Node000002"><a xlink:href="structnetspeak_1_1value_1_1value__traits_3_01quadruple_3_01T1_00_01T2_00_01T3_00_01T4_01_4_01_4.html#aa55a2465bacdb56b8755e56ec00c7cbb" target="_top" xlink:title=" ">
<polygon fill="white" stroke="#666666" points="159,-636 11,-636 11,-595 159,-595 159,-636"/>
<text text-anchor="start" x="19" y="-624" font-family="Helvetica,sans-Serif" font-size="10.00">netspeak::value::value</text>
<text text-anchor="start" x="19" y="-613" font-family="Helvetica,sans-Serif" font-size="10.00">_traits&lt; quadruple&lt; T1,</text>
<text text-anchor="middle" x="85" y="-602" font-family="Helvetica,sans-Serif" font-size="10.00"> T2, T3, T4 &gt; &gt;::copy_from</text>
</a>
</g>
</g>
<!-- Node1&#45;&gt;Node2 -->
<g id="edge1_Node000001_Node000002" class="edge">
<title>Node1&#45;&gt;Node2</title>
<g id="a_edge1_Node000001_Node000002"><a xlink:title=" ">
<path fill="none" stroke="#63b8ff" d="M285.55,-332.17C277.04,-381.98 247.93,-514.26 170,-586.5 166.61,-589.65 162.85,-592.45 158.87,-594.96"/>
<polygon fill="#63b8ff" stroke="#63b8ff" points="289.03,-332.53 287.17,-322.1 282.12,-331.41 289.03,-332.53"/>
</a>
</g>
</g>
<!-- Node3 -->
<g id="Node000003" class="node">
<title>Node3</title>
<g id="a_Node000003"><a xlink:href="structnetspeak_1_1value_1_1value__traits_3_01quadruple_3_01T1_00_01T2_00_01T3_00_01T4_01_4_01_4.html#af5d1037adb7b9dfba8e469197fe5ad43" target="_top" xlink:title=" ">
<polygon fill="white" stroke="#666666" points="152,-577 18,-577 18,-536 152,-536 152,-577"/>
<text text-anchor="start" x="26" y="-565" font-family="Helvetica,sans-Serif" font-size="10.00">netspeak::value::value</text>
<text text-anchor="start" x="26" y="-554" font-family="Helvetica,sans-Serif" font-size="10.00">_traits&lt; quadruple&lt; T1,</text>
<text text-anchor="middle" x="85" y="-543" font-family="Helvetica,sans-Serif" font-size="10.00"> T2, T3, T4 &gt; &gt;::copy_to</text>
</a>
</g>
</g>
<!-- Node1&#45;&gt;Node3 -->
<g id="edge2_Node000001_Node000003" class="edge">
<title>Node1&#45;&gt;Node3</title>
<g id="a_edge2_Node000001_Node000003"><a xlink:title=" ">
<path fill="none" stroke="#63b8ff" d="M283,-332.06C270.24,-373.98 234.65,-473.07 170,-527.5 164.69,-531.97 158.65,-535.77 152.3,-538.99"/>
<polygon fill="#63b8ff" stroke="#63b8ff" points="286.42,-332.85 285.88,-322.26 279.71,-330.87 286.42,-332.85"/>
</a>
</g>
</g>
<!-- Node4 -->
<g id="Node000004" class="node">
<title>Node4</title>
<g id="a_Node000004"><a xlink:href="structnetspeak_1_1value_1_1generator_3_01quadruple_3_01T1_00_01T2_00_01T3_00_01T4_01_4_01_4.html#a81923d2c555375c68a16ea8b1875b83a" target="_top" xlink:title=" ">
<polygon fill="white" stroke="#666666" points="159,-518 11,-518 11,-477 159,-477 159,-518"/>
<text text-anchor="start" x="19" y="-506" font-family="Helvetica,sans-Serif" font-size="10.00">netspeak::value::generator</text>
<text text-anchor="start" x="19" y="-495" font-family="Helvetica,sans-Serif" font-size="10.00">&lt; quadruple&lt; T1, T2, T3,</text>
<text text-anchor="middle" x="85" y="-484" font-family="Helvetica,sans-Serif" font-size="10.00"> T4 &gt; &gt;::numbered</text>
</a>
</g>
</g>
<!-- Node1&#45;&gt;Node4 -->
<g id="edge3_Node000001_Node000004" class="edge">
<title>Node1&#45;&gt;Node4</title>
<g id="a_edge3_Node000001_Node000004"><a xlink:title=" ">
<path fill="none" stroke="#63b8ff" d="M278.98,-331.43C261.67,-364.03 221.95,-430.88 170,-468.5 165.75,-471.58 161.15,-474.35 156.36,-476.84"/>
<polygon fill="#63b8ff" stroke="#63b8ff" points="282.31,-332.62 283.81,-322.13 276.1,-329.39 282.31,-332.62"/>
</a>
</g>
</g>
<!-- Node5 -->
<g id="Node000005" class="node">
<title>Node5</title>
<g id="a_Node000005"><a xlink:href="namespacenetspeak_1_1value.html#a79e1b381850e616a27afd515d94c46ef" target="_top" xlink:title=" ">
<polygon fill="white" stroke="#666666" points="164,-459 6,-459 6,-440 164,-440 164,-459"/>
<text text-anchor="middle" x="85" y="-447" font-family="Helvetica,sans-Serif" font-size="10.00">netspeak::value::operator==</text>
</a>
</g>
</g>
<!-- Node1&#45;&gt;Node5 -->
<g id="edge4_Node000001_Node000005" class="edge">
<title>Node1&#45;&gt;Node5</title>
<g id="a_edge4_Node000001_Node000005"><a xlink:title=" ">
<path fill="none" stroke="#63b8ff" d="M276.07,-330.39C256.64,-356.89 216.48,-406.15 170,-431.5 163.72,-434.93 156.83,-437.7 149.8,-439.95"/>
<polygon fill="#63b8ff" stroke="#63b8ff" points="279.07,-332.21 282.05,-322.05 273.38,-328.14 279.07,-332.21"/>
</a>
</g>
</g>
<!-- Node6 -->
<g id="Node000006" class="node">
<title>Node6</title>
<g id="a_Node000006"><a xlink:href="structnetspeak_1_1value_1_1value__traits_3_01quadruple_3_01T1_00_01T2_00_01T3_00_01T4_01_4_01_4.html#a1583350b38f323f44ad04e2f27892f1c" target="_top" xlink:title=" ">
<polygon fill="white" stroke="#666666" points="161,-422 9,-422 9,-381 161,-381 161,-422"/>
<text text-anchor="start" x="17" y="-410" font-family="Helvetica,sans-Serif" font-size="10.00">netspeak::value::value</text>
<text text-anchor="start" x="17" y="-399" font-family="Helvetica,sans-Serif" font-size="10.00">_traits&lt; quadruple&lt; T1,</text>
<text text-anchor="middle" x="85" y="-388" font-family="Helvetica,sans-Serif" font-size="10.00"> T2, T3, T4 &gt; &gt;::parse_from</text>
</a>
</g>
</g>
<!-- Node1&#45;&gt;Node6 -->
<g id="edge5_Node000001_Node000006" class="edge">
<title>Node1&#45;&gt;Node6</title>
<g id="a_edge5_Node000001_Node000006"><a xlink:title=" ">
<path fill="none" stroke="#63b8ff" d="M262.13,-327.16C238.44,-340.02 202.47,-358.75 170,-372.5 163.18,-375.39 155.97,-378.21 148.74,-380.9"/>
<polygon fill="#63b8ff" stroke="#63b8ff" points="264.09,-330.08 271.19,-322.21 260.73,-323.94 264.09,-330.08"/>
</a>
</g>
</g>
<!-- Node7 -->
<g id="Node000007" class="node">
<title>Node7</title>
<g id="a_Node000007"><a xlink:href="structnetspeak_1_1value_1_1value__traits_3_01quadruple_3_01T1_00_01T2_00_01T3_00_01T4_01_4_01_4.html#a1287234dbf829f7e1110ef217318613c" target="_top" xlink:title=" ">
<polygon fill="white" stroke="#666666" points="152,-363 18,-363 18,-322 152,-322 152,-363"/>
<text text-anchor="start" x="26" y="-351" font-family="Helvetica,sans-Serif" font-size="10.00">netspeak::value::value</text>
<text text-anchor="start" x="26" y="-340" font-family="Helvetica,sans-Serif" font-size="10.00">_traits&lt; quadruple&lt; T1,</text>
<text text-anchor="middle" x="85" y="-329" font-family="Helvetica,sans-Serif" font-size="10.00"> T2, T3, T4 &gt; &gt;::print_to</text>
</a>
</g>
</g>
<!-- Node1&#45;&gt;Node7 -->
<g id="edge6_Node000001_Node000007" class="edge">
<title>Node1&#45;&gt;Node7</title>
<g id="a_edge6_Node000001_Node000007"><a xlink:title=" ">
<path fill="none" stroke="#63b8ff" d="M214.04,-323.53C193.8,-326.53 172.03,-329.76 152.27,-332.68"/>
<polygon fill="#63b8ff" stroke="#63b8ff" points="214.77,-326.96 224.15,-322.03 213.74,-320.04 214.77,-326.96"/>
</a>
</g>
</g>
<!-- Node8 -->
<g id="Node000008" class="node">
<title>Node8</title>
<g id="a_Node000008"><a xlink:href="structnetspeak_1_1value_1_1generator_3_01quadruple_3_01T1_00_01T2_00_01T3_00_01T4_01_4_01_4.html#a07ccc9b67c160bd837d93318d07bb389" target="_top" xlink:title=" ">
<polygon fill="white" stroke="#666666" points="159,-304 11,-304 11,-263 159,-263 159,-304"/>
<text text-anchor="start" x="19" y="-292" font-family="Helvetica,sans-Serif" font-size="10.00">netspeak::value::generator</text>
<text text-anchor="start" x="19" y="-281" font-family="Helvetica,sans-Serif" font-size="10.00">&lt; quadruple&lt; T1, T2, T3,</text>
<text text-anchor="middle" x="85" y="-270" font-family="Helvetica,sans-Serif" font-size="10.00"> T4 &gt; &gt;::randomized</text>
</a>
</g>
</g>
<!-- Node1&#45;&gt;Node8 -->
<g id="edge7_Node000001_Node000008" class="edge">
<title>Node1&#45;&gt;Node8</title>
<g id="a_edge7_Node000001_Node000008"><a xlink:title=" ">
<path fill="none" stroke="#63b8ff" d="M211.89,-301.53C194.64,-299.06 176.38,-296.44 159.27,-293.99"/>
<polygon fill="#63b8ff" stroke="#63b8ff" points="211.52,-305.01 221.91,-302.96 212.51,-298.08 211.52,-305.01"/>
</a>
</g>
</g>
<!-- Node9 -->
<g id="Node000009" class="node">
<title>Node9</title>
<g id="a_Node000009"><a xlink:href="structnetspeak_1_1value_1_1value__traits_3_01quadruple_3_01T1_00_01T2_00_01T3_00_01T4_01_4_01_4.html#a45f581dde39f936c0a16ba65ab6b2623" target="_top" xlink:title=" ">
<polygon fill="white" stroke="#666666" points="158,-245 12,-245 12,-204 158,-204 158,-245"/>
<text text-anchor="start" x="20" y="-233" font-family="Helvetica,sans-Serif" font-size="10.00">netspeak::value::value</text>
<text text-anchor="start" x="20" y="-222" font-family="Helvetica,sans-Serif" font-size="10.00">_traits&lt; quadruple&lt; T1,</text>
<text text-anchor="middle" x="85" y="-211" font-family="Helvetica,sans-Serif" font-size="10.00"> T2, T3, T4 &gt; &gt;::read_from</text>
</a>
</g>
</g>
<!-- Node1&#45;&gt;Node9 -->
<g id="edge8_Node000001_Node000009" class="edge">
<title>Node1&#45;&gt;Node9</title>
<g id="a_edge8_Node000001_Node000009"><a xlink:title=" ">
<path fill="none" stroke="#63b8ff" d="M261.21,-298.06C237.45,-285.74 201.9,-267.96 170,-254.5 162.44,-251.31 154.41,-248.16 146.42,-245.16"/>
<polygon fill="#63b8ff" stroke="#63b8ff" points="259.84,-301.29 270.32,-302.81 263.07,-295.08 259.84,-301.29"/>
</a>
</g>
</g>
<!-- Node10 -->
<g id="Node000010" class="node">
<title>Node10</title>
<g id="a_Node000010"><a xlink:href="classnetspeak_1_1value_1_1quadruple.html#a128e532b9f2eb5cab3d6fbbb719003f0" target="_top" xlink:title=" ">
<polygon fill="white" stroke="#666666" points="170,-186 0,-186 0,-167 170,-167 170,-186"/>
<text text-anchor="middle" x="85" y="-174" font-family="Helvetica,sans-Serif" font-size="10.00">netspeak::value::quadruple::set</text>
</a>
</g>
</g>
<!-- Node1&#45;&gt;Node10 -->
<g id="edge9_Node000001_Node000010" class="edge">
<title>Node1&#45;&gt;Node10</title>
<g id="a_edge9_Node000001_Node000010"><a xlink:title=" ">
<path fill="none" stroke="#63b8ff" d="M275.67,-294.59C256,-268.55 215.83,-220.58 170,-195.5 162.92,-191.62 155.09,-188.54 147.13,-186.08"/>
<polygon fill="#63b8ff" stroke="#63b8ff" points="272.99,-296.86 281.74,-302.82 278.62,-292.7 272.99,-296.86"/>
</a>
</g>
</g>
<!-- Node11 -->
<g id="Node000011" class="node">
<title>Node11</title>
<g id="a_Node000011"><a xlink:href="classnetspeak_1_1value_1_1quadruple.html#af87c9a44c7d1c748990ffcc61beea0ee" target="_top" xlink:title=" ">
<polygon fill="white" stroke="#666666" points="159.5,-148.5 10.5,-148.5 10.5,-118.5 159.5,-118.5 159.5,-148.5"/>
<text text-anchor="start" x="18.5" y="-136.5" font-family="Helvetica,sans-Serif" font-size="10.00">netspeak::value::quadruple</text>
<text text-anchor="middle" x="85" y="-125.5" font-family="Helvetica,sans-Serif" font-size="10.00">::set_e4</text>
</a>
</g>
</g>
<!-- Node1&#45;&gt;Node11 -->
<g id="edge10_Node000001_Node000011" class="edge">
<title>Node1&#45;&gt;Node11</title>
<g id="a_edge10_Node000001_Node000011"><a xlink:title=" ">
<path fill="none" stroke="#63b8ff" d="M279.08,-293.58C261.92,-261.05 222.43,-194.53 170,-158.5 164.36,-154.62 158.1,-151.33 151.63,-148.55"/>
<polygon fill="#63b8ff" stroke="#63b8ff" points="276.17,-295.58 283.86,-302.87 282.4,-292.38 276.17,-295.58"/>
</a>
</g>
</g>
<!-- Node12 -->
<g id="Node000012" class="node">
<title>Node12</title>
<g id="a_Node000012"><a xlink:href="structnetspeak_1_1value_1_1value__traits_3_01quadruple_3_01T1_00_01T2_00_01T3_00_01T4_01_4_01_4.html#a95e49a2ca58b53e063991a654171ea79" target="_top" xlink:title=" ">
<polygon fill="white" stroke="#666666" points="152,-100 18,-100 18,-59 152,-59 152,-100"/>
<text text-anchor="start" x="26" y="-88" font-family="Helvetica,sans-Serif" font-size="10.00">netspeak::value::value</text>
<text text-anchor="start" x="26" y="-77" font-family="Helvetica,sans-Serif" font-size="10.00">_traits&lt; quadruple&lt; T1,</text>
<text text-anchor="middle" x="85" y="-66" font-family="Helvetica,sans-Serif" font-size="10.00"> T2, T3, T4 &gt; &gt;::size_of</text>
</a>
</g>
</g>
<!-- Node1&#45;&gt;Node12 -->
<g id="edge11_Node000001_Node000012" class="edge">
<title>Node1&#45;&gt;Node12</title>
<g id="a_edge11_Node000001_Node000012"><a xlink:title=" ">
<path fill="none" stroke="#63b8ff" d="M282.36,-293.27C268.67,-253.32 231.85,-160.83 170,-109.5 164.64,-105.05 158.57,-101.24 152.2,-97.98"/>
<polygon fill="#63b8ff" stroke="#63b8ff" points="279.08,-294.47 285.55,-302.86 285.72,-292.27 279.08,-294.47"/>
</a>
</g>
</g>
<!-- Node13 -->
<g id="Node000013" class="node">
<title>Node13</title>
<g id="a_Node000013"><a xlink:href="structnetspeak_1_1value_1_1value__traits_3_01quadruple_3_01T1_00_01T2_00_01T3_00_01T4_01_4_01_4.html#a277008e37857576916d9c7231d167ebd" target="_top" xlink:title=" ">
<polygon fill="white" stroke="#666666" points="153,-41 17,-41 17,0 153,0 153,-41"/>
<text text-anchor="start" x="25" y="-29" font-family="Helvetica,sans-Serif" font-size="10.00">netspeak::value::value</text>
<text text-anchor="start" x="25" y="-18" font-family="Helvetica,sans-Serif" font-size="10.00">_traits&lt; quadruple&lt; T1,</text>
<text text-anchor="middle" x="85" y="-7" font-family="Helvetica,sans-Serif" font-size="10.00"> T2, T3, T4 &gt; &gt;::write_to</text>
</a>
</g>
</g>
<!-- Node1&#45;&gt;Node13 -->
<g id="edge12_Node000001_Node000013" class="edge">
<title>Node1&#45;&gt;Node13</title>
<g id="a_edge12_Node000001_Node000013"><a xlink:title=" ">
<path fill="none" stroke="#63b8ff" d="M285.04,-292.77C275.58,-244.5 244.77,-119.4 170,-50.5 164.99,-45.88 159.22,-41.97 153.1,-38.65"/>
<polygon fill="#63b8ff" stroke="#63b8ff" points="281.65,-293.64 286.92,-302.83 288.53,-292.36 281.65,-293.64"/>
</a>
</g>
</g>
</g>
</svg>
