<?xml version="1.0" encoding="UTF-8" standalone="no"?>
<!DOCTYPE svg PUBLIC "-//W3C//DTD SVG 1.1//EN"
 "http://www.w3.org/Graphics/SVG/1.1/DTD/svg11.dtd">
<!-- Generated by graphviz version 2.43.0 (0)
 -->
<!-- Title: netspeak::invertedindex::IndexStrategy&lt; T &gt; Pages: 1 -->
<svg width="296pt" height="460pt"
 viewBox="0.00 0.00 295.50 460.00" xmlns="http://www.w3.org/2000/svg" xmlns:xlink="http://www.w3.org/1999/xlink">
<g id="graph0" class="graph" transform="scale(1 1) rotate(0) translate(4 456)">
<title>netspeak::invertedindex::IndexStrategy&lt; T &gt;</title>
<!-- Node1 -->
<g id="Node000001" class="node">
<title>Node1</title>
<g id="a_Node000001"><a xlink:title=" ">
<polygon fill="#999999" stroke="transparent" points="210.5,-452 81.5,-452 81.5,-261 210.5,-261 210.5,-452"/>
<text text-anchor="start" x="87" y="-439.5" font-family="Helvetica,sans-Serif" font-size="10.00">netspeak::invertedindex</text>
<text text-anchor="start" x="95" y="-428.5" font-family="Helvetica,sans-Serif" font-size="10.00">::IndexStrategy&lt; T &gt;</text>
<text text-anchor="start" x="87.5" y="-413.5" font-family="Helvetica,sans-Serif" font-size="10.00">#</text>
<text text-anchor="start" x="102" y="-413.5" font-family="Helvetica,sans-Serif" font-size="10.00">config_</text>
<text text-anchor="start" x="87.5" y="-398.5" font-family="Helvetica,sans-Serif" font-size="10.00">#</text>
<text text-anchor="start" x="102" y="-398.5" font-family="Helvetica,sans-Serif" font-size="10.00">stats_</text>
<text text-anchor="start" x="87.5" y="-383.5" font-family="Helvetica,sans-Serif" font-size="10.00">+</text>
<text text-anchor="start" x="102" y="-383.5" font-family="Helvetica,sans-Serif" font-size="10.00">IndexStrategy()</text>
<text text-anchor="start" x="87.5" y="-368.5" font-family="Helvetica,sans-Serif" font-size="10.00">+</text>
<text text-anchor="start" x="102" y="-368.5" font-family="Helvetica,sans-Serif" font-size="10.00">~IndexStrategy()</text>
<text text-anchor="start" x="87.5" y="-353.5" font-family="Helvetica,sans-Serif" font-size="10.00">+</text>
<text text-anchor="start" x="102" y="-353.5" font-family="Helvetica,sans-Serif" font-size="10.00">index()</text>
<text text-anchor="start" x="87.5" y="-338.5" font-family="Helvetica,sans-Serif" font-size="10.00">+</text>
<text text-anchor="start" x="102" y="-338.5" font-family="Helvetica,sans-Serif" font-size="10.00">insert()</text>
<text text-anchor="start" x="87.5" y="-323.5" font-family="Helvetica,sans-Serif" font-size="10.00">+</text>
<text text-anchor="start" x="102" y="-323.5" font-family="Helvetica,sans-Serif" font-size="10.00">set_expected_record</text>
<text text-anchor="start" x="102" y="-312.5" font-family="Helvetica,sans-Serif" font-size="10.00">_count()</text>
<text text-anchor="start" x="87.5" y="-297.5" font-family="Helvetica,sans-Serif" font-size="10.00">+</text>
<text text-anchor="start" x="102" y="-297.5" font-family="Helvetica,sans-Serif" font-size="10.00">config()</text>
<text text-anchor="start" x="87.5" y="-282.5" font-family="Helvetica,sans-Serif" font-size="10.00">+</text>
<text text-anchor="start" x="102" y="-282.5" font-family="Helvetica,sans-Serif" font-size="10.00">stats()</text>
<text text-anchor="start" x="90" y="-267.5" font-family="Helvetica,sans-Serif" font-size="10.00">&#45;</text>
<text text-anchor="start" x="102" y="-267.5" font-family="Helvetica,sans-Serif" font-size="10.00">insert_()</text>
<polygon fill="#666666" stroke="#666666" points="82,-423.5 82,-423.5 211,-423.5 211,-423.5 82,-423.5"/>
<polygon fill="#666666" stroke="#666666" points="82,-393.5 82,-393.5 100,-393.5 100,-393.5 82,-393.5"/>
<polygon fill="#666666" stroke="#666666" points="100,-393.5 100,-393.5 211,-393.5 211,-393.5 100,-393.5"/>
<polygon fill="none" stroke="#666666" points="81.5,-261 81.5,-452 210.5,-452 210.5,-261 81.5,-261"/>
</a>
</g>
</g>
<!-- Node2 -->
<g id="Node000002" class="node">
<title>Node2</title>
<g id="a_Node000002"><a xlink:href="classnetspeak_1_1invertedindex_1_1SortedInput.html" target="_top" xlink:title=" ">
<polygon fill="white" stroke="transparent" points="140,-187.5 0,-187.5 0,-37.5 140,-37.5 140,-187.5"/>
<text text-anchor="start" x="10.5" y="-175.5" font-family="Helvetica,sans-Serif" font-size="10.00">netspeak::invertedindex</text>
<text text-anchor="start" x="24.5" y="-164.5" font-family="Helvetica,sans-Serif" font-size="10.00">::SortedInput&lt; T &gt;</text>
<text text-anchor="start" x="6.5" y="-149.5" font-family="Helvetica,sans-Serif" font-size="10.00">&#45;</text>
<text text-anchor="start" x="17" y="-149.5" font-family="Helvetica,sans-Serif" font-size="10.00">builder_</text>
<text text-anchor="start" x="6.5" y="-134.5" font-family="Helvetica,sans-Serif" font-size="10.00">&#45;</text>
<text text-anchor="start" x="17" y="-134.5" font-family="Helvetica,sans-Serif" font-size="10.00">storage_</text>
<text text-anchor="start" x="6.5" y="-119.5" font-family="Helvetica,sans-Serif" font-size="10.00">&#45;</text>
<text text-anchor="start" x="17" y="-119.5" font-family="Helvetica,sans-Serif" font-size="10.00">key_</text>
<text text-anchor="start" x="4" y="-104.5" font-family="Helvetica,sans-Serif" font-size="10.00">+</text>
<text text-anchor="start" x="17" y="-104.5" font-family="Helvetica,sans-Serif" font-size="10.00">SortedInput()</text>
<text text-anchor="start" x="4" y="-89.5" font-family="Helvetica,sans-Serif" font-size="10.00">+</text>
<text text-anchor="start" x="17" y="-89.5" font-family="Helvetica,sans-Serif" font-size="10.00">~SortedInput()</text>
<text text-anchor="start" x="4" y="-74.5" font-family="Helvetica,sans-Serif" font-size="10.00">+</text>
<text text-anchor="start" x="17" y="-74.5" font-family="Helvetica,sans-Serif" font-size="10.00">index()</text>
<text text-anchor="start" x="6.5" y="-59.5" font-family="Helvetica,sans-Serif" font-size="10.00">&#45;</text>
<text text-anchor="start" x="17" y="-59.5" font-family="Helvetica,sans-Serif" font-size="10.00">insert_()</text>
<text text-anchor="start" x="6.5" y="-44.5" font-family="Helvetica,sans-Serif" font-size="10.00">&#45;</text>
<text text-anchor="start" x="17" y="-44.5" font-family="Helvetica,sans-Serif" font-size="10.00">write_current_postlist_()</text>
<polygon fill="#666666" stroke="#666666" points="0,-159.5 0,-159.5 140,-159.5 140,-159.5 0,-159.5"/>
<polygon fill="#666666" stroke="#666666" points="0,-114.5 0,-114.5 15,-114.5 15,-114.5 0,-114.5"/>
<polygon fill="#666666" stroke="#666666" points="15,-114.5 15,-114.5 140,-114.5 140,-114.5 15,-114.5"/>
<polygon fill="none" stroke="#666666" points="0,-37.5 0,-187.5 140,-187.5 140,-37.5 0,-37.5"/>
</a>
</g>
</g>
<!-- Node1&#45;&gt;Node2 -->
<g id="edge1_Node000001_Node000002" class="edge">
<title>Node1&#45;&gt;Node2</title>
<g id="a_edge1_Node000001_Node000002"><a xlink:title=" ">
<path fill="none" stroke="#63b8ff" d="M113.23,-251.16C106.54,-229.85 99.62,-207.82 93.34,-187.82"/>
<polygon fill="none" stroke="#63b8ff" points="109.95,-252.4 116.29,-260.9 116.63,-250.31 109.95,-252.4"/>
</a>
</g>
</g>
<!-- Node3 -->
<g id="Node000003" class="node">
<title>Node3</title>
<g id="a_Node000003"><a xlink:href="classnetspeak_1_1invertedindex_1_1UnsortedInput.html" target="_top" xlink:title=" ">
<polygon fill="white" stroke="transparent" points="287.5,-225 158.5,-225 158.5,0 287.5,0 287.5,-225"/>
<text text-anchor="start" x="164" y="-212.5" font-family="Helvetica,sans-Serif" font-size="10.00">netspeak::invertedindex</text>
<text text-anchor="start" x="171.5" y="-201.5" font-family="Helvetica,sans-Serif" font-size="10.00">::UnsortedInput&lt; T &gt;</text>
<text text-anchor="start" x="170" y="-186.5" font-family="Helvetica,sans-Serif" font-size="10.00">&#45;</text>
<text text-anchor="start" x="185" y="-186.5" font-family="Helvetica,sans-Serif" font-size="10.00">bucket_fs_</text>
<text text-anchor="start" x="170" y="-171.5" font-family="Helvetica,sans-Serif" font-size="10.00">&#45;</text>
<text text-anchor="start" x="185" y="-171.5" font-family="Helvetica,sans-Serif" font-size="10.00">bucket_dir_</text>
<text text-anchor="start" x="170" y="-156.5" font-family="Helvetica,sans-Serif" font-size="10.00">&#45;</text>
<text text-anchor="start" x="185" y="-156.5" font-family="Helvetica,sans-Serif" font-size="10.00">max_bucket_size_</text>
<text text-anchor="start" x="167.5" y="-141.5" font-family="Helvetica,sans-Serif" font-size="10.00">+</text>
<text text-anchor="start" x="185" y="-141.5" font-family="Helvetica,sans-Serif" font-size="10.00">UnsortedInput()</text>
<text text-anchor="start" x="167.5" y="-126.5" font-family="Helvetica,sans-Serif" font-size="10.00">+</text>
<text text-anchor="start" x="185" y="-126.5" font-family="Helvetica,sans-Serif" font-size="10.00">~UnsortedInput()</text>
<text text-anchor="start" x="167.5" y="-111.5" font-family="Helvetica,sans-Serif" font-size="10.00">+</text>
<text text-anchor="start" x="185" y="-111.5" font-family="Helvetica,sans-Serif" font-size="10.00">index()</text>
<text text-anchor="start" x="170" y="-96.5" font-family="Helvetica,sans-Serif" font-size="10.00">&#45;</text>
<text text-anchor="start" x="185" y="-96.5" font-family="Helvetica,sans-Serif" font-size="10.00">insert_()</text>
<text text-anchor="start" x="170" y="-81.5" font-family="Helvetica,sans-Serif" font-size="10.00">&#45;</text>
<text text-anchor="start" x="185" y="-81.5" font-family="Helvetica,sans-Serif" font-size="10.00">rehash_()</text>
<text text-anchor="start" x="170" y="-66.5" font-family="Helvetica,sans-Serif" font-size="10.00">&#45;</text>
<text text-anchor="start" x="185" y="-66.5" font-family="Helvetica,sans-Serif" font-size="10.00">close()</text>
<text text-anchor="start" x="170" y="-51.5" font-family="Helvetica,sans-Serif" font-size="10.00">&#45;</text>
<text text-anchor="start" x="185" y="-51.5" font-family="Helvetica,sans-Serif" font-size="10.00">group()</text>
<text text-anchor="start" x="170" y="-36.5" font-family="Helvetica,sans-Serif" font-size="10.00">&#45;</text>
<text text-anchor="start" x="185" y="-36.5" font-family="Helvetica,sans-Serif" font-size="10.00">rehash()</text>
<text text-anchor="start" x="170" y="-21.5" font-family="Helvetica,sans-Serif" font-size="10.00">&#45;</text>
<text text-anchor="start" x="185" y="-21.5" font-family="Helvetica,sans-Serif" font-size="10.00">sort()</text>
<text text-anchor="start" x="170" y="-6.5" font-family="Helvetica,sans-Serif" font-size="10.00">&#45;</text>
<text text-anchor="start" x="185" y="-6.5" font-family="Helvetica,sans-Serif" font-size="10.00">store()</text>
<polygon fill="#666666" stroke="#666666" points="159,-196.5 159,-196.5 288,-196.5 288,-196.5 159,-196.5"/>
<polygon fill="#666666" stroke="#666666" points="159,-151.5 159,-151.5 183,-151.5 183,-151.5 159,-151.5"/>
<polygon fill="#666666" stroke="#666666" points="183,-151.5 183,-151.5 288,-151.5 288,-151.5 183,-151.5"/>
<polygon fill="none" stroke="#666666" points="158.5,0 158.5,-225 287.5,-225 287.5,0 158.5,0"/>
</a>
</g>
</g>
<!-- Node1&#45;&gt;Node3 -->
<g id="edge2_Node000001_Node000003" class="edge">
<title>Node1&#45;&gt;Node3</title>
<g id="a_edge2_Node000001_Node000003"><a xlink:title=" ">
<path fill="none" stroke="#63b8ff" d="M179.17,-251.26C181.9,-242.67 184.67,-233.97 187.42,-225.33"/>
<polygon fill="none" stroke="#63b8ff" points="175.8,-250.31 176.1,-260.9 182.47,-252.43 175.8,-250.31"/>
</a>
</g>
</g>
</g>
</svg>
