<?xml version="1.0" encoding="UTF-8" standalone="no"?>
<!DOCTYPE svg PUBLIC "-//W3C//DTD SVG 1.1//EN"
 "http://www.w3.org/Graphics/SVG/1.1/DTD/svg11.dtd">
<!-- Generated by graphviz version 2.43.0 (0)
 -->
<!-- Title: netspeak::util::LfuCache::capacity Pages: 1 -->
<svg width="482pt" height="158pt"
 viewBox="0.00 0.00 482.00 158.00" xmlns="http://www.w3.org/2000/svg" xmlns:xlink="http://www.w3.org/1999/xlink">
<g id="graph0" class="graph" transform="scale(1 1) rotate(0) translate(4 154)">
<title>netspeak::util::LfuCache::capacity</title>
<!-- Node1 -->
<g id="Node000001" class="node">
<title>Node1</title>
<g id="a_Node000001"><a xlink:title=" ">
<polygon fill="#999999" stroke="#666666" points="474,-78 340,-78 340,-48 474,-48 474,-78"/>
<text text-anchor="start" x="348" y="-66" font-family="Helvetica,sans-Serif" font-size="10.00">netspeak::util::LfuCache</text>
<text text-anchor="middle" x="407" y="-55" font-family="Helvetica,sans-Serif" font-size="10.00">::capacity</text>
</a>
</g>
</g>
<!-- Node2 -->
<g id="Node000002" class="node">
<title>Node2</title>
<g id="a_Node000002"><a xlink:href="classnetspeak_1_1util_1_1LfuCache.html#a0e25828d5cac54740caed94051d0d269" target="_top" xlink:title=" ">
<polygon fill="white" stroke="#666666" points="304,-126 170,-126 170,-96 304,-96 304,-126"/>
<text text-anchor="start" x="178" y="-114" font-family="Helvetica,sans-Serif" font-size="10.00">netspeak::util::LfuCache</text>
<text text-anchor="middle" x="237" y="-103" font-family="Helvetica,sans-Serif" font-size="10.00">::insert_</text>
</a>
</g>
</g>
<!-- Node1&#45;&gt;Node2 -->
<g id="edge1_Node000001_Node000002" class="edge">
<title>Node1&#45;&gt;Node2</title>
<g id="a_edge1_Node000001_Node000002"><a xlink:title=" ">
<path fill="none" stroke="#63b8ff" d="M343.25,-80.93C325.89,-85.89 307.23,-91.22 290.51,-96"/>
<polygon fill="#63b8ff" stroke="#63b8ff" points="344.65,-84.17 353.3,-78.06 342.73,-77.44 344.65,-84.17"/>
</a>
</g>
</g>
<!-- Node5 -->
<g id="Node000005" class="node">
<title>Node5</title>
<g id="a_Node000005"><a xlink:href="classnetspeak_1_1util_1_1LfuCache.html#a6089337ac1bce75e97de9689ce776fb5" target="_top" xlink:title=" ">
<polygon fill="white" stroke="#666666" points="304,-78 170,-78 170,-48 304,-48 304,-78"/>
<text text-anchor="start" x="178" y="-66" font-family="Helvetica,sans-Serif" font-size="10.00">netspeak::util::LfuCache</text>
<text text-anchor="middle" x="237" y="-55" font-family="Helvetica,sans-Serif" font-size="10.00">::LfuCache</text>
</a>
</g>
</g>
<!-- Node1&#45;&gt;Node5 -->
<g id="edge4_Node000001_Node000005" class="edge">
<title>Node1&#45;&gt;Node5</title>
<g id="a_edge4_Node000001_Node000005"><a xlink:title=" ">
<path fill="none" stroke="#63b8ff" d="M329.41,-63C320.99,-63 312.47,-63 304.19,-63"/>
<polygon fill="#63b8ff" stroke="#63b8ff" points="329.6,-66.5 339.6,-63 329.6,-59.5 329.6,-66.5"/>
</a>
</g>
</g>
<!-- Node6 -->
<g id="Node000006" class="node">
<title>Node6</title>
<g id="a_Node000006"><a xlink:href="classnetspeak_1_1util_1_1LfuCache.html#ab574a71882ceaea3b9e8e9e726020771" target="_top" xlink:title=" ">
<polygon fill="white" stroke="#666666" points="304,-30 170,-30 170,0 304,0 304,-30"/>
<text text-anchor="start" x="178" y="-18" font-family="Helvetica,sans-Serif" font-size="10.00">netspeak::util::LfuCache</text>
<text text-anchor="middle" x="237" y="-7" font-family="Helvetica,sans-Serif" font-size="10.00">::reserve</text>
</a>
</g>
</g>
<!-- Node1&#45;&gt;Node6 -->
<g id="edge5_Node000001_Node000006" class="edge">
<title>Node1&#45;&gt;Node6</title>
<g id="a_edge5_Node000001_Node000006"><a xlink:title=" ">
<path fill="none" stroke="#63b8ff" d="M343.25,-45.07C325.89,-40.11 307.23,-34.78 290.51,-30"/>
<polygon fill="#63b8ff" stroke="#63b8ff" points="342.73,-48.56 353.3,-47.94 344.65,-41.83 342.73,-48.56"/>
</a>
</g>
</g>
<!-- Node3 -->
<g id="Node000003" class="node">
<title>Node3</title>
<g id="a_Node000003"><a xlink:href="classnetspeak_1_1util_1_1LfuCache.html#a3b7737c7f8e482dcc4ff95718a565984" target="_top" xlink:title=" ">
<polygon fill="white" stroke="#666666" points="134,-150 0,-150 0,-120 134,-120 134,-150"/>
<text text-anchor="start" x="8" y="-138" font-family="Helvetica,sans-Serif" font-size="10.00">netspeak::util::LfuCache</text>
<text text-anchor="middle" x="67" y="-127" font-family="Helvetica,sans-Serif" font-size="10.00">::insert</text>
</a>
</g>
</g>
<!-- Node2&#45;&gt;Node3 -->
<g id="edge2_Node000002_Node000003" class="edge">
<title>Node2&#45;&gt;Node3</title>
<g id="a_edge2_Node000002_Node000003"><a xlink:title=" ">
<path fill="none" stroke="#63b8ff" d="M159.68,-121.9C151.17,-123.12 142.56,-124.35 134.19,-125.54"/>
<polygon fill="#63b8ff" stroke="#63b8ff" points="160.2,-125.36 169.6,-120.49 159.21,-118.43 160.2,-125.36"/>
</a>
</g>
</g>
<!-- Node4 -->
<g id="Node000004" class="node">
<title>Node4</title>
<g id="a_Node000004"><a xlink:href="classnetspeak_1_1util_1_1LfuCache.html#a234fb70116e8b5d051a6a9fc9798343f" target="_top" xlink:title=" ">
<polygon fill="white" stroke="#666666" points="134,-102 0,-102 0,-72 134,-72 134,-102"/>
<text text-anchor="start" x="8" y="-90" font-family="Helvetica,sans-Serif" font-size="10.00">netspeak::util::LfuCache</text>
<text text-anchor="middle" x="67" y="-79" font-family="Helvetica,sans-Serif" font-size="10.00">::update</text>
</a>
</g>
</g>
<!-- Node2&#45;&gt;Node4 -->
<g id="edge3_Node000002_Node000004" class="edge">
<title>Node2&#45;&gt;Node4</title>
<g id="a_edge3_Node000002_Node000004"><a xlink:title=" ">
<path fill="none" stroke="#63b8ff" d="M159.68,-100.1C151.17,-98.88 142.56,-97.65 134.19,-96.46"/>
<polygon fill="#63b8ff" stroke="#63b8ff" points="159.21,-103.57 169.6,-101.51 160.2,-96.64 159.21,-103.57"/>
</a>
</g>
</g>
</g>
</svg>
