<?xml version="1.0" encoding="UTF-8" standalone="no"?>
<!DOCTYPE svg PUBLIC "-//W3C//DTD SVG 1.1//EN"
 "http://www.w3.org/Graphics/SVG/1.1/DTD/svg11.dtd">
<!-- Generated by graphviz version 2.43.0 (0)
 -->
<!-- Title: netspeak::model::Phrase::operator&lt; Pages: 1 -->
<svg width="333pt" height="76pt"
 viewBox="0.00 0.00 333.00 75.50" xmlns="http://www.w3.org/2000/svg" xmlns:xlink="http://www.w3.org/1999/xlink">
<g id="graph0" class="graph" transform="scale(1 1) rotate(0) translate(4 71.5)">
<title>netspeak::model::Phrase::operator&lt;</title>
<!-- Node1 -->
<g id="Node000001" class="node">
<title>Node1</title>
<g id="a_Node000001"><a xlink:title=" ">
<polygon fill="#999999" stroke="#666666" points="137,-45.5 0,-45.5 0,-15.5 137,-15.5 137,-45.5"/>
<text text-anchor="start" x="8" y="-33.5" font-family="Helvetica,sans-Serif" font-size="10.00">netspeak::model::Phrase</text>
<text text-anchor="middle" x="68.5" y="-22.5" font-family="Helvetica,sans-Serif" font-size="10.00">::operator&lt;</text>
</a>
</g>
</g>
<!-- Node2 -->
<g id="Node000002" class="node">
<title>Node2</title>
<g id="a_Node000002"><a xlink:href="classnetspeak_1_1model_1_1Phrase.html#acfc15d1ae254baa86daa01723e7e5778" target="_top" xlink:title=" ">
<polygon fill="white" stroke="#666666" points="317.5,-67.5 180.5,-67.5 180.5,-37.5 317.5,-37.5 317.5,-67.5"/>
<text text-anchor="start" x="188.5" y="-55.5" font-family="Helvetica,sans-Serif" font-size="10.00">netspeak::model::Phrase</text>
<text text-anchor="middle" x="249" y="-44.5" font-family="Helvetica,sans-Serif" font-size="10.00">::freq</text>
</a>
</g>
</g>
<!-- Node1&#45;&gt;Node2 -->
<g id="edge1_Node000001_Node000002" class="edge">
<title>Node1&#45;&gt;Node2</title>
<g id="a_edge1_Node000001_Node000002"><a xlink:title=" ">
<path fill="none" stroke="#63b8ff" d="M137.24,-38.85C148.04,-40.18 159.28,-41.57 170.29,-42.92"/>
<polygon fill="#63b8ff" stroke="#63b8ff" points="169.96,-46.41 180.31,-44.16 170.81,-39.46 169.96,-46.41"/>
</a>
</g>
</g>
<!-- Node3 -->
<g id="Node000003" class="node">
<title>Node3</title>
<g id="a_Node000003"><a xlink:href="classnetspeak_1_1model_1_1Phrase.html#abf504a6571722f250cd0738da12cfc19" target="_top" xlink:title=" ">
<polygon fill="white" stroke="#666666" points="325,-19 173,-19 173,0 325,0 325,-19"/>
<text text-anchor="middle" x="249" y="-7" font-family="Helvetica,sans-Serif" font-size="10.00">netspeak::model::Phrase::id</text>
</a>
</g>
</g>
<!-- Node1&#45;&gt;Node3 -->
<g id="edge2_Node000001_Node000003" class="edge">
<title>Node1&#45;&gt;Node3</title>
<g id="a_edge2_Node000001_Node000003"><a xlink:title=" ">
<path fill="none" stroke="#63b8ff" d="M137.24,-22.53C145.6,-21.55 154.24,-20.53 162.82,-19.52"/>
<polygon fill="#63b8ff" stroke="#63b8ff" points="163.33,-22.99 172.85,-18.34 162.51,-16.03 163.33,-22.99"/>
</a>
</g>
</g>
</g>
</svg>
