<?xml version="1.0" encoding="UTF-8" standalone="no"?>
<!DOCTYPE svg PUBLIC "-//W3C//DTD SVG 1.1//EN"
 "http://www.w3.org/Graphics/SVG/1.1/DTD/svg11.dtd">
<!-- Generated by graphviz version 2.43.0 (0)
 -->
<!-- Title: netspeak::invertedindex::ByteBuffer::clear Pages: 1 -->
<svg width="492pt" height="108pt"
 viewBox="0.00 0.00 492.00 108.00" xmlns="http://www.w3.org/2000/svg" xmlns:xlink="http://www.w3.org/1999/xlink">
<g id="graph0" class="graph" transform="scale(1 1) rotate(0) translate(4 104)">
<title>netspeak::invertedindex::ByteBuffer::clear</title>
<!-- Node1 -->
<g id="Node000001" class="node">
<title>Node1</title>
<g id="a_Node000001"><a xlink:title=" ">
<polygon fill="#999999" stroke="#666666" points="484,-64.5 349,-64.5 349,-34.5 484,-34.5 484,-64.5"/>
<text text-anchor="start" x="357" y="-52.5" font-family="Helvetica,sans-Serif" font-size="10.00">netspeak::invertedindex</text>
<text text-anchor="middle" x="416.5" y="-41.5" font-family="Helvetica,sans-Serif" font-size="10.00">::ByteBuffer::clear</text>
</a>
</g>
</g>
<!-- Node2 -->
<g id="Node000002" class="node">
<title>Node2</title>
<g id="a_Node000002"><a xlink:href="structnetspeak_1_1invertedindex_1_1constant__size__iter.html#a56adf8c6704d75f087464f7117c367c4" target="_top" xlink:title=" ">
<polygon fill="white" stroke="#666666" points="313,-100 178,-100 178,-59 313,-59 313,-100"/>
<text text-anchor="start" x="186" y="-88" font-family="Helvetica,sans-Serif" font-size="10.00">netspeak::invertedindex</text>
<text text-anchor="start" x="186" y="-77" font-family="Helvetica,sans-Serif" font-size="10.00">::constant_size_iter::</text>
<text text-anchor="middle" x="245.5" y="-66" font-family="Helvetica,sans-Serif" font-size="10.00">rewind</text>
</a>
</g>
</g>
<!-- Node1&#45;&gt;Node2 -->
<g id="edge1_Node000001_Node000002" class="edge">
<title>Node1&#45;&gt;Node2</title>
<g id="a_edge1_Node000001_Node000002"><a xlink:title=" ">
<path fill="none" stroke="#63b8ff" d="M338.73,-63.13C330.17,-64.65 321.5,-66.19 313.08,-67.68"/>
<polygon fill="#63b8ff" stroke="#63b8ff" points="339.47,-66.55 348.71,-61.36 338.25,-59.66 339.47,-66.55"/>
</a>
</g>
</g>
<!-- Node4 -->
<g id="Node000004" class="node">
<title>Node4</title>
<g id="a_Node000004"><a xlink:href="structnetspeak_1_1invertedindex_1_1variable__size__iter.html#acc89c6573d07269b3ba6d5fb22498601" target="_top" xlink:title=" ">
<polygon fill="white" stroke="#666666" points="313,-41 178,-41 178,0 313,0 313,-41"/>
<text text-anchor="start" x="186" y="-29" font-family="Helvetica,sans-Serif" font-size="10.00">netspeak::invertedindex</text>
<text text-anchor="start" x="186" y="-18" font-family="Helvetica,sans-Serif" font-size="10.00">::variable_size_iter::</text>
<text text-anchor="middle" x="245.5" y="-7" font-family="Helvetica,sans-Serif" font-size="10.00">rewind</text>
</a>
</g>
</g>
<!-- Node1&#45;&gt;Node4 -->
<g id="edge3_Node000001_Node000004" class="edge">
<title>Node1&#45;&gt;Node4</title>
<g id="a_edge3_Node000001_Node000004"><a xlink:title=" ">
<path fill="none" stroke="#63b8ff" d="M338.73,-36.33C330.17,-34.86 321.5,-33.37 313.08,-31.93"/>
<polygon fill="#63b8ff" stroke="#63b8ff" points="338.26,-39.8 348.71,-38.04 339.44,-32.9 338.26,-39.8"/>
</a>
</g>
</g>
<!-- Node3 -->
<g id="Node000003" class="node">
<title>Node3</title>
<g id="a_Node000003"><a xlink:href="structnetspeak_1_1invertedindex_1_1constant__size__iter.html#ad1b3b0bc3cf09bc8098287d3163a2d9f" target="_top" xlink:title=" ">
<polygon fill="white" stroke="#666666" points="142,-94.5 0,-94.5 0,-64.5 142,-64.5 142,-94.5"/>
<text text-anchor="start" x="8" y="-82.5" font-family="Helvetica,sans-Serif" font-size="10.00">netspeak::invertedindex</text>
<text text-anchor="middle" x="71" y="-71.5" font-family="Helvetica,sans-Serif" font-size="10.00">::constant_size_iter::write</text>
</a>
</g>
</g>
<!-- Node2&#45;&gt;Node3 -->
<g id="edge2_Node000002_Node000003" class="edge">
<title>Node2&#45;&gt;Node3</title>
<g id="a_edge2_Node000002_Node000003"><a xlink:title=" ">
<path fill="none" stroke="#63b8ff" d="M167.59,-79.5C159.15,-79.5 150.58,-79.5 142.23,-79.5"/>
<polygon fill="#63b8ff" stroke="#63b8ff" points="167.81,-83 177.81,-79.5 167.81,-76 167.81,-83"/>
</a>
</g>
</g>
<!-- Node5 -->
<g id="Node000005" class="node">
<title>Node5</title>
<g id="a_Node000005"><a xlink:href="structnetspeak_1_1invertedindex_1_1variable__size__iter.html#ac34d912dfd281b76d060021c24c9fc63" target="_top" xlink:title=" ">
<polygon fill="white" stroke="#666666" points="141,-35.5 1,-35.5 1,-5.5 141,-5.5 141,-35.5"/>
<text text-anchor="start" x="9" y="-23.5" font-family="Helvetica,sans-Serif" font-size="10.00">netspeak::invertedindex</text>
<text text-anchor="middle" x="71" y="-12.5" font-family="Helvetica,sans-Serif" font-size="10.00">::variable_size_iter::write</text>
</a>
</g>
</g>
<!-- Node4&#45;&gt;Node5 -->
<g id="edge4_Node000004_Node000005" class="edge">
<title>Node4&#45;&gt;Node5</title>
<g id="a_edge4_Node000004_Node000005"><a xlink:title=" ">
<path fill="none" stroke="#63b8ff" d="M167.54,-20.5C158.73,-20.5 149.78,-20.5 141.08,-20.5"/>
<polygon fill="#63b8ff" stroke="#63b8ff" points="167.81,-24 177.81,-20.5 167.81,-17 167.81,-24"/>
</a>
</g>
</g>
</g>
</svg>
