<?xml version="1.0" encoding="UTF-8" standalone="no"?>
<!DOCTYPE svg PUBLIC "-//W3C//DTD SVG 1.1//EN"
 "http://www.w3.org/Graphics/SVG/1.1/DTD/svg11.dtd">
<!-- Generated by graphviz version 2.43.0 (0)
 -->
<!-- Title: netspeak::util::Config::get Pages: 1 -->
<svg width="1466pt" height="387pt"
 viewBox="0.00 0.00 1466.00 387.00" xmlns="http://www.w3.org/2000/svg" xmlns:xlink="http://www.w3.org/1999/xlink">
<g id="graph0" class="graph" transform="scale(1 1) rotate(0) translate(4 383)">
<title>netspeak::util::Config::get</title>
<!-- Node1 -->
<g id="Node000001" class="node">
<title>Node1</title>
<g id="a_Node000001"><a xlink:title="Returns the value of the given key or the given default value if the key is not part of the config.">
<polygon fill="#999999" stroke="#666666" points="1458,-325.5 1316,-325.5 1316,-306.5 1458,-306.5 1458,-325.5"/>
<text text-anchor="middle" x="1387" y="-313.5" font-family="Helvetica,sans-Serif" font-size="10.00">netspeak::util::Config::get</text>
</a>
</g>
</g>
<!-- Node2 -->
<g id="Node000002" class="node">
<title>Node2</title>
<g id="a_Node000002"><a xlink:href="classnetspeak_1_1Configuration.html#a774b12e520ae186f5fa20ac901c3d72f" target="_top" xlink:title=" ">
<polygon fill="white" stroke="#666666" points="1280,-379 1147,-379 1147,-349 1280,-349 1280,-379"/>
<text text-anchor="start" x="1155" y="-367" font-family="Helvetica,sans-Serif" font-size="10.00">netspeak::Configuration</text>
<text text-anchor="middle" x="1213.5" y="-356" font-family="Helvetica,sans-Serif" font-size="10.00">::desugar_home</text>
</a>
</g>
</g>
<!-- Node1&#45;&gt;Node2 -->
<g id="edge1_Node000001_Node000002" class="edge">
<title>Node1&#45;&gt;Node2</title>
<g id="a_edge1_Node000001_Node000002"><a xlink:title=" ">
<path fill="none" stroke="#63b8ff" d="M1341.79,-328.37C1319.37,-334.65 1291.96,-342.32 1268.32,-348.94"/>
<polygon fill="#63b8ff" stroke="#63b8ff" points="1343.02,-331.66 1351.71,-325.6 1341.13,-324.92 1343.02,-331.66"/>
</a>
</g>
</g>
<!-- Node5 -->
<g id="Node000005" class="node">
<title>Node5</title>
<g id="a_Node000005"><a xlink:href="classnetspeak_1_1Configuration.html#aff9301d99209481a48c20c33a15de752" target="_top" xlink:title=" ">
<polygon fill="white" stroke="#666666" points="1280,-245 1147,-245 1147,-215 1280,-215 1280,-245"/>
<text text-anchor="start" x="1155" y="-233" font-family="Helvetica,sans-Serif" font-size="10.00">netspeak::Configuration</text>
<text text-anchor="middle" x="1213.5" y="-222" font-family="Helvetica,sans-Serif" font-size="10.00">::get_optional</text>
</a>
</g>
</g>
<!-- Node1&#45;&gt;Node5 -->
<g id="edge4_Node000001_Node000005" class="edge">
<title>Node1&#45;&gt;Node5</title>
<g id="a_edge4_Node000001_Node000005"><a xlink:title=" ">
<path fill="none" stroke="#63b8ff" d="M1357.96,-301.94C1326.75,-286.29 1276.51,-261.1 1244.53,-245.06"/>
<polygon fill="#63b8ff" stroke="#63b8ff" points="1356.48,-305.11 1366.99,-306.47 1359.62,-298.86 1356.48,-305.11"/>
</a>
</g>
</g>
<!-- Node23 -->
<g id="Node000023" class="node">
<title>Node23</title>
<g id="a_Node000023"><a xlink:href="classnetspeak_1_1Configuration.html#a72f126113d7544a81dfc2c4b4a5cf784" target="_top" xlink:title=" ">
<polygon fill="white" stroke="#666666" points="1280,-331 1147,-331 1147,-301 1280,-301 1280,-331"/>
<text text-anchor="start" x="1155" y="-319" font-family="Helvetica,sans-Serif" font-size="10.00">netspeak::Configuration</text>
<text text-anchor="middle" x="1213.5" y="-308" font-family="Helvetica,sans-Serif" font-size="10.00">::load_extends</text>
</a>
</g>
</g>
<!-- Node1&#45;&gt;Node23 -->
<g id="edge28_Node000001_Node000023" class="edge">
<title>Node1&#45;&gt;Node23</title>
<g id="a_edge28_Node000001_Node000023"><a xlink:title=" ">
<path fill="none" stroke="#63b8ff" d="M1305.48,-316C1297.02,-316 1288.49,-316 1280.22,-316"/>
<polygon fill="#63b8ff" stroke="#63b8ff" points="1305.75,-319.5 1315.75,-316 1305.75,-312.5 1305.75,-319.5"/>
</a>
</g>
</g>
<!-- Node3 -->
<g id="Node000003" class="node">
<title>Node3</title>
<g id="a_Node000003"><a xlink:href="classnetspeak_1_1Configuration.html#ac9c67ce4d47206c1029175c44f8ccdfc" target="_top" xlink:title=" ">
<polygon fill="white" stroke="#666666" points="1100,-379 967,-379 967,-349 1100,-349 1100,-379"/>
<text text-anchor="start" x="975" y="-367" font-family="Helvetica,sans-Serif" font-size="10.00">netspeak::Configuration</text>
<text text-anchor="middle" x="1033.5" y="-356" font-family="Helvetica,sans-Serif" font-size="10.00">::Configuration</text>
</a>
</g>
</g>
<!-- Node2&#45;&gt;Node3 -->
<g id="edge2_Node000002_Node000003" class="edge">
<title>Node2&#45;&gt;Node3</title>
<g id="a_edge2_Node000002_Node000003"><a xlink:title=" ">
<path fill="none" stroke="#63b8ff" d="M1136.84,-364C1124.65,-364 1112.11,-364 1100.18,-364"/>
<polygon fill="#63b8ff" stroke="#63b8ff" points="1136.98,-367.5 1146.98,-364 1136.98,-360.5 1136.98,-367.5"/>
</a>
</g>
</g>
<!-- Node4 -->
<g id="Node000004" class="node">
<title>Node4</title>
<g id="a_Node000004"><a xlink:href="classnetspeak_1_1Configuration.html#a568baeba6c6624c55945ec9bcc0237c2" target="_top" xlink:title=" ">
<polygon fill="white" stroke="#666666" points="1100,-331 967,-331 967,-301 1100,-301 1100,-331"/>
<text text-anchor="start" x="975" y="-319" font-family="Helvetica,sans-Serif" font-size="10.00">netspeak::Configuration</text>
<text text-anchor="middle" x="1033.5" y="-308" font-family="Helvetica,sans-Serif" font-size="10.00">::Configuration</text>
</a>
</g>
</g>
<!-- Node2&#45;&gt;Node4 -->
<g id="edge3_Node000002_Node000004" class="edge">
<title>Node2&#45;&gt;Node4</title>
<g id="a_edge3_Node000002_Node000004"><a xlink:title=" ">
<path fill="none" stroke="#63b8ff" d="M1146.79,-346.28C1128.17,-341.26 1108.09,-335.85 1090.13,-331"/>
<polygon fill="#63b8ff" stroke="#63b8ff" points="1146.1,-349.72 1156.67,-348.94 1147.92,-342.96 1146.1,-349.72"/>
</a>
</g>
</g>
<!-- Node6 -->
<g id="Node000006" class="node">
<title>Node6</title>
<g id="a_Node000006"><a xlink:href="classnetspeak_1_1Configuration.html#a418506b5c21390339b097336b71afa93" target="_top" xlink:title=" ">
<polygon fill="white" stroke="#666666" points="1111,-282.5 956,-282.5 956,-263.5 1111,-263.5 1111,-282.5"/>
<text text-anchor="middle" x="1033.5" y="-270.5" font-family="Helvetica,sans-Serif" font-size="10.00">netspeak::Configuration::get</text>
</a>
</g>
</g>
<!-- Node5&#45;&gt;Node6 -->
<g id="edge5_Node000005_Node000006" class="edge">
<title>Node5&#45;&gt;Node6</title>
<g id="a_edge5_Node000005_Node000006"><a xlink:title=" ">
<path fill="none" stroke="#63b8ff" d="M1140.3,-247.44C1117.62,-252.92 1093.43,-258.76 1073.92,-263.48"/>
<polygon fill="#63b8ff" stroke="#63b8ff" points="1141.35,-250.79 1150.24,-245.04 1139.7,-243.99 1141.35,-250.79"/>
</a>
</g>
</g>
<!-- Node10 -->
<g id="Node000010" class="node">
<title>Node10</title>
<g id="a_Node000010"><a xlink:href="classnetspeak_1_1Configuration.html#aed2594665f7f0529186a7f50b318ef54" target="_top" xlink:title=" ">
<polygon fill="white" stroke="#666666" points="1100,-245 967,-245 967,-215 1100,-215 1100,-245"/>
<text text-anchor="start" x="975" y="-233" font-family="Helvetica,sans-Serif" font-size="10.00">netspeak::Configuration</text>
<text text-anchor="middle" x="1033.5" y="-222" font-family="Helvetica,sans-Serif" font-size="10.00">::get_optional_bool</text>
</a>
</g>
</g>
<!-- Node5&#45;&gt;Node10 -->
<g id="edge10_Node000005_Node000010" class="edge">
<title>Node5&#45;&gt;Node10</title>
<g id="a_edge10_Node000005_Node000010"><a xlink:title=" ">
<path fill="none" stroke="#63b8ff" d="M1136.84,-230C1124.65,-230 1112.11,-230 1100.18,-230"/>
<polygon fill="#63b8ff" stroke="#63b8ff" points="1136.98,-233.5 1146.98,-230 1136.98,-226.5 1136.98,-233.5"/>
</a>
</g>
</g>
<!-- Node12 -->
<g id="Node000012" class="node">
<title>Node12</title>
<g id="a_Node000012"><a xlink:href="classnetspeak_1_1Configuration.html#a68d3ae93a76264d217cab60f755e4510" target="_top" xlink:title=" ">
<polygon fill="white" stroke="#666666" points="1100,-197 967,-197 967,-167 1100,-167 1100,-197"/>
<text text-anchor="start" x="975" y="-185" font-family="Helvetica,sans-Serif" font-size="10.00">netspeak::Configuration</text>
<text text-anchor="middle" x="1033.5" y="-174" font-family="Helvetica,sans-Serif" font-size="10.00">::get_optional_path</text>
</a>
</g>
</g>
<!-- Node5&#45;&gt;Node12 -->
<g id="edge13_Node000005_Node000012" class="edge">
<title>Node5&#45;&gt;Node12</title>
<g id="a_edge13_Node000005_Node000012"><a xlink:title=" ">
<path fill="none" stroke="#63b8ff" d="M1146.79,-212.28C1128.17,-207.26 1108.09,-201.85 1090.13,-197"/>
<polygon fill="#63b8ff" stroke="#63b8ff" points="1146.1,-215.72 1156.67,-214.94 1147.92,-208.96 1146.1,-215.72"/>
</a>
</g>
</g>
<!-- Node13 -->
<g id="Node000013" class="node">
<title>Node13</title>
<g id="a_Node000013"><a xlink:href="classnetspeak_1_1Configuration.html#a3244253bdf9a9d68c88c5bcdea25db2a" target="_top" xlink:title=" ">
<polygon fill="white" stroke="#666666" points="1100,-111 967,-111 967,-81 1100,-81 1100,-111"/>
<text text-anchor="start" x="975" y="-99" font-family="Helvetica,sans-Serif" font-size="10.00">netspeak::Configuration</text>
<text text-anchor="middle" x="1033.5" y="-88" font-family="Helvetica,sans-Serif" font-size="10.00">::get_required</text>
</a>
</g>
</g>
<!-- Node5&#45;&gt;Node13 -->
<g id="edge15_Node000005_Node000013" class="edge">
<title>Node5&#45;&gt;Node13</title>
<g id="a_edge15_Node000005_Node000013"><a xlink:title=" ">
<path fill="none" stroke="#63b8ff" d="M1184.24,-208.73C1148.04,-181.47 1086.19,-134.91 1054.5,-111.06"/>
<polygon fill="#63b8ff" stroke="#63b8ff" points="1182.33,-211.67 1192.43,-214.89 1186.54,-206.08 1182.33,-211.67"/>
</a>
</g>
</g>
<!-- Node7 -->
<g id="Node000007" class="node">
<title>Node7</title>
<g id="a_Node000007"><a xlink:href="classnetspeak_1_1Configuration.html#a349f4a5c0bf2a9d116ccee84a774cb2a" target="_top" xlink:title=" ">
<polygon fill="white" stroke="#666666" points="920,-374 787,-374 787,-344 920,-344 920,-374"/>
<text text-anchor="start" x="795" y="-362" font-family="Helvetica,sans-Serif" font-size="10.00">netspeak::Configuration</text>
<text text-anchor="middle" x="853.5" y="-351" font-family="Helvetica,sans-Serif" font-size="10.00">::get_path</text>
</a>
</g>
</g>
<!-- Node6&#45;&gt;Node7 -->
<g id="edge6_Node000006_Node000007" class="edge">
<title>Node6&#45;&gt;Node7</title>
<g id="a_edge6_Node000006_Node000007"><a xlink:title=" ">
<path fill="none" stroke="#63b8ff" d="M967.78,-286.2C963.69,-287.9 959.72,-289.83 956,-292 935.9,-303.72 939.01,-316.58 920,-330 912.48,-335.31 903.84,-339.97 895.34,-343.92"/>
<polygon fill="#63b8ff" stroke="#63b8ff" points="969.34,-289.35 977.5,-282.6 966.91,-282.79 969.34,-289.35"/>
</a>
</g>
</g>
<!-- Node8 -->
<g id="Node000008" class="node">
<title>Node8</title>
<g id="a_Node000008"><a xlink:href="classnetspeak_1_1Netspeak.html#a8653d43c4d385a1b81075d1b1c6fb1ea" target="_top" xlink:title=" ">
<polygon fill="white" stroke="#666666" points="910.5,-288 796.5,-288 796.5,-258 910.5,-258 910.5,-288"/>
<text text-anchor="start" x="804.5" y="-276" font-family="Helvetica,sans-Serif" font-size="10.00">netspeak::Netspeak</text>
<text text-anchor="middle" x="853.5" y="-265" font-family="Helvetica,sans-Serif" font-size="10.00">::get_search_config</text>
</a>
</g>
</g>
<!-- Node6&#45;&gt;Node8 -->
<g id="edge7_Node000006_Node000008" class="edge">
<title>Node6&#45;&gt;Node8</title>
<g id="a_edge7_Node000006_Node000008"><a xlink:title=" ">
<path fill="none" stroke="#63b8ff" d="M945.91,-273C933.88,-273 921.8,-273 910.53,-273"/>
<polygon fill="#63b8ff" stroke="#63b8ff" points="945.98,-276.5 955.98,-273 945.98,-269.5 945.98,-276.5"/>
</a>
</g>
</g>
<!-- Node9 -->
<g id="Node000009" class="node">
<title>Node9</title>
<g id="a_Node000009"><a xlink:href="classnetspeak_1_1Netspeak.html#a4fa7fcfd57d5c943e1bf476c61610c99" target="_top" xlink:title=" ">
<polygon fill="white" stroke="#666666" points="731.5,-240 617.5,-240 617.5,-210 731.5,-210 731.5,-240"/>
<text text-anchor="start" x="625.5" y="-228" font-family="Helvetica,sans-Serif" font-size="10.00">netspeak::Netspeak</text>
<text text-anchor="middle" x="674.5" y="-217" font-family="Helvetica,sans-Serif" font-size="10.00">::initialize</text>
</a>
</g>
</g>
<!-- Node6&#45;&gt;Node9 -->
<g id="edge9_Node000006_Node000009" class="edge">
<title>Node6&#45;&gt;Node9</title>
<g id="a_edge9_Node000006_Node000009"><a xlink:title=" ">
<path fill="none" stroke="#63b8ff" d="M987.14,-284.95C966.77,-289.72 942.34,-294.64 920,-297 861.22,-303.2 843.7,-313.72 787,-297 749.43,-285.92 712.59,-257.81 692.07,-240.17"/>
<polygon fill="#63b8ff" stroke="#63b8ff" points="988.18,-288.3 997.09,-282.55 986.55,-281.49 988.18,-288.3"/>
</a>
</g>
</g>
<!-- Node8&#45;&gt;Node9 -->
<g id="edge8_Node000008_Node000009" class="edge">
<title>Node8&#45;&gt;Node9</title>
<g id="a_edge8_Node000008_Node000009"><a xlink:title=" ">
<path fill="none" stroke="#63b8ff" d="M787.16,-255.28C768.65,-250.26 748.68,-244.85 730.82,-240"/>
<polygon fill="#63b8ff" stroke="#63b8ff" points="786.41,-258.7 796.98,-257.94 788.25,-251.95 786.41,-258.7"/>
</a>
</g>
</g>
<!-- Node11 -->
<g id="Node000011" class="node">
<title>Node11</title>
<g id="a_Node000011"><a xlink:href="classnetspeak_1_1Configuration.html#ab49a5e48856245ce0c3a1705826c500a" target="_top" xlink:title=" ">
<polygon fill="white" stroke="#666666" points="920,-240 787,-240 787,-210 920,-210 920,-240"/>
<text text-anchor="start" x="795" y="-228" font-family="Helvetica,sans-Serif" font-size="10.00">netspeak::Configuration</text>
<text text-anchor="middle" x="853.5" y="-217" font-family="Helvetica,sans-Serif" font-size="10.00">::get_bool</text>
</a>
</g>
</g>
<!-- Node10&#45;&gt;Node11 -->
<g id="edge11_Node000010_Node000011" class="edge">
<title>Node10&#45;&gt;Node11</title>
<g id="a_edge11_Node000010_Node000011"><a xlink:title=" ">
<path fill="none" stroke="#63b8ff" d="M956.84,-227.87C944.65,-227.53 932.11,-227.18 920.18,-226.84"/>
<polygon fill="#63b8ff" stroke="#63b8ff" points="956.88,-231.38 966.98,-228.16 957.08,-224.38 956.88,-231.38"/>
</a>
</g>
</g>
<!-- Node11&#45;&gt;Node9 -->
<g id="edge12_Node000011_Node000009" class="edge">
<title>Node11&#45;&gt;Node9</title>
<g id="a_edge12_Node000011_Node000009"><a xlink:title=" ">
<path fill="none" stroke="#63b8ff" d="M776.54,-225C761.51,-225 745.98,-225 731.75,-225"/>
<polygon fill="#63b8ff" stroke="#63b8ff" points="776.84,-228.5 786.84,-225 776.84,-221.5 776.84,-228.5"/>
</a>
</g>
</g>
<!-- Node12&#45;&gt;Node9 -->
<g id="edge14_Node000012_Node000009" class="edge">
<title>Node12&#45;&gt;Node9</title>
<g id="a_edge14_Node000012_Node000009"><a xlink:title=" ">
<path fill="none" stroke="#63b8ff" d="M956.71,-185.22C908.04,-187.94 843.57,-192.76 787,-201 768.88,-203.64 749.29,-207.51 731.67,-211.37"/>
<polygon fill="#63b8ff" stroke="#63b8ff" points="957.05,-188.71 966.85,-184.67 956.67,-181.72 957.05,-188.71"/>
</a>
</g>
</g>
<!-- Node14 -->
<g id="Node000014" class="node">
<title>Node14</title>
<g id="a_Node000014"><a xlink:href="classnetspeak_1_1Configuration.html#ac63101c63ef3cb005f881833757c121d" target="_top" xlink:title=" ">
<polygon fill="white" stroke="#666666" points="741,-116 608,-116 608,-86 741,-86 741,-116"/>
<text text-anchor="start" x="616" y="-104" font-family="Helvetica,sans-Serif" font-size="10.00">netspeak::Configuration</text>
<text text-anchor="middle" x="674.5" y="-93" font-family="Helvetica,sans-Serif" font-size="10.00">::full_config</text>
</a>
</g>
</g>
<!-- Node13&#45;&gt;Node14 -->
<g id="edge16_Node000013_Node000014" class="edge">
<title>Node13&#45;&gt;Node14</title>
<g id="a_edge16_Node000013_Node000014"><a xlink:title=" ">
<path fill="none" stroke="#63b8ff" d="M956.57,-97.06C892.55,-97.96 801.89,-99.23 741.01,-100.08"/>
<polygon fill="#63b8ff" stroke="#63b8ff" points="956.65,-100.56 966.6,-96.92 956.56,-93.56 956.65,-100.56"/>
</a>
</g>
</g>
<!-- Node19 -->
<g id="Node000019" class="node">
<title>Node19</title>
<g id="a_Node000019"><a xlink:href="classnetspeak_1_1Configuration.html#a7ef4052e920860d82856af52fa329941" target="_top" xlink:title=" ">
<polygon fill="white" stroke="#666666" points="920,-30 787,-30 787,0 920,0 920,-30"/>
<text text-anchor="start" x="795" y="-18" font-family="Helvetica,sans-Serif" font-size="10.00">netspeak::Configuration</text>
<text text-anchor="middle" x="853.5" y="-7" font-family="Helvetica,sans-Serif" font-size="10.00">::get_required_bool</text>
</a>
</g>
</g>
<!-- Node13&#45;&gt;Node19 -->
<g id="edge21_Node000013_Node000019" class="edge">
<title>Node13&#45;&gt;Node19</title>
<g id="a_edge21_Node000013_Node000019"><a xlink:title=" ">
<path fill="none" stroke="#63b8ff" d="M990.73,-76.5C969.57,-66.67 943.46,-54.61 920,-44 909.92,-39.44 898.93,-34.54 888.88,-30.1"/>
<polygon fill="#63b8ff" stroke="#63b8ff" points="989.53,-79.8 1000.07,-80.84 992.48,-73.45 989.53,-79.8"/>
</a>
</g>
</g>
<!-- Node20 -->
<g id="Node000020" class="node">
<title>Node20</title>
<g id="a_Node000020"><a xlink:href="classnetspeak_1_1Configuration.html#a178b1a84cf240f11fbf98ba1ab113766" target="_top" xlink:title=" ">
<polygon fill="white" stroke="#666666" points="920,-154 787,-154 787,-124 920,-124 920,-154"/>
<text text-anchor="start" x="795" y="-142" font-family="Helvetica,sans-Serif" font-size="10.00">netspeak::Configuration</text>
<text text-anchor="middle" x="853.5" y="-131" font-family="Helvetica,sans-Serif" font-size="10.00">::get_required_path</text>
</a>
</g>
</g>
<!-- Node13&#45;&gt;Node20 -->
<g id="edge22_Node000013_Node000020" class="edge">
<title>Node13&#45;&gt;Node20</title>
<g id="a_edge22_Node000013_Node000020"><a xlink:title=" ">
<path fill="none" stroke="#63b8ff" d="M960.35,-113.43C945.89,-116.92 930.81,-120.57 916.72,-123.97"/>
<polygon fill="#63b8ff" stroke="#63b8ff" points="961.35,-116.79 970.24,-111.04 959.7,-109.99 961.35,-116.79"/>
</a>
</g>
</g>
<!-- Node22 -->
<g id="Node000022" class="node">
<title>Node22</title>
<g id="a_Node000022"><a xlink:href="namespacecli.html#a8ca98eea6e4afd4f6e6eb96f29fac853" target="_top" xlink:title=" ">
<polygon fill="white" stroke="#666666" points="552,-67.5 439,-67.5 439,-48.5 552,-48.5 552,-67.5"/>
<text text-anchor="middle" x="495.5" y="-55.5" font-family="Helvetica,sans-Serif" font-size="10.00">cli::load_map_entry</text>
</a>
</g>
</g>
<!-- Node13&#45;&gt;Node22 -->
<g id="edge26_Node000013_Node000022" class="edge">
<title>Node13&#45;&gt;Node22</title>
<g id="a_edge26_Node000013_Node000022"><a xlink:title=" ">
<path fill="none" stroke="#63b8ff" d="M956.5,-90.61C847.35,-82.87 648.75,-68.79 552.19,-61.95"/>
<polygon fill="#63b8ff" stroke="#63b8ff" points="956.55,-94.12 966.78,-91.34 957.05,-87.14 956.55,-94.12"/>
</a>
</g>
</g>
<!-- Node15 -->
<g id="Node000015" class="node">
<title>Node15</title>
<g id="a_Node000015"><a xlink:href="classnetspeak_1_1Configuration.html#a7df6bab59598b039e18f637a9558fb83" target="_top" xlink:title=" ">
<polygon fill="white" stroke="#666666" points="562,-116 429,-116 429,-86 562,-86 562,-116"/>
<text text-anchor="start" x="437" y="-104" font-family="Helvetica,sans-Serif" font-size="10.00">netspeak::Configuration</text>
<text text-anchor="middle" x="495.5" y="-93" font-family="Helvetica,sans-Serif" font-size="10.00">::extend</text>
</a>
</g>
</g>
<!-- Node14&#45;&gt;Node15 -->
<g id="edge17_Node000014_Node000015" class="edge">
<title>Node14&#45;&gt;Node15</title>
<g id="a_edge17_Node000014_Node000015"><a xlink:title=" ">
<path fill="none" stroke="#63b8ff" d="M597.56,-101C585.74,-101 573.61,-101 562.05,-101"/>
<polygon fill="#63b8ff" stroke="#63b8ff" points="597.84,-104.5 607.84,-101 597.84,-97.5 597.84,-104.5"/>
</a>
</g>
</g>
<!-- Node16 -->
<g id="Node000016" class="node">
<title>Node16</title>
<g id="a_Node000016"><a xlink:href="namespacecli.html#a1675ea763b94dad279faca801dceccc9" target="_top" xlink:title=" ">
<polygon fill="white" stroke="#666666" points="393,-108.5 304,-108.5 304,-89.5 393,-89.5 393,-108.5"/>
<text text-anchor="middle" x="348.5" y="-96.5" font-family="Helvetica,sans-Serif" font-size="10.00">cli::load_config</text>
</a>
</g>
</g>
<!-- Node15&#45;&gt;Node16 -->
<g id="edge18_Node000015_Node000016" class="edge">
<title>Node15&#45;&gt;Node16</title>
<g id="a_edge18_Node000015_Node000016"><a xlink:title=" ">
<path fill="none" stroke="#63b8ff" d="M418.64,-99.95C410,-99.83 401.42,-99.72 393.4,-99.61"/>
<polygon fill="#63b8ff" stroke="#63b8ff" points="418.74,-103.46 428.79,-100.09 418.84,-96.46 418.74,-103.46"/>
</a>
</g>
</g>
<!-- Node17 -->
<g id="Node000017" class="node">
<title>Node17</title>
<g id="a_Node000017"><a xlink:href="namespacecli.html#aaed351e7f1f43640bec2125f822b5ec7" target="_top" xlink:title=" ">
<polygon fill="white" stroke="#666666" points="268,-88.5 170,-88.5 170,-69.5 268,-69.5 268,-88.5"/>
<text text-anchor="middle" x="219" y="-76.5" font-family="Helvetica,sans-Serif" font-size="10.00">cli::build_service</text>
</a>
</g>
</g>
<!-- Node16&#45;&gt;Node17 -->
<g id="edge19_Node000016_Node000017" class="edge">
<title>Node16&#45;&gt;Node17</title>
<g id="a_edge19_Node000016_Node000017"><a xlink:title=" ">
<path fill="none" stroke="#63b8ff" d="M294.04,-90.61C285.45,-89.27 276.6,-87.88 268.13,-86.55"/>
<polygon fill="#63b8ff" stroke="#63b8ff" points="293.56,-94.08 303.98,-92.17 294.64,-87.17 293.56,-94.08"/>
</a>
</g>
</g>
<!-- Node18 -->
<g id="Node000018" class="node">
<title>Node18</title>
<g id="a_Node000018"><a xlink:href="classcli_1_1ServeCommand.html#ae9d12b8532a97a743fdc831040ee45c1" target="_top" xlink:title=" ">
<polygon fill="white" stroke="#666666" points="134,-88.5 0,-88.5 0,-69.5 134,-69.5 134,-88.5"/>
<text text-anchor="middle" x="67" y="-76.5" font-family="Helvetica,sans-Serif" font-size="10.00">cli::ServeCommand::run</text>
</a>
</g>
</g>
<!-- Node17&#45;&gt;Node18 -->
<g id="edge20_Node000017_Node000018" class="edge">
<title>Node17&#45;&gt;Node18</title>
<g id="a_edge20_Node000017_Node000018"><a xlink:title=" ">
<path fill="none" stroke="#63b8ff" d="M159.71,-79C151.36,-79 142.72,-79 134.24,-79"/>
<polygon fill="#63b8ff" stroke="#63b8ff" points="159.71,-82.5 169.71,-79 159.71,-75.5 159.71,-82.5"/>
</a>
</g>
</g>
<!-- Node20&#45;&gt;Node9 -->
<g id="edge24_Node000020_Node000009" class="edge">
<title>Node20&#45;&gt;Node9</title>
<g id="a_edge24_Node000020_Node000009"><a xlink:title=" ">
<path fill="none" stroke="#63b8ff" d="M807.89,-158.35C800.87,-161.51 793.71,-164.8 787,-168 758.54,-181.56 726.55,-198.05 704.16,-209.79"/>
<polygon fill="#63b8ff" stroke="#63b8ff" points="809.62,-161.41 817.32,-154.14 806.76,-155.02 809.62,-161.41"/>
</a>
</g>
</g>
<!-- Node20&#45;&gt;Node14 -->
<g id="edge23_Node000020_Node000014" class="edge">
<title>Node20&#45;&gt;Node14</title>
<g id="a_edge23_Node000020_Node000014"><a xlink:title=" ">
<path fill="none" stroke="#63b8ff" d="M776.92,-122.77C764.98,-120.21 752.73,-117.58 741.05,-115.07"/>
<polygon fill="#63b8ff" stroke="#63b8ff" points="776.33,-126.23 786.84,-124.9 777.8,-119.38 776.33,-126.23"/>
</a>
</g>
</g>
<!-- Node21 -->
<g id="Node000021" class="node">
<title>Node21</title>
<g id="a_Node000021"><a xlink:href="classnetspeak_1_1RetrievalStrategy_3_01RetrievalStrategy3Tag_01_4.html#a2caa474eae2060143eb6ad2769f93a6d" target="_top" xlink:title=" ">
<polygon fill="white" stroke="#666666" points="751,-175.5 598,-175.5 598,-134.5 751,-134.5 751,-175.5"/>
<text text-anchor="start" x="606" y="-163.5" font-family="Helvetica,sans-Serif" font-size="10.00">netspeak::RetrievalStrategy</text>
<text text-anchor="start" x="606" y="-152.5" font-family="Helvetica,sans-Serif" font-size="10.00">&lt; RetrievalStrategy3Tag</text>
<text text-anchor="middle" x="674.5" y="-141.5" font-family="Helvetica,sans-Serif" font-size="10.00"> &gt;::initialize</text>
</a>
</g>
</g>
<!-- Node20&#45;&gt;Node21 -->
<g id="edge25_Node000020_Node000021" class="edge">
<title>Node20&#45;&gt;Node21</title>
<g id="a_edge25_Node000020_Node000021"><a xlink:title=" ">
<path fill="none" stroke="#63b8ff" d="M776.66,-145.86C768.22,-146.62 759.63,-147.39 751.2,-148.16"/>
<polygon fill="#63b8ff" stroke="#63b8ff" points="777.2,-149.32 786.84,-144.94 776.57,-142.35 777.2,-149.32"/>
</a>
</g>
</g>
<!-- Node22&#45;&gt;Node17 -->
<g id="edge27_Node000022_Node000017" class="edge">
<title>Node22&#45;&gt;Node17</title>
<g id="a_edge27_Node000022_Node000017"><a xlink:title=" ">
<path fill="none" stroke="#63b8ff" d="M428.68,-63.04C379.24,-66.82 312.66,-71.91 268.13,-75.32"/>
<polygon fill="#63b8ff" stroke="#63b8ff" points="429.25,-66.5 438.95,-62.25 428.71,-59.52 429.25,-66.5"/>
</a>
</g>
</g>
<!-- Node23&#45;&gt;Node3 -->
<g id="edge29_Node000023_Node000003" class="edge">
<title>Node23&#45;&gt;Node3</title>
<g id="a_edge29_Node000023_Node000003"><a xlink:title=" ">
<path fill="none" stroke="#63b8ff" d="M1146.79,-333.72C1128.17,-338.74 1108.09,-344.15 1090.13,-349"/>
<polygon fill="#63b8ff" stroke="#63b8ff" points="1147.92,-337.04 1156.67,-331.06 1146.1,-330.28 1147.92,-337.04"/>
</a>
</g>
</g>
<!-- Node23&#45;&gt;Node4 -->
<g id="edge30_Node000023_Node000004" class="edge">
<title>Node23&#45;&gt;Node4</title>
<g id="a_edge30_Node000023_Node000004"><a xlink:title=" ">
<path fill="none" stroke="#63b8ff" d="M1136.84,-316C1124.65,-316 1112.11,-316 1100.18,-316"/>
<polygon fill="#63b8ff" stroke="#63b8ff" points="1136.98,-319.5 1146.98,-316 1136.98,-312.5 1136.98,-319.5"/>
</a>
</g>
</g>
</g>
</svg>
