<?xml version="1.0" encoding="UTF-8" standalone="no"?>
<!DOCTYPE svg PUBLIC "-//W3C//DTD SVG 1.1//EN"
 "http://www.w3.org/Graphics/SVG/1.1/DTD/svg11.dtd">
<!-- Generated by graphviz version 2.43.0 (0)
 -->
<!-- Title: netspeak::invertedindex::InvertedFileReader::read Pages: 1 -->
<svg width="486pt" height="134pt"
 viewBox="0.00 0.00 486.00 134.00" xmlns="http://www.w3.org/2000/svg" xmlns:xlink="http://www.w3.org/1999/xlink">
<g id="graph0" class="graph" transform="scale(1 1) rotate(0) translate(4 130)">
<title>netspeak::invertedindex::InvertedFileReader::read</title>
<!-- Node1 -->
<g id="Node000001" class="node">
<title>Node1</title>
<g id="a_Node000001"><a xlink:title=" ">
<polygon fill="#999999" stroke="#666666" points="143,-78 0,-78 0,-48 143,-48 143,-78"/>
<text text-anchor="start" x="8" y="-66" font-family="Helvetica,sans-Serif" font-size="10.00">netspeak::invertedindex</text>
<text text-anchor="middle" x="71.5" y="-55" font-family="Helvetica,sans-Serif" font-size="10.00">::InvertedFileReader::read</text>
</a>
</g>
</g>
<!-- Node2 -->
<g id="Node000002" class="node">
<title>Node2</title>
<g id="a_Node000002"><a xlink:href="classnetspeak_1_1invertedindex_1_1Record.html#a8c31f71f3940ea11d85fbfca276f0eca" target="_top" xlink:title=" ">
<polygon fill="white" stroke="#666666" points="314,-126 179,-126 179,-96 314,-96 314,-126"/>
<text text-anchor="start" x="187" y="-114" font-family="Helvetica,sans-Serif" font-size="10.00">netspeak::invertedindex</text>
<text text-anchor="middle" x="246.5" y="-103" font-family="Helvetica,sans-Serif" font-size="10.00">::Record::key</text>
</a>
</g>
</g>
<!-- Node1&#45;&gt;Node2 -->
<g id="edge1_Node000001_Node000002" class="edge">
<title>Node1&#45;&gt;Node2</title>
<g id="a_edge1_Node000001_Node000002"><a xlink:title=" ">
<path fill="none" stroke="#63b8ff" d="M126.76,-78.06C144.15,-82.88 163.57,-88.27 181.59,-93.27"/>
<polygon fill="#63b8ff" stroke="#63b8ff" points="180.86,-96.7 191.43,-96 182.73,-89.95 180.86,-96.7"/>
</a>
</g>
</g>
<!-- Node3 -->
<g id="Node000003" class="node">
<title>Node3</title>
<g id="a_Node000003"><a xlink:href="structnetspeak_1_1value_1_1value__traits.html#ac31a9953614e416777f4652b215bd560" target="_top" xlink:title=" ">
<polygon fill="white" stroke="#666666" points="310.5,-78 182.5,-78 182.5,-48 310.5,-48 310.5,-78"/>
<text text-anchor="start" x="190.5" y="-66" font-family="Helvetica,sans-Serif" font-size="10.00">netspeak::value::value</text>
<text text-anchor="middle" x="246.5" y="-55" font-family="Helvetica,sans-Serif" font-size="10.00">_traits::parse_from</text>
</a>
</g>
</g>
<!-- Node1&#45;&gt;Node3 -->
<g id="edge2_Node000001_Node000003" class="edge">
<title>Node1&#45;&gt;Node3</title>
<g id="a_edge2_Node000001_Node000003"><a xlink:title=" ">
<path fill="none" stroke="#63b8ff" d="M143.36,-63C152.82,-63 162.54,-63 172.04,-63"/>
<polygon fill="#63b8ff" stroke="#63b8ff" points="172.24,-66.5 182.24,-63 172.24,-59.5 172.24,-66.5"/>
</a>
</g>
</g>
<!-- Node5 -->
<g id="Node000005" class="node">
<title>Node5</title>
<g id="a_Node000005"><a xlink:href="classnetspeak_1_1invertedindex_1_1Record.html#a0d49817e43096fd3bb77cef8c1a42dd5" target="_top" xlink:title=" ">
<polygon fill="white" stroke="#666666" points="314,-30 179,-30 179,0 314,0 314,-30"/>
<text text-anchor="start" x="187" y="-18" font-family="Helvetica,sans-Serif" font-size="10.00">netspeak::invertedindex</text>
<text text-anchor="middle" x="246.5" y="-7" font-family="Helvetica,sans-Serif" font-size="10.00">::Record::value</text>
</a>
</g>
</g>
<!-- Node1&#45;&gt;Node5 -->
<g id="edge4_Node000001_Node000005" class="edge">
<title>Node1&#45;&gt;Node5</title>
<g id="a_edge4_Node000001_Node000005"><a xlink:title=" ">
<path fill="none" stroke="#63b8ff" d="M126.76,-47.94C144.15,-43.12 163.57,-37.73 181.59,-32.73"/>
<polygon fill="#63b8ff" stroke="#63b8ff" points="182.73,-36.05 191.43,-30 180.86,-29.3 182.73,-36.05"/>
</a>
</g>
</g>
<!-- Node4 -->
<g id="Node000004" class="node">
<title>Node4</title>
<g id="a_Node000004"><a xlink:href="structnetspeak_1_1value_1_1value__traits.html#aeb2c7518229319929894df4e71b39790" target="_top" xlink:title=" ">
<polygon fill="white" stroke="#666666" points="478,-78 350,-78 350,-48 478,-48 478,-78"/>
<text text-anchor="start" x="358" y="-66" font-family="Helvetica,sans-Serif" font-size="10.00">netspeak::value::value</text>
<text text-anchor="middle" x="414" y="-55" font-family="Helvetica,sans-Serif" font-size="10.00">_traits::type_name</text>
</a>
</g>
</g>
<!-- Node3&#45;&gt;Node4 -->
<g id="edge3_Node000003_Node000004" class="edge">
<title>Node3&#45;&gt;Node4</title>
<g id="a_edge3_Node000003_Node000004"><a xlink:title=" ">
<path fill="none" stroke="#63b8ff" d="M310.54,-63C320.1,-63 330.03,-63 339.79,-63"/>
<polygon fill="#63b8ff" stroke="#63b8ff" points="339.86,-66.5 349.86,-63 339.86,-59.5 339.86,-66.5"/>
</a>
</g>
</g>
</g>
</svg>
