<?xml version="1.0" encoding="UTF-8" standalone="no"?>
<!DOCTYPE svg PUBLIC "-//W3C//DTD SVG 1.1//EN"
 "http://www.w3.org/Graphics/SVG/1.1/DTD/svg11.dtd">
<!-- Generated by graphviz version 2.43.0 (0)
 -->
<!-- Title: netspeak::regex::DefaultRegexIndex Pages: 1 -->
<svg width="167pt" height="419pt"
 viewBox="0.00 0.00 167.00 419.00" xmlns="http://www.w3.org/2000/svg" xmlns:xlink="http://www.w3.org/1999/xlink">
<g id="graph0" class="graph" transform="scale(1 1) rotate(0) translate(4 415)">
<title>netspeak::regex::DefaultRegexIndex</title>
<!-- Node1 -->
<g id="Node000001" class="node">
<title>Node1</title>
<g id="a_Node000001"><a xlink:title=" ">
<polygon fill="#999999" stroke="transparent" points="159,-311 0,-311 0,0 159,0 159,-311"/>
<text text-anchor="start" x="19.5" y="-298.5" font-family="Helvetica,sans-Serif" font-size="10.00">netspeak::regex::Default</text>
<text text-anchor="start" x="51" y="-287.5" font-family="Helvetica,sans-Serif" font-size="10.00">RegexIndex</text>
<text text-anchor="start" x="7" y="-272.5" font-family="Helvetica,sans-Serif" font-size="10.00">&#45;</text>
<text text-anchor="start" x="17.5" y="-272.5" font-family="Helvetica,sans-Serif" font-size="10.00">vocabulary_</text>
<text text-anchor="start" x="7" y="-257.5" font-family="Helvetica,sans-Serif" font-size="10.00">&#45;</text>
<text text-anchor="start" x="17.5" y="-257.5" font-family="Helvetica,sans-Serif" font-size="10.00">words_</text>
<text text-anchor="start" x="7" y="-242.5" font-family="Helvetica,sans-Serif" font-size="10.00">&#45;</text>
<text text-anchor="start" x="17.5" y="-242.5" font-family="Helvetica,sans-Serif" font-size="10.00">all_chars_</text>
<text text-anchor="start" x="7" y="-227.5" font-family="Helvetica,sans-Serif" font-size="10.00">&#45;</text>
<text text-anchor="start" x="17.5" y="-227.5" font-family="Helvetica,sans-Serif" font-size="10.00">word_hash_table_</text>
<text text-anchor="start" x="4.5" y="-212.5" font-family="Helvetica,sans-Serif" font-size="10.00">+</text>
<text text-anchor="start" x="17.5" y="-212.5" font-family="Helvetica,sans-Serif" font-size="10.00">DefaultRegexIndex()</text>
<text text-anchor="start" x="4.5" y="-197.5" font-family="Helvetica,sans-Serif" font-size="10.00">+</text>
<text text-anchor="start" x="17.5" y="-197.5" font-family="Helvetica,sans-Serif" font-size="10.00">DefaultRegexIndex()</text>
<text text-anchor="start" x="4.5" y="-182.5" font-family="Helvetica,sans-Serif" font-size="10.00">+</text>
<text text-anchor="start" x="17.5" y="-182.5" font-family="Helvetica,sans-Serif" font-size="10.00">~DefaultRegexIndex()</text>
<text text-anchor="start" x="4.5" y="-167.5" font-family="Helvetica,sans-Serif" font-size="10.00">+</text>
<text text-anchor="start" x="17.5" y="-167.5" font-family="Helvetica,sans-Serif" font-size="10.00">vocabulary()</text>
<text text-anchor="start" x="4.5" y="-152.5" font-family="Helvetica,sans-Serif" font-size="10.00">+</text>
<text text-anchor="start" x="17.5" y="-152.5" font-family="Helvetica,sans-Serif" font-size="10.00">match_query()</text>
<text text-anchor="start" x="7" y="-137.5" font-family="Helvetica,sans-Serif" font-size="10.00">&#45;</text>
<text text-anchor="start" x="17.5" y="-137.5" font-family="Helvetica,sans-Serif" font-size="10.00">initialize_words()</text>
<text text-anchor="start" x="7" y="-122.5" font-family="Helvetica,sans-Serif" font-size="10.00">&#45;</text>
<text text-anchor="start" x="17.5" y="-122.5" font-family="Helvetica,sans-Serif" font-size="10.00">initialize_all_chars()</text>
<text text-anchor="start" x="7" y="-107.5" font-family="Helvetica,sans-Serif" font-size="10.00">&#45;</text>
<text text-anchor="start" x="17.5" y="-107.5" font-family="Helvetica,sans-Serif" font-size="10.00">initialize_word_hash</text>
<text text-anchor="start" x="17.5" y="-96.5" font-family="Helvetica,sans-Serif" font-size="10.00">_table()</text>
<text text-anchor="start" x="7" y="-81.5" font-family="Helvetica,sans-Serif" font-size="10.00">&#45;</text>
<text text-anchor="start" x="17.5" y="-81.5" font-family="Helvetica,sans-Serif" font-size="10.00">word_from_entry()</text>
<text text-anchor="start" x="7" y="-66.5" font-family="Helvetica,sans-Serif" font-size="10.00">&#45;</text>
<text text-anchor="start" x="17.5" y="-66.5" font-family="Helvetica,sans-Serif" font-size="10.00">word_at_index()</text>
<text text-anchor="start" x="7" y="-51.5" font-family="Helvetica,sans-Serif" font-size="10.00">&#45;</text>
<text text-anchor="start" x="17.5" y="-51.5" font-family="Helvetica,sans-Serif" font-size="10.00">find_word()</text>
<text text-anchor="start" x="7" y="-36.5" font-family="Helvetica,sans-Serif" font-size="10.00">&#45;</text>
<text text-anchor="start" x="17.5" y="-36.5" font-family="Helvetica,sans-Serif" font-size="10.00">optimize_query()</text>
<text text-anchor="start" x="7" y="-21.5" font-family="Helvetica,sans-Serif" font-size="10.00">&#45;</text>
<text text-anchor="start" x="17.5" y="-21.5" font-family="Helvetica,sans-Serif" font-size="10.00">match_query_hash_lookup()</text>
<text text-anchor="start" x="7" y="-6.5" font-family="Helvetica,sans-Serif" font-size="10.00">&#45;</text>
<text text-anchor="start" x="17.5" y="-6.5" font-family="Helvetica,sans-Serif" font-size="10.00">match_query_regex()</text>
<polygon fill="#666666" stroke="#666666" points="0.5,-282.5 0.5,-282.5 159.5,-282.5 159.5,-282.5 0.5,-282.5"/>
<polygon fill="#666666" stroke="#666666" points="0.5,-222.5 0.5,-222.5 15.5,-222.5 15.5,-222.5 0.5,-222.5"/>
<polygon fill="#666666" stroke="#666666" points="15.5,-222.5 15.5,-222.5 159.5,-222.5 159.5,-222.5 15.5,-222.5"/>
<polygon fill="none" stroke="#666666" points="0,0 0,-311 159,-311 159,0 0,0"/>
</a>
</g>
</g>
<!-- Node2 -->
<g id="Node000002" class="node">
<title>Node2</title>
<g id="a_Node000002"><a xlink:href="classnetspeak_1_1regex_1_1RegexIndex.html" target="_top" xlink:title=" ">
<polygon fill="white" stroke="transparent" points="156,-411 3,-411 3,-347 156,-347 156,-411"/>
<text text-anchor="start" x="8.5" y="-399" font-family="Helvetica,sans-Serif" font-size="10.00">netspeak::regex::RegexIndex</text>
<text text-anchor="start" x="78" y="-384" font-family="Helvetica,sans-Serif" font-size="10.00"> </text>
<text text-anchor="start" x="22" y="-369" font-family="Helvetica,sans-Serif" font-size="10.00">+</text>
<text text-anchor="start" x="49.5" y="-369" font-family="Helvetica,sans-Serif" font-size="10.00">~RegexIndex()</text>
<text text-anchor="start" x="22" y="-354" font-family="Helvetica,sans-Serif" font-size="10.00">+</text>
<text text-anchor="start" x="49.5" y="-354" font-family="Helvetica,sans-Serif" font-size="10.00">match_query()</text>
<polygon fill="#666666" stroke="#666666" points="3.5,-394 3.5,-394 156.5,-394 156.5,-394 3.5,-394"/>
<polygon fill="#666666" stroke="#666666" points="3.5,-379 3.5,-379 156.5,-379 156.5,-379 3.5,-379"/>
<polygon fill="none" stroke="#666666" points="3,-347 3,-411 156,-411 156,-347 3,-347"/>
</a>
</g>
</g>
<!-- Node2&#45;&gt;Node1 -->
<g id="edge1_Node000001_Node000002" class="edge">
<title>Node2&#45;&gt;Node1</title>
<g id="a_edge1_Node000001_Node000002"><a xlink:title=" ">
<path fill="none" stroke="#63b8ff" d="M79.5,-336.59C79.5,-328.77 79.5,-320.19 79.5,-311.14"/>
<polygon fill="none" stroke="#63b8ff" points="76,-336.73 79.5,-346.73 83,-336.73 76,-336.73"/>
</a>
</g>
</g>
</g>
</svg>
