<?xml version="1.0" encoding="UTF-8" standalone="no"?>
<!DOCTYPE svg PUBLIC "-//W3C//DTD SVG 1.1//EN"
 "http://www.w3.org/Graphics/SVG/1.1/DTD/svg11.dtd">
<!-- Generated by graphviz version 2.43.0 (0)
 -->
<!-- Title: cli::ServeCommand::run Pages: 1 -->
<svg width="1603pt" height="190pt"
 viewBox="0.00 0.00 1603.00 189.50" xmlns="http://www.w3.org/2000/svg" xmlns:xlink="http://www.w3.org/1999/xlink">
<g id="graph0" class="graph" transform="scale(1 1) rotate(0) translate(4 185.5)">
<title>cli::ServeCommand::run</title>
<!-- Node1 -->
<g id="Node000001" class="node">
<title>Node1</title>
<g id="a_Node000001"><a xlink:title=" ">
<polygon fill="#999999" stroke="#666666" points="134,-107.5 0,-107.5 0,-88.5 134,-88.5 134,-107.5"/>
<text text-anchor="middle" x="67" y="-95.5" font-family="Helvetica,sans-Serif" font-size="10.00">cli::ServeCommand::run</text>
</a>
</g>
</g>
<!-- Node2 -->
<g id="Node000002" class="node">
<title>Node2</title>
<g id="a_Node000002"><a xlink:href="namespacecli.html#abce6dd7d1d2d3a60550506a724548cb0" target="_top" xlink:title=" ">
<polygon fill="white" stroke="#666666" points="265.5,-126.5 172.5,-126.5 172.5,-107.5 265.5,-107.5 265.5,-126.5"/>
<text text-anchor="middle" x="219" y="-114.5" font-family="Helvetica,sans-Serif" font-size="10.00">cli::add_logging</text>
</a>
</g>
</g>
<!-- Node1&#45;&gt;Node2 -->
<g id="edge1_Node000001_Node000002" class="edge">
<title>Node1&#45;&gt;Node2</title>
<g id="a_edge1_Node000001_Node000002"><a xlink:title=" ">
<path fill="none" stroke="#63b8ff" d="M134.23,-106.39C143.58,-107.57 153.12,-108.78 162.24,-109.94"/>
<polygon fill="#63b8ff" stroke="#63b8ff" points="161.99,-113.43 172.35,-111.22 162.86,-106.49 161.99,-113.43"/>
</a>
</g>
</g>
<!-- Node3 -->
<g id="Node000003" class="node">
<title>Node3</title>
<g id="a_Node000003"><a xlink:href="namespacecli.html#aaed351e7f1f43640bec2125f822b5ec7" target="_top" xlink:title=" ">
<polygon fill="white" stroke="#666666" points="268,-89.5 170,-89.5 170,-70.5 268,-70.5 268,-89.5"/>
<text text-anchor="middle" x="219" y="-77.5" font-family="Helvetica,sans-Serif" font-size="10.00">cli::build_service</text>
</a>
</g>
</g>
<!-- Node1&#45;&gt;Node3 -->
<g id="edge2_Node000001_Node000003" class="edge">
<title>Node1&#45;&gt;Node3</title>
<g id="a_edge2_Node000001_Node000003"><a xlink:title=" ">
<path fill="none" stroke="#63b8ff" d="M134.23,-90.05C142.71,-89.03 151.34,-88 159.69,-87"/>
<polygon fill="#63b8ff" stroke="#63b8ff" points="160.18,-90.46 169.69,-85.8 159.34,-83.51 160.18,-90.46"/>
</a>
</g>
</g>
<!-- Node4 -->
<g id="Node000004" class="node">
<title>Node4</title>
<g id="a_Node000004"><a xlink:href="namespacenetspeak_1_1util.html#a8e27bcf5cdb31778352813d6b2e0bbb3" target="_top" xlink:title=" ">
<polygon fill="white" stroke="#666666" points="1249.5,-163.5 1139.5,-163.5 1139.5,-144.5 1249.5,-144.5 1249.5,-163.5"/>
<text text-anchor="middle" x="1194.5" y="-151.5" font-family="Helvetica,sans-Serif" font-size="10.00">netspeak::util::glob</text>
</a>
</g>
</g>
<!-- Node3&#45;&gt;Node4 -->
<g id="edge3_Node000003_Node000004" class="edge">
<title>Node3&#45;&gt;Node4</title>
<g id="a_edge3_Node000003_Node000004"><a xlink:title=" ">
<path fill="none" stroke="#63b8ff" d="M245.63,-89.55C252.92,-92.43 260.84,-95.7 268,-99 284.44,-106.56 287.05,-111.66 304,-118 395.28,-152.13 420.04,-168 517.5,-168 517.5,-168 517.5,-168 857.5,-168 952.18,-168 1061.75,-162.38 1129.34,-158.26"/>
<polygon fill="#63b8ff" stroke="#63b8ff" points="1129.64,-161.75 1139.41,-157.64 1129.21,-154.76 1129.64,-161.75"/>
</a>
</g>
</g>
<!-- Node6 -->
<g id="Node000006" class="node">
<title>Node6</title>
<g id="a_Node000006"><a xlink:href="namespacecli.html#a1675ea763b94dad279faca801dceccc9" target="_top" xlink:title=" ">
<polygon fill="white" stroke="#666666" points="404.5,-108.5 315.5,-108.5 315.5,-89.5 404.5,-89.5 404.5,-108.5"/>
<text text-anchor="middle" x="360" y="-96.5" font-family="Helvetica,sans-Serif" font-size="10.00">cli::load_config</text>
</a>
</g>
</g>
<!-- Node3&#45;&gt;Node6 -->
<g id="edge6_Node000003_Node000006" class="edge">
<title>Node3&#45;&gt;Node6</title>
<g id="a_edge6_Node000003_Node000006"><a xlink:title=" ">
<path fill="none" stroke="#63b8ff" d="M268.23,-86.59C280.11,-88.22 292.91,-89.97 305.05,-91.63"/>
<polygon fill="#63b8ff" stroke="#63b8ff" points="304.67,-95.11 315.05,-92.99 305.62,-88.17 304.67,-95.11"/>
</a>
</g>
</g>
<!-- Node17 -->
<g id="Node000017" class="node">
<title>Node17</title>
<g id="a_Node000017"><a xlink:href="namespacecli.html#a8ca98eea6e4afd4f6e6eb96f29fac853" target="_top" xlink:title=" ">
<polygon fill="white" stroke="#666666" points="575,-67.5 462,-67.5 462,-48.5 575,-48.5 575,-67.5"/>
<text text-anchor="middle" x="518.5" y="-55.5" font-family="Helvetica,sans-Serif" font-size="10.00">cli::load_map_entry</text>
</a>
</g>
</g>
<!-- Node3&#45;&gt;Node17 -->
<g id="edge20_Node000003_Node000017" class="edge">
<title>Node3&#45;&gt;Node17</title>
<g id="a_edge20_Node000003_Node000017"><a xlink:title=" ">
<path fill="none" stroke="#63b8ff" d="M268.13,-76.44C317.98,-72.75 396.21,-66.97 451.75,-62.86"/>
<polygon fill="#63b8ff" stroke="#63b8ff" points="452.13,-66.34 461.84,-62.12 451.61,-59.36 452.13,-66.34"/>
</a>
</g>
</g>
<!-- Node18 -->
<g id="Node000018" class="node">
<title>Node18</title>
<g id="a_Node000018"><a xlink:href="namespacecli.html#a1c49e488f52e37c743cc98d9786ef921" target="_top" xlink:title=" ">
<polygon fill="white" stroke="#666666" points="416,-28.5 304,-28.5 304,-9.5 416,-9.5 416,-28.5"/>
<text text-anchor="middle" x="360" y="-16.5" font-family="Helvetica,sans-Serif" font-size="10.00">cli::parse_overrides</text>
</a>
</g>
</g>
<!-- Node3&#45;&gt;Node18 -->
<g id="edge22_Node000003_Node000018" class="edge">
<title>Node3&#45;&gt;Node18</title>
<g id="a_edge22_Node000003_Node000018"><a xlink:title=" ">
<path fill="none" stroke="#63b8ff" d="M241.72,-70.47C264.74,-60.37 301.31,-44.32 327.5,-32.82"/>
<polygon fill="#63b8ff" stroke="#63b8ff" points="329.22,-35.89 336.98,-28.67 326.41,-29.48 329.22,-35.89"/>
</a>
</g>
</g>
<!-- Node4&#45;&gt;Node4 -->
<g id="edge4_Node000004_Node000004" class="edge">
<title>Node4&#45;&gt;Node4</title>
<g id="a_edge4_Node000004_Node000004"><a xlink:title=" ">
<path fill="none" stroke="#63b8ff" d="M1168.61,-163.58C1156.01,-172.23 1164.64,-181.5 1194.5,-181.5 1214.56,-181.5 1225.04,-177.32 1225.94,-171.95"/>
<polygon fill="#63b8ff" stroke="#63b8ff" points="1228.84,-169.99 1220.39,-163.58 1223,-173.85 1228.84,-169.99"/>
</a>
</g>
</g>
<!-- Node5 -->
<g id="Node000005" class="node">
<title>Node5</title>
<g id="a_Node000005"><a xlink:href="namespacenetspeak_1_1util.html#a4c91ad572508b4021399ac7dddff574d" target="_top" xlink:title=" ">
<polygon fill="white" stroke="#666666" points="1591.5,-139.5 1478.5,-139.5 1478.5,-120.5 1591.5,-120.5 1591.5,-139.5"/>
<text text-anchor="middle" x="1535" y="-127.5" font-family="Helvetica,sans-Serif" font-size="10.00">netspeak::util::hash</text>
</a>
</g>
</g>
<!-- Node4&#45;&gt;Node5 -->
<g id="edge5_Node000004_Node000005" class="edge">
<title>Node4&#45;&gt;Node5</title>
<g id="a_edge5_Node000004_Node000005"><a xlink:title=" ">
<path fill="none" stroke="#63b8ff" d="M1249.51,-150.17C1308.92,-145.96 1404.4,-139.19 1468.15,-134.67"/>
<polygon fill="#63b8ff" stroke="#63b8ff" points="1468.77,-138.13 1478.49,-133.94 1468.27,-131.15 1468.77,-138.13"/>
</a>
</g>
</g>
<!-- Node7 -->
<g id="Node000007" class="node">
<title>Node7</title>
<g id="a_Node000007"><a xlink:href="classnetspeak_1_1Configuration.html#a7df6bab59598b039e18f637a9558fb83" target="_top" xlink:title=" ">
<polygon fill="white" stroke="#666666" points="585,-116 452,-116 452,-86 585,-86 585,-116"/>
<text text-anchor="start" x="460" y="-104" font-family="Helvetica,sans-Serif" font-size="10.00">netspeak::Configuration</text>
<text text-anchor="middle" x="518.5" y="-93" font-family="Helvetica,sans-Serif" font-size="10.00">::extend</text>
</a>
</g>
</g>
<!-- Node6&#45;&gt;Node7 -->
<g id="edge7_Node000006_Node000007" class="edge">
<title>Node6&#45;&gt;Node7</title>
<g id="a_edge7_Node000006_Node000007"><a xlink:title=" ">
<path fill="none" stroke="#63b8ff" d="M404.59,-99.56C416.16,-99.7 428.98,-99.87 441.72,-100.03"/>
<polygon fill="#63b8ff" stroke="#63b8ff" points="441.85,-103.53 451.89,-100.16 441.94,-96.53 441.85,-103.53"/>
</a>
</g>
</g>
<!-- Node8 -->
<g id="Node000008" class="node">
<title>Node8</title>
<g id="a_Node000008"><a xlink:href="classnetspeak_1_1Configuration.html#a7de647fad059409f4a66618e5372c758" target="_top" xlink:title=" ">
<polygon fill="white" stroke="#666666" points="754,-140 621,-140 621,-110 754,-110 754,-140"/>
<text text-anchor="start" x="629" y="-128" font-family="Helvetica,sans-Serif" font-size="10.00">netspeak::Configuration</text>
<text text-anchor="middle" x="687.5" y="-117" font-family="Helvetica,sans-Serif" font-size="10.00">::Configuration</text>
</a>
</g>
</g>
<!-- Node7&#45;&gt;Node8 -->
<g id="edge8_Node000007_Node000008" class="edge">
<title>Node7&#45;&gt;Node8</title>
<g id="a_edge8_Node000007_Node000008"><a xlink:title=" ">
<path fill="none" stroke="#63b8ff" d="M585.02,-110.42C593.5,-111.63 602.23,-112.89 610.85,-114.13"/>
<polygon fill="#63b8ff" stroke="#63b8ff" points="610.5,-117.61 620.89,-115.57 611.49,-110.68 610.5,-117.61"/>
</a>
</g>
</g>
<!-- Node9 -->
<g id="Node000009" class="node">
<title>Node9</title>
<g id="a_Node000009"><a xlink:href="classnetspeak_1_1Configuration.html#ac63101c63ef3cb005f881833757c121d" target="_top" xlink:title=" ">
<polygon fill="white" stroke="#666666" points="754,-92 621,-92 621,-62 754,-62 754,-92"/>
<text text-anchor="start" x="629" y="-80" font-family="Helvetica,sans-Serif" font-size="10.00">netspeak::Configuration</text>
<text text-anchor="middle" x="687.5" y="-69" font-family="Helvetica,sans-Serif" font-size="10.00">::full_config</text>
</a>
</g>
</g>
<!-- Node7&#45;&gt;Node9 -->
<g id="edge9_Node000007_Node000009" class="edge">
<title>Node7&#45;&gt;Node9</title>
<g id="a_edge9_Node000007_Node000009"><a xlink:title=" ">
<path fill="none" stroke="#63b8ff" d="M585.02,-91.58C593.5,-90.37 602.23,-89.11 610.85,-87.87"/>
<polygon fill="#63b8ff" stroke="#63b8ff" points="611.49,-91.32 620.89,-86.43 610.5,-84.39 611.49,-91.32"/>
</a>
</g>
</g>
<!-- Node10 -->
<g id="Node000010" class="node">
<title>Node10</title>
<g id="a_Node000010"><a xlink:href="classnetspeak_1_1Configuration.html#a3244253bdf9a9d68c88c5bcdea25db2a" target="_top" xlink:title=" ">
<polygon fill="white" stroke="#666666" points="1092,-73 959,-73 959,-43 1092,-43 1092,-73"/>
<text text-anchor="start" x="967" y="-61" font-family="Helvetica,sans-Serif" font-size="10.00">netspeak::Configuration</text>
<text text-anchor="middle" x="1025.5" y="-50" font-family="Helvetica,sans-Serif" font-size="10.00">::get_required</text>
</a>
</g>
</g>
<!-- Node9&#45;&gt;Node10 -->
<g id="edge10_Node000009_Node000010" class="edge">
<title>Node9&#45;&gt;Node10</title>
<g id="a_edge10_Node000009_Node000010"><a xlink:title=" ">
<path fill="none" stroke="#63b8ff" d="M741.82,-61.94C757.23,-58.26 774.17,-54.85 790,-53 842.74,-46.85 902.59,-48.26 948.62,-51.13"/>
<polygon fill="#63b8ff" stroke="#63b8ff" points="948.61,-54.63 958.82,-51.8 949.07,-47.65 948.61,-54.63"/>
</a>
</g>
</g>
<!-- Node14 -->
<g id="Node000014" class="node">
<title>Node14</title>
<g id="a_Node000014"><a xlink:href="classnetspeak_1_1Configuration.html#a178b1a84cf240f11fbf98ba1ab113766" target="_top" xlink:title=" ">
<polygon fill="white" stroke="#666666" points="923,-140 790,-140 790,-110 923,-110 923,-140"/>
<text text-anchor="start" x="798" y="-128" font-family="Helvetica,sans-Serif" font-size="10.00">netspeak::Configuration</text>
<text text-anchor="middle" x="856.5" y="-117" font-family="Helvetica,sans-Serif" font-size="10.00">::get_required_path</text>
</a>
</g>
</g>
<!-- Node9&#45;&gt;Node14 -->
<g id="edge16_Node000009_Node000014" class="edge">
<title>Node9&#45;&gt;Node14</title>
<g id="a_edge16_Node000009_Node000014"><a xlink:title=" ">
<path fill="none" stroke="#63b8ff" d="M740.88,-92.06C757.51,-96.84 776.07,-102.17 793.32,-107.13"/>
<polygon fill="#63b8ff" stroke="#63b8ff" points="792.73,-110.6 803.3,-110 794.66,-103.87 792.73,-110.6"/>
</a>
</g>
</g>
<!-- Node16 -->
<g id="Node000016" class="node">
<title>Node16</title>
<g id="a_Node000016"><a xlink:href="classnetspeak_1_1Configuration.html#a859de4b34a67ec88117409c9eb0bcc99" target="_top" xlink:title=" ">
<polygon fill="white" stroke="#666666" points="923,-92 790,-92 790,-62 923,-62 923,-92"/>
<text text-anchor="start" x="798" y="-80" font-family="Helvetica,sans-Serif" font-size="10.00">netspeak::Configuration</text>
<text text-anchor="middle" x="856.5" y="-69" font-family="Helvetica,sans-Serif" font-size="10.00">::keys</text>
</a>
</g>
</g>
<!-- Node9&#45;&gt;Node16 -->
<g id="edge19_Node000009_Node000016" class="edge">
<title>Node9&#45;&gt;Node16</title>
<g id="a_edge19_Node000009_Node000016"><a xlink:title=" ">
<path fill="none" stroke="#63b8ff" d="M754.02,-77C762.5,-77 771.23,-77 779.85,-77"/>
<polygon fill="#63b8ff" stroke="#63b8ff" points="779.89,-80.5 789.89,-77 779.89,-73.5 779.89,-80.5"/>
</a>
</g>
</g>
<!-- Node11 -->
<g id="Node000011" class="node">
<title>Node11</title>
<g id="a_Node000011"><a xlink:href="classnetspeak_1_1Configuration.html#aff9301d99209481a48c20c33a15de752" target="_top" xlink:title=" ">
<polygon fill="white" stroke="#666666" points="1261,-78 1128,-78 1128,-48 1261,-48 1261,-78"/>
<text text-anchor="start" x="1136" y="-66" font-family="Helvetica,sans-Serif" font-size="10.00">netspeak::Configuration</text>
<text text-anchor="middle" x="1194.5" y="-55" font-family="Helvetica,sans-Serif" font-size="10.00">::get_optional</text>
</a>
</g>
</g>
<!-- Node10&#45;&gt;Node11 -->
<g id="edge11_Node000010_Node000011" class="edge">
<title>Node10&#45;&gt;Node11</title>
<g id="a_edge11_Node000010_Node000011"><a xlink:title=" ">
<path fill="none" stroke="#63b8ff" d="M1092.02,-59.96C1100.5,-60.22 1109.23,-60.48 1117.85,-60.73"/>
<polygon fill="#63b8ff" stroke="#63b8ff" points="1117.79,-64.23 1127.89,-61.04 1118,-57.24 1117.79,-64.23"/>
</a>
</g>
</g>
<!-- Node12 -->
<g id="Node000012" class="node">
<title>Node12</title>
<g id="a_Node000012"><a xlink:href="classnetspeak_1_1util_1_1Config.html#ab380dc04a08e5c65adfdc3b13aa27fad" target="_top" xlink:title=" ">
<polygon fill="white" stroke="#666666" points="1595,-94 1475,-94 1475,-64 1595,-64 1595,-94"/>
<text text-anchor="start" x="1483" y="-82" font-family="Helvetica,sans-Serif" font-size="10.00">netspeak::util::Config</text>
<text text-anchor="middle" x="1535" y="-71" font-family="Helvetica,sans-Serif" font-size="10.00">::contains</text>
</a>
</g>
</g>
<!-- Node11&#45;&gt;Node12 -->
<g id="edge12_Node000011_Node000012" class="edge">
<title>Node11&#45;&gt;Node12</title>
<g id="a_edge12_Node000011_Node000012"><a xlink:title=" ">
<path fill="none" stroke="#63b8ff" d="M1261.17,-66.1C1319.69,-68.87 1405.06,-72.91 1464.67,-75.72"/>
<polygon fill="#63b8ff" stroke="#63b8ff" points="1464.59,-79.22 1474.75,-76.2 1464.92,-72.23 1464.59,-79.22"/>
</a>
</g>
</g>
<!-- Node13 -->
<g id="Node000013" class="node">
<title>Node13</title>
<g id="a_Node000013"><a xlink:href="classnetspeak_1_1util_1_1Config.html#a3664f30f248a879b1940df27a37f4f81" target="_top" xlink:title="Returns the value of the given key or the given default value if the key is not part of the config.">
<polygon fill="white" stroke="#666666" points="1439,-110.5 1297,-110.5 1297,-91.5 1439,-91.5 1439,-110.5"/>
<text text-anchor="middle" x="1368" y="-98.5" font-family="Helvetica,sans-Serif" font-size="10.00">netspeak::util::Config::get</text>
</a>
</g>
</g>
<!-- Node11&#45;&gt;Node13 -->
<g id="edge13_Node000011_Node000013" class="edge">
<title>Node11&#45;&gt;Node13</title>
<g id="a_edge13_Node000011_Node000013"><a xlink:title=" ">
<path fill="none" stroke="#63b8ff" d="M1261.32,-77.58C1278.68,-81.43 1297.2,-85.53 1313.81,-89.21"/>
<polygon fill="#63b8ff" stroke="#63b8ff" points="1313.36,-92.7 1323.88,-91.44 1314.87,-85.86 1313.36,-92.7"/>
</a>
</g>
</g>
<!-- Node13&#45;&gt;Node5 -->
<g id="edge15_Node000013_Node000005" class="edge">
<title>Node13&#45;&gt;Node5</title>
<g id="a_edge15_Node000013_Node000005"><a xlink:title=" ">
<path fill="none" stroke="#63b8ff" d="M1423.48,-110.58C1438.35,-113.19 1454.58,-116.04 1469.93,-118.74"/>
<polygon fill="#63b8ff" stroke="#63b8ff" points="1469.4,-122.2 1479.85,-120.48 1470.61,-115.31 1469.4,-122.2"/>
</a>
</g>
</g>
<!-- Node13&#45;&gt;Node12 -->
<g id="edge14_Node000013_Node000012" class="edge">
<title>Node13&#45;&gt;Node12</title>
<g id="a_edge14_Node000013_Node000012"><a xlink:title=" ">
<path fill="none" stroke="#63b8ff" d="M1439.45,-91.61C1447.86,-90.49 1456.44,-89.34 1464.83,-88.22"/>
<polygon fill="#63b8ff" stroke="#63b8ff" points="1465.49,-91.67 1474.94,-86.87 1464.57,-84.73 1465.49,-91.67"/>
</a>
</g>
</g>
<!-- Node14&#45;&gt;Node10 -->
<g id="edge17_Node000014_Node000010" class="edge">
<title>Node14&#45;&gt;Node10</title>
<g id="a_edge17_Node000014_Node000010"><a xlink:title=" ">
<path fill="none" stroke="#63b8ff" d="M899.55,-109.94C907.37,-107.04 915.45,-103.98 923,-101 941.92,-93.53 962.64,-84.85 980.39,-77.25"/>
<polygon fill="#63b8ff" stroke="#63b8ff" points="982.11,-80.32 989.91,-73.15 979.34,-73.89 982.11,-80.32"/>
</a>
</g>
</g>
<!-- Node15 -->
<g id="Node000015" class="node">
<title>Node15</title>
<g id="a_Node000015"><a xlink:href="namespacenetspeak.html#a492bdb0b5b15556ec2f71bbe0e6bcf7a" target="_top" xlink:title=" ">
<polygon fill="white" stroke="#666666" points="1085.5,-134.5 965.5,-134.5 965.5,-115.5 1085.5,-115.5 1085.5,-134.5"/>
<text text-anchor="middle" x="1025.5" y="-122.5" font-family="Helvetica,sans-Serif" font-size="10.00">netspeak::relative_to</text>
</a>
</g>
</g>
<!-- Node14&#45;&gt;Node15 -->
<g id="edge18_Node000014_Node000015" class="edge">
<title>Node14&#45;&gt;Node15</title>
<g id="a_edge18_Node000014_Node000015"><a xlink:title=" ">
<path fill="none" stroke="#63b8ff" d="M923.02,-125C933.62,-125 944.62,-125 955.3,-125"/>
<polygon fill="#63b8ff" stroke="#63b8ff" points="955.41,-128.5 965.41,-125 955.41,-121.5 955.41,-128.5"/>
</a>
</g>
</g>
<!-- Node17&#45;&gt;Node10 -->
<g id="edge21_Node000017_Node000010" class="edge">
<title>Node17&#45;&gt;Node10</title>
<g id="a_edge21_Node000017_Node000010"><a xlink:title=" ">
<path fill="none" stroke="#63b8ff" d="M575.03,-52.85C652.88,-46.39 798.85,-37.08 923,-45 931.35,-45.53 940.06,-46.31 948.71,-47.22"/>
<polygon fill="#63b8ff" stroke="#63b8ff" points="948.5,-50.72 958.83,-48.35 949.27,-43.76 948.5,-50.72"/>
</a>
</g>
</g>
<!-- Node19 -->
<g id="Node000019" class="node">
<title>Node19</title>
<g id="a_Node000019"><a xlink:href="classnetspeak_1_1util_1_1Config.html#a16a188857ca25e3ab7c2ddf89f8609e5" target="_top" xlink:title=" ">
<polygon fill="white" stroke="#666666" points="578.5,-30 458.5,-30 458.5,0 578.5,0 578.5,-30"/>
<text text-anchor="start" x="466.5" y="-18" font-family="Helvetica,sans-Serif" font-size="10.00">netspeak::util::Config</text>
<text text-anchor="middle" x="518.5" y="-7" font-family="Helvetica,sans-Serif" font-size="10.00">::empty</text>
</a>
</g>
</g>
<!-- Node18&#45;&gt;Node19 -->
<g id="edge23_Node000018_Node000019" class="edge">
<title>Node18&#45;&gt;Node19</title>
<g id="a_edge23_Node000018_Node000019"><a xlink:title=" ">
<path fill="none" stroke="#63b8ff" d="M416.18,-17.59C426.51,-17.33 437.44,-17.05 448.14,-16.77"/>
<polygon fill="#63b8ff" stroke="#63b8ff" points="448.4,-20.27 458.31,-16.51 448.22,-13.27 448.4,-20.27"/>
</a>
</g>
</g>
</g>
</svg>
