<?xml version="1.0" encoding="UTF-8" standalone="no"?>
<!DOCTYPE svg PUBLIC "-//W3C//DTD SVG 1.1//EN"
 "http://www.w3.org/Graphics/SVG/1.1/DTD/svg11.dtd">
<!-- Generated by graphviz version 2.43.0 (0)
 -->
<!-- Title: netspeak::invertedindex::Indexer::Indexer Pages: 1 -->
<svg width="649pt" height="184pt"
 viewBox="0.00 0.00 649.00 183.50" xmlns="http://www.w3.org/2000/svg" xmlns:xlink="http://www.w3.org/1999/xlink">
<g id="graph0" class="graph" transform="scale(1 1) rotate(0) translate(4 179.5)">
<title>netspeak::invertedindex::Indexer::Indexer</title>
<!-- Node1 -->
<g id="Node000001" class="node">
<title>Node1</title>
<g id="a_Node000001"><a xlink:title=" ">
<polygon fill="#999999" stroke="#666666" points="135,-120 0,-120 0,-90 135,-90 135,-120"/>
<text text-anchor="start" x="8" y="-108" font-family="Helvetica,sans-Serif" font-size="10.00">netspeak::invertedindex</text>
<text text-anchor="middle" x="67.5" y="-97" font-family="Helvetica,sans-Serif" font-size="10.00">::Indexer::Indexer</text>
</a>
</g>
</g>
<!-- Node2 -->
<g id="Node000002" class="node">
<title>Node2</title>
<g id="a_Node000002"><a xlink:href="classnetspeak_1_1invertedindex_1_1Indexer.html#ae3cb65012146012ce47e5654c0104bdd" target="_top" xlink:title=" ">
<polygon fill="white" stroke="#666666" points="313.5,-169 178.5,-169 178.5,-139 313.5,-139 313.5,-169"/>
<text text-anchor="start" x="186.5" y="-157" font-family="Helvetica,sans-Serif" font-size="10.00">netspeak::invertedindex</text>
<text text-anchor="middle" x="246" y="-146" font-family="Helvetica,sans-Serif" font-size="10.00">::Indexer::assert_config</text>
</a>
</g>
</g>
<!-- Node1&#45;&gt;Node2 -->
<g id="edge1_Node000001_Node000002" class="edge">
<title>Node1&#45;&gt;Node2</title>
<g id="a_edge1_Node000001_Node000002"><a xlink:title=" ">
<path fill="none" stroke="#63b8ff" d="M122.9,-120.1C141.27,-125.2 161.95,-130.94 180.99,-136.23"/>
<polygon fill="#63b8ff" stroke="#63b8ff" points="180.21,-139.65 190.78,-138.95 182.08,-132.9 180.21,-139.65"/>
</a>
</g>
</g>
<!-- Node4 -->
<g id="Node000004" class="node">
<title>Node4</title>
<g id="a_Node000004"><a xlink:href="classnetspeak_1_1invertedindex_1_1Configuration.html#a0d46063abee324f4493ffc93ec573363" target="_top" xlink:title=" ">
<polygon fill="white" stroke="#666666" points="321,-120 171,-120 171,-90 321,-90 321,-120"/>
<text text-anchor="start" x="179" y="-108" font-family="Helvetica,sans-Serif" font-size="10.00">netspeak::invertedindex</text>
<text text-anchor="middle" x="246" y="-97" font-family="Helvetica,sans-Serif" font-size="10.00">::Configuration::key_sorting</text>
</a>
</g>
</g>
<!-- Node1&#45;&gt;Node4 -->
<g id="edge3_Node000001_Node000004" class="edge">
<title>Node1&#45;&gt;Node4</title>
<g id="a_edge3_Node000001_Node000004"><a xlink:title=" ">
<path fill="none" stroke="#63b8ff" d="M135.23,-105C143.58,-105 152.2,-105 160.77,-105"/>
<polygon fill="#63b8ff" stroke="#63b8ff" points="160.79,-108.5 170.79,-105 160.79,-101.5 160.79,-108.5"/>
</a>
</g>
</g>
<!-- Node5 -->
<g id="Node000005" class="node">
<title>Node5</title>
<g id="a_Node000005"><a xlink:href="namespacenetspeak_1_1util.html#ad2441a387c3a4c47e09c373e9412fad0" target="_top" xlink:title=" ">
<polygon fill="white" stroke="#666666" points="298,-70.5 194,-70.5 194,-51.5 298,-51.5 298,-70.5"/>
<text text-anchor="middle" x="246" y="-58.5" font-family="Helvetica,sans-Serif" font-size="10.00">netspeak::util::log</text>
</a>
</g>
</g>
<!-- Node1&#45;&gt;Node5 -->
<g id="edge4_Node000001_Node000005" class="edge">
<title>Node1&#45;&gt;Node5</title>
<g id="a_edge4_Node000001_Node000005"><a xlink:title=" ">
<path fill="none" stroke="#63b8ff" d="M128.75,-89.98C150.98,-84.44 175.85,-78.24 196.86,-73"/>
<polygon fill="#63b8ff" stroke="#63b8ff" points="197.99,-76.33 206.84,-70.51 196.29,-69.54 197.99,-76.33"/>
</a>
</g>
</g>
<!-- Node3 -->
<g id="Node000003" class="node">
<title>Node3</title>
<g id="a_Node000003"><a xlink:href="classnetspeak_1_1invertedindex_1_1Configuration.html#aea1c2d3c89d203c4e7e1ea65e734f874" target="_top" xlink:title=" ">
<polygon fill="white" stroke="#666666" points="492,-175.5 357,-175.5 357,-134.5 492,-134.5 492,-175.5"/>
<text text-anchor="start" x="365" y="-163.5" font-family="Helvetica,sans-Serif" font-size="10.00">netspeak::invertedindex</text>
<text text-anchor="start" x="365" y="-152.5" font-family="Helvetica,sans-Serif" font-size="10.00">::Configuration::index</text>
<text text-anchor="middle" x="424.5" y="-141.5" font-family="Helvetica,sans-Serif" font-size="10.00">_directory</text>
</a>
</g>
</g>
<!-- Node2&#45;&gt;Node3 -->
<g id="edge2_Node000002_Node000003" class="edge">
<title>Node2&#45;&gt;Node3</title>
<g id="a_edge2_Node000002_Node000003"><a xlink:title=" ">
<path fill="none" stroke="#63b8ff" d="M313.73,-154.38C324.56,-154.44 335.86,-154.5 346.91,-154.57"/>
<polygon fill="#63b8ff" stroke="#63b8ff" points="346.95,-158.07 356.97,-154.62 346.99,-151.07 346.95,-158.07"/>
</a>
</g>
</g>
<!-- Node6 -->
<g id="Node000006" class="node">
<title>Node6</title>
<g id="a_Node000006"><a xlink:href="namespacenetspeak_1_1util.html#ab27a22c787271513007af0719b17cef9" target="_top" xlink:title=" ">
<polygon fill="white" stroke="#666666" points="477,-116 372,-116 372,-86 477,-86 477,-116"/>
<text text-anchor="start" x="380" y="-104" font-family="Helvetica,sans-Serif" font-size="10.00">netspeak::util::get</text>
<text text-anchor="middle" x="424.5" y="-93" font-family="Helvetica,sans-Serif" font-size="10.00">_log_mutex</text>
</a>
</g>
</g>
<!-- Node5&#45;&gt;Node6 -->
<g id="edge5_Node000005_Node000006" class="edge">
<title>Node5&#45;&gt;Node6</title>
<g id="a_edge5_Node000005_Node000006"><a xlink:title=" ">
<path fill="none" stroke="#63b8ff" d="M289.28,-70.58C310.96,-75.5 337.78,-81.57 361.74,-87"/>
<polygon fill="#63b8ff" stroke="#63b8ff" points="361.28,-90.49 371.8,-89.28 362.82,-83.66 361.28,-90.49"/>
</a>
</g>
</g>
<!-- Node7 -->
<g id="Node000007" class="node">
<title>Node7</title>
<g id="a_Node000007"><a xlink:href="namespacenetspeak_1_1util.html#a4c91ad572508b4021399ac7dddff574d" target="_top" xlink:title=" ">
<polygon fill="white" stroke="#666666" points="641,-45.5 528,-45.5 528,-26.5 641,-26.5 641,-45.5"/>
<text text-anchor="middle" x="584.5" y="-33.5" font-family="Helvetica,sans-Serif" font-size="10.00">netspeak::util::hash</text>
</a>
</g>
</g>
<!-- Node5&#45;&gt;Node7 -->
<g id="edge6_Node000005_Node000007" class="edge">
<title>Node5&#45;&gt;Node7</title>
<g id="a_edge6_Node000005_Node000007"><a xlink:title=" ">
<path fill="none" stroke="#63b8ff" d="M298.11,-57.2C356.92,-52.83 453.65,-45.65 517.95,-40.87"/>
<polygon fill="#63b8ff" stroke="#63b8ff" points="518.27,-44.36 527.98,-40.12 517.75,-37.38 518.27,-44.36"/>
</a>
</g>
</g>
<!-- Node8 -->
<g id="Node000008" class="node">
<title>Node8</title>
<g id="a_Node000008"><a xlink:href="namespacenetspeak_1_1util.html#a93e18aaa529a497b6afdf4b3bd221182" target="_top" xlink:title=" ">
<polygon fill="white" stroke="#666666" points="480.5,-30 368.5,-30 368.5,0 480.5,0 480.5,-30"/>
<text text-anchor="start" x="376.5" y="-18" font-family="Helvetica,sans-Serif" font-size="10.00">netspeak::util::print</text>
<text text-anchor="middle" x="424.5" y="-7" font-family="Helvetica,sans-Serif" font-size="10.00">_timestamp_to</text>
</a>
</g>
</g>
<!-- Node5&#45;&gt;Node8 -->
<g id="edge7_Node000005_Node000008" class="edge">
<title>Node5&#45;&gt;Node8</title>
<g id="a_edge7_Node000005_Node000008"><a xlink:title=" ">
<path fill="none" stroke="#63b8ff" d="M283.57,-51.47C305.14,-45.85 333.08,-38.57 358.3,-31.99"/>
<polygon fill="#63b8ff" stroke="#63b8ff" points="359.39,-35.32 368.19,-29.42 357.63,-28.55 359.39,-35.32"/>
</a>
</g>
</g>
<!-- Node8&#45;&gt;Node7 -->
<g id="edge8_Node000008_Node000007" class="edge">
<title>Node8&#45;&gt;Node7</title>
<g id="a_edge8_Node000008_Node000007"><a xlink:title=" ">
<path fill="none" stroke="#63b8ff" d="M480.76,-22.34C492.65,-23.92 505.33,-25.61 517.58,-27.24"/>
<polygon fill="#63b8ff" stroke="#63b8ff" points="517.36,-30.74 527.74,-28.59 518.28,-23.8 517.36,-30.74"/>
</a>
</g>
</g>
</g>
</svg>
