<?xml version="1.0" encoding="UTF-8" standalone="no"?>
<!DOCTYPE svg PUBLIC "-//W3C//DTD SVG 1.1//EN"
 "http://www.w3.org/Graphics/SVG/1.1/DTD/svg11.dtd">
<!-- Generated by graphviz version 2.43.0 (0)
 -->
<!-- Title: netspeak::invertedindex::Searcher::Searcher Pages: 1 -->
<svg width="867pt" height="439pt"
 viewBox="0.00 0.00 867.00 439.00" xmlns="http://www.w3.org/2000/svg" xmlns:xlink="http://www.w3.org/1999/xlink">
<g id="graph0" class="graph" transform="scale(1 1) rotate(0) translate(4 435)">
<title>netspeak::invertedindex::Searcher::Searcher</title>
<!-- Node1 -->
<g id="Node000001" class="node">
<title>Node1</title>
<g id="a_Node000001"><a xlink:title=" ">
<polygon fill="#999999" stroke="#666666" points="135,-217 0,-217 0,-187 135,-187 135,-217"/>
<text text-anchor="start" x="8" y="-205" font-family="Helvetica,sans-Serif" font-size="10.00">netspeak::invertedindex</text>
<text text-anchor="middle" x="67.5" y="-194" font-family="Helvetica,sans-Serif" font-size="10.00">::Searcher::Searcher</text>
</a>
</g>
</g>
<!-- Node2 -->
<g id="Node000002" class="node">
<title>Node2</title>
<g id="a_Node000002"><a xlink:href="classnetspeak_1_1invertedindex_1_1Searcher.html#a7892a42a3c0e390af6f33815de970002" target="_top" xlink:title=" ">
<polygon fill="white" stroke="#666666" points="306,-217 171,-217 171,-187 306,-187 306,-217"/>
<text text-anchor="start" x="179" y="-205" font-family="Helvetica,sans-Serif" font-size="10.00">netspeak::invertedindex</text>
<text text-anchor="middle" x="238.5" y="-194" font-family="Helvetica,sans-Serif" font-size="10.00">::Searcher::open</text>
</a>
</g>
</g>
<!-- Node1&#45;&gt;Node2 -->
<g id="edge1_Node000001_Node000002" class="edge">
<title>Node1&#45;&gt;Node2</title>
<g id="a_edge1_Node000001_Node000002"><a xlink:title=" ">
<path fill="none" stroke="#63b8ff" d="M135.29,-202C143.62,-202 152.19,-202 160.66,-202"/>
<polygon fill="#63b8ff" stroke="#63b8ff" points="160.92,-205.5 170.92,-202 160.92,-198.5 160.92,-205.5"/>
</a>
</g>
</g>
<!-- Node3 -->
<g id="Node000003" class="node">
<title>Node3</title>
<g id="a_Node000003"><a xlink:href="classnetspeak_1_1invertedindex_1_1Searcher.html#a0ac2ba3e583140293e2abc4fdd06ec76" target="_top" xlink:title=" ">
<polygon fill="white" stroke="#666666" points="518.5,-415 362.5,-415 362.5,-385 518.5,-385 518.5,-415"/>
<text text-anchor="start" x="370.5" y="-403" font-family="Helvetica,sans-Serif" font-size="10.00">netspeak::invertedindex</text>
<text text-anchor="middle" x="440.5" y="-392" font-family="Helvetica,sans-Serif" font-size="10.00">::Searcher::assert_properties</text>
</a>
</g>
</g>
<!-- Node2&#45;&gt;Node3 -->
<g id="edge2_Node000002_Node000003" class="edge">
<title>Node2&#45;&gt;Node3</title>
<g id="a_edge2_Node000002_Node000003"><a xlink:title=" ">
<path fill="none" stroke="#63b8ff" d="M245.62,-217.23C258.79,-248.21 292.67,-319.09 342,-360 352.27,-368.52 364.6,-375.43 376.98,-380.95"/>
<polygon fill="#63b8ff" stroke="#63b8ff" points="375.85,-384.27 386.43,-384.91 378.56,-377.82 375.85,-384.27"/>
</a>
</g>
</g>
<!-- Node5 -->
<g id="Node000005" class="node">
<title>Node5</title>
<g id="a_Node000005"><a xlink:href="structnetspeak_1_1invertedindex_1_1Properties.html#a1f62cdb1f59187bc35b5d5dafb1785fd" target="_top" xlink:title=" ">
<polygon fill="white" stroke="#666666" points="508,-350.5 373,-350.5 373,-309.5 508,-309.5 508,-350.5"/>
<text text-anchor="start" x="381" y="-338.5" font-family="Helvetica,sans-Serif" font-size="10.00">netspeak::invertedindex</text>
<text text-anchor="start" x="381" y="-327.5" font-family="Helvetica,sans-Serif" font-size="10.00">::Properties::default</text>
<text text-anchor="middle" x="440.5" y="-316.5" font-family="Helvetica,sans-Serif" font-size="10.00">_filename</text>
</a>
</g>
</g>
<!-- Node2&#45;&gt;Node5 -->
<g id="edge4_Node000002_Node000005" class="edge">
<title>Node2&#45;&gt;Node5</title>
<g id="a_edge4_Node000002_Node000005"><a xlink:title=" ">
<path fill="none" stroke="#63b8ff" d="M251.43,-217.21C269.02,-238.67 303.99,-277.69 342,-300 348.71,-303.94 355.99,-307.41 363.45,-310.46"/>
<polygon fill="#63b8ff" stroke="#63b8ff" points="362.37,-313.79 372.96,-314.09 364.87,-307.25 362.37,-313.79"/>
</a>
</g>
</g>
<!-- Node6 -->
<g id="Node000006" class="node">
<title>Node6</title>
<g id="a_Node000006"><a xlink:href="namespacenetspeak_1_1util.html#a978978e70b474657b12402a3db711ef0" target="_top" xlink:title=" ">
<polygon fill="white" stroke="#666666" points="500,-211.5 381,-211.5 381,-192.5 500,-192.5 500,-211.5"/>
<text text-anchor="middle" x="440.5" y="-199.5" font-family="Helvetica,sans-Serif" font-size="10.00">netspeak::util::fclose</text>
</a>
</g>
</g>
<!-- Node2&#45;&gt;Node6 -->
<g id="edge5_Node000002_Node000006" class="edge">
<title>Node2&#45;&gt;Node6</title>
<g id="a_edge5_Node000002_Node000006"><a xlink:title=" ">
<path fill="none" stroke="#63b8ff" d="M306.1,-202C326.9,-202 349.88,-202 370.82,-202"/>
<polygon fill="#63b8ff" stroke="#63b8ff" points="370.91,-205.5 380.91,-202 370.91,-198.5 370.91,-205.5"/>
</a>
</g>
</g>
<!-- Node9 -->
<g id="Node000009" class="node">
<title>Node9</title>
<g id="a_Node000009"><a xlink:href="namespacenetspeak_1_1util.html#a4acc3d13f8d541f4b65dd44f486403fd" target="_top" xlink:title=" ">
<polygon fill="white" stroke="#666666" points="499,-174.5 382,-174.5 382,-155.5 499,-155.5 499,-174.5"/>
<text text-anchor="middle" x="440.5" y="-162.5" font-family="Helvetica,sans-Serif" font-size="10.00">netspeak::util::fopen</text>
</a>
</g>
</g>
<!-- Node2&#45;&gt;Node9 -->
<g id="edge9_Node000002_Node000009" class="edge">
<title>Node2&#45;&gt;Node9</title>
<g id="a_edge9_Node000002_Node000009"><a xlink:title=" ">
<path fill="none" stroke="#63b8ff" d="M306.21,-189.63C318.13,-187.42 330.43,-185.14 342,-183 353.64,-180.85 366.05,-178.55 378,-176.35"/>
<polygon fill="#63b8ff" stroke="#63b8ff" points="378.69,-179.78 387.89,-174.52 377.42,-172.9 378.69,-179.78"/>
</a>
</g>
</g>
<!-- Node10 -->
<g id="Node000010" class="node">
<title>Node10</title>
<g id="a_Node000010"><a xlink:href="namespacenetspeak_1_1util.html#a0f64660040077bd1ae3a46941a000b07" target="_top" xlink:title=" ">
<polygon fill="white" stroke="#666666" points="498,-248.5 383,-248.5 383,-229.5 498,-229.5 498,-248.5"/>
<text text-anchor="middle" x="440.5" y="-236.5" font-family="Helvetica,sans-Serif" font-size="10.00">netspeak::util::fread</text>
</a>
</g>
</g>
<!-- Node2&#45;&gt;Node10 -->
<g id="edge12_Node000002_Node000010" class="edge">
<title>Node2&#45;&gt;Node10</title>
<g id="a_edge12_Node000002_Node000010"><a xlink:title=" ">
<path fill="none" stroke="#63b8ff" d="M306.1,-214.32C329.36,-218.62 355.34,-223.43 378.16,-227.65"/>
<polygon fill="#63b8ff" stroke="#63b8ff" points="377.59,-231.11 388.06,-229.48 378.86,-224.22 377.59,-231.11"/>
</a>
</g>
</g>
<!-- Node11 -->
<g id="Node000011" class="node">
<title>Node11</title>
<g id="a_Node000011"><a xlink:href="classnetspeak_1_1invertedindex_1_1Configuration.html#aea1c2d3c89d203c4e7e1ea65e734f874" target="_top" xlink:title=" ">
<polygon fill="white" stroke="#666666" points="508,-137.5 373,-137.5 373,-96.5 508,-96.5 508,-137.5"/>
<text text-anchor="start" x="381" y="-125.5" font-family="Helvetica,sans-Serif" font-size="10.00">netspeak::invertedindex</text>
<text text-anchor="start" x="381" y="-114.5" font-family="Helvetica,sans-Serif" font-size="10.00">::Configuration::index</text>
<text text-anchor="middle" x="440.5" y="-103.5" font-family="Helvetica,sans-Serif" font-size="10.00">_directory</text>
</a>
</g>
</g>
<!-- Node2&#45;&gt;Node11 -->
<g id="edge15_Node000002_Node000011" class="edge">
<title>Node2&#45;&gt;Node11</title>
<g id="a_edge15_Node000002_Node000011"><a xlink:title=" ">
<path fill="none" stroke="#63b8ff" d="M263.63,-186.92C283.96,-174.68 314.11,-157.61 342,-146 348.73,-143.2 355.81,-140.55 362.98,-138.07"/>
<polygon fill="#63b8ff" stroke="#63b8ff" points="364.38,-141.29 372.76,-134.8 362.16,-134.65 364.38,-141.29"/>
</a>
</g>
</g>
<!-- Node12 -->
<g id="Node000012" class="node">
<title>Node12</title>
<g id="a_Node000012"><a xlink:href="classnetspeak_1_1invertedindex_1_1Searcher.html#a23d88f1539d2c925427b1864cb7812fd" target="_top" xlink:title=" ">
<polygon fill="white" stroke="#666666" points="508,-78 373,-78 373,-48 508,-48 508,-78"/>
<text text-anchor="start" x="381" y="-66" font-family="Helvetica,sans-Serif" font-size="10.00">netspeak::invertedindex</text>
<text text-anchor="middle" x="440.5" y="-55" font-family="Helvetica,sans-Serif" font-size="10.00">::Searcher::is_open</text>
</a>
</g>
</g>
<!-- Node2&#45;&gt;Node12 -->
<g id="edge16_Node000002_Node000012" class="edge">
<title>Node2&#45;&gt;Node12</title>
<g id="a_edge16_Node000002_Node000012"><a xlink:title=" ">
<path fill="none" stroke="#63b8ff" d="M248.74,-186.66C264.59,-161.74 299.39,-112.66 342,-87 348.61,-83.02 355.86,-79.69 363.32,-76.92"/>
<polygon fill="#63b8ff" stroke="#63b8ff" points="364.5,-80.21 372.85,-73.69 362.26,-73.58 364.5,-80.21"/>
</a>
</g>
</g>
<!-- Node13 -->
<g id="Node000013" class="node">
<title>Node13</title>
<g id="a_Node000013"><a xlink:href="namespacenetspeak_1_1util.html#ad2441a387c3a4c47e09c373e9412fad0" target="_top" xlink:title=" ">
<polygon fill="white" stroke="#666666" points="492.5,-291.5 388.5,-291.5 388.5,-272.5 492.5,-272.5 492.5,-291.5"/>
<text text-anchor="middle" x="440.5" y="-279.5" font-family="Helvetica,sans-Serif" font-size="10.00">netspeak::util::log</text>
</a>
</g>
</g>
<!-- Node2&#45;&gt;Node13 -->
<g id="edge17_Node000002_Node000013" class="edge">
<title>Node2&#45;&gt;Node13</title>
<g id="a_edge17_Node000002_Node000013"><a xlink:title=" ">
<path fill="none" stroke="#63b8ff" d="M263.56,-217.06C283.84,-229.23 313.96,-246.07 342,-257 354.97,-262.06 369.31,-266.39 382.91,-269.95"/>
<polygon fill="#63b8ff" stroke="#63b8ff" points="382.1,-273.36 392.65,-272.42 383.81,-266.57 382.1,-273.36"/>
</a>
</g>
</g>
<!-- Node16 -->
<g id="Node000016" class="node">
<title>Node16</title>
<g id="a_Node000016"><a xlink:href="classnetspeak_1_1invertedindex_1_1Configuration.html#a3f98a73c0d66212e234149b5ff21b76c" target="_top" xlink:title=" ">
<polygon fill="white" stroke="#666666" points="539,-30 342,-30 342,0 539,0 539,-30"/>
<text text-anchor="start" x="350" y="-18" font-family="Helvetica,sans-Serif" font-size="10.00">netspeak::invertedindex</text>
<text text-anchor="middle" x="440.5" y="-7" font-family="Helvetica,sans-Serif" font-size="10.00">::Configuration::max_memory_usage</text>
</a>
</g>
</g>
<!-- Node2&#45;&gt;Node16 -->
<g id="edge22_Node000002_Node000016" class="edge">
<title>Node2&#45;&gt;Node16</title>
<g id="a_edge22_Node000002_Node000016"><a xlink:title=" ">
<path fill="none" stroke="#63b8ff" d="M244.64,-186.66C256.37,-154.07 288.34,-77.75 342,-39 344.1,-37.48 346.29,-36.06 348.54,-34.73"/>
<polygon fill="#63b8ff" stroke="#63b8ff" points="350.31,-37.75 357.54,-30.01 347.06,-31.55 350.31,-37.75"/>
</a>
</g>
</g>
<!-- Node4 -->
<g id="Node000004" class="node">
<title>Node4</title>
<g id="a_Node000004"><a xlink:href="classnetspeak_1_1invertedindex_1_1Searcher.html#a45b62c369c7242cf08e445dc55738613" target="_top" xlink:title=" ">
<polygon fill="white" stroke="#666666" points="710,-431 575,-431 575,-401 710,-401 710,-431"/>
<text text-anchor="start" x="583" y="-419" font-family="Helvetica,sans-Serif" font-size="10.00">netspeak::invertedindex</text>
<text text-anchor="middle" x="642.5" y="-408" font-family="Helvetica,sans-Serif" font-size="10.00">::Searcher::properties</text>
</a>
</g>
</g>
<!-- Node3&#45;&gt;Node4 -->
<g id="edge3_Node000003_Node000004" class="edge">
<title>Node3&#45;&gt;Node4</title>
<g id="a_edge3_Node000003_Node000004"><a xlink:title=" ">
<path fill="none" stroke="#63b8ff" d="M518.54,-406.16C533.65,-407.37 549.5,-408.64 564.6,-409.85"/>
<polygon fill="#63b8ff" stroke="#63b8ff" points="564.68,-413.37 574.92,-410.67 565.24,-406.39 564.68,-413.37"/>
</a>
</g>
</g>
<!-- Node7 -->
<g id="Node000007" class="node">
<title>Node7</title>
<g id="a_Node000007"><a xlink:href="namespacenetspeak_1_1util.html#a4c91ad572508b4021399ac7dddff574d" target="_top" xlink:title=" ">
<polygon fill="white" stroke="#666666" points="859,-226.5 746,-226.5 746,-207.5 859,-207.5 859,-226.5"/>
<text text-anchor="middle" x="802.5" y="-214.5" font-family="Helvetica,sans-Serif" font-size="10.00">netspeak::util::hash</text>
</a>
</g>
</g>
<!-- Node6&#45;&gt;Node7 -->
<g id="edge6_Node000006_Node000007" class="edge">
<title>Node6&#45;&gt;Node7</title>
<g id="a_edge6_Node000006_Node000007"><a xlink:title=" ">
<path fill="none" stroke="#63b8ff" d="M495.62,-192.49C509.8,-189.72 525.03,-186.49 539,-183 555.23,-178.95 558.45,-174.47 575,-172 634.34,-163.14 651.56,-158.41 710,-172 734.96,-177.81 760.95,-191.44 778.82,-202.18"/>
<polygon fill="#63b8ff" stroke="#63b8ff" points="777.04,-205.19 787.38,-207.49 780.73,-199.24 777.04,-205.19"/>
</a>
</g>
</g>
<!-- Node8 -->
<g id="Node000008" class="node">
<title>Node8</title>
<g id="a_Node000008"><a xlink:href="namespacenetspeak_1_1util.html#af94d48fda5f335ddcb461a8237079866" target="_top" xlink:title=" ">
<polygon fill="white" stroke="#666666" points="702,-211 583,-211 583,-181 702,-181 702,-211"/>
<text text-anchor="start" x="591" y="-199" font-family="Helvetica,sans-Serif" font-size="10.00">netspeak::util::signal</text>
<text text-anchor="middle" x="642.5" y="-188" font-family="Helvetica,sans-Serif" font-size="10.00">_error</text>
</a>
</g>
</g>
<!-- Node6&#45;&gt;Node8 -->
<g id="edge7_Node000006_Node000008" class="edge">
<title>Node6&#45;&gt;Node8</title>
<g id="a_edge7_Node000006_Node000008"><a xlink:title=" ">
<path fill="none" stroke="#63b8ff" d="M500.16,-200.24C522.85,-199.56 548.99,-198.78 572.57,-198.07"/>
<polygon fill="#63b8ff" stroke="#63b8ff" points="572.96,-201.56 582.85,-197.76 572.75,-194.56 572.96,-201.56"/>
</a>
</g>
</g>
<!-- Node8&#45;&gt;Node7 -->
<g id="edge8_Node000008_Node000007" class="edge">
<title>Node8&#45;&gt;Node7</title>
<g id="a_edge8_Node000008_Node000007"><a xlink:title=" ">
<path fill="none" stroke="#63b8ff" d="M702.33,-203.82C713.22,-205.27 724.64,-206.79 735.72,-208.26"/>
<polygon fill="#63b8ff" stroke="#63b8ff" points="735.39,-211.74 745.76,-209.59 736.31,-204.8 735.39,-211.74"/>
</a>
</g>
</g>
<!-- Node9&#45;&gt;Node7 -->
<g id="edge10_Node000009_Node000007" class="edge">
<title>Node9&#45;&gt;Node7</title>
<g id="a_edge10_Node000009_Node000007"><a xlink:title=" ">
<path fill="none" stroke="#63b8ff" d="M491.62,-155.46C546.42,-146.99 636.26,-138.91 710,-160 737.58,-167.89 764.94,-186.77 782.45,-200.64"/>
<polygon fill="#63b8ff" stroke="#63b8ff" points="780.7,-203.74 790.66,-207.36 785.14,-198.32 780.7,-203.74"/>
</a>
</g>
</g>
<!-- Node9&#45;&gt;Node8 -->
<g id="edge11_Node000009_Node000008" class="edge">
<title>Node9&#45;&gt;Node8</title>
<g id="a_edge11_Node000009_Node000008"><a xlink:title=" ">
<path fill="none" stroke="#63b8ff" d="M499.08,-173.92C522.1,-177.49 548.81,-181.63 572.83,-185.36"/>
<polygon fill="#63b8ff" stroke="#63b8ff" points="572.52,-188.85 582.94,-186.92 573.59,-181.93 572.52,-188.85"/>
</a>
</g>
</g>
<!-- Node10&#45;&gt;Node7 -->
<g id="edge13_Node000010_Node000007" class="edge">
<title>Node10&#45;&gt;Node7</title>
<g id="a_edge13_Node000010_Node000007"><a xlink:title=" ">
<path fill="none" stroke="#63b8ff" d="M498.15,-235.54C562.56,-231.6 667.58,-225.18 735.6,-221.03"/>
<polygon fill="#63b8ff" stroke="#63b8ff" points="736.01,-224.51 745.78,-220.41 735.58,-217.52 736.01,-224.51"/>
</a>
</g>
</g>
<!-- Node10&#45;&gt;Node8 -->
<g id="edge14_Node000010_Node000008" class="edge">
<title>Node10&#45;&gt;Node8</title>
<g id="a_edge14_Node000010_Node000008"><a xlink:title=" ">
<path fill="none" stroke="#63b8ff" d="M492.18,-229.5C507.27,-226.57 523.82,-223.25 539,-220 549.99,-217.64 561.61,-215.03 572.93,-212.43"/>
<polygon fill="#63b8ff" stroke="#63b8ff" points="573.82,-215.82 582.78,-210.15 572.24,-209 573.82,-215.82"/>
</a>
</g>
</g>
<!-- Node13&#45;&gt;Node7 -->
<g id="edge19_Node000013_Node000007" class="edge">
<title>Node13&#45;&gt;Node7</title>
<g id="a_edge19_Node000013_Node000007"><a xlink:title=" ">
<path fill="none" stroke="#63b8ff" d="M492.63,-291.41C528.48,-297.97 570.75,-305.62 575,-306 634.76,-311.33 654.41,-328.58 710,-306 745.21,-291.7 774.31,-256.62 789.68,-235.01"/>
<polygon fill="#63b8ff" stroke="#63b8ff" points="792.63,-236.91 795.41,-226.68 786.86,-232.94 792.63,-236.91"/>
</a>
</g>
</g>
<!-- Node14 -->
<g id="Node000014" class="node">
<title>Node14</title>
<g id="a_Node000014"><a xlink:href="namespacenetspeak_1_1util.html#ab27a22c787271513007af0719b17cef9" target="_top" xlink:title=" ">
<polygon fill="white" stroke="#666666" points="695,-383 590,-383 590,-353 695,-353 695,-383"/>
<text text-anchor="start" x="598" y="-371" font-family="Helvetica,sans-Serif" font-size="10.00">netspeak::util::get</text>
<text text-anchor="middle" x="642.5" y="-360" font-family="Helvetica,sans-Serif" font-size="10.00">_log_mutex</text>
</a>
</g>
</g>
<!-- Node13&#45;&gt;Node14 -->
<g id="edge18_Node000013_Node000014" class="edge">
<title>Node13&#45;&gt;Node14</title>
<g id="a_edge18_Node000013_Node000014"><a xlink:title=" ">
<path fill="none" stroke="#63b8ff" d="M492.7,-285.2C508.28,-287.78 524.98,-292.27 539,-300 559.66,-311.39 555.78,-325.33 575,-339 579.8,-342.41 585.07,-345.55 590.47,-348.39"/>
<polygon fill="#63b8ff" stroke="#63b8ff" points="589.11,-351.62 599.62,-352.9 592.2,-345.34 589.11,-351.62"/>
</a>
</g>
</g>
<!-- Node15 -->
<g id="Node000015" class="node">
<title>Node15</title>
<g id="a_Node000015"><a xlink:href="namespacenetspeak_1_1util.html#a93e18aaa529a497b6afdf4b3bd221182" target="_top" xlink:title=" ">
<polygon fill="white" stroke="#666666" points="698.5,-297 586.5,-297 586.5,-267 698.5,-267 698.5,-297"/>
<text text-anchor="start" x="594.5" y="-285" font-family="Helvetica,sans-Serif" font-size="10.00">netspeak::util::print</text>
<text text-anchor="middle" x="642.5" y="-274" font-family="Helvetica,sans-Serif" font-size="10.00">_timestamp_to</text>
</a>
</g>
</g>
<!-- Node13&#45;&gt;Node15 -->
<g id="edge20_Node000013_Node000015" class="edge">
<title>Node13&#45;&gt;Node15</title>
<g id="a_edge20_Node000013_Node000015"><a xlink:title=" ">
<path fill="none" stroke="#63b8ff" d="M492.75,-282C518.09,-282 548.98,-282 576.02,-282"/>
<polygon fill="#63b8ff" stroke="#63b8ff" points="576.18,-285.5 586.18,-282 576.18,-278.5 576.18,-285.5"/>
</a>
</g>
</g>
<!-- Node15&#45;&gt;Node7 -->
<g id="edge21_Node000015_Node000007" class="edge">
<title>Node15&#45;&gt;Node7</title>
<g id="a_edge21_Node000015_Node000007"><a xlink:title=" ">
<path fill="none" stroke="#63b8ff" d="M680.15,-266.92C706.98,-255.88 743.08,-241.03 768.91,-230.41"/>
<polygon fill="#63b8ff" stroke="#63b8ff" points="770.36,-233.6 778.27,-226.56 767.69,-227.12 770.36,-233.6"/>
</a>
</g>
</g>
</g>
</svg>
