<?xml version="1.0" encoding="UTF-8" standalone="no"?>
<!DOCTYPE svg PUBLIC "-//W3C//DTD SVG 1.1//EN"
 "http://www.w3.org/Graphics/SVG/1.1/DTD/svg11.dtd">
<!-- Generated by graphviz version 2.43.0 (0)
 -->
<!-- Title: netspeak::invertedindex::Configuration::set_value_sorting Pages: 1 -->
<svg width="340pt" height="64pt"
 viewBox="0.00 0.00 340.00 64.00" xmlns="http://www.w3.org/2000/svg" xmlns:xlink="http://www.w3.org/1999/xlink">
<g id="graph0" class="graph" transform="scale(1 1) rotate(0) translate(4 60)">
<title>netspeak::invertedindex::Configuration::set_value_sorting</title>
<!-- Node1 -->
<g id="Node000001" class="node">
<title>Node1</title>
<g id="a_Node000001"><a xlink:title=" ">
<polygon fill="#999999" stroke="#666666" points="332,-48 191,-48 191,-7 332,-7 332,-48"/>
<text text-anchor="start" x="199" y="-36" font-family="Helvetica,sans-Serif" font-size="10.00">netspeak::invertedindex</text>
<text text-anchor="start" x="199" y="-25" font-family="Helvetica,sans-Serif" font-size="10.00">::Configuration::set_value</text>
<text text-anchor="middle" x="261.5" y="-14" font-family="Helvetica,sans-Serif" font-size="10.00">_sorting</text>
</a>
</g>
</g>
<!-- Node2 -->
<g id="Node000002" class="node">
<title>Node2</title>
<g id="a_Node000002"><a xlink:href="namespacenetspeak.html#af0939222da277e564f28d44a69641517" target="_top" xlink:title=" ">
<polygon fill="white" stroke="#666666" points="153.5,-56 1.5,-56 1.5,-37 153.5,-37 153.5,-56"/>
<text text-anchor="middle" x="77.5" y="-44" font-family="Helvetica,sans-Serif" font-size="10.00">netspeak::BuildPhraseIndex</text>
</a>
</g>
</g>
<!-- Node1&#45;&gt;Node2 -->
<g id="edge1_Node000001_Node000002" class="edge">
<title>Node1&#45;&gt;Node2</title>
<g id="a_edge1_Node000001_Node000002"><a xlink:title=" ">
<path fill="none" stroke="#63b8ff" d="M180.85,-35.81C171.87,-36.75 162.73,-37.71 153.8,-38.64"/>
<polygon fill="#63b8ff" stroke="#63b8ff" points="181.33,-39.28 190.91,-34.76 180.61,-32.32 181.33,-39.28"/>
</a>
</g>
</g>
<!-- Node3 -->
<g id="Node000003" class="node">
<title>Node3</title>
<g id="a_Node000003"><a xlink:href="namespacenetspeak.html#af42806304a02200d2a12099b3b54f35d" target="_top" xlink:title=" ">
<polygon fill="white" stroke="#666666" points="155,-19 0,-19 0,0 155,0 155,-19"/>
<text text-anchor="middle" x="77.5" y="-7" font-family="Helvetica,sans-Serif" font-size="10.00">netspeak::BuildPostlistIndex</text>
</a>
</g>
</g>
<!-- Node1&#45;&gt;Node3 -->
<g id="edge2_Node000001_Node000003" class="edge">
<title>Node1&#45;&gt;Node3</title>
<g id="a_edge2_Node000001_Node000003"><a xlink:title=" ">
<path fill="none" stroke="#63b8ff" d="M180.91,-19.63C172.31,-18.78 163.58,-17.91 155.02,-17.07"/>
<polygon fill="#63b8ff" stroke="#63b8ff" points="180.62,-23.12 190.91,-20.62 181.31,-16.15 180.62,-23.12"/>
</a>
</g>
</g>
</g>
</svg>
