<?xml version="1.0" encoding="UTF-8" standalone="no"?>
<!DOCTYPE svg PUBLIC "-//W3C//DTD SVG 1.1//EN"
 "http://www.w3.org/Graphics/SVG/1.1/DTD/svg11.dtd">
<!-- Generated by graphviz version 2.43.0 (0)
 -->
<!-- Title: netspeak::QuerySimplifier::to_simple Pages: 1 -->
<svg width="915pt" height="552pt"
 viewBox="0.00 0.00 915.00 551.50" xmlns="http://www.w3.org/2000/svg" xmlns:xlink="http://www.w3.org/1999/xlink">
<g id="graph0" class="graph" transform="scale(1 1) rotate(0) translate(4 547.5)">
<title>netspeak::QuerySimplifier::to_simple</title>
<!-- Node1 -->
<g id="Node000001" class="node">
<title>Node1</title>
<g id="a_Node000001"><a xlink:title=" ">
<polygon fill="#999999" stroke="#666666" points="143,-340 0,-340 0,-310 143,-310 143,-340"/>
<text text-anchor="start" x="8" y="-328" font-family="Helvetica,sans-Serif" font-size="10.00">netspeak::QuerySimplifier</text>
<text text-anchor="middle" x="71.5" y="-317" font-family="Helvetica,sans-Serif" font-size="10.00">::to_simple</text>
</a>
</g>
</g>
<!-- Node2 -->
<g id="Node000002" class="node">
<title>Node2</title>
<g id="a_Node000002"><a xlink:href="classnetspeak_1_1QuerySimplifier.html#ab2f06fcd290543e7a04f2e5614a5f719" target="_top" xlink:title=" ">
<polygon fill="white" stroke="#666666" points="322,-340 179,-340 179,-310 322,-310 322,-340"/>
<text text-anchor="start" x="187" y="-328" font-family="Helvetica,sans-Serif" font-size="10.00">netspeak::QuerySimplifier</text>
<text text-anchor="middle" x="250.5" y="-317" font-family="Helvetica,sans-Serif" font-size="10.00">::unit_to_simple</text>
</a>
</g>
</g>
<!-- Node1&#45;&gt;Node2 -->
<g id="edge1_Node000001_Node000002" class="edge">
<title>Node1&#45;&gt;Node2</title>
<g id="a_edge1_Node000001_Node000002"><a xlink:title=" ">
<path fill="none" stroke="#63b8ff" d="M143.22,-325C151.57,-325 160.14,-325 168.62,-325"/>
<polygon fill="#63b8ff" stroke="#63b8ff" points="168.89,-328.5 178.89,-325 168.89,-321.5 168.89,-328.5"/>
</a>
</g>
</g>
<!-- Node3 -->
<g id="Node000003" class="node">
<title>Node3</title>
<g id="a_Node000003"><a xlink:href="classnetspeak_1_1QuerySimplifier.html#a3b44d549420ef21f82bde54ad4858ba5" target="_top" xlink:title=" ">
<polygon fill="white" stroke="#666666" points="501,-506 358,-506 358,-476 501,-476 501,-506"/>
<text text-anchor="start" x="366" y="-494" font-family="Helvetica,sans-Serif" font-size="10.00">netspeak::QuerySimplifier</text>
<text text-anchor="middle" x="429.5" y="-483" font-family="Helvetica,sans-Serif" font-size="10.00">::alt_to_simple</text>
</a>
</g>
</g>
<!-- Node2&#45;&gt;Node3 -->
<g id="edge2_Node000002_Node000003" class="edge">
<title>Node2&#45;&gt;Node3</title>
<g id="a_edge2_Node000002_Node000003"><a xlink:title=" ">
<path fill="none" stroke="#63b8ff" d="M261.94,-340.17C278.31,-367.82 312.86,-425.24 358,-458 366.4,-464.09 376.46,-468.73 386.31,-472.49"/>
<polygon fill="#63b8ff" stroke="#63b8ff" points="385.44,-475.89 396.03,-475.99 387.81,-469.31 385.44,-475.89"/>
</a>
</g>
</g>
<!-- Node9 -->
<g id="Node000009" class="node">
<title>Node9</title>
<g id="a_Node000009"><a xlink:href="classnetspeak_1_1QuerySimplifier.html#a18ef84f764ae6f69b3cf33d616e6fc41" target="_top" xlink:title=" ">
<polygon fill="white" stroke="#666666" points="692,-362 549,-362 549,-332 692,-332 692,-362"/>
<text text-anchor="start" x="557" y="-350" font-family="Helvetica,sans-Serif" font-size="10.00">netspeak::QuerySimplifier</text>
<text text-anchor="middle" x="620.5" y="-339" font-family="Helvetica,sans-Serif" font-size="10.00">::to_source</text>
</a>
</g>
</g>
<!-- Node2&#45;&gt;Node9 -->
<g id="edge52_Node000002_Node000009" class="edge">
<title>Node2&#45;&gt;Node9</title>
<g id="a_edge52_Node000002_Node000009"><a xlink:title=" ">
<path fill="none" stroke="#63b8ff" d="M322.25,-323.49C334.18,-323.28 346.44,-323.11 358,-323 421.55,-322.4 437.76,-316.66 501,-323 516.08,-324.51 532.07,-327.08 547.27,-329.99"/>
<polygon fill="#63b8ff" stroke="#63b8ff" points="546.64,-333.43 557.13,-331.94 548,-326.56 546.64,-333.43"/>
</a>
</g>
</g>
<!-- Node10 -->
<g id="Node000010" class="node">
<title>Node10</title>
<g id="a_Node000010"><a xlink:href="classnetspeak_1_1QuerySimplifier.html#a1f629b768d053c64ba136f00661e601d" target="_top" xlink:title=" ">
<polygon fill="white" stroke="#666666" points="501,-362 358,-362 358,-332 501,-332 501,-362"/>
<text text-anchor="start" x="366" y="-350" font-family="Helvetica,sans-Serif" font-size="10.00">netspeak::QuerySimplifier</text>
<text text-anchor="middle" x="429.5" y="-339" font-family="Helvetica,sans-Serif" font-size="10.00">::concat_to_simple</text>
</a>
</g>
</g>
<!-- Node2&#45;&gt;Node10 -->
<g id="edge10_Node000002_Node000010" class="edge">
<title>Node2&#45;&gt;Node10</title>
<g id="a_edge10_Node000002_Node000010"><a xlink:title=" ">
<path fill="none" stroke="#63b8ff" d="M322.22,-327.16C331.48,-328.18 341.02,-329.34 350.39,-330.58"/>
<polygon fill="#63b8ff" stroke="#63b8ff" points="350.1,-334.08 360.49,-331.96 351.05,-327.14 350.1,-334.08"/>
</a>
</g>
</g>
<!-- Node13 -->
<g id="Node000013" class="node">
<title>Node13</title>
<g id="a_Node000013"><a xlink:href="classnetspeak_1_1QuerySimplifier.html#ac1ac4b76923d0b209354bf42e2a59d00" target="_top" xlink:title=" ">
<polygon fill="white" stroke="#666666" points="501,-228 358,-228 358,-198 501,-198 501,-228"/>
<text text-anchor="start" x="366" y="-216" font-family="Helvetica,sans-Serif" font-size="10.00">netspeak::QuerySimplifier</text>
<text text-anchor="middle" x="429.5" y="-205" font-family="Helvetica,sans-Serif" font-size="10.00">::dict_to_simple</text>
</a>
</g>
</g>
<!-- Node2&#45;&gt;Node13 -->
<g id="edge18_Node000002_Node000013" class="edge">
<title>Node2&#45;&gt;Node13</title>
<g id="a_edge18_Node000002_Node000013"><a xlink:title=" ">
<path fill="none" stroke="#63b8ff" d="M266.07,-309.96C285.46,-290.69 321.56,-257.35 358,-237 361.08,-235.28 364.31,-233.65 367.62,-232.11"/>
<polygon fill="#63b8ff" stroke="#63b8ff" points="369.3,-235.2 377.1,-228.04 366.53,-228.77 369.3,-235.2"/>
</a>
</g>
</g>
<!-- Node14 -->
<g id="Node000014" class="node">
<title>Node14</title>
<g id="a_Node000014"><a xlink:href="classnetspeak_1_1QuerySimplifier.html#a6370b7569ff3cd8fe257c76f23ed166b" target="_top" xlink:title=" ">
<polygon fill="white" stroke="#666666" points="692,-218 549,-218 549,-188 692,-188 692,-218"/>
<text text-anchor="start" x="557" y="-206" font-family="Helvetica,sans-Serif" font-size="10.00">netspeak::QuerySimplifier</text>
<text text-anchor="middle" x="620.5" y="-195" font-family="Helvetica,sans-Serif" font-size="10.00">::get_text</text>
</a>
</g>
</g>
<!-- Node2&#45;&gt;Node14 -->
<g id="edge24_Node000002_Node000014" class="edge">
<title>Node2&#45;&gt;Node14</title>
<g id="a_edge24_Node000002_Node000014"><a xlink:title=" ">
<path fill="none" stroke="#63b8ff" d="M257.8,-309.88C271.15,-280.11 305.43,-214.61 358,-189 423.61,-157.05 509.74,-170.67 564.88,-185.27"/>
<polygon fill="#63b8ff" stroke="#63b8ff" points="564.23,-188.72 574.8,-188 566.08,-181.97 564.23,-188.72"/>
</a>
</g>
</g>
<!-- Node15 -->
<g id="Node000015" class="node">
<title>Node15</title>
<g id="a_Node000015"><a xlink:href="classnetspeak_1_1model_1_1SimpleQueryUnit____.html#aec3288b9da92b0fdeedcec37c09572c4" target="_top" xlink:title=" ">
<polygon fill="white" stroke="#666666" points="704,-164 537,-164 537,-134 704,-134 704,-164"/>
<text text-anchor="start" x="545" y="-152" font-family="Helvetica,sans-Serif" font-size="10.00">netspeak::model::SimpleQuery</text>
<text text-anchor="middle" x="620.5" y="-141" font-family="Helvetica,sans-Serif" font-size="10.00">Unit__::new_word</text>
</a>
</g>
</g>
<!-- Node2&#45;&gt;Node15 -->
<g id="edge27_Node000002_Node000015" class="edge">
<title>Node2&#45;&gt;Node15</title>
<g id="a_edge27_Node000002_Node000015"><a xlink:title=" ">
<path fill="none" stroke="#63b8ff" d="M253.35,-309.81C259.36,-267.88 282.57,-150.48 358,-103 411.79,-69.15 438.53,-91.3 501,-103 528.52,-108.15 557.87,-119.5 580.47,-129.63"/>
<polygon fill="#63b8ff" stroke="#63b8ff" points="579.18,-132.89 589.72,-133.88 582.1,-126.52 579.18,-132.89"/>
</a>
</g>
</g>
<!-- Node16 -->
<g id="Node000016" class="node">
<title>Node16</title>
<g id="a_Node000016"><a xlink:href="classnetspeak_1_1model_1_1SimpleQueryUnit____.html#a44428178c9365d823c13fa04d5f9bad6" target="_top" xlink:title=" ">
<polygon fill="white" stroke="#666666" points="704,-103 537,-103 537,-73 704,-73 704,-103"/>
<text text-anchor="start" x="545" y="-91" font-family="Helvetica,sans-Serif" font-size="10.00">netspeak::model::SimpleQuery</text>
<text text-anchor="middle" x="620.5" y="-80" font-family="Helvetica,sans-Serif" font-size="10.00">Unit__::new_qmark</text>
</a>
</g>
</g>
<!-- Node2&#45;&gt;Node16 -->
<g id="edge25_Node000002_Node000016" class="edge">
<title>Node2&#45;&gt;Node16</title>
<g id="a_edge25_Node000002_Node000016"><a xlink:title=" ">
<path fill="none" stroke="#63b8ff" d="M252.71,-309.73C257.14,-265.15 276.84,-135.04 358,-82 420.04,-41.46 509.25,-55.04 565.78,-70.22"/>
<polygon fill="#63b8ff" stroke="#63b8ff" points="565.03,-73.65 575.6,-72.96 566.91,-66.9 565.03,-73.65"/>
</a>
</g>
</g>
<!-- Node17 -->
<g id="Node000017" class="node">
<title>Node17</title>
<g id="a_Node000017"><a xlink:href="classnetspeak_1_1model_1_1SimpleQueryUnit____.html#a399342037a597b05de0369743456d22f" target="_top" xlink:title=" ">
<polygon fill="white" stroke="#666666" points="704,-30 537,-30 537,0 704,0 704,-30"/>
<text text-anchor="start" x="545" y="-18" font-family="Helvetica,sans-Serif" font-size="10.00">netspeak::model::SimpleQuery</text>
<text text-anchor="middle" x="620.5" y="-7" font-family="Helvetica,sans-Serif" font-size="10.00">Unit__::new_star</text>
</a>
</g>
</g>
<!-- Node2&#45;&gt;Node17 -->
<g id="edge26_Node000002_Node000017" class="edge">
<title>Node2&#45;&gt;Node17</title>
<g id="a_edge26_Node000002_Node000017"><a xlink:title=" ">
<path fill="none" stroke="#63b8ff" d="M252.34,-309.84C255.81,-262.91 273.24,-119.11 358,-52 405.04,-14.76 472.31,-5.92 526.85,-6.18"/>
<polygon fill="#63b8ff" stroke="#63b8ff" points="526.82,-9.68 536.87,-6.33 526.93,-2.68 526.82,-9.68"/>
</a>
</g>
</g>
<!-- Node18 -->
<g id="Node000018" class="node">
<title>Node18</title>
<g id="a_Node000018"><a xlink:href="classnetspeak_1_1QuerySimplifier.html#abafc853573d650c19c989cebbdc10ce4" target="_top" xlink:title=" ">
<polygon fill="white" stroke="#666666" points="501,-410 358,-410 358,-380 501,-380 501,-410"/>
<text text-anchor="start" x="366" y="-398" font-family="Helvetica,sans-Serif" font-size="10.00">netspeak::QuerySimplifier</text>
<text text-anchor="middle" x="429.5" y="-387" font-family="Helvetica,sans-Serif" font-size="10.00">::option_to_simple</text>
</a>
</g>
</g>
<!-- Node2&#45;&gt;Node18 -->
<g id="edge28_Node000002_Node000018" class="edge">
<title>Node2&#45;&gt;Node18</title>
<g id="a_edge28_Node000002_Node000018"><a xlink:title=" ">
<path fill="none" stroke="#63b8ff" d="M303.97,-340.1C321.08,-347.09 340.24,-355.15 358,-362 370.35,-366.76 384.09,-371.55 396.14,-376.16"/>
<polygon fill="#63b8ff" stroke="#63b8ff" points="395.21,-379.56 405.79,-379.99 397.79,-373.05 395.21,-379.56"/>
</a>
</g>
</g>
<!-- Node19 -->
<g id="Node000019" class="node">
<title>Node19</title>
<g id="a_Node000019"><a xlink:href="classnetspeak_1_1QuerySimplifier.html#a2f67510a9b668e751894cdeb6e97b349" target="_top" xlink:title=" ">
<polygon fill="white" stroke="#666666" points="501,-458 358,-458 358,-428 501,-428 501,-458"/>
<text text-anchor="start" x="366" y="-446" font-family="Helvetica,sans-Serif" font-size="10.00">netspeak::QuerySimplifier</text>
<text text-anchor="middle" x="429.5" y="-435" font-family="Helvetica,sans-Serif" font-size="10.00">::order_to_simple</text>
</a>
</g>
</g>
<!-- Node2&#45;&gt;Node19 -->
<g id="edge34_Node000002_Node000019" class="edge">
<title>Node2&#45;&gt;Node19</title>
<g id="a_edge34_Node000002_Node000019"><a xlink:title=" ">
<path fill="none" stroke="#63b8ff" d="M271.55,-340.3C291.63,-359.22 324.29,-390.45 358,-410 367.93,-415.76 379.46,-420.41 390.28,-424.41"/>
<polygon fill="#63b8ff" stroke="#63b8ff" points="389.35,-427.8 399.95,-427.91 391.73,-421.21 389.35,-427.8"/>
</a>
</g>
</g>
<!-- Node22 -->
<g id="Node000022" class="node">
<title>Node22</title>
<g id="a_Node000022"><a xlink:href="classnetspeak_1_1QuerySimplifier.html#aa609db274838f9056f0051d2b391c77c" target="_top" xlink:title=" ">
<polygon fill="white" stroke="#666666" points="501,-142 358,-142 358,-112 501,-112 501,-142"/>
<text text-anchor="start" x="366" y="-130" font-family="Helvetica,sans-Serif" font-size="10.00">netspeak::QuerySimplifier</text>
<text text-anchor="middle" x="429.5" y="-119" font-family="Helvetica,sans-Serif" font-size="10.00">::plus_to_simple</text>
</a>
</g>
</g>
<!-- Node2&#45;&gt;Node22 -->
<g id="edge42_Node000002_Node000022" class="edge">
<title>Node2&#45;&gt;Node22</title>
<g id="a_edge42_Node000002_Node000022"><a xlink:title=" ">
<path fill="none" stroke="#63b8ff" d="M257.33,-309.71C270.48,-277.13 305.45,-200.2 358,-156 362.01,-152.63 366.47,-149.6 371.14,-146.9"/>
<polygon fill="#63b8ff" stroke="#63b8ff" points="373.08,-149.83 380.32,-142.09 369.84,-143.63 373.08,-149.83"/>
</a>
</g>
</g>
<!-- Node23 -->
<g id="Node000023" class="node">
<title>Node23</title>
<g id="a_Node000023"><a xlink:href="classnetspeak_1_1QuerySimplifier.html#a7a61e022386f41896500001dcd46858c" target="_top" xlink:title=" ">
<polygon fill="white" stroke="#666666" points="501,-276 358,-276 358,-246 501,-246 501,-276"/>
<text text-anchor="start" x="366" y="-264" font-family="Helvetica,sans-Serif" font-size="10.00">netspeak::QuerySimplifier</text>
<text text-anchor="middle" x="429.5" y="-253" font-family="Helvetica,sans-Serif" font-size="10.00">::regex_to_simple</text>
</a>
</g>
</g>
<!-- Node2&#45;&gt;Node23 -->
<g id="edge47_Node000002_Node000023" class="edge">
<title>Node2&#45;&gt;Node23</title>
<g id="a_edge47_Node000002_Node000023"><a xlink:title=" ">
<path fill="none" stroke="#63b8ff" d="M293,-309.99C318.21,-300.88 350.58,-289.17 377.36,-279.49"/>
<polygon fill="#63b8ff" stroke="#63b8ff" points="378.74,-282.71 386.96,-276.02 376.36,-276.13 378.74,-282.71"/>
</a>
</g>
</g>
<!-- Node3&#45;&gt;Node2 -->
<g id="edge9_Node000003_Node000002" class="edge">
<title>Node3&#45;&gt;Node2</title>
<g id="a_edge9_Node000003_Node000002"><a xlink:title=" ">
<path fill="none" stroke="#63b8ff" d="M358.31,-476.23C358.21,-476.15 358.1,-476.08 358,-476 311.69,-442.4 276.53,-382.84 260.71,-349.22"/>
<polygon fill="#63b8ff" stroke="#63b8ff" points="263.89,-347.76 256.6,-340.07 257.51,-350.63 263.89,-347.76"/>
</a>
</g>
</g>
<!-- Node4 -->
<g id="Node000004" class="node">
<title>Node4</title>
<g id="a_Node000004"><a xlink:href="classnetspeak_1_1QuerySimplifier.html#ae3c3e04a80fa328604bd5287349aebe2" target="_top" xlink:title=" ">
<polygon fill="white" stroke="#666666" points="692,-506 549,-506 549,-476 692,-476 692,-506"/>
<text text-anchor="start" x="557" y="-494" font-family="Helvetica,sans-Serif" font-size="10.00">netspeak::QuerySimplifier</text>
<text text-anchor="middle" x="620.5" y="-483" font-family="Helvetica,sans-Serif" font-size="10.00">::add_to_alternation</text>
</a>
</g>
</g>
<!-- Node3&#45;&gt;Node4 -->
<g id="edge3_Node000003_Node000004" class="edge">
<title>Node3&#45;&gt;Node4</title>
<g id="a_edge3_Node000003_Node000004"><a xlink:title=" ">
<path fill="none" stroke="#63b8ff" d="M501.15,-491C513.35,-491 526.12,-491 538.58,-491"/>
<polygon fill="#63b8ff" stroke="#63b8ff" points="538.94,-494.5 548.94,-491 538.94,-487.5 538.94,-494.5"/>
</a>
</g>
</g>
<!-- Node8 -->
<g id="Node000008" class="node">
<title>Node8</title>
<g id="a_Node000008"><a xlink:href="classnetspeak_1_1model_1_1SimpleQueryUnit____.html#a3080baa4a48b461ec365cec8f3aa967c" target="_top" xlink:title=" ">
<polygon fill="white" stroke="#666666" points="704,-410 537,-410 537,-380 704,-380 704,-410"/>
<text text-anchor="start" x="545" y="-398" font-family="Helvetica,sans-Serif" font-size="10.00">netspeak::model::SimpleQuery</text>
<text text-anchor="middle" x="620.5" y="-387" font-family="Helvetica,sans-Serif" font-size="10.00">Unit__::new_alternation</text>
</a>
</g>
</g>
<!-- Node3&#45;&gt;Node8 -->
<g id="edge7_Node000003_Node000008" class="edge">
<title>Node3&#45;&gt;Node8</title>
<g id="a_edge7_Node000003_Node000008"><a xlink:title=" ">
<path fill="none" stroke="#63b8ff" d="M485.63,-475.93C491.06,-473.37 496.29,-470.42 501,-467 522.58,-451.34 515.07,-434.17 537,-419 539.15,-417.51 541.39,-416.12 543.69,-414.81"/>
<polygon fill="#63b8ff" stroke="#63b8ff" points="545.54,-417.8 552.89,-410.18 542.39,-411.55 545.54,-417.8"/>
</a>
</g>
</g>
<!-- Node3&#45;&gt;Node9 -->
<g id="edge8_Node000003_Node000009" class="edge">
<title>Node3&#45;&gt;Node9</title>
<g id="a_edge8_Node000003_Node000009"><a xlink:title=" ">
<path fill="none" stroke="#63b8ff" d="M489.13,-475.87C493.44,-473.35 497.47,-470.42 501,-467 533.71,-435.28 503.58,-401.98 537,-371 538.28,-369.81 539.61,-368.69 540.99,-367.62"/>
<polygon fill="#63b8ff" stroke="#63b8ff" points="542.97,-370.51 549.37,-362.06 539.1,-364.67 542.97,-370.51"/>
</a>
</g>
</g>
<!-- Node5 -->
<g id="Node000005" class="node">
<title>Node5</title>
<g id="a_Node000005"><a xlink:href="classnetspeak_1_1model_1_1SimpleQueryUnit____.html#a9ae973c7bcbb9faa098c64327bad3073" target="_top" xlink:title=" ">
<polygon fill="white" stroke="#666666" points="907,-458 740,-458 740,-428 907,-428 907,-458"/>
<text text-anchor="start" x="748" y="-446" font-family="Helvetica,sans-Serif" font-size="10.00">netspeak::model::SimpleQuery</text>
<text text-anchor="middle" x="823.5" y="-435" font-family="Helvetica,sans-Serif" font-size="10.00">Unit__::add_child</text>
</a>
</g>
</g>
<!-- Node4&#45;&gt;Node5 -->
<g id="edge4_Node000004_Node000005" class="edge">
<title>Node4&#45;&gt;Node5</title>
<g id="a_edge4_Node000004_Node000005"><a xlink:title=" ">
<path fill="none" stroke="#63b8ff" d="M684.55,-475.94C705.22,-471.01 728.36,-465.48 749.69,-460.39"/>
<polygon fill="#63b8ff" stroke="#63b8ff" points="750.76,-463.73 759.68,-458 749.14,-456.92 750.76,-463.73"/>
</a>
</g>
</g>
<!-- Node6 -->
<g id="Node000006" class="node">
<title>Node6</title>
<g id="a_Node000006"><a xlink:href="classnetspeak_1_1model_1_1SimpleQueryUnit____.html#aa0ce1e648305547379b806a24111e7a0" target="_top" xlink:title=" ">
<polygon fill="white" stroke="#666666" points="907,-410 740,-410 740,-380 907,-380 907,-410"/>
<text text-anchor="start" x="748" y="-398" font-family="Helvetica,sans-Serif" font-size="10.00">netspeak::model::SimpleQuery</text>
<text text-anchor="middle" x="823.5" y="-387" font-family="Helvetica,sans-Serif" font-size="10.00">Unit__::drain_children</text>
</a>
</g>
</g>
<!-- Node4&#45;&gt;Node6 -->
<g id="edge5_Node000004_Node000006" class="edge">
<title>Node4&#45;&gt;Node6</title>
<g id="a_edge5_Node000004_Node000006"><a xlink:title=" ">
<path fill="none" stroke="#63b8ff" d="M688.11,-475.82C693.71,-473.31 699.09,-470.39 704,-467 725.93,-451.83 718.07,-434.17 740,-419 742.15,-417.51 744.39,-416.12 746.69,-414.81"/>
<polygon fill="#63b8ff" stroke="#63b8ff" points="748.54,-417.8 755.89,-410.18 745.39,-411.55 748.54,-417.8"/>
</a>
</g>
</g>
<!-- Node7 -->
<g id="Node000007" class="node">
<title>Node7</title>
<g id="a_Node000007"><a xlink:href="classnetspeak_1_1model_1_1SimpleQueryUnit____.html#a06c21084859addaa75c754815d691d39" target="_top" xlink:title=" ">
<polygon fill="white" stroke="#666666" points="907,-506 740,-506 740,-476 907,-476 907,-506"/>
<text text-anchor="start" x="748" y="-494" font-family="Helvetica,sans-Serif" font-size="10.00">netspeak::model::SimpleQuery</text>
<text text-anchor="middle" x="823.5" y="-483" font-family="Helvetica,sans-Serif" font-size="10.00">Unit__::tag</text>
</a>
</g>
</g>
<!-- Node4&#45;&gt;Node7 -->
<g id="edge6_Node000004_Node000007" class="edge">
<title>Node4&#45;&gt;Node7</title>
<g id="a_edge6_Node000004_Node000007"><a xlink:title=" ">
<path fill="none" stroke="#63b8ff" d="M692.08,-491C704.22,-491 717,-491 729.62,-491"/>
<polygon fill="#63b8ff" stroke="#63b8ff" points="729.69,-494.5 739.69,-491 729.69,-487.5 729.69,-494.5"/>
</a>
</g>
</g>
<!-- Node10&#45;&gt;Node2 -->
<g id="edge17_Node000010_Node000002" class="edge">
<title>Node10&#45;&gt;Node2</title>
<g id="a_edge17_Node000010_Node000002"><a xlink:title=" ">
<path fill="none" stroke="#63b8ff" d="M357.82,-344.84C348.53,-343.82 338.96,-342.65 329.55,-341.41"/>
<polygon fill="#63b8ff" stroke="#63b8ff" points="329.81,-337.91 319.43,-340.03 328.86,-344.85 329.81,-337.91"/>
</a>
</g>
</g>
<!-- Node10&#45;&gt;Node9 -->
<g id="edge16_Node000010_Node000009" class="edge">
<title>Node10&#45;&gt;Node9</title>
<g id="a_edge16_Node000010_Node000009"><a xlink:title=" ">
<path fill="none" stroke="#63b8ff" d="M501.15,-347C513.35,-347 526.12,-347 538.58,-347"/>
<polygon fill="#63b8ff" stroke="#63b8ff" points="538.94,-350.5 548.94,-347 538.94,-343.5 538.94,-350.5"/>
</a>
</g>
</g>
<!-- Node11 -->
<g id="Node000011" class="node">
<title>Node11</title>
<g id="a_Node000011"><a xlink:href="classnetspeak_1_1QuerySimplifier.html#a6cbbe38bc9244210c3f76635f30daaa3" target="_top" xlink:title=" ">
<polygon fill="white" stroke="#666666" points="692,-458 549,-458 549,-428 692,-428 692,-458"/>
<text text-anchor="start" x="557" y="-446" font-family="Helvetica,sans-Serif" font-size="10.00">netspeak::QuerySimplifier</text>
<text text-anchor="middle" x="620.5" y="-435" font-family="Helvetica,sans-Serif" font-size="10.00">::add_to_concat</text>
</a>
</g>
</g>
<!-- Node10&#45;&gt;Node11 -->
<g id="edge11_Node000010_Node000011" class="edge">
<title>Node10&#45;&gt;Node11</title>
<g id="a_edge11_Node000010_Node000011"><a xlink:title=" ">
<path fill="none" stroke="#63b8ff" d="M485.63,-362.07C491.06,-364.63 496.29,-367.58 501,-371 522.58,-386.66 515.07,-403.83 537,-419 539.15,-420.49 541.39,-421.88 543.69,-423.19"/>
<polygon fill="#63b8ff" stroke="#63b8ff" points="542.39,-426.45 552.89,-427.82 545.54,-420.2 542.39,-426.45"/>
</a>
</g>
</g>
<!-- Node12 -->
<g id="Node000012" class="node">
<title>Node12</title>
<g id="a_Node000012"><a xlink:href="classnetspeak_1_1model_1_1SimpleQueryUnit____.html#a42d698a0c2b81bb96d5efb842e0c09cd" target="_top" xlink:title=" ">
<polygon fill="white" stroke="#666666" points="704,-314 537,-314 537,-284 704,-284 704,-314"/>
<text text-anchor="start" x="545" y="-302" font-family="Helvetica,sans-Serif" font-size="10.00">netspeak::model::SimpleQuery</text>
<text text-anchor="middle" x="620.5" y="-291" font-family="Helvetica,sans-Serif" font-size="10.00">Unit__::new_concat</text>
</a>
</g>
</g>
<!-- Node10&#45;&gt;Node12 -->
<g id="edge15_Node000010_Node000012" class="edge">
<title>Node10&#45;&gt;Node12</title>
<g id="a_edge15_Node000010_Node000012"><a xlink:title=" ">
<path fill="none" stroke="#63b8ff" d="M489.78,-331.94C509.05,-327.05 530.59,-321.58 550.5,-316.52"/>
<polygon fill="#63b8ff" stroke="#63b8ff" points="551.6,-319.86 560.43,-314 549.87,-313.07 551.6,-319.86"/>
</a>
</g>
</g>
<!-- Node11&#45;&gt;Node5 -->
<g id="edge12_Node000011_Node000005" class="edge">
<title>Node11&#45;&gt;Node5</title>
<g id="a_edge12_Node000011_Node000005"><a xlink:title=" ">
<path fill="none" stroke="#63b8ff" d="M692.08,-443C704.22,-443 717,-443 729.62,-443"/>
<polygon fill="#63b8ff" stroke="#63b8ff" points="729.69,-446.5 739.69,-443 729.69,-439.5 729.69,-446.5"/>
</a>
</g>
</g>
<!-- Node11&#45;&gt;Node6 -->
<g id="edge13_Node000011_Node000006" class="edge">
<title>Node11&#45;&gt;Node6</title>
<g id="a_edge13_Node000011_Node000006"><a xlink:title=" ">
<path fill="none" stroke="#63b8ff" d="M684.55,-427.94C705.22,-423.01 728.36,-417.48 749.69,-412.39"/>
<polygon fill="#63b8ff" stroke="#63b8ff" points="750.76,-415.73 759.68,-410 749.14,-408.92 750.76,-415.73"/>
</a>
</g>
</g>
<!-- Node11&#45;&gt;Node7 -->
<g id="edge14_Node000011_Node000007" class="edge">
<title>Node11&#45;&gt;Node7</title>
<g id="a_edge14_Node000011_Node000007"><a xlink:title=" ">
<path fill="none" stroke="#63b8ff" d="M684.55,-458.06C705.22,-462.99 728.36,-468.52 749.69,-473.61"/>
<polygon fill="#63b8ff" stroke="#63b8ff" points="749.14,-477.08 759.68,-476 750.76,-470.27 749.14,-477.08"/>
</a>
</g>
</g>
<!-- Node13&#45;&gt;Node8 -->
<g id="edge20_Node000013_Node000008" class="edge">
<title>Node13&#45;&gt;Node8</title>
<g id="a_edge20_Node000013_Node000008"><a xlink:title=" ">
<path fill="none" stroke="#63b8ff" d="M490.16,-228.18C494.14,-230.69 497.82,-233.6 501,-237 543.15,-282.01 493.85,-326.95 537,-371 537.94,-371.96 538.91,-372.88 539.92,-373.77"/>
<polygon fill="#63b8ff" stroke="#63b8ff" points="538.09,-376.76 548.22,-379.86 542.23,-371.12 538.09,-376.76"/>
</a>
</g>
</g>
<!-- Node13&#45;&gt;Node9 -->
<g id="edge23_Node000013_Node000009" class="edge">
<title>Node13&#45;&gt;Node9</title>
<g id="a_edge23_Node000013_Node000009"><a xlink:title=" ">
<path fill="none" stroke="#63b8ff" d="M488.65,-228.08C493.12,-230.61 497.31,-233.56 501,-237 531.28,-265.28 506.09,-295.41 537,-323 538.34,-324.2 539.73,-325.33 541.18,-326.41"/>
<polygon fill="#63b8ff" stroke="#63b8ff" points="539.6,-329.56 549.91,-332 543.37,-323.66 539.6,-329.56"/>
</a>
</g>
</g>
<!-- Node13&#45;&gt;Node12 -->
<g id="edge21_Node000013_Node000012" class="edge">
<title>Node13&#45;&gt;Node12</title>
<g id="a_edge21_Node000013_Node000012"><a xlink:title=" ">
<path fill="none" stroke="#63b8ff" d="M484.15,-228.15C490.03,-230.71 495.78,-233.65 501,-237 520.58,-249.56 517.14,-262.88 537,-275 539.8,-276.71 542.73,-278.3 545.75,-279.78"/>
<polygon fill="#63b8ff" stroke="#63b8ff" points="544.44,-283.04 555,-283.92 547.3,-276.64 544.44,-283.04"/>
</a>
</g>
</g>
<!-- Node13&#45;&gt;Node14 -->
<g id="edge19_Node000013_Node000014" class="edge">
<title>Node13&#45;&gt;Node14</title>
<g id="a_edge19_Node000013_Node000014"><a xlink:title=" ">
<path fill="none" stroke="#63b8ff" d="M501.15,-209.26C513.47,-208.61 526.38,-207.93 538.95,-207.26"/>
<polygon fill="#63b8ff" stroke="#63b8ff" points="539.14,-210.76 548.94,-206.73 538.77,-203.77 539.14,-210.76"/>
</a>
</g>
</g>
<!-- Node13&#45;&gt;Node15 -->
<g id="edge22_Node000013_Node000015" class="edge">
<title>Node13&#45;&gt;Node15</title>
<g id="a_edge22_Node000013_Node000015"><a xlink:title=" ">
<path fill="none" stroke="#63b8ff" d="M474.81,-197.99C501.97,-188.8 536.91,-176.97 565.65,-167.24"/>
<polygon fill="#63b8ff" stroke="#63b8ff" points="566.79,-170.54 575.14,-164.02 564.54,-163.91 566.79,-170.54"/>
</a>
</g>
</g>
<!-- Node18&#45;&gt;Node2 -->
<g id="edge33_Node000018_Node000002" class="edge">
<title>Node18&#45;&gt;Node2</title>
<g id="a_edge33_Node000018_Node000002"><a xlink:title=" ">
<path fill="none" stroke="#63b8ff" d="M358.36,-380.14C358.24,-380.09 358.12,-380.05 358,-380 330.83,-369.52 300.37,-356.21 279.01,-344.98"/>
<polygon fill="#63b8ff" stroke="#63b8ff" points="280.62,-341.87 270.17,-340.15 277.26,-348.01 280.62,-341.87"/>
</a>
</g>
</g>
<!-- Node18&#45;&gt;Node4 -->
<g id="edge29_Node000018_Node000004" class="edge">
<title>Node18&#45;&gt;Node4</title>
<g id="a_edge29_Node000018_Node000004"><a xlink:title=" ">
<path fill="none" stroke="#63b8ff" d="M485.63,-410.07C491.06,-412.63 496.29,-415.58 501,-419 522.58,-434.66 515.07,-451.83 537,-467 539.15,-468.49 541.39,-469.88 543.69,-471.19"/>
<polygon fill="#63b8ff" stroke="#63b8ff" points="542.39,-474.45 552.89,-475.82 545.54,-468.2 542.39,-474.45"/>
</a>
</g>
</g>
<!-- Node18&#45;&gt;Node8 -->
<g id="edge30_Node000018_Node000008" class="edge">
<title>Node18&#45;&gt;Node8</title>
<g id="a_edge30_Node000018_Node000008"><a xlink:title=" ">
<path fill="none" stroke="#63b8ff" d="M501.15,-395C509.51,-395 518.14,-395 526.75,-395"/>
<polygon fill="#63b8ff" stroke="#63b8ff" points="526.84,-398.5 536.84,-395 526.84,-391.5 526.84,-398.5"/>
</a>
</g>
</g>
<!-- Node18&#45;&gt;Node9 -->
<g id="edge32_Node000018_Node000009" class="edge">
<title>Node18&#45;&gt;Node9</title>
<g id="a_edge32_Node000018_Node000009"><a xlink:title=" ">
<path fill="none" stroke="#63b8ff" d="M489.78,-379.94C509.05,-375.05 530.59,-369.58 550.5,-364.52"/>
<polygon fill="#63b8ff" stroke="#63b8ff" points="551.6,-367.86 560.43,-362 549.87,-361.07 551.6,-367.86"/>
</a>
</g>
</g>
<!-- Node18&#45;&gt;Node12 -->
<g id="edge31_Node000018_Node000012" class="edge">
<title>Node18&#45;&gt;Node12</title>
<g id="a_edge31_Node000018_Node000012"><a xlink:title=" ">
<path fill="none" stroke="#63b8ff" d="M485.63,-379.93C491.06,-377.37 496.29,-374.42 501,-371 522.58,-355.34 515.07,-338.17 537,-323 539.15,-321.51 541.39,-320.12 543.69,-318.81"/>
<polygon fill="#63b8ff" stroke="#63b8ff" points="545.54,-321.8 552.89,-314.18 542.39,-315.55 545.54,-321.8"/>
</a>
</g>
</g>
<!-- Node19&#45;&gt;Node2 -->
<g id="edge41_Node000019_Node000002" class="edge">
<title>Node19&#45;&gt;Node2</title>
<g id="a_edge41_Node000019_Node000002"><a xlink:title=" ">
<path fill="none" stroke="#63b8ff" d="M358.34,-428.19C358.22,-428.13 358.11,-428.06 358,-428 321.33,-406.73 285.89,-371.64 266.56,-348.16"/>
<polygon fill="#63b8ff" stroke="#63b8ff" points="269.13,-345.77 260.19,-340.08 263.63,-350.1 269.13,-345.77"/>
</a>
</g>
</g>
<!-- Node19&#45;&gt;Node8 -->
<g id="edge38_Node000019_Node000008" class="edge">
<title>Node19&#45;&gt;Node8</title>
<g id="a_edge38_Node000019_Node000008"><a xlink:title=" ">
<path fill="none" stroke="#63b8ff" d="M489.78,-427.94C509.05,-423.05 530.59,-417.58 550.5,-412.52"/>
<polygon fill="#63b8ff" stroke="#63b8ff" points="551.6,-415.86 560.43,-410 549.87,-409.07 551.6,-415.86"/>
</a>
</g>
</g>
<!-- Node19&#45;&gt;Node9 -->
<g id="edge40_Node000019_Node000009" class="edge">
<title>Node19&#45;&gt;Node9</title>
<g id="a_edge40_Node000019_Node000009"><a xlink:title=" ">
<path fill="none" stroke="#63b8ff" d="M485.63,-427.93C491.06,-425.37 496.29,-422.42 501,-419 522.58,-403.34 515.07,-386.17 537,-371 539.15,-369.51 541.39,-368.12 543.69,-366.81"/>
<polygon fill="#63b8ff" stroke="#63b8ff" points="545.54,-369.8 552.89,-362.18 542.39,-363.55 545.54,-369.8"/>
</a>
</g>
</g>
<!-- Node19&#45;&gt;Node11 -->
<g id="edge35_Node000019_Node000011" class="edge">
<title>Node19&#45;&gt;Node11</title>
<g id="a_edge35_Node000019_Node000011"><a xlink:title=" ">
<path fill="none" stroke="#63b8ff" d="M501.15,-443C513.35,-443 526.12,-443 538.58,-443"/>
<polygon fill="#63b8ff" stroke="#63b8ff" points="538.94,-446.5 548.94,-443 538.94,-439.5 538.94,-446.5"/>
</a>
</g>
</g>
<!-- Node19&#45;&gt;Node12 -->
<g id="edge39_Node000019_Node000012" class="edge">
<title>Node19&#45;&gt;Node12</title>
<g id="a_edge39_Node000019_Node000012"><a xlink:title=" ">
<path fill="none" stroke="#63b8ff" d="M489.13,-427.87C493.44,-425.35 497.47,-422.42 501,-419 533.71,-387.28 503.58,-353.98 537,-323 538.28,-321.81 539.61,-320.69 540.99,-319.62"/>
<polygon fill="#63b8ff" stroke="#63b8ff" points="542.97,-322.51 549.37,-314.06 539.1,-316.67 542.97,-322.51"/>
</a>
</g>
</g>
<!-- Node20 -->
<g id="Node000020" class="node">
<title>Node20</title>
<g id="a_Node000020"><a xlink:href="namespacenetspeak_1_1util.html#a907f0924900ed20d328dd2ac8db7aad0" target="_top" xlink:title=" ">
<polygon fill="white" stroke="#666666" points="685.5,-543.5 555.5,-543.5 555.5,-524.5 685.5,-524.5 685.5,-543.5"/>
<text text-anchor="middle" x="620.5" y="-531.5" font-family="Helvetica,sans-Serif" font-size="10.00">netspeak::util::factorial</text>
</a>
</g>
</g>
<!-- Node19&#45;&gt;Node20 -->
<g id="edge36_Node000019_Node000020" class="edge">
<title>Node19&#45;&gt;Node20</title>
<g id="a_edge36_Node000019_Node000020"><a xlink:title=" ">
<path fill="none" stroke="#63b8ff" d="M485.63,-458.07C491.06,-460.63 496.29,-463.58 501,-467 522.58,-482.66 514.65,-500.46 537,-515 540.14,-517.04 543.48,-518.87 546.93,-520.5"/>
<polygon fill="#63b8ff" stroke="#63b8ff" points="545.75,-523.8 556.32,-524.37 548.42,-517.32 545.75,-523.8"/>
</a>
</g>
</g>
<!-- Node21 -->
<g id="Node000021" class="node">
<title>Node21</title>
<g id="a_Node000021"><a xlink:href="namespacenetspeak_1_1util.html#a4c91ad572508b4021399ac7dddff574d" target="_top" xlink:title=" ">
<polygon fill="white" stroke="#666666" points="880,-543.5 767,-543.5 767,-524.5 880,-524.5 880,-543.5"/>
<text text-anchor="middle" x="823.5" y="-531.5" font-family="Helvetica,sans-Serif" font-size="10.00">netspeak::util::hash</text>
</a>
</g>
</g>
<!-- Node20&#45;&gt;Node21 -->
<g id="edge37_Node000020_Node000021" class="edge">
<title>Node20&#45;&gt;Node21</title>
<g id="a_edge37_Node000020_Node000021"><a xlink:title=" ">
<path fill="none" stroke="#63b8ff" d="M685.65,-534C708.27,-534 733.72,-534 756.49,-534"/>
<polygon fill="#63b8ff" stroke="#63b8ff" points="756.74,-537.5 766.74,-534 756.74,-530.5 756.74,-537.5"/>
</a>
</g>
</g>
<!-- Node22&#45;&gt;Node9 -->
<g id="edge46_Node000022_Node000009" class="edge">
<title>Node22&#45;&gt;Node9</title>
<g id="a_edge46_Node000022_Node000009"><a xlink:title=" ">
<path fill="none" stroke="#63b8ff" d="M454.06,-142.2C469.57,-153.37 489.13,-169.89 501,-189 533.55,-241.38 493.85,-278.95 537,-323 538.11,-324.13 539.27,-325.21 540.47,-326.24"/>
<polygon fill="#63b8ff" stroke="#63b8ff" points="538.82,-329.36 548.99,-332.33 542.89,-323.67 538.82,-329.36"/>
</a>
</g>
</g>
<!-- Node22&#45;&gt;Node12 -->
<g id="edge43_Node000022_Node000012" class="edge">
<title>Node22&#45;&gt;Node12</title>
<g id="a_edge43_Node000022_Node000012"><a xlink:title=" ">
<path fill="none" stroke="#63b8ff" d="M452.61,-142.24C467.85,-153.66 487.69,-170.47 501,-189 525.18,-222.65 506.09,-247.41 537,-275 538.34,-276.2 539.73,-277.33 541.18,-278.41"/>
<polygon fill="#63b8ff" stroke="#63b8ff" points="539.6,-281.56 549.91,-284 543.37,-275.66 539.6,-281.56"/>
</a>
</g>
</g>
<!-- Node22&#45;&gt;Node16 -->
<g id="edge44_Node000022_Node000016" class="edge">
<title>Node22&#45;&gt;Node16</title>
<g id="a_edge44_Node000022_Node000016"><a xlink:title=" ">
<path fill="none" stroke="#63b8ff" d="M501.15,-112.42C512.78,-110.02 524.92,-107.52 536.82,-105.06"/>
<polygon fill="#63b8ff" stroke="#63b8ff" points="537.65,-108.46 546.73,-103.02 536.23,-101.61 537.65,-108.46"/>
</a>
</g>
</g>
<!-- Node22&#45;&gt;Node17 -->
<g id="edge45_Node000022_Node000017" class="edge">
<title>Node22&#45;&gt;Node17</title>
<g id="a_edge45_Node000022_Node000017"><a xlink:title=" ">
<path fill="none" stroke="#63b8ff" d="M455.99,-111.9C489.34,-92.13 547.89,-57.43 585.13,-35.37"/>
<polygon fill="#63b8ff" stroke="#63b8ff" points="587.29,-38.15 594.11,-30.04 583.73,-32.13 587.29,-38.15"/>
</a>
</g>
</g>
<!-- Node23&#45;&gt;Node8 -->
<g id="edge49_Node000023_Node000008" class="edge">
<title>Node23&#45;&gt;Node8</title>
<g id="a_edge49_Node000023_Node000008"><a xlink:title=" ">
<path fill="none" stroke="#63b8ff" d="M449.72,-276.08C464.47,-288.06 484.95,-305.65 501,-323 519.11,-342.58 515.07,-355.83 537,-371 539.15,-372.49 541.39,-373.88 543.69,-375.19"/>
<polygon fill="#63b8ff" stroke="#63b8ff" points="542.39,-378.45 552.89,-379.82 545.54,-372.2 542.39,-378.45"/>
</a>
</g>
</g>
<!-- Node23&#45;&gt;Node9 -->
<g id="edge51_Node000023_Node000009" class="edge">
<title>Node23&#45;&gt;Node9</title>
<g id="a_edge51_Node000023_Node000009"><a xlink:title=" ">
<path fill="none" stroke="#63b8ff" d="M473.83,-276.01C483.1,-279.98 492.62,-284.68 501,-290 519.32,-301.64 518.08,-312.36 537,-323 540.08,-324.73 543.3,-326.35 546.61,-327.87"/>
<polygon fill="#63b8ff" stroke="#63b8ff" points="545.53,-331.21 556.11,-331.84 548.23,-324.75 545.53,-331.21"/>
</a>
</g>
</g>
<!-- Node23&#45;&gt;Node14 -->
<g id="edge48_Node000023_Node000014" class="edge">
<title>Node23&#45;&gt;Node14</title>
<g id="a_edge48_Node000023_Node000014"><a xlink:title=" ">
<path fill="none" stroke="#63b8ff" d="M476.81,-245.93C495.48,-239.93 517.23,-233.03 537,-227 543.52,-225.01 550.34,-222.97 557.14,-220.95"/>
<polygon fill="#63b8ff" stroke="#63b8ff" points="558.46,-224.21 567.07,-218.03 556.49,-217.5 558.46,-224.21"/>
</a>
</g>
</g>
<!-- Node24 -->
<g id="Node000024" class="node">
<title>Node24</title>
<g id="a_Node000024"><a xlink:href="classnetspeak_1_1model_1_1SimpleQueryUnit____.html#a9c3bd26c2e3a029ee43dd0a1590ba7db" target="_top" xlink:title=" ">
<polygon fill="white" stroke="#666666" points="704,-266 537,-266 537,-236 704,-236 704,-266"/>
<text text-anchor="start" x="545" y="-254" font-family="Helvetica,sans-Serif" font-size="10.00">netspeak::model::SimpleQuery</text>
<text text-anchor="middle" x="620.5" y="-243" font-family="Helvetica,sans-Serif" font-size="10.00">Unit__::new_regex</text>
</a>
</g>
</g>
<!-- Node23&#45;&gt;Node24 -->
<g id="edge50_Node000023_Node000024" class="edge">
<title>Node23&#45;&gt;Node24</title>
<g id="a_edge50_Node000023_Node000024"><a xlink:title=" ">
<path fill="none" stroke="#63b8ff" d="M501.15,-257.26C509.51,-256.82 518.14,-256.36 526.75,-255.91"/>
<polygon fill="#63b8ff" stroke="#63b8ff" points="527.04,-259.4 536.84,-255.37 526.67,-252.41 527.04,-259.4"/>
</a>
</g>
</g>
</g>
</svg>
