<?xml version="1.0" encoding="UTF-8" standalone="no"?>
<!DOCTYPE svg PUBLIC "-//W3C//DTD SVG 1.1//EN"
 "http://www.w3.org/Graphics/SVG/1.1/DTD/svg11.dtd">
<!-- Generated by graphviz version 2.43.0 (0)
 -->
<!-- Title: netspeak::value::triple::e1 Pages: 1 -->
<svg width="346pt" height="718pt"
 viewBox="0.00 0.00 346.00 718.00" xmlns="http://www.w3.org/2000/svg" xmlns:xlink="http://www.w3.org/1999/xlink">
<g id="graph0" class="graph" transform="scale(1 1) rotate(0) translate(4 714)">
<title>netspeak::value::triple::e1</title>
<!-- Node1 -->
<g id="Node000001" class="node">
<title>Node1</title>
<g id="a_Node000001"><a xlink:title=" ">
<polygon fill="#999999" stroke="#666666" points="338,-381 194,-381 194,-362 338,-362 338,-381"/>
<text text-anchor="middle" x="266" y="-369" font-family="Helvetica,sans-Serif" font-size="10.00">netspeak::value::triple::e1</text>
</a>
</g>
</g>
<!-- Node2 -->
<g id="Node000002" class="node">
<title>Node2</title>
<g id="a_Node000002"><a xlink:href="structnetspeak_1_1value_1_1value__traits_3_01triple_3_01T1_00_01T2_00_01T3_01_4_01_4.html#a7f45afca1b4c39f43c8557635cde89ed" target="_top" xlink:title=" ">
<polygon fill="white" stroke="#666666" points="143,-710 15,-710 15,-669 143,-669 143,-710"/>
<text text-anchor="start" x="23" y="-698" font-family="Helvetica,sans-Serif" font-size="10.00">netspeak::value::value</text>
<text text-anchor="start" x="23" y="-687" font-family="Helvetica,sans-Serif" font-size="10.00">_traits&lt; triple&lt; T1, T2,</text>
<text text-anchor="middle" x="79" y="-676" font-family="Helvetica,sans-Serif" font-size="10.00"> T3 &gt; &gt;::copy_from</text>
</a>
</g>
</g>
<!-- Node1&#45;&gt;Node2 -->
<g id="edge1_Node000001_Node000002" class="edge">
<title>Node1&#45;&gt;Node2</title>
<g id="a_edge1_Node000001_Node000002"><a xlink:title=" ">
<path fill="none" stroke="#63b8ff" d="M263.26,-391.4C257.69,-443 235.85,-582.54 158,-660.5 153.61,-664.9 148.49,-668.63 143.02,-671.81"/>
<polygon fill="#63b8ff" stroke="#63b8ff" points="266.76,-391.56 264.26,-381.26 259.79,-390.87 266.76,-391.56"/>
</a>
</g>
</g>
<!-- Node3 -->
<g id="Node000003" class="node">
<title>Node3</title>
<g id="a_Node000003"><a xlink:href="structnetspeak_1_1value_1_1value__traits_3_01triple_3_01T1_00_01T2_00_01T3_01_4_01_4.html#af9f68ea839254135f0f4c5a260d562f5" target="_top" xlink:title=" ">
<polygon fill="white" stroke="#666666" points="143,-651 15,-651 15,-610 143,-610 143,-651"/>
<text text-anchor="start" x="23" y="-639" font-family="Helvetica,sans-Serif" font-size="10.00">netspeak::value::value</text>
<text text-anchor="start" x="23" y="-628" font-family="Helvetica,sans-Serif" font-size="10.00">_traits&lt; triple&lt; T1, T2,</text>
<text text-anchor="middle" x="79" y="-617" font-family="Helvetica,sans-Serif" font-size="10.00"> T3 &gt; &gt;::copy_to</text>
</a>
</g>
</g>
<!-- Node1&#45;&gt;Node3 -->
<g id="edge2_Node000001_Node000003" class="edge">
<title>Node1&#45;&gt;Node3</title>
<g id="a_edge2_Node000001_Node000003"><a xlink:title=" ">
<path fill="none" stroke="#63b8ff" d="M261.11,-391.37C251.51,-435.38 222.59,-541.85 158,-601.5 153.54,-605.62 148.45,-609.16 143.05,-612.22"/>
<polygon fill="#63b8ff" stroke="#63b8ff" points="264.58,-391.88 263.19,-381.37 257.73,-390.45 264.58,-391.88"/>
</a>
</g>
</g>
<!-- Node4 -->
<g id="Node000004" class="node">
<title>Node4</title>
<g id="a_Node000004"><a xlink:href="structnetspeak_1_1value_1_1generator_3_01triple_3_01T1_00_01T2_00_01T3_01_4_01_4.html#a5e9b1b4aebb5c9f87c06efdf0a06bd5f" target="_top" xlink:title=" ">
<polygon fill="white" stroke="#666666" points="153,-592 5,-592 5,-551 153,-551 153,-592"/>
<text text-anchor="start" x="13" y="-580" font-family="Helvetica,sans-Serif" font-size="10.00">netspeak::value::generator</text>
<text text-anchor="start" x="13" y="-569" font-family="Helvetica,sans-Serif" font-size="10.00">&lt; triple&lt; T1, T2, T3 &gt; &gt;</text>
<text text-anchor="middle" x="79" y="-558" font-family="Helvetica,sans-Serif" font-size="10.00">::numbered</text>
</a>
</g>
</g>
<!-- Node1&#45;&gt;Node4 -->
<g id="edge3_Node000001_Node000004" class="edge">
<title>Node1&#45;&gt;Node4</title>
<g id="a_edge3_Node000001_Node000004"><a xlink:title=" ">
<path fill="none" stroke="#63b8ff" d="M257.88,-390.68C243.97,-425.68 209.91,-500.19 158,-542.5 154.19,-545.6 150.02,-548.39 145.65,-550.9"/>
<polygon fill="#63b8ff" stroke="#63b8ff" points="261.22,-391.76 261.55,-381.17 254.69,-389.24 261.22,-391.76"/>
</a>
</g>
</g>
<!-- Node5 -->
<g id="Node000005" class="node">
<title>Node5</title>
<g id="a_Node000005"><a xlink:href="namespacenetspeak_1_1value.html#a83a5d84ffd7ec724b32503b5f6610a19" target="_top" xlink:title=" ">
<polygon fill="white" stroke="#666666" points="154,-533 4,-533 4,-514 154,-514 154,-533"/>
<text text-anchor="middle" x="79" y="-521" font-family="Helvetica,sans-Serif" font-size="10.00">netspeak::value::operator&lt;</text>
</a>
</g>
</g>
<!-- Node1&#45;&gt;Node5 -->
<g id="edge4_Node000001_Node000005" class="edge">
<title>Node1&#45;&gt;Node5</title>
<g id="a_edge4_Node000001_Node000005"><a xlink:title=" ">
<path fill="none" stroke="#63b8ff" d="M255.44,-390.28C239.46,-419.69 204.42,-476.27 158,-505.5 152.59,-508.91 146.61,-511.67 140.43,-513.91"/>
<polygon fill="#63b8ff" stroke="#63b8ff" points="258.71,-391.58 260.29,-381.1 252.52,-388.31 258.71,-391.58"/>
</a>
</g>
</g>
<!-- Node6 -->
<g id="Node000006" class="node">
<title>Node6</title>
<g id="a_Node000006"><a xlink:href="namespacenetspeak_1_1value.html#a648fc810ea1b6c921475a7b1b490b9c4" target="_top" xlink:title=" ">
<polygon fill="white" stroke="#666666" points="158,-496 0,-496 0,-477 158,-477 158,-496"/>
<text text-anchor="middle" x="79" y="-484" font-family="Helvetica,sans-Serif" font-size="10.00">netspeak::value::operator==</text>
</a>
</g>
</g>
<!-- Node1&#45;&gt;Node6 -->
<g id="edge5_Node000001_Node000006" class="edge">
<title>Node1&#45;&gt;Node6</title>
<g id="a_edge5_Node000001_Node000006"><a xlink:title=" ">
<path fill="none" stroke="#63b8ff" d="M250.68,-389.13C231.81,-411.16 196.45,-448.4 158,-468.5 151.47,-471.91 144.3,-474.68 137.04,-476.93"/>
<polygon fill="#63b8ff" stroke="#63b8ff" points="253.56,-391.15 257.3,-381.24 248.19,-386.65 253.56,-391.15"/>
</a>
</g>
</g>
<!-- Node7 -->
<g id="Node000007" class="node">
<title>Node7</title>
<g id="a_Node000007"><a xlink:href="namespacenetspeak_1_1value.html#a9f32b7806355cd806885b8dda520aa0f" target="_top" xlink:title=" ">
<polygon fill="white" stroke="#666666" points="154,-459 4,-459 4,-440 154,-440 154,-459"/>
<text text-anchor="middle" x="79" y="-447" font-family="Helvetica,sans-Serif" font-size="10.00">netspeak::value::operator&gt;</text>
</a>
</g>
</g>
<!-- Node1&#45;&gt;Node7 -->
<g id="edge6_Node000001_Node000007" class="edge">
<title>Node1&#45;&gt;Node7</title>
<g id="a_edge6_Node000001_Node000007"><a xlink:title=" ">
<path fill="none" stroke="#63b8ff" d="M242.58,-386.58C221.54,-400.1 188.8,-419.59 158,-431.5 149.44,-434.81 140.12,-437.61 130.98,-439.94"/>
<polygon fill="#63b8ff" stroke="#63b8ff" points="244.64,-389.41 251.1,-381.01 240.81,-383.55 244.64,-389.41"/>
</a>
</g>
</g>
<!-- Node8 -->
<g id="Node000008" class="node">
<title>Node8</title>
<g id="a_Node000008"><a xlink:href="structnetspeak_1_1value_1_1value__traits_3_01triple_3_01T1_00_01T2_00_01T3_01_4_01_4.html#a376b4b8dd781177db5bddfa56610cae4" target="_top" xlink:title=" ">
<polygon fill="white" stroke="#666666" points="143,-422 15,-422 15,-381 143,-381 143,-422"/>
<text text-anchor="start" x="23" y="-410" font-family="Helvetica,sans-Serif" font-size="10.00">netspeak::value::value</text>
<text text-anchor="start" x="23" y="-399" font-family="Helvetica,sans-Serif" font-size="10.00">_traits&lt; triple&lt; T1, T2,</text>
<text text-anchor="middle" x="79" y="-388" font-family="Helvetica,sans-Serif" font-size="10.00"> T3 &gt; &gt;::parse_from</text>
</a>
</g>
</g>
<!-- Node1&#45;&gt;Node8 -->
<g id="edge7_Node000001_Node000008" class="edge">
<title>Node1&#45;&gt;Node8</title>
<g id="a_edge7_Node000001_Node000008"><a xlink:title=" ">
<path fill="none" stroke="#63b8ff" d="M196.14,-382.67C178.76,-385.48 160.19,-388.5 143.12,-391.27"/>
<polygon fill="#63b8ff" stroke="#63b8ff" points="196.9,-386.09 206.21,-381.03 195.78,-379.18 196.9,-386.09"/>
</a>
</g>
</g>
<!-- Node9 -->
<g id="Node000009" class="node">
<title>Node9</title>
<g id="a_Node000009"><a xlink:href="structnetspeak_1_1value_1_1value__traits_3_01triple_3_01T1_00_01T2_00_01T3_01_4_01_4.html#aa1bafa80ea0b93680f0734d448d24e79" target="_top" xlink:title=" ">
<polygon fill="white" stroke="#666666" points="143,-363 15,-363 15,-322 143,-322 143,-363"/>
<text text-anchor="start" x="23" y="-351" font-family="Helvetica,sans-Serif" font-size="10.00">netspeak::value::value</text>
<text text-anchor="start" x="23" y="-340" font-family="Helvetica,sans-Serif" font-size="10.00">_traits&lt; triple&lt; T1, T2,</text>
<text text-anchor="middle" x="79" y="-329" font-family="Helvetica,sans-Serif" font-size="10.00"> T3 &gt; &gt;::print_to</text>
</a>
</g>
</g>
<!-- Node1&#45;&gt;Node9 -->
<g id="edge8_Node000001_Node000009" class="edge">
<title>Node1&#45;&gt;Node9</title>
<g id="a_edge8_Node000001_Node000009"><a xlink:title=" ">
<path fill="none" stroke="#63b8ff" d="M193.9,-360.35C177.16,-357.73 159.44,-354.95 143.09,-352.39"/>
<polygon fill="#63b8ff" stroke="#63b8ff" points="193.75,-363.87 204.17,-361.96 194.83,-356.96 193.75,-363.87"/>
</a>
</g>
</g>
<!-- Node10 -->
<g id="Node000010" class="node">
<title>Node10</title>
<g id="a_Node000010"><a xlink:href="structnetspeak_1_1value_1_1generator_3_01triple_3_01T1_00_01T2_00_01T3_01_4_01_4.html#af8a53e77c0e2b633ec6f6a7202f2233b" target="_top" xlink:title=" ">
<polygon fill="white" stroke="#666666" points="153,-304 5,-304 5,-263 153,-263 153,-304"/>
<text text-anchor="start" x="13" y="-292" font-family="Helvetica,sans-Serif" font-size="10.00">netspeak::value::generator</text>
<text text-anchor="start" x="13" y="-281" font-family="Helvetica,sans-Serif" font-size="10.00">&lt; triple&lt; T1, T2, T3 &gt; &gt;</text>
<text text-anchor="middle" x="79" y="-270" font-family="Helvetica,sans-Serif" font-size="10.00">::randomized</text>
</a>
</g>
</g>
<!-- Node1&#45;&gt;Node10 -->
<g id="edge9_Node000001_Node000010" class="edge">
<title>Node1&#45;&gt;Node10</title>
<g id="a_edge9_Node000001_Node000010"><a xlink:title=" ">
<path fill="none" stroke="#63b8ff" d="M240.26,-356.9C218.87,-344.57 186.92,-326.83 158,-313.5 151.02,-310.28 143.58,-307.11 136.18,-304.1"/>
<polygon fill="#63b8ff" stroke="#63b8ff" points="238.61,-359.99 249.02,-361.99 242.13,-353.94 238.61,-359.99"/>
</a>
</g>
</g>
<!-- Node11 -->
<g id="Node000011" class="node">
<title>Node11</title>
<g id="a_Node000011"><a xlink:href="structnetspeak_1_1value_1_1value__traits_3_01triple_3_01T1_00_01T2_00_01T3_01_4_01_4.html#a77d7faeef54dae17ed978bccd9d7031a" target="_top" xlink:title=" ">
<polygon fill="white" stroke="#666666" points="143,-245 15,-245 15,-204 143,-204 143,-245"/>
<text text-anchor="start" x="23" y="-233" font-family="Helvetica,sans-Serif" font-size="10.00">netspeak::value::value</text>
<text text-anchor="start" x="23" y="-222" font-family="Helvetica,sans-Serif" font-size="10.00">_traits&lt; triple&lt; T1, T2,</text>
<text text-anchor="middle" x="79" y="-211" font-family="Helvetica,sans-Serif" font-size="10.00"> T3 &gt; &gt;::read_from</text>
</a>
</g>
</g>
<!-- Node1&#45;&gt;Node11 -->
<g id="edge10_Node000001_Node000011" class="edge">
<title>Node1&#45;&gt;Node11</title>
<g id="a_edge10_Node000001_Node000011"><a xlink:title=" ">
<path fill="none" stroke="#63b8ff" d="M252.83,-353.65C234.81,-328.41 198.71,-282.27 158,-254.5 152.97,-251.07 147.48,-247.95 141.84,-245.14"/>
<polygon fill="#63b8ff" stroke="#63b8ff" points="250.03,-355.75 258.63,-361.94 255.77,-351.74 250.03,-355.75"/>
</a>
</g>
</g>
<!-- Node12 -->
<g id="Node000012" class="node">
<title>Node12</title>
<g id="a_Node000012"><a xlink:href="classnetspeak_1_1value_1_1triple.html#a4cfbe2f4628a94a72190b428b3d56c4f" target="_top" xlink:title=" ">
<polygon fill="white" stroke="#666666" points="152.5,-186 5.5,-186 5.5,-167 152.5,-167 152.5,-186"/>
<text text-anchor="middle" x="79" y="-174" font-family="Helvetica,sans-Serif" font-size="10.00">netspeak::value::triple::set</text>
</a>
</g>
</g>
<!-- Node1&#45;&gt;Node12 -->
<g id="edge11_Node000001_Node000012" class="edge">
<title>Node1&#45;&gt;Node12</title>
<g id="a_edge11_Node000001_Node000012"><a xlink:title=" ">
<path fill="none" stroke="#63b8ff" d="M258.86,-352.15C246.21,-315.56 213.68,-236.25 158,-195.5 152.71,-191.63 146.74,-188.54 140.51,-186.08"/>
<polygon fill="#63b8ff" stroke="#63b8ff" points="255.55,-353.28 262.03,-361.66 262.19,-351.06 255.55,-353.28"/>
</a>
</g>
</g>
<!-- Node13 -->
<g id="Node000013" class="node">
<title>Node13</title>
<g id="a_Node000013"><a xlink:href="classnetspeak_1_1value_1_1triple.html#a185e2e767d789c67881fc499ca938598" target="_top" xlink:title=" ">
<polygon fill="white" stroke="#666666" points="142,-148.5 16,-148.5 16,-118.5 142,-118.5 142,-148.5"/>
<text text-anchor="start" x="24" y="-136.5" font-family="Helvetica,sans-Serif" font-size="10.00">netspeak::value::triple</text>
<text text-anchor="middle" x="79" y="-125.5" font-family="Helvetica,sans-Serif" font-size="10.00">::set_e1</text>
</a>
</g>
</g>
<!-- Node1&#45;&gt;Node13 -->
<g id="edge12_Node000001_Node000013" class="edge">
<title>Node1&#45;&gt;Node13</title>
<g id="a_edge12_Node000001_Node000013"><a xlink:title=" ">
<path fill="none" stroke="#63b8ff" d="M260.64,-352.03C250.3,-310.33 220.35,-211.84 158,-158.5 153.25,-154.43 147.82,-151.02 142.1,-148.17"/>
<polygon fill="#63b8ff" stroke="#63b8ff" points="257.24,-352.86 262.95,-361.78 264.05,-351.24 257.24,-352.86"/>
</a>
</g>
</g>
<!-- Node14 -->
<g id="Node000014" class="node">
<title>Node14</title>
<g id="a_Node000014"><a xlink:href="structnetspeak_1_1value_1_1value__traits_3_01triple_3_01T1_00_01T2_00_01T3_01_4_01_4.html#a360c8332f0d67fc516c13e225f8cdb22" target="_top" xlink:title=" ">
<polygon fill="white" stroke="#666666" points="143,-100 15,-100 15,-59 143,-59 143,-100"/>
<text text-anchor="start" x="23" y="-88" font-family="Helvetica,sans-Serif" font-size="10.00">netspeak::value::value</text>
<text text-anchor="start" x="23" y="-77" font-family="Helvetica,sans-Serif" font-size="10.00">_traits&lt; triple&lt; T1, T2,</text>
<text text-anchor="middle" x="79" y="-66" font-family="Helvetica,sans-Serif" font-size="10.00"> T3 &gt; &gt;::size_of</text>
</a>
</g>
</g>
<!-- Node1&#45;&gt;Node14 -->
<g id="edge13_Node000001_Node000014" class="edge">
<title>Node1&#45;&gt;Node14</title>
<g id="a_edge13_Node000001_Node000014"><a xlink:title=" ">
<path fill="none" stroke="#63b8ff" d="M262.38,-351.91C254.95,-303.97 229.48,-179.53 158,-109.5 153.65,-105.24 148.62,-101.56 143.27,-98.4"/>
<polygon fill="#63b8ff" stroke="#63b8ff" points="258.93,-352.51 263.83,-361.9 265.85,-351.5 258.93,-352.51"/>
</a>
</g>
</g>
<!-- Node15 -->
<g id="Node000015" class="node">
<title>Node15</title>
<g id="a_Node000015"><a xlink:href="structnetspeak_1_1value_1_1value__traits_3_01triple_3_01T1_00_01T2_00_01T3_01_4_01_4.html#a25b671959c19e3da27a557986f9a9534" target="_top" xlink:title=" ">
<polygon fill="white" stroke="#666666" points="143,-41 15,-41 15,0 143,0 143,-41"/>
<text text-anchor="start" x="23" y="-29" font-family="Helvetica,sans-Serif" font-size="10.00">netspeak::value::value</text>
<text text-anchor="start" x="23" y="-18" font-family="Helvetica,sans-Serif" font-size="10.00">_traits&lt; triple&lt; T1, T2,</text>
<text text-anchor="middle" x="79" y="-7" font-family="Helvetica,sans-Serif" font-size="10.00"> T3 &gt; &gt;::write_to</text>
</a>
</g>
</g>
<!-- Node1&#45;&gt;Node15 -->
<g id="edge14_Node000001_Node000015" class="edge">
<title>Node1&#45;&gt;Node15</title>
<g id="a_edge14_Node000001_Node000015"><a xlink:title=" ">
<path fill="none" stroke="#63b8ff" d="M264.06,-351.72C260.4,-296.53 242.68,-139.12 158,-50.5 153.69,-45.99 148.63,-42.15 143.19,-38.88"/>
<polygon fill="#63b8ff" stroke="#63b8ff" points="260.58,-352.1 264.65,-361.88 267.57,-351.7 260.58,-352.1"/>
</a>
</g>
</g>
</g>
</svg>
