<?xml version="1.0" encoding="UTF-8" standalone="no"?>
<!DOCTYPE svg PUBLIC "-//W3C//DTD SVG 1.1//EN"
 "http://www.w3.org/Graphics/SVG/1.1/DTD/svg11.dtd">
<!-- Generated by graphviz version 2.43.0 (0)
 -->
<!-- Title: netspeak::util::ChainCutter::next Pages: 1 -->
<svg width="487pt" height="59pt"
 viewBox="0.00 0.00 487.00 59.00" xmlns="http://www.w3.org/2000/svg" xmlns:xlink="http://www.w3.org/1999/xlink">
<g id="graph0" class="graph" transform="scale(1 1) rotate(0) translate(4 55)">
<title>netspeak::util::ChainCutter::next</title>
<!-- Node1 -->
<g id="Node000001" class="node">
<title>Node1</title>
<g id="a_Node000001"><a xlink:title="Returns whether there is another unique cut and computes the next cuts.">
<polygon fill="#999999" stroke="#666666" points="147,-51 0,-51 0,-21 147,-21 147,-51"/>
<text text-anchor="start" x="8" y="-39" font-family="Helvetica,sans-Serif" font-size="10.00">netspeak::util::ChainCutter</text>
<text text-anchor="middle" x="73.5" y="-28" font-family="Helvetica,sans-Serif" font-size="10.00">::next</text>
</a>
</g>
</g>
<!-- Node2 -->
<g id="Node000002" class="node">
<title>Node2</title>
<g id="a_Node000002"><a xlink:href="namespacenetspeak_1_1util.html#a4c91ad572508b4021399ac7dddff574d" target="_top" xlink:title=" ">
<polygon fill="white" stroke="#666666" points="479,-45.5 366,-45.5 366,-26.5 479,-26.5 479,-45.5"/>
<text text-anchor="middle" x="422.5" y="-33.5" font-family="Helvetica,sans-Serif" font-size="10.00">netspeak::util::hash</text>
</a>
</g>
</g>
<!-- Node1&#45;&gt;Node2 -->
<g id="edge1_Node000001_Node000002" class="edge">
<title>Node1&#45;&gt;Node2</title>
<g id="a_edge1_Node000001_Node000002"><a xlink:title=" ">
<path fill="none" stroke="#63b8ff" d="M147.16,-38.29C159.13,-38.58 171.41,-38.84 183,-39 248.33,-39.9 264.68,-40.07 330,-39 338.34,-38.86 347.1,-38.66 355.77,-38.41"/>
<polygon fill="#63b8ff" stroke="#63b8ff" points="355.97,-41.91 365.86,-38.12 355.76,-34.91 355.97,-41.91"/>
</a>
</g>
</g>
<!-- Node3 -->
<g id="Node000003" class="node">
<title>Node3</title>
<g id="a_Node000003"><a xlink:href="classnetspeak_1_1util_1_1ChainCutter.html#a9e05a5ab5bb585f8276bf7e6edce76c5" target="_top" xlink:title=" ">
<polygon fill="white" stroke="#666666" points="330,-30 183,-30 183,0 330,0 330,-30"/>
<text text-anchor="start" x="191" y="-18" font-family="Helvetica,sans-Serif" font-size="10.00">netspeak::util::ChainCutter</text>
<text text-anchor="middle" x="256.5" y="-7" font-family="Helvetica,sans-Serif" font-size="10.00">::set_output</text>
</a>
</g>
</g>
<!-- Node1&#45;&gt;Node3 -->
<g id="edge2_Node000001_Node000003" class="edge">
<title>Node1&#45;&gt;Node3</title>
<g id="a_edge2_Node000001_Node000003"><a xlink:title=" ">
<path fill="none" stroke="#63b8ff" d="M147.08,-27.58C155.56,-26.6 164.26,-25.59 172.87,-24.59"/>
<polygon fill="#63b8ff" stroke="#63b8ff" points="173.38,-28.05 182.91,-23.42 172.57,-21.1 173.38,-28.05"/>
</a>
</g>
</g>
<!-- Node3&#45;&gt;Node2 -->
<g id="edge3_Node000003_Node000002" class="edge">
<title>Node3&#45;&gt;Node2</title>
<g id="a_edge3_Node000003_Node000002"><a xlink:title=" ">
<path fill="none" stroke="#63b8ff" d="M330.39,-24.33C338.78,-25.41 347.3,-26.5 355.6,-27.56"/>
<polygon fill="#63b8ff" stroke="#63b8ff" points="355.21,-31.04 365.57,-28.84 356.1,-24.1 355.21,-31.04"/>
</a>
</g>
</g>
</g>
</svg>
