<?xml version="1.0" encoding="UTF-8" standalone="no"?>
<!DOCTYPE svg PUBLIC "-//W3C//DTD SVG 1.1//EN"
 "http://www.w3.org/Graphics/SVG/1.1/DTD/svg11.dtd">
<!-- Generated by graphviz version 2.43.0 (0)
 -->
<!-- Title: netspeak::invertedindex::InvertedFileWriter::write Pages: 1 -->
<svg width="479pt" height="134pt"
 viewBox="0.00 0.00 479.00 134.00" xmlns="http://www.w3.org/2000/svg" xmlns:xlink="http://www.w3.org/1999/xlink">
<g id="graph0" class="graph" transform="scale(1 1) rotate(0) translate(4 130)">
<title>netspeak::invertedindex::InvertedFileWriter::write</title>
<!-- Node1 -->
<g id="Node000001" class="node">
<title>Node1</title>
<g id="a_Node000001"><a xlink:title=" ">
<polygon fill="#999999" stroke="#666666" points="141,-78 0,-78 0,-48 141,-48 141,-78"/>
<text text-anchor="start" x="8" y="-66" font-family="Helvetica,sans-Serif" font-size="10.00">netspeak::invertedindex</text>
<text text-anchor="middle" x="70.5" y="-55" font-family="Helvetica,sans-Serif" font-size="10.00">::InvertedFileWriter::write</text>
</a>
</g>
</g>
<!-- Node2 -->
<g id="Node000002" class="node">
<title>Node2</title>
<g id="a_Node000002"><a xlink:href="classnetspeak_1_1invertedindex_1_1Record.html#a8c31f71f3940ea11d85fbfca276f0eca" target="_top" xlink:title=" ">
<polygon fill="white" stroke="#666666" points="312,-126 177,-126 177,-96 312,-96 312,-126"/>
<text text-anchor="start" x="185" y="-114" font-family="Helvetica,sans-Serif" font-size="10.00">netspeak::invertedindex</text>
<text text-anchor="middle" x="244.5" y="-103" font-family="Helvetica,sans-Serif" font-size="10.00">::Record::key</text>
</a>
</g>
</g>
<!-- Node1&#45;&gt;Node2 -->
<g id="edge1_Node000001_Node000002" class="edge">
<title>Node1&#45;&gt;Node2</title>
<g id="a_edge1_Node000001_Node000002"><a xlink:title=" ">
<path fill="none" stroke="#63b8ff" d="M125.45,-78.06C142.74,-82.88 162.05,-88.27 179.96,-93.27"/>
<polygon fill="#63b8ff" stroke="#63b8ff" points="179.17,-96.68 189.74,-96 181.05,-89.94 179.17,-96.68"/>
</a>
</g>
</g>
<!-- Node3 -->
<g id="Node000003" class="node">
<title>Node3</title>
<g id="a_Node000003"><a xlink:href="structnetspeak_1_1value_1_1value__traits.html#a55ccc1c45a80bd3a713fc7f9b5a5374a" target="_top" xlink:title=" ">
<polygon fill="white" stroke="#666666" points="308.5,-78 180.5,-78 180.5,-48 308.5,-48 308.5,-78"/>
<text text-anchor="start" x="188.5" y="-66" font-family="Helvetica,sans-Serif" font-size="10.00">netspeak::value::value</text>
<text text-anchor="middle" x="244.5" y="-55" font-family="Helvetica,sans-Serif" font-size="10.00">_traits::print_to</text>
</a>
</g>
</g>
<!-- Node1&#45;&gt;Node3 -->
<g id="edge2_Node000001_Node000003" class="edge">
<title>Node1&#45;&gt;Node3</title>
<g id="a_edge2_Node000001_Node000003"><a xlink:title=" ">
<path fill="none" stroke="#63b8ff" d="M141.46,-63C150.88,-63 160.58,-63 170.06,-63"/>
<polygon fill="#63b8ff" stroke="#63b8ff" points="170.25,-66.5 180.25,-63 170.25,-59.5 170.25,-66.5"/>
</a>
</g>
</g>
<!-- Node5 -->
<g id="Node000005" class="node">
<title>Node5</title>
<g id="a_Node000005"><a xlink:href="classnetspeak_1_1invertedindex_1_1Record.html#a0d49817e43096fd3bb77cef8c1a42dd5" target="_top" xlink:title=" ">
<polygon fill="white" stroke="#666666" points="312,-30 177,-30 177,0 312,0 312,-30"/>
<text text-anchor="start" x="185" y="-18" font-family="Helvetica,sans-Serif" font-size="10.00">netspeak::invertedindex</text>
<text text-anchor="middle" x="244.5" y="-7" font-family="Helvetica,sans-Serif" font-size="10.00">::Record::value</text>
</a>
</g>
</g>
<!-- Node1&#45;&gt;Node5 -->
<g id="edge4_Node000001_Node000005" class="edge">
<title>Node1&#45;&gt;Node5</title>
<g id="a_edge4_Node000001_Node000005"><a xlink:title=" ">
<path fill="none" stroke="#63b8ff" d="M125.45,-47.94C142.74,-43.12 162.05,-37.73 179.96,-32.73"/>
<polygon fill="#63b8ff" stroke="#63b8ff" points="181.05,-36.06 189.74,-30 179.17,-29.32 181.05,-36.06"/>
</a>
</g>
</g>
<!-- Node4 -->
<g id="Node000004" class="node">
<title>Node4</title>
<g id="a_Node000004"><a xlink:href="namespacenetspeak_1_1value.html#a407a0fb424f1ce9cdd3b7fd92620a572" target="_top" xlink:title=" ">
<polygon fill="white" stroke="#666666" points="471,-78 348,-78 348,-48 471,-48 471,-78"/>
<text text-anchor="start" x="356" y="-66" font-family="Helvetica,sans-Serif" font-size="10.00">netspeak::value::print</text>
<text text-anchor="middle" x="409.5" y="-55" font-family="Helvetica,sans-Serif" font-size="10.00">_to_os</text>
</a>
</g>
</g>
<!-- Node3&#45;&gt;Node4 -->
<g id="edge3_Node000003_Node000004" class="edge">
<title>Node3&#45;&gt;Node4</title>
<g id="a_edge3_Node000003_Node000004"><a xlink:title=" ">
<path fill="none" stroke="#63b8ff" d="M308.52,-63C318.09,-63 328.03,-63 337.75,-63"/>
<polygon fill="#63b8ff" stroke="#63b8ff" points="337.79,-66.5 347.79,-63 337.79,-59.5 337.79,-66.5"/>
</a>
</g>
</g>
</g>
</svg>
