<?xml version="1.0" encoding="UTF-8" standalone="no"?>
<!DOCTYPE svg PUBLIC "-//W3C//DTD SVG 1.1//EN"
 "http://www.w3.org/Graphics/SVG/1.1/DTD/svg11.dtd">
<!-- Generated by graphviz version 2.43.0 (0)
 -->
<!-- Title: netspeak::util::Config::Config Pages: 1 -->
<svg width="1406pt" height="788pt"
 viewBox="0.00 0.00 1406.00 788.42" xmlns="http://www.w3.org/2000/svg" xmlns:xlink="http://www.w3.org/1999/xlink">
<g id="graph0" class="graph" transform="scale(1 1) rotate(0) translate(4 784.42)">
<title>netspeak::util::Config::Config</title>
<!-- Node1 -->
<g id="Node000001" class="node">
<title>Node1</title>
<g id="a_Node000001"><a xlink:title=" ">
<polygon fill="#999999" stroke="#666666" points="120,-737.42 0,-737.42 0,-707.42 120,-707.42 120,-737.42"/>
<text text-anchor="start" x="8" y="-725.42" font-family="Helvetica,sans-Serif" font-size="10.00">netspeak::util::Config</text>
<text text-anchor="middle" x="60" y="-714.42" font-family="Helvetica,sans-Serif" font-size="10.00">::Config</text>
</a>
</g>
</g>
<!-- Node2 -->
<g id="Node000002" class="node">
<title>Node2</title>
<g id="a_Node000002"><a xlink:href="classnetspeak_1_1util_1_1Config.html#a0e5d9189c8a3381188fe5652ba4e57c7" target="_top" xlink:title="The file name of this config.">
<polygon fill="white" stroke="#666666" points="276,-780.42 156,-780.42 156,-750.42 276,-750.42 276,-780.42"/>
<text text-anchor="start" x="164" y="-768.42" font-family="Helvetica,sans-Serif" font-size="10.00">netspeak::util::Config</text>
<text text-anchor="middle" x="216" y="-757.42" font-family="Helvetica,sans-Serif" font-size="10.00">::file_name</text>
</a>
</g>
</g>
<!-- Node1&#45;&gt;Node2 -->
<g id="edge1_Node000001_Node000002" class="edge">
<title>Node1&#45;&gt;Node2</title>
<g id="a_edge1_Node000001_Node000002"><a xlink:title=" ">
<path fill="none" stroke="#63b8ff" d="M114.86,-737.46C126.7,-740.77 139.35,-744.3 151.53,-747.7"/>
<polygon fill="#63b8ff" stroke="#63b8ff" points="150.6,-751.07 161.17,-750.39 152.48,-744.33 150.6,-751.07"/>
</a>
</g>
</g>
<!-- Node3 -->
<g id="Node000003" class="node">
<title>Node3</title>
<g id="a_Node000003"><a xlink:href="namespacenetspeak_1_1util.html#a4c91ad572508b4021399ac7dddff574d" target="_top" xlink:title=" ">
<polygon fill="white" stroke="#666666" points="1398,-433.92 1285,-433.92 1285,-414.92 1398,-414.92 1398,-433.92"/>
<text text-anchor="middle" x="1341.5" y="-421.92" font-family="Helvetica,sans-Serif" font-size="10.00">netspeak::util::hash</text>
</a>
</g>
</g>
<!-- Node1&#45;&gt;Node3 -->
<g id="edge2_Node000001_Node000003" class="edge">
<title>Node1&#45;&gt;Node3</title>
<g id="a_edge2_Node000001_Node000003"><a xlink:title=" ">
<path fill="none" stroke="#63b8ff" d="M120.14,-722.42C181.68,-722.42 280.84,-722.42 366.5,-722.42 366.5,-722.42 366.5,-722.42 970,-722.42 1095.75,-722.42 1152.34,-755.86 1249,-675.42 1321.46,-615.12 1336.54,-492.36 1339.68,-444.33"/>
<polygon fill="#63b8ff" stroke="#63b8ff" points="1343.19,-444.22 1340.23,-434.05 1336.2,-443.84 1343.19,-444.22"/>
</a>
</g>
</g>
<!-- Node4 -->
<g id="Node000004" class="node">
<title>Node4</title>
<g id="a_Node000004"><a xlink:href="classnetspeak_1_1util_1_1Config.html#aa87871c62dd3eaae268687a681d804a4" target="_top" xlink:title="Inserts all key&#45;value&#45;pairs of the given .properties file into this config overwriting existing keys.">
<polygon fill="white" stroke="#666666" points="276,-694.42 156,-694.42 156,-664.42 276,-664.42 276,-694.42"/>
<text text-anchor="start" x="164" y="-682.42" font-family="Helvetica,sans-Serif" font-size="10.00">netspeak::util::Config</text>
<text text-anchor="middle" x="216" y="-671.42" font-family="Helvetica,sans-Serif" font-size="10.00">::merge_properties</text>
</a>
</g>
</g>
<!-- Node1&#45;&gt;Node4 -->
<g id="edge3_Node000001_Node000004" class="edge">
<title>Node1&#45;&gt;Node4</title>
<g id="a_edge3_Node000001_Node000004"><a xlink:title=" ">
<path fill="none" stroke="#63b8ff" d="M114.86,-707.38C126.7,-704.08 139.35,-700.55 151.53,-697.15"/>
<polygon fill="#63b8ff" stroke="#63b8ff" points="152.48,-700.51 161.17,-694.45 150.6,-693.77 152.48,-700.51"/>
</a>
</g>
</g>
<!-- Node4&#45;&gt;Node3 -->
<g id="edge4_Node000004_Node000003" class="edge">
<title>Node4&#45;&gt;Node3</title>
<g id="a_edge4_Node000004_Node000003"><a xlink:title=" ">
<path fill="none" stroke="#63b8ff" d="M276.28,-680.91C340.24,-682.38 445.08,-684.42 535.5,-684.42 535.5,-684.42 535.5,-684.42 970,-684.42 1095.98,-684.42 1150.15,-712.51 1249,-634.42 1310.74,-585.65 1331.7,-486.82 1338.04,-444.45"/>
<polygon fill="#63b8ff" stroke="#63b8ff" points="1341.54,-444.68 1339.43,-434.3 1334.61,-443.73 1341.54,-444.68"/>
</a>
</g>
</g>
<!-- Node5 -->
<g id="Node000005" class="node">
<title>Node5</title>
<g id="a_Node000005"><a xlink:href="namespacenetspeak_1_1util.html#ab983702eeba4e18c2a929f67b8a81f8e" target="_top" xlink:title=" ">
<polygon fill="white" stroke="#666666" points="423,-488.42 312,-488.42 312,-458.42 423,-458.42 423,-488.42"/>
<text text-anchor="start" x="320" y="-476.42" font-family="Helvetica,sans-Serif" font-size="10.00">netspeak::util::read</text>
<text text-anchor="middle" x="367.5" y="-465.42" font-family="Helvetica,sans-Serif" font-size="10.00">_properties</text>
</a>
</g>
</g>
<!-- Node4&#45;&gt;Node5 -->
<g id="edge5_Node000004_Node000005" class="edge">
<title>Node4&#45;&gt;Node5</title>
<g id="a_edge5_Node000004_Node000005"><a xlink:title=" ">
<path fill="none" stroke="#63b8ff" d="M227.99,-664.27C253.86,-628.63 318.71,-539.28 349.61,-496.69"/>
<polygon fill="#63b8ff" stroke="#63b8ff" points="352.45,-498.74 355.49,-488.59 346.78,-494.63 352.45,-498.74"/>
</a>
</g>
</g>
<!-- Node5&#45;&gt;Node3 -->
<g id="edge25_Node000005_Node000003" class="edge">
<title>Node5&#45;&gt;Node3</title>
<g id="a_edge25_Node000005_Node000003"><a xlink:title=" ">
<path fill="none" stroke="#63b8ff" d="M386.31,-488.47C438,-530.56 593.96,-646.42 744.5,-646.42 744.5,-646.42 744.5,-646.42 970,-646.42 1096.22,-646.42 1147.1,-667.9 1249,-593.42 1300.53,-555.76 1326.14,-480.02 1335.79,-444.14"/>
<polygon fill="#63b8ff" stroke="#63b8ff" points="1339.3,-444.54 1338.38,-433.98 1332.52,-442.81 1339.3,-444.54"/>
</a>
</g>
</g>
<!-- Node6 -->
<g id="Node000006" class="node">
<title>Node6</title>
<g id="a_Node000006"><a xlink:href="namespacenetspeak_1_1util_1_1____properties__format__impl.html#a79974e3fe882dbb2691fd91d40b8c12a" target="_top" xlink:title=" ">
<polygon fill="white" stroke="#666666" points="836.5,-509.42 654.5,-509.42 654.5,-479.42 836.5,-479.42 836.5,-509.42"/>
<text text-anchor="start" x="662.5" y="-497.42" font-family="Helvetica,sans-Serif" font-size="10.00">netspeak::util::__properties</text>
<text text-anchor="middle" x="745.5" y="-486.42" font-family="Helvetica,sans-Serif" font-size="10.00">_format_impl::consume_delimiter</text>
</a>
</g>
</g>
<!-- Node5&#45;&gt;Node6 -->
<g id="edge6_Node000005_Node000006" class="edge">
<title>Node5&#45;&gt;Node6</title>
<g id="a_edge6_Node000005_Node000006"><a xlink:title=" ">
<path fill="none" stroke="#63b8ff" d="M423.17,-476.48C480.93,-479.7 573.27,-484.86 644.17,-488.82"/>
<polygon fill="#63b8ff" stroke="#63b8ff" points="644.29,-492.33 654.47,-489.39 644.68,-485.34 644.29,-492.33"/>
</a>
</g>
</g>
<!-- Node10 -->
<g id="Node000010" class="node">
<title>Node10</title>
<g id="a_Node000010"><a xlink:href="namespacenetspeak_1_1util_1_1____properties__format__impl.html#ac99408cc0a540ee09b3b8b704e629e21" target="_top" xlink:title=" ">
<polygon fill="white" stroke="#666666" points="614,-466.42 459,-466.42 459,-436.42 614,-436.42 614,-466.42"/>
<text text-anchor="start" x="467" y="-454.42" font-family="Helvetica,sans-Serif" font-size="10.00">netspeak::util::__properties</text>
<text text-anchor="middle" x="536.5" y="-443.42" font-family="Helvetica,sans-Serif" font-size="10.00">_format_impl::has_next_key</text>
</a>
</g>
</g>
<!-- Node5&#45;&gt;Node10 -->
<g id="edge15_Node000005_Node000010" class="edge">
<title>Node5&#45;&gt;Node10</title>
<g id="a_edge15_Node000005_Node000010"><a xlink:title=" ">
<path fill="none" stroke="#63b8ff" d="M423.18,-466.22C431.39,-465.14 440.01,-464 448.69,-462.86"/>
<polygon fill="#63b8ff" stroke="#63b8ff" points="449.42,-466.29 458.87,-461.52 448.5,-459.35 449.42,-466.29"/>
</a>
</g>
</g>
<!-- Node14 -->
<g id="Node000014" class="node">
<title>Node14</title>
<g id="a_Node000014"><a xlink:href="namespacenetspeak_1_1util_1_1____properties__format__impl.html#adc344752ed982478c94e200219251a68" target="_top" xlink:title=" ">
<polygon fill="white" stroke="#666666" points="611,-304.42 462,-304.42 462,-274.42 611,-274.42 611,-304.42"/>
<text text-anchor="start" x="470" y="-292.42" font-family="Helvetica,sans-Serif" font-size="10.00">netspeak::util::__properties</text>
<text text-anchor="middle" x="536.5" y="-281.42" font-family="Helvetica,sans-Serif" font-size="10.00">_format_impl::read_key</text>
</a>
</g>
</g>
<!-- Node5&#45;&gt;Node14 -->
<g id="edge26_Node000005_Node000014" class="edge">
<title>Node5&#45;&gt;Node14</title>
<g id="a_edge26_Node000005_Node000014"><a xlink:title=" ">
<path fill="none" stroke="#63b8ff" d="M382.17,-458.37C411.48,-426.07 480.51,-350.01 515.06,-311.95"/>
<polygon fill="#63b8ff" stroke="#63b8ff" points="517.75,-314.19 521.88,-304.43 512.57,-309.48 517.75,-314.19"/>
</a>
</g>
</g>
<!-- Node16 -->
<g id="Node000016" class="node">
<title>Node16</title>
<g id="a_Node000016"><a xlink:href="namespacenetspeak_1_1util_1_1____properties__format__impl.html#ade4a46287211bbb82452f355c871959f" target="_top" xlink:title=" ">
<polygon fill="white" stroke="#666666" points="611,-121.42 462,-121.42 462,-91.42 611,-91.42 611,-121.42"/>
<text text-anchor="start" x="470" y="-109.42" font-family="Helvetica,sans-Serif" font-size="10.00">netspeak::util::__properties</text>
<text text-anchor="middle" x="536.5" y="-98.42" font-family="Helvetica,sans-Serif" font-size="10.00">_format_impl::read_value</text>
</a>
</g>
</g>
<!-- Node5&#45;&gt;Node16 -->
<g id="edge34_Node000005_Node000016" class="edge">
<title>Node5&#45;&gt;Node16</title>
<g id="a_edge34_Node000005_Node000016"><a xlink:title=" ">
<path fill="none" stroke="#63b8ff" d="M374.89,-458.2C389.42,-423.71 426.21,-337.03 459,-265.42 480.98,-217.42 508.04,-161.99 523.37,-130.88"/>
<polygon fill="#63b8ff" stroke="#63b8ff" points="526.63,-132.2 527.92,-121.68 520.35,-129.1 526.63,-132.2"/>
</a>
</g>
</g>
<!-- Node6&#45;&gt;Node3 -->
<g id="edge11_Node000006_Node000003" class="edge">
<title>Node6&#45;&gt;Node3</title>
<g id="a_edge11_Node000006_Node000003"><a xlink:title=" ">
<path fill="none" stroke="#63b8ff" d="M836.63,-487.07C937.4,-478.34 1105.33,-462.31 1249,-441.42 1260.02,-439.82 1271.73,-437.85 1282.97,-435.82"/>
<polygon fill="#63b8ff" stroke="#63b8ff" points="1283.93,-439.21 1293.13,-433.96 1282.66,-432.32 1283.93,-439.21"/>
</a>
</g>
</g>
<!-- Node7 -->
<g id="Node000007" class="node">
<title>Node7</title>
<g id="a_Node000007"><a xlink:href="namespacenetspeak_1_1util_1_1____properties__format__impl.html#a7a52afc2a2c7f77e22813f03db4201f7" target="_top" xlink:title="Consumes any number of spaces and tabs.">
<polygon fill="white" stroke="#666666" points="1054.5,-342.42 883.5,-342.42 883.5,-312.42 1054.5,-312.42 1054.5,-342.42"/>
<text text-anchor="start" x="891.5" y="-330.42" font-family="Helvetica,sans-Serif" font-size="10.00">netspeak::util::__properties</text>
<text text-anchor="middle" x="969" y="-319.42" font-family="Helvetica,sans-Serif" font-size="10.00">_format_impl::consume_spaces</text>
</a>
</g>
</g>
<!-- Node6&#45;&gt;Node7 -->
<g id="edge7_Node000006_Node000007" class="edge">
<title>Node6&#45;&gt;Node7</title>
<g id="a_edge7_Node000006_Node000007"><a xlink:title=" ">
<path fill="none" stroke="#63b8ff" d="M774.17,-479.4C793.45,-468.53 819.45,-453.08 841,-437.42 879.33,-409.58 920.15,-372.79 944.86,-349.61"/>
<polygon fill="#63b8ff" stroke="#63b8ff" points="947.43,-352 952.3,-342.59 942.62,-346.91 947.43,-352"/>
</a>
</g>
</g>
<!-- Node8 -->
<g id="Node000008" class="node">
<title>Node8</title>
<g id="a_Node000008"><a xlink:href="namespacenetspeak_1_1util_1_1____properties__format__impl.html#aa1caae33d5ecb274023b62bc9244f942" target="_top" xlink:title=" ">
<polygon fill="white" stroke="#666666" points="1247.5,-418.42 1098.5,-418.42 1098.5,-388.42 1247.5,-388.42 1247.5,-418.42"/>
<text text-anchor="start" x="1106.5" y="-406.42" font-family="Helvetica,sans-Serif" font-size="10.00">netspeak::util::__properties</text>
<text text-anchor="middle" x="1173" y="-395.42" font-family="Helvetica,sans-Serif" font-size="10.00">_format_impl::is_space</text>
</a>
</g>
</g>
<!-- Node6&#45;&gt;Node8 -->
<g id="edge14_Node000006_Node000008" class="edge">
<title>Node6&#45;&gt;Node8</title>
<g id="a_edge14_Node000006_Node000008"><a xlink:title=" ">
<path fill="none" stroke="#63b8ff" d="M816.76,-479.4C892.37,-463.23 1012.4,-437.55 1091.69,-420.6"/>
<polygon fill="#63b8ff" stroke="#63b8ff" points="1092.59,-423.99 1101.63,-418.47 1091.12,-417.14 1092.59,-423.99"/>
</a>
</g>
</g>
<!-- Node9 -->
<g id="Node000009" class="node">
<title>Node9</title>
<g id="a_Node000009"><a xlink:href="namespacenetspeak_1_1util_1_1____properties__format__impl.html#a72f1b7f09e99f69f4169835c85f0a926" target="_top" xlink:title=" ">
<polygon fill="white" stroke="#666666" points="1043.5,-580.42 894.5,-580.42 894.5,-550.42 1043.5,-550.42 1043.5,-580.42"/>
<text text-anchor="start" x="902.5" y="-568.42" font-family="Helvetica,sans-Serif" font-size="10.00">netspeak::util::__properties</text>
<text text-anchor="middle" x="969" y="-557.42" font-family="Helvetica,sans-Serif" font-size="10.00">_format_impl::is_delimiter</text>
</a>
</g>
</g>
<!-- Node6&#45;&gt;Node9 -->
<g id="edge12_Node000006_Node000009" class="edge">
<title>Node6&#45;&gt;Node9</title>
<g id="a_edge12_Node000006_Node000009"><a xlink:title=" ">
<path fill="none" stroke="#63b8ff" d="M793.3,-509.52C818.16,-517.53 849.23,-527.53 877,-536.42 887.99,-539.94 899.73,-543.69 911.01,-547.29"/>
<polygon fill="#63b8ff" stroke="#63b8ff" points="910.17,-550.69 920.76,-550.4 912.3,-544.02 910.17,-550.69"/>
</a>
</g>
</g>
<!-- Node7&#45;&gt;Node3 -->
<g id="edge8_Node000007_Node000003" class="edge">
<title>Node7&#45;&gt;Node3</title>
<g id="a_edge8_Node000007_Node000003"><a xlink:title=" ">
<path fill="none" stroke="#63b8ff" d="M1054.52,-337.07C1110.64,-344.95 1185.41,-358.3 1249,-379.42 1272.39,-387.19 1297.4,-399.82 1315.35,-409.72"/>
<polygon fill="#63b8ff" stroke="#63b8ff" points="1314.11,-413.04 1324.54,-414.9 1317.55,-406.94 1314.11,-413.04"/>
</a>
</g>
</g>
<!-- Node7&#45;&gt;Node8 -->
<g id="edge9_Node000007_Node000008" class="edge">
<title>Node7&#45;&gt;Node8</title>
<g id="a_edge9_Node000007_Node000008"><a xlink:title=" ">
<path fill="none" stroke="#63b8ff" d="M1020.35,-342.56C1033.65,-346.8 1047.94,-351.59 1061,-356.42 1083.87,-364.89 1108.92,-375.39 1129.43,-384.31"/>
<polygon fill="#63b8ff" stroke="#63b8ff" points="1128.24,-387.61 1138.81,-388.42 1131.05,-381.2 1128.24,-387.61"/>
</a>
</g>
</g>
<!-- Node8&#45;&gt;Node3 -->
<g id="edge10_Node000008_Node000003" class="edge">
<title>Node8&#45;&gt;Node3</title>
<g id="a_edge10_Node000008_Node000003"><a xlink:title=" ">
<path fill="none" stroke="#63b8ff" d="M1247.51,-412.69C1256.63,-413.84 1265.9,-415.01 1274.89,-416.15"/>
<polygon fill="#63b8ff" stroke="#63b8ff" points="1274.52,-419.63 1284.88,-417.41 1275.4,-412.68 1274.52,-419.63"/>
</a>
</g>
</g>
<!-- Node9&#45;&gt;Node3 -->
<g id="edge13_Node000009_Node000003" class="edge">
<title>Node9&#45;&gt;Node3</title>
<g id="a_edge13_Node000009_Node000003"><a xlink:title=" ">
<path fill="none" stroke="#63b8ff" d="M1043.5,-572.58C1102.51,-574.97 1185.67,-570.58 1249,-536.42 1288.41,-515.17 1317.31,-469.18 1331.23,-443.23"/>
<polygon fill="#63b8ff" stroke="#63b8ff" points="1334.48,-444.55 1335.96,-434.06 1328.26,-441.33 1334.48,-444.55"/>
</a>
</g>
</g>
<!-- Node10&#45;&gt;Node3 -->
<g id="edge24_Node000010_Node000003" class="edge">
<title>Node10&#45;&gt;Node3</title>
<g id="a_edge24_Node000010_Node000003"><a xlink:title=" ">
<path fill="none" stroke="#63b8ff" d="M547.91,-466.5C565.68,-490.89 604.42,-538.5 650,-560.42 815.02,-639.8 878.19,-600.08 1061,-589.42 1144.98,-584.53 1177.68,-612.04 1249,-567.42 1295.69,-538.21 1322.97,-475.45 1334.3,-443.68"/>
<polygon fill="#63b8ff" stroke="#63b8ff" points="1337.62,-444.78 1337.54,-434.19 1331,-442.53 1337.62,-444.78"/>
</a>
</g>
</g>
<!-- Node11 -->
<g id="Node000011" class="node">
<title>Node11</title>
<g id="a_Node000011"><a xlink:href="namespacenetspeak_1_1util_1_1____properties__format__impl.html#a52f1ab753d9c8ccb115fc828a3257fae" target="_top" xlink:title="Consumes all spaces, empty lines, can comments before a key.">
<polygon fill="white" stroke="#666666" points="841,-428.42 650,-428.42 650,-398.42 841,-398.42 841,-428.42"/>
<text text-anchor="start" x="658" y="-416.42" font-family="Helvetica,sans-Serif" font-size="10.00">netspeak::util::__properties</text>
<text text-anchor="middle" x="745.5" y="-405.42" font-family="Helvetica,sans-Serif" font-size="10.00">_format_impl::consume_before_key</text>
</a>
</g>
</g>
<!-- Node10&#45;&gt;Node11 -->
<g id="edge16_Node000010_Node000011" class="edge">
<title>Node10&#45;&gt;Node11</title>
<g id="a_edge16_Node000010_Node000011"><a xlink:title=" ">
<path fill="none" stroke="#63b8ff" d="M614.28,-437.33C626.72,-435.04 639.71,-432.66 652.47,-430.32"/>
<polygon fill="#63b8ff" stroke="#63b8ff" points="653.43,-433.7 662.63,-428.45 652.17,-426.81 653.43,-433.7"/>
</a>
</g>
</g>
<!-- Node11&#45;&gt;Node3 -->
<g id="edge21_Node000011_Node000003" class="edge">
<title>Node11&#45;&gt;Node3</title>
<g id="a_edge21_Node000011_Node000003"><a xlink:title=" ">
<path fill="none" stroke="#63b8ff" d="M841.27,-420.47C853.29,-421.22 865.43,-421.89 877,-422.42 1042.17,-429.99 1083.67,-430.13 1249,-427.42 1257.34,-427.29 1266.1,-427.08 1274.77,-426.84"/>
<polygon fill="#63b8ff" stroke="#63b8ff" points="1274.97,-430.33 1284.86,-426.54 1274.76,-423.34 1274.97,-430.33"/>
</a>
</g>
</g>
<!-- Node11&#45;&gt;Node8 -->
<g id="edge23_Node000011_Node000008" class="edge">
<title>Node11&#45;&gt;Node8</title>
<g id="a_edge23_Node000011_Node000008"><a xlink:title=" ">
<path fill="none" stroke="#63b8ff" d="M841.2,-411.2C915.19,-409.46 1017.05,-407.06 1088.12,-405.39"/>
<polygon fill="#63b8ff" stroke="#63b8ff" points="1088.46,-408.89 1098.38,-405.15 1088.3,-401.89 1088.46,-408.89"/>
</a>
</g>
</g>
<!-- Node12 -->
<g id="Node000012" class="node">
<title>Node12</title>
<g id="a_Node000012"><a xlink:href="namespacenetspeak_1_1util_1_1____properties__format__impl.html#aa59494f19b87314e52797323b69dbaa9" target="_top" xlink:title="Consumes a comment.">
<polygon fill="white" stroke="#666666" points="1061,-294.42 877,-294.42 877,-264.42 1061,-264.42 1061,-294.42"/>
<text text-anchor="start" x="885" y="-282.42" font-family="Helvetica,sans-Serif" font-size="10.00">netspeak::util::__properties</text>
<text text-anchor="middle" x="969" y="-271.42" font-family="Helvetica,sans-Serif" font-size="10.00">_format_impl::consume_comment</text>
</a>
</g>
</g>
<!-- Node11&#45;&gt;Node12 -->
<g id="edge17_Node000011_Node000012" class="edge">
<title>Node11&#45;&gt;Node12</title>
<g id="a_edge17_Node000011_Node000012"><a xlink:title=" ">
<path fill="none" stroke="#63b8ff" d="M760.18,-398.18C782.37,-374.39 828.62,-328.56 877,-303.42 880.57,-301.57 884.29,-299.85 888.11,-298.26"/>
<polygon fill="#63b8ff" stroke="#63b8ff" points="889.67,-301.41 897.74,-294.55 887.15,-294.87 889.67,-301.41"/>
</a>
</g>
</g>
<!-- Node13 -->
<g id="Node000013" class="node">
<title>Node13</title>
<g id="a_Node000013"><a xlink:href="namespacenetspeak_1_1util_1_1____properties__format__impl.html#a1edacf213d0577079a2dd1e6381db099" target="_top" xlink:title=" ">
<polygon fill="white" stroke="#666666" points="1249,-251.42 1097,-251.42 1097,-221.42 1249,-221.42 1249,-251.42"/>
<text text-anchor="start" x="1105" y="-239.42" font-family="Helvetica,sans-Serif" font-size="10.00">netspeak::util::__properties</text>
<text text-anchor="middle" x="1173" y="-228.42" font-family="Helvetica,sans-Serif" font-size="10.00">_format_impl::is_line_break</text>
</a>
</g>
</g>
<!-- Node11&#45;&gt;Node13 -->
<g id="edge22_Node000011_Node000013" class="edge">
<title>Node11&#45;&gt;Node13</title>
<g id="a_edge22_Node000011_Node000013"><a xlink:title=" ">
<path fill="none" stroke="#63b8ff" d="M753.65,-398.2C770.07,-365.24 813.95,-287.64 877,-255.42 941.72,-222.35 1025.11,-220.06 1086.71,-224.61"/>
<polygon fill="#63b8ff" stroke="#63b8ff" points="1086.54,-228.1 1096.79,-225.43 1087.1,-221.13 1086.54,-228.1"/>
</a>
</g>
</g>
<!-- Node12&#45;&gt;Node3 -->
<g id="edge18_Node000012_Node000003" class="edge">
<title>Node12&#45;&gt;Node3</title>
<g id="a_edge18_Node000012_Node000003"><a xlink:title=" ">
<path fill="none" stroke="#63b8ff" d="M1061.12,-287.13C1117.73,-294.81 1190.59,-310.09 1249,-340.42 1281.01,-357.04 1310.25,-387.8 1326.67,-407.13"/>
<polygon fill="#63b8ff" stroke="#63b8ff" points="1324.02,-409.41 1333.09,-414.88 1329.41,-404.94 1324.02,-409.41"/>
</a>
</g>
</g>
<!-- Node12&#45;&gt;Node13 -->
<g id="edge19_Node000012_Node000013" class="edge">
<title>Node12&#45;&gt;Node13</title>
<g id="a_edge19_Node000012_Node000013"><a xlink:title=" ">
<path fill="none" stroke="#63b8ff" d="M1040.65,-264.38C1057.1,-260.88 1074.74,-257.13 1091.58,-253.54"/>
<polygon fill="#63b8ff" stroke="#63b8ff" points="1092.34,-256.96 1101.39,-251.45 1090.88,-250.11 1092.34,-256.96"/>
</a>
</g>
</g>
<!-- Node13&#45;&gt;Node3 -->
<g id="edge20_Node000013_Node000003" class="edge">
<title>Node13&#45;&gt;Node3</title>
<g id="a_edge20_Node000013_Node000003"><a xlink:title=" ">
<path fill="none" stroke="#63b8ff" d="M1211.24,-251.44C1224.16,-257.85 1238.13,-266.22 1249,-276.42 1289.6,-314.51 1319.16,-374.45 1332.54,-405.05"/>
<polygon fill="#63b8ff" stroke="#63b8ff" points="1329.45,-406.73 1336.59,-414.56 1335.89,-403.99 1329.45,-406.73"/>
</a>
</g>
</g>
<!-- Node14&#45;&gt;Node3 -->
<g id="edge27_Node000014_Node000003" class="edge">
<title>Node14&#45;&gt;Node3</title>
<g id="a_edge27_Node000014_Node000003"><a xlink:title=" ">
<path fill="none" stroke="#63b8ff" d="M555.57,-274.26C576.69,-257.57 613.41,-231.62 650,-220.42 904.58,-142.48 1027.32,-64.96 1249,-212.42 1315.63,-256.74 1333.98,-360.85 1338.84,-404.55"/>
<polygon fill="#63b8ff" stroke="#63b8ff" points="1335.35,-404.91 1339.82,-414.52 1342.32,-404.22 1335.35,-404.91"/>
</a>
</g>
</g>
<!-- Node14&#45;&gt;Node8 -->
<g id="edge30_Node000014_Node000008" class="edge">
<title>Node14&#45;&gt;Node8</title>
<g id="a_edge30_Node000014_Node000008"><a xlink:title=" ">
<path fill="none" stroke="#63b8ff" d="M611.32,-303.04C680.07,-315.69 785.44,-334.99 877,-351.42 948.25,-364.21 1029.24,-378.46 1088.3,-388.81"/>
<polygon fill="#63b8ff" stroke="#63b8ff" points="1087.87,-392.29 1098.33,-390.57 1089.08,-385.39 1087.87,-392.29"/>
</a>
</g>
</g>
<!-- Node14&#45;&gt;Node9 -->
<g id="edge28_Node000014_Node000009" class="edge">
<title>Node14&#45;&gt;Node9</title>
<g id="a_edge28_Node000014_Node000009"><a xlink:title=" ">
<path fill="none" stroke="#63b8ff" d="M546.89,-304.81C562.04,-329.94 592.35,-381.6 614,-427.42 632.58,-466.75 615.92,-491.4 650,-518.42 715.85,-570.64 814.27,-577.69 884.15,-574.64"/>
<polygon fill="#63b8ff" stroke="#63b8ff" points="884.44,-578.13 894.25,-574.12 884.08,-571.14 884.44,-578.13"/>
</a>
</g>
</g>
<!-- Node14&#45;&gt;Node13 -->
<g id="edge29_Node000014_Node000013" class="edge">
<title>Node14&#45;&gt;Node13</title>
<g id="a_edge29_Node000014_Node000013"><a xlink:title=" ">
<path fill="none" stroke="#63b8ff" d="M592.83,-274.39C659.59,-257.11 775.52,-229.78 877,-219.42 958.36,-211.12 979.46,-213.21 1061,-219.42 1069.38,-220.06 1078.09,-220.97 1086.78,-222.03"/>
<polygon fill="#63b8ff" stroke="#63b8ff" points="1086.58,-225.53 1096.94,-223.35 1087.48,-218.59 1086.58,-225.53"/>
</a>
</g>
</g>
<!-- Node15 -->
<g id="Node000015" class="node">
<title>Node15</title>
<g id="a_Node000015"><a xlink:href="namespacenetspeak_1_1util_1_1____properties__format__impl.html#a7e7be7309c9b3600a7b0bc065e4ffcd8" target="_top" xlink:title=" ">
<polygon fill="white" stroke="#666666" points="823,-142.42 668,-142.42 668,-112.42 823,-112.42 823,-142.42"/>
<text text-anchor="start" x="676" y="-130.42" font-family="Helvetica,sans-Serif" font-size="10.00">netspeak::util::__properties</text>
<text text-anchor="middle" x="745.5" y="-119.42" font-family="Helvetica,sans-Serif" font-size="10.00">_format_impl::read_escaped</text>
</a>
</g>
</g>
<!-- Node14&#45;&gt;Node15 -->
<g id="edge31_Node000014_Node000015" class="edge">
<title>Node14&#45;&gt;Node15</title>
<g id="a_edge31_Node000014_Node000015"><a xlink:title=" ">
<path fill="none" stroke="#63b8ff" d="M546.25,-274.21C562.89,-246.61 601.79,-188.23 650,-156.42 655.68,-152.68 661.86,-149.39 668.26,-146.52"/>
<polygon fill="#63b8ff" stroke="#63b8ff" points="669.85,-149.66 677.76,-142.61 667.18,-143.18 669.85,-149.66"/>
</a>
</g>
</g>
<!-- Node15&#45;&gt;Node3 -->
<g id="edge33_Node000015_Node000003" class="edge">
<title>Node15&#45;&gt;Node3</title>
<g id="a_edge33_Node000015_Node000003"><a xlink:title=" ">
<path fill="none" stroke="#63b8ff" d="M823.11,-113.17C946.97,-91.95 1183.92,-59.51 1249,-108.42 1297.79,-145.09 1328.88,-340.74 1337.83,-404.39"/>
<polygon fill="#63b8ff" stroke="#63b8ff" points="1334.41,-405.24 1339.24,-414.68 1341.35,-404.29 1334.41,-405.24"/>
</a>
</g>
</g>
<!-- Node15&#45;&gt;Node7 -->
<g id="edge32_Node000015_Node000007" class="edge">
<title>Node15&#45;&gt;Node7</title>
<g id="a_edge32_Node000015_Node000007"><a xlink:title=" ">
<path fill="none" stroke="#63b8ff" d="M753.34,-142.62C769.57,-176.92 813.85,-260.65 877,-303.42 879.27,-304.96 881.63,-306.4 884.06,-307.74"/>
<polygon fill="#63b8ff" stroke="#63b8ff" points="882.63,-310.94 893.14,-312.22 885.72,-304.66 882.63,-310.94"/>
</a>
</g>
</g>
<!-- Node16&#45;&gt;Node3 -->
<g id="edge35_Node000016_Node000003" class="edge">
<title>Node16&#45;&gt;Node3</title>
<g id="a_edge35_Node000016_Node000003"><a xlink:title=" ">
<path fill="none" stroke="#63b8ff" d="M572.13,-91.29C683.85,-45.06 1039.58,81.69 1249,-79.42 1302.04,-120.23 1330.72,-337.79 1338.38,-404.78"/>
<polygon fill="#63b8ff" stroke="#63b8ff" points="1334.92,-405.28 1339.5,-414.83 1341.87,-404.5 1334.92,-405.28"/>
</a>
</g>
</g>
<!-- Node16&#45;&gt;Node13 -->
<g id="edge36_Node000016_Node000013" class="edge">
<title>Node16&#45;&gt;Node13</title>
<g id="a_edge36_Node000016_Node000013"><a xlink:title=" ">
<path fill="none" stroke="#63b8ff" d="M611.22,-97.53C673.14,-92 763.66,-88.46 841,-103.42 953.55,-125.19 1076.38,-185.01 1135.79,-216.48"/>
<polygon fill="#63b8ff" stroke="#63b8ff" points="1134.3,-219.65 1144.77,-221.27 1137.6,-213.47 1134.3,-219.65"/>
</a>
</g>
</g>
<!-- Node16&#45;&gt;Node15 -->
<g id="edge37_Node000016_Node000015" class="edge">
<title>Node16&#45;&gt;Node15</title>
<g id="a_edge37_Node000016_Node000015"><a xlink:title=" ">
<path fill="none" stroke="#63b8ff" d="M611.06,-113.89C626.12,-115.41 642.11,-117.04 657.59,-118.61"/>
<polygon fill="#63b8ff" stroke="#63b8ff" points="657.37,-122.1 667.67,-119.63 658.08,-115.14 657.37,-122.1"/>
</a>
</g>
</g>
</g>
</svg>
