<?xml version="1.0" encoding="UTF-8" standalone="no"?>
<!DOCTYPE svg PUBLIC "-//W3C//DTD SVG 1.1//EN"
 "http://www.w3.org/Graphics/SVG/1.1/DTD/svg11.dtd">
<!-- Generated by graphviz version 2.43.0 (0)
 -->
<!-- Title: netspeak::bighashmap::BigHashMap::Open Pages: 1 -->
<svg width="534pt" height="146pt"
 viewBox="0.00 0.00 534.00 146.00" xmlns="http://www.w3.org/2000/svg" xmlns:xlink="http://www.w3.org/1999/xlink">
<g id="graph0" class="graph" transform="scale(1 1) rotate(0) translate(4 142)">
<title>netspeak::bighashmap::BigHashMap::Open</title>
<!-- Node1 -->
<g id="Node000001" class="node">
<title>Node1</title>
<g id="a_Node000001"><a xlink:title=" ">
<polygon fill="#999999" stroke="#666666" points="526,-84 398,-84 398,-54 526,-54 526,-84"/>
<text text-anchor="start" x="406" y="-72" font-family="Helvetica,sans-Serif" font-size="10.00">netspeak::bighashmap</text>
<text text-anchor="middle" x="462" y="-61" font-family="Helvetica,sans-Serif" font-size="10.00">::BigHashMap::Open</text>
</a>
</g>
</g>
<!-- Node2 -->
<g id="Node000002" class="node">
<title>Node2</title>
<g id="a_Node000002"><a xlink:href="classnetspeak_1_1Netspeak.html#a4fa7fcfd57d5c943e1bf476c61610c99" target="_top" xlink:title=" ">
<polygon fill="white" stroke="#666666" points="342.5,-138 228.5,-138 228.5,-108 342.5,-108 342.5,-138"/>
<text text-anchor="start" x="236.5" y="-126" font-family="Helvetica,sans-Serif" font-size="10.00">netspeak::Netspeak</text>
<text text-anchor="middle" x="285.5" y="-115" font-family="Helvetica,sans-Serif" font-size="10.00">::initialize</text>
</a>
</g>
</g>
<!-- Node1&#45;&gt;Node2 -->
<g id="edge1_Node000001_Node000002" class="edge">
<title>Node1&#45;&gt;Node2</title>
<g id="a_edge1_Node000001_Node000002"><a xlink:title=" ">
<path fill="none" stroke="#63b8ff" d="M402.55,-87.09C380.66,-93.86 356.06,-101.48 335.15,-107.95"/>
<polygon fill="#63b8ff" stroke="#63b8ff" points="403.87,-90.34 412.39,-84.04 401.8,-83.65 403.87,-90.34"/>
</a>
</g>
</g>
<!-- Node3 -->
<g id="Node000003" class="node">
<title>Node3</title>
<g id="a_Node000003"><a xlink:href="classnetspeak_1_1RetrievalStrategy_3_01RetrievalStrategy3Tag_01_4.html#a2caa474eae2060143eb6ad2769f93a6d" target="_top" xlink:title=" ">
<polygon fill="white" stroke="#666666" points="362,-89.5 209,-89.5 209,-48.5 362,-48.5 362,-89.5"/>
<text text-anchor="start" x="217" y="-77.5" font-family="Helvetica,sans-Serif" font-size="10.00">netspeak::RetrievalStrategy</text>
<text text-anchor="start" x="217" y="-66.5" font-family="Helvetica,sans-Serif" font-size="10.00">&lt; RetrievalStrategy3Tag</text>
<text text-anchor="middle" x="285.5" y="-55.5" font-family="Helvetica,sans-Serif" font-size="10.00"> &gt;::initialize</text>
</a>
</g>
</g>
<!-- Node1&#45;&gt;Node3 -->
<g id="edge2_Node000001_Node000003" class="edge">
<title>Node1&#45;&gt;Node3</title>
<g id="a_edge2_Node000001_Node000003"><a xlink:title=" ">
<path fill="none" stroke="#63b8ff" d="M387.41,-69C379.04,-69 370.5,-69 362.11,-69"/>
<polygon fill="#63b8ff" stroke="#63b8ff" points="387.51,-72.5 397.51,-69 387.51,-65.5 387.51,-72.5"/>
</a>
</g>
</g>
<!-- Node4 -->
<g id="Node000004" class="node">
<title>Node4</title>
<g id="a_Node000004"><a xlink:href="classnetspeak_1_1invertedindex_1_1StorageReader.html#abc68bcbfd21694b8f5ab27dfb22bd042" target="_top" xlink:title=" ">
<polygon fill="white" stroke="#666666" points="353,-30 218,-30 218,0 353,0 353,-30"/>
<text text-anchor="start" x="226" y="-18" font-family="Helvetica,sans-Serif" font-size="10.00">netspeak::invertedindex</text>
<text text-anchor="middle" x="285.5" y="-7" font-family="Helvetica,sans-Serif" font-size="10.00">::StorageReader::Open</text>
</a>
</g>
</g>
<!-- Node1&#45;&gt;Node4 -->
<g id="edge3_Node000001_Node000004" class="edge">
<title>Node1&#45;&gt;Node4</title>
<g id="a_edge3_Node000001_Node000004"><a xlink:title=" ">
<path fill="none" stroke="#63b8ff" d="M402.55,-50.91C380.66,-44.14 356.06,-36.52 335.15,-30.05"/>
<polygon fill="#63b8ff" stroke="#63b8ff" points="401.8,-54.35 412.39,-53.96 403.87,-47.66 401.8,-54.35"/>
</a>
</g>
</g>
<!-- Node5 -->
<g id="Node000005" class="node">
<title>Node5</title>
<g id="a_Node000005"><a xlink:href="classnetspeak_1_1invertedindex_1_1StorageReader.html#a6bdbb90550e9d309ca3144be280e511d" target="_top" xlink:title=" ">
<polygon fill="white" stroke="#666666" points="173,-30 0,-30 0,0 173,0 173,-30"/>
<text text-anchor="start" x="8" y="-18" font-family="Helvetica,sans-Serif" font-size="10.00">netspeak::invertedindex</text>
<text text-anchor="middle" x="86.5" y="-7" font-family="Helvetica,sans-Serif" font-size="10.00">::StorageReader::StorageReader</text>
</a>
</g>
</g>
<!-- Node4&#45;&gt;Node5 -->
<g id="edge4_Node000004_Node000005" class="edge">
<title>Node4&#45;&gt;Node5</title>
<g id="a_edge4_Node000004_Node000005"><a xlink:title=" ">
<path fill="none" stroke="#63b8ff" d="M207.61,-15C196.37,-15 184.74,-15 173.33,-15"/>
<polygon fill="#63b8ff" stroke="#63b8ff" points="207.8,-18.5 217.8,-15 207.8,-11.5 207.8,-18.5"/>
</a>
</g>
</g>
</g>
</svg>
