<?xml version="1.0" encoding="UTF-8" standalone="no"?>
<!DOCTYPE svg PUBLIC "-//W3C//DTD SVG 1.1//EN"
 "http://www.w3.org/Graphics/SVG/1.1/DTD/svg11.dtd">
<!-- Generated by graphviz version 2.43.0 (0)
 -->
<!-- Title: netspeak::bighashmap::InternalMap::InternalMap Pages: 1 -->
<svg width="622pt" height="202pt"
 viewBox="0.00 0.00 622.00 201.94" xmlns="http://www.w3.org/2000/svg" xmlns:xlink="http://www.w3.org/1999/xlink">
<g id="graph0" class="graph" transform="scale(1 1) rotate(0) translate(4 197.94)">
<title>netspeak::bighashmap::InternalMap::InternalMap</title>
<!-- Node1 -->
<g id="Node000001" class="node">
<title>Node1</title>
<g id="a_Node000001"><a xlink:title=" ">
<polygon fill="#999999" stroke="#666666" points="146,-121 0,-121 0,-91 146,-91 146,-121"/>
<text text-anchor="start" x="8" y="-109" font-family="Helvetica,sans-Serif" font-size="10.00">netspeak::bighashmap</text>
<text text-anchor="middle" x="73" y="-98" font-family="Helvetica,sans-Serif" font-size="10.00">::InternalMap::InternalMap</text>
</a>
</g>
</g>
<!-- Node2 -->
<g id="Node000002" class="node">
<title>Node2</title>
<g id="a_Node000002"><a xlink:href="namespacenetspeak_1_1util.html#a978978e70b474657b12402a3db711ef0" target="_top" xlink:title=" ">
<polygon fill="white" stroke="#666666" points="305.5,-189.5 186.5,-189.5 186.5,-170.5 305.5,-170.5 305.5,-189.5"/>
<text text-anchor="middle" x="246" y="-177.5" font-family="Helvetica,sans-Serif" font-size="10.00">netspeak::util::fclose</text>
</a>
</g>
</g>
<!-- Node1&#45;&gt;Node2 -->
<g id="edge1_Node000001_Node000002" class="edge">
<title>Node1&#45;&gt;Node2</title>
<g id="a_edge1_Node000001_Node000002"><a xlink:title=" ">
<path fill="none" stroke="#63b8ff" d="M99.5,-121.08C120.97,-133.31 152.76,-150.38 182,-162 186.83,-163.92 191.95,-165.73 197.09,-167.4"/>
<polygon fill="#63b8ff" stroke="#63b8ff" points="196.36,-170.84 206.94,-170.46 198.43,-164.15 196.36,-170.84"/>
</a>
</g>
</g>
<!-- Node5 -->
<g id="Node000005" class="node">
<title>Node5</title>
<g id="a_Node000005"><a xlink:href="namespacenetspeak_1_1util.html#a4acc3d13f8d541f4b65dd44f486403fd" target="_top" xlink:title=" ">
<polygon fill="white" stroke="#666666" points="304.5,-152.5 187.5,-152.5 187.5,-133.5 304.5,-133.5 304.5,-152.5"/>
<text text-anchor="middle" x="246" y="-140.5" font-family="Helvetica,sans-Serif" font-size="10.00">netspeak::util::fopen</text>
</a>
</g>
</g>
<!-- Node1&#45;&gt;Node5 -->
<g id="edge5_Node000001_Node000005" class="edge">
<title>Node1&#45;&gt;Node5</title>
<g id="a_edge5_Node000001_Node000005"><a xlink:title=" ">
<path fill="none" stroke="#63b8ff" d="M143.55,-121.05C159.33,-124.46 175.86,-128.04 190.88,-131.29"/>
<polygon fill="#63b8ff" stroke="#63b8ff" points="190.5,-134.79 201.02,-133.48 191.99,-127.95 190.5,-134.79"/>
</a>
</g>
</g>
<!-- Node6 -->
<g id="Node000006" class="node">
<title>Node6</title>
<g id="a_Node000006"><a xlink:href="namespacenetspeak_1_1util.html#a0f64660040077bd1ae3a46941a000b07" target="_top" xlink:title=" ">
<polygon fill="white" stroke="#666666" points="303.5,-115.5 188.5,-115.5 188.5,-96.5 303.5,-96.5 303.5,-115.5"/>
<text text-anchor="middle" x="246" y="-103.5" font-family="Helvetica,sans-Serif" font-size="10.00">netspeak::util::fread</text>
</a>
</g>
</g>
<!-- Node1&#45;&gt;Node6 -->
<g id="edge8_Node000001_Node000006" class="edge">
<title>Node1&#45;&gt;Node6</title>
<g id="a_edge8_Node000001_Node000006"><a xlink:title=" ">
<path fill="none" stroke="#63b8ff" d="M146.02,-106C156.75,-106 167.76,-106 178.36,-106"/>
<polygon fill="#63b8ff" stroke="#63b8ff" points="178.38,-109.5 188.38,-106 178.38,-102.5 178.38,-109.5"/>
</a>
</g>
</g>
<!-- Node7 -->
<g id="Node000007" class="node">
<title>Node7</title>
<g id="a_Node000007"><a xlink:href="classnetspeak_1_1bighashmap_1_1CmphMap.html#a13904384916e226389060db10d76d056" target="_top" xlink:title=" ">
<polygon fill="white" stroke="#666666" points="310,-78 182,-78 182,-48 310,-48 310,-78"/>
<text text-anchor="start" x="190" y="-66" font-family="Helvetica,sans-Serif" font-size="10.00">netspeak::bighashmap</text>
<text text-anchor="middle" x="246" y="-55" font-family="Helvetica,sans-Serif" font-size="10.00">::CmphMap::size</text>
</a>
</g>
</g>
<!-- Node1&#45;&gt;Node7 -->
<g id="edge11_Node000001_Node000007" class="edge">
<title>Node1&#45;&gt;Node7</title>
<g id="a_edge11_Node000001_Node000007"><a xlink:title=" ">
<path fill="none" stroke="#63b8ff" d="M133.81,-90.96C147.22,-87.59 161.55,-83.98 175.32,-80.52"/>
<polygon fill="#63b8ff" stroke="#63b8ff" points="176.38,-83.86 185.23,-78.03 174.67,-77.08 176.38,-83.86"/>
</a>
</g>
</g>
<!-- Node8 -->
<g id="Node000008" class="node">
<title>Node8</title>
<g id="a_Node000008"><a xlink:href="structnetspeak_1_1value_1_1value__traits.html#a1de8038347bdd72008ef72ad481f4a77" target="_top" xlink:title=" ">
<polygon fill="white" stroke="#666666" points="310,-30 182,-30 182,0 310,0 310,-30"/>
<text text-anchor="start" x="190" y="-18" font-family="Helvetica,sans-Serif" font-size="10.00">netspeak::value::value</text>
<text text-anchor="middle" x="246" y="-7" font-family="Helvetica,sans-Serif" font-size="10.00">_traits::size_of</text>
</a>
</g>
</g>
<!-- Node1&#45;&gt;Node8 -->
<g id="edge12_Node000001_Node000008" class="edge">
<title>Node1&#45;&gt;Node8</title>
<g id="a_edge12_Node000001_Node000008"><a xlink:title=" ">
<path fill="none" stroke="#63b8ff" d="M95.63,-90.86C116.94,-76.36 150.76,-54.47 182,-39 185.5,-37.27 189.16,-35.58 192.87,-33.95"/>
<polygon fill="#63b8ff" stroke="#63b8ff" points="194.3,-37.15 202.16,-30.05 191.59,-30.7 194.3,-37.15"/>
</a>
</g>
</g>
<!-- Node3 -->
<g id="Node000003" class="node">
<title>Node3</title>
<g id="a_Node000003"><a xlink:href="namespacenetspeak_1_1util.html#a4c91ad572508b4021399ac7dddff574d" target="_top" xlink:title=" ">
<polygon fill="white" stroke="#666666" points="614,-148.5 501,-148.5 501,-129.5 614,-129.5 614,-148.5"/>
<text text-anchor="middle" x="557.5" y="-136.5" font-family="Helvetica,sans-Serif" font-size="10.00">netspeak::util::hash</text>
</a>
</g>
</g>
<!-- Node2&#45;&gt;Node3 -->
<g id="edge2_Node000002_Node000003" class="edge">
<title>Node2&#45;&gt;Node3</title>
<g id="a_edge2_Node000002_Node000003"><a xlink:title=" ">
<path fill="none" stroke="#63b8ff" d="M305.67,-189.31C350.04,-194.45 412.14,-197.54 465,-185 490.19,-179.02 516.33,-164.96 534.19,-153.95"/>
<polygon fill="#63b8ff" stroke="#63b8ff" points="536.16,-156.84 542.72,-148.53 532.4,-150.93 536.16,-156.84"/>
</a>
</g>
</g>
<!-- Node4 -->
<g id="Node000004" class="node">
<title>Node4</title>
<g id="a_Node000004"><a xlink:href="namespacenetspeak_1_1util.html#af94d48fda5f335ddcb461a8237079866" target="_top" xlink:title=" ">
<polygon fill="white" stroke="#666666" points="465,-176 346,-176 346,-146 465,-146 465,-176"/>
<text text-anchor="start" x="354" y="-164" font-family="Helvetica,sans-Serif" font-size="10.00">netspeak::util::signal</text>
<text text-anchor="middle" x="405.5" y="-153" font-family="Helvetica,sans-Serif" font-size="10.00">_error</text>
</a>
</g>
</g>
<!-- Node2&#45;&gt;Node4 -->
<g id="edge3_Node000002_Node000004" class="edge">
<title>Node2&#45;&gt;Node4</title>
<g id="a_edge3_Node000002_Node000004"><a xlink:title=" ">
<path fill="none" stroke="#63b8ff" d="M305.65,-172.93C315.49,-171.74 325.77,-170.5 335.84,-169.28"/>
<polygon fill="#63b8ff" stroke="#63b8ff" points="336.3,-172.75 345.8,-168.08 335.46,-165.8 336.3,-172.75"/>
</a>
</g>
</g>
<!-- Node4&#45;&gt;Node3 -->
<g id="edge4_Node000004_Node000003" class="edge">
<title>Node4&#45;&gt;Node3</title>
<g id="a_edge4_Node000004_Node000003"><a xlink:title=" ">
<path fill="none" stroke="#63b8ff" d="M465.35,-152.37C473.64,-151.15 482.2,-149.9 490.61,-148.66"/>
<polygon fill="#63b8ff" stroke="#63b8ff" points="491.37,-152.09 500.76,-147.18 490.36,-145.16 491.37,-152.09"/>
</a>
</g>
</g>
<!-- Node5&#45;&gt;Node3 -->
<g id="edge6_Node000005_Node000003" class="edge">
<title>Node5&#45;&gt;Node3</title>
<g id="a_edge6_Node000005_Node000003"><a xlink:title=" ">
<path fill="none" stroke="#63b8ff" d="M304.56,-138.92C318.14,-138.12 332.58,-137.41 346,-137 398.86,-135.4 412.11,-136.42 465,-137 473.34,-137.09 482.1,-137.23 490.76,-137.39"/>
<polygon fill="#63b8ff" stroke="#63b8ff" points="490.79,-140.89 500.86,-137.59 490.93,-133.89 490.79,-140.89"/>
</a>
</g>
</g>
<!-- Node5&#45;&gt;Node4 -->
<g id="edge7_Node000005_Node000004" class="edge">
<title>Node5&#45;&gt;Node4</title>
<g id="a_edge7_Node000005_Node000004"><a xlink:title=" ">
<path fill="none" stroke="#63b8ff" d="M304.75,-149.6C314.83,-150.75 325.4,-151.96 335.73,-153.14"/>
<polygon fill="#63b8ff" stroke="#63b8ff" points="335.63,-156.65 345.96,-154.31 336.43,-149.7 335.63,-156.65"/>
</a>
</g>
</g>
<!-- Node6&#45;&gt;Node3 -->
<g id="edge9_Node000006_Node000003" class="edge">
<title>Node6&#45;&gt;Node3</title>
<g id="a_edge9_Node000006_Node000003"><a xlink:title=" ">
<path fill="none" stroke="#63b8ff" d="M303.77,-112.05C356.59,-117.68 435.27,-126.07 490.79,-131.99"/>
<polygon fill="#63b8ff" stroke="#63b8ff" points="490.56,-135.49 500.87,-133.07 491.3,-128.53 490.56,-135.49"/>
</a>
</g>
</g>
<!-- Node6&#45;&gt;Node4 -->
<g id="edge10_Node000006_Node000004" class="edge">
<title>Node6&#45;&gt;Node4</title>
<g id="a_edge10_Node000006_Node000004"><a xlink:title=" ">
<path fill="none" stroke="#63b8ff" d="M282.5,-115.51C291.52,-118.1 301.16,-121.02 310,-124 326.17,-129.46 343.64,-136.09 359.11,-142.22"/>
<polygon fill="#63b8ff" stroke="#63b8ff" points="357.86,-145.49 368.45,-145.96 360.46,-138.99 357.86,-145.49"/>
</a>
</g>
</g>
</g>
</svg>
