<?xml version="1.0" encoding="UTF-8" standalone="no"?>
<!DOCTYPE svg PUBLIC "-//W3C//DTD SVG 1.1//EN"
 "http://www.w3.org/Graphics/SVG/1.1/DTD/svg11.dtd">
<!-- Generated by graphviz version 2.43.0 (0)
 -->
<!-- Title: netspeak::invertedindex::Searcher&lt; Value, ThreadSafe &gt; Pages: 1 -->
<svg width="178pt" height="419pt"
 viewBox="0.00 0.00 178.00 419.00" xmlns="http://www.w3.org/2000/svg" xmlns:xlink="http://www.w3.org/1999/xlink">
<g id="graph0" class="graph" transform="scale(1 1) rotate(0) translate(4 415)">
<title>netspeak::invertedindex::Searcher&lt; Value, ThreadSafe &gt;</title>
<!-- Node1 -->
<g id="Node000001" class="node">
<title>Node1</title>
<g id="a_Node000001"><a xlink:title=" ">
<polygon fill="#999999" stroke="transparent" points="170,-255 0,-255 0,0 170,0 170,-255"/>
<text text-anchor="start" x="5" y="-242.5" font-family="Helvetica,sans-Serif" font-size="10.00">netspeak::invertedindex</text>
<text text-anchor="start" x="5" y="-231.5" font-family="Helvetica,sans-Serif" font-size="10.00">::Searcher&lt; Value, ThreadSafe &gt;</text>
<text text-anchor="start" x="17.5" y="-216.5" font-family="Helvetica,sans-Serif" font-size="10.00">&#45;</text>
<text text-anchor="start" x="39" y="-216.5" font-family="Helvetica,sans-Serif" font-size="10.00">config_</text>
<text text-anchor="start" x="17.5" y="-201.5" font-family="Helvetica,sans-Serif" font-size="10.00">&#45;</text>
<text text-anchor="start" x="39" y="-201.5" font-family="Helvetica,sans-Serif" font-size="10.00">props_</text>
<text text-anchor="start" x="17.5" y="-186.5" font-family="Helvetica,sans-Serif" font-size="10.00">&#45;</text>
<text text-anchor="start" x="39" y="-186.5" font-family="Helvetica,sans-Serif" font-size="10.00">storage_</text>
<text text-anchor="start" x="15" y="-171.5" font-family="Helvetica,sans-Serif" font-size="10.00">+</text>
<text text-anchor="start" x="39" y="-171.5" font-family="Helvetica,sans-Serif" font-size="10.00">Searcher()</text>
<text text-anchor="start" x="15" y="-156.5" font-family="Helvetica,sans-Serif" font-size="10.00">+</text>
<text text-anchor="start" x="39" y="-156.5" font-family="Helvetica,sans-Serif" font-size="10.00">Searcher()</text>
<text text-anchor="start" x="15" y="-141.5" font-family="Helvetica,sans-Serif" font-size="10.00">+</text>
<text text-anchor="start" x="39" y="-141.5" font-family="Helvetica,sans-Serif" font-size="10.00">~Searcher()</text>
<text text-anchor="start" x="15" y="-126.5" font-family="Helvetica,sans-Serif" font-size="10.00">+</text>
<text text-anchor="start" x="39" y="-126.5" font-family="Helvetica,sans-Serif" font-size="10.00">close()</text>
<text text-anchor="start" x="15" y="-111.5" font-family="Helvetica,sans-Serif" font-size="10.00">+</text>
<text text-anchor="start" x="39" y="-111.5" font-family="Helvetica,sans-Serif" font-size="10.00">is_open()</text>
<text text-anchor="start" x="15" y="-96.5" font-family="Helvetica,sans-Serif" font-size="10.00">+</text>
<text text-anchor="start" x="39" y="-96.5" font-family="Helvetica,sans-Serif" font-size="10.00">open()</text>
<text text-anchor="start" x="15" y="-81.5" font-family="Helvetica,sans-Serif" font-size="10.00">+</text>
<text text-anchor="start" x="39" y="-81.5" font-family="Helvetica,sans-Serif" font-size="10.00">search_head()</text>
<text text-anchor="start" x="15" y="-66.5" font-family="Helvetica,sans-Serif" font-size="10.00">+</text>
<text text-anchor="start" x="39" y="-66.5" font-family="Helvetica,sans-Serif" font-size="10.00">search_postlist()</text>
<text text-anchor="start" x="15" y="-51.5" font-family="Helvetica,sans-Serif" font-size="10.00">+</text>
<text text-anchor="start" x="39" y="-51.5" font-family="Helvetica,sans-Serif" font-size="10.00">search_raw_postlist()</text>
<text text-anchor="start" x="15" y="-36.5" font-family="Helvetica,sans-Serif" font-size="10.00">+</text>
<text text-anchor="start" x="39" y="-36.5" font-family="Helvetica,sans-Serif" font-size="10.00">configuration()</text>
<text text-anchor="start" x="15" y="-21.5" font-family="Helvetica,sans-Serif" font-size="10.00">+</text>
<text text-anchor="start" x="39" y="-21.5" font-family="Helvetica,sans-Serif" font-size="10.00">properties()</text>
<text text-anchor="start" x="17.5" y="-6.5" font-family="Helvetica,sans-Serif" font-size="10.00">&#45;</text>
<text text-anchor="start" x="39" y="-6.5" font-family="Helvetica,sans-Serif" font-size="10.00">assert_properties()</text>
<polygon fill="#666666" stroke="#666666" points="0,-226.5 0,-226.5 170,-226.5 170,-226.5 0,-226.5"/>
<polygon fill="#666666" stroke="#666666" points="0,-181.5 0,-181.5 37,-181.5 37,-181.5 0,-181.5"/>
<polygon fill="#666666" stroke="#666666" points="37,-181.5 37,-181.5 170,-181.5 170,-181.5 37,-181.5"/>
<polygon fill="none" stroke="#666666" points="0,0 0,-255 170,-255 170,0 0,0"/>
</a>
</g>
</g>
<!-- Node2 -->
<g id="Node000002" class="node">
<title>Node2</title>
<g id="a_Node000002"><a xlink:href="classnetspeak_1_1invertedindex_1_1RawSearcher.html" target="_top" xlink:title=" ">
<polygon fill="white" stroke="transparent" points="149.5,-411 20.5,-411 20.5,-291 149.5,-291 149.5,-411"/>
<text text-anchor="start" x="26" y="-399" font-family="Helvetica,sans-Serif" font-size="10.00">netspeak::invertedindex</text>
<text text-anchor="start" x="50.5" y="-388" font-family="Helvetica,sans-Serif" font-size="10.00">::RawSearcher</text>
<text text-anchor="start" x="83.5" y="-373" font-family="Helvetica,sans-Serif" font-size="10.00"> </text>
<text text-anchor="start" x="25.5" y="-358" font-family="Helvetica,sans-Serif" font-size="10.00">+</text>
<text text-anchor="start" x="39" y="-358" font-family="Helvetica,sans-Serif" font-size="10.00">~RawSearcher()</text>
<text text-anchor="start" x="25.5" y="-343" font-family="Helvetica,sans-Serif" font-size="10.00">+</text>
<text text-anchor="start" x="39" y="-343" font-family="Helvetica,sans-Serif" font-size="10.00">close()</text>
<text text-anchor="start" x="25.5" y="-328" font-family="Helvetica,sans-Serif" font-size="10.00">+</text>
<text text-anchor="start" x="39" y="-328" font-family="Helvetica,sans-Serif" font-size="10.00">search_head()</text>
<text text-anchor="start" x="25.5" y="-313" font-family="Helvetica,sans-Serif" font-size="10.00">+</text>
<text text-anchor="start" x="39" y="-313" font-family="Helvetica,sans-Serif" font-size="10.00">search_raw_postlist()</text>
<text text-anchor="start" x="25.5" y="-298" font-family="Helvetica,sans-Serif" font-size="10.00">+</text>
<text text-anchor="start" x="39" y="-298" font-family="Helvetica,sans-Serif" font-size="10.00">properties()</text>
<polygon fill="#666666" stroke="#666666" points="21,-383 21,-383 150,-383 150,-383 21,-383"/>
<polygon fill="#666666" stroke="#666666" points="21,-368 21,-368 150,-368 150,-368 21,-368"/>
<polygon fill="none" stroke="#666666" points="20.5,-291 20.5,-411 149.5,-411 149.5,-291 20.5,-291"/>
</a>
</g>
</g>
<!-- Node2&#45;&gt;Node1 -->
<g id="edge1_Node000001_Node000002" class="edge">
<title>Node2&#45;&gt;Node1</title>
<g id="a_edge1_Node000001_Node000002"><a xlink:title=" ">
<path fill="none" stroke="#63b8ff" d="M85,-280.78C85,-272.6 85,-264.07 85,-255.41"/>
<polygon fill="none" stroke="#63b8ff" points="81.5,-280.93 85,-290.93 88.5,-280.93 81.5,-280.93"/>
</a>
</g>
</g>
</g>
</svg>
