<?xml version="1.0" encoding="UTF-8" standalone="no"?>
<!DOCTYPE svg PUBLIC "-//W3C//DTD SVG 1.1//EN"
 "http://www.w3.org/Graphics/SVG/1.1/DTD/svg11.dtd">
<!-- Generated by graphviz version 2.43.0 (0)
 -->
<!-- Title: netspeak::SimpleQueryOptimizer Pages: 1 -->
<svg width="181pt" height="162pt"
 viewBox="0.00 0.00 181.00 162.00" xmlns="http://www.w3.org/2000/svg" xmlns:xlink="http://www.w3.org/1999/xlink">
<g id="graph0" class="graph" transform="scale(1 1) rotate(0) translate(4 158)">
<title>netspeak::SimpleQueryOptimizer</title>
<!-- Node1 -->
<g id="Node000001" class="node">
<title>Node1</title>
<g id="a_Node000001"><a xlink:title=" ">
<polygon fill="#999999" stroke="transparent" points="173,-154 0,-154 0,0 173,0 173,-154"/>
<text text-anchor="start" x="5.5" y="-142" font-family="Helvetica,sans-Serif" font-size="10.00">netspeak::SimpleQueryOptimizer</text>
<text text-anchor="start" x="85" y="-127" font-family="Helvetica,sans-Serif" font-size="10.00"> </text>
<text text-anchor="start" x="9" y="-112" font-family="Helvetica,sans-Serif" font-size="10.00">+</text>
<text text-anchor="start" x="26.5" y="-112" font-family="Helvetica,sans-Serif" font-size="10.00">optimize()</text>
<text text-anchor="start" x="11.5" y="-97" font-family="Helvetica,sans-Serif" font-size="10.00">&#45;</text>
<text text-anchor="start" x="26.5" y="-97" font-family="Helvetica,sans-Serif" font-size="10.00">optimize_simple_unit()</text>
<text text-anchor="start" x="11.5" y="-82" font-family="Helvetica,sans-Serif" font-size="10.00">&#45;</text>
<text text-anchor="start" x="26.5" y="-82" font-family="Helvetica,sans-Serif" font-size="10.00">optimize_simple_children()</text>
<text text-anchor="start" x="11.5" y="-67" font-family="Helvetica,sans-Serif" font-size="10.00">&#45;</text>
<text text-anchor="start" x="26.5" y="-67" font-family="Helvetica,sans-Serif" font-size="10.00">optimize_simple_concat()</text>
<text text-anchor="start" x="11.5" y="-52" font-family="Helvetica,sans-Serif" font-size="10.00">&#45;</text>
<text text-anchor="start" x="26.5" y="-52" font-family="Helvetica,sans-Serif" font-size="10.00">optimize_simple_alt()</text>
<text text-anchor="start" x="11.5" y="-37" font-family="Helvetica,sans-Serif" font-size="10.00">&#45;</text>
<text text-anchor="start" x="26.5" y="-37" font-family="Helvetica,sans-Serif" font-size="10.00">contains_child()</text>
<text text-anchor="start" x="11.5" y="-22" font-family="Helvetica,sans-Serif" font-size="10.00">&#45;</text>
<text text-anchor="start" x="26.5" y="-22" font-family="Helvetica,sans-Serif" font-size="10.00">inline_nested()</text>
<text text-anchor="start" x="11.5" y="-7" font-family="Helvetica,sans-Serif" font-size="10.00">&#45;</text>
<text text-anchor="start" x="26.5" y="-7" font-family="Helvetica,sans-Serif" font-size="10.00">concat_star_optimization()</text>
<polygon fill="#666666" stroke="#666666" points="0.5,-137 0.5,-137 173.5,-137 173.5,-137 0.5,-137"/>
<polygon fill="#666666" stroke="#666666" points="0.5,-122 0.5,-122 173.5,-122 173.5,-122 0.5,-122"/>
<polygon fill="none" stroke="#666666" points="0,0 0,-154 173,-154 173,0 0,0"/>
</a>
</g>
</g>
</g>
</svg>
