<?xml version="1.0" encoding="UTF-8" standalone="no"?>
<!DOCTYPE svg PUBLIC "-//W3C//DTD SVG 1.1//EN"
 "http://www.w3.org/Graphics/SVG/1.1/DTD/svg11.dtd">
<!-- Generated by graphviz version 2.43.0 (0)
 -->
<!-- Title: netspeak::bighashmap::BigHashMap::Build Pages: 1 -->
<svg width="1332pt" height="500pt"
 viewBox="0.00 0.00 1332.00 500.17" xmlns="http://www.w3.org/2000/svg" xmlns:xlink="http://www.w3.org/1999/xlink">
<g id="graph0" class="graph" transform="scale(1 1) rotate(0) translate(4 496.17)">
<title>netspeak::bighashmap::BigHashMap::Build</title>
<!-- Node1 -->
<g id="Node000001" class="node">
<title>Node1</title>
<g id="a_Node000001"><a xlink:title=" ">
<polygon fill="#999999" stroke="#666666" points="128,-185 0,-185 0,-155 128,-155 128,-185"/>
<text text-anchor="start" x="8" y="-173" font-family="Helvetica,sans-Serif" font-size="10.00">netspeak::bighashmap</text>
<text text-anchor="middle" x="64" y="-162" font-family="Helvetica,sans-Serif" font-size="10.00">::BigHashMap::Build</text>
</a>
</g>
</g>
<!-- Node2 -->
<g id="Node000002" class="node">
<title>Node2</title>
<g id="a_Node000002"><a xlink:href="classnetspeak_1_1bighashmap_1_1BigHashMap.html#a1aec263d5ed654c835a42f250b05e077" target="_top" xlink:title=" ">
<polygon fill="white" stroke="#666666" points="301,-209 164,-209 164,-179 301,-179 301,-209"/>
<text text-anchor="start" x="172" y="-197" font-family="Helvetica,sans-Serif" font-size="10.00">netspeak::bighashmap</text>
<text text-anchor="middle" x="232.5" y="-186" font-family="Helvetica,sans-Serif" font-size="10.00">::BigHashMap::algorithm</text>
</a>
</g>
</g>
<!-- Node1&#45;&gt;Node2 -->
<g id="edge1_Node000001_Node000002" class="edge">
<title>Node1&#45;&gt;Node2</title>
<g id="a_edge1_Node000001_Node000002"><a xlink:title=" ">
<path fill="none" stroke="#63b8ff" d="M128.42,-179.14C136.74,-180.34 145.35,-181.58 153.87,-182.81"/>
<polygon fill="#63b8ff" stroke="#63b8ff" points="153.42,-186.28 163.82,-184.24 154.42,-179.35 153.42,-186.28"/>
</a>
</g>
</g>
<!-- Node3 -->
<g id="Node000003" class="node">
<title>Node3</title>
<g id="a_Node000003"><a xlink:href="classnetspeak_1_1bighashmap_1_1Builder.html#a66906e74a9afa4707cfb7c999c0c635a" target="_top" xlink:title=" ">
<polygon fill="white" stroke="#666666" points="296.5,-161 168.5,-161 168.5,-131 296.5,-131 296.5,-161"/>
<text text-anchor="start" x="176.5" y="-149" font-family="Helvetica,sans-Serif" font-size="10.00">netspeak::bighashmap</text>
<text text-anchor="middle" x="232.5" y="-138" font-family="Helvetica,sans-Serif" font-size="10.00">::Builder::Build</text>
</a>
</g>
</g>
<!-- Node1&#45;&gt;Node3 -->
<g id="edge2_Node000001_Node000003" class="edge">
<title>Node1&#45;&gt;Node3</title>
<g id="a_edge2_Node000001_Node000003"><a xlink:title=" ">
<path fill="none" stroke="#63b8ff" d="M128.42,-160.86C138.11,-159.46 148.17,-158.01 158.05,-156.59"/>
<polygon fill="#63b8ff" stroke="#63b8ff" points="158.86,-160.01 168.25,-155.12 157.86,-153.08 158.86,-160.01"/>
</a>
</g>
</g>
<!-- Node4 -->
<g id="Node000004" class="node">
<title>Node4</title>
<g id="a_Node000004"><a xlink:href="classnetspeak_1_1bighashmap_1_1Builder.html#a8435164185bac78bacf97c66e78b9a27" target="_top" xlink:title=" ">
<polygon fill="white" stroke="#666666" points="465,-368 337,-368 337,-338 465,-338 465,-368"/>
<text text-anchor="start" x="345" y="-356" font-family="Helvetica,sans-Serif" font-size="10.00">netspeak::bighashmap</text>
<text text-anchor="middle" x="401" y="-345" font-family="Helvetica,sans-Serif" font-size="10.00">::Builder::BuildMap</text>
</a>
</g>
</g>
<!-- Node3&#45;&gt;Node4 -->
<g id="edge3_Node000003_Node000004" class="edge">
<title>Node3&#45;&gt;Node4</title>
<g id="a_edge3_Node000003_Node000004"><a xlink:title=" ">
<path fill="none" stroke="#63b8ff" d="M287.83,-161.15C292.55,-163.67 297.03,-166.6 301,-170 351.51,-213.26 380.58,-288.96 392.91,-328.05"/>
<polygon fill="#63b8ff" stroke="#63b8ff" points="389.63,-329.28 395.89,-337.83 396.33,-327.24 389.63,-329.28"/>
</a>
</g>
</g>
<!-- Node11 -->
<g id="Node000011" class="node">
<title>Node11</title>
<g id="a_Node000011"><a xlink:href="namespacenetspeak_1_1util.html#ad2441a387c3a4c47e09c373e9412fad0" target="_top" xlink:title=" ">
<polygon fill="white" stroke="#666666" points="985.5,-155.5 881.5,-155.5 881.5,-136.5 985.5,-136.5 985.5,-155.5"/>
<text text-anchor="middle" x="933.5" y="-143.5" font-family="Helvetica,sans-Serif" font-size="10.00">netspeak::util::log</text>
</a>
</g>
</g>
<!-- Node3&#45;&gt;Node11 -->
<g id="edge31_Node000003_Node000011" class="edge">
<title>Node3&#45;&gt;Node11</title>
<g id="a_edge31_Node000003_Node000011"><a xlink:title=" ">
<path fill="none" stroke="#63b8ff" d="M296.76,-146C430.26,-146 739.3,-146 871.12,-146"/>
<polygon fill="#63b8ff" stroke="#63b8ff" points="871.44,-149.5 881.44,-146 871.44,-142.5 871.44,-149.5"/>
</a>
</g>
</g>
<!-- Node22 -->
<g id="Node000022" class="node">
<title>Node22</title>
<g id="a_Node000022"><a xlink:href="classnetspeak_1_1bighashmap_1_1Builder.html#a7144d697e3b176b53d03f0b4dcca71d1" target="_top" xlink:title=" ">
<polygon fill="white" stroke="#666666" points="824,-118 696,-118 696,-88 824,-88 824,-118"/>
<text text-anchor="start" x="704" y="-106" font-family="Helvetica,sans-Serif" font-size="10.00">netspeak::bighashmap</text>
<text text-anchor="middle" x="760" y="-95" font-family="Helvetica,sans-Serif" font-size="10.00">::Builder::Partition</text>
</a>
</g>
</g>
<!-- Node3&#45;&gt;Node22 -->
<g id="edge32_Node000003_Node000022" class="edge">
<title>Node3&#45;&gt;Node22</title>
<g id="a_edge32_Node000003_Node000022"><a xlink:title=" ">
<path fill="none" stroke="#63b8ff" d="M296.64,-136.79C309.95,-135.03 323.92,-133.33 337,-132 459.03,-119.57 601.47,-111.01 685.74,-106.57"/>
<polygon fill="#63b8ff" stroke="#63b8ff" points="686.17,-110.05 695.97,-106.03 685.8,-103.06 686.17,-110.05"/>
</a>
</g>
</g>
<!-- Node5 -->
<g id="Node000005" class="node">
<title>Node5</title>
<g id="a_Node000005"><a xlink:href="classnetspeak_1_1bighashmap_1_1Builder.html#aee77cc2f04280bd3b36aad2c7e22c52b" target="_top" xlink:title=" ">
<polygon fill="white" stroke="#666666" points="655,-390 501,-390 501,-360 655,-360 655,-390"/>
<text text-anchor="start" x="509" y="-378" font-family="Helvetica,sans-Serif" font-size="10.00">netspeak::bighashmap</text>
<text text-anchor="middle" x="578" y="-367" font-family="Helvetica,sans-Serif" font-size="10.00">::Builder::BuildHashFunction</text>
</a>
</g>
</g>
<!-- Node4&#45;&gt;Node5 -->
<g id="edge4_Node000004_Node000005" class="edge">
<title>Node4&#45;&gt;Node5</title>
<g id="a_edge4_Node000004_Node000005"><a xlink:title=" ">
<path fill="none" stroke="#63b8ff" d="M465.18,-360.94C473.48,-361.99 482.1,-363.07 490.71,-364.15"/>
<polygon fill="#63b8ff" stroke="#63b8ff" points="490.42,-367.64 500.78,-365.42 491.3,-360.7 490.42,-367.64"/>
</a>
</g>
</g>
<!-- Node14 -->
<g id="Node000014" class="node">
<title>Node14</title>
<g id="a_Node000014"><a xlink:href="classnetspeak_1_1bighashmap_1_1Builder.html#a333ad1bb51cee1f0177b6b631148a423" target="_top" xlink:title=" ">
<polygon fill="white" stroke="#666666" points="829,-347 691,-347 691,-317 829,-317 829,-347"/>
<text text-anchor="start" x="699" y="-335" font-family="Helvetica,sans-Serif" font-size="10.00">netspeak::bighashmap</text>
<text text-anchor="middle" x="760" y="-324" font-family="Helvetica,sans-Serif" font-size="10.00">::Builder::BuildHashTable</text>
</a>
</g>
</g>
<!-- Node4&#45;&gt;Node14 -->
<g id="edge18_Node000004_Node000014" class="edge">
<title>Node4&#45;&gt;Node14</title>
<g id="a_edge18_Node000004_Node000014"><a xlink:title=" ">
<path fill="none" stroke="#63b8ff" d="M465,-349.29C525.14,-345.76 615.93,-340.42 680.69,-336.61"/>
<polygon fill="#63b8ff" stroke="#63b8ff" points="681.07,-340.09 690.85,-336.01 680.66,-333.1 681.07,-340.09"/>
</a>
</g>
</g>
<!-- Node21 -->
<g id="Node000021" class="node">
<title>Node21</title>
<g id="a_Node000021"><a xlink:href="classnetspeak_1_1bighashmap_1_1Builder.html#aa0aabbe526c4b5268a49a69f23ff7615" target="_top" xlink:title=" ">
<polygon fill="white" stroke="#666666" points="643.5,-438 512.5,-438 512.5,-408 643.5,-408 643.5,-438"/>
<text text-anchor="start" x="520.5" y="-426" font-family="Helvetica,sans-Serif" font-size="10.00">netspeak::bighashmap</text>
<text text-anchor="middle" x="578" y="-415" font-family="Helvetica,sans-Serif" font-size="10.00">::Builder::CreateKeyFile</text>
</a>
</g>
</g>
<!-- Node4&#45;&gt;Node21 -->
<g id="edge30_Node000004_Node000021" class="edge">
<title>Node4&#45;&gt;Node21</title>
<g id="a_edge30_Node000004_Node000021"><a xlink:title=" ">
<path fill="none" stroke="#63b8ff" d="M431.89,-368.12C451.31,-377.63 477.33,-389.81 501,-399 506,-400.94 511.22,-402.84 516.5,-404.68"/>
<polygon fill="#63b8ff" stroke="#63b8ff" points="515.4,-408 525.99,-407.89 517.64,-401.37 515.4,-408"/>
</a>
</g>
</g>
<!-- Node6 -->
<g id="Node000006" class="node">
<title>Node6</title>
<g id="a_Node000006"><a xlink:href="namespacenetspeak_1_1util.html#a978978e70b474657b12402a3db711ef0" target="_top" xlink:title=" ">
<polygon fill="white" stroke="#666666" points="993,-449.5 874,-449.5 874,-430.5 993,-430.5 993,-449.5"/>
<text text-anchor="middle" x="933.5" y="-437.5" font-family="Helvetica,sans-Serif" font-size="10.00">netspeak::util::fclose</text>
</a>
</g>
</g>
<!-- Node5&#45;&gt;Node6 -->
<g id="edge5_Node000005_Node000006" class="edge">
<title>Node5&#45;&gt;Node6</title>
<g id="a_edge5_Node000005_Node000006"><a xlink:title=" ">
<path fill="none" stroke="#63b8ff" d="M655.27,-389.02C719.64,-400.86 810.64,-417.59 870.58,-428.61"/>
<polygon fill="#63b8ff" stroke="#63b8ff" points="870.19,-432.1 880.66,-430.47 871.45,-425.22 870.19,-432.1"/>
</a>
</g>
</g>
<!-- Node9 -->
<g id="Node000009" class="node">
<title>Node9</title>
<g id="a_Node000009"><a xlink:href="namespacenetspeak_1_1util.html#a4acc3d13f8d541f4b65dd44f486403fd" target="_top" xlink:title=" ">
<polygon fill="white" stroke="#666666" points="992,-486.5 875,-486.5 875,-467.5 992,-467.5 992,-486.5"/>
<text text-anchor="middle" x="933.5" y="-474.5" font-family="Helvetica,sans-Serif" font-size="10.00">netspeak::util::fopen</text>
</a>
</g>
</g>
<!-- Node5&#45;&gt;Node9 -->
<g id="edge9_Node000005_Node000009" class="edge">
<title>Node5&#45;&gt;Node9</title>
<g id="a_edge9_Node000005_Node000009"><a xlink:title=" ">
<path fill="none" stroke="#63b8ff" d="M632.83,-390.05C640.39,-392.73 647.98,-395.72 655,-399 672.2,-407.04 673.48,-414.67 691,-422 747.23,-445.52 815.22,-459.86 864.72,-467.97"/>
<polygon fill="#63b8ff" stroke="#63b8ff" points="864.25,-471.44 874.67,-469.56 865.35,-464.52 864.25,-471.44"/>
</a>
</g>
</g>
<!-- Node10 -->
<g id="Node000010" class="node">
<title>Node10</title>
<g id="a_Node000010"><a xlink:href="classnetspeak_1_1bighashmap_1_1Builder.html#aea46a1ff17f1139f366352a804b28cc9" target="_top" xlink:title=" ">
<polygon fill="white" stroke="#666666" points="824,-256 696,-256 696,-226 824,-226 824,-256"/>
<text text-anchor="start" x="704" y="-244" font-family="Helvetica,sans-Serif" font-size="10.00">netspeak::bighashmap</text>
<text text-anchor="middle" x="760" y="-233" font-family="Helvetica,sans-Serif" font-size="10.00">::Builder::IsUnique</text>
</a>
</g>
</g>
<!-- Node5&#45;&gt;Node10 -->
<g id="edge12_Node000005_Node000010" class="edge">
<title>Node5&#45;&gt;Node10</title>
<g id="a_edge12_Node000005_Node000010"><a xlink:title=" ">
<path fill="none" stroke="#63b8ff" d="M599.3,-359.89C631.39,-336 693.94,-289.43 730.51,-262.21"/>
<polygon fill="#63b8ff" stroke="#63b8ff" points="732.84,-264.83 738.78,-256.06 728.66,-259.22 732.84,-264.83"/>
</a>
</g>
</g>
<!-- Node7 -->
<g id="Node000007" class="node">
<title>Node7</title>
<g id="a_Node000007"><a xlink:href="namespacenetspeak_1_1util.html#a4c91ad572508b4021399ac7dddff574d" target="_top" xlink:title=" ">
<polygon fill="white" stroke="#666666" points="1324,-249.5 1211,-249.5 1211,-230.5 1324,-230.5 1324,-249.5"/>
<text text-anchor="middle" x="1267.5" y="-237.5" font-family="Helvetica,sans-Serif" font-size="10.00">netspeak::util::hash</text>
</a>
</g>
</g>
<!-- Node6&#45;&gt;Node7 -->
<g id="edge6_Node000006_Node000007" class="edge">
<title>Node6&#45;&gt;Node7</title>
<g id="a_edge6_Node000006_Node000007"><a xlink:title=" ">
<path fill="none" stroke="#63b8ff" d="M972.11,-430.42C981.88,-427.81 992.36,-424.9 1002,-422 1002.61,-421.82 1174.49,-364.37 1175,-364 1213.93,-335.66 1243.35,-285.86 1257.39,-258.8"/>
<polygon fill="#63b8ff" stroke="#63b8ff" points="1260.63,-260.14 1262,-249.63 1254.38,-256.99 1260.63,-260.14"/>
</a>
</g>
</g>
<!-- Node8 -->
<g id="Node000008" class="node">
<title>Node8</title>
<g id="a_Node000008"><a xlink:href="namespacenetspeak_1_1util.html#af94d48fda5f335ddcb461a8237079866" target="_top" xlink:title=" ">
<polygon fill="white" stroke="#666666" points="1166,-449 1047,-449 1047,-419 1166,-419 1166,-449"/>
<text text-anchor="start" x="1055" y="-437" font-family="Helvetica,sans-Serif" font-size="10.00">netspeak::util::signal</text>
<text text-anchor="middle" x="1106.5" y="-426" font-family="Helvetica,sans-Serif" font-size="10.00">_error</text>
</a>
</g>
</g>
<!-- Node6&#45;&gt;Node8 -->
<g id="edge7_Node000006_Node000008" class="edge">
<title>Node6&#45;&gt;Node8</title>
<g id="a_edge7_Node000006_Node000008"><a xlink:title=" ">
<path fill="none" stroke="#63b8ff" d="M993.35,-437.94C1007.26,-437.45 1022.23,-436.92 1036.54,-436.42"/>
<polygon fill="#63b8ff" stroke="#63b8ff" points="1036.96,-439.91 1046.83,-436.06 1036.72,-432.91 1036.96,-439.91"/>
</a>
</g>
</g>
<!-- Node8&#45;&gt;Node7 -->
<g id="edge8_Node000008_Node000007" class="edge">
<title>Node8&#45;&gt;Node7</title>
<g id="a_edge8_Node000008_Node000007"><a xlink:title=" ">
<path fill="none" stroke="#63b8ff" d="M1153.89,-418.94C1161.47,-415.17 1168.85,-410.56 1175,-405 1221.04,-363.37 1249.05,-292.97 1260.5,-259.19"/>
<polygon fill="#63b8ff" stroke="#63b8ff" points="1263.86,-260.19 1263.64,-249.6 1257.21,-258.02 1263.86,-260.19"/>
</a>
</g>
</g>
<!-- Node9&#45;&gt;Node7 -->
<g id="edge10_Node000009_Node000007" class="edge">
<title>Node9&#45;&gt;Node7</title>
<g id="a_edge10_Node000009_Node000007"><a xlink:title=" ">
<path fill="none" stroke="#63b8ff" d="M980.94,-486.57C1033.25,-494.59 1118.32,-498.99 1175,-458 1241.56,-409.87 1259.97,-303.77 1264.84,-259.75"/>
<polygon fill="#63b8ff" stroke="#63b8ff" points="1268.35,-259.81 1265.84,-249.52 1261.38,-259.13 1268.35,-259.81"/>
</a>
</g>
</g>
<!-- Node9&#45;&gt;Node8 -->
<g id="edge11_Node000009_Node000008" class="edge">
<title>Node9&#45;&gt;Node8</title>
<g id="a_edge11_Node000009_Node000008"><a xlink:title=" ">
<path fill="none" stroke="#63b8ff" d="M972.45,-467.46C991.39,-462.69 1014.9,-456.78 1036.86,-451.26"/>
<polygon fill="#63b8ff" stroke="#63b8ff" points="1037.98,-454.59 1046.82,-448.75 1036.27,-447.8 1037.98,-454.59"/>
</a>
</g>
</g>
<!-- Node10&#45;&gt;Node11 -->
<g id="edge13_Node000010_Node000011" class="edge">
<title>Node10&#45;&gt;Node11</title>
<g id="a_edge13_Node000010_Node000011"><a xlink:title=" ">
<path fill="none" stroke="#63b8ff" d="M777.79,-225.75C797.39,-208.7 831.42,-181.34 865,-165 869.86,-162.64 875.06,-160.52 880.34,-158.64"/>
<polygon fill="#63b8ff" stroke="#63b8ff" points="881.47,-161.95 889.87,-155.5 879.28,-155.3 881.47,-161.95"/>
</a>
</g>
</g>
<!-- Node11&#45;&gt;Node7 -->
<g id="edge15_Node000011_Node000007" class="edge">
<title>Node11&#45;&gt;Node7</title>
<g id="a_edge15_Node000011_Node000007"><a xlink:title=" ">
<path fill="none" stroke="#63b8ff" d="M985.59,-144.23C1035.55,-144.22 1112.96,-148.8 1175,-173 1204,-184.31 1232.09,-207.21 1249.32,-223.07"/>
<polygon fill="#63b8ff" stroke="#63b8ff" points="1247.2,-225.88 1256.87,-230.21 1252.01,-220.79 1247.2,-225.88"/>
</a>
</g>
</g>
<!-- Node12 -->
<g id="Node000012" class="node">
<title>Node12</title>
<g id="a_Node000012"><a xlink:href="namespacenetspeak_1_1util.html#ab27a22c787271513007af0719b17cef9" target="_top" xlink:title=" ">
<polygon fill="white" stroke="#666666" points="1159,-126 1054,-126 1054,-96 1159,-96 1159,-126"/>
<text text-anchor="start" x="1062" y="-114" font-family="Helvetica,sans-Serif" font-size="10.00">netspeak::util::get</text>
<text text-anchor="middle" x="1106.5" y="-103" font-family="Helvetica,sans-Serif" font-size="10.00">_log_mutex</text>
</a>
</g>
</g>
<!-- Node11&#45;&gt;Node12 -->
<g id="edge14_Node000011_Node000012" class="edge">
<title>Node11&#45;&gt;Node12</title>
<g id="a_edge14_Node000011_Node000012"><a xlink:title=" ">
<path fill="none" stroke="#63b8ff" d="M981.23,-136.44C1000.52,-132.49 1023.15,-127.86 1043.77,-123.63"/>
<polygon fill="#63b8ff" stroke="#63b8ff" points="1044.62,-127.03 1053.72,-121.6 1043.22,-120.18 1044.62,-127.03"/>
</a>
</g>
</g>
<!-- Node13 -->
<g id="Node000013" class="node">
<title>Node13</title>
<g id="a_Node000013"><a xlink:href="namespacenetspeak_1_1util.html#a93e18aaa529a497b6afdf4b3bd221182" target="_top" xlink:title=" ">
<polygon fill="white" stroke="#666666" points="1162.5,-212 1050.5,-212 1050.5,-182 1162.5,-182 1162.5,-212"/>
<text text-anchor="start" x="1058.5" y="-200" font-family="Helvetica,sans-Serif" font-size="10.00">netspeak::util::print</text>
<text text-anchor="middle" x="1106.5" y="-189" font-family="Helvetica,sans-Serif" font-size="10.00">_timestamp_to</text>
</a>
</g>
</g>
<!-- Node11&#45;&gt;Node13 -->
<g id="edge16_Node000011_Node000013" class="edge">
<title>Node11&#45;&gt;Node13</title>
<g id="a_edge16_Node000011_Node000013"><a xlink:title=" ">
<path fill="none" stroke="#63b8ff" d="M969.23,-155.59C979.77,-158.55 991.38,-161.86 1002,-165 1016.94,-169.41 1033.06,-174.32 1048.02,-178.94"/>
<polygon fill="#63b8ff" stroke="#63b8ff" points="1047.07,-182.31 1057.66,-181.93 1049.14,-175.63 1047.07,-182.31"/>
</a>
</g>
</g>
<!-- Node13&#45;&gt;Node7 -->
<g id="edge17_Node000013_Node000007" class="edge">
<title>Node13&#45;&gt;Node7</title>
<g id="a_edge17_Node000013_Node000007"><a xlink:title=" ">
<path fill="none" stroke="#63b8ff" d="M1162.66,-211.92C1181.89,-217.12 1203.21,-222.88 1221.51,-227.83"/>
<polygon fill="#63b8ff" stroke="#63b8ff" points="1220.76,-231.26 1231.33,-230.49 1222.59,-224.5 1220.76,-231.26"/>
</a>
</g>
</g>
<!-- Node14&#45;&gt;Node6 -->
<g id="edge21_Node000014_Node000006" class="edge">
<title>Node14&#45;&gt;Node6</title>
<g id="a_edge21_Node000014_Node000006"><a xlink:title=" ">
<path fill="none" stroke="#63b8ff" d="M776.84,-347.29C800.84,-370.18 845.69,-411.78 865,-422 868.52,-423.86 872.24,-425.54 876.06,-427.06"/>
<polygon fill="#63b8ff" stroke="#63b8ff" points="875.1,-430.43 885.69,-430.49 877.45,-423.84 875.1,-430.43"/>
</a>
</g>
</g>
<!-- Node14&#45;&gt;Node7 -->
<g id="edge26_Node000014_Node000007" class="edge">
<title>Node14&#45;&gt;Node7</title>
<g id="a_edge26_Node000014_Node000007"><a xlink:title=" ">
<path fill="none" stroke="#63b8ff" d="M774.32,-316.87C792.55,-297.41 827.3,-264.53 865,-251 977.51,-210.63 1119.36,-219.39 1200.82,-229.59"/>
<polygon fill="#63b8ff" stroke="#63b8ff" points="1200.57,-233.08 1210.93,-230.9 1201.47,-226.14 1200.57,-233.08"/>
</a>
</g>
</g>
<!-- Node14&#45;&gt;Node9 -->
<g id="edge22_Node000014_Node000009" class="edge">
<title>Node14&#45;&gt;Node9</title>
<g id="a_edge22_Node000014_Node000009"><a xlink:title=" ">
<path fill="none" stroke="#63b8ff" d="M769.1,-347.12C784.25,-373.92 819.49,-429.66 865,-459 867.57,-460.66 870.28,-462.16 873.09,-463.53"/>
<polygon fill="#63b8ff" stroke="#63b8ff" points="871.75,-466.76 882.32,-467.44 874.48,-460.31 871.75,-466.76"/>
</a>
</g>
</g>
<!-- Node15 -->
<g id="Node000015" class="node">
<title>Node15</title>
<g id="a_Node000015"><a xlink:href="structnetspeak_1_1value_1_1value__traits.html#ad8e5a704d34361f68b6325efb40d7872" target="_top" xlink:title=" ">
<polygon fill="white" stroke="#666666" points="997.5,-204 869.5,-204 869.5,-174 997.5,-174 997.5,-204"/>
<text text-anchor="start" x="877.5" y="-192" font-family="Helvetica,sans-Serif" font-size="10.00">netspeak::value::value</text>
<text text-anchor="middle" x="933.5" y="-181" font-family="Helvetica,sans-Serif" font-size="10.00">_traits::copy_to</text>
</a>
</g>
</g>
<!-- Node14&#45;&gt;Node15 -->
<g id="edge19_Node000014_Node000015" class="edge">
<title>Node14&#45;&gt;Node15</title>
<g id="a_edge19_Node000014_Node000015"><a xlink:title=" ">
<path fill="none" stroke="#63b8ff" d="M777.58,-316.9C791.76,-303.7 812.44,-283.76 829,-265 846.41,-245.27 844.24,-234.16 865,-218 869.34,-214.62 874.13,-211.56 879.1,-208.8"/>
<polygon fill="#63b8ff" stroke="#63b8ff" points="880.87,-211.83 888.18,-204.16 877.69,-205.59 880.87,-211.83"/>
</a>
</g>
</g>
<!-- Node16 -->
<g id="Node000016" class="node">
<title>Node16</title>
<g id="a_Node000016"><a xlink:href="classnetspeak_1_1value_1_1pair.html#a52d349f5f25b356c4436a983182e4b6c" target="_top" xlink:title=" ">
<polygon fill="white" stroke="#666666" points="1002,-412.5 865,-412.5 865,-393.5 1002,-393.5 1002,-412.5"/>
<text text-anchor="middle" x="933.5" y="-400.5" font-family="Helvetica,sans-Serif" font-size="10.00">netspeak::value::pair::e2</text>
</a>
</g>
</g>
<!-- Node14&#45;&gt;Node16 -->
<g id="edge20_Node000014_Node000016" class="edge">
<title>Node14&#45;&gt;Node16</title>
<g id="a_edge20_Node000014_Node000016"><a xlink:title=" ">
<path fill="none" stroke="#63b8ff" d="M786.8,-347.08C807.43,-358.66 837.37,-374.41 865,-385 870.17,-386.98 875.64,-388.83 881.14,-390.52"/>
<polygon fill="#63b8ff" stroke="#63b8ff" points="880.43,-393.96 891.01,-393.41 882.4,-387.24 880.43,-393.96"/>
</a>
</g>
</g>
<!-- Node17 -->
<g id="Node000017" class="node">
<title>Node17</title>
<g id="a_Node000017"><a xlink:href="namespacenetspeak_1_1util.html#a33fbb28caf0f5be34cbce2f84faecb87" target="_top" xlink:title=" ">
<polygon fill="white" stroke="#666666" points="992,-375.5 875,-375.5 875,-356.5 992,-356.5 992,-375.5"/>
<text text-anchor="middle" x="933.5" y="-363.5" font-family="Helvetica,sans-Serif" font-size="10.00">netspeak::util::fwrite</text>
</a>
</g>
</g>
<!-- Node14&#45;&gt;Node17 -->
<g id="edge23_Node000014_Node000017" class="edge">
<title>Node14&#45;&gt;Node17</title>
<g id="a_edge23_Node000014_Node000017"><a xlink:title=" ">
<path fill="none" stroke="#63b8ff" d="M829.27,-345.54C844.3,-348.51 860.08,-351.64 874.65,-354.53"/>
<polygon fill="#63b8ff" stroke="#63b8ff" points="874.03,-357.98 884.52,-356.49 875.39,-351.11 874.03,-357.98"/>
</a>
</g>
</g>
<!-- Node18 -->
<g id="Node000018" class="node">
<title>Node18</title>
<g id="a_Node000018"><a xlink:href="classnetspeak_1_1value_1_1pair.html#a5fa59bfb0238ad39a6aa497bd4e2dab6" target="_top" xlink:title=" ">
<polygon fill="white" stroke="#666666" points="993,-338 874,-338 874,-308 993,-308 993,-338"/>
<text text-anchor="start" x="882" y="-326" font-family="Helvetica,sans-Serif" font-size="10.00">netspeak::value::pair</text>
<text text-anchor="middle" x="933.5" y="-315" font-family="Helvetica,sans-Serif" font-size="10.00">::set_e1</text>
</a>
</g>
</g>
<!-- Node14&#45;&gt;Node18 -->
<g id="edge27_Node000014_Node000018" class="edge">
<title>Node14&#45;&gt;Node18</title>
<g id="a_edge27_Node000014_Node000018"><a xlink:title=" ">
<path fill="none" stroke="#63b8ff" d="M829.27,-328.42C840.57,-327.82 852.3,-327.21 863.61,-326.62"/>
<polygon fill="#63b8ff" stroke="#63b8ff" points="864.06,-330.1 873.86,-326.08 863.69,-323.11 864.06,-330.1"/>
</a>
</g>
</g>
<!-- Node20 -->
<g id="Node000020" class="node">
<title>Node20</title>
<g id="a_Node000020"><a xlink:href="structnetspeak_1_1value_1_1value__traits.html#a1de8038347bdd72008ef72ad481f4a77" target="_top" xlink:title=" ">
<polygon fill="white" stroke="#666666" points="997.5,-290 869.5,-290 869.5,-260 997.5,-260 997.5,-290"/>
<text text-anchor="start" x="877.5" y="-278" font-family="Helvetica,sans-Serif" font-size="10.00">netspeak::value::value</text>
<text text-anchor="middle" x="933.5" y="-267" font-family="Helvetica,sans-Serif" font-size="10.00">_traits::size_of</text>
</a>
</g>
</g>
<!-- Node14&#45;&gt;Node20 -->
<g id="edge29_Node000014_Node000020" class="edge">
<title>Node14&#45;&gt;Node20</title>
<g id="a_edge29_Node000014_Node000020"><a xlink:title=" ">
<path fill="none" stroke="#63b8ff" d="M806.51,-316.87C828.3,-309.63 854.58,-300.9 877.49,-293.28"/>
<polygon fill="#63b8ff" stroke="#63b8ff" points="878.69,-296.57 887.08,-290.1 876.48,-289.93 878.69,-296.57"/>
</a>
</g>
</g>
<!-- Node17&#45;&gt;Node7 -->
<g id="edge24_Node000017_Node000007" class="edge">
<title>Node17&#45;&gt;Node7</title>
<g id="a_edge24_Node000017_Node000007"><a xlink:title=" ">
<path fill="none" stroke="#63b8ff" d="M992,-368.68C1042.76,-368.71 1117.41,-362.93 1175,-334 1209.9,-316.47 1239.1,-280.24 1254.58,-258.23"/>
<polygon fill="#63b8ff" stroke="#63b8ff" points="1257.61,-260 1260.35,-249.77 1251.83,-256.06 1257.61,-260"/>
</a>
</g>
</g>
<!-- Node17&#45;&gt;Node8 -->
<g id="edge25_Node000017_Node000008" class="edge">
<title>Node17&#45;&gt;Node8</title>
<g id="a_edge25_Node000017_Node000008"><a xlink:title=" ">
<path fill="none" stroke="#63b8ff" d="M972.7,-375.55C982.37,-378.29 992.65,-381.5 1002,-385 1024.4,-393.39 1048.61,-404.71 1067.97,-414.36"/>
<polygon fill="#63b8ff" stroke="#63b8ff" points="1066.56,-417.57 1077.06,-418.95 1069.71,-411.32 1066.56,-417.57"/>
</a>
</g>
</g>
<!-- Node19 -->
<g id="Node000019" class="node">
<title>Node19</title>
<g id="a_Node000019"><a xlink:href="classnetspeak_1_1value_1_1pair.html#aa0eed395020ba5b37636746da8619982" target="_top" xlink:title=" ">
<polygon fill="white" stroke="#666666" points="1175,-324.5 1038,-324.5 1038,-305.5 1175,-305.5 1175,-324.5"/>
<text text-anchor="middle" x="1106.5" y="-312.5" font-family="Helvetica,sans-Serif" font-size="10.00">netspeak::value::pair::e1</text>
</a>
</g>
</g>
<!-- Node18&#45;&gt;Node19 -->
<g id="edge28_Node000018_Node000019" class="edge">
<title>Node18&#45;&gt;Node19</title>
<g id="a_edge28_Node000018_Node000019"><a xlink:title=" ">
<path fill="none" stroke="#63b8ff" d="M993.35,-320.25C1004.41,-319.73 1016.13,-319.18 1027.66,-318.64"/>
<polygon fill="#63b8ff" stroke="#63b8ff" points="1027.9,-322.13 1037.72,-318.17 1027.57,-315.14 1027.9,-322.13"/>
</a>
</g>
</g>
<!-- Node22&#45;&gt;Node11 -->
<g id="edge40_Node000022_Node000011" class="edge">
<title>Node22&#45;&gt;Node11</title>
<g id="a_edge40_Node000022_Node000011"><a xlink:title=" ">
<path fill="none" stroke="#63b8ff" d="M820.98,-118.04C841.89,-123.28 865.05,-129.09 884.82,-134.04"/>
<polygon fill="#63b8ff" stroke="#63b8ff" points="883.97,-137.44 894.52,-136.48 885.67,-130.65 883.97,-137.44"/>
</a>
</g>
</g>
<!-- Node23 -->
<g id="Node000023" class="node">
<title>Node23</title>
<g id="a_Node000023"><a xlink:href="classnetspeak_1_1bighashmap_1_1Builder.html#ae4e2ef8f5512442b408c6ad678f152bf" target="_top" xlink:title=" ">
<polygon fill="white" stroke="#666666" points="999,-118 868,-118 868,-88 999,-88 999,-118"/>
<text text-anchor="start" x="876" y="-106" font-family="Helvetica,sans-Serif" font-size="10.00">netspeak::bighashmap</text>
<text text-anchor="middle" x="933.5" y="-95" font-family="Helvetica,sans-Serif" font-size="10.00">::Builder::CountRecords</text>
</a>
</g>
</g>
<!-- Node22&#45;&gt;Node23 -->
<g id="edge33_Node000022_Node000023" class="edge">
<title>Node22&#45;&gt;Node23</title>
<g id="a_edge33_Node000022_Node000023"><a xlink:title=" ">
<path fill="none" stroke="#63b8ff" d="M824.37,-103C835.26,-103 846.66,-103 857.81,-103"/>
<polygon fill="#63b8ff" stroke="#63b8ff" points="857.95,-106.5 867.95,-103 857.95,-99.5 857.95,-106.5"/>
</a>
</g>
</g>
<!-- Node24 -->
<g id="Node000024" class="node">
<title>Node24</title>
<g id="a_Node000024"><a xlink:href="namespacenetspeak_1_1util.html#ae4193ec25e44c93bd465d74e4ef7df48" target="_top" xlink:title=" ">
<polygon fill="white" stroke="#666666" points="1155.5,-78 1057.5,-78 1057.5,-48 1155.5,-48 1155.5,-78"/>
<text text-anchor="start" x="1065.5" y="-66" font-family="Helvetica,sans-Serif" font-size="10.00">netspeak::util::is</text>
<text text-anchor="middle" x="1106.5" y="-55" font-family="Helvetica,sans-Serif" font-size="10.00">_hidden_file</text>
</a>
</g>
</g>
<!-- Node22&#45;&gt;Node24 -->
<g id="edge39_Node000022_Node000024" class="edge">
<title>Node22&#45;&gt;Node24</title>
<g id="a_edge39_Node000022_Node000024"><a xlink:title=" ">
<path fill="none" stroke="#63b8ff" d="M818.72,-87.95C833.7,-84.52 849.88,-81.23 865,-79 926.84,-69.87 998.39,-65.95 1047.27,-64.26"/>
<polygon fill="#63b8ff" stroke="#63b8ff" points="1047.47,-67.76 1057.35,-63.94 1047.24,-60.76 1047.47,-67.76"/>
</a>
</g>
</g>
<!-- Node25 -->
<g id="Node000025" class="node">
<title>Node25</title>
<g id="a_Node000025"><a xlink:href="namespacenetspeak_1_1util.html#ab36ee03e8b2f69483c3ac0e160da3cf4" target="_top" xlink:title=" ">
<polygon fill="white" stroke="#666666" points="996,-29.5 871,-29.5 871,-10.5 996,-10.5 996,-29.5"/>
<text text-anchor="middle" x="933.5" y="-17.5" font-family="Helvetica,sans-Serif" font-size="10.00">netspeak::util::hash32</text>
</a>
</g>
</g>
<!-- Node22&#45;&gt;Node25 -->
<g id="edge36_Node000022_Node000025" class="edge">
<title>Node22&#45;&gt;Node25</title>
<g id="a_edge36_Node000022_Node000025"><a xlink:title=" ">
<path fill="none" stroke="#63b8ff" d="M786.15,-87.97C806.92,-75.87 837.36,-58.83 865,-46 874.84,-41.43 885.73,-36.99 895.83,-33.1"/>
<polygon fill="#63b8ff" stroke="#63b8ff" points="897.1,-36.36 905.22,-29.56 894.63,-29.81 897.1,-36.36"/>
</a>
</g>
</g>
<!-- Node23&#45;&gt;Node24 -->
<g id="edge34_Node000023_Node000024" class="edge">
<title>Node23&#45;&gt;Node24</title>
<g id="a_edge34_Node000023_Node000024"><a xlink:title=" ">
<path fill="none" stroke="#63b8ff" d="M998.66,-87.99C1014.6,-84.26 1031.59,-80.29 1047.23,-76.63"/>
<polygon fill="#63b8ff" stroke="#63b8ff" points="1048.34,-79.96 1057.28,-74.28 1046.75,-73.15 1048.34,-79.96"/>
</a>
</g>
</g>
<!-- Node24&#45;&gt;Node7 -->
<g id="edge35_Node000024_Node000007" class="edge">
<title>Node24&#45;&gt;Node7</title>
<g id="a_edge35_Node000024_Node000007"><a xlink:title=" ">
<path fill="none" stroke="#63b8ff" d="M1155.82,-75.5C1162.68,-78.56 1169.33,-82.35 1175,-87 1219.73,-123.67 1247.91,-188.33 1259.87,-220.58"/>
<polygon fill="#63b8ff" stroke="#63b8ff" points="1256.64,-221.95 1263.31,-230.19 1263.24,-219.59 1256.64,-221.95"/>
</a>
</g>
</g>
<!-- Node26 -->
<g id="Node000026" class="node">
<title>Node26</title>
<g id="a_Node000026"><a xlink:href="namespacenetspeak_1_1util.html#a9b5dd24226608e9fa5cca9d8abd5fd8b" target="_top" xlink:title=" ">
<polygon fill="white" stroke="#666666" points="1163,-30 1050,-30 1050,0 1163,0 1163,-30"/>
<text text-anchor="start" x="1058" y="-18" font-family="Helvetica,sans-Serif" font-size="10.00">netspeak::util::hash</text>
<text text-anchor="middle" x="1106.5" y="-7" font-family="Helvetica,sans-Serif" font-size="10.00">&lt; uint32_t &gt;</text>
</a>
</g>
</g>
<!-- Node25&#45;&gt;Node26 -->
<g id="edge37_Node000025_Node000026" class="edge">
<title>Node25&#45;&gt;Node26</title>
<g id="a_edge37_Node000025_Node000026"><a xlink:title=" ">
<path fill="none" stroke="#63b8ff" d="M996.23,-18.19C1010.32,-17.78 1025.35,-17.34 1039.6,-16.93"/>
<polygon fill="#63b8ff" stroke="#63b8ff" points="1039.93,-20.42 1049.82,-16.63 1039.72,-13.42 1039.93,-20.42"/>
</a>
</g>
</g>
<!-- Node26&#45;&gt;Node7 -->
<g id="edge38_Node000026_Node000007" class="edge">
<title>Node26&#45;&gt;Node7</title>
<g id="a_edge38_Node000026_Node000007"><a xlink:title=" ">
<path fill="none" stroke="#63b8ff" d="M1162.41,-30.05C1166.96,-32.59 1171.24,-35.55 1175,-39 1230.39,-89.84 1254.61,-180.74 1262.91,-220.49"/>
<polygon fill="#63b8ff" stroke="#63b8ff" points="1259.51,-221.34 1264.88,-230.47 1266.38,-219.99 1259.51,-221.34"/>
</a>
</g>
</g>
</g>
</svg>
