<?xml version="1.0" encoding="UTF-8" standalone="no"?>
<!DOCTYPE svg PUBLIC "-//W3C//DTD SVG 1.1//EN"
 "http://www.w3.org/Graphics/SVG/1.1/DTD/svg11.dtd">
<!-- Generated by graphviz version 2.43.0 (0)
 -->
<!-- Title: netspeak::QuerySimplifier::option_to_simple Pages: 1 -->
<svg width="915pt" height="546pt"
 viewBox="0.00 0.00 915.00 546.00" xmlns="http://www.w3.org/2000/svg" xmlns:xlink="http://www.w3.org/1999/xlink">
<g id="graph0" class="graph" transform="scale(1 1) rotate(0) translate(4 542)">
<title>netspeak::QuerySimplifier::option_to_simple</title>
<!-- Node1 -->
<g id="Node000001" class="node">
<title>Node1</title>
<g id="a_Node000001"><a xlink:title=" ">
<polygon fill="#999999" stroke="#666666" points="143,-286 0,-286 0,-256 143,-256 143,-286"/>
<text text-anchor="start" x="8" y="-274" font-family="Helvetica,sans-Serif" font-size="10.00">netspeak::QuerySimplifier</text>
<text text-anchor="middle" x="71.5" y="-263" font-family="Helvetica,sans-Serif" font-size="10.00">::option_to_simple</text>
</a>
</g>
</g>
<!-- Node2 -->
<g id="Node000002" class="node">
<title>Node2</title>
<g id="a_Node000002"><a xlink:href="classnetspeak_1_1QuerySimplifier.html#ae3c3e04a80fa328604bd5287349aebe2" target="_top" xlink:title=" ">
<polygon fill="white" stroke="#666666" points="692,-30 549,-30 549,0 692,0 692,-30"/>
<text text-anchor="start" x="557" y="-18" font-family="Helvetica,sans-Serif" font-size="10.00">netspeak::QuerySimplifier</text>
<text text-anchor="middle" x="620.5" y="-7" font-family="Helvetica,sans-Serif" font-size="10.00">::add_to_alternation</text>
</a>
</g>
</g>
<!-- Node1&#45;&gt;Node2 -->
<g id="edge1_Node000001_Node000002" class="edge">
<title>Node1&#45;&gt;Node2</title>
<g id="a_edge1_Node000001_Node000002"><a xlink:title=" ">
<path fill="none" stroke="#63b8ff" d="M77.58,-255.91C89.68,-222.23 123.41,-140.38 179,-96 282.19,-13.61 442.3,-4.89 538.42,-8.35"/>
<polygon fill="#63b8ff" stroke="#63b8ff" points="538.53,-11.85 548.67,-8.77 538.82,-4.86 538.53,-11.85"/>
</a>
</g>
</g>
<!-- Node6 -->
<g id="Node000006" class="node">
<title>Node6</title>
<g id="a_Node000006"><a xlink:href="classnetspeak_1_1model_1_1SimpleQueryUnit____.html#a3080baa4a48b461ec365cec8f3aa967c" target="_top" xlink:title=" ">
<polygon fill="white" stroke="#666666" points="704,-222 537,-222 537,-192 704,-192 704,-222"/>
<text text-anchor="start" x="545" y="-210" font-family="Helvetica,sans-Serif" font-size="10.00">netspeak::model::SimpleQuery</text>
<text text-anchor="middle" x="620.5" y="-199" font-family="Helvetica,sans-Serif" font-size="10.00">Unit__::new_alternation</text>
</a>
</g>
</g>
<!-- Node1&#45;&gt;Node6 -->
<g id="edge5_Node000001_Node000006" class="edge">
<title>Node1&#45;&gt;Node6</title>
<g id="a_edge5_Node000001_Node000006"><a xlink:title=" ">
<path fill="none" stroke="#63b8ff" d="M88.47,-255.79C129.27,-218.11 242.32,-121.05 358,-87 418.97,-69.06 448.76,-50.8 501,-87 538.45,-112.96 503.58,-152.02 537,-183 538.28,-184.19 539.61,-185.31 540.99,-186.38"/>
<polygon fill="#63b8ff" stroke="#63b8ff" points="539.1,-189.33 549.37,-191.94 542.97,-183.49 539.1,-189.33"/>
</a>
</g>
</g>
<!-- Node7 -->
<g id="Node000007" class="node">
<title>Node7</title>
<g id="a_Node000007"><a xlink:href="classnetspeak_1_1model_1_1SimpleQueryUnit____.html#a42d698a0c2b81bb96d5efb842e0c09cd" target="_top" xlink:title=" ">
<polygon fill="white" stroke="#666666" points="704,-404 537,-404 537,-374 704,-374 704,-404"/>
<text text-anchor="start" x="545" y="-392" font-family="Helvetica,sans-Serif" font-size="10.00">netspeak::model::SimpleQuery</text>
<text text-anchor="middle" x="620.5" y="-381" font-family="Helvetica,sans-Serif" font-size="10.00">Unit__::new_concat</text>
</a>
</g>
</g>
<!-- Node1&#45;&gt;Node7 -->
<g id="edge6_Node000001_Node000007" class="edge">
<title>Node1&#45;&gt;Node7</title>
<g id="a_edge6_Node000001_Node000007"><a xlink:title=" ">
<path fill="none" stroke="#63b8ff" d="M88.84,-286.16C130.05,-323.22 243.16,-417.82 358,-451 419.06,-468.64 439.82,-468.21 501,-451 519.05,-445.92 520.54,-437.99 537,-429 549.93,-421.94 564.29,-414.75 577.36,-408.46"/>
<polygon fill="#63b8ff" stroke="#63b8ff" points="579.09,-411.51 586.61,-404.05 576.07,-405.2 579.09,-411.51"/>
</a>
</g>
</g>
<!-- Node8 -->
<g id="Node000008" class="node">
<title>Node8</title>
<g id="a_Node000008"><a xlink:href="classnetspeak_1_1QuerySimplifier.html#a18ef84f764ae6f69b3cf33d616e6fc41" target="_top" xlink:title=" ">
<polygon fill="white" stroke="#666666" points="692,-270 549,-270 549,-240 692,-240 692,-270"/>
<text text-anchor="start" x="557" y="-258" font-family="Helvetica,sans-Serif" font-size="10.00">netspeak::QuerySimplifier</text>
<text text-anchor="middle" x="620.5" y="-247" font-family="Helvetica,sans-Serif" font-size="10.00">::to_source</text>
</a>
</g>
</g>
<!-- Node1&#45;&gt;Node8 -->
<g id="edge7_Node000001_Node000008" class="edge">
<title>Node1&#45;&gt;Node8</title>
<g id="a_edge7_Node000001_Node000008"><a xlink:title=" ">
<path fill="none" stroke="#63b8ff" d="M143.17,-268.93C244.73,-265.96 431.48,-260.5 538.49,-257.37"/>
<polygon fill="#63b8ff" stroke="#63b8ff" points="538.7,-260.87 548.59,-257.07 538.5,-253.87 538.7,-260.87"/>
</a>
</g>
</g>
<!-- Node9 -->
<g id="Node000009" class="node">
<title>Node9</title>
<g id="a_Node000009"><a xlink:href="classnetspeak_1_1QuerySimplifier.html#ab2f06fcd290543e7a04f2e5614a5f719" target="_top" xlink:title=" ">
<polygon fill="white" stroke="#666666" points="322,-308 179,-308 179,-278 322,-278 322,-308"/>
<text text-anchor="start" x="187" y="-296" font-family="Helvetica,sans-Serif" font-size="10.00">netspeak::QuerySimplifier</text>
<text text-anchor="middle" x="250.5" y="-285" font-family="Helvetica,sans-Serif" font-size="10.00">::unit_to_simple</text>
</a>
</g>
</g>
<!-- Node1&#45;&gt;Node9 -->
<g id="edge8_Node000001_Node000009" class="edge">
<title>Node1&#45;&gt;Node9</title>
<g id="a_edge8_Node000001_Node000009"><a xlink:title=" ">
<path fill="none" stroke="#63b8ff" d="M143.22,-273.16C152.48,-274.18 162.02,-275.34 171.39,-276.58"/>
<polygon fill="#63b8ff" stroke="#63b8ff" points="171.1,-280.08 181.49,-277.96 172.05,-273.14 171.1,-280.08"/>
</a>
</g>
</g>
<!-- Node3 -->
<g id="Node000003" class="node">
<title>Node3</title>
<g id="a_Node000003"><a xlink:href="classnetspeak_1_1model_1_1SimpleQueryUnit____.html#a9ae973c7bcbb9faa098c64327bad3073" target="_top" xlink:title=" ">
<polygon fill="white" stroke="#666666" points="907,-222 740,-222 740,-192 907,-192 907,-222"/>
<text text-anchor="start" x="748" y="-210" font-family="Helvetica,sans-Serif" font-size="10.00">netspeak::model::SimpleQuery</text>
<text text-anchor="middle" x="823.5" y="-199" font-family="Helvetica,sans-Serif" font-size="10.00">Unit__::add_child</text>
</a>
</g>
</g>
<!-- Node2&#45;&gt;Node3 -->
<g id="edge2_Node000002_Node000003" class="edge">
<title>Node2&#45;&gt;Node3</title>
<g id="a_edge2_Node000002_Node000003"><a xlink:title=" ">
<path fill="none" stroke="#63b8ff" d="M692.28,-30.02C696.54,-32.56 700.5,-35.53 704,-39 743.54,-78.21 705.52,-115.27 740,-159 749.08,-170.52 761.75,-179.81 774.43,-187.04"/>
<polygon fill="#63b8ff" stroke="#63b8ff" points="773.15,-190.32 783.62,-191.94 776.44,-184.14 773.15,-190.32"/>
</a>
</g>
</g>
<!-- Node4 -->
<g id="Node000004" class="node">
<title>Node4</title>
<g id="a_Node000004"><a xlink:href="classnetspeak_1_1model_1_1SimpleQueryUnit____.html#aa0ce1e648305547379b806a24111e7a0" target="_top" xlink:title=" ">
<polygon fill="white" stroke="#666666" points="907,-150 740,-150 740,-120 907,-120 907,-150"/>
<text text-anchor="start" x="748" y="-138" font-family="Helvetica,sans-Serif" font-size="10.00">netspeak::model::SimpleQuery</text>
<text text-anchor="middle" x="823.5" y="-127" font-family="Helvetica,sans-Serif" font-size="10.00">Unit__::drain_children</text>
</a>
</g>
</g>
<!-- Node2&#45;&gt;Node4 -->
<g id="edge3_Node000002_Node000004" class="edge">
<title>Node2&#45;&gt;Node4</title>
<g id="a_edge3_Node000002_Node000004"><a xlink:title=" ">
<path fill="none" stroke="#63b8ff" d="M683.39,-30.05C690.5,-32.64 697.52,-35.61 704,-39 723.94,-49.43 769.66,-88.35 798.12,-113.32"/>
<polygon fill="#63b8ff" stroke="#63b8ff" points="795.84,-115.97 805.66,-119.95 800.47,-110.72 795.84,-115.97"/>
</a>
</g>
</g>
<!-- Node5 -->
<g id="Node000005" class="node">
<title>Node5</title>
<g id="a_Node000005"><a xlink:href="classnetspeak_1_1model_1_1SimpleQueryUnit____.html#a06c21084859addaa75c754815d691d39" target="_top" xlink:title=" ">
<polygon fill="white" stroke="#666666" points="907,-54 740,-54 740,-24 907,-24 907,-54"/>
<text text-anchor="start" x="748" y="-42" font-family="Helvetica,sans-Serif" font-size="10.00">netspeak::model::SimpleQuery</text>
<text text-anchor="middle" x="823.5" y="-31" font-family="Helvetica,sans-Serif" font-size="10.00">Unit__::tag</text>
</a>
</g>
</g>
<!-- Node2&#45;&gt;Node5 -->
<g id="edge4_Node000002_Node000005" class="edge">
<title>Node2&#45;&gt;Node5</title>
<g id="a_edge4_Node000002_Node000005"><a xlink:title=" ">
<path fill="none" stroke="#63b8ff" d="M692.08,-23.43C704.22,-24.88 717,-26.4 729.62,-27.91"/>
<polygon fill="#63b8ff" stroke="#63b8ff" points="729.35,-31.4 739.69,-29.11 730.18,-24.45 729.35,-31.4"/>
</a>
</g>
</g>
<!-- Node9&#45;&gt;Node1 -->
<g id="edge32_Node000009_Node000001" class="edge">
<title>Node9&#45;&gt;Node1</title>
<g id="a_edge32_Node000009_Node000001"><a xlink:title=" ">
<path fill="none" stroke="#63b8ff" d="M178.82,-290.84C169.53,-289.82 159.96,-288.65 150.55,-287.41"/>
<polygon fill="#63b8ff" stroke="#63b8ff" points="150.81,-283.91 140.43,-286.03 149.86,-290.85 150.81,-283.91"/>
</a>
</g>
</g>
<!-- Node9&#45;&gt;Node8 -->
<g id="edge51_Node000009_Node000008" class="edge">
<title>Node9&#45;&gt;Node8</title>
<g id="a_edge51_Node000009_Node000008"><a xlink:title=" ">
<path fill="none" stroke="#63b8ff" d="M322.02,-285.72C383.93,-279.33 473.95,-270.03 538.73,-263.34"/>
<polygon fill="#63b8ff" stroke="#63b8ff" points="539.32,-266.8 548.91,-262.29 538.6,-259.84 539.32,-266.8"/>
</a>
</g>
</g>
<!-- Node10 -->
<g id="Node000010" class="node">
<title>Node10</title>
<g id="a_Node000010"><a xlink:href="classnetspeak_1_1QuerySimplifier.html#a3b44d549420ef21f82bde54ad4858ba5" target="_top" xlink:title=" ">
<polygon fill="white" stroke="#666666" points="501,-126 358,-126 358,-96 501,-96 501,-126"/>
<text text-anchor="start" x="366" y="-114" font-family="Helvetica,sans-Serif" font-size="10.00">netspeak::QuerySimplifier</text>
<text text-anchor="middle" x="429.5" y="-103" font-family="Helvetica,sans-Serif" font-size="10.00">::alt_to_simple</text>
</a>
</g>
</g>
<!-- Node9&#45;&gt;Node10 -->
<g id="edge9_Node000009_Node000010" class="edge">
<title>Node9&#45;&gt;Node10</title>
<g id="a_edge9_Node000009_Node000010"><a xlink:title=" ">
<path fill="none" stroke="#63b8ff" d="M255.91,-277.7C267.31,-246.1 300.41,-174.82 350.47,-132.11"/>
<polygon fill="#63b8ff" stroke="#63b8ff" points="352.74,-134.78 358.31,-125.77 348.33,-129.33 352.74,-134.78"/>
</a>
</g>
</g>
<!-- Node11 -->
<g id="Node000011" class="node">
<title>Node11</title>
<g id="a_Node000011"><a xlink:href="classnetspeak_1_1QuerySimplifier.html#a1f629b768d053c64ba136f00661e601d" target="_top" xlink:title=" ">
<polygon fill="white" stroke="#666666" points="501,-394 358,-394 358,-364 501,-364 501,-394"/>
<text text-anchor="start" x="366" y="-382" font-family="Helvetica,sans-Serif" font-size="10.00">netspeak::QuerySimplifier</text>
<text text-anchor="middle" x="429.5" y="-371" font-family="Helvetica,sans-Serif" font-size="10.00">::concat_to_simple</text>
</a>
</g>
</g>
<!-- Node9&#45;&gt;Node11 -->
<g id="edge14_Node000009_Node000011" class="edge">
<title>Node9&#45;&gt;Node11</title>
<g id="a_edge14_Node000009_Node000011"><a xlink:title=" ">
<path fill="none" stroke="#63b8ff" d="M287.02,-308.15C307.29,-319.63 333.47,-334.82 358,-346 369.49,-351.24 382.47,-355.97 394.14,-360.32"/>
<polygon fill="#63b8ff" stroke="#63b8ff" points="392.97,-363.62 403.56,-363.89 395.45,-357.08 392.97,-363.62"/>
</a>
</g>
</g>
<!-- Node13 -->
<g id="Node000013" class="node">
<title>Node13</title>
<g id="a_Node000013"><a xlink:href="classnetspeak_1_1QuerySimplifier.html#ac1ac4b76923d0b209354bf42e2a59d00" target="_top" xlink:title=" ">
<polygon fill="white" stroke="#666666" points="501,-222 358,-222 358,-192 501,-192 501,-222"/>
<text text-anchor="start" x="366" y="-210" font-family="Helvetica,sans-Serif" font-size="10.00">netspeak::QuerySimplifier</text>
<text text-anchor="middle" x="429.5" y="-199" font-family="Helvetica,sans-Serif" font-size="10.00">::dict_to_simple</text>
</a>
</g>
</g>
<!-- Node9&#45;&gt;Node13 -->
<g id="edge22_Node000009_Node000013" class="edge">
<title>Node9&#45;&gt;Node13</title>
<g id="a_edge22_Node000009_Node000013"><a xlink:title=" ">
<path fill="none" stroke="#63b8ff" d="M282.74,-277.82C312.18,-263.52 356.45,-242.01 388.48,-226.45"/>
<polygon fill="#63b8ff" stroke="#63b8ff" points="390.11,-229.54 397.58,-222.03 387.05,-223.25 390.11,-229.54"/>
</a>
</g>
</g>
<!-- Node14 -->
<g id="Node000014" class="node">
<title>Node14</title>
<g id="a_Node000014"><a xlink:href="classnetspeak_1_1QuerySimplifier.html#a6370b7569ff3cd8fe257c76f23ed166b" target="_top" xlink:title=" ">
<polygon fill="white" stroke="#666666" points="692,-174 549,-174 549,-144 692,-144 692,-174"/>
<text text-anchor="start" x="557" y="-162" font-family="Helvetica,sans-Serif" font-size="10.00">netspeak::QuerySimplifier</text>
<text text-anchor="middle" x="620.5" y="-151" font-family="Helvetica,sans-Serif" font-size="10.00">::get_text</text>
</a>
</g>
</g>
<!-- Node9&#45;&gt;Node14 -->
<g id="edge28_Node000009_Node000014" class="edge">
<title>Node9&#45;&gt;Node14</title>
<g id="a_edge28_Node000009_Node000014"><a xlink:title=" ">
<path fill="none" stroke="#63b8ff" d="M253.94,-277.72C261.24,-237.76 286.98,-130.23 358,-87 412.29,-53.95 444.15,-58.58 501,-87 524.85,-98.93 515.07,-119.83 537,-135 539.15,-136.49 541.39,-137.88 543.69,-139.19"/>
<polygon fill="#63b8ff" stroke="#63b8ff" points="542.39,-142.45 552.89,-143.82 545.54,-136.2 542.39,-142.45"/>
</a>
</g>
</g>
<!-- Node15 -->
<g id="Node000015" class="node">
<title>Node15</title>
<g id="a_Node000015"><a xlink:href="classnetspeak_1_1model_1_1SimpleQueryUnit____.html#aec3288b9da92b0fdeedcec37c09572c4" target="_top" xlink:title=" ">
<polygon fill="white" stroke="#666666" points="704,-126 537,-126 537,-96 704,-96 704,-126"/>
<text text-anchor="start" x="545" y="-114" font-family="Helvetica,sans-Serif" font-size="10.00">netspeak::model::SimpleQuery</text>
<text text-anchor="middle" x="620.5" y="-103" font-family="Helvetica,sans-Serif" font-size="10.00">Unit__::new_word</text>
</a>
</g>
</g>
<!-- Node9&#45;&gt;Node15 -->
<g id="edge31_Node000009_Node000015" class="edge">
<title>Node9&#45;&gt;Node15</title>
<g id="a_edge31_Node000009_Node000015"><a xlink:title=" ">
<path fill="none" stroke="#63b8ff" d="M253.01,-277.72C258.2,-234.34 279.6,-110.36 358,-60 411.47,-25.65 440.71,-39.9 501,-60 519.97,-66.32 519.11,-78.06 537,-87 540.75,-88.87 544.68,-90.63 548.69,-92.26"/>
<polygon fill="#63b8ff" stroke="#63b8ff" points="547.58,-95.59 558.17,-95.86 550.07,-89.04 547.58,-95.59"/>
</a>
</g>
</g>
<!-- Node16 -->
<g id="Node000016" class="node">
<title>Node16</title>
<g id="a_Node000016"><a xlink:href="classnetspeak_1_1model_1_1SimpleQueryUnit____.html#a44428178c9365d823c13fa04d5f9bad6" target="_top" xlink:title=" ">
<polygon fill="white" stroke="#666666" points="704,-538 537,-538 537,-508 704,-508 704,-538"/>
<text text-anchor="start" x="545" y="-526" font-family="Helvetica,sans-Serif" font-size="10.00">netspeak::model::SimpleQuery</text>
<text text-anchor="middle" x="620.5" y="-515" font-family="Helvetica,sans-Serif" font-size="10.00">Unit__::new_qmark</text>
</a>
</g>
</g>
<!-- Node9&#45;&gt;Node16 -->
<g id="edge29_Node000009_Node000016" class="edge">
<title>Node9&#45;&gt;Node16</title>
<g id="a_edge29_Node000009_Node000016"><a xlink:title=" ">
<path fill="none" stroke="#63b8ff" d="M255.45,-308.23C265.64,-344.29 296.46,-435.04 358,-478 406.88,-512.12 473.17,-523.25 526.77,-525.9"/>
<polygon fill="#63b8ff" stroke="#63b8ff" points="526.83,-529.41 536.97,-526.32 527.12,-522.41 526.83,-529.41"/>
</a>
</g>
</g>
<!-- Node17 -->
<g id="Node000017" class="node">
<title>Node17</title>
<g id="a_Node000017"><a xlink:href="classnetspeak_1_1model_1_1SimpleQueryUnit____.html#a399342037a597b05de0369743456d22f" target="_top" xlink:title=" ">
<polygon fill="white" stroke="#666666" points="704,-468 537,-468 537,-438 704,-438 704,-468"/>
<text text-anchor="start" x="545" y="-456" font-family="Helvetica,sans-Serif" font-size="10.00">netspeak::model::SimpleQuery</text>
<text text-anchor="middle" x="620.5" y="-445" font-family="Helvetica,sans-Serif" font-size="10.00">Unit__::new_star</text>
</a>
</g>
</g>
<!-- Node9&#45;&gt;Node17 -->
<g id="edge30_Node000009_Node000017" class="edge">
<title>Node9&#45;&gt;Node17</title>
<g id="a_edge30_Node000009_Node000017"><a xlink:title=" ">
<path fill="none" stroke="#63b8ff" d="M256.28,-308.13C267.66,-341.27 299.85,-419.79 358,-451 416.09,-482.18 492.41,-478.63 547.6,-469.72"/>
<polygon fill="#63b8ff" stroke="#63b8ff" points="548.38,-473.14 557.65,-468 547.2,-466.24 548.38,-473.14"/>
</a>
</g>
</g>
<!-- Node18 -->
<g id="Node000018" class="node">
<title>Node18</title>
<g id="a_Node000018"><a xlink:href="classnetspeak_1_1QuerySimplifier.html#a2f67510a9b668e751894cdeb6e97b349" target="_top" xlink:title=" ">
<polygon fill="white" stroke="#666666" points="501,-346 358,-346 358,-316 501,-316 501,-346"/>
<text text-anchor="start" x="366" y="-334" font-family="Helvetica,sans-Serif" font-size="10.00">netspeak::QuerySimplifier</text>
<text text-anchor="middle" x="429.5" y="-323" font-family="Helvetica,sans-Serif" font-size="10.00">::order_to_simple</text>
</a>
</g>
</g>
<!-- Node9&#45;&gt;Node18 -->
<g id="edge33_Node000009_Node000018" class="edge">
<title>Node9&#45;&gt;Node18</title>
<g id="a_edge33_Node000009_Node000018"><a xlink:title=" ">
<path fill="none" stroke="#63b8ff" d="M322.22,-301.56C340.08,-305.14 358.95,-309.32 375.75,-313.44"/>
<polygon fill="#63b8ff" stroke="#63b8ff" points="375.37,-316.95 385.92,-315.99 377.07,-310.16 375.37,-316.95"/>
</a>
</g>
</g>
<!-- Node21 -->
<g id="Node000021" class="node">
<title>Node21</title>
<g id="a_Node000021"><a xlink:href="classnetspeak_1_1QuerySimplifier.html#aa609db274838f9056f0051d2b391c77c" target="_top" xlink:title=" ">
<polygon fill="white" stroke="#666666" points="501,-442 358,-442 358,-412 501,-412 501,-442"/>
<text text-anchor="start" x="366" y="-430" font-family="Helvetica,sans-Serif" font-size="10.00">netspeak::QuerySimplifier</text>
<text text-anchor="middle" x="429.5" y="-419" font-family="Helvetica,sans-Serif" font-size="10.00">::plus_to_simple</text>
</a>
</g>
</g>
<!-- Node9&#45;&gt;Node21 -->
<g id="edge41_Node000009_Node000021" class="edge">
<title>Node9&#45;&gt;Node21</title>
<g id="a_edge41_Node000009_Node000021"><a xlink:title=" ">
<path fill="none" stroke="#63b8ff" d="M262.52,-308.38C280.15,-331.94 316.91,-376.96 358,-403 360.59,-404.64 363.31,-406.19 366.11,-407.64"/>
<polygon fill="#63b8ff" stroke="#63b8ff" points="364.72,-410.85 375.26,-411.95 367.71,-404.52 364.72,-410.85"/>
</a>
</g>
</g>
<!-- Node22 -->
<g id="Node000022" class="node">
<title>Node22</title>
<g id="a_Node000022"><a xlink:href="classnetspeak_1_1QuerySimplifier.html#a7a61e022386f41896500001dcd46858c" target="_top" xlink:title=" ">
<polygon fill="white" stroke="#666666" points="501,-174 358,-174 358,-144 501,-144 501,-174"/>
<text text-anchor="start" x="366" y="-162" font-family="Helvetica,sans-Serif" font-size="10.00">netspeak::QuerySimplifier</text>
<text text-anchor="middle" x="429.5" y="-151" font-family="Helvetica,sans-Serif" font-size="10.00">::regex_to_simple</text>
</a>
</g>
</g>
<!-- Node9&#45;&gt;Node22 -->
<g id="edge46_Node000009_Node000022" class="edge">
<title>Node9&#45;&gt;Node22</title>
<g id="a_edge46_Node000009_Node000022"><a xlink:title=" ">
<path fill="none" stroke="#63b8ff" d="M262.52,-277.62C280.15,-254.06 316.91,-209.04 358,-183 360.59,-181.36 363.31,-179.81 366.11,-178.36"/>
<polygon fill="#63b8ff" stroke="#63b8ff" points="367.71,-181.48 375.26,-174.05 364.72,-175.15 367.71,-181.48"/>
</a>
</g>
</g>
<!-- Node10&#45;&gt;Node2 -->
<g id="edge10_Node000010_Node000002" class="edge">
<title>Node10&#45;&gt;Node2</title>
<g id="a_edge10_Node000010_Node000002"><a xlink:title=" ">
<path fill="none" stroke="#63b8ff" d="M449.04,-95.81C469.48,-79.73 503.87,-54.55 537,-39 541.14,-37.06 545.47,-35.24 549.88,-33.54"/>
<polygon fill="#63b8ff" stroke="#63b8ff" points="551.43,-36.7 559.64,-30 549.05,-30.12 551.43,-36.7"/>
</a>
</g>
</g>
<!-- Node10&#45;&gt;Node6 -->
<g id="edge11_Node000010_Node000006" class="edge">
<title>Node10&#45;&gt;Node6</title>
<g id="a_edge11_Node000010_Node000006"><a xlink:title=" ">
<path fill="none" stroke="#63b8ff" d="M485.63,-126.07C491.06,-128.63 496.29,-131.58 501,-135 522.58,-150.66 515.07,-167.83 537,-183 539.15,-184.49 541.39,-185.88 543.69,-187.19"/>
<polygon fill="#63b8ff" stroke="#63b8ff" points="542.39,-190.45 552.89,-191.82 545.54,-184.2 542.39,-190.45"/>
</a>
</g>
</g>
<!-- Node10&#45;&gt;Node8 -->
<g id="edge12_Node000010_Node000008" class="edge">
<title>Node10&#45;&gt;Node8</title>
<g id="a_edge12_Node000010_Node000008"><a xlink:title=" ">
<path fill="none" stroke="#63b8ff" d="M489.13,-126.13C493.44,-128.65 497.47,-131.58 501,-135 533.71,-166.72 503.58,-200.02 537,-231 538.28,-232.19 539.61,-233.31 540.99,-234.38"/>
<polygon fill="#63b8ff" stroke="#63b8ff" points="539.1,-237.33 549.37,-239.94 542.97,-231.49 539.1,-237.33"/>
</a>
</g>
</g>
<!-- Node10&#45;&gt;Node9 -->
<g id="edge13_Node000010_Node000009" class="edge">
<title>Node10&#45;&gt;Node9</title>
<g id="a_edge13_Node000010_Node000009"><a xlink:title=" ">
<path fill="none" stroke="#63b8ff" d="M394.75,-126.09C382.32,-130.34 368.68,-135.83 358,-144 313.52,-178.02 281.29,-236.14 264.57,-269.01"/>
<polygon fill="#63b8ff" stroke="#63b8ff" points="261.43,-267.45 260.07,-277.95 267.69,-270.59 261.43,-267.45"/>
</a>
</g>
</g>
<!-- Node11&#45;&gt;Node7 -->
<g id="edge19_Node000011_Node000007" class="edge">
<title>Node11&#45;&gt;Node7</title>
<g id="a_edge19_Node000011_Node000007"><a xlink:title=" ">
<path fill="none" stroke="#63b8ff" d="M501.15,-382.74C509.51,-383.18 518.14,-383.64 526.75,-384.09"/>
<polygon fill="#63b8ff" stroke="#63b8ff" points="526.67,-387.59 536.84,-384.63 527.04,-380.6 526.67,-387.59"/>
</a>
</g>
</g>
<!-- Node11&#45;&gt;Node8 -->
<g id="edge20_Node000011_Node000008" class="edge">
<title>Node11&#45;&gt;Node8</title>
<g id="a_edge20_Node000011_Node000008"><a xlink:title=" ">
<path fill="none" stroke="#63b8ff" d="M488.13,-363.93C492.77,-361.39 497.14,-358.44 501,-355 528.89,-330.12 508.55,-303.24 537,-279 538.37,-277.84 539.79,-276.73 541.25,-275.67"/>
<polygon fill="#63b8ff" stroke="#63b8ff" points="543.43,-278.44 550.09,-270.21 539.74,-272.49 543.43,-278.44"/>
</a>
</g>
</g>
<!-- Node11&#45;&gt;Node9 -->
<g id="edge21_Node000011_Node000009" class="edge">
<title>Node11&#45;&gt;Node9</title>
<g id="a_edge21_Node000011_Node000009"><a xlink:title=" ">
<path fill="none" stroke="#63b8ff" d="M358.35,-364.16C358.24,-364.11 358.12,-364.05 358,-364 327.37,-350.04 294.17,-329.82 273.12,-314.22"/>
<polygon fill="#63b8ff" stroke="#63b8ff" points="275.2,-311.41 265.15,-308.07 270.92,-316.95 275.2,-311.41"/>
</a>
</g>
</g>
<!-- Node12 -->
<g id="Node000012" class="node">
<title>Node12</title>
<g id="a_Node000012"><a xlink:href="classnetspeak_1_1QuerySimplifier.html#a6cbbe38bc9244210c3f76635f30daaa3" target="_top" xlink:title=" ">
<polygon fill="white" stroke="#666666" points="692,-318 549,-318 549,-288 692,-288 692,-318"/>
<text text-anchor="start" x="557" y="-306" font-family="Helvetica,sans-Serif" font-size="10.00">netspeak::QuerySimplifier</text>
<text text-anchor="middle" x="620.5" y="-295" font-family="Helvetica,sans-Serif" font-size="10.00">::add_to_concat</text>
</a>
</g>
</g>
<!-- Node11&#45;&gt;Node12 -->
<g id="edge15_Node000011_Node000012" class="edge">
<title>Node11&#45;&gt;Node12</title>
<g id="a_edge15_Node000011_Node000012"><a xlink:title=" ">
<path fill="none" stroke="#63b8ff" d="M481.43,-363.94C488.17,-361.3 494.85,-358.31 501,-355 518.84,-345.38 518.95,-336.22 537,-327 540.74,-325.09 544.65,-323.31 548.65,-321.66"/>
<polygon fill="#63b8ff" stroke="#63b8ff" points="550.04,-324.88 558.12,-318.02 547.53,-318.34 550.04,-324.88"/>
</a>
</g>
</g>
<!-- Node12&#45;&gt;Node3 -->
<g id="edge16_Node000012_Node000003" class="edge">
<title>Node12&#45;&gt;Node3</title>
<g id="a_edge16_Node000012_Node000003"><a xlink:title=" ">
<path fill="none" stroke="#63b8ff" d="M680.32,-287.96C688.4,-285.3 696.49,-282.3 704,-279 736.04,-264.9 769.92,-243.59 793.21,-227.8"/>
<polygon fill="#63b8ff" stroke="#63b8ff" points="795.32,-230.6 801.59,-222.05 791.36,-224.82 795.32,-230.6"/>
</a>
</g>
</g>
<!-- Node12&#45;&gt;Node4 -->
<g id="edge17_Node000012_Node000004" class="edge">
<title>Node12&#45;&gt;Node4</title>
<g id="a_edge17_Node000012_Node000004"><a xlink:title=" ">
<path fill="none" stroke="#63b8ff" d="M691.63,-287.94C696.09,-285.4 700.28,-282.45 704,-279 737.42,-248.02 710.6,-217.81 740,-183 749.73,-171.48 762.97,-162.08 775.99,-154.76"/>
<polygon fill="#63b8ff" stroke="#63b8ff" points="777.73,-157.8 784.92,-150.02 774.45,-151.61 777.73,-157.8"/>
</a>
</g>
</g>
<!-- Node12&#45;&gt;Node5 -->
<g id="edge18_Node000012_Node000005" class="edge">
<title>Node12&#45;&gt;Node5</title>
<g id="a_edge18_Node000012_Node000005"><a xlink:title=" ">
<path fill="none" stroke="#63b8ff" d="M692.23,-288.53C696.55,-285.86 700.55,-282.71 704,-279 756.02,-223.1 701.25,-176.8 740,-111 752.1,-90.45 772.16,-72.74 789.47,-60.04"/>
<polygon fill="#63b8ff" stroke="#63b8ff" points="791.56,-62.85 797.69,-54.21 787.51,-57.13 791.56,-62.85"/>
</a>
</g>
</g>
<!-- Node13&#45;&gt;Node6 -->
<g id="edge24_Node000013_Node000006" class="edge">
<title>Node13&#45;&gt;Node6</title>
<g id="a_edge24_Node000013_Node000006"><a xlink:title=" ">
<path fill="none" stroke="#63b8ff" d="M501.15,-207C509.51,-207 518.14,-207 526.75,-207"/>
<polygon fill="#63b8ff" stroke="#63b8ff" points="526.84,-210.5 536.84,-207 526.84,-203.5 526.84,-210.5"/>
</a>
</g>
</g>
<!-- Node13&#45;&gt;Node7 -->
<g id="edge25_Node000013_Node000007" class="edge">
<title>Node13&#45;&gt;Node7</title>
<g id="a_edge25_Node000013_Node000007"><a xlink:title=" ">
<path fill="none" stroke="#63b8ff" d="M441.49,-222.08C455.57,-241.51 480.59,-276.44 501,-307 517.64,-331.92 513.16,-345.85 537,-364 539.48,-365.89 542.1,-367.64 544.83,-369.25"/>
<polygon fill="#63b8ff" stroke="#63b8ff" points="543.35,-372.43 553.83,-373.98 546.61,-366.23 543.35,-372.43"/>
</a>
</g>
</g>
<!-- Node13&#45;&gt;Node8 -->
<g id="edge27_Node000013_Node000008" class="edge">
<title>Node13&#45;&gt;Node8</title>
<g id="a_edge27_Node000013_Node000008"><a xlink:title=" ">
<path fill="none" stroke="#63b8ff" d="M489.78,-222.06C509.05,-226.95 530.59,-232.42 550.5,-237.48"/>
<polygon fill="#63b8ff" stroke="#63b8ff" points="549.87,-240.93 560.43,-240 551.6,-234.14 549.87,-240.93"/>
</a>
</g>
</g>
<!-- Node13&#45;&gt;Node14 -->
<g id="edge23_Node000013_Node000014" class="edge">
<title>Node13&#45;&gt;Node14</title>
<g id="a_edge23_Node000013_Node000014"><a xlink:title=" ">
<path fill="none" stroke="#63b8ff" d="M489.78,-191.94C509.05,-187.05 530.59,-181.58 550.5,-176.52"/>
<polygon fill="#63b8ff" stroke="#63b8ff" points="551.6,-179.86 560.43,-174 549.87,-173.07 551.6,-179.86"/>
</a>
</g>
</g>
<!-- Node13&#45;&gt;Node15 -->
<g id="edge26_Node000013_Node000015" class="edge">
<title>Node13&#45;&gt;Node15</title>
<g id="a_edge26_Node000013_Node000015"><a xlink:title=" ">
<path fill="none" stroke="#63b8ff" d="M485.63,-191.93C491.06,-189.37 496.29,-186.42 501,-183 522.58,-167.34 515.07,-150.17 537,-135 539.15,-133.51 541.39,-132.12 543.69,-130.81"/>
<polygon fill="#63b8ff" stroke="#63b8ff" points="545.54,-133.8 552.89,-126.18 542.39,-127.55 545.54,-133.8"/>
</a>
</g>
</g>
<!-- Node18&#45;&gt;Node6 -->
<g id="edge37_Node000018_Node000006" class="edge">
<title>Node18&#45;&gt;Node6</title>
<g id="a_edge37_Node000018_Node000006"><a xlink:title=" ">
<path fill="none" stroke="#63b8ff" d="M442.6,-315.77C460.8,-293.87 497.35,-253.63 537,-231 540.07,-229.25 543.28,-227.61 546.58,-226.09"/>
<polygon fill="#63b8ff" stroke="#63b8ff" points="548.21,-229.2 556.07,-222.09 545.49,-222.75 548.21,-229.2"/>
</a>
</g>
</g>
<!-- Node18&#45;&gt;Node7 -->
<g id="edge38_Node000018_Node000007" class="edge">
<title>Node18&#45;&gt;Node7</title>
<g id="a_edge38_Node000018_Node000007"><a xlink:title=" ">
<path fill="none" stroke="#63b8ff" d="M478.73,-346.01C496.97,-351.68 517.94,-358.16 537,-364 544.45,-366.28 552.27,-368.67 560.02,-371.02"/>
<polygon fill="#63b8ff" stroke="#63b8ff" points="559.17,-374.42 569.75,-373.98 561.2,-367.72 559.17,-374.42"/>
</a>
</g>
</g>
<!-- Node18&#45;&gt;Node8 -->
<g id="edge39_Node000018_Node000008" class="edge">
<title>Node18&#45;&gt;Node8</title>
<g id="a_edge39_Node000018_Node000008"><a xlink:title=" ">
<path fill="none" stroke="#63b8ff" d="M470.59,-315.96C480.68,-311.78 491.37,-307.01 501,-302 517.85,-293.24 519.71,-286.84 537,-279 541.36,-277.02 545.91,-275.17 550.56,-273.43"/>
<polygon fill="#63b8ff" stroke="#63b8ff" points="551.9,-276.67 560.17,-270.03 549.57,-270.07 551.9,-276.67"/>
</a>
</g>
</g>
<!-- Node18&#45;&gt;Node9 -->
<g id="edge40_Node000018_Node000009" class="edge">
<title>Node18&#45;&gt;Node9</title>
<g id="a_edge40_Node000018_Node000009"><a xlink:title=" ">
<path fill="none" stroke="#63b8ff" d="M357.74,-322.44C339.97,-318.87 321.21,-314.71 304.48,-310.61"/>
<polygon fill="#63b8ff" stroke="#63b8ff" points="304.9,-307.11 294.35,-308.08 303.2,-313.9 304.9,-307.11"/>
</a>
</g>
</g>
<!-- Node18&#45;&gt;Node12 -->
<g id="edge34_Node000018_Node000012" class="edge">
<title>Node18&#45;&gt;Node12</title>
<g id="a_edge34_Node000018_Node000012"><a xlink:title=" ">
<path fill="none" stroke="#63b8ff" d="M501.15,-320.53C513.47,-318.71 526.38,-316.8 538.95,-314.93"/>
<polygon fill="#63b8ff" stroke="#63b8ff" points="539.56,-318.38 548.94,-313.45 538.54,-311.46 539.56,-318.38"/>
</a>
</g>
</g>
<!-- Node19 -->
<g id="Node000019" class="node">
<title>Node19</title>
<g id="a_Node000019"><a xlink:href="namespacenetspeak_1_1util.html#a907f0924900ed20d328dd2ac8db7aad0" target="_top" xlink:title=" ">
<polygon fill="white" stroke="#666666" points="685.5,-355.5 555.5,-355.5 555.5,-336.5 685.5,-336.5 685.5,-355.5"/>
<text text-anchor="middle" x="620.5" y="-343.5" font-family="Helvetica,sans-Serif" font-size="10.00">netspeak::util::factorial</text>
</a>
</g>
</g>
<!-- Node18&#45;&gt;Node19 -->
<g id="edge35_Node000018_Node000019" class="edge">
<title>Node18&#45;&gt;Node19</title>
<g id="a_edge35_Node000018_Node000019"><a xlink:title=" ">
<path fill="none" stroke="#63b8ff" d="M501.15,-336.61C515.63,-337.76 530.91,-338.97 545.51,-340.13"/>
<polygon fill="#63b8ff" stroke="#63b8ff" points="545.24,-343.62 555.48,-340.92 545.79,-336.64 545.24,-343.62"/>
</a>
</g>
</g>
<!-- Node20 -->
<g id="Node000020" class="node">
<title>Node20</title>
<g id="a_Node000020"><a xlink:href="namespacenetspeak_1_1util.html#a4c91ad572508b4021399ac7dddff574d" target="_top" xlink:title=" ">
<polygon fill="white" stroke="#666666" points="880,-355.5 767,-355.5 767,-336.5 880,-336.5 880,-355.5"/>
<text text-anchor="middle" x="823.5" y="-343.5" font-family="Helvetica,sans-Serif" font-size="10.00">netspeak::util::hash</text>
</a>
</g>
</g>
<!-- Node19&#45;&gt;Node20 -->
<g id="edge36_Node000019_Node000020" class="edge">
<title>Node19&#45;&gt;Node20</title>
<g id="a_edge36_Node000019_Node000020"><a xlink:title=" ">
<path fill="none" stroke="#63b8ff" d="M685.65,-346C708.27,-346 733.72,-346 756.49,-346"/>
<polygon fill="#63b8ff" stroke="#63b8ff" points="756.74,-349.5 766.74,-346 756.74,-342.5 756.74,-349.5"/>
</a>
</g>
</g>
<!-- Node21&#45;&gt;Node7 -->
<g id="edge42_Node000021_Node000007" class="edge">
<title>Node21&#45;&gt;Node7</title>
<g id="a_edge42_Node000021_Node000007"><a xlink:title=" ">
<path fill="none" stroke="#63b8ff" d="M501.15,-412.8C512.17,-410.58 523.67,-408.27 534.97,-406"/>
<polygon fill="#63b8ff" stroke="#63b8ff" points="535.72,-409.42 544.83,-404.01 534.34,-402.55 535.72,-409.42"/>
</a>
</g>
</g>
<!-- Node21&#45;&gt;Node8 -->
<g id="edge45_Node000021_Node000008" class="edge">
<title>Node21&#45;&gt;Node8</title>
<g id="a_edge45_Node000021_Node000008"><a xlink:title=" ">
<path fill="none" stroke="#63b8ff" d="M489.75,-411.95C493.87,-409.42 497.7,-406.46 501,-403 540.64,-361.51 496.43,-319.59 537,-279 538.09,-277.91 539.22,-276.87 540.4,-275.88"/>
<polygon fill="#63b8ff" stroke="#63b8ff" points="542.56,-278.63 548.68,-269.98 538.5,-272.93 542.56,-278.63"/>
</a>
</g>
</g>
<!-- Node21&#45;&gt;Node16 -->
<g id="edge43_Node000021_Node000016" class="edge">
<title>Node21&#45;&gt;Node16</title>
<g id="a_edge43_Node000021_Node000016"><a xlink:title=" ">
<path fill="none" stroke="#63b8ff" d="M460.03,-442C492.53,-458.51 544.9,-485.11 580.69,-503.29"/>
<polygon fill="#63b8ff" stroke="#63b8ff" points="579.36,-506.54 589.86,-507.95 582.53,-500.3 579.36,-506.54"/>
</a>
</g>
</g>
<!-- Node21&#45;&gt;Node17 -->
<g id="edge44_Node000021_Node000017" class="edge">
<title>Node21&#45;&gt;Node17</title>
<g id="a_edge44_Node000021_Node000017"><a xlink:title=" ">
<path fill="none" stroke="#63b8ff" d="M501.15,-436.72C509.51,-437.87 518.14,-439.06 526.75,-440.24"/>
<polygon fill="#63b8ff" stroke="#63b8ff" points="526.45,-443.73 536.84,-441.63 527.41,-436.8 526.45,-443.73"/>
</a>
</g>
</g>
<!-- Node22&#45;&gt;Node6 -->
<g id="edge48_Node000022_Node000006" class="edge">
<title>Node22&#45;&gt;Node6</title>
<g id="a_edge48_Node000022_Node000006"><a xlink:title=" ">
<path fill="none" stroke="#63b8ff" d="M489.78,-174.06C509.05,-178.95 530.59,-184.42 550.5,-189.48"/>
<polygon fill="#63b8ff" stroke="#63b8ff" points="549.87,-192.93 560.43,-192 551.6,-186.14 549.87,-192.93"/>
</a>
</g>
</g>
<!-- Node22&#45;&gt;Node8 -->
<g id="edge50_Node000022_Node000008" class="edge">
<title>Node22&#45;&gt;Node8</title>
<g id="a_edge50_Node000022_Node000008"><a xlink:title=" ">
<path fill="none" stroke="#63b8ff" d="M485.63,-174.07C491.06,-176.63 496.29,-179.58 501,-183 522.58,-198.66 515.07,-215.83 537,-231 539.15,-232.49 541.39,-233.88 543.69,-235.19"/>
<polygon fill="#63b8ff" stroke="#63b8ff" points="542.39,-238.45 552.89,-239.82 545.54,-232.2 542.39,-238.45"/>
</a>
</g>
</g>
<!-- Node22&#45;&gt;Node14 -->
<g id="edge47_Node000022_Node000014" class="edge">
<title>Node22&#45;&gt;Node14</title>
<g id="a_edge47_Node000022_Node000014"><a xlink:title=" ">
<path fill="none" stroke="#63b8ff" d="M501.15,-159C513.35,-159 526.12,-159 538.58,-159"/>
<polygon fill="#63b8ff" stroke="#63b8ff" points="538.94,-162.5 548.94,-159 538.94,-155.5 538.94,-162.5"/>
</a>
</g>
</g>
<!-- Node23 -->
<g id="Node000023" class="node">
<title>Node23</title>
<g id="a_Node000023"><a xlink:href="classnetspeak_1_1model_1_1SimpleQueryUnit____.html#a9c3bd26c2e3a029ee43dd0a1590ba7db" target="_top" xlink:title=" ">
<polygon fill="white" stroke="#666666" points="704,-78 537,-78 537,-48 704,-48 704,-78"/>
<text text-anchor="start" x="545" y="-66" font-family="Helvetica,sans-Serif" font-size="10.00">netspeak::model::SimpleQuery</text>
<text text-anchor="middle" x="620.5" y="-55" font-family="Helvetica,sans-Serif" font-size="10.00">Unit__::new_regex</text>
</a>
</g>
</g>
<!-- Node22&#45;&gt;Node23 -->
<g id="edge49_Node000022_Node000023" class="edge">
<title>Node22&#45;&gt;Node23</title>
<g id="a_edge49_Node000022_Node000023"><a xlink:title=" ">
<path fill="none" stroke="#63b8ff" d="M485.63,-143.93C491.06,-141.37 496.29,-138.42 501,-135 522.58,-119.34 515.07,-102.17 537,-87 539.15,-85.51 541.39,-84.12 543.69,-82.81"/>
<polygon fill="#63b8ff" stroke="#63b8ff" points="545.54,-85.8 552.89,-78.18 542.39,-79.55 545.54,-85.8"/>
</a>
</g>
</g>
</g>
</svg>
