<?xml version="1.0" encoding="UTF-8" standalone="no"?>
<!DOCTYPE svg PUBLIC "-//W3C//DTD SVG 1.1//EN"
 "http://www.w3.org/Graphics/SVG/1.1/DTD/svg11.dtd">
<!-- Generated by graphviz version 2.43.0 (0)
 -->
<!-- Title: netspeak::invertedindex::Indexer::index Pages: 1 -->
<svg width="773pt" height="269pt"
 viewBox="0.00 0.00 773.00 268.83" xmlns="http://www.w3.org/2000/svg" xmlns:xlink="http://www.w3.org/1999/xlink">
<g id="graph0" class="graph" transform="scale(1 1) rotate(0) translate(4 264.83)">
<title>netspeak::invertedindex::Indexer::index</title>
<!-- Node1 -->
<g id="Node000001" class="node">
<title>Node1</title>
<g id="a_Node000001"><a xlink:title=" ">
<polygon fill="#999999" stroke="#666666" points="135,-157.83 0,-157.83 0,-127.83 135,-127.83 135,-157.83"/>
<text text-anchor="start" x="8" y="-145.83" font-family="Helvetica,sans-Serif" font-size="10.00">netspeak::invertedindex</text>
<text text-anchor="middle" x="67.5" y="-134.83" font-family="Helvetica,sans-Serif" font-size="10.00">::Indexer::index</text>
</a>
</g>
</g>
<!-- Node2 -->
<g id="Node000002" class="node">
<title>Node2</title>
<g id="a_Node000002"><a xlink:href="structnetspeak_1_1invertedindex_1_1Properties.html#a1f62cdb1f59187bc35b5d5dafb1785fd" target="_top" xlink:title=" ">
<polygon fill="white" stroke="#666666" points="306,-212.33 171,-212.33 171,-171.33 306,-171.33 306,-212.33"/>
<text text-anchor="start" x="179" y="-200.33" font-family="Helvetica,sans-Serif" font-size="10.00">netspeak::invertedindex</text>
<text text-anchor="start" x="179" y="-189.33" font-family="Helvetica,sans-Serif" font-size="10.00">::Properties::default</text>
<text text-anchor="middle" x="238.5" y="-178.33" font-family="Helvetica,sans-Serif" font-size="10.00">_filename</text>
</a>
</g>
</g>
<!-- Node1&#45;&gt;Node2 -->
<g id="edge1_Node000001_Node000002" class="edge">
<title>Node1&#45;&gt;Node2</title>
<g id="a_edge1_Node000001_Node000002"><a xlink:title=" ">
<path fill="none" stroke="#63b8ff" d="M120.58,-157.93C133.38,-161.64 147.35,-165.69 161.04,-169.66"/>
<polygon fill="#63b8ff" stroke="#63b8ff" points="160.35,-173.1 170.93,-172.53 162.3,-166.38 160.35,-173.1"/>
</a>
</g>
</g>
<!-- Node3 -->
<g id="Node000003" class="node">
<title>Node3</title>
<g id="a_Node000003"><a xlink:href="namespacenetspeak_1_1util.html#ad2441a387c3a4c47e09c373e9412fad0" target="_top" xlink:title=" ">
<polygon fill="white" stroke="#666666" points="453.5,-185.33 349.5,-185.33 349.5,-166.33 453.5,-166.33 453.5,-185.33"/>
<text text-anchor="middle" x="401.5" y="-173.33" font-family="Helvetica,sans-Serif" font-size="10.00">netspeak::util::log</text>
</a>
</g>
</g>
<!-- Node1&#45;&gt;Node3 -->
<g id="edge2_Node000001_Node000003" class="edge">
<title>Node1&#45;&gt;Node3</title>
<g id="a_edge2_Node000001_Node000003"><a xlink:title=" ">
<path fill="none" stroke="#63b8ff" d="M135.13,-147.5C182.79,-151.06 248.42,-156.45 306,-162.83 316.71,-164.01 328.08,-165.44 339.09,-166.9"/>
<polygon fill="#63b8ff" stroke="#63b8ff" points="338.68,-170.38 349.06,-168.25 339.62,-163.44 338.68,-170.38"/>
</a>
</g>
</g>
<!-- Node7 -->
<g id="Node000007" class="node">
<title>Node7</title>
<g id="a_Node000007"><a xlink:href="structnetspeak_1_1invertedindex_1_1Properties.html#a87ba24f5097e993de6077cebcf4f5f3a" target="_top" xlink:title=" ">
<polygon fill="white" stroke="#666666" points="306,-106.83 171,-106.83 171,-76.83 306,-76.83 306,-106.83"/>
<text text-anchor="start" x="179" y="-94.83" font-family="Helvetica,sans-Serif" font-size="10.00">netspeak::invertedindex</text>
<text text-anchor="middle" x="238.5" y="-83.83" font-family="Helvetica,sans-Serif" font-size="10.00">::Properties::write</text>
</a>
</g>
</g>
<!-- Node1&#45;&gt;Node7 -->
<g id="edge7_Node000001_Node000007" class="edge">
<title>Node1&#45;&gt;Node7</title>
<g id="a_edge7_Node000001_Node000007"><a xlink:title=" ">
<path fill="none" stroke="#63b8ff" d="M118.29,-127.8C137.03,-122.15 158.53,-115.66 178.06,-109.76"/>
<polygon fill="#63b8ff" stroke="#63b8ff" points="179.21,-113.07 187.77,-106.83 177.19,-106.37 179.21,-113.07"/>
</a>
</g>
</g>
<!-- Node4 -->
<g id="Node000004" class="node">
<title>Node4</title>
<g id="a_Node000004"><a xlink:href="namespacenetspeak_1_1util.html#ab27a22c787271513007af0719b17cef9" target="_top" xlink:title=" ">
<polygon fill="white" stroke="#666666" points="609,-260.83 504,-260.83 504,-230.83 609,-230.83 609,-260.83"/>
<text text-anchor="start" x="512" y="-248.83" font-family="Helvetica,sans-Serif" font-size="10.00">netspeak::util::get</text>
<text text-anchor="middle" x="556.5" y="-237.83" font-family="Helvetica,sans-Serif" font-size="10.00">_log_mutex</text>
</a>
</g>
</g>
<!-- Node3&#45;&gt;Node4 -->
<g id="edge3_Node000003_Node000004" class="edge">
<title>Node3&#45;&gt;Node4</title>
<g id="a_edge3_Node000003_Node000004"><a xlink:title=" ">
<path fill="none" stroke="#63b8ff" d="M421.16,-185.35C440.1,-194.91 470.36,-209.89 497,-221.83 500.78,-223.52 504.71,-225.23 508.67,-226.93"/>
<polygon fill="#63b8ff" stroke="#63b8ff" points="507.33,-230.16 517.9,-230.82 510.04,-223.71 507.33,-230.16"/>
</a>
</g>
</g>
<!-- Node5 -->
<g id="Node000005" class="node">
<title>Node5</title>
<g id="a_Node000005"><a xlink:href="namespacenetspeak_1_1util.html#a4c91ad572508b4021399ac7dddff574d" target="_top" xlink:title=" ">
<polygon fill="white" stroke="#666666" points="765,-107.33 652,-107.33 652,-88.33 765,-88.33 765,-107.33"/>
<text text-anchor="middle" x="708.5" y="-95.33" font-family="Helvetica,sans-Serif" font-size="10.00">netspeak::util::hash</text>
</a>
</g>
</g>
<!-- Node3&#45;&gt;Node5 -->
<g id="edge4_Node000003_Node000005" class="edge">
<title>Node3&#45;&gt;Node5</title>
<g id="a_edge4_Node000003_Node000005"><a xlink:title=" ">
<path fill="none" stroke="#63b8ff" d="M439.9,-166.26C495.5,-152.04 599.91,-125.34 660.56,-109.83"/>
<polygon fill="#63b8ff" stroke="#63b8ff" points="661.45,-113.22 670.27,-107.35 659.72,-106.44 661.45,-113.22"/>
</a>
</g>
</g>
<!-- Node6 -->
<g id="Node000006" class="node">
<title>Node6</title>
<g id="a_Node000006"><a xlink:href="namespacenetspeak_1_1util.html#a93e18aaa529a497b6afdf4b3bd221182" target="_top" xlink:title=" ">
<polygon fill="white" stroke="#666666" points="612.5,-212.83 500.5,-212.83 500.5,-182.83 612.5,-182.83 612.5,-212.83"/>
<text text-anchor="start" x="508.5" y="-200.83" font-family="Helvetica,sans-Serif" font-size="10.00">netspeak::util::print</text>
<text text-anchor="middle" x="556.5" y="-189.83" font-family="Helvetica,sans-Serif" font-size="10.00">_timestamp_to</text>
</a>
</g>
</g>
<!-- Node3&#45;&gt;Node6 -->
<g id="edge5_Node000003_Node000006" class="edge">
<title>Node3&#45;&gt;Node6</title>
<g id="a_edge5_Node000003_Node000006"><a xlink:title=" ">
<path fill="none" stroke="#63b8ff" d="M453.87,-183.21C465.54,-184.89 478.08,-186.7 490.24,-188.44"/>
<polygon fill="#63b8ff" stroke="#63b8ff" points="489.93,-191.94 500.33,-189.89 490.93,-185.01 489.93,-191.94"/>
</a>
</g>
</g>
<!-- Node6&#45;&gt;Node5 -->
<g id="edge6_Node000006_Node000005" class="edge">
<title>Node6&#45;&gt;Node5</title>
<g id="a_edge6_Node000006_Node000005"><a xlink:title=" ">
<path fill="none" stroke="#63b8ff" d="M590.92,-182.69C599.29,-178.52 608.12,-173.77 616,-168.83 642.5,-152.21 670.58,-129.58 688.53,-114.37"/>
<polygon fill="#63b8ff" stroke="#63b8ff" points="691.16,-116.72 696.48,-107.56 686.61,-111.41 691.16,-116.72"/>
</a>
</g>
</g>
<!-- Node8 -->
<g id="Node000008" class="node">
<title>Node8</title>
<g id="a_Node000008"><a xlink:href="namespacenetspeak_1_1util.html#a978978e70b474657b12402a3db711ef0" target="_top" xlink:title=" ">
<polygon fill="white" stroke="#666666" points="461,-122.33 342,-122.33 342,-103.33 461,-103.33 461,-122.33"/>
<text text-anchor="middle" x="401.5" y="-110.33" font-family="Helvetica,sans-Serif" font-size="10.00">netspeak::util::fclose</text>
</a>
</g>
</g>
<!-- Node7&#45;&gt;Node8 -->
<g id="edge8_Node000007_Node000008" class="edge">
<title>Node7&#45;&gt;Node8</title>
<g id="a_edge8_Node000007_Node000008"><a xlink:title=" ">
<path fill="none" stroke="#63b8ff" d="M306.38,-100.55C314.73,-101.64 323.29,-102.76 331.67,-103.85"/>
<polygon fill="#63b8ff" stroke="#63b8ff" points="331.42,-107.35 341.78,-105.17 332.32,-100.41 331.42,-107.35"/>
</a>
</g>
</g>
<!-- Node10 -->
<g id="Node000010" class="node">
<title>Node10</title>
<g id="a_Node000010"><a xlink:href="namespacenetspeak_1_1util.html#a4acc3d13f8d541f4b65dd44f486403fd" target="_top" xlink:title=" ">
<polygon fill="white" stroke="#666666" points="460,-85.33 343,-85.33 343,-66.33 460,-66.33 460,-85.33"/>
<text text-anchor="middle" x="401.5" y="-73.33" font-family="Helvetica,sans-Serif" font-size="10.00">netspeak::util::fopen</text>
</a>
</g>
</g>
<!-- Node7&#45;&gt;Node10 -->
<g id="edge12_Node000007_Node000010" class="edge">
<title>Node7&#45;&gt;Node10</title>
<g id="a_edge12_Node000007_Node000010"><a xlink:title=" ">
<path fill="none" stroke="#63b8ff" d="M306.38,-85.18C315.07,-84.32 323.99,-83.43 332.69,-82.57"/>
<polygon fill="#63b8ff" stroke="#63b8ff" points="333.19,-86.03 342.8,-81.56 332.5,-79.07 333.19,-86.03"/>
</a>
</g>
</g>
<!-- Node11 -->
<g id="Node000011" class="node">
<title>Node11</title>
<g id="a_Node000011"><a xlink:href="namespacenetspeak_1_1util.html#a33fbb28caf0f5be34cbce2f84faecb87" target="_top" xlink:title=" ">
<polygon fill="white" stroke="#666666" points="460,-45.33 343,-45.33 343,-26.33 460,-26.33 460,-45.33"/>
<text text-anchor="middle" x="401.5" y="-33.33" font-family="Helvetica,sans-Serif" font-size="10.00">netspeak::util::fwrite</text>
</a>
</g>
</g>
<!-- Node7&#45;&gt;Node11 -->
<g id="edge15_Node000007_Node000011" class="edge">
<title>Node7&#45;&gt;Node11</title>
<g id="a_edge15_Node000007_Node000011"><a xlink:title=" ">
<path fill="none" stroke="#63b8ff" d="M282.65,-76.82C307.86,-68.05 339.36,-57.1 363.44,-48.72"/>
<polygon fill="#63b8ff" stroke="#63b8ff" points="364.65,-52 372.94,-45.41 362.35,-45.39 364.65,-52"/>
</a>
</g>
</g>
<!-- Node8&#45;&gt;Node5 -->
<g id="edge9_Node000008_Node000005" class="edge">
<title>Node8&#45;&gt;Node5</title>
<g id="a_edge9_Node000008_Node000005"><a xlink:title=" ">
<path fill="none" stroke="#63b8ff" d="M461.31,-109.94C513.02,-107.39 588.2,-103.69 641.86,-101.06"/>
<polygon fill="#63b8ff" stroke="#63b8ff" points="642.14,-104.55 651.96,-100.56 641.8,-97.56 642.14,-104.55"/>
</a>
</g>
</g>
<!-- Node9 -->
<g id="Node000009" class="node">
<title>Node9</title>
<g id="a_Node000009"><a xlink:href="namespacenetspeak_1_1util.html#af94d48fda5f335ddcb461a8237079866" target="_top" xlink:title=" ">
<polygon fill="white" stroke="#666666" points="616,-50.83 497,-50.83 497,-20.83 616,-20.83 616,-50.83"/>
<text text-anchor="start" x="505" y="-38.83" font-family="Helvetica,sans-Serif" font-size="10.00">netspeak::util::signal</text>
<text text-anchor="middle" x="556.5" y="-27.83" font-family="Helvetica,sans-Serif" font-size="10.00">_error</text>
</a>
</g>
</g>
<!-- Node8&#45;&gt;Node9 -->
<g id="edge10_Node000008_Node000009" class="edge">
<title>Node8&#45;&gt;Node9</title>
<g id="a_edge10_Node000008_Node000009"><a xlink:title=" ">
<path fill="none" stroke="#63b8ff" d="M438.62,-103.32C446.15,-100.9 453.94,-98.05 461,-94.83 483.98,-84.33 508.11,-69.19 526.24,-56.87"/>
<polygon fill="#63b8ff" stroke="#63b8ff" points="528.38,-59.64 534.62,-51.08 524.41,-53.88 528.38,-59.64"/>
</a>
</g>
</g>
<!-- Node9&#45;&gt;Node5 -->
<g id="edge11_Node000009_Node000005" class="edge">
<title>Node9&#45;&gt;Node5</title>
<g id="a_edge11_Node000009_Node000005"><a xlink:title=" ">
<path fill="none" stroke="#63b8ff" d="M593.81,-50.84C618.5,-61.04 650.9,-74.43 674.79,-84.31"/>
<polygon fill="#63b8ff" stroke="#63b8ff" points="673.56,-87.58 684.13,-88.17 676.23,-81.12 673.56,-87.58"/>
</a>
</g>
</g>
<!-- Node10&#45;&gt;Node5 -->
<g id="edge13_Node000010_Node000005" class="edge">
<title>Node10&#45;&gt;Node5</title>
<g id="a_edge13_Node000010_Node000005"><a xlink:title=" ">
<path fill="none" stroke="#63b8ff" d="M460.23,-79.99C511.9,-83.72 587.63,-89.18 641.65,-93.08"/>
<polygon fill="#63b8ff" stroke="#63b8ff" points="641.58,-96.58 651.81,-93.81 642.09,-89.6 641.58,-96.58"/>
</a>
</g>
</g>
<!-- Node10&#45;&gt;Node9 -->
<g id="edge14_Node000010_Node000009" class="edge">
<title>Node10&#45;&gt;Node9</title>
<g id="a_edge14_Node000010_Node000009"><a xlink:title=" ">
<path fill="none" stroke="#63b8ff" d="M439.15,-66.25C453.85,-62.4 471.29,-57.84 488.12,-53.44"/>
<polygon fill="#63b8ff" stroke="#63b8ff" points="489.15,-56.79 497.94,-50.88 487.38,-50.02 489.15,-56.79"/>
</a>
</g>
</g>
<!-- Node11&#45;&gt;Node5 -->
<g id="edge16_Node000011_Node000005" class="edge">
<title>Node11&#45;&gt;Node5</title>
<g id="a_edge16_Node000011_Node000005"><a xlink:title=" ">
<path fill="none" stroke="#63b8ff" d="M425.57,-26.3C465.77,-11.18 550.63,14.07 616,-11.83 650.43,-25.47 679.45,-58.87 695.09,-79.8"/>
<polygon fill="#63b8ff" stroke="#63b8ff" points="692.43,-82.11 701.12,-88.17 698.11,-78.01 692.43,-82.11"/>
</a>
</g>
</g>
<!-- Node11&#45;&gt;Node9 -->
<g id="edge17_Node000011_Node000009" class="edge">
<title>Node11&#45;&gt;Node9</title>
<g id="a_edge17_Node000011_Node000009"><a xlink:title=" ">
<path fill="none" stroke="#63b8ff" d="M460.34,-35.83C468.92,-35.83 477.83,-35.83 486.6,-35.83"/>
<polygon fill="#63b8ff" stroke="#63b8ff" points="486.81,-39.33 496.81,-35.83 486.81,-32.33 486.81,-39.33"/>
</a>
</g>
</g>
</g>
</svg>
