<?xml version="1.0" encoding="UTF-8" standalone="no"?>
<!DOCTYPE svg PUBLIC "-//W3C//DTD SVG 1.1//EN"
 "http://www.w3.org/Graphics/SVG/1.1/DTD/svg11.dtd">
<!-- Generated by graphviz version 2.43.0 (0)
 -->
<!-- Title: netspeak::util::Config::operator&lt;&lt; Pages: 1 -->
<svg width="1059pt" height="311pt"
 viewBox="0.00 0.00 1059.00 311.50" xmlns="http://www.w3.org/2000/svg" xmlns:xlink="http://www.w3.org/1999/xlink">
<g id="graph0" class="graph" transform="scale(1 1) rotate(0) translate(4 307.5)">
<title>netspeak::util::Config::operator&lt;&lt;</title>
<!-- Node1 -->
<g id="Node000001" class="node">
<title>Node1</title>
<g id="a_Node000001"><a xlink:title="This will output the config in the .properties file format.">
<polygon fill="#999999" stroke="#666666" points="120,-241.5 0,-241.5 0,-211.5 120,-211.5 120,-241.5"/>
<text text-anchor="start" x="8" y="-229.5" font-family="Helvetica,sans-Serif" font-size="10.00">netspeak::util::Config</text>
<text text-anchor="middle" x="60" y="-218.5" font-family="Helvetica,sans-Serif" font-size="10.00">::operator&lt;&lt;</text>
</a>
</g>
</g>
<!-- Node2 -->
<g id="Node000002" class="node">
<title>Node2</title>
<g id="a_Node000002"><a xlink:href="classnetspeak_1_1util_1_1Config.html#a692513888218dbf8342f77a7b38c03b3" target="_top" xlink:title=" ">
<polygon fill="white" stroke="#666666" points="288,-303.5 168,-303.5 168,-273.5 288,-273.5 288,-303.5"/>
<text text-anchor="start" x="176" y="-291.5" font-family="Helvetica,sans-Serif" font-size="10.00">netspeak::util::Config</text>
<text text-anchor="middle" x="228" y="-280.5" font-family="Helvetica,sans-Serif" font-size="10.00">::begin</text>
</a>
</g>
</g>
<!-- Node1&#45;&gt;Node2 -->
<g id="edge1_Node000001_Node000002" class="edge">
<title>Node1&#45;&gt;Node2</title>
<g id="a_edge1_Node000001_Node000002"><a xlink:title=" ">
<path fill="none" stroke="#63b8ff" d="M97.36,-241.58C114.98,-248.75 136.5,-257.31 156,-264.5 161.04,-266.35 166.29,-268.23 171.57,-270.08"/>
<polygon fill="#63b8ff" stroke="#63b8ff" points="170.44,-273.4 181.04,-273.37 172.74,-266.79 170.44,-273.4"/>
</a>
</g>
</g>
<!-- Node3 -->
<g id="Node000003" class="node">
<title>Node3</title>
<g id="a_Node000003"><a xlink:href="classnetspeak_1_1util_1_1Config.html#a037ac2181642eb158a983f2387f358d2" target="_top" xlink:title=" ">
<polygon fill="white" stroke="#666666" points="300,-255 156,-255 156,-236 300,-236 300,-255"/>
<text text-anchor="middle" x="228" y="-243" font-family="Helvetica,sans-Serif" font-size="10.00">netspeak::util::Config::end</text>
</a>
</g>
</g>
<!-- Node1&#45;&gt;Node3 -->
<g id="edge2_Node000001_Node000003" class="edge">
<title>Node1&#45;&gt;Node3</title>
<g id="a_edge2_Node000001_Node000003"><a xlink:title=" ">
<path fill="none" stroke="#63b8ff" d="M120.46,-233.3C128.69,-234.24 137.25,-235.22 145.78,-236.2"/>
<polygon fill="#63b8ff" stroke="#63b8ff" points="145.44,-239.68 155.77,-237.34 146.23,-232.73 145.44,-239.68"/>
</a>
</g>
</g>
<!-- Node4 -->
<g id="Node000004" class="node">
<title>Node4</title>
<g id="a_Node000004"><a xlink:href="namespacenetspeak_1_1util.html#a4c91ad572508b4021399ac7dddff574d" target="_top" xlink:title=" ">
<polygon fill="white" stroke="#666666" points="1051,-122 938,-122 938,-103 1051,-103 1051,-122"/>
<text text-anchor="middle" x="994.5" y="-110" font-family="Helvetica,sans-Serif" font-size="10.00">netspeak::util::hash</text>
</a>
</g>
</g>
<!-- Node1&#45;&gt;Node4 -->
<g id="edge3_Node000001_Node000004" class="edge">
<title>Node1&#45;&gt;Node4</title>
<g id="a_edge3_Node000001_Node000004"><a xlink:title=" ">
<path fill="none" stroke="#63b8ff" d="M120.14,-221.3C189.43,-215.68 307.7,-207.5 409.5,-207.5 409.5,-207.5 409.5,-207.5 613,-207.5 743.75,-207.5 777.09,-191.15 902,-152.5 924.08,-145.66 947.98,-135.1 965.81,-126.54"/>
<polygon fill="#63b8ff" stroke="#63b8ff" points="967.59,-129.57 975.04,-122.03 964.52,-123.28 967.59,-129.57"/>
</a>
</g>
</g>
<!-- Node5 -->
<g id="Node000005" class="node">
<title>Node5</title>
<g id="a_Node000005"><a xlink:href="namespacenetspeak_1_1util.html#aff96a54c98e1783d6dceb8fb51daca2e" target="_top" xlink:title=" ">
<polygon fill="white" stroke="#666666" points="285,-160.5 171,-160.5 171,-130.5 285,-130.5 285,-160.5"/>
<text text-anchor="start" x="179" y="-148.5" font-family="Helvetica,sans-Serif" font-size="10.00">netspeak::util::write</text>
<text text-anchor="middle" x="228" y="-137.5" font-family="Helvetica,sans-Serif" font-size="10.00">_properties</text>
</a>
</g>
</g>
<!-- Node1&#45;&gt;Node5 -->
<g id="edge4_Node000001_Node000005" class="edge">
<title>Node1&#45;&gt;Node5</title>
<g id="a_edge4_Node000001_Node000005"><a xlink:title=" ">
<path fill="none" stroke="#63b8ff" d="M91.83,-211.45C118.65,-198.36 157.69,-179.31 186.93,-165.05"/>
<polygon fill="#63b8ff" stroke="#63b8ff" points="188.6,-168.13 196.05,-160.6 185.53,-161.84 188.6,-168.13"/>
</a>
</g>
</g>
<!-- Node5&#45;&gt;Node4 -->
<g id="edge5_Node000005_Node000004" class="edge">
<title>Node5&#45;&gt;Node4</title>
<g id="a_edge5_Node000005_Node000004"><a xlink:title=" ">
<path fill="none" stroke="#63b8ff" d="M285.07,-148.61C301.48,-149.39 319.45,-150.11 336,-150.5 587.64,-156.37 652.13,-160.9 902,-130.5 914.93,-128.92 928.78,-126.56 941.69,-124.06"/>
<polygon fill="#63b8ff" stroke="#63b8ff" points="942.68,-127.43 951.8,-122.04 941.31,-120.56 942.68,-127.43"/>
</a>
</g>
</g>
<!-- Node6 -->
<g id="Node000006" class="node">
<title>Node6</title>
<g id="a_Node000006"><a xlink:href="namespacenetspeak_1_1util_1_1____properties__format__impl.html#a0e92214f9e3ba2baea59697cacf4b7f9" target="_top" xlink:title=" ">
<polygon fill="white" stroke="#666666" points="485,-141.5 336,-141.5 336,-111.5 485,-111.5 485,-141.5"/>
<text text-anchor="start" x="344" y="-129.5" font-family="Helvetica,sans-Serif" font-size="10.00">netspeak::util::__properties</text>
<text text-anchor="middle" x="410.5" y="-118.5" font-family="Helvetica,sans-Serif" font-size="10.00">_format_impl::write_key</text>
</a>
</g>
</g>
<!-- Node5&#45;&gt;Node6 -->
<g id="edge6_Node000005_Node000006" class="edge">
<title>Node5&#45;&gt;Node6</title>
<g id="a_edge6_Node000005_Node000006"><a xlink:title=" ">
<path fill="none" stroke="#63b8ff" d="M285.12,-139.59C298.03,-138.23 312.03,-136.76 325.82,-135.3"/>
<polygon fill="#63b8ff" stroke="#63b8ff" points="326.23,-138.78 335.81,-134.25 325.5,-131.82 326.23,-138.78"/>
</a>
</g>
</g>
<!-- Node9 -->
<g id="Node000009" class="node">
<title>Node9</title>
<g id="a_Node000009"><a xlink:href="namespacenetspeak_1_1util_1_1____properties__format__impl.html#aa93ba70613ea151ee49b7888a6b28a43" target="_top" xlink:title=" ">
<polygon fill="white" stroke="#666666" points="485,-93.5 336,-93.5 336,-63.5 485,-63.5 485,-93.5"/>
<text text-anchor="start" x="344" y="-81.5" font-family="Helvetica,sans-Serif" font-size="10.00">netspeak::util::__properties</text>
<text text-anchor="middle" x="410.5" y="-70.5" font-family="Helvetica,sans-Serif" font-size="10.00">_format_impl::write_value</text>
</a>
</g>
</g>
<!-- Node5&#45;&gt;Node9 -->
<g id="edge12_Node000005_Node000009" class="edge">
<title>Node5&#45;&gt;Node9</title>
<g id="a_edge12_Node000005_Node000009"><a xlink:title=" ">
<path fill="none" stroke="#63b8ff" d="M264.93,-130.37C285.59,-121.84 312.11,-111.19 336,-102.5 341.2,-100.6 346.64,-98.7 352.1,-96.83"/>
<polygon fill="#63b8ff" stroke="#63b8ff" points="353.54,-100.04 361.9,-93.53 351.3,-93.41 353.54,-100.04"/>
</a>
</g>
</g>
<!-- Node6&#45;&gt;Node4 -->
<g id="edge7_Node000006_Node000004" class="edge">
<title>Node6&#45;&gt;Node4</title>
<g id="a_edge7_Node000006_Node000004"><a xlink:title=" ">
<path fill="none" stroke="#63b8ff" d="M485.21,-124.72C599.59,-121.97 818.02,-116.72 927.51,-114.08"/>
<polygon fill="#63b8ff" stroke="#63b8ff" points="927.84,-117.58 937.75,-113.84 927.67,-110.58 927.84,-117.58"/>
</a>
</g>
</g>
<!-- Node7 -->
<g id="Node000007" class="node">
<title>Node7</title>
<g id="a_Node000007"><a xlink:href="namespacenetspeak_1_1util_1_1____properties__format__impl.html#a6146b9c3e66f645f7127123550f19046" target="_top" xlink:title=" ">
<polygon fill="white" stroke="#666666" points="703,-98.5 521,-98.5 521,-68.5 703,-68.5 703,-98.5"/>
<text text-anchor="start" x="529" y="-86.5" font-family="Helvetica,sans-Serif" font-size="10.00">netspeak::util::__properties</text>
<text text-anchor="middle" x="612" y="-75.5" font-family="Helvetica,sans-Serif" font-size="10.00">_format_impl::write_unicode_char</text>
</a>
</g>
</g>
<!-- Node6&#45;&gt;Node7 -->
<g id="edge8_Node000006_Node000007" class="edge">
<title>Node6&#45;&gt;Node7</title>
<g id="a_edge8_Node000006_Node000007"><a xlink:title=" ">
<path fill="none" stroke="#63b8ff" d="M481.28,-111.46C497.37,-107.99 514.62,-104.27 531.11,-100.72"/>
<polygon fill="#63b8ff" stroke="#63b8ff" points="532.23,-104.06 541.26,-98.53 530.75,-97.21 532.23,-104.06"/>
</a>
</g>
</g>
<!-- Node7&#45;&gt;Node4 -->
<g id="edge9_Node000007_Node000004" class="edge">
<title>Node7&#45;&gt;Node4</title>
<g id="a_edge9_Node000007_Node000004"><a xlink:title=" ">
<path fill="none" stroke="#63b8ff" d="M703.17,-90.37C772.18,-95.63 865.75,-102.76 927.8,-107.49"/>
<polygon fill="#63b8ff" stroke="#63b8ff" points="927.62,-110.99 937.86,-108.26 928.15,-104.01 927.62,-110.99"/>
</a>
</g>
</g>
<!-- Node8 -->
<g id="Node000008" class="node">
<title>Node8</title>
<g id="a_Node000008"><a xlink:href="namespacenetspeak_1_1util_1_1____properties__format__impl.html#a6e49972cfd9823418f9567c274fe31e0" target="_top" xlink:title=" ">
<polygon fill="white" stroke="#666666" points="902,-65.5 739,-65.5 739,-35.5 902,-35.5 902,-65.5"/>
<text text-anchor="start" x="747" y="-53.5" font-family="Helvetica,sans-Serif" font-size="10.00">netspeak::util::__properties</text>
<text text-anchor="middle" x="820.5" y="-42.5" font-family="Helvetica,sans-Serif" font-size="10.00">_format_impl::write_hex_digit</text>
</a>
</g>
</g>
<!-- Node7&#45;&gt;Node8 -->
<g id="edge10_Node000007_Node000008" class="edge">
<title>Node7&#45;&gt;Node8</title>
<g id="a_edge10_Node000007_Node000008"><a xlink:title=" ">
<path fill="none" stroke="#63b8ff" d="M703.27,-69.07C711.78,-67.71 720.4,-66.33 728.9,-64.97"/>
<polygon fill="#63b8ff" stroke="#63b8ff" points="729.5,-68.42 738.82,-63.39 728.39,-61.51 729.5,-68.42"/>
</a>
</g>
</g>
<!-- Node8&#45;&gt;Node4 -->
<g id="edge11_Node000008_Node000004" class="edge">
<title>Node8&#45;&gt;Node4</title>
<g id="a_edge11_Node000008_Node000004"><a xlink:title=" ">
<path fill="none" stroke="#63b8ff" d="M863.28,-65.55C875.74,-70.03 889.42,-74.96 902,-79.5 920.33,-86.1 940.72,-93.46 957.59,-99.54"/>
<polygon fill="#63b8ff" stroke="#63b8ff" points="956.48,-102.86 967.07,-102.96 958.85,-96.28 956.48,-102.86"/>
</a>
</g>
</g>
<!-- Node9&#45;&gt;Node4 -->
<g id="edge13_Node000009_Node000004" class="edge">
<title>Node9&#45;&gt;Node4</title>
<g id="a_edge13_Node000009_Node000004"><a xlink:title=" ">
<path fill="none" stroke="#63b8ff" d="M447.85,-63.43C531.39,-31.14 742.18,36.82 902,-26.5 936.43,-40.14 965.45,-73.54 981.09,-94.47"/>
<polygon fill="#63b8ff" stroke="#63b8ff" points="978.43,-96.78 987.12,-102.84 984.11,-92.68 978.43,-96.78"/>
</a>
</g>
</g>
<!-- Node9&#45;&gt;Node7 -->
<g id="edge14_Node000009_Node000007" class="edge">
<title>Node9&#45;&gt;Node7</title>
<g id="a_edge14_Node000009_Node000007"><a xlink:title=" ">
<path fill="none" stroke="#63b8ff" d="M485.22,-80.34C493.52,-80.55 502.07,-80.77 510.63,-80.98"/>
<polygon fill="#63b8ff" stroke="#63b8ff" points="510.59,-84.48 520.67,-81.23 510.76,-77.48 510.59,-84.48"/>
</a>
</g>
</g>
</g>
</svg>
