<?xml version="1.0" encoding="UTF-8" standalone="no"?>
<!DOCTYPE svg PUBLIC "-//W3C//DTD SVG 1.1//EN"
 "http://www.w3.org/Graphics/SVG/1.1/DTD/svg11.dtd">
<!-- Generated by graphviz version 2.43.0 (0)
 -->
<!-- Title: netspeak::QuerySimplifier::concat_to_simple Pages: 1 -->
<svg width="915pt" height="521pt"
 viewBox="0.00 0.00 915.00 521.38" xmlns="http://www.w3.org/2000/svg" xmlns:xlink="http://www.w3.org/1999/xlink">
<g id="graph0" class="graph" transform="scale(1 1) rotate(0) translate(4 517.38)">
<title>netspeak::QuerySimplifier::concat_to_simple</title>
<!-- Node1 -->
<g id="Node000001" class="node">
<title>Node1</title>
<g id="a_Node000001"><a xlink:title=" ">
<polygon fill="#999999" stroke="#666666" points="143,-358.38 0,-358.38 0,-328.38 143,-328.38 143,-358.38"/>
<text text-anchor="start" x="8" y="-346.38" font-family="Helvetica,sans-Serif" font-size="10.00">netspeak::QuerySimplifier</text>
<text text-anchor="middle" x="71.5" y="-335.38" font-family="Helvetica,sans-Serif" font-size="10.00">::concat_to_simple</text>
</a>
</g>
</g>
<!-- Node2 -->
<g id="Node000002" class="node">
<title>Node2</title>
<g id="a_Node000002"><a xlink:href="classnetspeak_1_1QuerySimplifier.html#a6cbbe38bc9244210c3f76635f30daaa3" target="_top" xlink:title=" ">
<polygon fill="white" stroke="#666666" points="692,-421.38 549,-421.38 549,-391.38 692,-391.38 692,-421.38"/>
<text text-anchor="start" x="557" y="-409.38" font-family="Helvetica,sans-Serif" font-size="10.00">netspeak::QuerySimplifier</text>
<text text-anchor="middle" x="620.5" y="-398.38" font-family="Helvetica,sans-Serif" font-size="10.00">::add_to_concat</text>
</a>
</g>
</g>
<!-- Node1&#45;&gt;Node2 -->
<g id="edge1_Node000001_Node000002" class="edge">
<title>Node1&#45;&gt;Node2</title>
<g id="a_edge1_Node000001_Node000002"><a xlink:title=" ">
<path fill="none" stroke="#63b8ff" d="M84.62,-358.67C102.57,-379.95 138.5,-417.56 179,-432.38 309.1,-480 475.21,-447.37 561.53,-424.1"/>
<polygon fill="#63b8ff" stroke="#63b8ff" points="562.68,-427.41 571.4,-421.39 560.83,-420.66 562.68,-427.41"/>
</a>
</g>
</g>
<!-- Node6 -->
<g id="Node000006" class="node">
<title>Node6</title>
<g id="a_Node000006"><a xlink:href="classnetspeak_1_1model_1_1SimpleQueryUnit____.html#a42d698a0c2b81bb96d5efb842e0c09cd" target="_top" xlink:title=" ">
<polygon fill="white" stroke="#666666" points="704,-325.38 537,-325.38 537,-295.38 704,-295.38 704,-325.38"/>
<text text-anchor="start" x="545" y="-313.38" font-family="Helvetica,sans-Serif" font-size="10.00">netspeak::model::SimpleQuery</text>
<text text-anchor="middle" x="620.5" y="-302.38" font-family="Helvetica,sans-Serif" font-size="10.00">Unit__::new_concat</text>
</a>
</g>
</g>
<!-- Node1&#45;&gt;Node6 -->
<g id="edge5_Node000001_Node000006" class="edge">
<title>Node1&#45;&gt;Node6</title>
<g id="a_edge5_Node000001_Node000006"><a xlink:title=" ">
<path fill="none" stroke="#63b8ff" d="M98.09,-358.4C168.49,-397.56 368.66,-494.13 501,-410.38 532.58,-390.39 508.55,-358.62 537,-334.38 538.37,-333.22 539.79,-332.11 541.25,-331.05"/>
<polygon fill="#63b8ff" stroke="#63b8ff" points="543.43,-333.82 550.09,-325.59 539.74,-327.87 543.43,-333.82"/>
</a>
</g>
</g>
<!-- Node7 -->
<g id="Node000007" class="node">
<title>Node7</title>
<g id="a_Node000007"><a xlink:href="classnetspeak_1_1QuerySimplifier.html#a18ef84f764ae6f69b3cf33d616e6fc41" target="_top" xlink:title=" ">
<polygon fill="white" stroke="#666666" points="692,-277.38 549,-277.38 549,-247.38 692,-247.38 692,-277.38"/>
<text text-anchor="start" x="557" y="-265.38" font-family="Helvetica,sans-Serif" font-size="10.00">netspeak::QuerySimplifier</text>
<text text-anchor="middle" x="620.5" y="-254.38" font-family="Helvetica,sans-Serif" font-size="10.00">::to_source</text>
</a>
</g>
</g>
<!-- Node1&#45;&gt;Node7 -->
<g id="edge6_Node000001_Node000007" class="edge">
<title>Node1&#45;&gt;Node7</title>
<g id="a_edge6_Node000001_Node000007"><a xlink:title=" ">
<path fill="none" stroke="#63b8ff" d="M143.38,-355.82C231.56,-367.9 384.66,-377.51 501,-324.38 522.16,-314.72 517.14,-298.5 537,-286.38 539.8,-284.67 542.73,-283.08 545.75,-281.59"/>
<polygon fill="#63b8ff" stroke="#63b8ff" points="547.3,-284.74 555,-277.46 544.44,-278.34 547.3,-284.74"/>
</a>
</g>
</g>
<!-- Node8 -->
<g id="Node000008" class="node">
<title>Node8</title>
<g id="a_Node000008"><a xlink:href="classnetspeak_1_1QuerySimplifier.html#ab2f06fcd290543e7a04f2e5614a5f719" target="_top" xlink:title=" ">
<polygon fill="white" stroke="#666666" points="322,-251.38 179,-251.38 179,-221.38 322,-221.38 322,-251.38"/>
<text text-anchor="start" x="187" y="-239.38" font-family="Helvetica,sans-Serif" font-size="10.00">netspeak::QuerySimplifier</text>
<text text-anchor="middle" x="250.5" y="-228.38" font-family="Helvetica,sans-Serif" font-size="10.00">::unit_to_simple</text>
</a>
</g>
</g>
<!-- Node1&#45;&gt;Node8 -->
<g id="edge7_Node000001_Node000008" class="edge">
<title>Node1&#45;&gt;Node8</title>
<g id="a_edge7_Node000001_Node000008"><a xlink:title=" ">
<path fill="none" stroke="#63b8ff" d="M90.45,-328.26C117.43,-309.32 169.23,-277.47 206.39,-256.55"/>
<polygon fill="#63b8ff" stroke="#63b8ff" points="208.47,-259.4 215.5,-251.48 205.06,-253.28 208.47,-259.4"/>
</a>
</g>
</g>
<!-- Node3 -->
<g id="Node000003" class="node">
<title>Node3</title>
<g id="a_Node000003"><a xlink:href="classnetspeak_1_1model_1_1SimpleQueryUnit____.html#a9ae973c7bcbb9faa098c64327bad3073" target="_top" xlink:title=" ">
<polygon fill="white" stroke="#666666" points="907,-337.38 740,-337.38 740,-307.38 907,-307.38 907,-337.38"/>
<text text-anchor="start" x="748" y="-325.38" font-family="Helvetica,sans-Serif" font-size="10.00">netspeak::model::SimpleQuery</text>
<text text-anchor="middle" x="823.5" y="-314.38" font-family="Helvetica,sans-Serif" font-size="10.00">Unit__::add_child</text>
</a>
</g>
</g>
<!-- Node2&#45;&gt;Node3 -->
<g id="edge2_Node000002_Node000003" class="edge">
<title>Node2&#45;&gt;Node3</title>
<g id="a_edge2_Node000002_Node000003"><a xlink:title=" ">
<path fill="none" stroke="#63b8ff" d="M678.33,-391.36C687.02,-388.63 695.81,-385.61 704,-382.38 732.97,-370.95 764.36,-354.87 787.55,-342.24"/>
<polygon fill="#63b8ff" stroke="#63b8ff" points="789.25,-345.3 796.33,-337.41 785.88,-339.17 789.25,-345.3"/>
</a>
</g>
</g>
<!-- Node4 -->
<g id="Node000004" class="node">
<title>Node4</title>
<g id="a_Node000004"><a xlink:href="classnetspeak_1_1model_1_1SimpleQueryUnit____.html#aa0ce1e648305547379b806a24111e7a0" target="_top" xlink:title=" ">
<polygon fill="white" stroke="#666666" points="907,-241.38 740,-241.38 740,-211.38 907,-211.38 907,-241.38"/>
<text text-anchor="start" x="748" y="-229.38" font-family="Helvetica,sans-Serif" font-size="10.00">netspeak::model::SimpleQuery</text>
<text text-anchor="middle" x="823.5" y="-218.38" font-family="Helvetica,sans-Serif" font-size="10.00">Unit__::drain_children</text>
</a>
</g>
</g>
<!-- Node2&#45;&gt;Node4 -->
<g id="edge3_Node000002_Node000004" class="edge">
<title>Node2&#45;&gt;Node4</title>
<g id="a_edge3_Node000002_Node000004"><a xlink:title=" ">
<path fill="none" stroke="#63b8ff" d="M691.05,-391.34C695.71,-388.8 700.09,-385.84 704,-382.38 734.42,-355.46 716.1,-331.22 740,-298.38 754.32,-278.7 774.96,-260.69 792.01,-247.61"/>
<polygon fill="#63b8ff" stroke="#63b8ff" points="794.13,-250.39 800.05,-241.6 789.94,-244.78 794.13,-250.39"/>
</a>
</g>
</g>
<!-- Node5 -->
<g id="Node000005" class="node">
<title>Node5</title>
<g id="a_Node000005"><a xlink:href="classnetspeak_1_1model_1_1SimpleQueryUnit____.html#a06c21084859addaa75c754815d691d39" target="_top" xlink:title=" ">
<polygon fill="white" stroke="#666666" points="907,-409.38 740,-409.38 740,-379.38 907,-379.38 907,-409.38"/>
<text text-anchor="start" x="748" y="-397.38" font-family="Helvetica,sans-Serif" font-size="10.00">netspeak::model::SimpleQuery</text>
<text text-anchor="middle" x="823.5" y="-386.38" font-family="Helvetica,sans-Serif" font-size="10.00">Unit__::tag</text>
</a>
</g>
</g>
<!-- Node2&#45;&gt;Node5 -->
<g id="edge4_Node000002_Node000005" class="edge">
<title>Node2&#45;&gt;Node5</title>
<g id="a_edge4_Node000002_Node000005"><a xlink:title=" ">
<path fill="none" stroke="#63b8ff" d="M692.08,-402.17C704.22,-401.44 717,-400.68 729.62,-399.92"/>
<polygon fill="#63b8ff" stroke="#63b8ff" points="729.92,-403.41 739.69,-399.32 729.5,-396.43 729.92,-403.41"/>
</a>
</g>
</g>
<!-- Node8&#45;&gt;Node1 -->
<g id="edge16_Node000008_Node000001" class="edge">
<title>Node8&#45;&gt;Node1</title>
<g id="a_edge16_Node000008_Node000001"><a xlink:title=" ">
<path fill="none" stroke="#63b8ff" d="M231.68,-251.42C204.77,-270.32 152.96,-302.18 115.75,-323.13"/>
<polygon fill="#63b8ff" stroke="#63b8ff" points="113.66,-320.29 106.63,-328.21 117.07,-326.4 113.66,-320.29"/>
</a>
</g>
</g>
<!-- Node8&#45;&gt;Node7 -->
<g id="edge51_Node000008_Node000007" class="edge">
<title>Node8&#45;&gt;Node7</title>
<g id="a_edge51_Node000008_Node000007"><a xlink:title=" ">
<path fill="none" stroke="#63b8ff" d="M322.02,-241.36C383.93,-245.74 473.95,-252.1 538.73,-256.67"/>
<polygon fill="#63b8ff" stroke="#63b8ff" points="538.69,-260.18 548.91,-257.39 539.18,-253.2 538.69,-260.18"/>
</a>
</g>
</g>
<!-- Node9 -->
<g id="Node000009" class="node">
<title>Node9</title>
<g id="a_Node000009"><a xlink:href="classnetspeak_1_1QuerySimplifier.html#a3b44d549420ef21f82bde54ad4858ba5" target="_top" xlink:title=" ">
<polygon fill="white" stroke="#666666" points="501,-181.38 358,-181.38 358,-151.38 501,-151.38 501,-181.38"/>
<text text-anchor="start" x="366" y="-169.38" font-family="Helvetica,sans-Serif" font-size="10.00">netspeak::QuerySimplifier</text>
<text text-anchor="middle" x="429.5" y="-158.38" font-family="Helvetica,sans-Serif" font-size="10.00">::alt_to_simple</text>
</a>
</g>
</g>
<!-- Node8&#45;&gt;Node9 -->
<g id="edge8_Node000008_Node000009" class="edge">
<title>Node8&#45;&gt;Node9</title>
<g id="a_edge8_Node000008_Node000009"><a xlink:title=" ">
<path fill="none" stroke="#63b8ff" d="M270.17,-221.23C289.22,-210.35 320,-196.45 349.02,-184.9"/>
<polygon fill="#63b8ff" stroke="#63b8ff" points="350.33,-188.15 358.36,-181.24 347.77,-181.63 350.33,-188.15"/>
</a>
</g>
</g>
<!-- Node12 -->
<g id="Node000012" class="node">
<title>Node12</title>
<g id="a_Node000012"><a xlink:href="classnetspeak_1_1QuerySimplifier.html#ac1ac4b76923d0b209354bf42e2a59d00" target="_top" xlink:title=" ">
<polygon fill="white" stroke="#666666" points="501,-133.38 358,-133.38 358,-103.38 501,-103.38 501,-133.38"/>
<text text-anchor="start" x="366" y="-121.38" font-family="Helvetica,sans-Serif" font-size="10.00">netspeak::QuerySimplifier</text>
<text text-anchor="middle" x="429.5" y="-110.38" font-family="Helvetica,sans-Serif" font-size="10.00">::dict_to_simple</text>
</a>
</g>
</g>
<!-- Node8&#45;&gt;Node12 -->
<g id="edge17_Node000008_Node000012" class="edge">
<title>Node8&#45;&gt;Node12</title>
<g id="a_edge17_Node000008_Node000012"><a xlink:title=" ">
<path fill="none" stroke="#63b8ff" d="M264.88,-221.31C283.78,-200.83 320.24,-164.28 358,-142.38 361,-140.64 364.14,-139 367.37,-137.46"/>
<polygon fill="#63b8ff" stroke="#63b8ff" points="368.88,-140.62 376.62,-133.38 366.06,-134.21 368.88,-140.62"/>
</a>
</g>
</g>
<!-- Node13 -->
<g id="Node000013" class="node">
<title>Node13</title>
<g id="a_Node000013"><a xlink:href="classnetspeak_1_1QuerySimplifier.html#a6370b7569ff3cd8fe257c76f23ed166b" target="_top" xlink:title=" ">
<polygon fill="white" stroke="#666666" points="692,-85.38 549,-85.38 549,-55.38 692,-55.38 692,-85.38"/>
<text text-anchor="start" x="557" y="-73.38" font-family="Helvetica,sans-Serif" font-size="10.00">netspeak::QuerySimplifier</text>
<text text-anchor="middle" x="620.5" y="-62.38" font-family="Helvetica,sans-Serif" font-size="10.00">::get_text</text>
</a>
</g>
</g>
<!-- Node8&#45;&gt;Node13 -->
<g id="edge23_Node000008_Node000013" class="edge">
<title>Node8&#45;&gt;Node13</title>
<g id="a_edge23_Node000008_Node000013"><a xlink:title=" ">
<path fill="none" stroke="#63b8ff" d="M253.54,-221.29C260,-180.2 284.15,-66.31 358,-20.38 411.97,13.18 440.53,-0.83 501,-20.38 519.78,-26.45 519.27,-37.72 537,-46.38 540.85,-48.26 544.86,-50.02 548.97,-51.66"/>
<polygon fill="#63b8ff" stroke="#63b8ff" points="548.08,-55.06 558.67,-55.28 550.53,-48.5 548.08,-55.06"/>
</a>
</g>
</g>
<!-- Node14 -->
<g id="Node000014" class="node">
<title>Node14</title>
<g id="a_Node000014"><a xlink:href="classnetspeak_1_1model_1_1SimpleQueryUnit____.html#aec3288b9da92b0fdeedcec37c09572c4" target="_top" xlink:title=" ">
<polygon fill="white" stroke="#666666" points="704,-133.38 537,-133.38 537,-103.38 704,-103.38 704,-133.38"/>
<text text-anchor="start" x="545" y="-121.38" font-family="Helvetica,sans-Serif" font-size="10.00">netspeak::model::SimpleQuery</text>
<text text-anchor="middle" x="620.5" y="-110.38" font-family="Helvetica,sans-Serif" font-size="10.00">Unit__::new_word</text>
</a>
</g>
</g>
<!-- Node8&#45;&gt;Node14 -->
<g id="edge26_Node000008_Node000014" class="edge">
<title>Node8&#45;&gt;Node14</title>
<g id="a_edge26_Node000008_Node000014"><a xlink:title=" ">
<path fill="none" stroke="#63b8ff" d="M254.6,-221.15C263.19,-183.35 291.28,-85.47 358,-46.38 412.84,-14.25 444.15,-17.96 501,-46.38 524.85,-58.31 515.07,-79.21 537,-94.38 539.15,-95.86 541.39,-97.26 543.69,-98.57"/>
<polygon fill="#63b8ff" stroke="#63b8ff" points="542.39,-101.83 552.89,-103.2 545.54,-95.58 542.39,-101.83"/>
</a>
</g>
</g>
<!-- Node15 -->
<g id="Node000015" class="node">
<title>Node15</title>
<g id="a_Node000015"><a xlink:href="classnetspeak_1_1model_1_1SimpleQueryUnit____.html#a44428178c9365d823c13fa04d5f9bad6" target="_top" xlink:title=" ">
<polygon fill="white" stroke="#666666" points="704,-513.38 537,-513.38 537,-483.38 704,-483.38 704,-513.38"/>
<text text-anchor="start" x="545" y="-501.38" font-family="Helvetica,sans-Serif" font-size="10.00">netspeak::model::SimpleQuery</text>
<text text-anchor="middle" x="620.5" y="-490.38" font-family="Helvetica,sans-Serif" font-size="10.00">Unit__::new_qmark</text>
</a>
</g>
</g>
<!-- Node8&#45;&gt;Node15 -->
<g id="edge24_Node000008_Node000015" class="edge">
<title>Node8&#45;&gt;Node15</title>
<g id="a_edge24_Node000008_Node000015"><a xlink:title=" ">
<path fill="none" stroke="#63b8ff" d="M255.14,-251.45C264.91,-288.54 295.31,-384.79 358,-433.38 406.12,-470.68 472.9,-486.85 526.93,-493.74"/>
<polygon fill="#63b8ff" stroke="#63b8ff" points="526.52,-497.22 536.86,-494.92 527.35,-490.27 526.52,-497.22"/>
</a>
</g>
</g>
<!-- Node16 -->
<g id="Node000016" class="node">
<title>Node16</title>
<g id="a_Node000016"><a xlink:href="classnetspeak_1_1model_1_1SimpleQueryUnit____.html#a399342037a597b05de0369743456d22f" target="_top" xlink:title=" ">
<polygon fill="white" stroke="#666666" points="704,-373.38 537,-373.38 537,-343.38 704,-343.38 704,-373.38"/>
<text text-anchor="start" x="545" y="-361.38" font-family="Helvetica,sans-Serif" font-size="10.00">netspeak::model::SimpleQuery</text>
<text text-anchor="middle" x="620.5" y="-350.38" font-family="Helvetica,sans-Serif" font-size="10.00">Unit__::new_star</text>
</a>
</g>
</g>
<!-- Node8&#45;&gt;Node16 -->
<g id="edge25_Node000008_Node000016" class="edge">
<title>Node8&#45;&gt;Node16</title>
<g id="a_edge25_Node000008_Node000016"><a xlink:title=" ">
<path fill="none" stroke="#63b8ff" d="M255.31,-251.41C265.21,-286.85 295.43,-375.32 358,-410.38 413.44,-441.45 440.88,-431.01 501,-410.38 520.17,-403.8 518.95,-391.6 537,-382.38 540.74,-380.47 544.65,-378.69 548.65,-377.04"/>
<polygon fill="#63b8ff" stroke="#63b8ff" points="550.04,-380.26 558.12,-373.4 547.53,-373.72 550.04,-380.26"/>
</a>
</g>
</g>
<!-- Node17 -->
<g id="Node000017" class="node">
<title>Node17</title>
<g id="a_Node000017"><a xlink:href="classnetspeak_1_1QuerySimplifier.html#abafc853573d650c19c989cebbdc10ce4" target="_top" xlink:title=" ">
<polygon fill="white" stroke="#666666" points="501,-229.38 358,-229.38 358,-199.38 501,-199.38 501,-229.38"/>
<text text-anchor="start" x="366" y="-217.38" font-family="Helvetica,sans-Serif" font-size="10.00">netspeak::QuerySimplifier</text>
<text text-anchor="middle" x="429.5" y="-206.38" font-family="Helvetica,sans-Serif" font-size="10.00">::option_to_simple</text>
</a>
</g>
</g>
<!-- Node8&#45;&gt;Node17 -->
<g id="edge27_Node000008_Node000017" class="edge">
<title>Node8&#45;&gt;Node17</title>
<g id="a_edge27_Node000008_Node000017"><a xlink:title=" ">
<path fill="none" stroke="#63b8ff" d="M319.43,-221.35C328.66,-220.05 338.21,-218.82 347.65,-217.7"/>
<polygon fill="#63b8ff" stroke="#63b8ff" points="348.28,-221.15 357.82,-216.54 347.49,-214.2 348.28,-221.15"/>
</a>
</g>
</g>
<!-- Node18 -->
<g id="Node000018" class="node">
<title>Node18</title>
<g id="a_Node000018"><a xlink:href="classnetspeak_1_1QuerySimplifier.html#a2f67510a9b668e751894cdeb6e97b349" target="_top" xlink:title=" ">
<polygon fill="white" stroke="#666666" points="501,-315.38 358,-315.38 358,-285.38 501,-285.38 501,-315.38"/>
<text text-anchor="start" x="366" y="-303.38" font-family="Helvetica,sans-Serif" font-size="10.00">netspeak::QuerySimplifier</text>
<text text-anchor="middle" x="429.5" y="-292.38" font-family="Helvetica,sans-Serif" font-size="10.00">::order_to_simple</text>
</a>
</g>
</g>
<!-- Node8&#45;&gt;Node18 -->
<g id="edge33_Node000008_Node000018" class="edge">
<title>Node8&#45;&gt;Node18</title>
<g id="a_edge33_Node000008_Node000018"><a xlink:title=" ">
<path fill="none" stroke="#63b8ff" d="M310.93,-251.45C337.47,-260.42 367.93,-271.7 391.2,-281.27"/>
<polygon fill="#63b8ff" stroke="#63b8ff" points="390.12,-284.61 400.7,-285.25 392.83,-278.16 390.12,-284.61"/>
</a>
</g>
</g>
<!-- Node21 -->
<g id="Node000021" class="node">
<title>Node21</title>
<g id="a_Node000021"><a xlink:href="classnetspeak_1_1QuerySimplifier.html#aa609db274838f9056f0051d2b391c77c" target="_top" xlink:title=" ">
<polygon fill="white" stroke="#666666" points="501,-401.38 358,-401.38 358,-371.38 501,-371.38 501,-401.38"/>
<text text-anchor="start" x="366" y="-389.38" font-family="Helvetica,sans-Serif" font-size="10.00">netspeak::QuerySimplifier</text>
<text text-anchor="middle" x="429.5" y="-378.38" font-family="Helvetica,sans-Serif" font-size="10.00">::plus_to_simple</text>
</a>
</g>
</g>
<!-- Node8&#45;&gt;Node21 -->
<g id="edge41_Node000008_Node000021" class="edge">
<title>Node8&#45;&gt;Node21</title>
<g id="a_edge41_Node000008_Node000021"><a xlink:title=" ">
<path fill="none" stroke="#63b8ff" d="M269.45,-251.59C301.07,-278.39 366.79,-334.08 403.07,-364.83"/>
<polygon fill="#63b8ff" stroke="#63b8ff" points="400.88,-367.56 410.77,-371.35 405.4,-362.22 400.88,-367.56"/>
</a>
</g>
</g>
<!-- Node22 -->
<g id="Node000022" class="node">
<title>Node22</title>
<g id="a_Node000022"><a xlink:href="classnetspeak_1_1QuerySimplifier.html#a7a61e022386f41896500001dcd46858c" target="_top" xlink:title=" ">
<polygon fill="white" stroke="#666666" points="501,-85.38 358,-85.38 358,-55.38 501,-55.38 501,-85.38"/>
<text text-anchor="start" x="366" y="-73.38" font-family="Helvetica,sans-Serif" font-size="10.00">netspeak::QuerySimplifier</text>
<text text-anchor="middle" x="429.5" y="-62.38" font-family="Helvetica,sans-Serif" font-size="10.00">::regex_to_simple</text>
</a>
</g>
</g>
<!-- Node8&#45;&gt;Node22 -->
<g id="edge46_Node000008_Node000022" class="edge">
<title>Node8&#45;&gt;Node22</title>
<g id="a_edge46_Node000008_Node000022"><a xlink:title=" ">
<path fill="none" stroke="#63b8ff" d="M258.93,-221.16C273.78,-192.28 309.86,-129.31 358,-94.38 360.06,-92.88 362.22,-91.48 364.45,-90.15"/>
<polygon fill="#63b8ff" stroke="#63b8ff" points="366.16,-93.21 373.37,-85.45 362.89,-87.02 366.16,-93.21"/>
</a>
</g>
</g>
<!-- Node9&#45;&gt;Node7 -->
<g id="edge14_Node000009_Node000007" class="edge">
<title>Node9&#45;&gt;Node7</title>
<g id="a_edge14_Node000009_Node000007"><a xlink:title=" ">
<path fill="none" stroke="#63b8ff" d="M485.63,-181.45C491.06,-184.01 496.29,-186.96 501,-190.38 522.58,-206.04 515.07,-223.21 537,-238.38 539.15,-239.86 541.39,-241.26 543.69,-242.57"/>
<polygon fill="#63b8ff" stroke="#63b8ff" points="542.39,-245.83 552.89,-247.2 545.54,-239.58 542.39,-245.83"/>
</a>
</g>
</g>
<!-- Node9&#45;&gt;Node8 -->
<g id="edge15_Node000009_Node000008" class="edge">
<title>Node9&#45;&gt;Node8</title>
<g id="a_edge15_Node000009_Node000008"><a xlink:title=" ">
<path fill="none" stroke="#63b8ff" d="M405.79,-181.39C391.89,-187.15 373.8,-193.29 358,-199.38 343.43,-205 327.92,-211.43 313.37,-217.42"/>
<polygon fill="#63b8ff" stroke="#63b8ff" points="311.9,-214.24 303.97,-221.28 314.55,-220.72 311.9,-214.24"/>
</a>
</g>
</g>
<!-- Node10 -->
<g id="Node000010" class="node">
<title>Node10</title>
<g id="a_Node000010"><a xlink:href="classnetspeak_1_1QuerySimplifier.html#ae3c3e04a80fa328604bd5287349aebe2" target="_top" xlink:title=" ">
<polygon fill="white" stroke="#666666" points="692,-229.38 549,-229.38 549,-199.38 692,-199.38 692,-229.38"/>
<text text-anchor="start" x="557" y="-217.38" font-family="Helvetica,sans-Serif" font-size="10.00">netspeak::QuerySimplifier</text>
<text text-anchor="middle" x="620.5" y="-206.38" font-family="Helvetica,sans-Serif" font-size="10.00">::add_to_alternation</text>
</a>
</g>
</g>
<!-- Node9&#45;&gt;Node10 -->
<g id="edge9_Node000009_Node000010" class="edge">
<title>Node9&#45;&gt;Node10</title>
<g id="a_edge9_Node000009_Node000010"><a xlink:title=" ">
<path fill="none" stroke="#63b8ff" d="M489.78,-181.44C509.05,-186.33 530.59,-191.8 550.5,-196.85"/>
<polygon fill="#63b8ff" stroke="#63b8ff" points="549.87,-200.31 560.43,-199.38 551.6,-193.52 549.87,-200.31"/>
</a>
</g>
</g>
<!-- Node11 -->
<g id="Node000011" class="node">
<title>Node11</title>
<g id="a_Node000011"><a xlink:href="classnetspeak_1_1model_1_1SimpleQueryUnit____.html#a3080baa4a48b461ec365cec8f3aa967c" target="_top" xlink:title=" ">
<polygon fill="white" stroke="#666666" points="704,-181.38 537,-181.38 537,-151.38 704,-151.38 704,-181.38"/>
<text text-anchor="start" x="545" y="-169.38" font-family="Helvetica,sans-Serif" font-size="10.00">netspeak::model::SimpleQuery</text>
<text text-anchor="middle" x="620.5" y="-158.38" font-family="Helvetica,sans-Serif" font-size="10.00">Unit__::new_alternation</text>
</a>
</g>
</g>
<!-- Node9&#45;&gt;Node11 -->
<g id="edge13_Node000009_Node000011" class="edge">
<title>Node9&#45;&gt;Node11</title>
<g id="a_edge13_Node000009_Node000011"><a xlink:title=" ">
<path fill="none" stroke="#63b8ff" d="M501.15,-166.38C509.51,-166.38 518.14,-166.38 526.75,-166.38"/>
<polygon fill="#63b8ff" stroke="#63b8ff" points="526.84,-169.88 536.84,-166.38 526.84,-162.88 526.84,-169.88"/>
</a>
</g>
</g>
<!-- Node10&#45;&gt;Node3 -->
<g id="edge10_Node000010_Node000003" class="edge">
<title>Node10&#45;&gt;Node3</title>
<g id="a_edge10_Node000010_Node000003"><a xlink:title=" ">
<path fill="none" stroke="#63b8ff" d="M681.86,-229.39C689.46,-232.01 697.02,-235.01 704,-238.38 738.79,-255.18 774.37,-281.95 797.35,-300.74"/>
<polygon fill="#63b8ff" stroke="#63b8ff" points="795.28,-303.58 805.21,-307.28 799.75,-298.2 795.28,-303.58"/>
</a>
</g>
</g>
<!-- Node10&#45;&gt;Node4 -->
<g id="edge11_Node000010_Node000004" class="edge">
<title>Node10&#45;&gt;Node4</title>
<g id="a_edge11_Node000010_Node000004"><a xlink:title=" ">
<path fill="none" stroke="#63b8ff" d="M692.08,-218.59C704.22,-219.32 717,-220.08 729.62,-220.83"/>
<polygon fill="#63b8ff" stroke="#63b8ff" points="729.5,-224.33 739.69,-221.44 729.92,-217.35 729.5,-224.33"/>
</a>
</g>
</g>
<!-- Node10&#45;&gt;Node5 -->
<g id="edge12_Node000010_Node000005" class="edge">
<title>Node10&#45;&gt;Node5</title>
<g id="a_edge12_Node000010_Node000005"><a xlink:title=" ">
<path fill="none" stroke="#63b8ff" d="M692.17,-229.52C696.45,-232.04 700.45,-234.97 704,-238.38 740.46,-273.46 708.08,-307.13 740,-346.38 749.43,-357.97 762.45,-367.36 775.37,-374.65"/>
<polygon fill="#63b8ff" stroke="#63b8ff" points="773.78,-377.76 784.25,-379.36 777.06,-371.58 773.78,-377.76"/>
</a>
</g>
</g>
<!-- Node12&#45;&gt;Node6 -->
<g id="edge20_Node000012_Node000006" class="edge">
<title>Node12&#45;&gt;Node6</title>
<g id="a_edge20_Node000012_Node000006"><a xlink:title=" ">
<path fill="none" stroke="#63b8ff" d="M490.23,-133.5C494.19,-136.02 497.85,-138.95 501,-142.38 545.67,-190.93 491.25,-238.85 537,-286.38 537.93,-287.35 538.9,-288.28 539.9,-289.17"/>
<polygon fill="#63b8ff" stroke="#63b8ff" points="538.04,-292.15 548.15,-295.31 542.22,-286.53 538.04,-292.15"/>
</a>
</g>
</g>
<!-- Node12&#45;&gt;Node7 -->
<g id="edge22_Node000012_Node000007" class="edge">
<title>Node12&#45;&gt;Node7</title>
<g id="a_edge22_Node000012_Node000007"><a xlink:title=" ">
<path fill="none" stroke="#63b8ff" d="M489.13,-133.51C493.44,-136.03 497.47,-138.96 501,-142.38 533.71,-174.1 503.58,-207.4 537,-238.38 538.28,-239.56 539.61,-240.69 540.99,-241.76"/>
<polygon fill="#63b8ff" stroke="#63b8ff" points="539.1,-244.71 549.37,-247.32 542.97,-238.87 539.1,-244.71"/>
</a>
</g>
</g>
<!-- Node12&#45;&gt;Node11 -->
<g id="edge19_Node000012_Node000011" class="edge">
<title>Node12&#45;&gt;Node11</title>
<g id="a_edge19_Node000012_Node000011"><a xlink:title=" ">
<path fill="none" stroke="#63b8ff" d="M489.78,-133.44C509.05,-138.33 530.59,-143.8 550.5,-148.85"/>
<polygon fill="#63b8ff" stroke="#63b8ff" points="549.87,-152.31 560.43,-151.38 551.6,-145.52 549.87,-152.31"/>
</a>
</g>
</g>
<!-- Node12&#45;&gt;Node13 -->
<g id="edge18_Node000012_Node000013" class="edge">
<title>Node12&#45;&gt;Node13</title>
<g id="a_edge18_Node000012_Node000013"><a xlink:title=" ">
<path fill="none" stroke="#63b8ff" d="M489.78,-103.32C509.05,-98.43 530.59,-92.96 550.5,-87.9"/>
<polygon fill="#63b8ff" stroke="#63b8ff" points="551.6,-91.24 560.43,-85.38 549.87,-84.45 551.6,-91.24"/>
</a>
</g>
</g>
<!-- Node12&#45;&gt;Node14 -->
<g id="edge21_Node000012_Node000014" class="edge">
<title>Node12&#45;&gt;Node14</title>
<g id="a_edge21_Node000012_Node000014"><a xlink:title=" ">
<path fill="none" stroke="#63b8ff" d="M501.15,-118.38C509.51,-118.38 518.14,-118.38 526.75,-118.38"/>
<polygon fill="#63b8ff" stroke="#63b8ff" points="526.84,-121.88 536.84,-118.38 526.84,-114.88 526.84,-121.88"/>
</a>
</g>
</g>
<!-- Node17&#45;&gt;Node6 -->
<g id="edge30_Node000017_Node000006" class="edge">
<title>Node17&#45;&gt;Node6</title>
<g id="a_edge30_Node000017_Node000006"><a xlink:title=" ">
<path fill="none" stroke="#63b8ff" d="M449.04,-229.57C469.48,-245.65 503.87,-270.83 537,-286.38 541.14,-288.32 545.47,-290.14 549.88,-291.84"/>
<polygon fill="#63b8ff" stroke="#63b8ff" points="549.05,-295.26 559.64,-295.38 551.43,-288.68 549.05,-295.26"/>
</a>
</g>
</g>
<!-- Node17&#45;&gt;Node7 -->
<g id="edge31_Node000017_Node000007" class="edge">
<title>Node17&#45;&gt;Node7</title>
<g id="a_edge31_Node000017_Node000007"><a xlink:title=" ">
<path fill="none" stroke="#63b8ff" d="M489.78,-229.44C509.05,-234.33 530.59,-239.8 550.5,-244.85"/>
<polygon fill="#63b8ff" stroke="#63b8ff" points="549.87,-248.31 560.43,-247.38 551.6,-241.52 549.87,-248.31"/>
</a>
</g>
</g>
<!-- Node17&#45;&gt;Node8 -->
<g id="edge32_Node000017_Node000008" class="edge">
<title>Node17&#45;&gt;Node8</title>
<g id="a_edge32_Node000017_Node000008"><a xlink:title=" ">
<path fill="none" stroke="#63b8ff" d="M360.49,-229.42C351.28,-230.71 341.76,-231.94 332.36,-233.06"/>
<polygon fill="#63b8ff" stroke="#63b8ff" points="331.76,-229.6 322.22,-234.22 332.55,-236.56 331.76,-229.6"/>
</a>
</g>
</g>
<!-- Node17&#45;&gt;Node10 -->
<g id="edge28_Node000017_Node000010" class="edge">
<title>Node17&#45;&gt;Node10</title>
<g id="a_edge28_Node000017_Node000010"><a xlink:title=" ">
<path fill="none" stroke="#63b8ff" d="M501.15,-214.38C513.35,-214.38 526.12,-214.38 538.58,-214.38"/>
<polygon fill="#63b8ff" stroke="#63b8ff" points="538.94,-217.88 548.94,-214.38 538.94,-210.88 538.94,-217.88"/>
</a>
</g>
</g>
<!-- Node17&#45;&gt;Node11 -->
<g id="edge29_Node000017_Node000011" class="edge">
<title>Node17&#45;&gt;Node11</title>
<g id="a_edge29_Node000017_Node000011"><a xlink:title=" ">
<path fill="none" stroke="#63b8ff" d="M489.78,-199.32C509.05,-194.43 530.59,-188.96 550.5,-183.9"/>
<polygon fill="#63b8ff" stroke="#63b8ff" points="551.6,-187.24 560.43,-181.38 549.87,-180.45 551.6,-187.24"/>
</a>
</g>
</g>
<!-- Node18&#45;&gt;Node2 -->
<g id="edge34_Node000018_Node000002" class="edge">
<title>Node18&#45;&gt;Node2</title>
<g id="a_edge34_Node000018_Node000002"><a xlink:title=" ">
<path fill="none" stroke="#63b8ff" d="M446.16,-315.52C465.85,-333.8 501.42,-364.32 537,-382.38 540.74,-384.28 544.66,-386.05 548.66,-387.7"/>
<polygon fill="#63b8ff" stroke="#63b8ff" points="547.54,-391.02 558.13,-391.33 550.05,-384.48 547.54,-391.02"/>
</a>
</g>
</g>
<!-- Node18&#45;&gt;Node6 -->
<g id="edge38_Node000018_Node000006" class="edge">
<title>Node18&#45;&gt;Node6</title>
<g id="a_edge38_Node000018_Node000006"><a xlink:title=" ">
<path fill="none" stroke="#63b8ff" d="M501.15,-304.12C509.51,-304.56 518.14,-305.02 526.75,-305.47"/>
<polygon fill="#63b8ff" stroke="#63b8ff" points="526.67,-308.97 536.84,-306.01 527.04,-301.98 526.67,-308.97"/>
</a>
</g>
</g>
<!-- Node18&#45;&gt;Node7 -->
<g id="edge39_Node000018_Node000007" class="edge">
<title>Node18&#45;&gt;Node7</title>
<g id="a_edge39_Node000018_Node000007"><a xlink:title=" ">
<path fill="none" stroke="#63b8ff" d="M501.15,-286.18C513.47,-283.7 526.38,-281.1 538.95,-278.58"/>
<polygon fill="#63b8ff" stroke="#63b8ff" points="539.83,-281.97 548.94,-276.57 538.45,-275.11 539.83,-281.97"/>
</a>
</g>
</g>
<!-- Node18&#45;&gt;Node8 -->
<g id="edge40_Node000018_Node000008" class="edge">
<title>Node18&#45;&gt;Node8</title>
<g id="a_edge40_Node000018_Node000008"><a xlink:title=" ">
<path fill="none" stroke="#63b8ff" d="M369.19,-285.35C342.58,-276.36 311.99,-265.04 288.67,-255.44"/>
<polygon fill="#63b8ff" stroke="#63b8ff" points="289.73,-252.09 279.16,-251.44 287.02,-258.54 289.73,-252.09"/>
</a>
</g>
</g>
<!-- Node18&#45;&gt;Node11 -->
<g id="edge37_Node000018_Node000011" class="edge">
<title>Node18&#45;&gt;Node11</title>
<g id="a_edge37_Node000018_Node000011"><a xlink:title=" ">
<path fill="none" stroke="#63b8ff" d="M449.72,-285.3C464.47,-273.32 484.95,-255.73 501,-238.38 519.11,-218.8 515.07,-205.55 537,-190.38 539.15,-188.89 541.39,-187.5 543.69,-186.19"/>
<polygon fill="#63b8ff" stroke="#63b8ff" points="545.54,-189.18 552.89,-181.56 542.39,-182.93 545.54,-189.18"/>
</a>
</g>
</g>
<!-- Node19 -->
<g id="Node000019" class="node">
<title>Node19</title>
<g id="a_Node000019"><a xlink:href="namespacenetspeak_1_1util.html#a907f0924900ed20d328dd2ac8db7aad0" target="_top" xlink:title=" ">
<polygon fill="white" stroke="#666666" points="685.5,-458.88 555.5,-458.88 555.5,-439.88 685.5,-439.88 685.5,-458.88"/>
<text text-anchor="middle" x="620.5" y="-446.88" font-family="Helvetica,sans-Serif" font-size="10.00">netspeak::util::factorial</text>
</a>
</g>
</g>
<!-- Node18&#45;&gt;Node19 -->
<g id="edge35_Node000018_Node000019" class="edge">
<title>Node18&#45;&gt;Node19</title>
<g id="a_edge35_Node000018_Node000019"><a xlink:title=" ">
<path fill="none" stroke="#63b8ff" d="M451.46,-315.51C466.54,-327.12 486.66,-344.21 501,-362.38 522.19,-389.22 509.88,-409.55 537,-430.38 539.82,-432.55 542.85,-434.48 546.02,-436.19"/>
<polygon fill="#63b8ff" stroke="#63b8ff" points="544.73,-439.45 555.27,-440.48 547.67,-433.1 544.73,-439.45"/>
</a>
</g>
</g>
<!-- Node20 -->
<g id="Node000020" class="node">
<title>Node20</title>
<g id="a_Node000020"><a xlink:href="namespacenetspeak_1_1util.html#a4c91ad572508b4021399ac7dddff574d" target="_top" xlink:title=" ">
<polygon fill="white" stroke="#666666" points="880,-458.88 767,-458.88 767,-439.88 880,-439.88 880,-458.88"/>
<text text-anchor="middle" x="823.5" y="-446.88" font-family="Helvetica,sans-Serif" font-size="10.00">netspeak::util::hash</text>
</a>
</g>
</g>
<!-- Node19&#45;&gt;Node20 -->
<g id="edge36_Node000019_Node000020" class="edge">
<title>Node19&#45;&gt;Node20</title>
<g id="a_edge36_Node000019_Node000020"><a xlink:title=" ">
<path fill="none" stroke="#63b8ff" d="M685.65,-449.38C708.27,-449.38 733.72,-449.38 756.49,-449.38"/>
<polygon fill="#63b8ff" stroke="#63b8ff" points="756.74,-452.88 766.74,-449.38 756.74,-445.88 756.74,-452.88"/>
</a>
</g>
</g>
<!-- Node21&#45;&gt;Node6 -->
<g id="edge42_Node000021_Node000006" class="edge">
<title>Node21&#45;&gt;Node6</title>
<g id="a_edge42_Node000021_Node000006"><a xlink:title=" ">
<path fill="none" stroke="#63b8ff" d="M470.59,-371.34C480.68,-367.16 491.37,-362.39 501,-357.38 517.85,-348.62 519.71,-342.22 537,-334.38 541.36,-332.4 545.91,-330.55 550.56,-328.81"/>
<polygon fill="#63b8ff" stroke="#63b8ff" points="551.9,-332.05 560.17,-325.41 549.57,-325.45 551.9,-332.05"/>
</a>
</g>
</g>
<!-- Node21&#45;&gt;Node7 -->
<g id="edge45_Node000021_Node000007" class="edge">
<title>Node21&#45;&gt;Node7</title>
<g id="a_edge45_Node000021_Node000007"><a xlink:title=" ">
<path fill="none" stroke="#63b8ff" d="M480.21,-371.25C487.73,-367.52 494.97,-362.95 501,-357.38 526.99,-333.37 509.77,-308.96 537,-286.38 538.55,-285.09 540.17,-283.88 541.84,-282.73"/>
<polygon fill="#63b8ff" stroke="#63b8ff" points="543.8,-285.63 550.59,-277.49 540.21,-279.62 543.8,-285.63"/>
</a>
</g>
</g>
<!-- Node21&#45;&gt;Node15 -->
<g id="edge43_Node000021_Node000015" class="edge">
<title>Node21&#45;&gt;Node15</title>
<g id="a_edge43_Node000021_Node000015"><a xlink:title=" ">
<path fill="none" stroke="#63b8ff" d="M446.71,-401.46C466.68,-419.38 502.23,-449.28 537,-468.38 544.49,-472.49 552.65,-476.25 560.84,-479.6"/>
<polygon fill="#63b8ff" stroke="#63b8ff" points="559.83,-482.96 570.42,-483.34 562.38,-476.44 559.83,-482.96"/>
</a>
</g>
</g>
<!-- Node21&#45;&gt;Node16 -->
<g id="edge44_Node000021_Node000016" class="edge">
<title>Node21&#45;&gt;Node16</title>
<g id="a_edge44_Node000021_Node000016"><a xlink:title=" ">
<path fill="none" stroke="#63b8ff" d="M501.15,-375.91C509.51,-374.67 518.14,-373.4 526.75,-372.12"/>
<polygon fill="#63b8ff" stroke="#63b8ff" points="527.46,-375.55 536.84,-370.63 526.43,-368.63 527.46,-375.55"/>
</a>
</g>
</g>
<!-- Node22&#45;&gt;Node7 -->
<g id="edge50_Node000022_Node000007" class="edge">
<title>Node22&#45;&gt;Node7</title>
<g id="a_edge50_Node000022_Node000007"><a xlink:title=" ">
<path fill="none" stroke="#63b8ff" d="M490.23,-85.5C494.19,-88.02 497.85,-90.95 501,-94.38 545.67,-142.93 491.25,-190.85 537,-238.38 538.1,-239.52 539.25,-240.61 540.44,-241.65"/>
<polygon fill="#63b8ff" stroke="#63b8ff" points="538.76,-244.75 548.91,-247.78 542.87,-239.08 538.76,-244.75"/>
</a>
</g>
</g>
<!-- Node22&#45;&gt;Node11 -->
<g id="edge48_Node000022_Node000011" class="edge">
<title>Node22&#45;&gt;Node11</title>
<g id="a_edge48_Node000022_Node000011"><a xlink:title=" ">
<path fill="none" stroke="#63b8ff" d="M485.63,-85.45C491.06,-88.01 496.29,-90.96 501,-94.38 522.58,-110.04 515.07,-127.21 537,-142.38 539.15,-143.86 541.39,-145.26 543.69,-146.57"/>
<polygon fill="#63b8ff" stroke="#63b8ff" points="542.39,-149.83 552.89,-151.2 545.54,-143.58 542.39,-149.83"/>
</a>
</g>
</g>
<!-- Node22&#45;&gt;Node13 -->
<g id="edge47_Node000022_Node000013" class="edge">
<title>Node22&#45;&gt;Node13</title>
<g id="a_edge47_Node000022_Node000013"><a xlink:title=" ">
<path fill="none" stroke="#63b8ff" d="M501.15,-70.38C513.35,-70.38 526.12,-70.38 538.58,-70.38"/>
<polygon fill="#63b8ff" stroke="#63b8ff" points="538.94,-73.88 548.94,-70.38 538.94,-66.88 538.94,-73.88"/>
</a>
</g>
</g>
<!-- Node23 -->
<g id="Node000023" class="node">
<title>Node23</title>
<g id="a_Node000023"><a xlink:href="classnetspeak_1_1model_1_1SimpleQueryUnit____.html#a9c3bd26c2e3a029ee43dd0a1590ba7db" target="_top" xlink:title=" ">
<polygon fill="white" stroke="#666666" points="704,-37.38 537,-37.38 537,-7.38 704,-7.38 704,-37.38"/>
<text text-anchor="start" x="545" y="-25.38" font-family="Helvetica,sans-Serif" font-size="10.00">netspeak::model::SimpleQuery</text>
<text text-anchor="middle" x="620.5" y="-14.38" font-family="Helvetica,sans-Serif" font-size="10.00">Unit__::new_regex</text>
</a>
</g>
</g>
<!-- Node22&#45;&gt;Node23 -->
<g id="edge49_Node000022_Node000023" class="edge">
<title>Node22&#45;&gt;Node23</title>
<g id="a_edge49_Node000022_Node000023"><a xlink:title=" ">
<path fill="none" stroke="#63b8ff" d="M489.78,-55.32C509.05,-50.43 530.59,-44.96 550.5,-39.9"/>
<polygon fill="#63b8ff" stroke="#63b8ff" points="551.6,-43.24 560.43,-37.38 549.87,-36.45 551.6,-43.24"/>
</a>
</g>
</g>
</g>
</svg>
