<?xml version="1.0" encoding="UTF-8" standalone="no"?>
<!DOCTYPE svg PUBLIC "-//W3C//DTD SVG 1.1//EN"
 "http://www.w3.org/Graphics/SVG/1.1/DTD/svg11.dtd">
<!-- Generated by graphviz version 2.43.0 (0)
 -->
<!-- Title: netspeak::bighashmap::CmphMap::CmphMap Pages: 1 -->
<svg width="804pt" height="189pt"
 viewBox="0.00 0.00 804.00 189.00" xmlns="http://www.w3.org/2000/svg" xmlns:xlink="http://www.w3.org/1999/xlink">
<g id="graph0" class="graph" transform="scale(1 1) rotate(0) translate(4 185)">
<title>netspeak::bighashmap::CmphMap::CmphMap</title>
<!-- Node1 -->
<g id="Node000001" class="node">
<title>Node1</title>
<g id="a_Node000001"><a xlink:title=" ">
<polygon fill="#999999" stroke="#666666" points="128,-81.5 0,-81.5 0,-51.5 128,-51.5 128,-81.5"/>
<text text-anchor="start" x="8" y="-69.5" font-family="Helvetica,sans-Serif" font-size="10.00">netspeak::bighashmap</text>
<text text-anchor="middle" x="64" y="-58.5" font-family="Helvetica,sans-Serif" font-size="10.00">::CmphMap::CmphMap</text>
</a>
</g>
</g>
<!-- Node2 -->
<g id="Node000002" class="node">
<title>Node2</title>
<g id="a_Node000002"><a xlink:href="classnetspeak_1_1bighashmap_1_1CmphMap.html#ad3f1b7aa414ddef34f9118e7203f39dd" target="_top" xlink:title=" ">
<polygon fill="white" stroke="#666666" points="325,-143.5 164,-143.5 164,-113.5 325,-113.5 325,-143.5"/>
<text text-anchor="start" x="172" y="-131.5" font-family="Helvetica,sans-Serif" font-size="10.00">netspeak::bighashmap</text>
<text text-anchor="middle" x="244.5" y="-120.5" font-family="Helvetica,sans-Serif" font-size="10.00">::CmphMap::ExtractAlgorithm</text>
</a>
</g>
</g>
<!-- Node1&#45;&gt;Node2 -->
<g id="edge1_Node000001_Node000002" class="edge">
<title>Node1&#45;&gt;Node2</title>
<g id="a_edge1_Node000001_Node000002"><a xlink:title=" ">
<path fill="none" stroke="#63b8ff" d="M108.21,-81.51C132.91,-90.09 164.09,-100.92 190.3,-110.02"/>
<polygon fill="#63b8ff" stroke="#63b8ff" points="189.47,-113.44 200.07,-113.41 191.77,-106.83 189.47,-113.44"/>
</a>
</g>
</g>
<!-- Node7 -->
<g id="Node000007" class="node">
<title>Node7</title>
<g id="a_Node000007"><a xlink:href="namespacenetspeak_1_1util.html#a978978e70b474657b12402a3db711ef0" target="_top" xlink:title=" ">
<polygon fill="white" stroke="#666666" points="484.5,-95 365.5,-95 365.5,-76 484.5,-76 484.5,-95"/>
<text text-anchor="middle" x="425" y="-83" font-family="Helvetica,sans-Serif" font-size="10.00">netspeak::util::fclose</text>
</a>
</g>
</g>
<!-- Node1&#45;&gt;Node7 -->
<g id="edge7_Node000001_Node000007" class="edge">
<title>Node1&#45;&gt;Node7</title>
<g id="a_edge7_Node000001_Node000007"><a xlink:title=" ">
<path fill="none" stroke="#63b8ff" d="M128.36,-69.85C191.98,-73.22 289.73,-78.39 355.22,-81.86"/>
<polygon fill="#63b8ff" stroke="#63b8ff" points="355.27,-85.37 365.44,-82.4 355.64,-78.38 355.27,-85.37"/>
</a>
</g>
</g>
<!-- Node8 -->
<g id="Node000008" class="node">
<title>Node8</title>
<g id="a_Node000008"><a xlink:href="namespacenetspeak_1_1util.html#a4acc3d13f8d541f4b65dd44f486403fd" target="_top" xlink:title=" ">
<polygon fill="white" stroke="#666666" points="483.5,-57 366.5,-57 366.5,-38 483.5,-38 483.5,-57"/>
<text text-anchor="middle" x="425" y="-45" font-family="Helvetica,sans-Serif" font-size="10.00">netspeak::util::fopen</text>
</a>
</g>
</g>
<!-- Node1&#45;&gt;Node8 -->
<g id="edge10_Node000001_Node000008" class="edge">
<title>Node1&#45;&gt;Node8</title>
<g id="a_edge10_Node000001_Node000008"><a xlink:title=" ">
<path fill="none" stroke="#63b8ff" d="M128.36,-63.15C192.27,-59.76 290.61,-54.56 356.1,-51.09"/>
<polygon fill="#63b8ff" stroke="#63b8ff" points="356.52,-54.58 366.32,-50.55 356.15,-47.59 356.52,-54.58"/>
</a>
</g>
</g>
<!-- Node9 -->
<g id="Node000009" class="node">
<title>Node9</title>
<g id="a_Node000009"><a xlink:href="namespacenetspeak_1_1util.html#a0a70d04eac08c447619ba0fcdf796d19" target="_top" xlink:title=" ">
<polygon fill="white" stroke="#666666" points="647,-19 525,-19 525,0 647,0 647,-19"/>
<text text-anchor="middle" x="586" y="-7" font-family="Helvetica,sans-Serif" font-size="10.00">netspeak::util::rewind</text>
</a>
</g>
</g>
<!-- Node1&#45;&gt;Node9 -->
<g id="edge13_Node000001_Node000009" class="edge">
<title>Node1&#45;&gt;Node9</title>
<g id="a_edge13_Node000001_Node000009"><a xlink:title=" ">
<path fill="none" stroke="#63b8ff" d="M128.26,-54.23C140.11,-52.15 152.41,-50.14 164,-48.5 286.79,-31.13 430.88,-19.7 514.67,-13.94"/>
<polygon fill="#63b8ff" stroke="#63b8ff" points="515.09,-17.42 524.83,-13.24 514.62,-10.43 515.09,-17.42"/>
</a>
</g>
</g>
<!-- Node3 -->
<g id="Node000003" class="node">
<title>Node3</title>
<g id="a_Node000003"><a xlink:href="classnetspeak_1_1bighashmap_1_1CmphMap.html#a274dc6c3b1a3f088fed0cdc33d13e7cd" target="_top" xlink:title=" ">
<polygon fill="white" stroke="#666666" points="489,-143.5 361,-143.5 361,-113.5 489,-113.5 489,-143.5"/>
<text text-anchor="start" x="369" y="-131.5" font-family="Helvetica,sans-Serif" font-size="10.00">netspeak::bighashmap</text>
<text text-anchor="middle" x="425" y="-120.5" font-family="Helvetica,sans-Serif" font-size="10.00">::CmphMap::algorithm</text>
</a>
</g>
</g>
<!-- Node2&#45;&gt;Node3 -->
<g id="edge2_Node000002_Node000003" class="edge">
<title>Node2&#45;&gt;Node3</title>
<g id="a_edge2_Node000002_Node000003"><a xlink:title=" ">
<path fill="none" stroke="#63b8ff" d="M325.09,-128.5C333.62,-128.5 342.26,-128.5 350.71,-128.5"/>
<polygon fill="#63b8ff" stroke="#63b8ff" points="350.9,-132 360.9,-128.5 350.9,-125 350.9,-132"/>
</a>
</g>
</g>
<!-- Node4 -->
<g id="Node000004" class="node">
<title>Node4</title>
<g id="a_Node000004"><a xlink:href="namespacenetspeak_1_1util.html#a0f64660040077bd1ae3a46941a000b07" target="_top" xlink:title=" ">
<polygon fill="white" stroke="#666666" points="482.5,-181 367.5,-181 367.5,-162 482.5,-162 482.5,-181"/>
<text text-anchor="middle" x="425" y="-169" font-family="Helvetica,sans-Serif" font-size="10.00">netspeak::util::fread</text>
</a>
</g>
</g>
<!-- Node2&#45;&gt;Node4 -->
<g id="edge3_Node000002_Node000004" class="edge">
<title>Node2&#45;&gt;Node4</title>
<g id="a_edge3_Node000002_Node000004"><a xlink:title=" ">
<path fill="none" stroke="#63b8ff" d="M307.93,-143.54C329.79,-148.8 354.01,-154.64 374.65,-159.61"/>
<polygon fill="#63b8ff" stroke="#63b8ff" points="373.93,-163.04 384.47,-161.98 375.57,-156.23 373.93,-163.04"/>
</a>
</g>
</g>
<!-- Node5 -->
<g id="Node000005" class="node">
<title>Node5</title>
<g id="a_Node000005"><a xlink:href="namespacenetspeak_1_1util.html#a4c91ad572508b4021399ac7dddff574d" target="_top" xlink:title=" ">
<polygon fill="white" stroke="#666666" points="796,-100 683,-100 683,-81 796,-81 796,-100"/>
<text text-anchor="middle" x="739.5" y="-88" font-family="Helvetica,sans-Serif" font-size="10.00">netspeak::util::hash</text>
</a>
</g>
</g>
<!-- Node4&#45;&gt;Node5 -->
<g id="edge4_Node000004_Node000005" class="edge">
<title>Node4&#45;&gt;Node5</title>
<g id="a_edge4_Node000004_Node000005"><a xlink:title=" ">
<path fill="none" stroke="#63b8ff" d="M482.71,-164.62C527.87,-158.28 592.35,-147.27 647,-130.5 669.1,-123.72 692.99,-113.15 710.82,-104.58"/>
<polygon fill="#63b8ff" stroke="#63b8ff" points="712.61,-107.6 720.05,-100.06 709.53,-101.32 712.61,-107.6"/>
</a>
</g>
</g>
<!-- Node6 -->
<g id="Node000006" class="node">
<title>Node6</title>
<g id="a_Node000006"><a xlink:href="namespacenetspeak_1_1util.html#af94d48fda5f335ddcb461a8237079866" target="_top" xlink:title=" ">
<polygon fill="white" stroke="#666666" points="645.5,-105.5 526.5,-105.5 526.5,-75.5 645.5,-75.5 645.5,-105.5"/>
<text text-anchor="start" x="534.5" y="-93.5" font-family="Helvetica,sans-Serif" font-size="10.00">netspeak::util::signal</text>
<text text-anchor="middle" x="586" y="-82.5" font-family="Helvetica,sans-Serif" font-size="10.00">_error</text>
</a>
</g>
</g>
<!-- Node4&#45;&gt;Node6 -->
<g id="edge5_Node000004_Node000006" class="edge">
<title>Node4&#45;&gt;Node6</title>
<g id="a_edge5_Node000004_Node000006"><a xlink:title=" ">
<path fill="none" stroke="#63b8ff" d="M463.95,-161.93C472.37,-159.3 481.12,-156.14 489,-152.5 513.25,-141.28 538.55,-124.71 557.09,-111.52"/>
<polygon fill="#63b8ff" stroke="#63b8ff" points="559.31,-114.24 565.36,-105.54 555.2,-108.57 559.31,-114.24"/>
</a>
</g>
</g>
<!-- Node6&#45;&gt;Node5 -->
<g id="edge6_Node000006_Node000005" class="edge">
<title>Node6&#45;&gt;Node5</title>
<g id="a_edge6_Node000006_Node000005"><a xlink:title=" ">
<path fill="none" stroke="#63b8ff" d="M645.57,-90.5C654.41,-90.5 663.57,-90.5 672.54,-90.5"/>
<polygon fill="#63b8ff" stroke="#63b8ff" points="672.57,-94 682.57,-90.5 672.57,-87 672.57,-94"/>
</a>
</g>
</g>
<!-- Node7&#45;&gt;Node5 -->
<g id="edge8_Node000007_Node000005" class="edge">
<title>Node7&#45;&gt;Node5</title>
<g id="a_edge8_Node000007_Node000005"><a xlink:title=" ">
<path fill="none" stroke="#63b8ff" d="M457.67,-95.01C485.31,-103.28 521.53,-114 525,-114.5 578.67,-122.2 593.22,-121.44 647,-114.5 664.67,-112.22 683.8,-107.56 699.97,-102.95"/>
<polygon fill="#63b8ff" stroke="#63b8ff" points="701.02,-106.29 709.62,-100.11 699.04,-99.58 701.02,-106.29"/>
</a>
</g>
</g>
<!-- Node7&#45;&gt;Node6 -->
<g id="edge9_Node000007_Node000006" class="edge">
<title>Node7&#45;&gt;Node6</title>
<g id="a_edge9_Node000007_Node000006"><a xlink:title=" ">
<path fill="none" stroke="#63b8ff" d="M484.75,-87.35C495.08,-87.67 505.9,-88.01 516.47,-88.34"/>
<polygon fill="#63b8ff" stroke="#63b8ff" points="516.38,-91.84 526.49,-88.66 516.6,-84.85 516.38,-91.84"/>
</a>
</g>
</g>
<!-- Node8&#45;&gt;Node5 -->
<g id="edge11_Node000008_Node000005" class="edge">
<title>Node8&#45;&gt;Node5</title>
<g id="a_edge11_Node000008_Node000005"><a xlink:title=" ">
<path fill="none" stroke="#63b8ff" d="M483.58,-49.76C528.38,-52.16 591.98,-56.99 647,-66.5 663.73,-69.39 681.86,-73.86 697.54,-78.16"/>
<polygon fill="#63b8ff" stroke="#63b8ff" points="696.88,-81.61 707.45,-80.95 698.77,-74.87 696.88,-81.61"/>
</a>
</g>
</g>
<!-- Node8&#45;&gt;Node6 -->
<g id="edge12_Node000008_Node000006" class="edge">
<title>Node8&#45;&gt;Node6</title>
<g id="a_edge12_Node000008_Node000006"><a xlink:title=" ">
<path fill="none" stroke="#63b8ff" d="M461.29,-57.04C478.51,-61.7 499.78,-67.45 519.81,-72.87"/>
<polygon fill="#63b8ff" stroke="#63b8ff" points="518.94,-76.26 529.51,-75.49 520.77,-69.5 518.94,-76.26"/>
</a>
</g>
</g>
<!-- Node9&#45;&gt;Node5 -->
<g id="edge14_Node000009_Node000005" class="edge">
<title>Node9&#45;&gt;Node5</title>
<g id="a_edge14_Node000009_Node000005"><a xlink:title=" ">
<path fill="none" stroke="#63b8ff" d="M613.73,-19.03C624.28,-23.09 636.39,-28.13 647,-33.5 671.45,-45.89 697.88,-62.76 716.01,-74.93"/>
<polygon fill="#63b8ff" stroke="#63b8ff" points="714.45,-78.09 724.69,-80.81 718.38,-72.3 714.45,-78.09"/>
</a>
</g>
</g>
</g>
</svg>
