<?xml version="1.0" encoding="UTF-8" standalone="no"?>
<!DOCTYPE svg PUBLIC "-//W3C//DTD SVG 1.1//EN"
 "http://www.w3.org/Graphics/SVG/1.1/DTD/svg11.dtd">
<!-- Generated by graphviz version 2.43.0 (0)
 -->
<!-- Title: netspeak::invertedindex::Record::set Pages: 1 -->
<svg width="485pt" height="119pt"
 viewBox="0.00 0.00 485.00 119.43" xmlns="http://www.w3.org/2000/svg" xmlns:xlink="http://www.w3.org/1999/xlink">
<g id="graph0" class="graph" transform="scale(1 1) rotate(0) translate(4 115.43)">
<title>netspeak::invertedindex::Record::set</title>
<!-- Node1 -->
<g id="Node000001" class="node">
<title>Node1</title>
<g id="a_Node000001"><a xlink:title=" ">
<polygon fill="#999999" stroke="#666666" points="135,-70.77 0,-70.77 0,-40.77 135,-40.77 135,-70.77"/>
<text text-anchor="start" x="8" y="-58.77" font-family="Helvetica,sans-Serif" font-size="10.00">netspeak::invertedindex</text>
<text text-anchor="middle" x="67.5" y="-47.77" font-family="Helvetica,sans-Serif" font-size="10.00">::Record::set</text>
</a>
</g>
</g>
<!-- Node2 -->
<g id="Node000002" class="node">
<title>Node2</title>
<g id="a_Node000002"><a xlink:href="classnetspeak_1_1invertedindex_1_1Record.html#a8c31f71f3940ea11d85fbfca276f0eca" target="_top" xlink:title=" ">
<polygon fill="white" stroke="#666666" points="477,-104.77 342,-104.77 342,-74.77 477,-74.77 477,-104.77"/>
<text text-anchor="start" x="350" y="-92.77" font-family="Helvetica,sans-Serif" font-size="10.00">netspeak::invertedindex</text>
<text text-anchor="middle" x="409.5" y="-81.77" font-family="Helvetica,sans-Serif" font-size="10.00">::Record::key</text>
</a>
</g>
</g>
<!-- Node1&#45;&gt;Node2 -->
<g id="edge1_Node000001_Node000002" class="edge">
<title>Node1&#45;&gt;Node2</title>
<g id="a_edge1_Node000001_Node000002"><a xlink:title=" ">
<path fill="none" stroke="#63b8ff" d="M92.68,-70.82C112.79,-82.4 142.61,-97.45 171,-103.77 223.87,-115.54 284.89,-111.58 331.84,-104.91"/>
<polygon fill="#63b8ff" stroke="#63b8ff" points="332.56,-108.34 341.94,-103.41 331.53,-101.42 332.56,-108.34"/>
</a>
</g>
</g>
<!-- Node3 -->
<g id="Node000003" class="node">
<title>Node3</title>
<g id="a_Node000003"><a xlink:href="classnetspeak_1_1invertedindex_1_1Record.html#afa44b61aea8d247d7d5119f4440c3ab3" target="_top" xlink:title=" ">
<polygon fill="white" stroke="#666666" points="306,-94.77 171,-94.77 171,-64.77 306,-64.77 306,-94.77"/>
<text text-anchor="start" x="179" y="-82.77" font-family="Helvetica,sans-Serif" font-size="10.00">netspeak::invertedindex</text>
<text text-anchor="middle" x="238.5" y="-71.77" font-family="Helvetica,sans-Serif" font-size="10.00">::Record::set_key</text>
</a>
</g>
</g>
<!-- Node1&#45;&gt;Node3 -->
<g id="edge2_Node000001_Node000003" class="edge">
<title>Node1&#45;&gt;Node3</title>
<g id="a_edge2_Node000001_Node000003"><a xlink:title=" ">
<path fill="none" stroke="#63b8ff" d="M135.29,-65.26C143.72,-66.45 152.38,-67.68 160.94,-68.9"/>
<polygon fill="#63b8ff" stroke="#63b8ff" points="160.52,-72.37 170.92,-70.31 161.51,-65.44 160.52,-72.37"/>
</a>
</g>
</g>
<!-- Node4 -->
<g id="Node000004" class="node">
<title>Node4</title>
<g id="a_Node000004"><a xlink:href="classnetspeak_1_1invertedindex_1_1Record.html#ac235645b336d639b06b2a75f890bb20f" target="_top" xlink:title=" ">
<polygon fill="white" stroke="#666666" points="306,-46.77 171,-46.77 171,-16.77 306,-16.77 306,-46.77"/>
<text text-anchor="start" x="179" y="-34.77" font-family="Helvetica,sans-Serif" font-size="10.00">netspeak::invertedindex</text>
<text text-anchor="middle" x="238.5" y="-23.77" font-family="Helvetica,sans-Serif" font-size="10.00">::Record::set_value</text>
</a>
</g>
</g>
<!-- Node1&#45;&gt;Node4 -->
<g id="edge4_Node000001_Node000004" class="edge">
<title>Node1&#45;&gt;Node4</title>
<g id="a_edge4_Node000001_Node000004"><a xlink:title=" ">
<path fill="none" stroke="#63b8ff" d="M135.29,-46.28C143.72,-45.09 152.38,-43.86 160.94,-42.64"/>
<polygon fill="#63b8ff" stroke="#63b8ff" points="161.51,-46.1 170.92,-41.23 160.52,-39.17 161.51,-46.1"/>
</a>
</g>
</g>
<!-- Node5 -->
<g id="Node000005" class="node">
<title>Node5</title>
<g id="a_Node000005"><a xlink:href="classnetspeak_1_1invertedindex_1_1Record.html#a0d49817e43096fd3bb77cef8c1a42dd5" target="_top" xlink:title=" ">
<polygon fill="white" stroke="#666666" points="477,-35.77 342,-35.77 342,-5.77 477,-5.77 477,-35.77"/>
<text text-anchor="start" x="350" y="-23.77" font-family="Helvetica,sans-Serif" font-size="10.00">netspeak::invertedindex</text>
<text text-anchor="middle" x="409.5" y="-12.77" font-family="Helvetica,sans-Serif" font-size="10.00">::Record::value</text>
</a>
</g>
</g>
<!-- Node1&#45;&gt;Node5 -->
<g id="edge6_Node000001_Node000005" class="edge">
<title>Node1&#45;&gt;Node5</title>
<g id="a_edge6_Node000001_Node000005"><a xlink:title=" ">
<path fill="none" stroke="#63b8ff" d="M92.68,-40.72C112.79,-29.14 142.61,-14.09 171,-7.77 223.86,3.99 284.88,0.29 331.83,-6.11"/>
<polygon fill="#63b8ff" stroke="#63b8ff" points="331.53,-9.61 341.93,-7.56 332.53,-2.68 331.53,-9.61"/>
</a>
</g>
</g>
<!-- Node3&#45;&gt;Node2 -->
<g id="edge3_Node000003_Node000002" class="edge">
<title>Node3&#45;&gt;Node2</title>
<g id="a_edge3_Node000003_Node000002"><a xlink:title=" ">
<path fill="none" stroke="#63b8ff" d="M306.29,-83.72C314.62,-84.22 323.19,-84.72 331.66,-85.22"/>
<polygon fill="#63b8ff" stroke="#63b8ff" points="331.73,-88.73 341.92,-85.83 332.14,-81.75 331.73,-88.73"/>
</a>
</g>
</g>
<!-- Node4&#45;&gt;Node5 -->
<g id="edge5_Node000004_Node000005" class="edge">
<title>Node4&#45;&gt;Node5</title>
<g id="a_edge5_Node000004_Node000005"><a xlink:title=" ">
<path fill="none" stroke="#63b8ff" d="M306.29,-27.42C314.62,-26.88 323.19,-26.32 331.66,-25.77"/>
<polygon fill="#63b8ff" stroke="#63b8ff" points="332.16,-29.25 341.92,-25.1 331.71,-22.26 332.16,-29.25"/>
</a>
</g>
</g>
</g>
</svg>
