<?xml version="1.0" encoding="UTF-8" standalone="no"?>
<!DOCTYPE svg PUBLIC "-//W3C//DTD SVG 1.1//EN"
 "http://www.w3.org/Graphics/SVG/1.1/DTD/svg11.dtd">
<!-- Generated by graphviz version 2.43.0 (0)
 -->
<!-- Title: antlr4::QueryConstructor::enterQmark Pages: 1 -->
<svg width="525pt" height="110pt"
 viewBox="0.00 0.00 525.00 110.00" xmlns="http://www.w3.org/2000/svg" xmlns:xlink="http://www.w3.org/1999/xlink">
<g id="graph0" class="graph" transform="scale(1 1) rotate(0) translate(4 106)">
<title>antlr4::QueryConstructor::enterQmark</title>
<!-- Node1 -->
<g id="Node000001" class="node">
<title>Node1</title>
<g id="a_Node000001"><a xlink:title=" ">
<polygon fill="#999999" stroke="#666666" points="137,-78 0,-78 0,-48 137,-48 137,-78"/>
<text text-anchor="start" x="8" y="-66" font-family="Helvetica,sans-Serif" font-size="10.00">antlr4::QueryConstructor</text>
<text text-anchor="middle" x="68.5" y="-55" font-family="Helvetica,sans-Serif" font-size="10.00">::enterQmark</text>
</a>
</g>
</g>
<!-- Node2 -->
<g id="Node000002" class="node">
<title>Node2</title>
<g id="a_Node000002"><a xlink:href="classantlr4_1_1QueryConstructor.html#a968de060cb7e4922495c27954b17d0a0" target="_top" xlink:title=" ">
<polygon fill="white" stroke="#666666" points="318.5,-102 181.5,-102 181.5,-72 318.5,-72 318.5,-102"/>
<text text-anchor="start" x="189.5" y="-90" font-family="Helvetica,sans-Serif" font-size="10.00">antlr4::QueryConstructor</text>
<text text-anchor="middle" x="250" y="-79" font-family="Helvetica,sans-Serif" font-size="10.00">::push_stack</text>
</a>
</g>
</g>
<!-- Node1&#45;&gt;Node2 -->
<g id="edge1_Node000001_Node000002" class="edge">
<title>Node1&#45;&gt;Node2</title>
<g id="a_edge1_Node000001_Node000002"><a xlink:title=" ">
<path fill="none" stroke="#63b8ff" d="M137.11,-72.04C148.33,-73.54 160.04,-75.11 171.49,-76.64"/>
<polygon fill="#63b8ff" stroke="#63b8ff" points="171.08,-80.11 181.46,-77.97 172.01,-73.17 171.08,-80.11"/>
</a>
</g>
</g>
<!-- Node3 -->
<g id="Node000003" class="node">
<title>Node3</title>
<g id="a_Node000003"><a xlink:href="classnetspeak_1_1model_1_1QueryUnit____.html#ac85cc5078f0726242a273118acccfa78" target="_top" xlink:title=" ">
<polygon fill="white" stroke="#666666" points="327,-54 173,-54 173,-24 327,-24 327,-54"/>
<text text-anchor="start" x="181" y="-42" font-family="Helvetica,sans-Serif" font-size="10.00">netspeak::model::QueryUnit</text>
<text text-anchor="middle" x="250" y="-31" font-family="Helvetica,sans-Serif" font-size="10.00">__::terminal</text>
</a>
</g>
</g>
<!-- Node1&#45;&gt;Node3 -->
<g id="edge2_Node000001_Node000003" class="edge">
<title>Node1&#45;&gt;Node3</title>
<g id="a_edge2_Node000001_Node000003"><a xlink:title=" ">
<path fill="none" stroke="#63b8ff" d="M137.11,-53.96C145.46,-52.84 154.09,-51.69 162.68,-50.54"/>
<polygon fill="#63b8ff" stroke="#63b8ff" points="163.28,-53.99 172.73,-49.2 162.35,-47.05 163.28,-53.99"/>
</a>
</g>
</g>
<!-- Node4 -->
<g id="Node000004" class="node">
<title>Node4</title>
<g id="a_Node000004"><a xlink:href="classnetspeak_1_1model_1_1QueryUnit____.html#a95a933ddda7a0d4db361dc5efd2a1f2d" target="_top" xlink:title=" ">
<polygon fill="white" stroke="#666666" points="517,-78 363,-78 363,-48 517,-48 517,-78"/>
<text text-anchor="start" x="371" y="-66" font-family="Helvetica,sans-Serif" font-size="10.00">netspeak::model::QueryUnit</text>
<text text-anchor="middle" x="440" y="-55" font-family="Helvetica,sans-Serif" font-size="10.00">__::tag</text>
</a>
</g>
</g>
<!-- Node3&#45;&gt;Node4 -->
<g id="edge3_Node000003_Node000004" class="edge">
<title>Node3&#45;&gt;Node4</title>
<g id="a_edge3_Node000003_Node000004"><a xlink:title=" ">
<path fill="none" stroke="#63b8ff" d="M327.2,-48.73C335.61,-49.8 344.22,-50.9 352.74,-51.99"/>
<polygon fill="#63b8ff" stroke="#63b8ff" points="352.33,-55.46 362.7,-53.26 353.22,-48.52 352.33,-55.46"/>
</a>
</g>
</g>
<!-- Node5 -->
<g id="Node000005" class="node">
<title>Node5</title>
<g id="a_Node000005"><a xlink:href="classnetspeak_1_1model_1_1QueryUnit____.html#aceea127950e12e672abdacecd7cd178c" target="_top" xlink:title=" ">
<polygon fill="white" stroke="#666666" points="517,-30 363,-30 363,0 517,0 517,-30"/>
<text text-anchor="start" x="371" y="-18" font-family="Helvetica,sans-Serif" font-size="10.00">netspeak::model::QueryUnit</text>
<text text-anchor="middle" x="440" y="-7" font-family="Helvetica,sans-Serif" font-size="10.00">__::text</text>
</a>
</g>
</g>
<!-- Node3&#45;&gt;Node5 -->
<g id="edge4_Node000003_Node000005" class="edge">
<title>Node3&#45;&gt;Node5</title>
<g id="a_edge4_Node000003_Node000005"><a xlink:title=" ">
<path fill="none" stroke="#63b8ff" d="M327.2,-29.27C335.61,-28.2 344.22,-27.1 352.74,-26.01"/>
<polygon fill="#63b8ff" stroke="#63b8ff" points="353.22,-29.48 362.7,-24.74 352.33,-22.54 353.22,-29.48"/>
</a>
</g>
</g>
</g>
</svg>
