<?xml version="1.0" encoding="UTF-8" standalone="no"?>
<!DOCTYPE svg PUBLIC "-//W3C//DTD SVG 1.1//EN"
 "http://www.w3.org/Graphics/SVG/1.1/DTD/svg11.dtd">
<!-- Generated by graphviz version 2.43.0 (0)
 -->
<!-- Title: netspeak::model::Phrase Pages: 1 -->
<svg width="306pt" height="483pt"
 viewBox="0.00 0.00 305.50 483.00" xmlns="http://www.w3.org/2000/svg" xmlns:xlink="http://www.w3.org/1999/xlink">
<g id="graph0" class="graph" transform="scale(1 1) rotate(0) translate(4 479)">
<title>netspeak::model::Phrase</title>
<!-- Node1 -->
<g id="Node000001" class="node">
<title>Node1</title>
<g id="a_Node000001"><a xlink:title=" ">
<polygon fill="#999999" stroke="transparent" points="220,-214 89,-214 89,0 220,0 220,-214"/>
<text text-anchor="start" x="94.5" y="-202" font-family="Helvetica,sans-Serif" font-size="10.00">netspeak::model::Phrase</text>
<text text-anchor="start" x="107" y="-187" font-family="Helvetica,sans-Serif" font-size="10.00">&#45;</text>
<text text-anchor="start" x="128.5" y="-187" font-family="Helvetica,sans-Serif" font-size="10.00">freq_</text>
<text text-anchor="start" x="104.5" y="-172" font-family="Helvetica,sans-Serif" font-size="10.00">+</text>
<text text-anchor="start" x="128.5" y="-172" font-family="Helvetica,sans-Serif" font-size="10.00">Phrase()</text>
<text text-anchor="start" x="104.5" y="-157" font-family="Helvetica,sans-Serif" font-size="10.00">+</text>
<text text-anchor="start" x="128.5" y="-157" font-family="Helvetica,sans-Serif" font-size="10.00">Phrase()</text>
<text text-anchor="start" x="104.5" y="-142" font-family="Helvetica,sans-Serif" font-size="10.00">+</text>
<text text-anchor="start" x="128.5" y="-142" font-family="Helvetica,sans-Serif" font-size="10.00">id()</text>
<text text-anchor="start" x="104.5" y="-127" font-family="Helvetica,sans-Serif" font-size="10.00">+</text>
<text text-anchor="start" x="128.5" y="-127" font-family="Helvetica,sans-Serif" font-size="10.00">freq()</text>
<text text-anchor="start" x="104.5" y="-112" font-family="Helvetica,sans-Serif" font-size="10.00">+</text>
<text text-anchor="start" x="128.5" y="-112" font-family="Helvetica,sans-Serif" font-size="10.00">words()</text>
<text text-anchor="start" x="104.5" y="-97" font-family="Helvetica,sans-Serif" font-size="10.00">+</text>
<text text-anchor="start" x="128.5" y="-97" font-family="Helvetica,sans-Serif" font-size="10.00">words()</text>
<text text-anchor="start" x="104.5" y="-82" font-family="Helvetica,sans-Serif" font-size="10.00">+</text>
<text text-anchor="start" x="128.5" y="-82" font-family="Helvetica,sans-Serif" font-size="10.00">operator==()</text>
<text text-anchor="start" x="104.5" y="-67" font-family="Helvetica,sans-Serif" font-size="10.00">+</text>
<text text-anchor="start" x="128.5" y="-67" font-family="Helvetica,sans-Serif" font-size="10.00">operator!=()</text>
<text text-anchor="start" x="104.5" y="-52" font-family="Helvetica,sans-Serif" font-size="10.00">+</text>
<text text-anchor="start" x="128.5" y="-52" font-family="Helvetica,sans-Serif" font-size="10.00">operator&lt;()</text>
<text text-anchor="start" x="104.5" y="-37" font-family="Helvetica,sans-Serif" font-size="10.00">+</text>
<text text-anchor="start" x="128.5" y="-37" font-family="Helvetica,sans-Serif" font-size="10.00">operator&lt;=()</text>
<text text-anchor="start" x="104.5" y="-22" font-family="Helvetica,sans-Serif" font-size="10.00">+</text>
<text text-anchor="start" x="128.5" y="-22" font-family="Helvetica,sans-Serif" font-size="10.00">operator&gt;()</text>
<text text-anchor="start" x="104.5" y="-7" font-family="Helvetica,sans-Serif" font-size="10.00">+</text>
<text text-anchor="start" x="128.5" y="-7" font-family="Helvetica,sans-Serif" font-size="10.00">operator&gt;=()</text>
<polygon fill="#666666" stroke="#666666" points="89.5,-197 89.5,-197 220.5,-197 220.5,-197 89.5,-197"/>
<polygon fill="#666666" stroke="#666666" points="89.5,-182 89.5,-182 126.5,-182 126.5,-182 89.5,-182"/>
<polygon fill="#666666" stroke="#666666" points="126.5,-182 126.5,-182 220.5,-182 220.5,-182 126.5,-182"/>
<polygon fill="none" stroke="#666666" points="89,0 89,-214 220,-214 220,0 89,0"/>
</a>
</g>
</g>
<!-- Node2 -->
<g id="Node000002" class="node">
<title>Node2</title>
<g id="a_Node000002"><a xlink:href="structnetspeak_1_1model_1_1PhraseId____.html" target="_top" xlink:title=" ">
<polygon fill="white" stroke="transparent" points="151,-475 0,-475 0,-261 151,-261 151,-475"/>
<text text-anchor="start" x="5.5" y="-463" font-family="Helvetica,sans-Serif" font-size="10.00">netspeak::model::PhraseId__</text>
<text text-anchor="start" x="16.5" y="-448" font-family="Helvetica,sans-Serif" font-size="10.00">&#45;</text>
<text text-anchor="start" x="36.5" y="-448" font-family="Helvetica,sans-Serif" font-size="10.00">length_</text>
<text text-anchor="start" x="16.5" y="-433" font-family="Helvetica,sans-Serif" font-size="10.00">&#45;</text>
<text text-anchor="start" x="36.5" y="-433" font-family="Helvetica,sans-Serif" font-size="10.00">local_</text>
<text text-anchor="start" x="14" y="-418" font-family="Helvetica,sans-Serif" font-size="10.00">+</text>
<text text-anchor="start" x="36.5" y="-418" font-family="Helvetica,sans-Serif" font-size="10.00">PhraseId__()</text>
<text text-anchor="start" x="14" y="-403" font-family="Helvetica,sans-Serif" font-size="10.00">+</text>
<text text-anchor="start" x="36.5" y="-403" font-family="Helvetica,sans-Serif" font-size="10.00">PhraseId__()</text>
<text text-anchor="start" x="14" y="-388" font-family="Helvetica,sans-Serif" font-size="10.00">+</text>
<text text-anchor="start" x="36.5" y="-388" font-family="Helvetica,sans-Serif" font-size="10.00">length()</text>
<text text-anchor="start" x="14" y="-373" font-family="Helvetica,sans-Serif" font-size="10.00">+</text>
<text text-anchor="start" x="36.5" y="-373" font-family="Helvetica,sans-Serif" font-size="10.00">local()</text>
<text text-anchor="start" x="14" y="-358" font-family="Helvetica,sans-Serif" font-size="10.00">+</text>
<text text-anchor="start" x="36.5" y="-358" font-family="Helvetica,sans-Serif" font-size="10.00">operator uint64_t()</text>
<text text-anchor="start" x="14" y="-343" font-family="Helvetica,sans-Serif" font-size="10.00">+</text>
<text text-anchor="start" x="36.5" y="-343" font-family="Helvetica,sans-Serif" font-size="10.00">operator==()</text>
<text text-anchor="start" x="14" y="-328" font-family="Helvetica,sans-Serif" font-size="10.00">+</text>
<text text-anchor="start" x="36.5" y="-328" font-family="Helvetica,sans-Serif" font-size="10.00">operator!=()</text>
<text text-anchor="start" x="14" y="-313" font-family="Helvetica,sans-Serif" font-size="10.00">+</text>
<text text-anchor="start" x="36.5" y="-313" font-family="Helvetica,sans-Serif" font-size="10.00">operator&lt;()</text>
<text text-anchor="start" x="14" y="-298" font-family="Helvetica,sans-Serif" font-size="10.00">+</text>
<text text-anchor="start" x="36.5" y="-298" font-family="Helvetica,sans-Serif" font-size="10.00">operator&lt;=()</text>
<text text-anchor="start" x="14" y="-283" font-family="Helvetica,sans-Serif" font-size="10.00">+</text>
<text text-anchor="start" x="36.5" y="-283" font-family="Helvetica,sans-Serif" font-size="10.00">operator&gt;()</text>
<text text-anchor="start" x="14" y="-268" font-family="Helvetica,sans-Serif" font-size="10.00">+</text>
<text text-anchor="start" x="36.5" y="-268" font-family="Helvetica,sans-Serif" font-size="10.00">operator&gt;=()</text>
<polygon fill="#666666" stroke="#666666" points="0.5,-458 0.5,-458 151.5,-458 151.5,-458 0.5,-458"/>
<polygon fill="#666666" stroke="#666666" points="0.5,-428 0.5,-428 34.5,-428 34.5,-428 0.5,-428"/>
<polygon fill="#666666" stroke="#666666" points="34.5,-428 34.5,-428 151.5,-428 151.5,-428 34.5,-428"/>
<polygon fill="none" stroke="#666666" points="0,-261 0,-475 151,-475 151,-261 0,-261"/>
</a>
</g>
</g>
<!-- Node2&#45;&gt;Node1 -->
<g id="edge1_Node000001_Node000002" class="edge">
<title>Node2&#45;&gt;Node1</title>
<g id="a_edge1_Node000001_Node000002"><a xlink:title=" ">
<path fill="none" stroke="#63b8ff" d="M107.86,-260.91C111.38,-249.38 114.97,-237.6 118.52,-225.95"/>
<polygon fill="none" stroke="#63b8ff" points="118.56,-225.82 116.49,-218.92 122.06,-214.35 124.14,-221.25 118.56,-225.82"/>
</a>
</g>
<text text-anchor="middle" x="126.5" y="-235" font-family="Helvetica,sans-Serif" font-size="10.00" fill="grey"> &#45;id_</text>
</g>
<!-- Node3 -->
<g id="Node000003" class="node">
<title>Node3</title>
<g id="a_Node000003"><a xlink:href="classnetspeak_1_1model_1_1Words.html" target="_top" xlink:title=" ">
<polygon fill="white" stroke="transparent" points="297.5,-475 169.5,-475 169.5,-261 297.5,-261 297.5,-475"/>
<text text-anchor="start" x="174.5" y="-463" font-family="Helvetica,sans-Serif" font-size="10.00">netspeak::model::Words</text>
<text text-anchor="start" x="177.5" y="-448" font-family="Helvetica,sans-Serif" font-size="10.00">&#45;</text>
<text text-anchor="start" x="189.5" y="-448" font-family="Helvetica,sans-Serif" font-size="10.00">data_</text>
<text text-anchor="start" x="175" y="-433" font-family="Helvetica,sans-Serif" font-size="10.00">+</text>
<text text-anchor="start" x="189.5" y="-433" font-family="Helvetica,sans-Serif" font-size="10.00">Words()</text>
<text text-anchor="start" x="175" y="-418" font-family="Helvetica,sans-Serif" font-size="10.00">+</text>
<text text-anchor="start" x="189.5" y="-418" font-family="Helvetica,sans-Serif" font-size="10.00">data()</text>
<text text-anchor="start" x="175" y="-403" font-family="Helvetica,sans-Serif" font-size="10.00">+</text>
<text text-anchor="start" x="189.5" y="-403" font-family="Helvetica,sans-Serif" font-size="10.00">data()</text>
<text text-anchor="start" x="175" y="-388" font-family="Helvetica,sans-Serif" font-size="10.00">+</text>
<text text-anchor="start" x="189.5" y="-388" font-family="Helvetica,sans-Serif" font-size="10.00">empty()</text>
<text text-anchor="start" x="175" y="-373" font-family="Helvetica,sans-Serif" font-size="10.00">+</text>
<text text-anchor="start" x="189.5" y="-373" font-family="Helvetica,sans-Serif" font-size="10.00">size()</text>
<text text-anchor="start" x="175" y="-358" font-family="Helvetica,sans-Serif" font-size="10.00">+</text>
<text text-anchor="start" x="189.5" y="-358" font-family="Helvetica,sans-Serif" font-size="10.00">begin()</text>
<text text-anchor="start" x="175" y="-343" font-family="Helvetica,sans-Serif" font-size="10.00">+</text>
<text text-anchor="start" x="189.5" y="-343" font-family="Helvetica,sans-Serif" font-size="10.00">end()</text>
<text text-anchor="start" x="175" y="-328" font-family="Helvetica,sans-Serif" font-size="10.00">+</text>
<text text-anchor="start" x="189.5" y="-328" font-family="Helvetica,sans-Serif" font-size="10.00">operator[]()</text>
<text text-anchor="start" x="175" y="-313" font-family="Helvetica,sans-Serif" font-size="10.00">+</text>
<text text-anchor="start" x="189.5" y="-313" font-family="Helvetica,sans-Serif" font-size="10.00">push_back()</text>
<text text-anchor="start" x="175" y="-298" font-family="Helvetica,sans-Serif" font-size="10.00">+</text>
<text text-anchor="start" x="189.5" y="-298" font-family="Helvetica,sans-Serif" font-size="10.00">push_back()</text>
<text text-anchor="start" x="175" y="-283" font-family="Helvetica,sans-Serif" font-size="10.00">+</text>
<text text-anchor="start" x="189.5" y="-283" font-family="Helvetica,sans-Serif" font-size="10.00">is_subsequence_of()</text>
<text text-anchor="start" x="175" y="-268" font-family="Helvetica,sans-Serif" font-size="10.00">+</text>
<text text-anchor="start" x="189.5" y="-268" font-family="Helvetica,sans-Serif" font-size="10.00">is_subsequence_of()</text>
<polygon fill="#666666" stroke="#666666" points="169.5,-458 169.5,-458 297.5,-458 297.5,-458 169.5,-458"/>
<polygon fill="#666666" stroke="#666666" points="169.5,-443 169.5,-443 187.5,-443 187.5,-443 169.5,-443"/>
<polygon fill="#666666" stroke="#666666" points="187.5,-443 187.5,-443 297.5,-443 297.5,-443 187.5,-443"/>
<polygon fill="none" stroke="#666666" points="169.5,-261 169.5,-475 297.5,-475 297.5,-261 169.5,-261"/>
</a>
</g>
</g>
<!-- Node3&#45;&gt;Node1 -->
<g id="edge2_Node000001_Node000003" class="edge">
<title>Node3&#45;&gt;Node1</title>
<g id="a_edge2_Node000001_Node000003"><a xlink:title=" ">
<path fill="none" stroke="#63b8ff" d="M201.14,-260.91C197.62,-249.38 194.03,-237.6 190.48,-225.95"/>
<polygon fill="none" stroke="#63b8ff" points="190.44,-225.82 184.86,-221.25 186.94,-214.35 192.51,-218.92 190.44,-225.82"/>
</a>
</g>
<text text-anchor="middle" x="214.5" y="-235" font-family="Helvetica,sans-Serif" font-size="10.00" fill="grey"> &#45;words_</text>
</g>
</g>
</svg>
