<?xml version="1.0" encoding="UTF-8" standalone="no"?>
<!DOCTYPE svg PUBLIC "-//W3C//DTD SVG 1.1//EN"
 "http://www.w3.org/Graphics/SVG/1.1/DTD/svg11.dtd">
<!-- Generated by graphviz version 2.43.0 (0)
 -->
<!-- Title: netspeak::model::QueryUnit__ Pages: 1 -->
<svg width="166pt" height="282pt"
 viewBox="0.00 0.00 166.00 282.00" xmlns="http://www.w3.org/2000/svg" xmlns:xlink="http://www.w3.org/1999/xlink">
<g id="graph0" class="graph" transform="scale(1 1) rotate(0) translate(4 278)">
<title>netspeak::model::QueryUnit__</title>
<!-- Node1 -->
<g id="Node000001" class="node">
<title>Node1</title>
<g id="a_Node000001"><a xlink:title=" ">
<polygon fill="#999999" stroke="transparent" points="158,-274 0,-274 0,0 158,0 158,-274"/>
<text text-anchor="start" x="5" y="-262" font-family="Helvetica,sans-Serif" font-size="10.00">netspeak::model::QueryUnit__</text>
<text text-anchor="start" x="22.5" y="-247" font-family="Helvetica,sans-Serif" font-size="10.00">&#45;</text>
<text text-anchor="start" x="49" y="-247" font-family="Helvetica,sans-Serif" font-size="10.00">tag_</text>
<text text-anchor="start" x="22.5" y="-232" font-family="Helvetica,sans-Serif" font-size="10.00">&#45;</text>
<text text-anchor="start" x="49" y="-232" font-family="Helvetica,sans-Serif" font-size="10.00">text_</text>
<text text-anchor="start" x="22.5" y="-217" font-family="Helvetica,sans-Serif" font-size="10.00">&#45;</text>
<text text-anchor="start" x="49" y="-217" font-family="Helvetica,sans-Serif" font-size="10.00">children_</text>
<text text-anchor="start" x="22.5" y="-202" font-family="Helvetica,sans-Serif" font-size="10.00">&#45;</text>
<text text-anchor="start" x="49" y="-202" font-family="Helvetica,sans-Serif" font-size="10.00">parent_</text>
<text text-anchor="start" x="22.5" y="-187" font-family="Helvetica,sans-Serif" font-size="10.00">&#45;</text>
<text text-anchor="start" x="49" y="-187" font-family="Helvetica,sans-Serif" font-size="10.00">self_</text>
<text text-anchor="start" x="20" y="-172" font-family="Helvetica,sans-Serif" font-size="10.00">+</text>
<text text-anchor="start" x="49" y="-172" font-family="Helvetica,sans-Serif" font-size="10.00">QueryUnit__()</text>
<text text-anchor="start" x="20" y="-157" font-family="Helvetica,sans-Serif" font-size="10.00">+</text>
<text text-anchor="start" x="49" y="-157" font-family="Helvetica,sans-Serif" font-size="10.00">QueryUnit__()</text>
<text text-anchor="start" x="20" y="-142" font-family="Helvetica,sans-Serif" font-size="10.00">+</text>
<text text-anchor="start" x="49" y="-142" font-family="Helvetica,sans-Serif" font-size="10.00">QueryUnit__()</text>
<text text-anchor="start" x="20" y="-127" font-family="Helvetica,sans-Serif" font-size="10.00">+</text>
<text text-anchor="start" x="49" y="-127" font-family="Helvetica,sans-Serif" font-size="10.00">tag()</text>
<text text-anchor="start" x="20" y="-112" font-family="Helvetica,sans-Serif" font-size="10.00">+</text>
<text text-anchor="start" x="49" y="-112" font-family="Helvetica,sans-Serif" font-size="10.00">text()</text>
<text text-anchor="start" x="20" y="-97" font-family="Helvetica,sans-Serif" font-size="10.00">+</text>
<text text-anchor="start" x="49" y="-97" font-family="Helvetica,sans-Serif" font-size="10.00">children()</text>
<text text-anchor="start" x="20" y="-82" font-family="Helvetica,sans-Serif" font-size="10.00">+</text>
<text text-anchor="start" x="49" y="-82" font-family="Helvetica,sans-Serif" font-size="10.00">parent()</text>
<text text-anchor="start" x="20" y="-67" font-family="Helvetica,sans-Serif" font-size="10.00">+</text>
<text text-anchor="start" x="49" y="-67" font-family="Helvetica,sans-Serif" font-size="10.00">is_terminal()</text>
<text text-anchor="start" x="20" y="-52" font-family="Helvetica,sans-Serif" font-size="10.00">+</text>
<text text-anchor="start" x="49" y="-52" font-family="Helvetica,sans-Serif" font-size="10.00">length_range()</text>
<text text-anchor="start" x="20" y="-37" font-family="Helvetica,sans-Serif" font-size="10.00">+</text>
<text text-anchor="start" x="49" y="-37" font-family="Helvetica,sans-Serif" font-size="10.00">add_child()</text>
<text text-anchor="start" x="20" y="-22" font-family="Helvetica,sans-Serif" font-size="10.00">+</text>
<text text-anchor="start" x="49" y="-22" font-family="Helvetica,sans-Serif" font-size="10.00">terminal()</text>
<text text-anchor="start" x="20" y="-7" font-family="Helvetica,sans-Serif" font-size="10.00">+</text>
<text text-anchor="start" x="49" y="-7" font-family="Helvetica,sans-Serif" font-size="10.00">non_terminal()</text>
<polygon fill="#666666" stroke="#666666" points="0,-257 0,-257 158,-257 158,-257 0,-257"/>
<polygon fill="#666666" stroke="#666666" points="0,-182 0,-182 47,-182 47,-182 0,-182"/>
<polygon fill="#666666" stroke="#666666" points="47,-182 47,-182 158,-182 158,-182 47,-182"/>
<polygon fill="none" stroke="#666666" points="0,0 0,-274 158,-274 158,0 0,0"/>
</a>
</g>
</g>
</g>
</svg>
