<?xml version="1.0" encoding="UTF-8" standalone="no"?>
<!DOCTYPE svg PUBLIC "-//W3C//DTD SVG 1.1//EN"
 "http://www.w3.org/Graphics/SVG/1.1/DTD/svg11.dtd">
<!-- Generated by graphviz version 2.43.0 (0)
 -->
<!-- Title: netspeak::invertedindex::Indexer::assert_record Pages: 1 -->
<svg width="505pt" height="124pt"
 viewBox="0.00 0.00 505.00 123.50" xmlns="http://www.w3.org/2000/svg" xmlns:xlink="http://www.w3.org/1999/xlink">
<g id="graph0" class="graph" transform="scale(1 1) rotate(0) translate(4 119.5)">
<title>netspeak::invertedindex::Indexer::assert_record</title>
<!-- Node1 -->
<g id="Node000001" class="node">
<title>Node1</title>
<g id="a_Node000001"><a xlink:title=" ">
<polygon fill="#999999" stroke="#666666" points="497,-78 362,-78 362,-48 497,-48 497,-78"/>
<text text-anchor="start" x="370" y="-66" font-family="Helvetica,sans-Serif" font-size="10.00">netspeak::invertedindex</text>
<text text-anchor="middle" x="429.5" y="-55" font-family="Helvetica,sans-Serif" font-size="10.00">::Indexer::assert_record</text>
</a>
</g>
</g>
<!-- Node2 -->
<g id="Node000002" class="node">
<title>Node2</title>
<g id="a_Node000002"><a xlink:href="classnetspeak_1_1invertedindex_1_1Indexer.html#a3cc86f6f71f2cc24089a0a0f47de512b" target="_top" xlink:title=" ">
<polygon fill="white" stroke="#666666" points="326,-78 191,-78 191,-48 326,-48 326,-78"/>
<text text-anchor="start" x="199" y="-66" font-family="Helvetica,sans-Serif" font-size="10.00">netspeak::invertedindex</text>
<text text-anchor="middle" x="258.5" y="-55" font-family="Helvetica,sans-Serif" font-size="10.00">::Indexer::insert</text>
</a>
</g>
</g>
<!-- Node1&#45;&gt;Node2 -->
<g id="edge1_Node000001_Node000002" class="edge">
<title>Node1&#45;&gt;Node2</title>
<g id="a_edge1_Node000001_Node000002"><a xlink:title=" ">
<path fill="none" stroke="#63b8ff" d="M351.45,-63C342.98,-63 334.41,-63 326.08,-63"/>
<polygon fill="#63b8ff" stroke="#63b8ff" points="351.71,-66.5 361.71,-63 351.71,-59.5 351.71,-66.5"/>
</a>
</g>
</g>
<!-- Node3 -->
<g id="Node000003" class="node">
<title>Node3</title>
<g id="a_Node000003"><a xlink:href="namespacenetspeak.html#af42806304a02200d2a12099b3b54f35d" target="_top" xlink:title=" ">
<polygon fill="white" stroke="#666666" points="155,-115.5 0,-115.5 0,-96.5 155,-96.5 155,-115.5"/>
<text text-anchor="middle" x="77.5" y="-103.5" font-family="Helvetica,sans-Serif" font-size="10.00">netspeak::BuildPostlistIndex</text>
</a>
</g>
</g>
<!-- Node2&#45;&gt;Node3 -->
<g id="edge2_Node000002_Node000003" class="edge">
<title>Node2&#45;&gt;Node3</title>
<g id="a_edge2_Node000002_Node000003"><a xlink:title=" ">
<path fill="none" stroke="#63b8ff" d="M184.89,-80.44C162.09,-85.92 137.76,-91.76 118.14,-96.48"/>
<polygon fill="#63b8ff" stroke="#63b8ff" points="185.99,-83.78 194.89,-78.04 184.35,-76.97 185.99,-83.78"/>
</a>
</g>
</g>
<!-- Node4 -->
<g id="Node000004" class="node">
<title>Node4</title>
<g id="a_Node000004"><a xlink:href="classnetspeak_1_1invertedindex_1_1Indexer.html#a62899478afaed43b6c2f96c8b57e3cfd" target="_top" xlink:title=" ">
<polygon fill="white" stroke="#666666" points="145,-78 10,-78 10,-48 145,-48 145,-78"/>
<text text-anchor="start" x="18" y="-66" font-family="Helvetica,sans-Serif" font-size="10.00">netspeak::invertedindex</text>
<text text-anchor="middle" x="77.5" y="-55" font-family="Helvetica,sans-Serif" font-size="10.00">::Indexer::insert</text>
</a>
</g>
</g>
<!-- Node2&#45;&gt;Node4 -->
<g id="edge3_Node000002_Node000004" class="edge">
<title>Node2&#45;&gt;Node4</title>
<g id="a_edge3_Node000002_Node000004"><a xlink:title=" ">
<path fill="none" stroke="#63b8ff" d="M180.59,-63C168.82,-63 156.74,-63 145.21,-63"/>
<polygon fill="#63b8ff" stroke="#63b8ff" points="180.85,-66.5 190.85,-63 180.85,-59.5 180.85,-66.5"/>
</a>
</g>
</g>
<!-- Node5 -->
<g id="Node000005" class="node">
<title>Node5</title>
<g id="a_Node000005"><a xlink:href="classnetspeak_1_1invertedindex_1_1Indexer.html#acb7700194487a31a72a2f5df04cd18f2" target="_top" xlink:title=" ">
<polygon fill="white" stroke="#666666" points="145,-30 10,-30 10,0 145,0 145,-30"/>
<text text-anchor="start" x="18" y="-18" font-family="Helvetica,sans-Serif" font-size="10.00">netspeak::invertedindex</text>
<text text-anchor="middle" x="77.5" y="-7" font-family="Helvetica,sans-Serif" font-size="10.00">::Indexer::insert</text>
</a>
</g>
</g>
<!-- Node2&#45;&gt;Node5 -->
<g id="edge4_Node000002_Node000005" class="edge">
<title>Node2&#45;&gt;Node5</title>
<g id="a_edge4_Node000002_Node000005"><a xlink:title=" ">
<path fill="none" stroke="#63b8ff" d="M191.68,-45.35C172.89,-40.31 152.59,-34.87 134.45,-30"/>
<polygon fill="#63b8ff" stroke="#63b8ff" points="190.79,-48.73 201.35,-47.94 192.6,-41.97 190.79,-48.73"/>
</a>
</g>
</g>
</g>
</svg>
