<?xml version="1.0" encoding="UTF-8" standalone="no"?>
<!DOCTYPE svg PUBLIC "-//W3C//DTD SVG 1.1//EN"
 "http://www.w3.org/Graphics/SVG/1.1/DTD/svg11.dtd">
<!-- Generated by graphviz version 2.43.0 (0)
 -->
<!-- Title: netspeak::model::NormQueryUnit__::tag Pages: 1 -->
<svg width="570pt" height="180pt"
 viewBox="0.00 0.00 570.00 179.50" xmlns="http://www.w3.org/2000/svg" xmlns:xlink="http://www.w3.org/1999/xlink">
<g id="graph0" class="graph" transform="scale(1 1) rotate(0) translate(4 175.5)">
<title>netspeak::model::NormQueryUnit__::tag</title>
<!-- Node1 -->
<g id="Node000001" class="node">
<title>Node1</title>
<g id="a_Node000001"><a xlink:title=" ">
<polygon fill="#999999" stroke="#666666" points="562,-112 401,-112 401,-82 562,-82 562,-112"/>
<text text-anchor="start" x="409" y="-100" font-family="Helvetica,sans-Serif" font-size="10.00">netspeak::model::NormQuery</text>
<text text-anchor="middle" x="481.5" y="-89" font-family="Helvetica,sans-Serif" font-size="10.00">Unit__::tag</text>
</a>
</g>
</g>
<!-- Node2 -->
<g id="Node000002" class="node">
<title>Node2</title>
<g id="a_Node000002"><a xlink:href="namespacenetspeak_1_1model.html#a76cb5f6f16196d78de0430ccd2bb43a4" target="_top" xlink:title=" ">
<polygon fill="white" stroke="#666666" points="365,-171.5 203,-171.5 203,-152.5 365,-152.5 365,-171.5"/>
<text text-anchor="middle" x="284" y="-159.5" font-family="Helvetica,sans-Serif" font-size="10.00">netspeak::model::operator&lt;&lt;</text>
</a>
</g>
</g>
<!-- Node1&#45;&gt;Node2 -->
<g id="edge1_Node000001_Node000002" class="edge">
<title>Node1&#45;&gt;Node2</title>
<g id="a_edge1_Node000001_Node000002"><a xlink:title=" ">
<path fill="none" stroke="#63b8ff" d="M437.13,-116.01C415.69,-124.96 389.27,-135.33 365,-143 353.84,-146.53 341.62,-149.74 330.17,-152.49"/>
<polygon fill="#63b8ff" stroke="#63b8ff" points="438.75,-119.13 446.61,-112.02 436.03,-112.68 438.75,-119.13"/>
</a>
</g>
</g>
<!-- Node3 -->
<g id="Node000003" class="node">
<title>Node3</title>
<g id="a_Node000003"><a xlink:href="classnetspeak_1_1model_1_1NormQueryUnit____.html#ad6a8f6f0ad9b7d031398e1b4b2f90f4d" target="_top" xlink:title=" ">
<polygon fill="white" stroke="#666666" points="364.5,-134 203.5,-134 203.5,-104 364.5,-104 364.5,-134"/>
<text text-anchor="start" x="211.5" y="-122" font-family="Helvetica,sans-Serif" font-size="10.00">netspeak::model::NormQuery</text>
<text text-anchor="middle" x="284" y="-111" font-family="Helvetica,sans-Serif" font-size="10.00">Unit__::operator==</text>
</a>
</g>
</g>
<!-- Node1&#45;&gt;Node3 -->
<g id="edge2_Node000001_Node000003" class="edge">
<title>Node1&#45;&gt;Node3</title>
<g id="a_edge2_Node000001_Node000003"><a xlink:title=" ">
<path fill="none" stroke="#63b8ff" d="M390.83,-107.09C382.14,-108.07 373.35,-109.06 364.76,-110.02"/>
<polygon fill="#63b8ff" stroke="#63b8ff" points="391.44,-110.54 400.98,-105.95 390.65,-103.59 391.44,-110.54"/>
</a>
</g>
</g>
<!-- Node4 -->
<g id="Node000004" class="node">
<title>Node4</title>
<g id="a_Node000004"><a xlink:href="namespacenetspeak_1_1model.html#a48cbc76c3e91dedbda542ebaac4d9302" target="_top" xlink:title=" ">
<polygon fill="white" stroke="#666666" points="365,-85.5 203,-85.5 203,-66.5 365,-66.5 365,-85.5"/>
<text text-anchor="middle" x="284" y="-73.5" font-family="Helvetica,sans-Serif" font-size="10.00">netspeak::model::operator==</text>
</a>
</g>
</g>
<!-- Node1&#45;&gt;Node4 -->
<g id="edge3_Node000001_Node000004" class="edge">
<title>Node1&#45;&gt;Node4</title>
<g id="a_edge3_Node000001_Node000004"><a xlink:title=" ">
<path fill="none" stroke="#63b8ff" d="M390.92,-87.38C382.3,-86.45 373.6,-85.52 365.08,-84.6"/>
<polygon fill="#63b8ff" stroke="#63b8ff" points="390.67,-90.87 400.98,-88.46 391.41,-83.91 390.67,-90.87"/>
</a>
</g>
</g>
<!-- Node5 -->
<g id="Node000005" class="node">
<title>Node5</title>
<g id="a_Node000005"><a xlink:href="namespacenetspeak_1_1model.html#a2e3fa40462fc88abd33620b09736dc0e" target="_top" xlink:title=" ">
<polygon fill="white" stroke="#666666" points="345.5,-30 222.5,-30 222.5,0 345.5,0 345.5,-30"/>
<text text-anchor="start" x="230.5" y="-18" font-family="Helvetica,sans-Serif" font-size="10.00">netspeak::model::unit</text>
<text text-anchor="middle" x="284" y="-7" font-family="Helvetica,sans-Serif" font-size="10.00">_contains_wildcards</text>
</a>
</g>
</g>
<!-- Node1&#45;&gt;Node5 -->
<g id="edge4_Node000001_Node000005" class="edge">
<title>Node1&#45;&gt;Node5</title>
<g id="a_edge4_Node000001_Node000005"><a xlink:title=" ">
<path fill="none" stroke="#63b8ff" d="M435.2,-78C400.45,-63.42 353.14,-43.58 320.96,-30.08"/>
<polygon fill="#63b8ff" stroke="#63b8ff" points="434.07,-81.32 444.64,-81.96 436.77,-74.86 434.07,-81.32"/>
</a>
</g>
</g>
<!-- Node5&#45;&gt;Node5 -->
<g id="edge6_Node000005_Node000005" class="edge">
<title>Node5&#45;&gt;Node5</title>
<g id="a_edge6_Node000005_Node000005"><a xlink:title=" ">
<path fill="none" stroke="#63b8ff" d="M318.31,-40.6C313.62,-44.97 302.18,-48 284,-48 253.38,-48 241.89,-39.41 249.55,-30.28"/>
<polygon fill="#63b8ff" stroke="#63b8ff" points="321.81,-40.32 318.45,-30.28 314.81,-40.22 321.81,-40.32"/>
</a>
</g>
</g>
<!-- Node6 -->
<g id="Node000006" class="node">
<title>Node6</title>
<g id="a_Node000006"><a xlink:href="classnetspeak_1_1model_1_1SimpleQuery.html#a5759acdd6e6a127b57a3975b0579fde9" target="_top" xlink:title=" ">
<polygon fill="white" stroke="#666666" points="167,-30 0,-30 0,0 167,0 167,-30"/>
<text text-anchor="start" x="8" y="-18" font-family="Helvetica,sans-Serif" font-size="10.00">netspeak::model::SimpleQuery</text>
<text text-anchor="middle" x="83.5" y="-7" font-family="Helvetica,sans-Serif" font-size="10.00">::has_wildcards</text>
</a>
</g>
</g>
<!-- Node5&#45;&gt;Node6 -->
<g id="edge5_Node000005_Node000006" class="edge">
<title>Node5&#45;&gt;Node6</title>
<g id="a_edge5_Node000005_Node000006"><a xlink:title=" ">
<path fill="none" stroke="#63b8ff" d="M211.95,-15C197.4,-15 181.97,-15 167.06,-15"/>
<polygon fill="#63b8ff" stroke="#63b8ff" points="212.36,-18.5 222.36,-15 212.36,-11.5 212.36,-18.5"/>
</a>
</g>
</g>
</g>
</svg>
