<?xml version="1.0" encoding="UTF-8" standalone="no"?>
<!DOCTYPE svg PUBLIC "-//W3C//DTD SVG 1.1//EN"
 "http://www.w3.org/Graphics/SVG/1.1/DTD/svg11.dtd">
<!-- Generated by graphviz version 2.43.0 (0)
 -->
<!-- Title: netspeak::invertedindex::SortedInput::write_current_postlist_ Pages: 1 -->
<svg width="1017pt" height="591pt"
 viewBox="0.00 0.00 1017.00 590.88" xmlns="http://www.w3.org/2000/svg" xmlns:xlink="http://www.w3.org/1999/xlink">
<g id="graph0" class="graph" transform="scale(1 1) rotate(0) translate(4 586.88)">
<title>netspeak::invertedindex::SortedInput::write_current_postlist_</title>
<!-- Node1 -->
<g id="Node000001" class="node">
<title>Node1</title>
<g id="a_Node000001"><a xlink:title=" ">
<polygon fill="#999999" stroke="#666666" points="149,-314.14 0,-314.14 0,-273.14 149,-273.14 149,-314.14"/>
<text text-anchor="start" x="8" y="-302.14" font-family="Helvetica,sans-Serif" font-size="10.00">netspeak::invertedindex</text>
<text text-anchor="start" x="8" y="-291.14" font-family="Helvetica,sans-Serif" font-size="10.00">::SortedInput::write_current</text>
<text text-anchor="middle" x="74.5" y="-280.14" font-family="Helvetica,sans-Serif" font-size="10.00">_postlist_</text>
</a>
</g>
</g>
<!-- Node2 -->
<g id="Node000002" class="node">
<title>Node2</title>
<g id="a_Node000002"><a xlink:href="classnetspeak_1_1invertedindex_1_1PostlistBuilder.html#aa133eb47feb79d3d4565aebc9d3c9c07" target="_top" xlink:title=" ">
<polygon fill="white" stroke="#666666" points="320,-430.64 185,-430.64 185,-400.64 320,-400.64 320,-430.64"/>
<text text-anchor="start" x="193" y="-418.64" font-family="Helvetica,sans-Serif" font-size="10.00">netspeak::invertedindex</text>
<text text-anchor="middle" x="252.5" y="-407.64" font-family="Helvetica,sans-Serif" font-size="10.00">::PostlistBuilder::build</text>
</a>
</g>
</g>
<!-- Node1&#45;&gt;Node2 -->
<g id="edge1_Node000001_Node000002" class="edge">
<title>Node1&#45;&gt;Node2</title>
<g id="a_edge1_Node000001_Node000002"><a xlink:title=" ">
<path fill="none" stroke="#63b8ff" d="M105.36,-314.34C137.63,-336.71 188.78,-372.17 221.22,-394.65"/>
<polygon fill="#63b8ff" stroke="#63b8ff" points="219.63,-397.81 229.84,-400.63 223.62,-392.05 219.63,-397.81"/>
</a>
</g>
</g>
<!-- Node13 -->
<g id="Node000013" class="node">
<title>Node13</title>
<g id="a_Node000013"><a xlink:href="classnetspeak_1_1invertedindex_1_1IndexStrategy.html#a8ebd3e75416a396d35d9dca2a6dcb399" target="_top" xlink:title=" ">
<polygon fill="white" stroke="#666666" points="320,-308.64 185,-308.64 185,-278.64 320,-278.64 320,-308.64"/>
<text text-anchor="start" x="193" y="-296.64" font-family="Helvetica,sans-Serif" font-size="10.00">netspeak::invertedindex</text>
<text text-anchor="middle" x="252.5" y="-285.64" font-family="Helvetica,sans-Serif" font-size="10.00">::IndexStrategy::config</text>
</a>
</g>
</g>
<!-- Node1&#45;&gt;Node13 -->
<g id="edge14_Node000001_Node000013" class="edge">
<title>Node1&#45;&gt;Node13</title>
<g id="a_edge14_Node000001_Node000013"><a xlink:title=" ">
<path fill="none" stroke="#63b8ff" d="M149.12,-293.64C157.56,-293.64 166.18,-293.64 174.66,-293.64"/>
<polygon fill="#63b8ff" stroke="#63b8ff" points="174.91,-297.14 184.91,-293.64 174.91,-290.14 174.91,-297.14"/>
</a>
</g>
</g>
<!-- Node14 -->
<g id="Node000014" class="node">
<title>Node14</title>
<g id="a_Node000014"><a xlink:href="classnetspeak_1_1invertedindex_1_1StorageWriter.html#a84b8042112d8e747ea62522d157c2249" target="_top" xlink:title=" ">
<polygon fill="white" stroke="#666666" points="320,-186.64 185,-186.64 185,-156.64 320,-156.64 320,-186.64"/>
<text text-anchor="start" x="193" y="-174.64" font-family="Helvetica,sans-Serif" font-size="10.00">netspeak::invertedindex</text>
<text text-anchor="middle" x="252.5" y="-163.64" font-family="Helvetica,sans-Serif" font-size="10.00">::StorageWriter::write</text>
</a>
</g>
</g>
<!-- Node1&#45;&gt;Node14 -->
<g id="edge15_Node000001_Node000014" class="edge">
<title>Node1&#45;&gt;Node14</title>
<g id="a_edge15_Node000001_Node000014"><a xlink:title=" ">
<path fill="none" stroke="#63b8ff" d="M105.36,-272.95C137.63,-250.58 188.78,-215.11 221.22,-192.63"/>
<polygon fill="#63b8ff" stroke="#63b8ff" points="223.62,-195.23 229.84,-186.65 219.63,-189.48 223.62,-195.23"/>
</a>
</g>
</g>
<!-- Node3 -->
<g id="Node000003" class="node">
<title>Node3</title>
<g id="a_Node000003"><a xlink:href="classnetspeak_1_1invertedindex_1_1PostlistBuilder.html#aa8341dc51b109df63b5114f1212a64b5" target="_top" xlink:title=" ">
<polygon fill="white" stroke="#666666" points="499.5,-334.64 364.5,-334.64 364.5,-304.64 499.5,-304.64 499.5,-334.64"/>
<text text-anchor="start" x="372.5" y="-322.64" font-family="Helvetica,sans-Serif" font-size="10.00">netspeak::invertedindex</text>
<text text-anchor="middle" x="432" y="-311.64" font-family="Helvetica,sans-Serif" font-size="10.00">::PostlistBuilder::clear</text>
</a>
</g>
</g>
<!-- Node2&#45;&gt;Node3 -->
<g id="edge2_Node000002_Node000003" class="edge">
<title>Node2&#45;&gt;Node3</title>
<g id="a_edge2_Node000002_Node000003"><a xlink:title=" ">
<path fill="none" stroke="#63b8ff" d="M271.32,-400.58C290.98,-384.59 324.06,-359.51 356,-343.64 359.72,-341.79 363.61,-340.05 367.58,-338.4"/>
<polygon fill="#63b8ff" stroke="#63b8ff" points="368.91,-341.64 376.95,-334.75 366.36,-335.12 368.91,-341.64"/>
</a>
</g>
</g>
<!-- Node7 -->
<g id="Node000007" class="node">
<title>Node7</title>
<g id="a_Node000007"><a xlink:href="classnetspeak_1_1invertedindex_1_1ByteBuffer.html#aa752333cd73080cff87f7baaa5c0edfe" target="_top" xlink:title=" ">
<polygon fill="white" stroke="#666666" points="499.5,-478.64 364.5,-478.64 364.5,-448.64 499.5,-448.64 499.5,-478.64"/>
<text text-anchor="start" x="372.5" y="-466.64" font-family="Helvetica,sans-Serif" font-size="10.00">netspeak::invertedindex</text>
<text text-anchor="middle" x="432" y="-455.64" font-family="Helvetica,sans-Serif" font-size="10.00">::ByteBuffer::end</text>
</a>
</g>
</g>
<!-- Node2&#45;&gt;Node7 -->
<g id="edge7_Node000002_Node000007" class="edge">
<title>Node2&#45;&gt;Node7</title>
<g id="a_edge7_Node000002_Node000007"><a xlink:title=" ">
<path fill="none" stroke="#63b8ff" d="M309.18,-430.7C327.1,-435.54 347.13,-440.96 365.68,-445.98"/>
<polygon fill="#63b8ff" stroke="#63b8ff" points="364.96,-449.41 375.52,-448.64 366.78,-442.65 364.96,-449.41"/>
</a>
</g>
</g>
<!-- Node8 -->
<g id="Node000008" class="node">
<title>Node8</title>
<g id="a_Node000008"><a xlink:href="classnetspeak_1_1invertedindex_1_1PostlistBuilder.html#a65cf7ffab2be1fb0a3ff7a9ec2906b9b" target="_top" xlink:title=" ">
<polygon fill="white" stroke="#666666" points="508,-430.64 356,-430.64 356,-400.64 508,-400.64 508,-430.64"/>
<text text-anchor="start" x="364" y="-418.64" font-family="Helvetica,sans-Serif" font-size="10.00">netspeak::invertedindex</text>
<text text-anchor="middle" x="432" y="-407.64" font-family="Helvetica,sans-Serif" font-size="10.00">::PostlistBuilder::has_swap_</text>
</a>
</g>
</g>
<!-- Node2&#45;&gt;Node8 -->
<g id="edge8_Node000002_Node000008" class="edge">
<title>Node2&#45;&gt;Node8</title>
<g id="a_edge8_Node000002_Node000008"><a xlink:title=" ">
<path fill="none" stroke="#63b8ff" d="M320.1,-415.64C328.51,-415.64 337.21,-415.64 345.86,-415.64"/>
<polygon fill="#63b8ff" stroke="#63b8ff" points="345.98,-419.14 355.98,-415.64 345.98,-412.14 345.98,-419.14"/>
</a>
</g>
</g>
<!-- Node9 -->
<g id="Node000009" class="node">
<title>Node9</title>
<g id="a_Node000009"><a xlink:href="classnetspeak_1_1invertedindex_1_1ByteBuffer.html#af6a5e40f34b9a46557e519b5a4998450" target="_top" xlink:title=" ">
<polygon fill="white" stroke="#666666" points="499.5,-382.64 364.5,-382.64 364.5,-352.64 499.5,-352.64 499.5,-382.64"/>
<text text-anchor="start" x="372.5" y="-370.64" font-family="Helvetica,sans-Serif" font-size="10.00">netspeak::invertedindex</text>
<text text-anchor="middle" x="432" y="-359.64" font-family="Helvetica,sans-Serif" font-size="10.00">::ByteBuffer::position</text>
</a>
</g>
</g>
<!-- Node2&#45;&gt;Node9 -->
<g id="edge9_Node000002_Node000009" class="edge">
<title>Node2&#45;&gt;Node9</title>
<g id="a_edge9_Node000002_Node000009"><a xlink:title=" ">
<path fill="none" stroke="#63b8ff" d="M309.18,-400.59C327.1,-395.74 347.13,-390.32 365.68,-385.31"/>
<polygon fill="#63b8ff" stroke="#63b8ff" points="366.78,-388.63 375.52,-382.64 364.96,-381.88 366.78,-388.63"/>
</a>
</g>
</g>
<!-- Node10 -->
<g id="Node000010" class="node">
<title>Node10</title>
<g id="a_Node000010"><a xlink:href="classnetspeak_1_1invertedindex_1_1ByteBuffer.html#a2e83fde864788328fa5ababc235e3036" target="_top" xlink:title=" ">
<polygon fill="white" stroke="#666666" points="499.5,-526.64 364.5,-526.64 364.5,-496.64 499.5,-496.64 499.5,-526.64"/>
<text text-anchor="start" x="372.5" y="-514.64" font-family="Helvetica,sans-Serif" font-size="10.00">netspeak::invertedindex</text>
<text text-anchor="middle" x="432" y="-503.64" font-family="Helvetica,sans-Serif" font-size="10.00">::ByteBuffer::put</text>
</a>
</g>
</g>
<!-- Node2&#45;&gt;Node10 -->
<g id="edge10_Node000002_Node000010" class="edge">
<title>Node2&#45;&gt;Node10</title>
<g id="a_edge10_Node000002_Node000010"><a xlink:title=" ">
<path fill="none" stroke="#63b8ff" d="M271.32,-430.71C290.98,-446.69 324.06,-471.78 356,-487.64 359.72,-489.49 363.61,-491.24 367.58,-492.88"/>
<polygon fill="#63b8ff" stroke="#63b8ff" points="366.36,-496.16 376.95,-496.53 368.91,-489.64 366.36,-496.16"/>
</a>
</g>
</g>
<!-- Node12 -->
<g id="Node000012" class="node">
<title>Node12</title>
<g id="a_Node000012"><a xlink:href="namespacenetspeak_1_1util.html#a0a70d04eac08c447619ba0fcdf796d19" target="_top" xlink:title=" ">
<polygon fill="white" stroke="#666666" points="860,-442.14 738,-442.14 738,-423.14 860,-423.14 860,-442.14"/>
<text text-anchor="middle" x="799" y="-430.14" font-family="Helvetica,sans-Serif" font-size="10.00">netspeak::util::rewind</text>
</a>
</g>
</g>
<!-- Node2&#45;&gt;Node12 -->
<g id="edge12_Node000002_Node000012" class="edge">
<title>Node2&#45;&gt;Node12</title>
<g id="a_edge12_Node000002_Node000012"><a xlink:title=" ">
<path fill="none" stroke="#63b8ff" d="M260.78,-430.68C274.81,-457.72 308.47,-513.73 356,-535.64 495.65,-600.02 560.98,-596.98 702,-535.64 741.78,-518.34 772.53,-475.54 787.67,-450.9"/>
<polygon fill="#63b8ff" stroke="#63b8ff" points="790.76,-452.54 792.85,-442.15 784.74,-448.97 790.76,-452.54"/>
</a>
</g>
</g>
<!-- Node4 -->
<g id="Node000004" class="node">
<title>Node4</title>
<g id="a_Node000004"><a xlink:href="namespacenetspeak_1_1util.html#a978978e70b474657b12402a3db711ef0" target="_top" xlink:title=" ">
<polygon fill="white" stroke="#666666" points="682.5,-286.14 563.5,-286.14 563.5,-267.14 682.5,-267.14 682.5,-286.14"/>
<text text-anchor="middle" x="623" y="-274.14" font-family="Helvetica,sans-Serif" font-size="10.00">netspeak::util::fclose</text>
</a>
</g>
</g>
<!-- Node3&#45;&gt;Node4 -->
<g id="edge3_Node000003_Node000004" class="edge">
<title>Node3&#45;&gt;Node4</title>
<g id="a_edge3_Node000003_Node000004"><a xlink:title=" ">
<path fill="none" stroke="#63b8ff" d="M499.1,-304.6C522.46,-299.29 548.36,-293.39 570.35,-288.39"/>
<polygon fill="#63b8ff" stroke="#63b8ff" points="571.17,-291.8 580.15,-286.16 569.62,-284.97 571.17,-291.8"/>
</a>
</g>
</g>
<!-- Node5 -->
<g id="Node000005" class="node">
<title>Node5</title>
<g id="a_Node000005"><a xlink:href="namespacenetspeak_1_1util.html#a4c91ad572508b4021399ac7dddff574d" target="_top" xlink:title=" ">
<polygon fill="white" stroke="#666666" points="1009,-200.14 896,-200.14 896,-181.14 1009,-181.14 1009,-200.14"/>
<text text-anchor="middle" x="952.5" y="-188.14" font-family="Helvetica,sans-Serif" font-size="10.00">netspeak::util::hash</text>
</a>
</g>
</g>
<!-- Node4&#45;&gt;Node5 -->
<g id="edge4_Node000004_Node000005" class="edge">
<title>Node4&#45;&gt;Node5</title>
<g id="a_edge4_Node000004_Node000005"><a xlink:title=" ">
<path fill="none" stroke="#63b8ff" d="M682.64,-269.34C730.97,-262.4 800.92,-250.23 860,-231.64 882.28,-224.63 906.33,-213.71 924.19,-204.9"/>
<polygon fill="#63b8ff" stroke="#63b8ff" points="926.05,-207.88 933.42,-200.26 922.91,-201.63 926.05,-207.88"/>
</a>
</g>
</g>
<!-- Node6 -->
<g id="Node000006" class="node">
<title>Node6</title>
<g id="a_Node000006"><a xlink:href="namespacenetspeak_1_1util.html#af94d48fda5f335ddcb461a8237079866" target="_top" xlink:title=" ">
<polygon fill="white" stroke="#666666" points="858.5,-205.64 739.5,-205.64 739.5,-175.64 858.5,-175.64 858.5,-205.64"/>
<text text-anchor="start" x="747.5" y="-193.64" font-family="Helvetica,sans-Serif" font-size="10.00">netspeak::util::signal</text>
<text text-anchor="middle" x="799" y="-182.64" font-family="Helvetica,sans-Serif" font-size="10.00">_error</text>
</a>
</g>
</g>
<!-- Node4&#45;&gt;Node6 -->
<g id="edge5_Node000004_Node000006" class="edge">
<title>Node4&#45;&gt;Node6</title>
<g id="a_edge5_Node000004_Node000006"><a xlink:title=" ">
<path fill="none" stroke="#63b8ff" d="M675.27,-267.03C684.37,-264.52 693.62,-261.43 702,-257.64 727.86,-245.96 754.07,-227.1 772.55,-212.35"/>
<polygon fill="#63b8ff" stroke="#63b8ff" points="774.92,-214.94 780.47,-205.91 770.51,-209.51 774.92,-214.94"/>
</a>
</g>
</g>
<!-- Node6&#45;&gt;Node5 -->
<g id="edge6_Node000006_Node000005" class="edge">
<title>Node6&#45;&gt;Node5</title>
<g id="a_edge6_Node000006_Node000005"><a xlink:title=" ">
<path fill="none" stroke="#63b8ff" d="M858.57,-190.64C867.41,-190.64 876.57,-190.64 885.54,-190.64"/>
<polygon fill="#63b8ff" stroke="#63b8ff" points="885.57,-194.14 895.57,-190.64 885.57,-187.14 885.57,-194.14"/>
</a>
</g>
</g>
<!-- Node11 -->
<g id="Node000011" class="node">
<title>Node11</title>
<g id="a_Node000011"><a xlink:href="classnetspeak_1_1invertedindex_1_1ByteBuffer.html#a5e811891fd5fe2fb29572fee4e148959" target="_top" xlink:title=" ">
<polygon fill="white" stroke="#666666" points="702,-526.64 544,-526.64 544,-496.64 702,-496.64 702,-526.64"/>
<text text-anchor="start" x="552" y="-514.64" font-family="Helvetica,sans-Serif" font-size="10.00">netspeak::invertedindex</text>
<text text-anchor="middle" x="623" y="-503.64" font-family="Helvetica,sans-Serif" font-size="10.00">::ByteBuffer::bytes_available</text>
</a>
</g>
</g>
<!-- Node10&#45;&gt;Node11 -->
<g id="edge11_Node000010_Node000011" class="edge">
<title>Node10&#45;&gt;Node11</title>
<g id="a_edge11_Node000010_Node000011"><a xlink:title=" ">
<path fill="none" stroke="#63b8ff" d="M499.63,-511.64C510.65,-511.64 522.22,-511.64 533.67,-511.64"/>
<polygon fill="#63b8ff" stroke="#63b8ff" points="533.68,-515.14 543.68,-511.64 533.68,-508.14 533.68,-515.14"/>
</a>
</g>
</g>
<!-- Node12&#45;&gt;Node5 -->
<g id="edge13_Node000012_Node000005" class="edge">
<title>Node12&#45;&gt;Node5</title>
<g id="a_edge13_Node000012_Node000005"><a xlink:title=" ">
<path fill="none" stroke="#63b8ff" d="M806.13,-422.86C829.02,-386.29 909.76,-257.32 939.97,-209.05"/>
<polygon fill="#63b8ff" stroke="#63b8ff" points="943.12,-210.62 945.46,-200.28 937.19,-206.9 943.12,-210.62"/>
</a>
</g>
</g>
<!-- Node14&#45;&gt;Node4 -->
<g id="edge19_Node000014_Node000004" class="edge">
<title>Node14&#45;&gt;Node4</title>
<g id="a_edge19_Node000014_Node000004"><a xlink:title=" ">
<path fill="none" stroke="#63b8ff" d="M265.87,-186.75C283.48,-207.01 317.89,-242.21 356,-257.64 419.33,-283.28 498.03,-285.67 553.34,-283.1"/>
<polygon fill="#63b8ff" stroke="#63b8ff" points="553.59,-286.59 563.39,-282.57 553.22,-279.6 553.59,-286.59"/>
</a>
</g>
</g>
<!-- Node15 -->
<g id="Node000015" class="node">
<title>Node15</title>
<g id="a_Node000015"><a xlink:href="classnetspeak_1_1invertedindex_1_1RawPostlist.html#ac5d2a32a3cde87dbcf2312d97d8a86f8" target="_top" xlink:title=" ">
<polygon fill="white" stroke="#666666" points="499.5,-76.64 364.5,-76.64 364.5,-46.64 499.5,-46.64 499.5,-76.64"/>
<text text-anchor="start" x="372.5" y="-64.64" font-family="Helvetica,sans-Serif" font-size="10.00">netspeak::invertedindex</text>
<text text-anchor="middle" x="432" y="-53.64" font-family="Helvetica,sans-Serif" font-size="10.00">::RawPostlist::byte_size</text>
</a>
</g>
</g>
<!-- Node14&#45;&gt;Node15 -->
<g id="edge16_Node000014_Node000015" class="edge">
<title>Node14&#45;&gt;Node15</title>
<g id="a_edge16_Node000014_Node000015"><a xlink:title=" ">
<path fill="none" stroke="#63b8ff" d="M267.74,-156.5C286.37,-137.5 320.81,-105.05 356,-85.64 359.24,-83.85 362.64,-82.17 366.12,-80.6"/>
<polygon fill="#63b8ff" stroke="#63b8ff" points="367.61,-83.77 375.49,-76.69 364.91,-77.31 367.61,-83.77"/>
</a>
</g>
</g>
<!-- Node16 -->
<g id="Node000016" class="node">
<title>Node16</title>
<g id="a_Node000016"><a xlink:href="classnetspeak_1_1invertedindex_1_1RawPostlist.html#ad46e560ad871f7be03ab6ecb53b89a76" target="_top" xlink:title=" ">
<polygon fill="white" stroke="#666666" points="499.5,-248.64 364.5,-248.64 364.5,-218.64 499.5,-218.64 499.5,-248.64"/>
<text text-anchor="start" x="372.5" y="-236.64" font-family="Helvetica,sans-Serif" font-size="10.00">netspeak::invertedindex</text>
<text text-anchor="middle" x="432" y="-225.64" font-family="Helvetica,sans-Serif" font-size="10.00">::RawPostlist::empty</text>
</a>
</g>
</g>
<!-- Node14&#45;&gt;Node16 -->
<g id="edge17_Node000014_Node000016" class="edge">
<title>Node14&#45;&gt;Node16</title>
<g id="a_edge17_Node000014_Node000016"><a xlink:title=" ">
<path fill="none" stroke="#63b8ff" d="M296.47,-186.65C321.03,-195.23 352.04,-206.06 378.09,-215.16"/>
<polygon fill="#63b8ff" stroke="#63b8ff" points="377.22,-218.56 387.81,-218.56 379.53,-211.95 377.22,-218.56"/>
</a>
</g>
</g>
<!-- Node18 -->
<g id="Node000018" class="node">
<title>Node18</title>
<g id="a_Node000018"><a xlink:href="namespacenetspeak_1_1util.html#a4acc3d13f8d541f4b65dd44f486403fd" target="_top" xlink:title=" ">
<polygon fill="white" stroke="#666666" points="681.5,-200.14 564.5,-200.14 564.5,-181.14 681.5,-181.14 681.5,-200.14"/>
<text text-anchor="middle" x="623" y="-188.14" font-family="Helvetica,sans-Serif" font-size="10.00">netspeak::util::fopen</text>
</a>
</g>
</g>
<!-- Node14&#45;&gt;Node18 -->
<g id="edge20_Node000014_Node000018" class="edge">
<title>Node14&#45;&gt;Node18</title>
<g id="a_edge20_Node000014_Node000018"><a xlink:title=" ">
<path fill="none" stroke="#63b8ff" d="M320.23,-175.08C386.38,-178.49 487.22,-183.69 553.85,-187.13"/>
<polygon fill="#63b8ff" stroke="#63b8ff" points="554.08,-190.64 564.24,-187.66 554.44,-183.65 554.08,-190.64"/>
</a>
</g>
</g>
<!-- Node19 -->
<g id="Node000019" class="node">
<title>Node19</title>
<g id="a_Node000019"><a xlink:href="namespacenetspeak_1_1util.html#a40f06a45e10cacbbc067fdd36cb252b0" target="_top" xlink:title=" ">
<polygon fill="white" stroke="#666666" points="677,-162.14 569,-162.14 569,-143.14 677,-143.14 677,-162.14"/>
<text text-anchor="middle" x="623" y="-150.14" font-family="Helvetica,sans-Serif" font-size="10.00">netspeak::util::ftell</text>
</a>
</g>
</g>
<!-- Node14&#45;&gt;Node19 -->
<g id="edge23_Node000014_Node000019" class="edge">
<title>Node14&#45;&gt;Node19</title>
<g id="a_edge23_Node000014_Node000019"><a xlink:title=" ">
<path fill="none" stroke="#63b8ff" d="M320.23,-168.2C387.96,-164.71 492.04,-159.34 558.55,-155.91"/>
<polygon fill="#63b8ff" stroke="#63b8ff" points="559.09,-159.39 568.9,-155.38 558.73,-152.4 559.09,-159.39"/>
</a>
</g>
</g>
<!-- Node20 -->
<g id="Node000020" class="node">
<title>Node20</title>
<g id="a_Node000020"><a xlink:href="namespacenetspeak_1_1util.html#ac8b0cdf55599b33fd7d4013948d48f43" target="_top" xlink:title=" ">
<polygon fill="white" stroke="#666666" points="848.5,-57.64 749.5,-57.64 749.5,-27.64 848.5,-27.64 848.5,-57.64"/>
<text text-anchor="start" x="757.5" y="-45.64" font-family="Helvetica,sans-Serif" font-size="10.00">netspeak::util::to</text>
<text text-anchor="middle" x="799" y="-34.64" font-family="Helvetica,sans-Serif" font-size="10.00">_string</text>
</a>
</g>
</g>
<!-- Node14&#45;&gt;Node20 -->
<g id="edge26_Node000014_Node000020" class="edge">
<title>Node14&#45;&gt;Node20</title>
<g id="a_edge26_Node000014_Node000020"><a xlink:title=" ">
<path fill="none" stroke="#63b8ff" d="M259.66,-156.3C272.46,-126.79 305.06,-62.81 356,-37.64 481.04,24.14 651.32,-4.32 739.57,-26.03"/>
<polygon fill="#63b8ff" stroke="#63b8ff" points="738.85,-29.46 749.4,-28.5 740.56,-22.67 738.85,-29.46"/>
</a>
</g>
</g>
<!-- Node21 -->
<g id="Node000021" class="node">
<title>Node21</title>
<g id="a_Node000021"><a xlink:href="classnetspeak_1_1invertedindex_1_1RawPostlist.html#a8a1f20f0a3701426a49832d0c34637d8" target="_top" xlink:title=" ">
<polygon fill="white" stroke="#666666" points="499.5,-124.64 364.5,-124.64 364.5,-94.64 499.5,-94.64 499.5,-124.64"/>
<text text-anchor="start" x="372.5" y="-112.64" font-family="Helvetica,sans-Serif" font-size="10.00">netspeak::invertedindex</text>
<text text-anchor="middle" x="432" y="-101.64" font-family="Helvetica,sans-Serif" font-size="10.00">::RawPostlist::write</text>
</a>
</g>
</g>
<!-- Node14&#45;&gt;Node21 -->
<g id="edge28_Node000014_Node000021" class="edge">
<title>Node14&#45;&gt;Node21</title>
<g id="a_edge28_Node000014_Node000021"><a xlink:title=" ">
<path fill="none" stroke="#63b8ff" d="M296.47,-156.63C321.03,-148.05 352.04,-137.22 378.09,-128.12"/>
<polygon fill="#63b8ff" stroke="#63b8ff" points="379.53,-131.33 387.81,-124.73 377.22,-124.72 379.53,-131.33"/>
</a>
</g>
</g>
<!-- Node17 -->
<g id="Node000017" class="node">
<title>Node17</title>
<g id="a_Node000017"><a xlink:href="classnetspeak_1_1invertedindex_1_1RawPostlist.html#aafc5e8df8e1718bb2e644538a5acd17a" target="_top" xlink:title=" ">
<polygon fill="white" stroke="#666666" points="690.5,-248.64 555.5,-248.64 555.5,-218.64 690.5,-218.64 690.5,-248.64"/>
<text text-anchor="start" x="563.5" y="-236.64" font-family="Helvetica,sans-Serif" font-size="10.00">netspeak::invertedindex</text>
<text text-anchor="middle" x="623" y="-225.64" font-family="Helvetica,sans-Serif" font-size="10.00">::RawPostlist::size</text>
</a>
</g>
</g>
<!-- Node16&#45;&gt;Node17 -->
<g id="edge18_Node000016_Node000017" class="edge">
<title>Node16&#45;&gt;Node17</title>
<g id="a_edge18_Node000016_Node000017"><a xlink:title=" ">
<path fill="none" stroke="#63b8ff" d="M499.63,-233.64C514.31,-233.64 529.98,-233.64 545.03,-233.64"/>
<polygon fill="#63b8ff" stroke="#63b8ff" points="545.33,-237.14 555.33,-233.64 545.33,-230.14 545.33,-237.14"/>
</a>
</g>
</g>
<!-- Node18&#45;&gt;Node5 -->
<g id="edge21_Node000018_Node000005" class="edge">
<title>Node18&#45;&gt;Node5</title>
<g id="a_edge21_Node000018_Node000005"><a xlink:title=" ">
<path fill="none" stroke="#63b8ff" d="M659.89,-200.2C682.19,-205.63 711.55,-211.89 738,-214.64 791.93,-220.26 806.22,-221.58 860,-214.64 877.67,-212.36 896.8,-207.71 912.97,-203.09"/>
<polygon fill="#63b8ff" stroke="#63b8ff" points="914.02,-206.44 922.62,-200.25 912.04,-199.72 914.02,-206.44"/>
</a>
</g>
</g>
<!-- Node18&#45;&gt;Node6 -->
<g id="edge22_Node000018_Node000006" class="edge">
<title>Node18&#45;&gt;Node6</title>
<g id="a_edge22_Node000018_Node000006"><a xlink:title=" ">
<path fill="none" stroke="#63b8ff" d="M681.94,-190.64C697.1,-190.64 713.6,-190.64 729.27,-190.64"/>
<polygon fill="#63b8ff" stroke="#63b8ff" points="729.42,-194.14 739.42,-190.64 729.42,-187.14 729.42,-194.14"/>
</a>
</g>
</g>
<!-- Node19&#45;&gt;Node5 -->
<g id="edge24_Node000019_Node000005" class="edge">
<title>Node19&#45;&gt;Node5</title>
<g id="a_edge24_Node000019_Node000005"><a xlink:title=" ">
<path fill="none" stroke="#63b8ff" d="M677.28,-152.81C725.33,-153.68 797.78,-156.74 860,-166.64 877.03,-169.35 895.48,-173.88 911.33,-178.27"/>
<polygon fill="#63b8ff" stroke="#63b8ff" points="910.74,-181.75 921.32,-181.12 912.66,-175.01 910.74,-181.75"/>
</a>
</g>
</g>
<!-- Node19&#45;&gt;Node6 -->
<g id="edge25_Node000019_Node000006" class="edge">
<title>Node19&#45;&gt;Node6</title>
<g id="a_edge25_Node000019_Node000006"><a xlink:title=" ">
<path fill="none" stroke="#63b8ff" d="M667.91,-162.23C686.51,-166.29 708.63,-171.12 729.3,-175.64"/>
<polygon fill="#63b8ff" stroke="#63b8ff" points="728.79,-179.11 739.31,-177.82 730.29,-172.27 728.79,-179.11"/>
</a>
</g>
</g>
<!-- Node20&#45;&gt;Node5 -->
<g id="edge27_Node000020_Node000005" class="edge">
<title>Node20&#45;&gt;Node5</title>
<g id="a_edge27_Node000020_Node000005"><a xlink:title=" ">
<path fill="none" stroke="#63b8ff" d="M817.93,-57.81C830.03,-68.22 846.25,-82.47 860,-95.64 887.49,-121.97 917.87,-154.17 935.78,-173.51"/>
<polygon fill="#63b8ff" stroke="#63b8ff" points="933.3,-175.98 942.66,-180.96 938.45,-171.23 933.3,-175.98"/>
</a>
</g>
</g>
<!-- Node22 -->
<g id="Node000022" class="node">
<title>Node22</title>
<g id="a_Node000022"><a xlink:href="namespacenetspeak_1_1util.html#a33fbb28caf0f5be34cbce2f84faecb87" target="_top" xlink:title=" ">
<polygon fill="white" stroke="#666666" points="681.5,-119.14 564.5,-119.14 564.5,-100.14 681.5,-100.14 681.5,-119.14"/>
<text text-anchor="middle" x="623" y="-107.14" font-family="Helvetica,sans-Serif" font-size="10.00">netspeak::util::fwrite</text>
</a>
</g>
</g>
<!-- Node21&#45;&gt;Node22 -->
<g id="edge29_Node000021_Node000022" class="edge">
<title>Node21&#45;&gt;Node22</title>
<g id="a_edge29_Node000021_Node000022"><a xlink:title=" ">
<path fill="none" stroke="#63b8ff" d="M499.63,-109.64C517.31,-109.64 536.42,-109.64 554.16,-109.64"/>
<polygon fill="#63b8ff" stroke="#63b8ff" points="554.43,-113.14 564.43,-109.64 554.43,-106.14 554.43,-113.14"/>
</a>
</g>
</g>
<!-- Node22&#45;&gt;Node5 -->
<g id="edge30_Node000022_Node000005" class="edge">
<title>Node22&#45;&gt;Node5</title>
<g id="a_edge30_Node000022_Node000005"><a xlink:title=" ">
<path fill="none" stroke="#63b8ff" d="M681.59,-116.18C729.9,-122.54 800.37,-133.88 860,-151.64 881.92,-158.17 905.66,-168.39 923.46,-176.72"/>
<polygon fill="#63b8ff" stroke="#63b8ff" points="922.16,-179.98 932.69,-181.13 925.17,-173.66 922.16,-179.98"/>
</a>
</g>
</g>
<!-- Node22&#45;&gt;Node6 -->
<g id="edge31_Node000022_Node000006" class="edge">
<title>Node22&#45;&gt;Node6</title>
<g id="a_edge31_Node000022_Node000006"><a xlink:title=" ">
<path fill="none" stroke="#63b8ff" d="M661.56,-119.24C674.61,-123.08 689.18,-127.96 702,-133.64 724.84,-143.76 749.02,-158.15 767.4,-169.93"/>
<polygon fill="#63b8ff" stroke="#63b8ff" points="765.63,-172.96 775.93,-175.48 769.45,-167.09 765.63,-172.96"/>
</a>
</g>
</g>
</g>
</svg>
