<?xml version="1.0" encoding="UTF-8" standalone="no"?>
<!DOCTYPE svg PUBLIC "-//W3C//DTD SVG 1.1//EN"
 "http://www.w3.org/Graphics/SVG/1.1/DTD/svg11.dtd">
<!-- Generated by graphviz version 2.43.0 (0)
 -->
<!-- Title: netspeak::bighashmap::Builder::BuildHashFunction Pages: 1 -->
<svg width="785pt" height="228pt"
 viewBox="0.00 0.00 785.00 228.46" xmlns="http://www.w3.org/2000/svg" xmlns:xlink="http://www.w3.org/1999/xlink">
<g id="graph0" class="graph" transform="scale(1 1) rotate(0) translate(4 224.46)">
<title>netspeak::bighashmap::Builder::BuildHashFunction</title>
<!-- Node1 -->
<g id="Node000001" class="node">
<title>Node1</title>
<g id="a_Node000001"><a xlink:title=" ">
<polygon fill="#999999" stroke="#666666" points="154,-161 0,-161 0,-131 154,-131 154,-161"/>
<text text-anchor="start" x="8" y="-149" font-family="Helvetica,sans-Serif" font-size="10.00">netspeak::bighashmap</text>
<text text-anchor="middle" x="77" y="-138" font-family="Helvetica,sans-Serif" font-size="10.00">::Builder::BuildHashFunction</text>
</a>
</g>
</g>
<!-- Node2 -->
<g id="Node000002" class="node">
<title>Node2</title>
<g id="a_Node000002"><a xlink:href="namespacenetspeak_1_1util.html#a978978e70b474657b12402a3db711ef0" target="_top" xlink:title=" ">
<polygon fill="white" stroke="#666666" points="473,-196.5 354,-196.5 354,-177.5 473,-177.5 473,-196.5"/>
<text text-anchor="middle" x="413.5" y="-184.5" font-family="Helvetica,sans-Serif" font-size="10.00">netspeak::util::fclose</text>
</a>
</g>
</g>
<!-- Node1&#45;&gt;Node2 -->
<g id="edge1_Node000001_Node000002" class="edge">
<title>Node1&#45;&gt;Node2</title>
<g id="a_edge1_Node000001_Node000002"><a xlink:title=" ">
<path fill="none" stroke="#63b8ff" d="M154.21,-155.56C166.18,-157.06 178.43,-158.57 190,-160 241.59,-166.36 299.93,-173.43 343.93,-178.74"/>
<polygon fill="#63b8ff" stroke="#63b8ff" points="343.59,-182.23 353.93,-179.95 344.43,-175.28 343.59,-182.23"/>
</a>
</g>
</g>
<!-- Node5 -->
<g id="Node000005" class="node">
<title>Node5</title>
<g id="a_Node000005"><a xlink:href="namespacenetspeak_1_1util.html#a4acc3d13f8d541f4b65dd44f486403fd" target="_top" xlink:title=" ">
<polygon fill="white" stroke="#666666" points="472,-155.5 355,-155.5 355,-136.5 472,-136.5 472,-155.5"/>
<text text-anchor="middle" x="413.5" y="-143.5" font-family="Helvetica,sans-Serif" font-size="10.00">netspeak::util::fopen</text>
</a>
</g>
</g>
<!-- Node1&#45;&gt;Node5 -->
<g id="edge5_Node000001_Node000005" class="edge">
<title>Node1&#45;&gt;Node5</title>
<g id="a_edge5_Node000001_Node000005"><a xlink:title=" ">
<path fill="none" stroke="#63b8ff" d="M154.32,-146C211.68,-146 289.55,-146 344.72,-146"/>
<polygon fill="#63b8ff" stroke="#63b8ff" points="344.75,-149.5 354.75,-146 344.75,-142.5 344.75,-149.5"/>
</a>
</g>
</g>
<!-- Node6 -->
<g id="Node000006" class="node">
<title>Node6</title>
<g id="a_Node000006"><a xlink:href="classnetspeak_1_1bighashmap_1_1Builder.html#aea46a1ff17f1139f366352a804b28cc9" target="_top" xlink:title=" ">
<polygon fill="white" stroke="#666666" points="318,-99 190,-99 190,-69 318,-69 318,-99"/>
<text text-anchor="start" x="198" y="-87" font-family="Helvetica,sans-Serif" font-size="10.00">netspeak::bighashmap</text>
<text text-anchor="middle" x="254" y="-76" font-family="Helvetica,sans-Serif" font-size="10.00">::Builder::IsUnique</text>
</a>
</g>
</g>
<!-- Node1&#45;&gt;Node6 -->
<g id="edge8_Node000001_Node000006" class="edge">
<title>Node1&#45;&gt;Node6</title>
<g id="a_edge8_Node000001_Node000006"><a xlink:title=" ">
<path fill="none" stroke="#63b8ff" d="M120.36,-130.99C144.58,-122.41 175.15,-111.58 200.84,-102.48"/>
<polygon fill="#63b8ff" stroke="#63b8ff" points="202.16,-105.72 210.42,-99.09 199.83,-99.13 202.16,-105.72"/>
</a>
</g>
</g>
<!-- Node3 -->
<g id="Node000003" class="node">
<title>Node3</title>
<g id="a_Node000003"><a xlink:href="namespacenetspeak_1_1util.html#a4c91ad572508b4021399ac7dddff574d" target="_top" xlink:title=" ">
<polygon fill="white" stroke="#666666" points="777,-153.5 664,-153.5 664,-134.5 777,-134.5 777,-153.5"/>
<text text-anchor="middle" x="720.5" y="-141.5" font-family="Helvetica,sans-Serif" font-size="10.00">netspeak::util::hash</text>
</a>
</g>
</g>
<!-- Node2&#45;&gt;Node3 -->
<g id="edge2_Node000002_Node000003" class="edge">
<title>Node2&#45;&gt;Node3</title>
<g id="a_edge2_Node000002_Node000003"><a xlink:title=" ">
<path fill="none" stroke="#63b8ff" d="M439.85,-196.58C480.57,-210.48 562.59,-232.39 628,-211 657.91,-201.22 686.14,-177.53 703.13,-161.12"/>
<polygon fill="#63b8ff" stroke="#63b8ff" points="705.92,-163.28 710.52,-153.74 700.97,-158.32 705.92,-163.28"/>
</a>
</g>
</g>
<!-- Node4 -->
<g id="Node000004" class="node">
<title>Node4</title>
<g id="a_Node000004"><a xlink:href="namespacenetspeak_1_1util.html#af94d48fda5f335ddcb461a8237079866" target="_top" xlink:title=" ">
<polygon fill="white" stroke="#666666" points="628,-202 509,-202 509,-172 628,-172 628,-202"/>
<text text-anchor="start" x="517" y="-190" font-family="Helvetica,sans-Serif" font-size="10.00">netspeak::util::signal</text>
<text text-anchor="middle" x="568.5" y="-179" font-family="Helvetica,sans-Serif" font-size="10.00">_error</text>
</a>
</g>
</g>
<!-- Node2&#45;&gt;Node4 -->
<g id="edge3_Node000002_Node000004" class="edge">
<title>Node2&#45;&gt;Node4</title>
<g id="a_edge3_Node000002_Node000004"><a xlink:title=" ">
<path fill="none" stroke="#63b8ff" d="M473.22,-187C481.54,-187 490.17,-187 498.67,-187"/>
<polygon fill="#63b8ff" stroke="#63b8ff" points="498.94,-190.5 508.94,-187 498.94,-183.5 498.94,-190.5"/>
</a>
</g>
</g>
<!-- Node4&#45;&gt;Node3 -->
<g id="edge4_Node000004_Node000003" class="edge">
<title>Node4&#45;&gt;Node3</title>
<g id="a_edge4_Node000004_Node000003"><a xlink:title=" ">
<path fill="none" stroke="#63b8ff" d="M621.96,-171.96C639.76,-166.86 659.42,-161.22 676.4,-156.35"/>
<polygon fill="#63b8ff" stroke="#63b8ff" points="677.41,-159.71 686.06,-153.59 675.48,-152.98 677.41,-159.71"/>
</a>
</g>
</g>
<!-- Node5&#45;&gt;Node3 -->
<g id="edge6_Node000005_Node000003" class="edge">
<title>Node5&#45;&gt;Node3</title>
<g id="a_edge6_Node000005_Node000003"><a xlink:title=" ">
<path fill="none" stroke="#63b8ff" d="M472.23,-145.62C523.9,-145.28 599.63,-144.79 653.65,-144.43"/>
<polygon fill="#63b8ff" stroke="#63b8ff" points="653.83,-147.93 663.81,-144.37 653.79,-140.93 653.83,-147.93"/>
</a>
</g>
</g>
<!-- Node5&#45;&gt;Node4 -->
<g id="edge7_Node000005_Node000004" class="edge">
<title>Node5&#45;&gt;Node4</title>
<g id="a_edge7_Node000005_Node000004"><a xlink:title=" ">
<path fill="none" stroke="#63b8ff" d="M449.99,-155.51C465.33,-159.62 483.8,-164.57 501.5,-169.31"/>
<polygon fill="#63b8ff" stroke="#63b8ff" points="500.67,-172.71 511.23,-171.92 502.48,-165.95 500.67,-172.71"/>
</a>
</g>
</g>
<!-- Node7 -->
<g id="Node000007" class="node">
<title>Node7</title>
<g id="a_Node000007"><a xlink:href="namespacenetspeak_1_1util.html#ad2441a387c3a4c47e09c373e9412fad0" target="_top" xlink:title=" ">
<polygon fill="white" stroke="#666666" points="465.5,-81.5 361.5,-81.5 361.5,-62.5 465.5,-62.5 465.5,-81.5"/>
<text text-anchor="middle" x="413.5" y="-69.5" font-family="Helvetica,sans-Serif" font-size="10.00">netspeak::util::log</text>
</a>
</g>
</g>
<!-- Node6&#45;&gt;Node7 -->
<g id="edge9_Node000006_Node000007" class="edge">
<title>Node6&#45;&gt;Node7</title>
<g id="a_edge9_Node000006_Node000007"><a xlink:title=" ">
<path fill="none" stroke="#63b8ff" d="M318.15,-79.19C329.05,-78.36 340.36,-77.5 351.21,-76.67"/>
<polygon fill="#63b8ff" stroke="#63b8ff" points="351.73,-80.14 361.43,-75.89 351.2,-73.16 351.73,-80.14"/>
</a>
</g>
</g>
<!-- Node7&#45;&gt;Node3 -->
<g id="edge11_Node000007_Node000003" class="edge">
<title>Node7&#45;&gt;Node3</title>
<g id="a_edge11_Node000007_Node000003"><a xlink:title=" ">
<path fill="none" stroke="#63b8ff" d="M455,-81.56C510.15,-94.58 608.84,-117.88 668.82,-132.04"/>
<polygon fill="#63b8ff" stroke="#63b8ff" points="668.29,-135.51 678.83,-134.4 669.9,-128.7 668.29,-135.51"/>
</a>
</g>
</g>
<!-- Node8 -->
<g id="Node000008" class="node">
<title>Node8</title>
<g id="a_Node000008"><a xlink:href="namespacenetspeak_1_1util.html#ab27a22c787271513007af0719b17cef9" target="_top" xlink:title=" ">
<polygon fill="white" stroke="#666666" points="621,-78 516,-78 516,-48 621,-48 621,-78"/>
<text text-anchor="start" x="524" y="-66" font-family="Helvetica,sans-Serif" font-size="10.00">netspeak::util::get</text>
<text text-anchor="middle" x="568.5" y="-55" font-family="Helvetica,sans-Serif" font-size="10.00">_log_mutex</text>
</a>
</g>
</g>
<!-- Node7&#45;&gt;Node8 -->
<g id="edge10_Node000007_Node000008" class="edge">
<title>Node7&#45;&gt;Node8</title>
<g id="a_edge10_Node000007_Node000008"><a xlink:title=" ">
<path fill="none" stroke="#63b8ff" d="M465.87,-68.98C478.55,-68.23 492.25,-67.43 505.37,-66.65"/>
<polygon fill="#63b8ff" stroke="#63b8ff" points="505.96,-70.13 515.74,-66.04 505.55,-63.14 505.96,-70.13"/>
</a>
</g>
</g>
<!-- Node9 -->
<g id="Node000009" class="node">
<title>Node9</title>
<g id="a_Node000009"><a xlink:href="namespacenetspeak_1_1util.html#a93e18aaa529a497b6afdf4b3bd221182" target="_top" xlink:title=" ">
<polygon fill="white" stroke="#666666" points="624.5,-30 512.5,-30 512.5,0 624.5,0 624.5,-30"/>
<text text-anchor="start" x="520.5" y="-18" font-family="Helvetica,sans-Serif" font-size="10.00">netspeak::util::print</text>
<text text-anchor="middle" x="568.5" y="-7" font-family="Helvetica,sans-Serif" font-size="10.00">_timestamp_to</text>
</a>
</g>
</g>
<!-- Node7&#45;&gt;Node9 -->
<g id="edge12_Node000007_Node000009" class="edge">
<title>Node7&#45;&gt;Node9</title>
<g id="a_edge12_Node000007_Node000009"><a xlink:title=" ">
<path fill="none" stroke="#63b8ff" d="M440.11,-62.46C461.15,-54.62 491.6,-43.27 517.46,-33.64"/>
<polygon fill="#63b8ff" stroke="#63b8ff" points="518.96,-36.82 527.11,-30.05 516.52,-30.26 518.96,-36.82"/>
</a>
</g>
</g>
<!-- Node9&#45;&gt;Node3 -->
<g id="edge13_Node000009_Node000003" class="edge">
<title>Node9&#45;&gt;Node3</title>
<g id="a_edge13_Node000009_Node000003"><a xlink:title=" ">
<path fill="none" stroke="#63b8ff" d="M612.9,-30.1C618.19,-32.71 623.36,-35.68 628,-39 662.03,-63.38 691.89,-102.81 707.65,-125.78"/>
<polygon fill="#63b8ff" stroke="#63b8ff" points="704.85,-127.91 713.33,-134.26 710.67,-124.01 704.85,-127.91"/>
</a>
</g>
</g>
</g>
</svg>
