<?xml version="1.0" encoding="UTF-8" standalone="no"?>
<!DOCTYPE svg PUBLIC "-//W3C//DTD SVG 1.1//EN"
 "http://www.w3.org/Graphics/SVG/1.1/DTD/svg11.dtd">
<!-- Generated by graphviz version 2.43.0 (0)
 -->
<!-- Title: netspeak::Netspeak::process_wildcard_query_ Pages: 1 -->
<svg width="699pt" height="205pt"
 viewBox="0.00 0.00 699.00 204.50" xmlns="http://www.w3.org/2000/svg" xmlns:xlink="http://www.w3.org/1999/xlink">
<g id="graph0" class="graph" transform="scale(1 1) rotate(0) translate(4 200.5)">
<title>netspeak::Netspeak::process_wildcard_query_</title>
<!-- Node1 -->
<g id="Node000001" class="node">
<title>Node1</title>
<g id="a_Node000001"><a xlink:title=" ">
<polygon fill="#999999" stroke="#666666" points="145,-159 0,-159 0,-129 145,-129 145,-159"/>
<text text-anchor="start" x="8" y="-147" font-family="Helvetica,sans-Serif" font-size="10.00">netspeak::Netspeak</text>
<text text-anchor="middle" x="72.5" y="-136" font-family="Helvetica,sans-Serif" font-size="10.00">::process_wildcard_query_</text>
</a>
</g>
</g>
<!-- Node2 -->
<g id="Node000002" class="node">
<title>Node2</title>
<g id="a_Node000002"><a xlink:href="namespacenetspeak.html#abdb7d378bf744897cc6616601a27595d" target="_top" xlink:title=" ">
<polygon fill="white" stroke="#666666" points="333,-196.5 181,-196.5 181,-177.5 333,-177.5 333,-196.5"/>
<text text-anchor="middle" x="257" y="-184.5" font-family="Helvetica,sans-Serif" font-size="10.00">netspeak::is_prunable_from</text>
</a>
</g>
</g>
<!-- Node1&#45;&gt;Node2 -->
<g id="edge1_Node000001_Node000002" class="edge">
<title>Node1&#45;&gt;Node2</title>
<g id="a_edge1_Node000001_Node000002"><a xlink:title=" ">
<path fill="none" stroke="#63b8ff" d="M137.33,-159.04C159.78,-164.33 184.67,-170.19 205.84,-175.18"/>
<polygon fill="#63b8ff" stroke="#63b8ff" points="205.05,-178.59 215.59,-177.48 206.66,-171.78 205.05,-178.59"/>
</a>
</g>
</g>
<!-- Node3 -->
<g id="Node000003" class="node">
<title>Node3</title>
<g id="a_Node000003"><a xlink:href="namespacenetspeak.html#ae7f7321abeae1a74ab51068b929fbab6" target="_top" xlink:title="Returns a unique string representation for the given query.">
<polygon fill="white" stroke="#666666" points="320,-159 194,-159 194,-129 320,-129 320,-159"/>
<text text-anchor="start" x="202" y="-147" font-family="Helvetica,sans-Serif" font-size="10.00">netspeak::norm_query</text>
<text text-anchor="middle" x="257" y="-136" font-family="Helvetica,sans-Serif" font-size="10.00">_to_key</text>
</a>
</g>
</g>
<!-- Node1&#45;&gt;Node3 -->
<g id="edge2_Node000001_Node000003" class="edge">
<title>Node1&#45;&gt;Node3</title>
<g id="a_edge2_Node000001_Node000003"><a xlink:title=" ">
<path fill="none" stroke="#63b8ff" d="M145.11,-144C157.79,-144 171.01,-144 183.71,-144"/>
<polygon fill="#63b8ff" stroke="#63b8ff" points="183.77,-147.5 193.77,-144 183.77,-140.5 183.77,-147.5"/>
</a>
</g>
</g>
<!-- Node5 -->
<g id="Node000005" class="node">
<title>Node5</title>
<g id="a_Node000005"><a xlink:href="namespacenetspeak.html#adc992b5399e2243ef4e4a3530e10cb1b" target="_top" xlink:title=" ">
<polygon fill="white" stroke="#666666" points="304.5,-96.5 209.5,-96.5 209.5,-77.5 304.5,-77.5 304.5,-96.5"/>
<text text-anchor="middle" x="257" y="-84.5" font-family="Helvetica,sans-Serif" font-size="10.00">netspeak::prune</text>
</a>
</g>
</g>
<!-- Node1&#45;&gt;Node5 -->
<g id="edge4_Node000001_Node000005" class="edge">
<title>Node1&#45;&gt;Node5</title>
<g id="a_edge4_Node000001_Node000005"><a xlink:title=" ">
<path fill="none" stroke="#63b8ff" d="M121.93,-128.87C151.18,-119.74 188.02,-108.23 215.68,-99.59"/>
<polygon fill="#63b8ff" stroke="#63b8ff" points="216.92,-102.87 225.42,-96.55 214.83,-96.19 216.92,-102.87"/>
</a>
</g>
</g>
<!-- Node4 -->
<g id="Node000004" class="node">
<title>Node4</title>
<g id="a_Node000004"><a xlink:href="classnetspeak_1_1model_1_1NormQuery.html#a1026b5afae11d5cdfecc06eb4fa6c005" target="_top" xlink:title=" ">
<polygon fill="white" stroke="#666666" points="536,-174 375,-174 375,-144 536,-144 536,-174"/>
<text text-anchor="start" x="383" y="-162" font-family="Helvetica,sans-Serif" font-size="10.00">netspeak::model::NormQuery</text>
<text text-anchor="middle" x="455.5" y="-151" font-family="Helvetica,sans-Serif" font-size="10.00">::units</text>
</a>
</g>
</g>
<!-- Node3&#45;&gt;Node4 -->
<g id="edge3_Node000003_Node000004" class="edge">
<title>Node3&#45;&gt;Node4</title>
<g id="a_edge3_Node000003_Node000004"><a xlink:title=" ">
<path fill="none" stroke="#63b8ff" d="M320.17,-148.75C334.24,-149.82 349.46,-150.98 364.42,-152.12"/>
<polygon fill="#63b8ff" stroke="#63b8ff" points="364.48,-155.64 374.72,-152.91 365.01,-148.66 364.48,-155.64"/>
</a>
</g>
</g>
<!-- Node6 -->
<g id="Node000006" class="node">
<title>Node6</title>
<g id="a_Node000006"><a xlink:href="classnetspeak_1_1model_1_1RawRefResult.html#a6f2f6c9a3bdf9fa2e03f93c6718911b6" target="_top" xlink:title="The phrase references of this result set sorted by frequency in descending order.">
<polygon fill="white" stroke="#666666" points="542,-126 369,-126 369,-96 542,-96 542,-126"/>
<text text-anchor="start" x="377" y="-114" font-family="Helvetica,sans-Serif" font-size="10.00">netspeak::model::RawRefResult</text>
<text text-anchor="middle" x="455.5" y="-103" font-family="Helvetica,sans-Serif" font-size="10.00">::refs</text>
</a>
</g>
</g>
<!-- Node5&#45;&gt;Node6 -->
<g id="edge5_Node000005_Node000006" class="edge">
<title>Node5&#45;&gt;Node6</title>
<g id="a_edge5_Node000005_Node000006"><a xlink:title=" ">
<path fill="none" stroke="#63b8ff" d="M304.57,-92.69C320.83,-94.67 339.72,-96.98 358.51,-99.28"/>
<polygon fill="#63b8ff" stroke="#63b8ff" points="358.26,-102.77 368.61,-100.51 359.11,-95.82 358.26,-102.77"/>
</a>
</g>
</g>
<!-- Node7 -->
<g id="Node000007" class="node">
<title>Node7</title>
<g id="a_Node000007"><a xlink:href="classnetspeak_1_1model_1_1RawRefResult.html#adeb3d567620874295db354edef045627" target="_top" xlink:title=" ">
<polygon fill="white" stroke="#666666" points="542,-78 369,-78 369,-48 542,-48 542,-78"/>
<text text-anchor="start" x="377" y="-66" font-family="Helvetica,sans-Serif" font-size="10.00">netspeak::model::RawRefResult</text>
<text text-anchor="middle" x="455.5" y="-55" font-family="Helvetica,sans-Serif" font-size="10.00">::unknown_words</text>
</a>
</g>
</g>
<!-- Node5&#45;&gt;Node7 -->
<g id="edge6_Node000005_Node000007" class="edge">
<title>Node5&#45;&gt;Node7</title>
<g id="a_edge6_Node000005_Node000007"><a xlink:title=" ">
<path fill="none" stroke="#63b8ff" d="M304.57,-81.31C320.83,-79.33 339.72,-77.02 358.51,-74.72"/>
<polygon fill="#63b8ff" stroke="#63b8ff" points="359.11,-78.18 368.61,-73.49 358.26,-71.23 359.11,-78.18"/>
</a>
</g>
</g>
<!-- Node8 -->
<g id="Node000008" class="node">
<title>Node8</title>
<g id="a_Node000008"><a xlink:href="namespacenetspeak_1_1util.html#a3d1d03195f7667390b5f548a2b9f9869" target="_top" xlink:title="A simple function that appends all elements of other to base.">
<polygon fill="white" stroke="#666666" points="509,-30 402,-30 402,0 509,0 509,-30"/>
<text text-anchor="start" x="410" y="-18" font-family="Helvetica,sans-Serif" font-size="10.00">netspeak::util::vec</text>
<text text-anchor="middle" x="455.5" y="-7" font-family="Helvetica,sans-Serif" font-size="10.00">_append</text>
</a>
</g>
</g>
<!-- Node5&#45;&gt;Node8 -->
<g id="edge7_Node000005_Node000008" class="edge">
<title>Node5&#45;&gt;Node8</title>
<g id="a_edge7_Node000005_Node000008"><a xlink:title=" ">
<path fill="none" stroke="#63b8ff" d="M278.13,-77.32C300.12,-66.97 336.55,-50.51 369,-39 376.36,-36.39 384.15,-33.87 391.91,-31.52"/>
<polygon fill="#63b8ff" stroke="#63b8ff" points="393.1,-34.81 401.7,-28.62 391.12,-28.1 393.1,-34.81"/>
</a>
</g>
</g>
<!-- Node9 -->
<g id="Node000009" class="node">
<title>Node9</title>
<g id="a_Node000009"><a xlink:href="namespacenetspeak_1_1util.html#a4c91ad572508b4021399ac7dddff574d" target="_top" xlink:title=" ">
<polygon fill="white" stroke="#666666" points="691,-24.5 578,-24.5 578,-5.5 691,-5.5 691,-24.5"/>
<text text-anchor="middle" x="634.5" y="-12.5" font-family="Helvetica,sans-Serif" font-size="10.00">netspeak::util::hash</text>
</a>
</g>
</g>
<!-- Node8&#45;&gt;Node9 -->
<g id="edge8_Node000008_Node000009" class="edge">
<title>Node8&#45;&gt;Node9</title>
<g id="a_edge8_Node000008_Node000009"><a xlink:title=" ">
<path fill="none" stroke="#63b8ff" d="M509.13,-15C527.53,-15 548.41,-15 567.75,-15"/>
<polygon fill="#63b8ff" stroke="#63b8ff" points="568,-18.5 578,-15 568,-11.5 568,-18.5"/>
</a>
</g>
</g>
</g>
</svg>
