<?xml version="1.0" encoding="UTF-8" standalone="no"?>
<!DOCTYPE svg PUBLIC "-//W3C//DTD SVG 1.1//EN"
 "http://www.w3.org/Graphics/SVG/1.1/DTD/svg11.dtd">
<!-- Generated by graphviz version 2.43.0 (0)
 -->
<!-- Title: netspeak::invertedindex::Record::value Pages: 1 -->
<svg width="693pt" height="473pt"
 viewBox="0.00 0.00 693.00 472.62" xmlns="http://www.w3.org/2000/svg" xmlns:xlink="http://www.w3.org/1999/xlink">
<g id="graph0" class="graph" transform="scale(1 1) rotate(0) translate(4 468.62)">
<title>netspeak::invertedindex::Record::value</title>
<!-- Node1 -->
<g id="Node000001" class="node">
<title>Node1</title>
<g id="a_Node000001"><a xlink:title=" ">
<polygon fill="#999999" stroke="#666666" points="685,-236 550,-236 550,-206 685,-206 685,-236"/>
<text text-anchor="start" x="558" y="-224" font-family="Helvetica,sans-Serif" font-size="10.00">netspeak::invertedindex</text>
<text text-anchor="middle" x="617.5" y="-213" font-family="Helvetica,sans-Serif" font-size="10.00">::Record::value</text>
</a>
</g>
</g>
<!-- Node2 -->
<g id="Node000002" class="node">
<title>Node2</title>
<g id="a_Node000002"><a xlink:href="classnetspeak_1_1invertedindex_1_1Indexer.html#af838a8cbb0fd6e4bbe3a268db6f6e771" target="_top" xlink:title=" ">
<polygon fill="white" stroke="#666666" points="505.5,-404 370.5,-404 370.5,-374 505.5,-374 505.5,-404"/>
<text text-anchor="start" x="378.5" y="-392" font-family="Helvetica,sans-Serif" font-size="10.00">netspeak::invertedindex</text>
<text text-anchor="middle" x="438" y="-381" font-family="Helvetica,sans-Serif" font-size="10.00">::Indexer::assert_record</text>
</a>
</g>
</g>
<!-- Node1&#45;&gt;Node2 -->
<g id="edge1_Node000001_Node000002" class="edge">
<title>Node1&#45;&gt;Node2</title>
<g id="a_edge1_Node000001_Node000002"><a xlink:title=" ">
<path fill="none" stroke="#63b8ff" d="M605.45,-245.17C589.64,-277.14 557.56,-333.17 514,-365 509.36,-368.39 504.23,-371.31 498.89,-373.83"/>
<polygon fill="#63b8ff" stroke="#63b8ff" points="608.65,-246.6 609.83,-236.07 602.34,-243.56 608.65,-246.6"/>
</a>
</g>
</g>
<!-- Node5 -->
<g id="Node000005" class="node">
<title>Node5</title>
<g id="a_Node000005"><a xlink:href="classnetspeak_1_1invertedindex_1_1Indexer.html#a62899478afaed43b6c2f96c8b57e3cfd" target="_top" xlink:title=" ">
<polygon fill="white" stroke="#666666" points="145,-447 10,-447 10,-417 145,-417 145,-447"/>
<text text-anchor="start" x="18" y="-435" font-family="Helvetica,sans-Serif" font-size="10.00">netspeak::invertedindex</text>
<text text-anchor="middle" x="77.5" y="-424" font-family="Helvetica,sans-Serif" font-size="10.00">::Indexer::insert</text>
</a>
</g>
</g>
<!-- Node1&#45;&gt;Node5 -->
<g id="edge9_Node000001_Node000005" class="edge">
<title>Node1&#45;&gt;Node5</title>
<g id="a_edge9_Node000001_Node000005"><a xlink:title=" ">
<path fill="none" stroke="#63b8ff" d="M611.45,-246.07C601.36,-288.86 574.28,-375.04 514,-413 398.41,-485.79 229.32,-465.38 139.63,-447.01"/>
<polygon fill="#63b8ff" stroke="#63b8ff" points="614.9,-246.71 613.66,-236.19 608.07,-245.18 614.9,-246.71"/>
</a>
</g>
</g>
<!-- Node7 -->
<g id="Node000007" class="node">
<title>Node7</title>
<g id="a_Node000007"><a xlink:href="classnetspeak_1_1invertedindex_1_1UnsortedInput.html#a8712a539032f34e5cbeb3c7a6ed99de0" target="_top" xlink:title=" ">
<polygon fill="white" stroke="#666666" points="505.5,-356 370.5,-356 370.5,-326 505.5,-326 505.5,-356"/>
<text text-anchor="start" x="378.5" y="-344" font-family="Helvetica,sans-Serif" font-size="10.00">netspeak::invertedindex</text>
<text text-anchor="middle" x="438" y="-333" font-family="Helvetica,sans-Serif" font-size="10.00">::UnsortedInput::group</text>
</a>
</g>
</g>
<!-- Node1&#45;&gt;Node7 -->
<g id="edge6_Node000001_Node000007" class="edge">
<title>Node1&#45;&gt;Node7</title>
<g id="a_edge6_Node000001_Node000007"><a xlink:title=" ">
<path fill="none" stroke="#63b8ff" d="M597.48,-243.92C578.41,-265.56 547.18,-297.51 514,-317 508.22,-320.39 501.91,-323.37 495.48,-325.96"/>
<polygon fill="#63b8ff" stroke="#63b8ff" points="600.28,-246.04 604.17,-236.18 594.98,-241.46 600.28,-246.04"/>
</a>
</g>
</g>
<!-- Node9 -->
<g id="Node000009" class="node">
<title>Node9</title>
<g id="a_Node000009"><a xlink:href="classnetspeak_1_1invertedindex_1_1IndexStrategy.html#a7780270f95ab7bef53f4774895120997" target="_top" xlink:title=" ">
<polygon fill="white" stroke="#666666" points="505.5,-308 370.5,-308 370.5,-278 505.5,-278 505.5,-308"/>
<text text-anchor="start" x="378.5" y="-296" font-family="Helvetica,sans-Serif" font-size="10.00">netspeak::invertedindex</text>
<text text-anchor="middle" x="438" y="-285" font-family="Helvetica,sans-Serif" font-size="10.00">::IndexStrategy::insert</text>
</a>
</g>
</g>
<!-- Node1&#45;&gt;Node9 -->
<g id="edge8_Node000001_Node000009" class="edge">
<title>Node1&#45;&gt;Node9</title>
<g id="a_edge8_Node000001_Node000009"><a xlink:title=" ">
<path fill="none" stroke="#63b8ff" d="M577.69,-240.61C558.73,-249.82 535.44,-260.59 514,-269 506.11,-272.1 497.64,-275.1 489.34,-277.87"/>
<polygon fill="#63b8ff" stroke="#63b8ff" points="579.45,-243.64 586.89,-236.1 576.37,-237.36 579.45,-243.64"/>
</a>
</g>
</g>
<!-- Node10 -->
<g id="Node000010" class="node">
<title>Node10</title>
<g id="a_Node000010"><a xlink:href="classnetspeak_1_1invertedindex_1_1SortedInput.html#a6aff15206149d6721ea2bbd44a1aebd6" target="_top" xlink:title=" ">
<polygon fill="white" stroke="#666666" points="505.5,-260 370.5,-260 370.5,-230 505.5,-230 505.5,-260"/>
<text text-anchor="start" x="378.5" y="-248" font-family="Helvetica,sans-Serif" font-size="10.00">netspeak::invertedindex</text>
<text text-anchor="middle" x="438" y="-237" font-family="Helvetica,sans-Serif" font-size="10.00">::SortedInput::insert_</text>
</a>
</g>
</g>
<!-- Node1&#45;&gt;Node10 -->
<g id="edge10_Node000001_Node000010" class="edge">
<title>Node1&#45;&gt;Node10</title>
<g id="a_edge10_Node000001_Node000010"><a xlink:title=" ">
<path fill="none" stroke="#63b8ff" d="M539.96,-231.35C528.55,-232.89 516.86,-234.47 505.68,-235.98"/>
<polygon fill="#63b8ff" stroke="#63b8ff" points="540.46,-234.81 549.9,-230 539.52,-227.88 540.46,-234.81"/>
</a>
</g>
</g>
<!-- Node11 -->
<g id="Node000011" class="node">
<title>Node11</title>
<g id="a_Node000011"><a xlink:href="classnetspeak_1_1invertedindex_1_1InvertedFileReader.html#a3279c699261f38ce5afe35a0bb5a49c2" target="_top" xlink:title=" ">
<polygon fill="white" stroke="#666666" points="509.5,-212 366.5,-212 366.5,-182 509.5,-182 509.5,-212"/>
<text text-anchor="start" x="374.5" y="-200" font-family="Helvetica,sans-Serif" font-size="10.00">netspeak::invertedindex</text>
<text text-anchor="middle" x="438" y="-189" font-family="Helvetica,sans-Serif" font-size="10.00">::InvertedFileReader::read</text>
</a>
</g>
</g>
<!-- Node1&#45;&gt;Node11 -->
<g id="edge11_Node000001_Node000011" class="edge">
<title>Node1&#45;&gt;Node11</title>
<g id="a_edge11_Node000001_Node000011"><a xlink:title=" ">
<path fill="none" stroke="#63b8ff" d="M539.9,-210.64C529.82,-209.28 519.51,-207.89 509.53,-206.54"/>
<polygon fill="#63b8ff" stroke="#63b8ff" points="539.52,-214.12 549.9,-212 540.46,-207.19 539.52,-214.12"/>
</a>
</g>
</g>
<!-- Node12 -->
<g id="Node000012" class="node">
<title>Node12</title>
<g id="a_Node000012"><a xlink:href="classnetspeak_1_1PhraseFileReader.html#a6e9b1d48e91229d97509fd248d5d45c8" target="_top" xlink:title=" ">
<polygon fill="white" stroke="#666666" points="514,-164 362,-164 362,-134 514,-134 514,-164"/>
<text text-anchor="start" x="370" y="-152" font-family="Helvetica,sans-Serif" font-size="10.00">netspeak::PhraseFileReader</text>
<text text-anchor="middle" x="438" y="-141" font-family="Helvetica,sans-Serif" font-size="10.00">::read</text>
</a>
</g>
</g>
<!-- Node1&#45;&gt;Node12 -->
<g id="edge12_Node000001_Node000012" class="edge">
<title>Node1&#45;&gt;Node12</title>
<g id="a_edge12_Node000001_Node000012"><a xlink:title=" ">
<path fill="none" stroke="#63b8ff" d="M577.69,-201.39C558.73,-192.18 535.44,-181.41 514,-173 506.11,-169.9 497.64,-166.9 489.34,-164.13"/>
<polygon fill="#63b8ff" stroke="#63b8ff" points="576.37,-204.64 586.89,-205.9 579.45,-198.36 576.37,-204.64"/>
</a>
</g>
</g>
<!-- Node13 -->
<g id="Node000013" class="node">
<title>Node13</title>
<g id="a_Node000013"><a xlink:href="classnetspeak_1_1invertedindex_1_1Record.html#a17cd690353b773f57a535edcdb2550c3" target="_top" xlink:title=" ">
<polygon fill="white" stroke="#666666" points="326,-121 191,-121 191,-91 326,-91 326,-121"/>
<text text-anchor="start" x="199" y="-109" font-family="Helvetica,sans-Serif" font-size="10.00">netspeak::invertedindex</text>
<text text-anchor="middle" x="258.5" y="-98" font-family="Helvetica,sans-Serif" font-size="10.00">::Record::set</text>
</a>
</g>
</g>
<!-- Node1&#45;&gt;Node13 -->
<g id="edge13_Node000001_Node000013" class="edge">
<title>Node1&#45;&gt;Node13</title>
<g id="a_edge13_Node000001_Node000013"><a xlink:title=" ">
<path fill="none" stroke="#63b8ff" d="M599.55,-197.76C581.3,-174.76 549.99,-140.8 514,-125 454.36,-98.82 379.3,-96.44 326.19,-99.16"/>
<polygon fill="#63b8ff" stroke="#63b8ff" points="596.78,-199.9 605.67,-205.68 602.32,-195.62 596.78,-199.9"/>
</a>
</g>
</g>
<!-- Node14 -->
<g id="Node000014" class="node">
<title>Node14</title>
<g id="a_Node000014"><a xlink:href="classnetspeak_1_1invertedindex_1_1Record.html#ac235645b336d639b06b2a75f890bb20f" target="_top" xlink:title=" ">
<polygon fill="white" stroke="#666666" points="505.5,-78 370.5,-78 370.5,-48 505.5,-48 505.5,-78"/>
<text text-anchor="start" x="378.5" y="-66" font-family="Helvetica,sans-Serif" font-size="10.00">netspeak::invertedindex</text>
<text text-anchor="middle" x="438" y="-55" font-family="Helvetica,sans-Serif" font-size="10.00">::Record::set_value</text>
</a>
</g>
</g>
<!-- Node1&#45;&gt;Node14 -->
<g id="edge14_Node000001_Node000014" class="edge">
<title>Node1&#45;&gt;Node14</title>
<g id="a_edge14_Node000001_Node000014"><a xlink:title=" ">
<path fill="none" stroke="#63b8ff" d="M602.77,-196.76C585.45,-168.14 553.13,-120.78 514,-92 506.47,-86.46 497.74,-81.83 488.96,-78.02"/>
<polygon fill="#63b8ff" stroke="#63b8ff" points="599.96,-198.88 608.06,-205.7 605.98,-195.31 599.96,-198.88"/>
</a>
</g>
</g>
<!-- Node15 -->
<g id="Node000015" class="node">
<title>Node15</title>
<g id="a_Node000015"><a xlink:href="classnetspeak_1_1invertedindex_1_1InvertedFileWriter.html#ab0ee3e2c4ff6ee5c79b55f6bee575d3d" target="_top" xlink:title=" ">
<polygon fill="white" stroke="#666666" points="508.5,-30 367.5,-30 367.5,0 508.5,0 508.5,-30"/>
<text text-anchor="start" x="375.5" y="-18" font-family="Helvetica,sans-Serif" font-size="10.00">netspeak::invertedindex</text>
<text text-anchor="middle" x="438" y="-7" font-family="Helvetica,sans-Serif" font-size="10.00">::InvertedFileWriter::write</text>
</a>
</g>
</g>
<!-- Node1&#45;&gt;Node15 -->
<g id="edge17_Node000001_Node000015" class="edge">
<title>Node1&#45;&gt;Node15</title>
<g id="a_edge17_Node000001_Node000015"><a xlink:title=" ">
<path fill="none" stroke="#63b8ff" d="M609.12,-196.24C596.21,-157.15 565.87,-81.27 514,-39 509.76,-35.55 505.02,-32.58 500.03,-30.05"/>
<polygon fill="#63b8ff" stroke="#63b8ff" points="605.79,-197.32 612.16,-205.78 612.46,-195.19 605.79,-197.32"/>
</a>
</g>
</g>
<!-- Node3 -->
<g id="Node000003" class="node">
<title>Node3</title>
<g id="a_Node000003"><a xlink:href="classnetspeak_1_1invertedindex_1_1Indexer.html#a3cc86f6f71f2cc24089a0a0f47de512b" target="_top" xlink:title=" ">
<polygon fill="white" stroke="#666666" points="326,-404 191,-404 191,-374 326,-374 326,-404"/>
<text text-anchor="start" x="199" y="-392" font-family="Helvetica,sans-Serif" font-size="10.00">netspeak::invertedindex</text>
<text text-anchor="middle" x="258.5" y="-381" font-family="Helvetica,sans-Serif" font-size="10.00">::Indexer::insert</text>
</a>
</g>
</g>
<!-- Node2&#45;&gt;Node3 -->
<g id="edge2_Node000002_Node000003" class="edge">
<title>Node2&#45;&gt;Node3</title>
<g id="a_edge2_Node000002_Node000003"><a xlink:title=" ">
<path fill="none" stroke="#63b8ff" d="M360.12,-389C348.81,-389 337.25,-389 326.18,-389"/>
<polygon fill="#63b8ff" stroke="#63b8ff" points="360.4,-392.5 370.4,-389 360.4,-385.5 360.4,-392.5"/>
</a>
</g>
</g>
<!-- Node4 -->
<g id="Node000004" class="node">
<title>Node4</title>
<g id="a_Node000004"><a xlink:href="namespacenetspeak.html#af42806304a02200d2a12099b3b54f35d" target="_top" xlink:title=" ">
<polygon fill="white" stroke="#666666" points="155,-211.5 0,-211.5 0,-192.5 155,-192.5 155,-211.5"/>
<text text-anchor="middle" x="77.5" y="-199.5" font-family="Helvetica,sans-Serif" font-size="10.00">netspeak::BuildPostlistIndex</text>
</a>
</g>
</g>
<!-- Node3&#45;&gt;Node4 -->
<g id="edge3_Node000003_Node000004" class="edge">
<title>Node3&#45;&gt;Node4</title>
<g id="a_edge3_Node000003_Node000004"><a xlink:title=" ">
<path fill="none" stroke="#63b8ff" d="M196.57,-368.89C194.64,-367.67 192.78,-366.37 191,-365 133.8,-320.93 94.74,-239.48 82.55,-211.63"/>
<polygon fill="#63b8ff" stroke="#63b8ff" points="194.93,-371.99 205.36,-373.83 198.36,-365.88 194.93,-371.99"/>
</a>
</g>
</g>
<!-- Node3&#45;&gt;Node5 -->
<g id="edge4_Node000003_Node000005" class="edge">
<title>Node3&#45;&gt;Node5</title>
<g id="a_edge4_Node000003_Node000005"><a xlink:title=" ">
<path fill="none" stroke="#63b8ff" d="M184.95,-406.43C170.4,-409.92 155.24,-413.57 141.07,-416.97"/>
<polygon fill="#63b8ff" stroke="#63b8ff" points="185.99,-409.78 194.89,-404.04 184.35,-402.97 185.99,-409.78"/>
</a>
</g>
</g>
<!-- Node6 -->
<g id="Node000006" class="node">
<title>Node6</title>
<g id="a_Node000006"><a xlink:href="classnetspeak_1_1invertedindex_1_1Indexer.html#acb7700194487a31a72a2f5df04cd18f2" target="_top" xlink:title=" ">
<polygon fill="white" stroke="#666666" points="145,-399 10,-399 10,-369 145,-369 145,-399"/>
<text text-anchor="start" x="18" y="-387" font-family="Helvetica,sans-Serif" font-size="10.00">netspeak::invertedindex</text>
<text text-anchor="middle" x="77.5" y="-376" font-family="Helvetica,sans-Serif" font-size="10.00">::Indexer::insert</text>
</a>
</g>
</g>
<!-- Node3&#45;&gt;Node6 -->
<g id="edge5_Node000003_Node000006" class="edge">
<title>Node3&#45;&gt;Node6</title>
<g id="a_edge5_Node000003_Node000006"><a xlink:title=" ">
<path fill="none" stroke="#63b8ff" d="M180.59,-386.85C168.82,-386.52 156.74,-386.19 145.21,-385.86"/>
<polygon fill="#63b8ff" stroke="#63b8ff" points="180.75,-390.36 190.85,-387.14 180.95,-383.36 180.75,-390.36"/>
</a>
</g>
</g>
<!-- Node8 -->
<g id="Node000008" class="node">
<title>Node8</title>
<g id="a_Node000008"><a xlink:href="classnetspeak_1_1invertedindex_1_1UnsortedInput.html#a3bf52078c65c198e542a3e16d42eff20" target="_top" xlink:title=" ">
<polygon fill="white" stroke="#666666" points="326,-356 191,-356 191,-326 326,-326 326,-356"/>
<text text-anchor="start" x="199" y="-344" font-family="Helvetica,sans-Serif" font-size="10.00">netspeak::invertedindex</text>
<text text-anchor="middle" x="258.5" y="-333" font-family="Helvetica,sans-Serif" font-size="10.00">::UnsortedInput::index</text>
</a>
</g>
</g>
<!-- Node7&#45;&gt;Node8 -->
<g id="edge7_Node000007_Node000008" class="edge">
<title>Node7&#45;&gt;Node8</title>
<g id="a_edge7_Node000007_Node000008"><a xlink:title=" ">
<path fill="none" stroke="#63b8ff" d="M360.12,-341C348.81,-341 337.25,-341 326.18,-341"/>
<polygon fill="#63b8ff" stroke="#63b8ff" points="360.4,-344.5 370.4,-341 360.4,-337.5 360.4,-344.5"/>
</a>
</g>
</g>
<!-- Node14&#45;&gt;Node4 -->
<g id="edge15_Node000014_Node000004" class="edge">
<title>Node14&#45;&gt;Node4</title>
<g id="a_edge15_Node000014_Node000004"><a xlink:title=" ">
<path fill="none" stroke="#63b8ff" d="M360.27,-55C309.79,-53 243.57,-56.78 191,-82 138.48,-107.2 98.22,-168.44 84.04,-192.28"/>
<polygon fill="#63b8ff" stroke="#63b8ff" points="360.32,-58.51 370.48,-55.49 360.66,-51.52 360.32,-58.51"/>
</a>
</g>
</g>
<!-- Node14&#45;&gt;Node13 -->
<g id="edge16_Node000014_Node000013" class="edge">
<title>Node14&#45;&gt;Node13</title>
<g id="a_edge16_Node000014_Node000013"><a xlink:title=" ">
<path fill="none" stroke="#63b8ff" d="M365.05,-80.43C350.63,-83.92 335.6,-87.57 321.55,-90.97"/>
<polygon fill="#63b8ff" stroke="#63b8ff" points="366.02,-83.8 374.92,-78.04 364.38,-76.99 366.02,-83.8"/>
</a>
</g>
</g>
</g>
</svg>
