<?xml version="1.0" encoding="UTF-8" standalone="no"?>
<!DOCTYPE svg PUBLIC "-//W3C//DTD SVG 1.1//EN"
 "http://www.w3.org/Graphics/SVG/1.1/DTD/svg11.dtd">
<!-- Generated by graphviz version 2.43.0 (0)
 -->
<!-- Title: netspeak::invertedindex::Searcher&lt; Value, ThreadSafe &gt; Pages: 1 -->
<svg width="594pt" height="580pt"
 viewBox="0.00 0.00 593.50 580.00" xmlns="http://www.w3.org/2000/svg" xmlns:xlink="http://www.w3.org/1999/xlink">
<g id="graph0" class="graph" transform="scale(1 1) rotate(0) translate(4 576)">
<title>netspeak::invertedindex::Searcher&lt; Value, ThreadSafe &gt;</title>
<!-- Node1 -->
<g id="Node000001" class="node">
<title>Node1</title>
<g id="a_Node000001"><a xlink:title=" ">
<polygon fill="#999999" stroke="transparent" points="380.5,-225 210.5,-225 210.5,0 380.5,0 380.5,-225"/>
<text text-anchor="start" x="215.5" y="-212.5" font-family="Helvetica,sans-Serif" font-size="10.00">netspeak::invertedindex</text>
<text text-anchor="start" x="215.5" y="-201.5" font-family="Helvetica,sans-Serif" font-size="10.00">::Searcher&lt; Value, ThreadSafe &gt;</text>
<text text-anchor="start" x="293.5" y="-186.5" font-family="Helvetica,sans-Serif" font-size="10.00"> </text>
<text text-anchor="start" x="225.5" y="-171.5" font-family="Helvetica,sans-Serif" font-size="10.00">+</text>
<text text-anchor="start" x="249.5" y="-171.5" font-family="Helvetica,sans-Serif" font-size="10.00">Searcher()</text>
<text text-anchor="start" x="225.5" y="-156.5" font-family="Helvetica,sans-Serif" font-size="10.00">+</text>
<text text-anchor="start" x="249.5" y="-156.5" font-family="Helvetica,sans-Serif" font-size="10.00">Searcher()</text>
<text text-anchor="start" x="225.5" y="-141.5" font-family="Helvetica,sans-Serif" font-size="10.00">+</text>
<text text-anchor="start" x="249.5" y="-141.5" font-family="Helvetica,sans-Serif" font-size="10.00">~Searcher()</text>
<text text-anchor="start" x="225.5" y="-126.5" font-family="Helvetica,sans-Serif" font-size="10.00">+</text>
<text text-anchor="start" x="249.5" y="-126.5" font-family="Helvetica,sans-Serif" font-size="10.00">close()</text>
<text text-anchor="start" x="225.5" y="-111.5" font-family="Helvetica,sans-Serif" font-size="10.00">+</text>
<text text-anchor="start" x="249.5" y="-111.5" font-family="Helvetica,sans-Serif" font-size="10.00">is_open()</text>
<text text-anchor="start" x="225.5" y="-96.5" font-family="Helvetica,sans-Serif" font-size="10.00">+</text>
<text text-anchor="start" x="249.5" y="-96.5" font-family="Helvetica,sans-Serif" font-size="10.00">open()</text>
<text text-anchor="start" x="225.5" y="-81.5" font-family="Helvetica,sans-Serif" font-size="10.00">+</text>
<text text-anchor="start" x="249.5" y="-81.5" font-family="Helvetica,sans-Serif" font-size="10.00">search_head()</text>
<text text-anchor="start" x="225.5" y="-66.5" font-family="Helvetica,sans-Serif" font-size="10.00">+</text>
<text text-anchor="start" x="249.5" y="-66.5" font-family="Helvetica,sans-Serif" font-size="10.00">search_postlist()</text>
<text text-anchor="start" x="225.5" y="-51.5" font-family="Helvetica,sans-Serif" font-size="10.00">+</text>
<text text-anchor="start" x="249.5" y="-51.5" font-family="Helvetica,sans-Serif" font-size="10.00">search_raw_postlist()</text>
<text text-anchor="start" x="225.5" y="-36.5" font-family="Helvetica,sans-Serif" font-size="10.00">+</text>
<text text-anchor="start" x="249.5" y="-36.5" font-family="Helvetica,sans-Serif" font-size="10.00">configuration()</text>
<text text-anchor="start" x="225.5" y="-21.5" font-family="Helvetica,sans-Serif" font-size="10.00">+</text>
<text text-anchor="start" x="249.5" y="-21.5" font-family="Helvetica,sans-Serif" font-size="10.00">properties()</text>
<text text-anchor="start" x="228" y="-6.5" font-family="Helvetica,sans-Serif" font-size="10.00">&#45;</text>
<text text-anchor="start" x="249.5" y="-6.5" font-family="Helvetica,sans-Serif" font-size="10.00">assert_properties()</text>
<polygon fill="#666666" stroke="#666666" points="210.5,-196.5 210.5,-196.5 380.5,-196.5 380.5,-196.5 210.5,-196.5"/>
<polygon fill="#666666" stroke="#666666" points="210.5,-181.5 210.5,-181.5 380.5,-181.5 380.5,-181.5 210.5,-181.5"/>
<polygon fill="none" stroke="#666666" points="210.5,0 210.5,-225 380.5,-225 380.5,0 210.5,0"/>
</a>
</g>
</g>
<!-- Node2 -->
<g id="Node000002" class="node">
<title>Node2</title>
<g id="a_Node000002"><a xlink:href="classnetspeak_1_1invertedindex_1_1RawSearcher.html" target="_top" xlink:title=" ">
<polygon fill="white" stroke="transparent" points="129,-482 0,-482 0,-362 129,-362 129,-482"/>
<text text-anchor="start" x="5.5" y="-470" font-family="Helvetica,sans-Serif" font-size="10.00">netspeak::invertedindex</text>
<text text-anchor="start" x="30" y="-459" font-family="Helvetica,sans-Serif" font-size="10.00">::RawSearcher</text>
<text text-anchor="start" x="63" y="-444" font-family="Helvetica,sans-Serif" font-size="10.00"> </text>
<text text-anchor="start" x="5" y="-429" font-family="Helvetica,sans-Serif" font-size="10.00">+</text>
<text text-anchor="start" x="18.5" y="-429" font-family="Helvetica,sans-Serif" font-size="10.00">~RawSearcher()</text>
<text text-anchor="start" x="5" y="-414" font-family="Helvetica,sans-Serif" font-size="10.00">+</text>
<text text-anchor="start" x="18.5" y="-414" font-family="Helvetica,sans-Serif" font-size="10.00">close()</text>
<text text-anchor="start" x="5" y="-399" font-family="Helvetica,sans-Serif" font-size="10.00">+</text>
<text text-anchor="start" x="18.5" y="-399" font-family="Helvetica,sans-Serif" font-size="10.00">search_head()</text>
<text text-anchor="start" x="5" y="-384" font-family="Helvetica,sans-Serif" font-size="10.00">+</text>
<text text-anchor="start" x="18.5" y="-384" font-family="Helvetica,sans-Serif" font-size="10.00">search_raw_postlist()</text>
<text text-anchor="start" x="5" y="-369" font-family="Helvetica,sans-Serif" font-size="10.00">+</text>
<text text-anchor="start" x="18.5" y="-369" font-family="Helvetica,sans-Serif" font-size="10.00">properties()</text>
<polygon fill="#666666" stroke="#666666" points="0.5,-454 0.5,-454 129.5,-454 129.5,-454 0.5,-454"/>
<polygon fill="#666666" stroke="#666666" points="0.5,-439 0.5,-439 129.5,-439 129.5,-439 0.5,-439"/>
<polygon fill="none" stroke="#666666" points="0,-362 0,-482 129,-482 129,-362 0,-362"/>
</a>
</g>
</g>
<!-- Node2&#45;&gt;Node1 -->
<g id="edge1_Node000001_Node000002" class="edge">
<title>Node2&#45;&gt;Node1</title>
<g id="a_edge1_Node000001_Node000002"><a xlink:title=" ">
<path fill="none" stroke="#63b8ff" d="M92.76,-352.8C105.08,-326.48 120.77,-296.8 138.5,-272 159.23,-243.02 185.33,-214.39 210.28,-189.62"/>
<polygon fill="none" stroke="#63b8ff" points="89.55,-351.41 88.54,-361.95 95.9,-354.33 89.55,-351.41"/>
</a>
</g>
</g>
<!-- Node3 -->
<g id="Node000003" class="node">
<title>Node3</title>
<g id="a_Node000003"><a xlink:href="classnetspeak_1_1invertedindex_1_1Configuration.html" target="_top" xlink:title=" ">
<polygon fill="white" stroke="transparent" points="289.5,-572 147.5,-572 147.5,-272 289.5,-272 289.5,-572"/>
<text text-anchor="start" x="159" y="-560" font-family="Helvetica,sans-Serif" font-size="10.00">netspeak::invertedindex</text>
<text text-anchor="start" x="182.5" y="-549" font-family="Helvetica,sans-Serif" font-size="10.00">::Configuration</text>
<text text-anchor="start" x="154" y="-534" font-family="Helvetica,sans-Serif" font-size="10.00">&#45;</text>
<text text-anchor="start" x="164.5" y="-534" font-family="Helvetica,sans-Serif" font-size="10.00">input_file_</text>
<text text-anchor="start" x="154" y="-519" font-family="Helvetica,sans-Serif" font-size="10.00">&#45;</text>
<text text-anchor="start" x="164.5" y="-519" font-family="Helvetica,sans-Serif" font-size="10.00">input_directory_</text>
<text text-anchor="start" x="154" y="-504" font-family="Helvetica,sans-Serif" font-size="10.00">&#45;</text>
<text text-anchor="start" x="164.5" y="-504" font-family="Helvetica,sans-Serif" font-size="10.00">index_directory_</text>
<text text-anchor="start" x="154" y="-489" font-family="Helvetica,sans-Serif" font-size="10.00">&#45;</text>
<text text-anchor="start" x="164.5" y="-489" font-family="Helvetica,sans-Serif" font-size="10.00">key_sorting_</text>
<text text-anchor="start" x="154" y="-474" font-family="Helvetica,sans-Serif" font-size="10.00">&#45;</text>
<text text-anchor="start" x="164.5" y="-474" font-family="Helvetica,sans-Serif" font-size="10.00">value_sorting_</text>
<text text-anchor="start" x="154" y="-459" font-family="Helvetica,sans-Serif" font-size="10.00">&#45;</text>
<text text-anchor="start" x="164.5" y="-459" font-family="Helvetica,sans-Serif" font-size="10.00">max_memory_usage_</text>
<text text-anchor="start" x="154" y="-444" font-family="Helvetica,sans-Serif" font-size="10.00">&#45;</text>
<text text-anchor="start" x="164.5" y="-444" font-family="Helvetica,sans-Serif" font-size="10.00">expected_record_count_</text>
<text text-anchor="start" x="151.5" y="-429" font-family="Helvetica,sans-Serif" font-size="10.00">+</text>
<text text-anchor="start" x="164.5" y="-429" font-family="Helvetica,sans-Serif" font-size="10.00">Configuration()</text>
<text text-anchor="start" x="151.5" y="-414" font-family="Helvetica,sans-Serif" font-size="10.00">+</text>
<text text-anchor="start" x="164.5" y="-414" font-family="Helvetica,sans-Serif" font-size="10.00">~Configuration()</text>
<text text-anchor="start" x="151.5" y="-399" font-family="Helvetica,sans-Serif" font-size="10.00">+</text>
<text text-anchor="start" x="164.5" y="-399" font-family="Helvetica,sans-Serif" font-size="10.00">expected_record_count()</text>
<text text-anchor="start" x="151.5" y="-384" font-family="Helvetica,sans-Serif" font-size="10.00">+</text>
<text text-anchor="start" x="164.5" y="-384" font-family="Helvetica,sans-Serif" font-size="10.00">input_file()</text>
<text text-anchor="start" x="151.5" y="-369" font-family="Helvetica,sans-Serif" font-size="10.00">+</text>
<text text-anchor="start" x="164.5" y="-369" font-family="Helvetica,sans-Serif" font-size="10.00">input_directory()</text>
<text text-anchor="start" x="151.5" y="-354" font-family="Helvetica,sans-Serif" font-size="10.00">+</text>
<text text-anchor="start" x="164.5" y="-354" font-family="Helvetica,sans-Serif" font-size="10.00">index_directory()</text>
<text text-anchor="start" x="151.5" y="-339" font-family="Helvetica,sans-Serif" font-size="10.00">+</text>
<text text-anchor="start" x="164.5" y="-339" font-family="Helvetica,sans-Serif" font-size="10.00">key_sorting()</text>
<text text-anchor="start" x="151.5" y="-324" font-family="Helvetica,sans-Serif" font-size="10.00">+</text>
<text text-anchor="start" x="164.5" y="-324" font-family="Helvetica,sans-Serif" font-size="10.00">max_memory_usage()</text>
<text text-anchor="start" x="151.5" y="-309" font-family="Helvetica,sans-Serif" font-size="10.00">+</text>
<text text-anchor="start" x="164.5" y="-309" font-family="Helvetica,sans-Serif" font-size="10.00">value_sorting()</text>
<text text-anchor="start" x="151.5" y="-294" font-family="Helvetica,sans-Serif" font-size="10.00">+</text>
<text text-anchor="start" x="164.5" y="-294" font-family="Helvetica,sans-Serif" font-size="10.00">print()</text>
<text text-anchor="start" x="164.5" y="-279" font-family="Helvetica,sans-Serif" font-size="10.00">and 7 more...</text>
<polygon fill="#666666" stroke="#666666" points="147.5,-544 147.5,-544 289.5,-544 289.5,-544 147.5,-544"/>
<polygon fill="#666666" stroke="#666666" points="147.5,-439 147.5,-439 162.5,-439 162.5,-439 147.5,-439"/>
<polygon fill="#666666" stroke="#666666" points="162.5,-439 162.5,-439 289.5,-439 289.5,-439 162.5,-439"/>
<polygon fill="none" stroke="#666666" points="147.5,-272 147.5,-572 289.5,-572 289.5,-272 147.5,-272"/>
</a>
</g>
</g>
<!-- Node3&#45;&gt;Node1 -->
<g id="edge2_Node000001_Node000003" class="edge">
<title>Node3&#45;&gt;Node1</title>
<g id="a_edge2_Node000001_Node000003"><a xlink:title=" ">
<path fill="none" stroke="#63b8ff" d="M255.87,-271.75C258.77,-260.17 261.68,-248.55 264.53,-237.16"/>
<polygon fill="none" stroke="#63b8ff" points="264.57,-237.03 262.14,-230.24 267.48,-225.39 269.91,-232.18 264.57,-237.03"/>
</a>
</g>
<text text-anchor="middle" x="283.5" y="-246" font-family="Helvetica,sans-Serif" font-size="10.00" fill="grey"> &#45;config_</text>
</g>
<!-- Node4 -->
<g id="Node000004" class="node">
<title>Node4</title>
<g id="a_Node000004"><a xlink:href="structnetspeak_1_1invertedindex_1_1Properties.html" target="_top" xlink:title=" ">
<polygon fill="white" stroke="transparent" points="437,-542 308,-542 308,-302 437,-302 437,-542"/>
<text text-anchor="start" x="313.5" y="-530" font-family="Helvetica,sans-Serif" font-size="10.00">netspeak::invertedindex</text>
<text text-anchor="start" x="345" y="-519" font-family="Helvetica,sans-Serif" font-size="10.00">::Properties</text>
<text text-anchor="start" x="316.5" y="-504" font-family="Helvetica,sans-Serif" font-size="10.00">+</text>
<text text-anchor="start" x="333.5" y="-504" font-family="Helvetica,sans-Serif" font-size="10.00">value_sorting</text>
<text text-anchor="start" x="316.5" y="-489" font-family="Helvetica,sans-Serif" font-size="10.00">+</text>
<text text-anchor="start" x="333.5" y="-489" font-family="Helvetica,sans-Serif" font-size="10.00">version_number</text>
<text text-anchor="start" x="316.5" y="-474" font-family="Helvetica,sans-Serif" font-size="10.00">+</text>
<text text-anchor="start" x="333.5" y="-474" font-family="Helvetica,sans-Serif" font-size="10.00">value_type</text>
<text text-anchor="start" x="316.5" y="-459" font-family="Helvetica,sans-Serif" font-size="10.00">+</text>
<text text-anchor="start" x="333.5" y="-459" font-family="Helvetica,sans-Serif" font-size="10.00">value_count</text>
<text text-anchor="start" x="316.5" y="-444" font-family="Helvetica,sans-Serif" font-size="10.00">+</text>
<text text-anchor="start" x="333.5" y="-444" font-family="Helvetica,sans-Serif" font-size="10.00">total_size</text>
<text text-anchor="start" x="316.5" y="-429" font-family="Helvetica,sans-Serif" font-size="10.00">+</text>
<text text-anchor="start" x="333.5" y="-429" font-family="Helvetica,sans-Serif" font-size="10.00">key_count</text>
<text text-anchor="start" x="316.5" y="-414" font-family="Helvetica,sans-Serif" font-size="10.00">+</text>
<text text-anchor="start" x="333.5" y="-414" font-family="Helvetica,sans-Serif" font-size="10.00">k_version_number</text>
<text text-anchor="start" x="316.5" y="-399" font-family="Helvetica,sans-Serif" font-size="10.00">+</text>
<text text-anchor="start" x="333.5" y="-399" font-family="Helvetica,sans-Serif" font-size="10.00">Properties()</text>
<text text-anchor="start" x="316.5" y="-384" font-family="Helvetica,sans-Serif" font-size="10.00">+</text>
<text text-anchor="start" x="333.5" y="-384" font-family="Helvetica,sans-Serif" font-size="10.00">Properties()</text>
<text text-anchor="start" x="316.5" y="-369" font-family="Helvetica,sans-Serif" font-size="10.00">+</text>
<text text-anchor="start" x="333.5" y="-369" font-family="Helvetica,sans-Serif" font-size="10.00">print()</text>
<text text-anchor="start" x="316.5" y="-354" font-family="Helvetica,sans-Serif" font-size="10.00">+</text>
<text text-anchor="start" x="333.5" y="-354" font-family="Helvetica,sans-Serif" font-size="10.00">read()</text>
<text text-anchor="start" x="316.5" y="-339" font-family="Helvetica,sans-Serif" font-size="10.00">+</text>
<text text-anchor="start" x="333.5" y="-339" font-family="Helvetica,sans-Serif" font-size="10.00">write()</text>
<text text-anchor="start" x="316.5" y="-324" font-family="Helvetica,sans-Serif" font-size="10.00">+</text>
<text text-anchor="start" x="333.5" y="-324" font-family="Helvetica,sans-Serif" font-size="10.00">operator=()</text>
<text text-anchor="start" x="316.5" y="-309" font-family="Helvetica,sans-Serif" font-size="10.00">+</text>
<text text-anchor="start" x="333.5" y="-309" font-family="Helvetica,sans-Serif" font-size="10.00">default_filename()</text>
<polygon fill="#666666" stroke="#666666" points="308.5,-514 308.5,-514 437.5,-514 437.5,-514 308.5,-514"/>
<polygon fill="#666666" stroke="#666666" points="308.5,-409 308.5,-409 331.5,-409 331.5,-409 308.5,-409"/>
<polygon fill="#666666" stroke="#666666" points="331.5,-409 331.5,-409 437.5,-409 437.5,-409 331.5,-409"/>
<polygon fill="none" stroke="#666666" points="308,-302 308,-542 437,-542 437,-302 308,-302"/>
</a>
</g>
</g>
<!-- Node4&#45;&gt;Node1 -->
<g id="edge3_Node000001_Node000004" class="edge">
<title>Node4&#45;&gt;Node1</title>
<g id="a_edge3_Node000001_Node000004"><a xlink:title=" ">
<path fill="none" stroke="#63b8ff" d="M342.62,-301.67C337.3,-280.45 331.76,-258.3 326.42,-236.97"/>
<polygon fill="none" stroke="#63b8ff" points="326.39,-236.85 321.05,-232 323.47,-225.21 328.81,-230.06 326.39,-236.85"/>
</a>
</g>
<text text-anchor="middle" x="349.5" y="-246" font-family="Helvetica,sans-Serif" font-size="10.00" fill="grey"> &#45;props_</text>
</g>
<!-- Node5 -->
<g id="Node000005" class="node">
<title>Node5</title>
<g id="a_Node000005"><a xlink:href="classnetspeak_1_1invertedindex_1_1StorageReader.html" target="_top" xlink:title=" ">
<polygon fill="white" stroke="transparent" points="585.5,-562.5 455.5,-562.5 455.5,-281.5 585.5,-281.5 585.5,-562.5"/>
<text text-anchor="start" x="460.5" y="-550" font-family="Helvetica,sans-Serif" font-size="10.00">netspeak::invertedindex</text>
<text text-anchor="start" x="460.5" y="-539" font-family="Helvetica,sans-Serif" font-size="10.00">::StorageReader&lt; Value,</text>
<text text-anchor="start" x="503.5" y="-528" font-family="Helvetica,sans-Serif" font-size="10.00"> true &gt;</text>
<text text-anchor="start" x="467" y="-513" font-family="Helvetica,sans-Serif" font-size="10.00">&#45;</text>
<text text-anchor="start" x="482.5" y="-513" font-family="Helvetica,sans-Serif" font-size="10.00">table_</text>
<text text-anchor="start" x="467" y="-498" font-family="Helvetica,sans-Serif" font-size="10.00">&#45;</text>
<text text-anchor="start" x="482.5" y="-498" font-family="Helvetica,sans-Serif" font-size="10.00">files_</text>
<text text-anchor="start" x="467" y="-483" font-family="Helvetica,sans-Serif" font-size="10.00">&#45;</text>
<text text-anchor="start" x="482.5" y="-483" font-family="Helvetica,sans-Serif" font-size="10.00">paths_</text>
<text text-anchor="start" x="467" y="-468" font-family="Helvetica,sans-Serif" font-size="10.00">&#45;</text>
<text text-anchor="start" x="482.5" y="-468" font-family="Helvetica,sans-Serif" font-size="10.00">mutex_</text>
<text text-anchor="start" x="464.5" y="-453" font-family="Helvetica,sans-Serif" font-size="10.00">+</text>
<text text-anchor="start" x="482.5" y="-453" font-family="Helvetica,sans-Serif" font-size="10.00">ReadHead()</text>
<text text-anchor="start" x="464.5" y="-438" font-family="Helvetica,sans-Serif" font-size="10.00">+</text>
<text text-anchor="start" x="482.5" y="-438" font-family="Helvetica,sans-Serif" font-size="10.00">ReadPostlist()</text>
<text text-anchor="start" x="464.5" y="-423" font-family="Helvetica,sans-Serif" font-size="10.00">+</text>
<text text-anchor="start" x="482.5" y="-423" font-family="Helvetica,sans-Serif" font-size="10.00">StorageReader()</text>
<text text-anchor="start" x="464.5" y="-408" font-family="Helvetica,sans-Serif" font-size="10.00">+</text>
<text text-anchor="start" x="482.5" y="-408" font-family="Helvetica,sans-Serif" font-size="10.00">StorageReader()</text>
<text text-anchor="start" x="464.5" y="-393" font-family="Helvetica,sans-Serif" font-size="10.00">+</text>
<text text-anchor="start" x="482.5" y="-393" font-family="Helvetica,sans-Serif" font-size="10.00">~StorageReader()</text>
<text text-anchor="start" x="464.5" y="-378" font-family="Helvetica,sans-Serif" font-size="10.00">+</text>
<text text-anchor="start" x="482.5" y="-378" font-family="Helvetica,sans-Serif" font-size="10.00">Close()</text>
<text text-anchor="start" x="464.5" y="-363" font-family="Helvetica,sans-Serif" font-size="10.00">+</text>
<text text-anchor="start" x="482.5" y="-363" font-family="Helvetica,sans-Serif" font-size="10.00">IsOpen()</text>
<text text-anchor="start" x="464.5" y="-348" font-family="Helvetica,sans-Serif" font-size="10.00">+</text>
<text text-anchor="start" x="482.5" y="-348" font-family="Helvetica,sans-Serif" font-size="10.00">Open()</text>
<text text-anchor="start" x="467" y="-333" font-family="Helvetica,sans-Serif" font-size="10.00">&#45;</text>
<text text-anchor="start" x="482.5" y="-333" font-family="Helvetica,sans-Serif" font-size="10.00">ReadHead()</text>
<text text-anchor="start" x="467" y="-318" font-family="Helvetica,sans-Serif" font-size="10.00">&#45;</text>
<text text-anchor="start" x="482.5" y="-318" font-family="Helvetica,sans-Serif" font-size="10.00">ReadHead()</text>
<text text-anchor="start" x="467" y="-303" font-family="Helvetica,sans-Serif" font-size="10.00">&#45;</text>
<text text-anchor="start" x="482.5" y="-303" font-family="Helvetica,sans-Serif" font-size="10.00">ReadPostlist()</text>
<text text-anchor="start" x="467" y="-288" font-family="Helvetica,sans-Serif" font-size="10.00">&#45;</text>
<text text-anchor="start" x="482.5" y="-288" font-family="Helvetica,sans-Serif" font-size="10.00">ReadPostlist()</text>
<polygon fill="#666666" stroke="#666666" points="455.5,-523 455.5,-523 585.5,-523 585.5,-523 455.5,-523"/>
<polygon fill="#666666" stroke="#666666" points="455.5,-463 455.5,-463 480.5,-463 480.5,-463 455.5,-463"/>
<polygon fill="#666666" stroke="#666666" points="480.5,-463 480.5,-463 585.5,-463 585.5,-463 480.5,-463"/>
<polygon fill="none" stroke="#666666" points="455.5,-281.5 455.5,-562.5 585.5,-562.5 585.5,-281.5 455.5,-281.5"/>
</a>
</g>
</g>
<!-- Node5&#45;&gt;Node1 -->
<g id="edge4_Node000001_Node000005" class="edge">
<title>Node5&#45;&gt;Node1</title>
<g id="a_edge4_Node000001_Node000005"><a xlink:title=" ">
<path fill="none" stroke="#63b8ff" d="M455.28,-285.15C452.41,-280.65 449.48,-276.26 446.5,-272 429.73,-248.06 409.41,-224.2 389.18,-202.53"/>
<polygon fill="none" stroke="#63b8ff" points="389.08,-202.43 382.06,-200.82 380.84,-193.71 387.87,-195.32 389.08,-202.43"/>
</a>
</g>
<text text-anchor="middle" x="456" y="-246" font-family="Helvetica,sans-Serif" font-size="10.00" fill="grey"> &#45;storage_</text>
</g>
</g>
</svg>
