<?xml version="1.0" encoding="UTF-8" standalone="no"?>
<!DOCTYPE svg PUBLIC "-//W3C//DTD SVG 1.1//EN"
 "http://www.w3.org/Graphics/SVG/1.1/DTD/svg11.dtd">
<!-- Generated by graphviz version 2.43.0 (0)
 -->
<!-- Title: netspeak::QuerySimplifier Pages: 1 -->
<svg width="153pt" height="464pt"
 viewBox="0.00 0.00 153.00 464.00" xmlns="http://www.w3.org/2000/svg" xmlns:xlink="http://www.w3.org/1999/xlink">
<g id="graph0" class="graph" transform="scale(1 1) rotate(0) translate(4 460)">
<title>netspeak::QuerySimplifier</title>
<!-- Node1 -->
<g id="Node000001" class="node">
<title>Node1</title>
<g id="a_Node000001"><a xlink:title="A converter from a Query to its SimpleQuery units.">
<polygon fill="#999999" stroke="transparent" points="141,-289 4,-289 4,0 141,0 141,-289"/>
<text text-anchor="start" x="9.5" y="-276.5" font-family="Helvetica,sans-Serif" font-size="10.00">netspeak::QuerySimplifier</text>
<text text-anchor="start" x="12.5" y="-261.5" font-family="Helvetica,sans-Serif" font-size="10.00">+</text>
<text text-anchor="start" x="29.5" y="-261.5" font-family="Helvetica,sans-Serif" font-size="10.00">dictionary</text>
<text text-anchor="start" x="12.5" y="-246.5" font-family="Helvetica,sans-Serif" font-size="10.00">+</text>
<text text-anchor="start" x="29.5" y="-246.5" font-family="Helvetica,sans-Serif" font-size="10.00">allow_regex</text>
<text text-anchor="start" x="12.5" y="-231.5" font-family="Helvetica,sans-Serif" font-size="10.00">+</text>
<text text-anchor="start" x="29.5" y="-231.5" font-family="Helvetica,sans-Serif" font-size="10.00">lower_case</text>
<text text-anchor="start" x="12.5" y="-216.5" font-family="Helvetica,sans-Serif" font-size="10.00">+</text>
<text text-anchor="start" x="29.5" y="-216.5" font-family="Helvetica,sans-Serif" font-size="10.00">QuerySimplifier()</text>
<text text-anchor="start" x="12.5" y="-201.5" font-family="Helvetica,sans-Serif" font-size="10.00">+</text>
<text text-anchor="start" x="29.5" y="-201.5" font-family="Helvetica,sans-Serif" font-size="10.00">QuerySimplifier()</text>
<text text-anchor="start" x="12.5" y="-186.5" font-family="Helvetica,sans-Serif" font-size="10.00">+</text>
<text text-anchor="start" x="29.5" y="-186.5" font-family="Helvetica,sans-Serif" font-size="10.00">to_simple()</text>
<text text-anchor="start" x="15" y="-171.5" font-family="Helvetica,sans-Serif" font-size="10.00">&#45;</text>
<text text-anchor="start" x="29.5" y="-171.5" font-family="Helvetica,sans-Serif" font-size="10.00">get_text()</text>
<text text-anchor="start" x="15" y="-156.5" font-family="Helvetica,sans-Serif" font-size="10.00">&#45;</text>
<text text-anchor="start" x="29.5" y="-156.5" font-family="Helvetica,sans-Serif" font-size="10.00">plus_to_simple()</text>
<text text-anchor="start" x="15" y="-141.5" font-family="Helvetica,sans-Serif" font-size="10.00">&#45;</text>
<text text-anchor="start" x="29.5" y="-141.5" font-family="Helvetica,sans-Serif" font-size="10.00">regex_to_simple()</text>
<text text-anchor="start" x="15" y="-126.5" font-family="Helvetica,sans-Serif" font-size="10.00">&#45;</text>
<text text-anchor="start" x="29.5" y="-126.5" font-family="Helvetica,sans-Serif" font-size="10.00">dict_to_simple()</text>
<text text-anchor="start" x="15" y="-111.5" font-family="Helvetica,sans-Serif" font-size="10.00">&#45;</text>
<text text-anchor="start" x="29.5" y="-111.5" font-family="Helvetica,sans-Serif" font-size="10.00">option_to_simple()</text>
<text text-anchor="start" x="15" y="-96.5" font-family="Helvetica,sans-Serif" font-size="10.00">&#45;</text>
<text text-anchor="start" x="29.5" y="-96.5" font-family="Helvetica,sans-Serif" font-size="10.00">order_to_simple()</text>
<text text-anchor="start" x="15" y="-81.5" font-family="Helvetica,sans-Serif" font-size="10.00">&#45;</text>
<text text-anchor="start" x="29.5" y="-81.5" font-family="Helvetica,sans-Serif" font-size="10.00">alt_to_simple()</text>
<text text-anchor="start" x="15" y="-66.5" font-family="Helvetica,sans-Serif" font-size="10.00">&#45;</text>
<text text-anchor="start" x="29.5" y="-66.5" font-family="Helvetica,sans-Serif" font-size="10.00">concat_to_simple()</text>
<text text-anchor="start" x="15" y="-51.5" font-family="Helvetica,sans-Serif" font-size="10.00">&#45;</text>
<text text-anchor="start" x="29.5" y="-51.5" font-family="Helvetica,sans-Serif" font-size="10.00">unit_to_simple()</text>
<text text-anchor="start" x="15" y="-36.5" font-family="Helvetica,sans-Serif" font-size="10.00">&#45;</text>
<text text-anchor="start" x="29.5" y="-36.5" font-family="Helvetica,sans-Serif" font-size="10.00">add_to_concat()</text>
<text text-anchor="start" x="15" y="-21.5" font-family="Helvetica,sans-Serif" font-size="10.00">&#45;</text>
<text text-anchor="start" x="29.5" y="-21.5" font-family="Helvetica,sans-Serif" font-size="10.00">add_to_alternation()</text>
<text text-anchor="start" x="15" y="-6.5" font-family="Helvetica,sans-Serif" font-size="10.00">&#45;</text>
<text text-anchor="start" x="29.5" y="-6.5" font-family="Helvetica,sans-Serif" font-size="10.00">to_source()</text>
<polygon fill="#666666" stroke="#666666" points="4.5,-271.5 4.5,-271.5 141.5,-271.5 141.5,-271.5 4.5,-271.5"/>
<polygon fill="#666666" stroke="#666666" points="4.5,-226.5 4.5,-226.5 27.5,-226.5 27.5,-226.5 4.5,-226.5"/>
<polygon fill="#666666" stroke="#666666" points="27.5,-226.5 27.5,-226.5 141.5,-226.5 141.5,-226.5 27.5,-226.5"/>
<polygon fill="none" stroke="#666666" points="4,0 4,-289 141,-289 141,0 4,0"/>
</a>
</g>
</g>
<!-- Node2 -->
<g id="Node000002" class="node">
<title>Node2</title>
<g id="a_Node000002"><a xlink:href="structnetspeak_1_1QueryNormalizer_1_1Options.html" target="_top" xlink:title=" ">
<polygon fill="white" stroke="transparent" points="145,-456 0,-456 0,-336 145,-336 145,-456"/>
<text text-anchor="start" x="5.5" y="-444" font-family="Helvetica,sans-Serif" font-size="10.00">netspeak::QueryNormalizer</text>
<text text-anchor="start" x="51" y="-433" font-family="Helvetica,sans-Serif" font-size="10.00">::Options</text>
<text text-anchor="start" x="9.5" y="-418" font-family="Helvetica,sans-Serif" font-size="10.00">+</text>
<text text-anchor="start" x="27.5" y="-418" font-family="Helvetica,sans-Serif" font-size="10.00">max_norm_queries</text>
<text text-anchor="start" x="9.5" y="-403" font-family="Helvetica,sans-Serif" font-size="10.00">+</text>
<text text-anchor="start" x="27.5" y="-403" font-family="Helvetica,sans-Serif" font-size="10.00">min_length</text>
<text text-anchor="start" x="9.5" y="-388" font-family="Helvetica,sans-Serif" font-size="10.00">+</text>
<text text-anchor="start" x="27.5" y="-388" font-family="Helvetica,sans-Serif" font-size="10.00">max_length</text>
<text text-anchor="start" x="9.5" y="-373" font-family="Helvetica,sans-Serif" font-size="10.00">+</text>
<text text-anchor="start" x="27.5" y="-373" font-family="Helvetica,sans-Serif" font-size="10.00">max_regex_matches</text>
<text text-anchor="start" x="9.5" y="-358" font-family="Helvetica,sans-Serif" font-size="10.00">+</text>
<text text-anchor="start" x="27.5" y="-358" font-family="Helvetica,sans-Serif" font-size="10.00">max_regex_time</text>
<text text-anchor="start" x="71" y="-343" font-family="Helvetica,sans-Serif" font-size="10.00"> </text>
<polygon fill="#666666" stroke="#666666" points="0.5,-428 0.5,-428 145.5,-428 145.5,-428 0.5,-428"/>
<polygon fill="#666666" stroke="#666666" points="0.5,-353 0.5,-353 25.5,-353 25.5,-353 0.5,-353"/>
<polygon fill="#666666" stroke="#666666" points="25.5,-353 25.5,-353 145.5,-353 145.5,-353 25.5,-353"/>
<polygon fill="none" stroke="#666666" points="0,-336 0,-456 145,-456 145,-336 0,-336"/>
</a>
</g>
</g>
<!-- Node2&#45;&gt;Node1 -->
<g id="edge1_Node000001_Node000002" class="edge">
<title>Node2&#45;&gt;Node1</title>
<g id="a_edge1_Node000001_Node000002"><a xlink:title=" ">
<path fill="none" stroke="#63b8ff" d="M72.5,-335.87C72.5,-325.17 72.5,-313.57 72.5,-301.56"/>
<polygon fill="none" stroke="#63b8ff" points="72.5,-301.42 68.5,-295.42 72.5,-289.42 76.5,-295.42 72.5,-301.42"/>
</a>
</g>
<text text-anchor="middle" x="96.5" y="-310" font-family="Helvetica,sans-Serif" font-size="10.00" fill="grey"> +options</text>
</g>
</g>
</svg>
