<?xml version="1.0" encoding="UTF-8" standalone="no"?>
<!DOCTYPE svg PUBLIC "-//W3C//DTD SVG 1.1//EN"
 "http://www.w3.org/Graphics/SVG/1.1/DTD/svg11.dtd">
<!-- Generated by graphviz version 2.43.0 (0)
 -->
<!-- Title: netspeak::invertedindex::ByteBuffer::resize Pages: 1 -->
<svg width="500pt" height="182pt"
 viewBox="0.00 0.00 500.00 182.00" xmlns="http://www.w3.org/2000/svg" xmlns:xlink="http://www.w3.org/1999/xlink">
<g id="graph0" class="graph" transform="scale(1 1) rotate(0) translate(4 178)">
<title>netspeak::invertedindex::ByteBuffer::resize</title>
<!-- Node1 -->
<g id="Node000001" class="node">
<title>Node1</title>
<g id="a_Node000001"><a xlink:title=" ">
<polygon fill="#999999" stroke="#666666" points="492,-102 357,-102 357,-72 492,-72 492,-102"/>
<text text-anchor="start" x="365" y="-90" font-family="Helvetica,sans-Serif" font-size="10.00">netspeak::invertedindex</text>
<text text-anchor="middle" x="424.5" y="-79" font-family="Helvetica,sans-Serif" font-size="10.00">::ByteBuffer::resize</text>
</a>
</g>
</g>
<!-- Node2 -->
<g id="Node000002" class="node">
<title>Node2</title>
<g id="a_Node000002"><a xlink:href="structnetspeak_1_1invertedindex_1_1constant__size__iter.html#a8c043bcbf0384d03394ab5ced5fc0feb" target="_top" xlink:title=" ">
<polygon fill="white" stroke="#666666" points="321,-126 178,-126 178,-96 321,-96 321,-126"/>
<text text-anchor="start" x="186" y="-114" font-family="Helvetica,sans-Serif" font-size="10.00">netspeak::invertedindex</text>
<text text-anchor="middle" x="249.5" y="-103" font-family="Helvetica,sans-Serif" font-size="10.00">::constant_size_iter::swap</text>
</a>
</g>
</g>
<!-- Node1&#45;&gt;Node2 -->
<g id="edge1_Node000001_Node000002" class="edge">
<title>Node1&#45;&gt;Node2</title>
<g id="a_edge1_Node000001_Node000002"><a xlink:title=" ">
<path fill="none" stroke="#63b8ff" d="M346.45,-97.69C338.05,-98.85 329.54,-100.04 321.22,-101.19"/>
<polygon fill="#63b8ff" stroke="#63b8ff" points="347.19,-101.12 356.61,-96.28 346.23,-94.19 347.19,-101.12"/>
</a>
</g>
</g>
<!-- Node5 -->
<g id="Node000005" class="node">
<title>Node5</title>
<g id="a_Node000005"><a xlink:href="structnetspeak_1_1invertedindex_1_1variable__size__iter.html#a84f326125a36a1055b2c34923767737d" target="_top" xlink:title=" ">
<polygon fill="white" stroke="#666666" points="319.5,-78 179.5,-78 179.5,-48 319.5,-48 319.5,-78"/>
<text text-anchor="start" x="187.5" y="-66" font-family="Helvetica,sans-Serif" font-size="10.00">netspeak::invertedindex</text>
<text text-anchor="middle" x="249.5" y="-55" font-family="Helvetica,sans-Serif" font-size="10.00">::variable_size_iter::swap</text>
</a>
</g>
</g>
<!-- Node1&#45;&gt;Node5 -->
<g id="edge4_Node000001_Node000005" class="edge">
<title>Node1&#45;&gt;Node5</title>
<g id="a_edge4_Node000001_Node000005"><a xlink:title=" ">
<path fill="none" stroke="#63b8ff" d="M346.61,-76.33C337.68,-75.09 328.6,-73.84 319.78,-72.61"/>
<polygon fill="#63b8ff" stroke="#63b8ff" points="346.23,-79.81 356.61,-77.72 347.19,-72.88 346.23,-79.81"/>
</a>
</g>
</g>
<!-- Node3 -->
<g id="Node000003" class="node">
<title>Node3</title>
<g id="a_Node000003"><a xlink:href="structnetspeak_1_1invertedindex_1_1constant__size__iter.html#abe8fd3fe3fbaf005c166068116dffdc8" target="_top" xlink:title=" ">
<polygon fill="white" stroke="#666666" points="140.5,-174 1.5,-174 1.5,-144 140.5,-144 140.5,-174"/>
<text text-anchor="start" x="9.5" y="-162" font-family="Helvetica,sans-Serif" font-size="10.00">netspeak::invertedindex</text>
<text text-anchor="middle" x="71" y="-151" font-family="Helvetica,sans-Serif" font-size="10.00">::constant_size_iter::next</text>
</a>
</g>
</g>
<!-- Node2&#45;&gt;Node3 -->
<g id="edge2_Node000002_Node000003" class="edge">
<title>Node2&#45;&gt;Node3</title>
<g id="a_edge2_Node000002_Node000003"><a xlink:title=" ">
<path fill="none" stroke="#63b8ff" d="M183.35,-128.72C164.89,-133.74 144.97,-139.15 127.16,-144"/>
<polygon fill="#63b8ff" stroke="#63b8ff" points="184.41,-132.06 193.14,-126.06 182.57,-125.3 184.41,-132.06"/>
</a>
</g>
</g>
<!-- Node4 -->
<g id="Node000004" class="node">
<title>Node4</title>
<g id="a_Node000004"><a xlink:href="structnetspeak_1_1invertedindex_1_1constant__size__iter.html#ad1b3b0bc3cf09bc8098287d3163a2d9f" target="_top" xlink:title=" ">
<polygon fill="white" stroke="#666666" points="142,-126 0,-126 0,-96 142,-96 142,-126"/>
<text text-anchor="start" x="8" y="-114" font-family="Helvetica,sans-Serif" font-size="10.00">netspeak::invertedindex</text>
<text text-anchor="middle" x="71" y="-103" font-family="Helvetica,sans-Serif" font-size="10.00">::constant_size_iter::write</text>
</a>
</g>
</g>
<!-- Node2&#45;&gt;Node4 -->
<g id="edge3_Node000002_Node000004" class="edge">
<title>Node2&#45;&gt;Node4</title>
<g id="a_edge3_Node000002_Node000004"><a xlink:title=" ">
<path fill="none" stroke="#63b8ff" d="M167.93,-111C159.31,-111 150.6,-111 142.12,-111"/>
<polygon fill="#63b8ff" stroke="#63b8ff" points="167.98,-114.5 177.98,-111 167.98,-107.5 167.98,-114.5"/>
</a>
</g>
</g>
<!-- Node6 -->
<g id="Node000006" class="node">
<title>Node6</title>
<g id="a_Node000006"><a xlink:href="structnetspeak_1_1invertedindex_1_1variable__size__iter.html#accad1a29b6fa4e264f6de1ab478828b2" target="_top" xlink:title=" ">
<polygon fill="white" stroke="#666666" points="139.5,-78 2.5,-78 2.5,-48 139.5,-48 139.5,-78"/>
<text text-anchor="start" x="10.5" y="-66" font-family="Helvetica,sans-Serif" font-size="10.00">netspeak::invertedindex</text>
<text text-anchor="middle" x="71" y="-55" font-family="Helvetica,sans-Serif" font-size="10.00">::variable_size_iter::next</text>
</a>
</g>
</g>
<!-- Node5&#45;&gt;Node6 -->
<g id="edge5_Node000005_Node000006" class="edge">
<title>Node5&#45;&gt;Node6</title>
<g id="a_edge5_Node000005_Node000006"><a xlink:title=" ">
<path fill="none" stroke="#63b8ff" d="M169.07,-63C159.23,-63 149.24,-63 139.61,-63"/>
<polygon fill="#63b8ff" stroke="#63b8ff" points="169.25,-66.5 179.25,-63 169.25,-59.5 169.25,-66.5"/>
</a>
</g>
</g>
<!-- Node7 -->
<g id="Node000007" class="node">
<title>Node7</title>
<g id="a_Node000007"><a xlink:href="structnetspeak_1_1invertedindex_1_1variable__size__iter.html#ac34d912dfd281b76d060021c24c9fc63" target="_top" xlink:title=" ">
<polygon fill="white" stroke="#666666" points="141,-30 1,-30 1,0 141,0 141,-30"/>
<text text-anchor="start" x="9" y="-18" font-family="Helvetica,sans-Serif" font-size="10.00">netspeak::invertedindex</text>
<text text-anchor="middle" x="71" y="-7" font-family="Helvetica,sans-Serif" font-size="10.00">::variable_size_iter::write</text>
</a>
</g>
</g>
<!-- Node5&#45;&gt;Node7 -->
<g id="edge6_Node000005_Node000007" class="edge">
<title>Node5&#45;&gt;Node7</title>
<g id="a_edge6_Node000005_Node000007"><a xlink:title=" ">
<path fill="none" stroke="#63b8ff" d="M183.35,-45.28C164.89,-40.26 144.97,-34.85 127.16,-30"/>
<polygon fill="#63b8ff" stroke="#63b8ff" points="182.57,-48.7 193.14,-47.94 184.41,-41.94 182.57,-48.7"/>
</a>
</g>
</g>
</g>
</svg>
