<?xml version="1.0" encoding="UTF-8" standalone="no"?>
<!DOCTYPE svg PUBLIC "-//W3C//DTD SVG 1.1//EN"
 "http://www.w3.org/Graphics/SVG/1.1/DTD/svg11.dtd">
<!-- Generated by graphviz version 2.43.0 (0)
 -->
<!-- Title: cli::ProxyCommand::run Pages: 1 -->
<svg width="660pt" height="113pt"
 viewBox="0.00 0.00 660.00 112.50" xmlns="http://www.w3.org/2000/svg" xmlns:xlink="http://www.w3.org/1999/xlink">
<g id="graph0" class="graph" transform="scale(1 1) rotate(0) translate(4 108.5)">
<title>cli::ProxyCommand::run</title>
<!-- Node1 -->
<g id="Node000001" class="node">
<title>Node1</title>
<g id="a_Node000001"><a xlink:title=" ">
<polygon fill="#999999" stroke="#666666" points="134,-74 0,-74 0,-55 134,-55 134,-74"/>
<text text-anchor="middle" x="67" y="-62" font-family="Helvetica,sans-Serif" font-size="10.00">cli::ProxyCommand::run</text>
</a>
</g>
</g>
<!-- Node2 -->
<g id="Node000002" class="node">
<title>Node2</title>
<g id="a_Node000002"><a xlink:href="namespacecli.html#abce6dd7d1d2d3a60550506a724548cb0" target="_top" xlink:title=" ">
<polygon fill="white" stroke="#666666" points="282,-93 189,-93 189,-74 282,-74 282,-93"/>
<text text-anchor="middle" x="235.5" y="-81" font-family="Helvetica,sans-Serif" font-size="10.00">cli::add_logging</text>
</a>
</g>
</g>
<!-- Node1&#45;&gt;Node2 -->
<g id="edge1_Node000001_Node000002" class="edge">
<title>Node1&#45;&gt;Node2</title>
<g id="a_edge1_Node000001_Node000002"><a xlink:title=" ">
<path fill="none" stroke="#63b8ff" d="M134.28,-72.06C149.02,-73.75 164.51,-75.51 178.77,-77.14"/>
<polygon fill="#63b8ff" stroke="#63b8ff" points="178.59,-80.64 188.92,-78.3 179.38,-73.69 178.59,-80.64"/>
</a>
</g>
</g>
<!-- Node3 -->
<g id="Node000003" class="node">
<title>Node3</title>
<g id="a_Node000003"><a xlink:href="namespacecli.html#ab3047781f5c7e722415ab5ac13152596" target="_top" xlink:title=" ">
<polygon fill="white" stroke="#666666" points="301,-56 170,-56 170,-37 301,-37 301,-56"/>
<text text-anchor="middle" x="235.5" y="-44" font-family="Helvetica,sans-Serif" font-size="10.00">cli::build_proxy_service</text>
</a>
</g>
</g>
<!-- Node1&#45;&gt;Node3 -->
<g id="edge2_Node000001_Node000003" class="edge">
<title>Node1&#45;&gt;Node3</title>
<g id="a_edge2_Node000001_Node000003"><a xlink:title=" ">
<path fill="none" stroke="#63b8ff" d="M134.28,-57.33C142.6,-56.44 151.15,-55.51 159.59,-54.6"/>
<polygon fill="#63b8ff" stroke="#63b8ff" points="160.24,-58.05 169.8,-53.49 159.48,-51.09 160.24,-58.05"/>
</a>
</g>
</g>
<!-- Node4 -->
<g id="Node000004" class="node">
<title>Node4</title>
<g id="a_Node000004"><a xlink:href="namespacecli.html#a6a02e1a5cac70ac58dc17ac7f8c5cc00" target="_top" xlink:title=" ">
<polygon fill="white" stroke="#666666" points="432,-56 337,-56 337,-37 432,-37 432,-56"/>
<text text-anchor="middle" x="384.5" y="-44" font-family="Helvetica,sans-Serif" font-size="10.00">cli::scanSources</text>
</a>
</g>
</g>
<!-- Node3&#45;&gt;Node4 -->
<g id="edge3_Node000003_Node000004" class="edge">
<title>Node3&#45;&gt;Node4</title>
<g id="a_edge3_Node000003_Node000004"><a xlink:title=" ">
<path fill="none" stroke="#63b8ff" d="M301.4,-46.5C309.73,-46.5 318.21,-46.5 326.4,-46.5"/>
<polygon fill="#63b8ff" stroke="#63b8ff" points="326.59,-50 336.59,-46.5 326.59,-43 326.59,-50"/>
</a>
</g>
</g>
<!-- Node5 -->
<g id="Node000005" class="node">
<title>Node5</title>
<g id="a_Node000005"><a xlink:href="classnetspeak_1_1service_1_1LoadBalanceProxy.html#a1ed5863b0775c1160e5c793e79516309" target="_top" xlink:title="Returns the whether the two corpora are compatible by the definition of this proxy.">
<polygon fill="white" stroke="#666666" points="652,-104.5 468,-104.5 468,-74.5 652,-74.5 652,-104.5"/>
<text text-anchor="start" x="476" y="-92.5" font-family="Helvetica,sans-Serif" font-size="10.00">netspeak::service::</text>
<text text-anchor="middle" x="560" y="-81.5" font-family="Helvetica,sans-Serif" font-size="10.00">LoadBalanceProxy::areCompatible</text>
</a>
</g>
</g>
<!-- Node4&#45;&gt;Node5 -->
<g id="edge4_Node000004_Node000005" class="edge">
<title>Node4&#45;&gt;Node5</title>
<g id="a_edge4_Node000004_Node000005"><a xlink:title=" ">
<path fill="none" stroke="#63b8ff" d="M424.01,-56.04C442.96,-60.74 466.43,-66.56 488.46,-72.02"/>
<polygon fill="#63b8ff" stroke="#63b8ff" points="487.9,-75.49 498.45,-74.49 489.59,-68.69 487.9,-75.49"/>
</a>
</g>
</g>
<!-- Node6 -->
<g id="Node000006" class="node">
<title>Node6</title>
<g id="a_Node000006"><a xlink:href="namespacecli.html#ae9428c4a49b414b314134bdf38214c6e" target="_top" xlink:title="Returns the corpora of the given stub.">
<polygon fill="white" stroke="#666666" points="604,-56 516,-56 516,-37 604,-37 604,-56"/>
<text text-anchor="middle" x="560" y="-44" font-family="Helvetica,sans-Serif" font-size="10.00">cli::getCorpora</text>
</a>
</g>
</g>
<!-- Node4&#45;&gt;Node6 -->
<g id="edge5_Node000004_Node000006" class="edge">
<title>Node4&#45;&gt;Node6</title>
<g id="a_edge5_Node000004_Node000006"><a xlink:title=" ">
<path fill="none" stroke="#63b8ff" d="M432.45,-46.5C455.09,-46.5 482.35,-46.5 505.76,-46.5"/>
<polygon fill="#63b8ff" stroke="#63b8ff" points="505.88,-50 515.88,-46.5 505.88,-43 505.88,-50"/>
</a>
</g>
</g>
<!-- Node7 -->
<g id="Node000007" class="node">
<title>Node7</title>
<g id="a_Node000007"><a xlink:href="namespacecli.html#aa049984e5a8328fb9ff8fe3719602d80" target="_top" xlink:title=" ">
<polygon fill="white" stroke="#666666" points="598,-19 522,-19 522,0 598,0 598,-19"/>
<text text-anchor="middle" x="560" y="-7" font-family="Helvetica,sans-Serif" font-size="10.00">cli::newStub</text>
</a>
</g>
</g>
<!-- Node4&#45;&gt;Node7 -->
<g id="edge6_Node000004_Node000007" class="edge">
<title>Node4&#45;&gt;Node7</title>
<g id="a_edge6_Node000004_Node000007"><a xlink:title=" ">
<path fill="none" stroke="#63b8ff" d="M428.73,-36.99C441.38,-34.23 455.24,-31.22 468,-28.5 482.23,-25.46 497.71,-22.21 511.81,-19.27"/>
<polygon fill="#63b8ff" stroke="#63b8ff" points="512.72,-22.66 521.79,-17.19 511.29,-15.8 512.72,-22.66"/>
</a>
</g>
</g>
</g>
</svg>
