<?xml version="1.0" encoding="UTF-8" standalone="no"?>
<!DOCTYPE svg PUBLIC "-//W3C//DTD SVG 1.1//EN"
 "http://www.w3.org/Graphics/SVG/1.1/DTD/svg11.dtd">
<!-- Generated by graphviz version 2.43.0 (0)
 -->
<!-- Title: cli::Command::add_options Pages: 1 -->
<svg width="1142pt" height="116pt"
 viewBox="0.00 0.00 1142.00 116.50" xmlns="http://www.w3.org/2000/svg" xmlns:xlink="http://www.w3.org/1999/xlink">
<g id="graph0" class="graph" transform="scale(1 1) rotate(0) translate(4 112.5)">
<title>cli::Command::add_options</title>
<!-- Node1 -->
<g id="Node000001" class="node">
<title>Node1</title>
<g id="a_Node000001"><a xlink:title=" ">
<polygon fill="#999999" stroke="#666666" points="1134,-38 985,-38 985,-19 1134,-19 1134,-38"/>
<text text-anchor="middle" x="1059.5" y="-26" font-family="Helvetica,sans-Serif" font-size="10.00">cli::Command::add_options</text>
</a>
</g>
</g>
<!-- Node2 -->
<g id="Node000002" class="node">
<title>Node2</title>
<g id="a_Node000002"><a xlink:href="namespacecli.html#a3aacc4bf1a67732a492a18bc25fcd211" target="_top" xlink:title=" ">
<polygon fill="white" stroke="#666666" points="949,-38 836,-38 836,-19 949,-19 949,-38"/>
<text text-anchor="middle" x="892.5" y="-26" font-family="Helvetica,sans-Serif" font-size="10.00">cli::get_option_desc</text>
</a>
</g>
</g>
<!-- Node1&#45;&gt;Node2 -->
<g id="edge1_Node000001_Node000002" class="edge">
<title>Node1&#45;&gt;Node2</title>
<g id="a_edge1_Node000001_Node000002"><a xlink:title=" ">
<path fill="none" stroke="#63b8ff" d="M974.66,-28.5C966.11,-28.5 957.58,-28.5 949.43,-28.5"/>
<polygon fill="#63b8ff" stroke="#63b8ff" points="974.69,-32 984.69,-28.5 974.69,-25 974.69,-32"/>
</a>
</g>
</g>
<!-- Node3 -->
<g id="Node000003" class="node">
<title>Node3</title>
<g id="a_Node000003"><a xlink:href="namespacecli.html#afa35336b7c594c68eb850544a1ae6b41" target="_top" xlink:title=" ">
<polygon fill="white" stroke="#666666" points="800,-76 663,-76 663,-57 800,-57 800,-76"/>
<text text-anchor="middle" x="731.5" y="-64" font-family="Helvetica,sans-Serif" font-size="10.00">cli::print_command_help</text>
</a>
</g>
</g>
<!-- Node2&#45;&gt;Node3 -->
<g id="edge2_Node000002_Node000003" class="edge">
<title>Node2&#45;&gt;Node3</title>
<g id="a_edge2_Node000002_Node000003"><a xlink:title=" ">
<path fill="none" stroke="#63b8ff" d="M841.42,-40.47C819.14,-45.79 793.27,-51.98 772.33,-56.98"/>
<polygon fill="#63b8ff" stroke="#63b8ff" points="842.47,-43.82 851.38,-38.09 840.84,-37.01 842.47,-43.82"/>
</a>
</g>
</g>
<!-- Node8 -->
<g id="Node000008" class="node">
<title>Node8</title>
<g id="a_Node000008"><a xlink:href="namespacecli.html#a1cbfeb7f5bb332a31f5b87e440cba7b8" target="_top" xlink:title=" ">
<polygon fill="white" stroke="#666666" points="328,-19 224,-19 224,0 328,0 328,-19"/>
<text text-anchor="middle" x="276" y="-7" font-family="Helvetica,sans-Serif" font-size="10.00">cli::run_command</text>
</a>
</g>
</g>
<!-- Node2&#45;&gt;Node8 -->
<g id="edge12_Node000002_Node000008" class="edge">
<title>Node2&#45;&gt;Node8</title>
<g id="a_edge12_Node000002_Node000008"><a xlink:title=" ">
<path fill="none" stroke="#63b8ff" d="M825.83,-26.47C702.63,-22.66 439.26,-14.52 328.14,-11.08"/>
<polygon fill="#63b8ff" stroke="#63b8ff" points="825.78,-29.97 835.88,-26.78 826,-22.97 825.78,-29.97"/>
</a>
</g>
</g>
<!-- Node4 -->
<g id="Node000004" class="node">
<title>Node4</title>
<g id="a_Node000004"><a xlink:href="namespacecli.html#a1fb203adc83f007fd2be352a32997a72" target="_top" xlink:title="Print a short help message that lists all available commands.">
<polygon fill="white" stroke="#666666" points="627,-95 485,-95 485,-76 627,-76 627,-95"/>
<text text-anchor="middle" x="556" y="-83" font-family="Helvetica,sans-Serif" font-size="10.00">cli::print_commands_help</text>
</a>
</g>
</g>
<!-- Node3&#45;&gt;Node4 -->
<g id="edge3_Node000003_Node000004" class="edge">
<title>Node3&#45;&gt;Node4</title>
<g id="a_edge3_Node000003_Node000004"><a xlink:title=" ">
<path fill="none" stroke="#63b8ff" d="M652.95,-74.99C644.39,-75.93 635.72,-76.88 627.25,-77.81"/>
<polygon fill="#63b8ff" stroke="#63b8ff" points="653.36,-78.47 662.92,-73.9 652.6,-71.51 653.36,-78.47"/>
</a>
</g>
</g>
<!-- Node6 -->
<g id="Node000006" class="node">
<title>Node6</title>
<g id="a_Node000006"><a xlink:href="classcli_1_1Commands.html#a6beca4594b46ff931dc339b30bfa8907" target="_top" xlink:title=" ">
<polygon fill="white" stroke="#666666" points="188,-76 77,-76 77,-57 188,-57 188,-76"/>
<text text-anchor="middle" x="132.5" y="-64" font-family="Helvetica,sans-Serif" font-size="10.00">cli::Commands::run</text>
</a>
</g>
</g>
<!-- Node3&#45;&gt;Node6 -->
<g id="edge11_Node000003_Node000006" class="edge">
<title>Node3&#45;&gt;Node6</title>
<g id="a_edge11_Node000003_Node000006"><a xlink:title=" ">
<path fill="none" stroke="#63b8ff" d="M701.54,-80.26C681.2,-89.14 653.08,-99.86 627,-104.5 544.93,-119.09 224.71,-87.6 224,-87.5 205.49,-84.77 185.17,-80.2 168.49,-76.02"/>
<polygon fill="#63b8ff" stroke="#63b8ff" points="703.16,-83.37 710.85,-76.09 700.3,-76.98 703.16,-83.37"/>
</a>
</g>
</g>
<!-- Node9 -->
<g id="Node000009" class="node">
<title>Node9</title>
<g id="a_Node000009"><a xlink:href="namespacecli.html#ac6ff98aa5fa9c971821bb0dc351a2ff3" target="_top" xlink:title=" ">
<polygon fill="white" stroke="#666666" points="598.5,-58 513.5,-58 513.5,-39 598.5,-39 598.5,-58"/>
<text text-anchor="middle" x="556" y="-46" font-family="Helvetica,sans-Serif" font-size="10.00">cli::print_error</text>
</a>
</g>
</g>
<!-- Node3&#45;&gt;Node9 -->
<g id="edge10_Node000003_Node000009" class="edge">
<title>Node3&#45;&gt;Node9</title>
<g id="a_edge10_Node000003_Node000009"><a xlink:title=" ">
<path fill="none" stroke="#63b8ff" d="M652.91,-58.45C634.2,-56.51 614.92,-54.51 598.59,-52.82"/>
<polygon fill="#63b8ff" stroke="#63b8ff" points="652.62,-61.94 662.92,-59.49 653.34,-54.98 652.62,-61.94"/>
</a>
</g>
</g>
<!-- Node5 -->
<g id="Node000005" class="node">
<title>Node5</title>
<g id="a_Node000005"><a xlink:href="namespacecli.html#a7df2b55d560146ba04a66ca65e551636" target="_top" xlink:title=" ">
<polygon fill="white" stroke="#666666" points="449,-57 364,-57 364,-38 449,-38 449,-57"/>
<text text-anchor="middle" x="406.5" y="-45" font-family="Helvetica,sans-Serif" font-size="10.00">cli::print_error</text>
</a>
</g>
</g>
<!-- Node4&#45;&gt;Node5 -->
<g id="edge4_Node000004_Node000005" class="edge">
<title>Node4&#45;&gt;Node5</title>
<g id="a_edge4_Node000004_Node000005"><a xlink:title=" ">
<path fill="none" stroke="#63b8ff" d="M507.99,-73.39C487.44,-68.1 463.7,-61.98 444.45,-57.02"/>
<polygon fill="#63b8ff" stroke="#63b8ff" points="507.22,-76.81 517.78,-75.91 508.97,-70.03 507.22,-76.81"/>
</a>
</g>
</g>
<!-- Node4&#45;&gt;Node6 -->
<g id="edge9_Node000004_Node000006" class="edge">
<title>Node4&#45;&gt;Node6</title>
<g id="a_edge9_Node000004_Node000006"><a xlink:title=" ">
<path fill="none" stroke="#63b8ff" d="M474.92,-81.89C390.95,-78.11 261.27,-72.26 188.28,-68.97"/>
<polygon fill="#63b8ff" stroke="#63b8ff" points="474.78,-85.39 484.92,-82.34 475.09,-78.39 474.78,-85.39"/>
</a>
</g>
</g>
<!-- Node5&#45;&gt;Node6 -->
<g id="edge5_Node000005_Node000006" class="edge">
<title>Node5&#45;&gt;Node6</title>
<g id="a_edge5_Node000005_Node000006"><a xlink:title=" ">
<path fill="none" stroke="#63b8ff" d="M353.85,-51.11C306.49,-54.42 236.58,-59.3 188.26,-62.67"/>
<polygon fill="#63b8ff" stroke="#63b8ff" points="354.16,-54.59 363.89,-50.41 353.67,-47.61 354.16,-54.59"/>
</a>
</g>
</g>
<!-- Node5&#45;&gt;Node8 -->
<g id="edge7_Node000005_Node000008" class="edge">
<title>Node5&#45;&gt;Node8</title>
<g id="a_edge7_Node000005_Node000008"><a xlink:title=" ">
<path fill="none" stroke="#63b8ff" d="M363.11,-34.96C345.63,-29.8 325.7,-23.9 309.42,-19.09"/>
<polygon fill="#63b8ff" stroke="#63b8ff" points="362.49,-38.43 373.07,-37.91 364.48,-31.72 362.49,-38.43"/>
</a>
</g>
</g>
<!-- Node7 -->
<g id="Node000007" class="node">
<title>Node7</title>
<g id="a_Node000007"><a xlink:href="CommandLineTool_8cpp.html#a3c04138a5bfe5d72780bb7e82a18e627" target="_top" xlink:title=" ">
<polygon fill="white" stroke="#666666" points="41,-76 0,-76 0,-57 41,-57 41,-76"/>
<text text-anchor="middle" x="20.5" y="-64" font-family="Helvetica,sans-Serif" font-size="10.00">main</text>
</a>
</g>
</g>
<!-- Node6&#45;&gt;Node7 -->
<g id="edge6_Node000006_Node000007" class="edge">
<title>Node6&#45;&gt;Node7</title>
<g id="a_edge6_Node000006_Node000007"><a xlink:title=" ">
<path fill="none" stroke="#63b8ff" d="M66.64,-66.5C57.35,-66.5 48.45,-66.5 41.05,-66.5"/>
<polygon fill="#63b8ff" stroke="#63b8ff" points="66.82,-70 76.82,-66.5 66.82,-63 66.82,-70"/>
</a>
</g>
</g>
<!-- Node8&#45;&gt;Node6 -->
<g id="edge8_Node000008_Node000006" class="edge">
<title>Node8&#45;&gt;Node6</title>
<g id="a_edge8_Node000008_Node000006"><a xlink:title=" ">
<path fill="none" stroke="#63b8ff" d="M241.88,-22.84C215.93,-33.3 180.45,-47.59 157.26,-56.93"/>
<polygon fill="#63b8ff" stroke="#63b8ff" points="243.35,-26.02 251.32,-19.04 240.73,-19.53 243.35,-26.02"/>
</a>
</g>
</g>
</g>
</svg>
