<?xml version="1.0" encoding="UTF-8" standalone="no"?>
<!DOCTYPE svg PUBLIC "-//W3C//DTD SVG 1.1//EN"
 "http://www.w3.org/Graphics/SVG/1.1/DTD/svg11.dtd">
<!-- Generated by graphviz version 2.43.0 (0)
 -->
<!-- Title: antlr4::QueryConstructor::enterWord Pages: 1 -->
<svg width="525pt" height="124pt"
 viewBox="0.00 0.00 525.00 123.50" xmlns="http://www.w3.org/2000/svg" xmlns:xlink="http://www.w3.org/1999/xlink">
<g id="graph0" class="graph" transform="scale(1 1) rotate(0) translate(4 119.5)">
<title>antlr4::QueryConstructor::enterWord</title>
<!-- Node1 -->
<g id="Node000001" class="node">
<title>Node1</title>
<g id="a_Node000001"><a xlink:title=" ">
<polygon fill="#999999" stroke="#666666" points="137,-67.5 0,-67.5 0,-37.5 137,-37.5 137,-67.5"/>
<text text-anchor="start" x="8" y="-55.5" font-family="Helvetica,sans-Serif" font-size="10.00">antlr4::QueryConstructor</text>
<text text-anchor="middle" x="68.5" y="-44.5" font-family="Helvetica,sans-Serif" font-size="10.00">::enterWord</text>
</a>
</g>
</g>
<!-- Node2 -->
<g id="Node000002" class="node">
<title>Node2</title>
<g id="a_Node000002"><a xlink:href="classantlr4_1_1QueryConstructor.html#a968de060cb7e4922495c27954b17d0a0" target="_top" xlink:title=" ">
<polygon fill="white" stroke="#666666" points="318.5,-115.5 181.5,-115.5 181.5,-85.5 318.5,-85.5 318.5,-115.5"/>
<text text-anchor="start" x="189.5" y="-103.5" font-family="Helvetica,sans-Serif" font-size="10.00">antlr4::QueryConstructor</text>
<text text-anchor="middle" x="250" y="-92.5" font-family="Helvetica,sans-Serif" font-size="10.00">::push_stack</text>
</a>
</g>
</g>
<!-- Node1&#45;&gt;Node2 -->
<g id="edge1_Node000001_Node000002" class="edge">
<title>Node1&#45;&gt;Node2</title>
<g id="a_edge1_Node000001_Node000002"><a xlink:title=" ">
<path fill="none" stroke="#63b8ff" d="M125.8,-67.56C144.01,-72.43 164.37,-77.87 183.21,-82.91"/>
<polygon fill="#63b8ff" stroke="#63b8ff" points="182.33,-86.3 192.9,-85.5 184.14,-79.53 182.33,-86.3"/>
</a>
</g>
</g>
<!-- Node3 -->
<g id="Node000003" class="node">
<title>Node3</title>
<g id="a_Node000003"><a xlink:href="classnetspeak_1_1model_1_1QueryUnit____.html#ac85cc5078f0726242a273118acccfa78" target="_top" xlink:title=" ">
<polygon fill="white" stroke="#666666" points="327,-67.5 173,-67.5 173,-37.5 327,-37.5 327,-67.5"/>
<text text-anchor="start" x="181" y="-55.5" font-family="Helvetica,sans-Serif" font-size="10.00">netspeak::model::QueryUnit</text>
<text text-anchor="middle" x="250" y="-44.5" font-family="Helvetica,sans-Serif" font-size="10.00">__::terminal</text>
</a>
</g>
</g>
<!-- Node1&#45;&gt;Node3 -->
<g id="edge2_Node000001_Node000003" class="edge">
<title>Node1&#45;&gt;Node3</title>
<g id="a_edge2_Node000001_Node000003"><a xlink:title=" ">
<path fill="none" stroke="#63b8ff" d="M137.11,-52.5C145.46,-52.5 154.09,-52.5 162.68,-52.5"/>
<polygon fill="#63b8ff" stroke="#63b8ff" points="162.73,-56 172.73,-52.5 162.73,-49 162.73,-56"/>
</a>
</g>
</g>
<!-- Node6 -->
<g id="Node000006" class="node">
<title>Node6</title>
<g id="a_Node000006"><a xlink:href="namespaceantlr4.html#aacdddfb624b04c5f787d9c5ecef87202" target="_top" xlink:title="Unescapes backslashes in the given string.">
<polygon fill="white" stroke="#666666" points="313.5,-19 186.5,-19 186.5,0 313.5,0 313.5,-19"/>
<text text-anchor="middle" x="250" y="-7" font-family="Helvetica,sans-Serif" font-size="10.00">antlr4::unescape_word</text>
</a>
</g>
</g>
<!-- Node1&#45;&gt;Node6 -->
<g id="edge5_Node000001_Node000006" class="edge">
<title>Node1&#45;&gt;Node6</title>
<g id="a_edge5_Node000001_Node000006"><a xlink:title=" ">
<path fill="none" stroke="#63b8ff" d="M132.28,-37.46C154.26,-32.2 178.62,-26.36 199.38,-21.39"/>
<polygon fill="#63b8ff" stroke="#63b8ff" points="200.34,-24.76 209.25,-19.02 198.71,-17.95 200.34,-24.76"/>
</a>
</g>
</g>
<!-- Node4 -->
<g id="Node000004" class="node">
<title>Node4</title>
<g id="a_Node000004"><a xlink:href="classnetspeak_1_1model_1_1QueryUnit____.html#a95a933ddda7a0d4db361dc5efd2a1f2d" target="_top" xlink:title=" ">
<polygon fill="white" stroke="#666666" points="517,-91.5 363,-91.5 363,-61.5 517,-61.5 517,-91.5"/>
<text text-anchor="start" x="371" y="-79.5" font-family="Helvetica,sans-Serif" font-size="10.00">netspeak::model::QueryUnit</text>
<text text-anchor="middle" x="440" y="-68.5" font-family="Helvetica,sans-Serif" font-size="10.00">__::tag</text>
</a>
</g>
</g>
<!-- Node3&#45;&gt;Node4 -->
<g id="edge3_Node000003_Node000004" class="edge">
<title>Node3&#45;&gt;Node4</title>
<g id="a_edge3_Node000003_Node000004"><a xlink:title=" ">
<path fill="none" stroke="#63b8ff" d="M327.2,-62.23C335.61,-63.3 344.22,-64.4 352.74,-65.49"/>
<polygon fill="#63b8ff" stroke="#63b8ff" points="352.33,-68.96 362.7,-66.76 353.22,-62.02 352.33,-68.96"/>
</a>
</g>
</g>
<!-- Node5 -->
<g id="Node000005" class="node">
<title>Node5</title>
<g id="a_Node000005"><a xlink:href="classnetspeak_1_1model_1_1QueryUnit____.html#aceea127950e12e672abdacecd7cd178c" target="_top" xlink:title=" ">
<polygon fill="white" stroke="#666666" points="517,-43.5 363,-43.5 363,-13.5 517,-13.5 517,-43.5"/>
<text text-anchor="start" x="371" y="-31.5" font-family="Helvetica,sans-Serif" font-size="10.00">netspeak::model::QueryUnit</text>
<text text-anchor="middle" x="440" y="-20.5" font-family="Helvetica,sans-Serif" font-size="10.00">__::text</text>
</a>
</g>
</g>
<!-- Node3&#45;&gt;Node5 -->
<g id="edge4_Node000003_Node000005" class="edge">
<title>Node3&#45;&gt;Node5</title>
<g id="a_edge4_Node000003_Node000005"><a xlink:title=" ">
<path fill="none" stroke="#63b8ff" d="M327.2,-42.77C335.61,-41.7 344.22,-40.6 352.74,-39.51"/>
<polygon fill="#63b8ff" stroke="#63b8ff" points="353.22,-42.98 362.7,-38.24 352.33,-36.04 353.22,-42.98"/>
</a>
</g>
</g>
</g>
</svg>
