<?xml version="1.0" encoding="UTF-8" standalone="no"?>
<!DOCTYPE svg PUBLIC "-//W3C//DTD SVG 1.1//EN"
 "http://www.w3.org/Graphics/SVG/1.1/DTD/svg11.dtd">
<!-- Generated by graphviz version 2.43.0 (0)
 -->
<!-- Title: netspeak::model::SimpleQueryUnit__::add_child Pages: 1 -->
<svg width="1587pt" height="270pt"
 viewBox="0.00 0.00 1587.00 270.40" xmlns="http://www.w3.org/2000/svg" xmlns:xlink="http://www.w3.org/1999/xlink">
<g id="graph0" class="graph" transform="scale(1 1) rotate(0) translate(4 266.4)">
<title>netspeak::model::SimpleQueryUnit__::add_child</title>
<!-- Node1 -->
<g id="Node000001" class="node">
<title>Node1</title>
<g id="a_Node000001"><a xlink:title=" ">
<polygon fill="#999999" stroke="#666666" points="1579,-140.4 1412,-140.4 1412,-110.4 1579,-110.4 1579,-140.4"/>
<text text-anchor="start" x="1420" y="-128.4" font-family="Helvetica,sans-Serif" font-size="10.00">netspeak::model::SimpleQuery</text>
<text text-anchor="middle" x="1495.5" y="-117.4" font-family="Helvetica,sans-Serif" font-size="10.00">Unit__::add_child</text>
</a>
</g>
</g>
<!-- Node2 -->
<g id="Node000002" class="node">
<title>Node2</title>
<g id="a_Node000002"><a xlink:href="classnetspeak_1_1QuerySimplifier.html#ae3c3e04a80fa328604bd5287349aebe2" target="_top" xlink:title=" ">
<polygon fill="white" stroke="#666666" points="1358,-140.4 1215,-140.4 1215,-110.4 1358,-110.4 1358,-140.4"/>
<text text-anchor="start" x="1223" y="-128.4" font-family="Helvetica,sans-Serif" font-size="10.00">netspeak::QuerySimplifier</text>
<text text-anchor="middle" x="1286.5" y="-117.4" font-family="Helvetica,sans-Serif" font-size="10.00">::add_to_alternation</text>
</a>
</g>
</g>
<!-- Node1&#45;&gt;Node2 -->
<g id="edge1_Node000001_Node000002" class="edge">
<title>Node1&#45;&gt;Node2</title>
<g id="a_edge1_Node000001_Node000002"><a xlink:title=" ">
<path fill="none" stroke="#63b8ff" d="M1401.71,-125.4C1387.06,-125.4 1372.11,-125.4 1358.07,-125.4"/>
<polygon fill="#63b8ff" stroke="#63b8ff" points="1401.8,-128.9 1411.8,-125.4 1401.8,-121.9 1401.8,-128.9"/>
</a>
</g>
</g>
<!-- Node11 -->
<g id="Node000011" class="node">
<title>Node11</title>
<g id="a_Node000011"><a xlink:href="classnetspeak_1_1QuerySimplifier.html#a6cbbe38bc9244210c3f76635f30daaa3" target="_top" xlink:title=" ">
<polygon fill="white" stroke="#666666" points="928,-219.4 785,-219.4 785,-189.4 928,-189.4 928,-219.4"/>
<text text-anchor="start" x="793" y="-207.4" font-family="Helvetica,sans-Serif" font-size="10.00">netspeak::QuerySimplifier</text>
<text text-anchor="middle" x="856.5" y="-196.4" font-family="Helvetica,sans-Serif" font-size="10.00">::add_to_concat</text>
</a>
</g>
</g>
<!-- Node1&#45;&gt;Node11 -->
<g id="edge15_Node000001_Node000011" class="edge">
<title>Node1&#45;&gt;Node11</title>
<g id="a_edge15_Node000001_Node000011"><a xlink:title=" ">
<path fill="none" stroke="#63b8ff" d="M1413.52,-142.44C1400.98,-144.89 1388.16,-147.3 1376,-149.4 1280.87,-165.88 1256.95,-169.7 1161,-180.4 1081.42,-189.28 989.74,-196.05 928.15,-200.11"/>
<polygon fill="#63b8ff" stroke="#63b8ff" points="1414.37,-145.84 1423.5,-140.46 1413.01,-138.97 1414.37,-145.84"/>
</a>
</g>
</g>
<!-- Node12 -->
<g id="Node000012" class="node">
<title>Node12</title>
<g id="a_Node000012"><a xlink:href="classnetspeak_1_1SimpleQueryOptimizer.html#a90004a090dc4838d5a696e0f3c9cb2be" target="_top" xlink:title=" ">
<polygon fill="white" stroke="#666666" points="1376,-73.4 1197,-73.4 1197,-43.4 1376,-43.4 1376,-73.4"/>
<text text-anchor="start" x="1205" y="-61.4" font-family="Helvetica,sans-Serif" font-size="10.00">netspeak::SimpleQueryOptimizer</text>
<text text-anchor="middle" x="1286.5" y="-50.4" font-family="Helvetica,sans-Serif" font-size="10.00">::inline_nested</text>
</a>
</g>
</g>
<!-- Node1&#45;&gt;Node12 -->
<g id="edge18_Node000001_Node000012" class="edge">
<title>Node1&#45;&gt;Node12</title>
<g id="a_edge18_Node000001_Node000012"><a xlink:title=" ">
<path fill="none" stroke="#63b8ff" d="M1438.2,-107.18C1405.57,-96.62 1364.99,-83.48 1334.16,-73.5"/>
<polygon fill="#63b8ff" stroke="#63b8ff" points="1437.45,-110.62 1448.05,-110.37 1439.61,-103.96 1437.45,-110.62"/>
</a>
</g>
</g>
<!-- Node3 -->
<g id="Node000003" class="node">
<title>Node3</title>
<g id="a_Node000003"><a xlink:href="classnetspeak_1_1QuerySimplifier.html#a3b44d549420ef21f82bde54ad4858ba5" target="_top" xlink:title=" ">
<polygon fill="white" stroke="#666666" points="1143,-171.4 1000,-171.4 1000,-141.4 1143,-141.4 1143,-171.4"/>
<text text-anchor="start" x="1008" y="-159.4" font-family="Helvetica,sans-Serif" font-size="10.00">netspeak::QuerySimplifier</text>
<text text-anchor="middle" x="1071.5" y="-148.4" font-family="Helvetica,sans-Serif" font-size="10.00">::alt_to_simple</text>
</a>
</g>
</g>
<!-- Node2&#45;&gt;Node3 -->
<g id="edge2_Node000002_Node000003" class="edge">
<title>Node2&#45;&gt;Node3</title>
<g id="a_edge2_Node000002_Node000003"><a xlink:title=" ">
<path fill="none" stroke="#63b8ff" d="M1204.75,-137.15C1184.53,-140.1 1163,-143.23 1143.3,-146.1"/>
<polygon fill="#63b8ff" stroke="#63b8ff" points="1205.48,-140.58 1214.87,-135.68 1204.47,-133.66 1205.48,-140.58"/>
</a>
</g>
</g>
<!-- Node6 -->
<g id="Node000006" class="node">
<title>Node6</title>
<g id="a_Node000006"><a xlink:href="classnetspeak_1_1QuerySimplifier.html#abafc853573d650c19c989cebbdc10ce4" target="_top" xlink:title=" ">
<polygon fill="white" stroke="#666666" points="713,-128.4 570,-128.4 570,-98.4 713,-98.4 713,-128.4"/>
<text text-anchor="start" x="578" y="-116.4" font-family="Helvetica,sans-Serif" font-size="10.00">netspeak::QuerySimplifier</text>
<text text-anchor="middle" x="641.5" y="-105.4" font-family="Helvetica,sans-Serif" font-size="10.00">::option_to_simple</text>
</a>
</g>
</g>
<!-- Node2&#45;&gt;Node6 -->
<g id="edge14_Node000002_Node000006" class="edge">
<title>Node2&#45;&gt;Node6</title>
<g id="a_edge14_Node000002_Node000006"><a xlink:title=" ">
<path fill="none" stroke="#63b8ff" d="M1204.8,-123.9C1077.89,-121.53 833.73,-116.97 713.27,-114.72"/>
<polygon fill="#63b8ff" stroke="#63b8ff" points="1204.78,-127.4 1214.85,-124.08 1204.92,-120.4 1204.78,-127.4"/>
</a>
</g>
</g>
<!-- Node4 -->
<g id="Node000004" class="node">
<title>Node4</title>
<g id="a_Node000004"><a xlink:href="classnetspeak_1_1QuerySimplifier.html#ab2f06fcd290543e7a04f2e5614a5f719" target="_top" xlink:title=" ">
<polygon fill="white" stroke="#666666" points="928,-171.4 785,-171.4 785,-141.4 928,-141.4 928,-171.4"/>
<text text-anchor="start" x="793" y="-159.4" font-family="Helvetica,sans-Serif" font-size="10.00">netspeak::QuerySimplifier</text>
<text text-anchor="middle" x="856.5" y="-148.4" font-family="Helvetica,sans-Serif" font-size="10.00">::unit_to_simple</text>
</a>
</g>
</g>
<!-- Node3&#45;&gt;Node4 -->
<g id="edge3_Node000003_Node000004" class="edge">
<title>Node3&#45;&gt;Node4</title>
<g id="a_edge3_Node000003_Node000004"><a xlink:title=" ">
<path fill="none" stroke="#63b8ff" d="M989.75,-149.83C969.53,-149.54 948,-149.6 928.3,-150"/>
<polygon fill="#63b8ff" stroke="#63b8ff" points="989.81,-153.33 999.87,-150 989.93,-146.33 989.81,-153.33"/>
</a>
</g>
</g>
<!-- Node4&#45;&gt;Node3 -->
<g id="edge4_Node000004_Node000003" class="edge">
<title>Node4&#45;&gt;Node3</title>
<g id="a_edge4_Node000004_Node000003"><a xlink:title=" ">
<path fill="none" stroke="#63b8ff" d="M938.43,-162.98C958.65,-163.26 980.19,-163.2 999.87,-162.8"/>
<polygon fill="#63b8ff" stroke="#63b8ff" points="938.36,-159.47 928.3,-162.8 938.24,-166.47 938.36,-159.47"/>
</a>
</g>
</g>
<!-- Node5 -->
<g id="Node000005" class="node">
<title>Node5</title>
<g id="a_Node000005"><a xlink:href="classnetspeak_1_1QuerySimplifier.html#a1f629b768d053c64ba136f00661e601d" target="_top" xlink:title=" ">
<polygon fill="white" stroke="#666666" points="713,-214.4 570,-214.4 570,-184.4 713,-184.4 713,-214.4"/>
<text text-anchor="start" x="578" y="-202.4" font-family="Helvetica,sans-Serif" font-size="10.00">netspeak::QuerySimplifier</text>
<text text-anchor="middle" x="641.5" y="-191.4" font-family="Helvetica,sans-Serif" font-size="10.00">::concat_to_simple</text>
</a>
</g>
</g>
<!-- Node4&#45;&gt;Node5 -->
<g id="edge5_Node000004_Node000005" class="edge">
<title>Node4&#45;&gt;Node5</title>
<g id="a_edge5_Node000004_Node000005"><a xlink:title=" ">
<path fill="none" stroke="#63b8ff" d="M774.73,-166.14C745.68,-171.59 713.92,-178.3 688.81,-184.37"/>
<polygon fill="#63b8ff" stroke="#63b8ff" points="775.67,-169.52 784.87,-164.26 774.4,-162.64 775.67,-169.52"/>
</a>
</g>
</g>
<!-- Node4&#45;&gt;Node6 -->
<g id="edge7_Node000004_Node000006" class="edge">
<title>Node4&#45;&gt;Node6</title>
<g id="a_edge7_Node000004_Node000006"><a xlink:title=" ">
<path fill="none" stroke="#63b8ff" d="M799.46,-139.06C773.1,-132.92 741.37,-126.39 713.35,-121.3"/>
<polygon fill="#63b8ff" stroke="#63b8ff" points="798.74,-142.49 809.28,-141.39 800.36,-135.68 798.74,-142.49"/>
</a>
</g>
</g>
<!-- Node7 -->
<g id="Node000007" class="node">
<title>Node7</title>
<g id="a_Node000007"><a xlink:href="classnetspeak_1_1QuerySimplifier.html#a2f67510a9b668e751894cdeb6e97b349" target="_top" xlink:title=" ">
<polygon fill="white" stroke="#666666" points="713,-262.4 570,-262.4 570,-232.4 713,-232.4 713,-262.4"/>
<text text-anchor="start" x="578" y="-250.4" font-family="Helvetica,sans-Serif" font-size="10.00">netspeak::QuerySimplifier</text>
<text text-anchor="middle" x="641.5" y="-239.4" font-family="Helvetica,sans-Serif" font-size="10.00">::order_to_simple</text>
</a>
</g>
</g>
<!-- Node4&#45;&gt;Node7 -->
<g id="edge9_Node000004_Node000007" class="edge">
<title>Node4&#45;&gt;Node7</title>
<g id="a_edge9_Node000004_Node000007"><a xlink:title=" ">
<path fill="none" stroke="#63b8ff" d="M775.59,-166.5C772.62,-168.01 769.75,-169.64 767,-171.4 746.01,-184.84 751.99,-200.97 731,-214.4 717.86,-222.81 701.81,-228.3 687.01,-232.38"/>
<polygon fill="#63b8ff" stroke="#63b8ff" points="777.07,-169.68 784.72,-162.34 774.16,-163.31 777.07,-169.68"/>
</a>
</g>
</g>
<!-- Node8 -->
<g id="Node000008" class="node">
<title>Node8</title>
<g id="a_Node000008"><a xlink:href="classnetspeak_1_1QuerySimplifier.html#a47411b51e5d329b77e30c2204c12627d" target="_top" xlink:title=" ">
<polygon fill="white" stroke="#666666" points="498,-161.4 355,-161.4 355,-131.4 498,-131.4 498,-161.4"/>
<text text-anchor="start" x="363" y="-149.4" font-family="Helvetica,sans-Serif" font-size="10.00">netspeak::QuerySimplifier</text>
<text text-anchor="middle" x="426.5" y="-138.4" font-family="Helvetica,sans-Serif" font-size="10.00">::to_simple</text>
</a>
</g>
</g>
<!-- Node4&#45;&gt;Node8 -->
<g id="edge11_Node000004_Node000008" class="edge">
<title>Node4&#45;&gt;Node8</title>
<g id="a_edge11_Node000004_Node000008"><a xlink:title=" ">
<path fill="none" stroke="#63b8ff" d="M774.34,-154.51C694.62,-152.64 574.22,-149.83 498.28,-148.06"/>
<polygon fill="#63b8ff" stroke="#63b8ff" points="774.75,-158.02 784.82,-154.75 774.91,-151.02 774.75,-158.02"/>
</a>
</g>
</g>
<!-- Node5&#45;&gt;Node4 -->
<g id="edge6_Node000005_Node000004" class="edge">
<title>Node5&#45;&gt;Node4</title>
<g id="a_edge6_Node000005_Node000004"><a xlink:title=" ">
<path fill="none" stroke="#63b8ff" d="M723.49,-189.63C752.51,-184.17 784.22,-177.47 809.28,-171.41"/>
<polygon fill="#63b8ff" stroke="#63b8ff" points="722.55,-186.24 713.35,-191.5 723.82,-193.12 722.55,-186.24"/>
</a>
</g>
</g>
<!-- Node6&#45;&gt;Node4 -->
<g id="edge8_Node000006_Node000004" class="edge">
<title>Node6&#45;&gt;Node4</title>
<g id="a_edge8_Node000006_Node000004"><a xlink:title=" ">
<path fill="none" stroke="#63b8ff" d="M698.65,-130.77C725.07,-136.92 756.84,-143.45 784.87,-148.54"/>
<polygon fill="#63b8ff" stroke="#63b8ff" points="699.35,-127.33 688.81,-128.43 697.73,-134.15 699.35,-127.33"/>
</a>
</g>
</g>
<!-- Node7&#45;&gt;Node4 -->
<g id="edge10_Node000007_Node000004" class="edge">
<title>Node7&#45;&gt;Node4</title>
<g id="a_edge10_Node000007_Node000004"><a xlink:title=" ">
<path fill="none" stroke="#63b8ff" d="M722.41,-237.3C725.38,-235.79 728.25,-234.16 731,-232.4 751.99,-218.97 746.01,-202.84 767,-189.4 780.14,-180.99 796.19,-175.5 810.99,-171.43"/>
<polygon fill="#63b8ff" stroke="#63b8ff" points="720.93,-234.13 713.28,-241.46 723.84,-240.5 720.93,-234.13"/>
</a>
</g>
</g>
<!-- Node9 -->
<g id="Node000009" class="node">
<title>Node9</title>
<g id="a_Node000009"><a xlink:href="classnetspeak_1_1QueryNormalizer.html#a70187ab668d98c93cfc3a8d05ca1508e" target="_top" xlink:title=" ">
<polygon fill="white" stroke="#666666" points="301,-132.4 150,-132.4 150,-102.4 301,-102.4 301,-132.4"/>
<text text-anchor="start" x="158" y="-120.4" font-family="Helvetica,sans-Serif" font-size="10.00">netspeak::QueryNormalizer</text>
<text text-anchor="middle" x="225.5" y="-109.4" font-family="Helvetica,sans-Serif" font-size="10.00">::normalize</text>
</a>
</g>
</g>
<!-- Node8&#45;&gt;Node9 -->
<g id="edge12_Node000008_Node000009" class="edge">
<title>Node8&#45;&gt;Node9</title>
<g id="a_edge12_Node000008_Node000009"><a xlink:title=" ">
<path fill="none" stroke="#63b8ff" d="M344.86,-134.65C330.37,-132.54 315.34,-130.35 301.03,-128.26"/>
<polygon fill="#63b8ff" stroke="#63b8ff" points="344.38,-138.12 354.78,-136.1 345.39,-131.19 344.38,-138.12"/>
</a>
</g>
</g>
<!-- Node10 -->
<g id="Node000010" class="node">
<title>Node10</title>
<g id="a_Node000010"><a xlink:href="classnetspeak_1_1Netspeak.html#aaa049275c7a0a7f6721acf7422402bff" target="_top" xlink:title=" ">
<polygon fill="white" stroke="#666666" points="114,-132.4 0,-132.4 0,-102.4 114,-102.4 114,-132.4"/>
<text text-anchor="start" x="8" y="-120.4" font-family="Helvetica,sans-Serif" font-size="10.00">netspeak::Netspeak</text>
<text text-anchor="middle" x="57" y="-109.4" font-family="Helvetica,sans-Serif" font-size="10.00">::search_raw_</text>
</a>
</g>
</g>
<!-- Node9&#45;&gt;Node10 -->
<g id="edge13_Node000009_Node000010" class="edge">
<title>Node9&#45;&gt;Node10</title>
<g id="a_edge13_Node000009_Node000010"><a xlink:title=" ">
<path fill="none" stroke="#63b8ff" d="M139.45,-117.4C130.85,-117.4 122.28,-117.4 114.1,-117.4"/>
<polygon fill="#63b8ff" stroke="#63b8ff" points="139.53,-120.9 149.53,-117.4 139.53,-113.9 139.53,-120.9"/>
</a>
</g>
</g>
<!-- Node11&#45;&gt;Node5 -->
<g id="edge16_Node000011_Node000005" class="edge">
<title>Node11&#45;&gt;Node5</title>
<g id="a_edge16_Node000011_Node000005"><a xlink:title=" ">
<path fill="none" stroke="#63b8ff" d="M774.75,-202.51C754.53,-202.03 733,-201.53 713.3,-201.06"/>
<polygon fill="#63b8ff" stroke="#63b8ff" points="774.79,-206.01 784.87,-202.74 774.95,-199.01 774.79,-206.01"/>
</a>
</g>
</g>
<!-- Node11&#45;&gt;Node7 -->
<g id="edge17_Node000011_Node000007" class="edge">
<title>Node11&#45;&gt;Node7</title>
<g id="a_edge17_Node000011_Node000007"><a xlink:title=" ">
<path fill="none" stroke="#63b8ff" d="M775.03,-220.65C754.73,-224.75 733.09,-229.11 713.3,-233.11"/>
<polygon fill="#63b8ff" stroke="#63b8ff" points="775.76,-224.07 784.87,-218.66 774.38,-217.21 775.76,-224.07"/>
</a>
</g>
</g>
<!-- Node13 -->
<g id="Node000013" class="node">
<title>Node13</title>
<g id="a_Node000013"><a xlink:href="classnetspeak_1_1SimpleQueryOptimizer.html#a55c4015de0d1fa34754beb52f95119f6" target="_top" xlink:title=" ">
<polygon fill="white" stroke="#666666" points="1161,-73.4 982,-73.4 982,-43.4 1161,-43.4 1161,-73.4"/>
<text text-anchor="start" x="990" y="-61.4" font-family="Helvetica,sans-Serif" font-size="10.00">netspeak::SimpleQueryOptimizer</text>
<text text-anchor="middle" x="1071.5" y="-50.4" font-family="Helvetica,sans-Serif" font-size="10.00">::optimize_simple_alt</text>
</a>
</g>
</g>
<!-- Node12&#45;&gt;Node13 -->
<g id="edge19_Node000012_Node000013" class="edge">
<title>Node12&#45;&gt;Node13</title>
<g id="a_edge19_Node000012_Node000013"><a xlink:title=" ">
<path fill="none" stroke="#63b8ff" d="M1186.46,-58.4C1178.01,-58.4 1169.5,-58.4 1161.14,-58.4"/>
<polygon fill="#63b8ff" stroke="#63b8ff" points="1186.71,-61.9 1196.71,-58.4 1186.71,-54.9 1186.71,-61.9"/>
</a>
</g>
</g>
<!-- Node17 -->
<g id="Node000017" class="node">
<title>Node17</title>
<g id="a_Node000017"><a xlink:href="classnetspeak_1_1SimpleQueryOptimizer.html#a1ef947a07a36069a5be13d260b518350" target="_top" xlink:title=" ">
<polygon fill="white" stroke="#666666" points="516,-37.4 337,-37.4 337,-7.4 516,-7.4 516,-37.4"/>
<text text-anchor="start" x="345" y="-25.4" font-family="Helvetica,sans-Serif" font-size="10.00">netspeak::SimpleQueryOptimizer</text>
<text text-anchor="middle" x="426.5" y="-14.4" font-family="Helvetica,sans-Serif" font-size="10.00">::optimize_simple_concat</text>
</a>
</g>
</g>
<!-- Node12&#45;&gt;Node17 -->
<g id="edge27_Node000012_Node000017" class="edge">
<title>Node12&#45;&gt;Node17</title>
<g id="a_edge27_Node000012_Node000017"><a xlink:title=" ">
<path fill="none" stroke="#63b8ff" d="M1200.52,-41.47C1187.31,-38.99 1173.8,-36.56 1161,-34.4 1065.8,-18.37 1042.3,-10.31 946,-3.4 866.65,2.29 846.52,-1.18 767,-3.4 681.73,-5.79 584.55,-11.53 516.08,-16.09"/>
<polygon fill="#63b8ff" stroke="#63b8ff" points="1200.08,-44.94 1210.55,-43.36 1201.37,-38.06 1200.08,-44.94"/>
</a>
</g>
</g>
<!-- Node14 -->
<g id="Node000014" class="node">
<title>Node14</title>
<g id="a_Node000014"><a xlink:href="classnetspeak_1_1SimpleQueryOptimizer.html#a6df1cdcea41d9914bb1063642d615bdf" target="_top" xlink:title=" ">
<polygon fill="white" stroke="#666666" points="946,-42.4 767,-42.4 767,-12.4 946,-12.4 946,-42.4"/>
<text text-anchor="start" x="775" y="-30.4" font-family="Helvetica,sans-Serif" font-size="10.00">netspeak::SimpleQueryOptimizer</text>
<text text-anchor="middle" x="856.5" y="-19.4" font-family="Helvetica,sans-Serif" font-size="10.00">::optimize_simple_unit</text>
</a>
</g>
</g>
<!-- Node13&#45;&gt;Node14 -->
<g id="edge20_Node000013_Node000014" class="edge">
<title>Node13&#45;&gt;Node14</title>
<g id="a_edge20_Node000013_Node000014"><a xlink:title=" ">
<path fill="none" stroke="#63b8ff" d="M971.73,-44.03C963.2,-42.78 954.59,-41.53 946.14,-40.3"/>
<polygon fill="#63b8ff" stroke="#63b8ff" points="971.31,-47.5 981.71,-45.48 972.32,-40.58 971.31,-47.5"/>
</a>
</g>
</g>
<!-- Node15 -->
<g id="Node000015" class="node">
<title>Node15</title>
<g id="a_Node000015"><a xlink:href="classnetspeak_1_1SimpleQueryOptimizer.html#a0a56e07cb81afd1e5893bc469342b0b2" target="_top" xlink:title=" ">
<polygon fill="white" stroke="#666666" points="731,-80.4 552,-80.4 552,-50.4 731,-50.4 731,-80.4"/>
<text text-anchor="start" x="560" y="-68.4" font-family="Helvetica,sans-Serif" font-size="10.00">netspeak::SimpleQueryOptimizer</text>
<text text-anchor="middle" x="641.5" y="-57.4" font-family="Helvetica,sans-Serif" font-size="10.00">::optimize_simple_children</text>
</a>
</g>
</g>
<!-- Node14&#45;&gt;Node15 -->
<g id="edge21_Node000014_Node000015" class="edge">
<title>Node14&#45;&gt;Node15</title>
<g id="a_edge21_Node000014_Node000015"><a xlink:title=" ">
<path fill="none" stroke="#63b8ff" d="M761.28,-44.21C749.79,-46.26 738.1,-48.35 726.77,-50.37"/>
<polygon fill="#63b8ff" stroke="#63b8ff" points="762.09,-47.62 771.32,-42.42 760.86,-40.73 762.09,-47.62"/>
</a>
</g>
</g>
<!-- Node15&#45;&gt;Node13 -->
<g id="edge24_Node000015_Node000013" class="edge">
<title>Node15&#45;&gt;Node13</title>
<g id="a_edge24_Node000015_Node000013"><a xlink:title=" ">
<path fill="none" stroke="#63b8ff" d="M741.14,-63.79C813.76,-62.6 911.66,-61 981.82,-59.85"/>
<polygon fill="#63b8ff" stroke="#63b8ff" points="741.01,-60.29 731.07,-63.95 741.12,-67.29 741.01,-60.29"/>
</a>
</g>
</g>
<!-- Node16 -->
<g id="Node000016" class="node">
<title>Node16</title>
<g id="a_Node000016"><a xlink:href="classnetspeak_1_1SimpleQueryOptimizer.html#a605b78bfa6d1898f7b5b5ca66fd95c31" target="_top" xlink:title=" ">
<polygon fill="white" stroke="#666666" points="516,-104.4 337,-104.4 337,-74.4 516,-74.4 516,-104.4"/>
<text text-anchor="start" x="345" y="-92.4" font-family="Helvetica,sans-Serif" font-size="10.00">netspeak::SimpleQueryOptimizer</text>
<text text-anchor="middle" x="426.5" y="-81.4" font-family="Helvetica,sans-Serif" font-size="10.00">::optimize</text>
</a>
</g>
</g>
<!-- Node15&#45;&gt;Node16 -->
<g id="edge22_Node000015_Node000016" class="edge">
<title>Node15&#45;&gt;Node16</title>
<g id="a_edge22_Node000015_Node000016"><a xlink:title=" ">
<path fill="none" stroke="#63b8ff" d="M541.73,-76.53C533.2,-77.49 524.59,-78.46 516.14,-79.41"/>
<polygon fill="#63b8ff" stroke="#63b8ff" points="542.17,-80 551.71,-75.41 541.38,-73.05 542.17,-80"/>
</a>
</g>
</g>
<!-- Node15&#45;&gt;Node17 -->
<g id="edge25_Node000015_Node000017" class="edge">
<title>Node15&#45;&gt;Node17</title>
<g id="a_edge25_Node000015_Node000017"><a xlink:title=" ">
<path fill="none" stroke="#63b8ff" d="M556.16,-48.37C538.25,-44.76 519.46,-40.97 501.95,-37.43"/>
<polygon fill="#63b8ff" stroke="#63b8ff" points="555.51,-51.81 566,-50.36 556.89,-44.95 555.51,-51.81"/>
</a>
</g>
</g>
<!-- Node16&#45;&gt;Node9 -->
<g id="edge23_Node000016_Node000009" class="edge">
<title>Node16&#45;&gt;Node9</title>
<g id="a_edge23_Node000016_Node000009"><a xlink:title=" ">
<path fill="none" stroke="#63b8ff" d="M326.68,-103.31C318.06,-104.52 309.45,-105.73 301.08,-106.91"/>
<polygon fill="#63b8ff" stroke="#63b8ff" points="327.35,-106.75 336.77,-101.89 326.38,-99.81 327.35,-106.75"/>
</a>
</g>
</g>
<!-- Node17&#45;&gt;Node14 -->
<g id="edge26_Node000017_Node000014" class="edge">
<title>Node17&#45;&gt;Node14</title>
<g id="a_edge26_Node000017_Node000014"><a xlink:title=" ">
<path fill="none" stroke="#63b8ff" d="M526.14,-23.55C598.76,-24.4 696.66,-25.55 766.82,-26.37"/>
<polygon fill="#63b8ff" stroke="#63b8ff" points="526.11,-20.05 516.07,-23.44 526.03,-27.05 526.11,-20.05"/>
</a>
</g>
</g>
</g>
</svg>
