<?xml version="1.0" encoding="UTF-8" standalone="no"?>
<!DOCTYPE svg PUBLIC "-//W3C//DTD SVG 1.1//EN"
 "http://www.w3.org/Graphics/SVG/1.1/DTD/svg11.dtd">
<!-- Generated by graphviz version 2.43.0 (0)
 -->
<!-- Title: netspeak::PhraseFileReader::read Pages: 1 -->
<svg width="480pt" height="230pt"
 viewBox="0.00 0.00 480.00 230.00" xmlns="http://www.w3.org/2000/svg" xmlns:xlink="http://www.w3.org/1999/xlink">
<g id="graph0" class="graph" transform="scale(1 1) rotate(0) translate(4 226)">
<title>netspeak::PhraseFileReader::read</title>
<!-- Node1 -->
<g id="Node000001" class="node">
<title>Node1</title>
<g id="a_Node000001"><a xlink:title=" ">
<polygon fill="#999999" stroke="#666666" points="152,-126 0,-126 0,-96 152,-96 152,-126"/>
<text text-anchor="start" x="8" y="-114" font-family="Helvetica,sans-Serif" font-size="10.00">netspeak::PhraseFileReader</text>
<text text-anchor="middle" x="76" y="-103" font-family="Helvetica,sans-Serif" font-size="10.00">::read</text>
</a>
</g>
</g>
<!-- Node2 -->
<g id="Node000002" class="node">
<title>Node2</title>
<g id="a_Node000002"><a xlink:href="classnetspeak_1_1model_1_1Words.html#ae1deea93068d08a083295b54bba7401e" target="_top" xlink:title=" ">
<polygon fill="white" stroke="#666666" points="322.5,-222 188.5,-222 188.5,-192 322.5,-192 322.5,-222"/>
<text text-anchor="start" x="196.5" y="-210" font-family="Helvetica,sans-Serif" font-size="10.00">netspeak::model::Words</text>
<text text-anchor="middle" x="255.5" y="-199" font-family="Helvetica,sans-Serif" font-size="10.00">::empty</text>
</a>
</g>
</g>
<!-- Node1&#45;&gt;Node2 -->
<g id="edge1_Node000001_Node000002" class="edge">
<title>Node1&#45;&gt;Node2</title>
<g id="a_edge1_Node000001_Node000002"><a xlink:title=" ">
<path fill="none" stroke="#63b8ff" d="M97.03,-126.01C118.63,-141.71 154.47,-166.35 188,-183 191.55,-184.76 195.26,-186.46 199.03,-188.08"/>
<polygon fill="#63b8ff" stroke="#63b8ff" points="197.91,-191.41 208.49,-191.96 200.56,-184.93 197.91,-191.41"/>
</a>
</g>
</g>
<!-- Node3 -->
<g id="Node000003" class="node">
<title>Node3</title>
<g id="a_Node000003"><a xlink:href="classnetspeak_1_1invertedindex_1_1Record.html#a8c31f71f3940ea11d85fbfca276f0eca" target="_top" xlink:title=" ">
<polygon fill="white" stroke="#666666" points="323,-174 188,-174 188,-144 323,-144 323,-174"/>
<text text-anchor="start" x="196" y="-162" font-family="Helvetica,sans-Serif" font-size="10.00">netspeak::invertedindex</text>
<text text-anchor="middle" x="255.5" y="-151" font-family="Helvetica,sans-Serif" font-size="10.00">::Record::key</text>
</a>
</g>
</g>
<!-- Node1&#45;&gt;Node3 -->
<g id="edge2_Node000001_Node000003" class="edge">
<title>Node1&#45;&gt;Node3</title>
<g id="a_edge2_Node000001_Node000003"><a xlink:title=" ">
<path fill="none" stroke="#63b8ff" d="M132.68,-126.06C150.6,-130.9 170.63,-136.32 189.18,-141.34"/>
<polygon fill="#63b8ff" stroke="#63b8ff" points="188.46,-144.77 199.02,-144 190.28,-138.01 188.46,-144.77"/>
</a>
</g>
</g>
<!-- Node4 -->
<g id="Node000004" class="node">
<title>Node4</title>
<g id="a_Node000004"><a xlink:href="classnetspeak_1_1model_1_1Words.html#a2100c650e63c1c205afd766bef7fc713" target="_top" xlink:title=" ">
<polygon fill="white" stroke="#666666" points="322.5,-126 188.5,-126 188.5,-96 322.5,-96 322.5,-126"/>
<text text-anchor="start" x="196.5" y="-114" font-family="Helvetica,sans-Serif" font-size="10.00">netspeak::model::Words</text>
<text text-anchor="middle" x="255.5" y="-103" font-family="Helvetica,sans-Serif" font-size="10.00">::size</text>
</a>
</g>
</g>
<!-- Node1&#45;&gt;Node4 -->
<g id="edge3_Node000001_Node000004" class="edge">
<title>Node1&#45;&gt;Node4</title>
<g id="a_edge3_Node000001_Node000004"><a xlink:title=" ">
<path fill="none" stroke="#63b8ff" d="M152.02,-111C160.72,-111 169.61,-111 178.33,-111"/>
<polygon fill="#63b8ff" stroke="#63b8ff" points="178.47,-114.5 188.47,-111 178.47,-107.5 178.47,-114.5"/>
</a>
</g>
</g>
<!-- Node5 -->
<g id="Node000005" class="node">
<title>Node5</title>
<g id="a_Node000005"><a xlink:href="namespacenetspeak_1_1util.html#ac8b0cdf55599b33fd7d4013948d48f43" target="_top" xlink:title=" ">
<polygon fill="white" stroke="#666666" points="305,-78 206,-78 206,-48 305,-48 305,-78"/>
<text text-anchor="start" x="214" y="-66" font-family="Helvetica,sans-Serif" font-size="10.00">netspeak::util::to</text>
<text text-anchor="middle" x="255.5" y="-55" font-family="Helvetica,sans-Serif" font-size="10.00">_string</text>
</a>
</g>
</g>
<!-- Node1&#45;&gt;Node5 -->
<g id="edge4_Node000001_Node000005" class="edge">
<title>Node1&#45;&gt;Node5</title>
<g id="a_edge4_Node000001_Node000005"><a xlink:title=" ">
<path fill="none" stroke="#63b8ff" d="M132.68,-95.94C152.86,-90.49 175.7,-84.31 196.11,-78.79"/>
<polygon fill="#63b8ff" stroke="#63b8ff" points="197.18,-82.13 205.92,-76.14 195.35,-75.37 197.18,-82.13"/>
</a>
</g>
</g>
<!-- Node7 -->
<g id="Node000007" class="node">
<title>Node7</title>
<g id="a_Node000007"><a xlink:href="classnetspeak_1_1invertedindex_1_1Record.html#a0d49817e43096fd3bb77cef8c1a42dd5" target="_top" xlink:title=" ">
<polygon fill="white" stroke="#666666" points="323,-30 188,-30 188,0 323,0 323,-30"/>
<text text-anchor="start" x="196" y="-18" font-family="Helvetica,sans-Serif" font-size="10.00">netspeak::invertedindex</text>
<text text-anchor="middle" x="255.5" y="-7" font-family="Helvetica,sans-Serif" font-size="10.00">::Record::value</text>
</a>
</g>
</g>
<!-- Node1&#45;&gt;Node7 -->
<g id="edge6_Node000001_Node000007" class="edge">
<title>Node1&#45;&gt;Node7</title>
<g id="a_edge6_Node000001_Node000007"><a xlink:title=" ">
<path fill="none" stroke="#63b8ff" d="M97.03,-95.99C118.63,-80.29 154.47,-55.65 188,-39 191.55,-37.24 195.26,-35.54 199.03,-33.92"/>
<polygon fill="#63b8ff" stroke="#63b8ff" points="200.56,-37.07 208.49,-30.04 197.91,-30.59 200.56,-37.07"/>
</a>
</g>
</g>
<!-- Node6 -->
<g id="Node000006" class="node">
<title>Node6</title>
<g id="a_Node000006"><a xlink:href="namespacenetspeak_1_1util.html#a4c91ad572508b4021399ac7dddff574d" target="_top" xlink:title=" ">
<polygon fill="white" stroke="#666666" points="472,-72.5 359,-72.5 359,-53.5 472,-53.5 472,-72.5"/>
<text text-anchor="middle" x="415.5" y="-60.5" font-family="Helvetica,sans-Serif" font-size="10.00">netspeak::util::hash</text>
</a>
</g>
</g>
<!-- Node5&#45;&gt;Node6 -->
<g id="edge5_Node000005_Node000006" class="edge">
<title>Node5&#45;&gt;Node6</title>
<g id="a_edge5_Node000005_Node000006"><a xlink:title=" ">
<path fill="none" stroke="#63b8ff" d="M305.19,-63C318.84,-63 333.9,-63 348.38,-63"/>
<polygon fill="#63b8ff" stroke="#63b8ff" points="348.78,-66.5 358.78,-63 348.78,-59.5 348.78,-66.5"/>
</a>
</g>
</g>
</g>
</svg>
