<?xml version="1.0" encoding="UTF-8" standalone="no"?>
<!DOCTYPE svg PUBLIC "-//W3C//DTD SVG 1.1//EN"
 "http://www.w3.org/Graphics/SVG/1.1/DTD/svg11.dtd">
<!-- Generated by graphviz version 2.43.0 (0)
 -->
<!-- Title: netspeak::bighashmap::Builder::BuildHashTable Pages: 1 -->
<svg width="641pt" height="328pt"
 viewBox="0.00 0.00 641.00 328.00" xmlns="http://www.w3.org/2000/svg" xmlns:xlink="http://www.w3.org/1999/xlink">
<g id="graph0" class="graph" transform="scale(1 1) rotate(0) translate(4 324)">
<title>netspeak::bighashmap::Builder::BuildHashTable</title>
<!-- Node1 -->
<g id="Node000001" class="node">
<title>Node1</title>
<g id="a_Node000001"><a xlink:title=" ">
<polygon fill="#999999" stroke="#666666" points="138,-178 0,-178 0,-148 138,-148 138,-178"/>
<text text-anchor="start" x="8" y="-166" font-family="Helvetica,sans-Serif" font-size="10.00">netspeak::bighashmap</text>
<text text-anchor="middle" x="69" y="-155" font-family="Helvetica,sans-Serif" font-size="10.00">::Builder::BuildHashTable</text>
</a>
</g>
</g>
<!-- Node2 -->
<g id="Node000002" class="node">
<title>Node2</title>
<g id="a_Node000002"><a xlink:href="structnetspeak_1_1value_1_1value__traits.html#ad8e5a704d34361f68b6325efb40d7872" target="_top" xlink:title=" ">
<polygon fill="white" stroke="#666666" points="306.5,-320 178.5,-320 178.5,-290 306.5,-290 306.5,-320"/>
<text text-anchor="start" x="186.5" y="-308" font-family="Helvetica,sans-Serif" font-size="10.00">netspeak::value::value</text>
<text text-anchor="middle" x="242.5" y="-297" font-family="Helvetica,sans-Serif" font-size="10.00">_traits::copy_to</text>
</a>
</g>
</g>
<!-- Node1&#45;&gt;Node2 -->
<g id="edge1_Node000001_Node000002" class="edge">
<title>Node1&#45;&gt;Node2</title>
<g id="a_edge1_Node000001_Node000002"><a xlink:title=" ">
<path fill="none" stroke="#63b8ff" d="M79.64,-178.26C96.1,-203.14 131.94,-252.53 174,-281 176.24,-282.52 178.59,-283.95 181.01,-285.3"/>
<polygon fill="#63b8ff" stroke="#63b8ff" points="179.52,-288.47 190.02,-289.84 182.67,-282.22 179.52,-288.47"/>
</a>
</g>
</g>
<!-- Node3 -->
<g id="Node000003" class="node">
<title>Node3</title>
<g id="a_Node000003"><a xlink:href="classnetspeak_1_1value_1_1pair.html#a52d349f5f25b356c4436a983182e4b6c" target="_top" xlink:title=" ">
<polygon fill="white" stroke="#666666" points="311,-271.5 174,-271.5 174,-252.5 311,-252.5 311,-271.5"/>
<text text-anchor="middle" x="242.5" y="-259.5" font-family="Helvetica,sans-Serif" font-size="10.00">netspeak::value::pair::e2</text>
</a>
</g>
</g>
<!-- Node1&#45;&gt;Node3 -->
<g id="edge2_Node000001_Node000003" class="edge">
<title>Node1&#45;&gt;Node3</title>
<g id="a_edge2_Node000001_Node000003"><a xlink:title=" ">
<path fill="none" stroke="#63b8ff" d="M87.75,-178.22C107.67,-194.71 141.47,-220.93 174,-238 181.92,-242.16 190.72,-245.87 199.28,-249.07"/>
<polygon fill="#63b8ff" stroke="#63b8ff" points="198.18,-252.39 208.78,-252.45 200.53,-245.8 198.18,-252.39"/>
</a>
</g>
</g>
<!-- Node4 -->
<g id="Node000004" class="node">
<title>Node4</title>
<g id="a_Node000004"><a xlink:href="namespacenetspeak_1_1util.html#a978978e70b474657b12402a3db711ef0" target="_top" xlink:title=" ">
<polygon fill="white" stroke="#666666" points="302,-191.5 183,-191.5 183,-172.5 302,-172.5 302,-191.5"/>
<text text-anchor="middle" x="242.5" y="-179.5" font-family="Helvetica,sans-Serif" font-size="10.00">netspeak::util::fclose</text>
</a>
</g>
</g>
<!-- Node1&#45;&gt;Node4 -->
<g id="edge3_Node000001_Node000004" class="edge">
<title>Node1&#45;&gt;Node4</title>
<g id="a_edge3_Node000001_Node000004"><a xlink:title=" ">
<path fill="none" stroke="#63b8ff" d="M138.27,-170.56C149.57,-171.82 161.3,-173.11 172.61,-174.37"/>
<polygon fill="#63b8ff" stroke="#63b8ff" points="172.54,-177.88 182.86,-175.5 173.31,-170.92 172.54,-177.88"/>
</a>
</g>
</g>
<!-- Node5 -->
<g id="Node000005" class="node">
<title>Node5</title>
<g id="a_Node000005"><a xlink:href="namespacenetspeak_1_1util.html#a4c91ad572508b4021399ac7dddff574d" target="_top" xlink:title=" ">
<polygon fill="white" stroke="#666666" points="633,-157.5 520,-157.5 520,-138.5 633,-138.5 633,-157.5"/>
<text text-anchor="middle" x="576.5" y="-145.5" font-family="Helvetica,sans-Serif" font-size="10.00">netspeak::util::hash</text>
</a>
</g>
</g>
<!-- Node1&#45;&gt;Node5 -->
<g id="edge13_Node000001_Node000005" class="edge">
<title>Node1&#45;&gt;Node5</title>
<g id="a_edge13_Node000001_Node000005"><a xlink:title=" ">
<path fill="none" stroke="#63b8ff" d="M102.44,-178.19C122.55,-186.76 149.2,-196.61 174,-201 309.98,-225.06 349.5,-211.3 484,-180 504,-175.35 525.73,-167.86 542.99,-161.29"/>
<polygon fill="#63b8ff" stroke="#63b8ff" points="544.54,-164.45 552.59,-157.56 542,-157.92 544.54,-164.45"/>
</a>
</g>
</g>
<!-- Node7 -->
<g id="Node000007" class="node">
<title>Node7</title>
<g id="a_Node000007"><a xlink:href="namespacenetspeak_1_1util.html#a4acc3d13f8d541f4b65dd44f486403fd" target="_top" xlink:title=" ">
<polygon fill="white" stroke="#666666" points="301,-154.5 184,-154.5 184,-135.5 301,-135.5 301,-154.5"/>
<text text-anchor="middle" x="242.5" y="-142.5" font-family="Helvetica,sans-Serif" font-size="10.00">netspeak::util::fopen</text>
</a>
</g>
</g>
<!-- Node1&#45;&gt;Node7 -->
<g id="edge7_Node000001_Node000007" class="edge">
<title>Node1&#45;&gt;Node7</title>
<g id="a_edge7_Node000001_Node000007"><a xlink:title=" ">
<path fill="none" stroke="#63b8ff" d="M138.27,-155.83C149.98,-154.61 162.14,-153.33 173.82,-152.1"/>
<polygon fill="#63b8ff" stroke="#63b8ff" points="174.37,-155.56 183.95,-151.04 173.64,-148.6 174.37,-155.56"/>
</a>
</g>
</g>
<!-- Node8 -->
<g id="Node000008" class="node">
<title>Node8</title>
<g id="a_Node000008"><a xlink:href="namespacenetspeak_1_1util.html#a33fbb28caf0f5be34cbce2f84faecb87" target="_top" xlink:title=" ">
<polygon fill="white" stroke="#666666" points="301,-115.5 184,-115.5 184,-96.5 301,-96.5 301,-115.5"/>
<text text-anchor="middle" x="242.5" y="-103.5" font-family="Helvetica,sans-Serif" font-size="10.00">netspeak::util::fwrite</text>
</a>
</g>
</g>
<!-- Node1&#45;&gt;Node8 -->
<g id="edge10_Node000001_Node000008" class="edge">
<title>Node1&#45;&gt;Node8</title>
<g id="a_edge10_Node000001_Node000008"><a xlink:title=" ">
<path fill="none" stroke="#63b8ff" d="M112.4,-147.98C131.22,-141.4 153.67,-133.68 174,-127 182.56,-124.19 191.75,-121.26 200.52,-118.52"/>
<polygon fill="#63b8ff" stroke="#63b8ff" points="201.67,-121.83 210.18,-115.52 199.59,-115.14 201.67,-121.83"/>
</a>
</g>
</g>
<!-- Node9 -->
<g id="Node000009" class="node">
<title>Node9</title>
<g id="a_Node000009"><a xlink:href="classnetspeak_1_1value_1_1pair.html#a5fa59bfb0238ad39a6aa497bd4e2dab6" target="_top" xlink:title=" ">
<polygon fill="white" stroke="#666666" points="302,-78 183,-78 183,-48 302,-48 302,-78"/>
<text text-anchor="start" x="191" y="-66" font-family="Helvetica,sans-Serif" font-size="10.00">netspeak::value::pair</text>
<text text-anchor="middle" x="242.5" y="-55" font-family="Helvetica,sans-Serif" font-size="10.00">::set_e1</text>
</a>
</g>
</g>
<!-- Node1&#45;&gt;Node9 -->
<g id="edge14_Node000001_Node000009" class="edge">
<title>Node1&#45;&gt;Node9</title>
<g id="a_edge14_Node000001_Node000009"><a xlink:title=" ">
<path fill="none" stroke="#63b8ff" d="M87.79,-147.86C107.75,-131.44 141.59,-105.28 174,-88 177.95,-85.89 182.12,-83.89 186.37,-81.99"/>
<polygon fill="#63b8ff" stroke="#63b8ff" points="187.89,-85.15 195.74,-78.03 185.17,-78.7 187.89,-85.15"/>
</a>
</g>
</g>
<!-- Node11 -->
<g id="Node000011" class="node">
<title>Node11</title>
<g id="a_Node000011"><a xlink:href="structnetspeak_1_1value_1_1value__traits.html#a1de8038347bdd72008ef72ad481f4a77" target="_top" xlink:title=" ">
<polygon fill="white" stroke="#666666" points="306.5,-30 178.5,-30 178.5,0 306.5,0 306.5,-30"/>
<text text-anchor="start" x="186.5" y="-18" font-family="Helvetica,sans-Serif" font-size="10.00">netspeak::value::value</text>
<text text-anchor="middle" x="242.5" y="-7" font-family="Helvetica,sans-Serif" font-size="10.00">_traits::size_of</text>
</a>
</g>
</g>
<!-- Node1&#45;&gt;Node11 -->
<g id="edge16_Node000001_Node000011" class="edge">
<title>Node1&#45;&gt;Node11</title>
<g id="a_edge16_Node000001_Node000011"><a xlink:title=" ">
<path fill="none" stroke="#63b8ff" d="M78.93,-147.78C94.87,-121.89 130.62,-69.14 174,-39 176.14,-37.51 178.39,-36.1 180.71,-34.77"/>
<polygon fill="#63b8ff" stroke="#63b8ff" points="182.64,-37.72 189.94,-30.04 179.44,-31.49 182.64,-37.72"/>
</a>
</g>
</g>
<!-- Node4&#45;&gt;Node5 -->
<g id="edge4_Node000004_Node000005" class="edge">
<title>Node4&#45;&gt;Node5</title>
<g id="a_edge4_Node000004_Node000005"><a xlink:title=" ">
<path fill="none" stroke="#63b8ff" d="M302.37,-177.26C351.1,-173.19 422.12,-166.89 484,-160 492.35,-159.07 501.13,-158.02 509.8,-156.93"/>
<polygon fill="#63b8ff" stroke="#63b8ff" points="510.42,-160.38 519.9,-155.65 509.54,-153.44 510.42,-160.38"/>
</a>
</g>
</g>
<!-- Node6 -->
<g id="Node000006" class="node">
<title>Node6</title>
<g id="a_Node000006"><a xlink:href="namespacenetspeak_1_1util.html#af94d48fda5f335ddcb461a8237079866" target="_top" xlink:title=" ">
<polygon fill="white" stroke="#666666" points="475,-120 356,-120 356,-90 475,-90 475,-120"/>
<text text-anchor="start" x="364" y="-108" font-family="Helvetica,sans-Serif" font-size="10.00">netspeak::util::signal</text>
<text text-anchor="middle" x="415.5" y="-97" font-family="Helvetica,sans-Serif" font-size="10.00">_error</text>
</a>
</g>
</g>
<!-- Node4&#45;&gt;Node6 -->
<g id="edge5_Node000004_Node000006" class="edge">
<title>Node4&#45;&gt;Node6</title>
<g id="a_edge5_Node000004_Node000006"><a xlink:title=" ">
<path fill="none" stroke="#63b8ff" d="M286.18,-172.41C294.54,-170.03 303.15,-167.22 311,-164 336.39,-153.58 363.26,-138.12 383.26,-125.63"/>
<polygon fill="#63b8ff" stroke="#63b8ff" points="385.36,-128.44 391.94,-120.13 381.62,-122.53 385.36,-128.44"/>
</a>
</g>
</g>
<!-- Node6&#45;&gt;Node5 -->
<g id="edge6_Node000006_Node000005" class="edge">
<title>Node6&#45;&gt;Node5</title>
<g id="a_edge6_Node000006_Node000005"><a xlink:title=" ">
<path fill="none" stroke="#63b8ff" d="M472.11,-120.04C491.15,-125.19 512.21,-130.88 530.32,-135.78"/>
<polygon fill="#63b8ff" stroke="#63b8ff" points="529.49,-139.18 540.05,-138.41 531.31,-132.42 529.49,-139.18"/>
</a>
</g>
</g>
<!-- Node7&#45;&gt;Node5 -->
<g id="edge8_Node000007_Node000005" class="edge">
<title>Node7&#45;&gt;Node5</title>
<g id="a_edge8_Node000007_Node000005"><a xlink:title=" ">
<path fill="none" stroke="#63b8ff" d="M301.33,-145.52C359.46,-146.05 448.94,-146.86 509.74,-147.41"/>
<polygon fill="#63b8ff" stroke="#63b8ff" points="509.96,-150.91 519.99,-147.5 510.02,-143.91 509.96,-150.91"/>
</a>
</g>
</g>
<!-- Node7&#45;&gt;Node6 -->
<g id="edge9_Node000007_Node000006" class="edge">
<title>Node7&#45;&gt;Node6</title>
<g id="a_edge9_Node000007_Node000006"><a xlink:title=" ">
<path fill="none" stroke="#63b8ff" d="M284.46,-135.42C302.88,-131.11 325.14,-125.9 345.98,-121.03"/>
<polygon fill="#63b8ff" stroke="#63b8ff" points="346.82,-124.43 355.76,-118.74 345.23,-117.61 346.82,-124.43"/>
</a>
</g>
</g>
<!-- Node8&#45;&gt;Node5 -->
<g id="edge11_Node000008_Node000005" class="edge">
<title>Node8&#45;&gt;Node5</title>
<g id="a_edge11_Node000008_Node000005"><a xlink:title=" ">
<path fill="none" stroke="#63b8ff" d="M274.86,-96.37C295.2,-90.64 322.4,-83.93 347,-81 407.46,-73.8 426.13,-62.08 484,-81 513.91,-90.78 542.14,-114.47 559.13,-130.88"/>
<polygon fill="#63b8ff" stroke="#63b8ff" points="556.97,-133.68 566.52,-138.26 561.92,-128.72 556.97,-133.68"/>
</a>
</g>
</g>
<!-- Node8&#45;&gt;Node6 -->
<g id="edge12_Node000008_Node000006" class="edge">
<title>Node8&#45;&gt;Node6</title>
<g id="a_edge12_Node000008_Node000006"><a xlink:title=" ">
<path fill="none" stroke="#63b8ff" d="M301.39,-105.66C315.64,-105.58 331.04,-105.49 345.74,-105.4"/>
<polygon fill="#63b8ff" stroke="#63b8ff" points="345.81,-108.9 355.79,-105.34 345.77,-101.9 345.81,-108.9"/>
</a>
</g>
</g>
<!-- Node10 -->
<g id="Node000010" class="node">
<title>Node10</title>
<g id="a_Node000010"><a xlink:href="classnetspeak_1_1value_1_1pair.html#aa0eed395020ba5b37636746da8619982" target="_top" xlink:title=" ">
<polygon fill="white" stroke="#666666" points="484,-33.5 347,-33.5 347,-14.5 484,-14.5 484,-33.5"/>
<text text-anchor="middle" x="415.5" y="-21.5" font-family="Helvetica,sans-Serif" font-size="10.00">netspeak::value::pair::e1</text>
</a>
</g>
</g>
<!-- Node9&#45;&gt;Node10 -->
<g id="edge15_Node000009_Node000010" class="edge">
<title>Node9&#45;&gt;Node10</title>
<g id="a_edge15_Node000009_Node000010"><a xlink:title=" ">
<path fill="none" stroke="#63b8ff" d="M302.35,-49.58C322,-45.1 343.74,-40.14 362.81,-35.79"/>
<polygon fill="#63b8ff" stroke="#63b8ff" points="363.83,-39.15 372.81,-33.51 362.28,-32.32 363.83,-39.15"/>
</a>
</g>
</g>
</g>
</svg>
