<?xml version="1.0" encoding="UTF-8" standalone="no"?>
<!DOCTYPE svg PUBLIC "-//W3C//DTD SVG 1.1//EN"
 "http://www.w3.org/Graphics/SVG/1.1/DTD/svg11.dtd">
<!-- Generated by graphviz version 2.43.0 (0)
 -->
<!-- Title: netspeak::invertedindex::PostlistBuilder::push_back Pages: 1 -->
<svg width="692pt" height="134pt"
 viewBox="0.00 0.00 692.00 134.00" xmlns="http://www.w3.org/2000/svg" xmlns:xlink="http://www.w3.org/1999/xlink">
<g id="graph0" class="graph" transform="scale(1 1) rotate(0) translate(4 130)">
<title>netspeak::invertedindex::PostlistBuilder::push_back</title>
<!-- Node1 -->
<g id="Node000001" class="node">
<title>Node1</title>
<g id="a_Node000001"><a xlink:title=" ">
<polygon fill="#999999" stroke="#666666" points="684,-78 533,-78 533,-48 684,-48 684,-78"/>
<text text-anchor="start" x="541" y="-66" font-family="Helvetica,sans-Serif" font-size="10.00">netspeak::invertedindex</text>
<text text-anchor="middle" x="608.5" y="-55" font-family="Helvetica,sans-Serif" font-size="10.00">::PostlistBuilder::push_back</text>
</a>
</g>
</g>
<!-- Node2 -->
<g id="Node000002" class="node">
<title>Node2</title>
<g id="a_Node000002"><a xlink:href="classnetspeak_1_1invertedindex_1_1SortedInput.html#a6aff15206149d6721ea2bbd44a1aebd6" target="_top" xlink:title=" ">
<polygon fill="white" stroke="#666666" points="487,-126 352,-126 352,-96 487,-96 487,-126"/>
<text text-anchor="start" x="360" y="-114" font-family="Helvetica,sans-Serif" font-size="10.00">netspeak::invertedindex</text>
<text text-anchor="middle" x="419.5" y="-103" font-family="Helvetica,sans-Serif" font-size="10.00">::SortedInput::insert_</text>
</a>
</g>
</g>
<!-- Node1&#45;&gt;Node2 -->
<g id="edge1_Node000001_Node000002" class="edge">
<title>Node1&#45;&gt;Node2</title>
<g id="a_edge1_Node000001_Node000002"><a xlink:title=" ">
<path fill="none" stroke="#63b8ff" d="M539.01,-80.58C519.3,-85.64 497.99,-91.11 478.95,-96"/>
<polygon fill="#63b8ff" stroke="#63b8ff" points="540.03,-83.93 548.85,-78.06 538.29,-77.15 540.03,-83.93"/>
</a>
</g>
</g>
<!-- Node3 -->
<g id="Node000003" class="node">
<title>Node3</title>
<g id="a_Node000003"><a xlink:href="classnetspeak_1_1invertedindex_1_1PostlistSorter.html#a0bb0492d40e3460f4463a35843df5bf7" target="_top" xlink:title=" ">
<polygon fill="white" stroke="#666666" points="497,-78 342,-78 342,-48 497,-48 497,-78"/>
<text text-anchor="start" x="350" y="-66" font-family="Helvetica,sans-Serif" font-size="10.00">netspeak::invertedindex</text>
<text text-anchor="middle" x="419.5" y="-55" font-family="Helvetica,sans-Serif" font-size="10.00">::PostlistSorter::internal_sort</text>
</a>
</g>
</g>
<!-- Node1&#45;&gt;Node3 -->
<g id="edge2_Node000001_Node000003" class="edge">
<title>Node1&#45;&gt;Node3</title>
<g id="a_edge2_Node000001_Node000003"><a xlink:title=" ">
<path fill="none" stroke="#63b8ff" d="M522.56,-63C514.12,-63 505.58,-63 497.24,-63"/>
<polygon fill="#63b8ff" stroke="#63b8ff" points="522.79,-66.5 532.79,-63 522.79,-59.5 522.79,-66.5"/>
</a>
</g>
</g>
<!-- Node6 -->
<g id="Node000006" class="node">
<title>Node6</title>
<g id="a_Node000006"><a xlink:href="classnetspeak_1_1invertedindex_1_1PostlistSorter.html#a3a4bdc4279ad3c23c77d69c629f4b89a" target="_top" xlink:title=" ">
<polygon fill="white" stroke="#666666" points="487,-30 352,-30 352,0 487,0 487,-30"/>
<text text-anchor="start" x="360" y="-18" font-family="Helvetica,sans-Serif" font-size="10.00">netspeak::invertedindex</text>
<text text-anchor="middle" x="419.5" y="-7" font-family="Helvetica,sans-Serif" font-size="10.00">::PostlistSorter::merge</text>
</a>
</g>
</g>
<!-- Node1&#45;&gt;Node6 -->
<g id="edge5_Node000001_Node000006" class="edge">
<title>Node1&#45;&gt;Node6</title>
<g id="a_edge5_Node000001_Node000006"><a xlink:title=" ">
<path fill="none" stroke="#63b8ff" d="M539.01,-45.42C519.3,-40.36 497.99,-34.89 478.95,-30"/>
<polygon fill="#63b8ff" stroke="#63b8ff" points="538.29,-48.85 548.85,-47.94 540.03,-42.07 538.29,-48.85"/>
</a>
</g>
</g>
<!-- Node4 -->
<g id="Node000004" class="node">
<title>Node4</title>
<g id="a_Node000004"><a xlink:href="classnetspeak_1_1invertedindex_1_1PostlistSorter.html#a58f01b8d58f6487a4ceb2f1ab3d2f0a1" target="_top" xlink:title=" ">
<polygon fill="white" stroke="#666666" points="306,-54 171,-54 171,-24 306,-24 306,-54"/>
<text text-anchor="start" x="179" y="-42" font-family="Helvetica,sans-Serif" font-size="10.00">netspeak::invertedindex</text>
<text text-anchor="middle" x="238.5" y="-31" font-family="Helvetica,sans-Serif" font-size="10.00">::PostlistSorter::sort</text>
</a>
</g>
</g>
<!-- Node3&#45;&gt;Node4 -->
<g id="edge3_Node000003_Node000004" class="edge">
<title>Node3&#45;&gt;Node4</title>
<g id="a_edge3_Node000003_Node000004"><a xlink:title=" ">
<path fill="none" stroke="#63b8ff" d="M331.75,-51.37C323.15,-50.22 314.51,-49.06 306.16,-47.94"/>
<polygon fill="#63b8ff" stroke="#63b8ff" points="331.43,-54.86 341.81,-52.72 332.36,-47.92 331.43,-54.86"/>
</a>
</g>
</g>
<!-- Node5 -->
<g id="Node000005" class="node">
<title>Node5</title>
<g id="a_Node000005"><a xlink:href="classnetspeak_1_1invertedindex_1_1UnsortedInput.html#ac107e445403ad38a4774f83e92e9bb70" target="_top" xlink:title=" ">
<polygon fill="white" stroke="#666666" points="135,-54 0,-54 0,-24 135,-24 135,-54"/>
<text text-anchor="start" x="8" y="-42" font-family="Helvetica,sans-Serif" font-size="10.00">netspeak::invertedindex</text>
<text text-anchor="middle" x="67.5" y="-31" font-family="Helvetica,sans-Serif" font-size="10.00">::UnsortedInput::sort</text>
</a>
</g>
</g>
<!-- Node4&#45;&gt;Node5 -->
<g id="edge4_Node000004_Node000005" class="edge">
<title>Node4&#45;&gt;Node5</title>
<g id="a_edge4_Node000004_Node000005"><a xlink:title=" ">
<path fill="none" stroke="#63b8ff" d="M160.45,-39C151.98,-39 143.41,-39 135.08,-39"/>
<polygon fill="#63b8ff" stroke="#63b8ff" points="160.71,-42.5 170.71,-39 160.71,-35.5 160.71,-42.5"/>
</a>
</g>
</g>
<!-- Node6&#45;&gt;Node4 -->
<g id="edge6_Node000006_Node000004" class="edge">
<title>Node6&#45;&gt;Node4</title>
<g id="a_edge6_Node000006_Node000004"><a xlink:title=" ">
<path fill="none" stroke="#63b8ff" d="M341.59,-25.31C329.82,-26.89 317.74,-28.51 306.21,-30.06"/>
<polygon fill="#63b8ff" stroke="#63b8ff" points="342.4,-28.73 351.85,-23.94 341.47,-21.8 342.4,-28.73"/>
</a>
</g>
</g>
</g>
</svg>
