<?xml version="1.0" encoding="UTF-8" standalone="no"?>
<!DOCTYPE svg PUBLIC "-//W3C//DTD SVG 1.1//EN"
 "http://www.w3.org/Graphics/SVG/1.1/DTD/svg11.dtd">
<!-- Generated by graphviz version 2.43.0 (0)
 -->
<!-- Title: netspeak::util::JsonWriter::ObjectContinue::prop Pages: 1 -->
<svg width="480pt" height="86pt"
 viewBox="0.00 0.00 480.00 86.00" xmlns="http://www.w3.org/2000/svg" xmlns:xlink="http://www.w3.org/1999/xlink">
<g id="graph0" class="graph" transform="scale(1 1) rotate(0) translate(4 82)">
<title>netspeak::util::JsonWriter::ObjectContinue::prop</title>
<!-- Node1 -->
<g id="Node000001" class="node">
<title>Node1</title>
<g id="a_Node000001"><a xlink:title=" ">
<polygon fill="#999999" stroke="#666666" points="472,-54 332,-54 332,-24 472,-24 472,-54"/>
<text text-anchor="start" x="340" y="-42" font-family="Helvetica,sans-Serif" font-size="10.00">netspeak::util::JsonWriter</text>
<text text-anchor="middle" x="402" y="-31" font-family="Helvetica,sans-Serif" font-size="10.00">::ObjectContinue::prop</text>
</a>
</g>
</g>
<!-- Node2 -->
<g id="Node000002" class="node">
<title>Node2</title>
<g id="a_Node000002"><a xlink:href="namespacenetspeak_1_1service.html#aebd8a38b84a6aa4b293543abb10f1fb8" target="_top" xlink:title=" ">
<polygon fill="white" stroke="#666666" points="296,-54 187,-54 187,-24 296,-24 296,-54"/>
<text text-anchor="start" x="195" y="-42" font-family="Helvetica,sans-Serif" font-size="10.00">netspeak::service::</text>
<text text-anchor="middle" x="241.5" y="-31" font-family="Helvetica,sans-Serif" font-size="10.00">log_error_status</text>
</a>
</g>
</g>
<!-- Node1&#45;&gt;Node2 -->
<g id="edge1_Node000001_Node000002" class="edge">
<title>Node1&#45;&gt;Node2</title>
<g id="a_edge1_Node000001_Node000002"><a xlink:title=" ">
<path fill="none" stroke="#63b8ff" d="M321.75,-39C313.06,-39 304.36,-39 296.08,-39"/>
<polygon fill="#63b8ff" stroke="#63b8ff" points="321.94,-42.5 331.94,-39 321.94,-35.5 321.94,-42.5"/>
</a>
</g>
</g>
<!-- Node2&#45;&gt;Node2 -->
<g id="edge3_Node000002_Node000002" class="edge">
<title>Node2&#45;&gt;Node2</title>
<g id="a_edge3_Node000002_Node000002"><a xlink:title=" ">
<path fill="none" stroke="#63b8ff" d="M269.51,-64.6C265.68,-68.97 256.34,-72 241.5,-72 216.5,-72 207.12,-63.41 213.38,-54.28"/>
<polygon fill="#63b8ff" stroke="#63b8ff" points="273.01,-64.32 269.62,-54.28 266.01,-64.23 273.01,-64.32"/>
</a>
</g>
</g>
<!-- Node3 -->
<g id="Node000003" class="node">
<title>Node3</title>
<g id="a_Node000003"><a xlink:href="classnetspeak_1_1service_1_1RequestLogger.html#af6f740ce3b61ce0457265f30a7d36488" target="_top" xlink:title=" ">
<polygon fill="white" stroke="#666666" points="151,-78 0,-78 0,-48 151,-48 151,-78"/>
<text text-anchor="start" x="8" y="-66" font-family="Helvetica,sans-Serif" font-size="10.00">netspeak::service::</text>
<text text-anchor="middle" x="75.5" y="-55" font-family="Helvetica,sans-Serif" font-size="10.00">RequestLogger::GetCorpora</text>
</a>
</g>
</g>
<!-- Node2&#45;&gt;Node3 -->
<g id="edge2_Node000002_Node000003" class="edge">
<title>Node2&#45;&gt;Node3</title>
<g id="a_edge2_Node000002_Node000003"><a xlink:title=" ">
<path fill="none" stroke="#63b8ff" d="M176.73,-48.33C168.35,-49.56 159.7,-50.82 151.16,-52.07"/>
<polygon fill="#63b8ff" stroke="#63b8ff" points="177.41,-51.77 186.8,-46.86 176.4,-44.84 177.41,-51.77"/>
</a>
</g>
</g>
<!-- Node4 -->
<g id="Node000004" class="node">
<title>Node4</title>
<g id="a_Node000004"><a xlink:href="classnetspeak_1_1service_1_1RequestLogger.html#a131feb684685433d4f618ea9ba4e6380" target="_top" xlink:title=" ">
<polygon fill="white" stroke="#666666" points="139.5,-30 11.5,-30 11.5,0 139.5,0 139.5,-30"/>
<text text-anchor="start" x="19.5" y="-18" font-family="Helvetica,sans-Serif" font-size="10.00">netspeak::service::</text>
<text text-anchor="middle" x="75.5" y="-7" font-family="Helvetica,sans-Serif" font-size="10.00">RequestLogger::Search</text>
</a>
</g>
</g>
<!-- Node2&#45;&gt;Node4 -->
<g id="edge4_Node000002_Node000004" class="edge">
<title>Node2&#45;&gt;Node4</title>
<g id="a_edge4_Node000002_Node000004"><a xlink:title=" ">
<path fill="none" stroke="#63b8ff" d="M176.75,-29.67C164.59,-27.89 151.87,-26.03 139.73,-24.25"/>
<polygon fill="#63b8ff" stroke="#63b8ff" points="176.4,-33.16 186.8,-31.14 177.41,-26.23 176.4,-33.16"/>
</a>
</g>
</g>
</g>
</svg>
