<?xml version="1.0" encoding="UTF-8" standalone="no"?>
<!DOCTYPE svg PUBLIC "-//W3C//DTD SVG 1.1//EN"
 "http://www.w3.org/Graphics/SVG/1.1/DTD/svg11.dtd">
<!-- Generated by graphviz version 2.43.0 (0)
 -->
<!-- Title: netspeak::PhraseCorpus::open Pages: 1 -->
<svg width="847pt" height="210pt"
 viewBox="0.00 0.00 847.00 210.00" xmlns="http://www.w3.org/2000/svg" xmlns:xlink="http://www.w3.org/1999/xlink">
<g id="graph0" class="graph" transform="scale(1 1) rotate(0) translate(4 206)">
<title>netspeak::PhraseCorpus::open</title>
<!-- Node1 -->
<g id="Node000001" class="node">
<title>Node1</title>
<g id="a_Node000001"><a xlink:title=" ">
<polygon fill="#999999" stroke="#666666" points="134,-160 0,-160 0,-130 134,-130 134,-160"/>
<text text-anchor="start" x="8" y="-148" font-family="Helvetica,sans-Serif" font-size="10.00">netspeak::PhraseCorpus</text>
<text text-anchor="middle" x="67" y="-137" font-family="Helvetica,sans-Serif" font-size="10.00">::open</text>
</a>
</g>
</g>
<!-- Node2 -->
<g id="Node000002" class="node">
<title>Node2</title>
<g id="a_Node000002"><a xlink:href="classnetspeak_1_1PhraseCorpus.html#a13443ac2920664a49937a89caa622394" target="_top" xlink:title=" ">
<polygon fill="white" stroke="#666666" points="485.5,-187 351.5,-187 351.5,-157 485.5,-157 485.5,-187"/>
<text text-anchor="start" x="359.5" y="-175" font-family="Helvetica,sans-Serif" font-size="10.00">netspeak::PhraseCorpus</text>
<text text-anchor="middle" x="418.5" y="-164" font-family="Helvetica,sans-Serif" font-size="10.00">::init_vocabulary_</text>
</a>
</g>
</g>
<!-- Node1&#45;&gt;Node2 -->
<g id="edge1_Node000001_Node000002" class="edge">
<title>Node1&#45;&gt;Node2</title>
<g id="a_edge1_Node000001_Node000002"><a xlink:title=" ">
<path fill="none" stroke="#63b8ff" d="M134.15,-150.11C193.11,-154.66 279.39,-161.33 341.23,-166.11"/>
<polygon fill="#63b8ff" stroke="#63b8ff" points="341.08,-169.61 351.32,-166.89 341.62,-162.63 341.08,-169.61"/>
</a>
</g>
</g>
<!-- Node7 -->
<g id="Node000007" class="node">
<title>Node7</title>
<g id="a_Node000007"><a xlink:href="classnetspeak_1_1PhraseCorpus.html#a59d4f58c04dbe6951096baad931ad6d7" target="_top" xlink:title=" ">
<polygon fill="white" stroke="#666666" points="304,-139 170,-139 170,-109 304,-109 304,-139"/>
<text text-anchor="start" x="178" y="-127" font-family="Helvetica,sans-Serif" font-size="10.00">netspeak::PhraseCorpus</text>
<text text-anchor="middle" x="237" y="-116" font-family="Helvetica,sans-Serif" font-size="10.00">::open_phrase_files_</text>
</a>
</g>
</g>
<!-- Node1&#45;&gt;Node7 -->
<g id="edge6_Node000001_Node000007" class="edge">
<title>Node1&#45;&gt;Node7</title>
<g id="a_edge6_Node000001_Node000007"><a xlink:title=" ">
<path fill="none" stroke="#63b8ff" d="M134.4,-136.7C142.68,-135.67 151.2,-134.6 159.62,-133.55"/>
<polygon fill="#63b8ff" stroke="#63b8ff" points="160.32,-136.99 169.81,-132.27 159.45,-130.04 160.32,-136.99"/>
</a>
</g>
</g>
<!-- Node3 -->
<g id="Node000003" class="node">
<title>Node3</title>
<g id="a_Node000003"><a xlink:href="classnetspeak_1_1util_1_1StringIdMap_1_1Builder.html#aaae054493a636c9a6c9eb186f970e630" target="_top" xlink:title=" ">
<polygon fill="white" stroke="#666666" points="675,-202 548,-202 548,-172 675,-172 675,-202"/>
<text text-anchor="start" x="556" y="-190" font-family="Helvetica,sans-Serif" font-size="10.00">netspeak::util::StringId</text>
<text text-anchor="middle" x="611.5" y="-179" font-family="Helvetica,sans-Serif" font-size="10.00">Map::Builder::append</text>
</a>
</g>
</g>
<!-- Node2&#45;&gt;Node3 -->
<g id="edge2_Node000002_Node000003" class="edge">
<title>Node2&#45;&gt;Node3</title>
<g id="a_edge2_Node000002_Node000003"><a xlink:title=" ">
<path fill="none" stroke="#63b8ff" d="M485.77,-177.2C502.45,-178.51 520.45,-179.93 537.45,-181.26"/>
<polygon fill="#63b8ff" stroke="#63b8ff" points="537.64,-184.79 547.88,-182.08 538.19,-177.81 537.64,-184.79"/>
</a>
</g>
</g>
<!-- Node4 -->
<g id="Node000004" class="node">
<title>Node4</title>
<g id="a_Node000004"><a xlink:href="namespacenetspeak_1_1error__message.html#a2a36ff57b354714213502a72e6d9d416" target="_top" xlink:title=" ">
<polygon fill="white" stroke="#666666" points="681.5,-154 541.5,-154 541.5,-124 681.5,-124 681.5,-154"/>
<text text-anchor="start" x="549.5" y="-142" font-family="Helvetica,sans-Serif" font-size="10.00">netspeak::error_message</text>
<text text-anchor="middle" x="611.5" y="-131" font-family="Helvetica,sans-Serif" font-size="10.00">::cannot_open</text>
</a>
</g>
</g>
<!-- Node2&#45;&gt;Node4 -->
<g id="edge3_Node000002_Node000004" class="edge">
<title>Node2&#45;&gt;Node4</title>
<g id="a_edge3_Node000002_Node000004"><a xlink:title=" ">
<path fill="none" stroke="#63b8ff" d="M485.77,-160.55C500.53,-158 516.32,-155.27 531.53,-152.64"/>
<polygon fill="#63b8ff" stroke="#63b8ff" points="532.17,-156.09 541.43,-150.93 530.98,-149.19 532.17,-156.09"/>
</a>
</g>
</g>
<!-- Node5 -->
<g id="Node000005" class="node">
<title>Node5</title>
<g id="a_Node000005"><a xlink:href="namespacenetspeak_1_1util.html#aad6c5a8708322dd600c23507cc2035f1" target="_top" xlink:title=" ">
<polygon fill="white" stroke="#666666" points="670.5,-105.5 552.5,-105.5 552.5,-86.5 670.5,-86.5 670.5,-105.5"/>
<text text-anchor="middle" x="611.5" y="-93.5" font-family="Helvetica,sans-Serif" font-size="10.00">netspeak::util::check</text>
</a>
</g>
</g>
<!-- Node2&#45;&gt;Node5 -->
<g id="edge4_Node000002_Node000005" class="edge">
<title>Node2&#45;&gt;Node5</title>
<g id="a_edge4_Node000002_Node000005"><a xlink:title=" ">
<path fill="none" stroke="#63b8ff" d="M478.24,-156.88C484.75,-154.31 491.14,-151.37 497,-148 515.82,-137.19 513.86,-125.24 533,-115 537.28,-112.71 541.84,-110.69 546.52,-108.91"/>
<polygon fill="#63b8ff" stroke="#63b8ff" points="547.92,-112.13 556.26,-105.59 545.66,-105.51 547.92,-112.13"/>
</a>
</g>
</g>
<!-- Node6 -->
<g id="Node000006" class="node">
<title>Node6</title>
<g id="a_Node000006"><a xlink:href="namespacenetspeak_1_1util.html#a4c91ad572508b4021399ac7dddff574d" target="_top" xlink:title=" ">
<polygon fill="white" stroke="#666666" points="839,-86.5 726,-86.5 726,-67.5 839,-67.5 839,-86.5"/>
<text text-anchor="middle" x="782.5" y="-74.5" font-family="Helvetica,sans-Serif" font-size="10.00">netspeak::util::hash</text>
</a>
</g>
</g>
<!-- Node5&#45;&gt;Node6 -->
<g id="edge5_Node000005_Node000006" class="edge">
<title>Node5&#45;&gt;Node6</title>
<g id="a_edge5_Node000005_Node000006"><a xlink:title=" ">
<path fill="none" stroke="#63b8ff" d="M670.66,-89.46C685.17,-87.83 700.82,-86.07 715.67,-84.4"/>
<polygon fill="#63b8ff" stroke="#63b8ff" points="716.25,-87.86 725.8,-83.26 715.47,-80.9 716.25,-87.86"/>
</a>
</g>
</g>
<!-- Node8 -->
<g id="Node000008" class="node">
<title>Node8</title>
<g id="a_Node000008"><a xlink:href="structnetspeak_1_1util_1_1FileDescriptor.html#abdc417820110f016b314a0a68e33775c" target="_top" xlink:title=" ">
<polygon fill="white" stroke="#666666" points="497,-73 340,-73 340,-43 497,-43 497,-73"/>
<text text-anchor="start" x="348" y="-61" font-family="Helvetica,sans-Serif" font-size="10.00">netspeak::util::FileDescriptor</text>
<text text-anchor="middle" x="418.5" y="-50" font-family="Helvetica,sans-Serif" font-size="10.00">::open</text>
</a>
</g>
</g>
<!-- Node7&#45;&gt;Node8 -->
<g id="edge7_Node000007_Node000008" class="edge">
<title>Node7&#45;&gt;Node8</title>
<g id="a_edge7_Node000007_Node000008"><a xlink:title=" ">
<path fill="none" stroke="#63b8ff" d="M279.18,-108.86C305.29,-99.26 339.25,-86.77 366.98,-76.57"/>
<polygon fill="#63b8ff" stroke="#63b8ff" points="368.33,-79.81 376.51,-73.07 365.92,-73.24 368.33,-79.81"/>
</a>
</g>
</g>
<!-- Node10 -->
<g id="Node000010" class="node">
<title>Node10</title>
<g id="a_Node000010"><a xlink:href="namespacenetspeak.html#ad4aa35cf59e6cc5973a4da6d97a1c2b0" target="_top" xlink:title=" ">
<polygon fill="white" stroke="#666666" points="485,-139 352,-139 352,-109 485,-109 485,-139"/>
<text text-anchor="start" x="360" y="-127" font-family="Helvetica,sans-Serif" font-size="10.00">netspeak::parse_phrase</text>
<text text-anchor="middle" x="418.5" y="-116" font-family="Helvetica,sans-Serif" font-size="10.00">_filename</text>
</a>
</g>
</g>
<!-- Node7&#45;&gt;Node10 -->
<g id="edge13_Node000007_Node000010" class="edge">
<title>Node7&#45;&gt;Node10</title>
<g id="a_edge13_Node000007_Node000010"><a xlink:title=" ">
<path fill="none" stroke="#63b8ff" d="M304.07,-124C316.26,-124 329.07,-124 341.52,-124"/>
<polygon fill="#63b8ff" stroke="#63b8ff" points="341.86,-127.5 351.86,-124 341.86,-120.5 341.86,-127.5"/>
</a>
</g>
</g>
<!-- Node8&#45;&gt;Node4 -->
<g id="edge8_Node000008_Node000004" class="edge">
<title>Node8&#45;&gt;Node4</title>
<g id="a_edge8_Node000008_Node000004"><a xlink:title=" ">
<path fill="none" stroke="#63b8ff" d="M447.43,-73.21C470.09,-85.2 503.07,-101.86 533,-114 538.54,-116.25 544.36,-118.43 550.23,-120.52"/>
<polygon fill="#63b8ff" stroke="#63b8ff" points="549.49,-123.97 560.09,-123.92 551.78,-117.35 549.49,-123.97"/>
</a>
</g>
</g>
<!-- Node8&#45;&gt;Node5 -->
<g id="edge9_Node000008_Node000005" class="edge">
<title>Node8&#45;&gt;Node5</title>
<g id="a_edge9_Node000008_Node000005"><a xlink:title=" ">
<path fill="none" stroke="#63b8ff" d="M494.99,-73.02C514.26,-76.85 534.66,-80.91 552.87,-84.54"/>
<polygon fill="#63b8ff" stroke="#63b8ff" points="552.25,-87.98 562.75,-86.5 553.62,-81.11 552.25,-87.98"/>
</a>
</g>
</g>
<!-- Node8&#45;&gt;Node6 -->
<g id="edge11_Node000008_Node000006" class="edge">
<title>Node8&#45;&gt;Node6</title>
<g id="a_edge11_Node000008_Node000006"><a xlink:title=" ">
<path fill="none" stroke="#63b8ff" d="M497.16,-62.08C562.16,-65.49 653.91,-70.3 715.44,-73.53"/>
<polygon fill="#63b8ff" stroke="#63b8ff" points="715.63,-77.05 725.8,-74.08 716,-70.06 715.63,-77.05"/>
</a>
</g>
</g>
<!-- Node8&#45;&gt;Node8 -->
<g id="edge12_Node000008_Node000008" class="edge">
<title>Node8&#45;&gt;Node8</title>
<g id="a_edge12_Node000008_Node000008"><a xlink:title=" ">
<path fill="none" stroke="#63b8ff" d="M386.86,-73.28C379.83,-82.41 390.38,-91 418.5,-91 435.2,-91 445.7,-87.97 450.01,-83.6"/>
<polygon fill="#63b8ff" stroke="#63b8ff" points="453.51,-83.32 450.14,-73.28 446.51,-83.23 453.51,-83.32"/>
</a>
</g>
</g>
<!-- Node9 -->
<g id="Node000009" class="node">
<title>Node9</title>
<g id="a_Node000009"><a xlink:href="structnetspeak_1_1util_1_1FileDescriptor.html#a21032b84b713c8f0f84bfb5f70ea0bbf" target="_top" xlink:title=" ">
<polygon fill="white" stroke="#666666" points="690,-30 533,-30 533,0 690,0 690,-30"/>
<text text-anchor="start" x="541" y="-18" font-family="Helvetica,sans-Serif" font-size="10.00">netspeak::util::FileDescriptor</text>
<text text-anchor="middle" x="611.5" y="-7" font-family="Helvetica,sans-Serif" font-size="10.00">::FileDescriptor</text>
</a>
</g>
</g>
<!-- Node8&#45;&gt;Node9 -->
<g id="edge10_Node000008_Node000009" class="edge">
<title>Node8&#45;&gt;Node9</title>
<g id="a_edge10_Node000008_Node000009"><a xlink:title=" ">
<path fill="none" stroke="#63b8ff" d="M486.3,-42.96C501.57,-39.52 517.91,-35.84 533.57,-32.32"/>
<polygon fill="#63b8ff" stroke="#63b8ff" points="534.75,-35.64 543.74,-30.03 533.21,-28.81 534.75,-35.64"/>
</a>
</g>
</g>
</g>
</svg>
