<?xml version="1.0" encoding="UTF-8" standalone="no"?>
<!DOCTYPE svg PUBLIC "-//W3C//DTD SVG 1.1//EN"
 "http://www.w3.org/Graphics/SVG/1.1/DTD/svg11.dtd">
<!-- Generated by graphviz version 2.43.0 (0)
 -->
<!-- Title: netspeak::util::JsonWriter::Value::protobuf_message Pages: 1 -->
<svg width="479pt" height="59pt"
 viewBox="0.00 0.00 479.00 59.00" xmlns="http://www.w3.org/2000/svg" xmlns:xlink="http://www.w3.org/1999/xlink">
<g id="graph0" class="graph" transform="scale(1 1) rotate(0) translate(4 55)">
<title>netspeak::util::JsonWriter::Value::protobuf_message</title>
<!-- Node1 -->
<g id="Node000001" class="node">
<title>Node1</title>
<g id="a_Node000001"><a xlink:title=" ">
<polygon fill="#999999" stroke="#666666" points="146,-51 0,-51 0,-21 146,-21 146,-51"/>
<text text-anchor="start" x="8" y="-39" font-family="Helvetica,sans-Serif" font-size="10.00">netspeak::util::JsonWriter</text>
<text text-anchor="middle" x="73" y="-28" font-family="Helvetica,sans-Serif" font-size="10.00">::Value::protobuf_message</text>
</a>
</g>
</g>
<!-- Node2 -->
<g id="Node000002" class="node">
<title>Node2</title>
<g id="a_Node000002"><a xlink:href="namespacenetspeak_1_1util.html#a4c91ad572508b4021399ac7dddff574d" target="_top" xlink:title=" ">
<polygon fill="white" stroke="#666666" points="471,-45.5 358,-45.5 358,-26.5 471,-26.5 471,-45.5"/>
<text text-anchor="middle" x="414.5" y="-33.5" font-family="Helvetica,sans-Serif" font-size="10.00">netspeak::util::hash</text>
</a>
</g>
</g>
<!-- Node1&#45;&gt;Node2 -->
<g id="edge1_Node000001_Node000002" class="edge">
<title>Node1&#45;&gt;Node2</title>
<g id="a_edge1_Node000001_Node000002"><a xlink:title=" ">
<path fill="none" stroke="#63b8ff" d="M146.03,-38.28C158.04,-38.58 170.37,-38.84 182,-39 244.22,-39.86 259.79,-40.02 322,-39 330.34,-38.86 339.1,-38.66 347.77,-38.41"/>
<polygon fill="#63b8ff" stroke="#63b8ff" points="347.97,-41.91 357.86,-38.12 347.76,-34.91 347.97,-41.91"/>
</a>
</g>
</g>
<!-- Node3 -->
<g id="Node000003" class="node">
<title>Node3</title>
<g id="a_Node000003"><a xlink:href="classnetspeak_1_1util_1_1JsonWriter_1_1Value.html#a28df35b205e2cce1951bd4b4175c703c" target="_top" xlink:title=" ">
<polygon fill="white" stroke="#666666" points="322,-30 182,-30 182,0 322,0 322,-30"/>
<text text-anchor="start" x="190" y="-18" font-family="Helvetica,sans-Serif" font-size="10.00">netspeak::util::JsonWriter</text>
<text text-anchor="middle" x="252" y="-7" font-family="Helvetica,sans-Serif" font-size="10.00">::Value::raw_json</text>
</a>
</g>
</g>
<!-- Node1&#45;&gt;Node3 -->
<g id="edge2_Node000001_Node000003" class="edge">
<title>Node1&#45;&gt;Node3</title>
<g id="a_edge2_Node000001_Node000003"><a xlink:title=" ">
<path fill="none" stroke="#63b8ff" d="M146.25,-27.43C154.7,-26.43 163.35,-25.4 171.89,-24.39"/>
<polygon fill="#63b8ff" stroke="#63b8ff" points="172.32,-27.86 181.84,-23.21 171.5,-20.91 172.32,-27.86"/>
</a>
</g>
</g>
<!-- Node3&#45;&gt;Node2 -->
<g id="edge3_Node000003_Node000002" class="edge">
<title>Node3&#45;&gt;Node2</title>
<g id="a_edge3_Node000003_Node000002"><a xlink:title=" ">
<path fill="none" stroke="#63b8ff" d="M322.46,-24.09C330.9,-25.19 339.49,-26.32 347.87,-27.41"/>
<polygon fill="#63b8ff" stroke="#63b8ff" points="347.58,-30.9 357.95,-28.73 348.48,-23.96 347.58,-30.9"/>
</a>
</g>
</g>
</g>
</svg>
