<?xml version="1.0" encoding="UTF-8" standalone="no"?>
<!DOCTYPE svg PUBLIC "-//W3C//DTD SVG 1.1//EN"
 "http://www.w3.org/Graphics/SVG/1.1/DTD/svg11.dtd">
<!-- Generated by graphviz version 2.43.0 (0)
 -->
<!-- Title: netspeak::bighashmap::ExternalMap::ReadEntry Pages: 1 -->
<svg width="616pt" height="76pt"
 viewBox="0.00 0.00 616.00 75.50" xmlns="http://www.w3.org/2000/svg" xmlns:xlink="http://www.w3.org/1999/xlink">
<g id="graph0" class="graph" transform="scale(1 1) rotate(0) translate(4 71.5)">
<title>netspeak::bighashmap::ExternalMap::ReadEntry</title>
<!-- Node1 -->
<g id="Node000001" class="node">
<title>Node1</title>
<g id="a_Node000001"><a xlink:title=" ">
<polygon fill="#999999" stroke="#666666" points="140,-51 0,-51 0,-21 140,-21 140,-51"/>
<text text-anchor="start" x="8" y="-39" font-family="Helvetica,sans-Serif" font-size="10.00">netspeak::bighashmap</text>
<text text-anchor="middle" x="70" y="-28" font-family="Helvetica,sans-Serif" font-size="10.00">::ExternalMap::ReadEntry</text>
</a>
</g>
</g>
<!-- Node2 -->
<g id="Node000002" class="node">
<title>Node2</title>
<g id="a_Node000002"><a xlink:href="namespacenetspeak_1_1util.html#a3015ae7c69935f843a1915958d0de042" target="_top" xlink:title=" ">
<polygon fill="white" stroke="#666666" points="298,-67.5 182,-67.5 182,-48.5 298,-48.5 298,-67.5"/>
<text text-anchor="middle" x="240" y="-55.5" font-family="Helvetica,sans-Serif" font-size="10.00">netspeak::util::fseek</text>
</a>
</g>
</g>
<!-- Node1&#45;&gt;Node2 -->
<g id="edge1_Node000001_Node000002" class="edge">
<title>Node1&#45;&gt;Node2</title>
<g id="a_edge1_Node000001_Node000002"><a xlink:title=" ">
<path fill="none" stroke="#63b8ff" d="M140.3,-45.08C150.67,-46.43 161.35,-47.83 171.68,-49.18"/>
<polygon fill="#63b8ff" stroke="#63b8ff" points="171.5,-52.69 181.87,-50.52 172.41,-45.75 171.5,-52.69"/>
</a>
</g>
</g>
<!-- Node5 -->
<g id="Node000005" class="node">
<title>Node5</title>
<g id="a_Node000005"><a xlink:href="structnetspeak_1_1value_1_1value__traits.html#ae0ea99c085b1395ddf5651ff4604c96a" target="_top" xlink:title=" ">
<polygon fill="white" stroke="#666666" points="304,-30 176,-30 176,0 304,0 304,-30"/>
<text text-anchor="start" x="184" y="-18" font-family="Helvetica,sans-Serif" font-size="10.00">netspeak::value::value</text>
<text text-anchor="middle" x="240" y="-7" font-family="Helvetica,sans-Serif" font-size="10.00">_traits::read_from</text>
</a>
</g>
</g>
<!-- Node1&#45;&gt;Node5 -->
<g id="edge5_Node000001_Node000005" class="edge">
<title>Node1&#45;&gt;Node5</title>
<g id="a_edge5_Node000001_Node000005"><a xlink:title=" ">
<path fill="none" stroke="#63b8ff" d="M140.3,-27.34C148.66,-26.29 157.21,-25.22 165.62,-24.17"/>
<polygon fill="#63b8ff" stroke="#63b8ff" points="166.29,-27.62 175.78,-22.9 165.42,-20.67 166.29,-27.62"/>
</a>
</g>
</g>
<!-- Node3 -->
<g id="Node000003" class="node">
<title>Node3</title>
<g id="a_Node000003"><a xlink:href="namespacenetspeak_1_1util.html#a4c91ad572508b4021399ac7dddff574d" target="_top" xlink:title=" ">
<polygon fill="white" stroke="#666666" points="608,-66.5 495,-66.5 495,-47.5 608,-47.5 608,-66.5"/>
<text text-anchor="middle" x="551.5" y="-54.5" font-family="Helvetica,sans-Serif" font-size="10.00">netspeak::util::hash</text>
</a>
</g>
</g>
<!-- Node2&#45;&gt;Node3 -->
<g id="edge2_Node000002_Node000003" class="edge">
<title>Node2&#45;&gt;Node3</title>
<g id="a_edge2_Node000002_Node000003"><a xlink:title=" ">
<path fill="none" stroke="#63b8ff" d="M298.06,-59.35C311.79,-59.62 326.42,-59.86 340,-60 392.89,-60.53 406.12,-60.87 459,-60 467.34,-59.86 476.1,-59.66 484.77,-59.41"/>
<polygon fill="#63b8ff" stroke="#63b8ff" points="484.97,-62.91 494.86,-59.12 484.76,-55.91 484.97,-62.91"/>
</a>
</g>
</g>
<!-- Node4 -->
<g id="Node000004" class="node">
<title>Node4</title>
<g id="a_Node000004"><a xlink:href="namespacenetspeak_1_1util.html#af94d48fda5f335ddcb461a8237079866" target="_top" xlink:title=" ">
<polygon fill="white" stroke="#666666" points="459,-51 340,-51 340,-21 459,-21 459,-51"/>
<text text-anchor="start" x="348" y="-39" font-family="Helvetica,sans-Serif" font-size="10.00">netspeak::util::signal</text>
<text text-anchor="middle" x="399.5" y="-28" font-family="Helvetica,sans-Serif" font-size="10.00">_error</text>
</a>
</g>
</g>
<!-- Node2&#45;&gt;Node4 -->
<g id="edge3_Node000002_Node000004" class="edge">
<title>Node2&#45;&gt;Node4</title>
<g id="a_edge3_Node000002_Node000004"><a xlink:title=" ">
<path fill="none" stroke="#63b8ff" d="M298.31,-50C308.57,-48.56 319.36,-47.05 329.91,-45.58"/>
<polygon fill="#63b8ff" stroke="#63b8ff" points="330.49,-49.03 339.91,-44.18 329.53,-42.1 330.49,-49.03"/>
</a>
</g>
</g>
<!-- Node4&#45;&gt;Node3 -->
<g id="edge4_Node000004_Node000003" class="edge">
<title>Node4&#45;&gt;Node3</title>
<g id="a_edge4_Node000004_Node000003"><a xlink:title=" ">
<path fill="none" stroke="#63b8ff" d="M459.35,-44.24C467.64,-45.4 476.2,-46.6 484.61,-47.78"/>
<polygon fill="#63b8ff" stroke="#63b8ff" points="484.37,-51.28 494.76,-49.2 485.34,-44.34 484.37,-51.28"/>
</a>
</g>
</g>
</g>
</svg>
