<?xml version="1.0" encoding="UTF-8" standalone="no"?>
<!DOCTYPE svg PUBLIC "-//W3C//DTD SVG 1.1//EN"
 "http://www.w3.org/Graphics/SVG/1.1/DTD/svg11.dtd">
<!-- Generated by graphviz version 2.43.0 (0)
 -->
<!-- Title: netspeak::invertedindex::PostlistBuilder&lt; T &gt; Pages: 1 -->
<svg width="137pt" height="318pt"
 viewBox="0.00 0.00 137.00 318.00" xmlns="http://www.w3.org/2000/svg" xmlns:xlink="http://www.w3.org/1999/xlink">
<g id="graph0" class="graph" transform="scale(1 1) rotate(0) translate(4 314)">
<title>netspeak::invertedindex::PostlistBuilder&lt; T &gt;</title>
<!-- Node1 -->
<g id="Node000001" class="node">
<title>Node1</title>
<g id="a_Node000001"><a xlink:title=" ">
<polygon fill="#999999" stroke="transparent" points="129,-225 0,-225 0,0 129,0 129,-225"/>
<text text-anchor="start" x="5.5" y="-212.5" font-family="Helvetica,sans-Serif" font-size="10.00">netspeak::invertedindex</text>
<text text-anchor="start" x="12" y="-201.5" font-family="Helvetica,sans-Serif" font-size="10.00">::PostlistBuilder&lt; T &gt;</text>
<text text-anchor="start" x="9.5" y="-186.5" font-family="Helvetica,sans-Serif" font-size="10.00">&#45;</text>
<text text-anchor="start" x="22.5" y="-186.5" font-family="Helvetica,sans-Serif" font-size="10.00">page_size_</text>
<text text-anchor="start" x="9.5" y="-171.5" font-family="Helvetica,sans-Serif" font-size="10.00">&#45;</text>
<text text-anchor="start" x="22.5" y="-171.5" font-family="Helvetica,sans-Serif" font-size="10.00">mem_usage_</text>
<text text-anchor="start" x="9.5" y="-156.5" font-family="Helvetica,sans-Serif" font-size="10.00">&#45;</text>
<text text-anchor="start" x="22.5" y="-156.5" font-family="Helvetica,sans-Serif" font-size="10.00">values_</text>
<text text-anchor="start" x="9.5" y="-141.5" font-family="Helvetica,sans-Serif" font-size="10.00">&#45;</text>
<text text-anchor="start" x="22.5" y="-141.5" font-family="Helvetica,sans-Serif" font-size="10.00">sizes_</text>
<text text-anchor="start" x="9.5" y="-126.5" font-family="Helvetica,sans-Serif" font-size="10.00">&#45;</text>
<text text-anchor="start" x="22.5" y="-126.5" font-family="Helvetica,sans-Serif" font-size="10.00">head_</text>
<text text-anchor="start" x="9.5" y="-111.5" font-family="Helvetica,sans-Serif" font-size="10.00">&#45;</text>
<text text-anchor="start" x="22.5" y="-111.5" font-family="Helvetica,sans-Serif" font-size="10.00">swap_</text>
<text text-anchor="start" x="7" y="-96.5" font-family="Helvetica,sans-Serif" font-size="10.00">+</text>
<text text-anchor="start" x="22.5" y="-96.5" font-family="Helvetica,sans-Serif" font-size="10.00">PostlistBuilder()</text>
<text text-anchor="start" x="7" y="-81.5" font-family="Helvetica,sans-Serif" font-size="10.00">+</text>
<text text-anchor="start" x="22.5" y="-81.5" font-family="Helvetica,sans-Serif" font-size="10.00">~PostlistBuilder()</text>
<text text-anchor="start" x="7" y="-66.5" font-family="Helvetica,sans-Serif" font-size="10.00">+</text>
<text text-anchor="start" x="22.5" y="-66.5" font-family="Helvetica,sans-Serif" font-size="10.00">build()</text>
<text text-anchor="start" x="7" y="-51.5" font-family="Helvetica,sans-Serif" font-size="10.00">+</text>
<text text-anchor="start" x="22.5" y="-51.5" font-family="Helvetica,sans-Serif" font-size="10.00">clear()</text>
<text text-anchor="start" x="7" y="-36.5" font-family="Helvetica,sans-Serif" font-size="10.00">+</text>
<text text-anchor="start" x="22.5" y="-36.5" font-family="Helvetica,sans-Serif" font-size="10.00">push_back()</text>
<text text-anchor="start" x="9.5" y="-21.5" font-family="Helvetica,sans-Serif" font-size="10.00">&#45;</text>
<text text-anchor="start" x="22.5" y="-21.5" font-family="Helvetica,sans-Serif" font-size="10.00">swap_out_values_()</text>
<text text-anchor="start" x="9.5" y="-6.5" font-family="Helvetica,sans-Serif" font-size="10.00">&#45;</text>
<text text-anchor="start" x="22.5" y="-6.5" font-family="Helvetica,sans-Serif" font-size="10.00">has_swap_()</text>
<polygon fill="#666666" stroke="#666666" points="0.5,-196.5 0.5,-196.5 129.5,-196.5 129.5,-196.5 0.5,-196.5"/>
<polygon fill="#666666" stroke="#666666" points="0.5,-106.5 0.5,-106.5 20.5,-106.5 20.5,-106.5 0.5,-106.5"/>
<polygon fill="#666666" stroke="#666666" points="20.5,-106.5 20.5,-106.5 129.5,-106.5 129.5,-106.5 20.5,-106.5"/>
<polygon fill="none" stroke="#666666" points="0,0 0,-225 129,-225 129,0 0,0"/>
</a>
</g>
</g>
<!-- Node2 -->
<g id="Node000002" class="node">
<title>Node2</title>
<g id="a_Node000002"><a xlink:title=" ">
<polygon fill="white" stroke="transparent" points="117.5,-310 11.5,-310 11.5,-261 117.5,-261 117.5,-310"/>
<text text-anchor="start" x="16.5" y="-297.5" font-family="Helvetica,sans-Serif" font-size="10.00">boost::noncopyable</text>
<text text-anchor="start" x="62.5" y="-282.5" font-family="Helvetica,sans-Serif" font-size="10.00"> </text>
<text text-anchor="start" x="62.5" y="-267.5" font-family="Helvetica,sans-Serif" font-size="10.00"> </text>
<polygon fill="#666666" stroke="#666666" points="11.5,-292.5 11.5,-292.5 117.5,-292.5 117.5,-292.5 11.5,-292.5"/>
<polygon fill="#666666" stroke="#666666" points="11.5,-277.5 11.5,-277.5 117.5,-277.5 117.5,-277.5 11.5,-277.5"/>
<polygon fill="none" stroke="#666666" points="11.5,-261 11.5,-310 117.5,-310 117.5,-261 11.5,-261"/>
</a>
</g>
</g>
<!-- Node2&#45;&gt;Node1 -->
<g id="edge1_Node000001_Node000002" class="edge">
<title>Node2&#45;&gt;Node1</title>
<g id="a_edge1_Node000001_Node000002"><a xlink:title=" ">
<path fill="none" stroke="#63b8ff" d="M64.5,-250.52C64.5,-242.85 64.5,-234.3 64.5,-225.32"/>
<polygon fill="none" stroke="#63b8ff" points="61,-250.72 64.5,-260.72 68,-250.72 61,-250.72"/>
</a>
</g>
</g>
</g>
</svg>
