<?xml version="1.0" encoding="UTF-8" standalone="no"?>
<!DOCTYPE svg PUBLIC "-//W3C//DTD SVG 1.1//EN"
 "http://www.w3.org/Graphics/SVG/1.1/DTD/svg11.dtd">
<!-- Generated by graphviz version 2.43.0 (0)
 -->
<!-- Title: netspeak::StarQueryConverter::alternation Pages: 1 -->
<svg width="867pt" height="263pt"
 viewBox="0.00 0.00 867.00 263.00" xmlns="http://www.w3.org/2000/svg" xmlns:xlink="http://www.w3.org/1999/xlink">
<g id="graph0" class="graph" transform="scale(1 1) rotate(0) translate(4 259)">
<title>netspeak::StarQueryConverter::alternation</title>
<!-- Node1 -->
<g id="Node000001" class="node">
<title>Node1</title>
<g id="a_Node000001"><a xlink:title=" ">
<polygon fill="#999999" stroke="#666666" points="164,-154 0,-154 0,-124 164,-124 164,-154"/>
<text text-anchor="start" x="8" y="-142" font-family="Helvetica,sans-Serif" font-size="10.00">netspeak::StarQueryConverter</text>
<text text-anchor="middle" x="82" y="-131" font-family="Helvetica,sans-Serif" font-size="10.00">::alternation</text>
</a>
</g>
</g>
<!-- Node1&#45;&gt;Node1 -->
<g id="edge1_Node000001_Node000001" class="edge">
<title>Node1&#45;&gt;Node1</title>
<g id="a_edge1_Node000001_Node000001"><a xlink:title=" ">
<path fill="none" stroke="#63b8ff" d="M46.84,-154.28C39.03,-163.41 50.75,-172 82,-172 100.55,-172 112.22,-168.97 117.01,-164.6"/>
<polygon fill="#63b8ff" stroke="#63b8ff" points="120.51,-164.32 117.16,-154.28 113.51,-164.22 120.51,-164.32"/>
</a>
</g>
</g>
<!-- Node2 -->
<g id="Node000002" class="node">
<title>Node2</title>
<g id="a_Node000002"><a xlink:href="classnetspeak_1_1model_1_1SimpleQueryUnit____.html#a8840caeb703398accd6bf417b0b1ae8e" target="_top" xlink:title=" ">
<polygon fill="white" stroke="#666666" points="567,-255 400,-255 400,-225 567,-225 567,-255"/>
<text text-anchor="start" x="408" y="-243" font-family="Helvetica,sans-Serif" font-size="10.00">netspeak::model::SimpleQuery</text>
<text text-anchor="middle" x="483.5" y="-232" font-family="Helvetica,sans-Serif" font-size="10.00">Unit__::children</text>
</a>
</g>
</g>
<!-- Node1&#45;&gt;Node2 -->
<g id="edge2_Node000001_Node000002" class="edge">
<title>Node1&#45;&gt;Node2</title>
<g id="a_edge2_Node000001_Node000002"><a xlink:title=" ">
<path fill="none" stroke="#63b8ff" d="M105.21,-154.13C127.96,-168.84 164.89,-190.61 200,-202 261.37,-221.92 333.51,-231.4 389.53,-235.92"/>
<polygon fill="#63b8ff" stroke="#63b8ff" points="389.55,-239.43 399.79,-236.7 390.09,-232.45 389.55,-239.43"/>
</a>
</g>
</g>
<!-- Node3 -->
<g id="Node000003" class="node">
<title>Node3</title>
<g id="a_Node000003"><a xlink:href="classnetspeak_1_1StarQueryConverter.html#a603db91f5a1da4fcc11c7e99f71ece2f" target="_top" xlink:title=" ">
<polygon fill="white" stroke="#666666" points="364,-154 200,-154 200,-124 364,-124 364,-154"/>
<text text-anchor="start" x="208" y="-142" font-family="Helvetica,sans-Serif" font-size="10.00">netspeak::StarQueryConverter</text>
<text text-anchor="middle" x="282" y="-131" font-family="Helvetica,sans-Serif" font-size="10.00">::concat</text>
</a>
</g>
</g>
<!-- Node1&#45;&gt;Node3 -->
<g id="edge3_Node000001_Node000003" class="edge">
<title>Node1&#45;&gt;Node3</title>
<g id="a_edge3_Node000001_Node000003"><a xlink:title=" ">
<path fill="none" stroke="#63b8ff" d="M164.11,-132.35C172.46,-132.26 180.99,-132.23 189.44,-132.27"/>
<polygon fill="#63b8ff" stroke="#63b8ff" points="189.67,-135.77 199.7,-132.35 189.73,-128.77 189.67,-135.77"/>
</a>
</g>
</g>
<!-- Node7 -->
<g id="Node000007" class="node">
<title>Node7</title>
<g id="a_Node000007"><a xlink:href="classnetspeak_1_1model_1_1SimpleQueryUnit____.html#a90bbf69557a0a390446247d9435aed98" target="_top" xlink:title=" ">
<polygon fill="white" stroke="#666666" points="567,-207 400,-207 400,-177 567,-177 567,-207"/>
<text text-anchor="start" x="408" y="-195" font-family="Helvetica,sans-Serif" font-size="10.00">netspeak::model::SimpleQuery</text>
<text text-anchor="middle" x="483.5" y="-184" font-family="Helvetica,sans-Serif" font-size="10.00">Unit__::source</text>
</a>
</g>
</g>
<!-- Node1&#45;&gt;Node7 -->
<g id="edge14_Node000001_Node000007" class="edge">
<title>Node1&#45;&gt;Node7</title>
<g id="a_edge14_Node000001_Node000007"><a xlink:title=" ">
<path fill="none" stroke="#63b8ff" d="M116.27,-154.03C139.28,-163.65 170.87,-175.34 200,-181 262.48,-193.13 334.15,-195.8 389.67,-195.47"/>
<polygon fill="#63b8ff" stroke="#63b8ff" points="389.87,-198.97 399.84,-195.38 389.81,-191.97 389.87,-198.97"/>
</a>
</g>
</g>
<!-- Node8 -->
<g id="Node000008" class="node">
<title>Node8</title>
<g id="a_Node000008"><a xlink:href="classnetspeak_1_1model_1_1SimpleQueryUnit____.html#a06c21084859addaa75c754815d691d39" target="_top" xlink:title=" ">
<polygon fill="white" stroke="#666666" points="567,-111 400,-111 400,-81 567,-81 567,-111"/>
<text text-anchor="start" x="408" y="-99" font-family="Helvetica,sans-Serif" font-size="10.00">netspeak::model::SimpleQuery</text>
<text text-anchor="middle" x="483.5" y="-88" font-family="Helvetica,sans-Serif" font-size="10.00">Unit__::tag</text>
</a>
</g>
</g>
<!-- Node1&#45;&gt;Node8 -->
<g id="edge15_Node000001_Node000008" class="edge">
<title>Node1&#45;&gt;Node8</title>
<g id="a_edge15_Node000001_Node000008"><a xlink:title=" ">
<path fill="none" stroke="#63b8ff" d="M148.33,-123.98C165.09,-120.57 183.15,-117.28 200,-115 263.05,-106.45 334.57,-101.69 389.87,-99.07"/>
<polygon fill="#63b8ff" stroke="#63b8ff" points="390.17,-102.56 400,-98.61 389.85,-95.57 390.17,-102.56"/>
</a>
</g>
</g>
<!-- Node9 -->
<g id="Node000009" class="node">
<title>Node9</title>
<g id="a_Node000009"><a xlink:href="classnetspeak_1_1model_1_1SimpleQueryUnit____.html#a1ffd5dced48df9d16a6de0e434858634" target="_top" xlink:title=" ">
<polygon fill="white" stroke="#666666" points="567,-63 400,-63 400,-33 567,-33 567,-63"/>
<text text-anchor="start" x="408" y="-51" font-family="Helvetica,sans-Serif" font-size="10.00">netspeak::model::SimpleQuery</text>
<text text-anchor="middle" x="483.5" y="-40" font-family="Helvetica,sans-Serif" font-size="10.00">Unit__::text</text>
</a>
</g>
</g>
<!-- Node1&#45;&gt;Node9 -->
<g id="edge16_Node000001_Node000009" class="edge">
<title>Node1&#45;&gt;Node9</title>
<g id="a_edge16_Node000001_Node000009"><a xlink:title=" ">
<path fill="none" stroke="#63b8ff" d="M119.89,-123.9C142.67,-115.05 172.67,-104.22 200,-97 262.41,-80.52 334.08,-68.16 389.62,-59.98"/>
<polygon fill="#63b8ff" stroke="#63b8ff" points="390.4,-63.4 399.79,-58.5 389.39,-56.47 390.4,-63.4"/>
</a>
</g>
</g>
<!-- Node10 -->
<g id="Node000010" class="node">
<title>Node10</title>
<g id="a_Node000010"><a xlink:href="classnetspeak_1_1StarQuery.html#a01c6f6f85f75d9c05c9398d32ad231e0" target="_top" xlink:title=" ">
<polygon fill="white" stroke="#666666" points="340,-30 224,-30 224,0 340,0 340,-30"/>
<text text-anchor="start" x="232" y="-18" font-family="Helvetica,sans-Serif" font-size="10.00">netspeak::StarQuery</text>
<text text-anchor="middle" x="282" y="-7" font-family="Helvetica,sans-Serif" font-size="10.00">::push_back</text>
</a>
</g>
</g>
<!-- Node1&#45;&gt;Node10 -->
<g id="edge13_Node000001_Node000010" class="edge">
<title>Node1&#45;&gt;Node10</title>
<g id="a_edge13_Node000001_Node000010"><a xlink:title=" ">
<path fill="none" stroke="#63b8ff" d="M98.02,-123.94C119.16,-103.44 159.65,-66.73 200,-44 206.53,-40.32 213.62,-36.97 220.78,-33.96"/>
<polygon fill="#63b8ff" stroke="#63b8ff" points="222.57,-37.02 230.57,-30.07 219.98,-30.51 222.57,-37.02"/>
</a>
</g>
</g>
<!-- Node3&#45;&gt;Node1 -->
<g id="edge4_Node000003_Node000001" class="edge">
<title>Node3&#45;&gt;Node1</title>
<g id="a_edge4_Node000003_Node000001"><a xlink:title=" ">
<path fill="none" stroke="#63b8ff" d="M199.7,-145.65C191.35,-145.75 182.82,-145.77 174.36,-145.73"/>
<polygon fill="#63b8ff" stroke="#63b8ff" points="174.13,-142.23 164.11,-145.65 174.08,-149.23 174.13,-142.23"/>
</a>
</g>
</g>
<!-- Node3&#45;&gt;Node2 -->
<g id="edge8_Node000003_Node000002" class="edge">
<title>Node3&#45;&gt;Node2</title>
<g id="a_edge8_Node000003_Node000002"><a xlink:title=" ">
<path fill="none" stroke="#63b8ff" d="M302.22,-154.28C324.58,-171.4 363.13,-198.98 400,-216 404.26,-217.97 408.72,-219.81 413.27,-221.54"/>
<polygon fill="#63b8ff" stroke="#63b8ff" points="412.09,-224.84 422.68,-224.91 414.45,-218.25 412.09,-224.84"/>
</a>
</g>
</g>
<!-- Node3&#45;&gt;Node3 -->
<g id="edge9_Node000003_Node000003" class="edge">
<title>Node3&#45;&gt;Node3</title>
<g id="a_edge9_Node000003_Node000003"><a xlink:title=" ">
<path fill="none" stroke="#63b8ff" d="M246.84,-154.28C239.03,-163.41 250.75,-172 282,-172 300.55,-172 312.22,-168.97 317.01,-164.6"/>
<polygon fill="#63b8ff" stroke="#63b8ff" points="320.51,-164.32 317.16,-154.28 313.51,-164.22 320.51,-164.32"/>
</a>
</g>
</g>
<!-- Node4 -->
<g id="Node000004" class="node">
<title>Node4</title>
<g id="a_Node000004"><a xlink:href="classnetspeak_1_1StarQuery.html#a8df828a9f4fc20f1530bf0fa7a2fc2fc" target="_top" xlink:title=" ">
<polygon fill="white" stroke="#666666" points="541.5,-159 425.5,-159 425.5,-129 541.5,-129 541.5,-159"/>
<text text-anchor="start" x="433.5" y="-147" font-family="Helvetica,sans-Serif" font-size="10.00">netspeak::StarQuery</text>
<text text-anchor="middle" x="483.5" y="-136" font-family="Helvetica,sans-Serif" font-size="10.00">::append</text>
</a>
</g>
</g>
<!-- Node3&#45;&gt;Node4 -->
<g id="edge5_Node000003_Node000004" class="edge">
<title>Node3&#45;&gt;Node4</title>
<g id="a_edge5_Node000003_Node000004"><a xlink:title=" ">
<path fill="none" stroke="#63b8ff" d="M364.14,-141.03C381.12,-141.46 398.84,-141.9 415.24,-142.31"/>
<polygon fill="#63b8ff" stroke="#63b8ff" points="415.18,-145.81 425.26,-142.57 415.36,-138.82 415.18,-145.81"/>
</a>
</g>
</g>
<!-- Node3&#45;&gt;Node7 -->
<g id="edge10_Node000003_Node000007" class="edge">
<title>Node3&#45;&gt;Node7</title>
<g id="a_edge10_Node000003_Node000007"><a xlink:title=" ">
<path fill="none" stroke="#63b8ff" d="M339.64,-154.05C363.43,-160.37 391.28,-167.77 416.04,-174.34"/>
<polygon fill="#63b8ff" stroke="#63b8ff" points="415.16,-177.73 425.72,-176.92 416.96,-170.97 415.16,-177.73"/>
</a>
</g>
</g>
<!-- Node3&#45;&gt;Node8 -->
<g id="edge11_Node000003_Node000008" class="edge">
<title>Node3&#45;&gt;Node8</title>
<g id="a_edge11_Node000003_Node000008"><a xlink:title=" ">
<path fill="none" stroke="#63b8ff" d="M352.78,-123.96C368.87,-120.49 386.12,-116.77 402.61,-113.22"/>
<polygon fill="#63b8ff" stroke="#63b8ff" points="403.73,-116.56 412.76,-111.03 402.25,-109.72 403.73,-116.56"/>
</a>
</g>
</g>
<!-- Node3&#45;&gt;Node9 -->
<g id="edge12_Node000003_Node000009" class="edge">
<title>Node3&#45;&gt;Node9</title>
<g id="a_edge12_Node000003_Node000009"><a xlink:title=" ">
<path fill="none" stroke="#63b8ff" d="M305.48,-123.98C328.44,-109.15 365.53,-86.64 400,-72 404.69,-70.01 409.59,-68.12 414.57,-66.35"/>
<polygon fill="#63b8ff" stroke="#63b8ff" points="415.85,-69.61 424.19,-63.08 413.6,-62.98 415.85,-69.61"/>
</a>
</g>
</g>
<!-- Node5 -->
<g id="Node000005" class="node">
<title>Node5</title>
<g id="a_Node000005"><a xlink:href="namespacenetspeak_1_1util.html#a3d1d03195f7667390b5f548a2b9f9869" target="_top" xlink:title="A simple function that appends all elements of other to base.">
<polygon fill="white" stroke="#666666" points="710,-159 603,-159 603,-129 710,-129 710,-159"/>
<text text-anchor="start" x="611" y="-147" font-family="Helvetica,sans-Serif" font-size="10.00">netspeak::util::vec</text>
<text text-anchor="middle" x="656.5" y="-136" font-family="Helvetica,sans-Serif" font-size="10.00">_append</text>
</a>
</g>
</g>
<!-- Node4&#45;&gt;Node5 -->
<g id="edge6_Node000004_Node000005" class="edge">
<title>Node4&#45;&gt;Node5</title>
<g id="a_edge6_Node000004_Node000005"><a xlink:title=" ">
<path fill="none" stroke="#63b8ff" d="M541.92,-144C558.23,-144 576.07,-144 592.69,-144"/>
<polygon fill="#63b8ff" stroke="#63b8ff" points="592.85,-147.5 602.85,-144 592.85,-140.5 592.85,-147.5"/>
</a>
</g>
</g>
<!-- Node6 -->
<g id="Node000006" class="node">
<title>Node6</title>
<g id="a_Node000006"><a xlink:href="namespacenetspeak_1_1util.html#a4c91ad572508b4021399ac7dddff574d" target="_top" xlink:title=" ">
<polygon fill="white" stroke="#666666" points="859,-153.5 746,-153.5 746,-134.5 859,-134.5 859,-153.5"/>
<text text-anchor="middle" x="802.5" y="-141.5" font-family="Helvetica,sans-Serif" font-size="10.00">netspeak::util::hash</text>
</a>
</g>
</g>
<!-- Node5&#45;&gt;Node6 -->
<g id="edge7_Node000005_Node000006" class="edge">
<title>Node5&#45;&gt;Node6</title>
<g id="a_edge7_Node000005_Node000006"><a xlink:title=" ">
<path fill="none" stroke="#63b8ff" d="M710.3,-144C718.52,-144 727.1,-144 735.56,-144"/>
<polygon fill="#63b8ff" stroke="#63b8ff" points="735.8,-147.5 745.8,-144 735.8,-140.5 735.8,-147.5"/>
</a>
</g>
</g>
</g>
</svg>
