<?xml version="1.0" encoding="UTF-8" standalone="no"?>
<!DOCTYPE svg PUBLIC "-//W3C//DTD SVG 1.1//EN"
 "http://www.w3.org/Graphics/SVG/1.1/DTD/svg11.dtd">
<!-- Generated by graphviz version 2.43.0 (0)
 -->
<!-- Title: netspeak::bighashmap::ExternalMap::Get Pages: 1 -->
<svg width="780pt" height="247pt"
 viewBox="0.00 0.00 780.00 246.50" xmlns="http://www.w3.org/2000/svg" xmlns:xlink="http://www.w3.org/1999/xlink">
<g id="graph0" class="graph" transform="scale(1 1) rotate(0) translate(4 242.5)">
<title>netspeak::bighashmap::ExternalMap::Get</title>
<!-- Node1 -->
<g id="Node000001" class="node">
<title>Node1</title>
<g id="a_Node000001"><a xlink:title=" ">
<polygon fill="#999999" stroke="#666666" points="128,-147 0,-147 0,-117 128,-117 128,-147"/>
<text text-anchor="start" x="8" y="-135" font-family="Helvetica,sans-Serif" font-size="10.00">netspeak::bighashmap</text>
<text text-anchor="middle" x="64" y="-124" font-family="Helvetica,sans-Serif" font-size="10.00">::ExternalMap::Get</text>
</a>
</g>
</g>
<!-- Node2 -->
<g id="Node000002" class="node">
<title>Node2</title>
<g id="a_Node000002"><a xlink:href="classnetspeak_1_1value_1_1pair.html#aa0eed395020ba5b37636746da8619982" target="_top" xlink:title=" ">
<polygon fill="white" stroke="#666666" points="302.5,-238.5 165.5,-238.5 165.5,-219.5 302.5,-219.5 302.5,-238.5"/>
<text text-anchor="middle" x="234" y="-226.5" font-family="Helvetica,sans-Serif" font-size="10.00">netspeak::value::pair::e1</text>
</a>
</g>
</g>
<!-- Node1&#45;&gt;Node2 -->
<g id="edge1_Node000001_Node000002" class="edge">
<title>Node1&#45;&gt;Node2</title>
<g id="a_edge1_Node000001_Node000002"><a xlink:title=" ">
<path fill="none" stroke="#63b8ff" d="M79.7,-147.09C97.89,-164.91 130.58,-194.26 164,-211 167.8,-212.9 171.82,-214.62 175.93,-216.16"/>
<polygon fill="#63b8ff" stroke="#63b8ff" points="175.04,-219.56 185.64,-219.47 177.3,-212.93 175.04,-219.56"/>
</a>
</g>
</g>
<!-- Node3 -->
<g id="Node000003" class="node">
<title>Node3</title>
<g id="a_Node000003"><a xlink:href="classnetspeak_1_1value_1_1pair.html#a52d349f5f25b356c4436a983182e4b6c" target="_top" xlink:title=" ">
<polygon fill="white" stroke="#666666" points="302.5,-201.5 165.5,-201.5 165.5,-182.5 302.5,-182.5 302.5,-201.5"/>
<text text-anchor="middle" x="234" y="-189.5" font-family="Helvetica,sans-Serif" font-size="10.00">netspeak::value::pair::e2</text>
</a>
</g>
</g>
<!-- Node1&#45;&gt;Node3 -->
<g id="edge2_Node000001_Node000003" class="edge">
<title>Node1&#45;&gt;Node3</title>
<g id="a_edge2_Node000001_Node000003"><a xlink:title=" ">
<path fill="none" stroke="#63b8ff" d="M105.9,-147.02C123.72,-153.52 144.87,-161.2 164,-168 174.23,-171.64 185.34,-175.53 195.59,-179.1"/>
<polygon fill="#63b8ff" stroke="#63b8ff" points="194.51,-182.42 205.1,-182.4 196.8,-175.81 194.51,-182.42"/>
</a>
</g>
</g>
<!-- Node4 -->
<g id="Node000004" class="node">
<title>Node4</title>
<g id="a_Node000004"><a xlink:href="namespacenetspeak_1_1util.html#a4c91ad572508b4021399ac7dddff574d" target="_top" xlink:title=" ">
<polygon fill="white" stroke="#666666" points="772,-120.5 659,-120.5 659,-101.5 772,-101.5 772,-120.5"/>
<text text-anchor="middle" x="715.5" y="-108.5" font-family="Helvetica,sans-Serif" font-size="10.00">netspeak::util::hash</text>
</a>
</g>
</g>
<!-- Node1&#45;&gt;Node4 -->
<g id="edge3_Node000001_Node000004" class="edge">
<title>Node1&#45;&gt;Node4</title>
<g id="a_edge3_Node000001_Node000004"><a xlink:title=" ">
<path fill="none" stroke="#63b8ff" d="M128.1,-134.2C140.03,-134.53 152.39,-134.82 164,-135 299.1,-137.05 333.05,-141.55 468,-135 529.47,-132.01 599.27,-124.86 648.86,-119.14"/>
<polygon fill="#63b8ff" stroke="#63b8ff" points="649.28,-122.61 658.81,-117.98 648.47,-115.66 649.28,-122.61"/>
</a>
</g>
</g>
<!-- Node5 -->
<g id="Node000005" class="node">
<title>Node5</title>
<g id="a_Node000005"><a xlink:href="classnetspeak_1_1bighashmap_1_1CmphMap.html#a605981be34ef78b33eb5cfc2ab764dda" target="_top" xlink:title=" ">
<polygon fill="white" stroke="#666666" points="298,-126 170,-126 170,-96 298,-96 298,-126"/>
<text text-anchor="start" x="178" y="-114" font-family="Helvetica,sans-Serif" font-size="10.00">netspeak::bighashmap</text>
<text text-anchor="middle" x="234" y="-103" font-family="Helvetica,sans-Serif" font-size="10.00">::CmphMap::Hash</text>
</a>
</g>
</g>
<!-- Node1&#45;&gt;Node5 -->
<g id="edge4_Node000001_Node000005" class="edge">
<title>Node1&#45;&gt;Node5</title>
<g id="a_edge4_Node000001_Node000005"><a xlink:title=" ">
<path fill="none" stroke="#63b8ff" d="M128.03,-124.12C138.41,-122.82 149.23,-121.47 159.83,-120.15"/>
<polygon fill="#63b8ff" stroke="#63b8ff" points="160.4,-123.6 169.89,-118.89 159.53,-116.66 160.4,-123.6"/>
</a>
</g>
</g>
<!-- Node7 -->
<g id="Node000007" class="node">
<title>Node7</title>
<g id="a_Node000007"><a xlink:href="classnetspeak_1_1bighashmap_1_1ExternalMap.html#aa966cbbacb4b90940de4c0e7442bdf31" target="_top" xlink:title=" ">
<polygon fill="white" stroke="#666666" points="304,-78 164,-78 164,-48 304,-48 304,-78"/>
<text text-anchor="start" x="172" y="-66" font-family="Helvetica,sans-Serif" font-size="10.00">netspeak::bighashmap</text>
<text text-anchor="middle" x="234" y="-55" font-family="Helvetica,sans-Serif" font-size="10.00">::ExternalMap::ReadEntry</text>
</a>
</g>
</g>
<!-- Node1&#45;&gt;Node7 -->
<g id="edge6_Node000001_Node000007" class="edge">
<title>Node1&#45;&gt;Node7</title>
<g id="a_edge6_Node000001_Node000007"><a xlink:title=" ">
<path fill="none" stroke="#63b8ff" d="M96.34,-116.86C115.65,-107.76 141.04,-96.19 164,-87 168.66,-85.13 173.54,-83.27 178.44,-81.45"/>
<polygon fill="#63b8ff" stroke="#63b8ff" points="179.66,-84.73 187.87,-78.03 177.27,-78.15 179.66,-84.73"/>
</a>
</g>
</g>
<!-- Node11 -->
<g id="Node000011" class="node">
<title>Node11</title>
<g id="a_Node000011"><a xlink:href="structnetspeak_1_1value_1_1value__traits.html#a1de8038347bdd72008ef72ad481f4a77" target="_top" xlink:title=" ">
<polygon fill="white" stroke="#666666" points="298,-30 170,-30 170,0 298,0 298,-30"/>
<text text-anchor="start" x="178" y="-18" font-family="Helvetica,sans-Serif" font-size="10.00">netspeak::value::value</text>
<text text-anchor="middle" x="234" y="-7" font-family="Helvetica,sans-Serif" font-size="10.00">_traits::size_of</text>
</a>
</g>
</g>
<!-- Node1&#45;&gt;Node11 -->
<g id="edge12_Node000001_Node000011" class="edge">
<title>Node1&#45;&gt;Node11</title>
<g id="a_edge12_Node000001_Node000011"><a xlink:title=" ">
<path fill="none" stroke="#63b8ff" d="M77.56,-116.73C95.02,-96.39 128.5,-60.5 164,-39 166.77,-37.32 169.67,-35.75 172.65,-34.26"/>
<polygon fill="#63b8ff" stroke="#63b8ff" points="174.14,-37.43 181.77,-30.08 171.22,-31.06 174.14,-37.43"/>
</a>
</g>
</g>
<!-- Node6 -->
<g id="Node000006" class="node">
<title>Node6</title>
<g id="a_Node000006"><a xlink:href="classnetspeak_1_1bighashmap_1_1CmphMap.html#a13904384916e226389060db10d76d056" target="_top" xlink:title=" ">
<polygon fill="white" stroke="#666666" points="468,-126 340,-126 340,-96 468,-96 468,-126"/>
<text text-anchor="start" x="348" y="-114" font-family="Helvetica,sans-Serif" font-size="10.00">netspeak::bighashmap</text>
<text text-anchor="middle" x="404" y="-103" font-family="Helvetica,sans-Serif" font-size="10.00">::CmphMap::size</text>
</a>
</g>
</g>
<!-- Node5&#45;&gt;Node6 -->
<g id="edge5_Node000005_Node000006" class="edge">
<title>Node5&#45;&gt;Node6</title>
<g id="a_edge5_Node000005_Node000006"><a xlink:title=" ">
<path fill="none" stroke="#63b8ff" d="M298.03,-111C308.41,-111 319.23,-111 329.83,-111"/>
<polygon fill="#63b8ff" stroke="#63b8ff" points="329.89,-114.5 339.89,-111 329.89,-107.5 329.89,-114.5"/>
</a>
</g>
</g>
<!-- Node8 -->
<g id="Node000008" class="node">
<title>Node8</title>
<g id="a_Node000008"><a xlink:href="namespacenetspeak_1_1util.html#a3015ae7c69935f843a1915958d0de042" target="_top" xlink:title=" ">
<polygon fill="white" stroke="#666666" points="462,-77.5 346,-77.5 346,-58.5 462,-58.5 462,-77.5"/>
<text text-anchor="middle" x="404" y="-65.5" font-family="Helvetica,sans-Serif" font-size="10.00">netspeak::util::fseek</text>
</a>
</g>
</g>
<!-- Node7&#45;&gt;Node8 -->
<g id="edge7_Node000007_Node000008" class="edge">
<title>Node7&#45;&gt;Node8</title>
<g id="a_edge7_Node000007_Node000008"><a xlink:title=" ">
<path fill="none" stroke="#63b8ff" d="M304.3,-65.06C314.67,-65.37 325.35,-65.69 335.68,-66"/>
<polygon fill="#63b8ff" stroke="#63b8ff" points="335.77,-69.5 345.87,-66.3 335.98,-62.5 335.77,-69.5"/>
</a>
</g>
</g>
<!-- Node10 -->
<g id="Node000010" class="node">
<title>Node10</title>
<g id="a_Node000010"><a xlink:href="structnetspeak_1_1value_1_1value__traits.html#ae0ea99c085b1395ddf5651ff4604c96a" target="_top" xlink:title=" ">
<polygon fill="white" stroke="#666666" points="468,-40 340,-40 340,-10 468,-10 468,-40"/>
<text text-anchor="start" x="348" y="-28" font-family="Helvetica,sans-Serif" font-size="10.00">netspeak::value::value</text>
<text text-anchor="middle" x="404" y="-17" font-family="Helvetica,sans-Serif" font-size="10.00">_traits::read_from</text>
</a>
</g>
</g>
<!-- Node7&#45;&gt;Node10 -->
<g id="edge11_Node000007_Node000010" class="edge">
<title>Node7&#45;&gt;Node10</title>
<g id="a_edge11_Node000007_Node000010"><a xlink:title=" ">
<path fill="none" stroke="#63b8ff" d="M301.4,-47.98C310.79,-45.86 320.49,-43.66 330,-41.51"/>
<polygon fill="#63b8ff" stroke="#63b8ff" points="330.84,-44.91 339.82,-39.29 329.3,-38.08 330.84,-44.91"/>
</a>
</g>
</g>
<!-- Node8&#45;&gt;Node4 -->
<g id="edge8_Node000008_Node000004" class="edge">
<title>Node8&#45;&gt;Node4</title>
<g id="a_edge8_Node000008_Node000004"><a xlink:title=" ">
<path fill="none" stroke="#63b8ff" d="M439.11,-77.59C458.08,-82.59 482.19,-88.39 504,-92 552.16,-99.97 607.11,-104.78 648.79,-107.57"/>
<polygon fill="#63b8ff" stroke="#63b8ff" points="648.61,-111.07 658.82,-108.22 649.06,-104.08 648.61,-111.07"/>
</a>
</g>
</g>
<!-- Node9 -->
<g id="Node000009" class="node">
<title>Node9</title>
<g id="a_Node000009"><a xlink:href="namespacenetspeak_1_1util.html#af94d48fda5f335ddcb461a8237079866" target="_top" xlink:title=" ">
<polygon fill="white" stroke="#666666" points="623,-83 504,-83 504,-53 623,-53 623,-83"/>
<text text-anchor="start" x="512" y="-71" font-family="Helvetica,sans-Serif" font-size="10.00">netspeak::util::signal</text>
<text text-anchor="middle" x="563.5" y="-60" font-family="Helvetica,sans-Serif" font-size="10.00">_error</text>
</a>
</g>
</g>
<!-- Node8&#45;&gt;Node9 -->
<g id="edge9_Node000008_Node000009" class="edge">
<title>Node8&#45;&gt;Node9</title>
<g id="a_edge9_Node000008_Node000009"><a xlink:title=" ">
<path fill="none" stroke="#63b8ff" d="M462.31,-68C472.57,-68 483.36,-68 493.91,-68"/>
<polygon fill="#63b8ff" stroke="#63b8ff" points="493.91,-71.5 503.91,-68 493.91,-64.5 493.91,-71.5"/>
</a>
</g>
</g>
<!-- Node9&#45;&gt;Node4 -->
<g id="edge10_Node000009_Node000004" class="edge">
<title>Node9&#45;&gt;Node4</title>
<g id="a_edge10_Node000009_Node000004"><a xlink:title=" ">
<path fill="none" stroke="#63b8ff" d="M616.96,-83.04C634.76,-88.14 654.42,-93.78 671.4,-98.65"/>
<polygon fill="#63b8ff" stroke="#63b8ff" points="670.48,-102.02 681.06,-101.41 672.41,-95.29 670.48,-102.02"/>
</a>
</g>
</g>
</g>
</svg>
