<?xml version="1.0" encoding="UTF-8" standalone="no"?>
<!DOCTYPE svg PUBLIC "-//W3C//DTD SVG 1.1//EN"
 "http://www.w3.org/Graphics/SVG/1.1/DTD/svg11.dtd">
<!-- Generated by graphviz version 2.43.0 (0)
 -->
<!-- Title: netspeak::model::Words::push_back Pages: 1 -->
<svg width="705pt" height="146pt"
 viewBox="0.00 0.00 705.00 146.00" xmlns="http://www.w3.org/2000/svg" xmlns:xlink="http://www.w3.org/1999/xlink">
<g id="graph0" class="graph" transform="scale(1 1) rotate(0) translate(4 142)">
<title>netspeak::model::Words::push_back</title>
<!-- Node1 -->
<g id="Node000001" class="node">
<title>Node1</title>
<g id="a_Node000001"><a xlink:title=" ">
<polygon fill="#999999" stroke="#666666" points="697,-84 563,-84 563,-54 697,-54 697,-84"/>
<text text-anchor="start" x="571" y="-72" font-family="Helvetica,sans-Serif" font-size="10.00">netspeak::model::Words</text>
<text text-anchor="middle" x="630" y="-61" font-family="Helvetica,sans-Serif" font-size="10.00">::push_back</text>
</a>
</g>
</g>
<!-- Node2 -->
<g id="Node000002" class="node">
<title>Node2</title>
<g id="a_Node000002"><a xlink:href="classnetspeak_1_1PhraseCorpus.html#a94ce18bb4bf8e39af470b06c66d33797" target="_top" xlink:title=" ">
<polygon fill="white" stroke="#666666" points="520,-138 386,-138 386,-108 520,-108 520,-138"/>
<text text-anchor="start" x="394" y="-126" font-family="Helvetica,sans-Serif" font-size="10.00">netspeak::PhraseCorpus</text>
<text text-anchor="middle" x="453" y="-115" font-family="Helvetica,sans-Serif" font-size="10.00">::decode_</text>
</a>
</g>
</g>
<!-- Node1&#45;&gt;Node2 -->
<g id="edge1_Node000001_Node000002" class="edge">
<title>Node1&#45;&gt;Node2</title>
<g id="a_edge1_Node000001_Node000002"><a xlink:title=" ">
<path fill="none" stroke="#63b8ff" d="M570.68,-87C548.66,-93.79 523.85,-101.45 502.79,-107.95"/>
<polygon fill="#63b8ff" stroke="#63b8ff" points="571.73,-90.34 580.25,-84.04 569.67,-83.65 571.73,-90.34"/>
</a>
</g>
</g>
<!-- Node5 -->
<g id="Node000005" class="node">
<title>Node5</title>
<g id="a_Node000005"><a xlink:href="classnetspeak_1_1Netspeak.html#aaaac0f03b7e31a499189cdcba71801f7" target="_top" xlink:title=" ">
<polygon fill="white" stroke="#666666" points="518,-89.5 388,-89.5 388,-48.5 518,-48.5 518,-89.5"/>
<text text-anchor="start" x="396" y="-77.5" font-family="Helvetica,sans-Serif" font-size="10.00">netspeak::Netspeak</text>
<text text-anchor="start" x="396" y="-66.5" font-family="Helvetica,sans-Serif" font-size="10.00">::process_non_wildcard</text>
<text text-anchor="middle" x="453" y="-55.5" font-family="Helvetica,sans-Serif" font-size="10.00">_query_</text>
</a>
</g>
</g>
<!-- Node1&#45;&gt;Node5 -->
<g id="edge4_Node000001_Node000005" class="edge">
<title>Node1&#45;&gt;Node5</title>
<g id="a_edge4_Node000001_Node000005"><a xlink:title=" ">
<path fill="none" stroke="#63b8ff" d="M552.8,-69C541.27,-69 529.47,-69 518.23,-69"/>
<polygon fill="#63b8ff" stroke="#63b8ff" points="552.84,-72.5 562.84,-69 552.84,-65.5 552.84,-72.5"/>
</a>
</g>
</g>
<!-- Node7 -->
<g id="Node000007" class="node">
<title>Node7</title>
<g id="a_Node000007"><a xlink:href="classnetspeak_1_1PhraseFileParser.html#a2b1e4624be15f416aa1248496795497f" target="_top" xlink:title=" ">
<polygon fill="white" stroke="#666666" points="527,-30 379,-30 379,0 527,0 527,-30"/>
<text text-anchor="start" x="387" y="-18" font-family="Helvetica,sans-Serif" font-size="10.00">netspeak::PhraseFileParser</text>
<text text-anchor="middle" x="453" y="-7" font-family="Helvetica,sans-Serif" font-size="10.00">::read</text>
</a>
</g>
</g>
<!-- Node1&#45;&gt;Node7 -->
<g id="edge6_Node000001_Node000007" class="edge">
<title>Node1&#45;&gt;Node7</title>
<g id="a_edge6_Node000001_Node000007"><a xlink:title=" ">
<path fill="none" stroke="#63b8ff" d="M570.68,-51C548.66,-44.21 523.85,-36.55 502.79,-30.05"/>
<polygon fill="#63b8ff" stroke="#63b8ff" points="569.67,-54.35 580.25,-53.96 571.73,-47.66 569.67,-54.35"/>
</a>
</g>
</g>
<!-- Node3 -->
<g id="Node000003" class="node">
<title>Node3</title>
<g id="a_Node000003"><a xlink:href="classnetspeak_1_1PhraseCorpus.html#abc33683ef5bb92aa0dfa538fbbb7a05e" target="_top" xlink:title=" ">
<polygon fill="white" stroke="#666666" points="336,-138 202,-138 202,-108 336,-108 336,-138"/>
<text text-anchor="start" x="210" y="-126" font-family="Helvetica,sans-Serif" font-size="10.00">netspeak::PhraseCorpus</text>
<text text-anchor="middle" x="269" y="-115" font-family="Helvetica,sans-Serif" font-size="10.00">::read_phrases</text>
</a>
</g>
</g>
<!-- Node2&#45;&gt;Node3 -->
<g id="edge2_Node000002_Node000003" class="edge">
<title>Node2&#45;&gt;Node3</title>
<g id="a_edge2_Node000002_Node000003"><a xlink:title=" ">
<path fill="none" stroke="#63b8ff" d="M375.42,-123C362.38,-123 348.92,-123 336.17,-123"/>
<polygon fill="#63b8ff" stroke="#63b8ff" points="375.78,-126.5 385.78,-123 375.78,-119.5 375.78,-126.5"/>
</a>
</g>
</g>
<!-- Node4 -->
<g id="Node000004" class="node">
<title>Node4</title>
<g id="a_Node000004"><a xlink:href="classnetspeak_1_1Netspeak.html#a2e5d64f9a6eca708b7581134e1405b44" target="_top" xlink:title=" ">
<polygon fill="white" stroke="#666666" points="137.5,-138 21.5,-138 21.5,-108 137.5,-108 137.5,-138"/>
<text text-anchor="start" x="29.5" y="-126" font-family="Helvetica,sans-Serif" font-size="10.00">netspeak::Netspeak</text>
<text text-anchor="middle" x="79.5" y="-115" font-family="Helvetica,sans-Serif" font-size="10.00">::merge_raw_result_</text>
</a>
</g>
</g>
<!-- Node3&#45;&gt;Node4 -->
<g id="edge3_Node000003_Node000004" class="edge">
<title>Node3&#45;&gt;Node4</title>
<g id="a_edge3_Node000003_Node000004"><a xlink:title=" ">
<path fill="none" stroke="#63b8ff" d="M191.68,-123C173.61,-123 154.65,-123 137.61,-123"/>
<polygon fill="#63b8ff" stroke="#63b8ff" points="191.89,-126.5 201.89,-123 191.89,-119.5 191.89,-126.5"/>
</a>
</g>
</g>
<!-- Node6 -->
<g id="Node000006" class="node">
<title>Node6</title>
<g id="a_Node000006"><a xlink:href="classnetspeak_1_1Netspeak.html#aaa049275c7a0a7f6721acf7422402bff" target="_top" xlink:title=" ">
<polygon fill="white" stroke="#666666" points="326,-84 212,-84 212,-54 326,-54 326,-84"/>
<text text-anchor="start" x="220" y="-72" font-family="Helvetica,sans-Serif" font-size="10.00">netspeak::Netspeak</text>
<text text-anchor="middle" x="269" y="-61" font-family="Helvetica,sans-Serif" font-size="10.00">::search_raw_</text>
</a>
</g>
</g>
<!-- Node5&#45;&gt;Node6 -->
<g id="edge5_Node000005_Node000006" class="edge">
<title>Node5&#45;&gt;Node6</title>
<g id="a_edge5_Node000005_Node000006"><a xlink:title=" ">
<path fill="none" stroke="#63b8ff" d="M377.77,-69C360.49,-69 342.37,-69 326.03,-69"/>
<polygon fill="#63b8ff" stroke="#63b8ff" points="377.83,-72.5 387.83,-69 377.83,-65.5 377.83,-72.5"/>
</a>
</g>
</g>
<!-- Node8 -->
<g id="Node000008" class="node">
<title>Node8</title>
<g id="a_Node000008"><a xlink:href="classnetspeak_1_1PhraseFileParser.html#aa90dd22dcf63b47242edb7345cee89b5" target="_top" xlink:title=" ">
<polygon fill="white" stroke="#666666" points="343,-30 195,-30 195,0 343,0 343,-30"/>
<text text-anchor="start" x="203" y="-18" font-family="Helvetica,sans-Serif" font-size="10.00">netspeak::PhraseFileParser</text>
<text text-anchor="middle" x="269" y="-7" font-family="Helvetica,sans-Serif" font-size="10.00">::read_next</text>
</a>
</g>
</g>
<!-- Node7&#45;&gt;Node8 -->
<g id="edge7_Node000007_Node000008" class="edge">
<title>Node7&#45;&gt;Node8</title>
<g id="a_edge7_Node000007_Node000008"><a xlink:title=" ">
<path fill="none" stroke="#63b8ff" d="M368.48,-15C360.01,-15 351.44,-15 343.09,-15"/>
<polygon fill="#63b8ff" stroke="#63b8ff" points="368.76,-18.5 378.76,-15 368.76,-11.5 368.76,-18.5"/>
</a>
</g>
</g>
<!-- Node9 -->
<g id="Node000009" class="node">
<title>Node9</title>
<g id="a_Node000009"><a xlink:href="namespacenetspeak.html#ada202c21bedf32e697fdfb62ad980688" target="_top" xlink:title=" ">
<polygon fill="white" stroke="#666666" points="159,-24.5 0,-24.5 0,-5.5 159,-5.5 159,-24.5"/>
<text text-anchor="middle" x="79.5" y="-12.5" font-family="Helvetica,sans-Serif" font-size="10.00">netspeak::BuildPhraseCorpus</text>
</a>
</g>
</g>
<!-- Node8&#45;&gt;Node9 -->
<g id="edge8_Node000008_Node000009" class="edge">
<title>Node8&#45;&gt;Node9</title>
<g id="a_edge8_Node000008_Node000009"><a xlink:title=" ">
<path fill="none" stroke="#63b8ff" d="M184.71,-15C176.24,-15 167.65,-15 159.22,-15"/>
<polygon fill="#63b8ff" stroke="#63b8ff" points="184.97,-18.5 194.97,-15 184.97,-11.5 184.97,-18.5"/>
</a>
</g>
</g>
</g>
</svg>
