<?xml version="1.0" encoding="UTF-8" standalone="no"?>
<!DOCTYPE svg PUBLIC "-//W3C//DTD SVG 1.1//EN"
 "http://www.w3.org/Graphics/SVG/1.1/DTD/svg11.dtd">
<!-- Generated by graphviz version 2.43.0 (0)
 -->
<!-- Title: netspeak::SimpleQueryOptimizer::optimize_simple_children Pages: 1 -->
<svg width="1250pt" height="363pt"
 viewBox="0.00 0.00 1250.00 362.65" xmlns="http://www.w3.org/2000/svg" xmlns:xlink="http://www.w3.org/1999/xlink">
<g id="graph0" class="graph" transform="scale(1 1) rotate(0) translate(4 358.65)">
<title>netspeak::SimpleQueryOptimizer::optimize_simple_children</title>
<!-- Node1 -->
<g id="Node000001" class="node">
<title>Node1</title>
<g id="a_Node000001"><a xlink:title=" ">
<polygon fill="#999999" stroke="#666666" points="179,-130.3 0,-130.3 0,-100.3 179,-100.3 179,-130.3"/>
<text text-anchor="start" x="8" y="-118.3" font-family="Helvetica,sans-Serif" font-size="10.00">netspeak::SimpleQueryOptimizer</text>
<text text-anchor="middle" x="89.5" y="-107.3" font-family="Helvetica,sans-Serif" font-size="10.00">::optimize_simple_children</text>
</a>
</g>
</g>
<!-- Node2 -->
<g id="Node000002" class="node">
<title>Node2</title>
<g id="a_Node000002"><a xlink:href="classnetspeak_1_1model_1_1SimpleQueryUnit____.html#a8840caeb703398accd6bf417b0b1ae8e" target="_top" xlink:title=" ">
<polygon fill="white" stroke="#666666" points="1242,-231.3 1075,-231.3 1075,-201.3 1242,-201.3 1242,-231.3"/>
<text text-anchor="start" x="1083" y="-219.3" font-family="Helvetica,sans-Serif" font-size="10.00">netspeak::model::SimpleQuery</text>
<text text-anchor="middle" x="1158.5" y="-208.3" font-family="Helvetica,sans-Serif" font-size="10.00">Unit__::children</text>
</a>
</g>
</g>
<!-- Node1&#45;&gt;Node2 -->
<g id="edge1_Node000001_Node000002" class="edge">
<title>Node1&#45;&gt;Node2</title>
<g id="a_edge1_Node000001_Node000002"><a xlink:title=" ">
<path fill="none" stroke="#63b8ff" d="M126.7,-100.29C199.54,-71.48 369.58,-11.3 518.5,-11.3 518.5,-11.3 518.5,-11.3 735.5,-11.3 871.05,-11.3 922.54,28.05 1039,-41.3 1097.58,-76.18 1133.56,-152.63 1148.87,-191.92"/>
<polygon fill="#63b8ff" stroke="#63b8ff" points="1145.6,-193.16 1152.41,-201.28 1152.15,-190.69 1145.6,-193.16"/>
</a>
</g>
</g>
<!-- Node3 -->
<g id="Node000003" class="node">
<title>Node3</title>
<g id="a_Node000003"><a xlink:href="classnetspeak_1_1SimpleQueryOptimizer.html#a6df1cdcea41d9914bb1063642d615bdf" target="_top" xlink:title=" ">
<polygon fill="white" stroke="#666666" points="394,-153.3 215,-153.3 215,-123.3 394,-123.3 394,-153.3"/>
<text text-anchor="start" x="223" y="-141.3" font-family="Helvetica,sans-Serif" font-size="10.00">netspeak::SimpleQueryOptimizer</text>
<text text-anchor="middle" x="304.5" y="-130.3" font-family="Helvetica,sans-Serif" font-size="10.00">::optimize_simple_unit</text>
</a>
</g>
</g>
<!-- Node1&#45;&gt;Node3 -->
<g id="edge2_Node000001_Node000003" class="edge">
<title>Node1&#45;&gt;Node3</title>
<g id="a_edge2_Node000001_Node000003"><a xlink:title=" ">
<path fill="none" stroke="#63b8ff" d="M179.29,-124.88C187.74,-125.8 196.34,-126.73 204.88,-127.65"/>
<polygon fill="#63b8ff" stroke="#63b8ff" points="204.54,-131.13 214.86,-128.72 205.29,-124.17 204.54,-131.13"/>
</a>
</g>
</g>
<!-- Node4 -->
<g id="Node000004" class="node">
<title>Node4</title>
<g id="a_Node000004"><a xlink:href="classnetspeak_1_1SimpleQueryOptimizer.html#a55c4015de0d1fa34754beb52f95119f6" target="_top" xlink:title=" ">
<polygon fill="white" stroke="#666666" points="609,-107.3 430,-107.3 430,-77.3 609,-77.3 609,-107.3"/>
<text text-anchor="start" x="438" y="-95.3" font-family="Helvetica,sans-Serif" font-size="10.00">netspeak::SimpleQueryOptimizer</text>
<text text-anchor="middle" x="519.5" y="-84.3" font-family="Helvetica,sans-Serif" font-size="10.00">::optimize_simple_alt</text>
</a>
</g>
</g>
<!-- Node3&#45;&gt;Node4 -->
<g id="edge3_Node000003_Node000004" class="edge">
<title>Node3&#45;&gt;Node4</title>
<g id="a_edge3_Node000003_Node000004"><a xlink:title=" ">
<path fill="none" stroke="#63b8ff" d="M375.24,-123.23C395.67,-118.82 418.15,-113.97 439.12,-109.44"/>
<polygon fill="#63b8ff" stroke="#63b8ff" points="439.93,-112.85 448.96,-107.31 438.45,-106 439.93,-112.85"/>
</a>
</g>
</g>
<!-- Node10 -->
<g id="Node000010" class="node">
<title>Node10</title>
<g id="a_Node000010"><a xlink:href="classnetspeak_1_1SimpleQueryOptimizer.html#a1ef947a07a36069a5be13d260b518350" target="_top" xlink:title=" ">
<polygon fill="white" stroke="#666666" points="609,-203.3 430,-203.3 430,-173.3 609,-173.3 609,-203.3"/>
<text text-anchor="start" x="438" y="-191.3" font-family="Helvetica,sans-Serif" font-size="10.00">netspeak::SimpleQueryOptimizer</text>
<text text-anchor="middle" x="519.5" y="-180.3" font-family="Helvetica,sans-Serif" font-size="10.00">::optimize_simple_concat</text>
</a>
</g>
</g>
<!-- Node3&#45;&gt;Node10 -->
<g id="edge12_Node000003_Node000010" class="edge">
<title>Node3&#45;&gt;Node10</title>
<g id="a_edge12_Node000003_Node000010"><a xlink:title=" ">
<path fill="none" stroke="#63b8ff" d="M369.41,-153.3C392.99,-158.84 419.92,-165.16 444.34,-170.89"/>
<polygon fill="#63b8ff" stroke="#63b8ff" points="443.74,-174.34 454.27,-173.22 445.33,-167.53 443.74,-174.34"/>
</a>
</g>
</g>
<!-- Node14 -->
<g id="Node000014" class="node">
<title>Node14</title>
<g id="a_Node000014"><a xlink:href="classnetspeak_1_1model_1_1SimpleQueryUnit____.html#a06c21084859addaa75c754815d691d39" target="_top" xlink:title=" ">
<polygon fill="white" stroke="#666666" points="603,-155.3 436,-155.3 436,-125.3 603,-125.3 603,-155.3"/>
<text text-anchor="start" x="444" y="-143.3" font-family="Helvetica,sans-Serif" font-size="10.00">netspeak::model::SimpleQuery</text>
<text text-anchor="middle" x="519.5" y="-132.3" font-family="Helvetica,sans-Serif" font-size="10.00">Unit__::tag</text>
</a>
</g>
</g>
<!-- Node3&#45;&gt;Node14 -->
<g id="edge22_Node000003_Node000014" class="edge">
<title>Node3&#45;&gt;Node14</title>
<g id="a_edge22_Node000003_Node000014"><a xlink:title=" ">
<path fill="none" stroke="#63b8ff" d="M394.29,-139.13C404.76,-139.23 415.46,-139.33 425.97,-139.43"/>
<polygon fill="#63b8ff" stroke="#63b8ff" points="425.95,-142.93 435.99,-139.52 426.02,-135.93 425.95,-142.93"/>
</a>
</g>
</g>
<!-- Node4&#45;&gt;Node1 -->
<g id="edge10_Node000004_Node000001" class="edge">
<title>Node4&#45;&gt;Node1</title>
<g id="a_edge10_Node000004_Node000001"><a xlink:title=" ">
<path fill="none" stroke="#63b8ff" d="M429.93,-97.06C359.81,-100.82 261.91,-106.09 189.26,-109.99"/>
<polygon fill="#63b8ff" stroke="#63b8ff" points="188.98,-106.5 179.18,-110.53 189.36,-113.49 188.98,-106.5"/>
</a>
</g>
</g>
<!-- Node4&#45;&gt;Node2 -->
<g id="edge4_Node000004_Node000002" class="edge">
<title>Node4&#45;&gt;Node2</title>
<g id="a_edge4_Node000004_Node000002"><a xlink:title=" ">
<path fill="none" stroke="#63b8ff" d="M572.07,-77.29C669.27,-52.01 883.77,-10.78 1039,-87.3 1086.46,-110.69 1124.15,-161.88 1143.42,-192.27"/>
<polygon fill="#63b8ff" stroke="#63b8ff" points="1140.57,-194.31 1148.8,-200.98 1146.53,-190.63 1140.57,-194.31"/>
</a>
</g>
</g>
<!-- Node5 -->
<g id="Node000005" class="node">
<title>Node5</title>
<g id="a_Node000005"><a xlink:href="classnetspeak_1_1SimpleQueryOptimizer.html#a90004a090dc4838d5a696e0f3c9cb2be" target="_top" xlink:title=" ">
<polygon fill="white" stroke="#666666" points="824,-155.3 645,-155.3 645,-125.3 824,-125.3 824,-155.3"/>
<text text-anchor="start" x="653" y="-143.3" font-family="Helvetica,sans-Serif" font-size="10.00">netspeak::SimpleQueryOptimizer</text>
<text text-anchor="middle" x="734.5" y="-132.3" font-family="Helvetica,sans-Serif" font-size="10.00">::inline_nested</text>
</a>
</g>
</g>
<!-- Node4&#45;&gt;Node5 -->
<g id="edge5_Node000004_Node000005" class="edge">
<title>Node4&#45;&gt;Node5</title>
<g id="a_edge5_Node000004_Node000005"><a xlink:title=" ">
<path fill="none" stroke="#63b8ff" d="M587.31,-107.35C609.42,-112.33 634.18,-117.92 656.96,-123.05"/>
<polygon fill="#63b8ff" stroke="#63b8ff" points="656.4,-126.51 666.93,-125.29 657.94,-119.68 656.4,-126.51"/>
</a>
</g>
</g>
<!-- Node9 -->
<g id="Node000009" class="node">
<title>Node9</title>
<g id="a_Node000009"><a xlink:href="classnetspeak_1_1model_1_1SimpleQueryUnit____.html#a3e3899b5df64bb59fc7f0b2e205382f6" target="_top" xlink:title=" ">
<polygon fill="white" stroke="#666666" points="818,-107.3 651,-107.3 651,-77.3 818,-77.3 818,-107.3"/>
<text text-anchor="start" x="659" y="-95.3" font-family="Helvetica,sans-Serif" font-size="10.00">netspeak::model::SimpleQuery</text>
<text text-anchor="middle" x="734.5" y="-84.3" font-family="Helvetica,sans-Serif" font-size="10.00">Unit__::pop_back</text>
</a>
</g>
</g>
<!-- Node4&#45;&gt;Node9 -->
<g id="edge11_Node000004_Node000009" class="edge">
<title>Node4&#45;&gt;Node9</title>
<g id="a_edge11_Node000004_Node000009"><a xlink:title=" ">
<path fill="none" stroke="#63b8ff" d="M609.29,-92.3C619.76,-92.3 630.46,-92.3 640.97,-92.3"/>
<polygon fill="#63b8ff" stroke="#63b8ff" points="640.99,-95.8 650.99,-92.3 640.99,-88.8 640.99,-95.8"/>
</a>
</g>
</g>
<!-- Node6 -->
<g id="Node000006" class="node">
<title>Node6</title>
<g id="a_Node000006"><a xlink:href="classnetspeak_1_1model_1_1SimpleQueryUnit____.html#a9ae973c7bcbb9faa098c64327bad3073" target="_top" xlink:title=" ">
<polygon fill="white" stroke="#666666" points="1033,-174.3 866,-174.3 866,-144.3 1033,-144.3 1033,-174.3"/>
<text text-anchor="start" x="874" y="-162.3" font-family="Helvetica,sans-Serif" font-size="10.00">netspeak::model::SimpleQuery</text>
<text text-anchor="middle" x="949.5" y="-151.3" font-family="Helvetica,sans-Serif" font-size="10.00">Unit__::add_child</text>
</a>
</g>
</g>
<!-- Node5&#45;&gt;Node6 -->
<g id="edge6_Node000005_Node000006" class="edge">
<title>Node5&#45;&gt;Node6</title>
<g id="a_edge6_Node000005_Node000006"><a xlink:title=" ">
<path fill="none" stroke="#63b8ff" d="M824.29,-148.22C834.76,-149.15 845.46,-150.11 855.97,-151.04"/>
<polygon fill="#63b8ff" stroke="#63b8ff" points="855.72,-154.53 865.99,-151.94 856.34,-147.56 855.72,-154.53"/>
</a>
</g>
</g>
<!-- Node7 -->
<g id="Node000007" class="node">
<title>Node7</title>
<g id="a_Node000007"><a xlink:href="classnetspeak_1_1SimpleQueryOptimizer.html#a77d726b94a9d80c743c3b5546aab766f" target="_top" xlink:title=" ">
<polygon fill="white" stroke="#666666" points="1039,-231.3 860,-231.3 860,-201.3 1039,-201.3 1039,-231.3"/>
<text text-anchor="start" x="868" y="-219.3" font-family="Helvetica,sans-Serif" font-size="10.00">netspeak::SimpleQueryOptimizer</text>
<text text-anchor="middle" x="949.5" y="-208.3" font-family="Helvetica,sans-Serif" font-size="10.00">::contains_child</text>
</a>
</g>
</g>
<!-- Node5&#45;&gt;Node7 -->
<g id="edge7_Node000005_Node000007" class="edge">
<title>Node5&#45;&gt;Node7</title>
<g id="a_edge7_Node000005_Node000007"><a xlink:title=" ">
<path fill="none" stroke="#63b8ff" d="M797.96,-155.37C806.8,-158.04 815.71,-161.03 824,-164.3 840.83,-170.93 843.49,-175.9 860,-183.3 871.22,-188.33 883.47,-193.24 895.17,-197.68"/>
<polygon fill="#63b8ff" stroke="#63b8ff" points="894.24,-201.07 904.84,-201.28 896.69,-194.51 894.24,-201.07"/>
</a>
</g>
</g>
<!-- Node8 -->
<g id="Node000008" class="node">
<title>Node8</title>
<g id="a_Node000008"><a xlink:href="classnetspeak_1_1model_1_1SimpleQueryUnit____.html#aa0ce1e648305547379b806a24111e7a0" target="_top" xlink:title=" ">
<polygon fill="white" stroke="#666666" points="1033,-126.3 866,-126.3 866,-96.3 1033,-96.3 1033,-126.3"/>
<text text-anchor="start" x="874" y="-114.3" font-family="Helvetica,sans-Serif" font-size="10.00">netspeak::model::SimpleQuery</text>
<text text-anchor="middle" x="949.5" y="-103.3" font-family="Helvetica,sans-Serif" font-size="10.00">Unit__::drain_children</text>
</a>
</g>
</g>
<!-- Node5&#45;&gt;Node8 -->
<g id="edge9_Node000005_Node000008" class="edge">
<title>Node5&#45;&gt;Node8</title>
<g id="a_edge9_Node000005_Node000008"><a xlink:title=" ">
<path fill="none" stroke="#63b8ff" d="M824.29,-128.21C834.76,-126.78 845.46,-125.33 855.97,-123.89"/>
<polygon fill="#63b8ff" stroke="#63b8ff" points="856.55,-127.35 865.99,-122.53 855.61,-120.41 856.55,-127.35"/>
</a>
</g>
</g>
<!-- Node7&#45;&gt;Node2 -->
<g id="edge8_Node000007_Node000002" class="edge">
<title>Node7&#45;&gt;Node2</title>
<g id="a_edge8_Node000007_Node000002"><a xlink:title=" ">
<path fill="none" stroke="#63b8ff" d="M1039.19,-216.3C1047.61,-216.3 1056.17,-216.3 1064.64,-216.3"/>
<polygon fill="#63b8ff" stroke="#63b8ff" points="1064.9,-219.8 1074.9,-216.3 1064.9,-212.8 1064.9,-219.8"/>
</a>
</g>
</g>
<!-- Node10&#45;&gt;Node1 -->
<g id="edge20_Node000010_Node000001" class="edge">
<title>Node10&#45;&gt;Node1</title>
<g id="a_edge20_Node000010_Node000001"><a xlink:title=" ">
<path fill="none" stroke="#63b8ff" d="M429.86,-187.11C368.8,-184.75 286.17,-178.45 215,-162.3 186.58,-155.85 155.95,-144.34 132.18,-134.33"/>
<polygon fill="#63b8ff" stroke="#63b8ff" points="133.34,-131.02 122.77,-130.3 130.58,-137.46 133.34,-131.02"/>
</a>
</g>
</g>
<!-- Node10&#45;&gt;Node2 -->
<g id="edge13_Node000010_Node000002" class="edge">
<title>Node10&#45;&gt;Node2</title>
<g id="a_edge13_Node000010_Node000002"><a xlink:title=" ">
<path fill="none" stroke="#63b8ff" d="M557.41,-203.34C581.83,-212.56 614.8,-223.66 645,-229.3 817.2,-261.46 864.69,-257.77 1039,-240.3 1054.08,-238.79 1070.07,-236.22 1085.27,-233.31"/>
<polygon fill="#63b8ff" stroke="#63b8ff" points="1086,-236.73 1095.13,-231.36 1084.64,-229.87 1086,-236.73"/>
</a>
</g>
</g>
<!-- Node10&#45;&gt;Node5 -->
<g id="edge18_Node000010_Node000005" class="edge">
<title>Node10&#45;&gt;Node5</title>
<g id="a_edge18_Node000010_Node000005"><a xlink:title=" ">
<path fill="none" stroke="#63b8ff" d="M587.31,-173.24C609.42,-168.26 634.18,-162.68 656.96,-157.55"/>
<polygon fill="#63b8ff" stroke="#63b8ff" points="657.94,-160.91 666.93,-155.3 656.4,-154.08 657.94,-160.91"/>
</a>
</g>
</g>
<!-- Node10&#45;&gt;Node7 -->
<g id="edge17_Node000010_Node000007" class="edge">
<title>Node10&#45;&gt;Node7</title>
<g id="a_edge17_Node000010_Node000007"><a xlink:title=" ">
<path fill="none" stroke="#63b8ff" d="M586.73,-203.32C605.47,-206.96 625.95,-210.35 645,-212.3 713.14,-219.26 790.33,-220.18 849.81,-219.4"/>
<polygon fill="#63b8ff" stroke="#63b8ff" points="850,-222.9 859.95,-219.25 849.9,-215.9 850,-222.9"/>
</a>
</g>
</g>
<!-- Node10&#45;&gt;Node9 -->
<g id="edge21_Node000010_Node000009" class="edge">
<title>Node10&#45;&gt;Node9</title>
<g id="a_edge21_Node000010_Node000009"><a xlink:title=" ">
<path fill="none" stroke="#63b8ff" d="M592.84,-173.11C598.52,-170.61 603.99,-167.69 609,-164.3 631.07,-149.33 622.93,-131.27 645,-116.3 647.27,-114.76 649.63,-113.32 652.07,-111.97"/>
<polygon fill="#63b8ff" stroke="#63b8ff" points="653.74,-115.04 661.16,-107.48 650.65,-108.77 653.74,-115.04"/>
</a>
</g>
</g>
<!-- Node11 -->
<g id="Node000011" class="node">
<title>Node11</title>
<g id="a_Node000011"><a xlink:href="classnetspeak_1_1SimpleQueryOptimizer.html#a2fd2078d6604e20582903f7a41430e16" target="_top" xlink:title=" ">
<polygon fill="white" stroke="#666666" points="824,-327.3 645,-327.3 645,-297.3 824,-297.3 824,-327.3"/>
<text text-anchor="start" x="653" y="-315.3" font-family="Helvetica,sans-Serif" font-size="10.00">netspeak::SimpleQueryOptimizer</text>
<text text-anchor="middle" x="734.5" y="-304.3" font-family="Helvetica,sans-Serif" font-size="10.00">::concat_star_optimization</text>
</a>
</g>
</g>
<!-- Node10&#45;&gt;Node11 -->
<g id="edge14_Node000010_Node000011" class="edge">
<title>Node10&#45;&gt;Node11</title>
<g id="a_edge14_Node000010_Node000011"><a xlink:title=" ">
<path fill="none" stroke="#63b8ff" d="M536.58,-203.45C559.2,-224.06 602.41,-260.89 645,-283.3 652.41,-287.19 660.43,-290.7 668.53,-293.81"/>
<polygon fill="#63b8ff" stroke="#63b8ff" points="667.44,-297.14 678.03,-297.29 669.84,-290.56 667.44,-297.14"/>
</a>
</g>
</g>
<!-- Node13 -->
<g id="Node000013" class="node">
<title>Node13</title>
<g id="a_Node000013"><a xlink:href="classnetspeak_1_1model_1_1SimpleQueryUnit____.html#a3080baa4a48b461ec365cec8f3aa967c" target="_top" xlink:title=" ">
<polygon fill="white" stroke="#666666" points="818,-203.3 651,-203.3 651,-173.3 818,-173.3 818,-203.3"/>
<text text-anchor="start" x="659" y="-191.3" font-family="Helvetica,sans-Serif" font-size="10.00">netspeak::model::SimpleQuery</text>
<text text-anchor="middle" x="734.5" y="-180.3" font-family="Helvetica,sans-Serif" font-size="10.00">Unit__::new_alternation</text>
</a>
</g>
</g>
<!-- Node10&#45;&gt;Node13 -->
<g id="edge19_Node000010_Node000013" class="edge">
<title>Node10&#45;&gt;Node13</title>
<g id="a_edge19_Node000010_Node000013"><a xlink:title=" ">
<path fill="none" stroke="#63b8ff" d="M609.29,-188.3C619.76,-188.3 630.46,-188.3 640.97,-188.3"/>
<polygon fill="#63b8ff" stroke="#63b8ff" points="640.99,-191.8 650.99,-188.3 640.99,-184.8 640.99,-191.8"/>
</a>
</g>
</g>
<!-- Node11&#45;&gt;Node2 -->
<g id="edge15_Node000011_Node000002" class="edge">
<title>Node11&#45;&gt;Node2</title>
<g id="a_edge15_Node000011_Node000002"><a xlink:title=" ">
<path fill="none" stroke="#63b8ff" d="M777.41,-327.33C837.79,-346.44 951.58,-372.83 1039,-336.3 1085.56,-316.84 1123.14,-269.19 1142.72,-240.13"/>
<polygon fill="#63b8ff" stroke="#63b8ff" points="1145.89,-241.69 1148.44,-231.41 1140.03,-237.85 1145.89,-241.69"/>
</a>
</g>
</g>
<!-- Node12 -->
<g id="Node000012" class="node">
<title>Node12</title>
<g id="a_Node000012"><a xlink:href="classnetspeak_1_1model_1_1SimpleQueryUnit____.html#a52b4f019ead669f1bb9bcfe122a8ae79" target="_top" xlink:title=" ">
<polygon fill="white" stroke="#666666" points="1033,-327.3 866,-327.3 866,-297.3 1033,-297.3 1033,-327.3"/>
<text text-anchor="start" x="874" y="-315.3" font-family="Helvetica,sans-Serif" font-size="10.00">netspeak::model::SimpleQuery</text>
<text text-anchor="middle" x="949.5" y="-304.3" font-family="Helvetica,sans-Serif" font-size="10.00">Unit__::remove_child</text>
</a>
</g>
</g>
<!-- Node11&#45;&gt;Node12 -->
<g id="edge16_Node000011_Node000012" class="edge">
<title>Node11&#45;&gt;Node12</title>
<g id="a_edge16_Node000011_Node000012"><a xlink:title=" ">
<path fill="none" stroke="#63b8ff" d="M824.29,-312.3C834.76,-312.3 845.46,-312.3 855.97,-312.3"/>
<polygon fill="#63b8ff" stroke="#63b8ff" points="855.99,-315.8 865.99,-312.3 855.99,-308.8 855.99,-315.8"/>
</a>
</g>
</g>
</g>
</svg>
