<?xml version="1.0" encoding="UTF-8" standalone="no"?>
<!DOCTYPE svg PUBLIC "-//W3C//DTD SVG 1.1//EN"
 "http://www.w3.org/Graphics/SVG/1.1/DTD/svg11.dtd">
<!-- Generated by graphviz version 2.43.0 (0)
 -->
<!-- Title: netspeak::model::RawRefResult::refs Pages: 1 -->
<svg width="721pt" height="129pt"
 viewBox="0.00 0.00 721.00 129.00" xmlns="http://www.w3.org/2000/svg" xmlns:xlink="http://www.w3.org/1999/xlink">
<g id="graph0" class="graph" transform="scale(1 1) rotate(0) translate(4 125)">
<title>netspeak::model::RawRefResult::refs</title>
<!-- Node1 -->
<g id="Node000001" class="node">
<title>Node1</title>
<g id="a_Node000001"><a xlink:title="The phrase references of this result set sorted by frequency in descending order.">
<polygon fill="#999999" stroke="#666666" points="713,-73 540,-73 540,-43 713,-43 713,-73"/>
<text text-anchor="start" x="548" y="-61" font-family="Helvetica,sans-Serif" font-size="10.00">netspeak::model::RawRefResult</text>
<text text-anchor="middle" x="626.5" y="-50" font-family="Helvetica,sans-Serif" font-size="10.00">::refs</text>
</a>
</g>
</g>
<!-- Node2 -->
<g id="Node000002" class="node">
<title>Node2</title>
<g id="a_Node000002"><a xlink:href="classnetspeak_1_1model_1_1RawRefResult.html#a0604a1e03e1e9b09a7c873ec94b9f28e" target="_top" xlink:title="Returns whether this and the given raw result set do not share any common phrase references.">
<polygon fill="white" stroke="#666666" points="504,-121 331,-121 331,-91 504,-91 504,-121"/>
<text text-anchor="start" x="339" y="-109" font-family="Helvetica,sans-Serif" font-size="10.00">netspeak::model::RawRefResult</text>
<text text-anchor="middle" x="417.5" y="-98" font-family="Helvetica,sans-Serif" font-size="10.00">::disjoint_with</text>
</a>
</g>
</g>
<!-- Node1&#45;&gt;Node2 -->
<g id="edge1_Node000001_Node000002" class="edge">
<title>Node1&#45;&gt;Node2</title>
<g id="a_edge1_Node000001_Node000002"><a xlink:title=" ">
<path fill="none" stroke="#63b8ff" d="M550.58,-75.37C528.51,-80.49 504.57,-86.04 483.2,-91"/>
<polygon fill="#63b8ff" stroke="#63b8ff" points="551.62,-78.72 560.57,-73.06 550.04,-71.91 551.62,-78.72"/>
</a>
</g>
</g>
<!-- Node3 -->
<g id="Node000003" class="node">
<title>Node3</title>
<g id="a_Node000003"><a xlink:href="classnetspeak_1_1model_1_1RawRefResult.html#aa98ade235e2a2e2ec9e833b58d374d0d" target="_top" xlink:title="Creates a new result set that contains all phrases (unknown words) of this set and the given set.">
<polygon fill="white" stroke="#666666" points="504,-73 331,-73 331,-43 504,-43 504,-73"/>
<text text-anchor="start" x="339" y="-61" font-family="Helvetica,sans-Serif" font-size="10.00">netspeak::model::RawRefResult</text>
<text text-anchor="middle" x="417.5" y="-50" font-family="Helvetica,sans-Serif" font-size="10.00">::merge</text>
</a>
</g>
</g>
<!-- Node1&#45;&gt;Node3 -->
<g id="edge2_Node000001_Node000003" class="edge">
<title>Node1&#45;&gt;Node3</title>
<g id="a_edge2_Node000001_Node000003"><a xlink:title=" ">
<path fill="none" stroke="#63b8ff" d="M529.8,-58C521.24,-58 512.6,-58 504.12,-58"/>
<polygon fill="#63b8ff" stroke="#63b8ff" points="529.81,-61.5 539.81,-58 529.81,-54.5 529.81,-61.5"/>
</a>
</g>
</g>
<!-- Node4 -->
<g id="Node000004" class="node">
<title>Node4</title>
<g id="a_Node000004"><a xlink:href="namespacenetspeak.html#adc992b5399e2243ef4e4a3530e10cb1b" target="_top" xlink:title=" ">
<polygon fill="white" stroke="#666666" points="465,-24.5 370,-24.5 370,-5.5 465,-5.5 465,-24.5"/>
<text text-anchor="middle" x="417.5" y="-12.5" font-family="Helvetica,sans-Serif" font-size="10.00">netspeak::prune</text>
</a>
</g>
</g>
<!-- Node1&#45;&gt;Node4 -->
<g id="edge3_Node000001_Node000004" class="edge">
<title>Node1&#45;&gt;Node4</title>
<g id="a_edge3_Node000001_Node000004"><a xlink:title=" ">
<path fill="none" stroke="#63b8ff" d="M543.3,-40.93C516.43,-35.34 487.54,-29.34 464.34,-24.52"/>
<polygon fill="#63b8ff" stroke="#63b8ff" points="542.6,-44.35 553.1,-42.96 544.02,-37.5 542.6,-44.35"/>
</a>
</g>
</g>
<!-- Node5 -->
<g id="Node000005" class="node">
<title>Node5</title>
<g id="a_Node000005"><a xlink:href="classnetspeak_1_1Netspeak.html#a63bb059fbca69dbbcb42a2c9ed24674f" target="_top" xlink:title=" ">
<polygon fill="white" stroke="#666666" points="295,-30 150,-30 150,0 295,0 295,-30"/>
<text text-anchor="start" x="158" y="-18" font-family="Helvetica,sans-Serif" font-size="10.00">netspeak::Netspeak</text>
<text text-anchor="middle" x="222.5" y="-7" font-family="Helvetica,sans-Serif" font-size="10.00">::process_wildcard_query_</text>
</a>
</g>
</g>
<!-- Node4&#45;&gt;Node5 -->
<g id="edge4_Node000004_Node000005" class="edge">
<title>Node4&#45;&gt;Node5</title>
<g id="a_edge4_Node000004_Node000005"><a xlink:title=" ">
<path fill="none" stroke="#63b8ff" d="M359.77,-15C339.5,-15 316.39,-15 295.03,-15"/>
<polygon fill="#63b8ff" stroke="#63b8ff" points="359.78,-18.5 369.78,-15 359.78,-11.5 359.78,-18.5"/>
</a>
</g>
</g>
<!-- Node6 -->
<g id="Node000006" class="node">
<title>Node6</title>
<g id="a_Node000006"><a xlink:href="classnetspeak_1_1Netspeak.html#aaa049275c7a0a7f6721acf7422402bff" target="_top" xlink:title=" ">
<polygon fill="white" stroke="#666666" points="114,-30 0,-30 0,0 114,0 114,-30"/>
<text text-anchor="start" x="8" y="-18" font-family="Helvetica,sans-Serif" font-size="10.00">netspeak::Netspeak</text>
<text text-anchor="middle" x="57" y="-7" font-family="Helvetica,sans-Serif" font-size="10.00">::search_raw_</text>
</a>
</g>
</g>
<!-- Node5&#45;&gt;Node6 -->
<g id="edge5_Node000005_Node000006" class="edge">
<title>Node5&#45;&gt;Node6</title>
<g id="a_edge5_Node000005_Node000006"><a xlink:title=" ">
<path fill="none" stroke="#63b8ff" d="M139.75,-15C131.18,-15 122.61,-15 114.42,-15"/>
<polygon fill="#63b8ff" stroke="#63b8ff" points="139.79,-18.5 149.79,-15 139.79,-11.5 139.79,-18.5"/>
</a>
</g>
</g>
</g>
</svg>
