<?xml version="1.0" encoding="UTF-8" standalone="no"?>
<!DOCTYPE svg PUBLIC "-//W3C//DTD SVG 1.1//EN"
 "http://www.w3.org/Graphics/SVG/1.1/DTD/svg11.dtd">
<!-- Generated by graphviz version 2.43.0 (0)
 -->
<!-- Title: netspeak::regex::DefaultRegexIndex::match_query_hash_lookup Pages: 1 -->
<svg width="540pt" height="200pt"
 viewBox="0.00 0.00 540.00 200.00" xmlns="http://www.w3.org/2000/svg" xmlns:xlink="http://www.w3.org/1999/xlink">
<g id="graph0" class="graph" transform="scale(1 1) rotate(0) translate(4 196)">
<title>netspeak::regex::DefaultRegexIndex::match_query_hash_lookup</title>
<!-- Node1 -->
<g id="Node000001" class="node">
<title>Node1</title>
<g id="a_Node000001"><a xlink:title=" ">
<polygon fill="#999999" stroke="#666666" points="144,-116.5 0,-116.5 0,-75.5 144,-75.5 144,-116.5"/>
<text text-anchor="start" x="8" y="-104.5" font-family="Helvetica,sans-Serif" font-size="10.00">netspeak::regex::Default</text>
<text text-anchor="start" x="8" y="-93.5" font-family="Helvetica,sans-Serif" font-size="10.00">RegexIndex::match_query</text>
<text text-anchor="middle" x="72" y="-82.5" font-family="Helvetica,sans-Serif" font-size="10.00">_hash_lookup</text>
</a>
</g>
</g>
<!-- Node2 -->
<g id="Node000002" class="node">
<title>Node2</title>
<g id="a_Node000002"><a xlink:href="classnetspeak_1_1regex_1_1DefaultRegexIndex.html#aebcc95cc799f637dbdca131be9380c8c" target="_top" xlink:title="Returns the index of the given word or UINT32_MAX if the given word is not a word of the vocabulary.">
<polygon fill="white" stroke="#666666" points="324.5,-192 187.5,-192 187.5,-162 324.5,-162 324.5,-192"/>
<text text-anchor="start" x="195.5" y="-180" font-family="Helvetica,sans-Serif" font-size="10.00">netspeak::regex::Default</text>
<text text-anchor="middle" x="256" y="-169" font-family="Helvetica,sans-Serif" font-size="10.00">RegexIndex::find_word</text>
</a>
</g>
</g>
<!-- Node1&#45;&gt;Node2 -->
<g id="edge1_Node000001_Node000002" class="edge">
<title>Node1&#45;&gt;Node2</title>
<g id="a_edge1_Node000001_Node000002"><a xlink:title=" ">
<path fill="none" stroke="#63b8ff" d="M107.89,-116.64C128.43,-128.27 155.18,-142.52 180,-153 184.49,-154.89 189.18,-156.73 193.93,-158.48"/>
<polygon fill="#63b8ff" stroke="#63b8ff" points="193.12,-161.91 203.72,-161.95 195.46,-155.31 193.12,-161.91"/>
</a>
</g>
</g>
<!-- Node4 -->
<g id="Node000004" class="node">
<title>Node4</title>
<g id="a_Node000004"><a xlink:href="namespacenetspeak_1_1regex.html#ace4835f8060dcf407b0f4bdf422de2b2" target="_top" xlink:title=" ">
<polygon fill="white" stroke="#666666" points="319,-144 193,-144 193,-114 319,-114 319,-144"/>
<text text-anchor="start" x="201" y="-132" font-family="Helvetica,sans-Serif" font-size="10.00">netspeak::regex::finite</text>
<text text-anchor="middle" x="256" y="-121" font-family="Helvetica,sans-Serif" font-size="10.00">_query_to_utf8</text>
</a>
</g>
</g>
<!-- Node1&#45;&gt;Node4 -->
<g id="edge3_Node000001_Node000004" class="edge">
<title>Node1&#45;&gt;Node4</title>
<g id="a_edge3_Node000001_Node000004"><a xlink:title=" ">
<path fill="none" stroke="#63b8ff" d="M144.15,-108.9C156.81,-111.2 170.02,-113.59 182.72,-115.89"/>
<polygon fill="#63b8ff" stroke="#63b8ff" points="182.31,-119.38 192.77,-117.72 183.55,-112.49 182.31,-119.38"/>
</a>
</g>
</g>
<!-- Node6 -->
<g id="Node000006" class="node">
<title>Node6</title>
<g id="a_Node000006"><a xlink:href="namespacenetspeak_1_1regex.html#a51168d153e77973b3bc1329b2ab4420c" target="_top" xlink:title=" ">
<polygon fill="white" stroke="#666666" points="327.5,-78 184.5,-78 184.5,-48 327.5,-48 327.5,-78"/>
<text text-anchor="start" x="192.5" y="-66" font-family="Helvetica,sans-Serif" font-size="10.00">netspeak::regex::match</text>
<text text-anchor="middle" x="256" y="-55" font-family="Helvetica,sans-Serif" font-size="10.00">_query_hash_lookup_impl</text>
</a>
</g>
</g>
<!-- Node1&#45;&gt;Node6 -->
<g id="edge5_Node000001_Node000006" class="edge">
<title>Node1&#45;&gt;Node6</title>
<g id="a_edge5_Node000001_Node000006"><a xlink:title=" ">
<path fill="none" stroke="#63b8ff" d="M144.15,-83.1C154.09,-81.3 164.37,-79.43 174.47,-77.6"/>
<polygon fill="#63b8ff" stroke="#63b8ff" points="175.28,-81.01 184.5,-75.78 174.04,-74.12 175.28,-81.01"/>
</a>
</g>
</g>
<!-- Node7 -->
<g id="Node000007" class="node">
<title>Node7</title>
<g id="a_Node000007"><a xlink:href="classnetspeak_1_1regex_1_1DefaultRegexIndex.html#a6670d85281af35910d5d00d8997f7f37" target="_top" xlink:title="Returns the word at the given index in the word list.">
<polygon fill="white" stroke="#666666" points="332,-30 180,-30 180,0 332,0 332,-30"/>
<text text-anchor="start" x="188" y="-18" font-family="Helvetica,sans-Serif" font-size="10.00">netspeak::regex::Default</text>
<text text-anchor="middle" x="256" y="-7" font-family="Helvetica,sans-Serif" font-size="10.00">RegexIndex::word_at_index</text>
</a>
</g>
</g>
<!-- Node1&#45;&gt;Node7 -->
<g id="edge7_Node000001_Node000007" class="edge">
<title>Node1&#45;&gt;Node7</title>
<g id="a_edge7_Node000001_Node000007"><a xlink:title=" ">
<path fill="none" stroke="#63b8ff" d="M107.89,-75.36C128.43,-63.73 155.18,-49.48 180,-39 184.49,-37.11 189.18,-35.27 193.93,-33.52"/>
<polygon fill="#63b8ff" stroke="#63b8ff" points="195.46,-36.69 203.72,-30.05 193.12,-30.09 195.46,-36.69"/>
</a>
</g>
</g>
<!-- Node3 -->
<g id="Node000003" class="node">
<title>Node3</title>
<g id="a_Node000003"><a xlink:href="namespacenetspeak_1_1regex.html#a6f4fc36a36d53c9404c8c58994db4f16" target="_top" xlink:title=" ">
<polygon fill="white" stroke="#666666" points="527,-186.5 373,-186.5 373,-167.5 527,-167.5 527,-186.5"/>
<text text-anchor="middle" x="450" y="-174.5" font-family="Helvetica,sans-Serif" font-size="10.00">netspeak::regex::hash_word</text>
</a>
</g>
</g>
<!-- Node2&#45;&gt;Node3 -->
<g id="edge2_Node000002_Node000003" class="edge">
<title>Node2&#45;&gt;Node3</title>
<g id="a_edge2_Node000002_Node000003"><a xlink:title=" ">
<path fill="none" stroke="#63b8ff" d="M324.69,-177C336.96,-177 349.9,-177 362.62,-177"/>
<polygon fill="#63b8ff" stroke="#63b8ff" points="362.75,-180.5 372.75,-177 362.75,-173.5 362.75,-180.5"/>
</a>
</g>
</g>
<!-- Node5 -->
<g id="Node000005" class="node">
<title>Node5</title>
<g id="a_Node000005"><a xlink:href="classnetspeak_1_1regex_1_1RegexQuery.html#ace5fe64453987c6f605300a8aa5d4ee4" target="_top" xlink:title="Get the underlying units.">
<polygon fill="white" stroke="#666666" points="530.5,-144 369.5,-144 369.5,-114 530.5,-114 530.5,-144"/>
<text text-anchor="start" x="377.5" y="-132" font-family="Helvetica,sans-Serif" font-size="10.00">netspeak::regex::RegexQuery</text>
<text text-anchor="middle" x="450" y="-121" font-family="Helvetica,sans-Serif" font-size="10.00">::get_units</text>
</a>
</g>
</g>
<!-- Node4&#45;&gt;Node5 -->
<g id="edge4_Node000004_Node000005" class="edge">
<title>Node4&#45;&gt;Node5</title>
<g id="a_edge4_Node000004_Node000005"><a xlink:title=" ">
<path fill="none" stroke="#63b8ff" d="M319.07,-129C331.82,-129 345.48,-129 358.99,-129"/>
<polygon fill="#63b8ff" stroke="#63b8ff" points="359.26,-132.5 369.26,-129 359.26,-125.5 359.26,-132.5"/>
</a>
</g>
</g>
<!-- Node6&#45;&gt;Node6 -->
<g id="edge6_Node000006_Node000006" class="edge">
<title>Node6&#45;&gt;Node6</title>
<g id="a_edge6_Node000006_Node000006"><a xlink:title=" ">
<path fill="none" stroke="#63b8ff" d="M223.66,-78.28C216.47,-87.41 227.25,-96 256,-96 273.07,-96 283.81,-92.97 288.21,-88.6"/>
<polygon fill="#63b8ff" stroke="#63b8ff" points="291.71,-88.32 288.34,-78.28 284.71,-88.23 291.71,-88.32"/>
</a>
</g>
</g>
<!-- Node8 -->
<g id="Node000008" class="node">
<title>Node8</title>
<g id="a_Node000008"><a xlink:href="classnetspeak_1_1regex_1_1DefaultRegexIndex.html#a54963c57bab5c92e0044c351b69da357" target="_top" xlink:title="Returns the word string from the given entry.">
<polygon fill="white" stroke="#666666" points="532,-30 368,-30 368,0 532,0 532,-30"/>
<text text-anchor="start" x="376" y="-18" font-family="Helvetica,sans-Serif" font-size="10.00">netspeak::regex::Default</text>
<text text-anchor="middle" x="450" y="-7" font-family="Helvetica,sans-Serif" font-size="10.00">RegexIndex::word_from_entry</text>
</a>
</g>
</g>
<!-- Node7&#45;&gt;Node8 -->
<g id="edge8_Node000007_Node000008" class="edge">
<title>Node7&#45;&gt;Node8</title>
<g id="a_edge8_Node000007_Node000008"><a xlink:title=" ">
<path fill="none" stroke="#63b8ff" d="M332.06,-15C340.52,-15 349.22,-15 357.86,-15"/>
<polygon fill="#63b8ff" stroke="#63b8ff" points="357.97,-18.5 367.97,-15 357.97,-11.5 357.97,-18.5"/>
</a>
</g>
</g>
</g>
</svg>
