<?xml version="1.0" encoding="UTF-8" standalone="no"?>
<!DOCTYPE svg PUBLIC "-//W3C//DTD SVG 1.1//EN"
 "http://www.w3.org/Graphics/SVG/1.1/DTD/svg11.dtd">
<!-- Generated by graphviz version 2.43.0 (0)
 -->
<!-- Title: netspeak::model::NormQuery::size Pages: 1 -->
<svg width="948pt" height="230pt"
 viewBox="0.00 0.00 948.00 230.05" xmlns="http://www.w3.org/2000/svg" xmlns:xlink="http://www.w3.org/1999/xlink">
<g id="graph0" class="graph" transform="scale(1 1) rotate(0) translate(4 226.05)">
<title>netspeak::model::NormQuery::size</title>
<!-- Node1 -->
<g id="Node000001" class="node">
<title>Node1</title>
<g id="a_Node000001"><a xlink:title=" ">
<polygon fill="#999999" stroke="#666666" points="940,-109.05 779,-109.05 779,-79.05 940,-79.05 940,-109.05"/>
<text text-anchor="start" x="787" y="-97.05" font-family="Helvetica,sans-Serif" font-size="10.00">netspeak::model::NormQuery</text>
<text text-anchor="middle" x="859.5" y="-86.05" font-family="Helvetica,sans-Serif" font-size="10.00">::size</text>
</a>
</g>
</g>
<!-- Node2 -->
<g id="Node000002" class="node">
<title>Node2</title>
<g id="a_Node000002"><a xlink:href="classnetspeak_1_1SimpleQueryNormalizer.html#a64b4efb1803b5ed2bd2b1dc7197938f5" target="_top" xlink:title=" ">
<polygon fill="white" stroke="#666666" points="743,-222.05 558,-222.05 558,-192.05 743,-192.05 743,-222.05"/>
<text text-anchor="start" x="566" y="-210.05" font-family="Helvetica,sans-Serif" font-size="10.00">netspeak::SimpleQueryNormalizer</text>
<text text-anchor="middle" x="650.5" y="-199.05" font-family="Helvetica,sans-Serif" font-size="10.00">::add_with_stars</text>
</a>
</g>
</g>
<!-- Node1&#45;&gt;Node2 -->
<g id="edge1_Node000001_Node000002" class="edge">
<title>Node1&#45;&gt;Node2</title>
<g id="a_edge1_Node000001_Node000002"><a xlink:title=" ">
<path fill="none" stroke="#63b8ff" d="M835.56,-116.27C813.52,-136.45 778.41,-165.66 743,-183.05 736.07,-186.45 728.6,-189.42 721.03,-191.99"/>
<polygon fill="#63b8ff" stroke="#63b8ff" points="838.14,-118.65 843.07,-109.28 833.37,-113.53 838.14,-118.65"/>
</a>
</g>
</g>
<!-- Node6 -->
<g id="Node000006" class="node">
<title>Node6</title>
<g id="a_Node000006"><a xlink:href="classnetspeak_1_1RetrievalStrategy_3_01RetrievalStrategy3Tag_01_4.html#a9842c21d3de64eb6d496ad7f267c35dc" target="_top" xlink:title=" ">
<polygon fill="white" stroke="#666666" points="727,-173.55 574,-173.55 574,-132.55 727,-132.55 727,-173.55"/>
<text text-anchor="start" x="582" y="-161.55" font-family="Helvetica,sans-Serif" font-size="10.00">netspeak::RetrievalStrategy</text>
<text text-anchor="start" x="582" y="-150.55" font-family="Helvetica,sans-Serif" font-size="10.00">&lt; RetrievalStrategy3Tag</text>
<text text-anchor="middle" x="650.5" y="-139.55" font-family="Helvetica,sans-Serif" font-size="10.00"> &gt;::initialize_query</text>
</a>
</g>
</g>
<!-- Node1&#45;&gt;Node6 -->
<g id="edge5_Node000001_Node000006" class="edge">
<title>Node1&#45;&gt;Node6</title>
<g id="a_edge5_Node000001_Node000006"><a xlink:title=" ">
<path fill="none" stroke="#63b8ff" d="M795.85,-111.91C773.1,-118.39 747.21,-125.77 723.7,-132.47"/>
<polygon fill="#63b8ff" stroke="#63b8ff" points="797.07,-115.2 805.73,-109.09 795.15,-108.47 797.07,-115.2"/>
</a>
</g>
</g>
<!-- Node7 -->
<g id="Node000007" class="node">
<title>Node7</title>
<g id="a_Node000007"><a xlink:href="classnetspeak_1_1RetrievalStrategy_3_01RetrievalStrategy3Tag_01_4.html#af15e58c41758453cd1efcaf402637e3d" target="_top" xlink:title=" ">
<polygon fill="white" stroke="#666666" points="727,-114.55 574,-114.55 574,-73.55 727,-73.55 727,-114.55"/>
<text text-anchor="start" x="582" y="-102.55" font-family="Helvetica,sans-Serif" font-size="10.00">netspeak::RetrievalStrategy</text>
<text text-anchor="start" x="582" y="-91.55" font-family="Helvetica,sans-Serif" font-size="10.00">&lt; RetrievalStrategy3Tag</text>
<text text-anchor="middle" x="650.5" y="-80.55" font-family="Helvetica,sans-Serif" font-size="10.00"> &gt;::make_key</text>
</a>
</g>
</g>
<!-- Node1&#45;&gt;Node7 -->
<g id="edge6_Node000001_Node000007" class="edge">
<title>Node1&#45;&gt;Node7</title>
<g id="a_edge6_Node000001_Node000007"><a xlink:title=" ">
<path fill="none" stroke="#63b8ff" d="M768.73,-94.05C754.85,-94.05 740.64,-94.05 727.11,-94.05"/>
<polygon fill="#63b8ff" stroke="#63b8ff" points="768.76,-97.55 778.76,-94.05 768.76,-90.55 768.76,-97.55"/>
</a>
</g>
</g>
<!-- Node8 -->
<g id="Node000008" class="node">
<title>Node8</title>
<g id="a_Node000008"><a xlink:href="classnetspeak_1_1model_1_1NormQuery.html#abb5ddb30740717dcd0e89e98c5498610" target="_top" xlink:title=" ">
<polygon fill="white" stroke="#666666" points="731,-55.05 570,-55.05 570,-25.05 731,-25.05 731,-55.05"/>
<text text-anchor="start" x="578" y="-43.05" font-family="Helvetica,sans-Serif" font-size="10.00">netspeak::model::NormQuery</text>
<text text-anchor="middle" x="650.5" y="-32.05" font-family="Helvetica,sans-Serif" font-size="10.00">::operator==</text>
</a>
</g>
</g>
<!-- Node1&#45;&gt;Node8 -->
<g id="edge7_Node000001_Node000008" class="edge">
<title>Node1&#45;&gt;Node8</title>
<g id="a_edge7_Node000001_Node000008"><a xlink:title=" ">
<path fill="none" stroke="#63b8ff" d="M790.91,-76.42C764.52,-69.53 734.57,-61.72 709.21,-55.11"/>
<polygon fill="#63b8ff" stroke="#63b8ff" points="790.28,-79.87 800.84,-79.01 792.05,-73.1 790.28,-79.87"/>
</a>
</g>
</g>
<!-- Node9 -->
<g id="Node000009" class="node">
<title>Node9</title>
<g id="a_Node000009"><a xlink:href="classnetspeak_1_1Netspeak.html#aaaac0f03b7e31a499189cdcba71801f7" target="_top" xlink:title=" ">
<polygon fill="white" stroke="#666666" points="494.5,-95.55 364.5,-95.55 364.5,-54.55 494.5,-54.55 494.5,-95.55"/>
<text text-anchor="start" x="372.5" y="-83.55" font-family="Helvetica,sans-Serif" font-size="10.00">netspeak::Netspeak</text>
<text text-anchor="start" x="372.5" y="-72.55" font-family="Helvetica,sans-Serif" font-size="10.00">::process_non_wildcard</text>
<text text-anchor="middle" x="429.5" y="-61.55" font-family="Helvetica,sans-Serif" font-size="10.00">_query_</text>
</a>
</g>
</g>
<!-- Node1&#45;&gt;Node9 -->
<g id="edge8_Node000001_Node000009" class="edge">
<title>Node1&#45;&gt;Node9</title>
<g id="a_edge8_Node000001_Node000009"><a xlink:title=" ">
<path fill="none" stroke="#63b8ff" d="M835.2,-72.07C813.32,-53.07 778.7,-26.98 743,-16.05 664.38,8.01 638.3,1.63 558,-16.05 524.41,-23.45 489.15,-40.59 464.24,-54.51"/>
<polygon fill="#63b8ff" stroke="#63b8ff" points="833.14,-74.92 842.93,-78.96 837.79,-69.7 833.14,-74.92"/>
</a>
</g>
</g>
<!-- Node3 -->
<g id="Node000003" class="node">
<title>Node3</title>
<g id="a_Node000003"><a xlink:href="classnetspeak_1_1SimpleQueryNormalizer.html#a64fc82bf1d46c167bbb645835120b233" target="_top" xlink:title="Converts the given simple query into norm queries and adds them to the given list of norm queries.">
<polygon fill="white" stroke="#666666" points="522,-183.05 337,-183.05 337,-153.05 522,-153.05 522,-183.05"/>
<text text-anchor="start" x="345" y="-171.05" font-family="Helvetica,sans-Serif" font-size="10.00">netspeak::SimpleQueryNormalizer</text>
<text text-anchor="middle" x="429.5" y="-160.05" font-family="Helvetica,sans-Serif" font-size="10.00">::to_norm_queries</text>
</a>
</g>
</g>
<!-- Node2&#45;&gt;Node3 -->
<g id="edge2_Node000002_Node000003" class="edge">
<title>Node2&#45;&gt;Node3</title>
<g id="a_edge2_Node000002_Node000003"><a xlink:title=" ">
<path fill="none" stroke="#63b8ff" d="M555,-190.22C541.63,-187.84 527.97,-185.41 514.81,-183.07"/>
<polygon fill="#63b8ff" stroke="#63b8ff" points="554.68,-193.72 565.14,-192.03 555.91,-186.83 554.68,-193.72"/>
</a>
</g>
</g>
<!-- Node4 -->
<g id="Node000004" class="node">
<title>Node4</title>
<g id="a_Node000004"><a xlink:href="classnetspeak_1_1QueryNormalizer.html#a70187ab668d98c93cfc3a8d05ca1508e" target="_top" xlink:title=" ">
<polygon fill="white" stroke="#666666" points="301,-141.05 150,-141.05 150,-111.05 301,-111.05 301,-141.05"/>
<text text-anchor="start" x="158" y="-129.05" font-family="Helvetica,sans-Serif" font-size="10.00">netspeak::QueryNormalizer</text>
<text text-anchor="middle" x="225.5" y="-118.05" font-family="Helvetica,sans-Serif" font-size="10.00">::normalize</text>
</a>
</g>
</g>
<!-- Node3&#45;&gt;Node4 -->
<g id="edge3_Node000003_Node000004" class="edge">
<title>Node3&#45;&gt;Node4</title>
<g id="a_edge3_Node000003_Node000004"><a xlink:title=" ">
<path fill="none" stroke="#63b8ff" d="M345.95,-150.89C330.29,-147.63 314.01,-144.25 298.69,-141.06"/>
<polygon fill="#63b8ff" stroke="#63b8ff" points="345.64,-154.4 356.14,-153.01 347.07,-147.54 345.64,-154.4"/>
</a>
</g>
</g>
<!-- Node5 -->
<g id="Node000005" class="node">
<title>Node5</title>
<g id="a_Node000005"><a xlink:href="classnetspeak_1_1Netspeak.html#aaa049275c7a0a7f6721acf7422402bff" target="_top" xlink:title=" ">
<polygon fill="white" stroke="#666666" points="114,-116.05 0,-116.05 0,-86.05 114,-86.05 114,-116.05"/>
<text text-anchor="start" x="8" y="-104.05" font-family="Helvetica,sans-Serif" font-size="10.00">netspeak::Netspeak</text>
<text text-anchor="middle" x="57" y="-93.05" font-family="Helvetica,sans-Serif" font-size="10.00">::search_raw_</text>
</a>
</g>
</g>
<!-- Node4&#45;&gt;Node5 -->
<g id="edge4_Node000004_Node000005" class="edge">
<title>Node4&#45;&gt;Node5</title>
<g id="a_edge4_Node000004_Node000005"><a xlink:title=" ">
<path fill="none" stroke="#63b8ff" d="M139.45,-113.28C130.85,-111.99 122.28,-110.7 114.1,-109.47"/>
<polygon fill="#63b8ff" stroke="#63b8ff" points="139.12,-116.77 149.53,-114.79 140.16,-109.85 139.12,-116.77"/>
</a>
</g>
</g>
<!-- Node9&#45;&gt;Node5 -->
<g id="edge9_Node000009_Node000005" class="edge">
<title>Node9&#45;&gt;Node5</title>
<g id="a_edge9_Node000009_Node000005"><a xlink:title=" ">
<path fill="none" stroke="#63b8ff" d="M354.19,-80.27C283.32,-85.24 178.15,-92.62 114.07,-97.12"/>
<polygon fill="#63b8ff" stroke="#63b8ff" points="354.66,-83.74 364.39,-79.55 354.17,-76.76 354.66,-83.74"/>
</a>
</g>
</g>
</g>
</svg>
