<?xml version="1.0" encoding="UTF-8" standalone="no"?>
<!DOCTYPE svg PUBLIC "-//W3C//DTD SVG 1.1//EN"
 "http://www.w3.org/Graphics/SVG/1.1/DTD/svg11.dtd">
<!-- Generated by graphviz version 2.43.0 (0)
 -->
<!-- Title: netspeak::bighashmap::Builder::BuildMap Pages: 1 -->
<svg width="683pt" height="172pt"
 viewBox="0.00 0.00 683.00 171.50" xmlns="http://www.w3.org/2000/svg" xmlns:xlink="http://www.w3.org/1999/xlink">
<g id="graph0" class="graph" transform="scale(1 1) rotate(0) translate(4 167.5)">
<title>netspeak::bighashmap::Builder::BuildMap</title>
<!-- Node1 -->
<g id="Node000001" class="node">
<title>Node1</title>
<g id="a_Node000001"><a xlink:title=" ">
<polygon fill="#999999" stroke="#666666" points="675,-123 547,-123 547,-93 675,-93 675,-123"/>
<text text-anchor="start" x="555" y="-111" font-family="Helvetica,sans-Serif" font-size="10.00">netspeak::bighashmap</text>
<text text-anchor="middle" x="611" y="-100" font-family="Helvetica,sans-Serif" font-size="10.00">::Builder::BuildMap</text>
</a>
</g>
</g>
<!-- Node2 -->
<g id="Node000002" class="node">
<title>Node2</title>
<g id="a_Node000002"><a xlink:href="classnetspeak_1_1bighashmap_1_1Builder.html#a66906e74a9afa4707cfb7c999c0c635a" target="_top" xlink:title=" ">
<polygon fill="white" stroke="#666666" points="511,-123 383,-123 383,-93 511,-93 511,-123"/>
<text text-anchor="start" x="391" y="-111" font-family="Helvetica,sans-Serif" font-size="10.00">netspeak::bighashmap</text>
<text text-anchor="middle" x="447" y="-100" font-family="Helvetica,sans-Serif" font-size="10.00">::Builder::Build</text>
</a>
</g>
</g>
<!-- Node1&#45;&gt;Node2 -->
<g id="edge1_Node000001_Node000002" class="edge">
<title>Node1&#45;&gt;Node2</title>
<g id="a_edge1_Node000001_Node000002"><a xlink:title=" ">
<path fill="none" stroke="#63b8ff" d="M536.63,-108C528.14,-108 519.53,-108 511.19,-108"/>
<polygon fill="#63b8ff" stroke="#63b8ff" points="536.9,-111.5 546.9,-108 536.9,-104.5 536.9,-111.5"/>
</a>
</g>
</g>
<!-- Node3 -->
<g id="Node000003" class="node">
<title>Node3</title>
<g id="a_Node000003"><a xlink:href="classnetspeak_1_1bighashmap_1_1BigHashMap.html#a962d40196fcce78f1ddef98eb3d8344c" target="_top" xlink:title=" ">
<polygon fill="white" stroke="#666666" points="343.5,-158 215.5,-158 215.5,-128 343.5,-128 343.5,-158"/>
<text text-anchor="start" x="223.5" y="-146" font-family="Helvetica,sans-Serif" font-size="10.00">netspeak::bighashmap</text>
<text text-anchor="middle" x="279.5" y="-135" font-family="Helvetica,sans-Serif" font-size="10.00">::BigHashMap::Build</text>
</a>
</g>
</g>
<!-- Node2&#45;&gt;Node3 -->
<g id="edge2_Node000002_Node000003" class="edge">
<title>Node2&#45;&gt;Node3</title>
<g id="a_edge2_Node000002_Node000003"><a xlink:title=" ">
<path fill="none" stroke="#63b8ff" d="M372.89,-123.46C363.13,-125.52 353.2,-127.63 343.64,-129.65"/>
<polygon fill="#63b8ff" stroke="#63b8ff" points="373.9,-126.83 382.96,-121.33 372.45,-119.98 373.9,-126.83"/>
</a>
</g>
</g>
<!-- Node5 -->
<g id="Node000005" class="node">
<title>Node5</title>
<g id="a_Node000005"><a xlink:href="classnetspeak_1_1invertedindex_1_1StorageWriter.html#a504b8f6d78f6946fcdb5ee52b85348ce" target="_top" xlink:title=" ">
<polygon fill="white" stroke="#666666" points="347,-99 212,-99 212,-69 347,-69 347,-99"/>
<text text-anchor="start" x="220" y="-87" font-family="Helvetica,sans-Serif" font-size="10.00">netspeak::invertedindex</text>
<text text-anchor="middle" x="279.5" y="-76" font-family="Helvetica,sans-Serif" font-size="10.00">::StorageWriter::close</text>
</a>
</g>
</g>
<!-- Node2&#45;&gt;Node5 -->
<g id="edge4_Node000002_Node000005" class="edge">
<title>Node2&#45;&gt;Node5</title>
<g id="a_edge4_Node000002_Node000005"><a xlink:title=" ">
<path fill="none" stroke="#63b8ff" d="M372.98,-97.41C364.41,-96.17 355.7,-94.9 347.22,-93.68"/>
<polygon fill="#63b8ff" stroke="#63b8ff" points="372.56,-100.89 382.96,-98.86 373.57,-93.96 372.56,-100.89"/>
</a>
</g>
</g>
<!-- Node4 -->
<g id="Node000004" class="node">
<title>Node4</title>
<g id="a_Node000004"><a xlink:href="namespacenetspeak.html#a84f2fcf7a89eca20f721ce3c30b85001" target="_top" xlink:title=" ">
<polygon fill="white" stroke="#666666" points="176,-163.5 0,-163.5 0,-144.5 176,-144.5 176,-163.5"/>
<text text-anchor="middle" x="88" y="-151.5" font-family="Helvetica,sans-Serif" font-size="10.00">netspeak::BuildPhraseDictionary</text>
</a>
</g>
</g>
<!-- Node3&#45;&gt;Node4 -->
<g id="edge3_Node000003_Node000004" class="edge">
<title>Node3&#45;&gt;Node4</title>
<g id="a_edge3_Node000003_Node000004"><a xlink:title=" ">
<path fill="none" stroke="#63b8ff" d="M205.2,-147.25C195.68,-147.81 185.84,-148.38 176.12,-148.94"/>
<polygon fill="#63b8ff" stroke="#63b8ff" points="205.62,-150.74 215.4,-146.66 205.21,-143.75 205.62,-150.74"/>
</a>
</g>
</g>
<!-- Node6 -->
<g id="Node000006" class="node">
<title>Node6</title>
<g id="a_Node000006"><a xlink:href="classnetspeak_1_1invertedindex_1_1UnsortedInput.html#a3bf52078c65c198e542a3e16d42eff20" target="_top" xlink:title=" ">
<polygon fill="white" stroke="#666666" points="155.5,-126 20.5,-126 20.5,-96 155.5,-96 155.5,-126"/>
<text text-anchor="start" x="28.5" y="-114" font-family="Helvetica,sans-Serif" font-size="10.00">netspeak::invertedindex</text>
<text text-anchor="middle" x="88" y="-103" font-family="Helvetica,sans-Serif" font-size="10.00">::UnsortedInput::index</text>
</a>
</g>
</g>
<!-- Node5&#45;&gt;Node6 -->
<g id="edge5_Node000005_Node000006" class="edge">
<title>Node5&#45;&gt;Node6</title>
<g id="a_edge5_Node000005_Node000006"><a xlink:title=" ">
<path fill="none" stroke="#63b8ff" d="M201.99,-94.9C186.66,-97.08 170.67,-99.36 155.7,-101.5"/>
<polygon fill="#63b8ff" stroke="#63b8ff" points="202.55,-98.36 211.96,-93.48 201.56,-91.43 202.55,-98.36"/>
</a>
</g>
</g>
<!-- Node7 -->
<g id="Node000007" class="node">
<title>Node7</title>
<g id="a_Node000007"><a xlink:href="classnetspeak_1_1invertedindex_1_1SortedInput.html#ae3183e635b4fa91c0b855773b95ce99c" target="_top" xlink:title=" ">
<polygon fill="white" stroke="#666666" points="155.5,-78 20.5,-78 20.5,-48 155.5,-48 155.5,-78"/>
<text text-anchor="start" x="28.5" y="-66" font-family="Helvetica,sans-Serif" font-size="10.00">netspeak::invertedindex</text>
<text text-anchor="middle" x="88" y="-55" font-family="Helvetica,sans-Serif" font-size="10.00">::SortedInput::index</text>
</a>
</g>
</g>
<!-- Node5&#45;&gt;Node7 -->
<g id="edge6_Node000005_Node000007" class="edge">
<title>Node5&#45;&gt;Node7</title>
<g id="a_edge6_Node000005_Node000007"><a xlink:title=" ">
<path fill="none" stroke="#63b8ff" d="M201.99,-75.52C186.66,-73.82 170.67,-72.05 155.7,-70.39"/>
<polygon fill="#63b8ff" stroke="#63b8ff" points="201.63,-79 211.96,-76.63 202.4,-72.05 201.63,-79"/>
</a>
</g>
</g>
<!-- Node8 -->
<g id="Node000008" class="node">
<title>Node8</title>
<g id="a_Node000008"><a xlink:href="classnetspeak_1_1invertedindex_1_1StorageWriter.html#af783f33c33c210523e44c0aef00b7ccd" target="_top" xlink:title=" ">
<polygon fill="white" stroke="#666666" points="174,-30 2,-30 2,0 174,0 174,-30"/>
<text text-anchor="start" x="10" y="-18" font-family="Helvetica,sans-Serif" font-size="10.00">netspeak::invertedindex</text>
<text text-anchor="middle" x="88" y="-7" font-family="Helvetica,sans-Serif" font-size="10.00">::StorageWriter::~StorageWriter</text>
</a>
</g>
</g>
<!-- Node5&#45;&gt;Node8 -->
<g id="edge7_Node000005_Node000008" class="edge">
<title>Node5&#45;&gt;Node8</title>
<g id="a_edge7_Node000005_Node000008"><a xlink:title=" ">
<path fill="none" stroke="#63b8ff" d="M238.04,-64.62C219.4,-56.12 196.84,-46.4 176,-39 167.14,-35.85 157.66,-32.86 148.33,-30.13"/>
<polygon fill="#63b8ff" stroke="#63b8ff" points="236.57,-67.8 247.12,-68.81 239.51,-61.44 236.57,-67.8"/>
</a>
</g>
</g>
</g>
</svg>
