<?xml version="1.0" encoding="UTF-8" standalone="no"?>
<!DOCTYPE svg PUBLIC "-//W3C//DTD SVG 1.1//EN"
 "http://www.w3.org/Graphics/SVG/1.1/DTD/svg11.dtd">
<!-- Generated by graphviz version 2.43.0 (0)
 -->
<!-- Title: netspeak::invertedindex::RawSearcher Pages: 1 -->
<svg width="326pt" height="430pt"
 viewBox="0.00 0.00 325.50 430.00" xmlns="http://www.w3.org/2000/svg" xmlns:xlink="http://www.w3.org/1999/xlink">
<g id="graph0" class="graph" transform="scale(1 1) rotate(0) translate(4 426)">
<title>netspeak::invertedindex::RawSearcher</title>
<!-- Node1 -->
<g id="Node000001" class="node">
<title>Node1</title>
<g id="a_Node000001"><a xlink:title=" ">
<polygon fill="#999999" stroke="transparent" points="213,-422 84,-422 84,-302 213,-302 213,-422"/>
<text text-anchor="start" x="89.5" y="-410" font-family="Helvetica,sans-Serif" font-size="10.00">netspeak::invertedindex</text>
<text text-anchor="start" x="114" y="-399" font-family="Helvetica,sans-Serif" font-size="10.00">::RawSearcher</text>
<text text-anchor="start" x="147" y="-384" font-family="Helvetica,sans-Serif" font-size="10.00"> </text>
<text text-anchor="start" x="89" y="-369" font-family="Helvetica,sans-Serif" font-size="10.00">+</text>
<text text-anchor="start" x="102.5" y="-369" font-family="Helvetica,sans-Serif" font-size="10.00">~RawSearcher()</text>
<text text-anchor="start" x="89" y="-354" font-family="Helvetica,sans-Serif" font-size="10.00">+</text>
<text text-anchor="start" x="102.5" y="-354" font-family="Helvetica,sans-Serif" font-size="10.00">close()</text>
<text text-anchor="start" x="89" y="-339" font-family="Helvetica,sans-Serif" font-size="10.00">+</text>
<text text-anchor="start" x="102.5" y="-339" font-family="Helvetica,sans-Serif" font-size="10.00">search_head()</text>
<text text-anchor="start" x="89" y="-324" font-family="Helvetica,sans-Serif" font-size="10.00">+</text>
<text text-anchor="start" x="102.5" y="-324" font-family="Helvetica,sans-Serif" font-size="10.00">search_raw_postlist()</text>
<text text-anchor="start" x="89" y="-309" font-family="Helvetica,sans-Serif" font-size="10.00">+</text>
<text text-anchor="start" x="102.5" y="-309" font-family="Helvetica,sans-Serif" font-size="10.00">properties()</text>
<polygon fill="#666666" stroke="#666666" points="84.5,-394 84.5,-394 213.5,-394 213.5,-394 84.5,-394"/>
<polygon fill="#666666" stroke="#666666" points="84.5,-379 84.5,-379 213.5,-379 213.5,-379 84.5,-379"/>
<polygon fill="none" stroke="#666666" points="84,-302 84,-422 213,-422 213,-302 84,-302"/>
</a>
</g>
</g>
<!-- Node2 -->
<g id="Node000002" class="node">
<title>Node2</title>
<g id="a_Node000002"><a xlink:href="classnetspeak_1_1invertedindex_1_1Searcher.html" target="_top" xlink:title=" ">
<polygon fill="white" stroke="transparent" points="129,-266 0,-266 0,0 129,0 129,-266"/>
<text text-anchor="start" x="5.5" y="-254" font-family="Helvetica,sans-Serif" font-size="10.00">netspeak::invertedindex</text>
<text text-anchor="start" x="5.5" y="-243" font-family="Helvetica,sans-Serif" font-size="10.00">::Searcher&lt; netspeak::</text>
<text text-anchor="start" x="33" y="-232" font-family="Helvetica,sans-Serif" font-size="10.00">value::pair &gt;</text>
<text text-anchor="start" x="7.5" y="-217" font-family="Helvetica,sans-Serif" font-size="10.00">&#45;</text>
<text text-anchor="start" x="18.5" y="-217" font-family="Helvetica,sans-Serif" font-size="10.00">config_</text>
<text text-anchor="start" x="7.5" y="-202" font-family="Helvetica,sans-Serif" font-size="10.00">&#45;</text>
<text text-anchor="start" x="18.5" y="-202" font-family="Helvetica,sans-Serif" font-size="10.00">props_</text>
<text text-anchor="start" x="7.5" y="-187" font-family="Helvetica,sans-Serif" font-size="10.00">&#45;</text>
<text text-anchor="start" x="18.5" y="-187" font-family="Helvetica,sans-Serif" font-size="10.00">storage_</text>
<text text-anchor="start" x="5" y="-172" font-family="Helvetica,sans-Serif" font-size="10.00">+</text>
<text text-anchor="start" x="18.5" y="-172" font-family="Helvetica,sans-Serif" font-size="10.00">Searcher()</text>
<text text-anchor="start" x="5" y="-157" font-family="Helvetica,sans-Serif" font-size="10.00">+</text>
<text text-anchor="start" x="18.5" y="-157" font-family="Helvetica,sans-Serif" font-size="10.00">Searcher()</text>
<text text-anchor="start" x="5" y="-142" font-family="Helvetica,sans-Serif" font-size="10.00">+</text>
<text text-anchor="start" x="18.5" y="-142" font-family="Helvetica,sans-Serif" font-size="10.00">~Searcher()</text>
<text text-anchor="start" x="5" y="-127" font-family="Helvetica,sans-Serif" font-size="10.00">+</text>
<text text-anchor="start" x="18.5" y="-127" font-family="Helvetica,sans-Serif" font-size="10.00">close()</text>
<text text-anchor="start" x="5" y="-112" font-family="Helvetica,sans-Serif" font-size="10.00">+</text>
<text text-anchor="start" x="18.5" y="-112" font-family="Helvetica,sans-Serif" font-size="10.00">is_open()</text>
<text text-anchor="start" x="5" y="-97" font-family="Helvetica,sans-Serif" font-size="10.00">+</text>
<text text-anchor="start" x="18.5" y="-97" font-family="Helvetica,sans-Serif" font-size="10.00">open()</text>
<text text-anchor="start" x="5" y="-82" font-family="Helvetica,sans-Serif" font-size="10.00">+</text>
<text text-anchor="start" x="18.5" y="-82" font-family="Helvetica,sans-Serif" font-size="10.00">search_head()</text>
<text text-anchor="start" x="5" y="-67" font-family="Helvetica,sans-Serif" font-size="10.00">+</text>
<text text-anchor="start" x="18.5" y="-67" font-family="Helvetica,sans-Serif" font-size="10.00">search_postlist()</text>
<text text-anchor="start" x="5" y="-52" font-family="Helvetica,sans-Serif" font-size="10.00">+</text>
<text text-anchor="start" x="18.5" y="-52" font-family="Helvetica,sans-Serif" font-size="10.00">search_raw_postlist()</text>
<text text-anchor="start" x="5" y="-37" font-family="Helvetica,sans-Serif" font-size="10.00">+</text>
<text text-anchor="start" x="18.5" y="-37" font-family="Helvetica,sans-Serif" font-size="10.00">configuration()</text>
<text text-anchor="start" x="5" y="-22" font-family="Helvetica,sans-Serif" font-size="10.00">+</text>
<text text-anchor="start" x="18.5" y="-22" font-family="Helvetica,sans-Serif" font-size="10.00">properties()</text>
<text text-anchor="start" x="7.5" y="-7" font-family="Helvetica,sans-Serif" font-size="10.00">&#45;</text>
<text text-anchor="start" x="18.5" y="-7" font-family="Helvetica,sans-Serif" font-size="10.00">assert_properties()</text>
<polygon fill="#666666" stroke="#666666" points="0.5,-227 0.5,-227 129.5,-227 129.5,-227 0.5,-227"/>
<polygon fill="#666666" stroke="#666666" points="0.5,-182 0.5,-182 16.5,-182 16.5,-182 0.5,-182"/>
<polygon fill="#666666" stroke="#666666" points="16.5,-182 16.5,-182 129.5,-182 129.5,-182 16.5,-182"/>
<polygon fill="none" stroke="#666666" points="0,0 0,-266 129,-266 129,0 0,0"/>
</a>
</g>
</g>
<!-- Node1&#45;&gt;Node2 -->
<g id="edge1_Node000001_Node000002" class="edge">
<title>Node1&#45;&gt;Node2</title>
<g id="a_edge1_Node000001_Node000002"><a xlink:title=" ">
<path fill="none" stroke="#63b8ff" d="M123.09,-292.32C119.99,-283.96 116.75,-275.21 113.46,-266.3"/>
<polygon fill="none" stroke="#63b8ff" points="119.9,-293.79 126.65,-301.95 126.46,-291.36 119.9,-293.79"/>
</a>
</g>
</g>
<!-- Node3 -->
<g id="Node000003" class="node">
<title>Node3</title>
<g id="a_Node000003"><a xlink:href="classnetspeak_1_1invertedindex_1_1Searcher.html" target="_top" xlink:title=" ">
<polygon fill="white" stroke="transparent" points="317.5,-260.5 147.5,-260.5 147.5,-5.5 317.5,-5.5 317.5,-260.5"/>
<text text-anchor="start" x="152.5" y="-248" font-family="Helvetica,sans-Serif" font-size="10.00">netspeak::invertedindex</text>
<text text-anchor="start" x="152.5" y="-237" font-family="Helvetica,sans-Serif" font-size="10.00">::Searcher&lt; Value, ThreadSafe &gt;</text>
<text text-anchor="start" x="165" y="-222" font-family="Helvetica,sans-Serif" font-size="10.00">&#45;</text>
<text text-anchor="start" x="186.5" y="-222" font-family="Helvetica,sans-Serif" font-size="10.00">config_</text>
<text text-anchor="start" x="165" y="-207" font-family="Helvetica,sans-Serif" font-size="10.00">&#45;</text>
<text text-anchor="start" x="186.5" y="-207" font-family="Helvetica,sans-Serif" font-size="10.00">props_</text>
<text text-anchor="start" x="165" y="-192" font-family="Helvetica,sans-Serif" font-size="10.00">&#45;</text>
<text text-anchor="start" x="186.5" y="-192" font-family="Helvetica,sans-Serif" font-size="10.00">storage_</text>
<text text-anchor="start" x="162.5" y="-177" font-family="Helvetica,sans-Serif" font-size="10.00">+</text>
<text text-anchor="start" x="186.5" y="-177" font-family="Helvetica,sans-Serif" font-size="10.00">Searcher()</text>
<text text-anchor="start" x="162.5" y="-162" font-family="Helvetica,sans-Serif" font-size="10.00">+</text>
<text text-anchor="start" x="186.5" y="-162" font-family="Helvetica,sans-Serif" font-size="10.00">Searcher()</text>
<text text-anchor="start" x="162.5" y="-147" font-family="Helvetica,sans-Serif" font-size="10.00">+</text>
<text text-anchor="start" x="186.5" y="-147" font-family="Helvetica,sans-Serif" font-size="10.00">~Searcher()</text>
<text text-anchor="start" x="162.5" y="-132" font-family="Helvetica,sans-Serif" font-size="10.00">+</text>
<text text-anchor="start" x="186.5" y="-132" font-family="Helvetica,sans-Serif" font-size="10.00">close()</text>
<text text-anchor="start" x="162.5" y="-117" font-family="Helvetica,sans-Serif" font-size="10.00">+</text>
<text text-anchor="start" x="186.5" y="-117" font-family="Helvetica,sans-Serif" font-size="10.00">is_open()</text>
<text text-anchor="start" x="162.5" y="-102" font-family="Helvetica,sans-Serif" font-size="10.00">+</text>
<text text-anchor="start" x="186.5" y="-102" font-family="Helvetica,sans-Serif" font-size="10.00">open()</text>
<text text-anchor="start" x="162.5" y="-87" font-family="Helvetica,sans-Serif" font-size="10.00">+</text>
<text text-anchor="start" x="186.5" y="-87" font-family="Helvetica,sans-Serif" font-size="10.00">search_head()</text>
<text text-anchor="start" x="162.5" y="-72" font-family="Helvetica,sans-Serif" font-size="10.00">+</text>
<text text-anchor="start" x="186.5" y="-72" font-family="Helvetica,sans-Serif" font-size="10.00">search_postlist()</text>
<text text-anchor="start" x="162.5" y="-57" font-family="Helvetica,sans-Serif" font-size="10.00">+</text>
<text text-anchor="start" x="186.5" y="-57" font-family="Helvetica,sans-Serif" font-size="10.00">search_raw_postlist()</text>
<text text-anchor="start" x="162.5" y="-42" font-family="Helvetica,sans-Serif" font-size="10.00">+</text>
<text text-anchor="start" x="186.5" y="-42" font-family="Helvetica,sans-Serif" font-size="10.00">configuration()</text>
<text text-anchor="start" x="162.5" y="-27" font-family="Helvetica,sans-Serif" font-size="10.00">+</text>
<text text-anchor="start" x="186.5" y="-27" font-family="Helvetica,sans-Serif" font-size="10.00">properties()</text>
<text text-anchor="start" x="165" y="-12" font-family="Helvetica,sans-Serif" font-size="10.00">&#45;</text>
<text text-anchor="start" x="186.5" y="-12" font-family="Helvetica,sans-Serif" font-size="10.00">assert_properties()</text>
<polygon fill="#666666" stroke="#666666" points="147.5,-232 147.5,-232 317.5,-232 317.5,-232 147.5,-232"/>
<polygon fill="#666666" stroke="#666666" points="147.5,-187 147.5,-187 184.5,-187 184.5,-187 147.5,-187"/>
<polygon fill="#666666" stroke="#666666" points="184.5,-187 184.5,-187 317.5,-187 317.5,-187 184.5,-187"/>
<polygon fill="none" stroke="#666666" points="147.5,-5.5 147.5,-260.5 317.5,-260.5 317.5,-5.5 147.5,-5.5"/>
</a>
</g>
</g>
<!-- Node1&#45;&gt;Node3 -->
<g id="edge2_Node000001_Node000003" class="edge">
<title>Node1&#45;&gt;Node3</title>
<g id="a_edge2_Node000001_Node000003"><a xlink:title=" ">
<path fill="none" stroke="#63b8ff" d="M173.89,-292.4C177.65,-282.23 181.62,-271.5 185.65,-260.6"/>
<polygon fill="none" stroke="#63b8ff" points="170.54,-291.36 170.35,-301.95 177.1,-293.79 170.54,-291.36"/>
</a>
</g>
</g>
</g>
</svg>
