<?xml version="1.0" encoding="UTF-8" standalone="no"?>
<!DOCTYPE svg PUBLIC "-//W3C//DTD SVG 1.1//EN"
 "http://www.w3.org/Graphics/SVG/1.1/DTD/svg11.dtd">
<!-- Generated by graphviz version 2.43.0 (0)
 -->
<!-- Title: netspeak::QuerySimplifier::order_to_simple Pages: 1 -->
<svg width="915pt" height="624pt"
 viewBox="0.00 0.00 915.00 623.50" xmlns="http://www.w3.org/2000/svg" xmlns:xlink="http://www.w3.org/1999/xlink">
<g id="graph0" class="graph" transform="scale(1 1) rotate(0) translate(4 619.5)">
<title>netspeak::QuerySimplifier::order_to_simple</title>
<!-- Node1 -->
<g id="Node000001" class="node">
<title>Node1</title>
<g id="a_Node000001"><a xlink:title=" ">
<polygon fill="#999999" stroke="#666666" points="143,-325.5 0,-325.5 0,-295.5 143,-295.5 143,-325.5"/>
<text text-anchor="start" x="8" y="-313.5" font-family="Helvetica,sans-Serif" font-size="10.00">netspeak::QuerySimplifier</text>
<text text-anchor="middle" x="71.5" y="-302.5" font-family="Helvetica,sans-Serif" font-size="10.00">::order_to_simple</text>
</a>
</g>
</g>
<!-- Node2 -->
<g id="Node000002" class="node">
<title>Node2</title>
<g id="a_Node000002"><a xlink:href="classnetspeak_1_1QuerySimplifier.html#a6cbbe38bc9244210c3f76635f30daaa3" target="_top" xlink:title=" ">
<polygon fill="white" stroke="#666666" points="692,-469.5 549,-469.5 549,-439.5 692,-439.5 692,-469.5"/>
<text text-anchor="start" x="557" y="-457.5" font-family="Helvetica,sans-Serif" font-size="10.00">netspeak::QuerySimplifier</text>
<text text-anchor="middle" x="620.5" y="-446.5" font-family="Helvetica,sans-Serif" font-size="10.00">::add_to_concat</text>
</a>
</g>
</g>
<!-- Node1&#45;&gt;Node2 -->
<g id="edge1_Node000001_Node000002" class="edge">
<title>Node1&#45;&gt;Node2</title>
<g id="a_edge1_Node000001_Node000002"><a xlink:title=" ">
<path fill="none" stroke="#63b8ff" d="M79.23,-325.95C93.33,-356.64 128.9,-425.66 179,-464.5 246.01,-516.45 274.53,-515.6 358,-530.5 420.57,-541.67 443.1,-556.71 501,-530.5 523.09,-520.5 517.34,-503.7 537,-489.5 545.41,-483.42 555.04,-478.14 564.68,-473.64"/>
<polygon fill="#63b8ff" stroke="#63b8ff" points="566.15,-476.82 573.88,-469.58 563.32,-470.42 566.15,-476.82"/>
</a>
</g>
</g>
<!-- Node6 -->
<g id="Node000006" class="node">
<title>Node6</title>
<g id="a_Node000006"><a xlink:href="namespacenetspeak_1_1util.html#a907f0924900ed20d328dd2ac8db7aad0" target="_top" xlink:title=" ">
<polygon fill="white" stroke="#666666" points="315.5,-19 185.5,-19 185.5,0 315.5,0 315.5,-19"/>
<text text-anchor="middle" x="250.5" y="-7" font-family="Helvetica,sans-Serif" font-size="10.00">netspeak::util::factorial</text>
</a>
</g>
</g>
<!-- Node1&#45;&gt;Node6 -->
<g id="edge5_Node000001_Node000006" class="edge">
<title>Node1&#45;&gt;Node6</title>
<g id="a_edge5_Node000001_Node000006"><a xlink:title=" ">
<path fill="none" stroke="#63b8ff" d="M73.88,-295.47C78.9,-249.49 100.28,-109.22 179,-33.5 183.24,-29.42 188.2,-26.04 193.48,-23.23"/>
<polygon fill="#63b8ff" stroke="#63b8ff" points="195.01,-26.38 202.63,-19.02 192.08,-20.02 195.01,-26.38"/>
</a>
</g>
</g>
<!-- Node8 -->
<g id="Node000008" class="node">
<title>Node8</title>
<g id="a_Node000008"><a xlink:href="classnetspeak_1_1model_1_1SimpleQueryUnit____.html#a3080baa4a48b461ec365cec8f3aa967c" target="_top" xlink:title=" ">
<polygon fill="white" stroke="#666666" points="704,-229.5 537,-229.5 537,-199.5 704,-199.5 704,-229.5"/>
<text text-anchor="start" x="545" y="-217.5" font-family="Helvetica,sans-Serif" font-size="10.00">netspeak::model::SimpleQuery</text>
<text text-anchor="middle" x="620.5" y="-206.5" font-family="Helvetica,sans-Serif" font-size="10.00">Unit__::new_alternation</text>
</a>
</g>
</g>
<!-- Node1&#45;&gt;Node8 -->
<g id="edge7_Node000001_Node000008" class="edge">
<title>Node1&#45;&gt;Node8</title>
<g id="a_edge7_Node000001_Node000008"><a xlink:title=" ">
<path fill="none" stroke="#63b8ff" d="M83.89,-295.27C102.03,-271.8 139.45,-226.38 179,-196.5 250.37,-142.58 271.06,-125.53 358,-104.5 419.77,-89.55 446.45,-71.89 501,-104.5 530.01,-121.85 512.95,-147.75 537,-171.5 546.34,-180.72 558.07,-188.42 569.72,-194.64"/>
<polygon fill="#63b8ff" stroke="#63b8ff" points="568.5,-197.94 579,-199.31 571.64,-191.69 568.5,-197.94"/>
</a>
</g>
</g>
<!-- Node9 -->
<g id="Node000009" class="node">
<title>Node9</title>
<g id="a_Node000009"><a xlink:href="classnetspeak_1_1model_1_1SimpleQueryUnit____.html#a42d698a0c2b81bb96d5efb842e0c09cd" target="_top" xlink:title=" ">
<polygon fill="white" stroke="#666666" points="704,-421.5 537,-421.5 537,-391.5 704,-391.5 704,-421.5"/>
<text text-anchor="start" x="545" y="-409.5" font-family="Helvetica,sans-Serif" font-size="10.00">netspeak::model::SimpleQuery</text>
<text text-anchor="middle" x="620.5" y="-398.5" font-family="Helvetica,sans-Serif" font-size="10.00">Unit__::new_concat</text>
</a>
</g>
</g>
<!-- Node1&#45;&gt;Node9 -->
<g id="edge8_Node000001_Node000009" class="edge">
<title>Node1&#45;&gt;Node9</title>
<g id="a_edge8_Node000001_Node000009"><a xlink:title=" ">
<path fill="none" stroke="#63b8ff" d="M87.09,-325.52C126.38,-364.74 239.42,-469.71 358,-506.5 418.7,-525.33 447.29,-540.49 501,-506.5 532.58,-486.51 508.55,-454.74 537,-430.5 538.37,-429.34 539.79,-428.23 541.25,-427.17"/>
<polygon fill="#63b8ff" stroke="#63b8ff" points="543.43,-429.94 550.09,-421.71 539.74,-423.99 543.43,-429.94"/>
</a>
</g>
</g>
<!-- Node10 -->
<g id="Node000010" class="node">
<title>Node10</title>
<g id="a_Node000010"><a xlink:href="classnetspeak_1_1QuerySimplifier.html#a18ef84f764ae6f69b3cf33d616e6fc41" target="_top" xlink:title=" ">
<polygon fill="white" stroke="#666666" points="692,-325.5 549,-325.5 549,-295.5 692,-295.5 692,-325.5"/>
<text text-anchor="start" x="557" y="-313.5" font-family="Helvetica,sans-Serif" font-size="10.00">netspeak::QuerySimplifier</text>
<text text-anchor="middle" x="620.5" y="-302.5" font-family="Helvetica,sans-Serif" font-size="10.00">::to_source</text>
</a>
</g>
</g>
<!-- Node1&#45;&gt;Node10 -->
<g id="edge9_Node000001_Node000010" class="edge">
<title>Node1&#45;&gt;Node10</title>
<g id="a_edge9_Node000001_Node000010"><a xlink:title=" ">
<path fill="none" stroke="#63b8ff" d="M98.52,-295.36C147.38,-267.9 257.07,-210.85 358,-190.5 420.3,-177.94 448.76,-154.3 501,-190.5 538.45,-216.46 503.58,-255.52 537,-286.5 538.28,-287.69 539.61,-288.81 540.99,-289.88"/>
<polygon fill="#63b8ff" stroke="#63b8ff" points="539.1,-292.83 549.37,-295.44 542.97,-286.99 539.1,-292.83"/>
</a>
</g>
</g>
<!-- Node11 -->
<g id="Node000011" class="node">
<title>Node11</title>
<g id="a_Node000011"><a xlink:href="classnetspeak_1_1QuerySimplifier.html#ab2f06fcd290543e7a04f2e5614a5f719" target="_top" xlink:title=" ">
<polygon fill="white" stroke="#666666" points="322,-325.5 179,-325.5 179,-295.5 322,-295.5 322,-325.5"/>
<text text-anchor="start" x="187" y="-313.5" font-family="Helvetica,sans-Serif" font-size="10.00">netspeak::QuerySimplifier</text>
<text text-anchor="middle" x="250.5" y="-302.5" font-family="Helvetica,sans-Serif" font-size="10.00">::unit_to_simple</text>
</a>
</g>
</g>
<!-- Node1&#45;&gt;Node11 -->
<g id="edge10_Node000001_Node000011" class="edge">
<title>Node1&#45;&gt;Node11</title>
<g id="a_edge10_Node000001_Node000011"><a xlink:title=" ">
<path fill="none" stroke="#63b8ff" d="M143.22,-303.87C151.57,-303.76 160.14,-303.72 168.62,-303.77"/>
<polygon fill="#63b8ff" stroke="#63b8ff" points="168.86,-307.27 178.89,-303.87 168.93,-300.28 168.86,-307.27"/>
</a>
</g>
</g>
<!-- Node3 -->
<g id="Node000003" class="node">
<title>Node3</title>
<g id="a_Node000003"><a xlink:href="classnetspeak_1_1model_1_1SimpleQueryUnit____.html#a9ae973c7bcbb9faa098c64327bad3073" target="_top" xlink:title=" ">
<polygon fill="white" stroke="#666666" points="907,-397.5 740,-397.5 740,-367.5 907,-367.5 907,-397.5"/>
<text text-anchor="start" x="748" y="-385.5" font-family="Helvetica,sans-Serif" font-size="10.00">netspeak::model::SimpleQuery</text>
<text text-anchor="middle" x="823.5" y="-374.5" font-family="Helvetica,sans-Serif" font-size="10.00">Unit__::add_child</text>
</a>
</g>
</g>
<!-- Node2&#45;&gt;Node3 -->
<g id="edge2_Node000002_Node000003" class="edge">
<title>Node2&#45;&gt;Node3</title>
<g id="a_edge2_Node000002_Node000003"><a xlink:title=" ">
<path fill="none" stroke="#63b8ff" d="M676.33,-439.4C685.62,-436.6 695.12,-433.58 704,-430.5 729.03,-421.82 756.47,-410.8 778.64,-401.51"/>
<polygon fill="#63b8ff" stroke="#63b8ff" points="780.26,-404.62 788.11,-397.51 777.54,-398.18 780.26,-404.62"/>
</a>
</g>
</g>
<!-- Node4 -->
<g id="Node000004" class="node">
<title>Node4</title>
<g id="a_Node000004"><a xlink:href="classnetspeak_1_1model_1_1SimpleQueryUnit____.html#aa0ce1e648305547379b806a24111e7a0" target="_top" xlink:title=" ">
<polygon fill="white" stroke="#666666" points="907,-325.5 740,-325.5 740,-295.5 907,-295.5 907,-325.5"/>
<text text-anchor="start" x="748" y="-313.5" font-family="Helvetica,sans-Serif" font-size="10.00">netspeak::model::SimpleQuery</text>
<text text-anchor="middle" x="823.5" y="-302.5" font-family="Helvetica,sans-Serif" font-size="10.00">Unit__::drain_children</text>
</a>
</g>
</g>
<!-- Node2&#45;&gt;Node4 -->
<g id="edge3_Node000002_Node000004" class="edge">
<title>Node2&#45;&gt;Node4</title>
<g id="a_edge3_Node000002_Node000004"><a xlink:title=" ">
<path fill="none" stroke="#63b8ff" d="M690.43,-439.41C695.28,-436.89 699.88,-433.94 704,-430.5 731.48,-407.59 715.51,-384.59 740,-358.5 750.5,-347.31 764.21,-337.93 777.42,-330.52"/>
<polygon fill="#63b8ff" stroke="#63b8ff" points="779.27,-333.5 786.44,-325.71 775.97,-327.33 779.27,-333.5"/>
</a>
</g>
</g>
<!-- Node5 -->
<g id="Node000005" class="node">
<title>Node5</title>
<g id="a_Node000005"><a xlink:href="classnetspeak_1_1model_1_1SimpleQueryUnit____.html#a06c21084859addaa75c754815d691d39" target="_top" xlink:title=" ">
<polygon fill="white" stroke="#666666" points="907,-457.5 740,-457.5 740,-427.5 907,-427.5 907,-457.5"/>
<text text-anchor="start" x="748" y="-445.5" font-family="Helvetica,sans-Serif" font-size="10.00">netspeak::model::SimpleQuery</text>
<text text-anchor="middle" x="823.5" y="-434.5" font-family="Helvetica,sans-Serif" font-size="10.00">Unit__::tag</text>
</a>
</g>
</g>
<!-- Node2&#45;&gt;Node5 -->
<g id="edge4_Node000002_Node000005" class="edge">
<title>Node2&#45;&gt;Node5</title>
<g id="a_edge4_Node000002_Node000005"><a xlink:title=" ">
<path fill="none" stroke="#63b8ff" d="M692.08,-450.29C704.22,-449.56 717,-448.8 729.62,-448.05"/>
<polygon fill="#63b8ff" stroke="#63b8ff" points="729.92,-451.53 739.69,-447.44 729.5,-444.55 729.92,-451.53"/>
</a>
</g>
</g>
<!-- Node7 -->
<g id="Node000007" class="node">
<title>Node7</title>
<g id="a_Node000007"><a xlink:href="namespacenetspeak_1_1util.html#a4c91ad572508b4021399ac7dddff574d" target="_top" xlink:title=" ">
<polygon fill="white" stroke="#666666" points="486,-19 373,-19 373,0 486,0 486,-19"/>
<text text-anchor="middle" x="429.5" y="-7" font-family="Helvetica,sans-Serif" font-size="10.00">netspeak::util::hash</text>
</a>
</g>
</g>
<!-- Node6&#45;&gt;Node7 -->
<g id="edge6_Node000006_Node000007" class="edge">
<title>Node6&#45;&gt;Node7</title>
<g id="a_edge6_Node000006_Node000007"><a xlink:title=" ">
<path fill="none" stroke="#63b8ff" d="M315.65,-9.5C330.84,-9.5 347.07,-9.5 362.35,-9.5"/>
<polygon fill="#63b8ff" stroke="#63b8ff" points="362.76,-13 372.76,-9.5 362.76,-6 362.76,-13"/>
</a>
</g>
</g>
<!-- Node11&#45;&gt;Node1 -->
<g id="edge40_Node000011_Node000001" class="edge">
<title>Node11&#45;&gt;Node1</title>
<g id="a_edge40_Node000011_Node000001"><a xlink:title=" ">
<path fill="none" stroke="#63b8ff" d="M178.89,-317.13C170.54,-317.24 161.97,-317.28 153.49,-317.23"/>
<polygon fill="#63b8ff" stroke="#63b8ff" points="153.25,-313.73 143.22,-317.13 153.18,-320.73 153.25,-313.73"/>
</a>
</g>
</g>
<!-- Node11&#45;&gt;Node10 -->
<g id="edge51_Node000011_Node000010" class="edge">
<title>Node11&#45;&gt;Node10</title>
<g id="a_edge51_Node000011_Node000010"><a xlink:title=" ">
<path fill="none" stroke="#63b8ff" d="M307.48,-325.56C323.66,-329.24 341.42,-332.66 358,-334.5 421.17,-341.53 437.76,-340.84 501,-334.5 516.08,-332.99 532.07,-330.42 547.27,-327.51"/>
<polygon fill="#63b8ff" stroke="#63b8ff" points="548,-330.94 557.13,-325.56 546.64,-324.07 548,-330.94"/>
</a>
</g>
</g>
<!-- Node12 -->
<g id="Node000012" class="node">
<title>Node12</title>
<g id="a_Node000012"><a xlink:href="classnetspeak_1_1QuerySimplifier.html#a3b44d549420ef21f82bde54ad4858ba5" target="_top" xlink:title=" ">
<polygon fill="white" stroke="#666666" points="501,-229.5 358,-229.5 358,-199.5 501,-199.5 501,-229.5"/>
<text text-anchor="start" x="366" y="-217.5" font-family="Helvetica,sans-Serif" font-size="10.00">netspeak::QuerySimplifier</text>
<text text-anchor="middle" x="429.5" y="-206.5" font-family="Helvetica,sans-Serif" font-size="10.00">::alt_to_simple</text>
</a>
</g>
</g>
<!-- Node11&#45;&gt;Node12 -->
<g id="edge11_Node000011_Node000012" class="edge">
<title>Node11&#45;&gt;Node12</title>
<g id="a_edge11_Node000011_Node000012"><a xlink:title=" ">
<path fill="none" stroke="#63b8ff" d="M263.31,-295.3C280.74,-278.48 314.97,-252.5 349.19,-234.07"/>
<polygon fill="#63b8ff" stroke="#63b8ff" points="351.08,-237.04 358.35,-229.33 347.86,-230.82 351.08,-237.04"/>
</a>
</g>
</g>
<!-- Node14 -->
<g id="Node000014" class="node">
<title>Node14</title>
<g id="a_Node000014"><a xlink:href="classnetspeak_1_1QuerySimplifier.html#a1f629b768d053c64ba136f00661e601d" target="_top" xlink:title=" ">
<polygon fill="white" stroke="#666666" points="501,-449.5 358,-449.5 358,-419.5 501,-419.5 501,-449.5"/>
<text text-anchor="start" x="366" y="-437.5" font-family="Helvetica,sans-Serif" font-size="10.00">netspeak::QuerySimplifier</text>
<text text-anchor="middle" x="429.5" y="-426.5" font-family="Helvetica,sans-Serif" font-size="10.00">::concat_to_simple</text>
</a>
</g>
</g>
<!-- Node11&#45;&gt;Node14 -->
<g id="edge19_Node000011_Node000014" class="edge">
<title>Node11&#45;&gt;Node14</title>
<g id="a_edge19_Node000011_Node000014"><a xlink:title=" ">
<path fill="none" stroke="#63b8ff" d="M271.78,-325.59C292.03,-344.41 324.82,-375.73 358,-396.5 369.68,-403.81 383.53,-409.98 395.85,-415.32"/>
<polygon fill="#63b8ff" stroke="#63b8ff" points="394.76,-418.66 405.32,-419.44 397.55,-412.24 394.76,-418.66"/>
</a>
</g>
</g>
<!-- Node15 -->
<g id="Node000015" class="node">
<title>Node15</title>
<g id="a_Node000015"><a xlink:href="classnetspeak_1_1QuerySimplifier.html#ac1ac4b76923d0b209354bf42e2a59d00" target="_top" xlink:title=" ">
<polygon fill="white" stroke="#666666" points="501,-277.5 358,-277.5 358,-247.5 501,-247.5 501,-277.5"/>
<text text-anchor="start" x="366" y="-265.5" font-family="Helvetica,sans-Serif" font-size="10.00">netspeak::QuerySimplifier</text>
<text text-anchor="middle" x="429.5" y="-254.5" font-family="Helvetica,sans-Serif" font-size="10.00">::dict_to_simple</text>
</a>
</g>
</g>
<!-- Node11&#45;&gt;Node15 -->
<g id="edge24_Node000011_Node000015" class="edge">
<title>Node11&#45;&gt;Node15</title>
<g id="a_edge24_Node000011_Node000015"><a xlink:title=" ">
<path fill="none" stroke="#63b8ff" d="M307.02,-295.44C324.89,-290.6 344.86,-285.18 363.37,-280.16"/>
<polygon fill="#63b8ff" stroke="#63b8ff" points="364.44,-283.5 373.18,-277.5 362.61,-276.74 364.44,-283.5"/>
</a>
</g>
</g>
<!-- Node16 -->
<g id="Node000016" class="node">
<title>Node16</title>
<g id="a_Node000016"><a xlink:href="classnetspeak_1_1QuerySimplifier.html#a6370b7569ff3cd8fe257c76f23ed166b" target="_top" xlink:title=" ">
<polygon fill="white" stroke="#666666" points="692,-162.5 549,-162.5 549,-132.5 692,-132.5 692,-162.5"/>
<text text-anchor="start" x="557" y="-150.5" font-family="Helvetica,sans-Serif" font-size="10.00">netspeak::QuerySimplifier</text>
<text text-anchor="middle" x="620.5" y="-139.5" font-family="Helvetica,sans-Serif" font-size="10.00">::get_text</text>
</a>
</g>
</g>
<!-- Node11&#45;&gt;Node16 -->
<g id="edge30_Node000011_Node000016" class="edge">
<title>Node11&#45;&gt;Node16</title>
<g id="a_edge30_Node000011_Node000016"><a xlink:title=" ">
<path fill="none" stroke="#63b8ff" d="M253.94,-295.22C261.24,-255.26 286.98,-147.73 358,-104.5 412.29,-71.45 439.31,-89.22 501,-104.5 518.56,-108.85 520.23,-116.72 537,-123.5 542.01,-125.53 547.26,-127.46 552.58,-129.29"/>
<polygon fill="#63b8ff" stroke="#63b8ff" points="551.59,-132.65 562.18,-132.46 553.78,-126 551.59,-132.65"/>
</a>
</g>
</g>
<!-- Node17 -->
<g id="Node000017" class="node">
<title>Node17</title>
<g id="a_Node000017"><a xlink:href="classnetspeak_1_1model_1_1SimpleQueryUnit____.html#aec3288b9da92b0fdeedcec37c09572c4" target="_top" xlink:title=" ">
<polygon fill="white" stroke="#666666" points="704,-373.5 537,-373.5 537,-343.5 704,-343.5 704,-373.5"/>
<text text-anchor="start" x="545" y="-361.5" font-family="Helvetica,sans-Serif" font-size="10.00">netspeak::model::SimpleQuery</text>
<text text-anchor="middle" x="620.5" y="-350.5" font-family="Helvetica,sans-Serif" font-size="10.00">Unit__::new_word</text>
</a>
</g>
</g>
<!-- Node11&#45;&gt;Node17 -->
<g id="edge33_Node000011_Node000017" class="edge">
<title>Node11&#45;&gt;Node17</title>
<g id="a_edge33_Node000011_Node000017"><a xlink:title=" ">
<path fill="none" stroke="#63b8ff" d="M283.32,-325.6C304.07,-334.65 332.04,-345.37 358,-350.5 413.24,-361.41 476.29,-363.63 526.65,-363.01"/>
<polygon fill="#63b8ff" stroke="#63b8ff" points="526.92,-366.51 536.87,-362.85 526.81,-359.51 526.92,-366.51"/>
</a>
</g>
</g>
<!-- Node18 -->
<g id="Node000018" class="node">
<title>Node18</title>
<g id="a_Node000018"><a xlink:href="classnetspeak_1_1model_1_1SimpleQueryUnit____.html#a44428178c9365d823c13fa04d5f9bad6" target="_top" xlink:title=" ">
<polygon fill="white" stroke="#666666" points="704,-615.5 537,-615.5 537,-585.5 704,-585.5 704,-615.5"/>
<text text-anchor="start" x="545" y="-603.5" font-family="Helvetica,sans-Serif" font-size="10.00">netspeak::model::SimpleQuery</text>
<text text-anchor="middle" x="620.5" y="-592.5" font-family="Helvetica,sans-Serif" font-size="10.00">Unit__::new_qmark</text>
</a>
</g>
</g>
<!-- Node11&#45;&gt;Node18 -->
<g id="edge31_Node000011_Node000018" class="edge">
<title>Node11&#45;&gt;Node18</title>
<g id="a_edge31_Node000011_Node000018"><a xlink:title=" ">
<path fill="none" stroke="#63b8ff" d="M254.14,-325.76C261.99,-366.4 289.09,-477.96 358,-534.5 405.28,-573.29 472.39,-589.68 526.79,-596.43"/>
<polygon fill="#63b8ff" stroke="#63b8ff" points="526.46,-599.91 536.79,-597.58 527.26,-592.96 526.46,-599.91"/>
</a>
</g>
</g>
<!-- Node19 -->
<g id="Node000019" class="node">
<title>Node19</title>
<g id="a_Node000019"><a xlink:href="classnetspeak_1_1model_1_1SimpleQueryUnit____.html#a399342037a597b05de0369743456d22f" target="_top" xlink:title=" ">
<polygon fill="white" stroke="#666666" points="704,-528.5 537,-528.5 537,-498.5 704,-498.5 704,-528.5"/>
<text text-anchor="start" x="545" y="-516.5" font-family="Helvetica,sans-Serif" font-size="10.00">netspeak::model::SimpleQuery</text>
<text text-anchor="middle" x="620.5" y="-505.5" font-family="Helvetica,sans-Serif" font-size="10.00">Unit__::new_star</text>
</a>
</g>
</g>
<!-- Node11&#45;&gt;Node19 -->
<g id="edge32_Node000011_Node000019" class="edge">
<title>Node11&#45;&gt;Node19</title>
<g id="a_edge32_Node000011_Node000019"><a xlink:title=" ">
<path fill="none" stroke="#63b8ff" d="M254.38,-325.52C262.6,-363.79 290.15,-464.91 358,-506.5 414.04,-540.85 490.31,-538.6 546.01,-530.15"/>
<polygon fill="#63b8ff" stroke="#63b8ff" points="546.85,-533.56 556.16,-528.51 545.73,-526.65 546.85,-533.56"/>
</a>
</g>
</g>
<!-- Node20 -->
<g id="Node000020" class="node">
<title>Node20</title>
<g id="a_Node000020"><a xlink:href="classnetspeak_1_1QuerySimplifier.html#abafc853573d650c19c989cebbdc10ce4" target="_top" xlink:title=" ">
<polygon fill="white" stroke="#666666" points="501,-325.5 358,-325.5 358,-295.5 501,-295.5 501,-325.5"/>
<text text-anchor="start" x="366" y="-313.5" font-family="Helvetica,sans-Serif" font-size="10.00">netspeak::QuerySimplifier</text>
<text text-anchor="middle" x="429.5" y="-302.5" font-family="Helvetica,sans-Serif" font-size="10.00">::option_to_simple</text>
</a>
</g>
</g>
<!-- Node11&#45;&gt;Node20 -->
<g id="edge34_Node000011_Node000020" class="edge">
<title>Node11&#45;&gt;Node20</title>
<g id="a_edge34_Node000011_Node000020"><a xlink:title=" ">
<path fill="none" stroke="#63b8ff" d="M322.22,-303.87C330.57,-303.76 339.14,-303.72 347.62,-303.77"/>
<polygon fill="#63b8ff" stroke="#63b8ff" points="347.86,-307.27 357.89,-303.87 347.93,-300.28 347.86,-307.27"/>
</a>
</g>
</g>
<!-- Node21 -->
<g id="Node000021" class="node">
<title>Node21</title>
<g id="a_Node000021"><a xlink:href="classnetspeak_1_1QuerySimplifier.html#aa609db274838f9056f0051d2b391c77c" target="_top" xlink:title=" ">
<polygon fill="white" stroke="#666666" points="501,-497.5 358,-497.5 358,-467.5 501,-467.5 501,-497.5"/>
<text text-anchor="start" x="366" y="-485.5" font-family="Helvetica,sans-Serif" font-size="10.00">netspeak::QuerySimplifier</text>
<text text-anchor="middle" x="429.5" y="-474.5" font-family="Helvetica,sans-Serif" font-size="10.00">::plus_to_simple</text>
</a>
</g>
</g>
<!-- Node11&#45;&gt;Node21 -->
<g id="edge41_Node000011_Node000021" class="edge">
<title>Node11&#45;&gt;Node21</title>
<g id="a_edge41_Node000011_Node000021"><a xlink:title=" ">
<path fill="none" stroke="#63b8ff" d="M258.53,-325.91C272.94,-355.8 308.65,-421.94 358,-458.5 359.86,-459.88 361.8,-461.18 363.8,-462.41"/>
<polygon fill="#63b8ff" stroke="#63b8ff" points="362.48,-465.67 372.94,-467.35 365.81,-459.51 362.48,-465.67"/>
</a>
</g>
</g>
<!-- Node22 -->
<g id="Node000022" class="node">
<title>Node22</title>
<g id="a_Node000022"><a xlink:href="classnetspeak_1_1QuerySimplifier.html#a7a61e022386f41896500001dcd46858c" target="_top" xlink:title=" ">
<polygon fill="white" stroke="#666666" points="501,-143.5 358,-143.5 358,-113.5 501,-113.5 501,-143.5"/>
<text text-anchor="start" x="366" y="-131.5" font-family="Helvetica,sans-Serif" font-size="10.00">netspeak::QuerySimplifier</text>
<text text-anchor="middle" x="429.5" y="-120.5" font-family="Helvetica,sans-Serif" font-size="10.00">::regex_to_simple</text>
</a>
</g>
</g>
<!-- Node11&#45;&gt;Node22 -->
<g id="edge46_Node000011_Node000022" class="edge">
<title>Node11&#45;&gt;Node22</title>
<g id="a_edge46_Node000011_Node000022"><a xlink:title=" ">
<path fill="none" stroke="#63b8ff" d="M264.05,-295.18C283.4,-271.83 322.07,-226.27 358,-190.5 371.97,-176.6 388.47,-162 401.99,-150.46"/>
<polygon fill="#63b8ff" stroke="#63b8ff" points="404.6,-152.83 409.98,-143.7 400.08,-147.49 404.6,-152.83"/>
</a>
</g>
</g>
<!-- Node12&#45;&gt;Node8 -->
<g id="edge16_Node000012_Node000008" class="edge">
<title>Node12&#45;&gt;Node8</title>
<g id="a_edge16_Node000012_Node000008"><a xlink:title=" ">
<path fill="none" stroke="#63b8ff" d="M501.15,-214.5C509.51,-214.5 518.14,-214.5 526.75,-214.5"/>
<polygon fill="#63b8ff" stroke="#63b8ff" points="526.84,-218 536.84,-214.5 526.84,-211 526.84,-218"/>
</a>
</g>
</g>
<!-- Node12&#45;&gt;Node10 -->
<g id="edge17_Node000012_Node000010" class="edge">
<title>Node12&#45;&gt;Node10</title>
<g id="a_edge17_Node000012_Node000010"><a xlink:title=" ">
<path fill="none" stroke="#63b8ff" d="M485.63,-229.57C491.06,-232.13 496.29,-235.08 501,-238.5 522.58,-254.16 515.07,-271.33 537,-286.5 539.15,-287.99 541.39,-289.38 543.69,-290.69"/>
<polygon fill="#63b8ff" stroke="#63b8ff" points="542.39,-293.95 552.89,-295.32 545.54,-287.7 542.39,-293.95"/>
</a>
</g>
</g>
<!-- Node12&#45;&gt;Node11 -->
<g id="edge18_Node000012_Node000011" class="edge">
<title>Node12&#45;&gt;Node11</title>
<g id="a_edge18_Node000012_Node000011"><a xlink:title=" ">
<path fill="none" stroke="#63b8ff" d="M402.38,-229.6C388.8,-234.7 372.13,-240.48 358,-247.5 333.8,-259.53 308.67,-276.29 288.9,-289.65"/>
<polygon fill="#63b8ff" stroke="#63b8ff" points="286.82,-286.84 280.49,-295.34 290.74,-292.64 286.82,-286.84"/>
</a>
</g>
</g>
<!-- Node13 -->
<g id="Node000013" class="node">
<title>Node13</title>
<g id="a_Node000013"><a xlink:href="classnetspeak_1_1QuerySimplifier.html#ae3c3e04a80fa328604bd5287349aebe2" target="_top" xlink:title=" ">
<polygon fill="white" stroke="#666666" points="692,-277.5 549,-277.5 549,-247.5 692,-247.5 692,-277.5"/>
<text text-anchor="start" x="557" y="-265.5" font-family="Helvetica,sans-Serif" font-size="10.00">netspeak::QuerySimplifier</text>
<text text-anchor="middle" x="620.5" y="-254.5" font-family="Helvetica,sans-Serif" font-size="10.00">::add_to_alternation</text>
</a>
</g>
</g>
<!-- Node12&#45;&gt;Node13 -->
<g id="edge12_Node000012_Node000013" class="edge">
<title>Node12&#45;&gt;Node13</title>
<g id="a_edge12_Node000012_Node000013"><a xlink:title=" ">
<path fill="none" stroke="#63b8ff" d="M489.78,-229.56C509.05,-234.45 530.59,-239.92 550.5,-244.98"/>
<polygon fill="#63b8ff" stroke="#63b8ff" points="549.87,-248.43 560.43,-247.5 551.6,-241.64 549.87,-248.43"/>
</a>
</g>
</g>
<!-- Node13&#45;&gt;Node3 -->
<g id="edge13_Node000013_Node000003" class="edge">
<title>Node13&#45;&gt;Node3</title>
<g id="a_edge13_Node000013_Node000003"><a xlink:title=" ">
<path fill="none" stroke="#63b8ff" d="M688.11,-277.68C693.71,-280.19 699.09,-283.11 704,-286.5 725.93,-301.67 720.08,-316.77 740,-334.5 752.19,-345.34 767.2,-354.94 781.06,-362.66"/>
<polygon fill="#63b8ff" stroke="#63b8ff" points="779.5,-365.79 789.97,-367.44 782.82,-359.62 779.5,-365.79"/>
</a>
</g>
</g>
<!-- Node13&#45;&gt;Node4 -->
<g id="edge14_Node000013_Node000004" class="edge">
<title>Node13&#45;&gt;Node4</title>
<g id="a_edge14_Node000013_Node000004"><a xlink:title=" ">
<path fill="none" stroke="#63b8ff" d="M684.55,-277.56C705.22,-282.49 728.36,-288.02 749.69,-293.11"/>
<polygon fill="#63b8ff" stroke="#63b8ff" points="749.14,-296.58 759.68,-295.5 750.76,-289.77 749.14,-296.58"/>
</a>
</g>
</g>
<!-- Node13&#45;&gt;Node5 -->
<g id="edge15_Node000013_Node000005" class="edge">
<title>Node13&#45;&gt;Node5</title>
<g id="a_edge15_Node000013_Node000005"><a xlink:title=" ">
<path fill="none" stroke="#63b8ff" d="M692.28,-277.52C696.54,-280.06 700.5,-283.03 704,-286.5 743.54,-325.71 703.06,-364.84 740,-406.5 745.66,-412.89 752.67,-418.19 760.18,-422.57"/>
<polygon fill="#63b8ff" stroke="#63b8ff" points="758.7,-425.75 769.18,-427.31 761.96,-419.56 758.7,-425.75"/>
</a>
</g>
</g>
<!-- Node14&#45;&gt;Node2 -->
<g id="edge20_Node000014_Node000002" class="edge">
<title>Node14&#45;&gt;Node2</title>
<g id="a_edge20_Node000014_Node000002"><a xlink:title=" ">
<path fill="none" stroke="#63b8ff" d="M501.15,-441.98C513.47,-443.28 526.38,-444.65 538.95,-445.98"/>
<polygon fill="#63b8ff" stroke="#63b8ff" points="538.63,-449.46 548.94,-447.03 539.36,-442.5 538.63,-449.46"/>
</a>
</g>
</g>
<!-- Node14&#45;&gt;Node9 -->
<g id="edge21_Node000014_Node000009" class="edge">
<title>Node14&#45;&gt;Node9</title>
<g id="a_edge21_Node000014_Node000009"><a xlink:title=" ">
<path fill="none" stroke="#63b8ff" d="M501.15,-424.03C509.51,-422.79 518.14,-421.52 526.75,-420.24"/>
<polygon fill="#63b8ff" stroke="#63b8ff" points="527.46,-423.67 536.84,-418.75 526.43,-416.75 527.46,-423.67"/>
</a>
</g>
</g>
<!-- Node14&#45;&gt;Node10 -->
<g id="edge22_Node000014_Node000010" class="edge">
<title>Node14&#45;&gt;Node10</title>
<g id="a_edge22_Node000014_Node000010"><a xlink:title=" ">
<path fill="none" stroke="#63b8ff" d="M446.64,-419.16C475.77,-391.5 534.36,-336.01 537,-334.5 540.07,-332.75 543.28,-331.11 546.58,-329.59"/>
<polygon fill="#63b8ff" stroke="#63b8ff" points="548.21,-332.7 556.07,-325.59 545.49,-326.25 548.21,-332.7"/>
</a>
</g>
</g>
<!-- Node14&#45;&gt;Node11 -->
<g id="edge23_Node000014_Node000011" class="edge">
<title>Node14&#45;&gt;Node11</title>
<g id="a_edge23_Node000014_Node000011"><a xlink:title=" ">
<path fill="none" stroke="#63b8ff" d="M366.38,-419.36C363.5,-417.81 360.69,-416.19 358,-414.5 322.09,-392.02 286.63,-357.18 267.05,-333.85"/>
<polygon fill="#63b8ff" stroke="#63b8ff" points="269.58,-331.41 260.58,-325.81 264.13,-335.8 269.58,-331.41"/>
</a>
</g>
</g>
<!-- Node15&#45;&gt;Node8 -->
<g id="edge26_Node000015_Node000008" class="edge">
<title>Node15&#45;&gt;Node8</title>
<g id="a_edge26_Node000015_Node000008"><a xlink:title=" ">
<path fill="none" stroke="#63b8ff" d="M489.78,-247.44C509.05,-242.55 530.59,-237.08 550.5,-232.02"/>
<polygon fill="#63b8ff" stroke="#63b8ff" points="551.6,-235.36 560.43,-229.5 549.87,-228.57 551.6,-235.36"/>
</a>
</g>
</g>
<!-- Node15&#45;&gt;Node9 -->
<g id="edge27_Node000015_Node000009" class="edge">
<title>Node15&#45;&gt;Node9</title>
<g id="a_edge27_Node000015_Node000009"><a xlink:title=" ">
<path fill="none" stroke="#63b8ff" d="M489.13,-277.63C493.44,-280.15 497.47,-283.08 501,-286.5 533.71,-318.22 503.58,-351.52 537,-382.5 538.28,-383.69 539.61,-384.81 540.99,-385.88"/>
<polygon fill="#63b8ff" stroke="#63b8ff" points="539.1,-388.83 549.37,-391.44 542.97,-382.99 539.1,-388.83"/>
</a>
</g>
</g>
<!-- Node15&#45;&gt;Node10 -->
<g id="edge29_Node000015_Node000010" class="edge">
<title>Node15&#45;&gt;Node10</title>
<g id="a_edge29_Node000015_Node000010"><a xlink:title=" ">
<path fill="none" stroke="#63b8ff" d="M489.78,-277.56C509.05,-282.45 530.59,-287.92 550.5,-292.98"/>
<polygon fill="#63b8ff" stroke="#63b8ff" points="549.87,-296.43 560.43,-295.5 551.6,-289.64 549.87,-296.43"/>
</a>
</g>
</g>
<!-- Node15&#45;&gt;Node16 -->
<g id="edge25_Node000015_Node000016" class="edge">
<title>Node15&#45;&gt;Node16</title>
<g id="a_edge25_Node000015_Node000016"><a xlink:title=" ">
<path fill="none" stroke="#63b8ff" d="M485.63,-247.43C491.06,-244.87 496.29,-241.92 501,-238.5 522.58,-222.84 516.67,-207.76 537,-190.5 547.6,-181.5 560.39,-173.7 572.71,-167.3"/>
<polygon fill="#63b8ff" stroke="#63b8ff" points="574.6,-170.27 581.99,-162.68 571.48,-164 574.6,-170.27"/>
</a>
</g>
</g>
<!-- Node15&#45;&gt;Node17 -->
<g id="edge28_Node000015_Node000017" class="edge">
<title>Node15&#45;&gt;Node17</title>
<g id="a_edge28_Node000015_Node000017"><a xlink:title=" ">
<path fill="none" stroke="#63b8ff" d="M485.63,-277.57C491.06,-280.13 496.29,-283.08 501,-286.5 522.58,-302.16 515.07,-319.33 537,-334.5 539.15,-335.99 541.39,-337.38 543.69,-338.69"/>
<polygon fill="#63b8ff" stroke="#63b8ff" points="542.39,-341.95 552.89,-343.32 545.54,-335.7 542.39,-341.95"/>
</a>
</g>
</g>
<!-- Node20&#45;&gt;Node8 -->
<g id="edge36_Node000020_Node000008" class="edge">
<title>Node20&#45;&gt;Node8</title>
<g id="a_edge36_Node000020_Node000008"><a xlink:title=" ">
<path fill="none" stroke="#63b8ff" d="M485.63,-295.43C491.06,-292.87 496.29,-289.92 501,-286.5 522.58,-270.84 515.07,-253.67 537,-238.5 539.15,-237.01 541.39,-235.62 543.69,-234.31"/>
<polygon fill="#63b8ff" stroke="#63b8ff" points="545.54,-237.3 552.89,-229.68 542.39,-231.05 545.54,-237.3"/>
</a>
</g>
</g>
<!-- Node20&#45;&gt;Node9 -->
<g id="edge37_Node000020_Node000009" class="edge">
<title>Node20&#45;&gt;Node9</title>
<g id="a_edge37_Node000020_Node000009"><a xlink:title=" ">
<path fill="none" stroke="#63b8ff" d="M449.04,-325.69C469.48,-341.77 503.87,-366.95 537,-382.5 541.14,-384.44 545.47,-386.26 549.88,-387.96"/>
<polygon fill="#63b8ff" stroke="#63b8ff" points="549.05,-391.38 559.64,-391.5 551.43,-384.8 549.05,-391.38"/>
</a>
</g>
</g>
<!-- Node20&#45;&gt;Node10 -->
<g id="edge38_Node000020_Node000010" class="edge">
<title>Node20&#45;&gt;Node10</title>
<g id="a_edge38_Node000020_Node000010"><a xlink:title=" ">
<path fill="none" stroke="#63b8ff" d="M501.15,-310.5C513.35,-310.5 526.12,-310.5 538.58,-310.5"/>
<polygon fill="#63b8ff" stroke="#63b8ff" points="538.94,-314 548.94,-310.5 538.94,-307 538.94,-314"/>
</a>
</g>
</g>
<!-- Node20&#45;&gt;Node11 -->
<g id="edge39_Node000020_Node000011" class="edge">
<title>Node20&#45;&gt;Node11</title>
<g id="a_edge39_Node000020_Node000011"><a xlink:title=" ">
<path fill="none" stroke="#63b8ff" d="M357.89,-317.13C349.54,-317.24 340.97,-317.28 332.49,-317.23"/>
<polygon fill="#63b8ff" stroke="#63b8ff" points="332.25,-313.73 322.22,-317.13 332.18,-320.73 332.25,-313.73"/>
</a>
</g>
</g>
<!-- Node20&#45;&gt;Node13 -->
<g id="edge35_Node000020_Node000013" class="edge">
<title>Node20&#45;&gt;Node13</title>
<g id="a_edge35_Node000020_Node000013"><a xlink:title=" ">
<path fill="none" stroke="#63b8ff" d="M489.78,-295.44C509.05,-290.55 530.59,-285.08 550.5,-280.02"/>
<polygon fill="#63b8ff" stroke="#63b8ff" points="551.6,-283.36 560.43,-277.5 549.87,-276.57 551.6,-283.36"/>
</a>
</g>
</g>
<!-- Node21&#45;&gt;Node9 -->
<g id="edge42_Node000021_Node000009" class="edge">
<title>Node21&#45;&gt;Node9</title>
<g id="a_edge42_Node000021_Node000009"><a xlink:title=" ">
<path fill="none" stroke="#63b8ff" d="M481.43,-467.44C488.17,-464.8 494.85,-461.81 501,-458.5 518.84,-448.88 518.95,-439.72 537,-430.5 540.74,-428.59 544.65,-426.81 548.65,-425.16"/>
<polygon fill="#63b8ff" stroke="#63b8ff" points="550.04,-428.38 558.12,-421.52 547.53,-421.84 550.04,-428.38"/>
</a>
</g>
</g>
<!-- Node21&#45;&gt;Node10 -->
<g id="edge45_Node000021_Node000010" class="edge">
<title>Node21&#45;&gt;Node10</title>
<g id="a_edge45_Node000021_Node000010"><a xlink:title=" ">
<path fill="none" stroke="#63b8ff" d="M489.75,-467.45C493.87,-464.92 497.7,-461.96 501,-458.5 540.64,-417.01 496.43,-375.09 537,-334.5 538.09,-333.41 539.22,-332.37 540.4,-331.38"/>
<polygon fill="#63b8ff" stroke="#63b8ff" points="542.56,-334.13 548.68,-325.48 538.5,-328.43 542.56,-334.13"/>
</a>
</g>
</g>
<!-- Node21&#45;&gt;Node18 -->
<g id="edge43_Node000021_Node000018" class="edge">
<title>Node21&#45;&gt;Node18</title>
<g id="a_edge43_Node000021_Node000018"><a xlink:title=" ">
<path fill="none" stroke="#63b8ff" d="M454.82,-497.68C488.42,-518.66 549.13,-556.56 586.71,-580.03"/>
<polygon fill="#63b8ff" stroke="#63b8ff" points="584.94,-583.05 595.27,-585.37 588.64,-577.11 584.94,-583.05"/>
</a>
</g>
</g>
<!-- Node21&#45;&gt;Node19 -->
<g id="edge44_Node000021_Node000019" class="edge">
<title>Node21&#45;&gt;Node19</title>
<g id="a_edge44_Node000021_Node000019"><a xlink:title=" ">
<path fill="none" stroke="#63b8ff" d="M501.15,-494.09C509.51,-495.46 518.14,-496.88 526.75,-498.29"/>
<polygon fill="#63b8ff" stroke="#63b8ff" points="526.4,-501.78 536.84,-499.94 527.54,-494.87 526.4,-501.78"/>
</a>
</g>
</g>
<!-- Node22&#45;&gt;Node8 -->
<g id="edge48_Node000022_Node000008" class="edge">
<title>Node22&#45;&gt;Node8</title>
<g id="a_edge48_Node000022_Node000008"><a xlink:title=" ">
<path fill="none" stroke="#63b8ff" d="M468.36,-143.6C478.97,-147.96 490.48,-152.81 501,-157.5 527.76,-169.43 557.46,-183.72 580.44,-195.01"/>
<polygon fill="#63b8ff" stroke="#63b8ff" points="579.01,-198.2 589.53,-199.49 582.11,-191.93 579.01,-198.2"/>
</a>
</g>
</g>
<!-- Node22&#45;&gt;Node10 -->
<g id="edge50_Node000022_Node000010" class="edge">
<title>Node22&#45;&gt;Node10</title>
<g id="a_edge50_Node000022_Node000010"><a xlink:title=" ">
<path fill="none" stroke="#63b8ff" d="M482.99,-143.6C489.72,-147.29 495.99,-151.86 501,-157.5 540.53,-202 495.14,-244.18 537,-286.5 538.08,-287.59 539.21,-288.64 540.38,-289.64"/>
<polygon fill="#63b8ff" stroke="#63b8ff" points="538.47,-292.58 548.64,-295.56 542.55,-286.89 538.47,-292.58"/>
</a>
</g>
</g>
<!-- Node22&#45;&gt;Node16 -->
<g id="edge47_Node000022_Node000016" class="edge">
<title>Node22&#45;&gt;Node16</title>
<g id="a_edge47_Node000022_Node000016"><a xlink:title=" ">
<path fill="none" stroke="#63b8ff" d="M501.15,-135.6C513.47,-136.84 526.38,-138.14 538.95,-139.4"/>
<polygon fill="#63b8ff" stroke="#63b8ff" points="538.64,-142.89 548.94,-140.41 539.34,-135.92 538.64,-142.89"/>
</a>
</g>
</g>
<!-- Node23 -->
<g id="Node000023" class="node">
<title>Node23</title>
<g id="a_Node000023"><a xlink:href="classnetspeak_1_1model_1_1SimpleQueryUnit____.html#a9c3bd26c2e3a029ee43dd0a1590ba7db" target="_top" xlink:title=" ">
<polygon fill="white" stroke="#666666" points="704,-114.5 537,-114.5 537,-84.5 704,-84.5 704,-114.5"/>
<text text-anchor="start" x="545" y="-102.5" font-family="Helvetica,sans-Serif" font-size="10.00">netspeak::model::SimpleQuery</text>
<text text-anchor="middle" x="620.5" y="-91.5" font-family="Helvetica,sans-Serif" font-size="10.00">Unit__::new_regex</text>
</a>
</g>
</g>
<!-- Node22&#45;&gt;Node23 -->
<g id="edge49_Node000022_Node000023" class="edge">
<title>Node22&#45;&gt;Node23</title>
<g id="a_edge49_Node000022_Node000023"><a xlink:title=" ">
<path fill="none" stroke="#63b8ff" d="M501.15,-117.66C509.51,-116.38 518.14,-115.05 526.75,-113.73"/>
<polygon fill="#63b8ff" stroke="#63b8ff" points="527.49,-117.16 536.84,-112.18 526.42,-110.24 527.49,-117.16"/>
</a>
</g>
</g>
</g>
</svg>
