<?xml version="1.0" encoding="UTF-8" standalone="no"?>
<!DOCTYPE svg PUBLIC "-//W3C//DTD SVG 1.1//EN"
 "http://www.w3.org/Graphics/SVG/1.1/DTD/svg11.dtd">
<!-- Generated by graphviz version 2.43.0 (0)
 -->
<!-- Title: netspeak::regex::DefaultRegexIndex::match_query_regex Pages: 1 -->
<svg width="582pt" height="206pt"
 viewBox="0.00 0.00 582.00 206.00" xmlns="http://www.w3.org/2000/svg" xmlns:xlink="http://www.w3.org/1999/xlink">
<g id="graph0" class="graph" transform="scale(1 1) rotate(0) translate(4 202)">
<title>netspeak::regex::DefaultRegexIndex::match_query_regex</title>
<!-- Node1 -->
<g id="Node000001" class="node">
<title>Node1</title>
<g id="a_Node000001"><a xlink:title=" ">
<polygon fill="#999999" stroke="#666666" points="177,-102 0,-102 0,-72 177,-72 177,-102"/>
<text text-anchor="start" x="8" y="-90" font-family="Helvetica,sans-Serif" font-size="10.00">netspeak::regex::Default</text>
<text text-anchor="middle" x="88.5" y="-79" font-family="Helvetica,sans-Serif" font-size="10.00">RegexIndex::match_query_regex</text>
</a>
</g>
</g>
<!-- Node2 -->
<g id="Node000002" class="node">
<title>Node2</title>
<g id="a_Node000002"><a xlink:href="namespacenetspeak_1_1regex.html#afac3221e2a2d1a5db57380f4b12386c9" target="_top" xlink:title=" ">
<polygon fill="white" stroke="#666666" points="361,-174 229,-174 229,-144 361,-144 361,-174"/>
<text text-anchor="start" x="237" y="-162" font-family="Helvetica,sans-Serif" font-size="10.00">netspeak::regex::create</text>
<text text-anchor="middle" x="295" y="-151" font-family="Helvetica,sans-Serif" font-size="10.00">_regex_pattern</text>
</a>
</g>
</g>
<!-- Node1&#45;&gt;Node2 -->
<g id="edge1_Node000001_Node000002" class="edge">
<title>Node1&#45;&gt;Node2</title>
<g id="a_edge1_Node000001_Node000002"><a xlink:title=" ">
<path fill="none" stroke="#63b8ff" d="M125.95,-102.08C150.39,-111.97 183.4,-124.88 213,-135 218.83,-136.99 224.93,-138.98 231.04,-140.9"/>
<polygon fill="#63b8ff" stroke="#63b8ff" points="230.06,-144.26 240.64,-143.87 232.13,-137.57 230.06,-144.26"/>
</a>
</g>
</g>
<!-- Node5 -->
<g id="Node000005" class="node">
<title>Node5</title>
<g id="a_Node000005"><a xlink:href="classnetspeak_1_1regex_1_1RegexQuery.html#a027a4b5415fce264c86bdd7c038ca46b" target="_top" xlink:title="Returns the maximum number of UTF8 bytes a word can to have to match this query.">
<polygon fill="white" stroke="#666666" points="375.5,-126 214.5,-126 214.5,-96 375.5,-96 375.5,-126"/>
<text text-anchor="start" x="222.5" y="-114" font-family="Helvetica,sans-Serif" font-size="10.00">netspeak::regex::RegexQuery</text>
<text text-anchor="middle" x="295" y="-103" font-family="Helvetica,sans-Serif" font-size="10.00">::max_utf8_input_length</text>
</a>
</g>
</g>
<!-- Node1&#45;&gt;Node5 -->
<g id="edge4_Node000001_Node000005" class="edge">
<title>Node1&#45;&gt;Node5</title>
<g id="a_edge4_Node000001_Node000005"><a xlink:title=" ">
<path fill="none" stroke="#63b8ff" d="M177.12,-97.28C186.1,-98.34 195.23,-99.41 204.23,-100.46"/>
<polygon fill="#63b8ff" stroke="#63b8ff" points="203.98,-103.96 214.32,-101.65 204.8,-97.01 203.98,-103.96"/>
</a>
</g>
</g>
<!-- Node7 -->
<g id="Node000007" class="node">
<title>Node7</title>
<g id="a_Node000007"><a xlink:href="classnetspeak_1_1regex_1_1RegexQuery.html#a634da32c1d91b1d13ffcb3bc0edf259c" target="_top" xlink:title="Returns the minimum number of UTF8 bytes a word has to have to match this query.">
<polygon fill="white" stroke="#666666" points="375.5,-78 214.5,-78 214.5,-48 375.5,-48 375.5,-78"/>
<text text-anchor="start" x="222.5" y="-66" font-family="Helvetica,sans-Serif" font-size="10.00">netspeak::regex::RegexQuery</text>
<text text-anchor="middle" x="295" y="-55" font-family="Helvetica,sans-Serif" font-size="10.00">::min_utf8_input_length</text>
</a>
</g>
</g>
<!-- Node1&#45;&gt;Node7 -->
<g id="edge6_Node000001_Node000007" class="edge">
<title>Node1&#45;&gt;Node7</title>
<g id="a_edge6_Node000001_Node000007"><a xlink:title=" ">
<path fill="none" stroke="#63b8ff" d="M177.12,-76.72C186.1,-75.66 195.23,-74.59 204.23,-73.54"/>
<polygon fill="#63b8ff" stroke="#63b8ff" points="204.8,-76.99 214.32,-72.35 203.98,-70.04 204.8,-76.99"/>
</a>
</g>
</g>
<!-- Node8 -->
<g id="Node000008" class="node">
<title>Node8</title>
<g id="a_Node000008"><a xlink:href="classnetspeak_1_1regex_1_1DefaultRegexIndex.html#a54963c57bab5c92e0044c351b69da357" target="_top" xlink:title="Returns the word string from the given entry.">
<polygon fill="white" stroke="#666666" points="377,-30 213,-30 213,0 377,0 377,-30"/>
<text text-anchor="start" x="221" y="-18" font-family="Helvetica,sans-Serif" font-size="10.00">netspeak::regex::Default</text>
<text text-anchor="middle" x="295" y="-7" font-family="Helvetica,sans-Serif" font-size="10.00">RegexIndex::word_from_entry</text>
</a>
</g>
</g>
<!-- Node1&#45;&gt;Node8 -->
<g id="edge8_Node000001_Node000008" class="edge">
<title>Node1&#45;&gt;Node8</title>
<g id="a_edge8_Node000001_Node000008"><a xlink:title=" ">
<path fill="none" stroke="#63b8ff" d="M125.95,-71.92C150.39,-62.03 183.4,-49.12 213,-39 218.83,-37.01 224.93,-35.02 231.04,-33.1"/>
<polygon fill="#63b8ff" stroke="#63b8ff" points="232.13,-36.43 240.64,-30.13 230.06,-29.74 232.13,-36.43"/>
</a>
</g>
</g>
<!-- Node3 -->
<g id="Node000003" class="node">
<title>Node3</title>
<g id="a_Node000003"><a xlink:href="classnetspeak_1_1regex_1_1RegexQuery.html#ace5fe64453987c6f605300a8aa5d4ee4" target="_top" xlink:title="Get the underlying units.">
<polygon fill="white" stroke="#666666" points="574,-198 413,-198 413,-168 574,-168 574,-198"/>
<text text-anchor="start" x="421" y="-186" font-family="Helvetica,sans-Serif" font-size="10.00">netspeak::regex::RegexQuery</text>
<text text-anchor="middle" x="493.5" y="-175" font-family="Helvetica,sans-Serif" font-size="10.00">::get_units</text>
</a>
</g>
</g>
<!-- Node2&#45;&gt;Node3 -->
<g id="edge2_Node000002_Node000003" class="edge">
<title>Node2&#45;&gt;Node3</title>
<g id="a_edge2_Node000002_Node000003"><a xlink:title=" ">
<path fill="none" stroke="#63b8ff" d="M361.16,-166.96C374.46,-168.58 388.69,-170.32 402.68,-172.03"/>
<polygon fill="#63b8ff" stroke="#63b8ff" points="402.46,-175.53 412.81,-173.27 403.31,-168.58 402.46,-175.53"/>
</a>
</g>
</g>
<!-- Node4 -->
<g id="Node000004" class="node">
<title>Node4</title>
<g id="a_Node000004"><a xlink:href="namespacenetspeak_1_1regex.html#a2012930d0c5c43d0ad661a49adceb26b" target="_top" xlink:title=" ">
<polygon fill="white" stroke="#666666" points="558,-150 429,-150 429,-120 558,-120 558,-150"/>
<text text-anchor="start" x="437" y="-138" font-family="Helvetica,sans-Serif" font-size="10.00">netspeak::regex::regex</text>
<text text-anchor="middle" x="493.5" y="-127" font-family="Helvetica,sans-Serif" font-size="10.00">_pattern_append_char</text>
</a>
</g>
</g>
<!-- Node2&#45;&gt;Node4 -->
<g id="edge3_Node000002_Node000004" class="edge">
<title>Node2&#45;&gt;Node4</title>
<g id="a_edge3_Node000002_Node000004"><a xlink:title=" ">
<path fill="none" stroke="#63b8ff" d="M361.16,-151.04C379.62,-148.79 399.86,-146.32 418.79,-144"/>
<polygon fill="#63b8ff" stroke="#63b8ff" points="419.35,-147.46 428.85,-142.77 418.5,-140.51 419.35,-147.46"/>
</a>
</g>
</g>
<!-- Node6 -->
<g id="Node000006" class="node">
<title>Node6</title>
<g id="a_Node000006"><a xlink:href="namespacenetspeak_1_1regex.html#a6e50f7971c5d223b3dfc4ed586fd45d6" target="_top" xlink:title=" ">
<polygon fill="white" stroke="#666666" points="563,-102 424,-102 424,-72 563,-72 563,-102"/>
<text text-anchor="start" x="432" y="-90" font-family="Helvetica,sans-Serif" font-size="10.00">netspeak::regex::number</text>
<text text-anchor="middle" x="493.5" y="-79" font-family="Helvetica,sans-Serif" font-size="10.00">_of_utf8_bytes</text>
</a>
</g>
</g>
<!-- Node5&#45;&gt;Node6 -->
<g id="edge5_Node000005_Node000006" class="edge">
<title>Node5&#45;&gt;Node6</title>
<g id="a_edge5_Node000005_Node000006"><a xlink:title=" ">
<path fill="none" stroke="#63b8ff" d="M375.64,-101.27C388.23,-99.73 401.25,-98.15 413.82,-96.61"/>
<polygon fill="#63b8ff" stroke="#63b8ff" points="414.28,-100.08 423.79,-95.39 413.44,-93.13 414.28,-100.08"/>
</a>
</g>
</g>
<!-- Node7&#45;&gt;Node6 -->
<g id="edge7_Node000007_Node000006" class="edge">
<title>Node7&#45;&gt;Node6</title>
<g id="a_edge7_Node000007_Node000006"><a xlink:title=" ">
<path fill="none" stroke="#63b8ff" d="M375.64,-72.73C388.23,-74.27 401.25,-75.85 413.82,-77.39"/>
<polygon fill="#63b8ff" stroke="#63b8ff" points="413.44,-80.87 423.79,-78.61 414.28,-73.92 413.44,-80.87"/>
</a>
</g>
</g>
</g>
</svg>
