<?xml version="1.0" encoding="UTF-8" standalone="no"?>
<!DOCTYPE svg PUBLIC "-//W3C//DTD SVG 1.1//EN"
 "http://www.w3.org/Graphics/SVG/1.1/DTD/svg11.dtd">
<!-- Generated by graphviz version 2.43.0 (0)
 -->
<!-- Title: netspeak::invertedindex::UnsortedInput::UnsortedInput Pages: 1 -->
<svg width="880pt" height="533pt"
 viewBox="0.00 0.00 880.00 532.50" xmlns="http://www.w3.org/2000/svg" xmlns:xlink="http://www.w3.org/1999/xlink">
<g id="graph0" class="graph" transform="scale(1 1) rotate(0) translate(4 528.5)">
<title>netspeak::invertedindex::UnsortedInput::UnsortedInput</title>
<!-- Node1 -->
<g id="Node000001" class="node">
<title>Node1</title>
<g id="a_Node000001"><a xlink:title=" ">
<polygon fill="#999999" stroke="#666666" points="167,-432.5 0,-432.5 0,-402.5 167,-402.5 167,-432.5"/>
<text text-anchor="start" x="8" y="-420.5" font-family="Helvetica,sans-Serif" font-size="10.00">netspeak::invertedindex</text>
<text text-anchor="middle" x="83.5" y="-409.5" font-family="Helvetica,sans-Serif" font-size="10.00">::UnsortedInput::UnsortedInput</text>
</a>
</g>
</g>
<!-- Node2 -->
<g id="Node000002" class="node">
<title>Node2</title>
<g id="a_Node000002"><a xlink:href="classnetspeak_1_1invertedindex_1_1IndexStrategy.html#a8ebd3e75416a396d35d9dca2a6dcb399" target="_top" xlink:title=" ">
<polygon fill="white" stroke="#666666" points="351,-524.5 216,-524.5 216,-494.5 351,-494.5 351,-524.5"/>
<text text-anchor="start" x="224" y="-512.5" font-family="Helvetica,sans-Serif" font-size="10.00">netspeak::invertedindex</text>
<text text-anchor="middle" x="283.5" y="-501.5" font-family="Helvetica,sans-Serif" font-size="10.00">::IndexStrategy::config</text>
</a>
</g>
</g>
<!-- Node1&#45;&gt;Node2 -->
<g id="edge1_Node000001_Node000002" class="edge">
<title>Node1&#45;&gt;Node2</title>
<g id="a_edge1_Node000001_Node000002"><a xlink:title=" ">
<path fill="none" stroke="#63b8ff" d="M110.34,-432.58C134,-446.06 170.23,-465.89 203,-480.5 211.09,-484.11 219.78,-487.62 228.34,-490.89"/>
<polygon fill="#63b8ff" stroke="#63b8ff" points="227.32,-494.25 237.91,-494.47 229.77,-487.69 227.32,-494.25"/>
</a>
</g>
</g>
<!-- Node3 -->
<g id="Node000003" class="node">
<title>Node3</title>
<g id="a_Node000003"><a xlink:href="classnetspeak_1_1invertedindex_1_1Configuration.html#aaa77c568531787e259dbbb978f39c93c" target="_top" xlink:title=" ">
<polygon fill="white" stroke="#666666" points="549,-497 410,-497 410,-456 549,-456 549,-497"/>
<text text-anchor="start" x="418" y="-485" font-family="Helvetica,sans-Serif" font-size="10.00">netspeak::invertedindex</text>
<text text-anchor="start" x="418" y="-474" font-family="Helvetica,sans-Serif" font-size="10.00">::Configuration::expected</text>
<text text-anchor="middle" x="479.5" y="-463" font-family="Helvetica,sans-Serif" font-size="10.00">_record_count</text>
</a>
</g>
</g>
<!-- Node1&#45;&gt;Node3 -->
<g id="edge2_Node000001_Node000003" class="edge">
<title>Node1&#45;&gt;Node3</title>
<g id="a_edge2_Node000001_Node000003"><a xlink:title=" ">
<path fill="none" stroke="#63b8ff" d="M137.24,-432.57C157.64,-437.95 181.27,-443.63 203,-447.5 268.86,-459.24 344.48,-466.78 399.81,-471.23"/>
<polygon fill="#63b8ff" stroke="#63b8ff" points="399.66,-474.72 409.9,-472.02 400.21,-467.75 399.66,-474.72"/>
</a>
</g>
</g>
<!-- Node4 -->
<g id="Node000004" class="node">
<title>Node4</title>
<g id="a_Node000004"><a xlink:href="classnetspeak_1_1invertedindex_1_1UnsortedInput.html#aa5262dcbf66a5e0cb722f0bec7775b62" target="_top" xlink:title=" ">
<polygon fill="white" stroke="#666666" points="351,-245.5 216,-245.5 216,-215.5 351,-215.5 351,-245.5"/>
<text text-anchor="start" x="224" y="-233.5" font-family="Helvetica,sans-Serif" font-size="10.00">netspeak::invertedindex</text>
<text text-anchor="middle" x="283.5" y="-222.5" font-family="Helvetica,sans-Serif" font-size="10.00">::UnsortedInput::rehash</text>
</a>
</g>
</g>
<!-- Node1&#45;&gt;Node4 -->
<g id="edge3_Node000001_Node000004" class="edge">
<title>Node1&#45;&gt;Node4</title>
<g id="a_edge3_Node000001_Node000004"><a xlink:title=" ">
<path fill="none" stroke="#63b8ff" d="M100.7,-402.2C135.67,-369.17 218.33,-291.11 259.03,-252.67"/>
<polygon fill="#63b8ff" stroke="#63b8ff" points="261.48,-255.16 266.35,-245.75 256.68,-250.07 261.48,-255.16"/>
</a>
</g>
</g>
<!-- Node19 -->
<g id="Node000019" class="node">
<title>Node19</title>
<g id="a_Node000019"><a xlink:href="classnetspeak_1_1invertedindex_1_1IndexStrategy.html#a678dbc89579fae943cb8c2ef5867307c" target="_top" xlink:title=" ">
<polygon fill="white" stroke="#666666" points="364,-438 203,-438 203,-397 364,-397 364,-438"/>
<text text-anchor="start" x="211" y="-426" font-family="Helvetica,sans-Serif" font-size="10.00">netspeak::invertedindex</text>
<text text-anchor="start" x="211" y="-415" font-family="Helvetica,sans-Serif" font-size="10.00">::IndexStrategy::set_expected</text>
<text text-anchor="middle" x="283.5" y="-404" font-family="Helvetica,sans-Serif" font-size="10.00">_record_count</text>
</a>
</g>
</g>
<!-- Node1&#45;&gt;Node19 -->
<g id="edge24_Node000001_Node000019" class="edge">
<title>Node1&#45;&gt;Node19</title>
<g id="a_edge24_Node000001_Node000019"><a xlink:title=" ">
<path fill="none" stroke="#63b8ff" d="M167.04,-417.5C175.58,-417.5 184.29,-417.5 192.9,-417.5"/>
<polygon fill="#63b8ff" stroke="#63b8ff" points="192.96,-421 202.96,-417.5 192.96,-414 192.96,-421"/>
</a>
</g>
</g>
<!-- Node21 -->
<g id="Node000021" class="node">
<title>Node21</title>
<g id="a_Node000021"><a xlink:href="namespacenetspeak_1_1util.html#aff2588cdc5eba0270462c499ffc66ffb" target="_top" xlink:title=" ">
<polygon fill="white" stroke="#666666" points="540.5,-19 418.5,-19 418.5,0 540.5,0 540.5,-19"/>
<text text-anchor="middle" x="479.5" y="-7" font-family="Helvetica,sans-Serif" font-size="10.00">netspeak::util::tmpdir</text>
</a>
</g>
</g>
<!-- Node1&#45;&gt;Node21 -->
<g id="edge27_Node000001_Node000021" class="edge">
<title>Node1&#45;&gt;Node21</title>
<g id="a_edge27_Node000001_Node000021"><a xlink:title=" ">
<path fill="none" stroke="#63b8ff" d="M90.69,-402.24C105.98,-365.75 148.28,-271.64 203,-206.5 275.73,-119.92 304.05,-105.33 400,-45.5 413.75,-36.93 429.88,-29.18 443.93,-23.08"/>
<polygon fill="#63b8ff" stroke="#63b8ff" points="445.42,-26.25 453.27,-19.14 442.69,-19.8 445.42,-26.25"/>
</a>
</g>
</g>
<!-- Node5 -->
<g id="Node000005" class="node">
<title>Node5</title>
<g id="a_Node000005"><a xlink:href="namespacenetspeak_1_1util.html#a978978e70b474657b12402a3db711ef0" target="_top" xlink:title=" ">
<polygon fill="white" stroke="#666666" points="539,-74 420,-74 420,-55 539,-55 539,-74"/>
<text text-anchor="middle" x="479.5" y="-62" font-family="Helvetica,sans-Serif" font-size="10.00">netspeak::util::fclose</text>
</a>
</g>
</g>
<!-- Node4&#45;&gt;Node5 -->
<g id="edge4_Node000004_Node000005" class="edge">
<title>Node4&#45;&gt;Node5</title>
<g id="a_edge4_Node000004_Node000005"><a xlink:title=" ">
<path fill="none" stroke="#63b8ff" d="M294.38,-215.38C316.92,-181.29 372.37,-100.09 400,-82.5 403.2,-80.47 406.59,-78.66 410.12,-77.06"/>
<polygon fill="#63b8ff" stroke="#63b8ff" points="411.67,-80.21 419.68,-73.28 409.09,-73.7 411.67,-80.21"/>
</a>
</g>
</g>
<!-- Node8 -->
<g id="Node000008" class="node">
<title>Node8</title>
<g id="a_Node000008"><a xlink:href="namespacenetspeak_1_1util.html#a4acc3d13f8d541f4b65dd44f486403fd" target="_top" xlink:title=" ">
<polygon fill="white" stroke="#666666" points="538,-111 421,-111 421,-92 538,-92 538,-111"/>
<text text-anchor="middle" x="479.5" y="-99" font-family="Helvetica,sans-Serif" font-size="10.00">netspeak::util::fopen</text>
</a>
</g>
</g>
<!-- Node4&#45;&gt;Node8 -->
<g id="edge8_Node000004_Node000008" class="edge">
<title>Node4&#45;&gt;Node8</title>
<g id="a_edge8_Node000004_Node000008"><a xlink:title=" ">
<path fill="none" stroke="#63b8ff" d="M295.85,-215.47C314.73,-191.55 355.02,-145.03 400,-120.5 404.24,-118.19 408.76,-116.15 413.41,-114.37"/>
<polygon fill="#63b8ff" stroke="#63b8ff" points="414.77,-117.6 423.08,-111.03 412.48,-110.98 414.77,-117.6"/>
</a>
</g>
</g>
<!-- Node9 -->
<g id="Node000009" class="node">
<title>Node9</title>
<g id="a_Node000009"><a xlink:href="namespacenetspeak_1_1util.html#ab36ee03e8b2f69483c3ac0e160da3cf4" target="_top" xlink:title=" ">
<polygon fill="white" stroke="#666666" points="542,-379 417,-379 417,-360 542,-360 542,-379"/>
<text text-anchor="middle" x="479.5" y="-367" font-family="Helvetica,sans-Serif" font-size="10.00">netspeak::util::hash32</text>
</a>
</g>
</g>
<!-- Node4&#45;&gt;Node9 -->
<g id="edge11_Node000004_Node000009" class="edge">
<title>Node4&#45;&gt;Node9</title>
<g id="a_edge11_Node000004_Node000009"><a xlink:title=" ">
<path fill="none" stroke="#63b8ff" d="M294.64,-245.68C312.66,-271.41 352.85,-323.44 400,-350.5 403.94,-352.76 408.13,-354.75 412.46,-356.51"/>
<polygon fill="#63b8ff" stroke="#63b8ff" points="411.5,-359.88 422.1,-359.99 413.88,-353.3 411.5,-359.88"/>
</a>
</g>
</g>
<!-- Node11 -->
<g id="Node000011" class="node">
<title>Node11</title>
<g id="a_Node000011"><a xlink:href="classnetspeak_1_1invertedindex_1_1Record.html#a8c31f71f3940ea11d85fbfca276f0eca" target="_top" xlink:title=" ">
<polygon fill="white" stroke="#666666" points="547,-293.5 412,-293.5 412,-263.5 547,-263.5 547,-293.5"/>
<text text-anchor="start" x="420" y="-281.5" font-family="Helvetica,sans-Serif" font-size="10.00">netspeak::invertedindex</text>
<text text-anchor="middle" x="479.5" y="-270.5" font-family="Helvetica,sans-Serif" font-size="10.00">::Record::key</text>
</a>
</g>
</g>
<!-- Node4&#45;&gt;Node11 -->
<g id="edge14_Node000004_Node000011" class="edge">
<title>Node4&#45;&gt;Node11</title>
<g id="a_edge14_Node000004_Node000011"><a xlink:title=" ">
<path fill="none" stroke="#63b8ff" d="M345.35,-245.56C365.21,-250.47 387.44,-255.97 407.95,-261.04"/>
<polygon fill="#63b8ff" stroke="#63b8ff" points="407.32,-264.49 417.87,-263.5 409,-257.7 407.32,-264.49"/>
</a>
</g>
</g>
<!-- Node12 -->
<g id="Node000012" class="node">
<title>Node12</title>
<g id="a_Node000012"><a xlink:href="namespacenetspeak_1_1util.html#ac58571e9b104c9440b6c4f067e75696f" target="_top" xlink:title=" ">
<polygon fill="white" stroke="#666666" points="535,-341.5 424,-341.5 424,-311.5 535,-311.5 535,-341.5"/>
<text text-anchor="start" x="432" y="-329.5" font-family="Helvetica,sans-Serif" font-size="10.00">netspeak::util::next</text>
<text text-anchor="middle" x="479.5" y="-318.5" font-family="Helvetica,sans-Serif" font-size="10.00">_prime</text>
</a>
</g>
</g>
<!-- Node4&#45;&gt;Node12 -->
<g id="edge15_Node000004_Node000012" class="edge">
<title>Node4&#45;&gt;Node12</title>
<g id="a_edge15_Node000004_Node000012"><a xlink:title=" ">
<path fill="none" stroke="#63b8ff" d="M305.27,-245.79C327.7,-261.72 364.94,-286.55 400,-302.5 404.58,-304.59 409.4,-306.55 414.29,-308.4"/>
<polygon fill="#63b8ff" stroke="#63b8ff" points="413.17,-311.71 423.76,-311.78 415.53,-305.12 413.17,-311.71"/>
</a>
</g>
</g>
<!-- Node14 -->
<g id="Node000014" class="node">
<title>Node14</title>
<g id="a_Node000014"><a xlink:href="classnetspeak_1_1invertedindex_1_1Record.html#a6661e7a0659dc3fc968d7992fca4732c" target="_top" xlink:title=" ">
<polygon fill="white" stroke="#666666" points="547,-245.5 412,-245.5 412,-215.5 547,-215.5 547,-245.5"/>
<text text-anchor="start" x="420" y="-233.5" font-family="Helvetica,sans-Serif" font-size="10.00">netspeak::invertedindex</text>
<text text-anchor="middle" x="479.5" y="-222.5" font-family="Helvetica,sans-Serif" font-size="10.00">::Record::read</text>
</a>
</g>
</g>
<!-- Node4&#45;&gt;Node14 -->
<g id="edge18_Node000004_Node000014" class="edge">
<title>Node4&#45;&gt;Node14</title>
<g id="a_edge18_Node000004_Node000014"><a xlink:title=" ">
<path fill="none" stroke="#63b8ff" d="M351.26,-230.5C367.51,-230.5 385.02,-230.5 401.69,-230.5"/>
<polygon fill="#63b8ff" stroke="#63b8ff" points="401.94,-234 411.94,-230.5 401.94,-227 401.94,-234"/>
</a>
</g>
</g>
<!-- Node16 -->
<g id="Node000016" class="node">
<title>Node16</title>
<g id="a_Node000016"><a xlink:href="namespacenetspeak_1_1util.html#ac8b0cdf55599b33fd7d4013948d48f43" target="_top" xlink:title=" ">
<polygon fill="white" stroke="#666666" points="708.5,-213.5 609.5,-213.5 609.5,-183.5 708.5,-183.5 708.5,-213.5"/>
<text text-anchor="start" x="617.5" y="-201.5" font-family="Helvetica,sans-Serif" font-size="10.00">netspeak::util::to</text>
<text text-anchor="middle" x="659" y="-190.5" font-family="Helvetica,sans-Serif" font-size="10.00">_string</text>
</a>
</g>
</g>
<!-- Node4&#45;&gt;Node16 -->
<g id="edge20_Node000004_Node000016" class="edge">
<title>Node4&#45;&gt;Node16</title>
<g id="a_edge20_Node000004_Node000016"><a xlink:title=" ">
<path fill="none" stroke="#63b8ff" d="M346.82,-215.48C363.95,-211.92 382.61,-208.56 400,-206.5 468,-198.44 546.75,-197.15 599.19,-197.42"/>
<polygon fill="#63b8ff" stroke="#63b8ff" points="599.29,-200.92 609.31,-197.5 599.34,-193.92 599.29,-200.92"/>
</a>
</g>
</g>
<!-- Node17 -->
<g id="Node000017" class="node">
<title>Node17</title>
<g id="a_Node000017"><a xlink:href="classnetspeak_1_1invertedindex_1_1Record.html#a33ee9ec074a6f0f11e862bf9aec78160" target="_top" xlink:title=" ">
<polygon fill="white" stroke="#666666" points="547,-159.5 412,-159.5 412,-129.5 547,-129.5 547,-159.5"/>
<text text-anchor="start" x="420" y="-147.5" font-family="Helvetica,sans-Serif" font-size="10.00">netspeak::invertedindex</text>
<text text-anchor="middle" x="479.5" y="-136.5" font-family="Helvetica,sans-Serif" font-size="10.00">::Record::write</text>
</a>
</g>
</g>
<!-- Node4&#45;&gt;Node17 -->
<g id="edge22_Node000004_Node000017" class="edge">
<title>Node4&#45;&gt;Node17</title>
<g id="a_edge22_Node000004_Node000017"><a xlink:title=" ">
<path fill="none" stroke="#63b8ff" d="M313.06,-215.36C336.2,-203.35 369.8,-186.49 400,-173.5 408.33,-169.92 417.27,-166.36 426.02,-163.02"/>
<polygon fill="#63b8ff" stroke="#63b8ff" points="427.27,-166.29 435.4,-159.5 424.81,-159.74 427.27,-166.29"/>
</a>
</g>
</g>
<!-- Node6 -->
<g id="Node000006" class="node">
<title>Node6</title>
<g id="a_Node000006"><a xlink:href="namespacenetspeak_1_1util.html#a4c91ad572508b4021399ac7dddff574d" target="_top" xlink:title=" ">
<polygon fill="white" stroke="#666666" points="872,-117 759,-117 759,-98 872,-98 872,-117"/>
<text text-anchor="middle" x="815.5" y="-105" font-family="Helvetica,sans-Serif" font-size="10.00">netspeak::util::hash</text>
</a>
</g>
</g>
<!-- Node5&#45;&gt;Node6 -->
<g id="edge5_Node000005_Node000006" class="edge">
<title>Node5&#45;&gt;Node6</title>
<g id="a_edge5_Node000005_Node000006"><a xlink:title=" ">
<path fill="none" stroke="#63b8ff" d="M516.55,-54.95C538.95,-49.51 568.43,-43.25 595,-40.5 651.59,-34.63 668.93,-22.82 723,-40.5 752.91,-50.28 781.14,-73.97 798.13,-90.38"/>
<polygon fill="#63b8ff" stroke="#63b8ff" points="795.97,-93.18 805.52,-97.76 800.92,-88.22 795.97,-93.18"/>
</a>
</g>
</g>
<!-- Node7 -->
<g id="Node000007" class="node">
<title>Node7</title>
<g id="a_Node000007"><a xlink:href="namespacenetspeak_1_1util.html#af94d48fda5f335ddcb461a8237079866" target="_top" xlink:title=" ">
<polygon fill="white" stroke="#666666" points="718.5,-79.5 599.5,-79.5 599.5,-49.5 718.5,-49.5 718.5,-79.5"/>
<text text-anchor="start" x="607.5" y="-67.5" font-family="Helvetica,sans-Serif" font-size="10.00">netspeak::util::signal</text>
<text text-anchor="middle" x="659" y="-56.5" font-family="Helvetica,sans-Serif" font-size="10.00">_error</text>
</a>
</g>
</g>
<!-- Node5&#45;&gt;Node7 -->
<g id="edge6_Node000005_Node000007" class="edge">
<title>Node5&#45;&gt;Node7</title>
<g id="a_edge6_Node000005_Node000007"><a xlink:title=" ">
<path fill="none" stroke="#63b8ff" d="M539.11,-64.5C555.17,-64.5 572.72,-64.5 589.28,-64.5"/>
<polygon fill="#63b8ff" stroke="#63b8ff" points="589.45,-68 599.45,-64.5 589.45,-61 589.45,-68"/>
</a>
</g>
</g>
<!-- Node7&#45;&gt;Node6 -->
<g id="edge7_Node000007_Node000006" class="edge">
<title>Node7&#45;&gt;Node6</title>
<g id="a_edge7_Node000007_Node000006"><a xlink:title=" ">
<path fill="none" stroke="#63b8ff" d="M714.04,-79.54C732.37,-84.64 752.62,-90.28 770.11,-95.15"/>
<polygon fill="#63b8ff" stroke="#63b8ff" points="769.48,-98.6 780.06,-97.91 771.36,-91.86 769.48,-98.6"/>
</a>
</g>
</g>
<!-- Node8&#45;&gt;Node6 -->
<g id="edge9_Node000008_Node000006" class="edge">
<title>Node8&#45;&gt;Node6</title>
<g id="a_edge9_Node000008_Node000006"><a xlink:title=" ">
<path fill="none" stroke="#63b8ff" d="M538.3,-102.54C596.81,-103.59 687.16,-105.21 748.46,-106.31"/>
<polygon fill="#63b8ff" stroke="#63b8ff" points="748.74,-109.82 758.8,-106.5 748.86,-102.82 748.74,-109.82"/>
</a>
</g>
</g>
<!-- Node8&#45;&gt;Node7 -->
<g id="edge10_Node000008_Node000007" class="edge">
<title>Node8&#45;&gt;Node7</title>
<g id="a_edge10_Node000008_Node000007"><a xlink:title=" ">
<path fill="none" stroke="#63b8ff" d="M526.21,-91.97C545.45,-87.96 568.26,-83.21 589.44,-78.79"/>
<polygon fill="#63b8ff" stroke="#63b8ff" points="590.29,-82.19 599.36,-76.72 588.86,-75.34 590.29,-82.19"/>
</a>
</g>
</g>
<!-- Node10 -->
<g id="Node000010" class="node">
<title>Node10</title>
<g id="a_Node000010"><a xlink:href="namespacenetspeak_1_1util.html#a9b5dd24226608e9fa5cca9d8abd5fd8b" target="_top" xlink:title=" ">
<polygon fill="white" stroke="#666666" points="715.5,-377.5 602.5,-377.5 602.5,-347.5 715.5,-347.5 715.5,-377.5"/>
<text text-anchor="start" x="610.5" y="-365.5" font-family="Helvetica,sans-Serif" font-size="10.00">netspeak::util::hash</text>
<text text-anchor="middle" x="659" y="-354.5" font-family="Helvetica,sans-Serif" font-size="10.00">&lt; uint32_t &gt;</text>
</a>
</g>
</g>
<!-- Node9&#45;&gt;Node10 -->
<g id="edge12_Node000009_Node000010" class="edge">
<title>Node9&#45;&gt;Node10</title>
<g id="a_edge12_Node000009_Node000010"><a xlink:title=" ">
<path fill="none" stroke="#63b8ff" d="M542.08,-367.07C558.33,-366.43 575.93,-365.74 592.39,-365.09"/>
<polygon fill="#63b8ff" stroke="#63b8ff" points="592.61,-368.58 602.47,-364.69 592.34,-361.59 592.61,-368.58"/>
</a>
</g>
</g>
<!-- Node10&#45;&gt;Node6 -->
<g id="edge13_Node000010_Node000006" class="edge">
<title>Node10&#45;&gt;Node6</title>
<g id="a_edge13_Node000010_Node000006"><a xlink:title=" ">
<path fill="none" stroke="#63b8ff" d="M701.57,-347.42C709.41,-343.18 717.01,-337.92 723,-331.5 779.82,-270.59 803.51,-169.66 811.31,-127.24"/>
<polygon fill="#63b8ff" stroke="#63b8ff" points="814.76,-127.79 813.03,-117.34 807.87,-126.59 814.76,-127.79"/>
</a>
</g>
</g>
<!-- Node13 -->
<g id="Node000013" class="node">
<title>Node13</title>
<g id="a_Node000013"><a xlink:href="namespacenetspeak_1_1util.html#af26e5357869d1662720eabb639fbf27e" target="_top" xlink:title=" ">
<polygon fill="white" stroke="#666666" points="708,-322.5 610,-322.5 610,-292.5 708,-292.5 708,-322.5"/>
<text text-anchor="start" x="618" y="-310.5" font-family="Helvetica,sans-Serif" font-size="10.00">netspeak::util::is</text>
<text text-anchor="middle" x="659" y="-299.5" font-family="Helvetica,sans-Serif" font-size="10.00">_prime</text>
</a>
</g>
</g>
<!-- Node12&#45;&gt;Node13 -->
<g id="edge16_Node000012_Node000013" class="edge">
<title>Node12&#45;&gt;Node13</title>
<g id="a_edge16_Node000012_Node000013"><a xlink:title=" ">
<path fill="none" stroke="#63b8ff" d="M535.2,-320.64C555.69,-318.45 579.02,-315.95 599.81,-313.73"/>
<polygon fill="#63b8ff" stroke="#63b8ff" points="600.22,-317.21 609.79,-312.66 599.47,-310.24 600.22,-317.21"/>
</a>
</g>
</g>
<!-- Node13&#45;&gt;Node6 -->
<g id="edge17_Node000013_Node000006" class="edge">
<title>Node13&#45;&gt;Node6</title>
<g id="a_edge17_Node000013_Node000006"><a xlink:title=" ">
<path fill="none" stroke="#63b8ff" d="M693.08,-292.4C703.48,-286.57 714.47,-279.19 723,-270.5 765.67,-226.99 794.97,-159.61 807.56,-126.79"/>
<polygon fill="#63b8ff" stroke="#63b8ff" points="810.97,-127.66 811.18,-117.07 804.41,-125.22 810.97,-127.66"/>
</a>
</g>
</g>
<!-- Node15 -->
<g id="Node000015" class="node">
<title>Node15</title>
<g id="a_Node000015"><a xlink:href="structnetspeak_1_1value_1_1value__traits.html#ae0ea99c085b1395ddf5651ff4604c96a" target="_top" xlink:title=" ">
<polygon fill="white" stroke="#666666" points="723,-261.5 595,-261.5 595,-231.5 723,-231.5 723,-261.5"/>
<text text-anchor="start" x="603" y="-249.5" font-family="Helvetica,sans-Serif" font-size="10.00">netspeak::value::value</text>
<text text-anchor="middle" x="659" y="-238.5" font-family="Helvetica,sans-Serif" font-size="10.00">_traits::read_from</text>
</a>
</g>
</g>
<!-- Node14&#45;&gt;Node15 -->
<g id="edge19_Node000014_Node000015" class="edge">
<title>Node14&#45;&gt;Node15</title>
<g id="a_edge19_Node000014_Node000015"><a xlink:title=" ">
<path fill="none" stroke="#63b8ff" d="M547.1,-236.5C559.32,-237.6 572.14,-238.76 584.54,-239.88"/>
<polygon fill="#63b8ff" stroke="#63b8ff" points="584.57,-243.4 594.85,-240.81 585.2,-236.42 584.57,-243.4"/>
</a>
</g>
</g>
<!-- Node16&#45;&gt;Node6 -->
<g id="edge21_Node000016_Node000006" class="edge">
<title>Node16&#45;&gt;Node6</title>
<g id="a_edge21_Node000016_Node000006"><a xlink:title=" ">
<path fill="none" stroke="#63b8ff" d="M704.06,-183.46C710.54,-180.75 717.04,-177.74 723,-174.5 749.76,-159.95 777.59,-138.52 795.42,-123.84"/>
<polygon fill="#63b8ff" stroke="#63b8ff" points="797.9,-126.33 803.33,-117.23 793.41,-120.96 797.9,-126.33"/>
</a>
</g>
</g>
<!-- Node18 -->
<g id="Node000018" class="node">
<title>Node18</title>
<g id="a_Node000018"><a xlink:href="structnetspeak_1_1value_1_1value__traits.html#a1d2c047e82f197702794fb868e80c24b" target="_top" xlink:title=" ">
<polygon fill="white" stroke="#666666" points="723,-165.5 595,-165.5 595,-135.5 723,-135.5 723,-165.5"/>
<text text-anchor="start" x="603" y="-153.5" font-family="Helvetica,sans-Serif" font-size="10.00">netspeak::value::value</text>
<text text-anchor="middle" x="659" y="-142.5" font-family="Helvetica,sans-Serif" font-size="10.00">_traits::write_to</text>
</a>
</g>
</g>
<!-- Node17&#45;&gt;Node18 -->
<g id="edge23_Node000017_Node000018" class="edge">
<title>Node17&#45;&gt;Node18</title>
<g id="a_edge23_Node000017_Node000018"><a xlink:title=" ">
<path fill="none" stroke="#63b8ff" d="M547.1,-146.75C559.32,-147.16 572.14,-147.6 584.54,-148.02"/>
<polygon fill="#63b8ff" stroke="#63b8ff" points="584.73,-151.53 594.85,-148.37 584.97,-144.53 584.73,-151.53"/>
</a>
</g>
</g>
<!-- Node19&#45;&gt;Node3 -->
<g id="edge25_Node000019_Node000003" class="edge">
<title>Node19&#45;&gt;Node3</title>
<g id="a_edge25_Node000019_Node000003"><a xlink:title=" ">
<path fill="none" stroke="#63b8ff" d="M352.08,-438.05C367.84,-442.84 384.74,-447.98 400.89,-452.9"/>
<polygon fill="#63b8ff" stroke="#63b8ff" points="400.25,-456.36 410.83,-455.92 402.29,-449.66 400.25,-456.36"/>
</a>
</g>
</g>
<!-- Node20 -->
<g id="Node000020" class="node">
<title>Node20</title>
<g id="a_Node000020"><a xlink:href="classnetspeak_1_1invertedindex_1_1Configuration.html#a56b60abe84282d174a907e5ecb1becf7" target="_top" xlink:title=" ">
<polygon fill="white" stroke="#666666" points="559,-438 400,-438 400,-397 559,-397 559,-438"/>
<text text-anchor="start" x="408" y="-426" font-family="Helvetica,sans-Serif" font-size="10.00">netspeak::invertedindex</text>
<text text-anchor="start" x="408" y="-415" font-family="Helvetica,sans-Serif" font-size="10.00">::Configuration::set_expected</text>
<text text-anchor="middle" x="479.5" y="-404" font-family="Helvetica,sans-Serif" font-size="10.00">_record_count</text>
</a>
</g>
</g>
<!-- Node19&#45;&gt;Node20 -->
<g id="edge26_Node000019_Node000020" class="edge">
<title>Node19&#45;&gt;Node20</title>
<g id="a_edge26_Node000019_Node000020"><a xlink:title=" ">
<path fill="none" stroke="#63b8ff" d="M364.25,-417.5C372.57,-417.5 381.06,-417.5 389.48,-417.5"/>
<polygon fill="#63b8ff" stroke="#63b8ff" points="389.69,-421 399.69,-417.5 389.69,-414 389.69,-421"/>
</a>
</g>
</g>
<!-- Node21&#45;&gt;Node6 -->
<g id="edge28_Node000021_Node000006" class="edge">
<title>Node21&#45;&gt;Node6</title>
<g id="a_edge28_Node000021_Node000006"><a xlink:title=" ">
<path fill="none" stroke="#63b8ff" d="M540.75,-3.63C591.37,-1.08 664.58,-3.06 723,-27.5 755.41,-41.06 784.37,-70.82 800.65,-89.98"/>
<polygon fill="#63b8ff" stroke="#63b8ff" points="798.15,-92.44 807.21,-97.93 803.55,-87.99 798.15,-92.44"/>
</a>
</g>
</g>
<!-- Node21&#45;&gt;Node7 -->
<g id="edge29_Node000021_Node000007" class="edge">
<title>Node21&#45;&gt;Node7</title>
<g id="a_edge29_Node000021_Node000007"><a xlink:title=" ">
<path fill="none" stroke="#63b8ff" d="M511.42,-19.08C535.69,-26.6 570.19,-37.29 599.62,-46.41"/>
<polygon fill="#63b8ff" stroke="#63b8ff" points="598.79,-49.82 609.38,-49.43 600.86,-43.13 598.79,-49.82"/>
</a>
</g>
</g>
<!-- Node21&#45;&gt;Node21 -->
<g id="edge30_Node000021_Node000021" class="edge">
<title>Node21&#45;&gt;Node21</title>
<g id="a_edge30_Node000021_Node000021"><a xlink:title=" ">
<path fill="none" stroke="#63b8ff" d="M452.07,-19.08C438.72,-27.73 447.86,-37 479.5,-37 500.76,-37 511.86,-32.82 512.81,-27.45"/>
<polygon fill="#63b8ff" stroke="#63b8ff" points="515.55,-25.26 506.93,-19.08 509.82,-29.28 515.55,-25.26"/>
</a>
</g>
</g>
</g>
</svg>
