<?xml version="1.0" encoding="UTF-8" standalone="no"?>
<!DOCTYPE svg PUBLIC "-//W3C//DTD SVG 1.1//EN"
 "http://www.w3.org/Graphics/SVG/1.1/DTD/svg11.dtd">
<!-- Generated by graphviz version 2.43.0 (0)
 -->
<!-- Title: netspeak::service::LoadBalanceProxy::areCompatible Pages: 1 -->
<svg width="714pt" height="86pt"
 viewBox="0.00 0.00 714.00 86.00" xmlns="http://www.w3.org/2000/svg" xmlns:xlink="http://www.w3.org/1999/xlink">
<g id="graph0" class="graph" transform="scale(1 1) rotate(0) translate(4 82)">
<title>netspeak::service::LoadBalanceProxy::areCompatible</title>
<!-- Node1 -->
<g id="Node000001" class="node">
<title>Node1</title>
<g id="a_Node000001"><a xlink:title="Returns the whether the two corpora are compatible by the definition of this proxy.">
<polygon fill="#999999" stroke="#666666" points="706,-48.5 522,-48.5 522,-18.5 706,-18.5 706,-48.5"/>
<text text-anchor="start" x="530" y="-36.5" font-family="Helvetica,sans-Serif" font-size="10.00">netspeak::service::</text>
<text text-anchor="middle" x="614" y="-25.5" font-family="Helvetica,sans-Serif" font-size="10.00">LoadBalanceProxy::areCompatible</text>
</a>
</g>
</g>
<!-- Node2 -->
<g id="Node000002" class="node">
<title>Node2</title>
<g id="a_Node000002"><a xlink:href="namespacenetspeak_1_1service.html#aaa2a00c5d85f05b437d2357b4c75d648" target="_top" xlink:title=" ">
<polygon fill="white" stroke="#666666" points="486,-71.5 377,-71.5 377,-41.5 486,-41.5 486,-71.5"/>
<text text-anchor="start" x="385" y="-59.5" font-family="Helvetica,sans-Serif" font-size="10.00">netspeak::service::</text>
<text text-anchor="middle" x="431.5" y="-48.5" font-family="Helvetica,sans-Serif" font-size="10.00">check_compatible</text>
</a>
</g>
</g>
<!-- Node1&#45;&gt;Node2 -->
<g id="edge1_Node000001_Node000002" class="edge">
<title>Node1&#45;&gt;Node2</title>
<g id="a_edge1_Node000001_Node000002"><a xlink:title=" ">
<path fill="none" stroke="#63b8ff" d="M511.92,-46.38C503.06,-47.51 494.35,-48.62 486.12,-49.67"/>
<polygon fill="#63b8ff" stroke="#63b8ff" points="512.48,-49.84 521.96,-45.1 511.59,-42.89 512.48,-49.84"/>
</a>
</g>
</g>
<!-- Node5 -->
<g id="Node000005" class="node">
<title>Node5</title>
<g id="a_Node000005"><a xlink:href="namespacecli.html#a6a02e1a5cac70ac58dc17ac7f8c5cc00" target="_top" xlink:title=" ">
<polygon fill="white" stroke="#666666" points="479,-22 384,-22 384,-3 479,-3 479,-22"/>
<text text-anchor="middle" x="431.5" y="-10" font-family="Helvetica,sans-Serif" font-size="10.00">cli::scanSources</text>
</a>
</g>
</g>
<!-- Node1&#45;&gt;Node5 -->
<g id="edge4_Node000001_Node000005" class="edge">
<title>Node1&#45;&gt;Node5</title>
<g id="a_edge4_Node000001_Node000005"><a xlink:title=" ">
<path fill="none" stroke="#63b8ff" d="M511.97,-21.75C500.66,-20.43 489.58,-19.14 479.45,-17.96"/>
<polygon fill="#63b8ff" stroke="#63b8ff" points="511.62,-25.23 521.96,-22.91 512.43,-18.28 511.62,-25.23"/>
</a>
</g>
</g>
<!-- Node3 -->
<g id="Node000003" class="node">
<title>Node3</title>
<g id="a_Node000003"><a xlink:href="namespacenetspeak_1_1service.html#a345d38ff1fb859d0b86939259e01a8bf" target="_top" xlink:title=" ">
<polygon fill="white" stroke="#666666" points="335,-71.5 216,-71.5 216,-41.5 335,-41.5 335,-71.5"/>
<text text-anchor="start" x="224" y="-59.5" font-family="Helvetica,sans-Serif" font-size="10.00">netspeak::service::</text>
<text text-anchor="middle" x="275.5" y="-48.5" font-family="Helvetica,sans-Serif" font-size="10.00">initialize_from_stubs</text>
</a>
</g>
</g>
<!-- Node2&#45;&gt;Node3 -->
<g id="edge2_Node000002_Node000003" class="edge">
<title>Node2&#45;&gt;Node3</title>
<g id="a_edge2_Node000002_Node000003"><a xlink:title=" ">
<path fill="none" stroke="#63b8ff" d="M366.39,-56.5C356,-56.5 345.3,-56.5 335.05,-56.5"/>
<polygon fill="#63b8ff" stroke="#63b8ff" points="366.64,-60 376.64,-56.5 366.64,-53 366.64,-60"/>
</a>
</g>
</g>
<!-- Node4 -->
<g id="Node000004" class="node">
<title>Node4</title>
<g id="a_Node000004"><a xlink:href="classnetspeak_1_1service_1_1LoadBalanceProxy.html#acbfeb04ec63d9e346ff78d706e73d5c5" target="_top" xlink:title=" ">
<polygon fill="white" stroke="#666666" points="174,-78 0,-78 0,-37 174,-37 174,-78"/>
<text text-anchor="start" x="8" y="-66" font-family="Helvetica,sans-Serif" font-size="10.00">netspeak::service::</text>
<text text-anchor="start" x="8" y="-55" font-family="Helvetica,sans-Serif" font-size="10.00">LoadBalanceProxy::LoadBalance</text>
<text text-anchor="middle" x="87" y="-44" font-family="Helvetica,sans-Serif" font-size="10.00">Proxy</text>
</a>
</g>
</g>
<!-- Node3&#45;&gt;Node4 -->
<g id="edge3_Node000003_Node000004" class="edge">
<title>Node3&#45;&gt;Node4</title>
<g id="a_edge3_Node000003_Node000004"><a xlink:title=" ">
<path fill="none" stroke="#63b8ff" d="M205.63,-56.87C195.36,-56.92 184.66,-56.98 174.09,-57.04"/>
<polygon fill="#63b8ff" stroke="#63b8ff" points="205.77,-60.37 215.75,-56.82 205.73,-53.37 205.77,-60.37"/>
</a>
</g>
</g>
<!-- Node6 -->
<g id="Node000006" class="node">
<title>Node6</title>
<g id="a_Node000006"><a xlink:href="namespacecli.html#ab3047781f5c7e722415ab5ac13152596" target="_top" xlink:title=" ">
<polygon fill="white" stroke="#666666" points="341,-21 210,-21 210,-2 341,-2 341,-21"/>
<text text-anchor="middle" x="275.5" y="-9" font-family="Helvetica,sans-Serif" font-size="10.00">cli::build_proxy_service</text>
</a>
</g>
</g>
<!-- Node5&#45;&gt;Node6 -->
<g id="edge5_Node000005_Node000006" class="edge">
<title>Node5&#45;&gt;Node6</title>
<g id="a_edge5_Node000005_Node000006"><a xlink:title=" ">
<path fill="none" stroke="#63b8ff" d="M373.87,-12.13C363.22,-12.06 352.02,-11.99 341.15,-11.92"/>
<polygon fill="#63b8ff" stroke="#63b8ff" points="373.85,-15.63 383.88,-12.2 373.9,-8.63 373.85,-15.63"/>
</a>
</g>
</g>
<!-- Node7 -->
<g id="Node000007" class="node">
<title>Node7</title>
<g id="a_Node000007"><a xlink:href="classcli_1_1ProxyCommand.html#a50dcb9c42e6b385a65354f9b999901ce" target="_top" xlink:title=" ">
<polygon fill="white" stroke="#666666" points="154,-19 20,-19 20,0 154,0 154,-19"/>
<text text-anchor="middle" x="87" y="-7" font-family="Helvetica,sans-Serif" font-size="10.00">cli::ProxyCommand::run</text>
</a>
</g>
</g>
<!-- Node6&#45;&gt;Node7 -->
<g id="edge6_Node000006_Node000007" class="edge">
<title>Node6&#45;&gt;Node7</title>
<g id="a_edge6_Node000006_Node000007"><a xlink:title=" ">
<path fill="none" stroke="#63b8ff" d="M199.53,-10.7C184.52,-10.54 168.86,-10.37 154.17,-10.21"/>
<polygon fill="#63b8ff" stroke="#63b8ff" points="199.76,-14.2 209.79,-10.81 199.83,-7.2 199.76,-14.2"/>
</a>
</g>
</g>
</g>
</svg>
