<?xml version="1.0" encoding="UTF-8" standalone="no"?>
<!DOCTYPE svg PUBLIC "-//W3C//DTD SVG 1.1//EN"
 "http://www.w3.org/Graphics/SVG/1.1/DTD/svg11.dtd">
<!-- Generated by graphviz version 2.43.0 (0)
 -->
<!-- Title: netspeak::invertedindex::UnsortedInput::rehash Pages: 1 -->
<svg width="627pt" height="343pt"
 viewBox="0.00 0.00 627.00 343.12" xmlns="http://www.w3.org/2000/svg" xmlns:xlink="http://www.w3.org/1999/xlink">
<g id="graph0" class="graph" transform="scale(1 1) rotate(0) translate(4 339.12)">
<title>netspeak::invertedindex::UnsortedInput::rehash</title>
<!-- Node1 -->
<g id="Node000001" class="node">
<title>Node1</title>
<g id="a_Node000001"><a xlink:title=" ">
<polygon fill="#999999" stroke="#666666" points="135,-193 0,-193 0,-163 135,-163 135,-193"/>
<text text-anchor="start" x="8" y="-181" font-family="Helvetica,sans-Serif" font-size="10.00">netspeak::invertedindex</text>
<text text-anchor="middle" x="67.5" y="-170" font-family="Helvetica,sans-Serif" font-size="10.00">::UnsortedInput::rehash</text>
</a>
</g>
</g>
<!-- Node2 -->
<g id="Node000002" class="node">
<title>Node2</title>
<g id="a_Node000002"><a xlink:href="namespacenetspeak_1_1util.html#a978978e70b474657b12402a3db711ef0" target="_top" xlink:title=" ">
<polygon fill="white" stroke="#666666" points="298,-328.5 179,-328.5 179,-309.5 298,-309.5 298,-328.5"/>
<text text-anchor="middle" x="238.5" y="-316.5" font-family="Helvetica,sans-Serif" font-size="10.00">netspeak::util::fclose</text>
</a>
</g>
</g>
<!-- Node1&#45;&gt;Node2 -->
<g id="edge1_Node000001_Node000002" class="edge">
<title>Node1&#45;&gt;Node2</title>
<g id="a_edge1_Node000001_Node000002"><a xlink:title=" ">
<path fill="none" stroke="#63b8ff" d="M76.8,-193.04C91.98,-219.11 126.78,-272.64 171,-301 173.58,-302.66 176.32,-304.16 179.15,-305.53"/>
<polygon fill="#63b8ff" stroke="#63b8ff" points="177.86,-308.79 188.44,-309.45 180.58,-302.34 177.86,-308.79"/>
</a>
</g>
</g>
<!-- Node5 -->
<g id="Node000005" class="node">
<title>Node5</title>
<g id="a_Node000005"><a xlink:href="namespacenetspeak_1_1util.html#a4acc3d13f8d541f4b65dd44f486403fd" target="_top" xlink:title=" ">
<polygon fill="white" stroke="#666666" points="297,-291.5 180,-291.5 180,-272.5 297,-272.5 297,-291.5"/>
<text text-anchor="middle" x="238.5" y="-279.5" font-family="Helvetica,sans-Serif" font-size="10.00">netspeak::util::fopen</text>
</a>
</g>
</g>
<!-- Node1&#45;&gt;Node5 -->
<g id="edge5_Node000001_Node000005" class="edge">
<title>Node1&#45;&gt;Node5</title>
<g id="a_edge5_Node000001_Node000005"><a xlink:title=" ">
<path fill="none" stroke="#63b8ff" d="M82.28,-193.06C100.7,-212.29 135.17,-245.29 171,-264 174.54,-265.85 178.28,-267.52 182.12,-269.03"/>
<polygon fill="#63b8ff" stroke="#63b8ff" points="181.19,-272.41 191.79,-272.46 183.53,-265.82 181.19,-272.41"/>
</a>
</g>
</g>
<!-- Node6 -->
<g id="Node000006" class="node">
<title>Node6</title>
<g id="a_Node000006"><a xlink:href="namespacenetspeak_1_1util.html#ab36ee03e8b2f69483c3ac0e160da3cf4" target="_top" xlink:title=" ">
<polygon fill="white" stroke="#666666" points="301,-254.5 176,-254.5 176,-235.5 301,-235.5 301,-254.5"/>
<text text-anchor="middle" x="238.5" y="-242.5" font-family="Helvetica,sans-Serif" font-size="10.00">netspeak::util::hash32</text>
</a>
</g>
</g>
<!-- Node1&#45;&gt;Node6 -->
<g id="edge8_Node000001_Node000006" class="edge">
<title>Node1&#45;&gt;Node6</title>
<g id="a_edge8_Node000001_Node000006"><a xlink:title=" ">
<path fill="none" stroke="#63b8ff" d="M97.57,-193.13C117.8,-203.29 145.6,-216.49 171,-226 177.27,-228.35 183.97,-230.57 190.6,-232.62"/>
<polygon fill="#63b8ff" stroke="#63b8ff" points="189.64,-235.99 200.23,-235.48 191.64,-229.28 189.64,-235.99"/>
</a>
</g>
</g>
<!-- Node8 -->
<g id="Node000008" class="node">
<title>Node8</title>
<g id="a_Node000008"><a xlink:href="classnetspeak_1_1invertedindex_1_1Record.html#a8c31f71f3940ea11d85fbfca276f0eca" target="_top" xlink:title=" ">
<polygon fill="white" stroke="#666666" points="306,-217 171,-217 171,-187 306,-187 306,-217"/>
<text text-anchor="start" x="179" y="-205" font-family="Helvetica,sans-Serif" font-size="10.00">netspeak::invertedindex</text>
<text text-anchor="middle" x="238.5" y="-194" font-family="Helvetica,sans-Serif" font-size="10.00">::Record::key</text>
</a>
</g>
</g>
<!-- Node1&#45;&gt;Node8 -->
<g id="edge11_Node000001_Node000008" class="edge">
<title>Node1&#45;&gt;Node8</title>
<g id="a_edge11_Node000001_Node000008"><a xlink:title=" ">
<path fill="none" stroke="#63b8ff" d="M135.29,-187.49C143.72,-188.68 152.38,-189.91 160.94,-191.13"/>
<polygon fill="#63b8ff" stroke="#63b8ff" points="160.52,-194.6 170.92,-192.54 161.51,-187.67 160.52,-194.6"/>
</a>
</g>
</g>
<!-- Node9 -->
<g id="Node000009" class="node">
<title>Node9</title>
<g id="a_Node000009"><a xlink:href="namespacenetspeak_1_1util.html#ac58571e9b104c9440b6c4f067e75696f" target="_top" xlink:title=" ">
<polygon fill="white" stroke="#666666" points="294,-169 183,-169 183,-139 294,-139 294,-169"/>
<text text-anchor="start" x="191" y="-157" font-family="Helvetica,sans-Serif" font-size="10.00">netspeak::util::next</text>
<text text-anchor="middle" x="238.5" y="-146" font-family="Helvetica,sans-Serif" font-size="10.00">_prime</text>
</a>
</g>
</g>
<!-- Node1&#45;&gt;Node9 -->
<g id="edge12_Node000001_Node000009" class="edge">
<title>Node1&#45;&gt;Node9</title>
<g id="a_edge12_Node000001_Node000009"><a xlink:title=" ">
<path fill="none" stroke="#63b8ff" d="M135.29,-168.51C147.62,-166.76 160.47,-164.94 172.74,-163.2"/>
<polygon fill="#63b8ff" stroke="#63b8ff" points="173.47,-166.63 182.87,-161.76 172.48,-159.7 173.47,-166.63"/>
</a>
</g>
</g>
<!-- Node11 -->
<g id="Node000011" class="node">
<title>Node11</title>
<g id="a_Node000011"><a xlink:href="classnetspeak_1_1invertedindex_1_1Record.html#a6661e7a0659dc3fc968d7992fca4732c" target="_top" xlink:title=" ">
<polygon fill="white" stroke="#666666" points="306,-121 171,-121 171,-91 306,-91 306,-121"/>
<text text-anchor="start" x="179" y="-109" font-family="Helvetica,sans-Serif" font-size="10.00">netspeak::invertedindex</text>
<text text-anchor="middle" x="238.5" y="-98" font-family="Helvetica,sans-Serif" font-size="10.00">::Record::read</text>
</a>
</g>
</g>
<!-- Node1&#45;&gt;Node11 -->
<g id="edge15_Node000001_Node000011" class="edge">
<title>Node1&#45;&gt;Node11</title>
<g id="a_edge15_Node000001_Node000011"><a xlink:title=" ">
<path fill="none" stroke="#63b8ff" d="M98.67,-162.98C118.92,-153.12 146.31,-140.21 171,-130 175.38,-128.19 179.95,-126.38 184.55,-124.61"/>
<polygon fill="#63b8ff" stroke="#63b8ff" points="185.87,-127.85 194,-121.05 183.4,-121.3 185.87,-127.85"/>
</a>
</g>
</g>
<!-- Node13 -->
<g id="Node000013" class="node">
<title>Node13</title>
<g id="a_Node000013"><a xlink:href="namespacenetspeak_1_1util.html#ac8b0cdf55599b33fd7d4013948d48f43" target="_top" xlink:title=" ">
<polygon fill="white" stroke="#666666" points="455.5,-78 356.5,-78 356.5,-48 455.5,-48 455.5,-78"/>
<text text-anchor="start" x="364.5" y="-66" font-family="Helvetica,sans-Serif" font-size="10.00">netspeak::util::to</text>
<text text-anchor="middle" x="406" y="-55" font-family="Helvetica,sans-Serif" font-size="10.00">_string</text>
</a>
</g>
</g>
<!-- Node1&#45;&gt;Node13 -->
<g id="edge17_Node000001_Node000013" class="edge">
<title>Node1&#45;&gt;Node13</title>
<g id="a_edge17_Node000001_Node000013"><a xlink:title=" ">
<path fill="none" stroke="#63b8ff" d="M79.35,-162.71C96.12,-140.46 130.65,-99.87 171,-82 226.67,-57.35 297.04,-55 346.01,-57.31"/>
<polygon fill="#63b8ff" stroke="#63b8ff" points="345.94,-60.82 356.12,-57.87 346.33,-53.83 345.94,-60.82"/>
</a>
</g>
</g>
<!-- Node14 -->
<g id="Node000014" class="node">
<title>Node14</title>
<g id="a_Node000014"><a xlink:href="classnetspeak_1_1invertedindex_1_1Record.html#a33ee9ec074a6f0f11e862bf9aec78160" target="_top" xlink:title=" ">
<polygon fill="white" stroke="#666666" points="306,-33 171,-33 171,-3 306,-3 306,-33"/>
<text text-anchor="start" x="179" y="-21" font-family="Helvetica,sans-Serif" font-size="10.00">netspeak::invertedindex</text>
<text text-anchor="middle" x="238.5" y="-10" font-family="Helvetica,sans-Serif" font-size="10.00">::Record::write</text>
</a>
</g>
</g>
<!-- Node1&#45;&gt;Node14 -->
<g id="edge19_Node000001_Node000014" class="edge">
<title>Node1&#45;&gt;Node14</title>
<g id="a_edge19_Node000001_Node000014"><a xlink:title=" ">
<path fill="none" stroke="#63b8ff" d="M77.16,-163C92.91,-136.84 128.55,-82.48 171,-49 176.31,-44.81 182.27,-41.03 188.4,-37.66"/>
<polygon fill="#63b8ff" stroke="#63b8ff" points="190.12,-40.71 197.42,-33.03 186.93,-34.48 190.12,-40.71"/>
</a>
</g>
</g>
<!-- Node3 -->
<g id="Node000003" class="node">
<title>Node3</title>
<g id="a_Node000003"><a xlink:href="namespacenetspeak_1_1util.html#a4c91ad572508b4021399ac7dddff574d" target="_top" xlink:title=" ">
<polygon fill="white" stroke="#666666" points="619,-237.5 506,-237.5 506,-218.5 619,-218.5 619,-237.5"/>
<text text-anchor="middle" x="562.5" y="-225.5" font-family="Helvetica,sans-Serif" font-size="10.00">netspeak::util::hash</text>
</a>
</g>
</g>
<!-- Node2&#45;&gt;Node3 -->
<g id="edge2_Node000002_Node000003" class="edge">
<title>Node2&#45;&gt;Node3</title>
<g id="a_edge2_Node000002_Node000003"><a xlink:title=" ">
<path fill="none" stroke="#63b8ff" d="M286.55,-328.5C334.61,-335.98 410.41,-341.5 470,-317 505.15,-302.55 534.27,-267.52 549.66,-245.96"/>
<polygon fill="#63b8ff" stroke="#63b8ff" points="552.6,-247.87 555.4,-237.65 546.84,-243.9 552.6,-247.87"/>
</a>
</g>
</g>
<!-- Node4 -->
<g id="Node000004" class="node">
<title>Node4</title>
<g id="a_Node000004"><a xlink:href="namespacenetspeak_1_1util.html#af94d48fda5f335ddcb461a8237079866" target="_top" xlink:title=" ">
<polygon fill="white" stroke="#666666" points="465.5,-308 346.5,-308 346.5,-278 465.5,-278 465.5,-308"/>
<text text-anchor="start" x="354.5" y="-296" font-family="Helvetica,sans-Serif" font-size="10.00">netspeak::util::signal</text>
<text text-anchor="middle" x="406" y="-285" font-family="Helvetica,sans-Serif" font-size="10.00">_error</text>
</a>
</g>
</g>
<!-- Node2&#45;&gt;Node4 -->
<g id="edge3_Node000002_Node000004" class="edge">
<title>Node2&#45;&gt;Node4</title>
<g id="a_edge3_Node000002_Node000004"><a xlink:title=" ">
<path fill="none" stroke="#63b8ff" d="M298.32,-309.76C310.63,-307.83 323.72,-305.77 336.36,-303.78"/>
<polygon fill="#63b8ff" stroke="#63b8ff" points="337.04,-307.22 346.37,-302.21 335.95,-300.3 337.04,-307.22"/>
</a>
</g>
</g>
<!-- Node4&#45;&gt;Node3 -->
<g id="edge4_Node000004_Node000003" class="edge">
<title>Node4&#45;&gt;Node3</title>
<g id="a_edge4_Node000004_Node000003"><a xlink:title=" ">
<path fill="none" stroke="#63b8ff" d="M442.83,-277.92C468.96,-266.93 504.06,-252.16 529.3,-241.55"/>
<polygon fill="#63b8ff" stroke="#63b8ff" points="530.93,-244.66 538.79,-237.56 528.21,-238.21 530.93,-244.66"/>
</a>
</g>
</g>
<!-- Node5&#45;&gt;Node3 -->
<g id="edge6_Node000005_Node000003" class="edge">
<title>Node5&#45;&gt;Node3</title>
<g id="a_edge6_Node000005_Node000003"><a xlink:title=" ">
<path fill="none" stroke="#63b8ff" d="M296.33,-272.47C352.14,-263.11 437.21,-248.84 495.88,-239.01"/>
<polygon fill="#63b8ff" stroke="#63b8ff" points="496.5,-242.45 505.78,-237.34 495.34,-235.55 496.5,-242.45"/>
</a>
</g>
</g>
<!-- Node5&#45;&gt;Node4 -->
<g id="edge7_Node000005_Node000004" class="edge">
<title>Node5&#45;&gt;Node4</title>
<g id="a_edge7_Node000005_Node000004"><a xlink:title=" ">
<path fill="none" stroke="#63b8ff" d="M297.38,-285.85C309.89,-286.68 323.23,-287.56 336.1,-288.42"/>
<polygon fill="#63b8ff" stroke="#63b8ff" points="336.1,-291.93 346.31,-289.1 336.56,-284.94 336.1,-291.93"/>
</a>
</g>
</g>
<!-- Node7 -->
<g id="Node000007" class="node">
<title>Node7</title>
<g id="a_Node000007"><a xlink:href="namespacenetspeak_1_1util.html#a9b5dd24226608e9fa5cca9d8abd5fd8b" target="_top" xlink:title=" ">
<polygon fill="white" stroke="#666666" points="462.5,-222 349.5,-222 349.5,-192 462.5,-192 462.5,-222"/>
<text text-anchor="start" x="357.5" y="-210" font-family="Helvetica,sans-Serif" font-size="10.00">netspeak::util::hash</text>
<text text-anchor="middle" x="406" y="-199" font-family="Helvetica,sans-Serif" font-size="10.00">&lt; uint32_t &gt;</text>
</a>
</g>
</g>
<!-- Node6&#45;&gt;Node7 -->
<g id="edge9_Node000006_Node000007" class="edge">
<title>Node6&#45;&gt;Node7</title>
<g id="a_edge9_Node000006_Node000007"><a xlink:title=" ">
<path fill="none" stroke="#63b8ff" d="M281.26,-235.41C298.96,-231.35 320,-226.52 339.66,-222"/>
<polygon fill="#63b8ff" stroke="#63b8ff" points="340.52,-225.4 349.49,-219.75 338.96,-218.57 340.52,-225.4"/>
</a>
</g>
</g>
<!-- Node7&#45;&gt;Node3 -->
<g id="edge10_Node000007_Node000003" class="edge">
<title>Node7&#45;&gt;Node3</title>
<g id="a_edge10_Node000007_Node000003"><a xlink:title=" ">
<path fill="none" stroke="#63b8ff" d="M462.78,-214.58C473.5,-216.04 484.82,-217.58 495.82,-219.07"/>
<polygon fill="#63b8ff" stroke="#63b8ff" points="495.42,-222.55 505.8,-220.43 496.37,-215.61 495.42,-222.55"/>
</a>
</g>
</g>
<!-- Node10 -->
<g id="Node000010" class="node">
<title>Node10</title>
<g id="a_Node000010"><a xlink:href="namespacenetspeak_1_1util.html#af26e5357869d1662720eabb639fbf27e" target="_top" xlink:title=" ">
<polygon fill="white" stroke="#666666" points="455,-174 357,-174 357,-144 455,-144 455,-174"/>
<text text-anchor="start" x="365" y="-162" font-family="Helvetica,sans-Serif" font-size="10.00">netspeak::util::is</text>
<text text-anchor="middle" x="406" y="-151" font-family="Helvetica,sans-Serif" font-size="10.00">_prime</text>
</a>
</g>
</g>
<!-- Node9&#45;&gt;Node10 -->
<g id="edge13_Node000009_Node000010" class="edge">
<title>Node9&#45;&gt;Node10</title>
<g id="a_edge13_Node000009_Node000010"><a xlink:title=" ">
<path fill="none" stroke="#63b8ff" d="M294.15,-155.65C310.91,-156.16 329.42,-156.72 346.44,-157.23"/>
<polygon fill="#63b8ff" stroke="#63b8ff" points="346.71,-160.74 356.81,-157.54 346.92,-153.74 346.71,-160.74"/>
</a>
</g>
</g>
<!-- Node10&#45;&gt;Node3 -->
<g id="edge14_Node000010_Node000003" class="edge">
<title>Node10&#45;&gt;Node3</title>
<g id="a_edge14_Node000010_Node000003"><a xlink:title=" ">
<path fill="none" stroke="#63b8ff" d="M448.23,-174.07C455.53,-176.92 463.02,-179.96 470,-183 491.78,-192.48 515.86,-204.38 533.85,-213.56"/>
<polygon fill="#63b8ff" stroke="#63b8ff" points="532.67,-216.89 543.16,-218.35 535.87,-210.67 532.67,-216.89"/>
</a>
</g>
</g>
<!-- Node12 -->
<g id="Node000012" class="node">
<title>Node12</title>
<g id="a_Node000012"><a xlink:href="structnetspeak_1_1value_1_1value__traits.html#ae0ea99c085b1395ddf5651ff4604c96a" target="_top" xlink:title=" ">
<polygon fill="white" stroke="#666666" points="470,-126 342,-126 342,-96 470,-96 470,-126"/>
<text text-anchor="start" x="350" y="-114" font-family="Helvetica,sans-Serif" font-size="10.00">netspeak::value::value</text>
<text text-anchor="middle" x="406" y="-103" font-family="Helvetica,sans-Serif" font-size="10.00">_traits::read_from</text>
</a>
</g>
</g>
<!-- Node11&#45;&gt;Node12 -->
<g id="edge16_Node000011_Node000012" class="edge">
<title>Node11&#45;&gt;Node12</title>
<g id="a_edge16_Node000011_Node000012"><a xlink:title=" ">
<path fill="none" stroke="#63b8ff" d="M306.34,-108.02C314.69,-108.27 323.27,-108.53 331.72,-108.79"/>
<polygon fill="#63b8ff" stroke="#63b8ff" points="331.83,-112.29 341.93,-109.09 332.04,-105.29 331.83,-112.29"/>
</a>
</g>
</g>
<!-- Node13&#45;&gt;Node3 -->
<g id="edge18_Node000013_Node000003" class="edge">
<title>Node13&#45;&gt;Node3</title>
<g id="a_edge18_Node000013_Node000003"><a xlink:title=" ">
<path fill="none" stroke="#63b8ff" d="M455.53,-77.79C460.68,-80.42 465.63,-83.47 470,-87 511.83,-120.8 540.85,-179 553.83,-208.96"/>
<polygon fill="#63b8ff" stroke="#63b8ff" points="550.65,-210.42 557.74,-218.29 557.1,-207.71 550.65,-210.42"/>
</a>
</g>
</g>
<!-- Node15 -->
<g id="Node000015" class="node">
<title>Node15</title>
<g id="a_Node000015"><a xlink:href="structnetspeak_1_1value_1_1value__traits.html#a1d2c047e82f197702794fb868e80c24b" target="_top" xlink:title=" ">
<polygon fill="white" stroke="#666666" points="470,-30 342,-30 342,0 470,0 470,-30"/>
<text text-anchor="start" x="350" y="-18" font-family="Helvetica,sans-Serif" font-size="10.00">netspeak::value::value</text>
<text text-anchor="middle" x="406" y="-7" font-family="Helvetica,sans-Serif" font-size="10.00">_traits::write_to</text>
</a>
</g>
</g>
<!-- Node14&#45;&gt;Node15 -->
<g id="edge20_Node000014_Node000015" class="edge">
<title>Node14&#45;&gt;Node15</title>
<g id="a_edge20_Node000014_Node000015"><a xlink:title=" ">
<path fill="none" stroke="#63b8ff" d="M306.34,-16.79C314.69,-16.64 323.27,-16.48 331.72,-16.33"/>
<polygon fill="#63b8ff" stroke="#63b8ff" points="332,-19.82 341.93,-16.14 331.87,-12.83 332,-19.82"/>
</a>
</g>
</g>
</g>
</svg>
