<?xml version="1.0" encoding="UTF-8" standalone="no"?>
<!DOCTYPE svg PUBLIC "-//W3C//DTD SVG 1.1//EN"
 "http://www.w3.org/Graphics/SVG/1.1/DTD/svg11.dtd">
<!-- Generated by graphviz version 2.43.0 (0)
 -->
<!-- Title: netspeak::StarQueryConverter::concat Pages: 1 -->
<svg width="724pt" height="278pt"
 viewBox="0.00 0.00 724.00 278.00" xmlns="http://www.w3.org/2000/svg" xmlns:xlink="http://www.w3.org/1999/xlink">
<g id="graph0" class="graph" transform="scale(1 1) rotate(0) translate(4 274)">
<title>netspeak::StarQueryConverter::concat</title>
<!-- Node1 -->
<g id="Node000001" class="node">
<title>Node1</title>
<g id="a_Node000001"><a xlink:title=" ">
<polygon fill="#999999" stroke="#666666" points="164,-165 0,-165 0,-135 164,-135 164,-165"/>
<text text-anchor="start" x="8" y="-153" font-family="Helvetica,sans-Serif" font-size="10.00">netspeak::StarQueryConverter</text>
<text text-anchor="middle" x="82" y="-142" font-family="Helvetica,sans-Serif" font-size="10.00">::concat</text>
</a>
</g>
</g>
<!-- Node1&#45;&gt;Node1 -->
<g id="edge13_Node000001_Node000001" class="edge">
<title>Node1&#45;&gt;Node1</title>
<g id="a_edge13_Node000001_Node000001"><a xlink:title=" ">
<path fill="none" stroke="#63b8ff" d="M46.84,-165.28C39.03,-174.41 50.75,-183 82,-183 100.55,-183 112.22,-179.97 117.01,-175.6"/>
<polygon fill="#63b8ff" stroke="#63b8ff" points="120.51,-175.32 117.16,-165.28 113.51,-175.22 120.51,-175.32"/>
</a>
</g>
</g>
<!-- Node2 -->
<g id="Node000002" class="node">
<title>Node2</title>
<g id="a_Node000002"><a xlink:href="classnetspeak_1_1StarQueryConverter.html#a3b9f125a061331acd1c667c8bf50fb2b" target="_top" xlink:title=" ">
<polygon fill="white" stroke="#666666" points="364,-165 200,-165 200,-135 364,-135 364,-165"/>
<text text-anchor="start" x="208" y="-153" font-family="Helvetica,sans-Serif" font-size="10.00">netspeak::StarQueryConverter</text>
<text text-anchor="middle" x="282" y="-142" font-family="Helvetica,sans-Serif" font-size="10.00">::alternation</text>
</a>
</g>
</g>
<!-- Node1&#45;&gt;Node2 -->
<g id="edge1_Node000001_Node000002" class="edge">
<title>Node1&#45;&gt;Node2</title>
<g id="a_edge1_Node000001_Node000002"><a xlink:title=" ">
<path fill="none" stroke="#63b8ff" d="M164.11,-143.35C172.46,-143.26 180.99,-143.23 189.44,-143.27"/>
<polygon fill="#63b8ff" stroke="#63b8ff" points="189.67,-146.77 199.7,-143.35 189.73,-139.77 189.67,-146.77"/>
</a>
</g>
</g>
<!-- Node3 -->
<g id="Node000003" class="node">
<title>Node3</title>
<g id="a_Node000003"><a xlink:href="classnetspeak_1_1model_1_1SimpleQueryUnit____.html#a8840caeb703398accd6bf417b0b1ae8e" target="_top" xlink:title=" ">
<polygon fill="white" stroke="#666666" points="567,-270 400,-270 400,-240 567,-240 567,-270"/>
<text text-anchor="start" x="408" y="-258" font-family="Helvetica,sans-Serif" font-size="10.00">netspeak::model::SimpleQuery</text>
<text text-anchor="middle" x="483.5" y="-247" font-family="Helvetica,sans-Serif" font-size="10.00">Unit__::children</text>
</a>
</g>
</g>
<!-- Node1&#45;&gt;Node3 -->
<g id="edge12_Node000001_Node000003" class="edge">
<title>Node1&#45;&gt;Node3</title>
<g id="a_edge12_Node000001_Node000003"><a xlink:title=" ">
<path fill="none" stroke="#63b8ff" d="M104.77,-165.02C127.48,-179.92 164.64,-202.19 200,-214 261.29,-234.47 333.43,-244.72 389.47,-249.86"/>
<polygon fill="#63b8ff" stroke="#63b8ff" points="389.47,-253.37 399.74,-250.76 390.08,-246.4 389.47,-253.37"/>
</a>
</g>
</g>
<!-- Node5 -->
<g id="Node000005" class="node">
<title>Node5</title>
<g id="a_Node000005"><a xlink:href="classnetspeak_1_1model_1_1SimpleQueryUnit____.html#a90bbf69557a0a390446247d9435aed98" target="_top" xlink:title=" ">
<polygon fill="white" stroke="#666666" points="567,-222 400,-222 400,-192 567,-192 567,-222"/>
<text text-anchor="start" x="408" y="-210" font-family="Helvetica,sans-Serif" font-size="10.00">netspeak::model::SimpleQuery</text>
<text text-anchor="middle" x="483.5" y="-199" font-family="Helvetica,sans-Serif" font-size="10.00">Unit__::source</text>
</a>
</g>
</g>
<!-- Node1&#45;&gt;Node5 -->
<g id="edge14_Node000001_Node000005" class="edge">
<title>Node1&#45;&gt;Node5</title>
<g id="a_edge14_Node000001_Node000005"><a xlink:title=" ">
<path fill="none" stroke="#63b8ff" d="M116.55,-165C139.55,-174.54 171.02,-186.16 200,-192 262.44,-204.58 334.11,-208.27 389.64,-208.84"/>
<polygon fill="#63b8ff" stroke="#63b8ff" points="389.79,-212.34 399.81,-208.91 389.83,-205.34 389.79,-212.34"/>
</a>
</g>
</g>
<!-- Node6 -->
<g id="Node000006" class="node">
<title>Node6</title>
<g id="a_Node000006"><a xlink:href="classnetspeak_1_1model_1_1SimpleQueryUnit____.html#a06c21084859addaa75c754815d691d39" target="_top" xlink:title=" ">
<polygon fill="white" stroke="#666666" points="567,-126 400,-126 400,-96 567,-96 567,-126"/>
<text text-anchor="start" x="408" y="-114" font-family="Helvetica,sans-Serif" font-size="10.00">netspeak::model::SimpleQuery</text>
<text text-anchor="middle" x="483.5" y="-103" font-family="Helvetica,sans-Serif" font-size="10.00">Unit__::tag</text>
</a>
</g>
</g>
<!-- Node1&#45;&gt;Node6 -->
<g id="edge15_Node000001_Node000006" class="edge">
<title>Node1&#45;&gt;Node6</title>
<g id="a_edge15_Node000001_Node000006"><a xlink:title=" ">
<path fill="none" stroke="#63b8ff" d="M147.39,-135C164.41,-131.52 182.83,-128.2 200,-126 262.94,-117.92 334.31,-114.17 389.57,-112.45"/>
<polygon fill="#63b8ff" stroke="#63b8ff" points="389.8,-115.94 399.69,-112.15 389.6,-108.94 389.8,-115.94"/>
</a>
</g>
</g>
<!-- Node7 -->
<g id="Node000007" class="node">
<title>Node7</title>
<g id="a_Node000007"><a xlink:href="classnetspeak_1_1model_1_1SimpleQueryUnit____.html#a1ffd5dced48df9d16a6de0e434858634" target="_top" xlink:title=" ">
<polygon fill="white" stroke="#666666" points="567,-78 400,-78 400,-48 567,-48 567,-78"/>
<text text-anchor="start" x="408" y="-66" font-family="Helvetica,sans-Serif" font-size="10.00">netspeak::model::SimpleQuery</text>
<text text-anchor="middle" x="483.5" y="-55" font-family="Helvetica,sans-Serif" font-size="10.00">Unit__::text</text>
</a>
</g>
</g>
<!-- Node1&#45;&gt;Node7 -->
<g id="edge16_Node000001_Node000007" class="edge">
<title>Node1&#45;&gt;Node7</title>
<g id="a_edge16_Node000001_Node000007"><a xlink:title=" ">
<path fill="none" stroke="#63b8ff" d="M120.42,-135C143.14,-126.37 172.88,-115.9 200,-109 262.45,-93.11 334.12,-81.51 389.64,-73.94"/>
<polygon fill="#63b8ff" stroke="#63b8ff" points="390.37,-77.37 399.82,-72.57 389.44,-70.43 390.37,-77.37"/>
</a>
</g>
</g>
<!-- Node8 -->
<g id="Node000008" class="node">
<title>Node8</title>
<g id="a_Node000008"><a xlink:href="classnetspeak_1_1StarQuery.html#a8df828a9f4fc20f1530bf0fa7a2fc2fc" target="_top" xlink:title=" ">
<polygon fill="white" stroke="#666666" points="340,-37 224,-37 224,-7 340,-7 340,-37"/>
<text text-anchor="start" x="232" y="-25" font-family="Helvetica,sans-Serif" font-size="10.00">netspeak::StarQuery</text>
<text text-anchor="middle" x="282" y="-14" font-family="Helvetica,sans-Serif" font-size="10.00">::append</text>
</a>
</g>
</g>
<!-- Node1&#45;&gt;Node8 -->
<g id="edge9_Node000001_Node000008" class="edge">
<title>Node1&#45;&gt;Node8</title>
<g id="a_edge9_Node000001_Node000008"><a xlink:title=" ">
<path fill="none" stroke="#63b8ff" d="M98.1,-134.95C119.33,-114.44 159.91,-77.58 200,-54 208.22,-49.16 217.31,-44.77 226.34,-40.89"/>
<polygon fill="#63b8ff" stroke="#63b8ff" points="227.78,-44.08 235.69,-37.04 225.11,-37.61 227.78,-44.08"/>
</a>
</g>
</g>
<!-- Node2&#45;&gt;Node1 -->
<g id="edge4_Node000002_Node000001" class="edge">
<title>Node2&#45;&gt;Node1</title>
<g id="a_edge4_Node000002_Node000001"><a xlink:title=" ">
<path fill="none" stroke="#63b8ff" d="M199.7,-156.65C191.35,-156.75 182.82,-156.77 174.36,-156.73"/>
<polygon fill="#63b8ff" stroke="#63b8ff" points="174.13,-153.23 164.11,-156.65 174.08,-160.23 174.13,-153.23"/>
</a>
</g>
</g>
<!-- Node2&#45;&gt;Node2 -->
<g id="edge2_Node000002_Node000002" class="edge">
<title>Node2&#45;&gt;Node2</title>
<g id="a_edge2_Node000002_Node000002"><a xlink:title=" ">
<path fill="none" stroke="#63b8ff" d="M246.84,-165.28C239.03,-174.41 250.75,-183 282,-183 300.55,-183 312.22,-179.97 317.01,-175.6"/>
<polygon fill="#63b8ff" stroke="#63b8ff" points="320.51,-175.32 317.16,-165.28 313.51,-175.22 320.51,-175.32"/>
</a>
</g>
</g>
<!-- Node2&#45;&gt;Node3 -->
<g id="edge3_Node000002_Node000003" class="edge">
<title>Node2&#45;&gt;Node3</title>
<g id="a_edge3_Node000002_Node000003"><a xlink:title=" ">
<path fill="none" stroke="#63b8ff" d="M300.9,-165.17C322.93,-183.15 362.08,-212.95 400,-231 404.05,-232.93 408.28,-234.73 412.61,-236.42"/>
<polygon fill="#63b8ff" stroke="#63b8ff" points="411.58,-239.77 422.17,-239.92 413.98,-233.2 411.58,-239.77"/>
</a>
</g>
</g>
<!-- Node4 -->
<g id="Node000004" class="node">
<title>Node4</title>
<g id="a_Node000004"><a xlink:href="classnetspeak_1_1StarQuery.html#a01c6f6f85f75d9c05c9398d32ad231e0" target="_top" xlink:title=" ">
<polygon fill="white" stroke="#666666" points="541.5,-174 425.5,-174 425.5,-144 541.5,-144 541.5,-174"/>
<text text-anchor="start" x="433.5" y="-162" font-family="Helvetica,sans-Serif" font-size="10.00">netspeak::StarQuery</text>
<text text-anchor="middle" x="483.5" y="-151" font-family="Helvetica,sans-Serif" font-size="10.00">::push_back</text>
</a>
</g>
</g>
<!-- Node2&#45;&gt;Node4 -->
<g id="edge5_Node000002_Node000004" class="edge">
<title>Node2&#45;&gt;Node4</title>
<g id="a_edge5_Node000002_Node000004"><a xlink:title=" ">
<path fill="none" stroke="#63b8ff" d="M364.14,-153.66C381.12,-154.43 398.84,-155.23 415.24,-155.97"/>
<polygon fill="#63b8ff" stroke="#63b8ff" points="415.12,-159.46 425.26,-156.42 415.43,-152.47 415.12,-159.46"/>
</a>
</g>
</g>
<!-- Node2&#45;&gt;Node5 -->
<g id="edge6_Node000002_Node000005" class="edge">
<title>Node2&#45;&gt;Node5</title>
<g id="a_edge6_Node000002_Node000005"><a xlink:title=" ">
<path fill="none" stroke="#63b8ff" d="M335.68,-165.05C361.59,-172.45 392.99,-181.43 420.1,-189.17"/>
<polygon fill="#63b8ff" stroke="#63b8ff" points="419.3,-192.58 429.87,-191.96 421.22,-185.85 419.3,-192.58"/>
</a>
</g>
</g>
<!-- Node2&#45;&gt;Node6 -->
<g id="edge7_Node000002_Node000006" class="edge">
<title>Node2&#45;&gt;Node6</title>
<g id="a_edge7_Node000002_Node000006"><a xlink:title=" ">
<path fill="none" stroke="#63b8ff" d="M359.85,-134.98C371.59,-132.68 383.79,-130.3 395.74,-127.96"/>
<polygon fill="#63b8ff" stroke="#63b8ff" points="396.55,-131.37 405.69,-126.01 395.21,-124.5 396.55,-131.37"/>
</a>
</g>
</g>
<!-- Node2&#45;&gt;Node7 -->
<g id="edge8_Node000002_Node000007" class="edge">
<title>Node2&#45;&gt;Node7</title>
<g id="a_edge8_Node000002_Node000007"><a xlink:title=" ">
<path fill="none" stroke="#63b8ff" d="M307.36,-134.91C330.53,-121.05 366.69,-100.63 400,-87 404.8,-85.04 409.81,-83.17 414.89,-81.4"/>
<polygon fill="#63b8ff" stroke="#63b8ff" points="416.33,-84.6 424.71,-78.12 414.12,-77.96 416.33,-84.6"/>
</a>
</g>
</g>
<!-- Node9 -->
<g id="Node000009" class="node">
<title>Node9</title>
<g id="a_Node000009"><a xlink:href="namespacenetspeak_1_1util.html#a3d1d03195f7667390b5f548a2b9f9869" target="_top" xlink:title="A simple function that appends all elements of other to base.">
<polygon fill="white" stroke="#666666" points="537,-30 430,-30 430,0 537,0 537,-30"/>
<text text-anchor="start" x="438" y="-18" font-family="Helvetica,sans-Serif" font-size="10.00">netspeak::util::vec</text>
<text text-anchor="middle" x="483.5" y="-7" font-family="Helvetica,sans-Serif" font-size="10.00">_append</text>
</a>
</g>
</g>
<!-- Node8&#45;&gt;Node9 -->
<g id="edge10_Node000008_Node000009" class="edge">
<title>Node8&#45;&gt;Node9</title>
<g id="a_edge10_Node000008_Node000009"><a xlink:title=" ">
<path fill="none" stroke="#63b8ff" d="M340.17,-19.99C364.96,-19.12 394.08,-18.1 419.49,-17.21"/>
<polygon fill="#63b8ff" stroke="#63b8ff" points="419.89,-20.7 429.76,-16.85 419.65,-13.7 419.89,-20.7"/>
</a>
</g>
</g>
<!-- Node10 -->
<g id="Node000010" class="node">
<title>Node10</title>
<g id="a_Node000010"><a xlink:href="namespacenetspeak_1_1util.html#a4c91ad572508b4021399ac7dddff574d" target="_top" xlink:title=" ">
<polygon fill="white" stroke="#666666" points="716,-24.5 603,-24.5 603,-5.5 716,-5.5 716,-24.5"/>
<text text-anchor="middle" x="659.5" y="-12.5" font-family="Helvetica,sans-Serif" font-size="10.00">netspeak::util::hash</text>
</a>
</g>
</g>
<!-- Node9&#45;&gt;Node10 -->
<g id="edge11_Node000009_Node000010" class="edge">
<title>Node9&#45;&gt;Node10</title>
<g id="a_edge11_Node000009_Node000010"><a xlink:title=" ">
<path fill="none" stroke="#63b8ff" d="M537.18,-15C554.73,-15 574.51,-15 592.92,-15"/>
<polygon fill="#63b8ff" stroke="#63b8ff" points="592.98,-18.5 602.98,-15 592.98,-11.5 592.98,-18.5"/>
</a>
</g>
</g>
</g>
</svg>
