<?xml version="1.0" encoding="UTF-8" standalone="no"?>
<!DOCTYPE svg PUBLIC "-//W3C//DTD SVG 1.1//EN"
 "http://www.w3.org/Graphics/SVG/1.1/DTD/svg11.dtd">
<!-- Generated by graphviz version 2.43.0 (0)
 -->
<!-- Title: netspeak::util::JsonWriter::Value::string Pages: 1 -->
<svg width="445pt" height="76pt"
 viewBox="0.00 0.00 445.00 75.50" xmlns="http://www.w3.org/2000/svg" xmlns:xlink="http://www.w3.org/1999/xlink">
<g id="graph0" class="graph" transform="scale(1 1) rotate(0) translate(4 71.5)">
<title>netspeak::util::JsonWriter::Value::string</title>
<!-- Node1 -->
<g id="Node000001" class="node">
<title>Node1</title>
<g id="a_Node000001"><a xlink:title=" ">
<polygon fill="#999999" stroke="#666666" points="140,-51 0,-51 0,-21 140,-21 140,-51"/>
<text text-anchor="start" x="8" y="-39" font-family="Helvetica,sans-Serif" font-size="10.00">netspeak::util::JsonWriter</text>
<text text-anchor="middle" x="70" y="-28" font-family="Helvetica,sans-Serif" font-size="10.00">::Value::string</text>
</a>
</g>
</g>
<!-- Node2 -->
<g id="Node000002" class="node">
<title>Node2</title>
<g id="a_Node000002"><a xlink:href="namespacenetspeak_1_1util.html#a4c91ad572508b4021399ac7dddff574d" target="_top" xlink:title=" ">
<polygon fill="white" stroke="#666666" points="437,-67.5 324,-67.5 324,-48.5 437,-48.5 437,-67.5"/>
<text text-anchor="middle" x="380.5" y="-55.5" font-family="Helvetica,sans-Serif" font-size="10.00">netspeak::util::hash</text>
</a>
</g>
</g>
<!-- Node1&#45;&gt;Node2 -->
<g id="edge1_Node000001_Node000002" class="edge">
<title>Node1&#45;&gt;Node2</title>
<g id="a_edge1_Node000001_Node000002"><a xlink:title=" ">
<path fill="none" stroke="#63b8ff" d="M140.23,-40.94C192.09,-44.64 262.58,-49.66 313.61,-53.3"/>
<polygon fill="#63b8ff" stroke="#63b8ff" points="313.64,-56.81 323.87,-54.03 314.14,-49.83 313.64,-56.81"/>
</a>
</g>
</g>
<!-- Node3 -->
<g id="Node000003" class="node">
<title>Node3</title>
<g id="a_Node000003"><a xlink:href="namespacenetspeak_1_1util.html#a134a9d8c3e5477e6835cb4367cdafebf" target="_top" xlink:title=" ">
<polygon fill="white" stroke="#666666" points="288,-30 176,-30 176,0 288,0 288,-30"/>
<text text-anchor="start" x="184" y="-18" font-family="Helvetica,sans-Serif" font-size="10.00">netspeak::util::print</text>
<text text-anchor="middle" x="232" y="-7" font-family="Helvetica,sans-Serif" font-size="10.00">_json_string</text>
</a>
</g>
</g>
<!-- Node1&#45;&gt;Node3 -->
<g id="edge2_Node000001_Node000003" class="edge">
<title>Node1&#45;&gt;Node3</title>
<g id="a_edge2_Node000001_Node000003"><a xlink:title=" ">
<path fill="none" stroke="#63b8ff" d="M140.25,-26.91C148.65,-25.81 157.22,-24.68 165.57,-23.59"/>
<polygon fill="#63b8ff" stroke="#63b8ff" points="166.16,-27.04 175.62,-22.27 165.25,-20.1 166.16,-27.04"/>
</a>
</g>
</g>
<!-- Node3&#45;&gt;Node2 -->
<g id="edge3_Node000003_Node000002" class="edge">
<title>Node3&#45;&gt;Node2</title>
<g id="a_edge3_Node000003_Node000002"><a xlink:title=" ">
<path fill="none" stroke="#63b8ff" d="M284.24,-30.04C301.46,-35.09 320.47,-40.67 336.94,-45.51"/>
<polygon fill="#63b8ff" stroke="#63b8ff" points="336.26,-48.96 346.84,-48.41 338.23,-42.24 336.26,-48.96"/>
</a>
</g>
</g>
<!-- Node4 -->
<g id="Node000004" class="node">
<title>Node4</title>
<g id="a_Node000004"><a xlink:href="namespacenetspeak_1_1util.html#ab81364f286f51c8ceaafc921fd48dd5a" target="_top" xlink:title=" ">
<polygon fill="white" stroke="#666666" points="430,-30 331,-30 331,0 430,0 430,-30"/>
<text text-anchor="start" x="339" y="-18" font-family="Helvetica,sans-Serif" font-size="10.00">netspeak::util::to</text>
<text text-anchor="middle" x="380.5" y="-7" font-family="Helvetica,sans-Serif" font-size="10.00">_hex_digit</text>
</a>
</g>
</g>
<!-- Node3&#45;&gt;Node4 -->
<g id="edge4_Node000003_Node000004" class="edge">
<title>Node3&#45;&gt;Node4</title>
<g id="a_edge4_Node000003_Node000004"><a xlink:title=" ">
<path fill="none" stroke="#63b8ff" d="M288.39,-15C298.95,-15 310.04,-15 320.7,-15"/>
<polygon fill="#63b8ff" stroke="#63b8ff" points="320.76,-18.5 330.76,-15 320.76,-11.5 320.76,-18.5"/>
</a>
</g>
</g>
</g>
</svg>
