<?xml version="1.0" encoding="UTF-8" standalone="no"?>
<!DOCTYPE svg PUBLIC "-//W3C//DTD SVG 1.1//EN"
 "http://www.w3.org/Graphics/SVG/1.1/DTD/svg11.dtd">
<!-- Generated by graphviz version 2.43.0 (0)
 -->
<!-- Title: netspeak::invertedindex::StorageReader::~StorageReader Pages: 1 -->
<svg width="819pt" height="59pt"
 viewBox="0.00 0.00 819.00 59.00" xmlns="http://www.w3.org/2000/svg" xmlns:xlink="http://www.w3.org/1999/xlink">
<g id="graph0" class="graph" transform="scale(1 1) rotate(0) translate(4 55)">
<title>netspeak::invertedindex::StorageReader::~StorageReader</title>
<!-- Node1 -->
<g id="Node000001" class="node">
<title>Node1</title>
<g id="a_Node000001"><a xlink:title=" ">
<polygon fill="#999999" stroke="#666666" points="181,-51 0,-51 0,-21 181,-21 181,-51"/>
<text text-anchor="start" x="8" y="-39" font-family="Helvetica,sans-Serif" font-size="10.00">netspeak::invertedindex</text>
<text text-anchor="middle" x="90.5" y="-28" font-family="Helvetica,sans-Serif" font-size="10.00">::StorageReader::~StorageReader</text>
</a>
</g>
</g>
<!-- Node2 -->
<g id="Node000002" class="node">
<title>Node2</title>
<g id="a_Node000002"><a xlink:href="classnetspeak_1_1invertedindex_1_1StorageReader.html#aff3e5221c5e53e175ea46f8a5ec86371" target="_top" xlink:title=" ">
<polygon fill="white" stroke="#666666" points="352,-51 217,-51 217,-21 352,-21 352,-51"/>
<text text-anchor="start" x="225" y="-39" font-family="Helvetica,sans-Serif" font-size="10.00">netspeak::invertedindex</text>
<text text-anchor="middle" x="284.5" y="-28" font-family="Helvetica,sans-Serif" font-size="10.00">::StorageReader::Close</text>
</a>
</g>
</g>
<!-- Node1&#45;&gt;Node2 -->
<g id="edge1_Node000001_Node000002" class="edge">
<title>Node1&#45;&gt;Node2</title>
<g id="a_edge1_Node000001_Node000002"><a xlink:title=" ">
<path fill="none" stroke="#63b8ff" d="M181.04,-36C189.58,-36 198.2,-36 206.62,-36"/>
<polygon fill="#63b8ff" stroke="#63b8ff" points="206.76,-39.5 216.76,-36 206.76,-32.5 206.76,-39.5"/>
</a>
</g>
</g>
<!-- Node3 -->
<g id="Node000003" class="node">
<title>Node3</title>
<g id="a_Node000003"><a xlink:href="namespacenetspeak_1_1util.html#a978978e70b474657b12402a3db711ef0" target="_top" xlink:title=" ">
<polygon fill="white" stroke="#666666" points="507,-45.5 388,-45.5 388,-26.5 507,-26.5 507,-45.5"/>
<text text-anchor="middle" x="447.5" y="-33.5" font-family="Helvetica,sans-Serif" font-size="10.00">netspeak::util::fclose</text>
</a>
</g>
</g>
<!-- Node2&#45;&gt;Node3 -->
<g id="edge2_Node000002_Node000003" class="edge">
<title>Node2&#45;&gt;Node3</title>
<g id="a_edge2_Node000002_Node000003"><a xlink:title=" ">
<path fill="none" stroke="#63b8ff" d="M352.38,-36C360.73,-36 369.29,-36 377.67,-36"/>
<polygon fill="#63b8ff" stroke="#63b8ff" points="377.78,-39.5 387.78,-36 377.78,-32.5 377.78,-39.5"/>
</a>
</g>
</g>
<!-- Node4 -->
<g id="Node000004" class="node">
<title>Node4</title>
<g id="a_Node000004"><a xlink:href="namespacenetspeak_1_1util.html#a4c91ad572508b4021399ac7dddff574d" target="_top" xlink:title=" ">
<polygon fill="white" stroke="#666666" points="811,-45.5 698,-45.5 698,-26.5 811,-26.5 811,-45.5"/>
<text text-anchor="middle" x="754.5" y="-33.5" font-family="Helvetica,sans-Serif" font-size="10.00">netspeak::util::hash</text>
</a>
</g>
</g>
<!-- Node3&#45;&gt;Node4 -->
<g id="edge3_Node000003_Node000004" class="edge">
<title>Node3&#45;&gt;Node4</title>
<g id="a_edge3_Node000003_Node000004"><a xlink:title=" ">
<path fill="none" stroke="#63b8ff" d="M507.22,-38.15C519.06,-38.51 531.43,-38.82 543,-39 595.88,-39.84 609.12,-39.87 662,-39 670.34,-38.86 679.1,-38.66 687.77,-38.41"/>
<polygon fill="#63b8ff" stroke="#63b8ff" points="687.97,-41.91 697.86,-38.12 687.76,-34.91 687.97,-41.91"/>
</a>
</g>
</g>
<!-- Node5 -->
<g id="Node000005" class="node">
<title>Node5</title>
<g id="a_Node000005"><a xlink:href="namespacenetspeak_1_1util.html#af94d48fda5f335ddcb461a8237079866" target="_top" xlink:title=" ">
<polygon fill="white" stroke="#666666" points="662,-30 543,-30 543,0 662,0 662,-30"/>
<text text-anchor="start" x="551" y="-18" font-family="Helvetica,sans-Serif" font-size="10.00">netspeak::util::signal</text>
<text text-anchor="middle" x="602.5" y="-7" font-family="Helvetica,sans-Serif" font-size="10.00">_error</text>
</a>
</g>
</g>
<!-- Node3&#45;&gt;Node5 -->
<g id="edge4_Node000003_Node000005" class="edge">
<title>Node3&#45;&gt;Node5</title>
<g id="a_edge4_Node000003_Node000005"><a xlink:title=" ">
<path fill="none" stroke="#63b8ff" d="M507.22,-27.94C515.64,-26.79 524.36,-25.59 532.95,-24.41"/>
<polygon fill="#63b8ff" stroke="#63b8ff" points="533.51,-27.86 542.94,-23.04 532.56,-20.93 533.51,-27.86"/>
</a>
</g>
</g>
<!-- Node5&#45;&gt;Node4 -->
<g id="edge5_Node000005_Node000004" class="edge">
<title>Node5&#45;&gt;Node4</title>
<g id="a_edge5_Node000005_Node000004"><a xlink:title=" ">
<path fill="none" stroke="#63b8ff" d="M662.35,-23.24C670.64,-24.4 679.2,-25.6 687.61,-26.78"/>
<polygon fill="#63b8ff" stroke="#63b8ff" points="687.37,-30.28 697.76,-28.2 688.34,-23.34 687.37,-30.28"/>
</a>
</g>
</g>
</g>
</svg>
