<?xml version="1.0" encoding="UTF-8" standalone="no"?>
<!DOCTYPE svg PUBLIC "-//W3C//DTD SVG 1.1//EN"
 "http://www.w3.org/Graphics/SVG/1.1/DTD/svg11.dtd">
<!-- Generated by graphviz version 2.43.0 (0)
 -->
<!-- Title: netspeak::model::SimpleQueryUnit__::children Pages: 1 -->
<svg width="1808pt" height="514pt"
 viewBox="0.00 0.00 1808.00 513.50" xmlns="http://www.w3.org/2000/svg" xmlns:xlink="http://www.w3.org/1999/xlink">
<g id="graph0" class="graph" transform="scale(1 1) rotate(0) translate(4 509.5)">
<title>netspeak::model::SimpleQueryUnit__::children</title>
<!-- Node1 -->
<g id="Node000001" class="node">
<title>Node1</title>
<g id="a_Node000001"><a xlink:title=" ">
<polygon fill="#999999" stroke="#666666" points="1800,-250.5 1633,-250.5 1633,-220.5 1800,-220.5 1800,-250.5"/>
<text text-anchor="start" x="1641" y="-238.5" font-family="Helvetica,sans-Serif" font-size="10.00">netspeak::model::SimpleQuery</text>
<text text-anchor="middle" x="1716.5" y="-227.5" font-family="Helvetica,sans-Serif" font-size="10.00">Unit__::children</text>
</a>
</g>
</g>
<!-- Node2 -->
<g id="Node000002" class="node">
<title>Node2</title>
<g id="a_Node000002"><a xlink:href="classnetspeak_1_1StarQueryConverter.html#a3b9f125a061331acd1c667c8bf50fb2b" target="_top" xlink:title=" ">
<polygon fill="white" stroke="#666666" points="1589.5,-438.5 1425.5,-438.5 1425.5,-408.5 1589.5,-408.5 1589.5,-438.5"/>
<text text-anchor="start" x="1433.5" y="-426.5" font-family="Helvetica,sans-Serif" font-size="10.00">netspeak::StarQueryConverter</text>
<text text-anchor="middle" x="1507.5" y="-415.5" font-family="Helvetica,sans-Serif" font-size="10.00">::alternation</text>
</a>
</g>
</g>
<!-- Node1&#45;&gt;Node2 -->
<g id="edge1_Node000001_Node000002" class="edge">
<title>Node1&#45;&gt;Node2</title>
<g id="a_edge1_Node000001_Node000002"><a xlink:title=" ">
<path fill="none" stroke="#63b8ff" d="M1704.41,-260.18C1686.87,-296.34 1649.29,-363.34 1597,-399.5 1592.02,-402.94 1586.58,-405.89 1580.9,-408.41"/>
<polygon fill="#63b8ff" stroke="#63b8ff" points="1707.71,-261.39 1708.82,-250.85 1701.38,-258.39 1707.71,-261.39"/>
</a>
</g>
</g>
<!-- Node3 -->
<g id="Node000003" class="node">
<title>Node3</title>
<g id="a_Node000003"><a xlink:href="classnetspeak_1_1StarQueryConverter.html#a603db91f5a1da4fcc11c7e99f71ece2f" target="_top" xlink:title=" ">
<polygon fill="white" stroke="#666666" points="1374.5,-487.5 1210.5,-487.5 1210.5,-457.5 1374.5,-457.5 1374.5,-487.5"/>
<text text-anchor="start" x="1218.5" y="-475.5" font-family="Helvetica,sans-Serif" font-size="10.00">netspeak::StarQueryConverter</text>
<text text-anchor="middle" x="1292.5" y="-464.5" font-family="Helvetica,sans-Serif" font-size="10.00">::concat</text>
</a>
</g>
</g>
<!-- Node1&#45;&gt;Node3 -->
<g id="edge10_Node000001_Node000003" class="edge">
<title>Node1&#45;&gt;Node3</title>
<g id="a_edge10_Node000001_Node000003"><a xlink:title=" ">
<path fill="none" stroke="#63b8ff" d="M1711.2,-260.4C1701.2,-309.71 1671.32,-419 1597,-465.5 1522.49,-512.11 1416.28,-500.97 1351.28,-487.54"/>
<polygon fill="#63b8ff" stroke="#63b8ff" points="1714.64,-261.05 1713.09,-250.57 1707.76,-259.73 1714.64,-261.05"/>
</a>
</g>
</g>
<!-- Node8 -->
<g id="Node000008" class="node">
<title>Node8</title>
<g id="a_Node000008"><a xlink:href="classnetspeak_1_1SimpleQueryOptimizer.html#a2fd2078d6604e20582903f7a41430e16" target="_top" xlink:title=" ">
<polygon fill="white" stroke="#666666" points="1382,-143.5 1203,-143.5 1203,-113.5 1382,-113.5 1382,-143.5"/>
<text text-anchor="start" x="1211" y="-131.5" font-family="Helvetica,sans-Serif" font-size="10.00">netspeak::SimpleQueryOptimizer</text>
<text text-anchor="middle" x="1292.5" y="-120.5" font-family="Helvetica,sans-Serif" font-size="10.00">::concat_star_optimization</text>
</a>
</g>
</g>
<!-- Node1&#45;&gt;Node8 -->
<g id="edge11_Node000001_Node000008" class="edge">
<title>Node1&#45;&gt;Node8</title>
<g id="a_edge11_Node000001_Node000008"><a xlink:title=" ">
<path fill="none" stroke="#63b8ff" d="M1671.08,-216.68C1649.08,-207.86 1621.95,-197.73 1597,-190.5 1525.72,-169.83 1443.1,-153.43 1382.07,-142.7"/>
<polygon fill="#63b8ff" stroke="#63b8ff" points="1669.91,-219.98 1680.49,-220.49 1672.54,-213.49 1669.91,-219.98"/>
</a>
</g>
</g>
<!-- Node9 -->
<g id="Node000009" class="node">
<title>Node9</title>
<g id="a_Node000009"><a xlink:href="classnetspeak_1_1SimpleQueryOptimizer.html#a1ef947a07a36069a5be13d260b518350" target="_top" xlink:title=" ">
<polygon fill="white" stroke="#666666" points="1167,-166.5 988,-166.5 988,-136.5 1167,-136.5 1167,-166.5"/>
<text text-anchor="start" x="996" y="-154.5" font-family="Helvetica,sans-Serif" font-size="10.00">netspeak::SimpleQueryOptimizer</text>
<text text-anchor="middle" x="1077.5" y="-143.5" font-family="Helvetica,sans-Serif" font-size="10.00">::optimize_simple_concat</text>
</a>
</g>
</g>
<!-- Node1&#45;&gt;Node9 -->
<g id="edge37_Node000001_Node000009" class="edge">
<title>Node1&#45;&gt;Node9</title>
<g id="a_edge37_Node000001_Node000009"><a xlink:title=" ">
<path fill="none" stroke="#63b8ff" d="M1692.43,-213.43C1669.89,-193.14 1633.71,-163.81 1597,-147.5 1436.02,-75.98 1376.29,-72.88 1203,-104.5 1169.7,-110.58 1133.74,-125.09 1109.07,-136.39"/>
<polygon fill="#63b8ff" stroke="#63b8ff" points="1690.35,-216.28 1700.09,-220.45 1695.09,-211.12 1690.35,-216.28"/>
</a>
</g>
</g>
<!-- Node11 -->
<g id="Node000011" class="node">
<title>Node11</title>
<g id="a_Node000011"><a xlink:href="classnetspeak_1_1SimpleQueryOptimizer.html#a0a56e07cb81afd1e5893bc469342b0b2" target="_top" xlink:title=" ">
<polygon fill="white" stroke="#666666" points="731,-151.5 552,-151.5 552,-121.5 731,-121.5 731,-151.5"/>
<text text-anchor="start" x="560" y="-139.5" font-family="Helvetica,sans-Serif" font-size="10.00">netspeak::SimpleQueryOptimizer</text>
<text text-anchor="middle" x="641.5" y="-128.5" font-family="Helvetica,sans-Serif" font-size="10.00">::optimize_simple_children</text>
</a>
</g>
</g>
<!-- Node1&#45;&gt;Node11 -->
<g id="edge36_Node000001_Node000011" class="edge">
<title>Node1&#45;&gt;Node11</title>
<g id="a_edge36_Node000001_Node000011"><a xlink:title=" ">
<path fill="none" stroke="#63b8ff" d="M1703.92,-211.04C1686.19,-176.59 1648.83,-114.72 1597,-85.5 1478.58,-18.74 1429.44,-47.5 1293.5,-47.5 1293.5,-47.5 1293.5,-47.5 1076.5,-47.5 931.13,-47.5 763.85,-96.01 686.25,-121.4"/>
<polygon fill="#63b8ff" stroke="#63b8ff" points="1700.99,-213.01 1708.59,-220.39 1707.25,-209.88 1700.99,-213.01"/>
</a>
</g>
</g>
<!-- Node13 -->
<g id="Node000013" class="node">
<title>Node13</title>
<g id="a_Node000013"><a xlink:href="classnetspeak_1_1SimpleQueryOptimizer.html#a55c4015de0d1fa34754beb52f95119f6" target="_top" xlink:title=" ">
<polygon fill="white" stroke="#666666" points="516,-216.5 337,-216.5 337,-186.5 516,-186.5 516,-216.5"/>
<text text-anchor="start" x="345" y="-204.5" font-family="Helvetica,sans-Serif" font-size="10.00">netspeak::SimpleQueryOptimizer</text>
<text text-anchor="middle" x="426.5" y="-193.5" font-family="Helvetica,sans-Serif" font-size="10.00">::optimize_simple_alt</text>
</a>
</g>
</g>
<!-- Node1&#45;&gt;Node13 -->
<g id="edge35_Node000001_Node000013" class="edge">
<title>Node1&#45;&gt;Node13</title>
<g id="a_edge35_Node000001_Node000013"><a xlink:title=" ">
<path fill="none" stroke="#63b8ff" d="M1622.49,-243.14C1537.04,-249.49 1406.82,-257.5 1293.5,-257.5 1293.5,-257.5 1293.5,-257.5 858.5,-257.5 730.98,-257.5 583.99,-233.09 498.82,-216.51"/>
<polygon fill="#63b8ff" stroke="#63b8ff" points="1622.98,-246.61 1632.69,-242.37 1622.46,-239.63 1622.98,-246.61"/>
</a>
</g>
</g>
<!-- Node14 -->
<g id="Node000014" class="node">
<title>Node14</title>
<g id="a_Node000014"><a xlink:href="classnetspeak_1_1SimpleQueryOptimizer.html#a77d726b94a9d80c743c3b5546aab766f" target="_top" xlink:title=" ">
<polygon fill="white" stroke="#666666" points="1597,-229.5 1418,-229.5 1418,-199.5 1597,-199.5 1597,-229.5"/>
<text text-anchor="start" x="1426" y="-217.5" font-family="Helvetica,sans-Serif" font-size="10.00">netspeak::SimpleQueryOptimizer</text>
<text text-anchor="middle" x="1507.5" y="-206.5" font-family="Helvetica,sans-Serif" font-size="10.00">::contains_child</text>
</a>
</g>
</g>
<!-- Node1&#45;&gt;Node14 -->
<g id="edge20_Node000001_Node000014" class="edge">
<title>Node1&#45;&gt;Node14</title>
<g id="a_edge20_Node000001_Node000014"><a xlink:title=" ">
<path fill="none" stroke="#63b8ff" d="M1622.84,-226.1C1614.31,-225.23 1605.68,-224.36 1597.18,-223.5"/>
<polygon fill="#63b8ff" stroke="#63b8ff" points="1622.49,-229.58 1632.8,-227.11 1623.2,-222.62 1622.49,-229.58"/>
</a>
</g>
</g>
<!-- Node16 -->
<g id="Node000016" class="node">
<title>Node16</title>
<g id="a_Node000016"><a xlink:href="structnetspeak_1_1NormQueryCounter.html#a72d9822b381ac1a8d8f29521c73c7e45" target="_top" xlink:title=" ">
<polygon fill="white" stroke="#666666" points="1588.5,-372.5 1426.5,-372.5 1426.5,-342.5 1588.5,-342.5 1588.5,-372.5"/>
<text text-anchor="start" x="1434.5" y="-360.5" font-family="Helvetica,sans-Serif" font-size="10.00">netspeak::NormQueryCounter</text>
<text text-anchor="middle" x="1507.5" y="-349.5" font-family="Helvetica,sans-Serif" font-size="10.00">::estimate_impl</text>
</a>
</g>
</g>
<!-- Node1&#45;&gt;Node16 -->
<g id="edge25_Node000001_Node000016" class="edge">
<title>Node1&#45;&gt;Node16</title>
<g id="a_edge25_Node000001_Node000016"><a xlink:title=" ">
<path fill="none" stroke="#63b8ff" d="M1693.97,-257.84C1671.63,-279.81 1634.75,-312.82 1597,-332.5 1589.64,-336.34 1581.62,-339.65 1573.5,-342.49"/>
<polygon fill="#63b8ff" stroke="#63b8ff" points="1696.64,-260.12 1701.24,-250.58 1691.69,-255.17 1696.64,-260.12"/>
</a>
</g>
</g>
<!-- Node19 -->
<g id="Node000019" class="node">
<title>Node19</title>
<g id="a_Node000019"><a xlink:href="namespacenetspeak.html#af04673586ac70da613567b5220cc7992" target="_top" xlink:title=" ">
<polygon fill="white" stroke="#666666" points="1572,-305 1443,-305 1443,-286 1572,-286 1572,-305"/>
<text text-anchor="middle" x="1507.5" y="-293" font-family="Helvetica,sans-Serif" font-size="10.00">netspeak::find_regexes</text>
</a>
</g>
</g>
<!-- Node1&#45;&gt;Node19 -->
<g id="edge30_Node000001_Node000019" class="edge">
<title>Node1&#45;&gt;Node19</title>
<g id="a_edge30_Node000001_Node000019"><a xlink:title=" ">
<path fill="none" stroke="#63b8ff" d="M1657.37,-253.54C1638.18,-259.39 1616.71,-265.84 1597,-271.5 1579.86,-276.43 1560.78,-281.63 1544.74,-285.94"/>
<polygon fill="#63b8ff" stroke="#63b8ff" points="1658.63,-256.82 1667.17,-250.54 1656.58,-250.12 1658.63,-256.82"/>
</a>
</g>
</g>
<!-- Node21 -->
<g id="Node000021" class="node">
<title>Node21</title>
<g id="a_Node000021"><a xlink:href="namespacenetspeak_1_1model.html#ad68914eb806cd6f1ad3801a814db9328" target="_top" xlink:title=" ">
<polygon fill="white" stroke="#666666" points="1588.5,-19 1426.5,-19 1426.5,0 1588.5,0 1588.5,-19"/>
<text text-anchor="middle" x="1507.5" y="-7" font-family="Helvetica,sans-Serif" font-size="10.00">netspeak::model::operator&lt;&lt;</text>
</a>
</g>
</g>
<!-- Node1&#45;&gt;Node21 -->
<g id="edge34_Node000001_Node000021" class="edge">
<title>Node1&#45;&gt;Node21</title>
<g id="a_edge34_Node000001_Node000021"><a xlink:title=" ">
<path fill="none" stroke="#63b8ff" d="M1707.93,-210.77C1693.52,-167.95 1658.03,-80.14 1597,-33.5 1588.78,-27.22 1579.03,-22.58 1569.05,-19.15"/>
<polygon fill="#63b8ff" stroke="#63b8ff" points="1704.64,-211.97 1711.06,-220.39 1711.29,-209.8 1704.64,-211.97"/>
</a>
</g>
</g>
<!-- Node2&#45;&gt;Node2 -->
<g id="edge2_Node000002_Node000002" class="edge">
<title>Node2&#45;&gt;Node2</title>
<g id="a_edge2_Node000002_Node000002"><a xlink:title=" ">
<path fill="none" stroke="#63b8ff" d="M1543.91,-449.1C1538.93,-453.47 1526.8,-456.5 1507.5,-456.5 1475,-456.5 1462.81,-447.91 1470.94,-438.78"/>
<polygon fill="#63b8ff" stroke="#63b8ff" points="1547.41,-448.83 1544.06,-438.78 1540.41,-448.72 1547.41,-448.83"/>
</a>
</g>
</g>
<!-- Node2&#45;&gt;Node3 -->
<g id="edge3_Node000002_Node000003" class="edge">
<title>Node2&#45;&gt;Node3</title>
<g id="a_edge3_Node000002_Node000003"><a xlink:title=" ">
<path fill="none" stroke="#63b8ff" d="M1415.53,-437.74C1387.52,-443.95 1358.05,-451.13 1335.08,-457.45"/>
<polygon fill="#63b8ff" stroke="#63b8ff" points="1416.35,-441.15 1425.37,-435.59 1414.85,-434.31 1416.35,-441.15"/>
</a>
</g>
</g>
<!-- Node4 -->
<g id="Node000004" class="node">
<title>Node4</title>
<g id="a_Node000004"><a xlink:href="classnetspeak_1_1StarQueryConverter.html#a72012a4108886c30c45ec19164f42dfd" target="_top" xlink:title=" ">
<polygon fill="white" stroke="#666666" points="1374.5,-439.5 1210.5,-439.5 1210.5,-409.5 1374.5,-409.5 1374.5,-439.5"/>
<text text-anchor="start" x="1218.5" y="-427.5" font-family="Helvetica,sans-Serif" font-size="10.00">netspeak::StarQueryConverter</text>
<text text-anchor="middle" x="1292.5" y="-416.5" font-family="Helvetica,sans-Serif" font-size="10.00">::to_star_queries</text>
</a>
</g>
</g>
<!-- Node2&#45;&gt;Node4 -->
<g id="edge6_Node000002_Node000004" class="edge">
<title>Node2&#45;&gt;Node4</title>
<g id="a_edge6_Node000002_Node000004"><a xlink:title=" ">
<path fill="none" stroke="#63b8ff" d="M1415.17,-423.93C1401.74,-423.99 1387.97,-424.06 1374.76,-424.12"/>
<polygon fill="#63b8ff" stroke="#63b8ff" points="1415.38,-427.43 1425.37,-423.88 1415.35,-420.43 1415.38,-427.43"/>
</a>
</g>
</g>
<!-- Node3&#45;&gt;Node2 -->
<g id="edge4_Node000003_Node000002" class="edge">
<title>Node3&#45;&gt;Node2</title>
<g id="a_edge4_Node000003_Node000002"><a xlink:title=" ">
<path fill="none" stroke="#63b8ff" d="M1384.49,-458.25C1412.5,-452.04 1441.97,-444.86 1464.93,-438.54"/>
<polygon fill="#63b8ff" stroke="#63b8ff" points="1383.68,-454.85 1374.66,-460.41 1385.17,-461.69 1383.68,-454.85"/>
</a>
</g>
</g>
<!-- Node3&#45;&gt;Node3 -->
<g id="edge5_Node000003_Node000003" class="edge">
<title>Node3&#45;&gt;Node3</title>
<g id="a_edge5_Node000003_Node000003"><a xlink:title=" ">
<path fill="none" stroke="#63b8ff" d="M1329.96,-498.1C1324.84,-502.47 1312.35,-505.5 1292.5,-505.5 1259.06,-505.5 1246.52,-496.91 1254.88,-487.78"/>
<polygon fill="#63b8ff" stroke="#63b8ff" points="1333.46,-497.83 1330.12,-487.78 1326.46,-497.72 1333.46,-497.83"/>
</a>
</g>
</g>
<!-- Node5 -->
<g id="Node000005" class="node">
<title>Node5</title>
<g id="a_Node000005"><a xlink:href="classnetspeak_1_1SimpleQueryNormalizer.html#a64fc82bf1d46c167bbb645835120b233" target="_top" xlink:title="Converts the given simple query into norm queries and adds them to the given list of norm queries.">
<polygon fill="white" stroke="#666666" points="952,-421.5 767,-421.5 767,-391.5 952,-391.5 952,-421.5"/>
<text text-anchor="start" x="775" y="-409.5" font-family="Helvetica,sans-Serif" font-size="10.00">netspeak::SimpleQueryNormalizer</text>
<text text-anchor="middle" x="859.5" y="-398.5" font-family="Helvetica,sans-Serif" font-size="10.00">::to_norm_queries</text>
</a>
</g>
</g>
<!-- Node4&#45;&gt;Node5 -->
<g id="edge7_Node000004_Node000005" class="edge">
<title>Node4&#45;&gt;Node5</title>
<g id="a_edge7_Node000004_Node000005"><a xlink:title=" ">
<path fill="none" stroke="#63b8ff" d="M1200.32,-420.69C1127.25,-417.64 1025.19,-413.38 952.03,-410.32"/>
<polygon fill="#63b8ff" stroke="#63b8ff" points="1200.29,-424.19 1210.43,-421.11 1200.59,-417.2 1200.29,-424.19"/>
</a>
</g>
</g>
<!-- Node6 -->
<g id="Node000006" class="node">
<title>Node6</title>
<g id="a_Node000006"><a xlink:href="classnetspeak_1_1QueryNormalizer.html#a70187ab668d98c93cfc3a8d05ca1508e" target="_top" xlink:title=" ">
<polygon fill="white" stroke="#666666" points="301,-354.5 150,-354.5 150,-324.5 301,-324.5 301,-354.5"/>
<text text-anchor="start" x="158" y="-342.5" font-family="Helvetica,sans-Serif" font-size="10.00">netspeak::QueryNormalizer</text>
<text text-anchor="middle" x="225.5" y="-331.5" font-family="Helvetica,sans-Serif" font-size="10.00">::normalize</text>
</a>
</g>
</g>
<!-- Node5&#45;&gt;Node6 -->
<g id="edge8_Node000005_Node000006" class="edge">
<title>Node5&#45;&gt;Node6</title>
<g id="a_edge8_Node000005_Node000006"><a xlink:title=" ">
<path fill="none" stroke="#63b8ff" d="M756.6,-396.9C651.42,-386.81 482.62,-370.12 337,-353.5 325.38,-352.17 313.08,-350.69 301.07,-349.2"/>
<polygon fill="#63b8ff" stroke="#63b8ff" points="756.29,-400.38 766.58,-397.85 756.96,-393.41 756.29,-400.38"/>
</a>
</g>
</g>
<!-- Node7 -->
<g id="Node000007" class="node">
<title>Node7</title>
<g id="a_Node000007"><a xlink:href="classnetspeak_1_1Netspeak.html#aaa049275c7a0a7f6721acf7422402bff" target="_top" xlink:title=" ">
<polygon fill="white" stroke="#666666" points="114,-354.5 0,-354.5 0,-324.5 114,-324.5 114,-354.5"/>
<text text-anchor="start" x="8" y="-342.5" font-family="Helvetica,sans-Serif" font-size="10.00">netspeak::Netspeak</text>
<text text-anchor="middle" x="57" y="-331.5" font-family="Helvetica,sans-Serif" font-size="10.00">::search_raw_</text>
</a>
</g>
</g>
<!-- Node6&#45;&gt;Node7 -->
<g id="edge9_Node000006_Node000007" class="edge">
<title>Node6&#45;&gt;Node7</title>
<g id="a_edge9_Node000006_Node000007"><a xlink:title=" ">
<path fill="none" stroke="#63b8ff" d="M139.45,-339.5C130.85,-339.5 122.28,-339.5 114.1,-339.5"/>
<polygon fill="#63b8ff" stroke="#63b8ff" points="139.53,-343 149.53,-339.5 139.53,-336 139.53,-343"/>
</a>
</g>
</g>
<!-- Node8&#45;&gt;Node9 -->
<g id="edge12_Node000008_Node000009" class="edge">
<title>Node8&#45;&gt;Node9</title>
<g id="a_edge12_Node000008_Node000009"><a xlink:title=" ">
<path fill="none" stroke="#63b8ff" d="M1192.73,-139.16C1184.2,-140.09 1175.59,-141.02 1167.14,-141.93"/>
<polygon fill="#63b8ff" stroke="#63b8ff" points="1193.14,-142.64 1202.71,-138.09 1192.39,-135.68 1193.14,-142.64"/>
</a>
</g>
</g>
<!-- Node10 -->
<g id="Node000010" class="node">
<title>Node10</title>
<g id="a_Node000010"><a xlink:href="classnetspeak_1_1SimpleQueryOptimizer.html#a6df1cdcea41d9914bb1063642d615bdf" target="_top" xlink:title=" ">
<polygon fill="white" stroke="#666666" points="949,-189.5 770,-189.5 770,-159.5 949,-159.5 949,-189.5"/>
<text text-anchor="start" x="778" y="-177.5" font-family="Helvetica,sans-Serif" font-size="10.00">netspeak::SimpleQueryOptimizer</text>
<text text-anchor="middle" x="859.5" y="-166.5" font-family="Helvetica,sans-Serif" font-size="10.00">::optimize_simple_unit</text>
</a>
</g>
</g>
<!-- Node9&#45;&gt;Node10 -->
<g id="edge13_Node000009_Node000010" class="edge">
<title>Node9&#45;&gt;Node10</title>
<g id="a_edge13_Node000009_Node000010"><a xlink:title=" ">
<path fill="none" stroke="#63b8ff" d="M977.54,-162.04C968.12,-163.04 958.61,-164.05 949.29,-165.04"/>
<polygon fill="#63b8ff" stroke="#63b8ff" points="978.14,-165.49 987.71,-160.95 977.4,-158.53 978.14,-165.49"/>
</a>
</g>
</g>
<!-- Node10&#45;&gt;Node11 -->
<g id="edge14_Node000010_Node000011" class="edge">
<title>Node10&#45;&gt;Node11</title>
<g id="a_edge14_Node000010_Node000011"><a xlink:title=" ">
<path fill="none" stroke="#63b8ff" d="M762.95,-157.69C751.3,-155.64 739.45,-153.56 727.96,-151.53"/>
<polygon fill="#63b8ff" stroke="#63b8ff" points="762.68,-161.2 773.13,-159.48 763.89,-154.3 762.68,-161.2"/>
</a>
</g>
</g>
<!-- Node11&#45;&gt;Node9 -->
<g id="edge19_Node000011_Node000009" class="edge">
<title>Node11&#45;&gt;Node9</title>
<g id="a_edge19_Node000011_Node000009"><a xlink:title=" ">
<path fill="none" stroke="#63b8ff" d="M741.65,-139.93C815.83,-142.49 916.38,-145.97 987.89,-148.44"/>
<polygon fill="#63b8ff" stroke="#63b8ff" points="741.48,-136.42 731.36,-139.57 741.24,-143.41 741.48,-136.42"/>
</a>
</g>
</g>
<!-- Node12 -->
<g id="Node000012" class="node">
<title>Node12</title>
<g id="a_Node000012"><a xlink:href="classnetspeak_1_1SimpleQueryOptimizer.html#a605b78bfa6d1898f7b5b5ca66fd95c31" target="_top" xlink:title=" ">
<polygon fill="white" stroke="#666666" points="516,-160.5 337,-160.5 337,-130.5 516,-130.5 516,-160.5"/>
<text text-anchor="start" x="345" y="-148.5" font-family="Helvetica,sans-Serif" font-size="10.00">netspeak::SimpleQueryOptimizer</text>
<text text-anchor="middle" x="426.5" y="-137.5" font-family="Helvetica,sans-Serif" font-size="10.00">::optimize</text>
</a>
</g>
</g>
<!-- Node11&#45;&gt;Node12 -->
<g id="edge15_Node000011_Node000012" class="edge">
<title>Node11&#45;&gt;Node12</title>
<g id="a_edge15_Node000011_Node000012"><a xlink:title=" ">
<path fill="none" stroke="#63b8ff" d="M541.46,-140.68C533.01,-141.04 524.5,-141.4 516.14,-141.75"/>
<polygon fill="#63b8ff" stroke="#63b8ff" points="541.87,-144.17 551.71,-140.25 541.57,-137.18 541.87,-144.17"/>
</a>
</g>
</g>
<!-- Node11&#45;&gt;Node13 -->
<g id="edge17_Node000011_Node000013" class="edge">
<title>Node11&#45;&gt;Node13</title>
<g id="a_edge17_Node000011_Node000013"><a xlink:title=" ">
<path fill="none" stroke="#63b8ff" d="M581.18,-154.6C548.38,-164.61 508.1,-176.91 477,-186.39"/>
<polygon fill="#63b8ff" stroke="#63b8ff" points="582.56,-157.84 591.1,-151.58 580.51,-151.15 582.56,-157.84"/>
</a>
</g>
</g>
<!-- Node12&#45;&gt;Node6 -->
<g id="edge16_Node000012_Node000006" class="edge">
<title>Node12&#45;&gt;Node6</title>
<g id="a_edge16_Node000012_Node000006"><a xlink:title=" ">
<path fill="none" stroke="#63b8ff" d="M357.99,-164.76C350.54,-168.36 343.35,-172.57 337,-177.5 284,-218.6 247.13,-292.38 232.96,-324.2"/>
<polygon fill="#63b8ff" stroke="#63b8ff" points="359.82,-167.78 367.55,-160.53 356.98,-161.38 359.82,-167.78"/>
</a>
</g>
</g>
<!-- Node13&#45;&gt;Node10 -->
<g id="edge18_Node000013_Node000010" class="edge">
<title>Node13&#45;&gt;Node10</title>
<g id="a_edge18_Node000013_Node000010"><a xlink:title=" ">
<path fill="none" stroke="#63b8ff" d="M526.46,-195.3C599.9,-190.7 699.16,-184.48 769.98,-180.05"/>
<polygon fill="#63b8ff" stroke="#63b8ff" points="526.03,-191.82 516.27,-195.94 526.47,-198.81 526.03,-191.82"/>
</a>
</g>
</g>
<!-- Node14&#45;&gt;Node9 -->
<g id="edge24_Node000014_Node000009" class="edge">
<title>Node14&#45;&gt;Node9</title>
<g id="a_edge24_Node000014_Node000009"><a xlink:title=" ">
<path fill="none" stroke="#63b8ff" d="M1422.35,-197.54C1408.88,-195.04 1395.08,-192.6 1382,-190.5 1309.88,-178.93 1227.67,-168.53 1167.03,-161.39"/>
<polygon fill="#63b8ff" stroke="#63b8ff" points="1422.1,-201.05 1432.57,-199.46 1423.39,-194.17 1422.1,-201.05"/>
</a>
</g>
</g>
<!-- Node15 -->
<g id="Node000015" class="node">
<title>Node15</title>
<g id="a_Node000015"><a xlink:href="classnetspeak_1_1SimpleQueryOptimizer.html#a90004a090dc4838d5a696e0f3c9cb2be" target="_top" xlink:title=" ">
<polygon fill="white" stroke="#666666" points="1382,-229.5 1203,-229.5 1203,-199.5 1382,-199.5 1382,-229.5"/>
<text text-anchor="start" x="1211" y="-217.5" font-family="Helvetica,sans-Serif" font-size="10.00">netspeak::SimpleQueryOptimizer</text>
<text text-anchor="middle" x="1292.5" y="-206.5" font-family="Helvetica,sans-Serif" font-size="10.00">::inline_nested</text>
</a>
</g>
</g>
<!-- Node14&#45;&gt;Node15 -->
<g id="edge21_Node000014_Node000015" class="edge">
<title>Node14&#45;&gt;Node15</title>
<g id="a_edge21_Node000014_Node000015"><a xlink:title=" ">
<path fill="none" stroke="#63b8ff" d="M1407.46,-214.5C1399.01,-214.5 1390.5,-214.5 1382.14,-214.5"/>
<polygon fill="#63b8ff" stroke="#63b8ff" points="1407.71,-218 1417.71,-214.5 1407.71,-211 1407.71,-218"/>
</a>
</g>
</g>
<!-- Node15&#45;&gt;Node9 -->
<g id="edge23_Node000015_Node000009" class="edge">
<title>Node15&#45;&gt;Node9</title>
<g id="a_edge23_Node000015_Node000009"><a xlink:title=" ">
<path fill="none" stroke="#63b8ff" d="M1231.01,-196.61C1198.86,-187.1 1159.78,-175.54 1129.23,-166.5"/>
<polygon fill="#63b8ff" stroke="#63b8ff" points="1230.17,-200.01 1240.75,-199.49 1232.16,-193.3 1230.17,-200.01"/>
</a>
</g>
</g>
<!-- Node15&#45;&gt;Node13 -->
<g id="edge22_Node000015_Node000013" class="edge">
<title>Node15&#45;&gt;Node13</title>
<g id="a_edge22_Node000015_Node000013"><a xlink:title=" ">
<path fill="none" stroke="#63b8ff" d="M1192.51,-213.01C1022.65,-210.45 678.35,-205.27 516,-202.83"/>
<polygon fill="#63b8ff" stroke="#63b8ff" points="1192.64,-216.51 1202.69,-213.16 1192.75,-209.51 1192.64,-216.51"/>
</a>
</g>
</g>
<!-- Node16&#45;&gt;Node16 -->
<g id="edge29_Node000016_Node000016" class="edge">
<title>Node16&#45;&gt;Node16</title>
<g id="a_edge29_Node000016_Node000016"><a xlink:title=" ">
<path fill="none" stroke="#63b8ff" d="M1543.91,-383.1C1538.93,-387.47 1526.8,-390.5 1507.5,-390.5 1475,-390.5 1462.81,-381.91 1470.94,-372.78"/>
<polygon fill="#63b8ff" stroke="#63b8ff" points="1547.41,-382.83 1544.06,-372.78 1540.41,-382.72 1547.41,-382.83"/>
</a>
</g>
</g>
<!-- Node17 -->
<g id="Node000017" class="node">
<title>Node17</title>
<g id="a_Node000017"><a xlink:href="structnetspeak_1_1NormQueryCounter.html#a853463fd07c510eeef9767164fbfd5bd" target="_top" xlink:title="Returns a function that, given the number of words each regex will be replaced with,...">
<polygon fill="white" stroke="#666666" points="1373.5,-391.5 1211.5,-391.5 1211.5,-361.5 1373.5,-361.5 1373.5,-391.5"/>
<text text-anchor="start" x="1219.5" y="-379.5" font-family="Helvetica,sans-Serif" font-size="10.00">netspeak::NormQueryCounter</text>
<text text-anchor="middle" x="1292.5" y="-368.5" font-family="Helvetica,sans-Serif" font-size="10.00">::estimate</text>
</a>
</g>
</g>
<!-- Node16&#45;&gt;Node17 -->
<g id="edge26_Node000016_Node000017" class="edge">
<title>Node16&#45;&gt;Node17</title>
<g id="a_edge26_Node000016_Node000017"><a xlink:title=" ">
<path fill="none" stroke="#63b8ff" d="M1416.09,-365.56C1401.99,-366.82 1387.5,-368.11 1373.65,-369.35"/>
<polygon fill="#63b8ff" stroke="#63b8ff" points="1416.63,-369.03 1426.28,-364.66 1416.01,-362.06 1416.63,-369.03"/>
</a>
</g>
</g>
<!-- Node18 -->
<g id="Node000018" class="node">
<title>Node18</title>
<g id="a_Node000018"><a xlink:href="namespacenetspeak.html#abad07282259830ea1d26af81f1755844" target="_top" xlink:title=" ">
<polygon fill="white" stroke="#666666" points="1135.5,-354.5 1019.5,-354.5 1019.5,-324.5 1135.5,-324.5 1135.5,-354.5"/>
<text text-anchor="start" x="1027.5" y="-342.5" font-family="Helvetica,sans-Serif" font-size="10.00">netspeak::normalize</text>
<text text-anchor="middle" x="1077.5" y="-331.5" font-family="Helvetica,sans-Serif" font-size="10.00">_regexes</text>
</a>
</g>
</g>
<!-- Node17&#45;&gt;Node18 -->
<g id="edge27_Node000017_Node000018" class="edge">
<title>Node17&#45;&gt;Node18</title>
<g id="a_edge27_Node000017_Node000018"><a xlink:title=" ">
<path fill="none" stroke="#63b8ff" d="M1201.17,-360.81C1179,-356.96 1155.88,-352.94 1135.76,-349.45"/>
<polygon fill="#63b8ff" stroke="#63b8ff" points="1200.83,-364.3 1211.28,-362.56 1202.02,-357.4 1200.83,-364.3"/>
</a>
</g>
</g>
<!-- Node18&#45;&gt;Node6 -->
<g id="edge28_Node000018_Node000006" class="edge">
<title>Node18&#45;&gt;Node6</title>
<g id="a_edge28_Node000018_Node000006"><a xlink:title=" ">
<path fill="none" stroke="#63b8ff" d="M1008.97,-339.5C852.21,-339.5 464.56,-339.5 301.1,-339.5"/>
<polygon fill="#63b8ff" stroke="#63b8ff" points="1009.41,-343 1019.41,-339.5 1009.41,-336 1009.41,-343"/>
</a>
</g>
</g>
<!-- Node19&#45;&gt;Node18 -->
<g id="edge33_Node000019_Node000018" class="edge">
<title>Node19&#45;&gt;Node18</title>
<g id="a_edge33_Node000019_Node000018"><a xlink:title=" ">
<path fill="none" stroke="#63b8ff" d="M1439.46,-306.6C1420.88,-309.44 1400.69,-312.31 1382,-314.5 1296.41,-324.54 1196.77,-331.93 1135.67,-335.98"/>
<polygon fill="#63b8ff" stroke="#63b8ff" points="1440.24,-310.02 1449.59,-305.03 1439.17,-303.1 1440.24,-310.02"/>
</a>
</g>
</g>
<!-- Node19&#45;&gt;Node19 -->
<g id="edge32_Node000019_Node000019" class="edge">
<title>Node19&#45;&gt;Node19</title>
<g id="a_edge32_Node000019_Node000019"><a xlink:title=" ">
<path fill="none" stroke="#63b8ff" d="M1546.48,-312.31C1547.07,-318.21 1534.07,-323 1507.5,-323 1470.53,-323 1459.84,-313.73 1475.44,-305.08"/>
<polygon fill="#63b8ff" stroke="#63b8ff" points="1549,-309.88 1539.56,-305.08 1543.95,-314.73 1549,-309.88"/>
</a>
</g>
</g>
<!-- Node20 -->
<g id="Node000020" class="node">
<title>Node20</title>
<g id="a_Node000020"><a xlink:href="namespacenetspeak.html#a1483e29fb72fc8f5c98544b32add8c6b" target="_top" xlink:title=" ">
<polygon fill="white" stroke="#666666" points="1357,-305 1228,-305 1228,-286 1357,-286 1357,-305"/>
<text text-anchor="middle" x="1292.5" y="-293" font-family="Helvetica,sans-Serif" font-size="10.00">netspeak::find_regexes</text>
</a>
</g>
</g>
<!-- Node19&#45;&gt;Node20 -->
<g id="edge31_Node000019_Node000020" class="edge">
<title>Node19&#45;&gt;Node20</title>
<g id="a_edge31_Node000019_Node000020"><a xlink:title=" ">
<path fill="none" stroke="#63b8ff" d="M1432.86,-295.5C1408.22,-295.5 1380.97,-295.5 1357.16,-295.5"/>
<polygon fill="#63b8ff" stroke="#63b8ff" points="1432.88,-299 1442.88,-295.5 1432.88,-292 1432.88,-299"/>
</a>
</g>
</g>
</g>
</svg>
