<?xml version="1.0" encoding="UTF-8" standalone="no"?>
<!DOCTYPE svg PUBLIC "-//W3C//DTD SVG 1.1//EN"
 "http://www.w3.org/Graphics/SVG/1.1/DTD/svg11.dtd">
<!-- Generated by graphviz version 2.43.0 (0)
 -->
<!-- Title: netspeak::SimpleQueryNormalizer::to_norm_queries Pages: 1 -->
<svg width="1352pt" height="633pt"
 viewBox="0.00 0.00 1352.00 633.00" xmlns="http://www.w3.org/2000/svg" xmlns:xlink="http://www.w3.org/1999/xlink">
<g id="graph0" class="graph" transform="scale(1 1) rotate(0) translate(4 629)">
<title>netspeak::SimpleQueryNormalizer::to_norm_queries</title>
<!-- Node1 -->
<g id="Node000001" class="node">
<title>Node1</title>
<g id="a_Node000001"><a xlink:title="Converts the given simple query into norm queries and adds them to the given list of norm queries.">
<polygon fill="#999999" stroke="#666666" points="185,-457 0,-457 0,-427 185,-427 185,-457"/>
<text text-anchor="start" x="8" y="-445" font-family="Helvetica,sans-Serif" font-size="10.00">netspeak::SimpleQueryNormalizer</text>
<text text-anchor="middle" x="92.5" y="-434" font-family="Helvetica,sans-Serif" font-size="10.00">::to_norm_queries</text>
</a>
</g>
</g>
<!-- Node2 -->
<g id="Node000002" class="node">
<title>Node2</title>
<g id="a_Node000002"><a xlink:href="classnetspeak_1_1SimpleQueryNormalizer.html#afd2caf62dcb75af59e7d95298d431f29" target="_top" xlink:title=" ">
<polygon fill="white" stroke="#666666" points="406,-529 221,-529 221,-499 406,-499 406,-529"/>
<text text-anchor="start" x="229" y="-517" font-family="Helvetica,sans-Serif" font-size="10.00">netspeak::SimpleQueryNormalizer</text>
<text text-anchor="middle" x="313.5" y="-506" font-family="Helvetica,sans-Serif" font-size="10.00">::add_simple</text>
</a>
</g>
</g>
<!-- Node1&#45;&gt;Node2 -->
<g id="edge1_Node000001_Node000002" class="edge">
<title>Node1&#45;&gt;Node2</title>
<g id="a_edge1_Node000001_Node000002"><a xlink:title=" ">
<path fill="none" stroke="#63b8ff" d="M139.14,-457.01C173.43,-468.28 220.57,-483.78 257.04,-495.77"/>
<polygon fill="#63b8ff" stroke="#63b8ff" points="255.95,-499.09 266.54,-498.89 258.13,-492.44 255.95,-499.09"/>
</a>
</g>
</g>
<!-- Node9 -->
<g id="Node000009" class="node">
<title>Node9</title>
<g id="a_Node000009"><a xlink:href="classnetspeak_1_1SimpleQueryNormalizer.html#a64b4efb1803b5ed2bd2b1dc7197938f5" target="_top" xlink:title=" ">
<polygon fill="white" stroke="#666666" points="406,-457 221,-457 221,-427 406,-427 406,-457"/>
<text text-anchor="start" x="229" y="-445" font-family="Helvetica,sans-Serif" font-size="10.00">netspeak::SimpleQueryNormalizer</text>
<text text-anchor="middle" x="313.5" y="-434" font-family="Helvetica,sans-Serif" font-size="10.00">::add_with_stars</text>
</a>
</g>
</g>
<!-- Node1&#45;&gt;Node9 -->
<g id="edge9_Node000001_Node000009" class="edge">
<title>Node1&#45;&gt;Node9</title>
<g id="a_edge9_Node000001_Node000009"><a xlink:title=" ">
<path fill="none" stroke="#63b8ff" d="M185.11,-442C193.62,-442 202.27,-442 210.86,-442"/>
<polygon fill="#63b8ff" stroke="#63b8ff" points="210.91,-445.5 220.91,-442 210.91,-438.5 210.91,-445.5"/>
</a>
</g>
</g>
<!-- Node16 -->
<g id="Node000016" class="node">
<title>Node16</title>
<g id="a_Node000016"><a xlink:href="classnetspeak_1_1StarQueryConverter.html#a72012a4108886c30c45ec19164f42dfd" target="_top" xlink:title=" ">
<polygon fill="white" stroke="#666666" points="395.5,-142 231.5,-142 231.5,-112 395.5,-112 395.5,-142"/>
<text text-anchor="start" x="239.5" y="-130" font-family="Helvetica,sans-Serif" font-size="10.00">netspeak::StarQueryConverter</text>
<text text-anchor="middle" x="313.5" y="-119" font-family="Helvetica,sans-Serif" font-size="10.00">::to_star_queries</text>
</a>
</g>
</g>
<!-- Node1&#45;&gt;Node16 -->
<g id="edge21_Node000001_Node000016" class="edge">
<title>Node1&#45;&gt;Node16</title>
<g id="a_edge21_Node000001_Node000016"><a xlink:title=" ">
<path fill="none" stroke="#63b8ff" d="M104.06,-426.81C139.41,-375.97 253.7,-211.58 296.3,-150.31"/>
<polygon fill="#63b8ff" stroke="#63b8ff" points="299.21,-152.25 302.04,-142.04 293.46,-148.25 299.21,-152.25"/>
</a>
</g>
</g>
<!-- Node3 -->
<g id="Node000003" class="node">
<title>Node3</title>
<g id="a_Node000003"><a xlink:href="classnetspeak_1_1model_1_1NormQueryUnit____.html#a10e94517dedda4444f587c76f12691db" target="_top" xlink:title=" ">
<polygon fill="white" stroke="#666666" points="606,-625 445,-625 445,-595 606,-595 606,-625"/>
<text text-anchor="start" x="453" y="-613" font-family="Helvetica,sans-Serif" font-size="10.00">netspeak::model::NormQuery</text>
<text text-anchor="middle" x="525.5" y="-602" font-family="Helvetica,sans-Serif" font-size="10.00">Unit__::qmark</text>
</a>
</g>
</g>
<!-- Node2&#45;&gt;Node3 -->
<g id="edge2_Node000002_Node000003" class="edge">
<title>Node2&#45;&gt;Node3</title>
<g id="a_edge2_Node000002_Node000003"><a xlink:title=" ">
<path fill="none" stroke="#63b8ff" d="M337.63,-529.24C362.56,-545.13 403.81,-569.92 442,-586 446.69,-587.98 451.6,-589.85 456.58,-591.62"/>
<polygon fill="#63b8ff" stroke="#63b8ff" points="455.62,-594.99 466.21,-594.88 457.86,-588.36 455.62,-594.99"/>
</a>
</g>
</g>
<!-- Node5 -->
<g id="Node000005" class="node">
<title>Node5</title>
<g id="a_Node000005"><a xlink:href="classnetspeak_1_1model_1_1NormQuery.html#a1026b5afae11d5cdfecc06eb4fa6c005" target="_top" xlink:title=" ">
<polygon fill="white" stroke="#666666" points="606,-529 445,-529 445,-499 606,-499 606,-529"/>
<text text-anchor="start" x="453" y="-517" font-family="Helvetica,sans-Serif" font-size="10.00">netspeak::model::NormQuery</text>
<text text-anchor="middle" x="525.5" y="-506" font-family="Helvetica,sans-Serif" font-size="10.00">::units</text>
</a>
</g>
</g>
<!-- Node2&#45;&gt;Node5 -->
<g id="edge4_Node000002_Node000005" class="edge">
<title>Node2&#45;&gt;Node5</title>
<g id="a_edge4_Node000002_Node000005"><a xlink:title=" ">
<path fill="none" stroke="#63b8ff" d="M406.3,-514C415.71,-514 425.25,-514 434.63,-514"/>
<polygon fill="#63b8ff" stroke="#63b8ff" points="434.73,-517.5 444.73,-514 434.73,-510.5 434.73,-517.5"/>
</a>
</g>
</g>
<!-- Node6 -->
<g id="Node000006" class="node">
<title>Node6</title>
<g id="a_Node000006"><a xlink:href="classnetspeak_1_1StarQuery.html#af2d22da01b5eab954ec585c071068348" target="_top" xlink:title=" ">
<polygon fill="white" stroke="#666666" points="583.5,-481 467.5,-481 467.5,-451 583.5,-451 583.5,-481"/>
<text text-anchor="start" x="475.5" y="-469" font-family="Helvetica,sans-Serif" font-size="10.00">netspeak::StarQuery</text>
<text text-anchor="middle" x="525.5" y="-458" font-family="Helvetica,sans-Serif" font-size="10.00">::units</text>
</a>
</g>
</g>
<!-- Node2&#45;&gt;Node6 -->
<g id="edge5_Node000002_Node000006" class="edge">
<title>Node2&#45;&gt;Node6</title>
<g id="a_edge5_Node000002_Node000006"><a xlink:title=" ">
<path fill="none" stroke="#63b8ff" d="M380.37,-498.94C404.9,-493.34 432.75,-486.97 457.38,-481.34"/>
<polygon fill="#63b8ff" stroke="#63b8ff" points="458.4,-484.7 467.37,-479.06 456.84,-477.88 458.4,-484.7"/>
</a>
</g>
</g>
<!-- Node7 -->
<g id="Node000007" class="node">
<title>Node7</title>
<g id="a_Node000007"><a xlink:href="classnetspeak_1_1model_1_1NormQueryUnit____.html#a90ea86da4e6967f5690e0483b810e897" target="_top" xlink:title=" ">
<polygon fill="white" stroke="#666666" points="606,-577 445,-577 445,-547 606,-547 606,-577"/>
<text text-anchor="start" x="453" y="-565" font-family="Helvetica,sans-Serif" font-size="10.00">netspeak::model::NormQuery</text>
<text text-anchor="middle" x="525.5" y="-554" font-family="Helvetica,sans-Serif" font-size="10.00">Unit__::word</text>
</a>
</g>
</g>
<!-- Node2&#45;&gt;Node7 -->
<g id="edge6_Node000002_Node000007" class="edge">
<title>Node2&#45;&gt;Node7</title>
<g id="a_edge6_Node000002_Node000007"><a xlink:title=" ">
<path fill="none" stroke="#63b8ff" d="M380.37,-529.06C402.16,-534.04 426.58,-539.62 449.04,-544.75"/>
<polygon fill="#63b8ff" stroke="#63b8ff" points="448.34,-548.18 458.86,-547 449.9,-541.36 448.34,-548.18"/>
</a>
</g>
</g>
<!-- Node4 -->
<g id="Node000004" class="node">
<title>Node4</title>
<g id="a_Node000004"><a xlink:href="classnetspeak_1_1model_1_1NormQueryUnit____.html#ac434701089b009138eafdec6f1bfbc8e" target="_top" xlink:title=" ">
<polygon fill="white" stroke="#666666" points="807.5,-625 646.5,-625 646.5,-595 807.5,-595 807.5,-625"/>
<text text-anchor="start" x="654.5" y="-613" font-family="Helvetica,sans-Serif" font-size="10.00">netspeak::model::NormQuery</text>
<text text-anchor="middle" x="727" y="-602" font-family="Helvetica,sans-Serif" font-size="10.00">Unit__::source</text>
</a>
</g>
</g>
<!-- Node3&#45;&gt;Node4 -->
<g id="edge3_Node000003_Node000004" class="edge">
<title>Node3&#45;&gt;Node4</title>
<g id="a_edge3_Node000003_Node000004"><a xlink:title=" ">
<path fill="none" stroke="#63b8ff" d="M606.21,-610C616.14,-610 626.35,-610 636.41,-610"/>
<polygon fill="#63b8ff" stroke="#63b8ff" points="636.42,-613.5 646.42,-610 636.42,-606.5 636.42,-613.5"/>
</a>
</g>
</g>
<!-- Node7&#45;&gt;Node4 -->
<g id="edge7_Node000007_Node000004" class="edge">
<title>Node7&#45;&gt;Node4</title>
<g id="a_edge7_Node000007_Node000004"><a xlink:title=" ">
<path fill="none" stroke="#63b8ff" d="M589.08,-577.06C609.59,-581.99 632.56,-587.52 653.74,-592.61"/>
<polygon fill="#63b8ff" stroke="#63b8ff" points="653.11,-596.06 663.65,-595 654.74,-589.26 653.11,-596.06"/>
</a>
</g>
</g>
<!-- Node8 -->
<g id="Node000008" class="node">
<title>Node8</title>
<g id="a_Node000008"><a xlink:href="classnetspeak_1_1model_1_1NormQueryUnit____.html#a7f11cf1d3effc88caf0fa666fd472878" target="_top" xlink:title=" ">
<polygon fill="white" stroke="#666666" points="807.5,-577 646.5,-577 646.5,-547 807.5,-547 807.5,-577"/>
<text text-anchor="start" x="654.5" y="-565" font-family="Helvetica,sans-Serif" font-size="10.00">netspeak::model::NormQuery</text>
<text text-anchor="middle" x="727" y="-554" font-family="Helvetica,sans-Serif" font-size="10.00">Unit__::text</text>
</a>
</g>
</g>
<!-- Node7&#45;&gt;Node8 -->
<g id="edge8_Node000007_Node000008" class="edge">
<title>Node7&#45;&gt;Node8</title>
<g id="a_edge8_Node000007_Node000008"><a xlink:title=" ">
<path fill="none" stroke="#63b8ff" d="M606.21,-562C616.14,-562 626.35,-562 636.41,-562"/>
<polygon fill="#63b8ff" stroke="#63b8ff" points="636.42,-565.5 646.42,-562 636.42,-558.5 636.42,-565.5"/>
</a>
</g>
</g>
<!-- Node9&#45;&gt;Node3 -->
<g id="edge15_Node000009_Node000003" class="edge">
<title>Node9&#45;&gt;Node3</title>
<g id="a_edge15_Node000009_Node000003"><a xlink:title=" ">
<path fill="none" stroke="#63b8ff" d="M358.03,-457.02C374.89,-464.66 393.18,-475.48 406,-490 436.16,-524.16 408.58,-555.02 442,-586 443.28,-587.19 444.61,-588.31 445.99,-589.38"/>
<polygon fill="#63b8ff" stroke="#63b8ff" points="444.1,-592.33 454.37,-594.94 447.97,-586.49 444.1,-592.33"/>
</a>
</g>
</g>
<!-- Node9&#45;&gt;Node5 -->
<g id="edge18_Node000009_Node000005" class="edge">
<title>Node9&#45;&gt;Node5</title>
<g id="a_edge18_Node000009_Node000005"><a xlink:title=" ">
<path fill="none" stroke="#63b8ff" d="M352.16,-457.05C377.41,-466.92 411.48,-479.83 442,-490 448.04,-492.01 454.35,-494.02 460.69,-495.97"/>
<polygon fill="#63b8ff" stroke="#63b8ff" points="460.03,-499.43 470.62,-498.97 462.06,-492.73 460.03,-499.43"/>
</a>
</g>
</g>
<!-- Node9&#45;&gt;Node6 -->
<g id="edge19_Node000009_Node000006" class="edge">
<title>Node9&#45;&gt;Node6</title>
<g id="a_edge19_Node000009_Node000006"><a xlink:title=" ">
<path fill="none" stroke="#63b8ff" d="M406.3,-452.49C423.32,-454.44 440.81,-456.44 456.95,-458.28"/>
<polygon fill="#63b8ff" stroke="#63b8ff" points="457,-461.81 467.34,-459.47 457.8,-454.85 457,-461.81"/>
</a>
</g>
</g>
<!-- Node9&#45;&gt;Node7 -->
<g id="edge20_Node000009_Node000007" class="edge">
<title>Node9&#45;&gt;Node7</title>
<g id="a_edge20_Node000009_Node000007"><a xlink:title=" ">
<path fill="none" stroke="#63b8ff" d="M352,-457.05C369.53,-465.2 390.02,-476.4 406,-490 426.31,-507.29 420.07,-522.83 442,-538 444.15,-539.49 446.39,-540.88 448.69,-542.19"/>
<polygon fill="#63b8ff" stroke="#63b8ff" points="447.39,-545.45 457.89,-546.82 450.54,-539.2 447.39,-545.45"/>
</a>
</g>
</g>
<!-- Node10 -->
<g id="Node000010" class="node">
<title>Node10</title>
<g id="a_Node000010"><a xlink:href="classnetspeak_1_1StarQuery.html#ae2f36a0e2e0396dacc0335a37c9990f7" target="_top" xlink:title=" ">
<polygon fill="white" stroke="#666666" points="583.5,-337 467.5,-337 467.5,-307 583.5,-307 583.5,-337"/>
<text text-anchor="start" x="475.5" y="-325" font-family="Helvetica,sans-Serif" font-size="10.00">netspeak::StarQuery</text>
<text text-anchor="middle" x="525.5" y="-314" font-family="Helvetica,sans-Serif" font-size="10.00">::min_length</text>
</a>
</g>
</g>
<!-- Node9&#45;&gt;Node10 -->
<g id="edge10_Node000009_Node000010" class="edge">
<title>Node9&#45;&gt;Node10</title>
<g id="a_edge10_Node000009_Node000010"><a xlink:title=" ">
<path fill="none" stroke="#63b8ff" d="M330.51,-426.84C353.48,-405.87 397.9,-368.08 442,-346 446.92,-343.54 452.13,-341.29 457.45,-339.24"/>
<polygon fill="#63b8ff" stroke="#63b8ff" points="458.88,-342.44 467.11,-335.76 456.51,-335.86 458.88,-342.44"/>
</a>
</g>
</g>
<!-- Node11 -->
<g id="Node000011" class="node">
<title>Node11</title>
<g id="a_Node000011"><a xlink:href="classnetspeak_1_1util_1_1ChainCutter.html#a4a2ad399d5cba8d80b20d04674b89153" target="_top" xlink:title="Returns whether there is another unique cut and computes the next cuts.">
<polygon fill="white" stroke="#666666" points="1002,-293 855,-293 855,-263 1002,-263 1002,-293"/>
<text text-anchor="start" x="863" y="-281" font-family="Helvetica,sans-Serif" font-size="10.00">netspeak::util::ChainCutter</text>
<text text-anchor="middle" x="928.5" y="-270" font-family="Helvetica,sans-Serif" font-size="10.00">::next</text>
</a>
</g>
</g>
<!-- Node9&#45;&gt;Node11 -->
<g id="edge11_Node000009_Node000011" class="edge">
<title>Node9&#45;&gt;Node11</title>
<g id="a_edge11_Node000009_Node000011"><a xlink:title=" ">
<path fill="none" stroke="#63b8ff" d="M322.49,-426.61C339.55,-395.58 382.89,-326.09 442,-298 571.83,-236.3 743.93,-247.88 844.5,-262.52"/>
<polygon fill="#63b8ff" stroke="#63b8ff" points="844.2,-266.01 854.6,-264.03 845.23,-259.09 844.2,-266.01"/>
</a>
</g>
</g>
<!-- Node14 -->
<g id="Node000014" class="node">
<title>Node14</title>
<g id="a_Node000014"><a xlink:href="classnetspeak_1_1util_1_1ChainCutter.html#aeb89082f7993ec2d1437b076a2e9a7ea" target="_top" xlink:title="Returns the current output of the cutter iterator.">
<polygon fill="white" stroke="#666666" points="599,-433 452,-433 452,-403 599,-403 599,-433"/>
<text text-anchor="start" x="460" y="-421" font-family="Helvetica,sans-Serif" font-size="10.00">netspeak::util::ChainCutter</text>
<text text-anchor="middle" x="525.5" y="-410" font-family="Helvetica,sans-Serif" font-size="10.00">::segments</text>
</a>
</g>
</g>
<!-- Node9&#45;&gt;Node14 -->
<g id="edge16_Node000009_Node000014" class="edge">
<title>Node9&#45;&gt;Node14</title>
<g id="a_edge16_Node000009_Node000014"><a xlink:title=" ">
<path fill="none" stroke="#63b8ff" d="M406.3,-431.51C418.08,-430.16 430.09,-428.79 441.71,-427.46"/>
<polygon fill="#63b8ff" stroke="#63b8ff" points="442.28,-430.92 451.82,-426.31 441.48,-423.97 442.28,-430.92"/>
</a>
</g>
</g>
<!-- Node15 -->
<g id="Node000015" class="node">
<title>Node15</title>
<g id="a_Node000015"><a xlink:href="classnetspeak_1_1model_1_1NormQuery.html#a0d7789ccab66ae884162a6c3076efd5d" target="_top" xlink:title=" ">
<polygon fill="white" stroke="#666666" points="606,-385 445,-385 445,-355 606,-355 606,-385"/>
<text text-anchor="start" x="453" y="-373" font-family="Helvetica,sans-Serif" font-size="10.00">netspeak::model::NormQuery</text>
<text text-anchor="middle" x="525.5" y="-362" font-family="Helvetica,sans-Serif" font-size="10.00">::size</text>
</a>
</g>
</g>
<!-- Node9&#45;&gt;Node15 -->
<g id="edge17_Node000009_Node000015" class="edge">
<title>Node9&#45;&gt;Node15</title>
<g id="a_edge17_Node000009_Node000015"><a xlink:title=" ">
<path fill="none" stroke="#63b8ff" d="M352.16,-426.95C377.41,-417.08 411.48,-404.17 442,-394 448.04,-391.99 454.35,-389.98 460.69,-388.03"/>
<polygon fill="#63b8ff" stroke="#63b8ff" points="462.06,-391.27 470.62,-385.03 460.03,-384.57 462.06,-391.27"/>
</a>
</g>
</g>
<!-- Node12 -->
<g id="Node000012" class="node">
<title>Node12</title>
<g id="a_Node000012"><a xlink:href="namespacenetspeak_1_1util.html#a4c91ad572508b4021399ac7dddff574d" target="_top" xlink:title=" ">
<polygon fill="white" stroke="#666666" points="1344,-244.5 1231,-244.5 1231,-225.5 1344,-225.5 1344,-244.5"/>
<text text-anchor="middle" x="1287.5" y="-232.5" font-family="Helvetica,sans-Serif" font-size="10.00">netspeak::util::hash</text>
</a>
</g>
</g>
<!-- Node11&#45;&gt;Node12 -->
<g id="edge12_Node000011_Node000012" class="edge">
<title>Node11&#45;&gt;Node12</title>
<g id="a_edge12_Node000011_Node000012"><a xlink:title=" ">
<path fill="none" stroke="#63b8ff" d="M996.62,-262.94C1013.34,-259.6 1031.27,-256.35 1048,-254 1106.06,-245.84 1172.59,-240.9 1220.61,-238.11"/>
<polygon fill="#63b8ff" stroke="#63b8ff" points="1221.09,-241.59 1230.87,-237.53 1220.69,-234.6 1221.09,-241.59"/>
</a>
</g>
</g>
<!-- Node13 -->
<g id="Node000013" class="node">
<title>Node13</title>
<g id="a_Node000013"><a xlink:href="classnetspeak_1_1util_1_1ChainCutter.html#a9e05a5ab5bb585f8276bf7e6edce76c5" target="_top" xlink:title=" ">
<polygon fill="white" stroke="#666666" points="1195,-293 1048,-293 1048,-263 1195,-263 1195,-293"/>
<text text-anchor="start" x="1056" y="-281" font-family="Helvetica,sans-Serif" font-size="10.00">netspeak::util::ChainCutter</text>
<text text-anchor="middle" x="1121.5" y="-270" font-family="Helvetica,sans-Serif" font-size="10.00">::set_output</text>
</a>
</g>
</g>
<!-- Node11&#45;&gt;Node13 -->
<g id="edge13_Node000011_Node000013" class="edge">
<title>Node11&#45;&gt;Node13</title>
<g id="a_edge13_Node000011_Node000013"><a xlink:title=" ">
<path fill="none" stroke="#63b8ff" d="M1002.25,-278C1013.83,-278 1025.88,-278 1037.67,-278"/>
<polygon fill="#63b8ff" stroke="#63b8ff" points="1037.95,-281.5 1047.95,-278 1037.95,-274.5 1037.95,-281.5"/>
</a>
</g>
</g>
<!-- Node13&#45;&gt;Node12 -->
<g id="edge14_Node000013_Node000012" class="edge">
<title>Node13&#45;&gt;Node12</title>
<g id="a_edge14_Node000013_Node000012"><a xlink:title=" ">
<path fill="none" stroke="#63b8ff" d="M1179.86,-262.96C1199.59,-257.79 1221.42,-252.06 1240.16,-247.15"/>
<polygon fill="#63b8ff" stroke="#63b8ff" points="1241.15,-250.51 1249.94,-244.59 1239.38,-243.74 1241.15,-250.51"/>
</a>
</g>
</g>
<!-- Node17 -->
<g id="Node000017" class="node">
<title>Node17</title>
<g id="a_Node000017"><a xlink:href="classnetspeak_1_1StarQueryConverter.html#a3b9f125a061331acd1c667c8bf50fb2b" target="_top" xlink:title=" ">
<polygon fill="white" stroke="#666666" points="607.5,-142 443.5,-142 443.5,-112 607.5,-112 607.5,-142"/>
<text text-anchor="start" x="451.5" y="-130" font-family="Helvetica,sans-Serif" font-size="10.00">netspeak::StarQueryConverter</text>
<text text-anchor="middle" x="525.5" y="-119" font-family="Helvetica,sans-Serif" font-size="10.00">::alternation</text>
</a>
</g>
</g>
<!-- Node16&#45;&gt;Node17 -->
<g id="edge22_Node000016_Node000017" class="edge">
<title>Node16&#45;&gt;Node17</title>
<g id="a_edge22_Node000016_Node000017"><a xlink:title=" ">
<path fill="none" stroke="#63b8ff" d="M395.69,-127C407.86,-127 420.49,-127 432.86,-127"/>
<polygon fill="#63b8ff" stroke="#63b8ff" points="433.18,-130.5 443.18,-127 433.18,-123.5 433.18,-130.5"/>
</a>
</g>
</g>
<!-- Node26 -->
<g id="Node000026" class="node">
<title>Node26</title>
<g id="a_Node000026"><a xlink:href="classnetspeak_1_1model_1_1SimpleQuery.html#aacd9450bbdddc1274a461e21075335db" target="_top" xlink:title=" ">
<polygon fill="white" stroke="#666666" points="609,-94 442,-94 442,-64 609,-64 609,-94"/>
<text text-anchor="start" x="450" y="-82" font-family="Helvetica,sans-Serif" font-size="10.00">netspeak::model::SimpleQuery</text>
<text text-anchor="middle" x="525.5" y="-71" font-family="Helvetica,sans-Serif" font-size="10.00">::root</text>
</a>
</g>
</g>
<!-- Node16&#45;&gt;Node26 -->
<g id="edge39_Node000016_Node000026" class="edge">
<title>Node16&#45;&gt;Node26</title>
<g id="a_edge39_Node000016_Node000026"><a xlink:title=" ">
<path fill="none" stroke="#63b8ff" d="M380.37,-111.94C402.16,-106.96 426.58,-101.38 449.04,-96.25"/>
<polygon fill="#63b8ff" stroke="#63b8ff" points="449.9,-99.64 458.86,-94 448.34,-92.82 449.9,-99.64"/>
</a>
</g>
</g>
<!-- Node17&#45;&gt;Node17 -->
<g id="edge23_Node000017_Node000017" class="edge">
<title>Node17&#45;&gt;Node17</title>
<g id="a_edge23_Node000017_Node000017"><a xlink:title=" ">
<path fill="none" stroke="#63b8ff" d="M490.34,-142.28C482.53,-151.41 494.25,-160 525.5,-160 544.05,-160 555.72,-156.97 560.51,-152.6"/>
<polygon fill="#63b8ff" stroke="#63b8ff" points="564.01,-152.32 560.66,-142.28 557.01,-152.22 564.01,-152.32"/>
</a>
</g>
</g>
<!-- Node18 -->
<g id="Node000018" class="node">
<title>Node18</title>
<g id="a_Node000018"><a xlink:href="classnetspeak_1_1model_1_1SimpleQueryUnit____.html#a8840caeb703398accd6bf417b0b1ae8e" target="_top" xlink:title=" ">
<polygon fill="white" stroke="#666666" points="1012,-81 845,-81 845,-51 1012,-51 1012,-81"/>
<text text-anchor="start" x="853" y="-69" font-family="Helvetica,sans-Serif" font-size="10.00">netspeak::model::SimpleQuery</text>
<text text-anchor="middle" x="928.5" y="-58" font-family="Helvetica,sans-Serif" font-size="10.00">Unit__::children</text>
</a>
</g>
</g>
<!-- Node17&#45;&gt;Node18 -->
<g id="edge24_Node000017_Node000018" class="edge">
<title>Node17&#45;&gt;Node18</title>
<g id="a_edge24_Node000017_Node000018"><a xlink:title=" ">
<path fill="none" stroke="#63b8ff" d="M589.89,-111.84C596.53,-109.3 603.02,-106.36 609,-103 627.92,-92.36 624.83,-78.01 645,-70 704.99,-46.17 777.96,-45.79 834.7,-51.04"/>
<polygon fill="#63b8ff" stroke="#63b8ff" points="834.45,-54.53 844.74,-52.04 835.14,-47.56 834.45,-54.53"/>
</a>
</g>
</g>
<!-- Node19 -->
<g id="Node000019" class="node">
<title>Node19</title>
<g id="a_Node000019"><a xlink:href="classnetspeak_1_1StarQueryConverter.html#a603db91f5a1da4fcc11c7e99f71ece2f" target="_top" xlink:title=" ">
<polygon fill="white" stroke="#666666" points="809,-109 645,-109 645,-79 809,-79 809,-109"/>
<text text-anchor="start" x="653" y="-97" font-family="Helvetica,sans-Serif" font-size="10.00">netspeak::StarQueryConverter</text>
<text text-anchor="middle" x="727" y="-86" font-family="Helvetica,sans-Serif" font-size="10.00">::concat</text>
</a>
</g>
</g>
<!-- Node17&#45;&gt;Node19 -->
<g id="edge25_Node000017_Node000019" class="edge">
<title>Node17&#45;&gt;Node19</title>
<g id="a_edge25_Node000017_Node000019"><a xlink:title=" ">
<path fill="none" stroke="#63b8ff" d="M580.49,-112C597.31,-108.68 616.35,-105.31 634.99,-102.33"/>
<polygon fill="#63b8ff" stroke="#63b8ff" points="635.64,-105.77 644.98,-100.76 634.56,-98.85 635.64,-105.77"/>
</a>
</g>
</g>
<!-- Node22 -->
<g id="Node000022" class="node">
<title>Node22</title>
<g id="a_Node000022"><a xlink:href="classnetspeak_1_1model_1_1SimpleQueryUnit____.html#a90bbf69557a0a390446247d9435aed98" target="_top" xlink:title=" ">
<polygon fill="white" stroke="#666666" points="1012,-30 845,-30 845,0 1012,0 1012,-30"/>
<text text-anchor="start" x="853" y="-18" font-family="Helvetica,sans-Serif" font-size="10.00">netspeak::model::SimpleQuery</text>
<text text-anchor="middle" x="928.5" y="-7" font-family="Helvetica,sans-Serif" font-size="10.00">Unit__::source</text>
</a>
</g>
</g>
<!-- Node17&#45;&gt;Node22 -->
<g id="edge36_Node000017_Node000022" class="edge">
<title>Node17&#45;&gt;Node22</title>
<g id="a_edge36_Node000017_Node000022"><a xlink:title=" ">
<path fill="none" stroke="#63b8ff" d="M594.26,-111.88C599.49,-109.37 604.48,-106.43 609,-103 633.17,-84.66 619.3,-61.13 645,-45 701.17,-9.74 776.28,-3.24 834.93,-5.02"/>
<polygon fill="#63b8ff" stroke="#63b8ff" points="834.81,-8.52 844.94,-5.41 835.08,-1.53 834.81,-8.52"/>
</a>
</g>
</g>
<!-- Node23 -->
<g id="Node000023" class="node">
<title>Node23</title>
<g id="a_Node000023"><a xlink:href="classnetspeak_1_1model_1_1SimpleQueryUnit____.html#a06c21084859addaa75c754815d691d39" target="_top" xlink:title=" ">
<polygon fill="white" stroke="#666666" points="1012,-245 845,-245 845,-215 1012,-215 1012,-245"/>
<text text-anchor="start" x="853" y="-233" font-family="Helvetica,sans-Serif" font-size="10.00">netspeak::model::SimpleQuery</text>
<text text-anchor="middle" x="928.5" y="-222" font-family="Helvetica,sans-Serif" font-size="10.00">Unit__::tag</text>
</a>
</g>
</g>
<!-- Node17&#45;&gt;Node23 -->
<g id="edge37_Node000017_Node000023" class="edge">
<title>Node17&#45;&gt;Node23</title>
<g id="a_edge37_Node000017_Node000023"><a xlink:title=" ">
<path fill="none" stroke="#63b8ff" d="M543.95,-142.06C565.9,-160.02 605.5,-189.35 645,-203 705.93,-224.06 778.39,-230.65 834.66,-232.05"/>
<polygon fill="#63b8ff" stroke="#63b8ff" points="834.91,-235.56 844.97,-232.25 835.04,-228.56 834.91,-235.56"/>
</a>
</g>
</g>
<!-- Node24 -->
<g id="Node000024" class="node">
<title>Node24</title>
<g id="a_Node000024"><a xlink:href="classnetspeak_1_1model_1_1SimpleQueryUnit____.html#a1ffd5dced48df9d16a6de0e434858634" target="_top" xlink:title=" ">
<polygon fill="white" stroke="#666666" points="1012,-196 845,-196 845,-166 1012,-166 1012,-196"/>
<text text-anchor="start" x="853" y="-184" font-family="Helvetica,sans-Serif" font-size="10.00">netspeak::model::SimpleQuery</text>
<text text-anchor="middle" x="928.5" y="-173" font-family="Helvetica,sans-Serif" font-size="10.00">Unit__::text</text>
</a>
</g>
</g>
<!-- Node17&#45;&gt;Node24 -->
<g id="edge38_Node000017_Node000024" class="edge">
<title>Node17&#45;&gt;Node24</title>
<g id="a_edge38_Node000017_Node000024"><a xlink:title=" ">
<path fill="none" stroke="#63b8ff" d="M549.84,-142.14C572.94,-156.15 609.83,-175.98 645,-184 707.13,-198.16 778.95,-197.18 834.63,-192.77"/>
<polygon fill="#63b8ff" stroke="#63b8ff" points="835.16,-196.24 844.83,-191.92 834.57,-189.27 835.16,-196.24"/>
</a>
</g>
</g>
<!-- Node25 -->
<g id="Node000025" class="node">
<title>Node25</title>
<g id="a_Node000025"><a xlink:href="classnetspeak_1_1StarQuery.html#a01c6f6f85f75d9c05c9398d32ad231e0" target="_top" xlink:title=" ">
<polygon fill="white" stroke="#666666" points="785,-175 669,-175 669,-145 785,-145 785,-175"/>
<text text-anchor="start" x="677" y="-163" font-family="Helvetica,sans-Serif" font-size="10.00">netspeak::StarQuery</text>
<text text-anchor="middle" x="727" y="-152" font-family="Helvetica,sans-Serif" font-size="10.00">::push_back</text>
</a>
</g>
</g>
<!-- Node17&#45;&gt;Node25 -->
<g id="edge35_Node000017_Node000025" class="edge">
<title>Node17&#45;&gt;Node25</title>
<g id="a_edge35_Node000017_Node000025"><a xlink:title=" ">
<path fill="none" stroke="#63b8ff" d="M607.64,-140.42C624.62,-143.23 642.34,-146.16 658.74,-148.87"/>
<polygon fill="#63b8ff" stroke="#63b8ff" points="658.33,-152.35 668.76,-150.53 659.47,-145.45 658.33,-152.35"/>
</a>
</g>
</g>
<!-- Node19&#45;&gt;Node17 -->
<g id="edge26_Node000019_Node000017" class="edge">
<title>Node19&#45;&gt;Node17</title>
<g id="a_edge26_Node000019_Node000017"><a xlink:title=" ">
<path fill="none" stroke="#63b8ff" d="M671.75,-109.06C655.01,-112.35 636.09,-115.7 617.57,-118.66"/>
<polygon fill="#63b8ff" stroke="#63b8ff" points="616.98,-115.21 607.64,-120.22 618.07,-122.13 616.98,-115.21"/>
</a>
</g>
</g>
<!-- Node19&#45;&gt;Node18 -->
<g id="edge30_Node000019_Node000018" class="edge">
<title>Node19&#45;&gt;Node18</title>
<g id="a_edge30_Node000019_Node000018"><a xlink:title=" ">
<path fill="none" stroke="#63b8ff" d="M809.14,-82.61C817.6,-81.43 826.23,-80.21 834.8,-79.01"/>
<polygon fill="#63b8ff" stroke="#63b8ff" points="835.39,-82.46 844.81,-77.61 834.42,-75.53 835.39,-82.46"/>
</a>
</g>
</g>
<!-- Node19&#45;&gt;Node19 -->
<g id="edge31_Node000019_Node000019" class="edge">
<title>Node19&#45;&gt;Node19</title>
<g id="a_edge31_Node000019_Node000019"><a xlink:title=" ">
<path fill="none" stroke="#63b8ff" d="M691.84,-109.28C684.03,-118.41 695.75,-127 727,-127 745.55,-127 757.22,-123.97 762.01,-119.6"/>
<polygon fill="#63b8ff" stroke="#63b8ff" points="765.51,-119.32 762.16,-109.28 758.51,-119.22 765.51,-119.32"/>
</a>
</g>
</g>
<!-- Node20 -->
<g id="Node000020" class="node">
<title>Node20</title>
<g id="a_Node000020"><a xlink:href="classnetspeak_1_1StarQuery.html#a8df828a9f4fc20f1530bf0fa7a2fc2fc" target="_top" xlink:title=" ">
<polygon fill="white" stroke="#666666" points="986.5,-135 870.5,-135 870.5,-105 986.5,-105 986.5,-135"/>
<text text-anchor="start" x="878.5" y="-123" font-family="Helvetica,sans-Serif" font-size="10.00">netspeak::StarQuery</text>
<text text-anchor="middle" x="928.5" y="-112" font-family="Helvetica,sans-Serif" font-size="10.00">::append</text>
</a>
</g>
</g>
<!-- Node19&#45;&gt;Node20 -->
<g id="edge27_Node000019_Node000020" class="edge">
<title>Node19&#45;&gt;Node20</title>
<g id="a_edge27_Node000019_Node000020"><a xlink:title=" ">
<path fill="none" stroke="#63b8ff" d="M809.14,-104.58C826.12,-106.79 843.84,-109.1 860.24,-111.23"/>
<polygon fill="#63b8ff" stroke="#63b8ff" points="859.9,-114.72 870.26,-112.54 860.8,-107.78 859.9,-114.72"/>
</a>
</g>
</g>
<!-- Node19&#45;&gt;Node22 -->
<g id="edge32_Node000019_Node000022" class="edge">
<title>Node19&#45;&gt;Node22</title>
<g id="a_edge32_Node000019_Node000022"><a xlink:title=" ">
<path fill="none" stroke="#63b8ff" d="M759.41,-78.99C782.76,-68.09 815.54,-53.33 845,-42 852.78,-39.01 861.06,-36.04 869.25,-33.24"/>
<polygon fill="#63b8ff" stroke="#63b8ff" points="870.43,-36.54 878.79,-30.03 868.19,-29.9 870.43,-36.54"/>
</a>
</g>
</g>
<!-- Node19&#45;&gt;Node23 -->
<g id="edge33_Node000019_Node000023" class="edge">
<title>Node19&#45;&gt;Node23</title>
<g id="a_edge33_Node000019_Node000023"><a xlink:title=" ">
<path fill="none" stroke="#63b8ff" d="M768.67,-109.12C782.68,-115.78 797.67,-124.7 809,-136 833.49,-160.43 818.37,-182.93 845,-205 847.02,-206.67 849.14,-208.23 851.35,-209.69"/>
<polygon fill="#63b8ff" stroke="#63b8ff" points="849.84,-212.85 860.26,-214.8 853.33,-206.78 849.84,-212.85"/>
</a>
</g>
</g>
<!-- Node19&#45;&gt;Node24 -->
<g id="edge34_Node000019_Node000024" class="edge">
<title>Node19&#45;&gt;Node24</title>
<g id="a_edge34_Node000019_Node000024"><a xlink:title=" ">
<path fill="none" stroke="#63b8ff" d="M762.75,-109.15C796.26,-123.77 847.11,-145.94 883.44,-161.79"/>
<polygon fill="#63b8ff" stroke="#63b8ff" points="882.25,-165.08 892.81,-165.87 885.05,-158.67 882.25,-165.08"/>
</a>
</g>
</g>
<!-- Node21 -->
<g id="Node000021" class="node">
<title>Node21</title>
<g id="a_Node000021"><a xlink:href="namespacenetspeak_1_1util.html#a3d1d03195f7667390b5f548a2b9f9869" target="_top" xlink:title="A simple function that appends all elements of other to base.">
<polygon fill="white" stroke="#666666" points="1175,-171 1068,-171 1068,-141 1175,-141 1175,-171"/>
<text text-anchor="start" x="1076" y="-159" font-family="Helvetica,sans-Serif" font-size="10.00">netspeak::util::vec</text>
<text text-anchor="middle" x="1121.5" y="-148" font-family="Helvetica,sans-Serif" font-size="10.00">_append</text>
</a>
</g>
</g>
<!-- Node20&#45;&gt;Node21 -->
<g id="edge28_Node000020_Node000021" class="edge">
<title>Node20&#45;&gt;Node21</title>
<g id="a_edge28_Node000020_Node000021"><a xlink:title=" ">
<path fill="none" stroke="#63b8ff" d="M986.55,-130.75C1009.05,-134.99 1034.97,-139.88 1057.98,-144.22"/>
<polygon fill="#63b8ff" stroke="#63b8ff" points="1057.51,-147.69 1067.98,-146.1 1058.81,-140.81 1057.51,-147.69"/>
</a>
</g>
</g>
<!-- Node21&#45;&gt;Node12 -->
<g id="edge29_Node000021_Node000012" class="edge">
<title>Node21&#45;&gt;Node12</title>
<g id="a_edge29_Node000021_Node000012"><a xlink:title=" ">
<path fill="none" stroke="#63b8ff" d="M1153.73,-171.05C1183.63,-185.44 1228.36,-206.99 1257.49,-221.02"/>
<polygon fill="#63b8ff" stroke="#63b8ff" points="1256.19,-224.29 1266.72,-225.47 1259.23,-217.98 1256.19,-224.29"/>
</a>
</g>
</g>
</g>
</svg>
