<?xml version="1.0" encoding="UTF-8" standalone="no"?>
<!DOCTYPE svg PUBLIC "-//W3C//DTD SVG 1.1//EN"
 "http://www.w3.org/Graphics/SVG/1.1/DTD/svg11.dtd">
<!-- Generated by graphviz version 2.43.0 (0)
 -->
<!-- Title: netspeak::invertedindex::Searcher::open Pages: 1 -->
<svg width="696pt" height="439pt"
 viewBox="0.00 0.00 696.00 439.00" xmlns="http://www.w3.org/2000/svg" xmlns:xlink="http://www.w3.org/1999/xlink">
<g id="graph0" class="graph" transform="scale(1 1) rotate(0) translate(4 435)">
<title>netspeak::invertedindex::Searcher::open</title>
<!-- Node1 -->
<g id="Node000001" class="node">
<title>Node1</title>
<g id="a_Node000001"><a xlink:title=" ">
<polygon fill="#999999" stroke="#666666" points="135,-217 0,-217 0,-187 135,-187 135,-217"/>
<text text-anchor="start" x="8" y="-205" font-family="Helvetica,sans-Serif" font-size="10.00">netspeak::invertedindex</text>
<text text-anchor="middle" x="67.5" y="-194" font-family="Helvetica,sans-Serif" font-size="10.00">::Searcher::open</text>
</a>
</g>
</g>
<!-- Node2 -->
<g id="Node000002" class="node">
<title>Node2</title>
<g id="a_Node000002"><a xlink:href="classnetspeak_1_1invertedindex_1_1Searcher.html#a0ac2ba3e583140293e2abc4fdd06ec76" target="_top" xlink:title=" ">
<polygon fill="white" stroke="#666666" points="347.5,-415 191.5,-415 191.5,-385 347.5,-385 347.5,-415"/>
<text text-anchor="start" x="199.5" y="-403" font-family="Helvetica,sans-Serif" font-size="10.00">netspeak::invertedindex</text>
<text text-anchor="middle" x="269.5" y="-392" font-family="Helvetica,sans-Serif" font-size="10.00">::Searcher::assert_properties</text>
</a>
</g>
</g>
<!-- Node1&#45;&gt;Node2 -->
<g id="edge1_Node000001_Node000002" class="edge">
<title>Node1&#45;&gt;Node2</title>
<g id="a_edge1_Node000001_Node000002"><a xlink:title=" ">
<path fill="none" stroke="#63b8ff" d="M74.62,-217.23C87.79,-248.21 121.67,-319.09 171,-360 181.27,-368.52 193.6,-375.43 205.98,-380.95"/>
<polygon fill="#63b8ff" stroke="#63b8ff" points="204.85,-384.27 215.43,-384.91 207.56,-377.82 204.85,-384.27"/>
</a>
</g>
</g>
<!-- Node4 -->
<g id="Node000004" class="node">
<title>Node4</title>
<g id="a_Node000004"><a xlink:href="structnetspeak_1_1invertedindex_1_1Properties.html#a1f62cdb1f59187bc35b5d5dafb1785fd" target="_top" xlink:title=" ">
<polygon fill="white" stroke="#666666" points="337,-350.5 202,-350.5 202,-309.5 337,-309.5 337,-350.5"/>
<text text-anchor="start" x="210" y="-338.5" font-family="Helvetica,sans-Serif" font-size="10.00">netspeak::invertedindex</text>
<text text-anchor="start" x="210" y="-327.5" font-family="Helvetica,sans-Serif" font-size="10.00">::Properties::default</text>
<text text-anchor="middle" x="269.5" y="-316.5" font-family="Helvetica,sans-Serif" font-size="10.00">_filename</text>
</a>
</g>
</g>
<!-- Node1&#45;&gt;Node4 -->
<g id="edge3_Node000001_Node000004" class="edge">
<title>Node1&#45;&gt;Node4</title>
<g id="a_edge3_Node000001_Node000004"><a xlink:title=" ">
<path fill="none" stroke="#63b8ff" d="M80.43,-217.21C98.02,-238.67 132.99,-277.69 171,-300 177.71,-303.94 184.99,-307.41 192.45,-310.46"/>
<polygon fill="#63b8ff" stroke="#63b8ff" points="191.37,-313.79 201.96,-314.09 193.87,-307.25 191.37,-313.79"/>
</a>
</g>
</g>
<!-- Node5 -->
<g id="Node000005" class="node">
<title>Node5</title>
<g id="a_Node000005"><a xlink:href="namespacenetspeak_1_1util.html#a978978e70b474657b12402a3db711ef0" target="_top" xlink:title=" ">
<polygon fill="white" stroke="#666666" points="329,-211.5 210,-211.5 210,-192.5 329,-192.5 329,-211.5"/>
<text text-anchor="middle" x="269.5" y="-199.5" font-family="Helvetica,sans-Serif" font-size="10.00">netspeak::util::fclose</text>
</a>
</g>
</g>
<!-- Node1&#45;&gt;Node5 -->
<g id="edge4_Node000001_Node000005" class="edge">
<title>Node1&#45;&gt;Node5</title>
<g id="a_edge4_Node000001_Node000005"><a xlink:title=" ">
<path fill="none" stroke="#63b8ff" d="M135.1,-202C155.9,-202 178.88,-202 199.82,-202"/>
<polygon fill="#63b8ff" stroke="#63b8ff" points="199.91,-205.5 209.91,-202 199.91,-198.5 199.91,-205.5"/>
</a>
</g>
</g>
<!-- Node8 -->
<g id="Node000008" class="node">
<title>Node8</title>
<g id="a_Node000008"><a xlink:href="namespacenetspeak_1_1util.html#a4acc3d13f8d541f4b65dd44f486403fd" target="_top" xlink:title=" ">
<polygon fill="white" stroke="#666666" points="328,-174.5 211,-174.5 211,-155.5 328,-155.5 328,-174.5"/>
<text text-anchor="middle" x="269.5" y="-162.5" font-family="Helvetica,sans-Serif" font-size="10.00">netspeak::util::fopen</text>
</a>
</g>
</g>
<!-- Node1&#45;&gt;Node8 -->
<g id="edge8_Node000001_Node000008" class="edge">
<title>Node1&#45;&gt;Node8</title>
<g id="a_edge8_Node000001_Node000008"><a xlink:title=" ">
<path fill="none" stroke="#63b8ff" d="M135.21,-189.63C147.13,-187.42 159.43,-185.14 171,-183 182.64,-180.85 195.05,-178.55 207,-176.35"/>
<polygon fill="#63b8ff" stroke="#63b8ff" points="207.69,-179.78 216.89,-174.52 206.42,-172.9 207.69,-179.78"/>
</a>
</g>
</g>
<!-- Node9 -->
<g id="Node000009" class="node">
<title>Node9</title>
<g id="a_Node000009"><a xlink:href="namespacenetspeak_1_1util.html#a0f64660040077bd1ae3a46941a000b07" target="_top" xlink:title=" ">
<polygon fill="white" stroke="#666666" points="327,-248.5 212,-248.5 212,-229.5 327,-229.5 327,-248.5"/>
<text text-anchor="middle" x="269.5" y="-236.5" font-family="Helvetica,sans-Serif" font-size="10.00">netspeak::util::fread</text>
</a>
</g>
</g>
<!-- Node1&#45;&gt;Node9 -->
<g id="edge11_Node000001_Node000009" class="edge">
<title>Node1&#45;&gt;Node9</title>
<g id="a_edge11_Node000001_Node000009"><a xlink:title=" ">
<path fill="none" stroke="#63b8ff" d="M135.1,-214.32C158.36,-218.62 184.34,-223.43 207.16,-227.65"/>
<polygon fill="#63b8ff" stroke="#63b8ff" points="206.59,-231.11 217.06,-229.48 207.86,-224.22 206.59,-231.11"/>
</a>
</g>
</g>
<!-- Node10 -->
<g id="Node000010" class="node">
<title>Node10</title>
<g id="a_Node000010"><a xlink:href="classnetspeak_1_1invertedindex_1_1Configuration.html#aea1c2d3c89d203c4e7e1ea65e734f874" target="_top" xlink:title=" ">
<polygon fill="white" stroke="#666666" points="337,-137.5 202,-137.5 202,-96.5 337,-96.5 337,-137.5"/>
<text text-anchor="start" x="210" y="-125.5" font-family="Helvetica,sans-Serif" font-size="10.00">netspeak::invertedindex</text>
<text text-anchor="start" x="210" y="-114.5" font-family="Helvetica,sans-Serif" font-size="10.00">::Configuration::index</text>
<text text-anchor="middle" x="269.5" y="-103.5" font-family="Helvetica,sans-Serif" font-size="10.00">_directory</text>
</a>
</g>
</g>
<!-- Node1&#45;&gt;Node10 -->
<g id="edge14_Node000001_Node000010" class="edge">
<title>Node1&#45;&gt;Node10</title>
<g id="a_edge14_Node000001_Node000010"><a xlink:title=" ">
<path fill="none" stroke="#63b8ff" d="M92.63,-186.92C112.96,-174.68 143.11,-157.61 171,-146 177.73,-143.2 184.81,-140.55 191.98,-138.07"/>
<polygon fill="#63b8ff" stroke="#63b8ff" points="193.38,-141.29 201.76,-134.8 191.16,-134.65 193.38,-141.29"/>
</a>
</g>
</g>
<!-- Node11 -->
<g id="Node000011" class="node">
<title>Node11</title>
<g id="a_Node000011"><a xlink:href="classnetspeak_1_1invertedindex_1_1Searcher.html#a23d88f1539d2c925427b1864cb7812fd" target="_top" xlink:title=" ">
<polygon fill="white" stroke="#666666" points="337,-78 202,-78 202,-48 337,-48 337,-78"/>
<text text-anchor="start" x="210" y="-66" font-family="Helvetica,sans-Serif" font-size="10.00">netspeak::invertedindex</text>
<text text-anchor="middle" x="269.5" y="-55" font-family="Helvetica,sans-Serif" font-size="10.00">::Searcher::is_open</text>
</a>
</g>
</g>
<!-- Node1&#45;&gt;Node11 -->
<g id="edge15_Node000001_Node000011" class="edge">
<title>Node1&#45;&gt;Node11</title>
<g id="a_edge15_Node000001_Node000011"><a xlink:title=" ">
<path fill="none" stroke="#63b8ff" d="M77.74,-186.66C93.59,-161.74 128.39,-112.66 171,-87 177.61,-83.02 184.86,-79.69 192.32,-76.92"/>
<polygon fill="#63b8ff" stroke="#63b8ff" points="193.5,-80.21 201.85,-73.69 191.26,-73.58 193.5,-80.21"/>
</a>
</g>
</g>
<!-- Node12 -->
<g id="Node000012" class="node">
<title>Node12</title>
<g id="a_Node000012"><a xlink:href="namespacenetspeak_1_1util.html#ad2441a387c3a4c47e09c373e9412fad0" target="_top" xlink:title=" ">
<polygon fill="white" stroke="#666666" points="321.5,-291.5 217.5,-291.5 217.5,-272.5 321.5,-272.5 321.5,-291.5"/>
<text text-anchor="middle" x="269.5" y="-279.5" font-family="Helvetica,sans-Serif" font-size="10.00">netspeak::util::log</text>
</a>
</g>
</g>
<!-- Node1&#45;&gt;Node12 -->
<g id="edge16_Node000001_Node000012" class="edge">
<title>Node1&#45;&gt;Node12</title>
<g id="a_edge16_Node000001_Node000012"><a xlink:title=" ">
<path fill="none" stroke="#63b8ff" d="M92.56,-217.06C112.84,-229.23 142.96,-246.07 171,-257 183.97,-262.06 198.31,-266.39 211.91,-269.95"/>
<polygon fill="#63b8ff" stroke="#63b8ff" points="211.1,-273.36 221.65,-272.42 212.81,-266.57 211.1,-273.36"/>
</a>
</g>
</g>
<!-- Node15 -->
<g id="Node000015" class="node">
<title>Node15</title>
<g id="a_Node000015"><a xlink:href="classnetspeak_1_1invertedindex_1_1Configuration.html#a3f98a73c0d66212e234149b5ff21b76c" target="_top" xlink:title=" ">
<polygon fill="white" stroke="#666666" points="368,-30 171,-30 171,0 368,0 368,-30"/>
<text text-anchor="start" x="179" y="-18" font-family="Helvetica,sans-Serif" font-size="10.00">netspeak::invertedindex</text>
<text text-anchor="middle" x="269.5" y="-7" font-family="Helvetica,sans-Serif" font-size="10.00">::Configuration::max_memory_usage</text>
</a>
</g>
</g>
<!-- Node1&#45;&gt;Node15 -->
<g id="edge21_Node000001_Node000015" class="edge">
<title>Node1&#45;&gt;Node15</title>
<g id="a_edge21_Node000001_Node000015"><a xlink:title=" ">
<path fill="none" stroke="#63b8ff" d="M73.64,-186.66C85.37,-154.07 117.34,-77.75 171,-39 173.1,-37.48 175.29,-36.06 177.54,-34.73"/>
<polygon fill="#63b8ff" stroke="#63b8ff" points="179.31,-37.75 186.54,-30.01 176.06,-31.55 179.31,-37.75"/>
</a>
</g>
</g>
<!-- Node3 -->
<g id="Node000003" class="node">
<title>Node3</title>
<g id="a_Node000003"><a xlink:href="classnetspeak_1_1invertedindex_1_1Searcher.html#a45b62c369c7242cf08e445dc55738613" target="_top" xlink:title=" ">
<polygon fill="white" stroke="#666666" points="539,-431 404,-431 404,-401 539,-401 539,-431"/>
<text text-anchor="start" x="412" y="-419" font-family="Helvetica,sans-Serif" font-size="10.00">netspeak::invertedindex</text>
<text text-anchor="middle" x="471.5" y="-408" font-family="Helvetica,sans-Serif" font-size="10.00">::Searcher::properties</text>
</a>
</g>
</g>
<!-- Node2&#45;&gt;Node3 -->
<g id="edge2_Node000002_Node000003" class="edge">
<title>Node2&#45;&gt;Node3</title>
<g id="a_edge2_Node000002_Node000003"><a xlink:title=" ">
<path fill="none" stroke="#63b8ff" d="M347.54,-406.16C362.65,-407.37 378.5,-408.64 393.6,-409.85"/>
<polygon fill="#63b8ff" stroke="#63b8ff" points="393.68,-413.37 403.92,-410.67 394.24,-406.39 393.68,-413.37"/>
</a>
</g>
</g>
<!-- Node6 -->
<g id="Node000006" class="node">
<title>Node6</title>
<g id="a_Node000006"><a xlink:href="namespacenetspeak_1_1util.html#a4c91ad572508b4021399ac7dddff574d" target="_top" xlink:title=" ">
<polygon fill="white" stroke="#666666" points="688,-226.5 575,-226.5 575,-207.5 688,-207.5 688,-226.5"/>
<text text-anchor="middle" x="631.5" y="-214.5" font-family="Helvetica,sans-Serif" font-size="10.00">netspeak::util::hash</text>
</a>
</g>
</g>
<!-- Node5&#45;&gt;Node6 -->
<g id="edge5_Node000005_Node000006" class="edge">
<title>Node5&#45;&gt;Node6</title>
<g id="a_edge5_Node000005_Node000006"><a xlink:title=" ">
<path fill="none" stroke="#63b8ff" d="M324.62,-192.49C338.8,-189.72 354.03,-186.49 368,-183 384.23,-178.95 387.45,-174.47 404,-172 463.34,-163.14 480.56,-158.41 539,-172 563.96,-177.81 589.95,-191.44 607.82,-202.18"/>
<polygon fill="#63b8ff" stroke="#63b8ff" points="606.04,-205.19 616.38,-207.49 609.73,-199.24 606.04,-205.19"/>
</a>
</g>
</g>
<!-- Node7 -->
<g id="Node000007" class="node">
<title>Node7</title>
<g id="a_Node000007"><a xlink:href="namespacenetspeak_1_1util.html#af94d48fda5f335ddcb461a8237079866" target="_top" xlink:title=" ">
<polygon fill="white" stroke="#666666" points="531,-211 412,-211 412,-181 531,-181 531,-211"/>
<text text-anchor="start" x="420" y="-199" font-family="Helvetica,sans-Serif" font-size="10.00">netspeak::util::signal</text>
<text text-anchor="middle" x="471.5" y="-188" font-family="Helvetica,sans-Serif" font-size="10.00">_error</text>
</a>
</g>
</g>
<!-- Node5&#45;&gt;Node7 -->
<g id="edge6_Node000005_Node000007" class="edge">
<title>Node5&#45;&gt;Node7</title>
<g id="a_edge6_Node000005_Node000007"><a xlink:title=" ">
<path fill="none" stroke="#63b8ff" d="M329.16,-200.24C351.85,-199.56 377.99,-198.78 401.57,-198.07"/>
<polygon fill="#63b8ff" stroke="#63b8ff" points="401.96,-201.56 411.85,-197.76 401.75,-194.56 401.96,-201.56"/>
</a>
</g>
</g>
<!-- Node7&#45;&gt;Node6 -->
<g id="edge7_Node000007_Node000006" class="edge">
<title>Node7&#45;&gt;Node6</title>
<g id="a_edge7_Node000007_Node000006"><a xlink:title=" ">
<path fill="none" stroke="#63b8ff" d="M531.33,-203.82C542.22,-205.27 553.64,-206.79 564.72,-208.26"/>
<polygon fill="#63b8ff" stroke="#63b8ff" points="564.39,-211.74 574.76,-209.59 565.31,-204.8 564.39,-211.74"/>
</a>
</g>
</g>
<!-- Node8&#45;&gt;Node6 -->
<g id="edge9_Node000008_Node000006" class="edge">
<title>Node8&#45;&gt;Node6</title>
<g id="a_edge9_Node000008_Node000006"><a xlink:title=" ">
<path fill="none" stroke="#63b8ff" d="M320.62,-155.46C375.42,-146.99 465.26,-138.91 539,-160 566.58,-167.89 593.94,-186.77 611.45,-200.64"/>
<polygon fill="#63b8ff" stroke="#63b8ff" points="609.7,-203.74 619.66,-207.36 614.14,-198.32 609.7,-203.74"/>
</a>
</g>
</g>
<!-- Node8&#45;&gt;Node7 -->
<g id="edge10_Node000008_Node000007" class="edge">
<title>Node8&#45;&gt;Node7</title>
<g id="a_edge10_Node000008_Node000007"><a xlink:title=" ">
<path fill="none" stroke="#63b8ff" d="M328.08,-173.92C351.1,-177.49 377.81,-181.63 401.83,-185.36"/>
<polygon fill="#63b8ff" stroke="#63b8ff" points="401.52,-188.85 411.94,-186.92 402.59,-181.93 401.52,-188.85"/>
</a>
</g>
</g>
<!-- Node9&#45;&gt;Node6 -->
<g id="edge12_Node000009_Node000006" class="edge">
<title>Node9&#45;&gt;Node6</title>
<g id="a_edge12_Node000009_Node000006"><a xlink:title=" ">
<path fill="none" stroke="#63b8ff" d="M327.15,-235.54C391.56,-231.6 496.58,-225.18 564.6,-221.03"/>
<polygon fill="#63b8ff" stroke="#63b8ff" points="565.01,-224.51 574.78,-220.41 564.58,-217.52 565.01,-224.51"/>
</a>
</g>
</g>
<!-- Node9&#45;&gt;Node7 -->
<g id="edge13_Node000009_Node000007" class="edge">
<title>Node9&#45;&gt;Node7</title>
<g id="a_edge13_Node000009_Node000007"><a xlink:title=" ">
<path fill="none" stroke="#63b8ff" d="M321.18,-229.5C336.27,-226.57 352.82,-223.25 368,-220 378.99,-217.64 390.61,-215.03 401.93,-212.43"/>
<polygon fill="#63b8ff" stroke="#63b8ff" points="402.82,-215.82 411.78,-210.15 401.24,-209 402.82,-215.82"/>
</a>
</g>
</g>
<!-- Node12&#45;&gt;Node6 -->
<g id="edge18_Node000012_Node000006" class="edge">
<title>Node12&#45;&gt;Node6</title>
<g id="a_edge18_Node000012_Node000006"><a xlink:title=" ">
<path fill="none" stroke="#63b8ff" d="M321.63,-291.41C357.48,-297.97 399.75,-305.62 404,-306 463.76,-311.33 483.41,-328.58 539,-306 574.21,-291.7 603.31,-256.62 618.68,-235.01"/>
<polygon fill="#63b8ff" stroke="#63b8ff" points="621.63,-236.91 624.41,-226.68 615.86,-232.94 621.63,-236.91"/>
</a>
</g>
</g>
<!-- Node13 -->
<g id="Node000013" class="node">
<title>Node13</title>
<g id="a_Node000013"><a xlink:href="namespacenetspeak_1_1util.html#ab27a22c787271513007af0719b17cef9" target="_top" xlink:title=" ">
<polygon fill="white" stroke="#666666" points="524,-383 419,-383 419,-353 524,-353 524,-383"/>
<text text-anchor="start" x="427" y="-371" font-family="Helvetica,sans-Serif" font-size="10.00">netspeak::util::get</text>
<text text-anchor="middle" x="471.5" y="-360" font-family="Helvetica,sans-Serif" font-size="10.00">_log_mutex</text>
</a>
</g>
</g>
<!-- Node12&#45;&gt;Node13 -->
<g id="edge17_Node000012_Node000013" class="edge">
<title>Node12&#45;&gt;Node13</title>
<g id="a_edge17_Node000012_Node000013"><a xlink:title=" ">
<path fill="none" stroke="#63b8ff" d="M321.7,-285.2C337.28,-287.78 353.98,-292.27 368,-300 388.66,-311.39 384.78,-325.33 404,-339 408.8,-342.41 414.07,-345.55 419.47,-348.39"/>
<polygon fill="#63b8ff" stroke="#63b8ff" points="418.11,-351.62 428.62,-352.9 421.2,-345.34 418.11,-351.62"/>
</a>
</g>
</g>
<!-- Node14 -->
<g id="Node000014" class="node">
<title>Node14</title>
<g id="a_Node000014"><a xlink:href="namespacenetspeak_1_1util.html#a93e18aaa529a497b6afdf4b3bd221182" target="_top" xlink:title=" ">
<polygon fill="white" stroke="#666666" points="527.5,-297 415.5,-297 415.5,-267 527.5,-267 527.5,-297"/>
<text text-anchor="start" x="423.5" y="-285" font-family="Helvetica,sans-Serif" font-size="10.00">netspeak::util::print</text>
<text text-anchor="middle" x="471.5" y="-274" font-family="Helvetica,sans-Serif" font-size="10.00">_timestamp_to</text>
</a>
</g>
</g>
<!-- Node12&#45;&gt;Node14 -->
<g id="edge19_Node000012_Node000014" class="edge">
<title>Node12&#45;&gt;Node14</title>
<g id="a_edge19_Node000012_Node000014"><a xlink:title=" ">
<path fill="none" stroke="#63b8ff" d="M321.75,-282C347.09,-282 377.98,-282 405.02,-282"/>
<polygon fill="#63b8ff" stroke="#63b8ff" points="405.18,-285.5 415.18,-282 405.18,-278.5 405.18,-285.5"/>
</a>
</g>
</g>
<!-- Node14&#45;&gt;Node6 -->
<g id="edge20_Node000014_Node000006" class="edge">
<title>Node14&#45;&gt;Node6</title>
<g id="a_edge20_Node000014_Node000006"><a xlink:title=" ">
<path fill="none" stroke="#63b8ff" d="M509.15,-266.92C535.98,-255.88 572.08,-241.03 597.91,-230.41"/>
<polygon fill="#63b8ff" stroke="#63b8ff" points="599.36,-233.6 607.27,-226.56 596.69,-227.12 599.36,-233.6"/>
</a>
</g>
</g>
</g>
</svg>
