<?xml version="1.0" encoding="UTF-8" standalone="no"?>
<!DOCTYPE svg PUBLIC "-//W3C//DTD SVG 1.1//EN"
 "http://www.w3.org/Graphics/SVG/1.1/DTD/svg11.dtd">
<!-- Generated by graphviz version 2.43.0 (0)
 -->
<!-- Title: netspeak::invertedindex::StorageWriter::close Pages: 1 -->
<svg width="351pt" height="134pt"
 viewBox="0.00 0.00 351.00 134.00" xmlns="http://www.w3.org/2000/svg" xmlns:xlink="http://www.w3.org/1999/xlink">
<g id="graph0" class="graph" transform="scale(1 1) rotate(0) translate(4 130)">
<title>netspeak::invertedindex::StorageWriter::close</title>
<!-- Node1 -->
<g id="Node000001" class="node">
<title>Node1</title>
<g id="a_Node000001"><a xlink:title=" ">
<polygon fill="#999999" stroke="#666666" points="343,-78 208,-78 208,-48 343,-48 343,-78"/>
<text text-anchor="start" x="216" y="-66" font-family="Helvetica,sans-Serif" font-size="10.00">netspeak::invertedindex</text>
<text text-anchor="middle" x="275.5" y="-55" font-family="Helvetica,sans-Serif" font-size="10.00">::StorageWriter::close</text>
</a>
</g>
</g>
<!-- Node2 -->
<g id="Node000002" class="node">
<title>Node2</title>
<g id="a_Node000002"><a xlink:href="classnetspeak_1_1invertedindex_1_1UnsortedInput.html#a3bf52078c65c198e542a3e16d42eff20" target="_top" xlink:title=" ">
<polygon fill="white" stroke="#666666" points="153.5,-126 18.5,-126 18.5,-96 153.5,-96 153.5,-126"/>
<text text-anchor="start" x="26.5" y="-114" font-family="Helvetica,sans-Serif" font-size="10.00">netspeak::invertedindex</text>
<text text-anchor="middle" x="86" y="-103" font-family="Helvetica,sans-Serif" font-size="10.00">::UnsortedInput::index</text>
</a>
</g>
</g>
<!-- Node1&#45;&gt;Node2 -->
<g id="edge1_Node000001_Node000002" class="edge">
<title>Node1&#45;&gt;Node2</title>
<g id="a_edge1_Node000001_Node000002"><a xlink:title=" ">
<path fill="none" stroke="#63b8ff" d="M205.83,-80.58C186.06,-85.64 164.7,-91.11 145.6,-96"/>
<polygon fill="#63b8ff" stroke="#63b8ff" points="206.87,-83.93 215.69,-78.06 205.13,-77.15 206.87,-83.93"/>
</a>
</g>
</g>
<!-- Node3 -->
<g id="Node000003" class="node">
<title>Node3</title>
<g id="a_Node000003"><a xlink:href="classnetspeak_1_1invertedindex_1_1SortedInput.html#ae3183e635b4fa91c0b855773b95ce99c" target="_top" xlink:title=" ">
<polygon fill="white" stroke="#666666" points="153.5,-78 18.5,-78 18.5,-48 153.5,-48 153.5,-78"/>
<text text-anchor="start" x="26.5" y="-66" font-family="Helvetica,sans-Serif" font-size="10.00">netspeak::invertedindex</text>
<text text-anchor="middle" x="86" y="-55" font-family="Helvetica,sans-Serif" font-size="10.00">::SortedInput::index</text>
</a>
</g>
</g>
<!-- Node1&#45;&gt;Node3 -->
<g id="edge2_Node000001_Node000003" class="edge">
<title>Node1&#45;&gt;Node3</title>
<g id="a_edge2_Node000001_Node000003"><a xlink:title=" ">
<path fill="none" stroke="#63b8ff" d="M197.85,-63C183.22,-63 168.02,-63 153.73,-63"/>
<polygon fill="#63b8ff" stroke="#63b8ff" points="197.87,-66.5 207.87,-63 197.87,-59.5 197.87,-66.5"/>
</a>
</g>
</g>
<!-- Node4 -->
<g id="Node000004" class="node">
<title>Node4</title>
<g id="a_Node000004"><a xlink:href="classnetspeak_1_1invertedindex_1_1StorageWriter.html#af783f33c33c210523e44c0aef00b7ccd" target="_top" xlink:title=" ">
<polygon fill="white" stroke="#666666" points="172,-30 0,-30 0,0 172,0 172,-30"/>
<text text-anchor="start" x="8" y="-18" font-family="Helvetica,sans-Serif" font-size="10.00">netspeak::invertedindex</text>
<text text-anchor="middle" x="86" y="-7" font-family="Helvetica,sans-Serif" font-size="10.00">::StorageWriter::~StorageWriter</text>
</a>
</g>
</g>
<!-- Node1&#45;&gt;Node4 -->
<g id="edge3_Node000001_Node000004" class="edge">
<title>Node1&#45;&gt;Node4</title>
<g id="a_edge3_Node000001_Node000004"><a xlink:title=" ">
<path fill="none" stroke="#63b8ff" d="M205.83,-45.42C186.06,-40.36 164.7,-34.89 145.6,-30"/>
<polygon fill="#63b8ff" stroke="#63b8ff" points="205.13,-48.85 215.69,-47.94 206.87,-42.07 205.13,-48.85"/>
</a>
</g>
</g>
</g>
</svg>
