<?xml version="1.0" encoding="UTF-8" standalone="no"?>
<!DOCTYPE svg PUBLIC "-//W3C//DTD SVG 1.1//EN"
 "http://www.w3.org/Graphics/SVG/1.1/DTD/svg11.dtd">
<!-- Generated by graphviz version 2.43.0 (0)
 -->
<!-- Title: CommandLineTool.cpp Pages: 1 -->
<svg width="1054pt" height="192pt"
 viewBox="0.00 0.00 1053.50 192.00" xmlns="http://www.w3.org/2000/svg" xmlns:xlink="http://www.w3.org/1999/xlink">
<g id="graph0" class="graph" transform="scale(1 1) rotate(0) translate(4 188)">
<title>CommandLineTool.cpp</title>
<!-- Node1 -->
<g id="Node000001" class="node">
<title>Node1</title>
<g id="a_Node000001"><a xlink:title=" ">
<polygon fill="#999999" stroke="#666666" points="523.5,-184 396.5,-184 396.5,-165 523.5,-165 523.5,-184"/>
<text text-anchor="middle" x="460" y="-172" font-family="Helvetica,sans-Serif" font-size="10.00">CommandLineTool.cpp</text>
</a>
</g>
</g>
<!-- Node2 -->
<g id="Node000002" class="node">
<title>Node2</title>
<g id="a_Node000002"><a xlink:title=" ">
<polygon fill="#e0e0e0" stroke="#999999" points="58,-74 0,-74 0,-55 58,-55 58,-74"/>
<text text-anchor="middle" x="29" y="-62" font-family="Helvetica,sans-Serif" font-size="10.00">memory</text>
</a>
</g>
</g>
<!-- Node1&#45;&gt;Node2 -->
<g id="edge1_Node000001_Node000002" class="edge">
<title>Node1&#45;&gt;Node2</title>
<g id="a_edge1_Node000001_Node000002"><a xlink:title=" ">
<path fill="none" stroke="#63b8ff" d="M396.09,-170.8C285.48,-165.53 67.66,-152.31 42,-129 29.91,-118.01 27.35,-99.06 27.4,-84.72"/>
<polygon fill="#63b8ff" stroke="#63b8ff" points="30.91,-84.59 27.87,-74.44 23.92,-84.27 30.91,-84.59"/>
</a>
</g>
</g>
<!-- Node3 -->
<g id="Node000003" class="node">
<title>Node3</title>
<g id="a_Node000003"><a xlink:href="BuildCommand_8hpp.html" target="_top" xlink:title=" ">
<polygon fill="white" stroke="#666666" points="303.5,-129 176.5,-129 176.5,-110 303.5,-110 303.5,-129"/>
<text text-anchor="middle" x="240" y="-117" font-family="Helvetica,sans-Serif" font-size="10.00">cli/BuildCommand.hpp</text>
</a>
</g>
</g>
<!-- Node1&#45;&gt;Node3 -->
<g id="edge2_Node000001_Node000003" class="edge">
<title>Node1&#45;&gt;Node3</title>
<g id="a_edge2_Node000001_Node000003"><a xlink:title=" ">
<path fill="none" stroke="#63b8ff" d="M424.65,-164.98C386.84,-155.87 326.74,-141.4 285.43,-131.45"/>
<polygon fill="#63b8ff" stroke="#63b8ff" points="286.17,-128.02 275.62,-129.08 284.53,-134.83 286.17,-128.02"/>
</a>
</g>
</g>
<!-- Node7 -->
<g id="Node000007" class="node">
<title>Node7</title>
<g id="a_Node000007"><a xlink:href="Commands_8hpp.html" target="_top" xlink:title=" ">
<polygon fill="white" stroke="#666666" points="158.5,-129 51.5,-129 51.5,-110 158.5,-110 158.5,-129"/>
<text text-anchor="middle" x="105" y="-117" font-family="Helvetica,sans-Serif" font-size="10.00">cli/Commands.hpp</text>
</a>
</g>
</g>
<!-- Node1&#45;&gt;Node7 -->
<g id="edge7_Node000001_Node000007" class="edge">
<title>Node1&#45;&gt;Node7</title>
<g id="a_edge7_Node000001_Node000007"><a xlink:title=" ">
<path fill="none" stroke="#63b8ff" d="M402.96,-164.98C338.93,-155.42 235.28,-139.95 168.66,-130"/>
<polygon fill="#63b8ff" stroke="#63b8ff" points="169.11,-126.53 158.7,-128.52 168.07,-133.46 169.11,-126.53"/>
</a>
</g>
</g>
<!-- Node9 -->
<g id="Node000009" class="node">
<title>Node9</title>
<g id="a_Node000009"><a xlink:href="ProxyCommand_8hpp.html" target="_top" xlink:title=" ">
<polygon fill="white" stroke="#666666" points="894,-129 764,-129 764,-110 894,-110 894,-129"/>
<text text-anchor="middle" x="829" y="-117" font-family="Helvetica,sans-Serif" font-size="10.00">cli/ProxyCommand.hpp</text>
</a>
</g>
</g>
<!-- Node1&#45;&gt;Node9 -->
<g id="edge11_Node000001_Node000009" class="edge">
<title>Node1&#45;&gt;Node9</title>
<g id="a_edge11_Node000001_Node000009"><a xlink:title=" ">
<path fill="none" stroke="#63b8ff" d="M519.29,-164.98C584.82,-155.57 690.26,-140.43 759.6,-130.47"/>
<polygon fill="#63b8ff" stroke="#63b8ff" points="760.15,-133.92 769.56,-129.04 759.16,-127 760.15,-133.92"/>
</a>
</g>
</g>
<!-- Node10 -->
<g id="Node000010" class="node">
<title>Node10</title>
<g id="a_Node000010"><a xlink:href="RegexCommand_8hpp.html" target="_top" xlink:title=" ">
<polygon fill="white" stroke="#666666" points="1045.5,-129 912.5,-129 912.5,-110 1045.5,-110 1045.5,-129"/>
<text text-anchor="middle" x="979" y="-117" font-family="Helvetica,sans-Serif" font-size="10.00">cli/RegexCommand.hpp</text>
</a>
</g>
</g>
<!-- Node1&#45;&gt;Node10 -->
<g id="edge14_Node000001_Node000010" class="edge">
<title>Node1&#45;&gt;Node10</title>
<g id="a_edge14_Node000001_Node000010"><a xlink:title=" ">
<path fill="none" stroke="#63b8ff" d="M523.85,-167.31C607.94,-159.12 760.73,-144.05 902.12,-129.08"/>
<polygon fill="#63b8ff" stroke="#63b8ff" points="902.7,-132.54 912.28,-128.01 901.96,-125.58 902.7,-132.54"/>
</a>
</g>
</g>
<!-- Node11 -->
<g id="Node000011" class="node">
<title>Node11</title>
<g id="a_Node000011"><a xlink:href="ServeCommand_8hpp.html" target="_top" xlink:title=" ">
<polygon fill="white" stroke="#666666" points="452,-129 322,-129 322,-110 452,-110 452,-129"/>
<text text-anchor="middle" x="387" y="-117" font-family="Helvetica,sans-Serif" font-size="10.00">cli/ServeCommand.hpp</text>
</a>
</g>
</g>
<!-- Node1&#45;&gt;Node11 -->
<g id="edge17_Node000001_Node000011" class="edge">
<title>Node1&#45;&gt;Node11</title>
<g id="a_edge17_Node000001_Node000011"><a xlink:title=" ">
<path fill="none" stroke="#63b8ff" d="M448.27,-164.98C437.27,-157 420.58,-144.88 407.4,-135.31"/>
<polygon fill="#63b8ff" stroke="#63b8ff" points="409.09,-132.21 398.94,-129.17 404.98,-137.88 409.09,-132.21"/>
</a>
</g>
</g>
<!-- Node12 -->
<g id="Node000012" class="node">
<title>Node12</title>
<g id="a_Node000012"><a xlink:href="ShellCommand_8hpp.html" target="_top" xlink:title=" ">
<polygon fill="white" stroke="#666666" points="596,-129 470,-129 470,-110 596,-110 596,-129"/>
<text text-anchor="middle" x="533" y="-117" font-family="Helvetica,sans-Serif" font-size="10.00">cli/ShellCommand.hpp</text>
</a>
</g>
</g>
<!-- Node1&#45;&gt;Node12 -->
<g id="edge20_Node000001_Node000012" class="edge">
<title>Node1&#45;&gt;Node12</title>
<g id="a_edge20_Node000001_Node000012"><a xlink:title=" ">
<path fill="none" stroke="#63b8ff" d="M471.73,-164.98C482.73,-157 499.42,-144.88 512.6,-135.31"/>
<polygon fill="#63b8ff" stroke="#63b8ff" points="515.02,-137.88 521.06,-129.17 510.91,-132.21 515.02,-137.88"/>
</a>
</g>
</g>
<!-- Node13 -->
<g id="Node000013" class="node">
<title>Node13</title>
<g id="a_Node000013"><a xlink:href="StressCommand_8hpp.html" target="_top" xlink:title=" ">
<polygon fill="white" stroke="#666666" points="746,-129 614,-129 614,-110 746,-110 746,-129"/>
<text text-anchor="middle" x="680" y="-117" font-family="Helvetica,sans-Serif" font-size="10.00">cli/StressCommand.hpp</text>
</a>
</g>
</g>
<!-- Node1&#45;&gt;Node13 -->
<g id="edge23_Node000001_Node000013" class="edge">
<title>Node1&#45;&gt;Node13</title>
<g id="a_edge23_Node000001_Node000013"><a xlink:title=" ">
<path fill="none" stroke="#63b8ff" d="M495.35,-164.98C533.16,-155.87 593.26,-141.4 634.57,-131.45"/>
<polygon fill="#63b8ff" stroke="#63b8ff" points="635.47,-134.83 644.38,-129.08 633.83,-128.02 635.47,-134.83"/>
</a>
</g>
</g>
<!-- Node4 -->
<g id="Node000004" class="node">
<title>Node4</title>
<g id="a_Node000004"><a xlink:title=" ">
<polygon fill="#e0e0e0" stroke="#999999" points="657,-19 613,-19 613,0 657,0 657,-19"/>
<text text-anchor="middle" x="635" y="-7" font-family="Helvetica,sans-Serif" font-size="10.00">string</text>
</a>
</g>
</g>
<!-- Node3&#45;&gt;Node4 -->
<g id="edge3_Node000003_Node000004" class="edge">
<title>Node3&#45;&gt;Node4</title>
<g id="a_edge3_Node000003_Node000004"><a xlink:title=" ">
<path fill="none" stroke="#63b8ff" d="M265.25,-109.92C303.61,-97.05 378.97,-72.41 444,-55 511.38,-36.96 531.56,-36.64 602.77,-19.21"/>
<polygon fill="#63b8ff" stroke="#63b8ff" points="603.82,-22.55 612.68,-16.75 602.13,-15.76 603.82,-22.55"/>
</a>
</g>
</g>
<!-- Node5 -->
<g id="Node000005" class="node">
<title>Node5</title>
<g id="a_Node000005"><a xlink:href="Command_8hpp.html" target="_top" xlink:title=" ">
<polygon fill="white" stroke="#666666" points="577,-74 489,-74 489,-55 577,-55 577,-74"/>
<text text-anchor="middle" x="533" y="-62" font-family="Helvetica,sans-Serif" font-size="10.00">Command.hpp</text>
</a>
</g>
</g>
<!-- Node3&#45;&gt;Node5 -->
<g id="edge4_Node000003_Node000005" class="edge">
<title>Node3&#45;&gt;Node5</title>
<g id="a_edge4_Node000003_Node000005"><a xlink:title=" ">
<path fill="none" stroke="#63b8ff" d="M287.08,-109.98C339.46,-100.51 423.97,-85.22 479,-75.27"/>
<polygon fill="#63b8ff" stroke="#63b8ff" points="479.7,-78.7 488.92,-73.47 478.45,-71.81 479.7,-78.7"/>
</a>
</g>
</g>
<!-- Node5&#45;&gt;Node4 -->
<g id="edge5_Node000005_Node000004" class="edge">
<title>Node5&#45;&gt;Node4</title>
<g id="a_edge5_Node000005_Node000004"><a xlink:title=" ">
<path fill="none" stroke="#63b8ff" d="M549.39,-54.98C565.57,-46.57 590.57,-33.59 609.38,-23.81"/>
<polygon fill="#63b8ff" stroke="#63b8ff" points="611.05,-26.89 618.31,-19.17 607.83,-20.68 611.05,-26.89"/>
</a>
</g>
</g>
<!-- Node6 -->
<g id="Node000006" class="node">
<title>Node6</title>
<g id="a_Node000006"><a xlink:title=" ">
<polygon fill="#e0e0e0" stroke="#999999" points="595,-19 445,-19 445,0 595,0 595,-19"/>
<text text-anchor="middle" x="520" y="-7" font-family="Helvetica,sans-Serif" font-size="10.00">boost/program_options.hpp</text>
</a>
</g>
</g>
<!-- Node5&#45;&gt;Node6 -->
<g id="edge6_Node000005_Node000006" class="edge">
<title>Node5&#45;&gt;Node6</title>
<g id="a_edge6_Node000005_Node000006"><a xlink:title=" ">
<path fill="none" stroke="#63b8ff" d="M530.85,-54.75C529.13,-47.72 526.65,-37.62 524.5,-28.84"/>
<polygon fill="#63b8ff" stroke="#63b8ff" points="527.89,-27.97 522.11,-19.09 521.09,-29.63 527.89,-27.97"/>
</a>
</g>
</g>
<!-- Node7&#45;&gt;Node2 -->
<g id="edge8_Node000007_Node000002" class="edge">
<title>Node7&#45;&gt;Node2</title>
<g id="a_edge8_Node000007_Node000002"><a xlink:title=" ">
<path fill="none" stroke="#63b8ff" d="M92.79,-109.98C81.22,-101.92 63.62,-89.65 49.84,-80.03"/>
<polygon fill="#63b8ff" stroke="#63b8ff" points="51.64,-77.02 41.43,-74.17 47.63,-82.76 51.64,-77.02"/>
</a>
</g>
</g>
<!-- Node7&#45;&gt;Node5 -->
<g id="edge10_Node000007_Node000005" class="edge">
<title>Node7&#45;&gt;Node5</title>
<g id="a_edge10_Node000007_Node000005"><a xlink:title=" ">
<path fill="none" stroke="#63b8ff" d="M158.76,-111.08C161.55,-110.71 164.31,-110.35 167,-110 277.57,-95.7 407.12,-80.26 478.63,-71.85"/>
<polygon fill="#63b8ff" stroke="#63b8ff" points="479.22,-75.3 488.75,-70.66 478.41,-68.35 479.22,-75.3"/>
</a>
</g>
</g>
<!-- Node8 -->
<g id="Node000008" class="node">
<title>Node8</title>
<g id="a_Node000008"><a xlink:title=" ">
<polygon fill="#e0e0e0" stroke="#999999" points="128.5,-74 81.5,-74 81.5,-55 128.5,-55 128.5,-74"/>
<text text-anchor="middle" x="105" y="-62" font-family="Helvetica,sans-Serif" font-size="10.00">vector</text>
</a>
</g>
</g>
<!-- Node7&#45;&gt;Node8 -->
<g id="edge9_Node000007_Node000008" class="edge">
<title>Node7&#45;&gt;Node8</title>
<g id="a_edge9_Node000007_Node000008"><a xlink:title=" ">
<path fill="none" stroke="#63b8ff" d="M105,-109.75C105,-102.8 105,-92.85 105,-84.13"/>
<polygon fill="#63b8ff" stroke="#63b8ff" points="108.5,-84.09 105,-74.09 101.5,-84.09 108.5,-84.09"/>
</a>
</g>
</g>
<!-- Node9&#45;&gt;Node4 -->
<g id="edge12_Node000009_Node000004" class="edge">
<title>Node9&#45;&gt;Node4</title>
<g id="a_edge12_Node000009_Node000004"><a xlink:title=" ">
<path fill="none" stroke="#63b8ff" d="M813.45,-109.84C779.74,-91.08 699.7,-46.52 659.27,-24.01"/>
<polygon fill="#63b8ff" stroke="#63b8ff" points="660.79,-20.85 650.35,-19.05 657.39,-26.97 660.79,-20.85"/>
</a>
</g>
</g>
<!-- Node9&#45;&gt;Node5 -->
<g id="edge13_Node000009_Node000005" class="edge">
<title>Node9&#45;&gt;Node5</title>
<g id="a_edge13_Node000009_Node000005"><a xlink:title=" ">
<path fill="none" stroke="#63b8ff" d="M781.44,-109.98C728.37,-100.48 642.65,-85.13 587.07,-75.18"/>
<polygon fill="#63b8ff" stroke="#63b8ff" points="587.52,-71.71 577.06,-73.39 586.28,-78.6 587.52,-71.71"/>
</a>
</g>
</g>
<!-- Node10&#45;&gt;Node4 -->
<g id="edge15_Node000010_Node000004" class="edge">
<title>Node10&#45;&gt;Node4</title>
<g id="a_edge15_Node000010_Node000004"><a xlink:title=" ">
<path fill="none" stroke="#63b8ff" d="M951.72,-109.94C888.84,-90.19 733.99,-41.58 666.87,-20.51"/>
<polygon fill="#63b8ff" stroke="#63b8ff" points="667.85,-17.14 657.26,-17.49 665.75,-23.82 667.85,-17.14"/>
</a>
</g>
</g>
<!-- Node10&#45;&gt;Node5 -->
<g id="edge16_Node000010_Node000005" class="edge">
<title>Node10&#45;&gt;Node5</title>
<g id="a_edge16_Node000010_Node000005"><a xlink:title=" ">
<path fill="none" stroke="#63b8ff" d="M912.23,-110.57C823.67,-100.04 669.07,-81.67 587.29,-71.95"/>
<polygon fill="#63b8ff" stroke="#63b8ff" points="587.55,-68.46 577.21,-70.75 586.73,-75.41 587.55,-68.46"/>
</a>
</g>
</g>
<!-- Node11&#45;&gt;Node4 -->
<g id="edge18_Node000011_Node000004" class="edge">
<title>Node11&#45;&gt;Node4</title>
<g id="a_edge18_Node000011_Node000004"><a xlink:title=" ">
<path fill="none" stroke="#63b8ff" d="M397.21,-109.89C413.64,-96.41 447.44,-70.3 480,-55 485.67,-52.33 559.31,-31.61 603.01,-19.4"/>
<polygon fill="#63b8ff" stroke="#63b8ff" points="604.2,-22.71 612.89,-16.65 602.32,-15.96 604.2,-22.71"/>
</a>
</g>
</g>
<!-- Node11&#45;&gt;Node5 -->
<g id="edge19_Node000011_Node000005" class="edge">
<title>Node11&#45;&gt;Node5</title>
<g id="a_edge19_Node000011_Node000005"><a xlink:title=" ">
<path fill="none" stroke="#63b8ff" d="M410.46,-109.98C434.58,-101.23 472.37,-87.51 499.6,-77.62"/>
<polygon fill="#63b8ff" stroke="#63b8ff" points="500.91,-80.87 509.12,-74.17 498.52,-74.29 500.91,-80.87"/>
</a>
</g>
</g>
<!-- Node12&#45;&gt;Node4 -->
<g id="edge21_Node000012_Node000004" class="edge">
<title>Node12&#45;&gt;Node4</title>
<g id="a_edge21_Node000012_Node000004"><a xlink:title=" ">
<path fill="none" stroke="#63b8ff" d="M544.58,-109.95C555.75,-101.44 572.86,-87.7 586,-74 600.1,-59.31 614.08,-40.68 623.48,-27.4"/>
<polygon fill="#63b8ff" stroke="#63b8ff" points="626.36,-29.39 629.2,-19.18 620.61,-25.39 626.36,-29.39"/>
</a>
</g>
</g>
<!-- Node12&#45;&gt;Node5 -->
<g id="edge22_Node000012_Node000005" class="edge">
<title>Node12&#45;&gt;Node5</title>
<g id="a_edge22_Node000012_Node000005"><a xlink:title=" ">
<path fill="none" stroke="#63b8ff" d="M533,-109.75C533,-102.8 533,-92.85 533,-84.13"/>
<polygon fill="#63b8ff" stroke="#63b8ff" points="536.5,-84.09 533,-74.09 529.5,-84.09 536.5,-84.09"/>
</a>
</g>
</g>
<!-- Node13&#45;&gt;Node4 -->
<g id="edge24_Node000013_Node000004" class="edge">
<title>Node13&#45;&gt;Node4</title>
<g id="a_edge24_Node000013_Node000004"><a xlink:title=" ">
<path fill="none" stroke="#63b8ff" d="M676.32,-109.66C668.96,-92.01 652.33,-52.09 642.56,-28.64"/>
<polygon fill="#63b8ff" stroke="#63b8ff" points="645.68,-27.04 638.61,-19.16 639.22,-29.74 645.68,-27.04"/>
</a>
</g>
</g>
<!-- Node13&#45;&gt;Node5 -->
<g id="edge25_Node000013_Node000005" class="edge">
<title>Node13&#45;&gt;Node5</title>
<g id="a_edge25_Node000013_Node000005"><a xlink:title=" ">
<path fill="none" stroke="#63b8ff" d="M656.38,-109.98C632.1,-101.23 594.05,-87.51 566.63,-77.62"/>
<polygon fill="#63b8ff" stroke="#63b8ff" points="567.64,-74.27 557.05,-74.17 565.27,-80.85 567.64,-74.27"/>
</a>
</g>
</g>
</g>
</svg>
