<?xml version="1.0" encoding="UTF-8" standalone="no"?>
<!DOCTYPE svg PUBLIC "-//W3C//DTD SVG 1.1//EN"
 "http://www.w3.org/Graphics/SVG/1.1/DTD/svg11.dtd">
<!-- Generated by graphviz version 2.43.0 (0)
 -->
<!-- Title: cli/Commands.cpp Pages: 1 -->
<svg width="523pt" height="192pt"
 viewBox="0.00 0.00 523.30 192.00" xmlns="http://www.w3.org/2000/svg" xmlns:xlink="http://www.w3.org/1999/xlink">
<g id="graph0" class="graph" transform="scale(1 1) rotate(0) translate(4 188)">
<title>cli/Commands.cpp</title>
<!-- Node1 -->
<g id="Node000001" class="node">
<title>Node1</title>
<g id="a_Node000001"><a xlink:title=" ">
<polygon fill="#999999" stroke="#666666" points="369.5,-184 262.5,-184 262.5,-165 369.5,-165 369.5,-184"/>
<text text-anchor="middle" x="316" y="-172" font-family="Helvetica,sans-Serif" font-size="10.00">cli/Commands.cpp</text>
</a>
</g>
</g>
<!-- Node2 -->
<g id="Node000002" class="node">
<title>Node2</title>
<g id="a_Node000002"><a xlink:href="Commands_8hpp.html" target="_top" xlink:title=" ">
<polygon fill="white" stroke="#666666" points="194.5,-129 87.5,-129 87.5,-110 194.5,-110 194.5,-129"/>
<text text-anchor="middle" x="141" y="-117" font-family="Helvetica,sans-Serif" font-size="10.00">cli/Commands.hpp</text>
</a>
</g>
</g>
<!-- Node1&#45;&gt;Node2 -->
<g id="edge1_Node000001_Node000002" class="edge">
<title>Node1&#45;&gt;Node2</title>
<g id="a_edge1_Node000001_Node000002"><a xlink:title=" ">
<path fill="none" stroke="#63b8ff" d="M287.88,-164.98C258.38,-156.05 211.81,-141.94 179.03,-132.02"/>
<polygon fill="#63b8ff" stroke="#63b8ff" points="179.92,-128.63 169.34,-129.08 177.89,-135.33 179.92,-128.63"/>
</a>
</g>
</g>
<!-- Node6 -->
<g id="Node000006" class="node">
<title>Node6</title>
<g id="a_Node000006"><a xlink:title=" ">
<polygon fill="#e0e0e0" stroke="#999999" points="297,-19 253,-19 253,0 297,0 297,-19"/>
<text text-anchor="middle" x="275" y="-7" font-family="Helvetica,sans-Serif" font-size="10.00">string</text>
</a>
</g>
</g>
<!-- Node1&#45;&gt;Node6 -->
<g id="edge9_Node000001_Node000006" class="edge">
<title>Node1&#45;&gt;Node6</title>
<g id="a_edge9_Node000001_Node000006"><a xlink:title=" ">
<path fill="none" stroke="#63b8ff" d="M369.59,-167.33C401.21,-161.54 440.65,-150.4 470,-129 499.71,-107.34 530.42,-83.34 507,-55 482.04,-24.79 365.06,-14.89 307.35,-11.81"/>
<polygon fill="#63b8ff" stroke="#63b8ff" points="307.47,-8.31 297.3,-11.31 307.12,-15.3 307.47,-8.31"/>
</a>
</g>
</g>
<!-- Node7 -->
<g id="Node000007" class="node">
<title>Node7</title>
<g id="a_Node000007"><a xlink:title=" ">
<polygon fill="#e0e0e0" stroke="#999999" points="150,-19 0,-19 0,0 150,0 150,-19"/>
<text text-anchor="middle" x="75" y="-7" font-family="Helvetica,sans-Serif" font-size="10.00">boost/program_options.hpp</text>
</a>
</g>
</g>
<!-- Node1&#45;&gt;Node7 -->
<g id="edge10_Node000001_Node000007" class="edge">
<title>Node1&#45;&gt;Node7</title>
<g id="a_edge10_Node000001_Node000007"><a xlink:title=" ">
<path fill="none" stroke="#63b8ff" d="M262.29,-170.78C212.56,-166.6 137.54,-155.98 78,-129 36.76,-110.32 -13.4,-94.9 8,-55 15.51,-41 29.57,-30.66 42.88,-23.48"/>
<polygon fill="#63b8ff" stroke="#63b8ff" points="44.48,-26.6 51.89,-19.02 41.37,-20.33 44.48,-26.6"/>
</a>
</g>
</g>
<!-- Node8 -->
<g id="Node000008" class="node">
<title>Node8</title>
<g id="a_Node000008"><a xlink:title=" ">
<polygon fill="#e0e0e0" stroke="#999999" points="387,-129 327,-129 327,-110 387,-110 387,-129"/>
<text text-anchor="middle" x="357" y="-117" font-family="Helvetica,sans-Serif" font-size="10.00">iostream</text>
</a>
</g>
</g>
<!-- Node1&#45;&gt;Node8 -->
<g id="edge7_Node000001_Node000008" class="edge">
<title>Node1&#45;&gt;Node8</title>
<g id="a_edge7_Node000001_Node000008"><a xlink:title=" ">
<path fill="none" stroke="#63b8ff" d="M322.77,-164.75C328.56,-157.26 337.06,-146.28 344.14,-137.13"/>
<polygon fill="#63b8ff" stroke="#63b8ff" points="347.01,-139.14 350.36,-129.09 341.47,-134.86 347.01,-139.14"/>
</a>
</g>
</g>
<!-- Node9 -->
<g id="Node000009" class="node">
<title>Node9</title>
<g id="a_Node000009"><a xlink:title=" ">
<polygon fill="#e0e0e0" stroke="#999999" points="461,-129 405,-129 405,-110 461,-110 461,-129"/>
<text text-anchor="middle" x="433" y="-117" font-family="Helvetica,sans-Serif" font-size="10.00">sstream</text>
</a>
</g>
</g>
<!-- Node1&#45;&gt;Node9 -->
<g id="edge8_Node000001_Node000009" class="edge">
<title>Node1&#45;&gt;Node9</title>
<g id="a_edge8_Node000001_Node000009"><a xlink:title=" ">
<path fill="none" stroke="#63b8ff" d="M334.8,-164.98C353.62,-156.46 382.82,-143.23 404.5,-133.41"/>
<polygon fill="#63b8ff" stroke="#63b8ff" points="406.2,-136.48 413.86,-129.17 403.31,-130.11 406.2,-136.48"/>
</a>
</g>
</g>
<!-- Node10 -->
<g id="Node000010" class="node">
<title>Node10</title>
<g id="a_Node000010"><a xlink:href="util_8hpp.html" target="_top" xlink:title=" ">
<polygon fill="white" stroke="#666666" points="309,-129 241,-129 241,-110 309,-110 309,-129"/>
<text text-anchor="middle" x="275" y="-117" font-family="Helvetica,sans-Serif" font-size="10.00">cli/util.hpp</text>
</a>
</g>
</g>
<!-- Node1&#45;&gt;Node10 -->
<g id="edge11_Node000001_Node000010" class="edge">
<title>Node1&#45;&gt;Node10</title>
<g id="a_edge11_Node000001_Node000010"><a xlink:title=" ">
<path fill="none" stroke="#63b8ff" d="M309.23,-164.75C303.44,-157.26 294.94,-146.28 287.86,-137.13"/>
<polygon fill="#63b8ff" stroke="#63b8ff" points="290.53,-134.86 281.64,-129.09 284.99,-139.14 290.53,-134.86"/>
</a>
</g>
</g>
<!-- Node3 -->
<g id="Node000003" class="node">
<title>Node3</title>
<g id="a_Node000003"><a xlink:title=" ">
<polygon fill="#e0e0e0" stroke="#999999" points="141,-74 83,-74 83,-55 141,-55 141,-74"/>
<text text-anchor="middle" x="112" y="-62" font-family="Helvetica,sans-Serif" font-size="10.00">memory</text>
</a>
</g>
</g>
<!-- Node2&#45;&gt;Node3 -->
<g id="edge2_Node000002_Node000003" class="edge">
<title>Node2&#45;&gt;Node3</title>
<g id="a_edge2_Node000002_Node000003"><a xlink:title=" ">
<path fill="none" stroke="#63b8ff" d="M136.21,-109.75C132.24,-102.49 126.47,-91.95 121.57,-82.98"/>
<polygon fill="#63b8ff" stroke="#63b8ff" points="124.57,-81.18 116.7,-74.09 118.43,-84.54 124.57,-81.18"/>
</a>
</g>
</g>
<!-- Node4 -->
<g id="Node000004" class="node">
<title>Node4</title>
<g id="a_Node000004"><a xlink:title=" ">
<polygon fill="#e0e0e0" stroke="#999999" points="64.5,-74 17.5,-74 17.5,-55 64.5,-55 64.5,-74"/>
<text text-anchor="middle" x="41" y="-62" font-family="Helvetica,sans-Serif" font-size="10.00">vector</text>
</a>
</g>
</g>
<!-- Node2&#45;&gt;Node4 -->
<g id="edge3_Node000002_Node000004" class="edge">
<title>Node2&#45;&gt;Node4</title>
<g id="a_edge3_Node000002_Node000004"><a xlink:title=" ">
<path fill="none" stroke="#63b8ff" d="M124.93,-109.98C109.14,-101.61 84.78,-88.7 66.37,-78.95"/>
<polygon fill="#63b8ff" stroke="#63b8ff" points="67.83,-75.76 57.36,-74.17 64.56,-81.95 67.83,-75.76"/>
</a>
</g>
</g>
<!-- Node5 -->
<g id="Node000005" class="node">
<title>Node5</title>
<g id="a_Node000005"><a xlink:href="Command_8hpp.html" target="_top" xlink:title=" ">
<polygon fill="white" stroke="#666666" points="247,-74 159,-74 159,-55 247,-55 247,-74"/>
<text text-anchor="middle" x="203" y="-62" font-family="Helvetica,sans-Serif" font-size="10.00">Command.hpp</text>
</a>
</g>
</g>
<!-- Node2&#45;&gt;Node5 -->
<g id="edge4_Node000002_Node000005" class="edge">
<title>Node2&#45;&gt;Node5</title>
<g id="a_edge4_Node000002_Node000005"><a xlink:title=" ">
<path fill="none" stroke="#63b8ff" d="M150.96,-109.98C160.13,-102.15 173.94,-90.34 185.03,-80.86"/>
<polygon fill="#63b8ff" stroke="#63b8ff" points="187.53,-83.33 192.86,-74.17 182.98,-78.01 187.53,-83.33"/>
</a>
</g>
</g>
<!-- Node5&#45;&gt;Node6 -->
<g id="edge5_Node000005_Node000006" class="edge">
<title>Node5&#45;&gt;Node6</title>
<g id="a_edge5_Node000005_Node000006"><a xlink:title=" ">
<path fill="none" stroke="#63b8ff" d="M214.57,-54.98C225.42,-47 241.88,-34.88 254.88,-25.31"/>
<polygon fill="#63b8ff" stroke="#63b8ff" points="257.24,-27.92 263.22,-19.17 253.09,-22.28 257.24,-27.92"/>
</a>
</g>
</g>
<!-- Node5&#45;&gt;Node7 -->
<g id="edge6_Node000005_Node000007" class="edge">
<title>Node5&#45;&gt;Node7</title>
<g id="a_edge6_Node000005_Node000007"><a xlink:title=" ">
<path fill="none" stroke="#63b8ff" d="M182.43,-54.98C161.57,-46.34 129.03,-32.87 105.23,-23.02"/>
<polygon fill="#63b8ff" stroke="#63b8ff" points="106.52,-19.76 95.94,-19.17 103.84,-26.23 106.52,-19.76"/>
</a>
</g>
</g>
<!-- Node10&#45;&gt;Node6 -->
<g id="edge13_Node000010_Node000006" class="edge">
<title>Node10&#45;&gt;Node6</title>
<g id="a_edge13_Node000010_Node000006"><a xlink:title=" ">
<path fill="none" stroke="#63b8ff" d="M275,-109.66C275,-92.17 275,-52.8 275,-29.27"/>
<polygon fill="#63b8ff" stroke="#63b8ff" points="278.5,-29.16 275,-19.16 271.5,-29.16 278.5,-29.16"/>
</a>
</g>
</g>
<!-- Node11 -->
<g id="Node000011" class="node">
<title>Node11</title>
<g id="a_Node000011"><a xlink:title=" ">
<polygon fill="#e0e0e0" stroke="#999999" points="497.5,-74 302.5,-74 302.5,-55 497.5,-55 497.5,-74"/>
<text text-anchor="middle" x="400" y="-62" font-family="Helvetica,sans-Serif" font-size="10.00">netspeak/NetspeakService.grpc.pb.h</text>
</a>
</g>
</g>
<!-- Node10&#45;&gt;Node11 -->
<g id="edge12_Node000010_Node000011" class="edge">
<title>Node10&#45;&gt;Node11</title>
<g id="a_edge12_Node000010_Node000011"><a xlink:title=" ">
<path fill="none" stroke="#63b8ff" d="M295.08,-109.98C315.37,-101.38 346.96,-87.99 370.17,-78.15"/>
<polygon fill="#63b8ff" stroke="#63b8ff" points="371.71,-81.3 379.55,-74.17 368.98,-74.85 371.71,-81.3"/>
</a>
</g>
</g>
</g>
</svg>
