<?xml version="1.0" encoding="UTF-8" standalone="no"?>
<!DOCTYPE svg PUBLIC "-//W3C//DTD SVG 1.1//EN"
 "http://www.w3.org/Graphics/SVG/1.1/DTD/svg11.dtd">
<!-- Generated by graphviz version 2.43.0 (0)
 -->
<!-- Title: netspeak/util/Config.hpp Pages: 1 -->
<svg width="1090pt" height="379pt"
 viewBox="0.00 0.00 1090.08 379.00" xmlns="http://www.w3.org/2000/svg" xmlns:xlink="http://www.w3.org/1999/xlink">
<g id="graph0" class="graph" transform="scale(1 1) rotate(0) translate(4 375)">
<title>netspeak/util/Config.hpp</title>
<!-- Node1 -->
<g id="Node000001" class="node">
<title>Node1</title>
<g id="a_Node000001"><a xlink:title=" ">
<polygon fill="#999999" stroke="#666666" points="641.08,-371 506.08,-371 506.08,-352 641.08,-352 641.08,-371"/>
<text text-anchor="middle" x="573.58" y="-359" font-family="Helvetica,sans-Serif" font-size="10.00">netspeak/util/Config.hpp</text>
</a>
</g>
</g>
<!-- Node2 -->
<g id="Node000002" class="node">
<title>Node2</title>
<g id="a_Node000002"><a xlink:href="Configuration_8hpp.html" target="_top" xlink:title=" ">
<polygon fill="white" stroke="#666666" points="455.08,-316 304.08,-316 304.08,-297 455.08,-297 455.08,-316"/>
<text text-anchor="middle" x="379.58" y="-304" font-family="Helvetica,sans-Serif" font-size="10.00">netspeak/Configuration.hpp</text>
</a>
</g>
</g>
<!-- Node1&#45;&gt;Node2 -->
<g id="edge1_Node000001_Node000002" class="edge">
<title>Node1&#45;&gt;Node2</title>
<g id="a_edge1_Node000001_Node000002"><a xlink:title=" ">
<path fill="none" stroke="#63b8ff" d="M532.62,-349.31C496.32,-339.39 444.08,-325.12 410.99,-316.08"/>
<polygon fill="#63b8ff" stroke="#63b8ff" points="531.84,-352.73 542.41,-351.98 533.69,-345.97 531.84,-352.73"/>
</a>
</g>
</g>
<!-- Node20 -->
<g id="Node000020" class="node">
<title>Node20</title>
<g id="a_Node000020"><a xlink:href="Properties_8hpp.html" target="_top" xlink:title=" ">
<polygon fill="white" stroke="#666666" points="641.08,-316 506.08,-316 506.08,-297 641.08,-297 641.08,-316"/>
<text text-anchor="middle" x="573.58" y="-304" font-family="Helvetica,sans-Serif" font-size="10.00">netspeak/Properties.hpp</text>
</a>
</g>
</g>
<!-- Node1&#45;&gt;Node20 -->
<g id="edge26_Node000001_Node000020" class="edge">
<title>Node1&#45;&gt;Node20</title>
<g id="a_edge26_Node000001_Node000020"><a xlink:title=" ">
<path fill="none" stroke="#63b8ff" d="M573.58,-341.66C573.58,-332.93 573.58,-322.99 573.58,-316.09"/>
<polygon fill="#63b8ff" stroke="#63b8ff" points="570.08,-341.75 573.58,-351.75 577.08,-341.75 570.08,-341.75"/>
</a>
</g>
</g>
<!-- Node22 -->
<g id="Node000022" class="node">
<title>Node22</title>
<g id="a_Node000022"><a xlink:href="Config_8cpp.html" target="_top" xlink:title=" ">
<polygon fill="white" stroke="#666666" points="793.58,-316 659.58,-316 659.58,-297 793.58,-297 793.58,-316"/>
<text text-anchor="middle" x="726.58" y="-304" font-family="Helvetica,sans-Serif" font-size="10.00">netspeak/util/Config.cpp</text>
</a>
</g>
</g>
<!-- Node1&#45;&gt;Node22 -->
<g id="edge30_Node000001_Node000022" class="edge">
<title>Node1&#45;&gt;Node22</title>
<g id="a_edge30_Node000001_Node000022"><a xlink:title=" ">
<path fill="none" stroke="#63b8ff" d="M607.73,-348.67C636.26,-338.79 676.27,-324.93 701.8,-316.08"/>
<polygon fill="#63b8ff" stroke="#63b8ff" points="606.46,-345.4 598.16,-351.98 608.76,-352.02 606.46,-345.4"/>
</a>
</g>
</g>
<!-- Node3 -->
<g id="Node000003" class="node">
<title>Node3</title>
<g id="a_Node000003"><a xlink:href="ShellCommand_8cpp.html" target="_top" xlink:title=" ">
<polygon fill="white" stroke="#666666" points="385.08,-90.5 260.08,-90.5 260.08,-71.5 385.08,-71.5 385.08,-90.5"/>
<text text-anchor="middle" x="322.58" y="-78.5" font-family="Helvetica,sans-Serif" font-size="10.00">cli/ShellCommand.cpp</text>
</a>
</g>
</g>
<!-- Node2&#45;&gt;Node3 -->
<g id="edge2_Node000002_Node000003" class="edge">
<title>Node2&#45;&gt;Node3</title>
<g id="a_edge2_Node000002_Node000003"><a xlink:title=" ">
<path fill="none" stroke="#63b8ff" d="M374.85,-286.96C363.18,-241.2 333.34,-124.21 324.86,-90.94"/>
<polygon fill="#63b8ff" stroke="#63b8ff" points="371.48,-287.91 377.34,-296.74 378.26,-286.18 371.48,-287.91"/>
</a>
</g>
</g>
<!-- Node4 -->
<g id="Node000004" class="node">
<title>Node4</title>
<g id="a_Node000004"><a xlink:href="Configuration_8cpp.html" target="_top" xlink:title=" ">
<polygon fill="white" stroke="#666666" points="172.58,-261 22.58,-261 22.58,-242 172.58,-242 172.58,-261"/>
<text text-anchor="middle" x="97.58" y="-249" font-family="Helvetica,sans-Serif" font-size="10.00">netspeak/Configuration.cpp</text>
</a>
</g>
</g>
<!-- Node2&#45;&gt;Node4 -->
<g id="edge3_Node000002_Node000004" class="edge">
<title>Node2&#45;&gt;Node4</title>
<g id="a_edge3_Node000002_Node000004"><a xlink:title=" ">
<path fill="none" stroke="#63b8ff" d="M324.39,-295.13C271.52,-285.19 192.68,-270.37 143.24,-261.08"/>
<polygon fill="#63b8ff" stroke="#63b8ff" points="323.8,-298.58 334.27,-296.98 325.09,-291.7 323.8,-298.58"/>
</a>
</g>
</g>
<!-- Node5 -->
<g id="Node000005" class="node">
<title>Node5</title>
<g id="a_Node000005"><a xlink:href="Netspeak_8hpp.html" target="_top" xlink:title=" ">
<polygon fill="white" stroke="#666666" points="730.58,-151 598.58,-151 598.58,-132 730.58,-132 730.58,-151"/>
<text text-anchor="middle" x="664.58" y="-139" font-family="Helvetica,sans-Serif" font-size="10.00">netspeak/Netspeak.hpp</text>
</a>
</g>
</g>
<!-- Node2&#45;&gt;Node5 -->
<g id="edge4_Node000002_Node000005" class="edge">
<title>Node2&#45;&gt;Node5</title>
<g id="a_edge4_Node000002_Node000005"><a xlink:title=" ">
<path fill="none" stroke="#63b8ff" d="M377.45,-286.7C375.62,-260.44 376.67,-213.09 403.58,-187 430.68,-160.72 530.45,-149.85 598.48,-145.43"/>
<polygon fill="#63b8ff" stroke="#63b8ff" points="373.98,-287.19 378.38,-296.83 380.95,-286.55 373.98,-287.19"/>
</a>
</g>
</g>
<!-- Node9 -->
<g id="Node000009" class="node">
<title>Node9</title>
<g id="a_Node000009"><a xlink:href="indexing_8cpp.html" target="_top" xlink:title=" ">
<polygon fill="white" stroke="#666666" points="227.08,-90.5 100.08,-90.5 100.08,-71.5 227.08,-71.5 227.08,-90.5"/>
<text text-anchor="middle" x="163.58" y="-78.5" font-family="Helvetica,sans-Serif" font-size="10.00">netspeak/indexing.cpp</text>
</a>
</g>
</g>
<!-- Node2&#45;&gt;Node9 -->
<g id="edge22_Node000002_Node000009" class="edge">
<title>Node2&#45;&gt;Node9</title>
<g id="a_edge22_Node000002_Node000009"><a xlink:title=" ">
<path fill="none" stroke="#63b8ff" d="M294.02,-300.98C191.71,-294.69 31.88,-281.66 13.58,-261 -43.28,-196.81 96.2,-116.51 146.4,-90.53"/>
<polygon fill="#63b8ff" stroke="#63b8ff" points="293.85,-304.48 304.04,-301.59 294.27,-297.49 293.85,-304.48"/>
</a>
</g>
</g>
<!-- Node15 -->
<g id="Node000015" class="node">
<title>Node15</title>
<g id="a_Node000015"><a xlink:href="QueryProcessor_8hpp.html" target="_top" xlink:title=" ">
<polygon fill="white" stroke="#666666" points="574.08,-206 413.08,-206 413.08,-187 574.08,-187 574.08,-206"/>
<text text-anchor="middle" x="493.58" y="-194" font-family="Helvetica,sans-Serif" font-size="10.00">netspeak/QueryProcessor.hpp</text>
</a>
</g>
</g>
<!-- Node2&#45;&gt;Node15 -->
<g id="edge16_Node000002_Node000015" class="edge">
<title>Node2&#45;&gt;Node15</title>
<g id="a_edge16_Node000002_Node000015"><a xlink:title=" ">
<path fill="none" stroke="#63b8ff" d="M396.36,-289.61C420.78,-266.47 465.3,-224.29 484.44,-206.16"/>
<polygon fill="#63b8ff" stroke="#63b8ff" points="393.76,-287.24 388.91,-296.66 398.58,-292.33 393.76,-287.24"/>
</a>
</g>
</g>
<!-- Node16 -->
<g id="Node000016" class="node">
<title>Node16</title>
<g id="a_Node000016"><a xlink:href="RetrievalStrategy_8hpp.html" target="_top" xlink:title=" ">
<polygon fill="white" stroke="#666666" points="649.58,-261 479.58,-261 479.58,-242 649.58,-242 649.58,-261"/>
<text text-anchor="middle" x="564.58" y="-249" font-family="Helvetica,sans-Serif" font-size="10.00">netspeak/RetrievalStrategy.hpp</text>
</a>
</g>
</g>
<!-- Node2&#45;&gt;Node16 -->
<g id="edge18_Node000002_Node000016" class="edge">
<title>Node2&#45;&gt;Node16</title>
<g id="a_edge18_Node000002_Node000016"><a xlink:title=" ">
<path fill="none" stroke="#63b8ff" d="M419.08,-294.18C453.68,-284.27 503.2,-270.08 534.62,-261.08"/>
<polygon fill="#63b8ff" stroke="#63b8ff" points="417.95,-290.87 409.3,-296.98 419.88,-297.6 417.95,-290.87"/>
</a>
</g>
</g>
<!-- Node18 -->
<g id="Node000018" class="node">
<title>Node18</title>
<g id="a_Node000018"><a xlink:href="indexing_8hpp.html" target="_top" xlink:title=" ">
<polygon fill="white" stroke="#666666" points="318.58,-261 190.58,-261 190.58,-242 318.58,-242 318.58,-261"/>
<text text-anchor="middle" x="254.58" y="-249" font-family="Helvetica,sans-Serif" font-size="10.00">netspeak/indexing.hpp</text>
</a>
</g>
</g>
<!-- Node2&#45;&gt;Node18 -->
<g id="edge23_Node000002_Node000018" class="edge">
<title>Node2&#45;&gt;Node18</title>
<g id="a_edge23_Node000002_Node000018"><a xlink:title=" ">
<path fill="none" stroke="#63b8ff" d="M350.17,-293.03C327.05,-283.23 295.45,-269.83 275.03,-261.17"/>
<polygon fill="#63b8ff" stroke="#63b8ff" points="348.92,-296.3 359.5,-296.98 351.66,-289.86 348.92,-296.3"/>
</a>
</g>
</g>
<!-- Node5&#45;&gt;Node3 -->
<g id="edge7_Node000005_Node000003" class="edge">
<title>Node5&#45;&gt;Node3</title>
<g id="a_edge7_Node000005_Node000003"><a xlink:title=" ">
<path fill="none" stroke="#63b8ff" d="M599.52,-130.41C544.56,-121.75 463.81,-108.69 393.58,-96 384.18,-94.3 374.11,-92.38 364.59,-90.51"/>
<polygon fill="#63b8ff" stroke="#63b8ff" points="599.05,-133.88 609.47,-131.98 600.14,-126.97 599.05,-133.88"/>
</a>
</g>
</g>
<!-- Node6 -->
<g id="Node000006" class="node">
<title>Node6</title>
<g id="a_Node000006"><a xlink:href="ProxyCommand_8cpp.html" target="_top" xlink:title=" ">
<polygon fill="white" stroke="#666666" points="729.08,-90.5 600.08,-90.5 600.08,-71.5 729.08,-71.5 729.08,-90.5"/>
<text text-anchor="middle" x="664.58" y="-78.5" font-family="Helvetica,sans-Serif" font-size="10.00">cli/ProxyCommand.cpp</text>
</a>
</g>
</g>
<!-- Node5&#45;&gt;Node6 -->
<g id="edge5_Node000005_Node000006" class="edge">
<title>Node5&#45;&gt;Node6</title>
<g id="a_edge5_Node000005_Node000006"><a xlink:title=" ">
<path fill="none" stroke="#63b8ff" d="M664.58,-121.66C664.58,-111.24 664.58,-98.8 664.58,-90.67"/>
<polygon fill="#63b8ff" stroke="#63b8ff" points="661.08,-121.87 664.58,-131.87 668.08,-121.87 661.08,-121.87"/>
</a>
</g>
</g>
<!-- Node7 -->
<g id="Node000007" class="node">
<title>Node7</title>
<g id="a_Node000007"><a xlink:href="ServeCommand_8cpp.html" target="_top" xlink:title=" ">
<polygon fill="white" stroke="#666666" points="789.08,-24.5 660.08,-24.5 660.08,-5.5 789.08,-5.5 789.08,-24.5"/>
<text text-anchor="middle" x="724.58" y="-12.5" font-family="Helvetica,sans-Serif" font-size="10.00">cli/ServeCommand.cpp</text>
</a>
</g>
</g>
<!-- Node5&#45;&gt;Node7 -->
<g id="edge6_Node000005_Node000007" class="edge">
<title>Node5&#45;&gt;Node7</title>
<g id="a_edge6_Node000005_Node000007"><a xlink:title=" ">
<path fill="none" stroke="#63b8ff" d="M700.33,-127.78C714.57,-120.74 729.47,-110.44 737.58,-96 750.67,-72.69 737.17,-39.91 729.34,-24.56"/>
<polygon fill="#63b8ff" stroke="#63b8ff" points="698.81,-124.62 691.15,-131.94 701.7,-131 698.81,-124.62"/>
</a>
</g>
</g>
<!-- Node8 -->
<g id="Node000008" class="node">
<title>Node8</title>
<g id="a_Node000008"><a xlink:href="Netspeak_8cpp.html" target="_top" xlink:title=" ">
<polygon fill="white" stroke="#666666" points="917.08,-90.5 786.08,-90.5 786.08,-71.5 917.08,-71.5 917.08,-90.5"/>
<text text-anchor="middle" x="851.58" y="-78.5" font-family="Helvetica,sans-Serif" font-size="10.00">netspeak/Netspeak.cpp</text>
</a>
</g>
</g>
<!-- Node5&#45;&gt;Node8 -->
<g id="edge8_Node000005_Node000008" class="edge">
<title>Node5&#45;&gt;Node8</title>
<g id="a_edge8_Node000005_Node000008"><a xlink:title=" ">
<path fill="none" stroke="#63b8ff" d="M701.46,-128.96C737.63,-117.65 791.93,-100.66 824.36,-90.52"/>
<polygon fill="#63b8ff" stroke="#63b8ff" points="700.27,-125.67 691.77,-131.99 702.36,-132.35 700.27,-125.67"/>
</a>
</g>
</g>
<!-- Node5&#45;&gt;Node9 -->
<g id="edge9_Node000005_Node000009" class="edge">
<title>Node5&#45;&gt;Node9</title>
<g id="a_edge9_Node000005_Node000009"><a xlink:title=" ">
<path fill="none" stroke="#63b8ff" d="M588.36,-133.52C505.2,-125.61 368.19,-111.77 250.58,-96 238.6,-94.39 225.73,-92.45 213.66,-90.52"/>
<polygon fill="#63b8ff" stroke="#63b8ff" points="588.2,-137.02 598.48,-134.47 588.86,-130.05 588.2,-137.02"/>
</a>
</g>
</g>
<!-- Node10 -->
<g id="Node000010" class="node">
<title>Node10</title>
<g id="a_Node000010"><a xlink:href="RequestLogger_8hpp.html" target="_top" xlink:title=" ">
<polygon fill="white" stroke="#666666" points="1078.08,-96 935.08,-96 935.08,-66 1078.08,-66 1078.08,-96"/>
<text text-anchor="start" x="943.08" y="-84" font-family="Helvetica,sans-Serif" font-size="10.00">netspeak/service/Request</text>
<text text-anchor="middle" x="1006.58" y="-73" font-family="Helvetica,sans-Serif" font-size="10.00">Logger.hpp</text>
</a>
</g>
</g>
<!-- Node5&#45;&gt;Node10 -->
<g id="edge10_Node000005_Node000010" class="edge">
<title>Node5&#45;&gt;Node10</title>
<g id="a_edge10_Node000005_Node000010"><a xlink:title=" ">
<path fill="none" stroke="#63b8ff" d="M725,-130.24C777.91,-121.24 856.84,-107.8 925.58,-96 928.67,-95.47 931.83,-94.93 935.03,-94.38"/>
<polygon fill="#63b8ff" stroke="#63b8ff" points="724.38,-126.79 715.11,-131.92 725.55,-133.69 724.38,-126.79"/>
</a>
</g>
</g>
<!-- Node13 -->
<g id="Node000013" class="node">
<title>Node13</title>
<g id="a_Node000013"><a xlink:href="UniqueMap_8hpp.html" target="_top" xlink:title=" ">
<polygon fill="white" stroke="#666666" points="582.08,-90.5 403.08,-90.5 403.08,-71.5 582.08,-71.5 582.08,-90.5"/>
<text text-anchor="middle" x="492.58" y="-78.5" font-family="Helvetica,sans-Serif" font-size="10.00">netspeak/service/UniqueMap.hpp</text>
</a>
</g>
</g>
<!-- Node5&#45;&gt;Node13 -->
<g id="edge13_Node000005_Node000013" class="edge">
<title>Node5&#45;&gt;Node13</title>
<g id="a_edge13_Node000005_Node000013"><a xlink:title=" ">
<path fill="none" stroke="#63b8ff" d="M629.8,-128.67C596.54,-117.36 547.19,-100.57 517.62,-90.52"/>
<polygon fill="#63b8ff" stroke="#63b8ff" points="628.97,-132.09 639.57,-131.99 631.23,-125.46 628.97,-132.09"/>
</a>
</g>
</g>
<!-- Node11 -->
<g id="Node000011" class="node">
<title>Node11</title>
<g id="a_Node000011"><a xlink:href="cli_2logging_8cpp.html" target="_top" xlink:title=" ">
<polygon fill="white" stroke="#666666" points="1082.08,-24.5 995.08,-24.5 995.08,-5.5 1082.08,-5.5 1082.08,-24.5"/>
<text text-anchor="middle" x="1038.58" y="-12.5" font-family="Helvetica,sans-Serif" font-size="10.00">cli/logging.cpp</text>
</a>
</g>
</g>
<!-- Node10&#45;&gt;Node11 -->
<g id="edge11_Node000010_Node000011" class="edge">
<title>Node10&#45;&gt;Node11</title>
<g id="a_edge11_Node000010_Node000011"><a xlink:title=" ">
<path fill="none" stroke="#63b8ff" d="M1018.27,-56.61C1023.8,-45.56 1030.07,-33.03 1034.16,-24.84"/>
<polygon fill="#63b8ff" stroke="#63b8ff" points="1015.02,-55.29 1013.68,-65.8 1021.28,-58.42 1015.02,-55.29"/>
</a>
</g>
</g>
<!-- Node12 -->
<g id="Node000012" class="node">
<title>Node12</title>
<g id="a_Node000012"><a xlink:href="RequestLogger_8cpp.html" target="_top" xlink:title=" ">
<polygon fill="white" stroke="#666666" points="977.08,-30 834.08,-30 834.08,0 977.08,0 977.08,-30"/>
<text text-anchor="start" x="842.08" y="-18" font-family="Helvetica,sans-Serif" font-size="10.00">netspeak/service/Request</text>
<text text-anchor="middle" x="905.58" y="-7" font-family="Helvetica,sans-Serif" font-size="10.00">Logger.cpp</text>
</a>
</g>
</g>
<!-- Node10&#45;&gt;Node12 -->
<g id="edge12_Node000010_Node000012" class="edge">
<title>Node10&#45;&gt;Node12</title>
<g id="a_edge12_Node000010_Node000012"><a xlink:title=" ">
<path fill="none" stroke="#63b8ff" d="M975.49,-60.3C960.12,-50.56 941.91,-39.02 927.93,-30.16"/>
<polygon fill="#63b8ff" stroke="#63b8ff" points="973.84,-63.4 984.16,-65.8 977.59,-57.49 973.84,-63.4"/>
</a>
</g>
</g>
<!-- Node13&#45;&gt;Node7 -->
<g id="edge14_Node000013_Node000007" class="edge">
<title>Node13&#45;&gt;Node7</title>
<g id="a_edge14_Node000013_Node000007"><a xlink:title=" ">
<path fill="none" stroke="#63b8ff" d="M533.75,-68.64C579.45,-56.03 652.2,-35.97 693.42,-24.6"/>
<polygon fill="#63b8ff" stroke="#63b8ff" points="532.58,-65.34 523.87,-71.37 534.44,-72.08 532.58,-65.34"/>
</a>
</g>
</g>
<!-- Node14 -->
<g id="Node000014" class="node">
<title>Node14</title>
<g id="a_Node000014"><a xlink:href="UniqueMap_8cpp.html" target="_top" xlink:title=" ">
<polygon fill="white" stroke="#666666" points="582.08,-24.5 403.08,-24.5 403.08,-5.5 582.08,-5.5 582.08,-24.5"/>
<text text-anchor="middle" x="492.58" y="-12.5" font-family="Helvetica,sans-Serif" font-size="10.00">netspeak/service/UniqueMap.cpp</text>
</a>
</g>
</g>
<!-- Node13&#45;&gt;Node14 -->
<g id="edge15_Node000013_Node000014" class="edge">
<title>Node13&#45;&gt;Node14</title>
<g id="a_edge15_Node000013_Node000014"><a xlink:title=" ">
<path fill="none" stroke="#63b8ff" d="M492.58,-61.08C492.58,-49.13 492.58,-34.22 492.58,-24.91"/>
<polygon fill="#63b8ff" stroke="#63b8ff" points="489.08,-61.37 492.58,-71.37 496.08,-61.37 489.08,-61.37"/>
</a>
</g>
</g>
<!-- Node15&#45;&gt;Node5 -->
<g id="edge17_Node000015_Node000005" class="edge">
<title>Node15&#45;&gt;Node5</title>
<g id="a_edge17_Node000015_Node000005"><a xlink:title=" ">
<path fill="none" stroke="#63b8ff" d="M530.92,-183.93C562.86,-174.03 608.1,-160.01 636.89,-151.08"/>
<polygon fill="#63b8ff" stroke="#63b8ff" points="529.57,-180.68 521.05,-186.98 531.64,-187.37 529.57,-180.68"/>
</a>
</g>
</g>
<!-- Node16&#45;&gt;Node15 -->
<g id="edge19_Node000016_Node000015" class="edge">
<title>Node16&#45;&gt;Node15</title>
<g id="a_edge19_Node000016_Node000015"><a xlink:title=" ">
<path fill="none" stroke="#63b8ff" d="M544.99,-235.88C532.21,-226.34 515.97,-214.21 505.19,-206.17"/>
<polygon fill="#63b8ff" stroke="#63b8ff" points="543.06,-238.81 553.17,-241.98 547.25,-233.2 543.06,-238.81"/>
</a>
</g>
</g>
<!-- Node17 -->
<g id="Node000017" class="node">
<title>Node17</title>
<g id="a_Node000017"><a xlink:href="RetrievalStrategy3_8hpp.html" target="_top" xlink:title=" ">
<polygon fill="white" stroke="#666666" points="769.08,-206 592.08,-206 592.08,-187 769.08,-187 769.08,-206"/>
<text text-anchor="middle" x="680.58" y="-194" font-family="Helvetica,sans-Serif" font-size="10.00">netspeak/RetrievalStrategy3.hpp</text>
</a>
</g>
</g>
<!-- Node16&#45;&gt;Node17 -->
<g id="edge20_Node000016_Node000017" class="edge">
<title>Node16&#45;&gt;Node17</title>
<g id="a_edge20_Node000016_Node000017"><a xlink:title=" ">
<path fill="none" stroke="#63b8ff" d="M592.45,-237.77C613.85,-227.99 642.82,-214.75 661.6,-206.17"/>
<polygon fill="#63b8ff" stroke="#63b8ff" points="590.86,-234.65 583.22,-241.98 593.77,-241.01 590.86,-234.65"/>
</a>
</g>
</g>
<!-- Node17&#45;&gt;Node5 -->
<g id="edge21_Node000017_Node000005" class="edge">
<title>Node17&#45;&gt;Node5</title>
<g id="a_edge21_Node000017_Node000005"><a xlink:title=" ">
<path fill="none" stroke="#63b8ff" d="M674.98,-176.95C672.32,-168.15 669.28,-158.06 667.17,-151.09"/>
<polygon fill="#63b8ff" stroke="#63b8ff" points="671.7,-178.19 677.94,-186.75 678.4,-176.16 671.7,-178.19"/>
</a>
</g>
</g>
<!-- Node18&#45;&gt;Node9 -->
<g id="edge25_Node000018_Node000009" class="edge">
<title>Node18&#45;&gt;Node9</title>
<g id="a_edge25_Node000018_Node000009"><a xlink:title=" ">
<path fill="none" stroke="#63b8ff" d="M221.54,-237.67C207.34,-230.48 191.89,-220.07 182.58,-206 158.06,-168.95 160.55,-112.21 162.58,-90.68"/>
<polygon fill="#63b8ff" stroke="#63b8ff" points="220.08,-240.85 230.62,-241.94 223.06,-234.51 220.08,-240.85"/>
</a>
</g>
</g>
<!-- Node19 -->
<g id="Node000019" class="node">
<title>Node19</title>
<g id="a_Node000019"><a xlink:href="BuildCommand_8cpp.html" target="_top" xlink:title=" ">
<polygon fill="white" stroke="#666666" points="317.58,-206 191.58,-206 191.58,-187 317.58,-187 317.58,-206"/>
<text text-anchor="middle" x="254.58" y="-194" font-family="Helvetica,sans-Serif" font-size="10.00">cli/BuildCommand.cpp</text>
</a>
</g>
</g>
<!-- Node18&#45;&gt;Node19 -->
<g id="edge24_Node000018_Node000019" class="edge">
<title>Node18&#45;&gt;Node19</title>
<g id="a_edge24_Node000018_Node000019"><a xlink:title=" ">
<path fill="none" stroke="#63b8ff" d="M254.58,-231.66C254.58,-222.93 254.58,-212.99 254.58,-206.09"/>
<polygon fill="#63b8ff" stroke="#63b8ff" points="251.08,-231.75 254.58,-241.75 258.08,-231.75 251.08,-231.75"/>
</a>
</g>
</g>
<!-- Node20&#45;&gt;Node5 -->
<g id="edge27_Node000020_Node000005" class="edge">
<title>Node20&#45;&gt;Node5</title>
<g id="a_edge27_Node000020_Node000005"><a xlink:title=" ">
<path fill="none" stroke="#63b8ff" d="M632.38,-294.5C680.66,-282.04 746.03,-256.49 777.58,-206 795.71,-176.99 752.47,-160.04 714.35,-151.06"/>
<polygon fill="#63b8ff" stroke="#63b8ff" points="631.54,-291.11 622.66,-296.9 633.21,-297.9 631.54,-291.11"/>
</a>
</g>
</g>
<!-- Node20&#45;&gt;Node16 -->
<g id="edge29_Node000020_Node000016" class="edge">
<title>Node20&#45;&gt;Node16</title>
<g id="a_edge29_Node000020_Node000016"><a xlink:title=" ">
<path fill="none" stroke="#63b8ff" d="M570.38,-286.66C568.9,-277.93 567.21,-267.99 566.04,-261.09"/>
<polygon fill="#63b8ff" stroke="#63b8ff" points="566.97,-287.48 572.09,-296.75 573.87,-286.3 566.97,-287.48"/>
</a>
</g>
</g>
<!-- Node21 -->
<g id="Node000021" class="node">
<title>Node21</title>
<g id="a_Node000021"><a xlink:href="Properties_8cpp.html" target="_top" xlink:title=" ">
<polygon fill="white" stroke="#666666" points="958.58,-261 824.58,-261 824.58,-242 958.58,-242 958.58,-261"/>
<text text-anchor="middle" x="891.58" y="-249" font-family="Helvetica,sans-Serif" font-size="10.00">netspeak/Properties.cpp</text>
</a>
</g>
</g>
<!-- Node20&#45;&gt;Node21 -->
<g id="edge28_Node000020_Node000021" class="edge">
<title>Node20&#45;&gt;Node21</title>
<g id="a_edge28_Node000020_Node000021"><a xlink:title=" ">
<path fill="none" stroke="#63b8ff" d="M634.72,-295.31C694.43,-285.36 784.28,-270.38 840.35,-261.04"/>
<polygon fill="#63b8ff" stroke="#63b8ff" points="633.96,-291.89 624.67,-296.98 635.11,-298.79 633.96,-291.89"/>
</a>
</g>
</g>
</g>
</svg>
