<?xml version="1.0" encoding="UTF-8" standalone="no"?>
<!DOCTYPE svg PUBLIC "-//W3C//DTD SVG 1.1//EN"
 "http://www.w3.org/Graphics/SVG/1.1/DTD/svg11.dtd">
<!-- Generated by graphviz version 2.43.0 (0)
 -->
<!-- Title: netspeak/Configuration.cpp Pages: 1 -->
<svg width="989pt" height="203pt"
 viewBox="0.00 0.00 988.77 203.00" xmlns="http://www.w3.org/2000/svg" xmlns:xlink="http://www.w3.org/1999/xlink">
<g id="graph0" class="graph" transform="scale(1 1) rotate(0) translate(4 199)">
<title>netspeak/Configuration.cpp</title>
<!-- Node1 -->
<g id="Node000001" class="node">
<title>Node1</title>
<g id="a_Node000001"><a xlink:title=" ">
<polygon fill="#999999" stroke="#666666" points="557.77,-195 407.77,-195 407.77,-176 557.77,-176 557.77,-195"/>
<text text-anchor="middle" x="482.77" y="-183" font-family="Helvetica,sans-Serif" font-size="10.00">netspeak/Configuration.cpp</text>
</a>
</g>
</g>
<!-- Node2 -->
<g id="Node000002" class="node">
<title>Node2</title>
<g id="a_Node000002"><a xlink:title=" ">
<polygon fill="#e0e0e0" stroke="#999999" points="123.77,-19 55.77,-19 55.77,0 123.77,0 123.77,-19"/>
<text text-anchor="middle" x="89.77" y="-7" font-family="Helvetica,sans-Serif" font-size="10.00">filesystem</text>
</a>
</g>
</g>
<!-- Node1&#45;&gt;Node2 -->
<g id="edge1_Node000001_Node000002" class="edge">
<title>Node1&#45;&gt;Node2</title>
<g id="a_edge1_Node000001_Node000002"><a xlink:title=" ">
<path fill="none" stroke="#63b8ff" d="M407.33,-178.51C285.19,-167.05 52.91,-137.31 4.77,-74 -12.18,-51.71 20.99,-33.49 50.72,-22.38"/>
<polygon fill="#63b8ff" stroke="#63b8ff" points="51.93,-25.67 60.18,-19.03 49.59,-19.07 51.93,-25.67"/>
</a>
</g>
</g>
<!-- Node3 -->
<g id="Node000003" class="node">
<title>Node3</title>
<g id="a_Node000003"><a xlink:href="Configuration_8hpp.html" target="_top" xlink:title=" ">
<polygon fill="white" stroke="#666666" points="403.27,-134.5 252.27,-134.5 252.27,-115.5 403.27,-115.5 403.27,-134.5"/>
<text text-anchor="middle" x="327.77" y="-122.5" font-family="Helvetica,sans-Serif" font-size="10.00">netspeak/Configuration.hpp</text>
</a>
</g>
</g>
<!-- Node1&#45;&gt;Node3 -->
<g id="edge2_Node000001_Node000003" class="edge">
<title>Node1&#45;&gt;Node3</title>
<g id="a_edge2_Node000001_Node000003"><a xlink:title=" ">
<path fill="none" stroke="#63b8ff" d="M460.23,-175.99C433.83,-166.03 389.89,-149.45 359.92,-138.13"/>
<polygon fill="#63b8ff" stroke="#63b8ff" points="360.93,-134.77 350.34,-134.52 358.46,-141.32 360.93,-134.77"/>
</a>
</g>
</g>
<!-- Node6 -->
<g id="Node000006" class="node">
<title>Node6</title>
<g id="a_Node000006"><a xlink:title=" ">
<polygon fill="#e0e0e0" stroke="#999999" points="532.77,-19 488.77,-19 488.77,0 532.77,0 532.77,-19"/>
<text text-anchor="middle" x="510.77" y="-7" font-family="Helvetica,sans-Serif" font-size="10.00">string</text>
</a>
</g>
</g>
<!-- Node1&#45;&gt;Node6 -->
<g id="edge21_Node000001_Node000006" class="edge">
<title>Node1&#45;&gt;Node6</title>
<g id="a_edge21_Node000001_Node000006"><a xlink:title=" ">
<path fill="none" stroke="#63b8ff" d="M501.76,-175.94C533.02,-160.65 594.32,-125.37 618.77,-74 634.88,-40.16 580.38,-23.11 543.02,-15.57"/>
<polygon fill="#63b8ff" stroke="#63b8ff" points="543.48,-12.1 533.01,-13.69 542.19,-18.98 543.48,-12.1"/>
</a>
</g>
</g>
<!-- Node14 -->
<g id="Node000014" class="node">
<title>Node14</title>
<g id="a_Node000014"><a xlink:href="traceable__error_8hpp.html" target="_top" xlink:title=" ">
<polygon fill="white" stroke="#666666" points="873.27,-140 744.27,-140 744.27,-110 873.27,-110 873.27,-140"/>
<text text-anchor="start" x="752.27" y="-128" font-family="Helvetica,sans-Serif" font-size="10.00">netspeak/util/traceable</text>
<text text-anchor="middle" x="808.77" y="-117" font-family="Helvetica,sans-Serif" font-size="10.00">_error.hpp</text>
</a>
</g>
</g>
<!-- Node1&#45;&gt;Node14 -->
<g id="edge16_Node000001_Node000014" class="edge">
<title>Node1&#45;&gt;Node14</title>
<g id="a_edge16_Node000001_Node000014"><a xlink:title=" ">
<path fill="none" stroke="#63b8ff" d="M530.17,-175.99C583.73,-166.38 671.59,-150.62 734.32,-139.36"/>
<polygon fill="#63b8ff" stroke="#63b8ff" points="734.94,-142.8 744.16,-137.59 733.7,-135.91 734.94,-142.8"/>
</a>
</g>
</g>
<!-- Node3&#45;&gt;Node2 -->
<g id="edge3_Node000003_Node000002" class="edge">
<title>Node3&#45;&gt;Node2</title>
<g id="a_edge3_Node000003_Node000002"><a xlink:title=" ">
<path fill="none" stroke="#63b8ff" d="M255.81,-115.46C200.45,-107.49 129.95,-93.82 108.77,-74 96.57,-62.58 92.1,-43.69 90.51,-29.48"/>
<polygon fill="#63b8ff" stroke="#63b8ff" points="93.99,-29.03 89.76,-19.31 87.01,-29.54 93.99,-29.03"/>
</a>
</g>
</g>
<!-- Node4 -->
<g id="Node000004" class="node">
<title>Node4</title>
<g id="a_Node000004"><a xlink:title=" ">
<polygon fill="#e0e0e0" stroke="#999999" points="175.77,-74 117.77,-74 117.77,-55 175.77,-55 175.77,-74"/>
<text text-anchor="middle" x="146.77" y="-62" font-family="Helvetica,sans-Serif" font-size="10.00">memory</text>
</a>
</g>
</g>
<!-- Node3&#45;&gt;Node4 -->
<g id="edge4_Node000003_Node000004" class="edge">
<title>Node3&#45;&gt;Node4</title>
<g id="a_edge4_Node000003_Node000004"><a xlink:title=" ">
<path fill="none" stroke="#63b8ff" d="M301.45,-115.49C270.22,-105.4 217.97,-88.51 182.95,-77.19"/>
<polygon fill="#63b8ff" stroke="#63b8ff" points="183.71,-73.76 173.12,-74.02 181.56,-80.42 183.71,-73.76"/>
</a>
</g>
</g>
<!-- Node5 -->
<g id="Node000005" class="node">
<title>Node5</title>
<g id="a_Node000005"><a xlink:title=" ">
<polygon fill="#e0e0e0" stroke="#999999" points="355.77,-74 299.77,-74 299.77,-55 355.77,-55 355.77,-74"/>
<text text-anchor="middle" x="327.77" y="-62" font-family="Helvetica,sans-Serif" font-size="10.00">optional</text>
</a>
</g>
</g>
<!-- Node3&#45;&gt;Node5 -->
<g id="edge5_Node000003_Node000005" class="edge">
<title>Node3&#45;&gt;Node5</title>
<g id="a_edge5_Node000003_Node000005"><a xlink:title=" ">
<path fill="none" stroke="#63b8ff" d="M327.77,-115.37C327.77,-107.25 327.77,-94.81 327.77,-84.39"/>
<polygon fill="#63b8ff" stroke="#63b8ff" points="331.27,-84.17 327.77,-74.17 324.27,-84.17 331.27,-84.17"/>
</a>
</g>
</g>
<!-- Node3&#45;&gt;Node6 -->
<g id="edge6_Node000003_Node000006" class="edge">
<title>Node3&#45;&gt;Node6</title>
<g id="a_edge6_Node000003_Node000006"><a xlink:title=" ">
<path fill="none" stroke="#63b8ff" d="M335.3,-115.31C348,-101.1 375.02,-72.68 402.77,-55 426.65,-39.79 456.6,-27.93 478.91,-20.3"/>
<polygon fill="#63b8ff" stroke="#63b8ff" points="480.18,-23.56 488.57,-17.09 477.97,-16.92 480.18,-23.56"/>
</a>
</g>
</g>
<!-- Node7 -->
<g id="Node000007" class="node">
<title>Node7</title>
<g id="a_Node000007"><a xlink:title=" ">
<polygon fill="#e0e0e0" stroke="#999999" points="505.27,-74 412.27,-74 412.27,-55 505.27,-55 505.27,-74"/>
<text text-anchor="middle" x="458.77" y="-62" font-family="Helvetica,sans-Serif" font-size="10.00">unordered_map</text>
</a>
</g>
</g>
<!-- Node3&#45;&gt;Node7 -->
<g id="edge7_Node000003_Node000007" class="edge">
<title>Node3&#45;&gt;Node7</title>
<g id="a_edge7_Node000003_Node000007"><a xlink:title=" ">
<path fill="none" stroke="#63b8ff" d="M346.82,-115.49C368.74,-105.7 404.98,-89.52 430.27,-78.23"/>
<polygon fill="#63b8ff" stroke="#63b8ff" points="431.99,-81.29 439.7,-74.02 429.14,-74.9 431.99,-81.29"/>
</a>
</g>
</g>
<!-- Node8 -->
<g id="Node000008" class="node">
<title>Node8</title>
<g id="a_Node000008"><a xlink:title=" ">
<polygon fill="#e0e0e0" stroke="#999999" points="609.77,-74 523.77,-74 523.77,-55 609.77,-55 609.77,-74"/>
<text text-anchor="middle" x="566.77" y="-62" font-family="Helvetica,sans-Serif" font-size="10.00">unordered_set</text>
</a>
</g>
</g>
<!-- Node3&#45;&gt;Node8 -->
<g id="edge8_Node000003_Node000008" class="edge">
<title>Node3&#45;&gt;Node8</title>
<g id="a_edge8_Node000003_Node000008"><a xlink:title=" ">
<path fill="none" stroke="#63b8ff" d="M362.52,-115.49C404.74,-105.16 476.02,-87.71 522.23,-76.4"/>
<polygon fill="#63b8ff" stroke="#63b8ff" points="523.09,-79.79 531.98,-74.02 521.43,-72.99 523.09,-79.79"/>
</a>
</g>
</g>
<!-- Node9 -->
<g id="Node000009" class="node">
<title>Node9</title>
<g id="a_Node000009"><a xlink:title=" ">
<polygon fill="#e0e0e0" stroke="#999999" points="61.27,-74 14.27,-74 14.27,-55 61.27,-55 61.27,-74"/>
<text text-anchor="middle" x="37.77" y="-62" font-family="Helvetica,sans-Serif" font-size="10.00">vector</text>
</a>
</g>
</g>
<!-- Node3&#45;&gt;Node9 -->
<g id="edge9_Node000003_Node000009" class="edge">
<title>Node3&#45;&gt;Node9</title>
<g id="a_edge9_Node000003_Node000009"><a xlink:title=" ">
<path fill="none" stroke="#63b8ff" d="M283.09,-115.47C232.67,-105.77 148.22,-89.29 75.77,-74 74.32,-73.69 72.85,-73.38 71.35,-73.06"/>
<polygon fill="#63b8ff" stroke="#63b8ff" points="71.98,-69.61 61.47,-70.89 70.49,-76.45 71.98,-69.61"/>
</a>
</g>
</g>
<!-- Node10 -->
<g id="Node000010" class="node">
<title>Node10</title>
<g id="a_Node000010"><a xlink:href="Config_8hpp.html" target="_top" xlink:title=" ">
<polygon fill="white" stroke="#666666" points="281.27,-74 194.27,-74 194.27,-55 281.27,-55 281.27,-74"/>
<text text-anchor="middle" x="237.77" y="-62" font-family="Helvetica,sans-Serif" font-size="10.00">util/Config.hpp</text>
</a>
</g>
</g>
<!-- Node3&#45;&gt;Node10 -->
<g id="edge10_Node000003_Node000010" class="edge">
<title>Node3&#45;&gt;Node10</title>
<g id="a_edge10_Node000003_Node000010"><a xlink:title=" ">
<path fill="none" stroke="#63b8ff" d="M314.49,-115.37C300.13,-106.04 277.01,-91.01 259.9,-79.88"/>
<polygon fill="#63b8ff" stroke="#63b8ff" points="261.4,-76.68 251.1,-74.17 257.58,-82.55 261.4,-76.68"/>
</a>
</g>
</g>
<!-- Node10&#45;&gt;Node2 -->
<g id="edge11_Node000010_Node000002" class="edge">
<title>Node10&#45;&gt;Node2</title>
<g id="a_edge11_Node000010_Node000002"><a xlink:title=" ">
<path fill="none" stroke="#63b8ff" d="M213.99,-54.98C189.54,-46.23 151.24,-32.51 123.62,-22.62"/>
<polygon fill="#63b8ff" stroke="#63b8ff" points="124.58,-19.25 113.98,-19.17 122.22,-25.84 124.58,-19.25"/>
</a>
</g>
</g>
<!-- Node10&#45;&gt;Node6 -->
<g id="edge15_Node000010_Node000006" class="edge">
<title>Node10&#45;&gt;Node6</title>
<g id="a_edge15_Node000010_Node000006"><a xlink:title=" ">
<path fill="none" stroke="#63b8ff" d="M281.33,-55.04C336.31,-44.37 429.59,-26.26 478.56,-16.75"/>
<polygon fill="#63b8ff" stroke="#63b8ff" points="479.44,-20.15 488.59,-14.81 478.11,-13.28 479.44,-20.15"/>
</a>
</g>
</g>
<!-- Node11 -->
<g id="Node000011" class="node">
<title>Node11</title>
<g id="a_Node000011"><a xlink:title=" ">
<polygon fill="#e0e0e0" stroke="#999999" points="338.77,-19 284.77,-19 284.77,0 338.77,0 338.77,-19"/>
<text text-anchor="middle" x="311.77" y="-7" font-family="Helvetica,sans-Serif" font-size="10.00">istream</text>
</a>
</g>
</g>
<!-- Node10&#45;&gt;Node11 -->
<g id="edge12_Node000010_Node000011" class="edge">
<title>Node10&#45;&gt;Node11</title>
<g id="a_edge12_Node000010_Node000011"><a xlink:title=" ">
<path fill="none" stroke="#63b8ff" d="M249.66,-54.98C260.92,-46.92 278.06,-34.65 291.48,-25.03"/>
<polygon fill="#63b8ff" stroke="#63b8ff" points="293.57,-27.84 299.66,-19.17 289.5,-22.15 293.57,-27.84"/>
</a>
</g>
</g>
<!-- Node12 -->
<g id="Node000012" class="node">
<title>Node12</title>
<g id="a_Node000012"><a xlink:title=" ">
<polygon fill="#e0e0e0" stroke="#999999" points="190.77,-19 152.77,-19 152.77,0 190.77,0 190.77,-19"/>
<text text-anchor="middle" x="171.77" y="-7" font-family="Helvetica,sans-Serif" font-size="10.00">map</text>
</a>
</g>
</g>
<!-- Node10&#45;&gt;Node12 -->
<g id="edge13_Node000010_Node000012" class="edge">
<title>Node10&#45;&gt;Node12</title>
<g id="a_edge13_Node000010_Node000012"><a xlink:title=" ">
<path fill="none" stroke="#63b8ff" d="M227.17,-54.98C217.31,-47.07 202.42,-35.11 190.55,-25.58"/>
<polygon fill="#63b8ff" stroke="#63b8ff" points="192.56,-22.7 182.57,-19.17 188.17,-28.16 192.56,-22.7"/>
</a>
</g>
</g>
<!-- Node13 -->
<g id="Node000013" class="node">
<title>Node13</title>
<g id="a_Node000013"><a xlink:title=" ">
<polygon fill="#e0e0e0" stroke="#999999" points="266.27,-19 209.27,-19 209.27,0 266.27,0 266.27,-19"/>
<text text-anchor="middle" x="237.77" y="-7" font-family="Helvetica,sans-Serif" font-size="10.00">ostream</text>
</a>
</g>
</g>
<!-- Node10&#45;&gt;Node13 -->
<g id="edge14_Node000010_Node000013" class="edge">
<title>Node10&#45;&gt;Node13</title>
<g id="a_edge14_Node000010_Node000013"><a xlink:title=" ">
<path fill="none" stroke="#63b8ff" d="M237.77,-54.75C237.77,-47.8 237.77,-37.85 237.77,-29.13"/>
<polygon fill="#63b8ff" stroke="#63b8ff" points="241.27,-29.09 237.77,-19.09 234.27,-29.09 241.27,-29.09"/>
</a>
</g>
</g>
<!-- Node14&#45;&gt;Node6 -->
<g id="edge19_Node000014_Node000006" class="edge">
<title>Node14&#45;&gt;Node6</title>
<g id="a_edge19_Node000014_Node000006"><a xlink:title=" ">
<path fill="none" stroke="#63b8ff" d="M839.66,-109.96C865.46,-96.35 895.41,-74.91 877.77,-55 855.7,-30.09 628.55,-16.34 543.07,-12.01"/>
<polygon fill="#63b8ff" stroke="#63b8ff" points="543.06,-8.51 532.9,-11.51 542.72,-15.5 543.06,-8.51"/>
</a>
</g>
</g>
<!-- Node15 -->
<g id="Node000015" class="node">
<title>Node15</title>
<g id="a_Node000015"><a xlink:title=" ">
<polygon fill="#e0e0e0" stroke="#999999" points="980.77,-74 924.77,-74 924.77,-55 980.77,-55 980.77,-74"/>
<text text-anchor="middle" x="952.77" y="-62" font-family="Helvetica,sans-Serif" font-size="10.00">sstream</text>
</a>
</g>
</g>
<!-- Node14&#45;&gt;Node15 -->
<g id="edge17_Node000014_Node000015" class="edge">
<title>Node14&#45;&gt;Node15</title>
<g id="a_edge17_Node000014_Node000015"><a xlink:title=" ">
<path fill="none" stroke="#63b8ff" d="M843.26,-109.99C867.29,-100.23 899.04,-87.33 922.17,-77.93"/>
<polygon fill="#63b8ff" stroke="#63b8ff" points="923.56,-81.15 931.5,-74.14 920.92,-74.66 923.56,-81.15"/>
</a>
</g>
</g>
<!-- Node16 -->
<g id="Node000016" class="node">
<title>Node16</title>
<g id="a_Node000016"><a xlink:title=" ">
<polygon fill="#e0e0e0" stroke="#999999" points="731.27,-74 666.27,-74 666.27,-55 731.27,-55 731.27,-74"/>
<text text-anchor="middle" x="698.77" y="-62" font-family="Helvetica,sans-Serif" font-size="10.00">stdexcept</text>
</a>
</g>
</g>
<!-- Node14&#45;&gt;Node16 -->
<g id="edge18_Node000014_Node000016" class="edge">
<title>Node14&#45;&gt;Node16</title>
<g id="a_edge18_Node000014_Node000016"><a xlink:title=" ">
<path fill="none" stroke="#63b8ff" d="M782.42,-109.99C764.72,-100.58 741.54,-88.24 724.06,-78.95"/>
<polygon fill="#63b8ff" stroke="#63b8ff" points="725.49,-75.74 715.01,-74.14 722.2,-81.92 725.49,-75.74"/>
</a>
</g>
</g>
<!-- Node17 -->
<g id="Node000017" class="node">
<title>Node17</title>
<g id="a_Node000017"><a xlink:title=" ">
<polygon fill="#e0e0e0" stroke="#999999" points="868.27,-74 749.27,-74 749.27,-55 868.27,-55 868.27,-74"/>
<text text-anchor="middle" x="808.77" y="-62" font-family="Helvetica,sans-Serif" font-size="10.00">boost/stacktrace.hpp</text>
</a>
</g>
</g>
<!-- Node14&#45;&gt;Node17 -->
<g id="edge20_Node000014_Node000017" class="edge">
<title>Node14&#45;&gt;Node17</title>
<g id="a_edge20_Node000014_Node000017"><a xlink:title=" ">
<path fill="none" stroke="#63b8ff" d="M808.77,-109.84C808.77,-102.21 808.77,-92.7 808.77,-84.45"/>
<polygon fill="#63b8ff" stroke="#63b8ff" points="812.27,-84.27 808.77,-74.27 805.27,-84.27 812.27,-84.27"/>
</a>
</g>
</g>
</g>
</svg>
