<?xml version="1.0" encoding="UTF-8" standalone="no"?>
<!DOCTYPE svg PUBLIC "-//W3C//DTD SVG 1.1//EN"
 "http://www.w3.org/Graphics/SVG/1.1/DTD/svg11.dtd">
<!-- Generated by graphviz version 2.43.0 (0)
 -->
<!-- Title: netspeak/Dictionaries.hpp Pages: 1 -->
<svg width="1090pt" height="269pt"
 viewBox="0.00 0.00 1090.00 269.00" xmlns="http://www.w3.org/2000/svg" xmlns:xlink="http://www.w3.org/1999/xlink">
<g id="graph0" class="graph" transform="scale(1 1) rotate(0) translate(4 265)">
<title>netspeak/Dictionaries.hpp</title>
<!-- Node1 -->
<g id="Node000001" class="node">
<title>Node1</title>
<g id="a_Node000001"><a xlink:title=" ">
<polygon fill="#999999" stroke="#666666" points="466.5,-261 322.5,-261 322.5,-242 466.5,-242 466.5,-261"/>
<text text-anchor="middle" x="394.5" y="-249" font-family="Helvetica,sans-Serif" font-size="10.00">netspeak/Dictionaries.hpp</text>
</a>
</g>
</g>
<!-- Node2 -->
<g id="Node000002" class="node">
<title>Node2</title>
<g id="a_Node000002"><a xlink:href="Dictionaries_8cpp.html" target="_top" xlink:title=" ">
<polygon fill="white" stroke="#666666" points="366,-206 223,-206 223,-187 366,-187 366,-206"/>
<text text-anchor="middle" x="294.5" y="-194" font-family="Helvetica,sans-Serif" font-size="10.00">netspeak/Dictionaries.cpp</text>
</a>
</g>
</g>
<!-- Node1&#45;&gt;Node2 -->
<g id="edge1_Node000001_Node000002" class="edge">
<title>Node1&#45;&gt;Node2</title>
<g id="a_edge1_Node000001_Node000002"><a xlink:title=" ">
<path fill="none" stroke="#63b8ff" d="M369.47,-237.23C351.13,-227.51 326.76,-214.6 310.86,-206.17"/>
<polygon fill="#63b8ff" stroke="#63b8ff" points="367.96,-240.39 378.43,-241.98 371.24,-234.21 367.96,-240.39"/>
</a>
</g>
</g>
<!-- Node3 -->
<g id="Node000003" class="node">
<title>Node3</title>
<g id="a_Node000003"><a xlink:href="Netspeak_8hpp.html" target="_top" xlink:title=" ">
<polygon fill="white" stroke="#666666" points="460.5,-151 328.5,-151 328.5,-132 460.5,-132 460.5,-151"/>
<text text-anchor="middle" x="394.5" y="-139" font-family="Helvetica,sans-Serif" font-size="10.00">netspeak/Netspeak.hpp</text>
</a>
</g>
</g>
<!-- Node1&#45;&gt;Node3 -->
<g id="edge2_Node000001_Node000003" class="edge">
<title>Node1&#45;&gt;Node3</title>
<g id="a_edge2_Node000001_Node000003"><a xlink:title=" ">
<path fill="none" stroke="#63b8ff" d="M394.5,-231.48C394.5,-207.84 394.5,-168.5 394.5,-151.16"/>
<polygon fill="#63b8ff" stroke="#63b8ff" points="391,-231.66 394.5,-241.66 398,-231.66 391,-231.66"/>
</a>
</g>
</g>
<!-- Node14 -->
<g id="Node000014" class="node">
<title>Node14</title>
<g id="a_Node000014"><a xlink:href="QueryNormalizer_8hpp.html" target="_top" xlink:title=" ">
<polygon fill="white" stroke="#666666" points="590.5,-206 422.5,-206 422.5,-187 590.5,-187 590.5,-206"/>
<text text-anchor="middle" x="506.5" y="-194" font-family="Helvetica,sans-Serif" font-size="10.00">netspeak/QueryNormalizer.hpp</text>
</a>
</g>
</g>
<!-- Node1&#45;&gt;Node14 -->
<g id="edge14_Node000001_Node000014" class="edge">
<title>Node1&#45;&gt;Node14</title>
<g id="a_edge14_Node000001_Node000014"><a xlink:title=" ">
<path fill="none" stroke="#63b8ff" d="M421.69,-237.63C442.32,-227.87 470.12,-214.71 488.18,-206.17"/>
<polygon fill="#63b8ff" stroke="#63b8ff" points="420.04,-234.54 412.49,-241.98 423.03,-240.87 420.04,-234.54"/>
</a>
</g>
</g>
<!-- Node4 -->
<g id="Node000004" class="node">
<title>Node4</title>
<g id="a_Node000004"><a xlink:href="ProxyCommand_8cpp.html" target="_top" xlink:title=" ">
<polygon fill="white" stroke="#666666" points="129,-90.5 0,-90.5 0,-71.5 129,-71.5 129,-90.5"/>
<text text-anchor="middle" x="64.5" y="-78.5" font-family="Helvetica,sans-Serif" font-size="10.00">cli/ProxyCommand.cpp</text>
</a>
</g>
</g>
<!-- Node3&#45;&gt;Node4 -->
<g id="edge3_Node000003_Node000004" class="edge">
<title>Node3&#45;&gt;Node4</title>
<g id="a_edge3_Node000003_Node000004"><a xlink:title=" ">
<path fill="none" stroke="#63b8ff" d="M336.64,-130.24C273.02,-118.96 171.96,-101.05 112.54,-90.52"/>
<polygon fill="#63b8ff" stroke="#63b8ff" points="336.06,-133.69 346.52,-131.99 337.28,-126.8 336.06,-133.69"/>
</a>
</g>
</g>
<!-- Node5 -->
<g id="Node000005" class="node">
<title>Node5</title>
<g id="a_Node000005"><a xlink:href="ServeCommand_8cpp.html" target="_top" xlink:title=" ">
<polygon fill="white" stroke="#666666" points="414,-24.5 285,-24.5 285,-5.5 414,-5.5 414,-24.5"/>
<text text-anchor="middle" x="349.5" y="-12.5" font-family="Helvetica,sans-Serif" font-size="10.00">cli/ServeCommand.cpp</text>
</a>
</g>
</g>
<!-- Node3&#45;&gt;Node5 -->
<g id="edge4_Node000003_Node000005" class="edge">
<title>Node3&#45;&gt;Node5</title>
<g id="a_edge4_Node000003_Node000005"><a xlink:title=" ">
<path fill="none" stroke="#63b8ff" d="M318.13,-135C262.66,-129.23 194.32,-117.83 176.5,-96 142.23,-54.03 222.58,-33.02 284.95,-23.33"/>
<polygon fill="#63b8ff" stroke="#63b8ff" points="318.02,-138.51 328.32,-136.01 318.71,-131.54 318.02,-138.51"/>
</a>
</g>
</g>
<!-- Node6 -->
<g id="Node000006" class="node">
<title>Node6</title>
<g id="a_Node000006"><a xlink:href="ShellCommand_8cpp.html" target="_top" xlink:title=" ">
<polygon fill="white" stroke="#666666" points="311,-90.5 186,-90.5 186,-71.5 311,-71.5 311,-90.5"/>
<text text-anchor="middle" x="248.5" y="-78.5" font-family="Helvetica,sans-Serif" font-size="10.00">cli/ShellCommand.cpp</text>
</a>
</g>
</g>
<!-- Node3&#45;&gt;Node6 -->
<g id="edge5_Node000003_Node000006" class="edge">
<title>Node3&#45;&gt;Node6</title>
<g id="a_edge5_Node000003_Node000006"><a xlink:title=" ">
<path fill="none" stroke="#63b8ff" d="M363.88,-128.23C335.66,-116.92 294.53,-100.44 269.76,-90.52"/>
<polygon fill="#63b8ff" stroke="#63b8ff" points="362.69,-131.52 373.27,-131.99 365.29,-125.03 362.69,-131.52"/>
</a>
</g>
</g>
<!-- Node7 -->
<g id="Node000007" class="node">
<title>Node7</title>
<g id="a_Node000007"><a xlink:href="Netspeak_8cpp.html" target="_top" xlink:title=" ">
<polygon fill="white" stroke="#666666" points="460,-90.5 329,-90.5 329,-71.5 460,-71.5 460,-90.5"/>
<text text-anchor="middle" x="394.5" y="-78.5" font-family="Helvetica,sans-Serif" font-size="10.00">netspeak/Netspeak.cpp</text>
</a>
</g>
</g>
<!-- Node3&#45;&gt;Node7 -->
<g id="edge6_Node000003_Node000007" class="edge">
<title>Node3&#45;&gt;Node7</title>
<g id="a_edge6_Node000003_Node000007"><a xlink:title=" ">
<path fill="none" stroke="#63b8ff" d="M394.5,-121.66C394.5,-111.24 394.5,-98.8 394.5,-90.67"/>
<polygon fill="#63b8ff" stroke="#63b8ff" points="391,-121.87 394.5,-131.87 398,-121.87 391,-121.87"/>
</a>
</g>
</g>
<!-- Node8 -->
<g id="Node000008" class="node">
<title>Node8</title>
<g id="a_Node000008"><a xlink:href="indexing_8cpp.html" target="_top" xlink:title=" ">
<polygon fill="white" stroke="#666666" points="605,-90.5 478,-90.5 478,-71.5 605,-71.5 605,-90.5"/>
<text text-anchor="middle" x="541.5" y="-78.5" font-family="Helvetica,sans-Serif" font-size="10.00">netspeak/indexing.cpp</text>
</a>
</g>
</g>
<!-- Node3&#45;&gt;Node8 -->
<g id="edge7_Node000003_Node000008" class="edge">
<title>Node3&#45;&gt;Node8</title>
<g id="a_edge7_Node000003_Node000008"><a xlink:title=" ">
<path fill="none" stroke="#63b8ff" d="M425.33,-128.23C453.74,-116.92 495.16,-100.44 520.1,-90.52"/>
<polygon fill="#63b8ff" stroke="#63b8ff" points="423.87,-125.04 415.88,-131.99 426.46,-131.55 423.87,-125.04"/>
</a>
</g>
</g>
<!-- Node9 -->
<g id="Node000009" class="node">
<title>Node9</title>
<g id="a_Node000009"><a xlink:href="RequestLogger_8hpp.html" target="_top" xlink:title=" ">
<polygon fill="white" stroke="#666666" points="963,-96 820,-96 820,-66 963,-66 963,-96"/>
<text text-anchor="start" x="828" y="-84" font-family="Helvetica,sans-Serif" font-size="10.00">netspeak/service/Request</text>
<text text-anchor="middle" x="891.5" y="-73" font-family="Helvetica,sans-Serif" font-size="10.00">Logger.hpp</text>
</a>
</g>
</g>
<!-- Node3&#45;&gt;Node9 -->
<g id="edge8_Node000003_Node000009" class="edge">
<title>Node3&#45;&gt;Node9</title>
<g id="a_edge8_Node000003_Node000009"><a xlink:title=" ">
<path fill="none" stroke="#63b8ff" d="M471.04,-131.95C623.71,-115.59 663.82,-116.69 811.5,-96 814.15,-95.63 816.85,-95.23 819.58,-94.82"/>
<polygon fill="#63b8ff" stroke="#63b8ff" points="470.38,-128.51 460.82,-133.06 471.13,-135.46 470.38,-128.51"/>
</a>
</g>
</g>
<!-- Node12 -->
<g id="Node000012" class="node">
<title>Node12</title>
<g id="a_Node000012"><a xlink:href="UniqueMap_8hpp.html" target="_top" xlink:title=" ">
<polygon fill="white" stroke="#666666" points="802,-90.5 623,-90.5 623,-71.5 802,-71.5 802,-90.5"/>
<text text-anchor="middle" x="712.5" y="-78.5" font-family="Helvetica,sans-Serif" font-size="10.00">netspeak/service/UniqueMap.hpp</text>
</a>
</g>
</g>
<!-- Node3&#45;&gt;Node12 -->
<g id="edge11_Node000003_Node000012" class="edge">
<title>Node3&#45;&gt;Node12</title>
<g id="a_edge11_Node000003_Node000012"><a xlink:title=" ">
<path fill="none" stroke="#63b8ff" d="M450.64,-130.17C511.97,-118.89 609.07,-101.03 666.2,-90.52"/>
<polygon fill="#63b8ff" stroke="#63b8ff" points="449.94,-126.74 440.74,-131.99 451.21,-133.63 449.94,-126.74"/>
</a>
</g>
</g>
<!-- Node10 -->
<g id="Node000010" class="node">
<title>Node10</title>
<g id="a_Node000010"><a xlink:href="cli_2logging_8cpp.html" target="_top" xlink:title=" ">
<polygon fill="white" stroke="#666666" points="921,-24.5 834,-24.5 834,-5.5 921,-5.5 921,-24.5"/>
<text text-anchor="middle" x="877.5" y="-12.5" font-family="Helvetica,sans-Serif" font-size="10.00">cli/logging.cpp</text>
</a>
</g>
</g>
<!-- Node9&#45;&gt;Node10 -->
<g id="edge9_Node000009_Node000010" class="edge">
<title>Node9&#45;&gt;Node10</title>
<g id="a_edge9_Node000009_Node000010"><a xlink:title=" ">
<path fill="none" stroke="#63b8ff" d="M886.24,-55.94C883.86,-45.06 881.19,-32.86 879.43,-24.84"/>
<polygon fill="#63b8ff" stroke="#63b8ff" points="882.84,-56.78 888.39,-65.8 889.68,-55.28 882.84,-56.78"/>
</a>
</g>
</g>
<!-- Node11 -->
<g id="Node000011" class="node">
<title>Node11</title>
<g id="a_Node000011"><a xlink:href="RequestLogger_8cpp.html" target="_top" xlink:title=" ">
<polygon fill="white" stroke="#666666" points="1082,-30 939,-30 939,0 1082,0 1082,-30"/>
<text text-anchor="start" x="947" y="-18" font-family="Helvetica,sans-Serif" font-size="10.00">netspeak/service/Request</text>
<text text-anchor="middle" x="1010.5" y="-7" font-family="Helvetica,sans-Serif" font-size="10.00">Logger.cpp</text>
</a>
</g>
</g>
<!-- Node9&#45;&gt;Node11 -->
<g id="edge10_Node000009_Node000011" class="edge">
<title>Node9&#45;&gt;Node11</title>
<g id="a_edge10_Node000009_Node000011"><a xlink:title=" ">
<path fill="none" stroke="#63b8ff" d="M926.63,-61.11C945.15,-51.14 967.49,-39.13 984.45,-30.01"/>
<polygon fill="#63b8ff" stroke="#63b8ff" points="924.76,-58.14 917.62,-65.95 928.08,-64.3 924.76,-58.14"/>
</a>
</g>
</g>
<!-- Node12&#45;&gt;Node5 -->
<g id="edge12_Node000012_Node000005" class="edge">
<title>Node12&#45;&gt;Node5</title>
<g id="a_edge12_Node000012_Node000005"><a xlink:title=" ">
<path fill="none" stroke="#63b8ff" d="M653.77,-69.65C582.57,-57.09 463.93,-36.17 397.79,-24.51"/>
<polygon fill="#63b8ff" stroke="#63b8ff" points="653.47,-73.15 663.92,-71.44 654.68,-66.25 653.47,-73.15"/>
</a>
</g>
</g>
<!-- Node13 -->
<g id="Node000013" class="node">
<title>Node13</title>
<g id="a_Node000013"><a xlink:href="UniqueMap_8cpp.html" target="_top" xlink:title=" ">
<polygon fill="white" stroke="#666666" points="802,-24.5 623,-24.5 623,-5.5 802,-5.5 802,-24.5"/>
<text text-anchor="middle" x="712.5" y="-12.5" font-family="Helvetica,sans-Serif" font-size="10.00">netspeak/service/UniqueMap.cpp</text>
</a>
</g>
</g>
<!-- Node12&#45;&gt;Node13 -->
<g id="edge13_Node000012_Node000013" class="edge">
<title>Node12&#45;&gt;Node13</title>
<g id="a_edge13_Node000012_Node000013"><a xlink:title=" ">
<path fill="none" stroke="#63b8ff" d="M712.5,-61.08C712.5,-49.13 712.5,-34.22 712.5,-24.91"/>
<polygon fill="#63b8ff" stroke="#63b8ff" points="709,-61.37 712.5,-71.37 716,-61.37 709,-61.37"/>
</a>
</g>
</g>
<!-- Node14&#45;&gt;Node3 -->
<g id="edge15_Node000014_Node000003" class="edge">
<title>Node14&#45;&gt;Node3</title>
<g id="a_edge15_Node000014_Node000003"><a xlink:title=" ">
<path fill="none" stroke="#63b8ff" d="M479.31,-182.63C458.68,-172.87 430.88,-159.71 412.82,-151.17"/>
<polygon fill="#63b8ff" stroke="#63b8ff" points="477.97,-185.87 488.51,-186.98 480.96,-179.54 477.97,-185.87"/>
</a>
</g>
</g>
<!-- Node15 -->
<g id="Node000015" class="node">
<title>Node15</title>
<g id="a_Node000015"><a xlink:href="QueryNormalizer_8cpp.html" target="_top" xlink:title=" ">
<polygon fill="white" stroke="#666666" points="646,-151 479,-151 479,-132 646,-132 646,-151"/>
<text text-anchor="middle" x="562.5" y="-139" font-family="Helvetica,sans-Serif" font-size="10.00">netspeak/QueryNormalizer.cpp</text>
</a>
</g>
</g>
<!-- Node14&#45;&gt;Node15 -->
<g id="edge16_Node000014_Node000015" class="edge">
<title>Node14&#45;&gt;Node15</title>
<g id="a_edge16_Node000014_Node000015"><a xlink:title=" ">
<path fill="none" stroke="#63b8ff" d="M522.83,-180.04C532.76,-170.64 545.09,-158.98 553.34,-151.17"/>
<polygon fill="#63b8ff" stroke="#63b8ff" points="520.35,-177.57 515.5,-186.98 525.17,-182.65 520.35,-177.57"/>
</a>
</g>
</g>
</g>
</svg>
