<?xml version="1.0" encoding="UTF-8" standalone="no"?>
<!DOCTYPE svg PUBLIC "-//W3C//DTD SVG 1.1//EN"
 "http://www.w3.org/Graphics/SVG/1.1/DTD/svg11.dtd">
<!-- Generated by graphviz version 2.43.0 (0)
 -->
<!-- Title: netspeak Pages: 1 -->
<svg width="452pt" height="98pt"
 viewBox="0.00 0.00 452.00 98.00" xmlns="http://www.w3.org/2000/svg" xmlns:xlink="http://www.w3.org/1999/xlink">
<g id="graph0" class="graph" transform="scale(1 1) rotate(0) translate(4 94)">
<title>netspeak</title>
<g id="clust1" class="cluster">
<title>clusterdir_a8a8422ec10cf825de143d3254a4db2e</title>
<g id="a_clust1"><a xlink:href="dir_a8a8422ec10cf825de143d3254a4db2e.html" target="_top">
<polygon fill="#edf0f7" stroke="#404040" stroke-width="2" points="8,-47 8,-82 436,-82 436,-47 8,-47"/>
</a>
</g>
</g>
<!-- dir_a8a8422ec10cf825de143d3254a4db2e -->
<g id="node1" class="node">
<title>dir_a8a8422ec10cf825de143d3254a4db2e</title>
<text text-anchor="middle" x="397" y="-62" font-family="Helvetica,sans-Serif" font-size="10.00">netspeak</text>
</g>
<!-- dir_899bcb725501b3e5ae04f82e9882ab67 -->
<g id="node7" class="node">
<title>dir_899bcb725501b3e5ae04f82e9882ab67</title>
<g id="a_node7"><a xlink:href="dir_899bcb725501b3e5ae04f82e9882ab67.html" target="_top" xlink:title="netspeak">
<polygon fill="#edf0f7" stroke="red" points="221,-19 159,-19 159,0 221,0 221,-19"/>
<text text-anchor="middle" x="190" y="-7" font-family="Helvetica,sans-Serif" font-size="10.00">netspeak</text>
</a>
</g>
</g>
<!-- dir_a8a8422ec10cf825de143d3254a4db2e&#45;&gt;dir_899bcb725501b3e5ae04f82e9882ab67 -->
<g id="edge1" class="edge">
<title>dir_a8a8422ec10cf825de143d3254a4db2e&#45;&gt;dir_899bcb725501b3e5ae04f82e9882ab67</title>
<g id="a_edge1"><a xlink:href="dir_000012_000011.html" target="_top">
<path fill="none" stroke="#63b8ff" d="M378.13,-54.91C371.53,-52.13 364.03,-49.2 357,-47 314.9,-33.83 265.4,-23.65 231.28,-17.43"/>
<polygon fill="#63b8ff" stroke="#63b8ff" points="231.67,-13.94 221.2,-15.62 230.43,-20.83 231.67,-13.94"/>
</a>
</g>
<g id="a_edge1&#45;headlabel"><a xlink:href="dir_000012_000011.html" target="_top" xlink:title="82">
<text text-anchor="middle" x="235.7" y="-9.28" font-family="Helvetica,sans-Serif" font-size="10.00" fill="#63b8ff">82</text>
</a>
</g>
</g>
<!-- dir_3f89a09fcc09b1f154d50c330c42e246 -->
<g id="node2" class="node">
<title>dir_3f89a09fcc09b1f154d50c330c42e246</title>
<g id="a_node2"><a xlink:href="dir_3f89a09fcc09b1f154d50c330c42e246.html" target="_top" xlink:title="invertedindex">
<polygon fill="#a2b4d6" stroke="#404040" points="348,-74 264,-74 264,-55 348,-55 348,-74"/>
<text text-anchor="middle" x="306" y="-62" font-family="Helvetica,sans-Serif" font-size="10.00">invertedindex</text>
</a>
</g>
</g>
<!-- dir_3f89a09fcc09b1f154d50c330c42e246&#45;&gt;dir_899bcb725501b3e5ae04f82e9882ab67 -->
<g id="edge2" class="edge">
<title>dir_3f89a09fcc09b1f154d50c330c42e246&#45;&gt;dir_899bcb725501b3e5ae04f82e9882ab67</title>
<g id="a_edge2"><a xlink:href="dir_000008_000011.html" target="_top">
<path fill="none" stroke="#63b8ff" d="M287.36,-54.98C268.7,-46.46 239.75,-33.23 218.26,-23.41"/>
<polygon fill="#63b8ff" stroke="#63b8ff" points="219.53,-20.14 208.98,-19.17 216.62,-26.51 219.53,-20.14"/>
</a>
</g>
<g id="a_edge2&#45;headlabel"><a xlink:href="dir_000008_000011.html" target="_top" xlink:title="3">
<text text-anchor="middle" x="223.98" y="-16.55" font-family="Helvetica,sans-Serif" font-size="10.00" fill="#63b8ff">3</text>
</a>
</g>
</g>
<!-- dir_613561f7e03d6ef64ad0fc01ff964de7 -->
<g id="node3" class="node">
<title>dir_613561f7e03d6ef64ad0fc01ff964de7</title>
<g id="a_node3"><a xlink:href="dir_613561f7e03d6ef64ad0fc01ff964de7.html" target="_top" xlink:title="model">
<polygon fill="#a2b4d6" stroke="#404040" points="245.5,-74 198.5,-74 198.5,-55 245.5,-55 245.5,-74"/>
<text text-anchor="middle" x="222" y="-62" font-family="Helvetica,sans-Serif" font-size="10.00">model</text>
</a>
</g>
</g>
<!-- dir_613561f7e03d6ef64ad0fc01ff964de7&#45;&gt;dir_899bcb725501b3e5ae04f82e9882ab67 -->
<g id="edge3" class="edge">
<title>dir_613561f7e03d6ef64ad0fc01ff964de7&#45;&gt;dir_899bcb725501b3e5ae04f82e9882ab67</title>
<g id="a_edge3"><a xlink:href="dir_000010_000011.html" target="_top">
<path fill="none" stroke="#63b8ff" d="M216.72,-54.75C212.29,-47.42 205.84,-36.73 200.38,-27.7"/>
<polygon fill="#63b8ff" stroke="#63b8ff" points="203.35,-25.84 195.19,-19.09 197.36,-29.46 203.35,-25.84"/>
</a>
</g>
<g id="a_edge3&#45;headlabel"><a xlink:href="dir_000010_000011.html" target="_top" xlink:title="13">
<text text-anchor="middle" x="207.64" y="-24.95" font-family="Helvetica,sans-Serif" font-size="10.00" fill="#63b8ff">13</text>
</a>
</g>
</g>
<!-- dir_a591d669b92fb8086eca2e5c5fa5dcee -->
<g id="node4" class="node">
<title>dir_a591d669b92fb8086eca2e5c5fa5dcee</title>
<g id="a_node4"><a xlink:href="dir_a591d669b92fb8086eca2e5c5fa5dcee.html" target="_top" xlink:title="regex">
<polygon fill="#a2b4d6" stroke="#404040" points="180,-74 136,-74 136,-55 180,-55 180,-74"/>
<text text-anchor="middle" x="158" y="-62" font-family="Helvetica,sans-Serif" font-size="10.00">regex</text>
</a>
</g>
</g>
<!-- dir_a591d669b92fb8086eca2e5c5fa5dcee&#45;&gt;dir_899bcb725501b3e5ae04f82e9882ab67 -->
<g id="edge4" class="edge">
<title>dir_a591d669b92fb8086eca2e5c5fa5dcee&#45;&gt;dir_899bcb725501b3e5ae04f82e9882ab67</title>
<g id="a_edge4"><a xlink:href="dir_000014_000011.html" target="_top">
<path fill="none" stroke="#63b8ff" d="M163.28,-54.75C167.71,-47.42 174.16,-36.73 179.62,-27.7"/>
<polygon fill="#63b8ff" stroke="#63b8ff" points="182.64,-29.46 184.81,-19.09 176.65,-25.84 182.64,-29.46"/>
</a>
</g>
<g id="a_edge4&#45;headlabel"><a xlink:href="dir_000014_000011.html" target="_top" xlink:title="6">
<text text-anchor="middle" x="183.21" y="-31.5" font-family="Helvetica,sans-Serif" font-size="10.00" fill="#63b8ff">6</text>
</a>
</g>
</g>
<!-- dir_db462f26c7382a019a43df8eb5e71b1a -->
<g id="node5" class="node">
<title>dir_db462f26c7382a019a43df8eb5e71b1a</title>
<g id="a_node5"><a xlink:href="dir_db462f26c7382a019a43df8eb5e71b1a.html" target="_top" xlink:title="service">
<polygon fill="#a2b4d6" stroke="#404040" points="118,-74 66,-74 66,-55 118,-55 118,-74"/>
<text text-anchor="middle" x="92" y="-62" font-family="Helvetica,sans-Serif" font-size="10.00">service</text>
</a>
</g>
</g>
<!-- dir_db462f26c7382a019a43df8eb5e71b1a&#45;&gt;dir_899bcb725501b3e5ae04f82e9882ab67 -->
<g id="edge5" class="edge">
<title>dir_db462f26c7382a019a43df8eb5e71b1a&#45;&gt;dir_899bcb725501b3e5ae04f82e9882ab67</title>
<g id="a_edge5"><a xlink:href="dir_000016_000011.html" target="_top">
<path fill="none" stroke="#63b8ff" d="M107.75,-54.98C123.23,-46.61 147.09,-33.7 165.14,-23.95"/>
<polygon fill="#63b8ff" stroke="#63b8ff" points="166.84,-27.01 173.97,-19.17 163.51,-20.85 166.84,-27.01"/>
</a>
</g>
<g id="a_edge5&#45;headlabel"><a xlink:href="dir_000016_000011.html" target="_top" xlink:title="11">
<text text-anchor="middle" x="165.03" y="-28.71" font-family="Helvetica,sans-Serif" font-size="10.00" fill="#63b8ff">11</text>
</a>
</g>
</g>
<!-- dir_814bc877ccd2deea2d942ed0b80c2b2e -->
<g id="node6" class="node">
<title>dir_814bc877ccd2deea2d942ed0b80c2b2e</title>
<g id="a_node6"><a xlink:href="dir_814bc877ccd2deea2d942ed0b80c2b2e.html" target="_top" xlink:title="util">
<polygon fill="#a2b4d6" stroke="#404040" points="48,-74 16,-74 16,-55 48,-55 48,-74"/>
<text text-anchor="middle" x="32" y="-62" font-family="Helvetica,sans-Serif" font-size="10.00">util</text>
</a>
</g>
</g>
<!-- dir_814bc877ccd2deea2d942ed0b80c2b2e&#45;&gt;dir_899bcb725501b3e5ae04f82e9882ab67 -->
<g id="edge6" class="edge">
<title>dir_814bc877ccd2deea2d942ed0b80c2b2e&#45;&gt;dir_899bcb725501b3e5ae04f82e9882ab67</title>
<g id="a_edge6"><a xlink:href="dir_000018_000011.html" target="_top">
<path fill="none" stroke="#63b8ff" d="M43.26,-54.98C47.41,-52.13 52.26,-49.15 57,-47 86.59,-33.59 122.17,-24.14 149.08,-18.22"/>
<polygon fill="#63b8ff" stroke="#63b8ff" points="149.89,-21.63 158.94,-16.13 148.43,-14.78 149.89,-21.63"/>
</a>
</g>
<g id="a_edge6&#45;headlabel"><a xlink:href="dir_000018_000011.html" target="_top" xlink:title="12">
<text text-anchor="middle" x="146.96" y="-22.65" font-family="Helvetica,sans-Serif" font-size="10.00" fill="#63b8ff">12</text>
</a>
</g>
</g>
</g>
</svg>
