<?xml version="1.0" encoding="UTF-8" standalone="no"?>
<!DOCTYPE svg PUBLIC "-//W3C//DTD SVG 1.1//EN"
 "http://www.w3.org/Graphics/SVG/1.1/DTD/svg11.dtd">
<!-- Generated by graphviz version 2.43.0 (0)
 -->
<!-- Title: netspeak/bighashmap/ExternalMap.hpp Pages: 1 -->
<svg width="1527pt" height="269pt"
 viewBox="0.00 0.00 1527.05 269.00" xmlns="http://www.w3.org/2000/svg" xmlns:xlink="http://www.w3.org/1999/xlink">
<g id="graph0" class="graph" transform="scale(1 1) rotate(0) translate(4 265)">
<title>netspeak/bighashmap/ExternalMap.hpp</title>
<!-- Node1 -->
<g id="Node000001" class="node">
<title>Node1</title>
<g id="a_Node000001"><a xlink:title=" ">
<polygon fill="#999999" stroke="#666666" points="538,-261 413,-261 413,-231 538,-231 538,-261"/>
<text text-anchor="start" x="421" y="-249" font-family="Helvetica,sans-Serif" font-size="10.00">netspeak/bighashmap</text>
<text text-anchor="middle" x="475.5" y="-238" font-family="Helvetica,sans-Serif" font-size="10.00">/ExternalMap.hpp</text>
</a>
</g>
</g>
<!-- Node2 -->
<g id="Node000002" class="node">
<title>Node2</title>
<g id="a_Node000002"><a xlink:title=" ">
<polygon fill="#e0e0e0" stroke="#999999" points="859,-140 806,-140 806,-121 859,-121 859,-140"/>
<text text-anchor="middle" x="832.5" y="-128" font-family="Helvetica,sans-Serif" font-size="10.00">cmph.h</text>
</a>
</g>
</g>
<!-- Node1&#45;&gt;Node2 -->
<g id="edge1_Node000001_Node000002" class="edge">
<title>Node1&#45;&gt;Node2</title>
<g id="a_edge1_Node000001_Node000002"><a xlink:title=" ">
<path fill="none" stroke="#63b8ff" d="M538.17,-231.83C578.16,-222.84 630.86,-209.88 676.5,-195 722.16,-180.11 773.43,-158.19 804.33,-144.39"/>
<polygon fill="#63b8ff" stroke="#63b8ff" points="805.93,-147.51 813.61,-140.21 803.06,-141.13 805.93,-147.51"/>
</a>
</g>
</g>
<!-- Node3 -->
<g id="Node000003" class="node">
<title>Node3</title>
<g id="a_Node000003"><a xlink:title=" ">
<polygon fill="#e0e0e0" stroke="#999999" points="147.5,-140 99.5,-140 99.5,-121 147.5,-121 147.5,-140"/>
<text text-anchor="middle" x="123.5" y="-128" font-family="Helvetica,sans-Serif" font-size="10.00">mutex</text>
</a>
</g>
</g>
<!-- Node1&#45;&gt;Node3 -->
<g id="edge2_Node000001_Node000003" class="edge">
<title>Node1&#45;&gt;Node3</title>
<g id="a_edge2_Node000001_Node000003"><a xlink:title=" ">
<path fill="none" stroke="#63b8ff" d="M412.81,-244.81C352.04,-242.25 258.86,-231.85 187.5,-195 166.08,-183.94 147.27,-163.2 135.68,-148.43"/>
<polygon fill="#63b8ff" stroke="#63b8ff" points="138.25,-146.03 129.44,-140.15 132.66,-150.24 138.25,-146.03"/>
</a>
</g>
</g>
<!-- Node4 -->
<g id="Node000004" class="node">
<title>Node4</title>
<g id="a_Node000004"><a xlink:title=" ">
<polygon fill="#e0e0e0" stroke="#999999" points="497.5,-19 453.5,-19 453.5,0 497.5,0 497.5,-19"/>
<text text-anchor="middle" x="475.5" y="-7" font-family="Helvetica,sans-Serif" font-size="10.00">string</text>
</a>
</g>
</g>
<!-- Node1&#45;&gt;Node4 -->
<g id="edge3_Node000001_Node000004" class="edge">
<title>Node1&#45;&gt;Node4</title>
<g id="a_edge3_Node000001_Node000004"><a xlink:title=" ">
<path fill="none" stroke="#63b8ff" d="M475.5,-230.68C475.5,-190.25 475.5,-75.17 475.5,-29.51"/>
<polygon fill="#63b8ff" stroke="#63b8ff" points="479,-29.26 475.5,-19.26 472,-29.26 479,-29.26"/>
</a>
</g>
</g>
<!-- Node5 -->
<g id="Node000005" class="node">
<title>Node5</title>
<g id="a_Node000005"><a xlink:title=" ">
<polygon fill="#e0e0e0" stroke="#999999" points="662,-79.5 593,-79.5 593,-60.5 662,-60.5 662,-79.5"/>
<text text-anchor="middle" x="627.5" y="-67.5" font-family="Helvetica,sans-Serif" font-size="10.00">type_traits</text>
</a>
</g>
</g>
<!-- Node1&#45;&gt;Node5 -->
<g id="edge4_Node000001_Node000005" class="edge">
<title>Node1&#45;&gt;Node5</title>
<g id="a_edge4_Node000001_Node000005"><a xlink:title=" ">
<path fill="none" stroke="#63b8ff" d="M478.84,-230.64C485.31,-205.6 501.7,-153.5 532.5,-121 548.62,-103.99 571.83,-91.63 591.27,-83.45"/>
<polygon fill="#63b8ff" stroke="#63b8ff" points="592.76,-86.62 600.75,-79.66 590.16,-80.12 592.76,-86.62"/>
</a>
</g>
</g>
<!-- Node6 -->
<g id="Node000006" class="node">
<title>Node6</title>
<g id="a_Node000006"><a xlink:href="checksum_8hpp.html" target="_top" xlink:title=" ">
<polygon fill="white" stroke="#666666" points="115,-195 0,-195 0,-176 115,-176 115,-195"/>
<text text-anchor="middle" x="57.5" y="-183" font-family="Helvetica,sans-Serif" font-size="10.00">../util/checksum.hpp</text>
</a>
</g>
</g>
<!-- Node1&#45;&gt;Node6 -->
<g id="edge5_Node000001_Node000006" class="edge">
<title>Node1&#45;&gt;Node6</title>
<g id="a_edge5_Node000001_Node000006"><a xlink:title=" ">
<path fill="none" stroke="#63b8ff" d="M412.92,-236.24C335.6,-225.42 204.56,-207.08 125.03,-195.95"/>
<polygon fill="#63b8ff" stroke="#63b8ff" points="125.51,-192.48 115.12,-194.56 124.54,-199.42 125.51,-192.48"/>
</a>
</g>
</g>
<!-- Node8 -->
<g id="Node000008" class="node">
<title>Node8</title>
<g id="a_Node000008"><a xlink:href="netspeak_2util_2logging_8hpp.html" target="_top" xlink:title=" ">
<polygon fill="white" stroke="#666666" points="298,-195 197,-195 197,-176 298,-176 298,-195"/>
<text text-anchor="middle" x="247.5" y="-183" font-family="Helvetica,sans-Serif" font-size="10.00">../util/logging.hpp</text>
</a>
</g>
</g>
<!-- Node1&#45;&gt;Node8 -->
<g id="edge8_Node000001_Node000008" class="edge">
<title>Node1&#45;&gt;Node8</title>
<g id="a_edge8_Node000001_Node000008"><a xlink:title=" ">
<path fill="none" stroke="#63b8ff" d="M420.89,-230.99C381.03,-220.76 327.73,-207.09 290.8,-197.61"/>
<polygon fill="#63b8ff" stroke="#63b8ff" points="291.39,-194.15 280.84,-195.05 289.65,-200.93 291.39,-194.15"/>
</a>
</g>
</g>
<!-- Node11 -->
<g id="Node000011" class="node">
<title>Node11</title>
<g id="a_Node000011"><a xlink:href="systemio_8hpp.html" target="_top" xlink:title=" ">
<polygon fill="white" stroke="#666666" points="1413.5,-140 1303.5,-140 1303.5,-121 1413.5,-121 1413.5,-140"/>
<text text-anchor="middle" x="1358.5" y="-128" font-family="Helvetica,sans-Serif" font-size="10.00">../util/systemio.hpp</text>
</a>
</g>
</g>
<!-- Node1&#45;&gt;Node11 -->
<g id="edge13_Node000001_Node000011" class="edge">
<title>Node1&#45;&gt;Node11</title>
<g id="a_edge13_Node000001_Node000011"><a xlink:title=" ">
<path fill="none" stroke="#63b8ff" d="M538.24,-241.63C642.49,-235.54 857.83,-220.87 1038.5,-195 1136.75,-180.93 1250.44,-156.37 1312.39,-142.27"/>
<polygon fill="#63b8ff" stroke="#63b8ff" points="1313.28,-145.66 1322.25,-140.02 1311.72,-138.83 1313.28,-145.66"/>
</a>
</g>
</g>
<!-- Node19 -->
<g id="Node000019" class="node">
<title>Node19</title>
<g id="a_Node000019"><a xlink:href="pair_8hpp.html" target="_top" xlink:title=" ">
<polygon fill="white" stroke="#666666" points="409,-140 314,-140 314,-121 409,-121 409,-140"/>
<text text-anchor="middle" x="361.5" y="-128" font-family="Helvetica,sans-Serif" font-size="10.00">../value/pair.hpp</text>
</a>
</g>
</g>
<!-- Node1&#45;&gt;Node19 -->
<g id="edge24_Node000001_Node000019" class="edge">
<title>Node1&#45;&gt;Node19</title>
<g id="a_edge24_Node000001_Node000019"><a xlink:title=" ">
<path fill="none" stroke="#63b8ff" d="M460.36,-230.68C449.92,-220.75 435.77,-207.17 423.5,-195 407.38,-179 389.27,-160.37 376.8,-147.45"/>
<polygon fill="#63b8ff" stroke="#63b8ff" points="379.29,-144.99 369.84,-140.21 374.25,-149.84 379.29,-144.99"/>
</a>
</g>
</g>
<!-- Node21 -->
<g id="Node000021" class="node">
<title>Node21</title>
<g id="a_Node000021"><a xlink:href="pair__traits_8hpp.html" target="_top" xlink:title=" ">
<polygon fill="white" stroke="#666666" points="667.5,-195 541.5,-195 541.5,-176 667.5,-176 667.5,-195"/>
<text text-anchor="middle" x="604.5" y="-183" font-family="Helvetica,sans-Serif" font-size="10.00">../value/pair_traits.hpp</text>
</a>
</g>
</g>
<!-- Node1&#45;&gt;Node21 -->
<g id="edge26_Node000001_Node000021" class="edge">
<title>Node1&#45;&gt;Node21</title>
<g id="a_edge26_Node000001_Node000021"><a xlink:title=" ">
<path fill="none" stroke="#63b8ff" d="M506.4,-230.99C527.63,-221.36 555.61,-208.67 576.25,-199.31"/>
<polygon fill="#63b8ff" stroke="#63b8ff" points="577.79,-202.46 585.45,-195.14 574.9,-196.08 577.79,-202.46"/>
</a>
</g>
</g>
<!-- Node25 -->
<g id="Node000025" class="node">
<title>Node25</title>
<g id="a_Node000025"><a xlink:href="CmphMap_8hpp.html" target="_top" xlink:title=" ">
<polygon fill="white" stroke="#666666" points="1029,-195 942,-195 942,-176 1029,-176 1029,-195"/>
<text text-anchor="middle" x="985.5" y="-183" font-family="Helvetica,sans-Serif" font-size="10.00">CmphMap.hpp</text>
</a>
</g>
</g>
<!-- Node1&#45;&gt;Node25 -->
<g id="edge39_Node000001_Node000025" class="edge">
<title>Node1&#45;&gt;Node25</title>
<g id="a_edge39_Node000001_Node000025"><a xlink:title=" ">
<path fill="none" stroke="#63b8ff" d="M538.04,-237.83C639.15,-226.23 836.79,-203.56 931.88,-192.65"/>
<polygon fill="#63b8ff" stroke="#63b8ff" points="932.32,-196.12 941.85,-191.51 931.52,-189.17 932.32,-196.12"/>
</a>
</g>
</g>
<!-- Node6&#45;&gt;Node4 -->
<g id="edge7_Node000006_Node000004" class="edge">
<title>Node6&#45;&gt;Node4</title>
<g id="a_edge7_Node000006_Node000004"><a xlink:title=" ">
<path fill="none" stroke="#63b8ff" d="M46.85,-175.69C32.62,-162.84 10.7,-138.59 24.5,-121 76.97,-54.13 349.01,-22.45 443.29,-13.36"/>
<polygon fill="#63b8ff" stroke="#63b8ff" points="443.75,-16.83 453.37,-12.41 443.09,-9.86 443.75,-16.83"/>
</a>
</g>
</g>
<!-- Node7 -->
<g id="Node000007" class="node">
<title>Node7</title>
<g id="a_Node000007"><a xlink:title=" ">
<polygon fill="#e0e0e0" stroke="#999999" points="81,-140 34,-140 34,-121 81,-121 81,-140"/>
<text text-anchor="middle" x="57.5" y="-128" font-family="Helvetica,sans-Serif" font-size="10.00">cmath</text>
</a>
</g>
</g>
<!-- Node6&#45;&gt;Node7 -->
<g id="edge6_Node000006_Node000007" class="edge">
<title>Node6&#45;&gt;Node7</title>
<g id="a_edge6_Node000006_Node000007"><a xlink:title=" ">
<path fill="none" stroke="#63b8ff" d="M57.5,-175.75C57.5,-168.8 57.5,-158.85 57.5,-150.13"/>
<polygon fill="#63b8ff" stroke="#63b8ff" points="61,-150.09 57.5,-140.09 54,-150.09 61,-150.09"/>
</a>
</g>
</g>
<!-- Node8&#45;&gt;Node3 -->
<g id="edge11_Node000008_Node000003" class="edge">
<title>Node8&#45;&gt;Node3</title>
<g id="a_edge11_Node000008_Node000003"><a xlink:title=" ">
<path fill="none" stroke="#63b8ff" d="M227.58,-175.98C207.45,-167.38 176.12,-153.99 153.09,-144.15"/>
<polygon fill="#63b8ff" stroke="#63b8ff" points="154.36,-140.88 143.79,-140.17 151.6,-147.32 154.36,-140.88"/>
</a>
</g>
</g>
<!-- Node8&#45;&gt;Node4 -->
<g id="edge12_Node000008_Node000004" class="edge">
<title>Node8&#45;&gt;Node4</title>
<g id="a_edge12_Node000008_Node000004"><a xlink:title=" ">
<path fill="none" stroke="#63b8ff" d="M250.25,-175.84C258.23,-152.2 283.81,-86.24 329.5,-55 364.29,-31.22 412.19,-19.81 443.5,-14.58"/>
<polygon fill="#63b8ff" stroke="#63b8ff" points="444.09,-18.03 453.43,-13.04 443.01,-11.11 444.09,-18.03"/>
</a>
</g>
</g>
<!-- Node9 -->
<g id="Node000009" class="node">
<title>Node9</title>
<g id="a_Node000009"><a xlink:title=" ">
<polygon fill="#e0e0e0" stroke="#999999" points="574.5,-79.5 514.5,-79.5 514.5,-60.5 574.5,-60.5 574.5,-79.5"/>
<text text-anchor="middle" x="544.5" y="-67.5" font-family="Helvetica,sans-Serif" font-size="10.00">iostream</text>
</a>
</g>
</g>
<!-- Node8&#45;&gt;Node9 -->
<g id="edge9_Node000008_Node000009" class="edge">
<title>Node8&#45;&gt;Node9</title>
<g id="a_edge9_Node000008_Node000009"><a xlink:title=" ">
<path fill="none" stroke="#63b8ff" d="M252.6,-175.94C261.35,-162.04 280.62,-134.75 304.5,-121 367.86,-84.52 454.25,-74.49 504.24,-71.83"/>
<polygon fill="#63b8ff" stroke="#63b8ff" points="504.5,-75.32 514.33,-71.37 504.18,-68.33 504.5,-75.32"/>
</a>
</g>
</g>
<!-- Node10 -->
<g id="Node000010" class="node">
<title>Node10</title>
<g id="a_Node000010"><a xlink:title=" ">
<polygon fill="#e0e0e0" stroke="#999999" points="219,-140 166,-140 166,-121 219,-121 219,-140"/>
<text text-anchor="middle" x="192.5" y="-128" font-family="Helvetica,sans-Serif" font-size="10.00">iterator</text>
</a>
</g>
</g>
<!-- Node8&#45;&gt;Node10 -->
<g id="edge10_Node000008_Node000010" class="edge">
<title>Node8&#45;&gt;Node10</title>
<g id="a_edge10_Node000008_Node000010"><a xlink:title=" ">
<path fill="none" stroke="#63b8ff" d="M238.42,-175.75C230.41,-168.03 218.54,-156.6 208.88,-147.28"/>
<polygon fill="#63b8ff" stroke="#63b8ff" points="211.04,-144.51 201.41,-140.09 206.19,-149.55 211.04,-144.51"/>
</a>
</g>
</g>
<!-- Node12 -->
<g id="Node000012" class="node">
<title>Node12</title>
<g id="a_Node000012"><a xlink:title=" ">
<polygon fill="#e0e0e0" stroke="#999999" points="1502.5,-79.5 1446.5,-79.5 1446.5,-60.5 1502.5,-60.5 1502.5,-79.5"/>
<text text-anchor="middle" x="1474.5" y="-67.5" font-family="Helvetica,sans-Serif" font-size="10.00">assert.h</text>
</a>
</g>
</g>
<!-- Node11&#45;&gt;Node12 -->
<g id="edge14_Node000011_Node000012" class="edge">
<title>Node11&#45;&gt;Node12</title>
<g id="a_edge14_Node000011_Node000012"><a xlink:title=" ">
<path fill="none" stroke="#63b8ff" d="M1375.62,-120.87C1394.72,-111.23 1425.87,-95.53 1448.1,-84.31"/>
<polygon fill="#63b8ff" stroke="#63b8ff" points="1449.96,-87.3 1457.31,-79.67 1446.81,-81.05 1449.96,-87.3"/>
</a>
</g>
</g>
<!-- Node13 -->
<g id="Node000013" class="node">
<title>Node13</title>
<g id="a_Node000013"><a xlink:title=" ">
<polygon fill="#e0e0e0" stroke="#999999" points="1390.5,-79.5 1340.5,-79.5 1340.5,-60.5 1390.5,-60.5 1390.5,-79.5"/>
<text text-anchor="middle" x="1365.5" y="-67.5" font-family="Helvetica,sans-Serif" font-size="10.00">climits</text>
</a>
</g>
</g>
<!-- Node11&#45;&gt;Node13 -->
<g id="edge15_Node000011_Node000013" class="edge">
<title>Node11&#45;&gt;Node13</title>
<g id="a_edge15_Node000011_Node000013"><a xlink:title=" ">
<path fill="none" stroke="#63b8ff" d="M1359.53,-120.87C1360.5,-112.75 1361.99,-100.31 1363.24,-89.89"/>
<polygon fill="#63b8ff" stroke="#63b8ff" points="1366.75,-90.01 1364.46,-79.67 1359.8,-89.18 1366.75,-90.01"/>
</a>
</g>
</g>
<!-- Node14 -->
<g id="Node000014" class="node">
<title>Node14</title>
<g id="a_Node000014"><a xlink:title=" ">
<polygon fill="#e0e0e0" stroke="#999999" points="1140.5,-79.5 1090.5,-79.5 1090.5,-60.5 1140.5,-60.5 1140.5,-79.5"/>
<text text-anchor="middle" x="1115.5" y="-67.5" font-family="Helvetica,sans-Serif" font-size="10.00">cstring</text>
</a>
</g>
</g>
<!-- Node11&#45;&gt;Node14 -->
<g id="edge16_Node000011_Node000014" class="edge">
<title>Node11&#45;&gt;Node14</title>
<g id="a_edge16_Node000011_Node000014"><a xlink:title=" ">
<path fill="none" stroke="#63b8ff" d="M1306.59,-120.92C1264.13,-113.31 1202.78,-100.92 1150.5,-85 1148.62,-84.43 1146.7,-83.8 1144.78,-83.13"/>
<polygon fill="#63b8ff" stroke="#63b8ff" points="1145.87,-79.8 1135.28,-79.59 1143.43,-86.36 1145.87,-79.8"/>
</a>
</g>
</g>
<!-- Node15 -->
<g id="Node000015" class="node">
<title>Node15</title>
<g id="a_Node000015"><a xlink:title=" ">
<polygon fill="#e0e0e0" stroke="#999999" points="1452.5,-19 1384.5,-19 1384.5,0 1452.5,0 1452.5,-19"/>
<text text-anchor="middle" x="1418.5" y="-7" font-family="Helvetica,sans-Serif" font-size="10.00">filesystem</text>
</a>
</g>
</g>
<!-- Node11&#45;&gt;Node15 -->
<g id="edge17_Node000011_Node000015" class="edge">
<title>Node11&#45;&gt;Node15</title>
<g id="a_edge17_Node000011_Node000015"><a xlink:title=" ">
<path fill="none" stroke="#63b8ff" d="M1369.17,-120.71C1378.52,-112.43 1391.79,-99.22 1399.5,-85 1409.03,-67.44 1413.91,-44.95 1416.32,-29.29"/>
<polygon fill="#63b8ff" stroke="#63b8ff" points="1419.8,-29.65 1417.67,-19.27 1412.87,-28.71 1419.8,-29.65"/>
</a>
</g>
</g>
<!-- Node16 -->
<g id="Node000016" class="node">
<title>Node16</title>
<g id="a_Node000016"><a xlink:title=" ">
<polygon fill="#e0e0e0" stroke="#999999" points="1003.5,-19 953.5,-19 953.5,0 1003.5,0 1003.5,-19"/>
<text text-anchor="middle" x="978.5" y="-7" font-family="Helvetica,sans-Serif" font-size="10.00">format</text>
</a>
</g>
</g>
<!-- Node11&#45;&gt;Node16 -->
<g id="edge18_Node000011_Node000016" class="edge">
<title>Node11&#45;&gt;Node16</title>
<g id="a_edge18_Node000011_Node000016"><a xlink:title=" ">
<path fill="none" stroke="#63b8ff" d="M1353.78,-120.8C1344.55,-104.76 1322.47,-70.71 1293.5,-55 1245.82,-29.14 1085.87,-16.77 1014,-12.41"/>
<polygon fill="#63b8ff" stroke="#63b8ff" points="1013.84,-8.89 1003.65,-11.8 1013.43,-15.88 1013.84,-8.89"/>
</a>
</g>
</g>
<!-- Node17 -->
<g id="Node000017" class="node">
<title>Node17</title>
<g id="a_Node000017"><a xlink:href="std__path__formatter_8hpp.html" target="_top" xlink:title="Defines an std::formatter for std::filesystem::path. MUST be deleted when C++26 is available with tha...">
<polygon fill="white" stroke="#666666" points="1284,-85 1159,-85 1159,-55 1284,-55 1284,-85"/>
<text text-anchor="start" x="1167" y="-73" font-family="Helvetica,sans-Serif" font-size="10.00">netspeak/util/std_path</text>
<text text-anchor="middle" x="1221.5" y="-62" font-family="Helvetica,sans-Serif" font-size="10.00">_formatter.hpp</text>
</a>
</g>
</g>
<!-- Node11&#45;&gt;Node17 -->
<g id="edge19_Node000011_Node000017" class="edge">
<title>Node11&#45;&gt;Node17</title>
<g id="a_edge19_Node000011_Node000017"><a xlink:title=" ">
<path fill="none" stroke="#63b8ff" d="M1338.58,-120.99C1319.03,-112.65 1288.62,-99.66 1263.69,-89.02"/>
<polygon fill="#63b8ff" stroke="#63b8ff" points="1265.01,-85.77 1254.44,-85.06 1262.26,-92.21 1265.01,-85.77"/>
</a>
</g>
</g>
<!-- Node18 -->
<g id="Node000018" class="node">
<title>Node18</title>
<g id="a_Node000018"><a xlink:title=" ">
<polygon fill="#e0e0e0" stroke="#999999" points="1072,-79.5 1007,-79.5 1007,-60.5 1072,-60.5 1072,-79.5"/>
<text text-anchor="middle" x="1039.5" y="-67.5" font-family="Helvetica,sans-Serif" font-size="10.00">stdexcept</text>
</a>
</g>
</g>
<!-- Node11&#45;&gt;Node18 -->
<g id="edge23_Node000011_Node000018" class="edge">
<title>Node11&#45;&gt;Node18</title>
<g id="a_edge23_Node000011_Node000018"><a xlink:title=" ">
<path fill="none" stroke="#63b8ff" d="M1303.23,-121.71C1234.86,-111.88 1122.48,-95.05 1081.5,-85 1078.54,-84.27 1075.48,-83.43 1072.43,-82.54"/>
<polygon fill="#63b8ff" stroke="#63b8ff" points="1073.44,-79.18 1062.85,-79.53 1071.34,-85.86 1073.44,-79.18"/>
</a>
</g>
</g>
<!-- Node17&#45;&gt;Node4 -->
<g id="edge22_Node000017_Node000004" class="edge">
<title>Node17&#45;&gt;Node4</title>
<g id="a_edge22_Node000017_Node000004"><a xlink:title=" ">
<path fill="none" stroke="#63b8ff" d="M1158.75,-56.31C1155.63,-55.84 1152.53,-55.39 1149.5,-55 904.02,-23.16 605.11,-13.57 507.79,-11.19"/>
<polygon fill="#63b8ff" stroke="#63b8ff" points="507.79,-7.69 497.71,-10.95 507.62,-14.69 507.79,-7.69"/>
</a>
</g>
</g>
<!-- Node17&#45;&gt;Node15 -->
<g id="edge20_Node000017_Node000015" class="edge">
<title>Node17&#45;&gt;Node15</title>
<g id="a_edge20_Node000017_Node000015"><a xlink:title=" ">
<path fill="none" stroke="#63b8ff" d="M1268.69,-54.99C1302.68,-44.89 1348,-31.44 1379.86,-21.98"/>
<polygon fill="#63b8ff" stroke="#63b8ff" points="1381.11,-25.26 1389.7,-19.05 1379.11,-18.55 1381.11,-25.26"/>
</a>
</g>
</g>
<!-- Node17&#45;&gt;Node16 -->
<g id="edge21_Node000017_Node000016" class="edge">
<title>Node17&#45;&gt;Node16</title>
<g id="a_edge21_Node000017_Node000016"><a xlink:title=" ">
<path fill="none" stroke="#63b8ff" d="M1163.3,-54.99C1116.64,-43.76 1052.7,-28.36 1013.57,-18.94"/>
<polygon fill="#63b8ff" stroke="#63b8ff" points="1014.24,-15.5 1003.7,-16.57 1012.6,-22.31 1014.24,-15.5"/>
</a>
</g>
</g>
<!-- Node20 -->
<g id="Node000020" class="node">
<title>Node20</title>
<g id="a_Node000020"><a xlink:title=" ">
<polygon fill="#e0e0e0" stroke="#999999" points="384,-79.5 339,-79.5 339,-60.5 384,-60.5 384,-79.5"/>
<text text-anchor="middle" x="361.5" y="-67.5" font-family="Helvetica,sans-Serif" font-size="10.00">utility</text>
</a>
</g>
</g>
<!-- Node19&#45;&gt;Node20 -->
<g id="edge25_Node000019_Node000020" class="edge">
<title>Node19&#45;&gt;Node20</title>
<g id="a_edge25_Node000019_Node000020"><a xlink:title=" ">
<path fill="none" stroke="#63b8ff" d="M361.5,-120.87C361.5,-112.75 361.5,-100.31 361.5,-89.89"/>
<polygon fill="#63b8ff" stroke="#63b8ff" points="365,-89.67 361.5,-79.67 358,-89.67 365,-89.67"/>
</a>
</g>
</g>
<!-- Node21&#45;&gt;Node4 -->
<g id="edge38_Node000021_Node000004" class="edge">
<title>Node21&#45;&gt;Node4</title>
<g id="a_edge38_Node000021_Node000004"><a xlink:title=" ">
<path fill="none" stroke="#63b8ff" d="M584.35,-175.87C568.6,-168.3 547.01,-156 532.5,-140 502.62,-107.06 486.49,-55.94 479.61,-28.83"/>
<polygon fill="#63b8ff" stroke="#63b8ff" points="483.02,-28.01 477.28,-19.1 476.21,-29.64 483.02,-28.01"/>
</a>
</g>
</g>
<!-- Node21&#45;&gt;Node16 -->
<g id="edge36_Node000021_Node000016" class="edge">
<title>Node21&#45;&gt;Node16</title>
<g id="a_edge36_Node000021_Node000016"><a xlink:title=" ">
<path fill="none" stroke="#63b8ff" d="M643.08,-175.92C674.54,-168.31 719.78,-155.92 757.5,-140 798.21,-122.81 908.92,-54.26 956.39,-24.45"/>
<polygon fill="#63b8ff" stroke="#63b8ff" points="958.41,-27.32 965.01,-19.04 954.68,-21.4 958.41,-27.32"/>
</a>
</g>
</g>
<!-- Node21&#45;&gt;Node19 -->
<g id="edge27_Node000021_Node000019" class="edge">
<title>Node21&#45;&gt;Node19</title>
<g id="a_edge27_Node000021_Node000019"><a xlink:title=" ">
<path fill="none" stroke="#63b8ff" d="M565.46,-175.98C523.42,-166.82 456.46,-152.21 410.82,-142.26"/>
<polygon fill="#63b8ff" stroke="#63b8ff" points="411.36,-138.79 400.85,-140.08 409.87,-145.63 411.36,-138.79"/>
</a>
</g>
</g>
<!-- Node22 -->
<g id="Node000022" class="node">
<title>Node22</title>
<g id="a_Node000022"><a xlink:href="value__traits_8hpp.html" target="_top" xlink:title=" ">
<polygon fill="white" stroke="#666666" points="749,-140 654,-140 654,-121 749,-121 749,-140"/>
<text text-anchor="middle" x="701.5" y="-128" font-family="Helvetica,sans-Serif" font-size="10.00">value_traits.hpp</text>
</a>
</g>
</g>
<!-- Node21&#45;&gt;Node22 -->
<g id="edge28_Node000021_Node000022" class="edge">
<title>Node21&#45;&gt;Node22</title>
<g id="a_edge28_Node000021_Node000022"><a xlink:title=" ">
<path fill="none" stroke="#63b8ff" d="M620.08,-175.98C635.27,-167.69 658.6,-154.94 676.4,-145.22"/>
<polygon fill="#63b8ff" stroke="#63b8ff" points="678.53,-148.04 685.63,-140.17 675.18,-141.89 678.53,-148.04"/>
</a>
</g>
</g>
<!-- Node24 -->
<g id="Node000024" class="node">
<title>Node24</title>
<g id="a_Node000024"><a xlink:title=" ">
<polygon fill="#e0e0e0" stroke="#999999" points="597.5,-140 541.5,-140 541.5,-121 597.5,-121 597.5,-140"/>
<text text-anchor="middle" x="569.5" y="-128" font-family="Helvetica,sans-Serif" font-size="10.00">sstream</text>
</a>
</g>
</g>
<!-- Node21&#45;&gt;Node24 -->
<g id="edge37_Node000021_Node000024" class="edge">
<title>Node21&#45;&gt;Node24</title>
<g id="a_edge37_Node000021_Node000024"><a xlink:title=" ">
<path fill="none" stroke="#63b8ff" d="M598.72,-175.75C593.88,-168.42 586.82,-157.73 580.86,-148.7"/>
<polygon fill="#63b8ff" stroke="#63b8ff" points="583.6,-146.5 575.17,-140.09 577.76,-150.36 583.6,-146.5"/>
</a>
</g>
</g>
<!-- Node22&#45;&gt;Node4 -->
<g id="edge34_Node000022_Node000004" class="edge">
<title>Node22&#45;&gt;Node4</title>
<g id="a_edge34_Node000022_Node000004"><a xlink:title=" ">
<path fill="none" stroke="#63b8ff" d="M700.48,-120.87C698.15,-105.23 690.96,-72.25 670.5,-55 646.14,-34.46 556.48,-20.5 507.67,-14.24"/>
<polygon fill="#63b8ff" stroke="#63b8ff" points="507.99,-10.75 497.63,-12.99 507.12,-17.7 507.99,-10.75"/>
</a>
</g>
</g>
<!-- Node22&#45;&gt;Node5 -->
<g id="edge35_Node000022_Node000005" class="edge">
<title>Node22&#45;&gt;Node5</title>
<g id="a_edge35_Node000022_Node000005"><a xlink:title=" ">
<path fill="none" stroke="#63b8ff" d="M690.58,-120.87C678.99,-111.71 660.47,-97.06 646.48,-86.01"/>
<polygon fill="#63b8ff" stroke="#63b8ff" points="648.48,-83.12 638.46,-79.67 644.14,-88.61 648.48,-83.12"/>
</a>
</g>
</g>
<!-- Node22&#45;&gt;Node9 -->
<g id="edge32_Node000022_Node000009" class="edge">
<title>Node22&#45;&gt;Node9</title>
<g id="a_edge32_Node000022_Node000009"><a xlink:title=" ">
<path fill="none" stroke="#63b8ff" d="M678.67,-120.99C651.93,-111.03 607.42,-94.45 577.06,-83.13"/>
<polygon fill="#63b8ff" stroke="#63b8ff" points="577.95,-79.73 567.36,-79.52 575.51,-86.29 577.95,-79.73"/>
</a>
</g>
</g>
<!-- Node22&#45;&gt;Node14 -->
<g id="edge30_Node000022_Node000014" class="edge">
<title>Node22&#45;&gt;Node14</title>
<g id="a_edge30_Node000022_Node000014"><a xlink:title=" ">
<path fill="none" stroke="#63b8ff" d="M749.15,-124.66C843.98,-114.91 1049.99,-93.17 1081.5,-85 1083.45,-84.5 1085.43,-83.9 1087.41,-83.25"/>
<polygon fill="#63b8ff" stroke="#63b8ff" points="1088.96,-86.41 1097.11,-79.65 1086.52,-79.85 1088.96,-86.41"/>
</a>
</g>
</g>
<!-- Node22&#45;&gt;Node16 -->
<g id="edge31_Node000022_Node000016" class="edge">
<title>Node22&#45;&gt;Node16</title>
<g id="a_edge31_Node000022_Node000016"><a xlink:title=" ">
<path fill="none" stroke="#63b8ff" d="M721.42,-120.94C769.52,-100.28 892.19,-47.58 948.91,-23.21"/>
<polygon fill="#63b8ff" stroke="#63b8ff" points="950.58,-26.3 958.39,-19.14 947.82,-19.87 950.58,-26.3"/>
</a>
</g>
</g>
<!-- Node22&#45;&gt;Node18 -->
<g id="edge33_Node000022_Node000018" class="edge">
<title>Node22&#45;&gt;Node18</title>
<g id="a_edge33_Node000022_Node000018"><a xlink:title=" ">
<path fill="none" stroke="#63b8ff" d="M749.21,-121.24C815.23,-109.82 933.45,-89.36 996.73,-78.4"/>
<polygon fill="#63b8ff" stroke="#63b8ff" points="997.52,-81.82 1006.78,-76.66 996.33,-74.92 997.52,-81.82"/>
</a>
</g>
</g>
<!-- Node23 -->
<g id="Node000023" class="node">
<title>Node23</title>
<g id="a_Node000023"><a xlink:title=" ">
<polygon fill="#e0e0e0" stroke="#999999" points="768.5,-79.5 718.5,-79.5 718.5,-60.5 768.5,-60.5 768.5,-79.5"/>
<text text-anchor="middle" x="743.5" y="-67.5" font-family="Helvetica,sans-Serif" font-size="10.00">cstdint</text>
</a>
</g>
</g>
<!-- Node22&#45;&gt;Node23 -->
<g id="edge29_Node000022_Node000023" class="edge">
<title>Node22&#45;&gt;Node23</title>
<g id="a_edge29_Node000022_Node000023"><a xlink:title=" ">
<path fill="none" stroke="#63b8ff" d="M707.7,-120.87C713.9,-112.23 723.61,-98.7 731.36,-87.92"/>
<polygon fill="#63b8ff" stroke="#63b8ff" points="734.29,-89.83 737.28,-79.67 728.6,-85.75 734.29,-89.83"/>
</a>
</g>
</g>
<!-- Node25&#45;&gt;Node2 -->
<g id="edge40_Node000025_Node000002" class="edge">
<title>Node25&#45;&gt;Node2</title>
<g id="a_edge40_Node000025_Node000002"><a xlink:title=" ">
<path fill="none" stroke="#63b8ff" d="M960.92,-175.98C935.45,-167.16 895.46,-153.31 866.87,-143.41"/>
<polygon fill="#63b8ff" stroke="#63b8ff" points="867.87,-140.05 857.27,-140.08 865.58,-146.66 867.87,-140.05"/>
</a>
</g>
</g>
<!-- Node25&#45;&gt;Node4 -->
<g id="edge46_Node000025_Node000004" class="edge">
<title>Node25&#45;&gt;Node4</title>
<g id="a_edge46_Node000025_Node000004"><a xlink:title=" ">
<path fill="none" stroke="#63b8ff" d="M969.57,-175.95C953.49,-167.22 928,-153.12 906.5,-140 847.89,-104.24 841.65,-79.47 777.5,-55 684,-19.33 564.12,-12.07 507.65,-10.72"/>
<polygon fill="#63b8ff" stroke="#63b8ff" points="507.61,-7.21 497.55,-10.52 507.48,-14.21 507.61,-7.21"/>
</a>
</g>
</g>
<!-- Node25&#45;&gt;Node9 -->
<g id="edge44_Node000025_Node000009" class="edge">
<title>Node25&#45;&gt;Node9</title>
<g id="a_edge44_Node000025_Node000009"><a xlink:title=" ">
<path fill="none" stroke="#63b8ff" d="M941.92,-185.27C875.49,-185.02 745.93,-178.98 644.5,-140 612.06,-127.53 579.95,-102.53 561.19,-86.29"/>
<polygon fill="#63b8ff" stroke="#63b8ff" points="563.36,-83.54 553.55,-79.53 558.72,-88.78 563.36,-83.54"/>
</a>
</g>
</g>
<!-- Node25&#45;&gt;Node11 -->
<g id="edge49_Node000025_Node000011" class="edge">
<title>Node25&#45;&gt;Node11</title>
<g id="a_edge49_Node000025_Node000011"><a xlink:title=" ">
<path fill="none" stroke="#63b8ff" d="M1029.02,-178.32C1094.22,-169.05 1217.68,-151.51 1293.56,-140.73"/>
<polygon fill="#63b8ff" stroke="#63b8ff" points="1294.08,-144.19 1303.49,-139.32 1293.09,-137.26 1294.08,-144.19"/>
</a>
</g>
</g>
<!-- Node25&#45;&gt;Node15 -->
<g id="edge42_Node000025_Node000015" class="edge">
<title>Node25&#45;&gt;Node15</title>
<g id="a_edge42_Node000025_Node000015"><a xlink:title=" ">
<path fill="none" stroke="#63b8ff" d="M1029.08,-182.55C1124.75,-177.86 1350.38,-164.5 1422.5,-140 1474.29,-122.4 1540.66,-101.28 1511.5,-55 1500.53,-37.59 1480.66,-26.84 1462.09,-20.29"/>
<polygon fill="#63b8ff" stroke="#63b8ff" points="1463.15,-16.95 1452.56,-17.22 1461.01,-23.61 1463.15,-16.95"/>
</a>
</g>
</g>
<!-- Node25&#45;&gt;Node16 -->
<g id="edge43_Node000025_Node000016" class="edge">
<title>Node25&#45;&gt;Node16</title>
<g id="a_edge43_Node000025_Node000016"><a xlink:title=" ">
<path fill="none" stroke="#63b8ff" d="M985.14,-175.63C984.06,-148.64 980.77,-67.03 979.27,-29.61"/>
<polygon fill="#63b8ff" stroke="#63b8ff" points="982.75,-28.99 978.85,-19.14 975.75,-29.28 982.75,-28.99"/>
</a>
</g>
</g>
<!-- Node25&#45;&gt;Node18 -->
<g id="edge45_Node000025_Node000018" class="edge">
<title>Node25&#45;&gt;Node18</title>
<g id="a_edge45_Node000025_Node000018"><a xlink:title=" ">
<path fill="none" stroke="#63b8ff" d="M1029.05,-183.91C1098.09,-181.95 1227.84,-173.75 1256.5,-140 1293.27,-96.7 1306.48,-145.41 1081.5,-85 1078.88,-84.3 1076.18,-83.52 1073.47,-82.7"/>
<polygon fill="#63b8ff" stroke="#63b8ff" points="1074.37,-79.32 1063.78,-79.64 1072.26,-85.99 1074.37,-79.32"/>
</a>
</g>
</g>
<!-- Node26 -->
<g id="Node000026" class="node">
<title>Node26</title>
<g id="a_Node000026"><a xlink:title=" ">
<polygon fill="#e0e0e0" stroke="#999999" points="957.5,-140 915.5,-140 915.5,-121 957.5,-121 957.5,-140"/>
<text text-anchor="middle" x="936.5" y="-128" font-family="Helvetica,sans-Serif" font-size="10.00">array</text>
</a>
</g>
</g>
<!-- Node25&#45;&gt;Node26 -->
<g id="edge41_Node000025_Node000026" class="edge">
<title>Node25&#45;&gt;Node26</title>
<g id="a_edge41_Node000025_Node000026"><a xlink:title=" ">
<path fill="none" stroke="#63b8ff" d="M977.41,-175.75C970.34,-168.11 959.91,-156.82 951.35,-147.56"/>
<polygon fill="#63b8ff" stroke="#63b8ff" points="953.8,-145.06 944.44,-140.09 948.66,-149.81 953.8,-145.06"/>
</a>
</g>
</g>
<!-- Node27 -->
<g id="Node000027" class="node">
<title>Node27</title>
<g id="a_Node000027"><a xlink:title=" ">
<polygon fill="#e0e0e0" stroke="#999999" points="1133.5,-140 1013.5,-140 1013.5,-121 1133.5,-121 1133.5,-140"/>
<text text-anchor="middle" x="1073.5" y="-128" font-family="Helvetica,sans-Serif" font-size="10.00">boost/type_traits.hpp</text>
</a>
</g>
</g>
<!-- Node25&#45;&gt;Node27 -->
<g id="edge47_Node000025_Node000027" class="edge">
<title>Node25&#45;&gt;Node27</title>
<g id="a_edge47_Node000025_Node000027"><a xlink:title=" ">
<path fill="none" stroke="#63b8ff" d="M999.64,-175.98C1013.29,-167.77 1034.19,-155.18 1050.28,-145.49"/>
<polygon fill="#63b8ff" stroke="#63b8ff" points="1052.34,-148.33 1059.1,-140.17 1048.73,-142.33 1052.34,-148.33"/>
</a>
</g>
</g>
<!-- Node28 -->
<g id="Node000028" class="node">
<title>Node28</title>
<g id="a_Node000028"><a xlink:title=" ">
<polygon fill="#e0e0e0" stroke="#999999" points="1247,-140 1152,-140 1152,-121 1247,-121 1247,-140"/>
<text text-anchor="middle" x="1199.5" y="-128" font-family="Helvetica,sans-Serif" font-size="10.00">boost/utility.hpp</text>
</a>
</g>
</g>
<!-- Node25&#45;&gt;Node28 -->
<g id="edge48_Node000025_Node000028" class="edge">
<title>Node25&#45;&gt;Node28</title>
<g id="a_edge48_Node000025_Node000028"><a xlink:title=" ">
<path fill="none" stroke="#63b8ff" d="M1019.88,-175.98C1056.59,-166.89 1114.88,-152.46 1155.05,-142.51"/>
<polygon fill="#63b8ff" stroke="#63b8ff" points="1155.98,-145.88 1164.85,-140.08 1154.3,-139.09 1155.98,-145.88"/>
</a>
</g>
</g>
</g>
</svg>
