<?xml version="1.0" encoding="UTF-8" standalone="no"?>
<!DOCTYPE svg PUBLIC "-//W3C//DTD SVG 1.1//EN"
 "http://www.w3.org/Graphics/SVG/1.1/DTD/svg11.dtd">
<!-- Generated by graphviz version 2.43.0 (0)
 -->
<!-- Title: netspeak/invertedindex/IndexStrategy.hpp Pages: 1 -->
<svg width="1525pt" height="280pt"
 viewBox="0.00 0.00 1524.54 280.00" xmlns="http://www.w3.org/2000/svg" xmlns:xlink="http://www.w3.org/1999/xlink">
<g id="graph0" class="graph" transform="scale(1 1) rotate(0) translate(4 276)">
<title>netspeak/invertedindex/IndexStrategy.hpp</title>
<!-- Node1 -->
<g id="Node000001" class="node">
<title>Node1</title>
<g id="a_Node000001"><a xlink:title=" ">
<polygon fill="#999999" stroke="#666666" points="559,-272 427,-272 427,-242 559,-242 559,-272"/>
<text text-anchor="start" x="435" y="-260" font-family="Helvetica,sans-Serif" font-size="10.00">netspeak/invertedindex</text>
<text text-anchor="middle" x="493" y="-249" font-family="Helvetica,sans-Serif" font-size="10.00">/IndexStrategy.hpp</text>
</a>
</g>
</g>
<!-- Node2 -->
<g id="Node000002" class="node">
<title>Node2</title>
<g id="a_Node000002"><a xlink:href="invertedindex_2Configuration_8hpp.html" target="_top" xlink:title=" ">
<polygon fill="white" stroke="#666666" points="228.5,-145.5 125.5,-145.5 125.5,-126.5 228.5,-126.5 228.5,-145.5"/>
<text text-anchor="middle" x="177" y="-133.5" font-family="Helvetica,sans-Serif" font-size="10.00">Configuration.hpp</text>
</a>
</g>
</g>
<!-- Node1&#45;&gt;Node2 -->
<g id="edge1_Node000001_Node000002" class="edge">
<title>Node1&#45;&gt;Node2</title>
<g id="a_edge1_Node000001_Node000002"><a xlink:title=" ">
<path fill="none" stroke="#63b8ff" d="M455.82,-242C393.36,-218.48 268.41,-171.42 209.35,-149.18"/>
<polygon fill="#63b8ff" stroke="#63b8ff" points="210.38,-145.83 199.78,-145.58 207.91,-152.38 210.38,-145.83"/>
</a>
</g>
</g>
<!-- Node14 -->
<g id="Node000014" class="node">
<title>Node14</title>
<g id="a_Node000014"><a xlink:href="Record_8hpp.html" target="_top" xlink:title=" ">
<polygon fill="white" stroke="#666666" points="812.5,-206 741.5,-206 741.5,-187 812.5,-187 812.5,-206"/>
<text text-anchor="middle" x="777" y="-194" font-family="Helvetica,sans-Serif" font-size="10.00">Record.hpp</text>
</a>
</g>
</g>
<!-- Node1&#45;&gt;Node14 -->
<g id="edge15_Node000001_Node000014" class="edge">
<title>Node1&#45;&gt;Node14</title>
<g id="a_edge15_Node000001_Node000014"><a xlink:title=" ">
<path fill="none" stroke="#63b8ff" d="M559.23,-242.36C612.21,-231.44 685.11,-216.43 731.65,-206.84"/>
<polygon fill="#63b8ff" stroke="#63b8ff" points="732.36,-210.27 741.45,-204.82 730.95,-203.41 732.36,-210.27"/>
</a>
</g>
</g>
<!-- Node3 -->
<g id="Node000003" class="node">
<title>Node3</title>
<g id="a_Node000003"><a xlink:title=" ">
<polygon fill="#e0e0e0" stroke="#999999" points="184,-19 134,-19 134,0 184,0 184,-19"/>
<text text-anchor="middle" x="159" y="-7" font-family="Helvetica,sans-Serif" font-size="10.00">cstdint</text>
</a>
</g>
</g>
<!-- Node2&#45;&gt;Node3 -->
<g id="edge2_Node000002_Node000003" class="edge">
<title>Node2&#45;&gt;Node3</title>
<g id="a_edge2_Node000002_Node000003"><a xlink:title=" ">
<path fill="none" stroke="#63b8ff" d="M159.11,-126.34C144.23,-118.03 124.07,-103.96 115,-85 109.25,-72.97 109.93,-67.33 115,-55 119.81,-43.31 129.33,-33.05 138.3,-25.34"/>
<polygon fill="#63b8ff" stroke="#63b8ff" points="140.6,-27.98 146.22,-19 136.23,-22.51 140.6,-27.98"/>
</a>
</g>
</g>
<!-- Node4 -->
<g id="Node000004" class="node">
<title>Node4</title>
<g id="a_Node000004"><a xlink:title=" ">
<polygon fill="#e0e0e0" stroke="#999999" points="68,-79.5 0,-79.5 0,-60.5 68,-60.5 68,-79.5"/>
<text text-anchor="middle" x="34" y="-67.5" font-family="Helvetica,sans-Serif" font-size="10.00">filesystem</text>
</a>
</g>
</g>
<!-- Node2&#45;&gt;Node4 -->
<g id="edge3_Node000002_Node000004" class="edge">
<title>Node2&#45;&gt;Node4</title>
<g id="a_edge3_Node000002_Node000004"><a xlink:title=" ">
<path fill="none" stroke="#63b8ff" d="M157.71,-126.37C133.3,-115.44 91.03,-96.52 62.79,-83.88"/>
<polygon fill="#63b8ff" stroke="#63b8ff" points="63.99,-80.59 53.44,-79.7 61.13,-86.98 63.99,-80.59"/>
</a>
</g>
</g>
<!-- Node5 -->
<g id="Node000005" class="node">
<title>Node5</title>
<g id="a_Node000005"><a xlink:href="conversion_8hpp.html" target="_top" xlink:title=" ">
<polygon fill="white" stroke="#666666" points="366.5,-79.5 247.5,-79.5 247.5,-60.5 366.5,-60.5 366.5,-79.5"/>
<text text-anchor="middle" x="307" y="-67.5" font-family="Helvetica,sans-Serif" font-size="10.00">../util/conversion.hpp</text>
</a>
</g>
</g>
<!-- Node2&#45;&gt;Node5 -->
<g id="edge4_Node000002_Node000005" class="edge">
<title>Node2&#45;&gt;Node5</title>
<g id="a_edge4_Node000002_Node000005"><a xlink:title=" ">
<path fill="none" stroke="#63b8ff" d="M194.53,-126.37C216.53,-115.54 254.49,-96.85 280.15,-84.22"/>
<polygon fill="#63b8ff" stroke="#63b8ff" points="281.9,-87.26 289.33,-79.7 278.81,-80.98 281.9,-87.26"/>
</a>
</g>
</g>
<!-- Node13 -->
<g id="Node000013" class="node">
<title>Node13</title>
<g id="a_Node000013"><a xlink:href="memory_8hpp.html" target="_top" xlink:title=" ">
<polygon fill="white" stroke="#666666" points="229.5,-79.5 124.5,-79.5 124.5,-60.5 229.5,-60.5 229.5,-79.5"/>
<text text-anchor="middle" x="177" y="-67.5" font-family="Helvetica,sans-Serif" font-size="10.00">../util/memory.hpp</text>
</a>
</g>
</g>
<!-- Node2&#45;&gt;Node13 -->
<g id="edge12_Node000002_Node000013" class="edge">
<title>Node2&#45;&gt;Node13</title>
<g id="a_edge12_Node000002_Node000013"><a xlink:title=" ">
<path fill="none" stroke="#63b8ff" d="M177,-126.37C177,-117.16 177,-102.29 177,-90.27"/>
<polygon fill="#63b8ff" stroke="#63b8ff" points="180.5,-89.91 177,-79.91 173.5,-89.91 180.5,-89.91"/>
</a>
</g>
</g>
<!-- Node6 -->
<g id="Node000006" class="node">
<title>Node6</title>
<g id="a_Node000006"><a xlink:title=" ">
<polygon fill="#e0e0e0" stroke="#999999" points="336,-19 278,-19 278,0 336,0 336,-19"/>
<text text-anchor="middle" x="307" y="-7" font-family="Helvetica,sans-Serif" font-size="10.00">cxxabi.h</text>
</a>
</g>
</g>
<!-- Node5&#45;&gt;Node6 -->
<g id="edge5_Node000005_Node000006" class="edge">
<title>Node5&#45;&gt;Node6</title>
<g id="a_edge5_Node000005_Node000006"><a xlink:title=" ">
<path fill="none" stroke="#63b8ff" d="M307,-60.37C307,-52.25 307,-39.81 307,-29.39"/>
<polygon fill="#63b8ff" stroke="#63b8ff" points="310.5,-29.17 307,-19.17 303.5,-29.17 310.5,-29.17"/>
</a>
</g>
</g>
<!-- Node7 -->
<g id="Node000007" class="node">
<title>Node7</title>
<g id="a_Node000007"><a xlink:title=" ">
<polygon fill="#e0e0e0" stroke="#999999" points="403.5,-19 354.5,-19 354.5,0 403.5,0 403.5,-19"/>
<text text-anchor="middle" x="379" y="-7" font-family="Helvetica,sans-Serif" font-size="10.00">cstdlib</text>
</a>
</g>
</g>
<!-- Node5&#45;&gt;Node7 -->
<g id="edge6_Node000005_Node000007" class="edge">
<title>Node5&#45;&gt;Node7</title>
<g id="a_edge6_Node000005_Node000007"><a xlink:title=" ">
<path fill="none" stroke="#63b8ff" d="M317.62,-60.37C328.9,-51.21 346.92,-36.56 360.53,-25.51"/>
<polygon fill="#63b8ff" stroke="#63b8ff" points="362.78,-28.19 368.33,-19.17 358.36,-22.76 362.78,-28.19"/>
</a>
</g>
</g>
<!-- Node8 -->
<g id="Node000008" class="node">
<title>Node8</title>
<g id="a_Node000008"><a xlink:title=" ">
<polygon fill="#e0e0e0" stroke="#999999" points="1149,-19 1099,-19 1099,0 1149,0 1149,-19"/>
<text text-anchor="middle" x="1124" y="-7" font-family="Helvetica,sans-Serif" font-size="10.00">format</text>
</a>
</g>
</g>
<!-- Node5&#45;&gt;Node8 -->
<g id="edge7_Node000005_Node000008" class="edge">
<title>Node5&#45;&gt;Node8</title>
<g id="a_edge7_Node000005_Node000008"><a xlink:title=" ">
<path fill="none" stroke="#63b8ff" d="M366.57,-62.71C392.75,-60.08 423.88,-57.15 452,-55 731.86,-33.6 807.45,-60.97 1088.76,-18.87"/>
<polygon fill="#63b8ff" stroke="#63b8ff" points="1089.49,-22.3 1098.86,-17.35 1088.45,-15.38 1089.49,-22.3"/>
</a>
</g>
</g>
<!-- Node9 -->
<g id="Node000009" class="node">
<title>Node9</title>
<g id="a_Node000009"><a xlink:title=" ">
<polygon fill="#e0e0e0" stroke="#999999" points="260,-19 202,-19 202,0 260,0 260,-19"/>
<text text-anchor="middle" x="231" y="-7" font-family="Helvetica,sans-Serif" font-size="10.00">memory</text>
</a>
</g>
</g>
<!-- Node5&#45;&gt;Node9 -->
<g id="edge8_Node000005_Node000009" class="edge">
<title>Node5&#45;&gt;Node9</title>
<g id="a_edge8_Node000005_Node000009"><a xlink:title=" ">
<path fill="none" stroke="#63b8ff" d="M295.79,-60.37C283.89,-51.21 264.86,-36.56 250.49,-25.51"/>
<polygon fill="#63b8ff" stroke="#63b8ff" points="252.32,-22.49 242.26,-19.17 248.05,-28.04 252.32,-22.49"/>
</a>
</g>
</g>
<!-- Node10 -->
<g id="Node000010" class="node">
<title>Node10</title>
<g id="a_Node000010"><a xlink:title=" ">
<polygon fill="#e0e0e0" stroke="#999999" points="478,-19 422,-19 422,0 478,0 478,-19"/>
<text text-anchor="middle" x="450" y="-7" font-family="Helvetica,sans-Serif" font-size="10.00">sstream</text>
</a>
</g>
</g>
<!-- Node5&#45;&gt;Node10 -->
<g id="edge9_Node000005_Node000010" class="edge">
<title>Node5&#45;&gt;Node10</title>
<g id="a_edge9_Node000005_Node000010"><a xlink:title=" ">
<path fill="none" stroke="#63b8ff" d="M327.79,-60.49C351.94,-50.62 391.98,-34.23 419.62,-22.93"/>
<polygon fill="#63b8ff" stroke="#63b8ff" points="421.25,-26.04 429.18,-19.02 418.6,-19.56 421.25,-26.04"/>
</a>
</g>
</g>
<!-- Node11 -->
<g id="Node000011" class="node">
<title>Node11</title>
<g id="a_Node000011"><a xlink:title=" ">
<polygon fill="#e0e0e0" stroke="#999999" points="993.5,-19 928.5,-19 928.5,0 993.5,0 993.5,-19"/>
<text text-anchor="middle" x="961" y="-7" font-family="Helvetica,sans-Serif" font-size="10.00">stdexcept</text>
</a>
</g>
</g>
<!-- Node5&#45;&gt;Node11 -->
<g id="edge10_Node000005_Node000011" class="edge">
<title>Node5&#45;&gt;Node11</title>
<g id="a_edge10_Node000005_Node000011"><a xlink:title=" ">
<path fill="none" stroke="#63b8ff" d="M366.59,-62.99C392.78,-60.41 423.91,-57.44 452,-55 656.15,-37.28 711.11,-47.37 918.08,-18.95"/>
<polygon fill="#63b8ff" stroke="#63b8ff" points="918.63,-22.41 928.05,-17.57 917.66,-15.47 918.63,-22.41"/>
</a>
</g>
</g>
<!-- Node12 -->
<g id="Node000012" class="node">
<title>Node12</title>
<g id="a_Node000012"><a xlink:title=" ">
<polygon fill="#e0e0e0" stroke="#999999" points="718,-19 674,-19 674,0 718,0 718,-19"/>
<text text-anchor="middle" x="696" y="-7" font-family="Helvetica,sans-Serif" font-size="10.00">string</text>
</a>
</g>
</g>
<!-- Node5&#45;&gt;Node12 -->
<g id="edge11_Node000005_Node000012" class="edge">
<title>Node5&#45;&gt;Node12</title>
<g id="a_edge11_Node000005_Node000012"><a xlink:title=" ">
<path fill="none" stroke="#63b8ff" d="M363.56,-60.49C446.2,-48.07 597.28,-25.35 663.47,-15.39"/>
<polygon fill="#63b8ff" stroke="#63b8ff" points="664.34,-18.8 673.71,-13.85 663.3,-11.88 664.34,-18.8"/>
</a>
</g>
</g>
<!-- Node13&#45;&gt;Node3 -->
<g id="edge13_Node000013_Node000003" class="edge">
<title>Node13&#45;&gt;Node3</title>
<g id="a_edge13_Node000013_Node000003"><a xlink:title=" ">
<path fill="none" stroke="#63b8ff" d="M174.34,-60.37C171.82,-52.16 167.94,-39.54 164.71,-29.05"/>
<polygon fill="#63b8ff" stroke="#63b8ff" points="167.95,-27.7 161.67,-19.17 161.26,-29.75 167.95,-27.7"/>
</a>
</g>
</g>
<!-- Node13&#45;&gt;Node12 -->
<g id="edge14_Node000013_Node000012" class="edge">
<title>Node13&#45;&gt;Node12</title>
<g id="a_edge14_Node000013_Node000012"><a xlink:title=" ">
<path fill="none" stroke="#63b8ff" d="M210.73,-60.44C219.56,-58.43 229.1,-56.45 238,-55 396.58,-29.21 588.65,-16.48 663.73,-12.2"/>
<polygon fill="#63b8ff" stroke="#63b8ff" points="664.15,-15.69 673.94,-11.63 663.76,-8.7 664.15,-15.69"/>
</a>
</g>
</g>
<!-- Node14&#45;&gt;Node8 -->
<g id="edge51_Node000014_Node000008" class="edge">
<title>Node14&#45;&gt;Node8</title>
<g id="a_edge51_Node000014_Node000008"><a xlink:title=" ">
<path fill="none" stroke="#63b8ff" d="M812.81,-195.88C945.09,-196.44 1402.97,-190.61 1490,-85 1498.48,-74.71 1498.84,-64.98 1490,-55 1468.25,-30.45 1246.74,-16.69 1159.26,-12.17"/>
<polygon fill="#63b8ff" stroke="#63b8ff" points="1159.2,-8.67 1149.04,-11.66 1158.85,-15.66 1159.2,-8.67"/>
</a>
</g>
</g>
<!-- Node14&#45;&gt;Node10 -->
<g id="edge52_Node000014_Node000010" class="edge">
<title>Node14&#45;&gt;Node10</title>
<g id="a_edge52_Node000014_Node000010"><a xlink:title=" ">
<path fill="none" stroke="#63b8ff" d="M741.3,-196.01C688.12,-195.4 586.2,-188.81 510,-151 471.7,-132 456.94,-124.26 440,-85 432.19,-66.89 437.08,-44.2 442.41,-28.65"/>
<polygon fill="#63b8ff" stroke="#63b8ff" points="445.73,-29.76 446.01,-19.17 439.19,-27.27 445.73,-29.76"/>
</a>
</g>
</g>
<!-- Node14&#45;&gt;Node12 -->
<g id="edge16_Node000014_Node000012" class="edge">
<title>Node14&#45;&gt;Node12</title>
<g id="a_edge16_Node000014_Node000012"><a xlink:title=" ">
<path fill="none" stroke="#63b8ff" d="M755.59,-186.98C739.16,-179.54 716.86,-167.37 702,-151 680.21,-127.01 678.06,-116.63 671,-85 668.1,-71.99 667.62,-67.9 671,-55 673.55,-45.26 678.75,-35.41 683.76,-27.46"/>
<polygon fill="#63b8ff" stroke="#63b8ff" points="686.69,-29.37 689.37,-19.12 680.89,-25.46 686.69,-29.37"/>
</a>
</g>
</g>
<!-- Node15 -->
<g id="Node000015" class="node">
<title>Node15</title>
<g id="a_Node000015"><a xlink:title=" ">
<polygon fill="#e0e0e0" stroke="#999999" points="1399.5,-19 1354.5,-19 1354.5,0 1399.5,0 1399.5,-19"/>
<text text-anchor="middle" x="1377" y="-7" font-family="Helvetica,sans-Serif" font-size="10.00">utility</text>
</a>
</g>
</g>
<!-- Node14&#45;&gt;Node15 -->
<g id="edge17_Node000014_Node000015" class="edge">
<title>Node14&#45;&gt;Node15</title>
<g id="a_edge17_Node000014_Node000015"><a xlink:title=" ">
<path fill="none" stroke="#63b8ff" d="M812.65,-195.4C929.13,-194.69 1297.45,-189.39 1409,-151 1466.65,-131.16 1542.45,-104.61 1507,-55 1485.1,-24.36 1440.77,-14.59 1410,-11.6"/>
<polygon fill="#63b8ff" stroke="#63b8ff" points="1409.98,-8.08 1399.74,-10.8 1409.44,-15.06 1409.98,-8.08"/>
</a>
</g>
</g>
<!-- Node16 -->
<g id="Node000016" class="node">
<title>Node16</title>
<g id="a_Node000016"><a xlink:href="pair__traits_8hpp.html" target="_top" xlink:title=" ">
<polygon fill="white" stroke="#666666" points="988,-145.5 862,-145.5 862,-126.5 988,-126.5 988,-145.5"/>
<text text-anchor="middle" x="925" y="-133.5" font-family="Helvetica,sans-Serif" font-size="10.00">../value/pair_traits.hpp</text>
</a>
</g>
</g>
<!-- Node14&#45;&gt;Node16 -->
<g id="edge18_Node000014_Node000016" class="edge">
<title>Node14&#45;&gt;Node16</title>
<g id="a_edge18_Node000014_Node000016"><a xlink:title=" ">
<path fill="none" stroke="#63b8ff" d="M798.52,-186.99C823.62,-177.07 865.32,-160.59 893.93,-149.28"/>
<polygon fill="#63b8ff" stroke="#63b8ff" points="895.44,-152.45 903.45,-145.52 892.87,-145.94 895.44,-152.45"/>
</a>
</g>
</g>
<!-- Node22 -->
<g id="Node000022" class="node">
<title>Node22</title>
<g id="a_Node000022"><a xlink:href="quadruple__traits_8hpp.html" target="_top" xlink:title=" ">
<polygon fill="white" stroke="#666666" points="623,-151 519,-151 519,-121 623,-121 623,-151"/>
<text text-anchor="start" x="527" y="-139" font-family="Helvetica,sans-Serif" font-size="10.00">../value/quadruple</text>
<text text-anchor="middle" x="571" y="-128" font-family="Helvetica,sans-Serif" font-size="10.00">_traits.hpp</text>
</a>
</g>
</g>
<!-- Node14&#45;&gt;Node22 -->
<g id="edge32_Node000014_Node000022" class="edge">
<title>Node14&#45;&gt;Node22</title>
<g id="a_edge32_Node000014_Node000022"><a xlink:title=" ">
<path fill="none" stroke="#63b8ff" d="M747.05,-186.99C716.62,-178.35 668.68,-164.74 630.51,-153.9"/>
<polygon fill="#63b8ff" stroke="#63b8ff" points="631.1,-150.43 620.53,-151.06 629.19,-157.16 631.1,-150.43"/>
</a>
</g>
</g>
<!-- Node24 -->
<g id="Node000024" class="node">
<title>Node24</title>
<g id="a_Node000024"><a xlink:href="string__traits_8hpp.html" target="_top" xlink:title=" ">
<polygon fill="white" stroke="#666666" points="1141.5,-145.5 1006.5,-145.5 1006.5,-126.5 1141.5,-126.5 1141.5,-145.5"/>
<text text-anchor="middle" x="1074" y="-133.5" font-family="Helvetica,sans-Serif" font-size="10.00">../value/string_traits.hpp</text>
</a>
</g>
</g>
<!-- Node14&#45;&gt;Node24 -->
<g id="edge38_Node000014_Node000024" class="edge">
<title>Node14&#45;&gt;Node24</title>
<g id="a_edge38_Node000014_Node000024"><a xlink:title=" ">
<path fill="none" stroke="#63b8ff" d="M812.53,-188.5C864.2,-178.32 960.47,-159.36 1020.67,-147.5"/>
<polygon fill="#63b8ff" stroke="#63b8ff" points="1021.6,-150.89 1030.74,-145.52 1020.25,-144.02 1021.6,-150.89"/>
</a>
</g>
</g>
<!-- Node27 -->
<g id="Node000027" class="node">
<title>Node27</title>
<g id="a_Node000027"><a xlink:href="triple__traits_8hpp.html" target="_top" xlink:title=" ">
<polygon fill="white" stroke="#666666" points="843.5,-145.5 710.5,-145.5 710.5,-126.5 843.5,-126.5 843.5,-145.5"/>
<text text-anchor="middle" x="777" y="-133.5" font-family="Helvetica,sans-Serif" font-size="10.00">../value/triple_traits.hpp</text>
</a>
</g>
</g>
<!-- Node14&#45;&gt;Node27 -->
<g id="edge45_Node000014_Node000027" class="edge">
<title>Node14&#45;&gt;Node27</title>
<g id="a_edge45_Node000014_Node000027"><a xlink:title=" ">
<path fill="none" stroke="#63b8ff" d="M777,-186.87C777,-178.75 777,-166.31 777,-155.89"/>
<polygon fill="#63b8ff" stroke="#63b8ff" points="780.5,-155.67 777,-145.67 773.5,-155.67 780.5,-155.67"/>
</a>
</g>
</g>
<!-- Node16&#45;&gt;Node8 -->
<g id="edge29_Node000016_Node000008" class="edge">
<title>Node16&#45;&gt;Node8</title>
<g id="a_edge29_Node000016_Node000008"><a xlink:title=" ">
<path fill="none" stroke="#63b8ff" d="M965.08,-126.4C1022.52,-113.89 1121.95,-91.45 1127,-85 1139.3,-69.28 1135.69,-45.46 1130.88,-29.01"/>
<polygon fill="#63b8ff" stroke="#63b8ff" points="1134.17,-27.81 1127.7,-19.42 1127.53,-30.01 1134.17,-27.81"/>
</a>
</g>
</g>
<!-- Node16&#45;&gt;Node10 -->
<g id="edge30_Node000016_Node000010" class="edge">
<title>Node16&#45;&gt;Node10</title>
<g id="a_edge30_Node000016_Node000010"><a xlink:title=" ">
<path fill="none" stroke="#63b8ff" d="M889.35,-126.47C859.99,-118.48 817.98,-104.79 785,-85 768,-74.8 769.92,-63.48 752,-55 705.98,-33.22 558.92,-19.07 488.41,-13.36"/>
<polygon fill="#63b8ff" stroke="#63b8ff" points="488.43,-9.85 478.19,-12.55 487.88,-16.83 488.43,-9.85"/>
</a>
</g>
</g>
<!-- Node16&#45;&gt;Node12 -->
<g id="edge31_Node000016_Node000012" class="edge">
<title>Node16&#45;&gt;Node12</title>
<g id="a_edge31_Node000016_Node000012"><a xlink:title=" ">
<path fill="none" stroke="#63b8ff" d="M909.26,-126.44C870.12,-105.16 768.16,-49.73 720.82,-23.99"/>
<polygon fill="#63b8ff" stroke="#63b8ff" points="722.31,-20.82 711.85,-19.12 718.96,-26.97 722.31,-20.82"/>
</a>
</g>
</g>
<!-- Node17 -->
<g id="Node000017" class="node">
<title>Node17</title>
<g id="a_Node000017"><a xlink:href="pair_8hpp.html" target="_top" xlink:title=" ">
<polygon fill="white" stroke="#666666" points="1235,-79.5 1179,-79.5 1179,-60.5 1235,-60.5 1235,-79.5"/>
<text text-anchor="middle" x="1207" y="-67.5" font-family="Helvetica,sans-Serif" font-size="10.00">pair.hpp</text>
</a>
</g>
</g>
<!-- Node16&#45;&gt;Node17 -->
<g id="edge19_Node000016_Node000017" class="edge">
<title>Node16&#45;&gt;Node17</title>
<g id="a_edge19_Node000016_Node000017"><a xlink:title=" ">
<path fill="none" stroke="#63b8ff" d="M969.07,-126.46C1027.83,-114.96 1128.63,-94.81 1165,-85 1167.62,-84.29 1170.32,-83.51 1173.03,-82.7"/>
<polygon fill="#63b8ff" stroke="#63b8ff" points="1174.24,-85.98 1182.72,-79.63 1172.13,-79.31 1174.24,-85.98"/>
</a>
</g>
</g>
<!-- Node18 -->
<g id="Node000018" class="node">
<title>Node18</title>
<g id="a_Node000018"><a xlink:href="value__traits_8hpp.html" target="_top" xlink:title=" ">
<polygon fill="white" stroke="#666666" points="1008.5,-79.5 913.5,-79.5 913.5,-60.5 1008.5,-60.5 1008.5,-79.5"/>
<text text-anchor="middle" x="961" y="-67.5" font-family="Helvetica,sans-Serif" font-size="10.00">value_traits.hpp</text>
</a>
</g>
</g>
<!-- Node16&#45;&gt;Node18 -->
<g id="edge21_Node000016_Node000018" class="edge">
<title>Node16&#45;&gt;Node18</title>
<g id="a_edge21_Node000016_Node000018"><a xlink:title=" ">
<path fill="none" stroke="#63b8ff" d="M929.86,-126.37C935.25,-116.78 944.1,-101.05 950.99,-88.8"/>
<polygon fill="#63b8ff" stroke="#63b8ff" points="954.14,-90.34 955.99,-79.91 948.04,-86.91 954.14,-90.34"/>
</a>
</g>
</g>
<!-- Node17&#45;&gt;Node15 -->
<g id="edge20_Node000017_Node000015" class="edge">
<title>Node17&#45;&gt;Node15</title>
<g id="a_edge20_Node000017_Node000015"><a xlink:title=" ">
<path fill="none" stroke="#63b8ff" d="M1231.72,-60.49C1261.6,-50.21 1311.94,-32.89 1344.82,-21.57"/>
<polygon fill="#63b8ff" stroke="#63b8ff" points="1346.11,-24.83 1354.42,-18.27 1343.83,-18.21 1346.11,-24.83"/>
</a>
</g>
</g>
<!-- Node18&#45;&gt;Node3 -->
<g id="edge22_Node000018_Node000003" class="edge">
<title>Node18&#45;&gt;Node3</title>
<g id="a_edge22_Node000018_Node000003"><a xlink:title=" ">
<path fill="none" stroke="#63b8ff" d="M913.27,-65.77C870.91,-62.91 807.34,-58.64 752,-55 506.85,-38.9 440.72,-56.86 194.13,-18.88"/>
<polygon fill="#63b8ff" stroke="#63b8ff" points="194.57,-15.4 184.15,-17.32 193.49,-22.32 194.57,-15.4"/>
</a>
</g>
</g>
<!-- Node18&#45;&gt;Node8 -->
<g id="edge24_Node000018_Node000008" class="edge">
<title>Node18&#45;&gt;Node8</title>
<g id="a_edge24_Node000018_Node000008"><a xlink:title=" ">
<path fill="none" stroke="#63b8ff" d="M984.7,-60.49C1012.59,-50.49 1059.07,-33.8 1090.6,-22.49"/>
<polygon fill="#63b8ff" stroke="#63b8ff" points="1092.04,-25.69 1100.27,-19.02 1089.68,-19.1 1092.04,-25.69"/>
</a>
</g>
</g>
<!-- Node18&#45;&gt;Node11 -->
<g id="edge26_Node000018_Node000011" class="edge">
<title>Node18&#45;&gt;Node11</title>
<g id="a_edge26_Node000018_Node000011"><a xlink:title=" ">
<path fill="none" stroke="#63b8ff" d="M961,-60.37C961,-52.25 961,-39.81 961,-29.39"/>
<polygon fill="#63b8ff" stroke="#63b8ff" points="964.5,-29.17 961,-19.17 957.5,-29.17 964.5,-29.17"/>
</a>
</g>
</g>
<!-- Node18&#45;&gt;Node12 -->
<g id="edge27_Node000018_Node000012" class="edge">
<title>Node18&#45;&gt;Node12</title>
<g id="a_edge27_Node000018_Node000012"><a xlink:title=" ">
<path fill="none" stroke="#63b8ff" d="M923.3,-60.45C915.28,-58.64 906.86,-56.75 899,-55 838.71,-41.58 768.27,-26.21 728.22,-17.5"/>
<polygon fill="#63b8ff" stroke="#63b8ff" points="728.75,-14.03 718.24,-15.33 727.27,-20.87 728.75,-14.03"/>
</a>
</g>
</g>
<!-- Node19 -->
<g id="Node000019" class="node">
<title>Node19</title>
<g id="a_Node000019"><a xlink:title=" ">
<polygon fill="#e0e0e0" stroke="#999999" points="832,-19 782,-19 782,0 832,0 832,-19"/>
<text text-anchor="middle" x="807" y="-7" font-family="Helvetica,sans-Serif" font-size="10.00">cstring</text>
</a>
</g>
</g>
<!-- Node18&#45;&gt;Node19 -->
<g id="edge23_Node000018_Node000019" class="edge">
<title>Node18&#45;&gt;Node19</title>
<g id="a_edge23_Node000018_Node000019"><a xlink:title=" ">
<path fill="none" stroke="#63b8ff" d="M938.61,-60.49C912.38,-50.53 868.72,-33.95 838.94,-22.63"/>
<polygon fill="#63b8ff" stroke="#63b8ff" points="840.01,-19.3 829.42,-19.02 837.53,-25.84 840.01,-19.3"/>
</a>
</g>
</g>
<!-- Node20 -->
<g id="Node000020" class="node">
<title>Node20</title>
<g id="a_Node000020"><a xlink:title=" ">
<polygon fill="#e0e0e0" stroke="#999999" points="910,-19 850,-19 850,0 910,0 910,-19"/>
<text text-anchor="middle" x="880" y="-7" font-family="Helvetica,sans-Serif" font-size="10.00">iostream</text>
</a>
</g>
</g>
<!-- Node18&#45;&gt;Node20 -->
<g id="edge25_Node000018_Node000020" class="edge">
<title>Node18&#45;&gt;Node20</title>
<g id="a_edge25_Node000018_Node000020"><a xlink:title=" ">
<path fill="none" stroke="#63b8ff" d="M949.05,-60.37C936.25,-51.12 915.7,-36.28 900.35,-25.19"/>
<polygon fill="#63b8ff" stroke="#63b8ff" points="902.16,-22.18 892,-19.17 898.06,-27.86 902.16,-22.18"/>
</a>
</g>
</g>
<!-- Node21 -->
<g id="Node000021" class="node">
<title>Node21</title>
<g id="a_Node000021"><a xlink:title=" ">
<polygon fill="#e0e0e0" stroke="#999999" points="1080.5,-19 1011.5,-19 1011.5,0 1080.5,0 1080.5,-19"/>
<text text-anchor="middle" x="1046" y="-7" font-family="Helvetica,sans-Serif" font-size="10.00">type_traits</text>
</a>
</g>
</g>
<!-- Node18&#45;&gt;Node21 -->
<g id="edge28_Node000018_Node000021" class="edge">
<title>Node18&#45;&gt;Node21</title>
<g id="a_edge28_Node000018_Node000021"><a xlink:title=" ">
<path fill="none" stroke="#63b8ff" d="M973.54,-60.37C987.1,-51.04 1008.94,-36.01 1025.1,-24.88"/>
<polygon fill="#63b8ff" stroke="#63b8ff" points="1027.15,-27.72 1033.41,-19.17 1023.18,-21.95 1027.15,-27.72"/>
</a>
</g>
</g>
<!-- Node22&#45;&gt;Node8 -->
<g id="edge35_Node000022_Node000008" class="edge">
<title>Node22&#45;&gt;Node8</title>
<g id="a_edge35_Node000022_Node000008"><a xlink:title=" ">
<path fill="none" stroke="#63b8ff" d="M623.4,-129.31C740.47,-116.57 1013.41,-86.74 1018,-85 1053.52,-71.55 1088.31,-43.42 1107.87,-25.84"/>
<polygon fill="#63b8ff" stroke="#63b8ff" points="1110.29,-28.37 1115.28,-19.02 1105.55,-23.22 1110.29,-28.37"/>
</a>
</g>
</g>
<!-- Node22&#45;&gt;Node10 -->
<g id="edge36_Node000022_Node000010" class="edge">
<title>Node22&#45;&gt;Node10</title>
<g id="a_edge36_Node000022_Node000010"><a xlink:title=" ">
<path fill="none" stroke="#63b8ff" d="M518.78,-126.45C494.28,-119.57 467.18,-107.2 452,-85 440.84,-68.69 442.29,-45.32 445.27,-29.12"/>
<polygon fill="#63b8ff" stroke="#63b8ff" points="448.71,-29.75 447.44,-19.23 441.88,-28.24 448.71,-29.75"/>
</a>
</g>
</g>
<!-- Node22&#45;&gt;Node12 -->
<g id="edge37_Node000022_Node000012" class="edge">
<title>Node22&#45;&gt;Node12</title>
<g id="a_edge37_Node000022_Node000012"><a xlink:title=" ">
<path fill="none" stroke="#63b8ff" d="M581.07,-120.85C593.3,-104.17 615.02,-76.04 637,-55 648.52,-43.97 662.77,-33.16 674.37,-24.96"/>
<polygon fill="#63b8ff" stroke="#63b8ff" points="676.41,-27.8 682.64,-19.23 672.43,-22.04 676.41,-27.8"/>
</a>
</g>
</g>
<!-- Node22&#45;&gt;Node18 -->
<g id="edge34_Node000022_Node000018" class="edge">
<title>Node22&#45;&gt;Node18</title>
<g id="a_edge34_Node000022_Node000018"><a xlink:title=" ">
<path fill="none" stroke="#63b8ff" d="M623.19,-126.44C695.95,-114.5 827.41,-92.92 903.1,-80.5"/>
<polygon fill="#63b8ff" stroke="#63b8ff" points="904.09,-83.89 913.39,-78.81 902.96,-76.98 904.09,-83.89"/>
</a>
</g>
</g>
<!-- Node23 -->
<g id="Node000023" class="node">
<title>Node23</title>
<g id="a_Node000023"><a xlink:href="quadruple_8hpp.html" target="_top" xlink:title=" ">
<polygon fill="white" stroke="#666666" points="547,-79.5 461,-79.5 461,-60.5 547,-60.5 547,-79.5"/>
<text text-anchor="middle" x="504" y="-67.5" font-family="Helvetica,sans-Serif" font-size="10.00">quadruple.hpp</text>
</a>
</g>
</g>
<!-- Node22&#45;&gt;Node23 -->
<g id="edge33_Node000022_Node000023" class="edge">
<title>Node22&#45;&gt;Node23</title>
<g id="a_edge33_Node000022_Node000023"><a xlink:title=" ">
<path fill="none" stroke="#63b8ff" d="M556.13,-120.8C545.58,-110.72 531.42,-97.19 520.52,-86.78"/>
<polygon fill="#63b8ff" stroke="#63b8ff" points="522.91,-84.22 513.26,-79.84 518.07,-89.28 522.91,-84.22"/>
</a>
</g>
</g>
<!-- Node24&#45;&gt;Node8 -->
<g id="edge40_Node000024_Node000008" class="edge">
<title>Node24&#45;&gt;Node8</title>
<g id="a_edge40_Node000024_Node000008"><a xlink:title=" ">
<path fill="none" stroke="#63b8ff" d="M1127.13,-126.46C1171.55,-118.12 1229.85,-103.91 1244,-85 1251.99,-74.32 1251.61,-65.95 1244,-55 1225.1,-27.83 1187.56,-17.21 1159.48,-13.08"/>
<polygon fill="#63b8ff" stroke="#63b8ff" points="1159.59,-9.57 1149.23,-11.8 1158.72,-16.52 1159.59,-9.57"/>
</a>
</g>
</g>
<!-- Node24&#45;&gt;Node11 -->
<g id="edge41_Node000024_Node000011" class="edge">
<title>Node24&#45;&gt;Node11</title>
<g id="a_edge41_Node000024_Node000011"><a xlink:title=" ">
<path fill="none" stroke="#63b8ff" d="M1069.17,-126.45C1060.28,-111.11 1040.18,-78.36 1018,-55 1007.36,-43.79 993.77,-33.07 982.54,-24.97"/>
<polygon fill="#63b8ff" stroke="#63b8ff" points="984.32,-21.94 974.13,-19.06 980.3,-27.67 984.32,-21.94"/>
</a>
</g>
</g>
<!-- Node24&#45;&gt;Node12 -->
<g id="edge42_Node000024_Node000012" class="edge">
<title>Node24&#45;&gt;Node12</title>
<g id="a_edge42_Node000024_Node000012"><a xlink:title=" ">
<path fill="none" stroke="#63b8ff" d="M1043.31,-126.47C1009.33,-116.9 953,-100.66 905,-85 867.31,-72.71 858.34,-68.31 821,-55 789.2,-43.66 752.85,-30.72 727.57,-21.73"/>
<polygon fill="#63b8ff" stroke="#63b8ff" points="728.73,-18.43 718.13,-18.37 726.38,-25.02 728.73,-18.43"/>
</a>
</g>
</g>
<!-- Node24&#45;&gt;Node18 -->
<g id="edge44_Node000024_Node000018" class="edge">
<title>Node24&#45;&gt;Node18</title>
<g id="a_edge44_Node000024_Node000018"><a xlink:title=" ">
<path fill="none" stroke="#63b8ff" d="M1058.76,-126.37C1039.89,-115.68 1007.52,-97.35 985.23,-84.72"/>
<polygon fill="#63b8ff" stroke="#63b8ff" points="986.79,-81.58 976.36,-79.7 983.34,-87.67 986.79,-81.58"/>
</a>
</g>
</g>
<!-- Node25 -->
<g id="Node000025" class="node">
<title>Node25</title>
<g id="a_Node000025"><a xlink:title=" ">
<polygon fill="#e0e0e0" stroke="#999999" points="1337,-79.5 1291,-79.5 1291,-60.5 1337,-60.5 1337,-79.5"/>
<text text-anchor="middle" x="1314" y="-67.5" font-family="Helvetica,sans-Serif" font-size="10.00">cstdio</text>
</a>
</g>
</g>
<!-- Node24&#45;&gt;Node25 -->
<g id="edge39_Node000024_Node000025" class="edge">
<title>Node24&#45;&gt;Node25</title>
<g id="a_edge39_Node000024_Node000025"><a xlink:title=" ">
<path fill="none" stroke="#63b8ff" d="M1114.84,-126.46C1156.11,-117.47 1221.55,-102.25 1277,-85 1278.92,-84.4 1280.88,-83.76 1282.85,-83.09"/>
<polygon fill="#63b8ff" stroke="#63b8ff" points="1284.4,-86.25 1292.63,-79.58 1282.04,-79.66 1284.4,-86.25"/>
</a>
</g>
</g>
<!-- Node26 -->
<g id="Node000026" class="node">
<title>Node26</title>
<g id="a_Node000026"><a xlink:title=" ">
<polygon fill="#e0e0e0" stroke="#999999" points="1480.5,-85 1355.5,-85 1355.5,-55 1480.5,-55 1480.5,-85"/>
<text text-anchor="start" x="1363.5" y="-73" font-family="Helvetica,sans-Serif" font-size="10.00">boost/algorithm/string</text>
<text text-anchor="middle" x="1418" y="-62" font-family="Helvetica,sans-Serif" font-size="10.00">/trim.hpp</text>
</a>
</g>
</g>
<!-- Node24&#45;&gt;Node26 -->
<g id="edge43_Node000024_Node000026" class="edge">
<title>Node24&#45;&gt;Node26</title>
<g id="a_edge43_Node000024_Node000026"><a xlink:title=" ">
<path fill="none" stroke="#63b8ff" d="M1121.2,-126.48C1173.4,-117.01 1260.28,-101.17 1345.11,-85.16"/>
<polygon fill="#63b8ff" stroke="#63b8ff" points="1346,-88.55 1355.18,-83.25 1344.7,-81.67 1346,-88.55"/>
</a>
</g>
</g>
<!-- Node27&#45;&gt;Node8 -->
<g id="edge48_Node000027_Node000008" class="edge">
<title>Node27&#45;&gt;Node8</title>
<g id="a_edge48_Node000027_Node000008"><a xlink:title=" ">
<path fill="none" stroke="#63b8ff" d="M821.97,-126.48C832.16,-124.61 842.94,-122.69 853,-121 957.63,-103.39 1003.99,-148.49 1089,-85 1107.03,-71.53 1116.12,-46.44 1120.45,-29.12"/>
<polygon fill="#63b8ff" stroke="#63b8ff" points="1123.93,-29.58 1122.65,-19.06 1117.1,-28.08 1123.93,-29.58"/>
</a>
</g>
</g>
<!-- Node27&#45;&gt;Node10 -->
<g id="edge49_Node000027_Node000010" class="edge">
<title>Node27&#45;&gt;Node10</title>
<g id="a_edge49_Node000027_Node000010"><a xlink:title=" ">
<path fill="none" stroke="#63b8ff" d="M754.52,-126.44C697.7,-104.81 548.15,-47.87 482.12,-22.73"/>
<polygon fill="#63b8ff" stroke="#63b8ff" points="483.22,-19.4 472.63,-19.12 480.73,-25.95 483.22,-19.4"/>
</a>
</g>
</g>
<!-- Node27&#45;&gt;Node12 -->
<g id="edge50_Node000027_Node000012" class="edge">
<title>Node27&#45;&gt;Node12</title>
<g id="a_edge50_Node000027_Node000012"><a xlink:title=" ">
<path fill="none" stroke="#63b8ff" d="M775.99,-126.34C773.83,-110.82 767.64,-77.8 752,-55 743.63,-42.8 730.92,-32.31 719.73,-24.59"/>
<polygon fill="#63b8ff" stroke="#63b8ff" points="721.47,-21.55 711.18,-19.01 717.64,-27.41 721.47,-21.55"/>
</a>
</g>
</g>
<!-- Node27&#45;&gt;Node18 -->
<g id="edge47_Node000027_Node000018" class="edge">
<title>Node27&#45;&gt;Node18</title>
<g id="a_edge47_Node000027_Node000018"><a xlink:title=" ">
<path fill="none" stroke="#63b8ff" d="M801.82,-126.37C834,-115.17 890.32,-95.58 926.62,-82.96"/>
<polygon fill="#63b8ff" stroke="#63b8ff" points="927.99,-86.19 936.28,-79.6 925.69,-79.58 927.99,-86.19"/>
</a>
</g>
</g>
<!-- Node28 -->
<g id="Node000028" class="node">
<title>Node28</title>
<g id="a_Node000028"><a xlink:href="triple_8hpp.html" target="_top" xlink:title=" ">
<polygon fill="white" stroke="#666666" points="742.5,-79.5 679.5,-79.5 679.5,-60.5 742.5,-60.5 742.5,-79.5"/>
<text text-anchor="middle" x="711" y="-67.5" font-family="Helvetica,sans-Serif" font-size="10.00">triple.hpp</text>
</a>
</g>
</g>
<!-- Node27&#45;&gt;Node28 -->
<g id="edge46_Node000027_Node000028" class="edge">
<title>Node27&#45;&gt;Node28</title>
<g id="a_edge46_Node000027_Node000028"><a xlink:title=" ">
<path fill="none" stroke="#63b8ff" d="M768.1,-126.37C757.73,-116.31 740.37,-99.48 727.51,-87.01"/>
<polygon fill="#63b8ff" stroke="#63b8ff" points="729.8,-84.35 720.18,-79.91 724.93,-89.38 729.8,-84.35"/>
</a>
</g>
</g>
</g>
</svg>
