<?xml version="1.0" encoding="UTF-8" standalone="no"?>
<!DOCTYPE svg PUBLIC "-//W3C//DTD SVG 1.1//EN"
 "http://www.w3.org/Graphics/SVG/1.1/DTD/svg11.dtd">
<!-- Generated by graphviz version 2.43.0 (0)
 -->
<!-- Title: netspeak/invertedindex/IndexStrategy.hpp Pages: 1 -->
<svg width="304pt" height="291pt"
 viewBox="0.00 0.00 303.72 291.00" xmlns="http://www.w3.org/2000/svg" xmlns:xlink="http://www.w3.org/1999/xlink">
<g id="graph0" class="graph" transform="scale(1 1) rotate(0) translate(4 287)">
<title>netspeak/invertedindex/IndexStrategy.hpp</title>
<!-- Node1 -->
<g id="Node000001" class="node">
<title>Node1</title>
<g id="a_Node000001"><a xlink:title=" ">
<polygon fill="#999999" stroke="#666666" points="145.72,-283 13.72,-283 13.72,-253 145.72,-253 145.72,-283"/>
<text text-anchor="start" x="21.72" y="-271" font-family="Helvetica,sans-Serif" font-size="10.00">netspeak/invertedindex</text>
<text text-anchor="middle" x="79.72" y="-260" font-family="Helvetica,sans-Serif" font-size="10.00">/IndexStrategy.hpp</text>
</a>
</g>
</g>
<!-- Node2 -->
<g id="Node000002" class="node">
<title>Node2</title>
<g id="a_Node000002"><a xlink:href="Indexer_8hpp.html" target="_top" xlink:title=" ">
<polygon fill="white" stroke="#666666" points="145.72,-151 13.72,-151 13.72,-121 145.72,-121 145.72,-151"/>
<text text-anchor="start" x="21.72" y="-139" font-family="Helvetica,sans-Serif" font-size="10.00">netspeak/invertedindex</text>
<text text-anchor="middle" x="79.72" y="-128" font-family="Helvetica,sans-Serif" font-size="10.00">/Indexer.hpp</text>
</a>
</g>
</g>
<!-- Node1&#45;&gt;Node2 -->
<g id="edge1_Node000001_Node000002" class="edge">
<title>Node1&#45;&gt;Node2</title>
<g id="a_edge1_Node000001_Node000002"><a xlink:title=" ">
<path fill="none" stroke="#63b8ff" d="M35.71,-247.69C23.45,-240.01 11.61,-229.88 4.72,-217 -1.57,-205.24 -1.57,-198.76 4.72,-187 13.28,-171 29.49,-159.23 44.65,-151.15"/>
<polygon fill="#63b8ff" stroke="#63b8ff" points="34.24,-250.88 44.65,-252.85 37.74,-244.82 34.24,-250.88"/>
</a>
</g>
</g>
<!-- Node5 -->
<g id="Node000005" class="node">
<title>Node5</title>
<g id="a_Node000005"><a xlink:href="SortedInput_8hpp.html" target="_top" xlink:title=" ">
<polygon fill="white" stroke="#666666" points="145.72,-217 13.72,-217 13.72,-187 145.72,-187 145.72,-217"/>
<text text-anchor="start" x="21.72" y="-205" font-family="Helvetica,sans-Serif" font-size="10.00">netspeak/invertedindex</text>
<text text-anchor="middle" x="79.72" y="-194" font-family="Helvetica,sans-Serif" font-size="10.00">/SortedInput.hpp</text>
</a>
</g>
</g>
<!-- Node1&#45;&gt;Node5 -->
<g id="edge4_Node000001_Node000005" class="edge">
<title>Node1&#45;&gt;Node5</title>
<g id="a_edge4_Node000001_Node000005"><a xlink:title=" ">
<path fill="none" stroke="#63b8ff" d="M79.72,-242.54C79.72,-233.96 79.72,-224.61 79.72,-217.16"/>
<polygon fill="#63b8ff" stroke="#63b8ff" points="76.22,-242.8 79.72,-252.8 83.22,-242.8 76.22,-242.8"/>
</a>
</g>
</g>
<!-- Node6 -->
<g id="Node000006" class="node">
<title>Node6</title>
<g id="a_Node000006"><a xlink:href="UnsortedInput_8hpp.html" target="_top" xlink:title=" ">
<polygon fill="white" stroke="#666666" points="295.72,-217 163.72,-217 163.72,-187 295.72,-187 295.72,-217"/>
<text text-anchor="start" x="171.72" y="-205" font-family="Helvetica,sans-Serif" font-size="10.00">netspeak/invertedindex</text>
<text text-anchor="middle" x="229.72" y="-194" font-family="Helvetica,sans-Serif" font-size="10.00">/UnsortedInput.hpp</text>
</a>
</g>
</g>
<!-- Node1&#45;&gt;Node6 -->
<g id="edge6_Node000001_Node000006" class="edge">
<title>Node1&#45;&gt;Node6</title>
<g id="a_edge6_Node000001_Node000006"><a xlink:title=" ">
<path fill="none" stroke="#63b8ff" d="M122.1,-248.92C145.8,-238.8 174.91,-226.38 196.88,-217.01"/>
<polygon fill="#63b8ff" stroke="#63b8ff" points="120.46,-245.81 112.64,-252.95 123.21,-252.25 120.46,-245.81"/>
</a>
</g>
</g>
<!-- Node3 -->
<g id="Node000003" class="node">
<title>Node3</title>
<g id="a_Node000003"><a xlink:href="ManagedIndexer_8hpp.html" target="_top" xlink:title=" ">
<polygon fill="white" stroke="#666666" points="145.72,-85 13.72,-85 13.72,-55 145.72,-55 145.72,-85"/>
<text text-anchor="start" x="21.72" y="-73" font-family="Helvetica,sans-Serif" font-size="10.00">netspeak/invertedindex</text>
<text text-anchor="middle" x="79.72" y="-62" font-family="Helvetica,sans-Serif" font-size="10.00">/ManagedIndexer.hpp</text>
</a>
</g>
</g>
<!-- Node2&#45;&gt;Node3 -->
<g id="edge2_Node000002_Node000003" class="edge">
<title>Node2&#45;&gt;Node3</title>
<g id="a_edge2_Node000002_Node000003"><a xlink:title=" ">
<path fill="none" stroke="#63b8ff" d="M79.72,-110.54C79.72,-101.96 79.72,-92.61 79.72,-85.16"/>
<polygon fill="#63b8ff" stroke="#63b8ff" points="76.22,-110.8 79.72,-120.8 83.22,-110.8 76.22,-110.8"/>
</a>
</g>
</g>
<!-- Node4 -->
<g id="Node000004" class="node">
<title>Node4</title>
<g id="a_Node000004"><a xlink:href="indexing_8cpp.html" target="_top" xlink:title=" ">
<polygon fill="white" stroke="#666666" points="143.22,-19 16.22,-19 16.22,0 143.22,0 143.22,-19"/>
<text text-anchor="middle" x="79.72" y="-7" font-family="Helvetica,sans-Serif" font-size="10.00">netspeak/indexing.cpp</text>
</a>
</g>
</g>
<!-- Node3&#45;&gt;Node4 -->
<g id="edge3_Node000003_Node000004" class="edge">
<title>Node3&#45;&gt;Node4</title>
<g id="a_edge3_Node000003_Node000004"><a xlink:title=" ">
<path fill="none" stroke="#63b8ff" d="M79.72,-44.75C79.72,-35.72 79.72,-26.03 79.72,-19.27"/>
<polygon fill="#63b8ff" stroke="#63b8ff" points="76.22,-44.84 79.72,-54.84 83.22,-44.84 76.22,-44.84"/>
</a>
</g>
</g>
<!-- Node5&#45;&gt;Node2 -->
<g id="edge5_Node000005_Node000002" class="edge">
<title>Node5&#45;&gt;Node2</title>
<g id="a_edge5_Node000005_Node000002"><a xlink:title=" ">
<path fill="none" stroke="#63b8ff" d="M79.72,-176.54C79.72,-167.96 79.72,-158.61 79.72,-151.16"/>
<polygon fill="#63b8ff" stroke="#63b8ff" points="76.22,-176.8 79.72,-186.8 83.22,-176.8 76.22,-176.8"/>
</a>
</g>
</g>
<!-- Node6&#45;&gt;Node2 -->
<g id="edge7_Node000006_Node000002" class="edge">
<title>Node6&#45;&gt;Node2</title>
<g id="a_edge7_Node000006_Node000002"><a xlink:title=" ">
<path fill="none" stroke="#63b8ff" d="M187.34,-182.92C163.63,-172.8 134.52,-160.38 112.56,-151.01"/>
<polygon fill="#63b8ff" stroke="#63b8ff" points="186.23,-186.25 196.8,-186.95 188.98,-179.81 186.23,-186.25"/>
</a>
</g>
</g>
</g>
</svg>
