<?xml version="1.0" encoding="UTF-8" standalone="no"?>
<!DOCTYPE svg PUBLIC "-//W3C//DTD SVG 1.1//EN"
 "http://www.w3.org/Graphics/SVG/1.1/DTD/svg11.dtd">
<!-- Generated by graphviz version 2.43.0 (0)
 -->
<!-- Title: Graphical Class Hierarchy Pages: 1 -->
<svg width="462pt" height="277pt"
 viewBox="0.00 0.00 462.00 276.50" xmlns="http://www.w3.org/2000/svg" xmlns:xlink="http://www.w3.org/1999/xlink">
<g id="graph0" class="graph" transform="scale(1 1) rotate(0) translate(4 272.5)">
<title>Graphical Class Hierarchy</title>
<!-- Node0 -->
<g id="Node000000" class="node">
<title>Node0</title>
<g id="a_Node000000"><a xlink:title=" ">
<polygon fill="#e0e0e0" stroke="#999999" points="112,-144.5 0,-144.5 0,-125.5 112,-125.5 112,-144.5"/>
<text text-anchor="middle" x="56" y="-132.5" font-family="Helvetica,sans-Serif" font-size="10.00">boost::noncopyable</text>
</a>
</g>
</g>
<!-- Node1 -->
<g id="Node000001" class="node">
<title>Node1</title>
<g id="a_Node000001"><a xlink:href="classnetspeak_1_1invertedindex_1_1PostlistBuilder.html" target="_top" xlink:title=" ">
<polygon fill="white" stroke="#666666" points="283,-268.5 148,-268.5 148,-227.5 283,-227.5 283,-268.5"/>
<text text-anchor="start" x="156" y="-256.5" font-family="Helvetica,sans-Serif" font-size="10.00">netspeak::invertedindex</text>
<text text-anchor="start" x="156" y="-245.5" font-family="Helvetica,sans-Serif" font-size="10.00">::PostlistBuilder&lt; value</text>
<text text-anchor="middle" x="215.5" y="-234.5" font-family="Helvetica,sans-Serif" font-size="10.00">_type &gt;</text>
</a>
</g>
</g>
<!-- Node0&#45;&gt;Node1 -->
<g id="edge2_Node000000_Node000001" class="edge">
<title>Node0&#45;&gt;Node1</title>
<g id="a_edge2_Node000000_Node000001"><a xlink:title=" ">
<path fill="none" stroke="#63b8ff" d="M72.4,-152.31C89.47,-170.71 118.49,-199.74 148,-219 152.54,-221.96 157.42,-224.74 162.42,-227.33"/>
<polygon fill="#63b8ff" stroke="#63b8ff" points="74.77,-149.72 65.44,-144.69 69.6,-154.43 74.77,-149.72"/>
</a>
</g>
</g>
<!-- Node2 -->
<g id="Node000002" class="node">
<title>Node2</title>
<g id="a_Node000002"><a xlink:href="classnetspeak_1_1invertedindex_1_1StorageWriter.html" target="_top" xlink:title=" ">
<polygon fill="white" stroke="#666666" points="283,-209.5 148,-209.5 148,-168.5 283,-168.5 283,-209.5"/>
<text text-anchor="start" x="156" y="-197.5" font-family="Helvetica,sans-Serif" font-size="10.00">netspeak::invertedindex</text>
<text text-anchor="start" x="156" y="-186.5" font-family="Helvetica,sans-Serif" font-size="10.00">::StorageWriter&lt; value</text>
<text text-anchor="middle" x="215.5" y="-175.5" font-family="Helvetica,sans-Serif" font-size="10.00">_type &gt;</text>
</a>
</g>
</g>
<!-- Node0&#45;&gt;Node2 -->
<g id="edge3_Node000000_Node000002" class="edge">
<title>Node0&#45;&gt;Node2</title>
<g id="a_edge3_Node000000_Node000002"><a xlink:title=" ">
<path fill="none" stroke="#63b8ff" d="M94.35,-147.81C112.36,-153.98 134.41,-161.54 154.69,-168.49"/>
<polygon fill="#63b8ff" stroke="#63b8ff" points="95.39,-144.46 84.8,-144.53 93.12,-151.08 95.39,-144.46"/>
</a>
</g>
</g>
<!-- Node3 -->
<g id="Node000003" class="node">
<title>Node3</title>
<g id="a_Node000003"><a xlink:href="classnetspeak_1_1invertedindex_1_1PostlistBuilder.html" target="_top" xlink:title=" ">
<polygon fill="white" stroke="#666666" points="283,-150 148,-150 148,-120 283,-120 283,-150"/>
<text text-anchor="start" x="156" y="-138" font-family="Helvetica,sans-Serif" font-size="10.00">netspeak::invertedindex</text>
<text text-anchor="middle" x="215.5" y="-127" font-family="Helvetica,sans-Serif" font-size="10.00">::PostlistBuilder&lt; T &gt;</text>
</a>
</g>
</g>
<!-- Node0&#45;&gt;Node3 -->
<g id="edge4_Node000000_Node000003" class="edge">
<title>Node0&#45;&gt;Node3</title>
<g id="a_edge4_Node000000_Node000003"><a xlink:title=" ">
<path fill="none" stroke="#63b8ff" d="M122.25,-135C130.68,-135 139.34,-135 147.8,-135"/>
<polygon fill="#63b8ff" stroke="#63b8ff" points="122.09,-131.5 112.09,-135 122.09,-138.5 122.09,-131.5"/>
</a>
</g>
</g>
<!-- Node4 -->
<g id="Node000004" class="node">
<title>Node4</title>
<g id="a_Node000004"><a xlink:href="classnetspeak_1_1invertedindex_1_1StorageWriter.html" target="_top" xlink:title=" ">
<polygon fill="white" stroke="#666666" points="283,-102 148,-102 148,-72 283,-72 283,-102"/>
<text text-anchor="start" x="156" y="-90" font-family="Helvetica,sans-Serif" font-size="10.00">netspeak::invertedindex</text>
<text text-anchor="middle" x="215.5" y="-79" font-family="Helvetica,sans-Serif" font-size="10.00">::StorageWriter&lt; T &gt;</text>
</a>
</g>
</g>
<!-- Node0&#45;&gt;Node4 -->
<g id="edge5_Node000000_Node000004" class="edge">
<title>Node0&#45;&gt;Node4</title>
<g id="a_edge5_Node000000_Node000004"><a xlink:title=" ">
<path fill="none" stroke="#63b8ff" d="M98.16,-122.46C118.64,-116.21 143.56,-108.62 165.07,-102.06"/>
<polygon fill="#63b8ff" stroke="#63b8ff" points="97.04,-119.14 88.49,-125.4 99.08,-125.83 97.04,-119.14"/>
</a>
</g>
</g>
<!-- Node5 -->
<g id="Node000005" class="node">
<title>Node5</title>
<g id="a_Node000005"><a xlink:href="structnetspeak_1_1invertedindex_1_1iterator__type.html" target="_top" xlink:title=" ">
<polygon fill="white" stroke="#666666" points="283,-54 148,-54 148,-24 283,-24 283,-54"/>
<text text-anchor="start" x="156" y="-42" font-family="Helvetica,sans-Serif" font-size="10.00">netspeak::invertedindex</text>
<text text-anchor="middle" x="215.5" y="-31" font-family="Helvetica,sans-Serif" font-size="10.00">::iterator_type</text>
</a>
</g>
</g>
<!-- Node0&#45;&gt;Node5 -->
<g id="edge6_Node000000_Node000005" class="edge">
<title>Node0&#45;&gt;Node5</title>
<g id="a_edge6_Node000000_Node000005"><a xlink:title=" ">
<path fill="none" stroke="#63b8ff" d="M74.53,-118.27C92,-102.32 120.17,-78.49 148,-63 153.9,-59.72 160.33,-56.74 166.8,-54.08"/>
<polygon fill="#63b8ff" stroke="#63b8ff" points="71.8,-116.02 66.86,-125.4 76.57,-121.15 71.8,-116.02"/>
</a>
</g>
</g>
<!-- Node6 -->
<g id="Node000006" class="node">
<title>Node6</title>
<g id="a_Node000006"><a xlink:href="structnetspeak_1_1invertedindex_1_1constant__size__iter.html" target="_top" xlink:title=" ">
<polygon fill="white" stroke="#666666" points="454,-78 319,-78 319,-48 454,-48 454,-78"/>
<text text-anchor="start" x="327" y="-66" font-family="Helvetica,sans-Serif" font-size="10.00">netspeak::invertedindex</text>
<text text-anchor="middle" x="386.5" y="-55" font-family="Helvetica,sans-Serif" font-size="10.00">::constant_size_iter</text>
</a>
</g>
</g>
<!-- Node5&#45;&gt;Node6 -->
<g id="edge7_Node000005_Node000006" class="edge">
<title>Node5&#45;&gt;Node6</title>
<g id="a_edge7_Node000005_Node000006"><a xlink:title=" ">
<path fill="none" stroke="#63b8ff" d="M293.27,-49.9C301.83,-51.12 310.5,-52.35 318.92,-53.54"/>
<polygon fill="#63b8ff" stroke="#63b8ff" points="293.69,-46.43 283.29,-48.49 292.7,-53.36 293.69,-46.43"/>
</a>
</g>
</g>
<!-- Node7 -->
<g id="Node000007" class="node">
<title>Node7</title>
<g id="a_Node000007"><a xlink:href="structnetspeak_1_1invertedindex_1_1variable__size__iter.html" target="_top" xlink:title=" ">
<polygon fill="white" stroke="#666666" points="454,-30 319,-30 319,0 454,0 454,-30"/>
<text text-anchor="start" x="327" y="-18" font-family="Helvetica,sans-Serif" font-size="10.00">netspeak::invertedindex</text>
<text text-anchor="middle" x="386.5" y="-7" font-family="Helvetica,sans-Serif" font-size="10.00">::variable_size_iter</text>
</a>
</g>
</g>
<!-- Node5&#45;&gt;Node7 -->
<g id="edge8_Node000005_Node000007" class="edge">
<title>Node5&#45;&gt;Node7</title>
<g id="a_edge8_Node000005_Node000007"><a xlink:title=" ">
<path fill="none" stroke="#63b8ff" d="M293.27,-28.1C301.83,-26.88 310.5,-25.65 318.92,-24.46"/>
<polygon fill="#63b8ff" stroke="#63b8ff" points="292.7,-24.64 283.29,-29.51 293.69,-31.57 292.7,-24.64"/>
</a>
</g>
</g>
</g>
</svg>
