<?xml version="1.0" encoding="UTF-8" standalone="no"?>
<!DOCTYPE svg PUBLIC "-//W3C//DTD SVG 1.1//EN"
 "http://www.w3.org/Graphics/SVG/1.1/DTD/svg11.dtd">
<!-- Generated by graphviz version 2.43.0 (0)
 -->
<!-- Title: Graphical Class Hierarchy Pages: 1 -->
<svg width="355pt" height="98pt"
 viewBox="0.00 0.00 355.00 97.50" xmlns="http://www.w3.org/2000/svg" xmlns:xlink="http://www.w3.org/1999/xlink">
<g id="graph0" class="graph" transform="scale(1 1) rotate(0) translate(4 93.5)">
<title>Graphical Class Hierarchy</title>
<!-- Node0 -->
<g id="Node000000" class="node">
<title>Node0</title>
<g id="a_Node000000"><a xlink:href="classnetspeak_1_1invertedindex_1_1RawSearcher.html" target="_top" xlink:title=" ">
<polygon fill="white" stroke="#666666" points="135,-57 0,-57 0,-27 135,-27 135,-57"/>
<text text-anchor="start" x="8" y="-45" font-family="Helvetica,sans-Serif" font-size="10.00">netspeak::invertedindex</text>
<text text-anchor="middle" x="67.5" y="-34" font-family="Helvetica,sans-Serif" font-size="10.00">::RawSearcher</text>
</a>
</g>
</g>
<!-- Node1 -->
<g id="Node000001" class="node">
<title>Node1</title>
<g id="a_Node000001"><a xlink:href="classnetspeak_1_1invertedindex_1_1Searcher.html" target="_top" xlink:title=" ">
<polygon fill="white" stroke="#666666" points="326.5,-89.5 191.5,-89.5 191.5,-48.5 326.5,-48.5 326.5,-89.5"/>
<text text-anchor="start" x="199.5" y="-77.5" font-family="Helvetica,sans-Serif" font-size="10.00">netspeak::invertedindex</text>
<text text-anchor="start" x="199.5" y="-66.5" font-family="Helvetica,sans-Serif" font-size="10.00">::Searcher&lt; netspeak::</text>
<text text-anchor="middle" x="259" y="-55.5" font-family="Helvetica,sans-Serif" font-size="10.00">value::pair &gt;</text>
</a>
</g>
</g>
<!-- Node0&#45;&gt;Node1 -->
<g id="edge21_Node000000_Node000001" class="edge">
<title>Node0&#45;&gt;Node1</title>
<g id="a_edge21_Node000000_Node000001"><a xlink:title=" ">
<path fill="none" stroke="#63b8ff" d="M145.01,-52.9C160.34,-55.08 176.33,-57.36 191.3,-59.5"/>
<polygon fill="#63b8ff" stroke="#63b8ff" points="145.44,-49.43 135.04,-51.48 144.45,-56.36 145.44,-49.43"/>
</a>
</g>
</g>
<!-- Node2 -->
<g id="Node000002" class="node">
<title>Node2</title>
<g id="a_Node000002"><a xlink:href="classnetspeak_1_1invertedindex_1_1Searcher.html" target="_top" xlink:title=" ">
<polygon fill="white" stroke="#666666" points="347,-30 171,-30 171,0 347,0 347,-30"/>
<text text-anchor="start" x="179" y="-18" font-family="Helvetica,sans-Serif" font-size="10.00">netspeak::invertedindex</text>
<text text-anchor="middle" x="259" y="-7" font-family="Helvetica,sans-Serif" font-size="10.00">::Searcher&lt; Value, ThreadSafe &gt;</text>
</a>
</g>
</g>
<!-- Node0&#45;&gt;Node2 -->
<g id="edge22_Node000000_Node000002" class="edge">
<title>Node0&#45;&gt;Node2</title>
<g id="a_edge22_Node000000_Node000002"><a xlink:title=" ">
<path fill="none" stroke="#63b8ff" d="M144.98,-31.1C153.54,-29.88 162.31,-28.63 170.99,-27.4"/>
<polygon fill="#63b8ff" stroke="#63b8ff" points="144.45,-27.64 135.04,-32.52 145.44,-34.57 144.45,-27.64"/>
</a>
</g>
</g>
</g>
</svg>
