<?xml version="1.0" encoding="UTF-8" standalone="no"?>
<!DOCTYPE svg PUBLIC "-//W3C//DTD SVG 1.1//EN"
 "http://www.w3.org/Graphics/SVG/1.1/DTD/svg11.dtd">
<!-- Generated by graphviz version 2.43.0 (0)
 -->
<!-- Title: Graphical Class Hierarchy Pages: 1 -->
<svg width="298pt" height="312pt"
 viewBox="0.00 0.00 298.00 312.00" xmlns="http://www.w3.org/2000/svg" xmlns:xlink="http://www.w3.org/1999/xlink">
<g id="graph0" class="graph" transform="scale(1 1) rotate(0) translate(4 308)">
<title>Graphical Class Hierarchy</title>
<!-- Node0 -->
<g id="Node000000" class="node">
<title>Node0</title>
<g id="a_Node000000"><a xlink:title=" ">
<polygon fill="#e0e0e0" stroke="#999999" points="84,-166.5 0,-166.5 0,-147.5 84,-147.5 84,-166.5"/>
<text text-anchor="middle" x="42" y="-154.5" font-family="Helvetica,sans-Serif" font-size="10.00">std::formatter</text>
</a>
</g>
</g>
<!-- Node1 -->
<g id="Node000001" class="node">
<title>Node1</title>
<g id="a_Node000001"><a xlink:href="structstd_1_1formatter_3_01netspeak_1_1invertedindex_1_1Record_3_01T_01_4_01_4.html" target="_top" xlink:title=" ">
<polygon fill="white" stroke="#666666" points="290,-304 120,-304 120,-274 290,-274 290,-304"/>
<text text-anchor="start" x="128" y="-292" font-family="Helvetica,sans-Serif" font-size="10.00">std::formatter&lt; netspeak</text>
<text text-anchor="middle" x="205" y="-281" font-family="Helvetica,sans-Serif" font-size="10.00">::invertedindex::Record&lt; T &gt; &gt;</text>
</a>
</g>
</g>
<!-- Node0&#45;&gt;Node1 -->
<g id="edge31_Node000000_Node000001" class="edge">
<title>Node0&#45;&gt;Node1</title>
<g id="a_edge31_Node000000_Node000001"><a xlink:title=" ">
<path fill="none" stroke="#63b8ff" d="M51.54,-175.98C63.43,-200.24 87.25,-241.87 120,-265 124.83,-268.41 130.14,-271.34 135.67,-273.86"/>
<polygon fill="#63b8ff" stroke="#63b8ff" points="54.62,-174.3 47.18,-166.75 48.29,-177.28 54.62,-174.3"/>
</a>
</g>
</g>
<!-- Node2 -->
<g id="Node000002" class="node">
<title>Node2</title>
<g id="a_Node000002"><a xlink:href="structstd_1_1formatter_3_01netspeak_1_1value_1_1pair_3_01T1_00_01T2_01_4_01_4.html" target="_top" xlink:title=" ">
<polygon fill="white" stroke="#666666" points="275,-256 135,-256 135,-226 275,-226 275,-256"/>
<text text-anchor="start" x="143" y="-244" font-family="Helvetica,sans-Serif" font-size="10.00">std::formatter&lt; netspeak</text>
<text text-anchor="middle" x="205" y="-233" font-family="Helvetica,sans-Serif" font-size="10.00">::value::pair&lt; T1, T2 &gt; &gt;</text>
</a>
</g>
</g>
<!-- Node0&#45;&gt;Node2 -->
<g id="edge32_Node000000_Node000002" class="edge">
<title>Node0&#45;&gt;Node2</title>
<g id="a_edge32_Node000000_Node000002"><a xlink:title=" ">
<path fill="none" stroke="#63b8ff" d="M59.96,-173.37C74.74,-186.82 97.31,-205.47 120,-217 126.63,-220.37 133.79,-223.32 141.05,-225.9"/>
<polygon fill="#63b8ff" stroke="#63b8ff" points="62.3,-170.77 52.6,-166.51 57.53,-175.89 62.3,-170.77"/>
</a>
</g>
</g>
<!-- Node3 -->
<g id="Node000003" class="node">
<title>Node3</title>
<g id="a_Node000003"><a xlink:href="structstd_1_1formatter_3_01netspeak_1_1value_1_1quadruple_3_01T1_00_01T2_00_01T3_00_01T4_01_4_01_4.html" target="_top" xlink:title=" ">
<polygon fill="white" stroke="#666666" points="275,-207.5 135,-207.5 135,-166.5 275,-166.5 275,-207.5"/>
<text text-anchor="start" x="143" y="-195.5" font-family="Helvetica,sans-Serif" font-size="10.00">std::formatter&lt; netspeak</text>
<text text-anchor="start" x="143" y="-184.5" font-family="Helvetica,sans-Serif" font-size="10.00">::value::quadruple&lt; T1,</text>
<text text-anchor="middle" x="205" y="-173.5" font-family="Helvetica,sans-Serif" font-size="10.00"> T2, T3, T4 &gt; &gt;</text>
</a>
</g>
</g>
<!-- Node0&#45;&gt;Node3 -->
<g id="edge33_Node000000_Node000003" class="edge">
<title>Node0&#45;&gt;Node3</title>
<g id="a_edge33_Node000000_Node000003"><a xlink:title=" ">
<path fill="none" stroke="#63b8ff" d="M94.14,-166.53C107.09,-168.94 121.21,-171.57 134.88,-174.12"/>
<polygon fill="#63b8ff" stroke="#63b8ff" points="94.52,-163.04 84.04,-164.65 93.23,-169.92 94.52,-163.04"/>
</a>
</g>
</g>
<!-- Node4 -->
<g id="Node000004" class="node">
<title>Node4</title>
<g id="a_Node000004"><a xlink:href="structstd_1_1formatter_3_01netspeak_1_1value_1_1triple_3_01T1_00_01T2_00_01T3_01_4_01_4.html" target="_top" xlink:title=" ">
<polygon fill="white" stroke="#666666" points="275,-148.5 135,-148.5 135,-107.5 275,-107.5 275,-148.5"/>
<text text-anchor="start" x="143" y="-136.5" font-family="Helvetica,sans-Serif" font-size="10.00">std::formatter&lt; netspeak</text>
<text text-anchor="start" x="143" y="-125.5" font-family="Helvetica,sans-Serif" font-size="10.00">::value::triple&lt; T1, T2,</text>
<text text-anchor="middle" x="205" y="-114.5" font-family="Helvetica,sans-Serif" font-size="10.00"> T3 &gt; &gt;</text>
</a>
</g>
</g>
<!-- Node0&#45;&gt;Node4 -->
<g id="edge34_Node000000_Node000004" class="edge">
<title>Node0&#45;&gt;Node4</title>
<g id="a_edge34_Node000000_Node000004"><a xlink:title=" ">
<path fill="none" stroke="#63b8ff" d="M94.14,-147.79C107.09,-145.46 121.21,-142.91 134.88,-140.45"/>
<polygon fill="#63b8ff" stroke="#63b8ff" points="93.26,-144.39 84.04,-149.61 94.51,-151.28 93.26,-144.39"/>
</a>
</g>
</g>
<!-- Node5 -->
<g id="Node000005" class="node">
<title>Node5</title>
<g id="a_Node000005"><a xlink:href="structstd_1_1formatter_3_01std_1_1filesystem_1_1directory__entry_01_4.html" target="_top" xlink:title=" ">
<polygon fill="white" stroke="#666666" points="266.5,-89.5 143.5,-89.5 143.5,-48.5 266.5,-48.5 266.5,-89.5"/>
<text text-anchor="start" x="151.5" y="-77.5" font-family="Helvetica,sans-Serif" font-size="10.00">std::formatter&lt; std</text>
<text text-anchor="start" x="151.5" y="-66.5" font-family="Helvetica,sans-Serif" font-size="10.00">::filesystem::directory</text>
<text text-anchor="middle" x="205" y="-55.5" font-family="Helvetica,sans-Serif" font-size="10.00">_entry &gt;</text>
</a>
</g>
</g>
<!-- Node0&#45;&gt;Node5 -->
<g id="edge35_Node000000_Node000005" class="edge">
<title>Node0&#45;&gt;Node5</title>
<g id="a_edge35_Node000000_Node000005"><a xlink:title=" ">
<path fill="none" stroke="#63b8ff" d="M61.69,-140.36C76.64,-127.7 98.57,-110.55 120,-99 127.36,-95.03 135.35,-91.4 143.39,-88.15"/>
<polygon fill="#63b8ff" stroke="#63b8ff" points="59.03,-138.03 53.75,-147.21 63.6,-143.32 59.03,-138.03"/>
</a>
</g>
</g>
<!-- Node6 -->
<g id="Node000006" class="node">
<title>Node6</title>
<g id="a_Node000006"><a xlink:href="structstd_1_1formatter_3_01std_1_1filesystem_1_1path_01_4.html" target="_top" xlink:title=" ">
<polygon fill="white" stroke="#666666" points="261.5,-30 148.5,-30 148.5,0 261.5,0 261.5,-30"/>
<text text-anchor="start" x="156.5" y="-18" font-family="Helvetica,sans-Serif" font-size="10.00">std::formatter&lt; std</text>
<text text-anchor="middle" x="205" y="-7" font-family="Helvetica,sans-Serif" font-size="10.00">::filesystem::path &gt;</text>
</a>
</g>
</g>
<!-- Node0&#45;&gt;Node6 -->
<g id="edge36_Node000000_Node000006" class="edge">
<title>Node0&#45;&gt;Node6</title>
<g id="a_edge36_Node000000_Node000006"><a xlink:title=" ">
<path fill="none" stroke="#63b8ff" d="M50.5,-138.02C61.72,-112.05 85.35,-65.75 120,-40 128.31,-33.83 138.12,-29.17 148.07,-25.66"/>
<polygon fill="#63b8ff" stroke="#63b8ff" points="47.17,-136.91 46.57,-147.49 53.64,-139.59 47.17,-136.91"/>
</a>
</g>
</g>
</g>
</svg>
