<?xml version="1.0" encoding="UTF-8" standalone="no"?>
<!DOCTYPE svg PUBLIC "-//W3C//DTD SVG 1.1//EN"
 "http://www.w3.org/Graphics/SVG/1.1/DTD/svg11.dtd">
<!-- Generated by graphviz version 2.43.0 (0)
 -->
<!-- Title: Graphical Class Hierarchy Pages: 1 -->
<svg width="294pt" height="134pt"
 viewBox="0.00 0.00 294.00 134.00" xmlns="http://www.w3.org/2000/svg" xmlns:xlink="http://www.w3.org/1999/xlink">
<g id="graph0" class="graph" transform="scale(1 1) rotate(0) translate(4 130)">
<title>Graphical Class Hierarchy</title>
<!-- Node0 -->
<g id="Node000000" class="node">
<title>Node0</title>
<g id="a_Node000000"><a xlink:title=" ">
<polygon fill="#e0e0e0" stroke="#999999" points="141,-72.5 0,-72.5 0,-53.5 141,-53.5 141,-72.5"/>
<text text-anchor="middle" x="70.5" y="-60.5" font-family="Helvetica,sans-Serif" font-size="10.00">NetspeakService::Service</text>
</a>
</g>
</g>
<!-- Node1 -->
<g id="Node000001" class="node">
<title>Node1</title>
<g id="a_Node000001"><a xlink:href="classnetspeak_1_1service_1_1LoadBalanceProxy.html" target="_top" xlink:title="A proxy to unify and load&#45;balance any number of compatible Netspeak indexes.">
<polygon fill="white" stroke="#666666" points="286,-126 177,-126 177,-96 286,-96 286,-126"/>
<text text-anchor="start" x="185" y="-114" font-family="Helvetica,sans-Serif" font-size="10.00">netspeak::service::</text>
<text text-anchor="middle" x="231.5" y="-103" font-family="Helvetica,sans-Serif" font-size="10.00">LoadBalanceProxy</text>
</a>
</g>
</g>
<!-- Node0&#45;&gt;Node1 -->
<g id="edge27_Node000000_Node000001" class="edge">
<title>Node0&#45;&gt;Node1</title>
<g id="a_edge27_Node000000_Node000001"><a xlink:title=" ">
<path fill="none" stroke="#63b8ff" d="M113.05,-75.54C133.73,-81.79 158.89,-89.38 180.6,-95.94"/>
<polygon fill="#63b8ff" stroke="#63b8ff" points="113.88,-72.14 103.29,-72.6 111.86,-78.84 113.88,-72.14"/>
</a>
</g>
</g>
<!-- Node2 -->
<g id="Node000002" class="node">
<title>Node2</title>
<g id="a_Node000002"><a xlink:href="classnetspeak_1_1service_1_1RequestLogger.html" target="_top" xlink:title=" ">
<polygon fill="white" stroke="#666666" points="286,-78 177,-78 177,-48 286,-48 286,-78"/>
<text text-anchor="start" x="185" y="-66" font-family="Helvetica,sans-Serif" font-size="10.00">netspeak::service::</text>
<text text-anchor="middle" x="231.5" y="-55" font-family="Helvetica,sans-Serif" font-size="10.00">RequestLogger</text>
</a>
</g>
</g>
<!-- Node0&#45;&gt;Node2 -->
<g id="edge28_Node000000_Node000002" class="edge">
<title>Node0&#45;&gt;Node2</title>
<g id="a_edge28_Node000000_Node000002"><a xlink:title=" ">
<path fill="none" stroke="#63b8ff" d="M151.28,-63C159.86,-63 168.43,-63 176.59,-63"/>
<polygon fill="#63b8ff" stroke="#63b8ff" points="151.24,-59.5 141.24,-63 151.24,-66.5 151.24,-59.5"/>
</a>
</g>
</g>
<!-- Node3 -->
<g id="Node000003" class="node">
<title>Node3</title>
<g id="a_Node000003"><a xlink:href="classnetspeak_1_1service_1_1UniqueMap.html" target="_top" xlink:title="An implementation of the Netspeak gRPC service that will forward all requests to a unique Netspeak in...">
<polygon fill="white" stroke="#666666" points="286,-30 177,-30 177,0 286,0 286,-30"/>
<text text-anchor="start" x="185" y="-18" font-family="Helvetica,sans-Serif" font-size="10.00">netspeak::service::</text>
<text text-anchor="middle" x="231.5" y="-7" font-family="Helvetica,sans-Serif" font-size="10.00">UniqueMap</text>
</a>
</g>
</g>
<!-- Node0&#45;&gt;Node3 -->
<g id="edge29_Node000000_Node000003" class="edge">
<title>Node0&#45;&gt;Node3</title>
<g id="a_edge29_Node000000_Node000003"><a xlink:title=" ">
<path fill="none" stroke="#63b8ff" d="M113.05,-50.46C133.73,-44.21 158.89,-36.62 180.6,-30.06"/>
<polygon fill="#63b8ff" stroke="#63b8ff" points="111.86,-47.16 103.29,-53.4 113.88,-53.86 111.86,-47.16"/>
</a>
</g>
</g>
</g>
</svg>
