<?xml version="1.0" encoding="UTF-8" standalone="no"?>
<!DOCTYPE svg PUBLIC "-//W3C//DTD SVG 1.1//EN"
 "http://www.w3.org/Graphics/SVG/1.1/DTD/svg11.dtd">
<!-- Generated by graphviz version 2.43.0 (0)
 -->
<!-- Title: Graphical Class Hierarchy Pages: 1 -->
<svg width="235pt" height="86pt"
 viewBox="0.00 0.00 235.00 86.00" xmlns="http://www.w3.org/2000/svg" xmlns:xlink="http://www.w3.org/1999/xlink">
<g id="graph0" class="graph" transform="scale(1 1) rotate(0) translate(4 82)">
<title>Graphical Class Hierarchy</title>
<!-- Node0 -->
<g id="Node000000" class="node">
<title>Node0</title>
<g id="a_Node000000"><a xlink:title=" ">
<polygon fill="#e0e0e0" stroke="#999999" points="56,-48.5 0,-48.5 0,-29.5 56,-29.5 56,-48.5"/>
<text text-anchor="middle" x="28" y="-36.5" font-family="Helvetica,sans-Serif" font-size="10.00">std::pair</text>
</a>
</g>
</g>
<!-- Node1 -->
<g id="Node000001" class="node">
<title>Node1</title>
<g id="a_Node000001"><a xlink:href="classnetspeak_1_1invertedindex_1_1Record.html" target="_top" xlink:title=" ">
<polygon fill="white" stroke="#666666" points="227,-78 92,-78 92,-48 227,-48 227,-78"/>
<text text-anchor="start" x="100" y="-66" font-family="Helvetica,sans-Serif" font-size="10.00">netspeak::invertedindex</text>
<text text-anchor="middle" x="159.5" y="-55" font-family="Helvetica,sans-Serif" font-size="10.00">::Record&lt; T &gt;</text>
</a>
</g>
</g>
<!-- Node0&#45;&gt;Node1 -->
<g id="edge38_Node000000_Node000001" class="edge">
<title>Node0&#45;&gt;Node1</title>
<g id="a_edge38_Node000000_Node000001"><a xlink:title=" ">
<path fill="none" stroke="#63b8ff" d="M66.01,-45.86C74.15,-47.37 83,-49.01 91.9,-50.66"/>
<polygon fill="#63b8ff" stroke="#63b8ff" points="66.62,-42.41 56.15,-44.03 65.34,-49.29 66.62,-42.41"/>
</a>
</g>
</g>
<!-- Node2 -->
<g id="Node000002" class="node">
<title>Node2</title>
<g id="a_Node000002"><a xlink:href="classnetspeak_1_1value_1_1pair.html" target="_top" xlink:title=" ">
<polygon fill="white" stroke="#666666" points="219,-30 100,-30 100,0 219,0 219,-30"/>
<text text-anchor="start" x="108" y="-18" font-family="Helvetica,sans-Serif" font-size="10.00">netspeak::value::pair</text>
<text text-anchor="middle" x="159.5" y="-7" font-family="Helvetica,sans-Serif" font-size="10.00">&lt; T1, T2 &gt;</text>
</a>
</g>
</g>
<!-- Node0&#45;&gt;Node2 -->
<g id="edge39_Node000000_Node000002" class="edge">
<title>Node0&#45;&gt;Node2</title>
<g id="a_edge39_Node000000_Node000002"><a xlink:title=" ">
<path fill="none" stroke="#8b1a1a" d="M66.22,-32.1C76.74,-30.15 88.46,-27.98 99.92,-25.86"/>
<polygon fill="#8b1a1a" stroke="#8b1a1a" points="65.34,-28.71 56.15,-33.97 66.62,-35.59 65.34,-28.71"/>
</a>
</g>
</g>
</g>
</svg>
