<?xml version="1.0" encoding="UTF-8" standalone="no"?>
<!DOCTYPE svg PUBLIC "-//W3C//DTD SVG 1.1//EN"
 "http://www.w3.org/Graphics/SVG/1.1/DTD/svg11.dtd">
<!-- Generated by graphviz version 2.43.0 (0)
 -->
<!-- Title: Graphical Class Hierarchy Pages: 1 -->
<svg width="447pt" height="86pt"
 viewBox="0.00 0.00 447.00 86.00" xmlns="http://www.w3.org/2000/svg" xmlns:xlink="http://www.w3.org/1999/xlink">
<g id="graph0" class="graph" transform="scale(1 1) rotate(0) translate(4 82)">
<title>Graphical Class Hierarchy</title>
<!-- Node0 -->
<g id="Node000000" class="node">
<title>Node0</title>
<g id="a_Node000000"><a xlink:title=" ">
<polygon fill="#e0e0e0" stroke="#999999" points="104,-48.5 0,-48.5 0,-29.5 104,-29.5 104,-48.5"/>
<text text-anchor="middle" x="52" y="-36.5" font-family="Helvetica,sans-Serif" font-size="10.00">std::runtime_error</text>
</a>
</g>
</g>
<!-- Node1 -->
<g id="Node000001" class="node">
<title>Node1</title>
<g id="a_Node000001"><a xlink:href="structnetspeak_1_1util_1_1tracable__runtime__error.html" target="_top" xlink:title=" ">
<polygon fill="white" stroke="#666666" points="269,-54 140,-54 140,-24 269,-24 269,-54"/>
<text text-anchor="start" x="148" y="-42" font-family="Helvetica,sans-Serif" font-size="10.00">netspeak::util::tracable</text>
<text text-anchor="middle" x="204.5" y="-31" font-family="Helvetica,sans-Serif" font-size="10.00">_runtime_error</text>
</a>
</g>
</g>
<!-- Node0&#45;&gt;Node1 -->
<g id="edge40_Node000000_Node000001" class="edge">
<title>Node0&#45;&gt;Node1</title>
<g id="a_edge40_Node000000_Node000001"><a xlink:title=" ">
<path fill="none" stroke="#63b8ff" d="M114.44,-39C122.82,-39 131.43,-39 139.85,-39"/>
<polygon fill="#63b8ff" stroke="#63b8ff" points="114.37,-35.5 104.37,-39 114.37,-42.5 114.37,-35.5"/>
</a>
</g>
</g>
<!-- Node2 -->
<g id="Node000002" class="node">
<title>Node2</title>
<g id="a_Node000002"><a xlink:href="structnetspeak_1_1invalid__query__error.html" target="_top" xlink:title=" ">
<polygon fill="white" stroke="#666666" points="439,-78 305,-78 305,-48 439,-48 439,-78"/>
<text text-anchor="start" x="313" y="-66" font-family="Helvetica,sans-Serif" font-size="10.00">netspeak::invalid_query</text>
<text text-anchor="middle" x="372" y="-55" font-family="Helvetica,sans-Serif" font-size="10.00">_error</text>
</a>
</g>
</g>
<!-- Node1&#45;&gt;Node2 -->
<g id="edge41_Node000001_Node000002" class="edge">
<title>Node1&#45;&gt;Node2</title>
<g id="a_edge41_Node000001_Node000002"><a xlink:title=" ">
<path fill="none" stroke="#63b8ff" d="M279.04,-49.66C287.66,-50.91 296.41,-52.18 304.91,-53.42"/>
<polygon fill="#63b8ff" stroke="#63b8ff" points="279.41,-46.18 269.01,-48.21 278.41,-53.11 279.41,-46.18"/>
</a>
</g>
</g>
<!-- Node3 -->
<g id="Node000003" class="node">
<title>Node3</title>
<g id="a_Node000003"><a xlink:href="structnetspeak_1_1util_1_1format__properties__error.html" target="_top" xlink:title=" ">
<polygon fill="white" stroke="#666666" points="433,-30 311,-30 311,0 433,0 433,-30"/>
<text text-anchor="start" x="319" y="-18" font-family="Helvetica,sans-Serif" font-size="10.00">netspeak::util::format</text>
<text text-anchor="middle" x="372" y="-7" font-family="Helvetica,sans-Serif" font-size="10.00">_properties_error</text>
</a>
</g>
</g>
<!-- Node1&#45;&gt;Node3 -->
<g id="edge42_Node000001_Node000003" class="edge">
<title>Node1&#45;&gt;Node3</title>
<g id="a_edge42_Node000001_Node000003"><a xlink:title=" ">
<path fill="none" stroke="#63b8ff" d="M279.12,-28.32C289.76,-26.78 300.59,-25.21 310.92,-23.71"/>
<polygon fill="#63b8ff" stroke="#63b8ff" points="278.41,-24.89 269.01,-29.79 279.41,-31.82 278.41,-24.89"/>
</a>
</g>
</g>
</g>
</svg>
