<?xml version="1.0" encoding="UTF-8" standalone="no"?>
<!DOCTYPE svg PUBLIC "-//W3C//DTD SVG 1.1//EN"
 "http://www.w3.org/Graphics/SVG/1.1/DTD/svg11.dtd">
<!-- Generated by graphviz version 2.43.0 (0)
 -->
<!-- Title: Graphical Class Hierarchy Pages: 1 -->
<svg width="243pt" height="212pt"
 viewBox="0.00 0.00 243.00 212.00" xmlns="http://www.w3.org/2000/svg" xmlns:xlink="http://www.w3.org/1999/xlink">
<g id="graph0" class="graph" transform="scale(1 1) rotate(0) translate(4 208)">
<title>Graphical Class Hierarchy</title>
<!-- Node0 -->
<g id="Node000000" class="node">
<title>Node0</title>
<g id="a_Node000000"><a xlink:href="classcli_1_1Command.html" target="_top" xlink:title=" ">
<polygon fill="white" stroke="#666666" points="84,-111 0,-111 0,-92 84,-92 84,-111"/>
<text text-anchor="middle" x="42" y="-99" font-family="Helvetica,sans-Serif" font-size="10.00">cli::Command</text>
</a>
</g>
</g>
<!-- Node1 -->
<g id="Node000001" class="node">
<title>Node1</title>
<g id="a_Node000001"><a xlink:href="classcli_1_1BuildCommand.html" target="_top" xlink:title=" ">
<polygon fill="white" stroke="#666666" points="232,-204 123,-204 123,-185 232,-185 232,-204"/>
<text text-anchor="middle" x="177.5" y="-192" font-family="Helvetica,sans-Serif" font-size="10.00">cli::BuildCommand</text>
</a>
</g>
</g>
<!-- Node0&#45;&gt;Node1 -->
<g id="edge9_Node000000_Node000001" class="edge">
<title>Node0&#45;&gt;Node1</title>
<g id="a_edge9_Node000000_Node000001"><a xlink:title=" ">
<path fill="none" stroke="#63b8ff" d="M56.99,-119.26C71.19,-136.19 94.65,-161.29 120,-176.5 125.56,-179.84 131.81,-182.62 138.06,-184.92"/>
<polygon fill="#63b8ff" stroke="#63b8ff" points="59.48,-116.78 50.45,-111.25 54.06,-121.21 59.48,-116.78"/>
</a>
</g>
</g>
<!-- Node2 -->
<g id="Node000002" class="node">
<title>Node2</title>
<g id="a_Node000002"><a xlink:href="classcli_1_1ProxyCommand.html" target="_top" xlink:title=" ">
<polygon fill="white" stroke="#666666" points="233.5,-167 121.5,-167 121.5,-148 233.5,-148 233.5,-167"/>
<text text-anchor="middle" x="177.5" y="-155" font-family="Helvetica,sans-Serif" font-size="10.00">cli::ProxyCommand</text>
</a>
</g>
</g>
<!-- Node0&#45;&gt;Node2 -->
<g id="edge10_Node000000_Node000002" class="edge">
<title>Node0&#45;&gt;Node2</title>
<g id="a_edge10_Node000000_Node000002"><a xlink:title=" ">
<path fill="none" stroke="#63b8ff" d="M69.39,-115.75C84.05,-123.35 102.76,-132.55 120,-139.5 127.54,-142.54 135.81,-145.42 143.64,-147.95"/>
<polygon fill="#63b8ff" stroke="#63b8ff" points="70.87,-112.58 60.39,-111.02 67.62,-118.77 70.87,-112.58"/>
</a>
</g>
</g>
<!-- Node3 -->
<g id="Node000003" class="node">
<title>Node3</title>
<g id="a_Node000003"><a xlink:href="classcli_1_1RegexCommand.html" target="_top" xlink:title=" ">
<polygon fill="white" stroke="#666666" points="235,-130 120,-130 120,-111 235,-111 235,-130"/>
<text text-anchor="middle" x="177.5" y="-118" font-family="Helvetica,sans-Serif" font-size="10.00">cli::RegexCommand</text>
</a>
</g>
</g>
<!-- Node0&#45;&gt;Node3 -->
<g id="edge11_Node000000_Node000003" class="edge">
<title>Node0&#45;&gt;Node3</title>
<g id="a_edge11_Node000000_Node000003"><a xlink:title=" ">
<path fill="none" stroke="#63b8ff" d="M94.09,-108.77C102.41,-109.96 111.08,-111.19 119.54,-112.39"/>
<polygon fill="#63b8ff" stroke="#63b8ff" points="94.54,-105.3 84.14,-107.36 93.55,-112.23 94.54,-105.3"/>
</a>
</g>
</g>
<!-- Node4 -->
<g id="Node000004" class="node">
<title>Node4</title>
<g id="a_Node000004"><a xlink:href="classcli_1_1ServeCommand.html" target="_top" xlink:title=" ">
<polygon fill="white" stroke="#666666" points="233.5,-93 121.5,-93 121.5,-74 233.5,-74 233.5,-93"/>
<text text-anchor="middle" x="177.5" y="-81" font-family="Helvetica,sans-Serif" font-size="10.00">cli::ServeCommand</text>
</a>
</g>
</g>
<!-- Node0&#45;&gt;Node4 -->
<g id="edge12_Node000000_Node000004" class="edge">
<title>Node0&#45;&gt;Node4</title>
<g id="a_edge12_Node000000_Node000004"><a xlink:title=" ">
<path fill="none" stroke="#63b8ff" d="M94.07,-94.61C103.04,-93.4 112.41,-92.14 121.49,-90.92"/>
<polygon fill="#63b8ff" stroke="#63b8ff" points="93.59,-91.15 84.14,-95.95 94.52,-98.08 93.59,-91.15"/>
</a>
</g>
</g>
<!-- Node5 -->
<g id="Node000005" class="node">
<title>Node5</title>
<g id="a_Node000005"><a xlink:href="classcli_1_1ShellCommand.html" target="_top" xlink:title=" ">
<polygon fill="white" stroke="#666666" points="231.5,-56 123.5,-56 123.5,-37 231.5,-37 231.5,-56"/>
<text text-anchor="middle" x="177.5" y="-44" font-family="Helvetica,sans-Serif" font-size="10.00">cli::ShellCommand</text>
</a>
</g>
</g>
<!-- Node0&#45;&gt;Node5 -->
<g id="edge13_Node000000_Node000005" class="edge">
<title>Node0&#45;&gt;Node5</title>
<g id="a_edge13_Node000000_Node000005"><a xlink:title=" ">
<path fill="none" stroke="#63b8ff" d="M71.39,-87.29C85.78,-80.33 103.64,-72.05 120,-65.5 128.36,-62.15 137.56,-58.89 146.07,-56.03"/>
<polygon fill="#63b8ff" stroke="#63b8ff" points="69.48,-84.33 62.04,-91.86 72.56,-90.61 69.48,-84.33"/>
</a>
</g>
</g>
<!-- Node6 -->
<g id="Node000006" class="node">
<title>Node6</title>
<g id="a_Node000006"><a xlink:href="classcli_1_1StressCommand.html" target="_top" xlink:title=" ">
<polygon fill="white" stroke="#666666" points="234.5,-19 120.5,-19 120.5,0 234.5,0 234.5,-19"/>
<text text-anchor="middle" x="177.5" y="-7" font-family="Helvetica,sans-Serif" font-size="10.00">cli::StressCommand</text>
</a>
</g>
</g>
<!-- Node0&#45;&gt;Node6 -->
<g id="edge14_Node000000_Node000006" class="edge">
<title>Node0&#45;&gt;Node6</title>
<g id="a_edge14_Node000000_Node000006"><a xlink:title=" ">
<path fill="none" stroke="#63b8ff" d="M57.61,-83.78C71.96,-67.39 95.27,-43.38 120,-28.5 126.21,-24.77 133.24,-21.65 140.19,-19.1"/>
<polygon fill="#63b8ff" stroke="#63b8ff" points="54.79,-81.69 50.95,-91.57 60.11,-86.24 54.79,-81.69"/>
</a>
</g>
</g>
</g>
</svg>
