<?xml version="1.0" encoding="UTF-8" standalone="no"?>
<!DOCTYPE svg PUBLIC "-//W3C//DTD SVG 1.1//EN"
 "http://www.w3.org/Graphics/SVG/1.1/DTD/svg11.dtd">
<!-- Generated by graphviz version 2.43.0 (0)
 -->
<!-- Title: netspeak/bighashmap/InternalMap.hpp Pages: 1 -->
<svg width="1366pt" height="269pt"
 viewBox="0.00 0.00 1366.36 269.00" xmlns="http://www.w3.org/2000/svg" xmlns:xlink="http://www.w3.org/1999/xlink">
<g id="graph0" class="graph" transform="scale(1 1) rotate(0) translate(4 265)">
<title>netspeak/bighashmap/InternalMap.hpp</title>
<!-- Node1 -->
<g id="Node000001" class="node">
<title>Node1</title>
<g id="a_Node000001"><a xlink:title=" ">
<polygon fill="#999999" stroke="#666666" points="360.86,-261 235.86,-261 235.86,-231 360.86,-231 360.86,-261"/>
<text text-anchor="start" x="243.86" y="-249" font-family="Helvetica,sans-Serif" font-size="10.00">netspeak/bighashmap</text>
<text text-anchor="middle" x="298.36" y="-238" font-family="Helvetica,sans-Serif" font-size="10.00">/InternalMap.hpp</text>
</a>
</g>
</g>
<!-- Node2 -->
<g id="Node000002" class="node">
<title>Node2</title>
<g id="a_Node000002"><a xlink:title=" ">
<polygon fill="#e0e0e0" stroke="#999999" points="353.36,-19 309.36,-19 309.36,0 353.36,0 353.36,-19"/>
<text text-anchor="middle" x="331.36" y="-7" font-family="Helvetica,sans-Serif" font-size="10.00">string</text>
</a>
</g>
</g>
<!-- Node1&#45;&gt;Node2 -->
<g id="edge1_Node000001_Node000002" class="edge">
<title>Node1&#45;&gt;Node2</title>
<g id="a_edge1_Node000001_Node000002"><a xlink:title=" ">
<path fill="none" stroke="#63b8ff" d="M235.7,-243.16C166.45,-237.26 58.71,-215.64 13.36,-140 2.64,-122.13 -11.66,-87.06 18.36,-55 55.92,-14.89 226.19,-10.3 298.61,-10.21"/>
<polygon fill="#63b8ff" stroke="#63b8ff" points="298.95,-13.71 308.95,-10.22 298.96,-6.71 298.95,-13.71"/>
</a>
</g>
</g>
<!-- Node3 -->
<g id="Node000003" class="node">
<title>Node3</title>
<g id="a_Node000003"><a xlink:href="checksum_8hpp.html" target="_top" xlink:title=" ">
<polygon fill="white" stroke="#666666" points="269.86,-195 154.86,-195 154.86,-176 269.86,-176 269.86,-195"/>
<text text-anchor="middle" x="212.36" y="-183" font-family="Helvetica,sans-Serif" font-size="10.00">../util/checksum.hpp</text>
</a>
</g>
</g>
<!-- Node1&#45;&gt;Node3 -->
<g id="edge2_Node000001_Node000003" class="edge">
<title>Node1&#45;&gt;Node3</title>
<g id="a_edge2_Node000001_Node000003"><a xlink:title=" ">
<path fill="none" stroke="#63b8ff" d="M277.54,-230.84C264.21,-221.77 246.97,-210.04 233.56,-200.92"/>
<polygon fill="#63b8ff" stroke="#63b8ff" points="235.23,-197.83 224.99,-195.09 231.29,-203.61 235.23,-197.83"/>
</a>
</g>
</g>
<!-- Node5 -->
<g id="Node000005" class="node">
<title>Node5</title>
<g id="a_Node000005"><a xlink:href="netspeak_2util_2logging_8hpp.html" target="_top" xlink:title=" ">
<polygon fill="white" stroke="#666666" points="123.86,-140 22.86,-140 22.86,-121 123.86,-121 123.86,-140"/>
<text text-anchor="middle" x="73.36" y="-128" font-family="Helvetica,sans-Serif" font-size="10.00">../util/logging.hpp</text>
</a>
</g>
</g>
<!-- Node1&#45;&gt;Node5 -->
<g id="edge5_Node000001_Node000005" class="edge">
<title>Node1&#45;&gt;Node5</title>
<g id="a_edge5_Node000001_Node000005"><a xlink:title=" ">
<path fill="none" stroke="#63b8ff" d="M236.38,-230.93C207.55,-222.86 173.5,-211.09 145.36,-195 123.1,-182.28 101.6,-161.92 87.98,-147.69"/>
<polygon fill="#63b8ff" stroke="#63b8ff" points="90.3,-145.06 80.92,-140.13 85.19,-149.83 90.3,-145.06"/>
</a>
</g>
</g>
<!-- Node9 -->
<g id="Node000009" class="node">
<title>Node9</title>
<g id="a_Node000009"><a xlink:href="systemio_8hpp.html" target="_top" xlink:title=" ">
<polygon fill="white" stroke="#666666" points="893.36,-140 783.36,-140 783.36,-121 893.36,-121 893.36,-140"/>
<text text-anchor="middle" x="838.36" y="-128" font-family="Helvetica,sans-Serif" font-size="10.00">../util/systemio.hpp</text>
</a>
</g>
</g>
<!-- Node1&#45;&gt;Node9 -->
<g id="edge10_Node000001_Node000009" class="edge">
<title>Node1&#45;&gt;Node9</title>
<g id="a_edge10_Node000001_Node000009"><a xlink:title=" ">
<path fill="none" stroke="#63b8ff" d="M361.1,-231.81C469.27,-209.08 688.79,-162.94 787.85,-142.12"/>
<polygon fill="#63b8ff" stroke="#63b8ff" points="788.84,-145.48 797.91,-140 787.4,-138.63 788.84,-145.48"/>
</a>
</g>
</g>
<!-- Node17 -->
<g id="Node000017" class="node">
<title>Node17</title>
<g id="a_Node000017"><a xlink:href="pair_8hpp.html" target="_top" xlink:title=" ">
<polygon fill="white" stroke="#666666" points="340.86,-140 245.86,-140 245.86,-121 340.86,-121 340.86,-140"/>
<text text-anchor="middle" x="293.36" y="-128" font-family="Helvetica,sans-Serif" font-size="10.00">../value/pair.hpp</text>
</a>
</g>
</g>
<!-- Node1&#45;&gt;Node17 -->
<g id="edge21_Node000001_Node000017" class="edge">
<title>Node1&#45;&gt;Node17</title>
<g id="a_edge21_Node000001_Node000017"><a xlink:title=" ">
<path fill="none" stroke="#63b8ff" d="M297.73,-230.63C296.83,-210.21 295.18,-172.81 294.18,-150.24"/>
<polygon fill="#63b8ff" stroke="#63b8ff" points="297.68,-150.07 293.74,-140.23 290.69,-150.37 297.68,-150.07"/>
</a>
</g>
</g>
<!-- Node19 -->
<g id="Node000019" class="node">
<title>Node19</title>
<g id="a_Node000019"><a xlink:href="pair__traits_8hpp.html" target="_top" xlink:title=" ">
<polygon fill="white" stroke="#666666" points="472.36,-195 346.36,-195 346.36,-176 472.36,-176 472.36,-195"/>
<text text-anchor="middle" x="409.36" y="-183" font-family="Helvetica,sans-Serif" font-size="10.00">../value/pair_traits.hpp</text>
</a>
</g>
</g>
<!-- Node1&#45;&gt;Node19 -->
<g id="edge23_Node000001_Node000019" class="edge">
<title>Node1&#45;&gt;Node19</title>
<g id="a_edge23_Node000001_Node000019"><a xlink:title=" ">
<path fill="none" stroke="#63b8ff" d="M324.95,-230.99C342.8,-221.58 366.2,-209.24 383.84,-199.95"/>
<polygon fill="#63b8ff" stroke="#63b8ff" points="385.75,-202.9 392.97,-195.14 382.49,-196.71 385.75,-202.9"/>
</a>
</g>
</g>
<!-- Node24 -->
<g id="Node000024" class="node">
<title>Node24</title>
<g id="a_Node000024"><a xlink:href="CmphMap_8hpp.html" target="_top" xlink:title=" ">
<polygon fill="white" stroke="#666666" points="981.86,-195 894.86,-195 894.86,-176 981.86,-176 981.86,-195"/>
<text text-anchor="middle" x="938.36" y="-183" font-family="Helvetica,sans-Serif" font-size="10.00">CmphMap.hpp</text>
</a>
</g>
</g>
<!-- Node1&#45;&gt;Node24 -->
<g id="edge36_Node000001_Node000024" class="edge">
<title>Node1&#45;&gt;Node24</title>
<g id="a_edge36_Node000001_Node000024"><a xlink:title=" ">
<path fill="none" stroke="#63b8ff" d="M360.89,-239.28C486.22,-227.83 766.24,-202.23 884.26,-191.44"/>
<polygon fill="#63b8ff" stroke="#63b8ff" points="884.86,-194.91 894.5,-190.51 884.22,-187.93 884.86,-194.91"/>
</a>
</g>
</g>
<!-- Node3&#45;&gt;Node2 -->
<g id="edge4_Node000003_Node000002" class="edge">
<title>Node3&#45;&gt;Node2</title>
<g id="a_edge4_Node000003_Node000002"><a xlink:title=" ">
<path fill="none" stroke="#63b8ff" d="M212.51,-175.9C213.32,-153.52 218.32,-92.53 248.36,-55 261.34,-38.78 281.88,-27.7 299.28,-20.65"/>
<polygon fill="#63b8ff" stroke="#63b8ff" points="300.96,-23.76 309.08,-16.96 298.49,-17.21 300.96,-23.76"/>
</a>
</g>
</g>
<!-- Node4 -->
<g id="Node000004" class="node">
<title>Node4</title>
<g id="a_Node000004"><a xlink:title=" ">
<polygon fill="#e0e0e0" stroke="#999999" points="188.86,-140 141.86,-140 141.86,-121 188.86,-121 188.86,-140"/>
<text text-anchor="middle" x="165.36" y="-128" font-family="Helvetica,sans-Serif" font-size="10.00">cmath</text>
</a>
</g>
</g>
<!-- Node3&#45;&gt;Node4 -->
<g id="edge3_Node000003_Node000004" class="edge">
<title>Node3&#45;&gt;Node4</title>
<g id="a_edge3_Node000003_Node000004"><a xlink:title=" ">
<path fill="none" stroke="#63b8ff" d="M204.6,-175.75C197.89,-168.18 188.02,-157.05 179.85,-147.84"/>
<polygon fill="#63b8ff" stroke="#63b8ff" points="182.23,-145.25 172.98,-140.09 176.99,-149.89 182.23,-145.25"/>
</a>
</g>
</g>
<!-- Node5&#45;&gt;Node2 -->
<g id="edge9_Node000005_Node000002" class="edge">
<title>Node5&#45;&gt;Node2</title>
<g id="a_edge9_Node000005_Node000002"><a xlink:title=" ">
<path fill="none" stroke="#63b8ff" d="M76.51,-120.76C82.69,-104.94 97.95,-71.68 122.36,-55 176.41,-18.07 255.24,-10.91 299.02,-10.02"/>
<polygon fill="#63b8ff" stroke="#63b8ff" points="299.13,-13.52 309.09,-9.92 299.06,-6.52 299.13,-13.52"/>
</a>
</g>
</g>
<!-- Node6 -->
<g id="Node000006" class="node">
<title>Node6</title>
<g id="a_Node000006"><a xlink:title=" ">
<polygon fill="#e0e0e0" stroke="#999999" points="419.36,-79.5 359.36,-79.5 359.36,-60.5 419.36,-60.5 419.36,-79.5"/>
<text text-anchor="middle" x="389.36" y="-67.5" font-family="Helvetica,sans-Serif" font-size="10.00">iostream</text>
</a>
</g>
</g>
<!-- Node5&#45;&gt;Node6 -->
<g id="edge6_Node000005_Node000006" class="edge">
<title>Node5&#45;&gt;Node6</title>
<g id="a_edge6_Node000005_Node000006"><a xlink:title=" ">
<path fill="none" stroke="#63b8ff" d="M119.31,-120.99C181.16,-109.54 290.19,-89.36 349.02,-78.47"/>
<polygon fill="#63b8ff" stroke="#63b8ff" points="349.86,-81.87 359.05,-76.61 348.58,-74.99 349.86,-81.87"/>
</a>
</g>
</g>
<!-- Node7 -->
<g id="Node000007" class="node">
<title>Node7</title>
<g id="a_Node000007"><a xlink:title=" ">
<polygon fill="#e0e0e0" stroke="#999999" points="184.86,-79.5 131.86,-79.5 131.86,-60.5 184.86,-60.5 184.86,-79.5"/>
<text text-anchor="middle" x="158.36" y="-67.5" font-family="Helvetica,sans-Serif" font-size="10.00">iterator</text>
</a>
</g>
</g>
<!-- Node5&#45;&gt;Node7 -->
<g id="edge7_Node000005_Node000007" class="edge">
<title>Node5&#45;&gt;Node7</title>
<g id="a_edge7_Node000005_Node000007"><a xlink:title=" ">
<path fill="none" stroke="#63b8ff" d="M85.9,-120.87C99.46,-111.54 121.3,-96.51 137.46,-85.38"/>
<polygon fill="#63b8ff" stroke="#63b8ff" points="139.51,-88.22 145.77,-79.67 135.54,-82.45 139.51,-88.22"/>
</a>
</g>
</g>
<!-- Node8 -->
<g id="Node000008" class="node">
<title>Node8</title>
<g id="a_Node000008"><a xlink:title=" ">
<polygon fill="#e0e0e0" stroke="#999999" points="75.36,-79.5 27.36,-79.5 27.36,-60.5 75.36,-60.5 75.36,-79.5"/>
<text text-anchor="middle" x="51.36" y="-67.5" font-family="Helvetica,sans-Serif" font-size="10.00">mutex</text>
</a>
</g>
</g>
<!-- Node5&#45;&gt;Node8 -->
<g id="edge8_Node000005_Node000008" class="edge">
<title>Node5&#45;&gt;Node8</title>
<g id="a_edge8_Node000005_Node000008"><a xlink:title=" ">
<path fill="none" stroke="#63b8ff" d="M70.11,-120.87C66.99,-112.57 62.18,-99.78 58.21,-89.22"/>
<polygon fill="#63b8ff" stroke="#63b8ff" points="61.41,-87.8 54.62,-79.67 54.86,-90.26 61.41,-87.8"/>
</a>
</g>
</g>
<!-- Node10 -->
<g id="Node000010" class="node">
<title>Node10</title>
<g id="a_Node000010"><a xlink:title=" ">
<polygon fill="#e0e0e0" stroke="#999999" points="953.36,-79.5 897.36,-79.5 897.36,-60.5 953.36,-60.5 953.36,-79.5"/>
<text text-anchor="middle" x="925.36" y="-67.5" font-family="Helvetica,sans-Serif" font-size="10.00">assert.h</text>
</a>
</g>
</g>
<!-- Node9&#45;&gt;Node10 -->
<g id="edge11_Node000009_Node000010" class="edge">
<title>Node9&#45;&gt;Node10</title>
<g id="a_edge11_Node000009_Node000010"><a xlink:title=" ">
<path fill="none" stroke="#63b8ff" d="M851.2,-120.87C865.07,-111.54 887.43,-96.51 903.97,-85.38"/>
<polygon fill="#63b8ff" stroke="#63b8ff" points="906.12,-88.15 912.47,-79.67 902.22,-82.34 906.12,-88.15"/>
</a>
</g>
</g>
<!-- Node11 -->
<g id="Node000011" class="node">
<title>Node11</title>
<g id="a_Node000011"><a xlink:title=" ">
<polygon fill="#e0e0e0" stroke="#999999" points="1021.36,-79.5 971.36,-79.5 971.36,-60.5 1021.36,-60.5 1021.36,-79.5"/>
<text text-anchor="middle" x="996.36" y="-67.5" font-family="Helvetica,sans-Serif" font-size="10.00">climits</text>
</a>
</g>
</g>
<!-- Node9&#45;&gt;Node11 -->
<g id="edge12_Node000009_Node000011" class="edge">
<title>Node9&#45;&gt;Node11</title>
<g id="a_edge12_Node000009_Node000011"><a xlink:title=" ">
<path fill="none" stroke="#63b8ff" d="M863.19,-120.97C888.31,-112.25 928.21,-98.15 962.36,-85 963.74,-84.47 965.14,-83.92 966.56,-83.36"/>
<polygon fill="#63b8ff" stroke="#63b8ff" points="967.95,-86.57 975.92,-79.59 965.34,-80.08 967.95,-86.57"/>
</a>
</g>
</g>
<!-- Node12 -->
<g id="Node000012" class="node">
<title>Node12</title>
<g id="a_Node000012"><a xlink:title=" ">
<polygon fill="#e0e0e0" stroke="#999999" points="879.36,-79.5 829.36,-79.5 829.36,-60.5 879.36,-60.5 879.36,-79.5"/>
<text text-anchor="middle" x="854.36" y="-67.5" font-family="Helvetica,sans-Serif" font-size="10.00">cstring</text>
</a>
</g>
</g>
<!-- Node9&#45;&gt;Node12 -->
<g id="edge13_Node000009_Node000012" class="edge">
<title>Node9&#45;&gt;Node12</title>
<g id="a_edge13_Node000009_Node000012"><a xlink:title=" ">
<path fill="none" stroke="#63b8ff" d="M840.72,-120.87C842.97,-112.66 846.42,-100.04 849.28,-89.55"/>
<polygon fill="#63b8ff" stroke="#63b8ff" points="852.73,-90.24 851.99,-79.67 845.97,-88.39 852.73,-90.24"/>
</a>
</g>
</g>
<!-- Node13 -->
<g id="Node000013" class="node">
<title>Node13</title>
<g id="a_Node000013"><a xlink:title=" ">
<polygon fill="#e0e0e0" stroke="#999999" points="1358.36,-19 1290.36,-19 1290.36,0 1358.36,0 1358.36,-19"/>
<text text-anchor="middle" x="1324.36" y="-7" font-family="Helvetica,sans-Serif" font-size="10.00">filesystem</text>
</a>
</g>
</g>
<!-- Node9&#45;&gt;Node13 -->
<g id="edge14_Node000009_Node000013" class="edge">
<title>Node9&#45;&gt;Node13</title>
<g id="a_edge14_Node000009_Node000013"><a xlink:title=" ">
<path fill="none" stroke="#63b8ff" d="M893.67,-122.25C896.95,-121.82 900.2,-121.4 903.36,-121 1030.87,-104.67 1068.17,-124.96 1190.36,-85 1233.62,-70.85 1278.88,-42.36 1304.16,-25.01"/>
<polygon fill="#63b8ff" stroke="#63b8ff" points="1306.33,-27.76 1312.53,-19.16 1302.33,-22.02 1306.33,-27.76"/>
</a>
</g>
</g>
<!-- Node14 -->
<g id="Node000014" class="node">
<title>Node14</title>
<g id="a_Node000014"><a xlink:title=" ">
<polygon fill="#e0e0e0" stroke="#999999" points="1127.36,-19 1077.36,-19 1077.36,0 1127.36,0 1127.36,-19"/>
<text text-anchor="middle" x="1102.36" y="-7" font-family="Helvetica,sans-Serif" font-size="10.00">format</text>
</a>
</g>
</g>
<!-- Node9&#45;&gt;Node14 -->
<g id="edge15_Node000009_Node000014" class="edge">
<title>Node9&#45;&gt;Node14</title>
<g id="a_edge15_Node000009_Node000014"><a xlink:title=" ">
<path fill="none" stroke="#63b8ff" d="M893.41,-122.27C988.64,-109.75 1174.07,-85.33 1174.36,-85 1183.15,-74.97 1180.85,-66.65 1174.36,-55 1166.2,-40.37 1151.03,-29.94 1136.7,-22.88"/>
<polygon fill="#63b8ff" stroke="#63b8ff" points="1138.05,-19.64 1127.5,-18.71 1135.16,-26.02 1138.05,-19.64"/>
</a>
</g>
</g>
<!-- Node15 -->
<g id="Node000015" class="node">
<title>Node15</title>
<g id="a_Node000015"><a xlink:href="std__path__formatter_8hpp.html" target="_top" xlink:title="Defines an std::formatter for std::filesystem::path. MUST be deleted when C++26 is available with tha...">
<polygon fill="white" stroke="#666666" points="1164.86,-85 1039.86,-85 1039.86,-55 1164.86,-55 1164.86,-85"/>
<text text-anchor="start" x="1047.86" y="-73" font-family="Helvetica,sans-Serif" font-size="10.00">netspeak/util/std_path</text>
<text text-anchor="middle" x="1102.36" y="-62" font-family="Helvetica,sans-Serif" font-size="10.00">_formatter.hpp</text>
</a>
</g>
</g>
<!-- Node9&#45;&gt;Node15 -->
<g id="edge16_Node000009_Node000015" class="edge">
<title>Node9&#45;&gt;Node15</title>
<g id="a_edge16_Node000009_Node000015"><a xlink:title=" ">
<path fill="none" stroke="#63b8ff" d="M876.75,-120.99C916.68,-112.14 980.17,-98.08 1029.64,-87.11"/>
<polygon fill="#63b8ff" stroke="#63b8ff" points="1030.65,-90.48 1039.65,-84.89 1029.13,-83.64 1030.65,-90.48"/>
</a>
</g>
</g>
<!-- Node16 -->
<g id="Node000016" class="node">
<title>Node16</title>
<g id="a_Node000016"><a xlink:title=" ">
<polygon fill="#e0e0e0" stroke="#999999" points="810.86,-79.5 745.86,-79.5 745.86,-60.5 810.86,-60.5 810.86,-79.5"/>
<text text-anchor="middle" x="778.36" y="-67.5" font-family="Helvetica,sans-Serif" font-size="10.00">stdexcept</text>
</a>
</g>
</g>
<!-- Node9&#45;&gt;Node16 -->
<g id="edge20_Node000009_Node000016" class="edge">
<title>Node9&#45;&gt;Node16</title>
<g id="a_edge20_Node000009_Node000016"><a xlink:title=" ">
<path fill="none" stroke="#63b8ff" d="M829.51,-120.87C820.38,-111.97 805.93,-97.89 794.72,-86.95"/>
<polygon fill="#63b8ff" stroke="#63b8ff" points="796.85,-84.14 787.25,-79.67 791.97,-89.15 796.85,-84.14"/>
</a>
</g>
</g>
<!-- Node15&#45;&gt;Node2 -->
<g id="edge19_Node000015_Node000002" class="edge">
<title>Node15&#45;&gt;Node2</title>
<g id="a_edge19_Node000015_Node000002"><a xlink:title=" ">
<path fill="none" stroke="#63b8ff" d="M1039.61,-56.31C1036.49,-55.83 1033.39,-55.39 1030.36,-55 774.64,-22.14 463.03,-13.18 363.51,-11.08"/>
<polygon fill="#63b8ff" stroke="#63b8ff" points="363.56,-7.58 353.49,-10.88 363.42,-14.58 363.56,-7.58"/>
</a>
</g>
</g>
<!-- Node15&#45;&gt;Node13 -->
<g id="edge17_Node000015_Node000013" class="edge">
<title>Node15&#45;&gt;Node13</title>
<g id="a_edge17_Node000015_Node000013"><a xlink:title=" ">
<path fill="none" stroke="#63b8ff" d="M1155.53,-54.99C1194.34,-44.76 1246.24,-31.09 1282.2,-21.61"/>
<polygon fill="#63b8ff" stroke="#63b8ff" points="1283.12,-24.99 1291.9,-19.05 1281.34,-18.22 1283.12,-24.99"/>
</a>
</g>
</g>
<!-- Node15&#45;&gt;Node14 -->
<g id="edge18_Node000015_Node000014" class="edge">
<title>Node15&#45;&gt;Node14</title>
<g id="a_edge18_Node000015_Node000014"><a xlink:title=" ">
<path fill="none" stroke="#63b8ff" d="M1102.36,-54.84C1102.36,-47.21 1102.36,-37.7 1102.36,-29.45"/>
<polygon fill="#63b8ff" stroke="#63b8ff" points="1105.86,-29.27 1102.36,-19.27 1098.86,-29.27 1105.86,-29.27"/>
</a>
</g>
</g>
<!-- Node18 -->
<g id="Node000018" class="node">
<title>Node18</title>
<g id="a_Node000018"><a xlink:title=" ">
<polygon fill="#e0e0e0" stroke="#999999" points="302.86,-79.5 257.86,-79.5 257.86,-60.5 302.86,-60.5 302.86,-79.5"/>
<text text-anchor="middle" x="280.36" y="-67.5" font-family="Helvetica,sans-Serif" font-size="10.00">utility</text>
</a>
</g>
</g>
<!-- Node17&#45;&gt;Node18 -->
<g id="edge22_Node000017_Node000018" class="edge">
<title>Node17&#45;&gt;Node18</title>
<g id="a_edge22_Node000017_Node000018"><a xlink:title=" ">
<path fill="none" stroke="#63b8ff" d="M291.44,-120.87C289.62,-112.66 286.81,-100.04 284.48,-89.55"/>
<polygon fill="#63b8ff" stroke="#63b8ff" points="287.87,-88.67 282.29,-79.67 281.04,-90.19 287.87,-88.67"/>
</a>
</g>
</g>
<!-- Node19&#45;&gt;Node2 -->
<g id="edge35_Node000019_Node000002" class="edge">
<title>Node19&#45;&gt;Node2</title>
<g id="a_edge35_Node000019_Node000002"><a xlink:title=" ">
<path fill="none" stroke="#63b8ff" d="M403.09,-175.89C391.19,-159.18 365.18,-120.81 350.36,-85 342.79,-66.72 337.62,-44.63 334.6,-29.28"/>
<polygon fill="#63b8ff" stroke="#63b8ff" points="337.97,-28.22 332.71,-19.02 331.08,-29.49 337.97,-28.22"/>
</a>
</g>
</g>
<!-- Node19&#45;&gt;Node14 -->
<g id="edge33_Node000019_Node000014" class="edge">
<title>Node19&#45;&gt;Node14</title>
<g id="a_edge33_Node000019_Node000014"><a xlink:title=" ">
<path fill="none" stroke="#63b8ff" d="M472.65,-179.34C540.03,-172.9 641.39,-160.2 674.36,-140 714.46,-115.43 696.72,-78.66 737.36,-55 792.87,-22.69 986.61,-13.68 1066.99,-11.3"/>
<polygon fill="#63b8ff" stroke="#63b8ff" points="1067.21,-14.8 1077.11,-11.02 1067.02,-7.8 1067.21,-14.8"/>
</a>
</g>
</g>
<!-- Node19&#45;&gt;Node17 -->
<g id="edge24_Node000019_Node000017" class="edge">
<title>Node19&#45;&gt;Node17</title>
<g id="a_edge24_Node000019_Node000017"><a xlink:title=" ">
<path fill="none" stroke="#63b8ff" d="M390.72,-175.98C372.06,-167.46 343.11,-154.23 321.62,-144.41"/>
<polygon fill="#63b8ff" stroke="#63b8ff" points="322.89,-141.14 312.34,-140.17 319.98,-147.51 322.89,-141.14"/>
</a>
</g>
</g>
<!-- Node20 -->
<g id="Node000020" class="node">
<title>Node20</title>
<g id="a_Node000020"><a xlink:href="value__traits_8hpp.html" target="_top" xlink:title=" ">
<polygon fill="white" stroke="#666666" points="664.86,-140 569.86,-140 569.86,-121 664.86,-121 664.86,-140"/>
<text text-anchor="middle" x="617.36" y="-128" font-family="Helvetica,sans-Serif" font-size="10.00">value_traits.hpp</text>
</a>
</g>
</g>
<!-- Node19&#45;&gt;Node20 -->
<g id="edge25_Node000019_Node000020" class="edge">
<title>Node19&#45;&gt;Node20</title>
<g id="a_edge25_Node000019_Node000020"><a xlink:title=" ">
<path fill="none" stroke="#63b8ff" d="M442.78,-175.98C478.3,-166.93 534.63,-152.58 573.66,-142.64"/>
<polygon fill="#63b8ff" stroke="#63b8ff" points="574.85,-145.94 583.68,-140.08 573.12,-139.16 574.85,-145.94"/>
</a>
</g>
</g>
<!-- Node23 -->
<g id="Node000023" class="node">
<title>Node23</title>
<g id="a_Node000023"><a xlink:title=" ">
<polygon fill="#e0e0e0" stroke="#999999" points="453.36,-140 397.36,-140 397.36,-121 453.36,-121 453.36,-140"/>
<text text-anchor="middle" x="425.36" y="-128" font-family="Helvetica,sans-Serif" font-size="10.00">sstream</text>
</a>
</g>
</g>
<!-- Node19&#45;&gt;Node23 -->
<g id="edge34_Node000019_Node000023" class="edge">
<title>Node19&#45;&gt;Node23</title>
<g id="a_edge34_Node000019_Node000023"><a xlink:title=" ">
<path fill="none" stroke="#63b8ff" d="M412,-175.75C414.12,-168.72 417.17,-158.62 419.82,-149.84"/>
<polygon fill="#63b8ff" stroke="#63b8ff" points="423.23,-150.67 422.77,-140.09 416.53,-148.65 423.23,-150.67"/>
</a>
</g>
</g>
<!-- Node20&#45;&gt;Node2 -->
<g id="edge31_Node000020_Node000002" class="edge">
<title>Node20&#45;&gt;Node2</title>
<g id="a_edge31_Node000020_Node000002"><a xlink:title=" ">
<path fill="none" stroke="#63b8ff" d="M591.29,-120.98C568.11,-112.98 533.63,-100.02 505.36,-85 484.46,-73.9 482.52,-65.59 461.36,-55 429.39,-39 390.3,-26.48 363.39,-18.85"/>
<polygon fill="#63b8ff" stroke="#63b8ff" points="364.28,-15.47 353.71,-16.17 362.41,-22.21 364.28,-15.47"/>
</a>
</g>
</g>
<!-- Node20&#45;&gt;Node6 -->
<g id="edge29_Node000020_Node000006" class="edge">
<title>Node20&#45;&gt;Node6</title>
<g id="a_edge29_Node000020_Node000006"><a xlink:title=" ">
<path fill="none" stroke="#63b8ff" d="M584.21,-120.99C543.19,-110.47 473.39,-92.56 429.42,-81.28"/>
<polygon fill="#63b8ff" stroke="#63b8ff" points="430.19,-77.86 419.64,-78.77 428.45,-84.64 430.19,-77.86"/>
</a>
</g>
</g>
<!-- Node20&#45;&gt;Node12 -->
<g id="edge27_Node000020_Node000012" class="edge">
<title>Node20&#45;&gt;Node12</title>
<g id="a_edge27_Node000020_Node000012"><a xlink:title=" ">
<path fill="none" stroke="#63b8ff" d="M665.14,-121.47C706.67,-113.91 768.19,-101.32 820.36,-85 822.03,-84.48 823.74,-83.9 825.46,-83.3"/>
<polygon fill="#63b8ff" stroke="#63b8ff" points="827.06,-86.43 835.16,-79.59 824.57,-79.89 827.06,-86.43"/>
</a>
</g>
</g>
<!-- Node20&#45;&gt;Node14 -->
<g id="edge28_Node000020_Node000014" class="edge">
<title>Node20&#45;&gt;Node14</title>
<g id="a_edge28_Node000020_Node000014"><a xlink:title=" ">
<path fill="none" stroke="#63b8ff" d="M625.84,-120.97C643.8,-103.12 685.44,-62.84 703.36,-55 768.35,-26.56 982.23,-15.21 1067.15,-11.76"/>
<polygon fill="#63b8ff" stroke="#63b8ff" points="1067.47,-15.25 1077.32,-11.36 1067.19,-8.25 1067.47,-15.25"/>
</a>
</g>
</g>
<!-- Node20&#45;&gt;Node16 -->
<g id="edge30_Node000020_Node000016" class="edge">
<title>Node20&#45;&gt;Node16</title>
<g id="a_edge30_Node000020_Node000016"><a xlink:title=" ">
<path fill="none" stroke="#63b8ff" d="M640.77,-120.99C668.31,-110.99 714.23,-94.3 745.37,-82.99"/>
<polygon fill="#63b8ff" stroke="#63b8ff" points="746.72,-86.22 754.92,-79.52 744.33,-79.64 746.72,-86.22"/>
</a>
</g>
</g>
<!-- Node21 -->
<g id="Node000021" class="node">
<title>Node21</title>
<g id="a_Node000021"><a xlink:title=" ">
<polygon fill="#e0e0e0" stroke="#999999" points="651.36,-79.5 601.36,-79.5 601.36,-60.5 651.36,-60.5 651.36,-79.5"/>
<text text-anchor="middle" x="626.36" y="-67.5" font-family="Helvetica,sans-Serif" font-size="10.00">cstdint</text>
</a>
</g>
</g>
<!-- Node20&#45;&gt;Node21 -->
<g id="edge26_Node000020_Node000021" class="edge">
<title>Node20&#45;&gt;Node21</title>
<g id="a_edge26_Node000020_Node000021"><a xlink:title=" ">
<path fill="none" stroke="#63b8ff" d="M618.69,-120.87C619.95,-112.66 621.89,-100.04 623.5,-89.55"/>
<polygon fill="#63b8ff" stroke="#63b8ff" points="626.96,-90.08 625.03,-79.67 620.05,-89.02 626.96,-90.08"/>
</a>
</g>
</g>
<!-- Node22 -->
<g id="Node000022" class="node">
<title>Node22</title>
<g id="a_Node000022"><a xlink:title=" ">
<polygon fill="#e0e0e0" stroke="#999999" points="582.86,-79.5 513.86,-79.5 513.86,-60.5 582.86,-60.5 582.86,-79.5"/>
<text text-anchor="middle" x="548.36" y="-67.5" font-family="Helvetica,sans-Serif" font-size="10.00">type_traits</text>
</a>
</g>
</g>
<!-- Node20&#45;&gt;Node22 -->
<g id="edge32_Node000020_Node000022" class="edge">
<title>Node20&#45;&gt;Node22</title>
<g id="a_edge32_Node000020_Node000022"><a xlink:title=" ">
<path fill="none" stroke="#63b8ff" d="M607.18,-120.87C596.48,-111.8 579.42,-97.34 566.43,-86.32"/>
<polygon fill="#63b8ff" stroke="#63b8ff" points="568.47,-83.46 558.58,-79.67 563.95,-88.8 568.47,-83.46"/>
</a>
</g>
</g>
<!-- Node24&#45;&gt;Node2 -->
<g id="edge43_Node000024_Node000002" class="edge">
<title>Node24&#45;&gt;Node2</title>
<g id="a_edge43_Node000024_Node000002"><a xlink:title=" ">
<path fill="none" stroke="#63b8ff" d="M894.82,-184.72C823.43,-183.92 677.78,-177.31 561.36,-140 513.06,-124.52 502.63,-114.49 461.36,-85 445.23,-73.48 444.9,-65.93 428.36,-55 407.86,-41.46 382.58,-30 362.96,-22.11"/>
<polygon fill="#63b8ff" stroke="#63b8ff" points="364.14,-18.81 353.55,-18.42 361.58,-25.33 364.14,-18.81"/>
</a>
</g>
</g>
<!-- Node24&#45;&gt;Node6 -->
<g id="edge41_Node000024_Node000006" class="edge">
<title>Node24&#45;&gt;Node6</title>
<g id="a_edge41_Node000024_Node000006"><a xlink:title=" ">
<path fill="none" stroke="#63b8ff" d="M894.85,-182.41C799.91,-177.48 576.92,-163.68 505.36,-140 468.21,-127.71 430.17,-102.09 408.2,-85.77"/>
<polygon fill="#63b8ff" stroke="#63b8ff" points="410.17,-82.86 400.09,-79.61 405.94,-88.44 410.17,-82.86"/>
</a>
</g>
</g>
<!-- Node24&#45;&gt;Node9 -->
<g id="edge46_Node000024_Node000009" class="edge">
<title>Node24&#45;&gt;Node9</title>
<g id="a_edge46_Node000024_Node000009"><a xlink:title=" ">
<path fill="none" stroke="#63b8ff" d="M922.29,-175.98C906.5,-167.61 882.14,-154.7 863.73,-144.95"/>
<polygon fill="#63b8ff" stroke="#63b8ff" points="865.19,-141.76 854.72,-140.17 861.91,-147.95 865.19,-141.76"/>
</a>
</g>
</g>
<!-- Node24&#45;&gt;Node13 -->
<g id="edge39_Node000024_Node000013" class="edge">
<title>Node24&#45;&gt;Node13</title>
<g id="a_edge39_Node000024_Node000013"><a xlink:title=" ">
<path fill="none" stroke="#63b8ff" d="M982.14,-182.14C1074.46,-176.74 1282.56,-162.24 1305.36,-140 1334.96,-111.14 1332.08,-57.89 1327.94,-29.5"/>
<polygon fill="#63b8ff" stroke="#63b8ff" points="1331.34,-28.59 1326.24,-19.31 1324.43,-29.75 1331.34,-28.59"/>
</a>
</g>
</g>
<!-- Node24&#45;&gt;Node14 -->
<g id="edge40_Node000024_Node000014" class="edge">
<title>Node24&#45;&gt;Node14</title>
<g id="a_edge40_Node000024_Node000014"><a xlink:title=" ">
<path fill="none" stroke="#63b8ff" d="M982.13,-182.09C1071.14,-176.73 1266.54,-162.52 1286.36,-140 1336.58,-82.94 1204.14,-37.8 1137.71,-19.43"/>
<polygon fill="#63b8ff" stroke="#63b8ff" points="1138.22,-15.94 1127.66,-16.71 1136.4,-22.7 1138.22,-15.94"/>
</a>
</g>
</g>
<!-- Node24&#45;&gt;Node16 -->
<g id="edge42_Node000024_Node000016" class="edge">
<title>Node24&#45;&gt;Node16</title>
<g id="a_edge42_Node000024_Node000016"><a xlink:title=" ">
<path fill="none" stroke="#63b8ff" d="M894.54,-178.65C851.08,-171.84 788.92,-159.04 774.36,-140 763.45,-125.73 766.66,-104.56 771.22,-89.44"/>
<polygon fill="#63b8ff" stroke="#63b8ff" points="774.63,-90.27 774.58,-79.68 768.01,-87.99 774.63,-90.27"/>
</a>
</g>
</g>
<!-- Node25 -->
<g id="Node000025" class="node">
<title>Node25</title>
<g id="a_Node000025"><a xlink:title=" ">
<polygon fill="#e0e0e0" stroke="#999999" points="964.86,-140 911.86,-140 911.86,-121 964.86,-121 964.86,-140"/>
<text text-anchor="middle" x="938.36" y="-128" font-family="Helvetica,sans-Serif" font-size="10.00">cmph.h</text>
</a>
</g>
</g>
<!-- Node24&#45;&gt;Node25 -->
<g id="edge37_Node000024_Node000025" class="edge">
<title>Node24&#45;&gt;Node25</title>
<g id="a_edge37_Node000024_Node000025"><a xlink:title=" ">
<path fill="none" stroke="#63b8ff" d="M938.36,-175.75C938.36,-168.8 938.36,-158.85 938.36,-150.13"/>
<polygon fill="#63b8ff" stroke="#63b8ff" points="941.86,-150.09 938.36,-140.09 934.86,-150.09 941.86,-150.09"/>
</a>
</g>
</g>
<!-- Node26 -->
<g id="Node000026" class="node">
<title>Node26</title>
<g id="a_Node000026"><a xlink:title=" ">
<polygon fill="#e0e0e0" stroke="#999999" points="1025.36,-140 983.36,-140 983.36,-121 1025.36,-121 1025.36,-140"/>
<text text-anchor="middle" x="1004.36" y="-128" font-family="Helvetica,sans-Serif" font-size="10.00">array</text>
</a>
</g>
</g>
<!-- Node24&#45;&gt;Node26 -->
<g id="edge38_Node000024_Node000026" class="edge">
<title>Node24&#45;&gt;Node26</title>
<g id="a_edge38_Node000024_Node000026"><a xlink:title=" ">
<path fill="none" stroke="#63b8ff" d="M948.96,-175.98C958.82,-168.07 973.71,-156.11 985.57,-146.58"/>
<polygon fill="#63b8ff" stroke="#63b8ff" points="987.96,-149.16 993.56,-140.17 983.57,-143.7 987.96,-149.16"/>
</a>
</g>
</g>
<!-- Node27 -->
<g id="Node000027" class="node">
<title>Node27</title>
<g id="a_Node000027"><a xlink:title=" ">
<polygon fill="#e0e0e0" stroke="#999999" points="1163.36,-140 1043.36,-140 1043.36,-121 1163.36,-121 1163.36,-140"/>
<text text-anchor="middle" x="1103.36" y="-128" font-family="Helvetica,sans-Serif" font-size="10.00">boost/type_traits.hpp</text>
</a>
</g>
</g>
<!-- Node24&#45;&gt;Node27 -->
<g id="edge44_Node000024_Node000027" class="edge">
<title>Node24&#45;&gt;Node27</title>
<g id="a_edge44_Node000024_Node000027"><a xlink:title=" ">
<path fill="none" stroke="#63b8ff" d="M964.87,-175.98C992.57,-167.09 1036.22,-153.07 1067.1,-143.15"/>
<polygon fill="#63b8ff" stroke="#63b8ff" points="1068.19,-146.47 1076.64,-140.08 1066.05,-139.81 1068.19,-146.47"/>
</a>
</g>
</g>
<!-- Node28 -->
<g id="Node000028" class="node">
<title>Node28</title>
<g id="a_Node000028"><a xlink:title=" ">
<polygon fill="#e0e0e0" stroke="#999999" points="1276.86,-140 1181.86,-140 1181.86,-121 1276.86,-121 1276.86,-140"/>
<text text-anchor="middle" x="1229.36" y="-128" font-family="Helvetica,sans-Serif" font-size="10.00">boost/utility.hpp</text>
</a>
</g>
</g>
<!-- Node24&#45;&gt;Node28 -->
<g id="edge45_Node000024_Node000028" class="edge">
<title>Node24&#45;&gt;Node28</title>
<g id="a_edge45_Node000024_Node000028"><a xlink:title=" ">
<path fill="none" stroke="#63b8ff" d="M981.92,-176.57C1032.67,-167.32 1116.67,-152.02 1172.51,-141.85"/>
<polygon fill="#63b8ff" stroke="#63b8ff" points="1173.39,-145.25 1182.6,-140.02 1172.13,-138.36 1173.39,-145.25"/>
</a>
</g>
</g>
</g>
</svg>
