<?xml version="1.0" encoding="UTF-8" standalone="no"?>
<!DOCTYPE svg PUBLIC "-//W3C//DTD SVG 1.1//EN"
 "http://www.w3.org/Graphics/SVG/1.1/DTD/svg11.dtd">
<!-- Generated by graphviz version 2.43.0 (0)
 -->
<!-- Title: netspeak/invertedindex/Configuration.hpp Pages: 1 -->
<svg width="607pt" height="148pt"
 viewBox="0.00 0.00 606.88 148.00" xmlns="http://www.w3.org/2000/svg" xmlns:xlink="http://www.w3.org/1999/xlink">
<g id="graph0" class="graph" transform="scale(1 1) rotate(0) translate(4 144)">
<title>netspeak/invertedindex/Configuration.hpp</title>
<!-- Node1 -->
<g id="Node000001" class="node">
<title>Node1</title>
<g id="a_Node000001"><a xlink:title=" ">
<polygon fill="#999999" stroke="#666666" points="164.38,-140 32.38,-140 32.38,-110 164.38,-110 164.38,-140"/>
<text text-anchor="start" x="40.38" y="-128" font-family="Helvetica,sans-Serif" font-size="10.00">netspeak/invertedindex</text>
<text text-anchor="middle" x="98.38" y="-117" font-family="Helvetica,sans-Serif" font-size="10.00">/Configuration.hpp</text>
</a>
</g>
</g>
<!-- Node2 -->
<g id="Node000002" class="node">
<title>Node2</title>
<g id="a_Node000002"><a xlink:title=" ">
<polygon fill="#e0e0e0" stroke="#999999" points="60.38,-19 10.38,-19 10.38,0 60.38,0 60.38,-19"/>
<text text-anchor="middle" x="35.38" y="-7" font-family="Helvetica,sans-Serif" font-size="10.00">cstdint</text>
</a>
</g>
</g>
<!-- Node1&#45;&gt;Node2 -->
<g id="edge1_Node000001_Node000002" class="edge">
<title>Node1&#45;&gt;Node2</title>
<g id="a_edge1_Node000001_Node000002"><a xlink:title=" ">
<path fill="none" stroke="#63b8ff" d="M48.77,-109.82C31.29,-102.18 13.49,-90.75 3.38,-74 -6.03,-58.42 6.01,-39.73 17.91,-26.68"/>
<polygon fill="#63b8ff" stroke="#63b8ff" points="20.6,-28.94 25.11,-19.35 15.61,-24.03 20.6,-28.94"/>
</a>
</g>
</g>
<!-- Node3 -->
<g id="Node000003" class="node">
<title>Node3</title>
<g id="a_Node000003"><a xlink:title=" ">
<polygon fill="#e0e0e0" stroke="#999999" points="80.38,-74 12.38,-74 12.38,-55 80.38,-55 80.38,-74"/>
<text text-anchor="middle" x="46.38" y="-62" font-family="Helvetica,sans-Serif" font-size="10.00">filesystem</text>
</a>
</g>
</g>
<!-- Node1&#45;&gt;Node3 -->
<g id="edge2_Node000001_Node000003" class="edge">
<title>Node1&#45;&gt;Node3</title>
<g id="a_edge2_Node000001_Node000003"><a xlink:title=" ">
<path fill="none" stroke="#63b8ff" d="M85.79,-109.84C78.32,-101.43 68.81,-90.74 61.01,-81.96"/>
<polygon fill="#63b8ff" stroke="#63b8ff" points="63.43,-79.41 54.17,-74.27 58.2,-84.07 63.43,-79.41"/>
</a>
</g>
</g>
<!-- Node4 -->
<g id="Node000004" class="node">
<title>Node4</title>
<g id="a_Node000004"><a xlink:href="conversion_8hpp.html" target="_top" xlink:title=" ">
<polygon fill="white" stroke="#666666" points="379.88,-74 260.88,-74 260.88,-55 379.88,-55 379.88,-74"/>
<text text-anchor="middle" x="320.38" y="-62" font-family="Helvetica,sans-Serif" font-size="10.00">../util/conversion.hpp</text>
</a>
</g>
</g>
<!-- Node1&#45;&gt;Node4 -->
<g id="edge3_Node000001_Node000004" class="edge">
<title>Node1&#45;&gt;Node4</title>
<g id="a_edge3_Node000001_Node000004"><a xlink:title=" ">
<path fill="none" stroke="#63b8ff" d="M151.55,-109.99C190.36,-99.76 242.26,-86.09 278.22,-76.61"/>
<polygon fill="#63b8ff" stroke="#63b8ff" points="279.14,-79.99 287.92,-74.05 277.36,-73.22 279.14,-79.99"/>
</a>
</g>
</g>
<!-- Node12 -->
<g id="Node000012" class="node">
<title>Node12</title>
<g id="a_Node000012"><a xlink:href="memory_8hpp.html" target="_top" xlink:title=" ">
<polygon fill="white" stroke="#666666" points="203.88,-74 98.88,-74 98.88,-55 203.88,-55 203.88,-74"/>
<text text-anchor="middle" x="151.38" y="-62" font-family="Helvetica,sans-Serif" font-size="10.00">../util/memory.hpp</text>
</a>
</g>
</g>
<!-- Node1&#45;&gt;Node12 -->
<g id="edge11_Node000001_Node000012" class="edge">
<title>Node1&#45;&gt;Node12</title>
<g id="a_edge11_Node000001_Node000012"><a xlink:title=" ">
<path fill="none" stroke="#63b8ff" d="M111.21,-109.84C118.9,-101.35 128.71,-90.52 136.71,-81.69"/>
<polygon fill="#63b8ff" stroke="#63b8ff" points="139.32,-84.03 143.44,-74.27 134.13,-79.33 139.32,-84.03"/>
</a>
</g>
</g>
<!-- Node5 -->
<g id="Node000005" class="node">
<title>Node5</title>
<g id="a_Node000005"><a xlink:title=" ">
<polygon fill="#e0e0e0" stroke="#999999" points="229.38,-19 171.38,-19 171.38,0 229.38,0 229.38,-19"/>
<text text-anchor="middle" x="200.38" y="-7" font-family="Helvetica,sans-Serif" font-size="10.00">cxxabi.h</text>
</a>
</g>
</g>
<!-- Node4&#45;&gt;Node5 -->
<g id="edge4_Node000004_Node000005" class="edge">
<title>Node4&#45;&gt;Node5</title>
<g id="a_edge4_Node000004_Node000005"><a xlink:title=" ">
<path fill="none" stroke="#63b8ff" d="M301.1,-54.98C281.71,-46.42 251.57,-33.11 229.31,-23.28"/>
<polygon fill="#63b8ff" stroke="#63b8ff" points="230.57,-20.01 220.01,-19.17 227.74,-26.41 230.57,-20.01"/>
</a>
</g>
</g>
<!-- Node6 -->
<g id="Node000006" class="node">
<title>Node6</title>
<g id="a_Node000006"><a xlink:title=" ">
<polygon fill="#e0e0e0" stroke="#999999" points="296.88,-19 247.88,-19 247.88,0 296.88,0 296.88,-19"/>
<text text-anchor="middle" x="272.38" y="-7" font-family="Helvetica,sans-Serif" font-size="10.00">cstdlib</text>
</a>
</g>
</g>
<!-- Node4&#45;&gt;Node6 -->
<g id="edge5_Node000004_Node000006" class="edge">
<title>Node4&#45;&gt;Node6</title>
<g id="a_edge5_Node000004_Node000006"><a xlink:title=" ">
<path fill="none" stroke="#63b8ff" d="M312.45,-54.75C305.53,-47.11 295.31,-35.82 286.93,-26.56"/>
<polygon fill="#63b8ff" stroke="#63b8ff" points="289.46,-24.15 280.16,-19.09 284.28,-28.85 289.46,-24.15"/>
</a>
</g>
</g>
<!-- Node7 -->
<g id="Node000007" class="node">
<title>Node7</title>
<g id="a_Node000007"><a xlink:title=" ">
<polygon fill="#e0e0e0" stroke="#999999" points="365.38,-19 315.38,-19 315.38,0 365.38,0 365.38,-19"/>
<text text-anchor="middle" x="340.38" y="-7" font-family="Helvetica,sans-Serif" font-size="10.00">format</text>
</a>
</g>
</g>
<!-- Node4&#45;&gt;Node7 -->
<g id="edge6_Node000004_Node000007" class="edge">
<title>Node4&#45;&gt;Node7</title>
<g id="a_edge6_Node000004_Node000007"><a xlink:title=" ">
<path fill="none" stroke="#63b8ff" d="M323.68,-54.75C326.36,-47.65 330.23,-37.4 333.57,-28.56"/>
<polygon fill="#63b8ff" stroke="#63b8ff" points="336.88,-29.68 337.14,-19.09 330.33,-27.21 336.88,-29.68"/>
</a>
</g>
</g>
<!-- Node8 -->
<g id="Node000008" class="node">
<title>Node8</title>
<g id="a_Node000008"><a xlink:title=" ">
<polygon fill="#e0e0e0" stroke="#999999" points="441.38,-19 383.38,-19 383.38,0 441.38,0 441.38,-19"/>
<text text-anchor="middle" x="412.38" y="-7" font-family="Helvetica,sans-Serif" font-size="10.00">memory</text>
</a>
</g>
</g>
<!-- Node4&#45;&gt;Node8 -->
<g id="edge7_Node000004_Node000008" class="edge">
<title>Node4&#45;&gt;Node8</title>
<g id="a_edge7_Node000004_Node000008"><a xlink:title=" ">
<path fill="none" stroke="#63b8ff" d="M335.16,-54.98C349.56,-46.69 371.69,-33.94 388.57,-24.22"/>
<polygon fill="#63b8ff" stroke="#63b8ff" points="390.41,-27.19 397.33,-19.17 386.92,-21.13 390.41,-27.19"/>
</a>
</g>
</g>
<!-- Node9 -->
<g id="Node000009" class="node">
<title>Node9</title>
<g id="a_Node000009"><a xlink:title=" ">
<polygon fill="#e0e0e0" stroke="#999999" points="515.38,-19 459.38,-19 459.38,0 515.38,0 515.38,-19"/>
<text text-anchor="middle" x="487.38" y="-7" font-family="Helvetica,sans-Serif" font-size="10.00">sstream</text>
</a>
</g>
</g>
<!-- Node4&#45;&gt;Node9 -->
<g id="edge8_Node000004_Node000009" class="edge">
<title>Node4&#45;&gt;Node9</title>
<g id="a_edge8_Node000004_Node000009"><a xlink:title=" ">
<path fill="none" stroke="#63b8ff" d="M347.21,-54.98C375.25,-46.09 419.43,-32.07 450.68,-22.15"/>
<polygon fill="#63b8ff" stroke="#63b8ff" points="451.86,-25.44 460.34,-19.08 449.75,-18.77 451.86,-25.44"/>
</a>
</g>
</g>
<!-- Node10 -->
<g id="Node000010" class="node">
<title>Node10</title>
<g id="a_Node000010"><a xlink:title=" ">
<polygon fill="#e0e0e0" stroke="#999999" points="598.88,-19 533.88,-19 533.88,0 598.88,0 598.88,-19"/>
<text text-anchor="middle" x="566.38" y="-7" font-family="Helvetica,sans-Serif" font-size="10.00">stdexcept</text>
</a>
</g>
</g>
<!-- Node4&#45;&gt;Node10 -->
<g id="edge9_Node000004_Node000010" class="edge">
<title>Node4&#45;&gt;Node10</title>
<g id="a_edge9_Node000004_Node000010"><a xlink:title=" ">
<path fill="none" stroke="#63b8ff" d="M359.9,-54.98C404.73,-45.33 477.56,-29.64 523.66,-19.7"/>
<polygon fill="#63b8ff" stroke="#63b8ff" points="524.6,-23.08 533.64,-17.55 523.13,-16.24 524.6,-23.08"/>
</a>
</g>
</g>
<!-- Node11 -->
<g id="Node000011" class="node">
<title>Node11</title>
<g id="a_Node000011"><a xlink:title=" ">
<polygon fill="#e0e0e0" stroke="#999999" points="153.38,-19 109.38,-19 109.38,0 153.38,0 153.38,-19"/>
<text text-anchor="middle" x="131.38" y="-7" font-family="Helvetica,sans-Serif" font-size="10.00">string</text>
</a>
</g>
</g>
<!-- Node4&#45;&gt;Node11 -->
<g id="edge10_Node000004_Node000011" class="edge">
<title>Node4&#45;&gt;Node11</title>
<g id="a_edge10_Node000004_Node000011"><a xlink:title=" ">
<path fill="none" stroke="#63b8ff" d="M290.01,-54.98C255.25,-45.24 198.57,-29.34 163.21,-19.43"/>
<polygon fill="#63b8ff" stroke="#63b8ff" points="163.98,-16.01 153.4,-16.68 162.09,-22.75 163.98,-16.01"/>
</a>
</g>
</g>
<!-- Node12&#45;&gt;Node2 -->
<g id="edge12_Node000012_Node000002" class="edge">
<title>Node12&#45;&gt;Node2</title>
<g id="a_edge12_Node000012_Node000002"><a xlink:title=" ">
<path fill="none" stroke="#63b8ff" d="M132.74,-54.98C114.08,-46.46 85.13,-33.23 63.64,-23.41"/>
<polygon fill="#63b8ff" stroke="#63b8ff" points="64.91,-20.14 54.36,-19.17 62,-26.51 64.91,-20.14"/>
</a>
</g>
</g>
<!-- Node12&#45;&gt;Node11 -->
<g id="edge13_Node000012_Node000011" class="edge">
<title>Node12&#45;&gt;Node11</title>
<g id="a_edge13_Node000012_Node000011"><a xlink:title=" ">
<path fill="none" stroke="#63b8ff" d="M148.08,-54.75C145.4,-47.65 141.53,-37.4 138.19,-28.56"/>
<polygon fill="#63b8ff" stroke="#63b8ff" points="141.43,-27.21 134.62,-19.09 134.88,-29.68 141.43,-27.21"/>
</a>
</g>
</g>
</g>
</svg>
