<?xml version="1.0" encoding="UTF-8" standalone="no"?>
<!DOCTYPE svg PUBLIC "-//W3C//DTD SVG 1.1//EN"
 "http://www.w3.org/Graphics/SVG/1.1/DTD/svg11.dtd">
<!-- Generated by graphviz version 2.43.0 (0)
 -->
<!-- Title: netspeak/invertedindex/Properties.hpp Pages: 1 -->
<svg width="1156pt" height="423pt"
 viewBox="0.00 0.00 1155.95 423.00" xmlns="http://www.w3.org/2000/svg" xmlns:xlink="http://www.w3.org/1999/xlink">
<g id="graph0" class="graph" transform="scale(1 1) rotate(0) translate(4 419)">
<title>netspeak/invertedindex/Properties.hpp</title>
<!-- Node1 -->
<g id="Node000001" class="node">
<title>Node1</title>
<g id="a_Node000001"><a xlink:title=" ">
<polygon fill="#999999" stroke="#666666" points="225.45,-415 93.45,-415 93.45,-385 225.45,-385 225.45,-415"/>
<text text-anchor="start" x="101.45" y="-403" font-family="Helvetica,sans-Serif" font-size="10.00">netspeak/invertedindex</text>
<text text-anchor="middle" x="159.45" y="-392" font-family="Helvetica,sans-Serif" font-size="10.00">/Properties.hpp</text>
</a>
</g>
</g>
<!-- Node2 -->
<g id="Node000002" class="node">
<title>Node2</title>
<g id="a_Node000002"><a xlink:href="ManagedIndexer_8hpp.html" target="_top" xlink:title=" ">
<polygon fill="white" stroke="#666666" points="195.45,-217 63.45,-217 63.45,-187 195.45,-187 195.45,-217"/>
<text text-anchor="start" x="71.45" y="-205" font-family="Helvetica,sans-Serif" font-size="10.00">netspeak/invertedindex</text>
<text text-anchor="middle" x="129.45" y="-194" font-family="Helvetica,sans-Serif" font-size="10.00">/ManagedIndexer.hpp</text>
</a>
</g>
</g>
<!-- Node1&#45;&gt;Node2 -->
<g id="edge1_Node000001_Node000002" class="edge">
<title>Node1&#45;&gt;Node2</title>
<g id="a_edge1_Node000001_Node000002"><a xlink:title=" ">
<path fill="none" stroke="#63b8ff" d="M83.53,-392.1C55.59,-385.45 26.61,-372.8 9.45,-349 -27,-298.43 56.76,-242.5 102.37,-217.02"/>
<polygon fill="#63b8ff" stroke="#63b8ff" points="82.84,-395.53 93.35,-394.21 84.31,-388.69 82.84,-395.53"/>
</a>
</g>
</g>
<!-- Node4 -->
<g id="Node000004" class="node">
<title>Node4</title>
<g id="a_Node000004"><a xlink:href="invertedindex_2Properties_8cpp.html" target="_top" xlink:title=" ">
<polygon fill="white" stroke="#666666" points="150.45,-349 18.45,-349 18.45,-319 150.45,-319 150.45,-349"/>
<text text-anchor="start" x="26.45" y="-337" font-family="Helvetica,sans-Serif" font-size="10.00">netspeak/invertedindex</text>
<text text-anchor="middle" x="84.45" y="-326" font-family="Helvetica,sans-Serif" font-size="10.00">/Properties.cpp</text>
</a>
</g>
</g>
<!-- Node1&#45;&gt;Node4 -->
<g id="edge3_Node000001_Node000004" class="edge">
<title>Node1&#45;&gt;Node4</title>
<g id="a_edge3_Node000001_Node000004"><a xlink:title=" ">
<path fill="none" stroke="#63b8ff" d="M135.08,-378.2C123.94,-368.7 111.04,-357.69 101.05,-349.16"/>
<polygon fill="#63b8ff" stroke="#63b8ff" points="132.93,-380.97 142.81,-384.8 137.47,-375.64 132.93,-380.97"/>
</a>
</g>
</g>
<!-- Node5 -->
<g id="Node000005" class="node">
<title>Node5</title>
<g id="a_Node000005"><a xlink:href="RawIndexer_8hpp.html" target="_top" xlink:title=" ">
<polygon fill="white" stroke="#666666" points="300.45,-349 168.45,-349 168.45,-319 300.45,-319 300.45,-349"/>
<text text-anchor="start" x="176.45" y="-337" font-family="Helvetica,sans-Serif" font-size="10.00">netspeak/invertedindex</text>
<text text-anchor="middle" x="234.45" y="-326" font-family="Helvetica,sans-Serif" font-size="10.00">/RawIndexer.hpp</text>
</a>
</g>
</g>
<!-- Node1&#45;&gt;Node5 -->
<g id="edge4_Node000001_Node000005" class="edge">
<title>Node1&#45;&gt;Node5</title>
<g id="a_edge4_Node000001_Node000005"><a xlink:title=" ">
<path fill="none" stroke="#63b8ff" d="M183.83,-378.2C194.96,-368.7 207.86,-357.69 217.85,-349.16"/>
<polygon fill="#63b8ff" stroke="#63b8ff" points="181.43,-375.64 176.1,-384.8 185.98,-380.97 181.43,-375.64"/>
</a>
</g>
</g>
<!-- Node7 -->
<g id="Node000007" class="node">
<title>Node7</title>
<g id="a_Node000007"><a xlink:href="RawSearcher_8hpp.html" target="_top" xlink:title=" ">
<polygon fill="white" stroke="#666666" points="450.45,-349 318.45,-349 318.45,-319 450.45,-319 450.45,-349"/>
<text text-anchor="start" x="326.45" y="-337" font-family="Helvetica,sans-Serif" font-size="10.00">netspeak/invertedindex</text>
<text text-anchor="middle" x="384.45" y="-326" font-family="Helvetica,sans-Serif" font-size="10.00">/RawSearcher.hpp</text>
</a>
</g>
</g>
<!-- Node1&#45;&gt;Node7 -->
<g id="edge7_Node000001_Node000007" class="edge">
<title>Node1&#45;&gt;Node7</title>
<g id="a_edge7_Node000001_Node000007"><a xlink:title=" ">
<path fill="none" stroke="#63b8ff" d="M218.79,-382.12C255.07,-371.8 300.93,-358.76 335.19,-349.01"/>
<polygon fill="#63b8ff" stroke="#63b8ff" points="217.49,-378.85 208.83,-384.95 219.41,-385.59 217.49,-378.85"/>
</a>
</g>
</g>
<!-- Node3 -->
<g id="Node000003" class="node">
<title>Node3</title>
<g id="a_Node000003"><a xlink:href="indexing_8cpp.html" target="_top" xlink:title=" ">
<polygon fill="white" stroke="#666666" points="192.95,-90.5 65.95,-90.5 65.95,-71.5 192.95,-71.5 192.95,-90.5"/>
<text text-anchor="middle" x="129.45" y="-78.5" font-family="Helvetica,sans-Serif" font-size="10.00">netspeak/indexing.cpp</text>
</a>
</g>
</g>
<!-- Node2&#45;&gt;Node3 -->
<g id="edge2_Node000002_Node000003" class="edge">
<title>Node2&#45;&gt;Node3</title>
<g id="a_edge2_Node000002_Node000003"><a xlink:title=" ">
<path fill="none" stroke="#63b8ff" d="M129.45,-176.8C129.45,-150.12 129.45,-108.62 129.45,-90.71"/>
<polygon fill="#63b8ff" stroke="#63b8ff" points="125.95,-176.88 129.45,-186.88 132.95,-176.88 125.95,-176.88"/>
</a>
</g>
</g>
<!-- Node6 -->
<g id="Node000006" class="node">
<title>Node6</title>
<g id="a_Node000006"><a xlink:href="Indexer_8hpp.html" target="_top" xlink:title=" ">
<polygon fill="white" stroke="#666666" points="256.45,-283 124.45,-283 124.45,-253 256.45,-253 256.45,-283"/>
<text text-anchor="start" x="132.45" y="-271" font-family="Helvetica,sans-Serif" font-size="10.00">netspeak/invertedindex</text>
<text text-anchor="middle" x="190.45" y="-260" font-family="Helvetica,sans-Serif" font-size="10.00">/Indexer.hpp</text>
</a>
</g>
</g>
<!-- Node5&#45;&gt;Node6 -->
<g id="edge5_Node000005_Node000006" class="edge">
<title>Node5&#45;&gt;Node6</title>
<g id="a_edge5_Node000005_Node000006"><a xlink:title=" ">
<path fill="none" stroke="#63b8ff" d="M219,-310.53C212.75,-301.43 205.71,-291.19 200.19,-283.16"/>
<polygon fill="#63b8ff" stroke="#63b8ff" points="216.14,-312.54 224.69,-318.8 221.91,-308.57 216.14,-312.54"/>
</a>
</g>
</g>
<!-- Node6&#45;&gt;Node2 -->
<g id="edge6_Node000006_Node000002" class="edge">
<title>Node6&#45;&gt;Node2</title>
<g id="a_edge6_Node000006_Node000002"><a xlink:title=" ">
<path fill="none" stroke="#63b8ff" d="M169.83,-245.37C160.96,-236.06 150.84,-225.44 142.95,-217.16"/>
<polygon fill="#63b8ff" stroke="#63b8ff" points="167.48,-247.97 176.91,-252.8 172.55,-243.14 167.48,-247.97"/>
</a>
</g>
</g>
<!-- Node8 -->
<g id="Node000008" class="node">
<title>Node8</title>
<g id="a_Node000008"><a xlink:href="Searcher_8hpp.html" target="_top" xlink:title=" ">
<polygon fill="white" stroke="#666666" points="450.45,-283 318.45,-283 318.45,-253 450.45,-253 450.45,-283"/>
<text text-anchor="start" x="326.45" y="-271" font-family="Helvetica,sans-Serif" font-size="10.00">netspeak/invertedindex</text>
<text text-anchor="middle" x="384.45" y="-260" font-family="Helvetica,sans-Serif" font-size="10.00">/Searcher.hpp</text>
</a>
</g>
</g>
<!-- Node7&#45;&gt;Node8 -->
<g id="edge8_Node000007_Node000008" class="edge">
<title>Node7&#45;&gt;Node8</title>
<g id="a_edge8_Node000007_Node000008"><a xlink:title=" ">
<path fill="none" stroke="#63b8ff" d="M384.45,-308.54C384.45,-299.96 384.45,-290.61 384.45,-283.16"/>
<polygon fill="#63b8ff" stroke="#63b8ff" points="380.95,-308.8 384.45,-318.8 387.95,-308.8 380.95,-308.8"/>
</a>
</g>
</g>
<!-- Node8&#45;&gt;Node3 -->
<g id="edge22_Node000008_Node000003" class="edge">
<title>Node8&#45;&gt;Node3</title>
<g id="a_edge22_Node000008_Node000003"><a xlink:title=" ">
<path fill="none" stroke="#63b8ff" d="M353.98,-247.23C340.25,-238.19 323.91,-227.23 309.45,-217 244.4,-170.97 168.72,-112.58 140.66,-90.75"/>
<polygon fill="#63b8ff" stroke="#63b8ff" points="352.29,-250.32 362.58,-252.87 356.13,-244.46 352.29,-250.32"/>
</a>
</g>
</g>
<!-- Node9 -->
<g id="Node000009" class="node">
<title>Node9</title>
<g id="a_Node000009"><a xlink:href="RetrievalStrategy3_8hpp.html" target="_top" xlink:title=" ">
<polygon fill="white" stroke="#666666" points="494.95,-211.5 317.95,-211.5 317.95,-192.5 494.95,-192.5 494.95,-211.5"/>
<text text-anchor="middle" x="406.45" y="-199.5" font-family="Helvetica,sans-Serif" font-size="10.00">netspeak/RetrievalStrategy3.hpp</text>
</a>
</g>
</g>
<!-- Node8&#45;&gt;Node9 -->
<g id="edge9_Node000008_Node000009" class="edge">
<title>Node8&#45;&gt;Node9</title>
<g id="a_edge9_Node000008_Node000009"><a xlink:title=" ">
<path fill="none" stroke="#63b8ff" d="M392.61,-243.28C396.38,-232.31 400.63,-219.94 403.41,-211.84"/>
<polygon fill="#63b8ff" stroke="#63b8ff" points="389.28,-242.2 389.34,-252.8 395.9,-244.48 389.28,-242.2"/>
</a>
</g>
</g>
<!-- Node10 -->
<g id="Node000010" class="node">
<title>Node10</title>
<g id="a_Node000010"><a xlink:href="Netspeak_8hpp.html" target="_top" xlink:title=" ">
<polygon fill="white" stroke="#666666" points="479.45,-151 347.45,-151 347.45,-132 479.45,-132 479.45,-151"/>
<text text-anchor="middle" x="413.45" y="-139" font-family="Helvetica,sans-Serif" font-size="10.00">netspeak/Netspeak.hpp</text>
</a>
</g>
</g>
<!-- Node9&#45;&gt;Node10 -->
<g id="edge10_Node000009_Node000010" class="edge">
<title>Node9&#45;&gt;Node10</title>
<g id="a_edge10_Node000009_Node000010"><a xlink:title=" ">
<path fill="none" stroke="#63b8ff" d="M408.71,-182.16C409.95,-171.74 411.44,-159.3 412.42,-151.17"/>
<polygon fill="#63b8ff" stroke="#63b8ff" points="405.2,-182.02 407.49,-192.37 412.15,-182.85 405.2,-182.02"/>
</a>
</g>
</g>
<!-- Node10&#45;&gt;Node3 -->
<g id="edge15_Node000010_Node000003" class="edge">
<title>Node10&#45;&gt;Node3</title>
<g id="a_edge15_Node000010_Node000003"><a xlink:title=" ">
<path fill="none" stroke="#63b8ff" d="M362.3,-129.96C307.47,-118.67 221.51,-100.96 170.8,-90.52"/>
<polygon fill="#63b8ff" stroke="#63b8ff" points="361.66,-133.4 372.16,-131.99 363.07,-126.55 361.66,-133.4"/>
</a>
</g>
</g>
<!-- Node11 -->
<g id="Node000011" class="node">
<title>Node11</title>
<g id="a_Node000011"><a xlink:href="ProxyCommand_8cpp.html" target="_top" xlink:title=" ">
<polygon fill="white" stroke="#666666" points="339.95,-90.5 210.95,-90.5 210.95,-71.5 339.95,-71.5 339.95,-90.5"/>
<text text-anchor="middle" x="275.45" y="-78.5" font-family="Helvetica,sans-Serif" font-size="10.00">cli/ProxyCommand.cpp</text>
</a>
</g>
</g>
<!-- Node10&#45;&gt;Node11 -->
<g id="edge11_Node000010_Node000011" class="edge">
<title>Node10&#45;&gt;Node11</title>
<g id="a_edge11_Node000010_Node000011"><a xlink:title=" ">
<path fill="none" stroke="#63b8ff" d="M384.16,-128.08C357.5,-116.78 318.86,-100.4 295.54,-90.52"/>
<polygon fill="#63b8ff" stroke="#63b8ff" points="382.81,-131.31 393.39,-131.99 385.55,-124.87 382.81,-131.31"/>
</a>
</g>
</g>
<!-- Node12 -->
<g id="Node000012" class="node">
<title>Node12</title>
<g id="a_Node000012"><a xlink:href="ServeCommand_8cpp.html" target="_top" xlink:title=" ">
<polygon fill="white" stroke="#666666" points="551.95,-24.5 422.95,-24.5 422.95,-5.5 551.95,-5.5 551.95,-24.5"/>
<text text-anchor="middle" x="487.45" y="-12.5" font-family="Helvetica,sans-Serif" font-size="10.00">cli/ServeCommand.cpp</text>
</a>
</g>
</g>
<!-- Node10&#45;&gt;Node12 -->
<g id="edge12_Node000010_Node000012" class="edge">
<title>Node10&#45;&gt;Node12</title>
<g id="a_edge12_Node000010_Node000012"><a xlink:title=" ">
<path fill="none" stroke="#63b8ff" d="M399.78,-123.42C388.95,-107.67 377.34,-84.07 388.45,-66 401.77,-44.35 427.68,-31.74 449.65,-24.59"/>
<polygon fill="#63b8ff" stroke="#63b8ff" points="397.13,-125.72 405.88,-131.68 402.75,-121.56 397.13,-125.72"/>
</a>
</g>
</g>
<!-- Node13 -->
<g id="Node000013" class="node">
<title>Node13</title>
<g id="a_Node000013"><a xlink:href="ShellCommand_8cpp.html" target="_top" xlink:title=" ">
<polygon fill="white" stroke="#666666" points="521.95,-90.5 396.95,-90.5 396.95,-71.5 521.95,-71.5 521.95,-90.5"/>
<text text-anchor="middle" x="459.45" y="-78.5" font-family="Helvetica,sans-Serif" font-size="10.00">cli/ShellCommand.cpp</text>
</a>
</g>
</g>
<!-- Node10&#45;&gt;Node13 -->
<g id="edge13_Node000010_Node000013" class="edge">
<title>Node10&#45;&gt;Node13</title>
<g id="a_edge13_Node000010_Node000013"><a xlink:title=" ">
<path fill="none" stroke="#63b8ff" d="M426.47,-123.95C434.98,-113.12 445.76,-99.41 452.64,-90.67"/>
<polygon fill="#63b8ff" stroke="#63b8ff" points="423.67,-121.84 420.24,-131.87 429.17,-126.17 423.67,-121.84"/>
</a>
</g>
</g>
<!-- Node14 -->
<g id="Node000014" class="node">
<title>Node14</title>
<g id="a_Node000014"><a xlink:href="Netspeak_8cpp.html" target="_top" xlink:title=" ">
<polygon fill="white" stroke="#666666" points="670.95,-90.5 539.95,-90.5 539.95,-71.5 670.95,-71.5 670.95,-90.5"/>
<text text-anchor="middle" x="605.45" y="-78.5" font-family="Helvetica,sans-Serif" font-size="10.00">netspeak/Netspeak.cpp</text>
</a>
</g>
</g>
<!-- Node10&#45;&gt;Node14 -->
<g id="edge14_Node000010_Node000014" class="edge">
<title>Node10&#45;&gt;Node14</title>
<g id="a_edge14_Node000010_Node000014"><a xlink:title=" ">
<path fill="none" stroke="#63b8ff" d="M451.32,-128.96C488.46,-117.65 544.21,-100.66 577.5,-90.52"/>
<polygon fill="#63b8ff" stroke="#63b8ff" points="449.92,-125.73 441.37,-131.99 451.96,-132.43 449.92,-125.73"/>
</a>
</g>
</g>
<!-- Node15 -->
<g id="Node000015" class="node">
<title>Node15</title>
<g id="a_Node000015"><a xlink:href="RequestLogger_8hpp.html" target="_top" xlink:title=" ">
<polygon fill="white" stroke="#666666" points="1028.95,-96 885.95,-96 885.95,-66 1028.95,-66 1028.95,-96"/>
<text text-anchor="start" x="893.95" y="-84" font-family="Helvetica,sans-Serif" font-size="10.00">netspeak/service/Request</text>
<text text-anchor="middle" x="957.45" y="-73" font-family="Helvetica,sans-Serif" font-size="10.00">Logger.hpp</text>
</a>
</g>
</g>
<!-- Node10&#45;&gt;Node15 -->
<g id="edge16_Node000010_Node000015" class="edge">
<title>Node10&#45;&gt;Node15</title>
<g id="a_edge16_Node000010_Node000015"><a xlink:title=" ">
<path fill="none" stroke="#63b8ff" d="M489.79,-135.01C581.92,-127.95 741.41,-114.4 877.45,-96 880.11,-95.64 882.81,-95.26 885.54,-94.86"/>
<polygon fill="#63b8ff" stroke="#63b8ff" points="489.43,-131.52 479.72,-135.77 489.96,-138.5 489.43,-131.52"/>
</a>
</g>
</g>
<!-- Node18 -->
<g id="Node000018" class="node">
<title>Node18</title>
<g id="a_Node000018"><a xlink:href="UniqueMap_8hpp.html" target="_top" xlink:title=" ">
<polygon fill="white" stroke="#666666" points="867.95,-90.5 688.95,-90.5 688.95,-71.5 867.95,-71.5 867.95,-90.5"/>
<text text-anchor="middle" x="778.45" y="-78.5" font-family="Helvetica,sans-Serif" font-size="10.00">netspeak/service/UniqueMap.hpp</text>
</a>
</g>
</g>
<!-- Node10&#45;&gt;Node18 -->
<g id="edge19_Node000010_Node000018" class="edge">
<title>Node10&#45;&gt;Node18</title>
<g id="a_edge19_Node000010_Node000018"><a xlink:title=" ">
<path fill="none" stroke="#63b8ff" d="M476.58,-130.38C546.9,-119.11 659.33,-101.09 725.31,-90.52"/>
<polygon fill="#63b8ff" stroke="#63b8ff" points="475.85,-126.96 466.53,-131.99 476.95,-133.87 475.85,-126.96"/>
</a>
</g>
</g>
<!-- Node16 -->
<g id="Node000016" class="node">
<title>Node16</title>
<g id="a_Node000016"><a xlink:href="cli_2logging_8cpp.html" target="_top" xlink:title=" ">
<polygon fill="white" stroke="#666666" points="986.95,-24.5 899.95,-24.5 899.95,-5.5 986.95,-5.5 986.95,-24.5"/>
<text text-anchor="middle" x="943.45" y="-12.5" font-family="Helvetica,sans-Serif" font-size="10.00">cli/logging.cpp</text>
</a>
</g>
</g>
<!-- Node15&#45;&gt;Node16 -->
<g id="edge17_Node000015_Node000016" class="edge">
<title>Node15&#45;&gt;Node16</title>
<g id="a_edge17_Node000015_Node000016"><a xlink:title=" ">
<path fill="none" stroke="#63b8ff" d="M952.19,-55.94C949.81,-45.06 947.14,-32.86 945.39,-24.84"/>
<polygon fill="#63b8ff" stroke="#63b8ff" points="948.79,-56.78 954.35,-65.8 955.63,-55.28 948.79,-56.78"/>
</a>
</g>
</g>
<!-- Node17 -->
<g id="Node000017" class="node">
<title>Node17</title>
<g id="a_Node000017"><a xlink:href="RequestLogger_8cpp.html" target="_top" xlink:title=" ">
<polygon fill="white" stroke="#666666" points="1147.95,-30 1004.95,-30 1004.95,0 1147.95,0 1147.95,-30"/>
<text text-anchor="start" x="1012.95" y="-18" font-family="Helvetica,sans-Serif" font-size="10.00">netspeak/service/Request</text>
<text text-anchor="middle" x="1076.45" y="-7" font-family="Helvetica,sans-Serif" font-size="10.00">Logger.cpp</text>
</a>
</g>
</g>
<!-- Node15&#45;&gt;Node17 -->
<g id="edge18_Node000015_Node000017" class="edge">
<title>Node15&#45;&gt;Node17</title>
<g id="a_edge18_Node000015_Node000017"><a xlink:title=" ">
<path fill="none" stroke="#63b8ff" d="M992.59,-61.11C1011.11,-51.14 1033.44,-39.13 1050.4,-30.01"/>
<polygon fill="#63b8ff" stroke="#63b8ff" points="990.72,-58.14 983.57,-65.95 994.03,-64.3 990.72,-58.14"/>
</a>
</g>
</g>
<!-- Node18&#45;&gt;Node12 -->
<g id="edge20_Node000018_Node000012" class="edge">
<title>Node18&#45;&gt;Node12</title>
<g id="a_edge20_Node000018_Node000012"><a xlink:title=" ">
<path fill="none" stroke="#63b8ff" d="M729.61,-69.26C672.35,-56.67 578.64,-36.06 526.17,-24.51"/>
<polygon fill="#63b8ff" stroke="#63b8ff" points="728.99,-72.71 739.51,-71.44 730.49,-65.87 728.99,-72.71"/>
</a>
</g>
</g>
<!-- Node19 -->
<g id="Node000019" class="node">
<title>Node19</title>
<g id="a_Node000019"><a xlink:href="UniqueMap_8cpp.html" target="_top" xlink:title=" ">
<polygon fill="white" stroke="#666666" points="867.95,-24.5 688.95,-24.5 688.95,-5.5 867.95,-5.5 867.95,-24.5"/>
<text text-anchor="middle" x="778.45" y="-12.5" font-family="Helvetica,sans-Serif" font-size="10.00">netspeak/service/UniqueMap.cpp</text>
</a>
</g>
</g>
<!-- Node18&#45;&gt;Node19 -->
<g id="edge21_Node000018_Node000019" class="edge">
<title>Node18&#45;&gt;Node19</title>
<g id="a_edge21_Node000018_Node000019"><a xlink:title=" ">
<path fill="none" stroke="#63b8ff" d="M778.45,-61.08C778.45,-49.13 778.45,-34.22 778.45,-24.91"/>
<polygon fill="#63b8ff" stroke="#63b8ff" points="774.95,-61.37 778.45,-71.37 781.95,-61.37 774.95,-61.37"/>
</a>
</g>
</g>
</g>
</svg>
