<?xml version="1.0" encoding="UTF-8" standalone="no"?>
<!DOCTYPE svg PUBLIC "-//W3C//DTD SVG 1.1//EN"
 "http://www.w3.org/Graphics/SVG/1.1/DTD/svg11.dtd">
<!-- Generated by graphviz version 2.43.0 (0)
 -->
<!-- Title: netspeak/invertedindex/InvertedFileWriter.hpp Pages: 1 -->
<svg width="1172pt" height="280pt"
 viewBox="0.00 0.00 1172.01 280.00" xmlns="http://www.w3.org/2000/svg" xmlns:xlink="http://www.w3.org/1999/xlink">
<g id="graph0" class="graph" transform="scale(1 1) rotate(0) translate(4 276)">
<title>netspeak/invertedindex/InvertedFileWriter.hpp</title>
<!-- Node1 -->
<g id="Node000001" class="node">
<title>Node1</title>
<g id="a_Node000001"><a xlink:title=" ">
<polygon fill="#999999" stroke="#666666" points="588.51,-272 456.51,-272 456.51,-242 588.51,-242 588.51,-272"/>
<text text-anchor="start" x="464.51" y="-260" font-family="Helvetica,sans-Serif" font-size="10.00">netspeak/invertedindex</text>
<text text-anchor="middle" x="522.51" y="-249" font-family="Helvetica,sans-Serif" font-size="10.00">/InvertedFileWriter.hpp</text>
</a>
</g>
</g>
<!-- Node2 -->
<g id="Node000002" class="node">
<title>Node2</title>
<g id="a_Node000002"><a xlink:title=" ">
<polygon fill="#e0e0e0" stroke="#999999" points="442.51,-19 392.51,-19 392.51,0 442.51,0 442.51,-19"/>
<text text-anchor="middle" x="417.51" y="-7" font-family="Helvetica,sans-Serif" font-size="10.00">format</text>
</a>
</g>
</g>
<!-- Node1&#45;&gt;Node2 -->
<g id="edge1_Node000001_Node000002" class="edge">
<title>Node1&#45;&gt;Node2</title>
<g id="a_edge1_Node000001_Node000002"><a xlink:title=" ">
<path fill="none" stroke="#63b8ff" d="M456.36,-252.61C358.13,-243.41 178.44,-209.53 114.51,-85 108.43,-73.14 105.8,-65.09 114.51,-55 148.73,-15.39 309.55,-10.39 381.99,-10.19"/>
<polygon fill="#63b8ff" stroke="#63b8ff" points="382.41,-13.69 392.41,-10.19 382.42,-6.69 382.41,-13.69"/>
</a>
</g>
</g>
<!-- Node3 -->
<g id="Node000003" class="node">
<title>Node3</title>
<g id="a_Node000003"><a xlink:title=" ">
<polygon fill="#e0e0e0" stroke="#999999" points="86.01,-206 29.01,-206 29.01,-187 86.01,-187 86.01,-206"/>
<text text-anchor="middle" x="57.51" y="-194" font-family="Helvetica,sans-Serif" font-size="10.00">ostream</text>
</a>
</g>
</g>
<!-- Node1&#45;&gt;Node3 -->
<g id="edge2_Node000001_Node000003" class="edge">
<title>Node1&#45;&gt;Node3</title>
<g id="a_edge2_Node000001_Node000003"><a xlink:title=" ">
<path fill="none" stroke="#63b8ff" d="M456.51,-249.77C373.27,-241.55 225.86,-225.78 100.51,-206 99.06,-205.77 97.58,-205.53 96.08,-205.27"/>
<polygon fill="#63b8ff" stroke="#63b8ff" points="96.6,-201.81 86.14,-203.48 95.36,-208.7 96.6,-201.81"/>
</a>
</g>
</g>
<!-- Node4 -->
<g id="Node000004" class="node">
<title>Node4</title>
<g id="a_Node000004"><a xlink:title=" ">
<polygon fill="#e0e0e0" stroke="#999999" points="90.01,-19 25.01,-19 25.01,0 90.01,0 90.01,-19"/>
<text text-anchor="middle" x="57.51" y="-7" font-family="Helvetica,sans-Serif" font-size="10.00">stdexcept</text>
</a>
</g>
</g>
<!-- Node1&#45;&gt;Node4 -->
<g id="edge3_Node000001_Node000004" class="edge">
<title>Node1&#45;&gt;Node4</title>
<g id="a_edge3_Node000001_Node000004"><a xlink:title=" ">
<path fill="none" stroke="#63b8ff" d="M456.34,-254.27C326.47,-250.19 48.3,-237.79 19.51,-206 -26.5,-155.18 21.56,-65.8 45.57,-28.08"/>
<polygon fill="#63b8ff" stroke="#63b8ff" points="48.79,-29.55 51.35,-19.27 42.94,-25.72 48.79,-29.55"/>
</a>
</g>
</g>
<!-- Node5 -->
<g id="Node000005" class="node">
<title>Node5</title>
<g id="a_Node000005"><a xlink:href="pair__traits_8hpp.html" target="_top" xlink:title=" ">
<polygon fill="white" stroke="#666666" points="1004.51,-145.5 878.51,-145.5 878.51,-126.5 1004.51,-126.5 1004.51,-145.5"/>
<text text-anchor="middle" x="941.51" y="-133.5" font-family="Helvetica,sans-Serif" font-size="10.00">../value/pair_traits.hpp</text>
</a>
</g>
</g>
<!-- Node1&#45;&gt;Node5 -->
<g id="edge4_Node000001_Node000005" class="edge">
<title>Node1&#45;&gt;Node5</title>
<g id="a_edge4_Node000001_Node000005"><a xlink:title=" ">
<path fill="none" stroke="#63b8ff" d="M588.65,-249.33C645.79,-242.35 730.03,-229.09 800.51,-206 844.07,-191.73 891.25,-166.43 918.49,-150.75"/>
<polygon fill="#63b8ff" stroke="#63b8ff" points="920.38,-153.7 927.26,-145.64 916.86,-147.66 920.38,-153.7"/>
</a>
</g>
</g>
<!-- Node15 -->
<g id="Node000015" class="node">
<title>Node15</title>
<g id="a_Node000015"><a xlink:href="quadruple__traits_8hpp.html" target="_top" xlink:title=" ">
<polygon fill="white" stroke="#666666" points="670.51,-151 566.51,-151 566.51,-121 670.51,-121 670.51,-151"/>
<text text-anchor="start" x="574.51" y="-139" font-family="Helvetica,sans-Serif" font-size="10.00">../value/quadruple</text>
<text text-anchor="middle" x="618.51" y="-128" font-family="Helvetica,sans-Serif" font-size="10.00">_traits.hpp</text>
</a>
</g>
</g>
<!-- Node1&#45;&gt;Node15 -->
<g id="edge18_Node000001_Node000015" class="edge">
<title>Node1&#45;&gt;Node15</title>
<g id="a_edge18_Node000001_Node000015"><a xlink:title=" ">
<path fill="none" stroke="#63b8ff" d="M533.9,-241.88C550.43,-221.39 581.22,-183.23 600.74,-159.03"/>
<polygon fill="#63b8ff" stroke="#63b8ff" points="603.58,-161.08 607.14,-151.1 598.14,-156.69 603.58,-161.08"/>
</a>
</g>
</g>
<!-- Node17 -->
<g id="Node000017" class="node">
<title>Node17</title>
<g id="a_Node000017"><a xlink:href="string__traits_8hpp.html" target="_top" xlink:title=" ">
<polygon fill="white" stroke="#666666" points="351.01,-145.5 216.01,-145.5 216.01,-126.5 351.01,-126.5 351.01,-145.5"/>
<text text-anchor="middle" x="283.51" y="-133.5" font-family="Helvetica,sans-Serif" font-size="10.00">../value/string_traits.hpp</text>
</a>
</g>
</g>
<!-- Node1&#45;&gt;Node17 -->
<g id="edge24_Node000001_Node000017" class="edge">
<title>Node1&#45;&gt;Node17</title>
<g id="a_edge24_Node000001_Node000017"><a xlink:title=" ">
<path fill="none" stroke="#63b8ff" d="M494.16,-241.88C447.5,-218.65 355.22,-172.7 309.89,-150.13"/>
<polygon fill="#63b8ff" stroke="#63b8ff" points="311.22,-146.88 300.71,-145.56 308.1,-153.15 311.22,-146.88"/>
</a>
</g>
</g>
<!-- Node20 -->
<g id="Node000020" class="node">
<title>Node20</title>
<g id="a_Node000020"><a xlink:href="triple__traits_8hpp.html" target="_top" xlink:title=" ">
<polygon fill="white" stroke="#666666" points="822.01,-145.5 689.01,-145.5 689.01,-126.5 822.01,-126.5 822.01,-145.5"/>
<text text-anchor="middle" x="755.51" y="-133.5" font-family="Helvetica,sans-Serif" font-size="10.00">../value/triple_traits.hpp</text>
</a>
</g>
</g>
<!-- Node1&#45;&gt;Node20 -->
<g id="edge31_Node000001_Node000020" class="edge">
<title>Node1&#45;&gt;Node20</title>
<g id="a_edge31_Node000001_Node000020"><a xlink:title=" ">
<path fill="none" stroke="#63b8ff" d="M550.16,-241.88C595.64,-218.65 685.61,-172.7 729.8,-150.13"/>
<polygon fill="#63b8ff" stroke="#63b8ff" points="731.44,-153.23 738.75,-145.56 728.26,-146.99 731.44,-153.23"/>
</a>
</g>
</g>
<!-- Node22 -->
<g id="Node000022" class="node">
<title>Node22</title>
<g id="a_Node000022"><a xlink:href="Record_8hpp.html" target="_top" xlink:title=" ">
<polygon fill="white" stroke="#666666" points="791.01,-206 720.01,-206 720.01,-187 791.01,-187 791.01,-206"/>
<text text-anchor="middle" x="755.51" y="-194" font-family="Helvetica,sans-Serif" font-size="10.00">Record.hpp</text>
</a>
</g>
</g>
<!-- Node1&#45;&gt;Node22 -->
<g id="edge37_Node000001_Node000022" class="edge">
<title>Node1&#45;&gt;Node22</title>
<g id="a_edge37_Node000001_Node000022"><a xlink:title=" ">
<path fill="none" stroke="#63b8ff" d="M578.32,-241.99C619.06,-231.76 673.52,-218.09 711.27,-208.61"/>
<polygon fill="#63b8ff" stroke="#63b8ff" points="712.6,-211.88 721.45,-206.05 710.89,-205.09 712.6,-211.88"/>
</a>
</g>
</g>
<!-- Node5&#45;&gt;Node2 -->
<g id="edge15_Node000005_Node000002" class="edge">
<title>Node5&#45;&gt;Node2</title>
<g id="a_edge15_Node000005_Node000002"><a xlink:title=" ">
<path fill="none" stroke="#63b8ff" d="M948.31,-126.29C960.08,-110.11 981.27,-75.21 962.51,-55 926.14,-15.79 535.72,-24.47 482.51,-19 472.87,-18.01 462.45,-16.74 452.83,-15.48"/>
<polygon fill="#63b8ff" stroke="#63b8ff" points="453.16,-11.99 442.79,-14.13 452.24,-18.93 453.16,-11.99"/>
</a>
</g>
</g>
<!-- Node6 -->
<g id="Node000006" class="node">
<title>Node6</title>
<g id="a_Node000006"><a xlink:href="pair_8hpp.html" target="_top" xlink:title=" ">
<polygon fill="white" stroke="#666666" points="1141.51,-79.5 1085.51,-79.5 1085.51,-60.5 1141.51,-60.5 1141.51,-79.5"/>
<text text-anchor="middle" x="1113.51" y="-67.5" font-family="Helvetica,sans-Serif" font-size="10.00">pair.hpp</text>
</a>
</g>
</g>
<!-- Node5&#45;&gt;Node6 -->
<g id="edge5_Node000005_Node000006" class="edge">
<title>Node5&#45;&gt;Node6</title>
<g id="a_edge5_Node000005_Node000006"><a xlink:title=" ">
<path fill="none" stroke="#63b8ff" d="M964.71,-126.37C994.67,-115.22 1047,-95.75 1080.94,-83.12"/>
<polygon fill="#63b8ff" stroke="#63b8ff" points="1082.26,-86.36 1090.41,-79.6 1079.82,-79.8 1082.26,-86.36"/>
</a>
</g>
</g>
<!-- Node8 -->
<g id="Node000008" class="node">
<title>Node8</title>
<g id="a_Node000008"><a xlink:href="value__traits_8hpp.html" target="_top" xlink:title=" ">
<polygon fill="white" stroke="#666666" points="683.01,-79.5 588.01,-79.5 588.01,-60.5 683.01,-60.5 683.01,-79.5"/>
<text text-anchor="middle" x="635.51" y="-67.5" font-family="Helvetica,sans-Serif" font-size="10.00">value_traits.hpp</text>
</a>
</g>
</g>
<!-- Node5&#45;&gt;Node8 -->
<g id="edge7_Node000005_Node000008" class="edge">
<title>Node5&#45;&gt;Node8</title>
<g id="a_edge7_Node000005_Node000008"><a xlink:title=" ">
<path fill="none" stroke="#63b8ff" d="M900.56,-126.44C845.14,-114.84 746.3,-94.17 686.24,-81.61"/>
<polygon fill="#63b8ff" stroke="#63b8ff" points="686.73,-78.14 676.22,-79.51 685.29,-84.99 686.73,-78.14"/>
</a>
</g>
</g>
<!-- Node12 -->
<g id="Node000012" class="node">
<title>Node12</title>
<g id="a_Node000012"><a xlink:title=" ">
<polygon fill="#e0e0e0" stroke="#999999" points="864.51,-19 820.51,-19 820.51,0 864.51,0 864.51,-19"/>
<text text-anchor="middle" x="842.51" y="-7" font-family="Helvetica,sans-Serif" font-size="10.00">string</text>
</a>
</g>
</g>
<!-- Node5&#45;&gt;Node12 -->
<g id="edge17_Node000005_Node000012" class="edge">
<title>Node5&#45;&gt;Node12</title>
<g id="a_edge17_Node000005_Node000012"><a xlink:title=" ">
<path fill="none" stroke="#63b8ff" d="M954.92,-126.4C976.44,-111.53 1014.43,-80.2 995.51,-55 981,-35.66 914.98,-21.99 874.56,-15.26"/>
<polygon fill="#63b8ff" stroke="#63b8ff" points="875.06,-11.79 864.63,-13.66 873.95,-18.7 875.06,-11.79"/>
</a>
</g>
</g>
<!-- Node14 -->
<g id="Node000014" class="node">
<title>Node14</title>
<g id="a_Node000014"><a xlink:title=" ">
<polygon fill="#e0e0e0" stroke="#999999" points="953.51,-79.5 897.51,-79.5 897.51,-60.5 953.51,-60.5 953.51,-79.5"/>
<text text-anchor="middle" x="925.51" y="-67.5" font-family="Helvetica,sans-Serif" font-size="10.00">sstream</text>
</a>
</g>
</g>
<!-- Node5&#45;&gt;Node14 -->
<g id="edge16_Node000005_Node000014" class="edge">
<title>Node5&#45;&gt;Node14</title>
<g id="a_edge16_Node000005_Node000014"><a xlink:title=" ">
<path fill="none" stroke="#63b8ff" d="M939.36,-126.37C937.03,-117.07 933.26,-101.98 930.24,-89.9"/>
<polygon fill="#63b8ff" stroke="#63b8ff" points="933.56,-88.76 927.74,-79.91 926.77,-90.46 933.56,-88.76"/>
</a>
</g>
</g>
<!-- Node7 -->
<g id="Node000007" class="node">
<title>Node7</title>
<g id="a_Node000007"><a xlink:title=" ">
<polygon fill="#e0e0e0" stroke="#999999" points="1164.01,-19 1119.01,-19 1119.01,0 1164.01,0 1164.01,-19"/>
<text text-anchor="middle" x="1141.51" y="-7" font-family="Helvetica,sans-Serif" font-size="10.00">utility</text>
</a>
</g>
</g>
<!-- Node6&#45;&gt;Node7 -->
<g id="edge6_Node000006_Node000007" class="edge">
<title>Node6&#45;&gt;Node7</title>
<g id="a_edge6_Node000006_Node000007"><a xlink:title=" ">
<path fill="none" stroke="#63b8ff" d="M1117.65,-60.37C1121.66,-51.99 1127.87,-39.01 1132.95,-28.39"/>
<polygon fill="#63b8ff" stroke="#63b8ff" points="1136.21,-29.7 1137.37,-19.17 1129.89,-26.68 1136.21,-29.7"/>
</a>
</g>
</g>
<!-- Node8&#45;&gt;Node2 -->
<g id="edge10_Node000008_Node000002" class="edge">
<title>Node8&#45;&gt;Node2</title>
<g id="a_edge10_Node000008_Node000002"><a xlink:title=" ">
<path fill="none" stroke="#63b8ff" d="M603.81,-60.49C563.56,-49.69 494.32,-31.11 452.54,-19.9"/>
<polygon fill="#63b8ff" stroke="#63b8ff" points="453.36,-16.5 442.8,-17.28 451.55,-23.26 453.36,-16.5"/>
</a>
</g>
</g>
<!-- Node8&#45;&gt;Node4 -->
<g id="edge12_Node000008_Node000004" class="edge">
<title>Node8&#45;&gt;Node4</title>
<g id="a_edge12_Node000008_Node000004"><a xlink:title=" ">
<path fill="none" stroke="#63b8ff" d="M587.74,-61.44C572.66,-59.19 555.91,-56.84 540.51,-55 378.34,-35.59 184.66,-20.05 100.3,-13.66"/>
<polygon fill="#63b8ff" stroke="#63b8ff" points="100.32,-10.15 90.09,-12.89 99.79,-17.13 100.32,-10.15"/>
</a>
</g>
</g>
<!-- Node9 -->
<g id="Node000009" class="node">
<title>Node9</title>
<g id="a_Node000009"><a xlink:title=" ">
<polygon fill="#e0e0e0" stroke="#999999" points="707.51,-19 657.51,-19 657.51,0 707.51,0 707.51,-19"/>
<text text-anchor="middle" x="682.51" y="-7" font-family="Helvetica,sans-Serif" font-size="10.00">cstdint</text>
</a>
</g>
</g>
<!-- Node8&#45;&gt;Node9 -->
<g id="edge8_Node000008_Node000009" class="edge">
<title>Node8&#45;&gt;Node9</title>
<g id="a_edge8_Node000008_Node000009"><a xlink:title=" ">
<path fill="none" stroke="#63b8ff" d="M642.45,-60.37C649.46,-51.64 660.48,-37.93 669.18,-27.09"/>
<polygon fill="#63b8ff" stroke="#63b8ff" points="672.02,-29.16 675.55,-19.17 666.56,-24.77 672.02,-29.16"/>
</a>
</g>
</g>
<!-- Node10 -->
<g id="Node000010" class="node">
<title>Node10</title>
<g id="a_Node000010"><a xlink:title=" ">
<polygon fill="#e0e0e0" stroke="#999999" points="775.51,-19 725.51,-19 725.51,0 775.51,0 775.51,-19"/>
<text text-anchor="middle" x="750.51" y="-7" font-family="Helvetica,sans-Serif" font-size="10.00">cstring</text>
</a>
</g>
</g>
<!-- Node8&#45;&gt;Node10 -->
<g id="edge9_Node000008_Node000010" class="edge">
<title>Node8&#45;&gt;Node10</title>
<g id="a_edge9_Node000008_Node000010"><a xlink:title=" ">
<path fill="none" stroke="#63b8ff" d="M652.48,-60.37C671.42,-50.73 702.3,-35.03 724.34,-23.81"/>
<polygon fill="#63b8ff" stroke="#63b8ff" points="726.15,-26.82 733.48,-19.17 722.98,-20.58 726.15,-26.82"/>
</a>
</g>
</g>
<!-- Node11 -->
<g id="Node000011" class="node">
<title>Node11</title>
<g id="a_Node000011"><a xlink:title=" ">
<polygon fill="#e0e0e0" stroke="#999999" points="551.51,-19 491.51,-19 491.51,0 551.51,0 551.51,-19"/>
<text text-anchor="middle" x="521.51" y="-7" font-family="Helvetica,sans-Serif" font-size="10.00">iostream</text>
</a>
</g>
</g>
<!-- Node8&#45;&gt;Node11 -->
<g id="edge11_Node000008_Node000011" class="edge">
<title>Node8&#45;&gt;Node11</title>
<g id="a_edge11_Node000008_Node000011"><a xlink:title=" ">
<path fill="none" stroke="#63b8ff" d="M618.69,-60.37C599.92,-50.73 569.31,-35.03 547.46,-23.81"/>
<polygon fill="#63b8ff" stroke="#63b8ff" points="548.9,-20.62 538.4,-19.17 545.7,-26.85 548.9,-20.62"/>
</a>
</g>
</g>
<!-- Node8&#45;&gt;Node12 -->
<g id="edge13_Node000008_Node000012" class="edge">
<title>Node8&#45;&gt;Node12</title>
<g id="a_edge13_Node000008_Node000012"><a xlink:title=" ">
<path fill="none" stroke="#63b8ff" d="M665.61,-60.49C704.3,-49.56 771.16,-30.67 810.67,-19.5"/>
<polygon fill="#63b8ff" stroke="#63b8ff" points="811.66,-22.86 820.33,-16.77 809.75,-16.12 811.66,-22.86"/>
</a>
</g>
</g>
<!-- Node13 -->
<g id="Node000013" class="node">
<title>Node13</title>
<g id="a_Node000013"><a xlink:title=" ">
<polygon fill="#e0e0e0" stroke="#999999" points="639.01,-19 570.01,-19 570.01,0 639.01,0 639.01,-19"/>
<text text-anchor="middle" x="604.51" y="-7" font-family="Helvetica,sans-Serif" font-size="10.00">type_traits</text>
</a>
</g>
</g>
<!-- Node8&#45;&gt;Node13 -->
<g id="edge14_Node000008_Node000013" class="edge">
<title>Node8&#45;&gt;Node13</title>
<g id="a_edge14_Node000008_Node000013"><a xlink:title=" ">
<path fill="none" stroke="#63b8ff" d="M630.94,-60.37C626.45,-51.9 619.48,-38.74 613.82,-28.07"/>
<polygon fill="#63b8ff" stroke="#63b8ff" points="616.88,-26.36 609.11,-19.17 610.7,-29.64 616.88,-26.36"/>
</a>
</g>
</g>
<!-- Node15&#45;&gt;Node2 -->
<g id="edge21_Node000015_Node000002" class="edge">
<title>Node15&#45;&gt;Node2</title>
<g id="a_edge21_Node000015_Node000002"><a xlink:title=" ">
<path fill="none" stroke="#63b8ff" d="M566.4,-134.25C525.64,-130.83 470.37,-119.49 436.51,-85 422.08,-70.3 418.14,-46.23 417.29,-29.45"/>
<polygon fill="#63b8ff" stroke="#63b8ff" points="420.79,-29.13 417.11,-19.19 413.79,-29.26 420.79,-29.13"/>
</a>
</g>
</g>
<!-- Node15&#45;&gt;Node8 -->
<g id="edge20_Node000015_Node000008" class="edge">
<title>Node15&#45;&gt;Node8</title>
<g id="a_edge20_Node000015_Node000008"><a xlink:title=" ">
<path fill="none" stroke="#63b8ff" d="M622.29,-120.8C624.73,-111.6 627.94,-99.53 630.58,-89.58"/>
<polygon fill="#63b8ff" stroke="#63b8ff" points="633.98,-90.41 633.16,-79.84 627.21,-88.61 633.98,-90.41"/>
</a>
</g>
</g>
<!-- Node15&#45;&gt;Node12 -->
<g id="edge23_Node000015_Node000012" class="edge">
<title>Node15&#45;&gt;Node12</title>
<g id="a_edge23_Node000015_Node000012"><a xlink:title=" ">
<path fill="none" stroke="#63b8ff" d="M652.47,-120.81C673.86,-111.47 701.82,-98.5 725.51,-85 746.08,-73.29 749.62,-67.83 769.51,-55 785.88,-44.44 804.66,-33.01 819.07,-24.38"/>
<polygon fill="#63b8ff" stroke="#63b8ff" points="821.04,-27.28 827.84,-19.15 817.45,-21.27 821.04,-27.28"/>
</a>
</g>
</g>
<!-- Node15&#45;&gt;Node14 -->
<g id="edge22_Node000015_Node000014" class="edge">
<title>Node15&#45;&gt;Node14</title>
<g id="a_edge22_Node000015_Node000014"><a xlink:title=" ">
<path fill="none" stroke="#63b8ff" d="M670.74,-122.92C673.71,-122.27 676.65,-121.62 679.51,-121 752.93,-105.12 839,-87.96 887.4,-78.44"/>
<polygon fill="#63b8ff" stroke="#63b8ff" points="888.29,-81.83 897.43,-76.47 886.94,-74.96 888.29,-81.83"/>
</a>
</g>
</g>
<!-- Node16 -->
<g id="Node000016" class="node">
<title>Node16</title>
<g id="a_Node000016"><a xlink:href="quadruple_8hpp.html" target="_top" xlink:title=" ">
<polygon fill="white" stroke="#666666" points="531.51,-79.5 445.51,-79.5 445.51,-60.5 531.51,-60.5 531.51,-79.5"/>
<text text-anchor="middle" x="488.51" y="-67.5" font-family="Helvetica,sans-Serif" font-size="10.00">quadruple.hpp</text>
</a>
</g>
</g>
<!-- Node15&#45;&gt;Node16 -->
<g id="edge19_Node000015_Node000016" class="edge">
<title>Node15&#45;&gt;Node16</title>
<g id="a_edge19_Node000015_Node000016"><a xlink:title=" ">
<path fill="none" stroke="#63b8ff" d="M589.98,-120.95C567.59,-109.93 536.65,-94.7 514.84,-83.96"/>
<polygon fill="#63b8ff" stroke="#63b8ff" points="516.33,-80.79 505.81,-79.52 513.24,-87.07 516.33,-80.79"/>
</a>
</g>
</g>
<!-- Node17&#45;&gt;Node2 -->
<g id="edge26_Node000017_Node000002" class="edge">
<title>Node17&#45;&gt;Node2</title>
<g id="a_edge26_Node000017_Node000002"><a xlink:title=" ">
<path fill="none" stroke="#63b8ff" d="M291.96,-126.4C306.63,-111.55 337.91,-80.22 365.51,-55 376.48,-44.98 389.13,-34.14 399.21,-25.66"/>
<polygon fill="#63b8ff" stroke="#63b8ff" points="401.55,-28.27 406.98,-19.17 397.06,-22.9 401.55,-28.27"/>
</a>
</g>
</g>
<!-- Node17&#45;&gt;Node4 -->
<g id="edge27_Node000017_Node000004" class="edge">
<title>Node17&#45;&gt;Node4</title>
<g id="a_edge27_Node000017_Node000004"><a xlink:title=" ">
<path fill="none" stroke="#63b8ff" d="M222.41,-126.49C188.37,-119.5 146.53,-107.03 114.51,-85 93.21,-70.34 76.4,-45.19 66.71,-28.22"/>
<polygon fill="#63b8ff" stroke="#63b8ff" points="69.71,-26.41 61.84,-19.3 63.56,-29.76 69.71,-26.41"/>
</a>
</g>
</g>
<!-- Node17&#45;&gt;Node8 -->
<g id="edge30_Node000017_Node000008" class="edge">
<title>Node17&#45;&gt;Node8</title>
<g id="a_edge30_Node000017_Node000008"><a xlink:title=" ">
<path fill="none" stroke="#63b8ff" d="M330.62,-126.44C394.77,-114.77 509.49,-93.91 578.44,-81.38"/>
<polygon fill="#63b8ff" stroke="#63b8ff" points="579.47,-84.75 588.69,-79.51 578.22,-77.86 579.47,-84.75"/>
</a>
</g>
</g>
<!-- Node17&#45;&gt;Node12 -->
<g id="edge28_Node000017_Node000012" class="edge">
<title>Node17&#45;&gt;Node12</title>
<g id="a_edge28_Node000017_Node000012"><a xlink:title=" ">
<path fill="none" stroke="#63b8ff" d="M351.23,-131.56C451.05,-125.66 632.28,-111.63 691.51,-85 709.89,-76.74 708.26,-65.42 725.51,-55 752.37,-38.78 786.15,-26.7 810.5,-19.25"/>
<polygon fill="#63b8ff" stroke="#63b8ff" points="811.72,-22.54 820.31,-16.35 809.73,-15.83 811.72,-22.54"/>
</a>
</g>
</g>
<!-- Node18 -->
<g id="Node000018" class="node">
<title>Node18</title>
<g id="a_Node000018"><a xlink:title=" ">
<polygon fill="#e0e0e0" stroke="#999999" points="169.51,-79.5 123.51,-79.5 123.51,-60.5 169.51,-60.5 169.51,-79.5"/>
<text text-anchor="middle" x="146.51" y="-67.5" font-family="Helvetica,sans-Serif" font-size="10.00">cstdio</text>
</a>
</g>
</g>
<!-- Node17&#45;&gt;Node18 -->
<g id="edge25_Node000017_Node000018" class="edge">
<title>Node17&#45;&gt;Node18</title>
<g id="a_edge25_Node000017_Node000018"><a xlink:title=" ">
<path fill="none" stroke="#63b8ff" d="M265.04,-126.37C241.75,-115.49 201.5,-96.69 174.45,-84.05"/>
<polygon fill="#63b8ff" stroke="#63b8ff" points="175.68,-80.76 165.14,-79.7 172.71,-87.1 175.68,-80.76"/>
</a>
</g>
</g>
<!-- Node19 -->
<g id="Node000019" class="node">
<title>Node19</title>
<g id="a_Node000019"><a xlink:title=" ">
<polygon fill="#e0e0e0" stroke="#999999" points="313.01,-85 188.01,-85 188.01,-55 313.01,-55 313.01,-85"/>
<text text-anchor="start" x="196.01" y="-73" font-family="Helvetica,sans-Serif" font-size="10.00">boost/algorithm/string</text>
<text text-anchor="middle" x="250.51" y="-62" font-family="Helvetica,sans-Serif" font-size="10.00">/trim.hpp</text>
</a>
</g>
</g>
<!-- Node17&#45;&gt;Node19 -->
<g id="edge29_Node000017_Node000019" class="edge">
<title>Node17&#45;&gt;Node19</title>
<g id="a_edge29_Node000017_Node000019"><a xlink:title=" ">
<path fill="none" stroke="#63b8ff" d="M279.06,-126.37C274.83,-118.16 268.27,-105.44 262.51,-94.26"/>
<polygon fill="#63b8ff" stroke="#63b8ff" points="265.61,-92.64 257.92,-85.36 259.39,-95.85 265.61,-92.64"/>
</a>
</g>
</g>
<!-- Node20&#45;&gt;Node2 -->
<g id="edge34_Node000020_Node000002" class="edge">
<title>Node20&#45;&gt;Node2</title>
<g id="a_edge34_Node000020_Node000002"><a xlink:title=" ">
<path fill="none" stroke="#63b8ff" d="M705.89,-126.43C669.3,-118.83 619.05,-105.68 578.51,-85 559.35,-75.22 559.32,-65.46 540.51,-55 512.43,-39.38 477.82,-27.43 452.47,-19.87"/>
<polygon fill="#63b8ff" stroke="#63b8ff" points="453.14,-16.42 442.56,-16.99 451.19,-23.14 453.14,-16.42"/>
</a>
</g>
</g>
<!-- Node20&#45;&gt;Node8 -->
<g id="edge33_Node000020_Node000008" class="edge">
<title>Node20&#45;&gt;Node8</title>
<g id="a_edge33_Node000020_Node000008"><a xlink:title=" ">
<path fill="none" stroke="#63b8ff" d="M739.33,-126.37C719.2,-115.63 684.6,-97.18 660.92,-84.55"/>
<polygon fill="#63b8ff" stroke="#63b8ff" points="662.3,-81.32 651.82,-79.7 659,-87.49 662.3,-81.32"/>
</a>
</g>
</g>
<!-- Node20&#45;&gt;Node12 -->
<g id="edge36_Node000020_Node000012" class="edge">
<title>Node20&#45;&gt;Node12</title>
<g id="a_edge36_Node000020_Node000012"><a xlink:title=" ">
<path fill="none" stroke="#63b8ff" d="M790.41,-126.49C811.8,-119.27 837.51,-106.54 850.51,-85 860.78,-67.99 855.95,-44.75 850.38,-28.78"/>
<polygon fill="#63b8ff" stroke="#63b8ff" points="853.48,-27.09 846.58,-19.05 846.96,-29.63 853.48,-27.09"/>
</a>
</g>
</g>
<!-- Node20&#45;&gt;Node14 -->
<g id="edge35_Node000020_Node000014" class="edge">
<title>Node20&#45;&gt;Node14</title>
<g id="a_edge35_Node000020_Node000014"><a xlink:title=" ">
<path fill="none" stroke="#63b8ff" d="M778.44,-126.37C808.05,-115.22 859.77,-95.75 893.31,-83.12"/>
<polygon fill="#63b8ff" stroke="#63b8ff" points="894.55,-86.4 902.68,-79.6 892.09,-79.84 894.55,-86.4"/>
</a>
</g>
</g>
<!-- Node21 -->
<g id="Node000021" class="node">
<title>Node21</title>
<g id="a_Node000021"><a xlink:href="triple_8hpp.html" target="_top" xlink:title=" ">
<polygon fill="white" stroke="#666666" points="841.01,-79.5 778.01,-79.5 778.01,-60.5 841.01,-60.5 841.01,-79.5"/>
<text text-anchor="middle" x="809.51" y="-67.5" font-family="Helvetica,sans-Serif" font-size="10.00">triple.hpp</text>
</a>
</g>
</g>
<!-- Node20&#45;&gt;Node21 -->
<g id="edge32_Node000020_Node000021" class="edge">
<title>Node20&#45;&gt;Node21</title>
<g id="a_edge32_Node000020_Node000021"><a xlink:title=" ">
<path fill="none" stroke="#63b8ff" d="M762.8,-126.37C771.12,-116.5 784.95,-100.11 795.41,-87.72"/>
<polygon fill="#63b8ff" stroke="#63b8ff" points="798.23,-89.81 802,-79.91 792.88,-85.29 798.23,-89.81"/>
</a>
</g>
</g>
<!-- Node22&#45;&gt;Node2 -->
<g id="edge44_Node000022_Node000002" class="edge">
<title>Node22&#45;&gt;Node2</title>
<g id="a_edge44_Node000022_Node000002"><a xlink:title=" ">
<path fill="none" stroke="#63b8ff" d="M719.72,-189.59C639.69,-175.54 450.7,-137.33 417.51,-85 406.93,-68.32 408.98,-45.02 412.35,-28.94"/>
<polygon fill="#63b8ff" stroke="#63b8ff" points="415.77,-29.68 414.76,-19.13 408.98,-28.01 415.77,-29.68"/>
</a>
</g>
</g>
<!-- Node22&#45;&gt;Node5 -->
<g id="edge40_Node000022_Node000005" class="edge">
<title>Node22&#45;&gt;Node5</title>
<g id="a_edge40_Node000022_Node000005"><a xlink:title=" ">
<path fill="none" stroke="#63b8ff" d="M782.56,-186.99C814.79,-176.86 868.81,-159.87 904.8,-148.55"/>
<polygon fill="#63b8ff" stroke="#63b8ff" points="905.95,-151.86 914.44,-145.52 903.85,-145.18 905.95,-151.86"/>
</a>
</g>
</g>
<!-- Node22&#45;&gt;Node7 -->
<g id="edge39_Node000022_Node000007" class="edge">
<title>Node22&#45;&gt;Node7</title>
<g id="a_edge39_Node000022_Node000007"><a xlink:title=" ">
<path fill="none" stroke="#63b8ff" d="M791.32,-193.68C844.9,-190.08 948.49,-179.73 1031.51,-151 1088.67,-131.22 1119.82,-137.11 1150.51,-85 1160.61,-67.85 1155.46,-44.64 1149.65,-28.71"/>
<polygon fill="#63b8ff" stroke="#63b8ff" points="1152.72,-26.96 1145.71,-19.01 1146.23,-29.59 1152.72,-26.96"/>
</a>
</g>
</g>
<!-- Node22&#45;&gt;Node12 -->
<g id="edge38_Node000022_Node000012" class="edge">
<title>Node22&#45;&gt;Node12</title>
<g id="a_edge38_Node000022_Node000012"><a xlink:title=" ">
<path fill="none" stroke="#63b8ff" d="M791.06,-194.79C855.02,-192.67 985.48,-184.29 1013.51,-151 1023.77,-138.83 1031.01,-79.52 1011.51,-55 994.6,-33.73 918.6,-20.44 874.49,-14.37"/>
<polygon fill="#63b8ff" stroke="#63b8ff" points="874.92,-10.9 864.55,-13.05 874,-17.84 874.92,-10.9"/>
</a>
</g>
</g>
<!-- Node22&#45;&gt;Node14 -->
<g id="edge45_Node000022_Node000014" class="edge">
<title>Node22&#45;&gt;Node14</title>
<g id="a_edge45_Node000022_Node000014"><a xlink:title=" ">
<path fill="none" stroke="#63b8ff" d="M772.04,-186.92C787.79,-178.49 811.94,-164.9 831.51,-151 846.92,-140.06 885.71,-106.23 908.35,-86.24"/>
<polygon fill="#63b8ff" stroke="#63b8ff" points="910.72,-88.82 915.89,-79.57 906.08,-83.57 910.72,-88.82"/>
</a>
</g>
</g>
<!-- Node22&#45;&gt;Node15 -->
<g id="edge41_Node000022_Node000015" class="edge">
<title>Node22&#45;&gt;Node15</title>
<g id="a_edge41_Node000022_Node000015"><a xlink:title=" ">
<path fill="none" stroke="#63b8ff" d="M735.59,-186.99C716.05,-178.65 685.63,-165.66 660.7,-155.02"/>
<polygon fill="#63b8ff" stroke="#63b8ff" points="662.02,-151.77 651.45,-151.06 659.27,-158.21 662.02,-151.77"/>
</a>
</g>
</g>
<!-- Node22&#45;&gt;Node17 -->
<g id="edge42_Node000022_Node000017" class="edge">
<title>Node22&#45;&gt;Node17</title>
<g id="a_edge42_Node000022_Node000017"><a xlink:title=" ">
<path fill="none" stroke="#63b8ff" d="M719.94,-192.11C651.27,-185.41 495.73,-169.53 365.51,-151 357.48,-149.86 349.03,-148.54 340.73,-147.19"/>
<polygon fill="#63b8ff" stroke="#63b8ff" points="341.15,-143.71 330.71,-145.52 340,-150.61 341.15,-143.71"/>
</a>
</g>
</g>
<!-- Node22&#45;&gt;Node20 -->
<g id="edge43_Node000022_Node000020" class="edge">
<title>Node22&#45;&gt;Node20</title>
<g id="a_edge43_Node000022_Node000020"><a xlink:title=" ">
<path fill="none" stroke="#63b8ff" d="M755.51,-186.87C755.51,-178.75 755.51,-166.31 755.51,-155.89"/>
<polygon fill="#63b8ff" stroke="#63b8ff" points="759.01,-155.67 755.51,-145.67 752.01,-155.67 759.01,-155.67"/>
</a>
</g>
</g>
</g>
</svg>
