<?xml version="1.0" encoding="UTF-8" standalone="no"?>
<!DOCTYPE svg PUBLIC "-//W3C//DTD SVG 1.1//EN"
 "http://www.w3.org/Graphics/SVG/1.1/DTD/svg11.dtd">
<!-- Generated by graphviz version 2.43.0 (0)
 -->
<!-- Title: netspeak/invertedindex/Configuration.hpp Pages: 1 -->
<svg width="1261pt" height="489pt"
 viewBox="0.00 0.00 1260.97 489.00" xmlns="http://www.w3.org/2000/svg" xmlns:xlink="http://www.w3.org/1999/xlink">
<g id="graph0" class="graph" transform="scale(1 1) rotate(0) translate(4 485)">
<title>netspeak/invertedindex/Configuration.hpp</title>
<!-- Node1 -->
<g id="Node000001" class="node">
<title>Node1</title>
<g id="a_Node000001"><a xlink:title=" ">
<polygon fill="#999999" stroke="#666666" points="1148.97,-481 1016.97,-481 1016.97,-451 1148.97,-451 1148.97,-481"/>
<text text-anchor="start" x="1024.97" y="-469" font-family="Helvetica,sans-Serif" font-size="10.00">netspeak/invertedindex</text>
<text text-anchor="middle" x="1082.97" y="-458" font-family="Helvetica,sans-Serif" font-size="10.00">/Configuration.hpp</text>
</a>
</g>
</g>
<!-- Node2 -->
<g id="Node000002" class="node">
<title>Node2</title>
<g id="a_Node000002"><a xlink:href="RetrievalStrategy3_8hpp.html" target="_top" xlink:title=" ">
<polygon fill="white" stroke="#666666" points="486.47,-211.5 309.47,-211.5 309.47,-192.5 486.47,-192.5 486.47,-211.5"/>
<text text-anchor="middle" x="397.97" y="-199.5" font-family="Helvetica,sans-Serif" font-size="10.00">netspeak/RetrievalStrategy3.hpp</text>
</a>
</g>
</g>
<!-- Node1&#45;&gt;Node2 -->
<g id="edge1_Node000001_Node000002" class="edge">
<title>Node1&#45;&gt;Node2</title>
<g id="a_edge1_Node000001_Node000002"><a xlink:title=" ">
<path fill="none" stroke="#63b8ff" d="M1006.67,-465.47C838,-464.6 442.6,-451.46 369.97,-349 345.3,-314.19 359.2,-294.28 369.97,-253 374.09,-237.21 384.43,-221.13 391.32,-211.61"/>
<polygon fill="#63b8ff" stroke="#63b8ff" points="1006.71,-468.97 1016.72,-465.51 1006.74,-461.97 1006.71,-468.97"/>
</a>
</g>
</g>
<!-- Node8 -->
<g id="Node000008" class="node">
<title>Node8</title>
<g id="a_Node000008"><a xlink:href="indexing_8cpp.html" target="_top" xlink:title=" ">
<polygon fill="white" stroke="#666666" points="940.47,-90.5 813.47,-90.5 813.47,-71.5 940.47,-71.5 940.47,-90.5"/>
<text text-anchor="middle" x="876.97" y="-78.5" font-family="Helvetica,sans-Serif" font-size="10.00">netspeak/indexing.cpp</text>
</a>
</g>
</g>
<!-- Node1&#45;&gt;Node8 -->
<g id="edge14_Node000001_Node000008" class="edge">
<title>Node1&#45;&gt;Node8</title>
<g id="a_edge14_Node000001_Node000008"><a xlink:title=" ">
<path fill="none" stroke="#63b8ff" d="M1140.88,-447.38C1190.15,-428.38 1252.97,-392.82 1252.97,-335 1252.97,-335 1252.97,-335 1252.97,-201 1252.97,-136.3 1048.03,-102.27 940.76,-88.89"/>
<polygon fill="#63b8ff" stroke="#63b8ff" points="1139.39,-444.2 1131.23,-450.96 1141.83,-450.77 1139.39,-444.2"/>
</a>
</g>
</g>
<!-- Node14 -->
<g id="Node000014" class="node">
<title>Node14</title>
<g id="a_Node000014"><a xlink:href="IndexStrategy_8hpp.html" target="_top" xlink:title=" ">
<polygon fill="white" stroke="#666666" points="1148.97,-415 1016.97,-415 1016.97,-385 1148.97,-385 1148.97,-415"/>
<text text-anchor="start" x="1024.97" y="-403" font-family="Helvetica,sans-Serif" font-size="10.00">netspeak/invertedindex</text>
<text text-anchor="middle" x="1082.97" y="-392" font-family="Helvetica,sans-Serif" font-size="10.00">/IndexStrategy.hpp</text>
</a>
</g>
</g>
<!-- Node1&#45;&gt;Node14 -->
<g id="edge15_Node000001_Node000014" class="edge">
<title>Node1&#45;&gt;Node14</title>
<g id="a_edge15_Node000001_Node000014"><a xlink:title=" ">
<path fill="none" stroke="#63b8ff" d="M1082.97,-440.54C1082.97,-431.96 1082.97,-422.61 1082.97,-415.16"/>
<polygon fill="#63b8ff" stroke="#63b8ff" points="1079.47,-440.8 1082.97,-450.8 1086.47,-440.8 1079.47,-440.8"/>
</a>
</g>
</g>
<!-- Node15 -->
<g id="Node000015" class="node">
<title>Node15</title>
<g id="a_Node000015"><a xlink:href="Indexer_8hpp.html" target="_top" xlink:title=" ">
<polygon fill="white" stroke="#666666" points="1073.97,-283 941.97,-283 941.97,-253 1073.97,-253 1073.97,-283"/>
<text text-anchor="start" x="949.97" y="-271" font-family="Helvetica,sans-Serif" font-size="10.00">netspeak/invertedindex</text>
<text text-anchor="middle" x="1007.97" y="-260" font-family="Helvetica,sans-Serif" font-size="10.00">/Indexer.hpp</text>
</a>
</g>
</g>
<!-- Node1&#45;&gt;Node15 -->
<g id="edge23_Node000001_Node000015" class="edge">
<title>Node1&#45;&gt;Node15</title>
<g id="a_edge23_Node000001_Node000015"><a xlink:title=" ">
<path fill="none" stroke="#63b8ff" d="M1123.25,-445.81C1136.05,-437.91 1149.16,-427.61 1157.97,-415 1182.76,-379.55 1199.78,-353.72 1173.97,-319 1151.08,-288.2 1109.82,-275.68 1074.16,-270.86"/>
<polygon fill="#63b8ff" stroke="#63b8ff" points="1121.38,-442.85 1114.49,-450.9 1124.9,-448.9 1121.38,-442.85"/>
</a>
</g>
</g>
<!-- Node19 -->
<g id="Node000019" class="node">
<title>Node19</title>
<g id="a_Node000019"><a xlink:href="invertedindex_2Properties_8hpp.html" target="_top" xlink:title=" ">
<polygon fill="white" stroke="#666666" points="698.97,-415 566.97,-415 566.97,-385 698.97,-385 698.97,-415"/>
<text text-anchor="start" x="574.97" y="-403" font-family="Helvetica,sans-Serif" font-size="10.00">netspeak/invertedindex</text>
<text text-anchor="middle" x="632.97" y="-392" font-family="Helvetica,sans-Serif" font-size="10.00">/Properties.hpp</text>
</a>
</g>
</g>
<!-- Node1&#45;&gt;Node19 -->
<g id="edge24_Node000001_Node000019" class="edge">
<title>Node1&#45;&gt;Node19</title>
<g id="a_edge24_Node000001_Node000019"><a xlink:title=" ">
<path fill="none" stroke="#63b8ff" d="M1006.58,-454.13C920.27,-441.86 781.19,-422.08 699.28,-410.43"/>
<polygon fill="#63b8ff" stroke="#63b8ff" points="1006.18,-457.61 1016.57,-455.56 1007.17,-450.68 1006.18,-457.61"/>
</a>
</g>
</g>
<!-- Node3 -->
<g id="Node000003" class="node">
<title>Node3</title>
<g id="a_Node000003"><a xlink:href="Netspeak_8hpp.html" target="_top" xlink:title=" ">
<polygon fill="white" stroke="#666666" points="463.97,-151 331.97,-151 331.97,-132 463.97,-132 463.97,-151"/>
<text text-anchor="middle" x="397.97" y="-139" font-family="Helvetica,sans-Serif" font-size="10.00">netspeak/Netspeak.hpp</text>
</a>
</g>
</g>
<!-- Node2&#45;&gt;Node3 -->
<g id="edge2_Node000002_Node000003" class="edge">
<title>Node2&#45;&gt;Node3</title>
<g id="a_edge2_Node000002_Node000003"><a xlink:title=" ">
<path fill="none" stroke="#63b8ff" d="M397.97,-182.16C397.97,-171.74 397.97,-159.3 397.97,-151.17"/>
<polygon fill="#63b8ff" stroke="#63b8ff" points="394.47,-182.37 397.97,-192.37 401.47,-182.37 394.47,-182.37"/>
</a>
</g>
</g>
<!-- Node4 -->
<g id="Node000004" class="node">
<title>Node4</title>
<g id="a_Node000004"><a xlink:href="ProxyCommand_8cpp.html" target="_top" xlink:title=" ">
<polygon fill="white" stroke="#666666" points="795.47,-90.5 666.47,-90.5 666.47,-71.5 795.47,-71.5 795.47,-90.5"/>
<text text-anchor="middle" x="730.97" y="-78.5" font-family="Helvetica,sans-Serif" font-size="10.00">cli/ProxyCommand.cpp</text>
</a>
</g>
</g>
<!-- Node3&#45;&gt;Node4 -->
<g id="edge3_Node000003_Node000004" class="edge">
<title>Node3&#45;&gt;Node4</title>
<g id="a_edge3_Node000003_Node000004"><a xlink:title=" ">
<path fill="none" stroke="#63b8ff" d="M459.7,-130.29C512.41,-121.49 590.24,-108.29 657.97,-96 667.5,-94.27 677.71,-92.35 687.38,-90.51"/>
<polygon fill="#63b8ff" stroke="#63b8ff" points="459.11,-126.84 449.82,-131.94 460.26,-133.75 459.11,-126.84"/>
</a>
</g>
</g>
<!-- Node5 -->
<g id="Node000005" class="node">
<title>Node5</title>
<g id="a_Node000005"><a xlink:href="ServeCommand_8cpp.html" target="_top" xlink:title=" ">
<polygon fill="white" stroke="#666666" points="171.47,-24.5 42.47,-24.5 42.47,-5.5 171.47,-5.5 171.47,-24.5"/>
<text text-anchor="middle" x="106.97" y="-12.5" font-family="Helvetica,sans-Serif" font-size="10.00">cli/ServeCommand.cpp</text>
</a>
</g>
</g>
<!-- Node3&#45;&gt;Node5 -->
<g id="edge4_Node000003_Node000005" class="edge">
<title>Node3&#45;&gt;Node5</title>
<g id="a_edge4_Node000003_Node000005"><a xlink:title=" ">
<path fill="none" stroke="#63b8ff" d="M321.67,-137.19C213.82,-131.71 27.52,-119.02 6.97,-96 -20.05,-65.73 42.28,-37.96 80.3,-24.51"/>
<polygon fill="#63b8ff" stroke="#63b8ff" points="321.7,-140.69 331.86,-137.7 322.04,-133.7 321.7,-140.69"/>
</a>
</g>
</g>
<!-- Node6 -->
<g id="Node000006" class="node">
<title>Node6</title>
<g id="a_Node000006"><a xlink:href="ShellCommand_8cpp.html" target="_top" xlink:title=" ">
<polygon fill="white" stroke="#666666" points="141.47,-90.5 16.47,-90.5 16.47,-71.5 141.47,-71.5 141.47,-90.5"/>
<text text-anchor="middle" x="78.97" y="-78.5" font-family="Helvetica,sans-Serif" font-size="10.00">cli/ShellCommand.cpp</text>
</a>
</g>
</g>
<!-- Node3&#45;&gt;Node6 -->
<g id="edge5_Node000003_Node000006" class="edge">
<title>Node3&#45;&gt;Node6</title>
<g id="a_edge5_Node000003_Node000006"><a xlink:title=" ">
<path fill="none" stroke="#63b8ff" d="M338.95,-130.2C288.67,-121.36 214.52,-108.15 149.97,-96 140.84,-94.28 131.05,-92.38 121.75,-90.56"/>
<polygon fill="#63b8ff" stroke="#63b8ff" points="338.54,-133.68 348.99,-131.97 339.75,-126.79 338.54,-133.68"/>
</a>
</g>
</g>
<!-- Node7 -->
<g id="Node000007" class="node">
<title>Node7</title>
<g id="a_Node000007"><a xlink:href="Netspeak_8cpp.html" target="_top" xlink:title=" ">
<polygon fill="white" stroke="#666666" points="290.47,-90.5 159.47,-90.5 159.47,-71.5 290.47,-71.5 290.47,-90.5"/>
<text text-anchor="middle" x="224.97" y="-78.5" font-family="Helvetica,sans-Serif" font-size="10.00">netspeak/Netspeak.cpp</text>
</a>
</g>
</g>
<!-- Node3&#45;&gt;Node7 -->
<g id="edge6_Node000003_Node000007" class="edge">
<title>Node3&#45;&gt;Node7</title>
<g id="a_edge6_Node000003_Node000007"><a xlink:title=" ">
<path fill="none" stroke="#63b8ff" d="M362.99,-128.67C329.54,-117.36 279.9,-100.57 250.16,-90.52"/>
<polygon fill="#63b8ff" stroke="#63b8ff" points="362.22,-132.11 372.82,-131.99 364.47,-125.47 362.22,-132.11"/>
</a>
</g>
</g>
<!-- Node3&#45;&gt;Node8 -->
<g id="edge7_Node000003_Node000008" class="edge">
<title>Node3&#45;&gt;Node8</title>
<g id="a_edge7_Node000003_Node000008"><a xlink:title=" ">
<path fill="none" stroke="#63b8ff" d="M474.08,-134.08C556.03,-126.73 690.12,-113.41 804.97,-96 815.17,-94.45 826.12,-92.48 836.33,-90.51"/>
<polygon fill="#63b8ff" stroke="#63b8ff" points="473.75,-130.6 464.1,-134.97 474.37,-137.57 473.75,-130.6"/>
</a>
</g>
</g>
<!-- Node9 -->
<g id="Node000009" class="node">
<title>Node9</title>
<g id="a_Node000009"><a xlink:href="RequestLogger_8hpp.html" target="_top" xlink:title=" ">
<polygon fill="white" stroke="#666666" points="648.47,-96 505.47,-96 505.47,-66 648.47,-66 648.47,-96"/>
<text text-anchor="start" x="513.47" y="-84" font-family="Helvetica,sans-Serif" font-size="10.00">netspeak/service/Request</text>
<text text-anchor="middle" x="576.97" y="-73" font-family="Helvetica,sans-Serif" font-size="10.00">Logger.hpp</text>
</a>
</g>
</g>
<!-- Node3&#45;&gt;Node9 -->
<g id="edge8_Node000003_Node000009" class="edge">
<title>Node3&#45;&gt;Node9</title>
<g id="a_edge8_Node000003_Node000009"><a xlink:title=" ">
<path fill="none" stroke="#63b8ff" d="M433.68,-128.83C462.55,-119.4 503.28,-106.09 533.94,-96.06"/>
<polygon fill="#63b8ff" stroke="#63b8ff" points="432.42,-125.56 424,-131.99 434.59,-132.21 432.42,-125.56"/>
</a>
</g>
</g>
<!-- Node12 -->
<g id="Node000012" class="node">
<title>Node12</title>
<g id="a_Node000012"><a xlink:href="UniqueMap_8hpp.html" target="_top" xlink:title=" ">
<polygon fill="white" stroke="#666666" points="487.47,-90.5 308.47,-90.5 308.47,-71.5 487.47,-71.5 487.47,-90.5"/>
<text text-anchor="middle" x="397.97" y="-78.5" font-family="Helvetica,sans-Serif" font-size="10.00">netspeak/service/UniqueMap.hpp</text>
</a>
</g>
</g>
<!-- Node3&#45;&gt;Node12 -->
<g id="edge11_Node000003_Node000012" class="edge">
<title>Node3&#45;&gt;Node12</title>
<g id="a_edge11_Node000003_Node000012"><a xlink:title=" ">
<path fill="none" stroke="#63b8ff" d="M397.97,-121.66C397.97,-111.24 397.97,-98.8 397.97,-90.67"/>
<polygon fill="#63b8ff" stroke="#63b8ff" points="394.47,-121.87 397.97,-131.87 401.47,-121.87 394.47,-121.87"/>
</a>
</g>
</g>
<!-- Node10 -->
<g id="Node000010" class="node">
<title>Node10</title>
<g id="a_Node000010"><a xlink:href="cli_2logging_8cpp.html" target="_top" xlink:title=" ">
<polygon fill="white" stroke="#666666" points="606.47,-24.5 519.47,-24.5 519.47,-5.5 606.47,-5.5 606.47,-24.5"/>
<text text-anchor="middle" x="562.97" y="-12.5" font-family="Helvetica,sans-Serif" font-size="10.00">cli/logging.cpp</text>
</a>
</g>
</g>
<!-- Node9&#45;&gt;Node10 -->
<g id="edge9_Node000009_Node000010" class="edge">
<title>Node9&#45;&gt;Node10</title>
<g id="a_edge9_Node000009_Node000010"><a xlink:title=" ">
<path fill="none" stroke="#63b8ff" d="M571.71,-55.94C569.33,-45.06 566.66,-32.86 564.91,-24.84"/>
<polygon fill="#63b8ff" stroke="#63b8ff" points="568.31,-56.78 573.87,-65.8 575.15,-55.28 568.31,-56.78"/>
</a>
</g>
</g>
<!-- Node11 -->
<g id="Node000011" class="node">
<title>Node11</title>
<g id="a_Node000011"><a xlink:href="RequestLogger_8cpp.html" target="_top" xlink:title=" ">
<polygon fill="white" stroke="#666666" points="767.47,-30 624.47,-30 624.47,0 767.47,0 767.47,-30"/>
<text text-anchor="start" x="632.47" y="-18" font-family="Helvetica,sans-Serif" font-size="10.00">netspeak/service/Request</text>
<text text-anchor="middle" x="695.97" y="-7" font-family="Helvetica,sans-Serif" font-size="10.00">Logger.cpp</text>
</a>
</g>
</g>
<!-- Node9&#45;&gt;Node11 -->
<g id="edge10_Node000009_Node000011" class="edge">
<title>Node9&#45;&gt;Node11</title>
<g id="a_edge10_Node000009_Node000011"><a xlink:title=" ">
<path fill="none" stroke="#63b8ff" d="M612.11,-61.11C630.63,-51.14 652.96,-39.13 669.92,-30.01"/>
<polygon fill="#63b8ff" stroke="#63b8ff" points="610.24,-58.14 603.09,-65.95 613.55,-64.3 610.24,-58.14"/>
</a>
</g>
</g>
<!-- Node12&#45;&gt;Node5 -->
<g id="edge12_Node000012_Node000005" class="edge">
<title>Node12&#45;&gt;Node5</title>
<g id="a_edge12_Node000012_Node000005"><a xlink:title=" ">
<path fill="none" stroke="#63b8ff" d="M349.13,-69.26C291.87,-56.67 198.16,-36.06 145.69,-24.51"/>
<polygon fill="#63b8ff" stroke="#63b8ff" points="348.51,-72.71 359.03,-71.44 350.02,-65.87 348.51,-72.71"/>
</a>
</g>
</g>
<!-- Node13 -->
<g id="Node000013" class="node">
<title>Node13</title>
<g id="a_Node000013"><a xlink:href="UniqueMap_8cpp.html" target="_top" xlink:title=" ">
<polygon fill="white" stroke="#666666" points="487.47,-24.5 308.47,-24.5 308.47,-5.5 487.47,-5.5 487.47,-24.5"/>
<text text-anchor="middle" x="397.97" y="-12.5" font-family="Helvetica,sans-Serif" font-size="10.00">netspeak/service/UniqueMap.cpp</text>
</a>
</g>
</g>
<!-- Node12&#45;&gt;Node13 -->
<g id="edge13_Node000012_Node000013" class="edge">
<title>Node12&#45;&gt;Node13</title>
<g id="a_edge13_Node000012_Node000013"><a xlink:title=" ">
<path fill="none" stroke="#63b8ff" d="M397.97,-61.08C397.97,-49.13 397.97,-34.22 397.97,-24.91"/>
<polygon fill="#63b8ff" stroke="#63b8ff" points="394.47,-61.37 397.97,-71.37 401.47,-61.37 394.47,-61.37"/>
</a>
</g>
</g>
<!-- Node14&#45;&gt;Node15 -->
<g id="edge16_Node000014_Node000015" class="edge">
<title>Node14&#45;&gt;Node15</title>
<g id="a_edge16_Node000014_Node000015"><a xlink:title=" ">
<path fill="none" stroke="#63b8ff" d="M1126.98,-379.69C1139.24,-372.01 1151.08,-361.88 1157.97,-349 1164.27,-337.24 1165.77,-329.82 1157.97,-319 1138.79,-292.39 1104.83,-279.73 1074.07,-273.79"/>
<polygon fill="#63b8ff" stroke="#63b8ff" points="1124.96,-376.82 1118.05,-384.85 1128.46,-382.88 1124.96,-376.82"/>
</a>
</g>
</g>
<!-- Node17 -->
<g id="Node000017" class="node">
<title>Node17</title>
<g id="a_Node000017"><a xlink:href="SortedInput_8hpp.html" target="_top" xlink:title=" ">
<polygon fill="white" stroke="#666666" points="998.97,-349 866.97,-349 866.97,-319 998.97,-319 998.97,-349"/>
<text text-anchor="start" x="874.97" y="-337" font-family="Helvetica,sans-Serif" font-size="10.00">netspeak/invertedindex</text>
<text text-anchor="middle" x="932.97" y="-326" font-family="Helvetica,sans-Serif" font-size="10.00">/SortedInput.hpp</text>
</a>
</g>
</g>
<!-- Node14&#45;&gt;Node17 -->
<g id="edge19_Node000014_Node000017" class="edge">
<title>Node14&#45;&gt;Node17</title>
<g id="a_edge19_Node000014_Node000017"><a xlink:title=" ">
<path fill="none" stroke="#63b8ff" d="M1040.6,-380.92C1016.89,-370.8 987.78,-358.38 965.82,-349.01"/>
<polygon fill="#63b8ff" stroke="#63b8ff" points="1039.48,-384.25 1050.06,-384.95 1042.23,-377.81 1039.48,-384.25"/>
</a>
</g>
</g>
<!-- Node18 -->
<g id="Node000018" class="node">
<title>Node18</title>
<g id="a_Node000018"><a xlink:href="UnsortedInput_8hpp.html" target="_top" xlink:title=" ">
<polygon fill="white" stroke="#666666" points="1148.97,-349 1016.97,-349 1016.97,-319 1148.97,-319 1148.97,-349"/>
<text text-anchor="start" x="1024.97" y="-337" font-family="Helvetica,sans-Serif" font-size="10.00">netspeak/invertedindex</text>
<text text-anchor="middle" x="1082.97" y="-326" font-family="Helvetica,sans-Serif" font-size="10.00">/UnsortedInput.hpp</text>
</a>
</g>
</g>
<!-- Node14&#45;&gt;Node18 -->
<g id="edge21_Node000014_Node000018" class="edge">
<title>Node14&#45;&gt;Node18</title>
<g id="a_edge21_Node000014_Node000018"><a xlink:title=" ">
<path fill="none" stroke="#63b8ff" d="M1082.97,-374.54C1082.97,-365.96 1082.97,-356.61 1082.97,-349.16"/>
<polygon fill="#63b8ff" stroke="#63b8ff" points="1079.47,-374.8 1082.97,-384.8 1086.47,-374.8 1079.47,-374.8"/>
</a>
</g>
</g>
<!-- Node16 -->
<g id="Node000016" class="node">
<title>Node16</title>
<g id="a_Node000016"><a xlink:href="ManagedIndexer_8hpp.html" target="_top" xlink:title=" ">
<polygon fill="white" stroke="#666666" points="942.97,-217 810.97,-217 810.97,-187 942.97,-187 942.97,-217"/>
<text text-anchor="start" x="818.97" y="-205" font-family="Helvetica,sans-Serif" font-size="10.00">netspeak/invertedindex</text>
<text text-anchor="middle" x="876.97" y="-194" font-family="Helvetica,sans-Serif" font-size="10.00">/ManagedIndexer.hpp</text>
</a>
</g>
</g>
<!-- Node15&#45;&gt;Node16 -->
<g id="edge17_Node000015_Node000016" class="edge">
<title>Node15&#45;&gt;Node16</title>
<g id="a_edge17_Node000015_Node000016"><a xlink:title=" ">
<path fill="none" stroke="#63b8ff" d="M970.13,-248.51C949.58,-238.47 924.58,-226.26 905.66,-217.01"/>
<polygon fill="#63b8ff" stroke="#63b8ff" points="968.7,-251.71 979.23,-252.95 971.78,-245.42 968.7,-251.71"/>
</a>
</g>
</g>
<!-- Node16&#45;&gt;Node8 -->
<g id="edge18_Node000016_Node000008" class="edge">
<title>Node16&#45;&gt;Node8</title>
<g id="a_edge18_Node000016_Node000008"><a xlink:title=" ">
<path fill="none" stroke="#63b8ff" d="M876.97,-176.8C876.97,-150.12 876.97,-108.62 876.97,-90.71"/>
<polygon fill="#63b8ff" stroke="#63b8ff" points="873.47,-176.88 876.97,-186.88 880.47,-176.88 873.47,-176.88"/>
</a>
</g>
</g>
<!-- Node17&#45;&gt;Node15 -->
<g id="edge20_Node000017_Node000015" class="edge">
<title>Node17&#45;&gt;Node15</title>
<g id="a_edge20_Node000017_Node000015"><a xlink:title=" ">
<path fill="none" stroke="#63b8ff" d="M957.35,-312.2C968.48,-302.7 981.38,-291.69 991.38,-283.16"/>
<polygon fill="#63b8ff" stroke="#63b8ff" points="954.95,-309.64 949.62,-318.8 959.5,-314.97 954.95,-309.64"/>
</a>
</g>
</g>
<!-- Node18&#45;&gt;Node15 -->
<g id="edge22_Node000018_Node000015" class="edge">
<title>Node18&#45;&gt;Node15</title>
<g id="a_edge22_Node000018_Node000015"><a xlink:title=" ">
<path fill="none" stroke="#63b8ff" d="M1058.6,-312.2C1047.47,-302.7 1034.56,-291.69 1024.57,-283.16"/>
<polygon fill="#63b8ff" stroke="#63b8ff" points="1056.45,-314.97 1066.33,-318.8 1060.99,-309.64 1056.45,-314.97"/>
</a>
</g>
</g>
<!-- Node19&#45;&gt;Node16 -->
<g id="edge25_Node000019_Node000016" class="edge">
<title>Node19&#45;&gt;Node16</title>
<g id="a_edge25_Node000019_Node000016"><a xlink:title=" ">
<path fill="none" stroke="#63b8ff" d="M588.96,-379.69C576.7,-372.01 564.87,-361.88 557.97,-349 551.68,-337.24 550.32,-329.92 557.97,-319 615.02,-237.55 735.47,-213.08 810.95,-205.85"/>
<polygon fill="#63b8ff" stroke="#63b8ff" points="587.49,-382.88 597.9,-384.85 590.99,-376.82 587.49,-382.88"/>
</a>
</g>
</g>
<!-- Node20 -->
<g id="Node000020" class="node">
<title>Node20</title>
<g id="a_Node000020"><a xlink:href="invertedindex_2Properties_8cpp.html" target="_top" xlink:title=" ">
<polygon fill="white" stroke="#666666" points="848.97,-349 716.97,-349 716.97,-319 848.97,-319 848.97,-349"/>
<text text-anchor="start" x="724.97" y="-337" font-family="Helvetica,sans-Serif" font-size="10.00">netspeak/invertedindex</text>
<text text-anchor="middle" x="782.97" y="-326" font-family="Helvetica,sans-Serif" font-size="10.00">/Properties.cpp</text>
</a>
</g>
</g>
<!-- Node19&#45;&gt;Node20 -->
<g id="edge26_Node000019_Node000020" class="edge">
<title>Node19&#45;&gt;Node20</title>
<g id="a_edge26_Node000019_Node000020"><a xlink:title=" ">
<path fill="none" stroke="#63b8ff" d="M675.35,-380.92C699.06,-370.8 728.17,-358.38 750.13,-349.01"/>
<polygon fill="#63b8ff" stroke="#63b8ff" points="673.72,-377.81 665.89,-384.95 676.46,-384.25 673.72,-377.81"/>
</a>
</g>
</g>
<!-- Node21 -->
<g id="Node000021" class="node">
<title>Node21</title>
<g id="a_Node000021"><a xlink:href="RawIndexer_8hpp.html" target="_top" xlink:title=" ">
<polygon fill="white" stroke="#666666" points="698.97,-349 566.97,-349 566.97,-319 698.97,-319 698.97,-349"/>
<text text-anchor="start" x="574.97" y="-337" font-family="Helvetica,sans-Serif" font-size="10.00">netspeak/invertedindex</text>
<text text-anchor="middle" x="632.97" y="-326" font-family="Helvetica,sans-Serif" font-size="10.00">/RawIndexer.hpp</text>
</a>
</g>
</g>
<!-- Node19&#45;&gt;Node21 -->
<g id="edge27_Node000019_Node000021" class="edge">
<title>Node19&#45;&gt;Node21</title>
<g id="a_edge27_Node000019_Node000021"><a xlink:title=" ">
<path fill="none" stroke="#63b8ff" d="M632.97,-374.54C632.97,-365.96 632.97,-356.61 632.97,-349.16"/>
<polygon fill="#63b8ff" stroke="#63b8ff" points="629.47,-374.8 632.97,-384.8 636.47,-374.8 629.47,-374.8"/>
</a>
</g>
</g>
<!-- Node22 -->
<g id="Node000022" class="node">
<title>Node22</title>
<g id="a_Node000022"><a xlink:href="RawSearcher_8hpp.html" target="_top" xlink:title=" ">
<polygon fill="white" stroke="#666666" points="510.97,-349 378.97,-349 378.97,-319 510.97,-319 510.97,-349"/>
<text text-anchor="start" x="386.97" y="-337" font-family="Helvetica,sans-Serif" font-size="10.00">netspeak/invertedindex</text>
<text text-anchor="middle" x="444.97" y="-326" font-family="Helvetica,sans-Serif" font-size="10.00">/RawSearcher.hpp</text>
</a>
</g>
</g>
<!-- Node19&#45;&gt;Node22 -->
<g id="edge29_Node000019_Node000022" class="edge">
<title>Node19&#45;&gt;Node22</title>
<g id="a_edge29_Node000019_Node000022"><a xlink:title=" ">
<path fill="none" stroke="#63b8ff" d="M582.22,-381.72C552.1,-371.47 514.4,-358.63 486.14,-349.01"/>
<polygon fill="#63b8ff" stroke="#63b8ff" points="581.12,-385.05 591.72,-384.95 583.38,-378.42 581.12,-385.05"/>
</a>
</g>
</g>
<!-- Node21&#45;&gt;Node15 -->
<g id="edge28_Node000021_Node000015" class="edge">
<title>Node21&#45;&gt;Node15</title>
<g id="a_edge28_Node000021_Node000015"><a xlink:title=" ">
<path fill="none" stroke="#63b8ff" d="M709.15,-318.81C795.14,-303.68 883.2,-289.17 941.78,-279.65"/>
<polygon fill="#63b8ff" stroke="#63b8ff" points="708.45,-315.38 699.21,-320.56 709.67,-322.27 708.45,-315.38"/>
</a>
</g>
</g>
<!-- Node23 -->
<g id="Node000023" class="node">
<title>Node23</title>
<g id="a_Node000023"><a xlink:href="Searcher_8hpp.html" target="_top" xlink:title=" ">
<polygon fill="white" stroke="#666666" points="510.97,-283 378.97,-283 378.97,-253 510.97,-253 510.97,-283"/>
<text text-anchor="start" x="386.97" y="-271" font-family="Helvetica,sans-Serif" font-size="10.00">netspeak/invertedindex</text>
<text text-anchor="middle" x="444.97" y="-260" font-family="Helvetica,sans-Serif" font-size="10.00">/Searcher.hpp</text>
</a>
</g>
</g>
<!-- Node22&#45;&gt;Node23 -->
<g id="edge30_Node000022_Node000023" class="edge">
<title>Node22&#45;&gt;Node23</title>
<g id="a_edge30_Node000022_Node000023"><a xlink:title=" ">
<path fill="none" stroke="#63b8ff" d="M444.97,-308.54C444.97,-299.96 444.97,-290.61 444.97,-283.16"/>
<polygon fill="#63b8ff" stroke="#63b8ff" points="441.47,-308.8 444.97,-318.8 448.47,-308.8 441.47,-308.8"/>
</a>
</g>
</g>
<!-- Node23&#45;&gt;Node2 -->
<g id="edge31_Node000023_Node000002" class="edge">
<title>Node23&#45;&gt;Node2</title>
<g id="a_edge31_Node000023_Node000002"><a xlink:title=" ">
<path fill="none" stroke="#63b8ff" d="M428.53,-244.61C420.24,-233.32 410.66,-220.28 404.47,-211.84"/>
<polygon fill="#63b8ff" stroke="#63b8ff" points="425.8,-246.81 434.54,-252.8 431.44,-242.66 425.8,-246.81"/>
</a>
</g>
</g>
<!-- Node23&#45;&gt;Node8 -->
<g id="edge32_Node000023_Node000008" class="edge">
<title>Node23&#45;&gt;Node8</title>
<g id="a_edge32_Node000023_Node000008"><a xlink:title=" ">
<path fill="none" stroke="#63b8ff" d="M487,-249C578.11,-209.99 790.9,-118.86 857.01,-90.55"/>
<polygon fill="#63b8ff" stroke="#63b8ff" points="485.61,-245.79 477.8,-252.94 488.37,-252.22 485.61,-245.79"/>
</a>
</g>
</g>
</g>
</svg>
