<?xml version="1.0" encoding="UTF-8" standalone="no"?>
<!DOCTYPE svg PUBLIC "-//W3C//DTD SVG 1.1//EN"
 "http://www.w3.org/Graphics/SVG/1.1/DTD/svg11.dtd">
<!-- Generated by graphviz version 2.43.0 (0)
 -->
<!-- Title: netspeak/service/LoadBalanceProxy.cpp Pages: 1 -->
<svg width="1043pt" height="214pt"
 viewBox="0.00 0.00 1043.00 214.00" xmlns="http://www.w3.org/2000/svg" xmlns:xlink="http://www.w3.org/1999/xlink">
<g id="graph0" class="graph" transform="scale(1 1) rotate(0) translate(4 210)">
<title>netspeak/service/LoadBalanceProxy.cpp</title>
<!-- Node1 -->
<g id="Node000001" class="node">
<title>Node1</title>
<g id="a_Node000001"><a xlink:title=" ">
<polygon fill="#999999" stroke="#666666" points="630,-206 465,-206 465,-176 630,-176 630,-206"/>
<text text-anchor="start" x="473" y="-194" font-family="Helvetica,sans-Serif" font-size="10.00">netspeak/service/LoadBalance</text>
<text text-anchor="middle" x="547.5" y="-183" font-family="Helvetica,sans-Serif" font-size="10.00">Proxy.cpp</text>
</a>
</g>
</g>
<!-- Node2 -->
<g id="Node000002" class="node">
<title>Node2</title>
<g id="a_Node000002"><a xlink:href="error_8hpp.html" target="_top" xlink:title=" ">
<polygon fill="white" stroke="#666666" points="194.5,-134.5 86.5,-134.5 86.5,-115.5 194.5,-115.5 194.5,-134.5"/>
<text text-anchor="middle" x="140.5" y="-122.5" font-family="Helvetica,sans-Serif" font-size="10.00">netspeak/error.hpp</text>
</a>
</g>
</g>
<!-- Node1&#45;&gt;Node2 -->
<g id="edge1_Node000001_Node000002" class="edge">
<title>Node1&#45;&gt;Node2</title>
<g id="a_edge1_Node000001_Node000002"><a xlink:title=" ">
<path fill="none" stroke="#63b8ff" d="M464.65,-176.97C387.78,-164.88 274.96,-147.14 204.71,-136.1"/>
<polygon fill="#63b8ff" stroke="#63b8ff" points="205.09,-132.61 194.67,-134.52 204,-139.53 205.09,-132.61"/>
</a>
</g>
</g>
<!-- Node9 -->
<g id="Node000009" class="node">
<title>Node9</title>
<g id="a_Node000009"><a xlink:href="LoadBalanceProxy_8hpp.html" target="_top" xlink:title=" ">
<polygon fill="white" stroke="#666666" points="630,-140 465,-140 465,-110 630,-110 630,-140"/>
<text text-anchor="start" x="473" y="-128" font-family="Helvetica,sans-Serif" font-size="10.00">netspeak/service/LoadBalance</text>
<text text-anchor="middle" x="547.5" y="-117" font-family="Helvetica,sans-Serif" font-size="10.00">Proxy.hpp</text>
</a>
</g>
</g>
<!-- Node1&#45;&gt;Node9 -->
<g id="edge9_Node000001_Node000009" class="edge">
<title>Node1&#45;&gt;Node9</title>
<g id="a_edge9_Node000001_Node000009"><a xlink:title=" ">
<path fill="none" stroke="#63b8ff" d="M547.5,-175.8C547.5,-168.34 547.5,-158.99 547.5,-150.41"/>
<polygon fill="#63b8ff" stroke="#63b8ff" points="551,-150.16 547.5,-140.16 544,-150.16 551,-150.16"/>
</a>
</g>
</g>
<!-- Node14 -->
<g id="Node000014" class="node">
<title>Node14</title>
<g id="a_Node000014"><a xlink:href="service_8hpp.html" target="_top" xlink:title=" ">
<polygon fill="white" stroke="#666666" points="902.5,-134.5 762.5,-134.5 762.5,-115.5 902.5,-115.5 902.5,-134.5"/>
<text text-anchor="middle" x="832.5" y="-122.5" font-family="Helvetica,sans-Serif" font-size="10.00">netspeak/util/service.hpp</text>
</a>
</g>
</g>
<!-- Node1&#45;&gt;Node14 -->
<g id="edge14_Node000001_Node000014" class="edge">
<title>Node1&#45;&gt;Node14</title>
<g id="a_edge14_Node000001_Node000014"><a xlink:title=" ">
<path fill="none" stroke="#63b8ff" d="M610.04,-175.95C662.67,-164.14 736.8,-147.49 784.75,-136.72"/>
<polygon fill="#63b8ff" stroke="#63b8ff" points="785.58,-140.12 794.57,-134.52 784.05,-133.29 785.58,-140.12"/>
</a>
</g>
</g>
<!-- Node3 -->
<g id="Node000003" class="node">
<title>Node3</title>
<g id="a_Node000003"><a xlink:title=" ">
<polygon fill="#e0e0e0" stroke="#999999" points="65,-74 0,-74 0,-55 65,-55 65,-74"/>
<text text-anchor="middle" x="32.5" y="-62" font-family="Helvetica,sans-Serif" font-size="10.00">inttypes.h</text>
</a>
</g>
</g>
<!-- Node2&#45;&gt;Node3 -->
<g id="edge2_Node000002_Node000003" class="edge">
<title>Node2&#45;&gt;Node3</title>
<g id="a_edge2_Node000002_Node000003"><a xlink:title=" ">
<path fill="none" stroke="#63b8ff" d="M124.56,-115.37C106.86,-105.78 78.04,-90.17 57.36,-78.97"/>
<polygon fill="#63b8ff" stroke="#63b8ff" points="58.96,-75.85 48.5,-74.17 55.63,-82.01 58.96,-75.85"/>
</a>
</g>
</g>
<!-- Node4 -->
<g id="Node000004" class="node">
<title>Node4</title>
<g id="a_Node000004"><a xlink:title=" ">
<polygon fill="#e0e0e0" stroke="#999999" points="115.5,-19 71.5,-19 71.5,0 115.5,0 115.5,-19"/>
<text text-anchor="middle" x="93.5" y="-7" font-family="Helvetica,sans-Serif" font-size="10.00">string</text>
</a>
</g>
</g>
<!-- Node2&#45;&gt;Node4 -->
<g id="edge3_Node000002_Node000004" class="edge">
<title>Node2&#45;&gt;Node4</title>
<g id="a_edge3_Node000002_Node000004"><a xlink:title=" ">
<path fill="none" stroke="#63b8ff" d="M134.94,-115.44C128.8,-105.72 118.94,-89.21 112.5,-74 106.32,-59.41 101.29,-42.15 97.97,-29.31"/>
<polygon fill="#63b8ff" stroke="#63b8ff" points="101.3,-28.2 95.49,-19.34 94.5,-29.89 101.3,-28.2"/>
</a>
</g>
</g>
<!-- Node5 -->
<g id="Node000005" class="node">
<title>Node5</title>
<g id="a_Node000005"><a xlink:href="traceable__error_8hpp.html" target="_top" xlink:title=" ">
<polygon fill="white" stroke="#666666" points="251.5,-74 121.5,-74 121.5,-55 251.5,-55 251.5,-74"/>
<text text-anchor="middle" x="186.5" y="-62" font-family="Helvetica,sans-Serif" font-size="10.00">util/traceable_error.hpp</text>
</a>
</g>
</g>
<!-- Node2&#45;&gt;Node5 -->
<g id="edge4_Node000002_Node000005" class="edge">
<title>Node2&#45;&gt;Node5</title>
<g id="a_edge4_Node000002_Node000005"><a xlink:title=" ">
<path fill="none" stroke="#63b8ff" d="M147.29,-115.37C154.15,-106.64 164.93,-92.93 173.45,-82.09"/>
<polygon fill="#63b8ff" stroke="#63b8ff" points="176.25,-84.19 179.68,-74.17 170.75,-79.86 176.25,-84.19"/>
</a>
</g>
</g>
<!-- Node5&#45;&gt;Node4 -->
<g id="edge7_Node000005_Node000004" class="edge">
<title>Node5&#45;&gt;Node4</title>
<g id="a_edge7_Node000005_Node000004"><a xlink:title=" ">
<path fill="none" stroke="#63b8ff" d="M171.56,-54.98C157,-46.69 134.63,-33.94 117.57,-24.22"/>
<polygon fill="#63b8ff" stroke="#63b8ff" points="119.14,-21.08 108.71,-19.17 115.67,-27.16 119.14,-21.08"/>
</a>
</g>
</g>
<!-- Node6 -->
<g id="Node000006" class="node">
<title>Node6</title>
<g id="a_Node000006"><a xlink:title=" ">
<polygon fill="#e0e0e0" stroke="#999999" points="189.5,-19 133.5,-19 133.5,0 189.5,0 189.5,-19"/>
<text text-anchor="middle" x="161.5" y="-7" font-family="Helvetica,sans-Serif" font-size="10.00">sstream</text>
</a>
</g>
</g>
<!-- Node5&#45;&gt;Node6 -->
<g id="edge5_Node000005_Node000006" class="edge">
<title>Node5&#45;&gt;Node6</title>
<g id="a_edge5_Node000005_Node000006"><a xlink:title=" ">
<path fill="none" stroke="#63b8ff" d="M182.37,-54.75C178.99,-47.57 174.08,-37.18 169.88,-28.27"/>
<polygon fill="#63b8ff" stroke="#63b8ff" points="172.98,-26.64 165.55,-19.09 166.65,-29.63 172.98,-26.64"/>
</a>
</g>
</g>
<!-- Node7 -->
<g id="Node000007" class="node">
<title>Node7</title>
<g id="a_Node000007"><a xlink:title=" ">
<polygon fill="#e0e0e0" stroke="#999999" points="273,-19 208,-19 208,0 273,0 273,-19"/>
<text text-anchor="middle" x="240.5" y="-7" font-family="Helvetica,sans-Serif" font-size="10.00">stdexcept</text>
</a>
</g>
</g>
<!-- Node5&#45;&gt;Node7 -->
<g id="edge6_Node000005_Node000007" class="edge">
<title>Node5&#45;&gt;Node7</title>
<g id="a_edge6_Node000005_Node000007"><a xlink:title=" ">
<path fill="none" stroke="#63b8ff" d="M195.42,-54.75C203.28,-47.03 214.93,-35.6 224.42,-26.28"/>
<polygon fill="#63b8ff" stroke="#63b8ff" points="227.06,-28.59 231.75,-19.09 222.16,-23.6 227.06,-28.59"/>
</a>
</g>
</g>
<!-- Node8 -->
<g id="Node000008" class="node">
<title>Node8</title>
<g id="a_Node000008"><a xlink:title=" ">
<polygon fill="#e0e0e0" stroke="#999999" points="410,-19 291,-19 291,0 410,0 410,-19"/>
<text text-anchor="middle" x="350.5" y="-7" font-family="Helvetica,sans-Serif" font-size="10.00">boost/stacktrace.hpp</text>
</a>
</g>
</g>
<!-- Node5&#45;&gt;Node8 -->
<g id="edge8_Node000005_Node000008" class="edge">
<title>Node5&#45;&gt;Node8</title>
<g id="a_edge8_Node000005_Node000008"><a xlink:title=" ">
<path fill="none" stroke="#63b8ff" d="M212.85,-54.98C240.26,-46.13 283.39,-32.19 314.06,-22.28"/>
<polygon fill="#63b8ff" stroke="#63b8ff" points="315.5,-25.49 323.94,-19.08 313.35,-18.83 315.5,-25.49"/>
</a>
</g>
</g>
<!-- Node10 -->
<g id="Node000010" class="node">
<title>Node10</title>
<g id="a_Node000010"><a xlink:title=" ">
<polygon fill="#e0e0e0" stroke="#999999" points="465,-74 270,-74 270,-55 465,-55 465,-74"/>
<text text-anchor="middle" x="367.5" y="-62" font-family="Helvetica,sans-Serif" font-size="10.00">netspeak/NetspeakService.grpc.pb.h</text>
</a>
</g>
</g>
<!-- Node9&#45;&gt;Node10 -->
<g id="edge10_Node000009_Node000010" class="edge">
<title>Node9&#45;&gt;Node10</title>
<g id="a_edge10_Node000009_Node000010"><a xlink:title=" ">
<path fill="none" stroke="#63b8ff" d="M504.39,-109.99C473.59,-99.98 432.63,-86.67 403.57,-77.22"/>
<polygon fill="#63b8ff" stroke="#63b8ff" points="404.41,-73.82 393.82,-74.05 402.25,-80.47 404.41,-73.82"/>
</a>
</g>
</g>
<!-- Node11 -->
<g id="Node000011" class="node">
<title>Node11</title>
<g id="a_Node000011"><a xlink:title=" ">
<polygon fill="#e0e0e0" stroke="#999999" points="841,-74 670,-74 670,-55 841,-55 841,-74"/>
<text text-anchor="middle" x="755.5" y="-62" font-family="Helvetica,sans-Serif" font-size="10.00">netspeak/NetspeakService.pb.h</text>
</a>
</g>
</g>
<!-- Node9&#45;&gt;Node11 -->
<g id="edge11_Node000009_Node000011" class="edge">
<title>Node9&#45;&gt;Node11</title>
<g id="a_edge11_Node000009_Node000011"><a xlink:title=" ">
<path fill="none" stroke="#63b8ff" d="M597.32,-109.99C633.37,-99.85 681.48,-86.32 715.13,-76.85"/>
<polygon fill="#63b8ff" stroke="#63b8ff" points="716.41,-80.13 725.09,-74.05 714.51,-73.39 716.41,-80.13"/>
</a>
</g>
</g>
<!-- Node12 -->
<g id="Node000012" class="node">
<title>Node12</title>
<g id="a_Node000012"><a xlink:title=" ">
<polygon fill="#e0e0e0" stroke="#999999" points="540.5,-74 482.5,-74 482.5,-55 540.5,-55 540.5,-74"/>
<text text-anchor="middle" x="511.5" y="-62" font-family="Helvetica,sans-Serif" font-size="10.00">memory</text>
</a>
</g>
</g>
<!-- Node9&#45;&gt;Node12 -->
<g id="edge12_Node000009_Node000012" class="edge">
<title>Node9&#45;&gt;Node12</title>
<g id="a_edge12_Node000009_Node000012"><a xlink:title=" ">
<path fill="none" stroke="#63b8ff" d="M538.79,-109.84C533.83,-101.78 527.57,-91.62 522.3,-83.06"/>
<polygon fill="#63b8ff" stroke="#63b8ff" points="525.12,-80.95 516.89,-74.27 519.15,-84.62 525.12,-80.95"/>
</a>
</g>
</g>
<!-- Node13 -->
<g id="Node000013" class="node">
<title>Node13</title>
<g id="a_Node000013"><a xlink:title=" ">
<polygon fill="#e0e0e0" stroke="#999999" points="652,-74 559,-74 559,-55 652,-55 652,-74"/>
<text text-anchor="middle" x="605.5" y="-62" font-family="Helvetica,sans-Serif" font-size="10.00">unordered_map</text>
</a>
</g>
</g>
<!-- Node9&#45;&gt;Node13 -->
<g id="edge13_Node000009_Node000013" class="edge">
<title>Node9&#45;&gt;Node13</title>
<g id="a_edge13_Node000009_Node000013"><a xlink:title=" ">
<path fill="none" stroke="#63b8ff" d="M561.54,-109.84C570.05,-101.26 580.91,-90.3 589.72,-81.42"/>
<polygon fill="#63b8ff" stroke="#63b8ff" points="592.25,-83.83 596.81,-74.27 587.28,-78.9 592.25,-83.83"/>
</a>
</g>
</g>
<!-- Node14&#45;&gt;Node11 -->
<g id="edge16_Node000014_Node000011" class="edge">
<title>Node14&#45;&gt;Node11</title>
<g id="a_edge16_Node000014_Node000011"><a xlink:title=" ">
<path fill="none" stroke="#63b8ff" d="M821.14,-115.37C809.08,-106.21 789.8,-91.56 775.25,-80.51"/>
<polygon fill="#63b8ff" stroke="#63b8ff" points="776.99,-77.43 766.91,-74.17 772.75,-83 776.99,-77.43"/>
</a>
</g>
</g>
<!-- Node15 -->
<g id="Node000015" class="node">
<title>Node15</title>
<g id="a_Node000015"><a xlink:title=" ">
<polygon fill="#e0e0e0" stroke="#999999" points="959.5,-74 859.5,-74 859.5,-55 959.5,-55 959.5,-74"/>
<text text-anchor="middle" x="909.5" y="-62" font-family="Helvetica,sans-Serif" font-size="10.00">grpcpp/channel.h</text>
</a>
</g>
</g>
<!-- Node14&#45;&gt;Node15 -->
<g id="edge15_Node000014_Node000015" class="edge">
<title>Node14&#45;&gt;Node15</title>
<g id="a_edge15_Node000014_Node000015"><a xlink:title=" ">
<path fill="none" stroke="#63b8ff" d="M843.86,-115.37C855.92,-106.21 875.2,-91.56 889.75,-80.51"/>
<polygon fill="#63b8ff" stroke="#63b8ff" points="892.25,-83 898.09,-74.17 888.01,-77.43 892.25,-83"/>
</a>
</g>
</g>
<!-- Node16 -->
<g id="Node000016" class="node">
<title>Node16</title>
<g id="a_Node000016"><a xlink:title=" ">
<polygon fill="#e0e0e0" stroke="#999999" points="1035,-74 978,-74 978,-55 1035,-55 1035,-74"/>
<text text-anchor="middle" x="1006.5" y="-62" font-family="Helvetica,sans-Serif" font-size="10.00">ostream</text>
</a>
</g>
</g>
<!-- Node14&#45;&gt;Node16 -->
<g id="edge17_Node000014_Node000016" class="edge">
<title>Node14&#45;&gt;Node16</title>
<g id="a_edge17_Node000014_Node000016"><a xlink:title=" ">
<path fill="none" stroke="#63b8ff" d="M857.8,-115.49C887.7,-105.44 937.62,-88.66 971.28,-77.34"/>
<polygon fill="#63b8ff" stroke="#63b8ff" points="972.81,-80.52 981.17,-74.02 970.57,-73.89 972.81,-80.52"/>
</a>
</g>
</g>
</g>
</svg>
