<?xml version="1.0" encoding="UTF-8" standalone="no"?>
<!DOCTYPE svg PUBLIC "-//W3C//DTD SVG 1.1//EN"
 "http://www.w3.org/Graphics/SVG/1.1/DTD/svg11.dtd">
<!-- Generated by graphviz version 2.43.0 (0)
 -->
<!-- Title: netspeak/service/LoadBalanceProxy.hpp Pages: 1 -->
<svg width="320pt" height="104pt"
 viewBox="0.00 0.00 320.00 104.00" xmlns="http://www.w3.org/2000/svg" xmlns:xlink="http://www.w3.org/1999/xlink">
<g id="graph0" class="graph" transform="scale(1 1) rotate(0) translate(4 100)">
<title>netspeak/service/LoadBalanceProxy.hpp</title>
<!-- Node1 -->
<g id="Node000001" class="node">
<title>Node1</title>
<g id="a_Node000001"><a xlink:title=" ">
<polygon fill="#999999" stroke="#666666" points="229,-96 64,-96 64,-66 229,-66 229,-96"/>
<text text-anchor="start" x="72" y="-84" font-family="Helvetica,sans-Serif" font-size="10.00">netspeak/service/LoadBalance</text>
<text text-anchor="middle" x="146.5" y="-73" font-family="Helvetica,sans-Serif" font-size="10.00">Proxy.hpp</text>
</a>
</g>
</g>
<!-- Node2 -->
<g id="Node000002" class="node">
<title>Node2</title>
<g id="a_Node000002"><a xlink:href="ProxyCommand_8cpp.html" target="_top" xlink:title=" ">
<polygon fill="white" stroke="#666666" points="129,-24.5 0,-24.5 0,-5.5 129,-5.5 129,-24.5"/>
<text text-anchor="middle" x="64.5" y="-12.5" font-family="Helvetica,sans-Serif" font-size="10.00">cli/ProxyCommand.cpp</text>
</a>
</g>
</g>
<!-- Node1&#45;&gt;Node2 -->
<g id="edge1_Node000001_Node000002" class="edge">
<title>Node1&#45;&gt;Node2</title>
<g id="a_edge1_Node000001_Node000002"><a xlink:title=" ">
<path fill="none" stroke="#63b8ff" d="M120.34,-59.58C105.34,-47.87 87.27,-33.77 75.83,-24.84"/>
<polygon fill="#63b8ff" stroke="#63b8ff" points="118.26,-62.4 128.3,-65.8 122.57,-56.88 118.26,-62.4"/>
</a>
</g>
</g>
<!-- Node3 -->
<g id="Node000003" class="node">
<title>Node3</title>
<g id="a_Node000003"><a xlink:href="LoadBalanceProxy_8cpp.html" target="_top" xlink:title=" ">
<polygon fill="white" stroke="#666666" points="312,-30 147,-30 147,0 312,0 312,-30"/>
<text text-anchor="start" x="155" y="-18" font-family="Helvetica,sans-Serif" font-size="10.00">netspeak/service/LoadBalance</text>
<text text-anchor="middle" x="229.5" y="-7" font-family="Helvetica,sans-Serif" font-size="10.00">Proxy.cpp</text>
</a>
</g>
</g>
<!-- Node1&#45;&gt;Node3 -->
<g id="edge2_Node000001_Node000003" class="edge">
<title>Node1&#45;&gt;Node3</title>
<g id="a_edge2_Node000001_Node000003"><a xlink:title=" ">
<path fill="none" stroke="#63b8ff" d="M173.11,-59.48C185.52,-49.91 199.97,-38.77 211.13,-30.16"/>
<polygon fill="#63b8ff" stroke="#63b8ff" points="170.7,-56.92 164.92,-65.8 174.98,-62.46 170.7,-56.92"/>
</a>
</g>
</g>
</g>
</svg>
