<?xml version="1.0" encoding="UTF-8" standalone="no"?>
<!DOCTYPE svg PUBLIC "-//W3C//DTD SVG 1.1//EN"
 "http://www.w3.org/Graphics/SVG/1.1/DTD/svg11.dtd">
<!-- Generated by graphviz version 2.43.0 (0)
 -->
<!-- Title: netspeak/util/memory.hpp Pages: 1 -->
<svg width="1704pt" height="544pt"
 viewBox="0.00 0.00 1703.50 544.00" xmlns="http://www.w3.org/2000/svg" xmlns:xlink="http://www.w3.org/1999/xlink">
<g id="graph0" class="graph" transform="scale(1 1) rotate(0) translate(4 540)">
<title>netspeak/util/memory.hpp</title>
<!-- Node1 -->
<g id="Node000001" class="node">
<title>Node1</title>
<g id="a_Node000001"><a xlink:title=" ">
<polygon fill="#999999" stroke="#666666" points="907.5,-536 763.5,-536 763.5,-517 907.5,-517 907.5,-536"/>
<text text-anchor="middle" x="835.5" y="-524" font-family="Helvetica,sans-Serif" font-size="10.00">netspeak/util/memory.hpp</text>
</a>
</g>
</g>
<!-- Node2 -->
<g id="Node000002" class="node">
<title>Node2</title>
<g id="a_Node000002"><a xlink:href="BigHashMap_8hpp.html" target="_top" xlink:title=" ">
<polygon fill="white" stroke="#666666" points="715,-415 590,-415 590,-385 715,-385 715,-415"/>
<text text-anchor="start" x="598" y="-403" font-family="Helvetica,sans-Serif" font-size="10.00">netspeak/bighashmap</text>
<text text-anchor="middle" x="652.5" y="-392" font-family="Helvetica,sans-Serif" font-size="10.00">/BigHashMap.hpp</text>
</a>
</g>
</g>
<!-- Node1&#45;&gt;Node2 -->
<g id="edge1_Node000001_Node000002" class="edge">
<title>Node1&#45;&gt;Node2</title>
<g id="a_edge1_Node000001_Node000002"><a xlink:title=" ">
<path fill="none" stroke="#63b8ff" d="M814.34,-511.11C779.01,-487.07 708.42,-439.04 673.31,-415.16"/>
<polygon fill="#63b8ff" stroke="#63b8ff" points="812.68,-514.21 822.92,-516.94 816.62,-508.42 812.68,-514.21"/>
</a>
</g>
</g>
<!-- Node18 -->
<g id="Node000018" class="node">
<title>Node18</title>
<g id="a_Node000018"><a xlink:href="invertedindex_2Configuration_8hpp.html" target="_top" xlink:title=" ">
<polygon fill="white" stroke="#666666" points="967.5,-481 835.5,-481 835.5,-451 967.5,-451 967.5,-481"/>
<text text-anchor="start" x="843.5" y="-469" font-family="Helvetica,sans-Serif" font-size="10.00">netspeak/invertedindex</text>
<text text-anchor="middle" x="901.5" y="-458" font-family="Helvetica,sans-Serif" font-size="10.00">/Configuration.hpp</text>
</a>
</g>
</g>
<!-- Node1&#45;&gt;Node18 -->
<g id="edge22_Node000001_Node000018" class="edge">
<title>Node1&#45;&gt;Node18</title>
<g id="a_edge22_Node000001_Node000018"><a xlink:title=" ">
<path fill="none" stroke="#63b8ff" d="M852.72,-510.23C862.88,-501.23 875.65,-489.91 885.58,-481.11"/>
<polygon fill="#63b8ff" stroke="#63b8ff" points="850.4,-507.62 845.24,-516.87 855.04,-512.85 850.4,-507.62"/>
</a>
</g>
</g>
<!-- Node3 -->
<g id="Node000003" class="node">
<title>Node3</title>
<g id="a_Node000003"><a xlink:href="PhraseDictionary_8hpp.html" target="_top" xlink:title=" ">
<polygon fill="white" stroke="#666666" points="639,-277.5 472,-277.5 472,-258.5 639,-258.5 639,-277.5"/>
<text text-anchor="middle" x="555.5" y="-265.5" font-family="Helvetica,sans-Serif" font-size="10.00">netspeak/PhraseDictionary.hpp</text>
</a>
</g>
</g>
<!-- Node2&#45;&gt;Node3 -->
<g id="edge2_Node000002_Node000003" class="edge">
<title>Node2&#45;&gt;Node3</title>
<g id="a_edge2_Node000002_Node000003"><a xlink:title=" ">
<path fill="none" stroke="#63b8ff" d="M622.23,-378.67C611.53,-370.39 600.04,-360.15 591.5,-349 573.91,-326.02 562.6,-293.09 557.94,-277.63"/>
<polygon fill="#63b8ff" stroke="#63b8ff" points="620.46,-381.71 630.58,-384.86 624.63,-376.09 620.46,-381.71"/>
</a>
</g>
</g>
<!-- Node9 -->
<g id="Node000009" class="node">
<title>Node9</title>
<g id="a_Node000009"><a xlink:href="indexing_8cpp.html" target="_top" xlink:title=" ">
<polygon fill="white" stroke="#666666" points="963,-90.5 836,-90.5 836,-71.5 963,-71.5 963,-90.5"/>
<text text-anchor="middle" x="899.5" y="-78.5" font-family="Helvetica,sans-Serif" font-size="10.00">netspeak/indexing.cpp</text>
</a>
</g>
</g>
<!-- Node2&#45;&gt;Node9 -->
<g id="edge17_Node000002_Node000009" class="edge">
<title>Node2&#45;&gt;Node9</title>
<g id="a_edge17_Node000002_Node000009"><a xlink:title=" ">
<path fill="none" stroke="#63b8ff" d="M636.6,-376.36C631.72,-368.13 626.98,-358.51 624.5,-349 621.13,-336.1 620.64,-331.76 624.5,-319 630.07,-300.6 639.66,-300.07 648.5,-283 669.53,-242.4 654.62,-220.73 685.5,-187 734.82,-133.12 817.86,-103.63 864.67,-90.5"/>
<polygon fill="#63b8ff" stroke="#63b8ff" points="633.75,-378.4 642.06,-384.97 639.66,-374.65 633.75,-378.4"/>
</a>
</g>
</g>
<!-- Node16 -->
<g id="Node000016" class="node">
<title>Node16</title>
<g id="a_Node000016"><a xlink:href="StorageReader_8hpp.html" target="_top" xlink:title=" ">
<polygon fill="white" stroke="#666666" points="765.5,-349 633.5,-349 633.5,-319 765.5,-319 765.5,-349"/>
<text text-anchor="start" x="641.5" y="-337" font-family="Helvetica,sans-Serif" font-size="10.00">netspeak/invertedindex</text>
<text text-anchor="middle" x="699.5" y="-326" font-family="Helvetica,sans-Serif" font-size="10.00">/StorageReader.hpp</text>
</a>
</g>
</g>
<!-- Node2&#45;&gt;Node16 -->
<g id="edge18_Node000002_Node000016" class="edge">
<title>Node2&#45;&gt;Node16</title>
<g id="a_edge18_Node000002_Node000016"><a xlink:title=" ">
<path fill="none" stroke="#63b8ff" d="M669,-376.53C675.69,-367.43 683.2,-357.19 689.1,-349.16"/>
<polygon fill="#63b8ff" stroke="#63b8ff" points="666.03,-374.66 662.93,-384.8 671.67,-378.81 666.03,-374.66"/>
</a>
</g>
</g>
<!-- Node4 -->
<g id="Node000004" class="node">
<title>Node4</title>
<g id="a_Node000004"><a xlink:href="Netspeak_8hpp.html" target="_top" xlink:title=" ">
<polygon fill="white" stroke="#666666" points="637.5,-151 505.5,-151 505.5,-132 637.5,-132 637.5,-151"/>
<text text-anchor="middle" x="571.5" y="-139" font-family="Helvetica,sans-Serif" font-size="10.00">netspeak/Netspeak.hpp</text>
</a>
</g>
</g>
<!-- Node3&#45;&gt;Node4 -->
<g id="edge3_Node000003_Node000004" class="edge">
<title>Node3&#45;&gt;Node4</title>
<g id="a_edge3_Node000003_Node000004"><a xlink:title=" ">
<path fill="none" stroke="#63b8ff" d="M557.91,-248.24C561.43,-220.86 567.83,-171.08 570.39,-151.12"/>
<polygon fill="#63b8ff" stroke="#63b8ff" points="554.4,-248.08 556.6,-258.44 561.35,-248.97 554.4,-248.08"/>
</a>
</g>
</g>
<!-- Node15 -->
<g id="Node000015" class="node">
<title>Node15</title>
<g id="a_Node000015"><a xlink:href="RetrievalStrategy3_8hpp.html" target="_top" xlink:title=" ">
<polygon fill="white" stroke="#666666" points="871,-211.5 694,-211.5 694,-192.5 871,-192.5 871,-211.5"/>
<text text-anchor="middle" x="782.5" y="-199.5" font-family="Helvetica,sans-Serif" font-size="10.00">netspeak/RetrievalStrategy3.hpp</text>
</a>
</g>
</g>
<!-- Node3&#45;&gt;Node15 -->
<g id="edge15_Node000003_Node000015" class="edge">
<title>Node3&#45;&gt;Node15</title>
<g id="a_edge15_Node000003_Node000015"><a xlink:title=" ">
<path fill="none" stroke="#63b8ff" d="M595.78,-255.64C640.5,-243.03 711.68,-222.97 752.01,-211.6"/>
<polygon fill="#63b8ff" stroke="#63b8ff" points="594.79,-252.29 586.11,-258.37 596.69,-259.02 594.79,-252.29"/>
</a>
</g>
</g>
<!-- Node5 -->
<g id="Node000005" class="node">
<title>Node5</title>
<g id="a_Node000005"><a xlink:href="ProxyCommand_8cpp.html" target="_top" xlink:title=" ">
<polygon fill="white" stroke="#666666" points="636,-90.5 507,-90.5 507,-71.5 636,-71.5 636,-90.5"/>
<text text-anchor="middle" x="571.5" y="-78.5" font-family="Helvetica,sans-Serif" font-size="10.00">cli/ProxyCommand.cpp</text>
</a>
</g>
</g>
<!-- Node4&#45;&gt;Node5 -->
<g id="edge4_Node000004_Node000005" class="edge">
<title>Node4&#45;&gt;Node5</title>
<g id="a_edge4_Node000004_Node000005"><a xlink:title=" ">
<path fill="none" stroke="#63b8ff" d="M571.5,-121.66C571.5,-111.24 571.5,-98.8 571.5,-90.67"/>
<polygon fill="#63b8ff" stroke="#63b8ff" points="568,-121.87 571.5,-131.87 575,-121.87 568,-121.87"/>
</a>
</g>
</g>
<!-- Node6 -->
<g id="Node000006" class="node">
<title>Node6</title>
<g id="a_Node000006"><a xlink:href="ServeCommand_8cpp.html" target="_top" xlink:title=" ">
<polygon fill="white" stroke="#666666" points="682,-24.5 553,-24.5 553,-5.5 682,-5.5 682,-24.5"/>
<text text-anchor="middle" x="617.5" y="-12.5" font-family="Helvetica,sans-Serif" font-size="10.00">cli/ServeCommand.cpp</text>
</a>
</g>
</g>
<!-- Node4&#45;&gt;Node6 -->
<g id="edge5_Node000004_Node000006" class="edge">
<title>Node4&#45;&gt;Node6</title>
<g id="a_edge5_Node000004_Node000006"><a xlink:title=" ">
<path fill="none" stroke="#63b8ff" d="M608.04,-127.74C622.38,-120.73 637.33,-110.45 645.5,-96 659.12,-71.92 637.63,-40.06 625.26,-24.84"/>
<polygon fill="#63b8ff" stroke="#63b8ff" points="606.49,-124.6 598.79,-131.88 609.35,-130.99 606.49,-124.6"/>
</a>
</g>
</g>
<!-- Node7 -->
<g id="Node000007" class="node">
<title>Node7</title>
<g id="a_Node000007"><a xlink:href="ShellCommand_8cpp.html" target="_top" xlink:title=" ">
<polygon fill="white" stroke="#666666" points="818,-90.5 693,-90.5 693,-71.5 818,-71.5 818,-90.5"/>
<text text-anchor="middle" x="755.5" y="-78.5" font-family="Helvetica,sans-Serif" font-size="10.00">cli/ShellCommand.cpp</text>
</a>
</g>
</g>
<!-- Node4&#45;&gt;Node7 -->
<g id="edge6_Node000004_Node000007" class="edge">
<title>Node4&#45;&gt;Node7</title>
<g id="a_edge6_Node000004_Node000007"><a xlink:title=" ">
<path fill="none" stroke="#63b8ff" d="M607.79,-128.96C643.38,-117.65 696.81,-100.66 728.71,-90.52"/>
<polygon fill="#63b8ff" stroke="#63b8ff" points="606.72,-125.63 598.26,-131.99 608.85,-132.3 606.72,-125.63"/>
</a>
</g>
</g>
<!-- Node8 -->
<g id="Node000008" class="node">
<title>Node8</title>
<g id="a_Node000008"><a xlink:href="Netspeak_8cpp.html" target="_top" xlink:title=" ">
<polygon fill="white" stroke="#666666" points="131,-90.5 0,-90.5 0,-71.5 131,-71.5 131,-90.5"/>
<text text-anchor="middle" x="65.5" y="-78.5" font-family="Helvetica,sans-Serif" font-size="10.00">netspeak/Netspeak.cpp</text>
</a>
</g>
</g>
<!-- Node4&#45;&gt;Node8 -->
<g id="edge7_Node000004_Node000008" class="edge">
<title>Node4&#45;&gt;Node8</title>
<g id="a_edge7_Node000004_Node000008"><a xlink:title=" ">
<path fill="none" stroke="#63b8ff" d="M495.43,-134.62C408.94,-127.48 263.66,-114.11 139.5,-96 129.02,-94.47 117.76,-92.51 107.27,-90.54"/>
<polygon fill="#63b8ff" stroke="#63b8ff" points="495.16,-138.11 505.42,-135.44 495.74,-131.13 495.16,-138.11"/>
</a>
</g>
</g>
<!-- Node4&#45;&gt;Node9 -->
<g id="edge8_Node000004_Node000009" class="edge">
<title>Node4&#45;&gt;Node9</title>
<g id="a_edge8_Node000004_Node000009"><a xlink:title=" ">
<path fill="none" stroke="#63b8ff" d="M632.6,-130.23C684.5,-121.42 760.95,-108.25 827.5,-96 836.89,-94.27 846.96,-92.35 856.5,-90.51"/>
<polygon fill="#63b8ff" stroke="#63b8ff" points="631.83,-126.81 622.55,-131.93 633,-133.71 631.83,-126.81"/>
</a>
</g>
</g>
<!-- Node10 -->
<g id="Node000010" class="node">
<title>Node10</title>
<g id="a_Node000010"><a xlink:href="RequestLogger_8hpp.html" target="_top" xlink:title=" ">
<polygon fill="white" stroke="#666666" points="292,-96 149,-96 149,-66 292,-66 292,-96"/>
<text text-anchor="start" x="157" y="-84" font-family="Helvetica,sans-Serif" font-size="10.00">netspeak/service/Request</text>
<text text-anchor="middle" x="220.5" y="-73" font-family="Helvetica,sans-Serif" font-size="10.00">Logger.hpp</text>
</a>
</g>
</g>
<!-- Node4&#45;&gt;Node10 -->
<g id="edge9_Node000004_Node000010" class="edge">
<title>Node4&#45;&gt;Node10</title>
<g id="a_edge9_Node000004_Node000010"><a xlink:title=" ">
<path fill="none" stroke="#63b8ff" d="M509.06,-130.35C454.33,-121.42 372.61,-108.01 301.5,-96 298.4,-95.48 295.24,-94.94 292.05,-94.4"/>
<polygon fill="#63b8ff" stroke="#63b8ff" points="508.53,-133.81 518.96,-131.97 509.66,-126.9 508.53,-133.81"/>
</a>
</g>
</g>
<!-- Node13 -->
<g id="Node000013" class="node">
<title>Node13</title>
<g id="a_Node000013"><a xlink:href="UniqueMap_8hpp.html" target="_top" xlink:title=" ">
<polygon fill="white" stroke="#666666" points="489,-90.5 310,-90.5 310,-71.5 489,-71.5 489,-90.5"/>
<text text-anchor="middle" x="399.5" y="-78.5" font-family="Helvetica,sans-Serif" font-size="10.00">netspeak/service/UniqueMap.hpp</text>
</a>
</g>
</g>
<!-- Node4&#45;&gt;Node13 -->
<g id="edge12_Node000004_Node000013" class="edge">
<title>Node4&#45;&gt;Node13</title>
<g id="a_edge12_Node000004_Node000013"><a xlink:title=" ">
<path fill="none" stroke="#63b8ff" d="M536.72,-128.67C503.46,-117.36 454.11,-100.57 424.54,-90.52"/>
<polygon fill="#63b8ff" stroke="#63b8ff" points="535.9,-132.09 546.49,-131.99 538.15,-125.46 535.9,-132.09"/>
</a>
</g>
</g>
<!-- Node11 -->
<g id="Node000011" class="node">
<title>Node11</title>
<g id="a_Node000011"><a xlink:href="cli_2logging_8cpp.html" target="_top" xlink:title=" ">
<polygon fill="white" stroke="#666666" points="278,-24.5 191,-24.5 191,-5.5 278,-5.5 278,-24.5"/>
<text text-anchor="middle" x="234.5" y="-12.5" font-family="Helvetica,sans-Serif" font-size="10.00">cli/logging.cpp</text>
</a>
</g>
</g>
<!-- Node10&#45;&gt;Node11 -->
<g id="edge10_Node000010_Node000011" class="edge">
<title>Node10&#45;&gt;Node11</title>
<g id="a_edge10_Node000010_Node000011"><a xlink:title=" ">
<path fill="none" stroke="#63b8ff" d="M225.76,-55.94C228.14,-45.06 230.81,-32.86 232.57,-24.84"/>
<polygon fill="#63b8ff" stroke="#63b8ff" points="222.32,-55.28 223.61,-65.8 229.16,-56.78 222.32,-55.28"/>
</a>
</g>
</g>
<!-- Node12 -->
<g id="Node000012" class="node">
<title>Node12</title>
<g id="a_Node000012"><a xlink:href="RequestLogger_8cpp.html" target="_top" xlink:title=" ">
<polygon fill="white" stroke="#666666" points="173,-30 30,-30 30,0 173,0 173,-30"/>
<text text-anchor="start" x="38" y="-18" font-family="Helvetica,sans-Serif" font-size="10.00">netspeak/service/Request</text>
<text text-anchor="middle" x="101.5" y="-7" font-family="Helvetica,sans-Serif" font-size="10.00">Logger.cpp</text>
</a>
</g>
</g>
<!-- Node10&#45;&gt;Node12 -->
<g id="edge11_Node000010_Node000012" class="edge">
<title>Node10&#45;&gt;Node12</title>
<g id="a_edge11_Node000010_Node000012"><a xlink:title=" ">
<path fill="none" stroke="#63b8ff" d="M185.37,-61.11C166.85,-51.14 144.51,-39.13 127.55,-30.01"/>
<polygon fill="#63b8ff" stroke="#63b8ff" points="183.92,-64.3 194.38,-65.95 187.24,-58.14 183.92,-64.3"/>
</a>
</g>
</g>
<!-- Node13&#45;&gt;Node6 -->
<g id="edge13_Node000013_Node000006" class="edge">
<title>Node13&#45;&gt;Node6</title>
<g id="a_edge13_Node000013_Node000006"><a xlink:title=" ">
<path fill="none" stroke="#63b8ff" d="M438.73,-68.48C481.71,-55.87 549.65,-35.92 588.22,-24.6"/>
<polygon fill="#63b8ff" stroke="#63b8ff" points="437.51,-65.19 428.9,-71.37 439.48,-71.91 437.51,-65.19"/>
</a>
</g>
</g>
<!-- Node14 -->
<g id="Node000014" class="node">
<title>Node14</title>
<g id="a_Node000014"><a xlink:href="UniqueMap_8cpp.html" target="_top" xlink:title=" ">
<polygon fill="white" stroke="#666666" points="489,-24.5 310,-24.5 310,-5.5 489,-5.5 489,-24.5"/>
<text text-anchor="middle" x="399.5" y="-12.5" font-family="Helvetica,sans-Serif" font-size="10.00">netspeak/service/UniqueMap.cpp</text>
</a>
</g>
</g>
<!-- Node13&#45;&gt;Node14 -->
<g id="edge14_Node000013_Node000014" class="edge">
<title>Node13&#45;&gt;Node14</title>
<g id="a_edge14_Node000013_Node000014"><a xlink:title=" ">
<path fill="none" stroke="#63b8ff" d="M399.5,-61.08C399.5,-49.13 399.5,-34.22 399.5,-24.91"/>
<polygon fill="#63b8ff" stroke="#63b8ff" points="396,-61.37 399.5,-71.37 403,-61.37 396,-61.37"/>
</a>
</g>
</g>
<!-- Node15&#45;&gt;Node4 -->
<g id="edge16_Node000015_Node000004" class="edge">
<title>Node15&#45;&gt;Node4</title>
<g id="a_edge16_Node000015_Node000004"><a xlink:title=" ">
<path fill="none" stroke="#63b8ff" d="M741.93,-189.75C701.12,-178.44 639.11,-161.25 602.22,-151.02"/>
<polygon fill="#63b8ff" stroke="#63b8ff" points="741.25,-193.19 751.82,-192.49 743.12,-186.45 741.25,-193.19"/>
</a>
</g>
</g>
<!-- Node17 -->
<g id="Node000017" class="node">
<title>Node17</title>
<g id="a_Node000017"><a xlink:href="Searcher_8hpp.html" target="_top" xlink:title=" ">
<polygon fill="white" stroke="#666666" points="953.5,-283 821.5,-283 821.5,-253 953.5,-253 953.5,-283"/>
<text text-anchor="start" x="829.5" y="-271" font-family="Helvetica,sans-Serif" font-size="10.00">netspeak/invertedindex</text>
<text text-anchor="middle" x="887.5" y="-260" font-family="Helvetica,sans-Serif" font-size="10.00">/Searcher.hpp</text>
</a>
</g>
</g>
<!-- Node16&#45;&gt;Node17 -->
<g id="edge19_Node000016_Node000017" class="edge">
<title>Node16&#45;&gt;Node17</title>
<g id="a_edge19_Node000016_Node000017"><a xlink:title=" ">
<path fill="none" stroke="#63b8ff" d="M750.25,-315.72C780.37,-305.47 818.08,-292.63 846.34,-283.01"/>
<polygon fill="#63b8ff" stroke="#63b8ff" points="749.1,-312.42 740.76,-318.95 751.35,-319.05 749.1,-312.42"/>
</a>
</g>
</g>
<!-- Node17&#45;&gt;Node9 -->
<g id="edge21_Node000017_Node000009" class="edge">
<title>Node17&#45;&gt;Node9</title>
<g id="a_edge21_Node000017_Node000009"><a xlink:title=" ">
<path fill="none" stroke="#63b8ff" d="M889.08,-242.66C891.79,-200.87 897.21,-117.38 898.95,-90.53"/>
<polygon fill="#63b8ff" stroke="#63b8ff" points="885.58,-242.58 888.42,-252.79 892.56,-243.04 885.58,-242.58"/>
</a>
</g>
</g>
<!-- Node17&#45;&gt;Node15 -->
<g id="edge20_Node000017_Node000015" class="edge">
<title>Node17&#45;&gt;Node15</title>
<g id="a_edge20_Node000017_Node000015"><a xlink:title=" ">
<path fill="none" stroke="#63b8ff" d="M855.75,-247.65C835.98,-235.6 811.53,-220.69 796.47,-211.52"/>
<polygon fill="#63b8ff" stroke="#63b8ff" points="854.1,-250.74 864.46,-252.95 857.74,-244.76 854.1,-250.74"/>
</a>
</g>
</g>
<!-- Node18&#45;&gt;Node9 -->
<g id="edge24_Node000018_Node000009" class="edge">
<title>Node18&#45;&gt;Node9</title>
<g id="a_edge24_Node000018_Node000009"><a xlink:title=" ">
<path fill="none" stroke="#63b8ff" d="M977.86,-465.35C1090.9,-464.34 1308.75,-456.5 1488.5,-415 1584.6,-392.81 1695.5,-433.63 1695.5,-335 1695.5,-335 1695.5,-335 1695.5,-201 1695.5,-127.12 1152.18,-94.09 963.29,-84.84"/>
<polygon fill="#63b8ff" stroke="#63b8ff" points="977.56,-461.85 967.59,-465.43 977.61,-468.85 977.56,-461.85"/>
</a>
</g>
</g>
<!-- Node18&#45;&gt;Node15 -->
<g id="edge23_Node000018_Node000015" class="edge">
<title>Node18&#45;&gt;Node15</title>
<g id="a_edge23_Node000018_Node000015"><a xlink:title=" ">
<path fill="none" stroke="#63b8ff" d="M870.87,-444.75C860.57,-436.59 849.84,-426.4 842.5,-415 797.79,-345.52 785.81,-242.36 783.16,-211.82"/>
<polygon fill="#63b8ff" stroke="#63b8ff" points="868.88,-447.63 878.98,-450.84 873.09,-442.03 868.88,-447.63"/>
</a>
</g>
</g>
<!-- Node19 -->
<g id="Node000019" class="node">
<title>Node19</title>
<g id="a_Node000019"><a xlink:href="IndexStrategy_8hpp.html" target="_top" xlink:title=" ">
<polygon fill="white" stroke="#666666" points="1038.5,-415 906.5,-415 906.5,-385 1038.5,-385 1038.5,-415"/>
<text text-anchor="start" x="914.5" y="-403" font-family="Helvetica,sans-Serif" font-size="10.00">netspeak/invertedindex</text>
<text text-anchor="middle" x="972.5" y="-392" font-family="Helvetica,sans-Serif" font-size="10.00">/IndexStrategy.hpp</text>
</a>
</g>
</g>
<!-- Node18&#45;&gt;Node19 -->
<g id="edge25_Node000018_Node000019" class="edge">
<title>Node18&#45;&gt;Node19</title>
<g id="a_edge25_Node000018_Node000019"><a xlink:title=" ">
<path fill="none" stroke="#63b8ff" d="M924.88,-443.92C935.35,-434.49 947.42,-423.61 956.79,-415.16"/>
<polygon fill="#63b8ff" stroke="#63b8ff" points="922.34,-441.5 917.26,-450.8 927.03,-446.7 922.34,-441.5"/>
</a>
</g>
</g>
<!-- Node20 -->
<g id="Node000020" class="node">
<title>Node20</title>
<g id="a_Node000020"><a xlink:href="Indexer_8hpp.html" target="_top" xlink:title=" ">
<polygon fill="white" stroke="#666666" points="1103.5,-283 971.5,-283 971.5,-253 1103.5,-253 1103.5,-283"/>
<text text-anchor="start" x="979.5" y="-271" font-family="Helvetica,sans-Serif" font-size="10.00">netspeak/invertedindex</text>
<text text-anchor="middle" x="1037.5" y="-260" font-family="Helvetica,sans-Serif" font-size="10.00">/Indexer.hpp</text>
</a>
</g>
</g>
<!-- Node18&#45;&gt;Node20 -->
<g id="edge33_Node000018_Node000020" class="edge">
<title>Node18&#45;&gt;Node20</title>
<g id="a_edge33_Node000018_Node000020"><a xlink:title=" ">
<path fill="none" stroke="#63b8ff" d="M881.8,-442.81C857.15,-412.26 821.51,-356.76 850.5,-319 858.15,-309.04 920.64,-293.66 971.31,-282.59"/>
<polygon fill="#63b8ff" stroke="#63b8ff" points="879.3,-445.28 888.39,-450.73 884.68,-440.8 879.3,-445.28"/>
</a>
</g>
</g>
<!-- Node24 -->
<g id="Node000024" class="node">
<title>Node24</title>
<g id="a_Node000024"><a xlink:href="invertedindex_2Properties_8hpp.html" target="_top" xlink:title=" ">
<polygon fill="white" stroke="#666666" points="1479.5,-415 1347.5,-415 1347.5,-385 1479.5,-385 1479.5,-415"/>
<text text-anchor="start" x="1355.5" y="-403" font-family="Helvetica,sans-Serif" font-size="10.00">netspeak/invertedindex</text>
<text text-anchor="middle" x="1413.5" y="-392" font-family="Helvetica,sans-Serif" font-size="10.00">/Properties.hpp</text>
</a>
</g>
</g>
<!-- Node18&#45;&gt;Node24 -->
<g id="edge34_Node000018_Node000024" class="edge">
<title>Node18&#45;&gt;Node24</title>
<g id="a_edge34_Node000018_Node000024"><a xlink:title=" ">
<path fill="none" stroke="#63b8ff" d="M977.7,-455.48C1077.84,-442.96 1252.14,-421.17 1347.13,-409.3"/>
<polygon fill="#63b8ff" stroke="#63b8ff" points="977.14,-452.02 967.65,-456.73 978.01,-458.96 977.14,-452.02"/>
</a>
</g>
</g>
<!-- Node19&#45;&gt;Node20 -->
<g id="edge26_Node000019_Node000020" class="edge">
<title>Node19&#45;&gt;Node20</title>
<g id="a_edge26_Node000019_Node000020"><a xlink:title=" ">
<path fill="none" stroke="#63b8ff" d="M985.95,-375.87C990.69,-367.48 995.97,-357.89 1000.5,-349 1012.12,-326.24 1024.32,-299.13 1031.41,-283.03"/>
<polygon fill="#63b8ff" stroke="#63b8ff" points="982.81,-374.3 980.89,-384.72 988.89,-377.77 982.81,-374.3"/>
</a>
</g>
</g>
<!-- Node22 -->
<g id="Node000022" class="node">
<title>Node22</title>
<g id="a_Node000022"><a xlink:href="SortedInput_8hpp.html" target="_top" xlink:title=" ">
<polygon fill="white" stroke="#666666" points="1179.5,-349 1047.5,-349 1047.5,-319 1179.5,-319 1179.5,-349"/>
<text text-anchor="start" x="1055.5" y="-337" font-family="Helvetica,sans-Serif" font-size="10.00">netspeak/invertedindex</text>
<text text-anchor="middle" x="1113.5" y="-326" font-family="Helvetica,sans-Serif" font-size="10.00">/SortedInput.hpp</text>
</a>
</g>
</g>
<!-- Node19&#45;&gt;Node22 -->
<g id="edge29_Node000019_Node000022" class="edge">
<title>Node19&#45;&gt;Node22</title>
<g id="a_edge29_Node000019_Node000022"><a xlink:title=" ">
<path fill="none" stroke="#63b8ff" d="M1012.63,-380.78C1034.86,-370.69 1062.07,-358.34 1082.63,-349.01"/>
<polygon fill="#63b8ff" stroke="#63b8ff" points="1011.1,-377.63 1003.44,-384.95 1014,-384.01 1011.1,-377.63"/>
</a>
</g>
</g>
<!-- Node23 -->
<g id="Node000023" class="node">
<title>Node23</title>
<g id="a_Node000023"><a xlink:href="UnsortedInput_8hpp.html" target="_top" xlink:title=" ">
<polygon fill="white" stroke="#666666" points="991.5,-349 859.5,-349 859.5,-319 991.5,-319 991.5,-349"/>
<text text-anchor="start" x="867.5" y="-337" font-family="Helvetica,sans-Serif" font-size="10.00">netspeak/invertedindex</text>
<text text-anchor="middle" x="925.5" y="-326" font-family="Helvetica,sans-Serif" font-size="10.00">/UnsortedInput.hpp</text>
</a>
</g>
</g>
<!-- Node19&#45;&gt;Node23 -->
<g id="edge31_Node000019_Node000023" class="edge">
<title>Node19&#45;&gt;Node23</title>
<g id="a_edge31_Node000019_Node000023"><a xlink:title=" ">
<path fill="none" stroke="#63b8ff" d="M956,-376.53C949.31,-367.43 941.8,-357.19 935.9,-349.16"/>
<polygon fill="#63b8ff" stroke="#63b8ff" points="953.33,-378.81 962.07,-384.8 958.97,-374.66 953.33,-378.81"/>
</a>
</g>
</g>
<!-- Node21 -->
<g id="Node000021" class="node">
<title>Node21</title>
<g id="a_Node000021"><a xlink:href="ManagedIndexer_8hpp.html" target="_top" xlink:title=" ">
<polygon fill="white" stroke="#666666" points="1103.5,-217 971.5,-217 971.5,-187 1103.5,-187 1103.5,-217"/>
<text text-anchor="start" x="979.5" y="-205" font-family="Helvetica,sans-Serif" font-size="10.00">netspeak/invertedindex</text>
<text text-anchor="middle" x="1037.5" y="-194" font-family="Helvetica,sans-Serif" font-size="10.00">/ManagedIndexer.hpp</text>
</a>
</g>
</g>
<!-- Node20&#45;&gt;Node21 -->
<g id="edge27_Node000020_Node000021" class="edge">
<title>Node20&#45;&gt;Node21</title>
<g id="a_edge27_Node000020_Node000021"><a xlink:title=" ">
<path fill="none" stroke="#63b8ff" d="M1037.5,-242.54C1037.5,-233.96 1037.5,-224.61 1037.5,-217.16"/>
<polygon fill="#63b8ff" stroke="#63b8ff" points="1034,-242.8 1037.5,-252.8 1041,-242.8 1034,-242.8"/>
</a>
</g>
</g>
<!-- Node21&#45;&gt;Node9 -->
<g id="edge28_Node000021_Node000009" class="edge">
<title>Node21&#45;&gt;Node9</title>
<g id="a_edge28_Node000021_Node000009"><a xlink:title=" ">
<path fill="none" stroke="#63b8ff" d="M1013.46,-180.27C982.83,-153.86 931.29,-109.42 909.6,-90.71"/>
<polygon fill="#63b8ff" stroke="#63b8ff" points="1011.27,-183 1021.13,-186.88 1015.84,-177.7 1011.27,-183"/>
</a>
</g>
</g>
<!-- Node22&#45;&gt;Node20 -->
<g id="edge30_Node000022_Node000020" class="edge">
<title>Node22&#45;&gt;Node20</title>
<g id="a_edge30_Node000022_Node000020"><a xlink:title=" ">
<path fill="none" stroke="#63b8ff" d="M1088.8,-312.2C1077.52,-302.7 1064.45,-291.69 1054.32,-283.16"/>
<polygon fill="#63b8ff" stroke="#63b8ff" points="1086.73,-315.03 1096.63,-318.8 1091.24,-309.68 1086.73,-315.03"/>
</a>
</g>
</g>
<!-- Node23&#45;&gt;Node20 -->
<g id="edge32_Node000023_Node000020" class="edge">
<title>Node23&#45;&gt;Node20</title>
<g id="a_edge32_Node000023_Node000020"><a xlink:title=" ">
<path fill="none" stroke="#63b8ff" d="M958.81,-313.97C976.19,-304.03 997.09,-292.09 1012.98,-283.01"/>
<polygon fill="#63b8ff" stroke="#63b8ff" points="957.02,-310.95 950.08,-318.95 960.5,-317.03 957.02,-310.95"/>
</a>
</g>
</g>
<!-- Node24&#45;&gt;Node21 -->
<g id="edge35_Node000024_Node000021" class="edge">
<title>Node24&#45;&gt;Node21</title>
<g id="a_edge35_Node000024_Node000021"><a xlink:title=" ">
<path fill="none" stroke="#63b8ff" d="M1489.91,-396.24C1571.37,-390.5 1682.98,-372.89 1638.5,-319 1571.19,-237.46 1245.36,-212.59 1103.61,-205.56"/>
<polygon fill="#63b8ff" stroke="#63b8ff" points="1489.39,-392.76 1479.64,-396.91 1489.85,-399.75 1489.39,-392.76"/>
</a>
</g>
</g>
<!-- Node25 -->
<g id="Node000025" class="node">
<title>Node25</title>
<g id="a_Node000025"><a xlink:href="invertedindex_2Properties_8cpp.html" target="_top" xlink:title=" ">
<polygon fill="white" stroke="#666666" points="1629.5,-349 1497.5,-349 1497.5,-319 1629.5,-319 1629.5,-349"/>
<text text-anchor="start" x="1505.5" y="-337" font-family="Helvetica,sans-Serif" font-size="10.00">netspeak/invertedindex</text>
<text text-anchor="middle" x="1563.5" y="-326" font-family="Helvetica,sans-Serif" font-size="10.00">/Properties.cpp</text>
</a>
</g>
</g>
<!-- Node24&#45;&gt;Node25 -->
<g id="edge36_Node000024_Node000025" class="edge">
<title>Node24&#45;&gt;Node25</title>
<g id="a_edge36_Node000024_Node000025"><a xlink:title=" ">
<path fill="none" stroke="#63b8ff" d="M1455.88,-380.92C1479.58,-370.8 1508.69,-358.38 1530.66,-349.01"/>
<polygon fill="#63b8ff" stroke="#63b8ff" points="1454.24,-377.81 1446.42,-384.95 1456.99,-384.25 1454.24,-377.81"/>
</a>
</g>
</g>
<!-- Node26 -->
<g id="Node000026" class="node">
<title>Node26</title>
<g id="a_Node000026"><a xlink:href="RawIndexer_8hpp.html" target="_top" xlink:title=" ">
<polygon fill="white" stroke="#666666" points="1479.5,-349 1347.5,-349 1347.5,-319 1479.5,-319 1479.5,-349"/>
<text text-anchor="start" x="1355.5" y="-337" font-family="Helvetica,sans-Serif" font-size="10.00">netspeak/invertedindex</text>
<text text-anchor="middle" x="1413.5" y="-326" font-family="Helvetica,sans-Serif" font-size="10.00">/RawIndexer.hpp</text>
</a>
</g>
</g>
<!-- Node24&#45;&gt;Node26 -->
<g id="edge37_Node000024_Node000026" class="edge">
<title>Node24&#45;&gt;Node26</title>
<g id="a_edge37_Node000024_Node000026"><a xlink:title=" ">
<path fill="none" stroke="#63b8ff" d="M1413.5,-374.54C1413.5,-365.96 1413.5,-356.61 1413.5,-349.16"/>
<polygon fill="#63b8ff" stroke="#63b8ff" points="1410,-374.8 1413.5,-384.8 1417,-374.8 1410,-374.8"/>
</a>
</g>
</g>
<!-- Node27 -->
<g id="Node000027" class="node">
<title>Node27</title>
<g id="a_Node000027"><a xlink:href="RawSearcher_8hpp.html" target="_top" xlink:title=" ">
<polygon fill="white" stroke="#666666" points="1329.5,-349 1197.5,-349 1197.5,-319 1329.5,-319 1329.5,-349"/>
<text text-anchor="start" x="1205.5" y="-337" font-family="Helvetica,sans-Serif" font-size="10.00">netspeak/invertedindex</text>
<text text-anchor="middle" x="1263.5" y="-326" font-family="Helvetica,sans-Serif" font-size="10.00">/RawSearcher.hpp</text>
</a>
</g>
</g>
<!-- Node24&#45;&gt;Node27 -->
<g id="edge39_Node000024_Node000027" class="edge">
<title>Node24&#45;&gt;Node27</title>
<g id="a_edge39_Node000024_Node000027"><a xlink:title=" ">
<path fill="none" stroke="#63b8ff" d="M1371.12,-380.92C1347.42,-370.8 1318.31,-358.38 1296.34,-349.01"/>
<polygon fill="#63b8ff" stroke="#63b8ff" points="1370.01,-384.25 1380.58,-384.95 1372.76,-377.81 1370.01,-384.25"/>
</a>
</g>
</g>
<!-- Node26&#45;&gt;Node20 -->
<g id="edge38_Node000026_Node000020" class="edge">
<title>Node26&#45;&gt;Node20</title>
<g id="a_edge38_Node000026_Node000020"><a xlink:title=" ">
<path fill="none" stroke="#63b8ff" d="M1337.28,-318.8C1250.9,-303.63 1162.39,-289.1 1103.62,-279.6"/>
<polygon fill="#63b8ff" stroke="#63b8ff" points="1336.8,-322.27 1347.26,-320.56 1338.02,-315.38 1336.8,-322.27"/>
</a>
</g>
</g>
<!-- Node27&#45;&gt;Node17 -->
<g id="edge40_Node000027_Node000017" class="edge">
<title>Node27&#45;&gt;Node17</title>
<g id="a_edge40_Node000027_Node000017"><a xlink:title=" ">
<path fill="none" stroke="#63b8ff" d="M1187.29,-318.82C1086.61,-301.57 1059.59,-299.79 962.5,-283 959.63,-282.5 956.7,-281.99 953.74,-281.46"/>
<polygon fill="#63b8ff" stroke="#63b8ff" points="1186.81,-322.29 1197.26,-320.54 1188,-315.39 1186.81,-322.29"/>
</a>
</g>
</g>
</g>
</svg>
