<?xml version="1.0" encoding="UTF-8" standalone="no"?>
<!DOCTYPE svg PUBLIC "-//W3C//DTD SVG 1.1//EN"
 "http://www.w3.org/Graphics/SVG/1.1/DTD/svg11.dtd">
<!-- Generated by graphviz version 2.43.0 (0)
 -->
<!-- Title: netspeak::regex::finite_query_to_utf8 Pages: 1 -->
<svg width="667pt" height="49pt"
 viewBox="0.00 0.00 667.00 49.00" xmlns="http://www.w3.org/2000/svg" xmlns:xlink="http://www.w3.org/1999/xlink">
<g id="graph0" class="graph" transform="scale(1 1) rotate(0) translate(4 45)">
<title>netspeak::regex::finite_query_to_utf8</title>
<!-- Node1 -->
<g id="Node000001" class="node">
<title>Node1</title>
<g id="a_Node000001"><a xlink:title=" ">
<polygon fill="#999999" stroke="#666666" points="659,-35.5 533,-35.5 533,-5.5 659,-5.5 659,-35.5"/>
<text text-anchor="start" x="541" y="-23.5" font-family="Helvetica,sans-Serif" font-size="10.00">netspeak::regex::finite</text>
<text text-anchor="middle" x="596" y="-12.5" font-family="Helvetica,sans-Serif" font-size="10.00">_query_to_utf8</text>
</a>
</g>
</g>
<!-- Node2 -->
<g id="Node000002" class="node">
<title>Node2</title>
<g id="a_Node000002"><a xlink:href="classnetspeak_1_1regex_1_1DefaultRegexIndex.html#a5c0cbc299628d069cfd1d800d74875d3" target="_top" xlink:title=" ">
<polygon fill="white" stroke="#666666" points="497,-41 353,-41 353,0 497,0 497,-41"/>
<text text-anchor="start" x="361" y="-29" font-family="Helvetica,sans-Serif" font-size="10.00">netspeak::regex::Default</text>
<text text-anchor="start" x="361" y="-18" font-family="Helvetica,sans-Serif" font-size="10.00">RegexIndex::match_query</text>
<text text-anchor="middle" x="425" y="-7" font-family="Helvetica,sans-Serif" font-size="10.00">_hash_lookup</text>
</a>
</g>
</g>
<!-- Node1&#45;&gt;Node2 -->
<g id="edge1_Node000001_Node000002" class="edge">
<title>Node1&#45;&gt;Node2</title>
<g id="a_edge1_Node000001_Node000002"><a xlink:title=" ">
<path fill="none" stroke="#63b8ff" d="M522.4,-20.5C513.99,-20.5 505.42,-20.5 497.03,-20.5"/>
<polygon fill="#63b8ff" stroke="#63b8ff" points="522.55,-24 532.55,-20.5 522.55,-17 522.55,-24"/>
</a>
</g>
</g>
<!-- Node3 -->
<g id="Node000003" class="node">
<title>Node3</title>
<g id="a_Node000003"><a xlink:href="classnetspeak_1_1regex_1_1DefaultRegexIndex.html#a243db53a6f592cf81dc78ab6abe09bc2" target="_top" xlink:title="Adds all words matching the given query to the given vector.">
<polygon fill="white" stroke="#666666" points="317,-35.5 173,-35.5 173,-5.5 317,-5.5 317,-35.5"/>
<text text-anchor="start" x="181" y="-23.5" font-family="Helvetica,sans-Serif" font-size="10.00">netspeak::regex::Default</text>
<text text-anchor="middle" x="245" y="-12.5" font-family="Helvetica,sans-Serif" font-size="10.00">RegexIndex::match_query</text>
</a>
</g>
</g>
<!-- Node2&#45;&gt;Node3 -->
<g id="edge2_Node000002_Node000003" class="edge">
<title>Node2&#45;&gt;Node3</title>
<g id="a_edge2_Node000002_Node000003"><a xlink:title=" ">
<path fill="none" stroke="#63b8ff" d="M342.83,-20.5C334.21,-20.5 325.49,-20.5 317,-20.5"/>
<polygon fill="#63b8ff" stroke="#63b8ff" points="342.88,-24 352.88,-20.5 342.88,-17 342.88,-24"/>
</a>
</g>
</g>
<!-- Node4 -->
<g id="Node000004" class="node">
<title>Node4</title>
<g id="a_Node000004"><a xlink:href="classcli_1_1RegexCommand.html#a359a924652eac2c3d8664bfc5ff29f3e" target="_top" xlink:title=" ">
<polygon fill="white" stroke="#666666" points="137,-30 0,-30 0,-11 137,-11 137,-30"/>
<text text-anchor="middle" x="68.5" y="-18" font-family="Helvetica,sans-Serif" font-size="10.00">cli::RegexCommand::run</text>
</a>
</g>
</g>
<!-- Node3&#45;&gt;Node4 -->
<g id="edge3_Node000003_Node000004" class="edge">
<title>Node3&#45;&gt;Node4</title>
<g id="a_edge3_Node000003_Node000004"><a xlink:title=" ">
<path fill="none" stroke="#63b8ff" d="M162.76,-20.5C154.18,-20.5 145.52,-20.5 137.12,-20.5"/>
<polygon fill="#63b8ff" stroke="#63b8ff" points="162.77,-24 172.77,-20.5 162.77,-17 162.77,-24"/>
</a>
</g>
</g>
</g>
</svg>
