<?xml version="1.0" encoding="UTF-8" standalone="no"?>
<!DOCTYPE svg PUBLIC "-//W3C//DTD SVG 1.1//EN"
 "http://www.w3.org/Graphics/SVG/1.1/DTD/svg11.dtd">
<!-- Generated by graphviz version 2.43.0 (0)
 -->
<!-- Title: netspeak::regex::number_of_utf8_bytes Pages: 1 -->
<svg width="910pt" height="86pt"
 viewBox="0.00 0.00 910.00 86.00" xmlns="http://www.w3.org/2000/svg" xmlns:xlink="http://www.w3.org/1999/xlink">
<g id="graph0" class="graph" transform="scale(1 1) rotate(0) translate(4 82)">
<title>netspeak::regex::number_of_utf8_bytes</title>
<!-- Node1 -->
<g id="Node000001" class="node">
<title>Node1</title>
<g id="a_Node000001"><a xlink:title=" ">
<polygon fill="#999999" stroke="#666666" points="902,-54 763,-54 763,-24 902,-24 902,-54"/>
<text text-anchor="start" x="771" y="-42" font-family="Helvetica,sans-Serif" font-size="10.00">netspeak::regex::number</text>
<text text-anchor="middle" x="832.5" y="-31" font-family="Helvetica,sans-Serif" font-size="10.00">_of_utf8_bytes</text>
</a>
</g>
</g>
<!-- Node2 -->
<g id="Node000002" class="node">
<title>Node2</title>
<g id="a_Node000002"><a xlink:href="classnetspeak_1_1regex_1_1RegexQuery.html#a027a4b5415fce264c86bdd7c038ca46b" target="_top" xlink:title="Returns the maximum number of UTF8 bytes a word can to have to match this query.">
<polygon fill="white" stroke="#666666" points="727,-78 566,-78 566,-48 727,-48 727,-78"/>
<text text-anchor="start" x="574" y="-66" font-family="Helvetica,sans-Serif" font-size="10.00">netspeak::regex::RegexQuery</text>
<text text-anchor="middle" x="646.5" y="-55" font-family="Helvetica,sans-Serif" font-size="10.00">::max_utf8_input_length</text>
</a>
</g>
</g>
<!-- Node1&#45;&gt;Node2 -->
<g id="edge1_Node000001_Node000002" class="edge">
<title>Node1&#45;&gt;Node2</title>
<g id="a_edge1_Node000001_Node000002"><a xlink:title=" ">
<path fill="none" stroke="#63b8ff" d="M753.05,-49.23C744.5,-50.35 735.8,-51.48 727.24,-52.6"/>
<polygon fill="#63b8ff" stroke="#63b8ff" points="753.52,-52.7 762.99,-47.94 752.62,-45.76 753.52,-52.7"/>
</a>
</g>
</g>
<!-- Node6 -->
<g id="Node000006" class="node">
<title>Node6</title>
<g id="a_Node000006"><a xlink:href="classnetspeak_1_1regex_1_1RegexQuery.html#a634da32c1d91b1d13ffcb3bc0edf259c" target="_top" xlink:title="Returns the minimum number of UTF8 bytes a word has to have to match this query.">
<polygon fill="white" stroke="#666666" points="727,-30 566,-30 566,0 727,0 727,-30"/>
<text text-anchor="start" x="574" y="-18" font-family="Helvetica,sans-Serif" font-size="10.00">netspeak::regex::RegexQuery</text>
<text text-anchor="middle" x="646.5" y="-7" font-family="Helvetica,sans-Serif" font-size="10.00">::min_utf8_input_length</text>
</a>
</g>
</g>
<!-- Node1&#45;&gt;Node6 -->
<g id="edge5_Node000001_Node000006" class="edge">
<title>Node1&#45;&gt;Node6</title>
<g id="a_edge5_Node000001_Node000006"><a xlink:title=" ">
<path fill="none" stroke="#63b8ff" d="M753.05,-28.77C744.5,-27.65 735.8,-26.52 727.24,-25.4"/>
<polygon fill="#63b8ff" stroke="#63b8ff" points="752.62,-32.24 762.99,-30.06 753.52,-25.3 752.62,-32.24"/>
</a>
</g>
</g>
<!-- Node3 -->
<g id="Node000003" class="node">
<title>Node3</title>
<g id="a_Node000003"><a xlink:href="classnetspeak_1_1regex_1_1DefaultRegexIndex.html#aa6875223b64c6979bd2135023f71f2ce" target="_top" xlink:title=" ">
<polygon fill="white" stroke="#666666" points="530,-54 353,-54 353,-24 530,-24 530,-54"/>
<text text-anchor="start" x="361" y="-42" font-family="Helvetica,sans-Serif" font-size="10.00">netspeak::regex::Default</text>
<text text-anchor="middle" x="441.5" y="-31" font-family="Helvetica,sans-Serif" font-size="10.00">RegexIndex::match_query_regex</text>
</a>
</g>
</g>
<!-- Node2&#45;&gt;Node3 -->
<g id="edge2_Node000002_Node000003" class="edge">
<title>Node2&#45;&gt;Node3</title>
<g id="a_edge2_Node000002_Node000003"><a xlink:title=" ">
<path fill="none" stroke="#63b8ff" d="M555.65,-52.38C547.23,-51.38 538.71,-50.37 530.31,-49.38"/>
<polygon fill="#63b8ff" stroke="#63b8ff" points="555.51,-55.89 565.85,-53.58 556.33,-48.93 555.51,-55.89"/>
</a>
</g>
</g>
<!-- Node4 -->
<g id="Node000004" class="node">
<title>Node4</title>
<g id="a_Node000004"><a xlink:href="classnetspeak_1_1regex_1_1DefaultRegexIndex.html#a243db53a6f592cf81dc78ab6abe09bc2" target="_top" xlink:title="Adds all words matching the given query to the given vector.">
<polygon fill="white" stroke="#666666" points="317,-54 173,-54 173,-24 317,-24 317,-54"/>
<text text-anchor="start" x="181" y="-42" font-family="Helvetica,sans-Serif" font-size="10.00">netspeak::regex::Default</text>
<text text-anchor="middle" x="245" y="-31" font-family="Helvetica,sans-Serif" font-size="10.00">RegexIndex::match_query</text>
</a>
</g>
</g>
<!-- Node3&#45;&gt;Node4 -->
<g id="edge3_Node000003_Node000004" class="edge">
<title>Node3&#45;&gt;Node4</title>
<g id="a_edge3_Node000003_Node000004"><a xlink:title=" ">
<path fill="none" stroke="#63b8ff" d="M342.77,-39C334.11,-39 325.45,-39 317.07,-39"/>
<polygon fill="#63b8ff" stroke="#63b8ff" points="342.92,-42.5 352.92,-39 342.92,-35.5 342.92,-42.5"/>
</a>
</g>
</g>
<!-- Node5 -->
<g id="Node000005" class="node">
<title>Node5</title>
<g id="a_Node000005"><a xlink:href="classcli_1_1RegexCommand.html#a359a924652eac2c3d8664bfc5ff29f3e" target="_top" xlink:title=" ">
<polygon fill="white" stroke="#666666" points="137,-48.5 0,-48.5 0,-29.5 137,-29.5 137,-48.5"/>
<text text-anchor="middle" x="68.5" y="-36.5" font-family="Helvetica,sans-Serif" font-size="10.00">cli::RegexCommand::run</text>
</a>
</g>
</g>
<!-- Node4&#45;&gt;Node5 -->
<g id="edge4_Node000004_Node000005" class="edge">
<title>Node4&#45;&gt;Node5</title>
<g id="a_edge4_Node000004_Node000005"><a xlink:title=" ">
<path fill="none" stroke="#63b8ff" d="M162.76,-39C154.18,-39 145.52,-39 137.12,-39"/>
<polygon fill="#63b8ff" stroke="#63b8ff" points="162.77,-42.5 172.77,-39 162.77,-35.5 162.77,-42.5"/>
</a>
</g>
</g>
<!-- Node6&#45;&gt;Node3 -->
<g id="edge6_Node000006_Node000003" class="edge">
<title>Node6&#45;&gt;Node3</title>
<g id="a_edge6_Node000006_Node000003"><a xlink:title=" ">
<path fill="none" stroke="#63b8ff" d="M555.65,-25.62C547.23,-26.62 538.71,-27.63 530.31,-28.62"/>
<polygon fill="#63b8ff" stroke="#63b8ff" points="556.33,-29.07 565.85,-24.42 555.51,-22.11 556.33,-29.07"/>
</a>
</g>
</g>
</g>
</svg>
