<?xml version="1.0" encoding="UTF-8" standalone="no"?>
<!DOCTYPE svg PUBLIC "-//W3C//DTD SVG 1.1//EN"
 "http://www.w3.org/Graphics/SVG/1.1/DTD/svg11.dtd">
<!-- Generated by graphviz version 2.43.0 (0)
 -->
<!-- Title: netspeak::util::check_valid_utf8 Pages: 1 -->
<svg width="429pt" height="114pt"
 viewBox="0.00 0.00 429.00 113.50" xmlns="http://www.w3.org/2000/svg" xmlns:xlink="http://www.w3.org/1999/xlink">
<g id="graph0" class="graph" transform="scale(1 1) rotate(0) translate(4 109.5)">
<title>netspeak::util::check_valid_utf8</title>
<!-- Node1 -->
<g id="Node000001" class="node">
<title>Node1</title>
<g id="a_Node000001"><a xlink:title=" ">
<polygon fill="#999999" stroke="#666666" points="118,-73 0,-73 0,-43 118,-43 118,-73"/>
<text text-anchor="start" x="8" y="-61" font-family="Helvetica,sans-Serif" font-size="10.00">netspeak::util::check</text>
<text text-anchor="middle" x="59" y="-50" font-family="Helvetica,sans-Serif" font-size="10.00">_valid_utf8</text>
</a>
</g>
</g>
<!-- Node2 -->
<g id="Node000002" class="node">
<title>Node2</title>
<g id="a_Node000002"><a xlink:href="namespacenetspeak_1_1util.html#aad6c5a8708322dd600c23507cc2035f1" target="_top" xlink:title=" ">
<polygon fill="white" stroke="#666666" points="272,-105.5 154,-105.5 154,-86.5 272,-86.5 272,-105.5"/>
<text text-anchor="middle" x="213" y="-93.5" font-family="Helvetica,sans-Serif" font-size="10.00">netspeak::util::check</text>
</a>
</g>
</g>
<!-- Node1&#45;&gt;Node2 -->
<g id="edge1_Node000001_Node000002" class="edge">
<title>Node1&#45;&gt;Node2</title>
<g id="a_edge1_Node000001_Node000002"><a xlink:title=" ">
<path fill="none" stroke="#63b8ff" d="M118.33,-72.58C133.43,-76.36 149.52,-80.38 164.02,-84.01"/>
<polygon fill="#63b8ff" stroke="#63b8ff" points="163.23,-87.41 173.78,-86.44 164.93,-80.62 163.23,-87.41"/>
</a>
</g>
</g>
<!-- Node3 -->
<g id="Node000003" class="node">
<title>Node3</title>
<g id="a_Node000003"><a xlink:href="namespacenetspeak_1_1util.html#a4c91ad572508b4021399ac7dddff574d" target="_top" xlink:title=" ">
<polygon fill="white" stroke="#666666" points="421,-67.5 308,-67.5 308,-48.5 421,-48.5 421,-67.5"/>
<text text-anchor="middle" x="364.5" y="-55.5" font-family="Helvetica,sans-Serif" font-size="10.00">netspeak::util::hash</text>
</a>
</g>
</g>
<!-- Node1&#45;&gt;Node3 -->
<g id="edge3_Node000001_Node000003" class="edge">
<title>Node1&#45;&gt;Node3</title>
<g id="a_edge3_Node000001_Node000003"><a xlink:title=" ">
<path fill="none" stroke="#63b8ff" d="M118.16,-58C169.5,-58 244.29,-58 297.78,-58"/>
<polygon fill="#63b8ff" stroke="#63b8ff" points="297.84,-61.5 307.84,-58 297.84,-54.5 297.84,-61.5"/>
</a>
</g>
</g>
<!-- Node4 -->
<g id="Node000004" class="node">
<title>Node4</title>
<g id="a_Node000004"><a xlink:href="namespacenetspeak_1_1util.html#a53fac399fbfab002a4a512c161eb184f" target="_top" xlink:title=" ">
<polygon fill="white" stroke="#666666" points="262,-30 164,-30 164,0 262,0 262,-30"/>
<text text-anchor="start" x="172" y="-18" font-family="Helvetica,sans-Serif" font-size="10.00">netspeak::util::is</text>
<text text-anchor="middle" x="213" y="-7" font-family="Helvetica,sans-Serif" font-size="10.00">_valid_utf8</text>
</a>
</g>
</g>
<!-- Node1&#45;&gt;Node4 -->
<g id="edge4_Node000001_Node000004" class="edge">
<title>Node1&#45;&gt;Node4</title>
<g id="a_edge4_Node000001_Node000004"><a xlink:title=" ">
<path fill="none" stroke="#63b8ff" d="M113.16,-42.96C126.46,-39.2 140.78,-35.15 154.29,-31.33"/>
<polygon fill="#63b8ff" stroke="#63b8ff" points="155.28,-34.68 163.95,-28.59 153.37,-27.95 155.28,-34.68"/>
</a>
</g>
</g>
<!-- Node2&#45;&gt;Node3 -->
<g id="edge2_Node000002_Node000003" class="edge">
<title>Node2&#45;&gt;Node3</title>
<g id="a_edge2_Node000002_Node000003"><a xlink:title=" ">
<path fill="none" stroke="#63b8ff" d="M251.73,-86.41C271.28,-81.44 295.35,-75.32 316.14,-70.04"/>
<polygon fill="#63b8ff" stroke="#63b8ff" points="317.22,-73.38 326.05,-67.52 315.49,-66.59 317.22,-73.38"/>
</a>
</g>
</g>
<!-- Node4&#45;&gt;Node3 -->
<g id="edge5_Node000004_Node000003" class="edge">
<title>Node4&#45;&gt;Node3</title>
<g id="a_edge5_Node000004_Node000003"><a xlink:title=" ">
<path fill="none" stroke="#63b8ff" d="M262.13,-28.84C280.85,-34.23 302.14,-40.35 320.36,-45.59"/>
<polygon fill="#63b8ff" stroke="#63b8ff" points="319.55,-49 330.13,-48.4 321.49,-42.27 319.55,-49"/>
</a>
</g>
</g>
</g>
</svg>
