<?xml version="1.0" encoding="UTF-8" standalone="no"?>
<!DOCTYPE svg PUBLIC "-//W3C//DTD SVG 1.1//EN"
 "http://www.w3.org/Graphics/SVG/1.1/DTD/svg11.dtd">
<!-- Generated by graphviz version 2.43.0 (0)
 -->
<!-- Title: netspeak::BuildPhraseIndex Pages: 1 -->
<svg width="355pt" height="344pt"
 viewBox="0.00 0.00 355.00 344.00" xmlns="http://www.w3.org/2000/svg" xmlns:xlink="http://www.w3.org/1999/xlink">
<g id="graph0" class="graph" transform="scale(1 1) rotate(0) translate(4 340)">
<title>netspeak::BuildPhraseIndex</title>
<!-- Node1 -->
<g id="Node000001" class="node">
<title>Node1</title>
<g id="a_Node000001"><a xlink:title=" ">
<polygon fill="#999999" stroke="#666666" points="152,-177 0,-177 0,-158 152,-158 152,-177"/>
<text text-anchor="middle" x="76" y="-165" font-family="Helvetica,sans-Serif" font-size="10.00">netspeak::BuildPhraseIndex</text>
</a>
</g>
</g>
<!-- Node2 -->
<g id="Node000002" class="node">
<title>Node2</title>
<g id="a_Node000002"><a xlink:href="classnetspeak_1_1invertedindex_1_1Configuration.html#a56b60abe84282d174a907e5ecb1becf7" target="_top" xlink:title=" ">
<polygon fill="white" stroke="#666666" points="347,-336 188,-336 188,-295 347,-295 347,-336"/>
<text text-anchor="start" x="196" y="-324" font-family="Helvetica,sans-Serif" font-size="10.00">netspeak::invertedindex</text>
<text text-anchor="start" x="196" y="-313" font-family="Helvetica,sans-Serif" font-size="10.00">::Configuration::set_expected</text>
<text text-anchor="middle" x="267.5" y="-302" font-family="Helvetica,sans-Serif" font-size="10.00">_record_count</text>
</a>
</g>
</g>
<!-- Node1&#45;&gt;Node2 -->
<g id="edge1_Node000001_Node000002" class="edge">
<title>Node1&#45;&gt;Node2</title>
<g id="a_edge1_Node000001_Node000002"><a xlink:title=" ">
<path fill="none" stroke="#63b8ff" d="M83.62,-177.26C99.26,-199.62 140.72,-255.05 188,-286.5 189.87,-287.74 191.8,-288.94 193.77,-290.09"/>
<polygon fill="#63b8ff" stroke="#63b8ff" points="192.21,-293.23 202.68,-294.88 195.52,-287.06 192.21,-293.23"/>
</a>
</g>
</g>
<!-- Node3 -->
<g id="Node000003" class="node">
<title>Node3</title>
<g id="a_Node000003"><a xlink:href="classnetspeak_1_1invertedindex_1_1Configuration.html#a11cd5ed11c472e4db6e0896c38a9ca91" target="_top" xlink:title=" ">
<polygon fill="white" stroke="#666666" points="338,-277 197,-277 197,-236 338,-236 338,-277"/>
<text text-anchor="start" x="205" y="-265" font-family="Helvetica,sans-Serif" font-size="10.00">netspeak::invertedindex</text>
<text text-anchor="start" x="205" y="-254" font-family="Helvetica,sans-Serif" font-size="10.00">::Configuration::set_index</text>
<text text-anchor="middle" x="267.5" y="-243" font-family="Helvetica,sans-Serif" font-size="10.00">_directory</text>
</a>
</g>
</g>
<!-- Node1&#45;&gt;Node3 -->
<g id="edge2_Node000001_Node000003" class="edge">
<title>Node1&#45;&gt;Node3</title>
<g id="a_edge2_Node000001_Node000003"><a xlink:title=" ">
<path fill="none" stroke="#63b8ff" d="M93.18,-177.19C114.47,-189.72 153.27,-211.79 188,-227.5 191.38,-229.03 194.86,-230.54 198.39,-232.02"/>
<polygon fill="#63b8ff" stroke="#63b8ff" points="197.25,-235.33 207.83,-235.87 199.89,-228.85 197.25,-235.33"/>
</a>
</g>
</g>
<!-- Node4 -->
<g id="Node000004" class="node">
<title>Node4</title>
<g id="a_Node000004"><a xlink:href="classnetspeak_1_1invertedindex_1_1Configuration.html#a364da2ca4eb24337558dec182f0b0f21" target="_top" xlink:title=" ">
<polygon fill="white" stroke="#666666" points="337,-218 198,-218 198,-177 337,-177 337,-218"/>
<text text-anchor="start" x="206" y="-206" font-family="Helvetica,sans-Serif" font-size="10.00">netspeak::invertedindex</text>
<text text-anchor="start" x="206" y="-195" font-family="Helvetica,sans-Serif" font-size="10.00">::Configuration::set_input</text>
<text text-anchor="middle" x="267.5" y="-184" font-family="Helvetica,sans-Serif" font-size="10.00">_directory</text>
</a>
</g>
</g>
<!-- Node1&#45;&gt;Node4 -->
<g id="edge3_Node000001_Node000004" class="edge">
<title>Node1&#45;&gt;Node4</title>
<g id="a_edge3_Node000001_Node000004"><a xlink:title=" ">
<path fill="none" stroke="#63b8ff" d="M137.22,-177.03C153.35,-179.59 171.02,-182.38 187.97,-185.07"/>
<polygon fill="#63b8ff" stroke="#63b8ff" points="187.43,-188.53 197.86,-186.63 188.53,-181.61 187.43,-188.53"/>
</a>
</g>
</g>
<!-- Node5 -->
<g id="Node000005" class="node">
<title>Node5</title>
<g id="a_Node000005"><a xlink:href="classnetspeak_1_1invertedindex_1_1Configuration.html#a42f166343ee07660af2205211b6acdb1" target="_top" xlink:title=" ">
<polygon fill="white" stroke="#666666" points="335,-159 200,-159 200,-118 335,-118 335,-159"/>
<text text-anchor="start" x="208" y="-147" font-family="Helvetica,sans-Serif" font-size="10.00">netspeak::invertedindex</text>
<text text-anchor="start" x="208" y="-136" font-family="Helvetica,sans-Serif" font-size="10.00">::Configuration::set_key</text>
<text text-anchor="middle" x="267.5" y="-125" font-family="Helvetica,sans-Serif" font-size="10.00">_sorting</text>
</a>
</g>
</g>
<!-- Node1&#45;&gt;Node5 -->
<g id="edge4_Node000001_Node000005" class="edge">
<title>Node1&#45;&gt;Node5</title>
<g id="a_edge4_Node000001_Node000005"><a xlink:title=" ">
<path fill="none" stroke="#63b8ff" d="M139.31,-157.96C155.39,-155.5 172.89,-152.83 189.62,-150.27"/>
<polygon fill="#63b8ff" stroke="#63b8ff" points="190.56,-153.66 199.91,-148.69 189.5,-146.74 190.56,-153.66"/>
</a>
</g>
</g>
<!-- Node6 -->
<g id="Node000006" class="node">
<title>Node6</title>
<g id="a_Node000006"><a xlink:href="classnetspeak_1_1invertedindex_1_1Configuration.html#a5e970cb839b592bf203a0554bf9bc3ec" target="_top" xlink:title=" ">
<polygon fill="white" stroke="#666666" points="335.5,-100 199.5,-100 199.5,-59 335.5,-59 335.5,-100"/>
<text text-anchor="start" x="207.5" y="-88" font-family="Helvetica,sans-Serif" font-size="10.00">netspeak::invertedindex</text>
<text text-anchor="start" x="207.5" y="-77" font-family="Helvetica,sans-Serif" font-size="10.00">::Configuration::set_max</text>
<text text-anchor="middle" x="267.5" y="-66" font-family="Helvetica,sans-Serif" font-size="10.00">_memory_usage</text>
</a>
</g>
</g>
<!-- Node1&#45;&gt;Node6 -->
<g id="edge5_Node000001_Node000006" class="edge">
<title>Node1&#45;&gt;Node6</title>
<g id="a_edge5_Node000001_Node000006"><a xlink:title=" ">
<path fill="none" stroke="#63b8ff" d="M94,-157.83C115.52,-145.76 153.9,-124.86 188,-109.5 192.15,-107.63 196.46,-105.77 200.82,-103.94"/>
<polygon fill="#63b8ff" stroke="#63b8ff" points="202.49,-107.04 210.42,-100.01 199.84,-100.56 202.49,-107.04"/>
</a>
</g>
</g>
<!-- Node7 -->
<g id="Node000007" class="node">
<title>Node7</title>
<g id="a_Node000007"><a xlink:href="classnetspeak_1_1invertedindex_1_1Configuration.html#ac6ff41d4e21b9f5f1f204ff53ec653b9" target="_top" xlink:title=" ">
<polygon fill="white" stroke="#666666" points="338,-41 197,-41 197,0 338,0 338,-41"/>
<text text-anchor="start" x="205" y="-29" font-family="Helvetica,sans-Serif" font-size="10.00">netspeak::invertedindex</text>
<text text-anchor="start" x="205" y="-18" font-family="Helvetica,sans-Serif" font-size="10.00">::Configuration::set_value</text>
<text text-anchor="middle" x="267.5" y="-7" font-family="Helvetica,sans-Serif" font-size="10.00">_sorting</text>
</a>
</g>
</g>
<!-- Node1&#45;&gt;Node7 -->
<g id="edge6_Node000001_Node000007" class="edge">
<title>Node1&#45;&gt;Node7</title>
<g id="a_edge6_Node000001_Node000007"><a xlink:title=" ">
<path fill="none" stroke="#63b8ff" d="M83.69,-157.94C99.46,-136.05 141.18,-81.74 188,-50.5 190.53,-48.81 193.16,-47.2 195.87,-45.67"/>
<polygon fill="#63b8ff" stroke="#63b8ff" points="197.51,-48.76 204.74,-41.01 194.26,-42.56 197.51,-48.76"/>
</a>
</g>
</g>
</g>
</svg>
