<?xml version="1.0" encoding="UTF-8" standalone="no"?>
<!DOCTYPE svg PUBLIC "-//W3C//DTD SVG 1.1//EN"
 "http://www.w3.org/Graphics/SVG/1.1/DTD/svg11.dtd">
<!-- Generated by graphviz version 2.43.0 (0)
 -->
<!-- Title: netspeak::add_missing Pages: 1 -->
<svg width="627pt" height="76pt"
 viewBox="0.00 0.00 627.00 75.50" xmlns="http://www.w3.org/2000/svg" xmlns:xlink="http://www.w3.org/1999/xlink">
<g id="graph0" class="graph" transform="scale(1 1) rotate(0) translate(4 71.5)">
<title>netspeak::add_missing</title>
<!-- Node1 -->
<g id="Node000001" class="node">
<title>Node1</title>
<g id="a_Node000001"><a xlink:title=" ">
<polygon fill="#999999" stroke="#666666" points="129,-40 0,-40 0,-21 129,-21 129,-40"/>
<text text-anchor="middle" x="64.5" y="-28" font-family="Helvetica,sans-Serif" font-size="10.00">netspeak::add_missing</text>
</a>
</g>
</g>
<!-- Node2 -->
<g id="Node000002" class="node">
<title>Node2</title>
<g id="a_Node000002"><a xlink:href="namespacenetspeak.html#ad26a208d24590b1200b160e2f5b94aa9" target="_top" xlink:title=" ">
<polygon fill="white" stroke="#666666" points="294,-45.5 165,-45.5 165,-15.5 294,-15.5 294,-45.5"/>
<text text-anchor="start" x="173" y="-33.5" font-family="Helvetica,sans-Serif" font-size="10.00">netspeak::find_missing</text>
<text text-anchor="middle" x="229.5" y="-22.5" font-family="Helvetica,sans-Serif" font-size="10.00">_words</text>
</a>
</g>
</g>
<!-- Node1&#45;&gt;Node2 -->
<g id="edge1_Node000001_Node000002" class="edge">
<title>Node1&#45;&gt;Node2</title>
<g id="a_edge1_Node000001_Node000002"><a xlink:title=" ">
<path fill="none" stroke="#63b8ff" d="M129.45,-30.5C137.76,-30.5 146.32,-30.5 154.77,-30.5"/>
<polygon fill="#63b8ff" stroke="#63b8ff" points="155,-34 165,-30.5 155,-27 155,-34"/>
</a>
</g>
</g>
<!-- Node3 -->
<g id="Node000003" class="node">
<title>Node3</title>
<g id="a_Node000003"><a xlink:href="namespacenetspeak_1_1error__message.html#a2a36ff57b354714213502a72e6d9d416" target="_top" xlink:title=" ">
<polygon fill="white" stroke="#666666" points="470,-67.5 330,-67.5 330,-37.5 470,-37.5 470,-67.5"/>
<text text-anchor="start" x="338" y="-55.5" font-family="Helvetica,sans-Serif" font-size="10.00">netspeak::error_message</text>
<text text-anchor="middle" x="400" y="-44.5" font-family="Helvetica,sans-Serif" font-size="10.00">::cannot_open</text>
</a>
</g>
</g>
<!-- Node2&#45;&gt;Node3 -->
<g id="edge2_Node000002_Node000003" class="edge">
<title>Node2&#45;&gt;Node3</title>
<g id="a_edge2_Node000002_Node000003"><a xlink:title=" ">
<path fill="none" stroke="#63b8ff" d="M294.2,-38.82C302.58,-39.91 311.24,-41.04 319.83,-42.16"/>
<polygon fill="#63b8ff" stroke="#63b8ff" points="319.49,-45.65 329.86,-43.47 320.4,-38.71 319.49,-45.65"/>
</a>
</g>
</g>
<!-- Node4 -->
<g id="Node000004" class="node">
<title>Node4</title>
<g id="a_Node000004"><a xlink:href="namespacenetspeak_1_1util.html#aad6c5a8708322dd600c23507cc2035f1" target="_top" xlink:title=" ">
<polygon fill="white" stroke="#666666" points="459,-19 341,-19 341,0 459,0 459,-19"/>
<text text-anchor="middle" x="400" y="-7" font-family="Helvetica,sans-Serif" font-size="10.00">netspeak::util::check</text>
</a>
</g>
</g>
<!-- Node2&#45;&gt;Node4 -->
<g id="edge3_Node000002_Node000004" class="edge">
<title>Node2&#45;&gt;Node4</title>
<g id="a_edge3_Node000002_Node000004"><a xlink:title=" ">
<path fill="none" stroke="#63b8ff" d="M294.2,-22.56C306.14,-21.07 318.67,-19.51 330.74,-18.01"/>
<polygon fill="#63b8ff" stroke="#63b8ff" points="331.26,-21.47 340.75,-16.76 330.4,-14.52 331.26,-21.47"/>
</a>
</g>
</g>
<!-- Node5 -->
<g id="Node000005" class="node">
<title>Node5</title>
<g id="a_Node000005"><a xlink:href="namespacenetspeak_1_1util.html#a4c91ad572508b4021399ac7dddff574d" target="_top" xlink:title=" ">
<polygon fill="white" stroke="#666666" points="619,-19 506,-19 506,0 619,0 619,-19"/>
<text text-anchor="middle" x="562.5" y="-7" font-family="Helvetica,sans-Serif" font-size="10.00">netspeak::util::hash</text>
</a>
</g>
</g>
<!-- Node4&#45;&gt;Node5 -->
<g id="edge4_Node000004_Node000005" class="edge">
<title>Node4&#45;&gt;Node5</title>
<g id="a_edge4_Node000004_Node000005"><a xlink:title=" ">
<path fill="none" stroke="#63b8ff" d="M459.4,-9.5C471.23,-9.5 483.75,-9.5 495.82,-9.5"/>
<polygon fill="#63b8ff" stroke="#63b8ff" points="495.82,-13 505.82,-9.5 495.82,-6 495.82,-13"/>
</a>
</g>
</g>
</g>
</svg>
