<?xml version="1.0" encoding="UTF-8" standalone="no"?>
<!DOCTYPE svg PUBLIC "-//W3C//DTD SVG 1.1//EN"
 "http://www.w3.org/Graphics/SVG/1.1/DTD/svg11.dtd">
<!-- Generated by graphviz version 2.43.0 (0)
 -->
<!-- Title: netspeak::util::fwrite Pages: 1 -->
<svg width="429pt" height="54pt"
 viewBox="0.00 0.00 429.00 53.50" xmlns="http://www.w3.org/2000/svg" xmlns:xlink="http://www.w3.org/1999/xlink">
<g id="graph0" class="graph" transform="scale(1 1) rotate(0) translate(4 49.5)">
<title>netspeak::util::fwrite</title>
<!-- Node1 -->
<g id="Node000001" class="node">
<title>Node1</title>
<g id="a_Node000001"><a xlink:title=" ">
<polygon fill="#999999" stroke="#666666" points="117,-45.5 0,-45.5 0,-26.5 117,-26.5 117,-45.5"/>
<text text-anchor="middle" x="58.5" y="-33.5" font-family="Helvetica,sans-Serif" font-size="10.00">netspeak::util::fwrite</text>
</a>
</g>
</g>
<!-- Node2 -->
<g id="Node000002" class="node">
<title>Node2</title>
<g id="a_Node000002"><a xlink:href="namespacenetspeak_1_1util.html#a4c91ad572508b4021399ac7dddff574d" target="_top" xlink:title=" ">
<polygon fill="white" stroke="#666666" points="421,-45.5 308,-45.5 308,-26.5 421,-26.5 421,-45.5"/>
<text text-anchor="middle" x="364.5" y="-33.5" font-family="Helvetica,sans-Serif" font-size="10.00">netspeak::util::hash</text>
</a>
</g>
</g>
<!-- Node1&#45;&gt;Node2 -->
<g id="edge1_Node000001_Node000002" class="edge">
<title>Node1&#45;&gt;Node2</title>
<g id="a_edge1_Node000001_Node000002"><a xlink:title=" ">
<path fill="none" stroke="#63b8ff" d="M117.35,-38.15C129.14,-38.5 141.47,-38.82 153,-39 205.88,-39.85 219.12,-39.87 272,-39 280.34,-38.86 289.1,-38.66 297.77,-38.41"/>
<polygon fill="#63b8ff" stroke="#63b8ff" points="297.97,-41.91 307.86,-38.12 297.76,-34.91 297.97,-41.91"/>
</a>
</g>
</g>
<!-- Node3 -->
<g id="Node000003" class="node">
<title>Node3</title>
<g id="a_Node000003"><a xlink:href="namespacenetspeak_1_1util.html#af94d48fda5f335ddcb461a8237079866" target="_top" xlink:title=" ">
<polygon fill="white" stroke="#666666" points="272,-30 153,-30 153,0 272,0 272,-30"/>
<text text-anchor="start" x="161" y="-18" font-family="Helvetica,sans-Serif" font-size="10.00">netspeak::util::signal</text>
<text text-anchor="middle" x="212.5" y="-7" font-family="Helvetica,sans-Serif" font-size="10.00">_error</text>
</a>
</g>
</g>
<!-- Node1&#45;&gt;Node3 -->
<g id="edge2_Node000001_Node000003" class="edge">
<title>Node1&#45;&gt;Node3</title>
<g id="a_edge2_Node000001_Node000003"><a xlink:title=" ">
<path fill="none" stroke="#63b8ff" d="M117.4,-28C125.63,-26.86 134.16,-25.68 142.58,-24.52"/>
<polygon fill="#63b8ff" stroke="#63b8ff" points="143.33,-27.95 152.75,-23.12 142.37,-21.02 143.33,-27.95"/>
</a>
</g>
</g>
<!-- Node3&#45;&gt;Node2 -->
<g id="edge3_Node000003_Node000002" class="edge">
<title>Node3&#45;&gt;Node2</title>
<g id="a_edge3_Node000003_Node000002"><a xlink:title=" ">
<path fill="none" stroke="#63b8ff" d="M272.35,-23.24C280.64,-24.4 289.2,-25.6 297.61,-26.78"/>
<polygon fill="#63b8ff" stroke="#63b8ff" points="297.37,-30.28 307.76,-28.2 298.34,-23.34 297.37,-30.28"/>
</a>
</g>
</g>
</g>
</svg>
