<?xml version="1.0" encoding="UTF-8" standalone="no"?>
<!DOCTYPE svg PUBLIC "-//W3C//DTD SVG 1.1//EN"
 "http://www.w3.org/Graphics/SVG/1.1/DTD/svg11.dtd">
<!-- Generated by graphviz version 2.43.0 (0)
 -->
<!-- Title: cli::getCorpora Pages: 1 -->
<svg width="622pt" height="119pt"
 viewBox="0.00 0.00 622.00 119.00" xmlns="http://www.w3.org/2000/svg" xmlns:xlink="http://www.w3.org/1999/xlink">
<g id="graph0" class="graph" transform="scale(1 1) rotate(0) translate(4 115)">
<title>cli::getCorpora</title>
<!-- Node1 -->
<g id="Node000001" class="node">
<title>Node1</title>
<g id="a_Node000001"><a xlink:title="Returns the corpora of the given stub.">
<polygon fill="#999999" stroke="#666666" points="614,-56 526,-56 526,-37 614,-37 614,-56"/>
<text text-anchor="middle" x="570" y="-44" font-family="Helvetica,sans-Serif" font-size="10.00">cli::getCorpora</text>
</a>
</g>
</g>
<!-- Node2 -->
<g id="Node000002" class="node">
<title>Node2</title>
<g id="a_Node000002"><a xlink:href="classcli_1_1Tester.html#ac97b86869798974eadb15c95a9e9895e" target="_top" xlink:title=" ">
<polygon fill="white" stroke="#666666" points="490,-93 340,-93 340,-74 490,-74 490,-93"/>
<text text-anchor="middle" x="415" y="-81" font-family="Helvetica,sans-Serif" font-size="10.00">cli::Tester::get_corpus_keys</text>
</a>
</g>
</g>
<!-- Node1&#45;&gt;Node2 -->
<g id="edge1_Node000001_Node000002" class="edge">
<title>Node1&#45;&gt;Node2</title>
<g id="a_edge1_Node000001_Node000002"><a xlink:title=" ">
<path fill="none" stroke="#63b8ff" d="M519.69,-58.43C498.93,-63.44 475.11,-69.21 455.53,-73.94"/>
<polygon fill="#63b8ff" stroke="#63b8ff" points="520.7,-61.78 529.6,-56.03 519.06,-54.98 520.7,-61.78"/>
</a>
</g>
</g>
<!-- Node4 -->
<g id="Node000004" class="node">
<title>Node4</title>
<g id="a_Node000004"><a xlink:href="namespacecli.html#a83d85626e46ec5febb1e46ac750f88cb" target="_top" xlink:title=" ">
<polygon fill="white" stroke="#666666" points="478.5,-56 351.5,-56 351.5,-37 478.5,-37 478.5,-56"/>
<text text-anchor="middle" x="415" y="-44" font-family="Helvetica,sans-Serif" font-size="10.00">cli::handle_corpus_key</text>
</a>
</g>
</g>
<!-- Node1&#45;&gt;Node4 -->
<g id="edge4_Node000001_Node000004" class="edge">
<title>Node1&#45;&gt;Node4</title>
<g id="a_edge4_Node000001_Node000004"><a xlink:title=" ">
<path fill="none" stroke="#63b8ff" d="M515.72,-46.5C503.77,-46.5 490.98,-46.5 478.69,-46.5"/>
<polygon fill="#63b8ff" stroke="#63b8ff" points="515.97,-50 525.97,-46.5 515.97,-43 515.97,-50"/>
</a>
</g>
</g>
<!-- Node7 -->
<g id="Node000007" class="node">
<title>Node7</title>
<g id="a_Node000007"><a xlink:href="namespacecli.html#a6a02e1a5cac70ac58dc17ac7f8c5cc00" target="_top" xlink:title=" ">
<polygon fill="white" stroke="#666666" points="462.5,-19 367.5,-19 367.5,0 462.5,0 462.5,-19"/>
<text text-anchor="middle" x="415" y="-7" font-family="Helvetica,sans-Serif" font-size="10.00">cli::scanSources</text>
</a>
</g>
</g>
<!-- Node1&#45;&gt;Node7 -->
<g id="edge7_Node000001_Node000007" class="edge">
<title>Node1&#45;&gt;Node7</title>
<g id="a_edge7_Node000001_Node000007"><a xlink:title=" ">
<path fill="none" stroke="#63b8ff" d="M519.69,-34.57C498.93,-29.56 475.11,-23.79 455.53,-19.06"/>
<polygon fill="#63b8ff" stroke="#63b8ff" points="519.06,-38.02 529.6,-36.97 520.7,-31.22 519.06,-38.02"/>
</a>
</g>
</g>
<!-- Node3 -->
<g id="Node000003" class="node">
<title>Node3</title>
<g id="a_Node000003"><a xlink:href="classcli_1_1Tester.html#a9610291065c0c28e48064bfff0538de2" target="_top" xlink:title=" ">
<polygon fill="white" stroke="#666666" points="283,-93 191,-93 191,-74 283,-74 283,-93"/>
<text text-anchor="middle" x="237" y="-81" font-family="Helvetica,sans-Serif" font-size="10.00">cli::Tester::start</text>
</a>
</g>
</g>
<!-- Node2&#45;&gt;Node3 -->
<g id="edge2_Node000002_Node000003" class="edge">
<title>Node2&#45;&gt;Node3</title>
<g id="a_edge2_Node000002_Node000003"><a xlink:title=" ">
<path fill="none" stroke="#63b8ff" d="M329.42,-83.5C313.46,-83.5 297.34,-83.5 283.18,-83.5"/>
<polygon fill="#63b8ff" stroke="#63b8ff" points="329.87,-87 339.87,-83.5 329.87,-80 329.87,-87"/>
</a>
</g>
</g>
<!-- Node3&#45;&gt;Node3 -->
<g id="edge3_Node000003_Node000003" class="edge">
<title>Node3&#45;&gt;Node3</title>
<g id="a_edge3_Node000003_Node000003"><a xlink:title=" ">
<path fill="none" stroke="#63b8ff" d="M268.81,-101.45C267.9,-106.82 257.3,-111 237,-111 206.79,-111 198.05,-101.73 210.8,-93.08"/>
<polygon fill="#63b8ff" stroke="#63b8ff" points="271.68,-99.44 263.2,-93.08 265.86,-103.34 271.68,-99.44"/>
</a>
</g>
</g>
<!-- Node5 -->
<g id="Node000005" class="node">
<title>Node5</title>
<g id="a_Node000005"><a xlink:href="namespacecli.html#af5a194c0dcd2ddaa3314841efa4331b5" target="_top" xlink:title=" ">
<polygon fill="white" stroke="#666666" points="304,-56 170,-56 170,-37 304,-37 304,-56"/>
<text text-anchor="middle" x="237" y="-44" font-family="Helvetica,sans-Serif" font-size="10.00">cli::RunLocalServerShell</text>
</a>
</g>
</g>
<!-- Node4&#45;&gt;Node5 -->
<g id="edge5_Node000004_Node000005" class="edge">
<title>Node4&#45;&gt;Node5</title>
<g id="a_edge5_Node000004_Node000005"><a xlink:title=" ">
<path fill="none" stroke="#63b8ff" d="M341.26,-46.5C328.99,-46.5 316.31,-46.5 304.22,-46.5"/>
<polygon fill="#63b8ff" stroke="#63b8ff" points="341.45,-50 351.45,-46.5 341.45,-43 341.45,-50"/>
</a>
</g>
</g>
<!-- Node6 -->
<g id="Node000006" class="node">
<title>Node6</title>
<g id="a_Node000006"><a xlink:href="classcli_1_1ShellCommand.html#aceeb2ce4939da7366e5a2b577e5b0db1" target="_top" xlink:title=" ">
<polygon fill="white" stroke="#666666" points="132,-56 2,-56 2,-37 132,-37 132,-56"/>
<text text-anchor="middle" x="67" y="-44" font-family="Helvetica,sans-Serif" font-size="10.00">cli::ShellCommand::run</text>
</a>
</g>
</g>
<!-- Node5&#45;&gt;Node6 -->
<g id="edge6_Node000005_Node000006" class="edge">
<title>Node5&#45;&gt;Node6</title>
<g id="a_edge6_Node000005_Node000006"><a xlink:title=" ">
<path fill="none" stroke="#63b8ff" d="M159.43,-46.5C150.35,-46.5 141.15,-46.5 132.27,-46.5"/>
<polygon fill="#63b8ff" stroke="#63b8ff" points="159.6,-50 169.6,-46.5 159.6,-43 159.6,-50"/>
</a>
</g>
</g>
<!-- Node8 -->
<g id="Node000008" class="node">
<title>Node8</title>
<g id="a_Node000008"><a xlink:href="namespacecli.html#ab3047781f5c7e722415ab5ac13152596" target="_top" xlink:title=" ">
<polygon fill="white" stroke="#666666" points="302.5,-19 171.5,-19 171.5,0 302.5,0 302.5,-19"/>
<text text-anchor="middle" x="237" y="-7" font-family="Helvetica,sans-Serif" font-size="10.00">cli::build_proxy_service</text>
</a>
</g>
</g>
<!-- Node7&#45;&gt;Node8 -->
<g id="edge8_Node000007_Node000008" class="edge">
<title>Node7&#45;&gt;Node8</title>
<g id="a_edge8_Node000007_Node000008"><a xlink:title=" ">
<path fill="none" stroke="#63b8ff" d="M356.82,-9.5C339.57,-9.5 320.52,-9.5 302.81,-9.5"/>
<polygon fill="#63b8ff" stroke="#63b8ff" points="357.3,-13 367.3,-9.5 357.3,-6 357.3,-13"/>
</a>
</g>
</g>
<!-- Node9 -->
<g id="Node000009" class="node">
<title>Node9</title>
<g id="a_Node000009"><a xlink:href="classcli_1_1ProxyCommand.html#a50dcb9c42e6b385a65354f9b999901ce" target="_top" xlink:title=" ">
<polygon fill="white" stroke="#666666" points="134,-19 0,-19 0,0 134,0 134,-19"/>
<text text-anchor="middle" x="67" y="-7" font-family="Helvetica,sans-Serif" font-size="10.00">cli::ProxyCommand::run</text>
</a>
</g>
</g>
<!-- Node8&#45;&gt;Node9 -->
<g id="edge9_Node000008_Node000009" class="edge">
<title>Node8&#45;&gt;Node9</title>
<g id="a_edge9_Node000008_Node000009"><a xlink:title=" ">
<path fill="none" stroke="#63b8ff" d="M161.02,-9.5C152.07,-9.5 142.98,-9.5 134.17,-9.5"/>
<polygon fill="#63b8ff" stroke="#63b8ff" points="161.05,-13 171.05,-9.5 161.05,-6 161.05,-13"/>
</a>
</g>
</g>
</g>
</svg>
