<?xml version="1.0" encoding="UTF-8" standalone="no"?>
<!DOCTYPE svg PUBLIC "-//W3C//DTD SVG 1.1//EN"
 "http://www.w3.org/Graphics/SVG/1.1/DTD/svg11.dtd">
<!-- Generated by graphviz version 2.43.0 (0)
 -->
<!-- Title: cli::print_commands_help Pages: 1 -->
<svg width="678pt" height="176pt"
 viewBox="0.00 0.00 678.00 176.10" xmlns="http://www.w3.org/2000/svg" xmlns:xlink="http://www.w3.org/1999/xlink">
<g id="graph0" class="graph" transform="scale(1 1) rotate(0) translate(4 172.1)">
<title>cli::print_commands_help</title>
<!-- Node1 -->
<g id="Node000001" class="node">
<title>Node1</title>
<g id="a_Node000001"><a xlink:title="Print a short help message that lists all available commands.">
<polygon fill="#999999" stroke="#666666" points="142,-84 0,-84 0,-65 142,-65 142,-84"/>
<text text-anchor="middle" x="71" y="-72" font-family="Helvetica,sans-Serif" font-size="10.00">cli::print_commands_help</text>
</a>
</g>
</g>
<!-- Node2 -->
<g id="Node000002" class="node">
<title>Node2</title>
<g id="a_Node000002"><a xlink:href="namespacecli.html#a7a53f12676e9ac752c1fe8327f55fd34" target="_top" xlink:title=" ">
<polygon fill="white" stroke="#666666" points="295,-121 198,-121 198,-102 295,-102 295,-121"/>
<text text-anchor="middle" x="246.5" y="-109" font-family="Helvetica,sans-Serif" font-size="10.00">cli::get_first_line</text>
</a>
</g>
</g>
<!-- Node1&#45;&gt;Node2 -->
<g id="edge1_Node000001_Node000002" class="edge">
<title>Node1&#45;&gt;Node2</title>
<g id="a_edge1_Node000001_Node000002"><a xlink:title=" ">
<path fill="none" stroke="#63b8ff" d="M116.68,-84.03C139.26,-88.84 166.85,-94.73 190.7,-99.81"/>
<polygon fill="#63b8ff" stroke="#63b8ff" points="190.16,-103.28 200.67,-101.94 191.62,-96.43 190.16,-103.28"/>
</a>
</g>
</g>
<!-- Node3 -->
<g id="Node000003" class="node">
<title>Node3</title>
<g id="a_Node000003"><a xlink:href="namespacecli.html#afa35336b7c594c68eb850544a1ae6b41" target="_top" xlink:title=" ">
<polygon fill="white" stroke="#666666" points="315,-84 178,-84 178,-65 315,-65 315,-84"/>
<text text-anchor="middle" x="246.5" y="-72" font-family="Helvetica,sans-Serif" font-size="10.00">cli::print_command_help</text>
</a>
</g>
</g>
<!-- Node1&#45;&gt;Node3 -->
<g id="edge2_Node000001_Node000003" class="edge">
<title>Node1&#45;&gt;Node3</title>
<g id="a_edge2_Node000001_Node000003"><a xlink:title=" ">
<path fill="none" stroke="#63b8ff" d="M142.07,-74.5C150.59,-74.5 159.33,-74.5 167.94,-74.5"/>
<polygon fill="#63b8ff" stroke="#63b8ff" points="167.98,-78 177.98,-74.5 167.98,-71 167.98,-78"/>
</a>
</g>
</g>
<!-- Node9 -->
<g id="Node000009" class="node">
<title>Node9</title>
<g id="a_Node000009"><a xlink:href="namespacecli.html#a176ef3b1efb7c9ba45ff614d5ae0aacd" target="_top" xlink:title=" ">
<polygon fill="white" stroke="#666666" points="458.5,-19 377.5,-19 377.5,0 458.5,0 458.5,-19"/>
<text text-anchor="middle" x="418" y="-7" font-family="Helvetica,sans-Serif" font-size="10.00">cli::print_text</text>
</a>
</g>
</g>
<!-- Node1&#45;&gt;Node9 -->
<g id="edge11_Node000001_Node000009" class="edge">
<title>Node1&#45;&gt;Node9</title>
<g id="a_edge11_Node000001_Node000009"><a xlink:title=" ">
<path fill="none" stroke="#63b8ff" d="M122.54,-64.98C188.18,-52.61 302.07,-31.15 367.3,-18.86"/>
<polygon fill="#63b8ff" stroke="#63b8ff" points="368.16,-22.26 377.34,-16.97 366.86,-15.38 368.16,-22.26"/>
</a>
</g>
</g>
<!-- Node4 -->
<g id="Node000004" class="node">
<title>Node4</title>
<g id="a_Node000004"><a xlink:href="classcli_1_1Command.html#ad1d4b2459b72ddab8cec0279f576b7a0" target="_top" xlink:title=" ">
<polygon fill="white" stroke="#666666" points="652,-167 539,-167 539,-148 652,-148 652,-167"/>
<text text-anchor="middle" x="595.5" y="-155" font-family="Helvetica,sans-Serif" font-size="10.00">cli::Command::desc</text>
</a>
</g>
</g>
<!-- Node3&#45;&gt;Node4 -->
<g id="edge3_Node000003_Node000004" class="edge">
<title>Node3&#45;&gt;Node4</title>
<g id="a_edge3_Node000003_Node000004"><a xlink:title=" ">
<path fill="none" stroke="#63b8ff" d="M296,-84.09C302.69,-86.55 309.24,-89.64 315,-93.5 336.56,-107.96 328.1,-127.28 351,-139.5 405.69,-168.69 477.37,-170.4 528.77,-166.51"/>
<polygon fill="#63b8ff" stroke="#63b8ff" points="529.1,-169.99 538.77,-165.66 528.51,-163.02 529.1,-169.99"/>
</a>
</g>
</g>
<!-- Node5 -->
<g id="Node000005" class="node">
<title>Node5</title>
<g id="a_Node000005"><a xlink:href="namespacecli.html#a3aacc4bf1a67732a492a18bc25fcd211" target="_top" xlink:title=" ">
<polygon fill="white" stroke="#666666" points="474.5,-130 361.5,-130 361.5,-111 474.5,-111 474.5,-130"/>
<text text-anchor="middle" x="418" y="-118" font-family="Helvetica,sans-Serif" font-size="10.00">cli::get_option_desc</text>
</a>
</g>
</g>
<!-- Node3&#45;&gt;Node5 -->
<g id="edge4_Node000003_Node000005" class="edge">
<title>Node3&#45;&gt;Node5</title>
<g id="a_edge4_Node000003_Node000005"><a xlink:title=" ">
<path fill="none" stroke="#63b8ff" d="M282.62,-84.03C308.53,-91.06 343.99,-100.69 371.98,-108.28"/>
<polygon fill="#63b8ff" stroke="#63b8ff" points="371.36,-111.74 381.92,-110.98 373.19,-104.98 371.36,-111.74"/>
</a>
</g>
</g>
<!-- Node7 -->
<g id="Node000007" class="node">
<title>Node7</title>
<g id="a_Node000007"><a xlink:href="namespacecli.html#affe799d66dff4cf3b7872b5c76382a8d" target="_top" xlink:title=" ">
<polygon fill="white" stroke="#666666" points="485,-93 351,-93 351,-74 485,-74 485,-93"/>
<text text-anchor="middle" x="418" y="-81" font-family="Helvetica,sans-Serif" font-size="10.00">cli::get_option_identifier</text>
</a>
</g>
</g>
<!-- Node3&#45;&gt;Node7 -->
<g id="edge7_Node000003_Node000007" class="edge">
<title>Node3&#45;&gt;Node7</title>
<g id="a_edge7_Node000003_Node000007"><a xlink:title=" ">
<path fill="none" stroke="#63b8ff" d="M315.47,-78.11C323.78,-78.55 332.32,-79 340.75,-79.45"/>
<polygon fill="#63b8ff" stroke="#63b8ff" points="340.78,-82.96 350.95,-79.99 341.15,-75.97 340.78,-82.96"/>
</a>
</g>
</g>
<!-- Node8 -->
<g id="Node000008" class="node">
<title>Node8</title>
<g id="a_Node000008"><a xlink:href="classcli_1_1Command.html#a8dcc4261b4cdd458bd235f19eb604507" target="_top" xlink:title=" ">
<polygon fill="white" stroke="#666666" points="477,-56 359,-56 359,-37 477,-37 477,-56"/>
<text text-anchor="middle" x="418" y="-44" font-family="Helvetica,sans-Serif" font-size="10.00">cli::Command::name</text>
</a>
</g>
</g>
<!-- Node3&#45;&gt;Node8 -->
<g id="edge8_Node000003_Node000008" class="edge">
<title>Node3&#45;&gt;Node8</title>
<g id="a_edge8_Node000003_Node000008"><a xlink:title=" ">
<path fill="none" stroke="#63b8ff" d="M305.36,-64.94C319.54,-62.6 334.84,-60.07 349.44,-57.66"/>
<polygon fill="#63b8ff" stroke="#63b8ff" points="350.11,-61.1 359.4,-56.01 348.97,-54.19 350.11,-61.1"/>
</a>
</g>
</g>
<!-- Node3&#45;&gt;Node9 -->
<g id="edge9_Node000003_Node000009" class="edge">
<title>Node3&#45;&gt;Node9</title>
<g id="a_edge9_Node000003_Node000009"><a xlink:title=" ">
<path fill="none" stroke="#63b8ff" d="M266.2,-64.91C286.64,-54.68 320.56,-38.48 351,-27.5 356.51,-25.51 362.35,-23.62 368.18,-21.86"/>
<polygon fill="#63b8ff" stroke="#63b8ff" points="369.31,-25.18 377.94,-19.04 367.36,-18.46 369.31,-25.18"/>
</a>
</g>
</g>
<!-- Node5&#45;&gt;Node4 -->
<g id="edge6_Node000005_Node000004" class="edge">
<title>Node5&#45;&gt;Node4</title>
<g id="a_edge6_Node000005_Node000004"><a xlink:title=" ">
<path fill="none" stroke="#63b8ff" d="M464.2,-130.03C487.03,-134.84 514.95,-140.73 539.07,-145.81"/>
<polygon fill="#63b8ff" stroke="#63b8ff" points="538.65,-149.3 549.15,-147.94 540.09,-142.45 538.65,-149.3"/>
</a>
</g>
</g>
<!-- Node6 -->
<g id="Node000006" class="node">
<title>Node6</title>
<g id="a_Node000006"><a xlink:href="classcli_1_1Command.html#a384df28e8769751598c52346deebeb77" target="_top" xlink:title=" ">
<polygon fill="white" stroke="#666666" points="670,-130 521,-130 521,-111 670,-111 670,-130"/>
<text text-anchor="middle" x="595.5" y="-118" font-family="Helvetica,sans-Serif" font-size="10.00">cli::Command::add_options</text>
</a>
</g>
</g>
<!-- Node5&#45;&gt;Node6 -->
<g id="edge5_Node000005_Node000006" class="edge">
<title>Node5&#45;&gt;Node6</title>
<g id="a_edge5_Node000005_Node000006"><a xlink:title=" ">
<path fill="none" stroke="#63b8ff" d="M474.53,-120.5C485.98,-120.5 498.29,-120.5 510.5,-120.5"/>
<polygon fill="#63b8ff" stroke="#63b8ff" points="510.71,-124 520.71,-120.5 510.71,-117 510.71,-124"/>
</a>
</g>
</g>
<!-- Node10 -->
<g id="Node000010" class="node">
<title>Node10</title>
<g id="a_Node000010"><a xlink:href="namespacecli.html#a37b490d397c09cf994d962212b4a4f7a" target="_top" xlink:title=" ">
<polygon fill="white" stroke="#666666" points="635.5,-19 555.5,-19 555.5,0 635.5,0 635.5,-19"/>
<text text-anchor="middle" x="595.5" y="-7" font-family="Helvetica,sans-Serif" font-size="10.00">cli::print_line</text>
</a>
</g>
</g>
<!-- Node9&#45;&gt;Node10 -->
<g id="edge10_Node000009_Node000010" class="edge">
<title>Node9&#45;&gt;Node10</title>
<g id="a_edge10_Node000009_Node000010"><a xlink:title=" ">
<path fill="none" stroke="#63b8ff" d="M458.82,-9.5C484.47,-9.5 518,-9.5 545.31,-9.5"/>
<polygon fill="#63b8ff" stroke="#63b8ff" points="545.44,-13 555.44,-9.5 545.44,-6 545.44,-13"/>
</a>
</g>
</g>
</g>
</svg>
