<?xml version="1.0" encoding="UTF-8" standalone="no"?>
<!DOCTYPE svg PUBLIC "-//W3C//DTD SVG 1.1//EN"
 "http://www.w3.org/Graphics/SVG/1.1/DTD/svg11.dtd">
<!-- Generated by graphviz version 2.43.0 (0)
 -->
<!-- Title: cli::newStub Pages: 1 -->
<svg width="552pt" height="27pt"
 viewBox="0.00 0.00 552.00 27.00" xmlns="http://www.w3.org/2000/svg" xmlns:xlink="http://www.w3.org/1999/xlink">
<g id="graph0" class="graph" transform="scale(1 1) rotate(0) translate(4 23)">
<title>cli::newStub</title>
<!-- Node1 -->
<g id="Node000001" class="node">
<title>Node1</title>
<g id="a_Node000001"><a xlink:title=" ">
<polygon fill="#999999" stroke="#666666" points="544,-19 468,-19 468,0 544,0 544,-19"/>
<text text-anchor="middle" x="506" y="-7" font-family="Helvetica,sans-Serif" font-size="10.00">cli::newStub</text>
</a>
</g>
</g>
<!-- Node2 -->
<g id="Node000002" class="node">
<title>Node2</title>
<g id="a_Node000002"><a xlink:href="namespacecli.html#a6a02e1a5cac70ac58dc17ac7f8c5cc00" target="_top" xlink:title=" ">
<polygon fill="white" stroke="#666666" points="432,-19 337,-19 337,0 432,0 432,-19"/>
<text text-anchor="middle" x="384.5" y="-7" font-family="Helvetica,sans-Serif" font-size="10.00">cli::scanSources</text>
</a>
</g>
</g>
<!-- Node1&#45;&gt;Node2 -->
<g id="edge1_Node000001_Node000002" class="edge">
<title>Node1&#45;&gt;Node2</title>
<g id="a_edge1_Node000001_Node000002"><a xlink:title=" ">
<path fill="none" stroke="#63b8ff" d="M457.83,-9.5C449.45,-9.5 440.72,-9.5 432.34,-9.5"/>
<polygon fill="#63b8ff" stroke="#63b8ff" points="457.84,-13 467.84,-9.5 457.84,-6 457.84,-13"/>
</a>
</g>
</g>
<!-- Node3 -->
<g id="Node000003" class="node">
<title>Node3</title>
<g id="a_Node000003"><a xlink:href="namespacecli.html#ab3047781f5c7e722415ab5ac13152596" target="_top" xlink:title=" ">
<polygon fill="white" stroke="#666666" points="301,-19 170,-19 170,0 301,0 301,-19"/>
<text text-anchor="middle" x="235.5" y="-7" font-family="Helvetica,sans-Serif" font-size="10.00">cli::build_proxy_service</text>
</a>
</g>
</g>
<!-- Node2&#45;&gt;Node3 -->
<g id="edge2_Node000002_Node000003" class="edge">
<title>Node2&#45;&gt;Node3</title>
<g id="a_edge2_Node000002_Node000003"><a xlink:title=" ">
<path fill="none" stroke="#63b8ff" d="M326.92,-9.5C318.52,-9.5 309.8,-9.5 301.24,-9.5"/>
<polygon fill="#63b8ff" stroke="#63b8ff" points="326.99,-13 336.99,-9.5 326.99,-6 326.99,-13"/>
</a>
</g>
</g>
<!-- Node4 -->
<g id="Node000004" class="node">
<title>Node4</title>
<g id="a_Node000004"><a xlink:href="classcli_1_1ProxyCommand.html#a50dcb9c42e6b385a65354f9b999901ce" target="_top" xlink:title=" ">
<polygon fill="white" stroke="#666666" points="134,-19 0,-19 0,0 134,0 134,-19"/>
<text text-anchor="middle" x="67" y="-7" font-family="Helvetica,sans-Serif" font-size="10.00">cli::ProxyCommand::run</text>
</a>
</g>
</g>
<!-- Node3&#45;&gt;Node4 -->
<g id="edge3_Node000003_Node000004" class="edge">
<title>Node3&#45;&gt;Node4</title>
<g id="a_edge3_Node000003_Node000004"><a xlink:title=" ">
<path fill="none" stroke="#63b8ff" d="M159.41,-9.5C150.95,-9.5 142.38,-9.5 134.04,-9.5"/>
<polygon fill="#63b8ff" stroke="#63b8ff" points="159.65,-13 169.65,-9.5 159.65,-6 159.65,-13"/>
</a>
</g>
</g>
</g>
</svg>
