<?xml version="1.0" encoding="UTF-8" standalone="no"?>
<!DOCTYPE svg PUBLIC "-//W3C//DTD SVG 1.1//EN"
 "http://www.w3.org/Graphics/SVG/1.1/DTD/svg11.dtd">
<!-- Generated by graphviz version 2.43.0 (0)
 -->
<!-- Title: netspeak::util::ftell Pages: 1 -->
<svg width="681pt" height="233pt"
 viewBox="0.00 0.00 681.00 233.00" xmlns="http://www.w3.org/2000/svg" xmlns:xlink="http://www.w3.org/1999/xlink">
<g id="graph0" class="graph" transform="scale(1 1) rotate(0) translate(4 229)">
<title>netspeak::util::ftell</title>
<!-- Node1 -->
<g id="Node000001" class="node">
<title>Node1</title>
<g id="a_Node000001"><a xlink:title=" ">
<polygon fill="#999999" stroke="#666666" points="673,-147.5 565,-147.5 565,-128.5 673,-128.5 673,-147.5"/>
<text text-anchor="middle" x="619" y="-135.5" font-family="Helvetica,sans-Serif" font-size="10.00">netspeak::util::ftell</text>
</a>
</g>
</g>
<!-- Node2 -->
<g id="Node000002" class="node">
<title>Node2</title>
<g id="a_Node000002"><a xlink:href="classnetspeak_1_1invertedindex_1_1PostlistReader.html#a842a92ec19eeecf74c7a8ae80e1ee1af" target="_top" xlink:title=" ">
<polygon fill="white" stroke="#666666" points="529,-177 394,-177 394,-147 529,-147 529,-177"/>
<text text-anchor="start" x="402" y="-165" font-family="Helvetica,sans-Serif" font-size="10.00">netspeak::invertedindex</text>
<text text-anchor="middle" x="461.5" y="-154" font-family="Helvetica,sans-Serif" font-size="10.00">::PostlistReader::read</text>
</a>
</g>
</g>
<!-- Node1&#45;&gt;Node2 -->
<g id="edge1_Node000001_Node000002" class="edge">
<title>Node1&#45;&gt;Node2</title>
<g id="a_edge1_Node000001_Node000002"><a xlink:title=" ">
<path fill="none" stroke="#63b8ff" d="M555.03,-147.72C546.49,-149.04 537.7,-150.39 529.09,-151.72"/>
<polygon fill="#63b8ff" stroke="#63b8ff" points="555.57,-151.18 564.92,-146.19 554.5,-144.26 555.57,-151.18"/>
</a>
</g>
</g>
<!-- Node6 -->
<g id="Node000006" class="node">
<title>Node6</title>
<g id="a_Node000006"><a xlink:href="classnetspeak_1_1invertedindex_1_1StorageWriter.html#a84b8042112d8e747ea62522d157c2249" target="_top" xlink:title=" ">
<polygon fill="white" stroke="#666666" points="529,-129 394,-129 394,-99 529,-99 529,-129"/>
<text text-anchor="start" x="402" y="-117" font-family="Helvetica,sans-Serif" font-size="10.00">netspeak::invertedindex</text>
<text text-anchor="middle" x="461.5" y="-106" font-family="Helvetica,sans-Serif" font-size="10.00">::StorageWriter::write</text>
</a>
</g>
</g>
<!-- Node1&#45;&gt;Node6 -->
<g id="edge5_Node000001_Node000006" class="edge">
<title>Node1&#45;&gt;Node6</title>
<g id="a_edge5_Node000001_Node000006"><a xlink:title=" ">
<path fill="none" stroke="#63b8ff" d="M555.03,-128.28C546.49,-126.96 537.7,-125.61 529.09,-124.28"/>
<polygon fill="#63b8ff" stroke="#63b8ff" points="554.5,-131.74 564.92,-129.81 555.57,-124.82 554.5,-131.74"/>
</a>
</g>
</g>
<!-- Node3 -->
<g id="Node000003" class="node">
<title>Node3</title>
<g id="a_Node000003"><a xlink:href="classnetspeak_1_1invertedindex_1_1StorageReader.html#a17bfa1d64575d331ae0a95bc4188005b" target="_top" xlink:title=" ">
<polygon fill="white" stroke="#666666" points="358,-177 197,-177 197,-147 358,-147 358,-177"/>
<text text-anchor="start" x="205" y="-165" font-family="Helvetica,sans-Serif" font-size="10.00">netspeak::invertedindex</text>
<text text-anchor="middle" x="277.5" y="-154" font-family="Helvetica,sans-Serif" font-size="10.00">::StorageReader::ReadPostlist</text>
</a>
</g>
</g>
<!-- Node2&#45;&gt;Node3 -->
<g id="edge2_Node000002_Node000003" class="edge">
<title>Node2&#45;&gt;Node3</title>
<g id="a_edge2_Node000002_Node000003"><a xlink:title=" ">
<path fill="none" stroke="#63b8ff" d="M383.61,-162C375.21,-162 366.64,-162 358.2,-162"/>
<polygon fill="#63b8ff" stroke="#63b8ff" points="383.76,-165.5 393.76,-162 383.76,-158.5 383.76,-165.5"/>
</a>
</g>
</g>
<!-- Node4 -->
<g id="Node000004" class="node">
<title>Node4</title>
<g id="a_Node000004"><a xlink:href="classnetspeak_1_1invertedindex_1_1StorageReader.html#ab6e2061d842d4fd8d35fc000fedd41c2" target="_top" xlink:title=" ">
<polygon fill="white" stroke="#666666" points="161,-225 0,-225 0,-195 161,-195 161,-225"/>
<text text-anchor="start" x="8" y="-213" font-family="Helvetica,sans-Serif" font-size="10.00">netspeak::invertedindex</text>
<text text-anchor="middle" x="80.5" y="-202" font-family="Helvetica,sans-Serif" font-size="10.00">::StorageReader::ReadPostlist</text>
</a>
</g>
</g>
<!-- Node3&#45;&gt;Node4 -->
<g id="edge3_Node000003_Node000004" class="edge">
<title>Node3&#45;&gt;Node4</title>
<g id="a_edge3_Node000003_Node000004"><a xlink:title=" ">
<path fill="none" stroke="#63b8ff" d="M205.36,-179.51C184.73,-184.59 162.4,-190.09 142.45,-195"/>
<polygon fill="#63b8ff" stroke="#63b8ff" points="206.46,-182.84 215.34,-177.06 204.79,-176.05 206.46,-182.84"/>
</a>
</g>
</g>
<!-- Node5 -->
<g id="Node000005" class="node">
<title>Node5</title>
<g id="a_Node000005"><a xlink:href="classnetspeak_1_1invertedindex_1_1StorageReader.html#a529c086e636606ac8adc5a72abfe57f5" target="_top" xlink:title=" ">
<polygon fill="white" stroke="#666666" points="161,-177 0,-177 0,-147 161,-147 161,-177"/>
<text text-anchor="start" x="8" y="-165" font-family="Helvetica,sans-Serif" font-size="10.00">netspeak::invertedindex</text>
<text text-anchor="middle" x="80.5" y="-154" font-family="Helvetica,sans-Serif" font-size="10.00">::StorageReader::ReadPostlist</text>
</a>
</g>
</g>
<!-- Node3&#45;&gt;Node5 -->
<g id="edge4_Node000003_Node000005" class="edge">
<title>Node3&#45;&gt;Node5</title>
<g id="a_edge4_Node000003_Node000005"><a xlink:title=" ">
<path fill="none" stroke="#63b8ff" d="M186.88,-162C178.3,-162 169.64,-162 161.16,-162"/>
<polygon fill="#63b8ff" stroke="#63b8ff" points="186.9,-165.5 196.9,-162 186.9,-158.5 186.9,-165.5"/>
</a>
</g>
</g>
<!-- Node7 -->
<g id="Node000007" class="node">
<title>Node7</title>
<g id="a_Node000007"><a xlink:href="classnetspeak_1_1invertedindex_1_1UnsortedInput.html#a7e52c2f2d76a1897a5ec1ebf05744dbb" target="_top" xlink:title=" ">
<polygon fill="white" stroke="#666666" points="345,-129 210,-129 210,-99 345,-99 345,-129"/>
<text text-anchor="start" x="218" y="-117" font-family="Helvetica,sans-Serif" font-size="10.00">netspeak::invertedindex</text>
<text text-anchor="middle" x="277.5" y="-106" font-family="Helvetica,sans-Serif" font-size="10.00">::UnsortedInput::store</text>
</a>
</g>
</g>
<!-- Node6&#45;&gt;Node7 -->
<g id="edge6_Node000006_Node000007" class="edge">
<title>Node6&#45;&gt;Node7</title>
<g id="a_edge6_Node000006_Node000007"><a xlink:title=" ">
<path fill="none" stroke="#63b8ff" d="M383.63,-114C370.86,-114 357.72,-114 345.23,-114"/>
<polygon fill="#63b8ff" stroke="#63b8ff" points="383.76,-117.5 393.76,-114 383.76,-110.5 383.76,-117.5"/>
</a>
</g>
</g>
<!-- Node9 -->
<g id="Node000009" class="node">
<title>Node9</title>
<g id="a_Node000009"><a xlink:href="classnetspeak_1_1invertedindex_1_1SortedInput.html#a7a0960a0a573256e0887b29e8650a799" target="_top" xlink:title=" ">
<polygon fill="white" stroke="#666666" points="352,-80.5 203,-80.5 203,-39.5 352,-39.5 352,-80.5"/>
<text text-anchor="start" x="211" y="-68.5" font-family="Helvetica,sans-Serif" font-size="10.00">netspeak::invertedindex</text>
<text text-anchor="start" x="211" y="-57.5" font-family="Helvetica,sans-Serif" font-size="10.00">::SortedInput::write_current</text>
<text text-anchor="middle" x="277.5" y="-46.5" font-family="Helvetica,sans-Serif" font-size="10.00">_postlist_</text>
</a>
</g>
</g>
<!-- Node6&#45;&gt;Node9 -->
<g id="edge8_Node000006_Node000009" class="edge">
<title>Node6&#45;&gt;Node9</title>
<g id="a_edge8_Node000006_Node000009"><a xlink:title=" ">
<path fill="none" stroke="#63b8ff" d="M400.11,-96.08C383.29,-91.09 364.9,-85.64 347.63,-80.51"/>
<polygon fill="#63b8ff" stroke="#63b8ff" points="399.22,-99.47 409.8,-98.96 401.21,-92.76 399.22,-99.47"/>
</a>
</g>
</g>
<!-- Node8 -->
<g id="Node000008" class="node">
<title>Node8</title>
<g id="a_Node000008"><a xlink:href="classnetspeak_1_1invertedindex_1_1UnsortedInput.html#a3bf52078c65c198e542a3e16d42eff20" target="_top" xlink:title=" ">
<polygon fill="white" stroke="#666666" points="148,-129 13,-129 13,-99 148,-99 148,-129"/>
<text text-anchor="start" x="21" y="-117" font-family="Helvetica,sans-Serif" font-size="10.00">netspeak::invertedindex</text>
<text text-anchor="middle" x="80.5" y="-106" font-family="Helvetica,sans-Serif" font-size="10.00">::UnsortedInput::index</text>
</a>
</g>
</g>
<!-- Node7&#45;&gt;Node8 -->
<g id="edge7_Node000007_Node000008" class="edge">
<title>Node7&#45;&gt;Node8</title>
<g id="a_edge7_Node000007_Node000008"><a xlink:title=" ">
<path fill="none" stroke="#63b8ff" d="M199.49,-114C182.5,-114 164.63,-114 148.09,-114"/>
<polygon fill="#63b8ff" stroke="#63b8ff" points="199.94,-117.5 209.94,-114 199.94,-110.5 199.94,-117.5"/>
</a>
</g>
</g>
<!-- Node10 -->
<g id="Node000010" class="node">
<title>Node10</title>
<g id="a_Node000010"><a xlink:href="classnetspeak_1_1invertedindex_1_1SortedInput.html#ae3183e635b4fa91c0b855773b95ce99c" target="_top" xlink:title=" ">
<polygon fill="white" stroke="#666666" points="148,-78 13,-78 13,-48 148,-48 148,-78"/>
<text text-anchor="start" x="21" y="-66" font-family="Helvetica,sans-Serif" font-size="10.00">netspeak::invertedindex</text>
<text text-anchor="middle" x="80.5" y="-55" font-family="Helvetica,sans-Serif" font-size="10.00">::SortedInput::index</text>
</a>
</g>
</g>
<!-- Node9&#45;&gt;Node10 -->
<g id="edge9_Node000009_Node000010" class="edge">
<title>Node9&#45;&gt;Node10</title>
<g id="a_edge9_Node000009_Node000010"><a xlink:title=" ">
<path fill="none" stroke="#63b8ff" d="M192.61,-61.29C177.79,-61.52 162.54,-61.75 148.27,-61.97"/>
<polygon fill="#63b8ff" stroke="#63b8ff" points="192.83,-64.79 202.78,-61.13 192.73,-57.79 192.83,-64.79"/>
</a>
</g>
</g>
<!-- Node11 -->
<g id="Node000011" class="node">
<title>Node11</title>
<g id="a_Node000011"><a xlink:href="classnetspeak_1_1invertedindex_1_1SortedInput.html#a6aff15206149d6721ea2bbd44a1aebd6" target="_top" xlink:title=" ">
<polygon fill="white" stroke="#666666" points="148,-30 13,-30 13,0 148,0 148,-30"/>
<text text-anchor="start" x="21" y="-18" font-family="Helvetica,sans-Serif" font-size="10.00">netspeak::invertedindex</text>
<text text-anchor="middle" x="80.5" y="-7" font-family="Helvetica,sans-Serif" font-size="10.00">::SortedInput::insert_</text>
</a>
</g>
</g>
<!-- Node9&#45;&gt;Node11 -->
<g id="edge10_Node000009_Node000011" class="edge">
<title>Node9&#45;&gt;Node11</title>
<g id="a_edge10_Node000009_Node000011"><a xlink:title=" ">
<path fill="none" stroke="#63b8ff" d="M192.74,-40.67C177.33,-37.11 161.45,-33.45 146.69,-30.04"/>
<polygon fill="#63b8ff" stroke="#63b8ff" points="192.25,-44.15 202.78,-42.99 193.82,-37.33 192.25,-44.15"/>
</a>
</g>
</g>
</g>
</svg>
