<?xml version="1.0" encoding="UTF-8" standalone="no"?>
<!DOCTYPE svg PUBLIC "-//W3C//DTD SVG 1.1//EN"
 "http://www.w3.org/Graphics/SVG/1.1/DTD/svg11.dtd">
<!-- Generated by graphviz version 2.43.0 (0)
 -->
<!-- Title: netspeak::BuildRegexVocabulary Pages: 1 -->
<svg width="853pt" height="167pt"
 viewBox="0.00 0.00 853.00 167.00" xmlns="http://www.w3.org/2000/svg" xmlns:xlink="http://www.w3.org/1999/xlink">
<g id="graph0" class="graph" transform="scale(1 1) rotate(0) translate(4 163)">
<title>netspeak::BuildRegexVocabulary</title>
<!-- Node1 -->
<g id="Node000001" class="node">
<title>Node1</title>
<g id="a_Node000001"><a xlink:title=" ">
<polygon fill="#999999" stroke="#666666" points="177,-88.5 0,-88.5 0,-69.5 177,-69.5 177,-88.5"/>
<text text-anchor="middle" x="88.5" y="-76.5" font-family="Helvetica,sans-Serif" font-size="10.00">netspeak::BuildRegexVocabulary</text>
</a>
</g>
</g>
<!-- Node2 -->
<g id="Node000002" class="node">
<title>Node2</title>
<g id="a_Node000002"><a xlink:href="namespacenetspeak.html#a14c12d265b692be168a14990ed2c68e8" target="_top" xlink:title=" ">
<polygon fill="white" stroke="#666666" points="347.5,-108.5 218.5,-108.5 218.5,-89.5 347.5,-89.5 347.5,-108.5"/>
<text text-anchor="middle" x="283" y="-96.5" font-family="Helvetica,sans-Serif" font-size="10.00">netspeak::add_missing</text>
</a>
</g>
</g>
<!-- Node1&#45;&gt;Node2 -->
<g id="edge1_Node000001_Node000002" class="edge">
<title>Node1&#45;&gt;Node2</title>
<g id="a_edge1_Node000001_Node000002"><a xlink:title=" ">
<path fill="none" stroke="#63b8ff" d="M177.02,-88.09C187.45,-89.18 198.01,-90.27 208.22,-91.33"/>
<polygon fill="#63b8ff" stroke="#63b8ff" points="207.99,-94.83 218.3,-92.38 208.71,-87.87 207.99,-94.83"/>
</a>
</g>
</g>
<!-- Node5 -->
<g id="Node000005" class="node">
<title>Node5</title>
<g id="a_Node000005"><a xlink:href="namespacenetspeak_1_1util.html#aad6c5a8708322dd600c23507cc2035f1" target="_top" xlink:title=" ">
<polygon fill="white" stroke="#666666" points="685,-110.5 567,-110.5 567,-91.5 685,-91.5 685,-110.5"/>
<text text-anchor="middle" x="626" y="-98.5" font-family="Helvetica,sans-Serif" font-size="10.00">netspeak::util::check</text>
</a>
</g>
</g>
<!-- Node1&#45;&gt;Node5 -->
<g id="edge7_Node000001_Node000005" class="edge">
<title>Node1&#45;&gt;Node5</title>
<g id="a_edge7_Node000001_Node000005"><a xlink:title=" ">
<path fill="none" stroke="#63b8ff" d="M177.22,-72.62C264.44,-67.67 401.91,-63.68 520,-77 540.63,-79.33 563.12,-84.15 581.98,-88.87"/>
<polygon fill="#63b8ff" stroke="#63b8ff" points="581.2,-92.28 591.76,-91.39 582.94,-85.5 581.2,-92.28"/>
</a>
</g>
</g>
<!-- Node7 -->
<g id="Node000007" class="node">
<title>Node7</title>
<g id="a_Node000007"><a xlink:href="namespacenetspeak_1_1error__message.html#a2f39789e788d3f058a8b70dc5150363b" target="_top" xlink:title=" ">
<polygon fill="white" stroke="#666666" points="353,-30 213,-30 213,0 353,0 353,-30"/>
<text text-anchor="start" x="221" y="-18" font-family="Helvetica,sans-Serif" font-size="10.00">netspeak::error_message</text>
<text text-anchor="middle" x="283" y="-7" font-family="Helvetica,sans-Serif" font-size="10.00">::cannot_create</text>
</a>
</g>
</g>
<!-- Node1&#45;&gt;Node7 -->
<g id="edge6_Node000001_Node000007" class="edge">
<title>Node1&#45;&gt;Node7</title>
<g id="a_edge6_Node000001_Node000007"><a xlink:title=" ">
<path fill="none" stroke="#63b8ff" d="M118.32,-69.42C146.98,-59.89 191.69,-45.03 227.14,-33.24"/>
<polygon fill="#63b8ff" stroke="#63b8ff" points="228.48,-36.48 236.87,-30 226.27,-29.84 228.48,-36.48"/>
</a>
</g>
</g>
<!-- Node8 -->
<g id="Node000008" class="node">
<title>Node8</title>
<g id="a_Node000008"><a xlink:href="namespacenetspeak.html#ab34c1d0a372af837387430965133731e" target="_top" xlink:title=" ">
<polygon fill="white" stroke="#666666" points="520,-153.5 389,-153.5 389,-134.5 520,-134.5 520,-153.5"/>
<text text-anchor="middle" x="454.5" y="-141.5" font-family="Helvetica,sans-Serif" font-size="10.00">netspeak::read_1grams</text>
</a>
</g>
</g>
<!-- Node1&#45;&gt;Node8 -->
<g id="edge8_Node000001_Node000008" class="edge">
<title>Node1&#45;&gt;Node8</title>
<g id="a_edge8_Node000001_Node000008"><a xlink:title=" ">
<path fill="none" stroke="#63b8ff" d="M114.65,-88.56C139.34,-97.56 178.23,-110.71 213,-118 267.85,-129.51 330.88,-136.08 378.64,-139.74"/>
<polygon fill="#63b8ff" stroke="#63b8ff" points="378.67,-143.25 388.9,-140.5 379.19,-136.27 378.67,-143.25"/>
</a>
</g>
</g>
<!-- Node3 -->
<g id="Node000003" class="node">
<title>Node3</title>
<g id="a_Node000003"><a xlink:href="namespacenetspeak.html#ad26a208d24590b1200b160e2f5b94aa9" target="_top" xlink:title=" ">
<polygon fill="white" stroke="#666666" points="519,-116 390,-116 390,-86 519,-86 519,-116"/>
<text text-anchor="start" x="398" y="-104" font-family="Helvetica,sans-Serif" font-size="10.00">netspeak::find_missing</text>
<text text-anchor="middle" x="454.5" y="-93" font-family="Helvetica,sans-Serif" font-size="10.00">_words</text>
</a>
</g>
</g>
<!-- Node2&#45;&gt;Node3 -->
<g id="edge2_Node000002_Node000003" class="edge">
<title>Node2&#45;&gt;Node3</title>
<g id="a_edge2_Node000002_Node000003"><a xlink:title=" ">
<path fill="none" stroke="#63b8ff" d="M347.6,-99.75C358.06,-99.87 368.99,-100 379.67,-100.13"/>
<polygon fill="#63b8ff" stroke="#63b8ff" points="379.79,-103.63 389.83,-100.25 379.87,-96.63 379.79,-103.63"/>
</a>
</g>
</g>
<!-- Node4 -->
<g id="Node000004" class="node">
<title>Node4</title>
<g id="a_Node000004"><a xlink:href="namespacenetspeak_1_1error__message.html#a2a36ff57b354714213502a72e6d9d416" target="_top" xlink:title=" ">
<polygon fill="white" stroke="#666666" points="696,-159 556,-159 556,-129 696,-129 696,-159"/>
<text text-anchor="start" x="564" y="-147" font-family="Helvetica,sans-Serif" font-size="10.00">netspeak::error_message</text>
<text text-anchor="middle" x="626" y="-136" font-family="Helvetica,sans-Serif" font-size="10.00">::cannot_open</text>
</a>
</g>
</g>
<!-- Node3&#45;&gt;Node4 -->
<g id="edge3_Node000003_Node000004" class="edge">
<title>Node3&#45;&gt;Node4</title>
<g id="a_edge3_Node000003_Node000004"><a xlink:title=" ">
<path fill="none" stroke="#63b8ff" d="M514.78,-116.04C528.07,-119.41 542.28,-123.02 555.93,-126.48"/>
<polygon fill="#63b8ff" stroke="#63b8ff" points="555.2,-129.9 565.75,-128.97 556.92,-123.12 555.2,-129.9"/>
</a>
</g>
</g>
<!-- Node3&#45;&gt;Node5 -->
<g id="edge4_Node000003_Node000005" class="edge">
<title>Node3&#45;&gt;Node5</title>
<g id="a_edge4_Node000003_Node000005"><a xlink:title=" ">
<path fill="none" stroke="#63b8ff" d="M519.1,-101C531.35,-101 544.24,-101 556.64,-101"/>
<polygon fill="#63b8ff" stroke="#63b8ff" points="556.92,-104.5 566.92,-101 556.92,-97.5 556.92,-104.5"/>
</a>
</g>
</g>
<!-- Node6 -->
<g id="Node000006" class="node">
<title>Node6</title>
<g id="a_Node000006"><a xlink:href="namespacenetspeak_1_1util.html#a4c91ad572508b4021399ac7dddff574d" target="_top" xlink:title=" ">
<polygon fill="white" stroke="#666666" points="845,-110.5 732,-110.5 732,-91.5 845,-91.5 845,-110.5"/>
<text text-anchor="middle" x="788.5" y="-98.5" font-family="Helvetica,sans-Serif" font-size="10.00">netspeak::util::hash</text>
</a>
</g>
</g>
<!-- Node5&#45;&gt;Node6 -->
<g id="edge5_Node000005_Node000006" class="edge">
<title>Node5&#45;&gt;Node6</title>
<g id="a_edge5_Node000005_Node000006"><a xlink:title=" ">
<path fill="none" stroke="#63b8ff" d="M685.4,-101C697.23,-101 709.75,-101 721.82,-101"/>
<polygon fill="#63b8ff" stroke="#63b8ff" points="721.82,-104.5 731.82,-101 721.82,-97.5 721.82,-104.5"/>
</a>
</g>
</g>
<!-- Node8&#45;&gt;Node4 -->
<g id="edge9_Node000008_Node000004" class="edge">
<title>Node8&#45;&gt;Node4</title>
<g id="a_edge9_Node000008_Node000004"><a xlink:title=" ">
<path fill="none" stroke="#63b8ff" d="M520.06,-144C528.47,-144 537.16,-144 545.77,-144"/>
<polygon fill="#63b8ff" stroke="#63b8ff" points="545.82,-147.5 555.82,-144 545.82,-140.5 545.82,-147.5"/>
</a>
</g>
</g>
<!-- Node8&#45;&gt;Node5 -->
<g id="edge10_Node000008_Node000005" class="edge">
<title>Node8&#45;&gt;Node5</title>
<g id="a_edge10_Node000008_Node000005"><a xlink:title=" ">
<path fill="none" stroke="#63b8ff" d="M493.12,-134.46C518.02,-128.14 550.9,-119.8 577.59,-113.03"/>
<polygon fill="#63b8ff" stroke="#63b8ff" points="578.66,-116.37 587.49,-110.52 576.93,-109.58 578.66,-116.37"/>
</a>
</g>
</g>
</g>
</svg>
