<?xml version="1.0" encoding="UTF-8" standalone="no"?>
<!DOCTYPE svg PUBLIC "-//W3C//DTD SVG 1.1//EN"
 "http://www.w3.org/Graphics/SVG/1.1/DTD/svg11.dtd">
<!-- Generated by graphviz version 2.43.0 (0)
 -->
<!-- Title: netspeak::MergeDuplicates Pages: 1 -->
<svg width="637pt" height="348pt"
 viewBox="0.00 0.00 637.00 348.00" xmlns="http://www.w3.org/2000/svg" xmlns:xlink="http://www.w3.org/1999/xlink">
<g id="graph0" class="graph" transform="scale(1 1) rotate(0) translate(4 344)">
<title>netspeak::MergeDuplicates</title>
<!-- Node1 -->
<g id="Node000001" class="node">
<title>Node1</title>
<g id="a_Node000001"><a xlink:title=" ">
<polygon fill="#999999" stroke="#666666" points="150,-205.5 0,-205.5 0,-186.5 150,-186.5 150,-205.5"/>
<text text-anchor="middle" x="75" y="-193.5" font-family="Helvetica,sans-Serif" font-size="10.00">netspeak::MergeDuplicates</text>
</a>
</g>
</g>
<!-- Node2 -->
<g id="Node000002" class="node">
<title>Node2</title>
<g id="a_Node000002"><a xlink:href="namespacenetspeak_1_1error__message.html#a2f39789e788d3f058a8b70dc5150363b" target="_top" xlink:title=" ">
<polygon fill="white" stroke="#666666" points="326,-340 186,-340 186,-310 326,-310 326,-340"/>
<text text-anchor="start" x="194" y="-328" font-family="Helvetica,sans-Serif" font-size="10.00">netspeak::error_message</text>
<text text-anchor="middle" x="256" y="-317" font-family="Helvetica,sans-Serif" font-size="10.00">::cannot_create</text>
</a>
</g>
</g>
<!-- Node1&#45;&gt;Node2 -->
<g id="edge1_Node000001_Node000002" class="edge">
<title>Node1&#45;&gt;Node2</title>
<g id="a_edge1_Node000001_Node000002"><a xlink:title=" ">
<path fill="none" stroke="#63b8ff" d="M83.51,-205.53C99.98,-225.84 141.39,-273.75 186,-301 188.76,-302.69 191.65,-304.27 194.63,-305.77"/>
<polygon fill="#63b8ff" stroke="#63b8ff" points="193.2,-308.96 203.74,-309.97 196.12,-302.6 193.2,-308.96"/>
</a>
</g>
</g>
<!-- Node3 -->
<g id="Node000003" class="node">
<title>Node3</title>
<g id="a_Node000003"><a xlink:href="namespacenetspeak_1_1error__message.html#a2a36ff57b354714213502a72e6d9d416" target="_top" xlink:title=" ">
<polygon fill="white" stroke="#666666" points="326,-292 186,-292 186,-262 326,-262 326,-292"/>
<text text-anchor="start" x="194" y="-280" font-family="Helvetica,sans-Serif" font-size="10.00">netspeak::error_message</text>
<text text-anchor="middle" x="256" y="-269" font-family="Helvetica,sans-Serif" font-size="10.00">::cannot_open</text>
</a>
</g>
</g>
<!-- Node1&#45;&gt;Node3 -->
<g id="edge2_Node000001_Node000003" class="edge">
<title>Node1&#45;&gt;Node3</title>
<g id="a_edge2_Node000001_Node000003"><a xlink:title=" ">
<path fill="none" stroke="#63b8ff" d="M95.75,-205.66C117.68,-216.3 154.17,-233.8 186,-248 193.42,-251.31 201.34,-254.74 209.06,-258.02"/>
<polygon fill="#63b8ff" stroke="#63b8ff" points="207.77,-261.28 218.35,-261.94 210.5,-254.83 207.77,-261.28"/>
</a>
</g>
</g>
<!-- Node4 -->
<g id="Node000004" class="node">
<title>Node4</title>
<g id="a_Node000004"><a xlink:href="namespacenetspeak_1_1util.html#aad6c5a8708322dd600c23507cc2035f1" target="_top" xlink:title=" ">
<polygon fill="white" stroke="#666666" points="480,-297.5 362,-297.5 362,-278.5 480,-278.5 480,-297.5"/>
<text text-anchor="middle" x="421" y="-285.5" font-family="Helvetica,sans-Serif" font-size="10.00">netspeak::util::check</text>
</a>
</g>
</g>
<!-- Node1&#45;&gt;Node4 -->
<g id="edge3_Node000001_Node000004" class="edge">
<title>Node1&#45;&gt;Node4</title>
<g id="a_edge3_Node000001_Node000004"><a xlink:title=" ">
<path fill="none" stroke="#63b8ff" d="M131.96,-205.54C183.19,-215.02 260.74,-231.29 326,-253 342.61,-258.53 345.66,-262.71 362,-269 367.51,-271.12 373.37,-273.22 379.17,-275.2"/>
<polygon fill="#63b8ff" stroke="#63b8ff" points="378.2,-278.57 388.79,-278.42 380.42,-271.93 378.2,-278.57"/>
</a>
</g>
</g>
<!-- Node6 -->
<g id="Node000006" class="node">
<title>Node6</title>
<g id="a_Node000006"><a xlink:href="namespacenetspeak_1_1util.html#ab36ee03e8b2f69483c3ac0e160da3cf4" target="_top" xlink:title=" ">
<polygon fill="white" stroke="#666666" points="318.5,-205.5 193.5,-205.5 193.5,-186.5 318.5,-186.5 318.5,-205.5"/>
<text text-anchor="middle" x="256" y="-193.5" font-family="Helvetica,sans-Serif" font-size="10.00">netspeak::util::hash32</text>
</a>
</g>
</g>
<!-- Node1&#45;&gt;Node6 -->
<g id="edge5_Node000001_Node000006" class="edge">
<title>Node1&#45;&gt;Node6</title>
<g id="a_edge5_Node000001_Node000006"><a xlink:title=" ">
<path fill="none" stroke="#63b8ff" d="M150.1,-196C161.03,-196 172.28,-196 183.17,-196"/>
<polygon fill="#63b8ff" stroke="#63b8ff" points="183.47,-199.5 193.47,-196 183.47,-192.5 183.47,-199.5"/>
</a>
</g>
</g>
<!-- Node8 -->
<g id="Node000008" class="node">
<title>Node8</title>
<g id="a_Node000008"><a xlink:href="namespacenetspeak_1_1util.html#ad2441a387c3a4c47e09c373e9412fad0" target="_top" xlink:title=" ">
<polygon fill="white" stroke="#666666" points="308,-168.5 204,-168.5 204,-149.5 308,-149.5 308,-168.5"/>
<text text-anchor="middle" x="256" y="-156.5" font-family="Helvetica,sans-Serif" font-size="10.00">netspeak::util::log</text>
</a>
</g>
</g>
<!-- Node1&#45;&gt;Node8 -->
<g id="edge8_Node000001_Node000008" class="edge">
<title>Node1&#45;&gt;Node8</title>
<g id="a_edge8_Node000001_Node000008"><a xlink:title=" ">
<path fill="none" stroke="#63b8ff" d="M122.1,-186.47C145.5,-181.64 174.12,-175.72 198.8,-170.62"/>
<polygon fill="#63b8ff" stroke="#63b8ff" points="199.66,-174.01 208.75,-168.56 198.25,-167.16 199.66,-174.01"/>
</a>
</g>
</g>
<!-- Node11 -->
<g id="Node000011" class="node">
<title>Node11</title>
<g id="a_Node000011"><a xlink:href="namespacenetspeak_1_1util.html#ac58571e9b104c9440b6c4f067e75696f" target="_top" xlink:title=" ">
<polygon fill="white" stroke="#666666" points="311.5,-104 200.5,-104 200.5,-74 311.5,-74 311.5,-104"/>
<text text-anchor="start" x="208.5" y="-92" font-family="Helvetica,sans-Serif" font-size="10.00">netspeak::util::next</text>
<text text-anchor="middle" x="256" y="-81" font-family="Helvetica,sans-Serif" font-size="10.00">_prime</text>
</a>
</g>
</g>
<!-- Node1&#45;&gt;Node11 -->
<g id="edge13_Node000001_Node000011" class="edge">
<title>Node1&#45;&gt;Node11</title>
<g id="a_edge13_Node000001_Node000011"><a xlink:title=" ">
<path fill="none" stroke="#63b8ff" d="M92.2,-186.32C121.12,-169.03 182.21,-132.51 220.79,-109.45"/>
<polygon fill="#63b8ff" stroke="#63b8ff" points="222.81,-112.32 229.6,-104.18 219.22,-106.31 222.81,-112.32"/>
</a>
</g>
</g>
<!-- Node13 -->
<g id="Node000013" class="node">
<title>Node13</title>
<g id="a_Node000013"><a xlink:href="namespacenetspeak_1_1util.html#ac8b0cdf55599b33fd7d4013948d48f43" target="_top" xlink:title=" ">
<polygon fill="white" stroke="#666666" points="470.5,-30 371.5,-30 371.5,0 470.5,0 470.5,-30"/>
<text text-anchor="start" x="379.5" y="-18" font-family="Helvetica,sans-Serif" font-size="10.00">netspeak::util::to</text>
<text text-anchor="middle" x="421" y="-7" font-family="Helvetica,sans-Serif" font-size="10.00">_string</text>
</a>
</g>
</g>
<!-- Node1&#45;&gt;Node13 -->
<g id="edge16_Node000001_Node000013" class="edge">
<title>Node1&#45;&gt;Node13</title>
<g id="a_edge16_Node000001_Node000013"><a xlink:title=" ">
<path fill="none" stroke="#63b8ff" d="M81.15,-186.21C94.67,-161.5 133.83,-96.37 186,-65 239.68,-32.72 311.3,-21.12 361.1,-17.04"/>
<polygon fill="#63b8ff" stroke="#63b8ff" points="361.67,-20.51 371.39,-16.28 361.16,-13.52 361.67,-20.51"/>
</a>
</g>
</g>
<!-- Node5 -->
<g id="Node000005" class="node">
<title>Node5</title>
<g id="a_Node000005"><a xlink:href="namespacenetspeak_1_1util.html#a4c91ad572508b4021399ac7dddff574d" target="_top" xlink:title=" ">
<polygon fill="white" stroke="#666666" points="629,-165.5 516,-165.5 516,-146.5 629,-146.5 629,-165.5"/>
<text text-anchor="middle" x="572.5" y="-153.5" font-family="Helvetica,sans-Serif" font-size="10.00">netspeak::util::hash</text>
</a>
</g>
</g>
<!-- Node4&#45;&gt;Node5 -->
<g id="edge4_Node000004_Node000005" class="edge">
<title>Node4&#45;&gt;Node5</title>
<g id="a_edge4_Node000004_Node000005"><a xlink:title=" ">
<path fill="none" stroke="#63b8ff" d="M461.51,-278.46C468,-275.96 474.42,-272.85 480,-269 516.7,-243.71 546.3,-199.55 561.14,-174.58"/>
<polygon fill="#63b8ff" stroke="#63b8ff" points="564.27,-176.15 566.25,-165.74 558.21,-172.65 564.27,-176.15"/>
</a>
</g>
</g>
<!-- Node7 -->
<g id="Node000007" class="node">
<title>Node7</title>
<g id="a_Node000007"><a xlink:href="namespacenetspeak_1_1util.html#a9b5dd24226608e9fa5cca9d8abd5fd8b" target="_top" xlink:title=" ">
<polygon fill="white" stroke="#666666" points="477.5,-260 364.5,-260 364.5,-230 477.5,-230 477.5,-260"/>
<text text-anchor="start" x="372.5" y="-248" font-family="Helvetica,sans-Serif" font-size="10.00">netspeak::util::hash</text>
<text text-anchor="middle" x="421" y="-237" font-family="Helvetica,sans-Serif" font-size="10.00">&lt; uint32_t &gt;</text>
</a>
</g>
</g>
<!-- Node6&#45;&gt;Node7 -->
<g id="edge6_Node000006_Node000007" class="edge">
<title>Node6&#45;&gt;Node7</title>
<g id="a_edge6_Node000006_Node000007"><a xlink:title=" ">
<path fill="none" stroke="#63b8ff" d="M288.81,-205.56C309.09,-211.66 336,-219.75 360.17,-227.01"/>
<polygon fill="#63b8ff" stroke="#63b8ff" points="359.39,-230.44 369.98,-229.96 361.41,-223.73 359.39,-230.44"/>
</a>
</g>
</g>
<!-- Node7&#45;&gt;Node5 -->
<g id="edge7_Node000007_Node000005" class="edge">
<title>Node7&#45;&gt;Node5</title>
<g id="a_edge7_Node000007_Node000005"><a xlink:title=" ">
<path fill="none" stroke="#63b8ff" d="M453.96,-229.86C462.52,-225.57 471.71,-220.77 480,-216 504.48,-201.92 531.39,-183.96 549.65,-171.37"/>
<polygon fill="#63b8ff" stroke="#63b8ff" points="551.65,-174.24 557.87,-165.66 547.65,-168.49 551.65,-174.24"/>
</a>
</g>
</g>
<!-- Node8&#45;&gt;Node5 -->
<g id="edge10_Node000008_Node000005" class="edge">
<title>Node8&#45;&gt;Node5</title>
<g id="a_edge10_Node000008_Node000005"><a xlink:title=" ">
<path fill="none" stroke="#63b8ff" d="M290.24,-168.61C310.73,-174.03 337.66,-180.25 362,-183 414.11,-188.88 428.09,-190.5 480,-183 499,-180.25 519.56,-174.46 536.37,-168.94"/>
<polygon fill="#63b8ff" stroke="#63b8ff" points="537.96,-172.09 546.3,-165.57 535.71,-165.47 537.96,-172.09"/>
</a>
</g>
</g>
<!-- Node9 -->
<g id="Node000009" class="node">
<title>Node9</title>
<g id="a_Node000009"><a xlink:href="namespacenetspeak_1_1util.html#ab27a22c787271513007af0719b17cef9" target="_top" xlink:title=" ">
<polygon fill="white" stroke="#666666" points="473.5,-174 368.5,-174 368.5,-144 473.5,-144 473.5,-174"/>
<text text-anchor="start" x="376.5" y="-162" font-family="Helvetica,sans-Serif" font-size="10.00">netspeak::util::get</text>
<text text-anchor="middle" x="421" y="-151" font-family="Helvetica,sans-Serif" font-size="10.00">_log_mutex</text>
</a>
</g>
</g>
<!-- Node8&#45;&gt;Node9 -->
<g id="edge9_Node000008_Node000009" class="edge">
<title>Node8&#45;&gt;Node9</title>
<g id="a_edge9_Node000008_Node000009"><a xlink:title=" ">
<path fill="none" stroke="#63b8ff" d="M308.13,-159C324.05,-159 341.79,-159 358.36,-159"/>
<polygon fill="#63b8ff" stroke="#63b8ff" points="358.49,-162.5 368.49,-159 358.49,-155.5 358.49,-162.5"/>
</a>
</g>
</g>
<!-- Node10 -->
<g id="Node000010" class="node">
<title>Node10</title>
<g id="a_Node000010"><a xlink:href="namespacenetspeak_1_1util.html#a93e18aaa529a497b6afdf4b3bd221182" target="_top" xlink:title=" ">
<polygon fill="white" stroke="#666666" points="477,-126 365,-126 365,-96 477,-96 477,-126"/>
<text text-anchor="start" x="373" y="-114" font-family="Helvetica,sans-Serif" font-size="10.00">netspeak::util::print</text>
<text text-anchor="middle" x="421" y="-103" font-family="Helvetica,sans-Serif" font-size="10.00">_timestamp_to</text>
</a>
</g>
</g>
<!-- Node8&#45;&gt;Node10 -->
<g id="edge11_Node000008_Node000010" class="edge">
<title>Node8&#45;&gt;Node10</title>
<g id="a_edge11_Node000008_Node000010"><a xlink:title=" ">
<path fill="none" stroke="#63b8ff" d="M289.59,-149.4C309.52,-143.53 335.63,-135.85 359.25,-128.89"/>
<polygon fill="#63b8ff" stroke="#63b8ff" points="360.24,-132.25 368.85,-126.06 358.27,-125.53 360.24,-132.25"/>
</a>
</g>
</g>
<!-- Node10&#45;&gt;Node5 -->
<g id="edge12_Node000010_Node000005" class="edge">
<title>Node10&#45;&gt;Node5</title>
<g id="a_edge12_Node000010_Node000005"><a xlink:title=" ">
<path fill="none" stroke="#63b8ff" d="M472.2,-126.11C491.09,-131.8 512.34,-138.19 530.32,-143.61"/>
<polygon fill="#63b8ff" stroke="#63b8ff" points="529.35,-146.97 539.94,-146.5 531.37,-140.27 529.35,-146.97"/>
</a>
</g>
</g>
<!-- Node12 -->
<g id="Node000012" class="node">
<title>Node12</title>
<g id="a_Node000012"><a xlink:href="namespacenetspeak_1_1util.html#af26e5357869d1662720eabb639fbf27e" target="_top" xlink:title=" ">
<polygon fill="white" stroke="#666666" points="470,-78 372,-78 372,-48 470,-48 470,-78"/>
<text text-anchor="start" x="380" y="-66" font-family="Helvetica,sans-Serif" font-size="10.00">netspeak::util::is</text>
<text text-anchor="middle" x="421" y="-55" font-family="Helvetica,sans-Serif" font-size="10.00">_prime</text>
</a>
</g>
</g>
<!-- Node11&#45;&gt;Node12 -->
<g id="edge14_Node000011_Node000012" class="edge">
<title>Node11&#45;&gt;Node12</title>
<g id="a_edge14_Node000011_Node000012"><a xlink:title=" ">
<path fill="none" stroke="#63b8ff" d="M311.73,-80.27C327.89,-77.69 345.63,-74.86 361.99,-72.25"/>
<polygon fill="#63b8ff" stroke="#63b8ff" points="362.65,-75.69 371.97,-70.66 361.55,-68.78 362.65,-75.69"/>
</a>
</g>
</g>
<!-- Node12&#45;&gt;Node5 -->
<g id="edge15_Node000012_Node000005" class="edge">
<title>Node12&#45;&gt;Node5</title>
<g id="a_edge15_Node000012_Node000005"><a xlink:title=" ">
<path fill="none" stroke="#63b8ff" d="M462.26,-78.1C468.33,-80.82 474.42,-83.81 480,-87 506.87,-102.36 534.87,-124.53 552.7,-139.56"/>
<polygon fill="#63b8ff" stroke="#63b8ff" points="550.72,-142.47 560.59,-146.3 555.27,-137.15 550.72,-142.47"/>
</a>
</g>
</g>
<!-- Node13&#45;&gt;Node5 -->
<g id="edge17_Node000013_Node000005" class="edge">
<title>Node13&#45;&gt;Node5</title>
<g id="a_edge17_Node000013_Node000005"><a xlink:title=" ">
<path fill="none" stroke="#63b8ff" d="M465.5,-30.05C470.61,-32.66 475.57,-35.64 480,-39 516.43,-66.68 546.32,-112.2 561.23,-137.53"/>
<polygon fill="#63b8ff" stroke="#63b8ff" points="558.35,-139.53 566.36,-146.46 564.42,-136.05 558.35,-139.53"/>
</a>
</g>
</g>
</g>
</svg>
