<?xml version="1.0" encoding="UTF-8" standalone="no"?>
<!DOCTYPE svg PUBLIC "-//W3C//DTD SVG 1.1//EN"
 "http://www.w3.org/Graphics/SVG/1.1/DTD/svg11.dtd">
<!-- Generated by graphviz version 2.43.0 (0)
 -->
<!-- Title: cli::RunShell Pages: 1 -->
<svg width="421pt" height="64pt"
 viewBox="0.00 0.00 421.00 64.00" xmlns="http://www.w3.org/2000/svg" xmlns:xlink="http://www.w3.org/1999/xlink">
<g id="graph0" class="graph" transform="scale(1 1) rotate(0) translate(4 60)">
<title>cli::RunShell</title>
<!-- Node1 -->
<g id="Node000001" class="node">
<title>Node1</title>
<g id="a_Node000001"><a xlink:title=" ">
<polygon fill="#999999" stroke="#666666" points="413,-37 336,-37 336,-18 413,-18 413,-37"/>
<text text-anchor="middle" x="374.5" y="-25" font-family="Helvetica,sans-Serif" font-size="10.00">cli::RunShell</text>
</a>
</g>
</g>
<!-- Node2 -->
<g id="Node000002" class="node">
<title>Node2</title>
<g id="a_Node000002"><a xlink:href="namespacecli.html#af5a194c0dcd2ddaa3314841efa4331b5" target="_top" xlink:title=" ">
<polygon fill="white" stroke="#666666" points="300,-56 166,-56 166,-37 300,-37 300,-56"/>
<text text-anchor="middle" x="233" y="-44" font-family="Helvetica,sans-Serif" font-size="10.00">cli::RunLocalServerShell</text>
</a>
</g>
</g>
<!-- Node1&#45;&gt;Node2 -->
<g id="edge1_Node000001_Node000002" class="edge">
<title>Node1&#45;&gt;Node2</title>
<g id="a_edge1_Node000001_Node000002"><a xlink:title=" ">
<path fill="none" stroke="#63b8ff" d="M325.58,-34.03C317.33,-35.15 308.63,-36.34 300,-37.51"/>
<polygon fill="#63b8ff" stroke="#63b8ff" points="326.31,-37.46 335.75,-32.64 325.37,-30.52 326.31,-37.46"/>
</a>
</g>
</g>
<!-- Node4 -->
<g id="Node000004" class="node">
<title>Node4</title>
<g id="a_Node000004"><a xlink:href="namespacecli.html#a22879e42bef83852f1a2561c844fbe00" target="_top" xlink:title=" ">
<polygon fill="white" stroke="#666666" points="294.5,-19 171.5,-19 171.5,0 294.5,0 294.5,-19"/>
<text text-anchor="middle" x="233" y="-7" font-family="Helvetica,sans-Serif" font-size="10.00">cli::RunNetspeakShell</text>
</a>
</g>
</g>
<!-- Node1&#45;&gt;Node4 -->
<g id="edge3_Node000001_Node000004" class="edge">
<title>Node1&#45;&gt;Node4</title>
<g id="a_edge3_Node000001_Node000004"><a xlink:title=" ">
<path fill="none" stroke="#63b8ff" d="M325.63,-21.32C315.65,-20.04 305.01,-18.66 294.64,-17.33"/>
<polygon fill="#63b8ff" stroke="#63b8ff" points="325.38,-24.82 335.75,-22.63 326.28,-17.88 325.38,-24.82"/>
</a>
</g>
</g>
<!-- Node3 -->
<g id="Node000003" class="node">
<title>Node3</title>
<g id="a_Node000003"><a xlink:href="classcli_1_1ShellCommand.html#aceeb2ce4939da7366e5a2b577e5b0db1" target="_top" xlink:title=" ">
<polygon fill="white" stroke="#666666" points="130,-37 0,-37 0,-18 130,-18 130,-37"/>
<text text-anchor="middle" x="65" y="-25" font-family="Helvetica,sans-Serif" font-size="10.00">cli::ShellCommand::run</text>
</a>
</g>
</g>
<!-- Node2&#45;&gt;Node3 -->
<g id="edge2_Node000002_Node000003" class="edge">
<title>Node2&#45;&gt;Node3</title>
<g id="a_edge2_Node000002_Node000003"><a xlink:title=" ">
<path fill="none" stroke="#63b8ff" d="M155.91,-37.79C147.33,-36.81 138.64,-35.81 130.23,-34.85"/>
<polygon fill="#63b8ff" stroke="#63b8ff" points="155.58,-41.28 165.92,-38.94 156.38,-34.32 155.58,-41.28"/>
</a>
</g>
</g>
<!-- Node4&#45;&gt;Node3 -->
<g id="edge4_Node000004_Node000003" class="edge">
<title>Node4&#45;&gt;Node3</title>
<g id="a_edge4_Node000004_Node000003"><a xlink:title=" ">
<path fill="none" stroke="#63b8ff" d="M161.01,-17.2C150.78,-18.31 140.3,-19.44 130.21,-20.54"/>
<polygon fill="#63b8ff" stroke="#63b8ff" points="161.57,-20.66 171.13,-16.1 160.81,-13.7 161.57,-20.66"/>
</a>
</g>
</g>
</g>
</svg>
