<?xml version="1.0" encoding="UTF-8" standalone="no"?>
<!DOCTYPE svg PUBLIC "-//W3C//DTD SVG 1.1//EN"
 "http://www.w3.org/Graphics/SVG/1.1/DTD/svg11.dtd">
<!-- Generated by graphviz version 2.43.0 (0)
 -->
<!-- Title: netspeak::BuildPostlistIndex Pages: 1 -->
<svg width="990pt" height="596pt"
 viewBox="0.00 0.00 990.00 595.50" xmlns="http://www.w3.org/2000/svg" xmlns:xlink="http://www.w3.org/1999/xlink">
<g id="graph0" class="graph" transform="scale(1 1) rotate(0) translate(4 591.5)">
<title>netspeak::BuildPostlistIndex</title>
<!-- Node1 -->
<g id="Node000001" class="node">
<title>Node1</title>
<g id="a_Node000001"><a xlink:title=" ">
<polygon fill="#999999" stroke="#666666" points="155,-312 0,-312 0,-293 155,-293 155,-312"/>
<text text-anchor="middle" x="77.5" y="-300" font-family="Helvetica,sans-Serif" font-size="10.00">netspeak::BuildPostlistIndex</text>
</a>
</g>
</g>
<!-- Node2 -->
<g id="Node000002" class="node">
<title>Node2</title>
<g id="a_Node000002"><a xlink:href="namespacenetspeak_1_1error__message.html#a2a36ff57b354714213502a72e6d9d416" target="_top" xlink:title=" ">
<polygon fill="white" stroke="#666666" points="333.5,-587.5 193.5,-587.5 193.5,-557.5 333.5,-557.5 333.5,-587.5"/>
<text text-anchor="start" x="201.5" y="-575.5" font-family="Helvetica,sans-Serif" font-size="10.00">netspeak::error_message</text>
<text text-anchor="middle" x="263.5" y="-564.5" font-family="Helvetica,sans-Serif" font-size="10.00">::cannot_open</text>
</a>
</g>
</g>
<!-- Node1&#45;&gt;Node2 -->
<g id="edge1_Node000001_Node000002" class="edge">
<title>Node1&#45;&gt;Node2</title>
<g id="a_edge1_Node000001_Node000002"><a xlink:title=" ">
<path fill="none" stroke="#63b8ff" d="M80.38,-312.27C87.75,-348.16 118.02,-474.18 191,-543.5 194.52,-546.84 198.47,-549.82 202.67,-552.47"/>
<polygon fill="#63b8ff" stroke="#63b8ff" points="201.12,-555.61 211.56,-557.45 204.55,-549.51 201.12,-555.61"/>
</a>
</g>
</g>
<!-- Node3 -->
<g id="Node000003" class="node">
<title>Node3</title>
<g id="a_Node000003"><a xlink:href="namespacenetspeak_1_1util.html#aad6c5a8708322dd600c23507cc2035f1" target="_top" xlink:title=" ">
<polygon fill="white" stroke="#666666" points="832.5,-577 714.5,-577 714.5,-558 832.5,-558 832.5,-577"/>
<text text-anchor="middle" x="773.5" y="-565" font-family="Helvetica,sans-Serif" font-size="10.00">netspeak::util::check</text>
</a>
</g>
</g>
<!-- Node1&#45;&gt;Node3 -->
<g id="edge2_Node000001_Node000003" class="edge">
<title>Node1&#45;&gt;Node3</title>
<g id="a_edge2_Node000001_Node000003"><a xlink:title=" ">
<path fill="none" stroke="#63b8ff" d="M81.16,-312.24C90.32,-343.75 123.74,-443.38 191,-487.5 274.25,-542.11 569.22,-559.96 704.19,-565.35"/>
<polygon fill="#63b8ff" stroke="#63b8ff" points="704.27,-568.86 714.4,-565.75 704.55,-561.87 704.27,-568.86"/>
</a>
</g>
</g>
<!-- Node5 -->
<g id="Node000005" class="node">
<title>Node5</title>
<g id="a_Node000005"><a xlink:href="classnetspeak_1_1invertedindex_1_1Indexer.html#a01a9448341a44ad65f23452dd8487961" target="_top" xlink:title=" ">
<polygon fill="white" stroke="#666666" points="331,-478.5 196,-478.5 196,-448.5 331,-448.5 331,-478.5"/>
<text text-anchor="start" x="204" y="-466.5" font-family="Helvetica,sans-Serif" font-size="10.00">netspeak::invertedindex</text>
<text text-anchor="middle" x="263.5" y="-455.5" font-family="Helvetica,sans-Serif" font-size="10.00">::Indexer::index</text>
</a>
</g>
</g>
<!-- Node1&#45;&gt;Node5 -->
<g id="edge4_Node000001_Node000005" class="edge">
<title>Node1&#45;&gt;Node5</title>
<g id="a_edge4_Node000001_Node000005"><a xlink:title=" ">
<path fill="none" stroke="#63b8ff" d="M83.72,-312.02C97.76,-336.73 138.8,-403.52 191,-439.5 193.25,-441.05 195.6,-442.5 198.03,-443.87"/>
<polygon fill="#63b8ff" stroke="#63b8ff" points="196.6,-447.07 207.11,-448.45 199.75,-440.82 196.6,-447.07"/>
</a>
</g>
</g>
<!-- Node15 -->
<g id="Node000015" class="node">
<title>Node15</title>
<g id="a_Node000015"><a xlink:href="namespacenetspeak.html#a6b7551fe52a5a276ce18f5f74dc1b876" target="_top" xlink:title=" ">
<polygon fill="white" stroke="#666666" points="329,-430 198,-430 198,-411 329,-411 329,-430"/>
<text text-anchor="middle" x="263.5" y="-418" font-family="Helvetica,sans-Serif" font-size="10.00">netspeak::IndexPostlist</text>
</a>
</g>
</g>
<!-- Node1&#45;&gt;Node15 -->
<g id="edge22_Node000001_Node000015" class="edge">
<title>Node1&#45;&gt;Node15</title>
<g id="a_edge22_Node000001_Node000015"><a xlink:title=" ">
<path fill="none" stroke="#63b8ff" d="M86.47,-312C103.54,-331.74 145.79,-377.35 191,-401.5 195.24,-403.76 199.76,-405.77 204.4,-407.55"/>
<polygon fill="#63b8ff" stroke="#63b8ff" points="203.43,-410.92 214.03,-410.89 205.73,-404.31 203.43,-410.92"/>
</a>
</g>
</g>
<!-- Node16 -->
<g id="Node000016" class="node">
<title>Node16</title>
<g id="a_Node000016"><a xlink:href="classnetspeak_1_1invertedindex_1_1Indexer.html#a3cc86f6f71f2cc24089a0a0f47de512b" target="_top" xlink:title=" ">
<polygon fill="white" stroke="#666666" points="331,-344.5 196,-344.5 196,-314.5 331,-314.5 331,-344.5"/>
<text text-anchor="start" x="204" y="-332.5" font-family="Helvetica,sans-Serif" font-size="10.00">netspeak::invertedindex</text>
<text text-anchor="middle" x="263.5" y="-321.5" font-family="Helvetica,sans-Serif" font-size="10.00">::Indexer::insert</text>
</a>
</g>
</g>
<!-- Node1&#45;&gt;Node16 -->
<g id="edge23_Node000001_Node000016" class="edge">
<title>Node1&#45;&gt;Node16</title>
<g id="a_edge23_Node000001_Node000016"><a xlink:title=" ">
<path fill="none" stroke="#63b8ff" d="M143.37,-312.02C157.03,-314.02 171.56,-316.15 185.6,-318.22"/>
<polygon fill="#63b8ff" stroke="#63b8ff" points="185.32,-321.71 195.73,-319.7 186.34,-314.79 185.32,-321.71"/>
</a>
</g>
</g>
<!-- Node20 -->
<g id="Node000020" class="node">
<title>Node20</title>
<g id="a_Node000020"><a xlink:href="classnetspeak_1_1invertedindex_1_1Searcher.html#ae220c334383caa61518612c3b2d4c60d" target="_top" xlink:title=" ">
<polygon fill="white" stroke="#666666" points="336,-392.5 191,-392.5 191,-362.5 336,-362.5 336,-392.5"/>
<text text-anchor="start" x="199" y="-380.5" font-family="Helvetica,sans-Serif" font-size="10.00">netspeak::invertedindex</text>
<text text-anchor="middle" x="263.5" y="-369.5" font-family="Helvetica,sans-Serif" font-size="10.00">::Searcher::search_postlist</text>
</a>
</g>
</g>
<!-- Node1&#45;&gt;Node20 -->
<g id="edge28_Node000001_Node000020" class="edge">
<title>Node1&#45;&gt;Node20</title>
<g id="a_edge28_Node000001_Node000020"><a xlink:title=" ">
<path fill="none" stroke="#63b8ff" d="M98.15,-312.15C120.4,-322.89 157.87,-340.47 191,-353.5 195.75,-355.37 200.72,-357.23 205.72,-359.03"/>
<polygon fill="#63b8ff" stroke="#63b8ff" points="204.74,-362.4 215.33,-362.43 207.07,-355.8 204.74,-362.4"/>
</a>
</g>
</g>
<!-- Node21 -->
<g id="Node000021" class="node">
<title>Node21</title>
<g id="a_Node000021"><a xlink:href="classnetspeak_1_1invertedindex_1_1Configuration.html#a11cd5ed11c472e4db6e0896c38a9ca91" target="_top" xlink:title=" ">
<polygon fill="white" stroke="#666666" points="334,-296 193,-296 193,-255 334,-255 334,-296"/>
<text text-anchor="start" x="201" y="-284" font-family="Helvetica,sans-Serif" font-size="10.00">netspeak::invertedindex</text>
<text text-anchor="start" x="201" y="-273" font-family="Helvetica,sans-Serif" font-size="10.00">::Configuration::set_index</text>
<text text-anchor="middle" x="263.5" y="-262" font-family="Helvetica,sans-Serif" font-size="10.00">_directory</text>
</a>
</g>
</g>
<!-- Node1&#45;&gt;Node21 -->
<g id="edge30_Node000001_Node000021" class="edge">
<title>Node1&#45;&gt;Node21</title>
<g id="a_edge30_Node000001_Node000021"><a xlink:title=" ">
<path fill="none" stroke="#63b8ff" d="M143.37,-292.98C156.15,-291.11 169.7,-289.12 182.9,-287.18"/>
<polygon fill="#63b8ff" stroke="#63b8ff" points="183.52,-290.63 192.91,-285.71 182.5,-283.7 183.52,-290.63"/>
</a>
</g>
</g>
<!-- Node22 -->
<g id="Node000022" class="node">
<title>Node22</title>
<g id="a_Node000022"><a xlink:href="classnetspeak_1_1invertedindex_1_1Record.html#afa44b61aea8d247d7d5119f4440c3ab3" target="_top" xlink:title=" ">
<polygon fill="white" stroke="#666666" points="507,-241.5 372,-241.5 372,-211.5 507,-211.5 507,-241.5"/>
<text text-anchor="start" x="380" y="-229.5" font-family="Helvetica,sans-Serif" font-size="10.00">netspeak::invertedindex</text>
<text text-anchor="middle" x="439.5" y="-218.5" font-family="Helvetica,sans-Serif" font-size="10.00">::Record::set_key</text>
</a>
</g>
</g>
<!-- Node1&#45;&gt;Node22 -->
<g id="edge31_Node000001_Node000022" class="edge">
<title>Node1&#45;&gt;Node22</title>
<g id="a_edge31_Node000001_Node000022"><a xlink:title=" ">
<path fill="none" stroke="#63b8ff" d="M93.05,-292.97C113.81,-279.91 153.59,-256.91 191,-246.5 246.86,-230.97 312.33,-226.23 361.9,-225.24"/>
<polygon fill="#63b8ff" stroke="#63b8ff" points="361.97,-228.74 371.91,-225.09 361.86,-221.74 361.97,-228.74"/>
</a>
</g>
</g>
<!-- Node23 -->
<g id="Node000023" class="node">
<title>Node23</title>
<g id="a_Node000023"><a xlink:href="classnetspeak_1_1invertedindex_1_1Configuration.html#a42f166343ee07660af2205211b6acdb1" target="_top" xlink:title=" ">
<polygon fill="white" stroke="#666666" points="331,-198 196,-198 196,-157 331,-157 331,-198"/>
<text text-anchor="start" x="204" y="-186" font-family="Helvetica,sans-Serif" font-size="10.00">netspeak::invertedindex</text>
<text text-anchor="start" x="204" y="-175" font-family="Helvetica,sans-Serif" font-size="10.00">::Configuration::set_key</text>
<text text-anchor="middle" x="263.5" y="-164" font-family="Helvetica,sans-Serif" font-size="10.00">_sorting</text>
</a>
</g>
</g>
<!-- Node1&#45;&gt;Node23 -->
<g id="edge33_Node000001_Node000023" class="edge">
<title>Node1&#45;&gt;Node23</title>
<g id="a_edge33_Node000001_Node000023"><a xlink:title=" ">
<path fill="none" stroke="#63b8ff" d="M88.77,-292.99C107.89,-275.59 150.65,-238.08 191,-212.5 196.29,-209.15 201.94,-205.89 207.66,-202.79"/>
<polygon fill="#63b8ff" stroke="#63b8ff" points="209.44,-205.81 216.68,-198.07 206.19,-199.61 209.44,-205.81"/>
</a>
</g>
</g>
<!-- Node24 -->
<g id="Node000024" class="node">
<title>Node24</title>
<g id="a_Node000024"><a xlink:href="classnetspeak_1_1invertedindex_1_1Configuration.html#a5e970cb839b592bf203a0554bf9bc3ec" target="_top" xlink:title=" ">
<polygon fill="white" stroke="#666666" points="331.5,-139 195.5,-139 195.5,-98 331.5,-98 331.5,-139"/>
<text text-anchor="start" x="203.5" y="-127" font-family="Helvetica,sans-Serif" font-size="10.00">netspeak::invertedindex</text>
<text text-anchor="start" x="203.5" y="-116" font-family="Helvetica,sans-Serif" font-size="10.00">::Configuration::set_max</text>
<text text-anchor="middle" x="263.5" y="-105" font-family="Helvetica,sans-Serif" font-size="10.00">_memory_usage</text>
</a>
</g>
</g>
<!-- Node1&#45;&gt;Node24 -->
<g id="edge34_Node000001_Node000024" class="edge">
<title>Node1&#45;&gt;Node24</title>
<g id="a_edge34_Node000001_Node000024"><a xlink:title=" ">
<path fill="none" stroke="#63b8ff" d="M83.14,-292.69C96.31,-265.81 136.54,-190.13 191,-147.5 192.22,-146.55 193.47,-145.62 194.76,-144.72"/>
<polygon fill="#63b8ff" stroke="#63b8ff" points="197.01,-147.43 203.62,-139.15 193.29,-141.51 197.01,-147.43"/>
</a>
</g>
</g>
<!-- Node25 -->
<g id="Node000025" class="node">
<title>Node25</title>
<g id="a_Node000025"><a xlink:href="classnetspeak_1_1invertedindex_1_1Record.html#ac235645b336d639b06b2a75f890bb20f" target="_top" xlink:title=" ">
<polygon fill="white" stroke="#666666" points="507,-116.5 372,-116.5 372,-86.5 507,-86.5 507,-116.5"/>
<text text-anchor="start" x="380" y="-104.5" font-family="Helvetica,sans-Serif" font-size="10.00">netspeak::invertedindex</text>
<text text-anchor="middle" x="439.5" y="-93.5" font-family="Helvetica,sans-Serif" font-size="10.00">::Record::set_value</text>
</a>
</g>
</g>
<!-- Node1&#45;&gt;Node25 -->
<g id="edge35_Node000001_Node000025" class="edge">
<title>Node1&#45;&gt;Node25</title>
<g id="a_edge35_Node000001_Node000025"><a xlink:title=" ">
<path fill="none" stroke="#63b8ff" d="M80.02,-292.88C86.17,-257.73 112.68,-135.81 191,-88.5 251.2,-52.13 335.44,-67.51 388.46,-83.38"/>
<polygon fill="#63b8ff" stroke="#63b8ff" points="387.72,-86.81 398.31,-86.44 389.8,-80.13 387.72,-86.81"/>
</a>
</g>
</g>
<!-- Node26 -->
<g id="Node000026" class="node">
<title>Node26</title>
<g id="a_Node000026"><a xlink:href="classnetspeak_1_1invertedindex_1_1Configuration.html#ac6ff41d4e21b9f5f1f204ff53ec653b9" target="_top" xlink:title=" ">
<polygon fill="white" stroke="#666666" points="334,-41 193,-41 193,0 334,0 334,-41"/>
<text text-anchor="start" x="201" y="-29" font-family="Helvetica,sans-Serif" font-size="10.00">netspeak::invertedindex</text>
<text text-anchor="start" x="201" y="-18" font-family="Helvetica,sans-Serif" font-size="10.00">::Configuration::set_value</text>
<text text-anchor="middle" x="263.5" y="-7" font-family="Helvetica,sans-Serif" font-size="10.00">_sorting</text>
</a>
</g>
</g>
<!-- Node1&#45;&gt;Node26 -->
<g id="edge37_Node000001_Node000026" class="edge">
<title>Node1&#45;&gt;Node26</title>
<g id="a_edge37_Node000001_Node000026"><a xlink:title=" ">
<path fill="none" stroke="#63b8ff" d="M80.47,-292.66C88.16,-256.48 119.38,-129.14 191,-55.5 194.12,-52.29 197.59,-49.34 201.28,-46.62"/>
<polygon fill="#63b8ff" stroke="#63b8ff" points="203.26,-49.5 209.65,-41.05 199.38,-43.68 203.26,-49.5"/>
</a>
</g>
</g>
<!-- Node4 -->
<g id="Node000004" class="node">
<title>Node4</title>
<g id="a_Node000004"><a xlink:href="namespacenetspeak_1_1util.html#a4c91ad572508b4021399ac7dddff574d" target="_top" xlink:title=" ">
<polygon fill="white" stroke="#666666" points="982,-458 869,-458 869,-439 982,-439 982,-458"/>
<text text-anchor="middle" x="925.5" y="-446" font-family="Helvetica,sans-Serif" font-size="10.00">netspeak::util::hash</text>
</a>
</g>
</g>
<!-- Node3&#45;&gt;Node4 -->
<g id="edge3_Node000003_Node000004" class="edge">
<title>Node3&#45;&gt;Node4</title>
<g id="a_edge3_Node000003_Node000004"><a xlink:title=" ">
<path fill="none" stroke="#63b8ff" d="M804.58,-557.92C814.09,-554.18 824.37,-549.36 833,-543.5 865.15,-521.66 894.9,-487.01 911.29,-466.15"/>
<polygon fill="#63b8ff" stroke="#63b8ff" points="914.14,-468.18 917.46,-458.12 908.59,-463.91 914.14,-468.18"/>
</a>
</g>
</g>
<!-- Node6 -->
<g id="Node000006" class="node">
<title>Node6</title>
<g id="a_Node000006"><a xlink:href="structnetspeak_1_1invertedindex_1_1Properties.html#a1f62cdb1f59187bc35b5d5dafb1785fd" target="_top" xlink:title=" ">
<polygon fill="white" stroke="#666666" points="507,-430 372,-430 372,-389 507,-389 507,-430"/>
<text text-anchor="start" x="380" y="-418" font-family="Helvetica,sans-Serif" font-size="10.00">netspeak::invertedindex</text>
<text text-anchor="start" x="380" y="-407" font-family="Helvetica,sans-Serif" font-size="10.00">::Properties::default</text>
<text text-anchor="middle" x="439.5" y="-396" font-family="Helvetica,sans-Serif" font-size="10.00">_filename</text>
</a>
</g>
</g>
<!-- Node5&#45;&gt;Node6 -->
<g id="edge5_Node000005_Node000006" class="edge">
<title>Node5&#45;&gt;Node6</title>
<g id="a_edge5_Node000005_Node000006"><a xlink:title=" ">
<path fill="none" stroke="#63b8ff" d="M312.97,-448.46C328.35,-443.68 345.75,-438.28 362.58,-433.06"/>
<polygon fill="#63b8ff" stroke="#63b8ff" points="363.9,-436.32 372.41,-430.01 361.82,-429.63 363.9,-436.32"/>
</a>
</g>
</g>
<!-- Node7 -->
<g id="Node000007" class="node">
<title>Node7</title>
<g id="a_Node000007"><a xlink:href="namespacenetspeak_1_1util.html#ad2441a387c3a4c47e09c373e9412fad0" target="_top" xlink:title=" ">
<polygon fill="white" stroke="#666666" points="491.5,-355 387.5,-355 387.5,-336 491.5,-336 491.5,-355"/>
<text text-anchor="middle" x="439.5" y="-343" font-family="Helvetica,sans-Serif" font-size="10.00">netspeak::util::log</text>
</a>
</g>
</g>
<!-- Node5&#45;&gt;Node7 -->
<g id="edge6_Node000005_Node000007" class="edge">
<title>Node5&#45;&gt;Node7</title>
<g id="a_edge6_Node000005_Node000007"><a xlink:title=" ">
<path fill="none" stroke="#63b8ff" d="M321.85,-448.42C326.89,-445.88 331.7,-442.93 336,-439.5 360.01,-420.34 349.6,-401.52 372,-380.5 381.05,-372.01 392.56,-364.99 403.45,-359.53"/>
<polygon fill="#63b8ff" stroke="#63b8ff" points="405.22,-362.56 412.78,-355.13 402.24,-356.23 405.22,-362.56"/>
</a>
</g>
</g>
<!-- Node10 -->
<g id="Node000010" class="node">
<title>Node10</title>
<g id="a_Node000010"><a xlink:href="structnetspeak_1_1invertedindex_1_1Properties.html#a87ba24f5097e993de6077cebcf4f5f3a" target="_top" xlink:title=" ">
<polygon fill="white" stroke="#666666" points="507,-478.5 372,-478.5 372,-448.5 507,-448.5 507,-478.5"/>
<text text-anchor="start" x="380" y="-466.5" font-family="Helvetica,sans-Serif" font-size="10.00">netspeak::invertedindex</text>
<text text-anchor="middle" x="439.5" y="-455.5" font-family="Helvetica,sans-Serif" font-size="10.00">::Properties::write</text>
</a>
</g>
</g>
<!-- Node5&#45;&gt;Node10 -->
<g id="edge11_Node000005_Node000010" class="edge">
<title>Node5&#45;&gt;Node10</title>
<g id="a_edge11_Node000005_Node000010"><a xlink:title=" ">
<path fill="none" stroke="#63b8ff" d="M331.28,-463.5C341.27,-463.5 351.63,-463.5 361.81,-463.5"/>
<polygon fill="#63b8ff" stroke="#63b8ff" points="361.9,-467 371.9,-463.5 361.9,-460 361.9,-467"/>
</a>
</g>
</g>
<!-- Node7&#45;&gt;Node4 -->
<g id="edge8_Node000007_Node000004" class="edge">
<title>Node7&#45;&gt;Node4</title>
<g id="a_edge8_Node000007_Node000004"><a xlink:title=" ">
<path fill="none" stroke="#63b8ff" d="M491.78,-350.52C567.48,-358.73 713.14,-377.63 833,-411.5 854.43,-417.56 877.67,-427 895.38,-434.82"/>
<polygon fill="#63b8ff" stroke="#63b8ff" points="894.04,-438.06 904.59,-438.98 896.91,-431.68 894.04,-438.06"/>
</a>
</g>
</g>
<!-- Node8 -->
<g id="Node000008" class="node">
<title>Node8</title>
<g id="a_Node000008"><a xlink:href="namespacenetspeak_1_1util.html#ab27a22c787271513007af0719b17cef9" target="_top" xlink:title=" ">
<polygon fill="white" stroke="#666666" points="663,-339.5 558,-339.5 558,-309.5 663,-309.5 663,-339.5"/>
<text text-anchor="start" x="566" y="-327.5" font-family="Helvetica,sans-Serif" font-size="10.00">netspeak::util::get</text>
<text text-anchor="middle" x="610.5" y="-316.5" font-family="Helvetica,sans-Serif" font-size="10.00">_log_mutex</text>
</a>
</g>
</g>
<!-- Node7&#45;&gt;Node8 -->
<g id="edge7_Node000007_Node000008" class="edge">
<title>Node7&#45;&gt;Node8</title>
<g id="a_edge7_Node000007_Node000008"><a xlink:title=" ">
<path fill="none" stroke="#63b8ff" d="M491.66,-339.14C509.37,-336.94 529.4,-334.45 547.86,-332.16"/>
<polygon fill="#63b8ff" stroke="#63b8ff" points="548.43,-335.62 557.93,-330.91 547.57,-328.67 548.43,-335.62"/>
</a>
</g>
</g>
<!-- Node9 -->
<g id="Node000009" class="node">
<title>Node9</title>
<g id="a_Node000009"><a xlink:href="namespacenetspeak_1_1util.html#a93e18aaa529a497b6afdf4b3bd221182" target="_top" xlink:title=" ">
<polygon fill="white" stroke="#666666" points="829.5,-318.5 717.5,-318.5 717.5,-288.5 829.5,-288.5 829.5,-318.5"/>
<text text-anchor="start" x="725.5" y="-306.5" font-family="Helvetica,sans-Serif" font-size="10.00">netspeak::util::print</text>
<text text-anchor="middle" x="773.5" y="-295.5" font-family="Helvetica,sans-Serif" font-size="10.00">_timestamp_to</text>
</a>
</g>
</g>
<!-- Node7&#45;&gt;Node9 -->
<g id="edge9_Node000007_Node000009" class="edge">
<title>Node7&#45;&gt;Node9</title>
<g id="a_edge9_Node000007_Node000009"><a xlink:title=" ">
<path fill="none" stroke="#63b8ff" d="M456.48,-335.97C476.07,-324.9 510.67,-307.29 543,-300.5 597.38,-289.09 660.62,-291 706.93,-295.1"/>
<polygon fill="#63b8ff" stroke="#63b8ff" points="706.85,-298.61 717.13,-296.07 707.5,-291.64 706.85,-298.61"/>
</a>
</g>
</g>
<!-- Node9&#45;&gt;Node4 -->
<g id="edge10_Node000009_Node000004" class="edge">
<title>Node9&#45;&gt;Node4</title>
<g id="a_edge10_Node000009_Node000004"><a xlink:title=" ">
<path fill="none" stroke="#63b8ff" d="M793.08,-318.6C804.78,-328.29 820.07,-341.31 833,-353.5 860.71,-379.61 891.02,-411.87 908.86,-431.28"/>
<polygon fill="#63b8ff" stroke="#63b8ff" points="906.37,-433.75 915.7,-438.76 911.54,-429.02 906.37,-433.75"/>
</a>
</g>
</g>
<!-- Node11 -->
<g id="Node000011" class="node">
<title>Node11</title>
<g id="a_Node000011"><a xlink:href="namespacenetspeak_1_1util.html#a978978e70b474657b12402a3db711ef0" target="_top" xlink:title=" ">
<polygon fill="white" stroke="#666666" points="670,-501 551,-501 551,-482 670,-482 670,-501"/>
<text text-anchor="middle" x="610.5" y="-489" font-family="Helvetica,sans-Serif" font-size="10.00">netspeak::util::fclose</text>
</a>
</g>
</g>
<!-- Node10&#45;&gt;Node11 -->
<g id="edge12_Node000010_Node000011" class="edge">
<title>Node10&#45;&gt;Node11</title>
<g id="a_edge12_Node000010_Node000011"><a xlink:title=" ">
<path fill="none" stroke="#63b8ff" d="M507.29,-474.57C518.71,-476.46 530.58,-478.42 542.02,-480.32"/>
<polygon fill="#63b8ff" stroke="#63b8ff" points="541.49,-483.78 551.93,-481.96 542.64,-476.87 541.49,-483.78"/>
</a>
</g>
</g>
<!-- Node13 -->
<g id="Node000013" class="node">
<title>Node13</title>
<g id="a_Node000013"><a xlink:href="namespacenetspeak_1_1util.html#a4acc3d13f8d541f4b65dd44f486403fd" target="_top" xlink:title=" ">
<polygon fill="white" stroke="#666666" points="669,-464 552,-464 552,-445 669,-445 669,-464"/>
<text text-anchor="middle" x="610.5" y="-452" font-family="Helvetica,sans-Serif" font-size="10.00">netspeak::util::fopen</text>
</a>
</g>
</g>
<!-- Node10&#45;&gt;Node13 -->
<g id="edge16_Node000010_Node000013" class="edge">
<title>Node10&#45;&gt;Node13</title>
<g id="a_edge16_Node000010_Node000013"><a xlink:title=" ">
<path fill="none" stroke="#63b8ff" d="M507.29,-459.94C518.6,-459.34 530.34,-458.72 541.67,-458.11"/>
<polygon fill="#63b8ff" stroke="#63b8ff" points="542.13,-461.59 551.93,-457.57 541.76,-454.6 542.13,-461.59"/>
</a>
</g>
</g>
<!-- Node14 -->
<g id="Node000014" class="node">
<title>Node14</title>
<g id="a_Node000014"><a xlink:href="namespacenetspeak_1_1util.html#a33fbb28caf0f5be34cbce2f84faecb87" target="_top" xlink:title=" ">
<polygon fill="white" stroke="#666666" points="669,-427 552,-427 552,-408 669,-408 669,-427"/>
<text text-anchor="middle" x="610.5" y="-415" font-family="Helvetica,sans-Serif" font-size="10.00">netspeak::util::fwrite</text>
</a>
</g>
</g>
<!-- Node10&#45;&gt;Node14 -->
<g id="edge19_Node000010_Node000014" class="edge">
<title>Node10&#45;&gt;Node14</title>
<g id="a_edge19_Node000010_Node000014"><a xlink:title=" ">
<path fill="none" stroke="#63b8ff" d="M495.84,-448.44C518.19,-442.35 543.65,-435.42 564.8,-429.67"/>
<polygon fill="#63b8ff" stroke="#63b8ff" points="565.76,-433.03 574.49,-427.03 563.92,-426.28 565.76,-433.03"/>
</a>
</g>
</g>
<!-- Node11&#45;&gt;Node4 -->
<g id="edge13_Node000011_Node000004" class="edge">
<title>Node11&#45;&gt;Node4</title>
<g id="a_edge13_Node000011_Node000004"><a xlink:title=" ">
<path fill="none" stroke="#63b8ff" d="M670.04,-496.97C715.11,-499.68 778.68,-500.24 833,-488.5 856.31,-483.46 880.98,-472.29 898.82,-463.03"/>
<polygon fill="#63b8ff" stroke="#63b8ff" points="900.81,-465.94 907.98,-458.14 897.51,-459.77 900.81,-465.94"/>
</a>
</g>
</g>
<!-- Node12 -->
<g id="Node000012" class="node">
<title>Node12</title>
<g id="a_Node000012"><a xlink:href="namespacenetspeak_1_1util.html#af94d48fda5f335ddcb461a8237079866" target="_top" xlink:title=" ">
<polygon fill="white" stroke="#666666" points="833,-463.5 714,-463.5 714,-433.5 833,-433.5 833,-463.5"/>
<text text-anchor="start" x="722" y="-451.5" font-family="Helvetica,sans-Serif" font-size="10.00">netspeak::util::signal</text>
<text text-anchor="middle" x="773.5" y="-440.5" font-family="Helvetica,sans-Serif" font-size="10.00">_error</text>
</a>
</g>
</g>
<!-- Node11&#45;&gt;Node12 -->
<g id="edge14_Node000011_Node000012" class="edge">
<title>Node11&#45;&gt;Node12</title>
<g id="a_edge14_Node000011_Node000012"><a xlink:title=" ">
<path fill="none" stroke="#63b8ff" d="M647.23,-481.96C664.67,-477.3 686.21,-471.55 706.49,-466.13"/>
<polygon fill="#63b8ff" stroke="#63b8ff" points="707.56,-469.47 716.31,-463.51 705.75,-462.71 707.56,-469.47"/>
</a>
</g>
</g>
<!-- Node12&#45;&gt;Node4 -->
<g id="edge15_Node000012_Node000004" class="edge">
<title>Node12&#45;&gt;Node4</title>
<g id="a_edge15_Node000012_Node000004"><a xlink:title=" ">
<path fill="none" stroke="#63b8ff" d="M833.35,-448.5C841.64,-448.5 850.2,-448.5 858.61,-448.5"/>
<polygon fill="#63b8ff" stroke="#63b8ff" points="858.76,-452 868.76,-448.5 858.76,-445 858.76,-452"/>
</a>
</g>
</g>
<!-- Node13&#45;&gt;Node4 -->
<g id="edge17_Node000013_Node000004" class="edge">
<title>Node13&#45;&gt;Node4</title>
<g id="a_edge17_Node000013_Node000004"><a xlink:title=" ">
<path fill="none" stroke="#63b8ff" d="M655.93,-464.04C673.87,-467.43 694.83,-470.83 714,-472.5 766.69,-477.09 780.55,-479.26 833,-472.5 850.67,-470.22 869.8,-465.56 885.97,-460.95"/>
<polygon fill="#63b8ff" stroke="#63b8ff" points="887.02,-464.29 895.62,-458.11 885.04,-457.58 887.02,-464.29"/>
</a>
</g>
</g>
<!-- Node13&#45;&gt;Node12 -->
<g id="edge18_Node000013_Node000012" class="edge">
<title>Node13&#45;&gt;Node12</title>
<g id="a_edge18_Node000013_Node000012"><a xlink:title=" ">
<path fill="none" stroke="#63b8ff" d="M669.17,-452.35C680.41,-451.93 692.29,-451.49 703.84,-451.06"/>
<polygon fill="#63b8ff" stroke="#63b8ff" points="704.02,-454.55 713.88,-450.68 703.75,-447.56 704.02,-454.55"/>
</a>
</g>
</g>
<!-- Node14&#45;&gt;Node4 -->
<g id="edge20_Node000014_Node000004" class="edge">
<title>Node14&#45;&gt;Node4</title>
<g id="a_edge20_Node000014_Node000004"><a xlink:title=" ">
<path fill="none" stroke="#63b8ff" d="M669.18,-415.79C714.06,-415.31 777.79,-416.49 833,-424.5 850.2,-426.99 868.81,-431.53 884.73,-435.99"/>
<polygon fill="#63b8ff" stroke="#63b8ff" points="884.19,-439.47 894.77,-438.89 886.13,-432.75 884.19,-439.47"/>
</a>
</g>
</g>
<!-- Node14&#45;&gt;Node12 -->
<g id="edge21_Node000014_Node000012" class="edge">
<title>Node14&#45;&gt;Node12</title>
<g id="a_edge21_Node000014_Node000012"><a xlink:title=" ">
<path fill="none" stroke="#63b8ff" d="M661.12,-427.05C674.63,-429.66 689.51,-432.52 703.88,-435.29"/>
<polygon fill="#63b8ff" stroke="#63b8ff" points="703.24,-438.73 713.72,-437.18 704.56,-431.85 703.24,-438.73"/>
</a>
</g>
</g>
<!-- Node16&#45;&gt;Node7 -->
<g id="edge27_Node000016_Node000007" class="edge">
<title>Node16&#45;&gt;Node7</title>
<g id="a_edge27_Node000016_Node000007"><a xlink:title=" ">
<path fill="none" stroke="#63b8ff" d="M331.28,-335.64C346.38,-337.03 362.35,-338.5 377.22,-339.86"/>
<polygon fill="#63b8ff" stroke="#63b8ff" points="377.03,-343.36 387.31,-340.79 377.67,-336.39 377.03,-343.36"/>
</a>
</g>
</g>
<!-- Node17 -->
<g id="Node000017" class="node">
<title>Node17</title>
<g id="a_Node000017"><a xlink:href="classnetspeak_1_1invertedindex_1_1Indexer.html#af838a8cbb0fd6e4bbe3a268db6f6e771" target="_top" xlink:title=" ">
<polygon fill="white" stroke="#666666" points="507,-289.5 372,-289.5 372,-259.5 507,-259.5 507,-289.5"/>
<text text-anchor="start" x="380" y="-277.5" font-family="Helvetica,sans-Serif" font-size="10.00">netspeak::invertedindex</text>
<text text-anchor="middle" x="439.5" y="-266.5" font-family="Helvetica,sans-Serif" font-size="10.00">::Indexer::assert_record</text>
</a>
</g>
</g>
<!-- Node16&#45;&gt;Node17 -->
<g id="edge24_Node000016_Node000017" class="edge">
<title>Node16&#45;&gt;Node17</title>
<g id="a_edge24_Node000016_Node000017"><a xlink:title=" ">
<path fill="none" stroke="#63b8ff" d="M312.05,-314.47C333.43,-307.71 358.86,-299.68 381.28,-292.59"/>
<polygon fill="#63b8ff" stroke="#63b8ff" points="382.53,-295.86 391.01,-289.51 380.42,-289.19 382.53,-295.86"/>
</a>
</g>
</g>
<!-- Node18 -->
<g id="Node000018" class="node">
<title>Node18</title>
<g id="a_Node000018"><a xlink:href="classnetspeak_1_1invertedindex_1_1Record.html#a8c31f71f3940ea11d85fbfca276f0eca" target="_top" xlink:title=" ">
<polygon fill="white" stroke="#666666" points="678,-245.5 543,-245.5 543,-215.5 678,-215.5 678,-245.5"/>
<text text-anchor="start" x="551" y="-233.5" font-family="Helvetica,sans-Serif" font-size="10.00">netspeak::invertedindex</text>
<text text-anchor="middle" x="610.5" y="-222.5" font-family="Helvetica,sans-Serif" font-size="10.00">::Record::key</text>
</a>
</g>
</g>
<!-- Node17&#45;&gt;Node18 -->
<g id="edge25_Node000017_Node000018" class="edge">
<title>Node17&#45;&gt;Node18</title>
<g id="a_edge25_Node000017_Node000018"><a xlink:title=" ">
<path fill="none" stroke="#63b8ff" d="M498.19,-259.48C512.25,-255.82 527.42,-251.87 541.89,-248.1"/>
<polygon fill="#63b8ff" stroke="#63b8ff" points="542.99,-251.43 551.79,-245.53 541.23,-244.66 542.99,-251.43"/>
</a>
</g>
</g>
<!-- Node19 -->
<g id="Node000019" class="node">
<title>Node19</title>
<g id="a_Node000019"><a xlink:href="classnetspeak_1_1invertedindex_1_1Record.html#a0d49817e43096fd3bb77cef8c1a42dd5" target="_top" xlink:title=" ">
<polygon fill="white" stroke="#666666" points="678,-170.5 543,-170.5 543,-140.5 678,-140.5 678,-170.5"/>
<text text-anchor="start" x="551" y="-158.5" font-family="Helvetica,sans-Serif" font-size="10.00">netspeak::invertedindex</text>
<text text-anchor="middle" x="610.5" y="-147.5" font-family="Helvetica,sans-Serif" font-size="10.00">::Record::value</text>
</a>
</g>
</g>
<!-- Node17&#45;&gt;Node19 -->
<g id="edge26_Node000017_Node000019" class="edge">
<title>Node17&#45;&gt;Node19</title>
<g id="a_edge26_Node000017_Node000019"><a xlink:title=" ">
<path fill="none" stroke="#63b8ff" d="M491.34,-259.45C496.85,-256.87 502.19,-253.9 507,-250.5 527.63,-235.91 524.85,-224.08 543,-206.5 554.01,-195.83 567.23,-185.3 578.97,-176.6"/>
<polygon fill="#63b8ff" stroke="#63b8ff" points="581.18,-179.33 587.21,-170.62 577.06,-173.66 581.18,-179.33"/>
</a>
</g>
</g>
<!-- Node20&#45;&gt;Node7 -->
<g id="edge29_Node000020_Node000007" class="edge">
<title>Node20&#45;&gt;Node7</title>
<g id="a_edge29_Node000020_Node000007"><a xlink:title=" ">
<path fill="none" stroke="#63b8ff" d="M336.03,-364.35C349.77,-361.82 364.05,-359.19 377.42,-356.73"/>
<polygon fill="#63b8ff" stroke="#63b8ff" points="378.25,-360.14 387.45,-354.89 376.98,-353.25 378.25,-360.14"/>
</a>
</g>
</g>
<!-- Node22&#45;&gt;Node18 -->
<g id="edge32_Node000022_Node000018" class="edge">
<title>Node22&#45;&gt;Node18</title>
<g id="a_edge32_Node000022_Node000018"><a xlink:title=" ">
<path fill="none" stroke="#63b8ff" d="M507.29,-228.08C515.62,-228.28 524.19,-228.48 532.66,-228.68"/>
<polygon fill="#63b8ff" stroke="#63b8ff" points="532.84,-232.19 542.92,-228.92 533,-225.19 532.84,-232.19"/>
</a>
</g>
</g>
<!-- Node25&#45;&gt;Node19 -->
<g id="edge36_Node000025_Node000019" class="edge">
<title>Node25&#45;&gt;Node19</title>
<g id="a_edge36_Node000025_Node000019"><a xlink:title=" ">
<path fill="none" stroke="#63b8ff" d="M487.58,-116.54C507.82,-123.01 531.65,-130.63 552.85,-137.4"/>
<polygon fill="#63b8ff" stroke="#63b8ff" points="551.79,-140.74 562.38,-140.45 553.92,-134.07 551.79,-140.74"/>
</a>
</g>
</g>
</g>
</svg>
