<?xml version="1.0" encoding="UTF-8" standalone="no"?>
<!DOCTYPE svg PUBLIC "-//W3C//DTD SVG 1.1//EN"
 "http://www.w3.org/Graphics/SVG/1.1/DTD/svg11.dtd">
<!-- Generated by graphviz version 2.43.0 (0)
 -->
<!-- Title: netspeak::util::ftell Pages: 1 -->
<svg width="420pt" height="54pt"
 viewBox="0.00 0.00 420.00 53.50" xmlns="http://www.w3.org/2000/svg" xmlns:xlink="http://www.w3.org/1999/xlink">
<g id="graph0" class="graph" transform="scale(1 1) rotate(0) translate(4 49.5)">
<title>netspeak::util::ftell</title>
<!-- Node1 -->
<g id="Node000001" class="node">
<title>Node1</title>
<g id="a_Node000001"><a xlink:title=" ">
<polygon fill="#999999" stroke="#666666" points="108,-45.5 0,-45.5 0,-26.5 108,-26.5 108,-45.5"/>
<text text-anchor="middle" x="54" y="-33.5" font-family="Helvetica,sans-Serif" font-size="10.00">netspeak::util::ftell</text>
</a>
</g>
</g>
<!-- Node2 -->
<g id="Node000002" class="node">
<title>Node2</title>
<g id="a_Node000002"><a xlink:href="namespacenetspeak_1_1util.html#a4c91ad572508b4021399ac7dddff574d" target="_top" xlink:title=" ">
<polygon fill="white" stroke="#666666" points="412,-45.5 299,-45.5 299,-26.5 412,-26.5 412,-45.5"/>
<text text-anchor="middle" x="355.5" y="-33.5" font-family="Helvetica,sans-Serif" font-size="10.00">netspeak::util::hash</text>
</a>
</g>
</g>
<!-- Node1&#45;&gt;Node2 -->
<g id="edge1_Node000001_Node000002" class="edge">
<title>Node1&#45;&gt;Node2</title>
<g id="a_edge1_Node000001_Node000002"><a xlink:title=" ">
<path fill="none" stroke="#63b8ff" d="M108.17,-38.09C119.97,-38.47 132.41,-38.8 144,-39 196.88,-39.89 210.12,-39.87 263,-39 271.34,-38.86 280.1,-38.66 288.77,-38.41"/>
<polygon fill="#63b8ff" stroke="#63b8ff" points="288.97,-41.91 298.86,-38.12 288.76,-34.91 288.97,-41.91"/>
</a>
</g>
</g>
<!-- Node3 -->
<g id="Node000003" class="node">
<title>Node3</title>
<g id="a_Node000003"><a xlink:href="namespacenetspeak_1_1util.html#af94d48fda5f335ddcb461a8237079866" target="_top" xlink:title=" ">
<polygon fill="white" stroke="#666666" points="263,-30 144,-30 144,0 263,0 263,-30"/>
<text text-anchor="start" x="152" y="-18" font-family="Helvetica,sans-Serif" font-size="10.00">netspeak::util::signal</text>
<text text-anchor="middle" x="203.5" y="-7" font-family="Helvetica,sans-Serif" font-size="10.00">_error</text>
</a>
</g>
</g>
<!-- Node1&#45;&gt;Node3 -->
<g id="edge2_Node000001_Node000003" class="edge">
<title>Node1&#45;&gt;Node3</title>
<g id="a_edge2_Node000001_Node000003"><a xlink:title=" ">
<path fill="none" stroke="#63b8ff" d="M108.25,-28.42C116.55,-27.24 125.23,-26 133.82,-24.78"/>
<polygon fill="#63b8ff" stroke="#63b8ff" points="134.43,-28.23 143.83,-23.35 133.44,-21.3 134.43,-28.23"/>
</a>
</g>
</g>
<!-- Node3&#45;&gt;Node2 -->
<g id="edge3_Node000003_Node000002" class="edge">
<title>Node3&#45;&gt;Node2</title>
<g id="a_edge3_Node000003_Node000002"><a xlink:title=" ">
<path fill="none" stroke="#63b8ff" d="M263.35,-23.24C271.64,-24.4 280.2,-25.6 288.61,-26.78"/>
<polygon fill="#63b8ff" stroke="#63b8ff" points="288.37,-30.28 298.76,-28.2 289.34,-23.34 288.37,-30.28"/>
</a>
</g>
</g>
</g>
</svg>
