<?xml version="1.0" encoding="UTF-8" standalone="no"?>
<!DOCTYPE svg PUBLIC "-//W3C//DTD SVG 1.1//EN"
 "http://www.w3.org/Graphics/SVG/1.1/DTD/svg11.dtd">
<!-- Generated by graphviz version 2.43.0 (0)
 -->
<!-- Title: cli::RunLocalServerShell Pages: 1 -->
<svg width="429pt" height="64pt"
 viewBox="0.00 0.00 429.00 64.00" xmlns="http://www.w3.org/2000/svg" xmlns:xlink="http://www.w3.org/1999/xlink">
<g id="graph0" class="graph" transform="scale(1 1) rotate(0) translate(4 60)">
<title>cli::RunLocalServerShell</title>
<!-- Node1 -->
<g id="Node000001" class="node">
<title>Node1</title>
<g id="a_Node000001"><a xlink:title=" ">
<polygon fill="#999999" stroke="#666666" points="134,-37 0,-37 0,-18 134,-18 134,-37"/>
<text text-anchor="middle" x="67" y="-25" font-family="Helvetica,sans-Serif" font-size="10.00">cli::RunLocalServerShell</text>
</a>
</g>
</g>
<!-- Node2 -->
<g id="Node000002" class="node">
<title>Node2</title>
<g id="a_Node000002"><a xlink:href="namespacecli.html#a83d85626e46ec5febb1e46ac750f88cb" target="_top" xlink:title=" ">
<polygon fill="white" stroke="#666666" points="297,-56 170,-56 170,-37 297,-37 297,-56"/>
<text text-anchor="middle" x="233.5" y="-44" font-family="Helvetica,sans-Serif" font-size="10.00">cli::handle_corpus_key</text>
</a>
</g>
</g>
<!-- Node1&#45;&gt;Node2 -->
<g id="edge1_Node000001_Node000002" class="edge">
<title>Node1&#45;&gt;Node2</title>
<g id="a_edge1_Node000001_Node000002"><a xlink:title=" ">
<path fill="none" stroke="#63b8ff" d="M134.43,-35.17C142.74,-36.13 151.27,-37.12 159.66,-38.09"/>
<polygon fill="#63b8ff" stroke="#63b8ff" points="159.48,-41.59 169.81,-39.26 160.28,-34.64 159.48,-41.59"/>
</a>
</g>
</g>
<!-- Node4 -->
<g id="Node000004" class="node">
<title>Node4</title>
<g id="a_Node000004"><a xlink:href="namespacecli.html#a4671fa197b7eee6dfa2cd7789a6f4d29" target="_top" xlink:title=" ">
<polygon fill="white" stroke="#666666" points="272,-19 195,-19 195,0 272,0 272,-19"/>
<text text-anchor="middle" x="233.5" y="-7" font-family="Helvetica,sans-Serif" font-size="10.00">cli::RunShell</text>
</a>
</g>
</g>
<!-- Node1&#45;&gt;Node4 -->
<g id="edge3_Node000001_Node000004" class="edge">
<title>Node1&#45;&gt;Node4</title>
<g id="a_edge3_Node000001_Node000004"><a xlink:title=" ">
<path fill="none" stroke="#63b8ff" d="M134.43,-20.23C151.26,-18.39 169,-16.45 184.7,-14.73"/>
<polygon fill="#63b8ff" stroke="#63b8ff" points="185.13,-18.2 194.69,-13.64 184.37,-11.25 185.13,-18.2"/>
</a>
</g>
</g>
<!-- Node3 -->
<g id="Node000003" class="node">
<title>Node3</title>
<g id="a_Node000003"><a xlink:href="namespacecli.html#ae9428c4a49b414b314134bdf38214c6e" target="_top" xlink:title="Returns the corpora of the given stub.">
<polygon fill="white" stroke="#666666" points="421,-56 333,-56 333,-37 421,-37 421,-56"/>
<text text-anchor="middle" x="377" y="-44" font-family="Helvetica,sans-Serif" font-size="10.00">cli::getCorpora</text>
</a>
</g>
</g>
<!-- Node2&#45;&gt;Node3 -->
<g id="edge2_Node000002_Node000003" class="edge">
<title>Node2&#45;&gt;Node3</title>
<g id="a_edge2_Node000002_Node000003"><a xlink:title=" ">
<path fill="none" stroke="#63b8ff" d="M297.39,-46.5C305.8,-46.5 314.35,-46.5 322.58,-46.5"/>
<polygon fill="#63b8ff" stroke="#63b8ff" points="322.78,-50 332.78,-46.5 322.78,-43 322.78,-50"/>
</a>
</g>
</g>
</g>
</svg>
