<?xml version="1.0" encoding="UTF-8" standalone="no"?>
<!DOCTYPE svg PUBLIC "-//W3C//DTD SVG 1.1//EN"
 "http://www.w3.org/Graphics/SVG/1.1/DTD/svg11.dtd">
<!-- Generated by graphviz version 2.43.0 (0)
 -->
<!-- Title: netspeak::model::operator&lt;&lt; Pages: 1 -->
<svg width="358pt" height="124pt"
 viewBox="0.00 0.00 358.00 124.00" xmlns="http://www.w3.org/2000/svg" xmlns:xlink="http://www.w3.org/1999/xlink">
<g id="graph0" class="graph" transform="scale(1 1) rotate(0) translate(4 120)">
<title>netspeak::model::operator&lt;&lt;</title>
<!-- Node1 -->
<g id="Node000001" class="node">
<title>Node1</title>
<g id="a_Node000001"><a xlink:title=" ">
<polygon fill="#999999" stroke="#666666" points="162,-67.5 0,-67.5 0,-48.5 162,-48.5 162,-67.5"/>
<text text-anchor="middle" x="81" y="-55.5" font-family="Helvetica,sans-Serif" font-size="10.00">netspeak::model::operator&lt;&lt;</text>
</a>
</g>
</g>
<!-- Node2 -->
<g id="Node000002" class="node">
<title>Node2</title>
<g id="a_Node000002"><a xlink:href="classnetspeak_1_1model_1_1Phrase.html#acfc15d1ae254baa86daa01723e7e5778" target="_top" xlink:title=" ">
<polygon fill="white" stroke="#666666" points="342.5,-116 205.5,-116 205.5,-86 342.5,-86 342.5,-116"/>
<text text-anchor="start" x="213.5" y="-104" font-family="Helvetica,sans-Serif" font-size="10.00">netspeak::model::Phrase</text>
<text text-anchor="middle" x="274" y="-93" font-family="Helvetica,sans-Serif" font-size="10.00">::freq</text>
</a>
</g>
</g>
<!-- Node1&#45;&gt;Node2 -->
<g id="edge1_Node000001_Node000002" class="edge">
<title>Node1&#45;&gt;Node2</title>
<g id="a_edge1_Node000001_Node000002"><a xlink:title=" ">
<path fill="none" stroke="#63b8ff" d="M124.39,-67.54C145.54,-72.31 171.8,-78.22 196.32,-83.74"/>
<polygon fill="#63b8ff" stroke="#63b8ff" points="195.82,-87.21 206.34,-85.99 197.36,-80.38 195.82,-87.21"/>
</a>
</g>
</g>
<!-- Node3 -->
<g id="Node000003" class="node">
<title>Node3</title>
<g id="a_Node000003"><a xlink:href="classnetspeak_1_1model_1_1Phrase.html#abf504a6571722f250cd0738da12cfc19" target="_top" xlink:title=" ">
<polygon fill="white" stroke="#666666" points="350,-67.5 198,-67.5 198,-48.5 350,-48.5 350,-67.5"/>
<text text-anchor="middle" x="274" y="-55.5" font-family="Helvetica,sans-Serif" font-size="10.00">netspeak::model::Phrase::id</text>
</a>
</g>
</g>
<!-- Node1&#45;&gt;Node3 -->
<g id="edge2_Node000001_Node000003" class="edge">
<title>Node1&#45;&gt;Node3</title>
<g id="a_edge2_Node000001_Node000003"><a xlink:title=" ">
<path fill="none" stroke="#63b8ff" d="M162.17,-58C170.59,-58 179.17,-58 187.65,-58"/>
<polygon fill="#63b8ff" stroke="#63b8ff" points="187.91,-61.5 197.91,-58 187.91,-54.5 187.91,-61.5"/>
</a>
</g>
</g>
<!-- Node4 -->
<g id="Node000004" class="node">
<title>Node4</title>
<g id="a_Node000004"><a xlink:href="classnetspeak_1_1model_1_1Phrase.html#a0cfea75b7cad4d3c9a3cd111789bd42f" target="_top" xlink:title=" ">
<polygon fill="white" stroke="#666666" points="342.5,-30 205.5,-30 205.5,0 342.5,0 342.5,-30"/>
<text text-anchor="start" x="213.5" y="-18" font-family="Helvetica,sans-Serif" font-size="10.00">netspeak::model::Phrase</text>
<text text-anchor="middle" x="274" y="-7" font-family="Helvetica,sans-Serif" font-size="10.00">::words</text>
</a>
</g>
</g>
<!-- Node1&#45;&gt;Node4 -->
<g id="edge3_Node000001_Node000004" class="edge">
<title>Node1&#45;&gt;Node4</title>
<g id="a_edge3_Node000001_Node000004"><a xlink:title=" ">
<path fill="none" stroke="#63b8ff" d="M124.39,-48.46C145.54,-43.69 171.8,-37.78 196.32,-32.26"/>
<polygon fill="#63b8ff" stroke="#63b8ff" points="197.36,-35.62 206.34,-30.01 195.82,-28.79 197.36,-35.62"/>
</a>
</g>
</g>
</g>
</svg>
