<?xml version="1.0" encoding="UTF-8" standalone="no"?>
<!DOCTYPE svg PUBLIC "-//W3C//DTD SVG 1.1//EN"
 "http://www.w3.org/Graphics/SVG/1.1/DTD/svg11.dtd">
<!-- Generated by graphviz version 2.43.0 (0)
 -->
<!-- Title: netspeak::BuildPhraseDictionary Pages: 1 -->
<svg width="1544pt" height="500pt"
 viewBox="0.00 0.00 1544.00 500.17" xmlns="http://www.w3.org/2000/svg" xmlns:xlink="http://www.w3.org/1999/xlink">
<g id="graph0" class="graph" transform="scale(1 1) rotate(0) translate(4 496.17)">
<title>netspeak::BuildPhraseDictionary</title>
<!-- Node1 -->
<g id="Node000001" class="node">
<title>Node1</title>
<g id="a_Node000001"><a xlink:title=" ">
<polygon fill="#999999" stroke="#666666" points="176,-179.5 0,-179.5 0,-160.5 176,-160.5 176,-179.5"/>
<text text-anchor="middle" x="88" y="-167.5" font-family="Helvetica,sans-Serif" font-size="10.00">netspeak::BuildPhraseDictionary</text>
</a>
</g>
</g>
<!-- Node2 -->
<g id="Node000002" class="node">
<title>Node2</title>
<g id="a_Node000002"><a xlink:href="classnetspeak_1_1bighashmap_1_1BigHashMap.html#a962d40196fcce78f1ddef98eb3d8344c" target="_top" xlink:title=" ">
<polygon fill="white" stroke="#666666" points="340,-185 212,-185 212,-155 340,-155 340,-185"/>
<text text-anchor="start" x="220" y="-173" font-family="Helvetica,sans-Serif" font-size="10.00">netspeak::bighashmap</text>
<text text-anchor="middle" x="276" y="-162" font-family="Helvetica,sans-Serif" font-size="10.00">::BigHashMap::Build</text>
</a>
</g>
</g>
<!-- Node1&#45;&gt;Node2 -->
<g id="edge1_Node000001_Node000002" class="edge">
<title>Node1&#45;&gt;Node2</title>
<g id="a_edge1_Node000001_Node000002"><a xlink:title=" ">
<path fill="none" stroke="#63b8ff" d="M176.01,-170C184.61,-170 193.29,-170 201.73,-170"/>
<polygon fill="#63b8ff" stroke="#63b8ff" points="201.9,-173.5 211.9,-170 201.9,-166.5 201.9,-173.5"/>
</a>
</g>
</g>
<!-- Node3 -->
<g id="Node000003" class="node">
<title>Node3</title>
<g id="a_Node000003"><a xlink:href="classnetspeak_1_1bighashmap_1_1BigHashMap.html#a1aec263d5ed654c835a42f250b05e077" target="_top" xlink:title=" ">
<polygon fill="white" stroke="#666666" points="513,-209 376,-209 376,-179 513,-179 513,-209"/>
<text text-anchor="start" x="384" y="-197" font-family="Helvetica,sans-Serif" font-size="10.00">netspeak::bighashmap</text>
<text text-anchor="middle" x="444.5" y="-186" font-family="Helvetica,sans-Serif" font-size="10.00">::BigHashMap::algorithm</text>
</a>
</g>
</g>
<!-- Node2&#45;&gt;Node3 -->
<g id="edge2_Node000002_Node000003" class="edge">
<title>Node2&#45;&gt;Node3</title>
<g id="a_edge2_Node000002_Node000003"><a xlink:title=" ">
<path fill="none" stroke="#63b8ff" d="M340.42,-179.14C348.74,-180.34 357.35,-181.58 365.87,-182.81"/>
<polygon fill="#63b8ff" stroke="#63b8ff" points="365.42,-186.28 375.82,-184.24 366.42,-179.35 365.42,-186.28"/>
</a>
</g>
</g>
<!-- Node4 -->
<g id="Node000004" class="node">
<title>Node4</title>
<g id="a_Node000004"><a xlink:href="classnetspeak_1_1bighashmap_1_1Builder.html#a66906e74a9afa4707cfb7c999c0c635a" target="_top" xlink:title=" ">
<polygon fill="white" stroke="#666666" points="508.5,-161 380.5,-161 380.5,-131 508.5,-131 508.5,-161"/>
<text text-anchor="start" x="388.5" y="-149" font-family="Helvetica,sans-Serif" font-size="10.00">netspeak::bighashmap</text>
<text text-anchor="middle" x="444.5" y="-138" font-family="Helvetica,sans-Serif" font-size="10.00">::Builder::Build</text>
</a>
</g>
</g>
<!-- Node2&#45;&gt;Node4 -->
<g id="edge3_Node000002_Node000004" class="edge">
<title>Node2&#45;&gt;Node4</title>
<g id="a_edge3_Node000002_Node000004"><a xlink:title=" ">
<path fill="none" stroke="#63b8ff" d="M340.42,-160.86C350.11,-159.46 360.17,-158.01 370.05,-156.59"/>
<polygon fill="#63b8ff" stroke="#63b8ff" points="370.86,-160.01 380.25,-155.12 369.86,-153.08 370.86,-160.01"/>
</a>
</g>
</g>
<!-- Node5 -->
<g id="Node000005" class="node">
<title>Node5</title>
<g id="a_Node000005"><a xlink:href="classnetspeak_1_1bighashmap_1_1Builder.html#a8435164185bac78bacf97c66e78b9a27" target="_top" xlink:title=" ">
<polygon fill="white" stroke="#666666" points="677,-368 549,-368 549,-338 677,-338 677,-368"/>
<text text-anchor="start" x="557" y="-356" font-family="Helvetica,sans-Serif" font-size="10.00">netspeak::bighashmap</text>
<text text-anchor="middle" x="613" y="-345" font-family="Helvetica,sans-Serif" font-size="10.00">::Builder::BuildMap</text>
</a>
</g>
</g>
<!-- Node4&#45;&gt;Node5 -->
<g id="edge4_Node000004_Node000005" class="edge">
<title>Node4&#45;&gt;Node5</title>
<g id="a_edge4_Node000004_Node000005"><a xlink:title=" ">
<path fill="none" stroke="#63b8ff" d="M499.83,-161.15C504.55,-163.67 509.03,-166.6 513,-170 563.51,-213.26 592.58,-288.96 604.91,-328.05"/>
<polygon fill="#63b8ff" stroke="#63b8ff" points="601.63,-329.28 607.89,-337.83 608.33,-327.24 601.63,-329.28"/>
</a>
</g>
</g>
<!-- Node12 -->
<g id="Node000012" class="node">
<title>Node12</title>
<g id="a_Node000012"><a xlink:href="namespacenetspeak_1_1util.html#ad2441a387c3a4c47e09c373e9412fad0" target="_top" xlink:title=" ">
<polygon fill="white" stroke="#666666" points="1197.5,-155.5 1093.5,-155.5 1093.5,-136.5 1197.5,-136.5 1197.5,-155.5"/>
<text text-anchor="middle" x="1145.5" y="-143.5" font-family="Helvetica,sans-Serif" font-size="10.00">netspeak::util::log</text>
</a>
</g>
</g>
<!-- Node4&#45;&gt;Node12 -->
<g id="edge32_Node000004_Node000012" class="edge">
<title>Node4&#45;&gt;Node12</title>
<g id="a_edge32_Node000004_Node000012"><a xlink:title=" ">
<path fill="none" stroke="#63b8ff" d="M508.76,-146C642.26,-146 951.3,-146 1083.12,-146"/>
<polygon fill="#63b8ff" stroke="#63b8ff" points="1083.44,-149.5 1093.44,-146 1083.44,-142.5 1083.44,-149.5"/>
</a>
</g>
</g>
<!-- Node23 -->
<g id="Node000023" class="node">
<title>Node23</title>
<g id="a_Node000023"><a xlink:href="classnetspeak_1_1bighashmap_1_1Builder.html#a7144d697e3b176b53d03f0b4dcca71d1" target="_top" xlink:title=" ">
<polygon fill="white" stroke="#666666" points="1036,-118 908,-118 908,-88 1036,-88 1036,-118"/>
<text text-anchor="start" x="916" y="-106" font-family="Helvetica,sans-Serif" font-size="10.00">netspeak::bighashmap</text>
<text text-anchor="middle" x="972" y="-95" font-family="Helvetica,sans-Serif" font-size="10.00">::Builder::Partition</text>
</a>
</g>
</g>
<!-- Node4&#45;&gt;Node23 -->
<g id="edge33_Node000004_Node000023" class="edge">
<title>Node4&#45;&gt;Node23</title>
<g id="a_edge33_Node000004_Node000023"><a xlink:title=" ">
<path fill="none" stroke="#63b8ff" d="M508.64,-136.79C521.95,-135.03 535.92,-133.33 549,-132 671.03,-119.57 813.47,-111.01 897.74,-106.57"/>
<polygon fill="#63b8ff" stroke="#63b8ff" points="898.17,-110.05 907.97,-106.03 897.8,-103.06 898.17,-110.05"/>
</a>
</g>
</g>
<!-- Node6 -->
<g id="Node000006" class="node">
<title>Node6</title>
<g id="a_Node000006"><a xlink:href="classnetspeak_1_1bighashmap_1_1Builder.html#aee77cc2f04280bd3b36aad2c7e22c52b" target="_top" xlink:title=" ">
<polygon fill="white" stroke="#666666" points="867,-390 713,-390 713,-360 867,-360 867,-390"/>
<text text-anchor="start" x="721" y="-378" font-family="Helvetica,sans-Serif" font-size="10.00">netspeak::bighashmap</text>
<text text-anchor="middle" x="790" y="-367" font-family="Helvetica,sans-Serif" font-size="10.00">::Builder::BuildHashFunction</text>
</a>
</g>
</g>
<!-- Node5&#45;&gt;Node6 -->
<g id="edge5_Node000005_Node000006" class="edge">
<title>Node5&#45;&gt;Node6</title>
<g id="a_edge5_Node000005_Node000006"><a xlink:title=" ">
<path fill="none" stroke="#63b8ff" d="M677.18,-360.94C685.48,-361.99 694.1,-363.07 702.71,-364.15"/>
<polygon fill="#63b8ff" stroke="#63b8ff" points="702.42,-367.64 712.78,-365.42 703.3,-360.7 702.42,-367.64"/>
</a>
</g>
</g>
<!-- Node15 -->
<g id="Node000015" class="node">
<title>Node15</title>
<g id="a_Node000015"><a xlink:href="classnetspeak_1_1bighashmap_1_1Builder.html#a333ad1bb51cee1f0177b6b631148a423" target="_top" xlink:title=" ">
<polygon fill="white" stroke="#666666" points="1041,-347 903,-347 903,-317 1041,-317 1041,-347"/>
<text text-anchor="start" x="911" y="-335" font-family="Helvetica,sans-Serif" font-size="10.00">netspeak::bighashmap</text>
<text text-anchor="middle" x="972" y="-324" font-family="Helvetica,sans-Serif" font-size="10.00">::Builder::BuildHashTable</text>
</a>
</g>
</g>
<!-- Node5&#45;&gt;Node15 -->
<g id="edge19_Node000005_Node000015" class="edge">
<title>Node5&#45;&gt;Node15</title>
<g id="a_edge19_Node000005_Node000015"><a xlink:title=" ">
<path fill="none" stroke="#63b8ff" d="M677,-349.29C737.14,-345.76 827.93,-340.42 892.69,-336.61"/>
<polygon fill="#63b8ff" stroke="#63b8ff" points="893.07,-340.09 902.85,-336.01 892.66,-333.1 893.07,-340.09"/>
</a>
</g>
</g>
<!-- Node22 -->
<g id="Node000022" class="node">
<title>Node22</title>
<g id="a_Node000022"><a xlink:href="classnetspeak_1_1bighashmap_1_1Builder.html#aa0aabbe526c4b5268a49a69f23ff7615" target="_top" xlink:title=" ">
<polygon fill="white" stroke="#666666" points="855.5,-438 724.5,-438 724.5,-408 855.5,-408 855.5,-438"/>
<text text-anchor="start" x="732.5" y="-426" font-family="Helvetica,sans-Serif" font-size="10.00">netspeak::bighashmap</text>
<text text-anchor="middle" x="790" y="-415" font-family="Helvetica,sans-Serif" font-size="10.00">::Builder::CreateKeyFile</text>
</a>
</g>
</g>
<!-- Node5&#45;&gt;Node22 -->
<g id="edge31_Node000005_Node000022" class="edge">
<title>Node5&#45;&gt;Node22</title>
<g id="a_edge31_Node000005_Node000022"><a xlink:title=" ">
<path fill="none" stroke="#63b8ff" d="M643.89,-368.12C663.31,-377.63 689.33,-389.81 713,-399 718,-400.94 723.22,-402.84 728.5,-404.68"/>
<polygon fill="#63b8ff" stroke="#63b8ff" points="727.4,-408 737.99,-407.89 729.64,-401.37 727.4,-408"/>
</a>
</g>
</g>
<!-- Node7 -->
<g id="Node000007" class="node">
<title>Node7</title>
<g id="a_Node000007"><a xlink:href="namespacenetspeak_1_1util.html#a978978e70b474657b12402a3db711ef0" target="_top" xlink:title=" ">
<polygon fill="white" stroke="#666666" points="1205,-449.5 1086,-449.5 1086,-430.5 1205,-430.5 1205,-449.5"/>
<text text-anchor="middle" x="1145.5" y="-437.5" font-family="Helvetica,sans-Serif" font-size="10.00">netspeak::util::fclose</text>
</a>
</g>
</g>
<!-- Node6&#45;&gt;Node7 -->
<g id="edge6_Node000006_Node000007" class="edge">
<title>Node6&#45;&gt;Node7</title>
<g id="a_edge6_Node000006_Node000007"><a xlink:title=" ">
<path fill="none" stroke="#63b8ff" d="M867.27,-389.02C931.64,-400.86 1022.64,-417.59 1082.58,-428.61"/>
<polygon fill="#63b8ff" stroke="#63b8ff" points="1082.19,-432.1 1092.66,-430.47 1083.45,-425.22 1082.19,-432.1"/>
</a>
</g>
</g>
<!-- Node10 -->
<g id="Node000010" class="node">
<title>Node10</title>
<g id="a_Node000010"><a xlink:href="namespacenetspeak_1_1util.html#a4acc3d13f8d541f4b65dd44f486403fd" target="_top" xlink:title=" ">
<polygon fill="white" stroke="#666666" points="1204,-486.5 1087,-486.5 1087,-467.5 1204,-467.5 1204,-486.5"/>
<text text-anchor="middle" x="1145.5" y="-474.5" font-family="Helvetica,sans-Serif" font-size="10.00">netspeak::util::fopen</text>
</a>
</g>
</g>
<!-- Node6&#45;&gt;Node10 -->
<g id="edge10_Node000006_Node000010" class="edge">
<title>Node6&#45;&gt;Node10</title>
<g id="a_edge10_Node000006_Node000010"><a xlink:title=" ">
<path fill="none" stroke="#63b8ff" d="M844.83,-390.05C852.39,-392.73 859.98,-395.72 867,-399 884.2,-407.04 885.48,-414.67 903,-422 959.23,-445.52 1027.22,-459.86 1076.72,-467.97"/>
<polygon fill="#63b8ff" stroke="#63b8ff" points="1076.25,-471.44 1086.67,-469.56 1077.35,-464.52 1076.25,-471.44"/>
</a>
</g>
</g>
<!-- Node11 -->
<g id="Node000011" class="node">
<title>Node11</title>
<g id="a_Node000011"><a xlink:href="classnetspeak_1_1bighashmap_1_1Builder.html#aea46a1ff17f1139f366352a804b28cc9" target="_top" xlink:title=" ">
<polygon fill="white" stroke="#666666" points="1036,-256 908,-256 908,-226 1036,-226 1036,-256"/>
<text text-anchor="start" x="916" y="-244" font-family="Helvetica,sans-Serif" font-size="10.00">netspeak::bighashmap</text>
<text text-anchor="middle" x="972" y="-233" font-family="Helvetica,sans-Serif" font-size="10.00">::Builder::IsUnique</text>
</a>
</g>
</g>
<!-- Node6&#45;&gt;Node11 -->
<g id="edge13_Node000006_Node000011" class="edge">
<title>Node6&#45;&gt;Node11</title>
<g id="a_edge13_Node000006_Node000011"><a xlink:title=" ">
<path fill="none" stroke="#63b8ff" d="M811.3,-359.89C843.39,-336 905.94,-289.43 942.51,-262.21"/>
<polygon fill="#63b8ff" stroke="#63b8ff" points="944.84,-264.83 950.78,-256.06 940.66,-259.22 944.84,-264.83"/>
</a>
</g>
</g>
<!-- Node8 -->
<g id="Node000008" class="node">
<title>Node8</title>
<g id="a_Node000008"><a xlink:href="namespacenetspeak_1_1util.html#a4c91ad572508b4021399ac7dddff574d" target="_top" xlink:title=" ">
<polygon fill="white" stroke="#666666" points="1536,-249.5 1423,-249.5 1423,-230.5 1536,-230.5 1536,-249.5"/>
<text text-anchor="middle" x="1479.5" y="-237.5" font-family="Helvetica,sans-Serif" font-size="10.00">netspeak::util::hash</text>
</a>
</g>
</g>
<!-- Node7&#45;&gt;Node8 -->
<g id="edge7_Node000007_Node000008" class="edge">
<title>Node7&#45;&gt;Node8</title>
<g id="a_edge7_Node000007_Node000008"><a xlink:title=" ">
<path fill="none" stroke="#63b8ff" d="M1184.11,-430.42C1193.88,-427.81 1204.36,-424.9 1214,-422 1214.61,-421.82 1386.49,-364.37 1387,-364 1425.93,-335.66 1455.35,-285.86 1469.39,-258.8"/>
<polygon fill="#63b8ff" stroke="#63b8ff" points="1472.63,-260.14 1474,-249.63 1466.38,-256.99 1472.63,-260.14"/>
</a>
</g>
</g>
<!-- Node9 -->
<g id="Node000009" class="node">
<title>Node9</title>
<g id="a_Node000009"><a xlink:href="namespacenetspeak_1_1util.html#af94d48fda5f335ddcb461a8237079866" target="_top" xlink:title=" ">
<polygon fill="white" stroke="#666666" points="1378,-449 1259,-449 1259,-419 1378,-419 1378,-449"/>
<text text-anchor="start" x="1267" y="-437" font-family="Helvetica,sans-Serif" font-size="10.00">netspeak::util::signal</text>
<text text-anchor="middle" x="1318.5" y="-426" font-family="Helvetica,sans-Serif" font-size="10.00">_error</text>
</a>
</g>
</g>
<!-- Node7&#45;&gt;Node9 -->
<g id="edge8_Node000007_Node000009" class="edge">
<title>Node7&#45;&gt;Node9</title>
<g id="a_edge8_Node000007_Node000009"><a xlink:title=" ">
<path fill="none" stroke="#63b8ff" d="M1205.35,-437.94C1219.26,-437.45 1234.23,-436.92 1248.54,-436.42"/>
<polygon fill="#63b8ff" stroke="#63b8ff" points="1248.96,-439.91 1258.83,-436.06 1248.72,-432.91 1248.96,-439.91"/>
</a>
</g>
</g>
<!-- Node9&#45;&gt;Node8 -->
<g id="edge9_Node000009_Node000008" class="edge">
<title>Node9&#45;&gt;Node8</title>
<g id="a_edge9_Node000009_Node000008"><a xlink:title=" ">
<path fill="none" stroke="#63b8ff" d="M1365.89,-418.94C1373.47,-415.17 1380.85,-410.56 1387,-405 1433.04,-363.37 1461.05,-292.97 1472.5,-259.19"/>
<polygon fill="#63b8ff" stroke="#63b8ff" points="1475.86,-260.19 1475.64,-249.6 1469.21,-258.02 1475.86,-260.19"/>
</a>
</g>
</g>
<!-- Node10&#45;&gt;Node8 -->
<g id="edge11_Node000010_Node000008" class="edge">
<title>Node10&#45;&gt;Node8</title>
<g id="a_edge11_Node000010_Node000008"><a xlink:title=" ">
<path fill="none" stroke="#63b8ff" d="M1192.94,-486.57C1245.25,-494.59 1330.32,-498.99 1387,-458 1453.56,-409.87 1471.97,-303.77 1476.84,-259.75"/>
<polygon fill="#63b8ff" stroke="#63b8ff" points="1480.35,-259.81 1477.84,-249.52 1473.38,-259.13 1480.35,-259.81"/>
</a>
</g>
</g>
<!-- Node10&#45;&gt;Node9 -->
<g id="edge12_Node000010_Node000009" class="edge">
<title>Node10&#45;&gt;Node9</title>
<g id="a_edge12_Node000010_Node000009"><a xlink:title=" ">
<path fill="none" stroke="#63b8ff" d="M1184.45,-467.46C1203.39,-462.69 1226.9,-456.78 1248.86,-451.26"/>
<polygon fill="#63b8ff" stroke="#63b8ff" points="1249.98,-454.59 1258.82,-448.75 1248.27,-447.8 1249.98,-454.59"/>
</a>
</g>
</g>
<!-- Node11&#45;&gt;Node12 -->
<g id="edge14_Node000011_Node000012" class="edge">
<title>Node11&#45;&gt;Node12</title>
<g id="a_edge14_Node000011_Node000012"><a xlink:title=" ">
<path fill="none" stroke="#63b8ff" d="M989.79,-225.75C1009.39,-208.7 1043.42,-181.34 1077,-165 1081.86,-162.64 1087.06,-160.52 1092.34,-158.64"/>
<polygon fill="#63b8ff" stroke="#63b8ff" points="1093.47,-161.95 1101.87,-155.5 1091.28,-155.3 1093.47,-161.95"/>
</a>
</g>
</g>
<!-- Node12&#45;&gt;Node8 -->
<g id="edge16_Node000012_Node000008" class="edge">
<title>Node12&#45;&gt;Node8</title>
<g id="a_edge16_Node000012_Node000008"><a xlink:title=" ">
<path fill="none" stroke="#63b8ff" d="M1197.59,-144.23C1247.55,-144.22 1324.96,-148.8 1387,-173 1416,-184.31 1444.09,-207.21 1461.32,-223.07"/>
<polygon fill="#63b8ff" stroke="#63b8ff" points="1459.2,-225.88 1468.87,-230.21 1464.01,-220.79 1459.2,-225.88"/>
</a>
</g>
</g>
<!-- Node13 -->
<g id="Node000013" class="node">
<title>Node13</title>
<g id="a_Node000013"><a xlink:href="namespacenetspeak_1_1util.html#ab27a22c787271513007af0719b17cef9" target="_top" xlink:title=" ">
<polygon fill="white" stroke="#666666" points="1371,-126 1266,-126 1266,-96 1371,-96 1371,-126"/>
<text text-anchor="start" x="1274" y="-114" font-family="Helvetica,sans-Serif" font-size="10.00">netspeak::util::get</text>
<text text-anchor="middle" x="1318.5" y="-103" font-family="Helvetica,sans-Serif" font-size="10.00">_log_mutex</text>
</a>
</g>
</g>
<!-- Node12&#45;&gt;Node13 -->
<g id="edge15_Node000012_Node000013" class="edge">
<title>Node12&#45;&gt;Node13</title>
<g id="a_edge15_Node000012_Node000013"><a xlink:title=" ">
<path fill="none" stroke="#63b8ff" d="M1193.23,-136.44C1212.52,-132.49 1235.15,-127.86 1255.77,-123.63"/>
<polygon fill="#63b8ff" stroke="#63b8ff" points="1256.62,-127.03 1265.72,-121.6 1255.22,-120.18 1256.62,-127.03"/>
</a>
</g>
</g>
<!-- Node14 -->
<g id="Node000014" class="node">
<title>Node14</title>
<g id="a_Node000014"><a xlink:href="namespacenetspeak_1_1util.html#a93e18aaa529a497b6afdf4b3bd221182" target="_top" xlink:title=" ">
<polygon fill="white" stroke="#666666" points="1374.5,-212 1262.5,-212 1262.5,-182 1374.5,-182 1374.5,-212"/>
<text text-anchor="start" x="1270.5" y="-200" font-family="Helvetica,sans-Serif" font-size="10.00">netspeak::util::print</text>
<text text-anchor="middle" x="1318.5" y="-189" font-family="Helvetica,sans-Serif" font-size="10.00">_timestamp_to</text>
</a>
</g>
</g>
<!-- Node12&#45;&gt;Node14 -->
<g id="edge17_Node000012_Node000014" class="edge">
<title>Node12&#45;&gt;Node14</title>
<g id="a_edge17_Node000012_Node000014"><a xlink:title=" ">
<path fill="none" stroke="#63b8ff" d="M1181.23,-155.59C1191.77,-158.55 1203.38,-161.86 1214,-165 1228.94,-169.41 1245.06,-174.32 1260.02,-178.94"/>
<polygon fill="#63b8ff" stroke="#63b8ff" points="1259.07,-182.31 1269.66,-181.93 1261.14,-175.63 1259.07,-182.31"/>
</a>
</g>
</g>
<!-- Node14&#45;&gt;Node8 -->
<g id="edge18_Node000014_Node000008" class="edge">
<title>Node14&#45;&gt;Node8</title>
<g id="a_edge18_Node000014_Node000008"><a xlink:title=" ">
<path fill="none" stroke="#63b8ff" d="M1374.66,-211.92C1393.89,-217.12 1415.21,-222.88 1433.51,-227.83"/>
<polygon fill="#63b8ff" stroke="#63b8ff" points="1432.76,-231.26 1443.33,-230.49 1434.59,-224.5 1432.76,-231.26"/>
</a>
</g>
</g>
<!-- Node15&#45;&gt;Node7 -->
<g id="edge22_Node000015_Node000007" class="edge">
<title>Node15&#45;&gt;Node7</title>
<g id="a_edge22_Node000015_Node000007"><a xlink:title=" ">
<path fill="none" stroke="#63b8ff" d="M988.84,-347.29C1012.84,-370.18 1057.69,-411.78 1077,-422 1080.52,-423.86 1084.24,-425.54 1088.06,-427.06"/>
<polygon fill="#63b8ff" stroke="#63b8ff" points="1087.1,-430.43 1097.69,-430.49 1089.45,-423.84 1087.1,-430.43"/>
</a>
</g>
</g>
<!-- Node15&#45;&gt;Node8 -->
<g id="edge27_Node000015_Node000008" class="edge">
<title>Node15&#45;&gt;Node8</title>
<g id="a_edge27_Node000015_Node000008"><a xlink:title=" ">
<path fill="none" stroke="#63b8ff" d="M986.32,-316.87C1004.55,-297.41 1039.3,-264.53 1077,-251 1189.51,-210.63 1331.36,-219.39 1412.82,-229.59"/>
<polygon fill="#63b8ff" stroke="#63b8ff" points="1412.57,-233.08 1422.93,-230.9 1413.47,-226.14 1412.57,-233.08"/>
</a>
</g>
</g>
<!-- Node15&#45;&gt;Node10 -->
<g id="edge23_Node000015_Node000010" class="edge">
<title>Node15&#45;&gt;Node10</title>
<g id="a_edge23_Node000015_Node000010"><a xlink:title=" ">
<path fill="none" stroke="#63b8ff" d="M981.1,-347.12C996.25,-373.92 1031.49,-429.66 1077,-459 1079.57,-460.66 1082.28,-462.16 1085.09,-463.53"/>
<polygon fill="#63b8ff" stroke="#63b8ff" points="1083.75,-466.76 1094.32,-467.44 1086.48,-460.31 1083.75,-466.76"/>
</a>
</g>
</g>
<!-- Node16 -->
<g id="Node000016" class="node">
<title>Node16</title>
<g id="a_Node000016"><a xlink:href="structnetspeak_1_1value_1_1value__traits.html#ad8e5a704d34361f68b6325efb40d7872" target="_top" xlink:title=" ">
<polygon fill="white" stroke="#666666" points="1209.5,-204 1081.5,-204 1081.5,-174 1209.5,-174 1209.5,-204"/>
<text text-anchor="start" x="1089.5" y="-192" font-family="Helvetica,sans-Serif" font-size="10.00">netspeak::value::value</text>
<text text-anchor="middle" x="1145.5" y="-181" font-family="Helvetica,sans-Serif" font-size="10.00">_traits::copy_to</text>
</a>
</g>
</g>
<!-- Node15&#45;&gt;Node16 -->
<g id="edge20_Node000015_Node000016" class="edge">
<title>Node15&#45;&gt;Node16</title>
<g id="a_edge20_Node000015_Node000016"><a xlink:title=" ">
<path fill="none" stroke="#63b8ff" d="M989.58,-316.9C1003.76,-303.7 1024.44,-283.76 1041,-265 1058.41,-245.27 1056.24,-234.16 1077,-218 1081.34,-214.62 1086.13,-211.56 1091.1,-208.8"/>
<polygon fill="#63b8ff" stroke="#63b8ff" points="1092.87,-211.83 1100.18,-204.16 1089.69,-205.59 1092.87,-211.83"/>
</a>
</g>
</g>
<!-- Node17 -->
<g id="Node000017" class="node">
<title>Node17</title>
<g id="a_Node000017"><a xlink:href="classnetspeak_1_1value_1_1pair.html#a52d349f5f25b356c4436a983182e4b6c" target="_top" xlink:title=" ">
<polygon fill="white" stroke="#666666" points="1214,-412.5 1077,-412.5 1077,-393.5 1214,-393.5 1214,-412.5"/>
<text text-anchor="middle" x="1145.5" y="-400.5" font-family="Helvetica,sans-Serif" font-size="10.00">netspeak::value::pair::e2</text>
</a>
</g>
</g>
<!-- Node15&#45;&gt;Node17 -->
<g id="edge21_Node000015_Node000017" class="edge">
<title>Node15&#45;&gt;Node17</title>
<g id="a_edge21_Node000015_Node000017"><a xlink:title=" ">
<path fill="none" stroke="#63b8ff" d="M998.8,-347.08C1019.43,-358.66 1049.37,-374.41 1077,-385 1082.17,-386.98 1087.64,-388.83 1093.14,-390.52"/>
<polygon fill="#63b8ff" stroke="#63b8ff" points="1092.43,-393.96 1103.01,-393.41 1094.4,-387.24 1092.43,-393.96"/>
</a>
</g>
</g>
<!-- Node18 -->
<g id="Node000018" class="node">
<title>Node18</title>
<g id="a_Node000018"><a xlink:href="namespacenetspeak_1_1util.html#a33fbb28caf0f5be34cbce2f84faecb87" target="_top" xlink:title=" ">
<polygon fill="white" stroke="#666666" points="1204,-375.5 1087,-375.5 1087,-356.5 1204,-356.5 1204,-375.5"/>
<text text-anchor="middle" x="1145.5" y="-363.5" font-family="Helvetica,sans-Serif" font-size="10.00">netspeak::util::fwrite</text>
</a>
</g>
</g>
<!-- Node15&#45;&gt;Node18 -->
<g id="edge24_Node000015_Node000018" class="edge">
<title>Node15&#45;&gt;Node18</title>
<g id="a_edge24_Node000015_Node000018"><a xlink:title=" ">
<path fill="none" stroke="#63b8ff" d="M1041.27,-345.54C1056.3,-348.51 1072.08,-351.64 1086.65,-354.53"/>
<polygon fill="#63b8ff" stroke="#63b8ff" points="1086.03,-357.98 1096.52,-356.49 1087.39,-351.11 1086.03,-357.98"/>
</a>
</g>
</g>
<!-- Node19 -->
<g id="Node000019" class="node">
<title>Node19</title>
<g id="a_Node000019"><a xlink:href="classnetspeak_1_1value_1_1pair.html#a5fa59bfb0238ad39a6aa497bd4e2dab6" target="_top" xlink:title=" ">
<polygon fill="white" stroke="#666666" points="1205,-338 1086,-338 1086,-308 1205,-308 1205,-338"/>
<text text-anchor="start" x="1094" y="-326" font-family="Helvetica,sans-Serif" font-size="10.00">netspeak::value::pair</text>
<text text-anchor="middle" x="1145.5" y="-315" font-family="Helvetica,sans-Serif" font-size="10.00">::set_e1</text>
</a>
</g>
</g>
<!-- Node15&#45;&gt;Node19 -->
<g id="edge28_Node000015_Node000019" class="edge">
<title>Node15&#45;&gt;Node19</title>
<g id="a_edge28_Node000015_Node000019"><a xlink:title=" ">
<path fill="none" stroke="#63b8ff" d="M1041.27,-328.42C1052.57,-327.82 1064.3,-327.21 1075.61,-326.62"/>
<polygon fill="#63b8ff" stroke="#63b8ff" points="1076.06,-330.1 1085.86,-326.08 1075.69,-323.11 1076.06,-330.1"/>
</a>
</g>
</g>
<!-- Node21 -->
<g id="Node000021" class="node">
<title>Node21</title>
<g id="a_Node000021"><a xlink:href="structnetspeak_1_1value_1_1value__traits.html#a1de8038347bdd72008ef72ad481f4a77" target="_top" xlink:title=" ">
<polygon fill="white" stroke="#666666" points="1209.5,-290 1081.5,-290 1081.5,-260 1209.5,-260 1209.5,-290"/>
<text text-anchor="start" x="1089.5" y="-278" font-family="Helvetica,sans-Serif" font-size="10.00">netspeak::value::value</text>
<text text-anchor="middle" x="1145.5" y="-267" font-family="Helvetica,sans-Serif" font-size="10.00">_traits::size_of</text>
</a>
</g>
</g>
<!-- Node15&#45;&gt;Node21 -->
<g id="edge30_Node000015_Node000021" class="edge">
<title>Node15&#45;&gt;Node21</title>
<g id="a_edge30_Node000015_Node000021"><a xlink:title=" ">
<path fill="none" stroke="#63b8ff" d="M1018.51,-316.87C1040.3,-309.63 1066.58,-300.9 1089.49,-293.28"/>
<polygon fill="#63b8ff" stroke="#63b8ff" points="1090.69,-296.57 1099.08,-290.1 1088.48,-289.93 1090.69,-296.57"/>
</a>
</g>
</g>
<!-- Node18&#45;&gt;Node8 -->
<g id="edge25_Node000018_Node000008" class="edge">
<title>Node18&#45;&gt;Node8</title>
<g id="a_edge25_Node000018_Node000008"><a xlink:title=" ">
<path fill="none" stroke="#63b8ff" d="M1204,-368.68C1254.76,-368.71 1329.41,-362.93 1387,-334 1421.9,-316.47 1451.1,-280.24 1466.58,-258.23"/>
<polygon fill="#63b8ff" stroke="#63b8ff" points="1469.61,-260 1472.35,-249.77 1463.83,-256.06 1469.61,-260"/>
</a>
</g>
</g>
<!-- Node18&#45;&gt;Node9 -->
<g id="edge26_Node000018_Node000009" class="edge">
<title>Node18&#45;&gt;Node9</title>
<g id="a_edge26_Node000018_Node000009"><a xlink:title=" ">
<path fill="none" stroke="#63b8ff" d="M1184.7,-375.55C1194.37,-378.29 1204.65,-381.5 1214,-385 1236.4,-393.39 1260.61,-404.71 1279.97,-414.36"/>
<polygon fill="#63b8ff" stroke="#63b8ff" points="1278.56,-417.57 1289.06,-418.95 1281.71,-411.32 1278.56,-417.57"/>
</a>
</g>
</g>
<!-- Node20 -->
<g id="Node000020" class="node">
<title>Node20</title>
<g id="a_Node000020"><a xlink:href="classnetspeak_1_1value_1_1pair.html#aa0eed395020ba5b37636746da8619982" target="_top" xlink:title=" ">
<polygon fill="white" stroke="#666666" points="1387,-324.5 1250,-324.5 1250,-305.5 1387,-305.5 1387,-324.5"/>
<text text-anchor="middle" x="1318.5" y="-312.5" font-family="Helvetica,sans-Serif" font-size="10.00">netspeak::value::pair::e1</text>
</a>
</g>
</g>
<!-- Node19&#45;&gt;Node20 -->
<g id="edge29_Node000019_Node000020" class="edge">
<title>Node19&#45;&gt;Node20</title>
<g id="a_edge29_Node000019_Node000020"><a xlink:title=" ">
<path fill="none" stroke="#63b8ff" d="M1205.35,-320.25C1216.41,-319.73 1228.13,-319.18 1239.66,-318.64"/>
<polygon fill="#63b8ff" stroke="#63b8ff" points="1239.9,-322.13 1249.72,-318.17 1239.57,-315.14 1239.9,-322.13"/>
</a>
</g>
</g>
<!-- Node23&#45;&gt;Node12 -->
<g id="edge41_Node000023_Node000012" class="edge">
<title>Node23&#45;&gt;Node12</title>
<g id="a_edge41_Node000023_Node000012"><a xlink:title=" ">
<path fill="none" stroke="#63b8ff" d="M1032.98,-118.04C1053.89,-123.28 1077.05,-129.09 1096.82,-134.04"/>
<polygon fill="#63b8ff" stroke="#63b8ff" points="1095.97,-137.44 1106.52,-136.48 1097.67,-130.65 1095.97,-137.44"/>
</a>
</g>
</g>
<!-- Node24 -->
<g id="Node000024" class="node">
<title>Node24</title>
<g id="a_Node000024"><a xlink:href="classnetspeak_1_1bighashmap_1_1Builder.html#ae4e2ef8f5512442b408c6ad678f152bf" target="_top" xlink:title=" ">
<polygon fill="white" stroke="#666666" points="1211,-118 1080,-118 1080,-88 1211,-88 1211,-118"/>
<text text-anchor="start" x="1088" y="-106" font-family="Helvetica,sans-Serif" font-size="10.00">netspeak::bighashmap</text>
<text text-anchor="middle" x="1145.5" y="-95" font-family="Helvetica,sans-Serif" font-size="10.00">::Builder::CountRecords</text>
</a>
</g>
</g>
<!-- Node23&#45;&gt;Node24 -->
<g id="edge34_Node000023_Node000024" class="edge">
<title>Node23&#45;&gt;Node24</title>
<g id="a_edge34_Node000023_Node000024"><a xlink:title=" ">
<path fill="none" stroke="#63b8ff" d="M1036.37,-103C1047.26,-103 1058.66,-103 1069.81,-103"/>
<polygon fill="#63b8ff" stroke="#63b8ff" points="1069.95,-106.5 1079.95,-103 1069.95,-99.5 1069.95,-106.5"/>
</a>
</g>
</g>
<!-- Node25 -->
<g id="Node000025" class="node">
<title>Node25</title>
<g id="a_Node000025"><a xlink:href="namespacenetspeak_1_1util.html#ae4193ec25e44c93bd465d74e4ef7df48" target="_top" xlink:title=" ">
<polygon fill="white" stroke="#666666" points="1367.5,-78 1269.5,-78 1269.5,-48 1367.5,-48 1367.5,-78"/>
<text text-anchor="start" x="1277.5" y="-66" font-family="Helvetica,sans-Serif" font-size="10.00">netspeak::util::is</text>
<text text-anchor="middle" x="1318.5" y="-55" font-family="Helvetica,sans-Serif" font-size="10.00">_hidden_file</text>
</a>
</g>
</g>
<!-- Node23&#45;&gt;Node25 -->
<g id="edge40_Node000023_Node000025" class="edge">
<title>Node23&#45;&gt;Node25</title>
<g id="a_edge40_Node000023_Node000025"><a xlink:title=" ">
<path fill="none" stroke="#63b8ff" d="M1030.72,-87.95C1045.7,-84.52 1061.88,-81.23 1077,-79 1138.84,-69.87 1210.39,-65.95 1259.27,-64.26"/>
<polygon fill="#63b8ff" stroke="#63b8ff" points="1259.47,-67.76 1269.35,-63.94 1259.24,-60.76 1259.47,-67.76"/>
</a>
</g>
</g>
<!-- Node26 -->
<g id="Node000026" class="node">
<title>Node26</title>
<g id="a_Node000026"><a xlink:href="namespacenetspeak_1_1util.html#ab36ee03e8b2f69483c3ac0e160da3cf4" target="_top" xlink:title=" ">
<polygon fill="white" stroke="#666666" points="1208,-29.5 1083,-29.5 1083,-10.5 1208,-10.5 1208,-29.5"/>
<text text-anchor="middle" x="1145.5" y="-17.5" font-family="Helvetica,sans-Serif" font-size="10.00">netspeak::util::hash32</text>
</a>
</g>
</g>
<!-- Node23&#45;&gt;Node26 -->
<g id="edge37_Node000023_Node000026" class="edge">
<title>Node23&#45;&gt;Node26</title>
<g id="a_edge37_Node000023_Node000026"><a xlink:title=" ">
<path fill="none" stroke="#63b8ff" d="M998.15,-87.97C1018.92,-75.87 1049.36,-58.83 1077,-46 1086.84,-41.43 1097.73,-36.99 1107.83,-33.1"/>
<polygon fill="#63b8ff" stroke="#63b8ff" points="1109.1,-36.36 1117.22,-29.56 1106.63,-29.81 1109.1,-36.36"/>
</a>
</g>
</g>
<!-- Node24&#45;&gt;Node25 -->
<g id="edge35_Node000024_Node000025" class="edge">
<title>Node24&#45;&gt;Node25</title>
<g id="a_edge35_Node000024_Node000025"><a xlink:title=" ">
<path fill="none" stroke="#63b8ff" d="M1210.66,-87.99C1226.6,-84.26 1243.59,-80.29 1259.23,-76.63"/>
<polygon fill="#63b8ff" stroke="#63b8ff" points="1260.34,-79.96 1269.28,-74.28 1258.75,-73.15 1260.34,-79.96"/>
</a>
</g>
</g>
<!-- Node25&#45;&gt;Node8 -->
<g id="edge36_Node000025_Node000008" class="edge">
<title>Node25&#45;&gt;Node8</title>
<g id="a_edge36_Node000025_Node000008"><a xlink:title=" ">
<path fill="none" stroke="#63b8ff" d="M1367.82,-75.5C1374.68,-78.56 1381.33,-82.35 1387,-87 1431.73,-123.67 1459.91,-188.33 1471.87,-220.58"/>
<polygon fill="#63b8ff" stroke="#63b8ff" points="1468.64,-221.95 1475.31,-230.19 1475.24,-219.59 1468.64,-221.95"/>
</a>
</g>
</g>
<!-- Node27 -->
<g id="Node000027" class="node">
<title>Node27</title>
<g id="a_Node000027"><a xlink:href="namespacenetspeak_1_1util.html#a9b5dd24226608e9fa5cca9d8abd5fd8b" target="_top" xlink:title=" ">
<polygon fill="white" stroke="#666666" points="1375,-30 1262,-30 1262,0 1375,0 1375,-30"/>
<text text-anchor="start" x="1270" y="-18" font-family="Helvetica,sans-Serif" font-size="10.00">netspeak::util::hash</text>
<text text-anchor="middle" x="1318.5" y="-7" font-family="Helvetica,sans-Serif" font-size="10.00">&lt; uint32_t &gt;</text>
</a>
</g>
</g>
<!-- Node26&#45;&gt;Node27 -->
<g id="edge38_Node000026_Node000027" class="edge">
<title>Node26&#45;&gt;Node27</title>
<g id="a_edge38_Node000026_Node000027"><a xlink:title=" ">
<path fill="none" stroke="#63b8ff" d="M1208.23,-18.19C1222.32,-17.78 1237.35,-17.34 1251.6,-16.93"/>
<polygon fill="#63b8ff" stroke="#63b8ff" points="1251.93,-20.42 1261.82,-16.63 1251.72,-13.42 1251.93,-20.42"/>
</a>
</g>
</g>
<!-- Node27&#45;&gt;Node8 -->
<g id="edge39_Node000027_Node000008" class="edge">
<title>Node27&#45;&gt;Node8</title>
<g id="a_edge39_Node000027_Node000008"><a xlink:title=" ">
<path fill="none" stroke="#63b8ff" d="M1374.41,-30.05C1378.96,-32.59 1383.24,-35.55 1387,-39 1442.39,-89.84 1466.61,-180.74 1474.91,-220.49"/>
<polygon fill="#63b8ff" stroke="#63b8ff" points="1471.51,-221.34 1476.88,-230.47 1478.38,-219.99 1471.51,-221.34"/>
</a>
</g>
</g>
</g>
</svg>
