<?xml version="1.0" encoding="UTF-8" standalone="no"?>
<!DOCTYPE svg PUBLIC "-//W3C//DTD SVG 1.1//EN"
 "http://www.w3.org/Graphics/SVG/1.1/DTD/svg11.dtd">
<!-- Generated by graphviz version 2.43.0 (0)
 -->
<!-- Title: netspeak::util::vec_append Pages: 1 -->
<svg width="1482pt" height="178pt"
 viewBox="0.00 0.00 1482.00 177.50" xmlns="http://www.w3.org/2000/svg" xmlns:xlink="http://www.w3.org/1999/xlink">
<g id="graph0" class="graph" transform="scale(1 1) rotate(0) translate(4 173.5)">
<title>netspeak::util::vec_append</title>
<!-- Node1 -->
<g id="Node000001" class="node">
<title>Node1</title>
<g id="a_Node000001"><a xlink:title="A simple function that appends all elements of other to base.">
<polygon fill="#999999" stroke="#666666" points="1474,-91.5 1367,-91.5 1367,-61.5 1474,-61.5 1474,-91.5"/>
<text text-anchor="start" x="1375" y="-79.5" font-family="Helvetica,sans-Serif" font-size="10.00">netspeak::util::vec</text>
<text text-anchor="middle" x="1420.5" y="-68.5" font-family="Helvetica,sans-Serif" font-size="10.00">_append</text>
</a>
</g>
</g>
<!-- Node2 -->
<g id="Node000002" class="node">
<title>Node2</title>
<g id="a_Node000002"><a xlink:href="classnetspeak_1_1StarQuery.html#a8df828a9f4fc20f1530bf0fa7a2fc2fc" target="_top" xlink:title=" ">
<polygon fill="white" stroke="#666666" points="1302.5,-163.5 1186.5,-163.5 1186.5,-133.5 1302.5,-133.5 1302.5,-163.5"/>
<text text-anchor="start" x="1194.5" y="-151.5" font-family="Helvetica,sans-Serif" font-size="10.00">netspeak::StarQuery</text>
<text text-anchor="middle" x="1244.5" y="-140.5" font-family="Helvetica,sans-Serif" font-size="10.00">::append</text>
</a>
</g>
</g>
<!-- Node1&#45;&gt;Node2 -->
<g id="edge1_Node000001_Node000002" class="edge">
<title>Node1&#45;&gt;Node2</title>
<g id="a_edge1_Node000001_Node000002"><a xlink:title=" ">
<path fill="none" stroke="#63b8ff" d="M1385.99,-96.98C1369.79,-106.27 1349.82,-116.87 1331,-124.5 1322,-128.15 1312.25,-131.46 1302.67,-134.37"/>
<polygon fill="#63b8ff" stroke="#63b8ff" points="1388.18,-99.76 1395.05,-91.69 1384.65,-93.71 1388.18,-99.76"/>
</a>
</g>
</g>
<!-- Node9 -->
<g id="Node000009" class="node">
<title>Node9</title>
<g id="a_Node000009"><a xlink:href="classnetspeak_1_1model_1_1RawRefResult.html#aa98ade235e2a2e2ec9e833b58d374d0d" target="_top" xlink:title="Creates a new result set that contains all phrases (unknown words) of this set and the given set.">
<polygon fill="white" stroke="#666666" points="1331,-115.5 1158,-115.5 1158,-85.5 1331,-85.5 1331,-115.5"/>
<text text-anchor="start" x="1166" y="-103.5" font-family="Helvetica,sans-Serif" font-size="10.00">netspeak::model::RawRefResult</text>
<text text-anchor="middle" x="1244.5" y="-92.5" font-family="Helvetica,sans-Serif" font-size="10.00">::merge</text>
</a>
</g>
</g>
<!-- Node1&#45;&gt;Node9 -->
<g id="edge11_Node000001_Node000009" class="edge">
<title>Node1&#45;&gt;Node9</title>
<g id="a_edge11_Node000001_Node000009"><a xlink:title=" ">
<path fill="none" stroke="#63b8ff" d="M1356.81,-85.15C1348.46,-86.3 1339.77,-87.5 1331.11,-88.69"/>
<polygon fill="#63b8ff" stroke="#63b8ff" points="1357.39,-88.6 1366.82,-83.77 1356.44,-81.67 1357.39,-88.6"/>
</a>
</g>
</g>
<!-- Node10 -->
<g id="Node000010" class="node">
<title>Node10</title>
<g id="a_Node000010"><a xlink:href="classnetspeak_1_1Netspeak.html#a2e5d64f9a6eca708b7581134e1405b44" target="_top" xlink:title=" ">
<polygon fill="white" stroke="#666666" points="1302.5,-67.5 1186.5,-67.5 1186.5,-37.5 1302.5,-37.5 1302.5,-67.5"/>
<text text-anchor="start" x="1194.5" y="-55.5" font-family="Helvetica,sans-Serif" font-size="10.00">netspeak::Netspeak</text>
<text text-anchor="middle" x="1244.5" y="-44.5" font-family="Helvetica,sans-Serif" font-size="10.00">::merge_raw_result_</text>
</a>
</g>
</g>
<!-- Node1&#45;&gt;Node10 -->
<g id="edge12_Node000001_Node000010" class="edge">
<title>Node1&#45;&gt;Node10</title>
<g id="a_edge12_Node000001_Node000010"><a xlink:title=" ">
<path fill="none" stroke="#63b8ff" d="M1356.61,-67.83C1338.95,-65.39 1319.85,-62.75 1302.54,-60.37"/>
<polygon fill="#63b8ff" stroke="#63b8ff" points="1356.44,-71.33 1366.82,-69.23 1357.39,-64.4 1356.44,-71.33"/>
</a>
</g>
</g>
<!-- Node11 -->
<g id="Node000011" class="node">
<title>Node11</title>
<g id="a_Node000011"><a xlink:href="namespacenetspeak.html#adc992b5399e2243ef4e4a3530e10cb1b" target="_top" xlink:title=" ">
<polygon fill="white" stroke="#666666" points="1292,-19 1197,-19 1197,0 1292,0 1292,-19"/>
<text text-anchor="middle" x="1244.5" y="-7" font-family="Helvetica,sans-Serif" font-size="10.00">netspeak::prune</text>
</a>
</g>
</g>
<!-- Node1&#45;&gt;Node11 -->
<g id="edge13_Node000001_Node000011" class="edge">
<title>Node1&#45;&gt;Node11</title>
<g id="a_edge13_Node000001_Node000011"><a xlink:title=" ">
<path fill="none" stroke="#63b8ff" d="M1387.32,-56.22C1370.96,-46.66 1350.48,-35.78 1331,-28.5 1318.75,-23.92 1305.08,-20.27 1292.33,-17.45"/>
<polygon fill="#63b8ff" stroke="#63b8ff" points="1385.56,-59.25 1395.94,-61.37 1389.15,-53.24 1385.56,-59.25"/>
</a>
</g>
</g>
<!-- Node3 -->
<g id="Node000003" class="node">
<title>Node3</title>
<g id="a_Node000003"><a xlink:href="classnetspeak_1_1StarQueryConverter.html#a603db91f5a1da4fcc11c7e99f71ece2f" target="_top" xlink:title=" ">
<polygon fill="white" stroke="#666666" points="1122,-151.5 958,-151.5 958,-121.5 1122,-121.5 1122,-151.5"/>
<text text-anchor="start" x="966" y="-139.5" font-family="Helvetica,sans-Serif" font-size="10.00">netspeak::StarQueryConverter</text>
<text text-anchor="middle" x="1040" y="-128.5" font-family="Helvetica,sans-Serif" font-size="10.00">::concat</text>
</a>
</g>
</g>
<!-- Node2&#45;&gt;Node3 -->
<g id="edge2_Node000002_Node000003" class="edge">
<title>Node2&#45;&gt;Node3</title>
<g id="a_edge2_Node000002_Node000003"><a xlink:title=" ">
<path fill="none" stroke="#63b8ff" d="M1176.29,-144.52C1158.99,-143.49 1140.19,-142.38 1122.26,-141.32"/>
<polygon fill="#63b8ff" stroke="#63b8ff" points="1176.09,-148.01 1186.28,-145.11 1176.51,-141.02 1176.09,-148.01"/>
</a>
</g>
</g>
<!-- Node3&#45;&gt;Node3 -->
<g id="edge10_Node000003_Node000003" class="edge">
<title>Node3&#45;&gt;Node3</title>
<g id="a_edge10_Node000003_Node000003"><a xlink:title=" ">
<path fill="none" stroke="#63b8ff" d="M1075.01,-162.1C1070.22,-166.47 1058.55,-169.5 1040,-169.5 1008.75,-169.5 997.03,-160.91 1004.84,-151.78"/>
<polygon fill="#63b8ff" stroke="#63b8ff" points="1078.51,-161.82 1075.16,-151.78 1071.51,-161.72 1078.51,-161.82"/>
</a>
</g>
</g>
<!-- Node4 -->
<g id="Node000004" class="node">
<title>Node4</title>
<g id="a_Node000004"><a xlink:href="classnetspeak_1_1StarQueryConverter.html#a3b9f125a061331acd1c667c8bf50fb2b" target="_top" xlink:title=" ">
<polygon fill="white" stroke="#666666" points="922,-151.5 758,-151.5 758,-121.5 922,-121.5 922,-151.5"/>
<text text-anchor="start" x="766" y="-139.5" font-family="Helvetica,sans-Serif" font-size="10.00">netspeak::StarQueryConverter</text>
<text text-anchor="middle" x="840" y="-128.5" font-family="Helvetica,sans-Serif" font-size="10.00">::alternation</text>
</a>
</g>
</g>
<!-- Node3&#45;&gt;Node4 -->
<g id="edge3_Node000003_Node000004" class="edge">
<title>Node3&#45;&gt;Node4</title>
<g id="a_edge3_Node000003_Node000004"><a xlink:title=" ">
<path fill="none" stroke="#63b8ff" d="M947.64,-129.77C939.18,-129.73 930.65,-129.75 922.3,-129.85"/>
<polygon fill="#63b8ff" stroke="#63b8ff" points="947.87,-133.27 957.89,-129.85 947.92,-126.27 947.87,-133.27"/>
</a>
</g>
</g>
<!-- Node4&#45;&gt;Node3 -->
<g id="edge5_Node000004_Node000003" class="edge">
<title>Node4&#45;&gt;Node3</title>
<g id="a_edge5_Node000004_Node000003"><a xlink:title=" ">
<path fill="none" stroke="#63b8ff" d="M932.56,-143.23C941.01,-143.27 949.54,-143.24 957.89,-143.15"/>
<polygon fill="#63b8ff" stroke="#63b8ff" points="932.33,-139.73 922.3,-143.15 932.27,-146.73 932.33,-139.73"/>
</a>
</g>
</g>
<!-- Node4&#45;&gt;Node4 -->
<g id="edge4_Node000004_Node000004" class="edge">
<title>Node4&#45;&gt;Node4</title>
<g id="a_edge4_Node000004_Node000004"><a xlink:title=" ">
<path fill="none" stroke="#63b8ff" d="M875.01,-162.1C870.22,-166.47 858.55,-169.5 840,-169.5 808.75,-169.5 797.03,-160.91 804.84,-151.78"/>
<polygon fill="#63b8ff" stroke="#63b8ff" points="878.51,-161.82 875.16,-151.78 871.51,-161.72 878.51,-161.82"/>
</a>
</g>
</g>
<!-- Node5 -->
<g id="Node000005" class="node">
<title>Node5</title>
<g id="a_Node000005"><a xlink:href="classnetspeak_1_1StarQueryConverter.html#a72012a4108886c30c45ec19164f42dfd" target="_top" xlink:title=" ">
<polygon fill="white" stroke="#666666" points="722,-138.5 558,-138.5 558,-108.5 722,-108.5 722,-138.5"/>
<text text-anchor="start" x="566" y="-126.5" font-family="Helvetica,sans-Serif" font-size="10.00">netspeak::StarQueryConverter</text>
<text text-anchor="middle" x="640" y="-115.5" font-family="Helvetica,sans-Serif" font-size="10.00">::to_star_queries</text>
</a>
</g>
</g>
<!-- Node4&#45;&gt;Node5 -->
<g id="edge6_Node000004_Node000005" class="edge">
<title>Node4&#45;&gt;Node5</title>
<g id="a_edge6_Node000004_Node000005"><a xlink:title=" ">
<path fill="none" stroke="#63b8ff" d="M747.92,-130.52C739.37,-129.96 730.75,-129.39 722.3,-128.84"/>
<polygon fill="#63b8ff" stroke="#63b8ff" points="747.69,-134.01 757.89,-131.17 748.15,-127.03 747.69,-134.01"/>
</a>
</g>
</g>
<!-- Node6 -->
<g id="Node000006" class="node">
<title>Node6</title>
<g id="a_Node000006"><a xlink:href="classnetspeak_1_1SimpleQueryNormalizer.html#a64fc82bf1d46c167bbb645835120b233" target="_top" xlink:title="Converts the given simple query into norm queries and adds them to the given list of norm queries.">
<polygon fill="white" stroke="#666666" points="522,-137.5 337,-137.5 337,-107.5 522,-107.5 522,-137.5"/>
<text text-anchor="start" x="345" y="-125.5" font-family="Helvetica,sans-Serif" font-size="10.00">netspeak::SimpleQueryNormalizer</text>
<text text-anchor="middle" x="429.5" y="-114.5" font-family="Helvetica,sans-Serif" font-size="10.00">::to_norm_queries</text>
</a>
</g>
</g>
<!-- Node5&#45;&gt;Node6 -->
<g id="edge7_Node000005_Node000006" class="edge">
<title>Node5&#45;&gt;Node6</title>
<g id="a_edge7_Node000005_Node000006"><a xlink:title=" ">
<path fill="none" stroke="#63b8ff" d="M547.59,-123.06C539.17,-123.02 530.64,-122.98 522.21,-122.94"/>
<polygon fill="#63b8ff" stroke="#63b8ff" points="547.77,-126.56 557.79,-123.11 547.81,-119.56 547.77,-126.56"/>
</a>
</g>
</g>
<!-- Node7 -->
<g id="Node000007" class="node">
<title>Node7</title>
<g id="a_Node000007"><a xlink:href="classnetspeak_1_1QueryNormalizer.html#a70187ab668d98c93cfc3a8d05ca1508e" target="_top" xlink:title=" ">
<polygon fill="white" stroke="#666666" points="301,-137.5 150,-137.5 150,-107.5 301,-107.5 301,-137.5"/>
<text text-anchor="start" x="158" y="-125.5" font-family="Helvetica,sans-Serif" font-size="10.00">netspeak::QueryNormalizer</text>
<text text-anchor="middle" x="225.5" y="-114.5" font-family="Helvetica,sans-Serif" font-size="10.00">::normalize</text>
</a>
</g>
</g>
<!-- Node6&#45;&gt;Node7 -->
<g id="edge8_Node000006_Node000007" class="edge">
<title>Node6&#45;&gt;Node7</title>
<g id="a_edge8_Node000006_Node000007"><a xlink:title=" ">
<path fill="none" stroke="#63b8ff" d="M326.8,-122.5C318.14,-122.5 309.48,-122.5 301.09,-122.5"/>
<polygon fill="#63b8ff" stroke="#63b8ff" points="326.96,-126 336.96,-122.5 326.96,-119 326.96,-126"/>
</a>
</g>
</g>
<!-- Node8 -->
<g id="Node000008" class="node">
<title>Node8</title>
<g id="a_Node000008"><a xlink:href="classnetspeak_1_1Netspeak.html#aaa049275c7a0a7f6721acf7422402bff" target="_top" xlink:title=" ">
<polygon fill="white" stroke="#666666" points="114,-115.5 0,-115.5 0,-85.5 114,-85.5 114,-115.5"/>
<text text-anchor="start" x="8" y="-103.5" font-family="Helvetica,sans-Serif" font-size="10.00">netspeak::Netspeak</text>
<text text-anchor="middle" x="57" y="-92.5" font-family="Helvetica,sans-Serif" font-size="10.00">::search_raw_</text>
</a>
</g>
</g>
<!-- Node7&#45;&gt;Node8 -->
<g id="edge9_Node000007_Node000008" class="edge">
<title>Node7&#45;&gt;Node8</title>
<g id="a_edge9_Node000007_Node000008"><a xlink:title=" ">
<path fill="none" stroke="#63b8ff" d="M139.45,-111.26C130.85,-110.13 122.28,-108.99 114.1,-107.91"/>
<polygon fill="#63b8ff" stroke="#63b8ff" points="139.16,-114.75 149.53,-112.59 140.07,-107.81 139.16,-114.75"/>
</a>
</g>
</g>
<!-- Node12 -->
<g id="Node000012" class="node">
<title>Node12</title>
<g id="a_Node000012"><a xlink:href="classnetspeak_1_1Netspeak.html#a63bb059fbca69dbbcb42a2c9ed24674f" target="_top" xlink:title=" ">
<polygon fill="white" stroke="#666666" points="912.5,-92.5 767.5,-92.5 767.5,-62.5 912.5,-62.5 912.5,-92.5"/>
<text text-anchor="start" x="775.5" y="-80.5" font-family="Helvetica,sans-Serif" font-size="10.00">netspeak::Netspeak</text>
<text text-anchor="middle" x="840" y="-69.5" font-family="Helvetica,sans-Serif" font-size="10.00">::process_wildcard_query_</text>
</a>
</g>
</g>
<!-- Node11&#45;&gt;Node12 -->
<g id="edge14_Node000011_Node000012" class="edge">
<title>Node11&#45;&gt;Node12</title>
<g id="a_edge14_Node000011_Node000012"><a xlink:title=" ">
<path fill="none" stroke="#63b8ff" d="M1186.71,-19.09C1114.79,-31.24 990.82,-52.19 912.51,-65.42"/>
<polygon fill="#63b8ff" stroke="#63b8ff" points="1187.66,-22.48 1196.93,-17.37 1186.49,-15.58 1187.66,-22.48"/>
</a>
</g>
</g>
<!-- Node12&#45;&gt;Node8 -->
<g id="edge15_Node000012_Node000008" class="edge">
<title>Node12&#45;&gt;Node8</title>
<g id="a_edge15_Node000012_Node000008"><a xlink:title=" ">
<path fill="none" stroke="#63b8ff" d="M757.06,-79.91C597.77,-84.6 250.07,-94.84 114.09,-98.85"/>
<polygon fill="#63b8ff" stroke="#63b8ff" points="757.38,-83.41 767.27,-79.61 757.17,-76.41 757.38,-83.41"/>
</a>
</g>
</g>
</g>
</svg>
