<?xml version="1.0" encoding="UTF-8" standalone="no"?>
<!DOCTYPE svg PUBLIC "-//W3C//DTD SVG 1.1//EN"
 "http://www.w3.org/Graphics/SVG/1.1/DTD/svg11.dtd">
<!-- Generated by graphviz version 2.43.0 (0)
 -->
<!-- Title: netspeak::util::print_json_string Pages: 1 -->
<svg width="628pt" height="158pt"
 viewBox="0.00 0.00 628.00 158.00" xmlns="http://www.w3.org/2000/svg" xmlns:xlink="http://www.w3.org/1999/xlink">
<g id="graph0" class="graph" transform="scale(1 1) rotate(0) translate(4 154)">
<title>netspeak::util::print_json_string</title>
<!-- Node1 -->
<g id="Node000001" class="node">
<title>Node1</title>
<g id="a_Node000001"><a xlink:title=" ">
<polygon fill="#999999" stroke="#666666" points="620,-78 508,-78 508,-48 620,-48 620,-78"/>
<text text-anchor="start" x="516" y="-66" font-family="Helvetica,sans-Serif" font-size="10.00">netspeak::util::print</text>
<text text-anchor="middle" x="564" y="-55" font-family="Helvetica,sans-Serif" font-size="10.00">_json_string</text>
</a>
</g>
</g>
<!-- Node2 -->
<g id="Node000002" class="node">
<title>Node2</title>
<g id="a_Node000002"><a xlink:href="classnetspeak_1_1util_1_1JsonWriter_1_1ObjectContinue.html#aa7d3f4f919394e032f405e39e58d7958" target="_top" xlink:title=" ">
<polygon fill="white" stroke="#666666" points="472,-126 332,-126 332,-96 472,-96 472,-126"/>
<text text-anchor="start" x="340" y="-114" font-family="Helvetica,sans-Serif" font-size="10.00">netspeak::util::JsonWriter</text>
<text text-anchor="middle" x="402" y="-103" font-family="Helvetica,sans-Serif" font-size="10.00">::ObjectContinue::prop</text>
</a>
</g>
</g>
<!-- Node1&#45;&gt;Node2 -->
<g id="edge1_Node000001_Node000002" class="edge">
<title>Node1&#45;&gt;Node2</title>
<g id="a_edge1_Node000001_Node000002"><a xlink:title=" ">
<path fill="none" stroke="#63b8ff" d="M502.78,-81.07C486.37,-85.99 468.78,-91.27 453.01,-96"/>
<polygon fill="#63b8ff" stroke="#63b8ff" points="504.24,-84.28 512.81,-78.06 502.23,-77.58 504.24,-84.28"/>
</a>
</g>
</g>
<!-- Node6 -->
<g id="Node000006" class="node">
<title>Node6</title>
<g id="a_Node000006"><a xlink:href="classnetspeak_1_1util_1_1JsonWriter_1_1ObjectStart.html#a06d2e8cee592a9de474aead3a5438aac" target="_top" xlink:title=" ">
<polygon fill="white" stroke="#666666" points="472,-78 332,-78 332,-48 472,-48 472,-78"/>
<text text-anchor="start" x="340" y="-66" font-family="Helvetica,sans-Serif" font-size="10.00">netspeak::util::JsonWriter</text>
<text text-anchor="middle" x="402" y="-55" font-family="Helvetica,sans-Serif" font-size="10.00">::ObjectStart::prop</text>
</a>
</g>
</g>
<!-- Node1&#45;&gt;Node6 -->
<g id="edge6_Node000001_Node000006" class="edge">
<title>Node1&#45;&gt;Node6</title>
<g id="a_edge6_Node000001_Node000006"><a xlink:title=" ">
<path fill="none" stroke="#63b8ff" d="M497.74,-63C489.26,-63 480.55,-63 472.02,-63"/>
<polygon fill="#63b8ff" stroke="#63b8ff" points="497.94,-66.5 507.94,-63 497.94,-59.5 497.94,-66.5"/>
</a>
</g>
</g>
<!-- Node7 -->
<g id="Node000007" class="node">
<title>Node7</title>
<g id="a_Node000007"><a xlink:href="classnetspeak_1_1util_1_1JsonWriter_1_1Value.html#aff4f23170d6bae85a827863312ada864" target="_top" xlink:title=" ">
<polygon fill="white" stroke="#666666" points="472,-30 332,-30 332,0 472,0 472,-30"/>
<text text-anchor="start" x="340" y="-18" font-family="Helvetica,sans-Serif" font-size="10.00">netspeak::util::JsonWriter</text>
<text text-anchor="middle" x="402" y="-7" font-family="Helvetica,sans-Serif" font-size="10.00">::Value::string</text>
</a>
</g>
</g>
<!-- Node1&#45;&gt;Node7 -->
<g id="edge7_Node000001_Node000007" class="edge">
<title>Node1&#45;&gt;Node7</title>
<g id="a_edge7_Node000001_Node000007"><a xlink:title=" ">
<path fill="none" stroke="#63b8ff" d="M502.78,-44.93C486.37,-40.01 468.78,-34.73 453.01,-30"/>
<polygon fill="#63b8ff" stroke="#63b8ff" points="502.23,-48.42 512.81,-47.94 504.24,-41.72 502.23,-48.42"/>
</a>
</g>
</g>
<!-- Node3 -->
<g id="Node000003" class="node">
<title>Node3</title>
<g id="a_Node000003"><a xlink:href="namespacenetspeak_1_1service.html#aebd8a38b84a6aa4b293543abb10f1fb8" target="_top" xlink:title=" ">
<polygon fill="white" stroke="#666666" points="296,-126 187,-126 187,-96 296,-96 296,-126"/>
<text text-anchor="start" x="195" y="-114" font-family="Helvetica,sans-Serif" font-size="10.00">netspeak::service::</text>
<text text-anchor="middle" x="241.5" y="-103" font-family="Helvetica,sans-Serif" font-size="10.00">log_error_status</text>
</a>
</g>
</g>
<!-- Node2&#45;&gt;Node3 -->
<g id="edge2_Node000002_Node000003" class="edge">
<title>Node2&#45;&gt;Node3</title>
<g id="a_edge2_Node000002_Node000003"><a xlink:title=" ">
<path fill="none" stroke="#63b8ff" d="M321.75,-111C313.06,-111 304.36,-111 296.08,-111"/>
<polygon fill="#63b8ff" stroke="#63b8ff" points="321.94,-114.5 331.94,-111 321.94,-107.5 321.94,-114.5"/>
</a>
</g>
</g>
<!-- Node3&#45;&gt;Node3 -->
<g id="edge4_Node000003_Node000003" class="edge">
<title>Node3&#45;&gt;Node3</title>
<g id="a_edge4_Node000003_Node000003"><a xlink:title=" ">
<path fill="none" stroke="#63b8ff" d="M269.51,-136.6C265.68,-140.97 256.34,-144 241.5,-144 216.5,-144 207.12,-135.41 213.38,-126.28"/>
<polygon fill="#63b8ff" stroke="#63b8ff" points="273.01,-136.32 269.62,-126.28 266.01,-136.23 273.01,-136.32"/>
</a>
</g>
</g>
<!-- Node4 -->
<g id="Node000004" class="node">
<title>Node4</title>
<g id="a_Node000004"><a xlink:href="classnetspeak_1_1service_1_1RequestLogger.html#af6f740ce3b61ce0457265f30a7d36488" target="_top" xlink:title=" ">
<polygon fill="white" stroke="#666666" points="151,-150 0,-150 0,-120 151,-120 151,-150"/>
<text text-anchor="start" x="8" y="-138" font-family="Helvetica,sans-Serif" font-size="10.00">netspeak::service::</text>
<text text-anchor="middle" x="75.5" y="-127" font-family="Helvetica,sans-Serif" font-size="10.00">RequestLogger::GetCorpora</text>
</a>
</g>
</g>
<!-- Node3&#45;&gt;Node4 -->
<g id="edge3_Node000003_Node000004" class="edge">
<title>Node3&#45;&gt;Node4</title>
<g id="a_edge3_Node000003_Node000004"><a xlink:title=" ">
<path fill="none" stroke="#63b8ff" d="M176.73,-120.33C168.35,-121.56 159.7,-122.82 151.16,-124.07"/>
<polygon fill="#63b8ff" stroke="#63b8ff" points="177.41,-123.77 186.8,-118.86 176.4,-116.84 177.41,-123.77"/>
</a>
</g>
</g>
<!-- Node5 -->
<g id="Node000005" class="node">
<title>Node5</title>
<g id="a_Node000005"><a xlink:href="classnetspeak_1_1service_1_1RequestLogger.html#a131feb684685433d4f618ea9ba4e6380" target="_top" xlink:title=" ">
<polygon fill="white" stroke="#666666" points="139.5,-102 11.5,-102 11.5,-72 139.5,-72 139.5,-102"/>
<text text-anchor="start" x="19.5" y="-90" font-family="Helvetica,sans-Serif" font-size="10.00">netspeak::service::</text>
<text text-anchor="middle" x="75.5" y="-79" font-family="Helvetica,sans-Serif" font-size="10.00">RequestLogger::Search</text>
</a>
</g>
</g>
<!-- Node3&#45;&gt;Node5 -->
<g id="edge5_Node000003_Node000005" class="edge">
<title>Node3&#45;&gt;Node5</title>
<g id="a_edge5_Node000003_Node000005"><a xlink:title=" ">
<path fill="none" stroke="#63b8ff" d="M176.75,-101.67C164.59,-99.89 151.87,-98.03 139.73,-96.25"/>
<polygon fill="#63b8ff" stroke="#63b8ff" points="176.4,-105.16 186.8,-103.14 177.41,-98.23 176.4,-105.16"/>
</a>
</g>
</g>
</g>
</svg>
