<?xml version="1.0" encoding="UTF-8" standalone="no"?>
<!DOCTYPE svg PUBLIC "-//W3C//DTD SVG 1.1//EN"
 "http://www.w3.org/Graphics/SVG/1.1/DTD/svg11.dtd">
<!-- Generated by graphviz version 2.43.0 (0)
 -->
<!-- Title: netspeak::find_regexes Pages: 1 -->
<svg width="543pt" height="105pt"
 viewBox="0.00 0.00 543.00 105.00" xmlns="http://www.w3.org/2000/svg" xmlns:xlink="http://www.w3.org/1999/xlink">
<g id="graph0" class="graph" transform="scale(1 1) rotate(0) translate(4 101)">
<title>netspeak::find_regexes</title>
<!-- Node1 -->
<g id="Node000001" class="node">
<title>Node1</title>
<g id="a_Node000001"><a xlink:title=" ">
<polygon fill="#999999" stroke="#666666" points="129,-45.5 0,-45.5 0,-26.5 129,-26.5 129,-45.5"/>
<text text-anchor="middle" x="64.5" y="-33.5" font-family="Helvetica,sans-Serif" font-size="10.00">netspeak::find_regexes</text>
</a>
</g>
</g>
<!-- Node2 -->
<g id="Node000002" class="node">
<title>Node2</title>
<g id="a_Node000002"><a xlink:href="namespacenetspeak.html#af04673586ac70da613567b5220cc7992" target="_top" xlink:title=" ">
<polygon fill="white" stroke="#666666" points="313,-67.5 184,-67.5 184,-48.5 313,-48.5 313,-67.5"/>
<text text-anchor="middle" x="248.5" y="-55.5" font-family="Helvetica,sans-Serif" font-size="10.00">netspeak::find_regexes</text>
</a>
</g>
</g>
<!-- Node1&#45;&gt;Node2 -->
<g id="edge1_Node000001_Node000002" class="edge">
<title>Node1&#45;&gt;Node2</title>
<g id="a_edge1_Node000001_Node000002"><a xlink:title=" ">
<path fill="none" stroke="#63b8ff" d="M129.15,-43.69C143.56,-45.44 158.98,-47.3 173.77,-49.09"/>
<polygon fill="#63b8ff" stroke="#63b8ff" points="173.53,-52.58 183.88,-50.31 174.37,-45.63 173.53,-52.58"/>
</a>
</g>
</g>
<!-- Node5 -->
<g id="Node000005" class="node">
<title>Node5</title>
<g id="a_Node000005"><a xlink:href="classnetspeak_1_1model_1_1SimpleQuery.html#aacd9450bbdddc1274a461e21075335db" target="_top" xlink:title=" ">
<polygon fill="white" stroke="#666666" points="332,-30 165,-30 165,0 332,0 332,-30"/>
<text text-anchor="start" x="173" y="-18" font-family="Helvetica,sans-Serif" font-size="10.00">netspeak::model::SimpleQuery</text>
<text text-anchor="middle" x="248.5" y="-7" font-family="Helvetica,sans-Serif" font-size="10.00">::root</text>
</a>
</g>
</g>
<!-- Node1&#45;&gt;Node5 -->
<g id="edge5_Node000001_Node000005" class="edge">
<title>Node1&#45;&gt;Node5</title>
<g id="a_edge5_Node000001_Node000005"><a xlink:title=" ">
<path fill="none" stroke="#63b8ff" d="M129.15,-28.66C137.41,-27.7 145.99,-26.71 154.59,-25.72"/>
<polygon fill="#63b8ff" stroke="#63b8ff" points="155.16,-29.18 164.69,-24.56 154.35,-22.22 155.16,-29.18"/>
</a>
</g>
</g>
<!-- Node2&#45;&gt;Node2 -->
<g id="edge3_Node000002_Node000002" class="edge">
<title>Node2&#45;&gt;Node2</title>
<g id="a_edge3_Node000002_Node000002"><a xlink:title=" ">
<path fill="none" stroke="#63b8ff" d="M220.14,-67.58C206.34,-76.23 215.8,-85.5 248.5,-85.5 270.98,-85.5 282.48,-81.12 282.98,-75.57"/>
<polygon fill="#63b8ff" stroke="#63b8ff" points="285.72,-73.39 276.86,-67.58 280.16,-77.65 285.72,-73.39"/>
</a>
</g>
</g>
<!-- Node3 -->
<g id="Node000003" class="node">
<title>Node3</title>
<g id="a_Node000003"><a xlink:href="classnetspeak_1_1model_1_1SimpleQueryUnit____.html#a8840caeb703398accd6bf417b0b1ae8e" target="_top" xlink:title=" ">
<polygon fill="white" stroke="#666666" points="535,-97 368,-97 368,-67 535,-67 535,-97"/>
<text text-anchor="start" x="376" y="-85" font-family="Helvetica,sans-Serif" font-size="10.00">netspeak::model::SimpleQuery</text>
<text text-anchor="middle" x="451.5" y="-74" font-family="Helvetica,sans-Serif" font-size="10.00">Unit__::children</text>
</a>
</g>
</g>
<!-- Node2&#45;&gt;Node3 -->
<g id="edge2_Node000002_Node000003" class="edge">
<title>Node2&#45;&gt;Node3</title>
<g id="a_edge2_Node000002_Node000003"><a xlink:title=" ">
<path fill="none" stroke="#63b8ff" d="M313.1,-65.59C327.21,-67.28 342.45,-69.1 357.46,-70.89"/>
<polygon fill="#63b8ff" stroke="#63b8ff" points="357.46,-74.42 367.8,-72.13 358.29,-67.46 357.46,-74.42"/>
</a>
</g>
</g>
<!-- Node4 -->
<g id="Node000004" class="node">
<title>Node4</title>
<g id="a_Node000004"><a xlink:href="classnetspeak_1_1model_1_1SimpleQueryUnit____.html#a06c21084859addaa75c754815d691d39" target="_top" xlink:title=" ">
<polygon fill="white" stroke="#666666" points="535,-49 368,-49 368,-19 535,-19 535,-49"/>
<text text-anchor="start" x="376" y="-37" font-family="Helvetica,sans-Serif" font-size="10.00">netspeak::model::SimpleQuery</text>
<text text-anchor="middle" x="451.5" y="-26" font-family="Helvetica,sans-Serif" font-size="10.00">Unit__::tag</text>
</a>
</g>
</g>
<!-- Node2&#45;&gt;Node4 -->
<g id="edge4_Node000002_Node000004" class="edge">
<title>Node2&#45;&gt;Node4</title>
<g id="a_edge4_Node000002_Node000004"><a xlink:title=" ">
<path fill="none" stroke="#63b8ff" d="M313.1,-50.41C327.21,-48.72 342.45,-46.9 357.46,-45.11"/>
<polygon fill="#63b8ff" stroke="#63b8ff" points="358.29,-48.54 367.8,-43.87 357.46,-41.58 358.29,-48.54"/>
</a>
</g>
</g>
</g>
</svg>
