<?xml version="1.0" encoding="UTF-8" standalone="no"?>
<!DOCTYPE svg PUBLIC "-//W3C//DTD SVG 1.1//EN"
 "http://www.w3.org/Graphics/SVG/1.1/DTD/svg11.dtd">
<!-- Generated by graphviz version 2.43.0 (0)
 -->
<!-- Title: netspeak::set_response_phrase Pages: 1 -->
<svg width="525pt" height="161pt"
 viewBox="0.00 0.00 525.00 161.00" xmlns="http://www.w3.org/2000/svg" xmlns:xlink="http://www.w3.org/1999/xlink">
<g id="graph0" class="graph" transform="scale(1 1) rotate(0) translate(4 157)">
<title>netspeak::set_response_phrase</title>
<!-- Node1 -->
<g id="Node000001" class="node">
<title>Node1</title>
<g id="a_Node000001"><a xlink:title="Converts the given search result item into a (service) phrase.">
<polygon fill="#999999" stroke="#666666" points="132,-91 0,-91 0,-61 132,-61 132,-91"/>
<text text-anchor="start" x="8" y="-79" font-family="Helvetica,sans-Serif" font-size="10.00">netspeak::set_response</text>
<text text-anchor="middle" x="66" y="-68" font-family="Helvetica,sans-Serif" font-size="10.00">_phrase</text>
</a>
</g>
</g>
<!-- Node2 -->
<g id="Node000002" class="node">
<title>Node2</title>
<g id="a_Node000002"><a xlink:href="classnetspeak_1_1model_1_1Phrase.html#acfc15d1ae254baa86daa01723e7e5778" target="_top" xlink:title=" ">
<polygon fill="white" stroke="#666666" points="312.5,-153 175.5,-153 175.5,-123 312.5,-123 312.5,-153"/>
<text text-anchor="start" x="183.5" y="-141" font-family="Helvetica,sans-Serif" font-size="10.00">netspeak::model::Phrase</text>
<text text-anchor="middle" x="244" y="-130" font-family="Helvetica,sans-Serif" font-size="10.00">::freq</text>
</a>
</g>
</g>
<!-- Node1&#45;&gt;Node2 -->
<g id="edge1_Node000001_Node000002" class="edge">
<title>Node1&#45;&gt;Node2</title>
<g id="a_edge1_Node000001_Node000002"><a xlink:title=" ">
<path fill="none" stroke="#63b8ff" d="M105.68,-91.07C124.42,-98.24 147.3,-106.8 168,-114 173.54,-115.93 179.33,-117.88 185.14,-119.8"/>
<polygon fill="#63b8ff" stroke="#63b8ff" points="184.28,-123.21 194.87,-122.99 186.46,-116.55 184.28,-123.21"/>
</a>
</g>
</g>
<!-- Node3 -->
<g id="Node000003" class="node">
<title>Node3</title>
<g id="a_Node000003"><a xlink:href="classnetspeak_1_1model_1_1Phrase.html#abf504a6571722f250cd0738da12cfc19" target="_top" xlink:title=" ">
<polygon fill="white" stroke="#666666" points="320,-104.5 168,-104.5 168,-85.5 320,-85.5 320,-104.5"/>
<text text-anchor="middle" x="244" y="-92.5" font-family="Helvetica,sans-Serif" font-size="10.00">netspeak::model::Phrase::id</text>
</a>
</g>
</g>
<!-- Node1&#45;&gt;Node3 -->
<g id="edge2_Node000001_Node000003" class="edge">
<title>Node1&#45;&gt;Node3</title>
<g id="a_edge2_Node000001_Node000003"><a xlink:title=" ">
<path fill="none" stroke="#63b8ff" d="M132.04,-83.02C140.41,-83.93 149.08,-84.86 157.72,-85.79"/>
<polygon fill="#63b8ff" stroke="#63b8ff" points="157.51,-89.29 167.83,-86.88 158.26,-82.33 157.51,-89.29"/>
</a>
</g>
</g>
<!-- Node4 -->
<g id="Node000004" class="node">
<title>Node4</title>
<g id="a_Node000004"><a xlink:href="namespacenetspeak.html#a5dfc32f282aa2ad493b13184b11ef68b" target="_top" xlink:title=" ">
<polygon fill="white" stroke="#666666" points="293,-67.5 195,-67.5 195,-48.5 293,-48.5 293,-67.5"/>
<text text-anchor="middle" x="244" y="-55.5" font-family="Helvetica,sans-Serif" font-size="10.00">netspeak::to_tag</text>
</a>
</g>
</g>
<!-- Node1&#45;&gt;Node4 -->
<g id="edge3_Node000001_Node000004" class="edge">
<title>Node1&#45;&gt;Node4</title>
<g id="a_edge3_Node000001_Node000004"><a xlink:title=" ">
<path fill="none" stroke="#63b8ff" d="M132.04,-69.35C149.23,-67.59 167.68,-65.7 184.5,-63.98"/>
<polygon fill="#63b8ff" stroke="#63b8ff" points="185.14,-67.44 194.74,-62.94 184.43,-60.47 185.14,-67.44"/>
</a>
</g>
</g>
<!-- Node6 -->
<g id="Node000006" class="node">
<title>Node6</title>
<g id="a_Node000006"><a xlink:href="classnetspeak_1_1model_1_1Phrase.html#a0cfea75b7cad4d3c9a3cd111789bd42f" target="_top" xlink:title=" ">
<polygon fill="white" stroke="#666666" points="312.5,-30 175.5,-30 175.5,0 312.5,0 312.5,-30"/>
<text text-anchor="start" x="183.5" y="-18" font-family="Helvetica,sans-Serif" font-size="10.00">netspeak::model::Phrase</text>
<text text-anchor="middle" x="244" y="-7" font-family="Helvetica,sans-Serif" font-size="10.00">::words</text>
</a>
</g>
</g>
<!-- Node1&#45;&gt;Node6 -->
<g id="edge5_Node000001_Node000006" class="edge">
<title>Node1&#45;&gt;Node6</title>
<g id="a_edge5_Node000001_Node000006"><a xlink:title=" ">
<path fill="none" stroke="#63b8ff" d="M108.7,-60.92C126.88,-54.4 148.47,-46.74 168,-40 174.36,-37.81 181.04,-35.53 187.68,-33.3"/>
<polygon fill="#63b8ff" stroke="#63b8ff" points="188.97,-36.55 197.34,-30.05 186.74,-29.92 188.97,-36.55"/>
</a>
</g>
</g>
<!-- Node5 -->
<g id="Node000005" class="node">
<title>Node5</title>
<g id="a_Node000005"><a xlink:href="classnetspeak_1_1model_1_1NormQueryUnit____.html#ac434701089b009138eafdec6f1bfbc8e" target="_top" xlink:title=" ">
<polygon fill="white" stroke="#666666" points="517,-73 356,-73 356,-43 517,-43 517,-73"/>
<text text-anchor="start" x="364" y="-61" font-family="Helvetica,sans-Serif" font-size="10.00">netspeak::model::NormQuery</text>
<text text-anchor="middle" x="436.5" y="-50" font-family="Helvetica,sans-Serif" font-size="10.00">Unit__::source</text>
</a>
</g>
</g>
<!-- Node4&#45;&gt;Node5 -->
<g id="edge4_Node000004_Node000005" class="edge">
<title>Node4&#45;&gt;Node5</title>
<g id="a_edge4_Node000004_Node000005"><a xlink:title=" ">
<path fill="none" stroke="#63b8ff" d="M293.07,-58C309.16,-58 327.65,-58 345.87,-58"/>
<polygon fill="#63b8ff" stroke="#63b8ff" points="345.94,-61.5 355.94,-58 345.94,-54.5 345.94,-61.5"/>
</a>
</g>
</g>
</g>
</svg>
