<?xml version="1.0" encoding="UTF-8" standalone="no"?>
<!DOCTYPE svg PUBLIC "-//W3C//DTD SVG 1.1//EN"
 "http://www.w3.org/Graphics/SVG/1.1/DTD/svg11.dtd">
<!-- Generated by graphviz version 2.43.0 (0)
 -->
<!-- Title: netspeak::util::__properties_format_impl::write_unicode_char Pages: 1 -->
<svg width="538pt" height="59pt"
 viewBox="0.00 0.00 538.00 59.00" xmlns="http://www.w3.org/2000/svg" xmlns:xlink="http://www.w3.org/1999/xlink">
<g id="graph0" class="graph" transform="scale(1 1) rotate(0) translate(4 55)">
<title>netspeak::util::__properties_format_impl::write_unicode_char</title>
<!-- Node1 -->
<g id="Node000001" class="node">
<title>Node1</title>
<g id="a_Node000001"><a xlink:title=" ">
<polygon fill="#999999" stroke="#666666" points="182,-51 0,-51 0,-21 182,-21 182,-51"/>
<text text-anchor="start" x="8" y="-39" font-family="Helvetica,sans-Serif" font-size="10.00">netspeak::util::__properties</text>
<text text-anchor="middle" x="91" y="-28" font-family="Helvetica,sans-Serif" font-size="10.00">_format_impl::write_unicode_char</text>
</a>
</g>
</g>
<!-- Node2 -->
<g id="Node000002" class="node">
<title>Node2</title>
<g id="a_Node000002"><a xlink:href="namespacenetspeak_1_1util.html#a4c91ad572508b4021399ac7dddff574d" target="_top" xlink:title=" ">
<polygon fill="white" stroke="#666666" points="530,-45.5 417,-45.5 417,-26.5 530,-26.5 530,-45.5"/>
<text text-anchor="middle" x="473.5" y="-33.5" font-family="Helvetica,sans-Serif" font-size="10.00">netspeak::util::hash</text>
</a>
</g>
</g>
<!-- Node1&#45;&gt;Node2 -->
<g id="edge1_Node000001_Node000002" class="edge">
<title>Node1&#45;&gt;Node2</title>
<g id="a_edge1_Node000001_Node000002"><a xlink:title=" ">
<path fill="none" stroke="#63b8ff" d="M182.16,-38.41C194.21,-38.65 206.4,-38.86 218,-39 290.44,-39.86 308.57,-40.19 381,-39 389.34,-38.86 398.1,-38.66 406.77,-38.41"/>
<polygon fill="#63b8ff" stroke="#63b8ff" points="406.97,-41.91 416.86,-38.12 406.76,-34.91 406.97,-41.91"/>
</a>
</g>
</g>
<!-- Node3 -->
<g id="Node000003" class="node">
<title>Node3</title>
<g id="a_Node000003"><a xlink:href="namespacenetspeak_1_1util_1_1____properties__format__impl.html#a6e49972cfd9823418f9567c274fe31e0" target="_top" xlink:title=" ">
<polygon fill="white" stroke="#666666" points="381,-30 218,-30 218,0 381,0 381,-30"/>
<text text-anchor="start" x="226" y="-18" font-family="Helvetica,sans-Serif" font-size="10.00">netspeak::util::__properties</text>
<text text-anchor="middle" x="299.5" y="-7" font-family="Helvetica,sans-Serif" font-size="10.00">_format_impl::write_hex_digit</text>
</a>
</g>
</g>
<!-- Node1&#45;&gt;Node3 -->
<g id="edge2_Node000001_Node000003" class="edge">
<title>Node1&#45;&gt;Node3</title>
<g id="a_edge2_Node000001_Node000003"><a xlink:title=" ">
<path fill="none" stroke="#63b8ff" d="M182.27,-26.82C190.68,-25.96 199.21,-25.1 207.63,-24.24"/>
<polygon fill="#63b8ff" stroke="#63b8ff" points="208.23,-27.7 217.82,-23.2 207.52,-20.73 208.23,-27.7"/>
</a>
</g>
</g>
<!-- Node3&#45;&gt;Node2 -->
<g id="edge3_Node000003_Node000002" class="edge">
<title>Node3&#45;&gt;Node2</title>
<g id="a_edge3_Node000003_Node000002"><a xlink:title=" ">
<path fill="none" stroke="#63b8ff" d="M381.21,-24.85C389.78,-25.9 398.41,-26.95 406.77,-27.97"/>
<polygon fill="#63b8ff" stroke="#63b8ff" points="406.46,-31.46 416.81,-29.2 407.31,-24.51 406.46,-31.46"/>
</a>
</g>
</g>
</g>
</svg>
