<?xml version="1.0" encoding="UTF-8" standalone="no"?>
<!DOCTYPE svg PUBLIC "-//W3C//DTD SVG 1.1//EN"
 "http://www.w3.org/Graphics/SVG/1.1/DTD/svg11.dtd">
<!-- Generated by graphviz version 2.43.0 (0)
 -->
<!-- Title: netspeak::error_message::cannot_open Pages: 1 -->
<svg width="904pt" height="406pt"
 viewBox="0.00 0.00 904.00 405.50" xmlns="http://www.w3.org/2000/svg" xmlns:xlink="http://www.w3.org/1999/xlink">
<g id="graph0" class="graph" transform="scale(1 1) rotate(0) translate(4 401.5)">
<title>netspeak::error_message::cannot_open</title>
<!-- Node1 -->
<g id="Node000001" class="node">
<title>Node1</title>
<g id="a_Node000001"><a xlink:title=" ">
<polygon fill="#999999" stroke="#666666" points="896,-207 756,-207 756,-177 896,-177 896,-207"/>
<text text-anchor="start" x="764" y="-195" font-family="Helvetica,sans-Serif" font-size="10.00">netspeak::error_message</text>
<text text-anchor="middle" x="826" y="-184" font-family="Helvetica,sans-Serif" font-size="10.00">::cannot_open</text>
</a>
</g>
</g>
<!-- Node2 -->
<g id="Node000002" class="node">
<title>Node2</title>
<g id="a_Node000002"><a xlink:href="namespacenetspeak.html#ada202c21bedf32e697fdfb62ad980688" target="_top" xlink:title=" ">
<polygon fill="white" stroke="#666666" points="720,-397.5 561,-397.5 561,-378.5 720,-378.5 720,-397.5"/>
<text text-anchor="middle" x="640.5" y="-385.5" font-family="Helvetica,sans-Serif" font-size="10.00">netspeak::BuildPhraseCorpus</text>
</a>
</g>
</g>
<!-- Node1&#45;&gt;Node2 -->
<g id="edge1_Node000001_Node000002" class="edge">
<title>Node1&#45;&gt;Node2</title>
<g id="a_edge1_Node000001_Node000002"><a xlink:title=" ">
<path fill="none" stroke="#63b8ff" d="M817.51,-216.75C804.39,-255.7 773.43,-330.91 720,-370 715.37,-373.38 710.22,-376.15 704.81,-378.4"/>
<polygon fill="#63b8ff" stroke="#63b8ff" points="820.84,-217.81 820.6,-207.22 814.18,-215.65 820.84,-217.81"/>
</a>
</g>
</g>
<!-- Node3 -->
<g id="Node000003" class="node">
<title>Node3</title>
<g id="a_Node000003"><a xlink:href="namespacenetspeak.html#af42806304a02200d2a12099b3b54f35d" target="_top" xlink:title=" ">
<polygon fill="white" stroke="#666666" points="718,-360.5 563,-360.5 563,-341.5 718,-341.5 718,-360.5"/>
<text text-anchor="middle" x="640.5" y="-348.5" font-family="Helvetica,sans-Serif" font-size="10.00">netspeak::BuildPostlistIndex</text>
</a>
</g>
</g>
<!-- Node1&#45;&gt;Node3 -->
<g id="edge2_Node000001_Node000003" class="edge">
<title>Node1&#45;&gt;Node3</title>
<g id="a_edge2_Node000001_Node000003"><a xlink:title=" ">
<path fill="none" stroke="#63b8ff" d="M812.46,-216.05C795.48,-246.3 762.36,-297.82 720,-327 710.85,-333.31 699.98,-338 689.3,-341.47"/>
<polygon fill="#63b8ff" stroke="#63b8ff" points="815.66,-217.48 817.4,-207.03 809.52,-214.12 815.66,-217.48"/>
</a>
</g>
</g>
<!-- Node4 -->
<g id="Node000004" class="node">
<title>Node4</title>
<g id="a_Node000004"><a xlink:href="namespacenetspeak.html#ad26a208d24590b1200b160e2f5b94aa9" target="_top" xlink:title=" ">
<polygon fill="white" stroke="#666666" points="705,-30 576,-30 576,0 705,0 705,-30"/>
<text text-anchor="start" x="584" y="-18" font-family="Helvetica,sans-Serif" font-size="10.00">netspeak::find_missing</text>
<text text-anchor="middle" x="640.5" y="-7" font-family="Helvetica,sans-Serif" font-size="10.00">_words</text>
</a>
</g>
</g>
<!-- Node1&#45;&gt;Node4 -->
<g id="edge3_Node000001_Node000004" class="edge">
<title>Node1&#45;&gt;Node4</title>
<g id="a_edge3_Node000001_Node000004"><a xlink:title=" ">
<path fill="none" stroke="#63b8ff" d="M813.49,-167.45C797.07,-134.91 763.97,-77.69 720,-44 712.73,-38.43 704.29,-33.85 695.69,-30.1"/>
<polygon fill="#63b8ff" stroke="#63b8ff" points="810.49,-169.28 818.04,-176.7 816.77,-166.19 810.49,-169.28"/>
</a>
</g>
</g>
<!-- Node8 -->
<g id="Node000008" class="node">
<title>Node8</title>
<g id="a_Node000008"><a xlink:href="classnetspeak_1_1PhraseCorpus.html#a13443ac2920664a49937a89caa622394" target="_top" xlink:title=" ">
<polygon fill="white" stroke="#666666" points="523.5,-130 389.5,-130 389.5,-100 523.5,-100 523.5,-130"/>
<text text-anchor="start" x="397.5" y="-118" font-family="Helvetica,sans-Serif" font-size="10.00">netspeak::PhraseCorpus</text>
<text text-anchor="middle" x="456.5" y="-107" font-family="Helvetica,sans-Serif" font-size="10.00">::init_vocabulary_</text>
</a>
</g>
</g>
<!-- Node1&#45;&gt;Node8 -->
<g id="edge7_Node000001_Node000008" class="edge">
<title>Node1&#45;&gt;Node8</title>
<g id="a_edge7_Node000001_Node000008"><a xlink:title=" ">
<path fill="none" stroke="#63b8ff" d="M803.54,-169.76C783.84,-151.07 752.81,-125.74 720,-115 655.79,-93.98 577.92,-97.31 523.74,-103.83"/>
<polygon fill="#63b8ff" stroke="#63b8ff" points="801.16,-172.33 810.77,-176.8 806.05,-167.32 801.16,-172.33"/>
</a>
</g>
</g>
<!-- Node10 -->
<g id="Node000010" class="node">
<title>Node10</title>
<g id="a_Node000010"><a xlink:href="classnetspeak_1_1Netspeak.html#a4fa7fcfd57d5c943e1bf476c61610c99" target="_top" xlink:title=" ">
<polygon fill="white" stroke="#666666" points="126.5,-290 12.5,-290 12.5,-260 126.5,-260 126.5,-290"/>
<text text-anchor="start" x="20.5" y="-278" font-family="Helvetica,sans-Serif" font-size="10.00">netspeak::Netspeak</text>
<text text-anchor="middle" x="69.5" y="-267" font-family="Helvetica,sans-Serif" font-size="10.00">::initialize</text>
</a>
</g>
</g>
<!-- Node1&#45;&gt;Node10 -->
<g id="edge10_Node000001_Node000010" class="edge">
<title>Node1&#45;&gt;Node10</title>
<g id="a_edge10_Node000001_Node000010"><a xlink:title=" ">
<path fill="none" stroke="#63b8ff" d="M798.64,-213.45C778.45,-228.47 749.19,-247.34 720,-256 609.75,-288.7 263.17,-281.37 126.6,-277.02"/>
<polygon fill="#63b8ff" stroke="#63b8ff" points="800.88,-216.13 806.71,-207.28 796.63,-210.57 800.88,-216.13"/>
</a>
</g>
</g>
<!-- Node11 -->
<g id="Node000011" class="node">
<title>Node11</title>
<g id="a_Node000011"><a xlink:href="namespacecli.html#adae54133585658a447ba1db3fcd4d232" target="_top" xlink:title=" ">
<polygon fill="white" stroke="#666666" points="678,-180.5 603,-180.5 603,-161.5 678,-161.5 678,-180.5"/>
<text text-anchor="middle" x="640.5" y="-168.5" font-family="Helvetica,sans-Serif" font-size="10.00">cli::load_file</text>
</a>
</g>
</g>
<!-- Node1&#45;&gt;Node11 -->
<g id="edge11_Node000001_Node000011" class="edge">
<title>Node1&#45;&gt;Node11</title>
<g id="a_edge11_Node000001_Node000011"><a xlink:title=" ">
<path fill="none" stroke="#63b8ff" d="M745.88,-182.94C722.31,-180.25 697.61,-177.42 678.16,-175.2"/>
<polygon fill="#63b8ff" stroke="#63b8ff" points="745.55,-186.43 755.89,-184.09 746.35,-179.48 745.55,-186.43"/>
</a>
</g>
</g>
<!-- Node13 -->
<g id="Node000013" class="node">
<title>Node13</title>
<g id="a_Node000013"><a xlink:href="namespacenetspeak.html#ad8a5358d2816942281cb8d9487834f9e" target="_top" xlink:title=" ">
<polygon fill="white" stroke="#666666" points="715.5,-143.5 565.5,-143.5 565.5,-124.5 715.5,-124.5 715.5,-143.5"/>
<text text-anchor="middle" x="640.5" y="-131.5" font-family="Helvetica,sans-Serif" font-size="10.00">netspeak::MergeDuplicates</text>
</a>
</g>
</g>
<!-- Node1&#45;&gt;Node13 -->
<g id="edge13_Node000001_Node000013" class="edge">
<title>Node1&#45;&gt;Node13</title>
<g id="a_edge13_Node000001_Node000013"><a xlink:title=" ">
<path fill="none" stroke="#63b8ff" d="M779.46,-173.07C761.17,-165.89 739.78,-158 720,-152 709.7,-148.87 698.49,-146 687.86,-143.51"/>
<polygon fill="#63b8ff" stroke="#63b8ff" points="778.4,-176.42 788.98,-176.86 780.99,-169.91 778.4,-176.42"/>
</a>
</g>
</g>
<!-- Node14 -->
<g id="Node000014" class="node">
<title>Node14</title>
<g id="a_Node000014"><a xlink:href="structnetspeak_1_1util_1_1FileDescriptor.html#abdc417820110f016b314a0a68e33775c" target="_top" xlink:title=" ">
<polygon fill="white" stroke="#666666" points="719,-229 562,-229 562,-199 719,-199 719,-229"/>
<text text-anchor="start" x="570" y="-217" font-family="Helvetica,sans-Serif" font-size="10.00">netspeak::util::FileDescriptor</text>
<text text-anchor="middle" x="640.5" y="-206" font-family="Helvetica,sans-Serif" font-size="10.00">::open</text>
</a>
</g>
</g>
<!-- Node1&#45;&gt;Node14 -->
<g id="edge14_Node000001_Node000014" class="edge">
<title>Node1&#45;&gt;Node14</title>
<g id="a_edge14_Node000001_Node000014"><a xlink:title=" ">
<path fill="none" stroke="#63b8ff" d="M745.95,-201.48C737.07,-202.54 728.03,-203.63 719.16,-204.69"/>
<polygon fill="#63b8ff" stroke="#63b8ff" points="746.38,-204.95 755.89,-200.29 745.54,-198 746.38,-204.95"/>
</a>
</g>
</g>
<!-- Node16 -->
<g id="Node000016" class="node">
<title>Node16</title>
<g id="a_Node000016"><a xlink:href="namespacenetspeak.html#ab34c1d0a372af837387430965133731e" target="_top" xlink:title=" ">
<polygon fill="white" stroke="#666666" points="522,-66.5 391,-66.5 391,-47.5 522,-47.5 522,-66.5"/>
<text text-anchor="middle" x="456.5" y="-54.5" font-family="Helvetica,sans-Serif" font-size="10.00">netspeak::read_1grams</text>
</a>
</g>
</g>
<!-- Node1&#45;&gt;Node16 -->
<g id="edge18_Node000001_Node000016" class="edge">
<title>Node1&#45;&gt;Node16</title>
<g id="a_edge18_Node000001_Node000016"><a xlink:title=" ">
<path fill="none" stroke="#63b8ff" d="M807.33,-169.03C788.38,-146.21 756.11,-112.21 720,-95 657.23,-65.08 577.18,-57.24 522.08,-55.84"/>
<polygon fill="#63b8ff" stroke="#63b8ff" points="804.67,-171.31 813.68,-176.88 810.11,-166.9 804.67,-171.31"/>
</a>
</g>
</g>
<!-- Node17 -->
<g id="Node000017" class="node">
<title>Node17</title>
<g id="a_Node000017"><a xlink:href="namespacenetspeak_1_1Dictionaries.html#aa225a8e0be2dfe04f13ed7af3cea9197" target="_top" xlink:title=" ">
<polygon fill="white" stroke="#666666" points="326.5,-333 200.5,-333 200.5,-303 326.5,-303 326.5,-333"/>
<text text-anchor="start" x="208.5" y="-321" font-family="Helvetica,sans-Serif" font-size="10.00">netspeak::Dictionaries</text>
<text text-anchor="middle" x="263.5" y="-310" font-family="Helvetica,sans-Serif" font-size="10.00">::read_from_file</text>
</a>
</g>
</g>
<!-- Node1&#45;&gt;Node17 -->
<g id="edge20_Node000001_Node000017" class="edge">
<title>Node1&#45;&gt;Node17</title>
<g id="a_edge20_Node000001_Node000017"><a xlink:title=" ">
<path fill="none" stroke="#63b8ff" d="M807.91,-215.19C789.22,-238.49 756.98,-273.16 720,-289 589.07,-345.08 417.44,-336.71 326.81,-326.74"/>
<polygon fill="#63b8ff" stroke="#63b8ff" points="810.77,-217.21 814.16,-207.17 805.25,-212.9 810.77,-217.21"/>
</a>
</g>
</g>
<!-- Node5 -->
<g id="Node000005" class="node">
<title>Node5</title>
<g id="a_Node000005"><a xlink:href="namespacenetspeak.html#a14c12d265b692be168a14990ed2c68e8" target="_top" xlink:title=" ">
<polygon fill="white" stroke="#666666" points="521,-26.5 392,-26.5 392,-7.5 521,-7.5 521,-26.5"/>
<text text-anchor="middle" x="456.5" y="-14.5" font-family="Helvetica,sans-Serif" font-size="10.00">netspeak::add_missing</text>
</a>
</g>
</g>
<!-- Node4&#45;&gt;Node5 -->
<g id="edge4_Node000004_Node000005" class="edge">
<title>Node4&#45;&gt;Node5</title>
<g id="a_edge4_Node000004_Node000005"><a xlink:title=" ">
<path fill="none" stroke="#63b8ff" d="M565.73,-15.81C550.94,-15.97 535.53,-16.14 521.12,-16.3"/>
<polygon fill="#63b8ff" stroke="#63b8ff" points="565.88,-19.31 575.85,-15.7 565.81,-12.31 565.88,-19.31"/>
</a>
</g>
</g>
<!-- Node6 -->
<g id="Node000006" class="node">
<title>Node6</title>
<g id="a_Node000006"><a xlink:href="namespacenetspeak.html#a1314b7075ba9a5635594b6d86fe2e881" target="_top" xlink:title=" ">
<polygon fill="white" stroke="#666666" points="352,-46.5 175,-46.5 175,-27.5 352,-27.5 352,-46.5"/>
<text text-anchor="middle" x="263.5" y="-34.5" font-family="Helvetica,sans-Serif" font-size="10.00">netspeak::BuildRegexVocabulary</text>
</a>
</g>
</g>
<!-- Node5&#45;&gt;Node6 -->
<g id="edge5_Node000005_Node000006" class="edge">
<title>Node5&#45;&gt;Node6</title>
<g id="a_edge5_Node000005_Node000006"><a xlink:title=" ">
<path fill="none" stroke="#63b8ff" d="M381.93,-24.7C372.23,-25.72 362.22,-26.77 352.31,-27.81"/>
<polygon fill="#63b8ff" stroke="#63b8ff" points="382.32,-28.18 391.9,-23.66 381.59,-21.22 382.32,-28.18"/>
</a>
</g>
</g>
<!-- Node7 -->
<g id="Node000007" class="node">
<title>Node7</title>
<g id="a_Node000007"><a xlink:href="namespacenetspeak.html#a4ea97d4aa2512ac858edac0e8710d49b" target="_top" xlink:title=" ">
<polygon fill="white" stroke="#666666" points="139,-46.5 0,-46.5 0,-27.5 139,-27.5 139,-46.5"/>
<text text-anchor="middle" x="69.5" y="-34.5" font-family="Helvetica,sans-Serif" font-size="10.00">netspeak::BuildNetspeak</text>
</a>
</g>
</g>
<!-- Node6&#45;&gt;Node7 -->
<g id="edge6_Node000006_Node000007" class="edge">
<title>Node6&#45;&gt;Node7</title>
<g id="a_edge6_Node000006_Node000007"><a xlink:title=" ">
<path fill="none" stroke="#63b8ff" d="M164.81,-37C156.18,-37 147.56,-37 139.25,-37"/>
<polygon fill="#63b8ff" stroke="#63b8ff" points="164.93,-40.5 174.93,-37 164.93,-33.5 164.93,-40.5"/>
</a>
</g>
</g>
<!-- Node9 -->
<g id="Node000009" class="node">
<title>Node9</title>
<g id="a_Node000009"><a xlink:href="classnetspeak_1_1PhraseCorpus.html#aff99b4d730ffeff6a21ad3760284c6cf" target="_top" xlink:title=" ">
<polygon fill="white" stroke="#666666" points="330.5,-229 196.5,-229 196.5,-199 330.5,-199 330.5,-229"/>
<text text-anchor="start" x="204.5" y="-217" font-family="Helvetica,sans-Serif" font-size="10.00">netspeak::PhraseCorpus</text>
<text text-anchor="middle" x="263.5" y="-206" font-family="Helvetica,sans-Serif" font-size="10.00">::open</text>
</a>
</g>
</g>
<!-- Node8&#45;&gt;Node9 -->
<g id="edge8_Node000008_Node000009" class="edge">
<title>Node8&#45;&gt;Node9</title>
<g id="a_edge8_Node000008_Node000009"><a xlink:title=" ">
<path fill="none" stroke="#63b8ff" d="M417.15,-134.88C380.64,-153.8 326.5,-181.86 293.47,-198.99"/>
<polygon fill="#63b8ff" stroke="#63b8ff" points="419.22,-137.75 426.49,-130.04 416,-131.53 419.22,-137.75"/>
</a>
</g>
</g>
<!-- Node9&#45;&gt;Node10 -->
<g id="edge9_Node000009_Node000010" class="edge">
<title>Node9&#45;&gt;Node10</title>
<g id="a_edge9_Node000009_Node000010"><a xlink:title=" ">
<path fill="none" stroke="#63b8ff" d="M205.4,-232.14C177.46,-241.02 144.23,-251.57 117.75,-259.99"/>
<polygon fill="#63b8ff" stroke="#63b8ff" points="206.57,-235.44 215.04,-229.08 204.45,-228.77 206.57,-235.44"/>
</a>
</g>
</g>
<!-- Node12 -->
<g id="Node000012" class="node">
<title>Node12</title>
<g id="a_Node000012"><a xlink:href="classcli_1_1RegexCommand.html#a359a924652eac2c3d8664bfc5ff29f3e" target="_top" xlink:title=" ">
<polygon fill="white" stroke="#666666" points="525,-180.5 388,-180.5 388,-161.5 525,-161.5 525,-180.5"/>
<text text-anchor="middle" x="456.5" y="-168.5" font-family="Helvetica,sans-Serif" font-size="10.00">cli::RegexCommand::run</text>
</a>
</g>
</g>
<!-- Node11&#45;&gt;Node12 -->
<g id="edge12_Node000011_Node000012" class="edge">
<title>Node11&#45;&gt;Node12</title>
<g id="a_edge12_Node000011_Node000012"><a xlink:title=" ">
<path fill="none" stroke="#63b8ff" d="M592.64,-171C572.11,-171 547.64,-171 525.2,-171"/>
<polygon fill="#63b8ff" stroke="#63b8ff" points="592.67,-174.5 602.67,-171 592.67,-167.5 592.67,-174.5"/>
</a>
</g>
</g>
<!-- Node14&#45;&gt;Node14 -->
<g id="edge15_Node000014_Node000014" class="edge">
<title>Node14&#45;&gt;Node14</title>
<g id="a_edge15_Node000014_Node000014"><a xlink:title=" ">
<path fill="none" stroke="#63b8ff" d="M672.71,-239.6C668.31,-243.97 657.57,-247 640.5,-247 611.75,-247 600.97,-238.41 608.16,-229.28"/>
<polygon fill="#63b8ff" stroke="#63b8ff" points="676.21,-239.32 672.84,-229.28 669.21,-239.23 676.21,-239.32"/>
</a>
</g>
</g>
<!-- Node15 -->
<g id="Node000015" class="node">
<title>Node15</title>
<g id="a_Node000015"><a xlink:href="classnetspeak_1_1PhraseCorpus.html#a59d4f58c04dbe6951096baad931ad6d7" target="_top" xlink:title=" ">
<polygon fill="white" stroke="#666666" points="523.5,-229 389.5,-229 389.5,-199 523.5,-199 523.5,-229"/>
<text text-anchor="start" x="397.5" y="-217" font-family="Helvetica,sans-Serif" font-size="10.00">netspeak::PhraseCorpus</text>
<text text-anchor="middle" x="456.5" y="-206" font-family="Helvetica,sans-Serif" font-size="10.00">::open_phrase_files_</text>
</a>
</g>
</g>
<!-- Node14&#45;&gt;Node15 -->
<g id="edge16_Node000014_Node000015" class="edge">
<title>Node14&#45;&gt;Node15</title>
<g id="a_edge16_Node000014_Node000015"><a xlink:title=" ">
<path fill="none" stroke="#63b8ff" d="M551.65,-214C542.27,-214 532.84,-214 523.77,-214"/>
<polygon fill="#63b8ff" stroke="#63b8ff" points="551.79,-217.5 561.79,-214 551.79,-210.5 551.79,-217.5"/>
</a>
</g>
</g>
<!-- Node15&#45;&gt;Node9 -->
<g id="edge17_Node000015_Node000009" class="edge">
<title>Node15&#45;&gt;Node9</title>
<g id="a_edge17_Node000015_Node000009"><a xlink:title=" ">
<path fill="none" stroke="#63b8ff" d="M378.87,-214C362.9,-214 346.2,-214 330.65,-214"/>
<polygon fill="#63b8ff" stroke="#63b8ff" points="379.23,-217.5 389.23,-214 379.23,-210.5 379.23,-217.5"/>
</a>
</g>
</g>
<!-- Node16&#45;&gt;Node6 -->
<g id="edge19_Node000016_Node000006" class="edge">
<title>Node16&#45;&gt;Node6</title>
<g id="a_edge19_Node000016_Node000006"><a xlink:title=" ">
<path fill="none" stroke="#63b8ff" d="M380.77,-49.17C371.38,-48.19 361.7,-47.18 352.13,-46.18"/>
<polygon fill="#63b8ff" stroke="#63b8ff" points="380.53,-52.67 390.84,-50.23 381.26,-45.71 380.53,-52.67"/>
</a>
</g>
</g>
<!-- Node17&#45;&gt;Node10 -->
<g id="edge21_Node000017_Node000010" class="edge">
<title>Node17&#45;&gt;Node10</title>
<g id="a_edge21_Node000017_Node000010"><a xlink:title=" ">
<path fill="none" stroke="#63b8ff" d="M190.52,-301.88C169.35,-297.14 146.52,-292.03 126.52,-287.55"/>
<polygon fill="#63b8ff" stroke="#63b8ff" points="189.91,-305.33 200.43,-304.1 191.43,-298.5 189.91,-305.33"/>
</a>
</g>
</g>
</g>
</svg>
