<?xml version="1.0" encoding="UTF-8" standalone="no"?>
<!DOCTYPE svg PUBLIC "-//W3C//DTD SVG 1.1//EN"
 "http://www.w3.org/Graphics/SVG/1.1/DTD/svg11.dtd">
<!-- Generated by graphviz version 2.43.0 (0)
 -->
<!-- Title: netspeak::regex::parse_netspeak_regex_query Pages: 1 -->
<svg width="730pt" height="420pt"
 viewBox="0.00 0.00 730.00 419.65" xmlns="http://www.w3.org/2000/svg" xmlns:xlink="http://www.w3.org/1999/xlink">
<g id="graph0" class="graph" transform="scale(1 1) rotate(0) translate(4 415.65)">
<title>netspeak::regex::parse_netspeak_regex_query</title>
<!-- Node1 -->
<g id="Node000001" class="node">
<title>Node1</title>
<g id="a_Node000001"><a xlink:title="Parses the given Netspeak regex query and returns the equivalent general regex query.">
<polygon fill="#999999" stroke="#666666" points="133,-228 0,-228 0,-198 133,-198 133,-228"/>
<text text-anchor="start" x="8" y="-216" font-family="Helvetica,sans-Serif" font-size="10.00">netspeak::regex::parse</text>
<text text-anchor="middle" x="66.5" y="-205" font-family="Helvetica,sans-Serif" font-size="10.00">_netspeak_regex_query</text>
</a>
</g>
</g>
<!-- Node2 -->
<g id="Node000002" class="node">
<title>Node2</title>
<g id="a_Node000002"><a xlink:href="classnetspeak_1_1regex_1_1RegexQueryBuilder.html#a626cce510f80b416ea26d8d1e9d4891c" target="_top" xlink:title="Adds the given unit to the internal query.">
<polygon fill="white" stroke="#666666" points="330,-207 169,-207 169,-177 330,-177 330,-207"/>
<text text-anchor="start" x="177" y="-195" font-family="Helvetica,sans-Serif" font-size="10.00">netspeak::regex::RegexQuery</text>
<text text-anchor="middle" x="249.5" y="-184" font-family="Helvetica,sans-Serif" font-size="10.00">Builder::add</text>
</a>
</g>
</g>
<!-- Node1&#45;&gt;Node2 -->
<g id="edge1_Node000001_Node000002" class="edge">
<title>Node1&#45;&gt;Node2</title>
<g id="a_edge1_Node000001_Node000002"><a xlink:title=" ">
<path fill="none" stroke="#63b8ff" d="M133.1,-205.39C141.46,-204.42 150.13,-203.41 158.79,-202.41"/>
<polygon fill="#63b8ff" stroke="#63b8ff" points="159.41,-205.86 168.94,-201.23 158.6,-198.91 159.41,-205.86"/>
</a>
</g>
</g>
<!-- Node4 -->
<g id="Node000004" class="node">
<title>Node4</title>
<g id="a_Node000004"><a xlink:href="structnetspeak_1_1regex_1_1RegexUnit.html#a98dff8023a5bb0d25f87f544dbb39659" target="_top" xlink:title=" ">
<polygon fill="white" stroke="#666666" points="722,-376 570,-376 570,-346 722,-346 722,-376"/>
<text text-anchor="start" x="578" y="-364" font-family="Helvetica,sans-Serif" font-size="10.00">netspeak::regex::RegexUnit</text>
<text text-anchor="middle" x="646" y="-353" font-family="Helvetica,sans-Serif" font-size="10.00">::char_set</text>
</a>
</g>
</g>
<!-- Node1&#45;&gt;Node4 -->
<g id="edge10_Node000001_Node000004" class="edge">
<title>Node1&#45;&gt;Node4</title>
<g id="a_edge10_Node000001_Node000004"><a xlink:title=" ">
<path fill="none" stroke="#63b8ff" d="M72.67,-228.29C84.26,-259.89 115.55,-332.14 169,-364 301.66,-443.08 494.31,-405.1 588.66,-378.83"/>
<polygon fill="#63b8ff" stroke="#63b8ff" points="589.64,-382.19 598.3,-376.09 587.72,-375.46 589.64,-382.19"/>
</a>
</g>
</g>
<!-- Node6 -->
<g id="Node000006" class="node">
<title>Node6</title>
<g id="a_Node000006"><a xlink:href="structnetspeak_1_1regex_1_1RegexUnit.html#a4da1987f131aa9640b7e77d7960b031b" target="_top" xlink:title=" ">
<polygon fill="white" stroke="#666666" points="722,-256 570,-256 570,-226 722,-226 722,-256"/>
<text text-anchor="start" x="578" y="-244" font-family="Helvetica,sans-Serif" font-size="10.00">netspeak::regex::RegexUnit</text>
<text text-anchor="middle" x="646" y="-233" font-family="Helvetica,sans-Serif" font-size="10.00">::word</text>
</a>
</g>
</g>
<!-- Node1&#45;&gt;Node6 -->
<g id="edge19_Node000001_Node000006" class="edge">
<title>Node1&#45;&gt;Node6</title>
<g id="a_edge19_Node000001_Node000006"><a xlink:title=" ">
<path fill="none" stroke="#63b8ff" d="M125.75,-228.05C139.84,-231.33 154.91,-234.56 169,-237 329.13,-264.77 372.01,-272.05 534,-259 542.39,-258.32 551.11,-257.36 559.8,-256.24"/>
<polygon fill="#63b8ff" stroke="#63b8ff" points="560.53,-259.67 569.97,-254.84 559.58,-252.73 560.53,-259.67"/>
</a>
</g>
</g>
<!-- Node8 -->
<g id="Node000008" class="node">
<title>Node8</title>
<g id="a_Node000008"><a xlink:href="structnetspeak_1_1regex_1_1RegexUnit.html#a3b20469cd1d0f8e97d6d6ce6626fd5a5" target="_top" xlink:title=" ">
<polygon fill="white" stroke="#666666" points="722,-143 570,-143 570,-113 722,-113 722,-143"/>
<text text-anchor="start" x="578" y="-131" font-family="Helvetica,sans-Serif" font-size="10.00">netspeak::regex::RegexUnit</text>
<text text-anchor="middle" x="646" y="-120" font-family="Helvetica,sans-Serif" font-size="10.00">::qmark</text>
</a>
</g>
</g>
<!-- Node1&#45;&gt;Node8 -->
<g id="edge13_Node000001_Node000008" class="edge">
<title>Node1&#45;&gt;Node8</title>
<g id="a_edge13_Node000001_Node000008"><a xlink:title=" ">
<path fill="none" stroke="#63b8ff" d="M97.07,-197.98C117,-188.34 144.08,-176.15 169,-168 254.18,-140.14 276.9,-134.61 366,-125 440.24,-116.99 459.34,-123.99 534,-125 542.31,-125.11 550.97,-125.27 559.63,-125.46"/>
<polygon fill="#63b8ff" stroke="#63b8ff" points="559.7,-128.96 569.77,-125.69 559.86,-121.96 559.7,-128.96"/>
</a>
</g>
</g>
<!-- Node9 -->
<g id="Node000009" class="node">
<title>Node9</title>
<g id="a_Node000009"><a xlink:href="structnetspeak_1_1regex_1_1RegexUnit.html#af7031ca21988515e98dc2b3dcf482e0b" target="_top" xlink:title=" ">
<polygon fill="white" stroke="#666666" points="526,-250 374,-250 374,-220 526,-220 526,-250"/>
<text text-anchor="start" x="382" y="-238" font-family="Helvetica,sans-Serif" font-size="10.00">netspeak::regex::RegexUnit</text>
<text text-anchor="middle" x="450" y="-227" font-family="Helvetica,sans-Serif" font-size="10.00">::optional_word</text>
</a>
</g>
</g>
<!-- Node1&#45;&gt;Node9 -->
<g id="edge11_Node000001_Node000009" class="edge">
<title>Node1&#45;&gt;Node9</title>
<g id="a_edge11_Node000001_Node000009"><a xlink:title=" ">
<path fill="none" stroke="#63b8ff" d="M133.08,-216.78C196.84,-220.46 294,-226.06 363.73,-230.08"/>
<polygon fill="#63b8ff" stroke="#63b8ff" points="363.63,-233.58 373.82,-230.66 364.03,-226.59 363.63,-233.58"/>
</a>
</g>
</g>
<!-- Node10 -->
<g id="Node000010" class="node">
<title>Node10</title>
<g id="a_Node000010"><a xlink:href="namespacenetspeak_1_1regex.html#acd1be471280f1d11b869b2b7c1f4ecb8" target="_top" xlink:title="Reads the given range until it finds a given end characters. If it finds the end characters,...">
<polygon fill="white" stroke="#666666" points="311,-78 188,-78 188,-48 311,-48 311,-78"/>
<text text-anchor="start" x="196" y="-66" font-family="Helvetica,sans-Serif" font-size="10.00">netspeak::regex::read</text>
<text text-anchor="middle" x="249.5" y="-55" font-family="Helvetica,sans-Serif" font-size="10.00">_until_char</text>
</a>
</g>
</g>
<!-- Node1&#45;&gt;Node10 -->
<g id="edge14_Node000001_Node000010" class="edge">
<title>Node1&#45;&gt;Node10</title>
<g id="a_edge14_Node000001_Node000010"><a xlink:title=" ">
<path fill="none" stroke="#63b8ff" d="M76.5,-197.78C92.21,-172.43 127.01,-121.43 169,-92 174.21,-88.35 179.93,-85.1 185.85,-82.23"/>
<polygon fill="#63b8ff" stroke="#63b8ff" points="187.56,-85.3 195.25,-78.01 184.69,-78.91 187.56,-85.3"/>
</a>
</g>
</g>
<!-- Node11 -->
<g id="Node000011" class="node">
<title>Node11</title>
<g id="a_Node000011"><a xlink:href="structnetspeak_1_1regex_1_1RegexUnit.html#abdddfa5541553a0a8a061f31e4d5662a" target="_top" xlink:title=" ">
<polygon fill="white" stroke="#666666" points="325.5,-30 173.5,-30 173.5,0 325.5,0 325.5,-30"/>
<text text-anchor="start" x="181.5" y="-18" font-family="Helvetica,sans-Serif" font-size="10.00">netspeak::regex::RegexUnit</text>
<text text-anchor="middle" x="249.5" y="-7" font-family="Helvetica,sans-Serif" font-size="10.00">::star</text>
</a>
</g>
</g>
<!-- Node1&#45;&gt;Node11 -->
<g id="edge15_Node000001_Node000011" class="edge">
<title>Node1&#45;&gt;Node11</title>
<g id="a_edge15_Node000001_Node000011"><a xlink:title=" ">
<path fill="none" stroke="#63b8ff" d="M72.06,-197.88C83.02,-164.15 114.09,-82.32 169,-39 170.61,-37.73 172.29,-36.52 174.03,-35.38"/>
<polygon fill="#63b8ff" stroke="#63b8ff" points="176.15,-38.2 183.09,-30.19 172.68,-32.12 176.15,-38.2"/>
</a>
</g>
</g>
<!-- Node12 -->
<g id="Node000012" class="node">
<title>Node12</title>
<g id="a_Node000012"><a xlink:href="classnetspeak_1_1regex_1_1RegexQueryBuilder.html#a7ef4e5553d0ec791b3960977a25e463f" target="_top" xlink:title="Creates a query from the current internal state.">
<polygon fill="white" stroke="#666666" points="330,-355 169,-355 169,-325 330,-325 330,-355"/>
<text text-anchor="start" x="177" y="-343" font-family="Helvetica,sans-Serif" font-size="10.00">netspeak::regex::RegexQuery</text>
<text text-anchor="middle" x="249.5" y="-332" font-family="Helvetica,sans-Serif" font-size="10.00">Builder::to_query</text>
</a>
</g>
</g>
<!-- Node1&#45;&gt;Node12 -->
<g id="edge16_Node000001_Node000012" class="edge">
<title>Node1&#45;&gt;Node12</title>
<g id="a_edge16_Node000001_Node000012"><a xlink:title=" ">
<path fill="none" stroke="#63b8ff" d="M85.71,-228.24C105.65,-244.67 138.82,-271.25 169,-292 183.06,-301.67 199.08,-311.54 213.04,-319.8"/>
<polygon fill="#63b8ff" stroke="#63b8ff" points="211.47,-322.94 221.87,-324.98 215.01,-316.9 211.47,-322.94"/>
</a>
</g>
</g>
<!-- Node3 -->
<g id="Node000003" class="node">
<title>Node3</title>
<g id="a_Node000003"><a xlink:href="namespacenetspeak_1_1regex.html#a7bcd9407eaeeaacfbdac4b3b53246bb8" target="_top" xlink:title=" ">
<polygon fill="white" stroke="#666666" points="534,-325.5 366,-325.5 366,-306.5 534,-306.5 534,-325.5"/>
<text text-anchor="middle" x="450" y="-313.5" font-family="Helvetica,sans-Serif" font-size="10.00">netspeak::regex::optimize_unit</text>
</a>
</g>
</g>
<!-- Node2&#45;&gt;Node3 -->
<g id="edge2_Node000002_Node000003" class="edge">
<title>Node2&#45;&gt;Node3</title>
<g id="a_edge2_Node000002_Node000003"><a xlink:title=" ">
<path fill="none" stroke="#63b8ff" d="M274.84,-207.2C313.02,-231.05 386.54,-276.98 424.69,-300.82"/>
<polygon fill="#63b8ff" stroke="#63b8ff" points="423.25,-304.04 433.59,-306.37 426.96,-298.11 423.25,-304.04"/>
</a>
</g>
</g>
<!-- Node2&#45;&gt;Node6 -->
<g id="edge9_Node000002_Node000006" class="edge">
<title>Node2&#45;&gt;Node6</title>
<g id="a_edge9_Node000002_Node000006"><a xlink:title=" ">
<path fill="none" stroke="#63b8ff" d="M330.11,-193.15C387.2,-194.99 465.76,-199.61 534,-211 551.69,-213.95 570.64,-218.53 587.79,-223.23"/>
<polygon fill="#63b8ff" stroke="#63b8ff" points="587.07,-226.66 597.65,-225.99 588.97,-219.92 587.07,-226.66"/>
</a>
</g>
</g>
<!-- Node7 -->
<g id="Node000007" class="node">
<title>Node7</title>
<g id="a_Node000007"><a xlink:href="namespacenetspeak_1_1regex.html#af699a70a2450bb3c60f6eb849b7e6176" target="_top" xlink:title="Removes all trailing optional words.">
<polygon fill="white" stroke="#666666" points="519.5,-164 380.5,-164 380.5,-134 519.5,-134 519.5,-164"/>
<text text-anchor="start" x="388.5" y="-152" font-family="Helvetica,sans-Serif" font-size="10.00">netspeak::regex::remove</text>
<text text-anchor="middle" x="450" y="-141" font-family="Helvetica,sans-Serif" font-size="10.00">_trailing_optional_words</text>
</a>
</g>
</g>
<!-- Node2&#45;&gt;Node7 -->
<g id="edge7_Node000002_Node000007" class="edge">
<title>Node2&#45;&gt;Node7</title>
<g id="a_edge7_Node000002_Node000007"><a xlink:title=" ">
<path fill="none" stroke="#63b8ff" d="M319.93,-176.96C336.13,-173.45 353.5,-169.69 370.08,-166.1"/>
<polygon fill="#63b8ff" stroke="#63b8ff" points="371.25,-169.42 380.28,-163.89 369.77,-162.58 371.25,-169.42"/>
</a>
</g>
</g>
<!-- Node3&#45;&gt;Node4 -->
<g id="edge3_Node000003_Node000004" class="edge">
<title>Node3&#45;&gt;Node4</title>
<g id="a_edge3_Node000003_Node000004"><a xlink:title=" ">
<path fill="none" stroke="#63b8ff" d="M492.81,-325.53C505.99,-328.54 520.61,-331.9 534,-335 546.02,-337.78 558.77,-340.75 571.18,-343.65"/>
<polygon fill="#63b8ff" stroke="#63b8ff" points="570.5,-347.09 581.03,-345.96 572.09,-340.27 570.5,-347.09"/>
</a>
</g>
</g>
<!-- Node5 -->
<g id="Node000005" class="node">
<title>Node5</title>
<g id="a_Node000005"><a xlink:href="namespacenetspeak_1_1regex.html#a330e12f037f1cfe62d8e2bd33d3fd1e7" target="_top" xlink:title="Returns a new string in which all duplicate characters of the given string are removed.">
<polygon fill="white" stroke="#666666" points="715,-328 577,-328 577,-298 715,-298 715,-328"/>
<text text-anchor="start" x="585" y="-316" font-family="Helvetica,sans-Serif" font-size="10.00">netspeak::regex::without</text>
<text text-anchor="middle" x="646" y="-305" font-family="Helvetica,sans-Serif" font-size="10.00">_duplicates</text>
</a>
</g>
</g>
<!-- Node3&#45;&gt;Node5 -->
<g id="edge4_Node000003_Node000005" class="edge">
<title>Node3&#45;&gt;Node5</title>
<g id="a_edge4_Node000003_Node000005"><a xlink:title=" ">
<path fill="none" stroke="#63b8ff" d="M534.12,-314.71C544.95,-314.55 556.02,-314.38 566.77,-314.21"/>
<polygon fill="#63b8ff" stroke="#63b8ff" points="567.01,-317.71 576.96,-314.05 566.91,-310.71 567.01,-317.71"/>
</a>
</g>
</g>
<!-- Node3&#45;&gt;Node6 -->
<g id="edge5_Node000003_Node000006" class="edge">
<title>Node3&#45;&gt;Node6</title>
<g id="a_edge5_Node000003_Node000006"><a xlink:title=" ">
<path fill="none" stroke="#63b8ff" d="M488.57,-306.42C502.94,-302.42 519.38,-297.44 534,-292 558.48,-282.9 585.09,-270.75 606.12,-260.6"/>
<polygon fill="#63b8ff" stroke="#63b8ff" points="607.91,-263.62 615.36,-256.09 604.84,-257.33 607.91,-263.62"/>
</a>
</g>
</g>
<!-- Node6&#45;&gt;Node6 -->
<g id="edge6_Node000006_Node000006" class="edge">
<title>Node6&#45;&gt;Node6</title>
<g id="a_edge6_Node000006_Node000006"><a xlink:title=" ">
<path fill="none" stroke="#63b8ff" d="M611.55,-256.28C603.89,-265.41 615.38,-274 646,-274 664.18,-274 675.62,-270.97 680.31,-266.6"/>
<polygon fill="#63b8ff" stroke="#63b8ff" points="683.81,-266.32 680.45,-256.28 676.81,-266.22 683.81,-266.32"/>
</a>
</g>
</g>
<!-- Node7&#45;&gt;Node8 -->
<g id="edge8_Node000007_Node000008" class="edge">
<title>Node7&#45;&gt;Node8</title>
<g id="a_edge8_Node000007_Node000008"><a xlink:title=" ">
<path fill="none" stroke="#63b8ff" d="M519.67,-141.57C532.61,-140.17 546.29,-138.68 559.67,-137.24"/>
<polygon fill="#63b8ff" stroke="#63b8ff" points="560.26,-140.69 569.83,-136.14 559.51,-133.73 560.26,-140.69"/>
</a>
</g>
</g>
<!-- Node9&#45;&gt;Node6 -->
<g id="edge12_Node000009_Node000006" class="edge">
<title>Node9&#45;&gt;Node6</title>
<g id="a_edge12_Node000009_Node000006"><a xlink:title=" ">
<path fill="none" stroke="#63b8ff" d="M526.01,-237.32C537.03,-237.66 548.45,-238.01 559.66,-238.36"/>
<polygon fill="#63b8ff" stroke="#63b8ff" points="559.77,-241.87 569.87,-238.68 559.99,-234.87 559.77,-241.87"/>
</a>
</g>
</g>
<!-- Node13 -->
<g id="Node000013" class="node">
<title>Node13</title>
<g id="a_Node000013"><a xlink:href="classnetspeak_1_1regex_1_1RegexQuery.html#a74390b07cc488876e518d35979f3f814" target="_top" xlink:title="Create a new RegexQuery that rejects all words.">
<polygon fill="white" stroke="#666666" points="530.5,-374 369.5,-374 369.5,-344 530.5,-344 530.5,-374"/>
<text text-anchor="start" x="377.5" y="-362" font-family="Helvetica,sans-Serif" font-size="10.00">netspeak::regex::RegexQuery</text>
<text text-anchor="middle" x="450" y="-351" font-family="Helvetica,sans-Serif" font-size="10.00">::create_reject_all</text>
</a>
</g>
</g>
<!-- Node12&#45;&gt;Node13 -->
<g id="edge17_Node000012_Node000013" class="edge">
<title>Node12&#45;&gt;Node13</title>
<g id="a_edge17_Node000012_Node000013"><a xlink:title=" ">
<path fill="none" stroke="#63b8ff" d="M330.09,-347.62C339.7,-348.54 349.56,-349.48 359.3,-350.41"/>
<polygon fill="#63b8ff" stroke="#63b8ff" points="359.1,-353.91 369.39,-351.38 359.77,-346.94 359.1,-353.91"/>
</a>
</g>
</g>
<!-- Node13&#45;&gt;Node4 -->
<g id="edge18_Node000013_Node000004" class="edge">
<title>Node13&#45;&gt;Node4</title>
<g id="a_edge18_Node000013_Node000004"><a xlink:title=" ">
<path fill="none" stroke="#63b8ff" d="M530.75,-359.82C540.37,-359.92 550.22,-360.02 559.91,-360.12"/>
<polygon fill="#63b8ff" stroke="#63b8ff" points="559.9,-363.62 569.93,-360.23 559.97,-356.62 559.9,-363.62"/>
</a>
</g>
</g>
</g>
</svg>
