<?xml version="1.0" encoding="UTF-8" standalone="no"?>
<!DOCTYPE svg PUBLIC "-//W3C//DTD SVG 1.1//EN"
 "http://www.w3.org/Graphics/SVG/1.1/DTD/svg11.dtd">
<!-- Generated by graphviz version 2.43.0 (0)
 -->
<!-- Title: netspeak::util::binomial Pages: 1 -->
<svg width="323pt" height="51pt"
 viewBox="0.00 0.00 323.00 50.50" xmlns="http://www.w3.org/2000/svg" xmlns:xlink="http://www.w3.org/1999/xlink">
<g id="graph0" class="graph" transform="scale(1 1) rotate(0) translate(4 46.5)">
<title>netspeak::util::binomial</title>
<!-- Node1 -->
<g id="Node000001" class="node">
<title>Node1</title>
<g id="a_Node000001"><a xlink:title=" ">
<polygon fill="#999999" stroke="#666666" points="315,-24.5 183,-24.5 183,-5.5 315,-5.5 315,-24.5"/>
<text text-anchor="middle" x="249" y="-12.5" font-family="Helvetica,sans-Serif" font-size="10.00">netspeak::util::binomial</text>
</a>
</g>
</g>
<!-- Node1&#45;&gt;Node1 -->
<g id="edge1_Node000001_Node000001" class="edge">
<title>Node1&#45;&gt;Node1</title>
<g id="a_edge1_Node000001_Node000001"><a xlink:title=" ">
<path fill="none" stroke="#63b8ff" d="M281.56,-32.95C280.63,-38.32 269.78,-42.5 249,-42.5 218.07,-42.5 209.13,-33.23 222.18,-24.58"/>
<polygon fill="#63b8ff" stroke="#63b8ff" points="284.36,-30.85 275.82,-24.58 278.59,-34.81 284.36,-30.85"/>
</a>
</g>
</g>
<!-- Node2 -->
<g id="Node000002" class="node">
<title>Node2</title>
<g id="a_Node000002"><a xlink:href="classnetspeak_1_1util_1_1ChainCutter.html#a326a100a5403dc100a506bb7e219e6a5" target="_top" xlink:title="Returns the number of unique segments that will be iterated through.">
<polygon fill="white" stroke="#666666" points="147,-30 0,-30 0,0 147,0 147,-30"/>
<text text-anchor="start" x="8" y="-18" font-family="Helvetica,sans-Serif" font-size="10.00">netspeak::util::ChainCutter</text>
<text text-anchor="middle" x="73.5" y="-7" font-family="Helvetica,sans-Serif" font-size="10.00">::size</text>
</a>
</g>
</g>
<!-- Node1&#45;&gt;Node2 -->
<g id="edge2_Node000001_Node000002" class="edge">
<title>Node1&#45;&gt;Node2</title>
<g id="a_edge2_Node000001_Node000002"><a xlink:title=" ">
<path fill="none" stroke="#63b8ff" d="M172.69,-15C164.25,-15 155.66,-15 147.24,-15"/>
<polygon fill="#63b8ff" stroke="#63b8ff" points="172.9,-18.5 182.9,-15 172.9,-11.5 172.9,-18.5"/>
</a>
</g>
</g>
</g>
</svg>
