<?xml version="1.0" encoding="UTF-8" standalone="no"?>
<!DOCTYPE svg PUBLIC "-//W3C//DTD SVG 1.1//EN"
 "http://www.w3.org/Graphics/SVG/1.1/DTD/svg11.dtd">
<!-- Generated by graphviz version 2.43.0 (0)
 -->
<!-- Title: netspeak::Dictionaries::read_from_file Pages: 1 -->
<svg width="459pt" height="124pt"
 viewBox="0.00 0.00 459.00 124.00" xmlns="http://www.w3.org/2000/svg" xmlns:xlink="http://www.w3.org/1999/xlink">
<g id="graph0" class="graph" transform="scale(1 1) rotate(0) translate(4 120)">
<title>netspeak::Dictionaries::read_from_file</title>
<!-- Node1 -->
<g id="Node000001" class="node">
<title>Node1</title>
<g id="a_Node000001"><a xlink:title=" ">
<polygon fill="#999999" stroke="#666666" points="126,-73 0,-73 0,-43 126,-43 126,-73"/>
<text text-anchor="start" x="8" y="-61" font-family="Helvetica,sans-Serif" font-size="10.00">netspeak::Dictionaries</text>
<text text-anchor="middle" x="63" y="-50" font-family="Helvetica,sans-Serif" font-size="10.00">::read_from_file</text>
</a>
</g>
</g>
<!-- Node2 -->
<g id="Node000002" class="node">
<title>Node2</title>
<g id="a_Node000002"><a xlink:href="namespacenetspeak_1_1error__message.html#a2a36ff57b354714213502a72e6d9d416" target="_top" xlink:title=" ">
<polygon fill="white" stroke="#666666" points="302,-116 162,-116 162,-86 302,-86 302,-116"/>
<text text-anchor="start" x="170" y="-104" font-family="Helvetica,sans-Serif" font-size="10.00">netspeak::error_message</text>
<text text-anchor="middle" x="232" y="-93" font-family="Helvetica,sans-Serif" font-size="10.00">::cannot_open</text>
</a>
</g>
</g>
<!-- Node1&#45;&gt;Node2 -->
<g id="edge1_Node000001_Node000002" class="edge">
<title>Node1&#45;&gt;Node2</title>
<g id="a_edge1_Node000001_Node000002"><a xlink:title=" ">
<path fill="none" stroke="#63b8ff" d="M122.41,-73.04C135.38,-76.38 149.23,-79.95 162.56,-83.38"/>
<polygon fill="#63b8ff" stroke="#63b8ff" points="162.07,-86.87 172.62,-85.97 163.81,-80.09 162.07,-86.87"/>
</a>
</g>
</g>
<!-- Node3 -->
<g id="Node000003" class="node">
<title>Node3</title>
<g id="a_Node000003"><a xlink:href="namespacenetspeak_1_1util.html#aad6c5a8708322dd600c23507cc2035f1" target="_top" xlink:title=" ">
<polygon fill="white" stroke="#666666" points="291,-67.5 173,-67.5 173,-48.5 291,-48.5 291,-67.5"/>
<text text-anchor="middle" x="232" y="-55.5" font-family="Helvetica,sans-Serif" font-size="10.00">netspeak::util::check</text>
</a>
</g>
</g>
<!-- Node1&#45;&gt;Node3 -->
<g id="edge2_Node000001_Node000003" class="edge">
<title>Node1&#45;&gt;Node3</title>
<g id="a_edge2_Node000001_Node000003"><a xlink:title=" ">
<path fill="none" stroke="#63b8ff" d="M126.18,-58C138.14,-58 150.72,-58 162.85,-58"/>
<polygon fill="#63b8ff" stroke="#63b8ff" points="162.91,-61.5 172.91,-58 162.91,-54.5 162.91,-61.5"/>
</a>
</g>
</g>
<!-- Node5 -->
<g id="Node000005" class="node">
<title>Node5</title>
<g id="a_Node000005"><a xlink:href="namespacenetspeak_1_1Dictionaries.html#a0d18bab44212fcfcf7ea95bfb731d64c" target="_top" xlink:title=" ">
<polygon fill="white" stroke="#666666" points="295,-30 169,-30 169,0 295,0 295,-30"/>
<text text-anchor="start" x="177" y="-18" font-family="Helvetica,sans-Serif" font-size="10.00">netspeak::Dictionaries</text>
<text text-anchor="middle" x="232" y="-7" font-family="Helvetica,sans-Serif" font-size="10.00">::parse_csv</text>
</a>
</g>
</g>
<!-- Node1&#45;&gt;Node5 -->
<g id="edge4_Node000001_Node000005" class="edge">
<title>Node1&#45;&gt;Node5</title>
<g id="a_edge4_Node000001_Node000005"><a xlink:title=" ">
<path fill="none" stroke="#63b8ff" d="M122.41,-42.96C135.38,-39.62 149.23,-36.05 162.56,-32.62"/>
<polygon fill="#63b8ff" stroke="#63b8ff" points="163.81,-35.91 172.62,-30.03 162.07,-29.13 163.81,-35.91"/>
</a>
</g>
</g>
<!-- Node4 -->
<g id="Node000004" class="node">
<title>Node4</title>
<g id="a_Node000004"><a xlink:href="namespacenetspeak_1_1util.html#a4c91ad572508b4021399ac7dddff574d" target="_top" xlink:title=" ">
<polygon fill="white" stroke="#666666" points="451,-67.5 338,-67.5 338,-48.5 451,-48.5 451,-67.5"/>
<text text-anchor="middle" x="394.5" y="-55.5" font-family="Helvetica,sans-Serif" font-size="10.00">netspeak::util::hash</text>
</a>
</g>
</g>
<!-- Node3&#45;&gt;Node4 -->
<g id="edge3_Node000003_Node000004" class="edge">
<title>Node3&#45;&gt;Node4</title>
<g id="a_edge3_Node000003_Node000004"><a xlink:title=" ">
<path fill="none" stroke="#63b8ff" d="M291.4,-58C303.23,-58 315.75,-58 327.82,-58"/>
<polygon fill="#63b8ff" stroke="#63b8ff" points="327.82,-61.5 337.82,-58 327.82,-54.5 327.82,-61.5"/>
</a>
</g>
</g>
</g>
</svg>
