<?xml version="1.0" encoding="UTF-8" standalone="no"?>
<!DOCTYPE svg PUBLIC "-//W3C//DTD SVG 1.1//EN"
 "http://www.w3.org/Graphics/SVG/1.1/DTD/svg11.dtd">
<!-- Generated by graphviz version 2.43.0 (0)
 -->
<!-- Title: netspeak::prune Pages: 1 -->
<svg width="461pt" height="134pt"
 viewBox="0.00 0.00 461.00 134.00" xmlns="http://www.w3.org/2000/svg" xmlns:xlink="http://www.w3.org/1999/xlink">
<g id="graph0" class="graph" transform="scale(1 1) rotate(0) translate(4 130)">
<title>netspeak::prune</title>
<!-- Node1 -->
<g id="Node000001" class="node">
<title>Node1</title>
<g id="a_Node000001"><a xlink:title=" ">
<polygon fill="#999999" stroke="#666666" points="95,-72.5 0,-72.5 0,-53.5 95,-53.5 95,-72.5"/>
<text text-anchor="middle" x="47.5" y="-60.5" font-family="Helvetica,sans-Serif" font-size="10.00">netspeak::prune</text>
</a>
</g>
</g>
<!-- Node2 -->
<g id="Node000002" class="node">
<title>Node2</title>
<g id="a_Node000002"><a xlink:href="classnetspeak_1_1model_1_1RawRefResult.html#a6f2f6c9a3bdf9fa2e03f93c6718911b6" target="_top" xlink:title="The phrase references of this result set sorted by frequency in descending order.">
<polygon fill="white" stroke="#666666" points="304,-126 131,-126 131,-96 304,-96 304,-126"/>
<text text-anchor="start" x="139" y="-114" font-family="Helvetica,sans-Serif" font-size="10.00">netspeak::model::RawRefResult</text>
<text text-anchor="middle" x="217.5" y="-103" font-family="Helvetica,sans-Serif" font-size="10.00">::refs</text>
</a>
</g>
</g>
<!-- Node1&#45;&gt;Node2 -->
<g id="edge1_Node000001_Node000002" class="edge">
<title>Node1&#45;&gt;Node2</title>
<g id="a_edge1_Node000001_Node000002"><a xlink:title=" ">
<path fill="none" stroke="#63b8ff" d="M81,-72.53C96.18,-76.96 114.51,-82.29 131,-87 138.03,-89.01 145.39,-91.1 152.72,-93.17"/>
<polygon fill="#63b8ff" stroke="#63b8ff" points="152.08,-96.63 162.66,-95.97 153.98,-89.89 152.08,-96.63"/>
</a>
</g>
</g>
<!-- Node3 -->
<g id="Node000003" class="node">
<title>Node3</title>
<g id="a_Node000003"><a xlink:href="classnetspeak_1_1model_1_1RawRefResult.html#adeb3d567620874295db354edef045627" target="_top" xlink:title=" ">
<polygon fill="white" stroke="#666666" points="304,-78 131,-78 131,-48 304,-48 304,-78"/>
<text text-anchor="start" x="139" y="-66" font-family="Helvetica,sans-Serif" font-size="10.00">netspeak::model::RawRefResult</text>
<text text-anchor="middle" x="217.5" y="-55" font-family="Helvetica,sans-Serif" font-size="10.00">::unknown_words</text>
</a>
</g>
</g>
<!-- Node1&#45;&gt;Node3 -->
<g id="edge2_Node000001_Node000003" class="edge">
<title>Node1&#45;&gt;Node3</title>
<g id="a_edge2_Node000001_Node000003"><a xlink:title=" ">
<path fill="none" stroke="#63b8ff" d="M95.3,-63C103.25,-63 111.77,-63 120.45,-63"/>
<polygon fill="#63b8ff" stroke="#63b8ff" points="120.71,-66.5 130.71,-63 120.71,-59.5 120.71,-66.5"/>
</a>
</g>
</g>
<!-- Node4 -->
<g id="Node000004" class="node">
<title>Node4</title>
<g id="a_Node000004"><a xlink:href="namespacenetspeak_1_1util.html#a3d1d03195f7667390b5f548a2b9f9869" target="_top" xlink:title="A simple function that appends all elements of other to base.">
<polygon fill="white" stroke="#666666" points="271,-30 164,-30 164,0 271,0 271,-30"/>
<text text-anchor="start" x="172" y="-18" font-family="Helvetica,sans-Serif" font-size="10.00">netspeak::util::vec</text>
<text text-anchor="middle" x="217.5" y="-7" font-family="Helvetica,sans-Serif" font-size="10.00">_append</text>
</a>
</g>
</g>
<!-- Node1&#45;&gt;Node4 -->
<g id="edge3_Node000001_Node000004" class="edge">
<title>Node1&#45;&gt;Node4</title>
<g id="a_edge3_Node000001_Node000004"><a xlink:title=" ">
<path fill="none" stroke="#63b8ff" d="M81,-53.47C96.18,-49.04 114.51,-43.71 131,-39 138.4,-36.88 146.17,-34.68 153.87,-32.51"/>
<polygon fill="#63b8ff" stroke="#63b8ff" points="154.9,-35.85 163.57,-29.77 153,-29.12 154.9,-35.85"/>
</a>
</g>
</g>
<!-- Node5 -->
<g id="Node000005" class="node">
<title>Node5</title>
<g id="a_Node000005"><a xlink:href="namespacenetspeak_1_1util.html#a4c91ad572508b4021399ac7dddff574d" target="_top" xlink:title=" ">
<polygon fill="white" stroke="#666666" points="453,-24.5 340,-24.5 340,-5.5 453,-5.5 453,-24.5"/>
<text text-anchor="middle" x="396.5" y="-12.5" font-family="Helvetica,sans-Serif" font-size="10.00">netspeak::util::hash</text>
</a>
</g>
</g>
<!-- Node4&#45;&gt;Node5 -->
<g id="edge4_Node000004_Node000005" class="edge">
<title>Node4&#45;&gt;Node5</title>
<g id="a_edge4_Node000004_Node000005"><a xlink:title=" ">
<path fill="none" stroke="#63b8ff" d="M271.13,-15C289.53,-15 310.41,-15 329.75,-15"/>
<polygon fill="#63b8ff" stroke="#63b8ff" points="330,-18.5 340,-15 330,-11.5 330,-18.5"/>
</a>
</g>
</g>
</g>
</svg>
