<?xml version="1.0" encoding="UTF-8" standalone="no"?>
<!DOCTYPE svg PUBLIC "-//W3C//DTD SVG 1.1//EN"
 "http://www.w3.org/Graphics/SVG/1.1/DTD/svg11.dtd">
<!-- Generated by graphviz version 2.43.0 (0)
 -->
<!-- Title: cli::print_error Pages: 1 -->
<svg width="799pt" height="176pt"
 viewBox="0.00 0.00 799.00 176.10" xmlns="http://www.w3.org/2000/svg" xmlns:xlink="http://www.w3.org/1999/xlink">
<g id="graph0" class="graph" transform="scale(1 1) rotate(0) translate(4 172.1)">
<title>cli::print_error</title>
<!-- Node1 -->
<g id="Node000001" class="node">
<title>Node1</title>
<g id="a_Node000001"><a xlink:title=" ">
<polygon fill="#999999" stroke="#666666" points="85,-84 0,-84 0,-65 85,-65 85,-84"/>
<text text-anchor="middle" x="42.5" y="-72" font-family="Helvetica,sans-Serif" font-size="10.00">cli::print_error</text>
</a>
</g>
</g>
<!-- Node2 -->
<g id="Node000002" class="node">
<title>Node2</title>
<g id="a_Node000002"><a xlink:href="namespacecli.html#a1fb203adc83f007fd2be352a32997a72" target="_top" xlink:title="Print a short help message that lists all available commands.">
<polygon fill="white" stroke="#666666" points="263,-84 121,-84 121,-65 263,-65 263,-84"/>
<text text-anchor="middle" x="192" y="-72" font-family="Helvetica,sans-Serif" font-size="10.00">cli::print_commands_help</text>
</a>
</g>
</g>
<!-- Node1&#45;&gt;Node2 -->
<g id="edge1_Node000001_Node000002" class="edge">
<title>Node1&#45;&gt;Node2</title>
<g id="a_edge1_Node000001_Node000002"><a xlink:title=" ">
<path fill="none" stroke="#63b8ff" d="M85.37,-74.5C93.33,-74.5 101.9,-74.5 110.6,-74.5"/>
<polygon fill="#63b8ff" stroke="#63b8ff" points="110.83,-78 120.83,-74.5 110.83,-71 110.83,-78"/>
</a>
</g>
</g>
<!-- Node3 -->
<g id="Node000003" class="node">
<title>Node3</title>
<g id="a_Node000003"><a xlink:href="namespacecli.html#a7a53f12676e9ac752c1fe8327f55fd34" target="_top" xlink:title=" ">
<polygon fill="white" stroke="#666666" points="416,-121 319,-121 319,-102 416,-102 416,-121"/>
<text text-anchor="middle" x="367.5" y="-109" font-family="Helvetica,sans-Serif" font-size="10.00">cli::get_first_line</text>
</a>
</g>
</g>
<!-- Node2&#45;&gt;Node3 -->
<g id="edge2_Node000002_Node000003" class="edge">
<title>Node2&#45;&gt;Node3</title>
<g id="a_edge2_Node000002_Node000003"><a xlink:title=" ">
<path fill="none" stroke="#63b8ff" d="M237.68,-84.03C260.26,-88.84 287.85,-94.73 311.7,-99.81"/>
<polygon fill="#63b8ff" stroke="#63b8ff" points="311.16,-103.28 321.67,-101.94 312.62,-96.43 311.16,-103.28"/>
</a>
</g>
</g>
<!-- Node4 -->
<g id="Node000004" class="node">
<title>Node4</title>
<g id="a_Node000004"><a xlink:href="namespacecli.html#afa35336b7c594c68eb850544a1ae6b41" target="_top" xlink:title=" ">
<polygon fill="white" stroke="#666666" points="436,-84 299,-84 299,-65 436,-65 436,-84"/>
<text text-anchor="middle" x="367.5" y="-72" font-family="Helvetica,sans-Serif" font-size="10.00">cli::print_command_help</text>
</a>
</g>
</g>
<!-- Node2&#45;&gt;Node4 -->
<g id="edge3_Node000002_Node000004" class="edge">
<title>Node2&#45;&gt;Node4</title>
<g id="a_edge3_Node000002_Node000004"><a xlink:title=" ">
<path fill="none" stroke="#63b8ff" d="M263.07,-74.5C271.59,-74.5 280.33,-74.5 288.94,-74.5"/>
<polygon fill="#63b8ff" stroke="#63b8ff" points="288.98,-78 298.98,-74.5 288.98,-71 288.98,-78"/>
</a>
</g>
</g>
<!-- Node10 -->
<g id="Node000010" class="node">
<title>Node10</title>
<g id="a_Node000010"><a xlink:href="namespacecli.html#a176ef3b1efb7c9ba45ff614d5ae0aacd" target="_top" xlink:title=" ">
<polygon fill="white" stroke="#666666" points="579.5,-19 498.5,-19 498.5,0 579.5,0 579.5,-19"/>
<text text-anchor="middle" x="539" y="-7" font-family="Helvetica,sans-Serif" font-size="10.00">cli::print_text</text>
</a>
</g>
</g>
<!-- Node2&#45;&gt;Node10 -->
<g id="edge12_Node000002_Node000010" class="edge">
<title>Node2&#45;&gt;Node10</title>
<g id="a_edge12_Node000002_Node000010"><a xlink:title=" ">
<path fill="none" stroke="#63b8ff" d="M243.54,-64.98C309.18,-52.61 423.07,-31.15 488.3,-18.86"/>
<polygon fill="#63b8ff" stroke="#63b8ff" points="489.16,-22.26 498.34,-16.97 487.86,-15.38 489.16,-22.26"/>
</a>
</g>
</g>
<!-- Node5 -->
<g id="Node000005" class="node">
<title>Node5</title>
<g id="a_Node000005"><a xlink:href="classcli_1_1Command.html#ad1d4b2459b72ddab8cec0279f576b7a0" target="_top" xlink:title=" ">
<polygon fill="white" stroke="#666666" points="773,-167 660,-167 660,-148 773,-148 773,-167"/>
<text text-anchor="middle" x="716.5" y="-155" font-family="Helvetica,sans-Serif" font-size="10.00">cli::Command::desc</text>
</a>
</g>
</g>
<!-- Node4&#45;&gt;Node5 -->
<g id="edge4_Node000004_Node000005" class="edge">
<title>Node4&#45;&gt;Node5</title>
<g id="a_edge4_Node000004_Node000005"><a xlink:title=" ">
<path fill="none" stroke="#63b8ff" d="M417,-84.09C423.69,-86.55 430.24,-89.64 436,-93.5 457.56,-107.96 449.1,-127.28 472,-139.5 526.69,-168.69 598.37,-170.4 649.77,-166.51"/>
<polygon fill="#63b8ff" stroke="#63b8ff" points="650.1,-169.99 659.77,-165.66 649.51,-163.02 650.1,-169.99"/>
</a>
</g>
</g>
<!-- Node6 -->
<g id="Node000006" class="node">
<title>Node6</title>
<g id="a_Node000006"><a xlink:href="namespacecli.html#a3aacc4bf1a67732a492a18bc25fcd211" target="_top" xlink:title=" ">
<polygon fill="white" stroke="#666666" points="595.5,-130 482.5,-130 482.5,-111 595.5,-111 595.5,-130"/>
<text text-anchor="middle" x="539" y="-118" font-family="Helvetica,sans-Serif" font-size="10.00">cli::get_option_desc</text>
</a>
</g>
</g>
<!-- Node4&#45;&gt;Node6 -->
<g id="edge5_Node000004_Node000006" class="edge">
<title>Node4&#45;&gt;Node6</title>
<g id="a_edge5_Node000004_Node000006"><a xlink:title=" ">
<path fill="none" stroke="#63b8ff" d="M403.62,-84.03C429.53,-91.06 464.99,-100.69 492.98,-108.28"/>
<polygon fill="#63b8ff" stroke="#63b8ff" points="492.36,-111.74 502.92,-110.98 494.19,-104.98 492.36,-111.74"/>
</a>
</g>
</g>
<!-- Node8 -->
<g id="Node000008" class="node">
<title>Node8</title>
<g id="a_Node000008"><a xlink:href="namespacecli.html#affe799d66dff4cf3b7872b5c76382a8d" target="_top" xlink:title=" ">
<polygon fill="white" stroke="#666666" points="606,-93 472,-93 472,-74 606,-74 606,-93"/>
<text text-anchor="middle" x="539" y="-81" font-family="Helvetica,sans-Serif" font-size="10.00">cli::get_option_identifier</text>
</a>
</g>
</g>
<!-- Node4&#45;&gt;Node8 -->
<g id="edge8_Node000004_Node000008" class="edge">
<title>Node4&#45;&gt;Node8</title>
<g id="a_edge8_Node000004_Node000008"><a xlink:title=" ">
<path fill="none" stroke="#63b8ff" d="M436.47,-78.11C444.78,-78.55 453.32,-79 461.75,-79.45"/>
<polygon fill="#63b8ff" stroke="#63b8ff" points="461.78,-82.96 471.95,-79.99 462.15,-75.97 461.78,-82.96"/>
</a>
</g>
</g>
<!-- Node9 -->
<g id="Node000009" class="node">
<title>Node9</title>
<g id="a_Node000009"><a xlink:href="classcli_1_1Command.html#a8dcc4261b4cdd458bd235f19eb604507" target="_top" xlink:title=" ">
<polygon fill="white" stroke="#666666" points="598,-56 480,-56 480,-37 598,-37 598,-56"/>
<text text-anchor="middle" x="539" y="-44" font-family="Helvetica,sans-Serif" font-size="10.00">cli::Command::name</text>
</a>
</g>
</g>
<!-- Node4&#45;&gt;Node9 -->
<g id="edge9_Node000004_Node000009" class="edge">
<title>Node4&#45;&gt;Node9</title>
<g id="a_edge9_Node000004_Node000009"><a xlink:title=" ">
<path fill="none" stroke="#63b8ff" d="M426.36,-64.94C440.54,-62.6 455.84,-60.07 470.44,-57.66"/>
<polygon fill="#63b8ff" stroke="#63b8ff" points="471.11,-61.1 480.4,-56.01 469.97,-54.19 471.11,-61.1"/>
</a>
</g>
</g>
<!-- Node4&#45;&gt;Node10 -->
<g id="edge10_Node000004_Node000010" class="edge">
<title>Node4&#45;&gt;Node10</title>
<g id="a_edge10_Node000004_Node000010"><a xlink:title=" ">
<path fill="none" stroke="#63b8ff" d="M387.2,-64.91C407.64,-54.68 441.56,-38.48 472,-27.5 477.51,-25.51 483.35,-23.62 489.18,-21.86"/>
<polygon fill="#63b8ff" stroke="#63b8ff" points="490.31,-25.18 498.94,-19.04 488.36,-18.46 490.31,-25.18"/>
</a>
</g>
</g>
<!-- Node6&#45;&gt;Node5 -->
<g id="edge7_Node000006_Node000005" class="edge">
<title>Node6&#45;&gt;Node5</title>
<g id="a_edge7_Node000006_Node000005"><a xlink:title=" ">
<path fill="none" stroke="#63b8ff" d="M585.2,-130.03C608.03,-134.84 635.95,-140.73 660.07,-145.81"/>
<polygon fill="#63b8ff" stroke="#63b8ff" points="659.65,-149.3 670.15,-147.94 661.09,-142.45 659.65,-149.3"/>
</a>
</g>
</g>
<!-- Node7 -->
<g id="Node000007" class="node">
<title>Node7</title>
<g id="a_Node000007"><a xlink:href="classcli_1_1Command.html#a384df28e8769751598c52346deebeb77" target="_top" xlink:title=" ">
<polygon fill="white" stroke="#666666" points="791,-130 642,-130 642,-111 791,-111 791,-130"/>
<text text-anchor="middle" x="716.5" y="-118" font-family="Helvetica,sans-Serif" font-size="10.00">cli::Command::add_options</text>
</a>
</g>
</g>
<!-- Node6&#45;&gt;Node7 -->
<g id="edge6_Node000006_Node000007" class="edge">
<title>Node6&#45;&gt;Node7</title>
<g id="a_edge6_Node000006_Node000007"><a xlink:title=" ">
<path fill="none" stroke="#63b8ff" d="M595.53,-120.5C606.98,-120.5 619.29,-120.5 631.5,-120.5"/>
<polygon fill="#63b8ff" stroke="#63b8ff" points="631.71,-124 641.71,-120.5 631.71,-117 631.71,-124"/>
</a>
</g>
</g>
<!-- Node11 -->
<g id="Node000011" class="node">
<title>Node11</title>
<g id="a_Node000011"><a xlink:href="namespacecli.html#a37b490d397c09cf994d962212b4a4f7a" target="_top" xlink:title=" ">
<polygon fill="white" stroke="#666666" points="756.5,-19 676.5,-19 676.5,0 756.5,0 756.5,-19"/>
<text text-anchor="middle" x="716.5" y="-7" font-family="Helvetica,sans-Serif" font-size="10.00">cli::print_line</text>
</a>
</g>
</g>
<!-- Node10&#45;&gt;Node11 -->
<g id="edge11_Node000010_Node000011" class="edge">
<title>Node10&#45;&gt;Node11</title>
<g id="a_edge11_Node000010_Node000011"><a xlink:title=" ">
<path fill="none" stroke="#63b8ff" d="M579.82,-9.5C605.47,-9.5 639,-9.5 666.31,-9.5"/>
<polygon fill="#63b8ff" stroke="#63b8ff" points="666.44,-13 676.44,-9.5 666.44,-6 666.44,-13"/>
</a>
</g>
</g>
</g>
</svg>
