<?xml version="1.0" encoding="UTF-8" standalone="no"?>
<!DOCTYPE svg PUBLIC "-//W3C//DTD SVG 1.1//EN"
 "http://www.w3.org/Graphics/SVG/1.1/DTD/svg11.dtd">
<!-- Generated by graphviz version 2.43.0 (0)
 -->
<!-- Title: cli::load_map_entry Pages: 1 -->
<svg width="793pt" height="76pt"
 viewBox="0.00 0.00 793.00 75.50" xmlns="http://www.w3.org/2000/svg" xmlns:xlink="http://www.w3.org/1999/xlink">
<g id="graph0" class="graph" transform="scale(1 1) rotate(0) translate(4 71.5)">
<title>cli::load_map_entry</title>
<!-- Node1 -->
<g id="Node000001" class="node">
<title>Node1</title>
<g id="a_Node000001"><a xlink:title=" ">
<polygon fill="#999999" stroke="#666666" points="113,-43 0,-43 0,-24 113,-24 113,-43"/>
<text text-anchor="middle" x="56.5" y="-31" font-family="Helvetica,sans-Serif" font-size="10.00">cli::load_map_entry</text>
</a>
</g>
</g>
<!-- Node2 -->
<g id="Node000002" class="node">
<title>Node2</title>
<g id="a_Node000002"><a xlink:href="classnetspeak_1_1Configuration.html#a3244253bdf9a9d68c88c5bcdea25db2a" target="_top" xlink:title=" ">
<polygon fill="white" stroke="#666666" points="282,-48.5 149,-48.5 149,-18.5 282,-18.5 282,-48.5"/>
<text text-anchor="start" x="157" y="-36.5" font-family="Helvetica,sans-Serif" font-size="10.00">netspeak::Configuration</text>
<text text-anchor="middle" x="215.5" y="-25.5" font-family="Helvetica,sans-Serif" font-size="10.00">::get_required</text>
</a>
</g>
</g>
<!-- Node1&#45;&gt;Node2 -->
<g id="edge1_Node000001_Node000002" class="edge">
<title>Node1&#45;&gt;Node2</title>
<g id="a_edge1_Node000001_Node000002"><a xlink:title=" ">
<path fill="none" stroke="#63b8ff" d="M113.29,-33.5C121.59,-33.5 130.26,-33.5 138.88,-33.5"/>
<polygon fill="#63b8ff" stroke="#63b8ff" points="138.96,-37 148.96,-33.5 138.96,-30 138.96,-37"/>
</a>
</g>
</g>
<!-- Node3 -->
<g id="Node000003" class="node">
<title>Node3</title>
<g id="a_Node000003"><a xlink:href="classnetspeak_1_1Configuration.html#aff9301d99209481a48c20c33a15de752" target="_top" xlink:title=" ">
<polygon fill="white" stroke="#666666" points="451,-48.5 318,-48.5 318,-18.5 451,-18.5 451,-48.5"/>
<text text-anchor="start" x="326" y="-36.5" font-family="Helvetica,sans-Serif" font-size="10.00">netspeak::Configuration</text>
<text text-anchor="middle" x="384.5" y="-25.5" font-family="Helvetica,sans-Serif" font-size="10.00">::get_optional</text>
</a>
</g>
</g>
<!-- Node2&#45;&gt;Node3 -->
<g id="edge2_Node000002_Node000003" class="edge">
<title>Node2&#45;&gt;Node3</title>
<g id="a_edge2_Node000002_Node000003"><a xlink:title=" ">
<path fill="none" stroke="#63b8ff" d="M282.02,-33.5C290.5,-33.5 299.23,-33.5 307.85,-33.5"/>
<polygon fill="#63b8ff" stroke="#63b8ff" points="307.89,-37 317.89,-33.5 307.89,-30 307.89,-37"/>
</a>
</g>
</g>
<!-- Node4 -->
<g id="Node000004" class="node">
<title>Node4</title>
<g id="a_Node000004"><a xlink:href="classnetspeak_1_1util_1_1Config.html#ab380dc04a08e5c65adfdc3b13aa27fad" target="_top" xlink:title=" ">
<polygon fill="white" stroke="#666666" points="785,-67.5 665,-67.5 665,-37.5 785,-37.5 785,-67.5"/>
<text text-anchor="start" x="673" y="-55.5" font-family="Helvetica,sans-Serif" font-size="10.00">netspeak::util::Config</text>
<text text-anchor="middle" x="725" y="-44.5" font-family="Helvetica,sans-Serif" font-size="10.00">::contains</text>
</a>
</g>
</g>
<!-- Node3&#45;&gt;Node4 -->
<g id="edge3_Node000003_Node000004" class="edge">
<title>Node3&#45;&gt;Node4</title>
<g id="a_edge3_Node000003_Node000004"><a xlink:title=" ">
<path fill="none" stroke="#63b8ff" d="M451.17,-37.19C509.69,-40.47 595.06,-45.26 654.67,-48.61"/>
<polygon fill="#63b8ff" stroke="#63b8ff" points="654.57,-52.11 664.75,-49.17 654.96,-45.12 654.57,-52.11"/>
</a>
</g>
</g>
<!-- Node5 -->
<g id="Node000005" class="node">
<title>Node5</title>
<g id="a_Node000005"><a xlink:href="classnetspeak_1_1util_1_1Config.html#a3664f30f248a879b1940df27a37f4f81" target="_top" xlink:title="Returns the value of the given key or the given default value if the key is not part of the config.">
<polygon fill="white" stroke="#666666" points="629,-24 487,-24 487,-5 629,-5 629,-24"/>
<text text-anchor="middle" x="558" y="-12" font-family="Helvetica,sans-Serif" font-size="10.00">netspeak::util::Config::get</text>
</a>
</g>
</g>
<!-- Node3&#45;&gt;Node5 -->
<g id="edge4_Node000003_Node000005" class="edge">
<title>Node3&#45;&gt;Node5</title>
<g id="a_edge4_Node000003_Node000005"><a xlink:title=" ">
<path fill="none" stroke="#63b8ff" d="M451.32,-26.21C459.67,-25.28 468.28,-24.33 476.83,-23.38"/>
<polygon fill="#63b8ff" stroke="#63b8ff" points="477.25,-26.86 486.8,-22.28 476.48,-19.9 477.25,-26.86"/>
</a>
</g>
</g>
<!-- Node5&#45;&gt;Node4 -->
<g id="edge5_Node000005_Node000004" class="edge">
<title>Node5&#45;&gt;Node4</title>
<g id="a_edge5_Node000005_Node000004"><a xlink:title=" ">
<path fill="none" stroke="#63b8ff" d="M600.64,-24.09C617.15,-27.89 636.57,-32.37 655.07,-36.62"/>
<polygon fill="#63b8ff" stroke="#63b8ff" points="654.4,-40.06 664.93,-38.9 655.97,-33.24 654.4,-40.06"/>
</a>
</g>
</g>
<!-- Node6 -->
<g id="Node000006" class="node">
<title>Node6</title>
<g id="a_Node000006"><a xlink:href="namespacenetspeak_1_1util.html#a4c91ad572508b4021399ac7dddff574d" target="_top" xlink:title=" ">
<polygon fill="white" stroke="#666666" points="781.5,-19 668.5,-19 668.5,0 781.5,0 781.5,-19"/>
<text text-anchor="middle" x="725" y="-7" font-family="Helvetica,sans-Serif" font-size="10.00">netspeak::util::hash</text>
</a>
</g>
</g>
<!-- Node5&#45;&gt;Node6 -->
<g id="edge6_Node000005_Node000006" class="edge">
<title>Node5&#45;&gt;Node6</title>
<g id="a_edge6_Node000005_Node000006"><a xlink:title=" ">
<path fill="none" stroke="#63b8ff" d="M629.45,-12.37C639.04,-12.07 648.84,-11.78 658.34,-11.49"/>
<polygon fill="#63b8ff" stroke="#63b8ff" points="658.61,-14.98 668.5,-11.18 658.39,-7.99 658.61,-14.98"/>
</a>
</g>
</g>
</g>
</svg>
