<?xml version="1.0" encoding="UTF-8" standalone="no"?>
<!DOCTYPE svg PUBLIC "-//W3C//DTD SVG 1.1//EN"
 "http://www.w3.org/Graphics/SVG/1.1/DTD/svg11.dtd">
<!-- Generated by graphviz version 2.43.0 (0)
 -->
<!-- Title: netspeak::util::__properties_format_impl::consume_delimiter Pages: 1 -->
<svg width="731pt" height="162pt"
 viewBox="0.00 0.00 731.00 162.00" xmlns="http://www.w3.org/2000/svg" xmlns:xlink="http://www.w3.org/1999/xlink">
<g id="graph0" class="graph" transform="scale(1 1) rotate(0) translate(4 158)">
<title>netspeak::util::__properties_format_impl::consume_delimiter</title>
<!-- Node1 -->
<g id="Node000001" class="node">
<title>Node1</title>
<g id="a_Node000001"><a xlink:title=" ">
<polygon fill="#999999" stroke="#666666" points="182,-92 0,-92 0,-62 182,-62 182,-92"/>
<text text-anchor="start" x="8" y="-80" font-family="Helvetica,sans-Serif" font-size="10.00">netspeak::util::__properties</text>
<text text-anchor="middle" x="91" y="-69" font-family="Helvetica,sans-Serif" font-size="10.00">_format_impl::consume_delimiter</text>
</a>
</g>
</g>
<!-- Node2 -->
<g id="Node000002" class="node">
<title>Node2</title>
<g id="a_Node000002"><a xlink:href="namespacenetspeak_1_1util_1_1____properties__format__impl.html#a7a52afc2a2c7f77e22813f03db4201f7" target="_top" xlink:title="Consumes any number of spaces and tabs.">
<polygon fill="white" stroke="#666666" points="389,-154 218,-154 218,-124 389,-124 389,-154"/>
<text text-anchor="start" x="226" y="-142" font-family="Helvetica,sans-Serif" font-size="10.00">netspeak::util::__properties</text>
<text text-anchor="middle" x="303.5" y="-131" font-family="Helvetica,sans-Serif" font-size="10.00">_format_impl::consume_spaces</text>
</a>
</g>
</g>
<!-- Node1&#45;&gt;Node2 -->
<g id="edge1_Node000001_Node000002" class="edge">
<title>Node1&#45;&gt;Node2</title>
<g id="a_edge1_Node000001_Node000002"><a xlink:title=" ">
<path fill="none" stroke="#63b8ff" d="M142.96,-92.01C172.6,-100.74 210.16,-111.8 241.39,-121"/>
<polygon fill="#63b8ff" stroke="#63b8ff" points="240.7,-124.45 251.28,-123.91 242.68,-117.73 240.7,-124.45"/>
</a>
</g>
</g>
<!-- Node3 -->
<g id="Node000003" class="node">
<title>Node3</title>
<g id="a_Node000003"><a xlink:href="namespacenetspeak_1_1util.html#a4c91ad572508b4021399ac7dddff574d" target="_top" xlink:title=" ">
<polygon fill="white" stroke="#666666" points="723,-88.5 610,-88.5 610,-69.5 723,-69.5 723,-88.5"/>
<text text-anchor="middle" x="666.5" y="-76.5" font-family="Helvetica,sans-Serif" font-size="10.00">netspeak::util::hash</text>
</a>
</g>
</g>
<!-- Node1&#45;&gt;Node3 -->
<g id="edge5_Node000001_Node000003" class="edge">
<title>Node1&#45;&gt;Node3</title>
<g id="a_edge5_Node000001_Node000003"><a xlink:title=" ">
<path fill="none" stroke="#63b8ff" d="M182.17,-76.41C279.01,-75.92 437.4,-75.51 574,-77 582.34,-77.09 591.1,-77.23 599.76,-77.39"/>
<polygon fill="#63b8ff" stroke="#63b8ff" points="599.79,-80.89 609.86,-77.59 599.93,-73.89 599.79,-80.89"/>
</a>
</g>
</g>
<!-- Node4 -->
<g id="Node000004" class="node">
<title>Node4</title>
<g id="a_Node000004"><a xlink:href="namespacenetspeak_1_1util_1_1____properties__format__impl.html#aa1caae33d5ecb274023b62bc9244f942" target="_top" xlink:title=" ">
<polygon fill="white" stroke="#666666" points="574,-116 425,-116 425,-86 574,-86 574,-116"/>
<text text-anchor="start" x="433" y="-104" font-family="Helvetica,sans-Serif" font-size="10.00">netspeak::util::__properties</text>
<text text-anchor="middle" x="499.5" y="-93" font-family="Helvetica,sans-Serif" font-size="10.00">_format_impl::is_space</text>
</a>
</g>
</g>
<!-- Node1&#45;&gt;Node4 -->
<g id="edge8_Node000001_Node000004" class="edge">
<title>Node1&#45;&gt;Node4</title>
<g id="a_edge8_Node000001_Node000004"><a xlink:title=" ">
<path fill="none" stroke="#63b8ff" d="M182.22,-82.33C251.63,-86.42 346.84,-92.05 414.61,-96.05"/>
<polygon fill="#63b8ff" stroke="#63b8ff" points="414.64,-99.55 424.83,-96.65 415.05,-92.57 414.64,-99.55"/>
</a>
</g>
</g>
<!-- Node5 -->
<g id="Node000005" class="node">
<title>Node5</title>
<g id="a_Node000005"><a xlink:href="namespacenetspeak_1_1util_1_1____properties__format__impl.html#a72f1b7f09e99f69f4169835c85f0a926" target="_top" xlink:title=" ">
<polygon fill="white" stroke="#666666" points="574,-30 425,-30 425,0 574,0 574,-30"/>
<text text-anchor="start" x="433" y="-18" font-family="Helvetica,sans-Serif" font-size="10.00">netspeak::util::__properties</text>
<text text-anchor="middle" x="499.5" y="-7" font-family="Helvetica,sans-Serif" font-size="10.00">_format_impl::is_delimiter</text>
</a>
</g>
</g>
<!-- Node1&#45;&gt;Node5 -->
<g id="edge6_Node000001_Node000005" class="edge">
<title>Node1&#45;&gt;Node5</title>
<g id="a_edge6_Node000001_Node000005"><a xlink:title=" ">
<path fill="none" stroke="#63b8ff" d="M142.19,-61.97C165.12,-55.59 192.75,-48.58 218,-44 283.53,-32.1 358.62,-24.66 414.61,-20.3"/>
<polygon fill="#63b8ff" stroke="#63b8ff" points="415.13,-23.77 424.83,-19.52 414.59,-16.79 415.13,-23.77"/>
</a>
</g>
</g>
<!-- Node2&#45;&gt;Node3 -->
<g id="edge2_Node000002_Node000003" class="edge">
<title>Node2&#45;&gt;Node3</title>
<g id="a_edge2_Node000002_Node000003"><a xlink:title=" ">
<path fill="none" stroke="#63b8ff" d="M389.04,-143.45C442.85,-144.13 513.54,-141.01 574,-125 598.74,-118.45 624.58,-104.73 642.46,-93.97"/>
<polygon fill="#63b8ff" stroke="#63b8ff" points="644.38,-96.9 651.04,-88.66 640.7,-90.94 644.38,-96.9"/>
</a>
</g>
</g>
<!-- Node2&#45;&gt;Node4 -->
<g id="edge3_Node000002_Node000004" class="edge">
<title>Node2&#45;&gt;Node4</title>
<g id="a_edge3_Node000002_Node000004"><a xlink:title=" ">
<path fill="none" stroke="#63b8ff" d="M381.17,-123.98C392.31,-121.8 403.83,-119.54 415.09,-117.34"/>
<polygon fill="#63b8ff" stroke="#63b8ff" points="415.77,-120.77 424.91,-115.41 414.43,-113.9 415.77,-120.77"/>
</a>
</g>
</g>
<!-- Node4&#45;&gt;Node3 -->
<g id="edge4_Node000004_Node000003" class="edge">
<title>Node4&#45;&gt;Node3</title>
<g id="a_edge4_Node000004_Node000003"><a xlink:title=" ">
<path fill="none" stroke="#63b8ff" d="M574.31,-91.16C582.73,-90.04 591.27,-88.9 599.58,-87.79"/>
<polygon fill="#63b8ff" stroke="#63b8ff" points="600.12,-91.25 609.57,-86.46 599.2,-84.31 600.12,-91.25"/>
</a>
</g>
</g>
<!-- Node5&#45;&gt;Node3 -->
<g id="edge7_Node000005_Node000003" class="edge">
<title>Node5&#45;&gt;Node3</title>
<g id="a_edge7_Node000005_Node000003"><a xlink:title=" ">
<path fill="none" stroke="#63b8ff" d="M539.19,-30.01C567.18,-40.86 604.66,-55.4 631.51,-65.81"/>
<polygon fill="#63b8ff" stroke="#63b8ff" points="630.29,-69.1 640.88,-69.45 632.82,-62.57 630.29,-69.1"/>
</a>
</g>
</g>
</g>
</svg>
