<?xml version="1.0" encoding="UTF-8" standalone="no"?>
<!DOCTYPE svg PUBLIC "-//W3C//DTD SVG 1.1//EN"
 "http://www.w3.org/Graphics/SVG/1.1/DTD/svg11.dtd">
<!-- Generated by graphviz version 2.43.0 (0)
 -->
<!-- Title: netspeak::util::to_string Pages: 1 -->
<svg width="676pt" height="475pt"
 viewBox="0.00 0.00 676.00 474.50" xmlns="http://www.w3.org/2000/svg" xmlns:xlink="http://www.w3.org/1999/xlink">
<g id="graph0" class="graph" transform="scale(1 1) rotate(0) translate(4 470.5)">
<title>netspeak::util::to_string</title>
<!-- Node1 -->
<g id="Node000001" class="node">
<title>Node1</title>
<g id="a_Node000001"><a xlink:title=" ">
<polygon fill="#999999" stroke="#666666" points="668,-306 569,-306 569,-276 668,-276 668,-306"/>
<text text-anchor="start" x="577" y="-294" font-family="Helvetica,sans-Serif" font-size="10.00">netspeak::util::to</text>
<text text-anchor="middle" x="618.5" y="-283" font-family="Helvetica,sans-Serif" font-size="10.00">_string</text>
</a>
</g>
</g>
<!-- Node2 -->
<g id="Node000002" class="node">
<title>Node2</title>
<g id="a_Node000002"><a xlink:href="namespacenetspeak.html#ad8a5358d2816942281cb8d9487834f9e" target="_top" xlink:title=" ">
<polygon fill="white" stroke="#666666" points="531.5,-466.5 381.5,-466.5 381.5,-447.5 531.5,-447.5 531.5,-466.5"/>
<text text-anchor="middle" x="456.5" y="-454.5" font-family="Helvetica,sans-Serif" font-size="10.00">netspeak::MergeDuplicates</text>
</a>
</g>
</g>
<!-- Node1&#45;&gt;Node2 -->
<g id="edge1_Node000001_Node000002" class="edge">
<title>Node1&#45;&gt;Node2</title>
<g id="a_edge1_Node000001_Node000002"><a xlink:title=" ">
<path fill="none" stroke="#63b8ff" d="M610,-315.96C598.75,-349.01 574.3,-406.74 533,-438 527.93,-441.83 522.18,-444.9 516.17,-447.35"/>
<polygon fill="#63b8ff" stroke="#63b8ff" points="613.42,-316.75 613.19,-306.16 606.76,-314.58 613.42,-316.75"/>
</a>
</g>
</g>
<!-- Node3 -->
<g id="Node000003" class="node">
<title>Node3</title>
<g id="a_Node000003"><a xlink:href="classnetspeak_1_1invertedindex_1_1StorageReader.html#abc68bcbfd21694b8f5ab27dfb22bd042" target="_top" xlink:title=" ">
<polygon fill="white" stroke="#666666" points="524,-429 389,-429 389,-399 524,-399 524,-429"/>
<text text-anchor="start" x="397" y="-417" font-family="Helvetica,sans-Serif" font-size="10.00">netspeak::invertedindex</text>
<text text-anchor="middle" x="456.5" y="-406" font-family="Helvetica,sans-Serif" font-size="10.00">::StorageReader::Open</text>
</a>
</g>
</g>
<!-- Node1&#45;&gt;Node3 -->
<g id="edge2_Node000001_Node000003" class="edge">
<title>Node1&#45;&gt;Node3</title>
<g id="a_edge2_Node000001_Node000003"><a xlink:title=" ">
<path fill="none" stroke="#63b8ff" d="M602.97,-314.65C588.03,-337.09 562.78,-370.23 533,-390 527.84,-393.42 522.17,-396.38 516.31,-398.94"/>
<polygon fill="#63b8ff" stroke="#63b8ff" points="606.04,-316.34 608.54,-306.05 600.16,-312.54 606.04,-316.34"/>
</a>
</g>
</g>
<!-- Node5 -->
<g id="Node000005" class="node">
<title>Node5</title>
<g id="a_Node000005"><a xlink:href="classnetspeak_1_1invertedindex_1_1Configuration.html#aee52c0a3330943fb04bdde748828d5a2" target="_top" xlink:title=" ">
<polygon fill="white" stroke="#666666" points="524,-381 389,-381 389,-351 524,-351 524,-381"/>
<text text-anchor="start" x="397" y="-369" font-family="Helvetica,sans-Serif" font-size="10.00">netspeak::invertedindex</text>
<text text-anchor="middle" x="456.5" y="-358" font-family="Helvetica,sans-Serif" font-size="10.00">::Configuration::print</text>
</a>
</g>
</g>
<!-- Node1&#45;&gt;Node5 -->
<g id="edge4_Node000001_Node000005" class="edge">
<title>Node1&#45;&gt;Node5</title>
<g id="a_edge4_Node000001_Node000005"><a xlink:title=" ">
<path fill="none" stroke="#63b8ff" d="M586.97,-311.82C571.32,-321.87 551.66,-333.55 533,-342 525.86,-345.24 518.15,-348.22 510.49,-350.9"/>
<polygon fill="#63b8ff" stroke="#63b8ff" points="589.23,-314.52 595.69,-306.13 585.4,-308.66 589.23,-314.52"/>
</a>
</g>
</g>
<!-- Node7 -->
<g id="Node000007" class="node">
<title>Node7</title>
<g id="a_Node000007"><a xlink:href="structnetspeak_1_1invertedindex_1_1Properties.html#a755129bd2d2a65e91851bb2e2a2e1d4a" target="_top" xlink:title=" ">
<polygon fill="white" stroke="#666666" points="524,-333 389,-333 389,-303 524,-303 524,-333"/>
<text text-anchor="start" x="397" y="-321" font-family="Helvetica,sans-Serif" font-size="10.00">netspeak::invertedindex</text>
<text text-anchor="middle" x="456.5" y="-310" font-family="Helvetica,sans-Serif" font-size="10.00">::Properties::print</text>
</a>
</g>
</g>
<!-- Node1&#45;&gt;Node7 -->
<g id="edge6_Node000001_Node000007" class="edge">
<title>Node1&#45;&gt;Node7</title>
<g id="a_edge6_Node000001_Node000007"><a xlink:title=" ">
<path fill="none" stroke="#63b8ff" d="M558.52,-300.95C547.3,-302.85 535.48,-304.84 524.05,-306.77"/>
<polygon fill="#63b8ff" stroke="#63b8ff" points="559.35,-304.36 568.63,-299.25 558.18,-297.46 559.35,-304.36"/>
</a>
</g>
</g>
<!-- Node9 -->
<g id="Node000009" class="node">
<title>Node9</title>
<g id="a_Node000009"><a xlink:href="classnetspeak_1_1RetrievalStrategy_3_01RetrievalStrategy3Tag_01_4.html#a40adbb6aae9b60a00693b5fe565f3425" target="_top" xlink:title=" ">
<polygon fill="white" stroke="#666666" points="533,-284.5 380,-284.5 380,-243.5 533,-243.5 533,-284.5"/>
<text text-anchor="start" x="388" y="-272.5" font-family="Helvetica,sans-Serif" font-size="10.00">netspeak::RetrievalStrategy</text>
<text text-anchor="start" x="388" y="-261.5" font-family="Helvetica,sans-Serif" font-size="10.00">&lt; RetrievalStrategy3Tag</text>
<text text-anchor="middle" x="456.5" y="-250.5" font-family="Helvetica,sans-Serif" font-size="10.00"> &gt;::properties</text>
</a>
</g>
</g>
<!-- Node1&#45;&gt;Node9 -->
<g id="edge8_Node000001_Node000009" class="edge">
<title>Node1&#45;&gt;Node9</title>
<g id="a_edge8_Node000001_Node000009"><a xlink:title=" ">
<path fill="none" stroke="#63b8ff" d="M558.69,-281.08C550.38,-279.67 541.75,-278.22 533.19,-276.77"/>
<polygon fill="#63b8ff" stroke="#63b8ff" points="558.18,-284.54 568.63,-282.75 559.35,-277.64 558.18,-284.54"/>
</a>
</g>
</g>
<!-- Node10 -->
<g id="Node000010" class="node">
<title>Node10</title>
<g id="a_Node000010"><a xlink:href="classnetspeak_1_1PhraseFileReader.html#a6e9b1d48e91229d97509fd248d5d45c8" target="_top" xlink:title=" ">
<polygon fill="white" stroke="#666666" points="532.5,-225 380.5,-225 380.5,-195 532.5,-195 532.5,-225"/>
<text text-anchor="start" x="388.5" y="-213" font-family="Helvetica,sans-Serif" font-size="10.00">netspeak::PhraseFileReader</text>
<text text-anchor="middle" x="456.5" y="-202" font-family="Helvetica,sans-Serif" font-size="10.00">::read</text>
</a>
</g>
</g>
<!-- Node1&#45;&gt;Node10 -->
<g id="edge9_Node000001_Node000010" class="edge">
<title>Node1&#45;&gt;Node10</title>
<g id="a_edge9_Node000001_Node000010"><a xlink:title=" ">
<path fill="none" stroke="#63b8ff" d="M589.58,-269.77C573.63,-258.35 552.9,-244.67 533,-235 525.43,-231.32 517.17,-227.97 509,-225.01"/>
<polygon fill="#63b8ff" stroke="#63b8ff" points="587.77,-272.78 597.91,-275.84 591.89,-267.12 587.77,-272.78"/>
</a>
</g>
</g>
<!-- Node11 -->
<g id="Node000011" class="node">
<title>Node11</title>
<g id="a_Node000011"><a xlink:href="classnetspeak_1_1invertedindex_1_1UnsortedInput.html#aa5262dcbf66a5e0cb722f0bec7775b62" target="_top" xlink:title=" ">
<polygon fill="white" stroke="#666666" points="524,-177 389,-177 389,-147 524,-147 524,-177"/>
<text text-anchor="start" x="397" y="-165" font-family="Helvetica,sans-Serif" font-size="10.00">netspeak::invertedindex</text>
<text text-anchor="middle" x="456.5" y="-154" font-family="Helvetica,sans-Serif" font-size="10.00">::UnsortedInput::rehash</text>
</a>
</g>
</g>
<!-- Node1&#45;&gt;Node11 -->
<g id="edge10_Node000001_Node000011" class="edge">
<title>Node1&#45;&gt;Node11</title>
<g id="a_edge10_Node000001_Node000011"><a xlink:title=" ">
<path fill="none" stroke="#63b8ff" d="M603.98,-267C589.39,-243.18 564.02,-207.24 533,-186 528.01,-182.58 522.5,-179.63 516.8,-177.08"/>
<polygon fill="#63b8ff" stroke="#63b8ff" points="601.08,-268.98 609.21,-275.78 607.1,-265.4 601.08,-268.98"/>
</a>
</g>
</g>
<!-- Node15 -->
<g id="Node000015" class="node">
<title>Node15</title>
<g id="a_Node000015"><a xlink:href="classnetspeak_1_1invertedindex_1_1StorageWriter.html#a84b8042112d8e747ea62522d157c2249" target="_top" xlink:title=" ">
<polygon fill="white" stroke="#666666" points="524,-129 389,-129 389,-99 524,-99 524,-129"/>
<text text-anchor="start" x="397" y="-117" font-family="Helvetica,sans-Serif" font-size="10.00">netspeak::invertedindex</text>
<text text-anchor="middle" x="456.5" y="-106" font-family="Helvetica,sans-Serif" font-size="10.00">::StorageWriter::write</text>
</a>
</g>
</g>
<!-- Node1&#45;&gt;Node15 -->
<g id="edge14_Node000001_Node000015" class="edge">
<title>Node1&#45;&gt;Node15</title>
<g id="a_edge14_Node000001_Node000015"><a xlink:title=" ">
<path fill="none" stroke="#63b8ff" d="M610.31,-266.37C599.2,-232.59 574.67,-172.18 533,-138 528.85,-134.6 524.22,-131.68 519.34,-129.17"/>
<polygon fill="#63b8ff" stroke="#63b8ff" points="606.98,-267.46 613.33,-275.94 613.66,-265.35 606.98,-267.46"/>
</a>
</g>
</g>
<!-- Node4 -->
<g id="Node000004" class="node">
<title>Node4</title>
<g id="a_Node000004"><a xlink:href="classnetspeak_1_1invertedindex_1_1StorageReader.html#a6bdbb90550e9d309ca3144be280e511d" target="_top" xlink:title=" ">
<polygon fill="white" stroke="#666666" points="344,-429 171,-429 171,-399 344,-399 344,-429"/>
<text text-anchor="start" x="179" y="-417" font-family="Helvetica,sans-Serif" font-size="10.00">netspeak::invertedindex</text>
<text text-anchor="middle" x="257.5" y="-406" font-family="Helvetica,sans-Serif" font-size="10.00">::StorageReader::StorageReader</text>
</a>
</g>
</g>
<!-- Node3&#45;&gt;Node4 -->
<g id="edge3_Node000003_Node000004" class="edge">
<title>Node3&#45;&gt;Node4</title>
<g id="a_edge3_Node000003_Node000004"><a xlink:title=" ">
<path fill="none" stroke="#63b8ff" d="M378.61,-414C367.37,-414 355.74,-414 344.33,-414"/>
<polygon fill="#63b8ff" stroke="#63b8ff" points="378.8,-417.5 388.8,-414 378.8,-410.5 378.8,-417.5"/>
</a>
</g>
</g>
<!-- Node6 -->
<g id="Node000006" class="node">
<title>Node6</title>
<g id="a_Node000006"><a xlink:href="namespacenetspeak_1_1invertedindex.html#a01e35405c3a7cd03509f1106eba6b3bc" target="_top" xlink:title=" ">
<polygon fill="white" stroke="#666666" points="325,-381 190,-381 190,-351 325,-351 325,-381"/>
<text text-anchor="start" x="198" y="-369" font-family="Helvetica,sans-Serif" font-size="10.00">netspeak::invertedindex</text>
<text text-anchor="middle" x="257.5" y="-358" font-family="Helvetica,sans-Serif" font-size="10.00">::operator&lt;&lt;</text>
</a>
</g>
</g>
<!-- Node5&#45;&gt;Node6 -->
<g id="edge5_Node000005_Node000006" class="edge">
<title>Node5&#45;&gt;Node6</title>
<g id="a_edge5_Node000005_Node000006"><a xlink:title=" ">
<path fill="none" stroke="#63b8ff" d="M378.55,-366C360.9,-366 342.29,-366 325.13,-366"/>
<polygon fill="#63b8ff" stroke="#63b8ff" points="378.8,-369.5 388.8,-366 378.8,-362.5 378.8,-369.5"/>
</a>
</g>
</g>
<!-- Node8 -->
<g id="Node000008" class="node">
<title>Node8</title>
<g id="a_Node000008"><a xlink:href="namespacenetspeak_1_1invertedindex.html#a0468d35e6211b7eb1d1cb67b07ea7635" target="_top" xlink:title=" ">
<polygon fill="white" stroke="#666666" points="325,-333 190,-333 190,-303 325,-303 325,-333"/>
<text text-anchor="start" x="198" y="-321" font-family="Helvetica,sans-Serif" font-size="10.00">netspeak::invertedindex</text>
<text text-anchor="middle" x="257.5" y="-310" font-family="Helvetica,sans-Serif" font-size="10.00">::operator&lt;&lt;</text>
</a>
</g>
</g>
<!-- Node7&#45;&gt;Node8 -->
<g id="edge7_Node000007_Node000008" class="edge">
<title>Node7&#45;&gt;Node8</title>
<g id="a_edge7_Node000007_Node000008"><a xlink:title=" ">
<path fill="none" stroke="#63b8ff" d="M378.55,-318C360.9,-318 342.29,-318 325.13,-318"/>
<polygon fill="#63b8ff" stroke="#63b8ff" points="378.8,-321.5 388.8,-318 378.8,-314.5 378.8,-321.5"/>
</a>
</g>
</g>
<!-- Node12 -->
<g id="Node000012" class="node">
<title>Node12</title>
<g id="a_Node000012"><a xlink:href="classnetspeak_1_1invertedindex_1_1UnsortedInput.html#abb4d4db8952dbc7771f13d7ea978ada7" target="_top" xlink:title=" ">
<polygon fill="white" stroke="#666666" points="325.5,-225 189.5,-225 189.5,-195 325.5,-195 325.5,-225"/>
<text text-anchor="start" x="197.5" y="-213" font-family="Helvetica,sans-Serif" font-size="10.00">netspeak::invertedindex</text>
<text text-anchor="middle" x="257.5" y="-202" font-family="Helvetica,sans-Serif" font-size="10.00">::UnsortedInput::rehash_</text>
</a>
</g>
</g>
<!-- Node11&#45;&gt;Node12 -->
<g id="edge11_Node000011_Node000012" class="edge">
<title>Node11&#45;&gt;Node12</title>
<g id="a_edge11_Node000011_Node000012"><a xlink:title=" ">
<path fill="none" stroke="#63b8ff" d="M383.92,-179.44C362.99,-184.54 340.32,-190.07 320.07,-195"/>
<polygon fill="#63b8ff" stroke="#63b8ff" points="384.82,-182.82 393.71,-177.06 383.16,-176.02 384.82,-182.82"/>
</a>
</g>
</g>
<!-- Node14 -->
<g id="Node000014" class="node">
<title>Node14</title>
<g id="a_Node000014"><a xlink:href="classnetspeak_1_1invertedindex_1_1UnsortedInput.html#a08ef9014c5622dbb729cf8c12ffc92fc" target="_top" xlink:title=" ">
<polygon fill="white" stroke="#666666" points="341,-177 174,-177 174,-147 341,-147 341,-177"/>
<text text-anchor="start" x="182" y="-165" font-family="Helvetica,sans-Serif" font-size="10.00">netspeak::invertedindex</text>
<text text-anchor="middle" x="257.5" y="-154" font-family="Helvetica,sans-Serif" font-size="10.00">::UnsortedInput::UnsortedInput</text>
</a>
</g>
</g>
<!-- Node11&#45;&gt;Node14 -->
<g id="edge13_Node000011_Node000014" class="edge">
<title>Node11&#45;&gt;Node14</title>
<g id="a_edge13_Node000011_Node000014"><a xlink:title=" ">
<path fill="none" stroke="#63b8ff" d="M378.62,-162C366.35,-162 353.6,-162 341.2,-162"/>
<polygon fill="#63b8ff" stroke="#63b8ff" points="378.8,-165.5 388.8,-162 378.8,-158.5 378.8,-165.5"/>
</a>
</g>
</g>
<!-- Node13 -->
<g id="Node000013" class="node">
<title>Node13</title>
<g id="a_Node000013"><a xlink:href="classnetspeak_1_1invertedindex_1_1UnsortedInput.html#a14d1dabae0597d0f84e11d9f97eda34e" target="_top" xlink:title=" ">
<polygon fill="white" stroke="#666666" points="135,-225 0,-225 0,-195 135,-195 135,-225"/>
<text text-anchor="start" x="8" y="-213" font-family="Helvetica,sans-Serif" font-size="10.00">netspeak::invertedindex</text>
<text text-anchor="middle" x="67.5" y="-202" font-family="Helvetica,sans-Serif" font-size="10.00">::UnsortedInput::insert_</text>
</a>
</g>
</g>
<!-- Node12&#45;&gt;Node13 -->
<g id="edge12_Node000012_Node000013" class="edge">
<title>Node12&#45;&gt;Node13</title>
<g id="a_edge12_Node000012_Node000013"><a xlink:title=" ">
<path fill="none" stroke="#63b8ff" d="M179.39,-210C164.74,-210 149.53,-210 135.23,-210"/>
<polygon fill="#63b8ff" stroke="#63b8ff" points="179.42,-213.5 189.42,-210 179.42,-206.5 179.42,-213.5"/>
</a>
</g>
</g>
<!-- Node16 -->
<g id="Node000016" class="node">
<title>Node16</title>
<g id="a_Node000016"><a xlink:href="classnetspeak_1_1invertedindex_1_1UnsortedInput.html#a7e52c2f2d76a1897a5ec1ebf05744dbb" target="_top" xlink:title=" ">
<polygon fill="white" stroke="#666666" points="325,-129 190,-129 190,-99 325,-99 325,-129"/>
<text text-anchor="start" x="198" y="-117" font-family="Helvetica,sans-Serif" font-size="10.00">netspeak::invertedindex</text>
<text text-anchor="middle" x="257.5" y="-106" font-family="Helvetica,sans-Serif" font-size="10.00">::UnsortedInput::store</text>
</a>
</g>
</g>
<!-- Node15&#45;&gt;Node16 -->
<g id="edge15_Node000015_Node000016" class="edge">
<title>Node15&#45;&gt;Node16</title>
<g id="a_edge15_Node000015_Node000016"><a xlink:title=" ">
<path fill="none" stroke="#63b8ff" d="M378.55,-114C360.9,-114 342.29,-114 325.13,-114"/>
<polygon fill="#63b8ff" stroke="#63b8ff" points="378.8,-117.5 388.8,-114 378.8,-110.5 378.8,-117.5"/>
</a>
</g>
</g>
<!-- Node18 -->
<g id="Node000018" class="node">
<title>Node18</title>
<g id="a_Node000018"><a xlink:href="classnetspeak_1_1invertedindex_1_1SortedInput.html#a7a0960a0a573256e0887b29e8650a799" target="_top" xlink:title=" ">
<polygon fill="white" stroke="#666666" points="332,-80.5 183,-80.5 183,-39.5 332,-39.5 332,-80.5"/>
<text text-anchor="start" x="191" y="-68.5" font-family="Helvetica,sans-Serif" font-size="10.00">netspeak::invertedindex</text>
<text text-anchor="start" x="191" y="-57.5" font-family="Helvetica,sans-Serif" font-size="10.00">::SortedInput::write_current</text>
<text text-anchor="middle" x="257.5" y="-46.5" font-family="Helvetica,sans-Serif" font-size="10.00">_postlist_</text>
</a>
</g>
</g>
<!-- Node15&#45;&gt;Node18 -->
<g id="edge17_Node000015_Node000018" class="edge">
<title>Node15&#45;&gt;Node18</title>
<g id="a_edge17_Node000015_Node000018"><a xlink:title=" ">
<path fill="none" stroke="#63b8ff" d="M390.73,-96.25C372.01,-91.12 351.45,-85.48 332.23,-80.21"/>
<polygon fill="#63b8ff" stroke="#63b8ff" points="390.05,-99.69 400.62,-98.96 391.91,-92.94 390.05,-99.69"/>
</a>
</g>
</g>
<!-- Node17 -->
<g id="Node000017" class="node">
<title>Node17</title>
<g id="a_Node000017"><a xlink:href="classnetspeak_1_1invertedindex_1_1UnsortedInput.html#a3bf52078c65c198e542a3e16d42eff20" target="_top" xlink:title=" ">
<polygon fill="white" stroke="#666666" points="135,-129 0,-129 0,-99 135,-99 135,-129"/>
<text text-anchor="start" x="8" y="-117" font-family="Helvetica,sans-Serif" font-size="10.00">netspeak::invertedindex</text>
<text text-anchor="middle" x="67.5" y="-106" font-family="Helvetica,sans-Serif" font-size="10.00">::UnsortedInput::index</text>
</a>
</g>
</g>
<!-- Node16&#45;&gt;Node17 -->
<g id="edge16_Node000016_Node000017" class="edge">
<title>Node16&#45;&gt;Node17</title>
<g id="a_edge16_Node000016_Node000017"><a xlink:title=" ">
<path fill="none" stroke="#63b8ff" d="M179.84,-114C165.07,-114 149.7,-114 135.27,-114"/>
<polygon fill="#63b8ff" stroke="#63b8ff" points="179.95,-117.5 189.95,-114 179.95,-110.5 179.95,-117.5"/>
</a>
</g>
</g>
<!-- Node19 -->
<g id="Node000019" class="node">
<title>Node19</title>
<g id="a_Node000019"><a xlink:href="classnetspeak_1_1invertedindex_1_1SortedInput.html#ae3183e635b4fa91c0b855773b95ce99c" target="_top" xlink:title=" ">
<polygon fill="white" stroke="#666666" points="135,-78 0,-78 0,-48 135,-48 135,-78"/>
<text text-anchor="start" x="8" y="-66" font-family="Helvetica,sans-Serif" font-size="10.00">netspeak::invertedindex</text>
<text text-anchor="middle" x="67.5" y="-55" font-family="Helvetica,sans-Serif" font-size="10.00">::SortedInput::index</text>
</a>
</g>
</g>
<!-- Node18&#45;&gt;Node19 -->
<g id="edge18_Node000018_Node000019" class="edge">
<title>Node18&#45;&gt;Node19</title>
<g id="a_edge18_Node000018_Node000019"><a xlink:title=" ">
<path fill="none" stroke="#63b8ff" d="M172.69,-61.34C160.07,-61.54 147.21,-61.74 135.02,-61.94"/>
<polygon fill="#63b8ff" stroke="#63b8ff" points="172.79,-64.84 182.74,-61.18 172.68,-57.84 172.79,-64.84"/>
</a>
</g>
</g>
<!-- Node20 -->
<g id="Node000020" class="node">
<title>Node20</title>
<g id="a_Node000020"><a xlink:href="classnetspeak_1_1invertedindex_1_1SortedInput.html#a6aff15206149d6721ea2bbd44a1aebd6" target="_top" xlink:title=" ">
<polygon fill="white" stroke="#666666" points="135,-30 0,-30 0,0 135,0 135,-30"/>
<text text-anchor="start" x="8" y="-18" font-family="Helvetica,sans-Serif" font-size="10.00">netspeak::invertedindex</text>
<text text-anchor="middle" x="67.5" y="-7" font-family="Helvetica,sans-Serif" font-size="10.00">::SortedInput::insert_</text>
</a>
</g>
</g>
<!-- Node18&#45;&gt;Node20 -->
<g id="edge19_Node000018_Node000020" class="edge">
<title>Node18&#45;&gt;Node20</title>
<g id="a_edge19_Node000018_Node000020"><a xlink:title=" ">
<path fill="none" stroke="#63b8ff" d="M172.7,-39.94C158.83,-36.62 144.65,-33.23 131.4,-30.06"/>
<polygon fill="#63b8ff" stroke="#63b8ff" points="172.2,-43.42 182.74,-42.34 173.83,-36.61 172.2,-43.42"/>
</a>
</g>
</g>
</g>
</svg>
