<?xml version="1.0" encoding="UTF-8" standalone="no"?>
<!DOCTYPE svg PUBLIC "-//W3C//DTD SVG 1.1//EN"
 "http://www.w3.org/Graphics/SVG/1.1/DTD/svg11.dtd">
<!-- Generated by graphviz version 2.43.0 (0)
 -->
<!-- Title: netspeak::util::tmpdir Pages: 1 -->
<svg width="504pt" height="86pt"
 viewBox="0.00 0.00 504.00 86.00" xmlns="http://www.w3.org/2000/svg" xmlns:xlink="http://www.w3.org/1999/xlink">
<g id="graph0" class="graph" transform="scale(1 1) rotate(0) translate(4 82)">
<title>netspeak::util::tmpdir</title>
<!-- Node1 -->
<g id="Node000001" class="node">
<title>Node1</title>
<g id="a_Node000001"><a xlink:title=" ">
<polygon fill="#999999" stroke="#666666" points="496,-48.5 374,-48.5 374,-29.5 496,-29.5 496,-48.5"/>
<text text-anchor="middle" x="435" y="-36.5" font-family="Helvetica,sans-Serif" font-size="10.00">netspeak::util::tmpdir</text>
</a>
</g>
</g>
<!-- Node1&#45;&gt;Node1 -->
<g id="edge3_Node000001_Node000001" class="edge">
<title>Node1&#45;&gt;Node1</title>
<g id="a_edge3_Node000001_Node000001"><a xlink:title=" ">
<path fill="none" stroke="#63b8ff" d="M468.68,-56.95C467.72,-62.32 456.49,-66.5 435,-66.5 403.01,-66.5 393.76,-57.23 407.26,-48.58"/>
<polygon fill="#63b8ff" stroke="#63b8ff" points="471.39,-54.71 462.74,-48.58 465.68,-58.76 471.39,-54.71"/>
</a>
</g>
</g>
<!-- Node2 -->
<g id="Node000002" class="node">
<title>Node2</title>
<g id="a_Node000002"><a xlink:href="classnetspeak_1_1invertedindex_1_1UnsortedInput.html#abb4d4db8952dbc7771f13d7ea978ada7" target="_top" xlink:title=" ">
<polygon fill="white" stroke="#666666" points="322.5,-78 186.5,-78 186.5,-48 322.5,-48 322.5,-78"/>
<text text-anchor="start" x="194.5" y="-66" font-family="Helvetica,sans-Serif" font-size="10.00">netspeak::invertedindex</text>
<text text-anchor="middle" x="254.5" y="-55" font-family="Helvetica,sans-Serif" font-size="10.00">::UnsortedInput::rehash_</text>
</a>
</g>
</g>
<!-- Node1&#45;&gt;Node2 -->
<g id="edge1_Node000001_Node000002" class="edge">
<title>Node1&#45;&gt;Node2</title>
<g id="a_edge1_Node000001_Node000002"><a xlink:title=" ">
<path fill="none" stroke="#63b8ff" d="M363.43,-48.49C349.98,-50.3 335.95,-52.18 322.62,-53.98"/>
<polygon fill="#63b8ff" stroke="#63b8ff" points="364.12,-51.93 373.57,-47.13 363.19,-44.99 364.12,-51.93"/>
</a>
</g>
</g>
<!-- Node4 -->
<g id="Node000004" class="node">
<title>Node4</title>
<g id="a_Node000004"><a xlink:href="classnetspeak_1_1invertedindex_1_1UnsortedInput.html#a08ef9014c5622dbb729cf8c12ffc92fc" target="_top" xlink:title=" ">
<polygon fill="white" stroke="#666666" points="338,-30 171,-30 171,0 338,0 338,-30"/>
<text text-anchor="start" x="179" y="-18" font-family="Helvetica,sans-Serif" font-size="10.00">netspeak::invertedindex</text>
<text text-anchor="middle" x="254.5" y="-7" font-family="Helvetica,sans-Serif" font-size="10.00">::UnsortedInput::UnsortedInput</text>
</a>
</g>
</g>
<!-- Node1&#45;&gt;Node4 -->
<g id="edge4_Node000001_Node000004" class="edge">
<title>Node1&#45;&gt;Node4</title>
<g id="a_edge4_Node000001_Node000004"><a xlink:title=" ">
<path fill="none" stroke="#63b8ff" d="M363.5,-29.52C355.14,-28.4 346.54,-27.24 338.03,-26.1"/>
<polygon fill="#63b8ff" stroke="#63b8ff" points="363.19,-33.01 373.57,-30.87 364.12,-26.07 363.19,-33.01"/>
</a>
</g>
</g>
<!-- Node3 -->
<g id="Node000003" class="node">
<title>Node3</title>
<g id="a_Node000003"><a xlink:href="classnetspeak_1_1invertedindex_1_1UnsortedInput.html#a14d1dabae0597d0f84e11d9f97eda34e" target="_top" xlink:title=" ">
<polygon fill="white" stroke="#666666" points="135,-78 0,-78 0,-48 135,-48 135,-78"/>
<text text-anchor="start" x="8" y="-66" font-family="Helvetica,sans-Serif" font-size="10.00">netspeak::invertedindex</text>
<text text-anchor="middle" x="67.5" y="-55" font-family="Helvetica,sans-Serif" font-size="10.00">::UnsortedInput::insert_</text>
</a>
</g>
</g>
<!-- Node2&#45;&gt;Node3 -->
<g id="edge2_Node000002_Node000003" class="edge">
<title>Node2&#45;&gt;Node3</title>
<g id="a_edge2_Node000002_Node000003"><a xlink:title=" ">
<path fill="none" stroke="#63b8ff" d="M176.11,-63C162.45,-63 148.34,-63 135.01,-63"/>
<polygon fill="#63b8ff" stroke="#63b8ff" points="176.45,-66.5 186.45,-63 176.45,-59.5 176.45,-66.5"/>
</a>
</g>
</g>
</g>
</svg>
