<?xml version="1.0" encoding="UTF-8" standalone="no"?>
<!DOCTYPE svg PUBLIC "-//W3C//DTD SVG 1.1//EN"
 "http://www.w3.org/Graphics/SVG/1.1/DTD/svg11.dtd">
<!-- Generated by graphviz version 2.43.0 (0)
 -->
<!-- Title: netspeak::invertedindex::operator&lt;&lt; Pages: 1 -->
<svg width="634pt" height="86pt"
 viewBox="0.00 0.00 634.00 86.00" xmlns="http://www.w3.org/2000/svg" xmlns:xlink="http://www.w3.org/1999/xlink">
<g id="graph0" class="graph" transform="scale(1 1) rotate(0) translate(4 82)">
<title>netspeak::invertedindex::operator&lt;&lt;</title>
<!-- Node1 -->
<g id="Node000001" class="node">
<title>Node1</title>
<g id="a_Node000001"><a xlink:title=" ">
<polygon fill="#999999" stroke="#666666" points="135,-54 0,-54 0,-24 135,-24 135,-54"/>
<text text-anchor="start" x="8" y="-42" font-family="Helvetica,sans-Serif" font-size="10.00">netspeak::invertedindex</text>
<text text-anchor="middle" x="67.5" y="-31" font-family="Helvetica,sans-Serif" font-size="10.00">::operator&lt;&lt;</text>
</a>
</g>
</g>
<!-- Node2 -->
<g id="Node000002" class="node">
<title>Node2</title>
<g id="a_Node000002"><a xlink:href="classnetspeak_1_1invertedindex_1_1Configuration.html#aee52c0a3330943fb04bdde748828d5a2" target="_top" xlink:title=" ">
<polygon fill="white" stroke="#666666" points="306,-54 171,-54 171,-24 306,-24 306,-54"/>
<text text-anchor="start" x="179" y="-42" font-family="Helvetica,sans-Serif" font-size="10.00">netspeak::invertedindex</text>
<text text-anchor="middle" x="238.5" y="-31" font-family="Helvetica,sans-Serif" font-size="10.00">::Configuration::print</text>
</a>
</g>
</g>
<!-- Node1&#45;&gt;Node2 -->
<g id="edge1_Node000001_Node000002" class="edge">
<title>Node1&#45;&gt;Node2</title>
<g id="a_edge1_Node000001_Node000002"><a xlink:title=" ">
<path fill="none" stroke="#63b8ff" d="M135.29,-39C143.62,-39 152.19,-39 160.66,-39"/>
<polygon fill="#63b8ff" stroke="#63b8ff" points="160.92,-42.5 170.92,-39 160.92,-35.5 160.92,-42.5"/>
</a>
</g>
</g>
<!-- Node3 -->
<g id="Node000003" class="node">
<title>Node3</title>
<g id="a_Node000003"><a xlink:href="namespacenetspeak_1_1invertedindex.html#aa1f26a090b429663fc0ef19fc83ef92c" target="_top" xlink:title=" ">
<polygon fill="white" stroke="#666666" points="477,-78 342,-78 342,-48 477,-48 477,-78"/>
<text text-anchor="start" x="350" y="-66" font-family="Helvetica,sans-Serif" font-size="10.00">netspeak::invertedindex</text>
<text text-anchor="middle" x="409.5" y="-55" font-family="Helvetica,sans-Serif" font-size="10.00">::to_string</text>
</a>
</g>
</g>
<!-- Node2&#45;&gt;Node3 -->
<g id="edge2_Node000002_Node000003" class="edge">
<title>Node2&#45;&gt;Node3</title>
<g id="a_edge2_Node000002_Node000003"><a xlink:title=" ">
<path fill="none" stroke="#63b8ff" d="M306.29,-48.49C314.72,-49.68 323.38,-50.91 331.94,-52.13"/>
<polygon fill="#63b8ff" stroke="#63b8ff" points="331.52,-55.6 341.92,-53.54 332.51,-48.67 331.52,-55.6"/>
</a>
</g>
</g>
<!-- Node4 -->
<g id="Node000004" class="node">
<title>Node4</title>
<g id="a_Node000004"><a xlink:href="namespacenetspeak_1_1util.html#ac8b0cdf55599b33fd7d4013948d48f43" target="_top" xlink:title=" ">
<polygon fill="white" stroke="#666666" points="459,-30 360,-30 360,0 459,0 459,-30"/>
<text text-anchor="start" x="368" y="-18" font-family="Helvetica,sans-Serif" font-size="10.00">netspeak::util::to</text>
<text text-anchor="middle" x="409.5" y="-7" font-family="Helvetica,sans-Serif" font-size="10.00">_string</text>
</a>
</g>
</g>
<!-- Node2&#45;&gt;Node4 -->
<g id="edge3_Node000002_Node000004" class="edge">
<title>Node2&#45;&gt;Node4</title>
<g id="a_edge3_Node000002_Node000004"><a xlink:title=" ">
<path fill="none" stroke="#63b8ff" d="M306.29,-29.51C320.7,-27.47 335.82,-25.32 349.88,-23.32"/>
<polygon fill="#63b8ff" stroke="#63b8ff" points="350.5,-26.77 359.91,-21.9 349.52,-19.84 350.5,-26.77"/>
</a>
</g>
</g>
<!-- Node5 -->
<g id="Node000005" class="node">
<title>Node5</title>
<g id="a_Node000005"><a xlink:href="namespacenetspeak_1_1util.html#a4c91ad572508b4021399ac7dddff574d" target="_top" xlink:title=" ">
<polygon fill="white" stroke="#666666" points="626,-24.5 513,-24.5 513,-5.5 626,-5.5 626,-24.5"/>
<text text-anchor="middle" x="569.5" y="-12.5" font-family="Helvetica,sans-Serif" font-size="10.00">netspeak::util::hash</text>
</a>
</g>
</g>
<!-- Node4&#45;&gt;Node5 -->
<g id="edge4_Node000004_Node000005" class="edge">
<title>Node4&#45;&gt;Node5</title>
<g id="a_edge4_Node000004_Node000005"><a xlink:title=" ">
<path fill="none" stroke="#63b8ff" d="M459.19,-15C472.84,-15 487.9,-15 502.38,-15"/>
<polygon fill="#63b8ff" stroke="#63b8ff" points="502.78,-18.5 512.78,-15 502.78,-11.5 502.78,-18.5"/>
</a>
</g>
</g>
</g>
</svg>
