<?xml version="1.0" encoding="UTF-8" standalone="no"?>
<!DOCTYPE svg PUBLIC "-//W3C//DTD SVG 1.1//EN"
 "http://www.w3.org/Graphics/SVG/1.1/DTD/svg11.dtd">
<!-- Generated by graphviz version 2.43.0 (0)
 -->
<!-- Title: netspeak::util::__properties_format_impl::read_value Pages: 1 -->
<svg width="889pt" height="183pt"
 viewBox="0.00 0.00 889.00 183.09" xmlns="http://www.w3.org/2000/svg" xmlns:xlink="http://www.w3.org/1999/xlink">
<g id="graph0" class="graph" transform="scale(1 1) rotate(0) translate(4 179.09)">
<title>netspeak::util::__properties_format_impl::read_value</title>
<!-- Node1 -->
<g id="Node000001" class="node">
<title>Node1</title>
<g id="a_Node000001"><a xlink:title=" ">
<polygon fill="#999999" stroke="#666666" points="149,-154 0,-154 0,-124 149,-124 149,-154"/>
<text text-anchor="start" x="8" y="-142" font-family="Helvetica,sans-Serif" font-size="10.00">netspeak::util::__properties</text>
<text text-anchor="middle" x="74.5" y="-131" font-family="Helvetica,sans-Serif" font-size="10.00">_format_impl::read_value</text>
</a>
</g>
</g>
<!-- Node2 -->
<g id="Node000002" class="node">
<title>Node2</title>
<g id="a_Node000002"><a xlink:href="namespacenetspeak_1_1util.html#a4c91ad572508b4021399ac7dddff574d" target="_top" xlink:title=" ">
<polygon fill="white" stroke="#666666" points="881,-105.5 768,-105.5 768,-86.5 881,-86.5 881,-105.5"/>
<text text-anchor="middle" x="824.5" y="-93.5" font-family="Helvetica,sans-Serif" font-size="10.00">netspeak::util::hash</text>
</a>
</g>
</g>
<!-- Node1&#45;&gt;Node2 -->
<g id="edge1_Node000001_Node000002" class="edge">
<title>Node1&#45;&gt;Node2</title>
<g id="a_edge1_Node000001_Node000002"><a xlink:title=" ">
<path fill="none" stroke="#63b8ff" d="M149.04,-149.17C161.04,-150.61 173.36,-151.95 185,-153 427.31,-174.8 497.55,-196.99 732,-132 753.1,-126.15 776.02,-117.13 793.65,-109.58"/>
<polygon fill="#63b8ff" stroke="#63b8ff" points="795.08,-112.77 802.85,-105.56 792.28,-106.35 795.08,-112.77"/>
</a>
</g>
</g>
<!-- Node3 -->
<g id="Node000003" class="node">
<title>Node3</title>
<g id="a_Node000003"><a xlink:href="namespacenetspeak_1_1util_1_1____properties__format__impl.html#a1edacf213d0577079a2dd1e6381db099" target="_top" xlink:title=" ">
<polygon fill="white" stroke="#666666" points="537.5,-154 385.5,-154 385.5,-124 537.5,-124 537.5,-154"/>
<text text-anchor="start" x="393.5" y="-142" font-family="Helvetica,sans-Serif" font-size="10.00">netspeak::util::__properties</text>
<text text-anchor="middle" x="461.5" y="-131" font-family="Helvetica,sans-Serif" font-size="10.00">_format_impl::is_line_break</text>
</a>
</g>
</g>
<!-- Node1&#45;&gt;Node3 -->
<g id="edge2_Node000001_Node000003" class="edge">
<title>Node1&#45;&gt;Node3</title>
<g id="a_edge2_Node000001_Node000003"><a xlink:title=" ">
<path fill="none" stroke="#63b8ff" d="M149.28,-139C213.76,-139 307.41,-139 375.12,-139"/>
<polygon fill="#63b8ff" stroke="#63b8ff" points="375.33,-142.5 385.33,-139 375.33,-135.5 375.33,-142.5"/>
</a>
</g>
</g>
<!-- Node4 -->
<g id="Node000004" class="node">
<title>Node4</title>
<g id="a_Node000004"><a xlink:href="namespacenetspeak_1_1util_1_1____properties__format__impl.html#a7e7be7309c9b3600a7b0bc065e4ffcd8" target="_top" xlink:title=" ">
<polygon fill="white" stroke="#666666" points="340,-111 185,-111 185,-81 340,-81 340,-111"/>
<text text-anchor="start" x="193" y="-99" font-family="Helvetica,sans-Serif" font-size="10.00">netspeak::util::__properties</text>
<text text-anchor="middle" x="262.5" y="-88" font-family="Helvetica,sans-Serif" font-size="10.00">_format_impl::read_escaped</text>
</a>
</g>
</g>
<!-- Node1&#45;&gt;Node4 -->
<g id="edge4_Node000001_Node000004" class="edge">
<title>Node1&#45;&gt;Node4</title>
<g id="a_edge4_Node000001_Node000004"><a xlink:title=" ">
<path fill="none" stroke="#63b8ff" d="M140.55,-123.96C155.42,-120.52 171.34,-116.84 186.58,-113.32"/>
<polygon fill="#63b8ff" stroke="#63b8ff" points="187.53,-116.69 196.48,-111.03 185.95,-109.87 187.53,-116.69"/>
</a>
</g>
</g>
<!-- Node3&#45;&gt;Node2 -->
<g id="edge3_Node000003_Node000002" class="edge">
<title>Node3&#45;&gt;Node2</title>
<g id="a_edge3_Node000003_Node000002"><a xlink:title=" ">
<path fill="none" stroke="#63b8ff" d="M537.54,-131.83C591.66,-126.44 666.44,-118.54 732,-110 740.36,-108.91 749.14,-107.68 757.81,-106.41"/>
<polygon fill="#63b8ff" stroke="#63b8ff" points="758.53,-109.84 767.91,-104.91 757.51,-102.92 758.53,-109.84"/>
</a>
</g>
</g>
<!-- Node4&#45;&gt;Node2 -->
<g id="edge9_Node000004_Node000002" class="edge">
<title>Node4&#45;&gt;Node2</title>
<g id="a_edge9_Node000004_Node000002"><a xlink:title=" ">
<path fill="none" stroke="#63b8ff" d="M340.19,-96C450.93,-96 653.73,-96 757.91,-96"/>
<polygon fill="#63b8ff" stroke="#63b8ff" points="757.98,-99.5 767.98,-96 757.98,-92.5 757.98,-99.5"/>
</a>
</g>
</g>
<!-- Node5 -->
<g id="Node000005" class="node">
<title>Node5</title>
<g id="a_Node000005"><a xlink:href="namespacenetspeak_1_1util_1_1____properties__format__impl.html#a7a52afc2a2c7f77e22813f03db4201f7" target="_top" xlink:title="Consumes any number of spaces and tabs.">
<polygon fill="white" stroke="#666666" points="547,-68 376,-68 376,-38 547,-38 547,-68"/>
<text text-anchor="start" x="384" y="-56" font-family="Helvetica,sans-Serif" font-size="10.00">netspeak::util::__properties</text>
<text text-anchor="middle" x="461.5" y="-45" font-family="Helvetica,sans-Serif" font-size="10.00">_format_impl::consume_spaces</text>
</a>
</g>
</g>
<!-- Node4&#45;&gt;Node5 -->
<g id="edge5_Node000004_Node000005" class="edge">
<title>Node4&#45;&gt;Node5</title>
<g id="a_edge5_Node000004_Node000005"><a xlink:title=" ">
<path fill="none" stroke="#63b8ff" d="M332.4,-80.96C348.3,-77.49 365.33,-73.77 381.61,-70.22"/>
<polygon fill="#63b8ff" stroke="#63b8ff" points="382.61,-73.58 391.64,-68.03 381.12,-66.74 382.61,-73.58"/>
</a>
</g>
</g>
<!-- Node5&#45;&gt;Node2 -->
<g id="edge6_Node000005_Node000002" class="edge">
<title>Node5&#45;&gt;Node2</title>
<g id="a_edge6_Node000005_Node000002"><a xlink:title=" ">
<path fill="none" stroke="#63b8ff" d="M547.28,-61.14C600.41,-66.49 670.29,-73.96 732,-82 740.36,-83.09 749.14,-84.32 757.81,-85.59"/>
<polygon fill="#63b8ff" stroke="#63b8ff" points="757.51,-89.08 767.91,-87.09 758.53,-82.16 757.51,-89.08"/>
</a>
</g>
</g>
<!-- Node6 -->
<g id="Node000006" class="node">
<title>Node6</title>
<g id="a_Node000006"><a xlink:href="namespacenetspeak_1_1util_1_1____properties__format__impl.html#aa1caae33d5ecb274023b62bc9244f942" target="_top" xlink:title=" ">
<polygon fill="white" stroke="#666666" points="732,-30 583,-30 583,0 732,0 732,-30"/>
<text text-anchor="start" x="591" y="-18" font-family="Helvetica,sans-Serif" font-size="10.00">netspeak::util::__properties</text>
<text text-anchor="middle" x="657.5" y="-7" font-family="Helvetica,sans-Serif" font-size="10.00">_format_impl::is_space</text>
</a>
</g>
</g>
<!-- Node5&#45;&gt;Node6 -->
<g id="edge7_Node000005_Node000006" class="edge">
<title>Node5&#45;&gt;Node6</title>
<g id="a_edge7_Node000005_Node000006"><a xlink:title=" ">
<path fill="none" stroke="#63b8ff" d="M539.17,-37.98C550.31,-35.8 561.83,-33.54 573.09,-31.34"/>
<polygon fill="#63b8ff" stroke="#63b8ff" points="573.77,-34.77 582.91,-29.41 572.43,-27.9 573.77,-34.77"/>
</a>
</g>
</g>
<!-- Node6&#45;&gt;Node2 -->
<g id="edge8_Node000006_Node000002" class="edge">
<title>Node6&#45;&gt;Node2</title>
<g id="a_edge8_Node000006_Node000002"><a xlink:title=" ">
<path fill="none" stroke="#63b8ff" d="M699.76,-30.1C710.39,-34.31 721.73,-39.09 732,-44 755.58,-55.28 781.38,-70.19 799.56,-81.16"/>
<polygon fill="#63b8ff" stroke="#63b8ff" points="797.95,-84.28 808.31,-86.49 801.59,-78.3 797.95,-84.28"/>
</a>
</g>
</g>
</g>
</svg>
