<?xml version="1.0" encoding="UTF-8" standalone="no"?>
<!DOCTYPE svg PUBLIC "-//W3C//DTD SVG 1.1//EN"
 "http://www.w3.org/Graphics/SVG/1.1/DTD/svg11.dtd">
<!-- Generated by graphviz version 2.43.0 (0)
 -->
<!-- Title: netspeak::util::fclose Pages: 1 -->
<svg width="1117pt" height="809pt"
 viewBox="0.00 0.00 1117.00 809.00" xmlns="http://www.w3.org/2000/svg" xmlns:xlink="http://www.w3.org/1999/xlink">
<g id="graph0" class="graph" transform="scale(1 1) rotate(0) translate(4 805)">
<title>netspeak::util::fclose</title>
<!-- Node1 -->
<g id="Node000001" class="node">
<title>Node1</title>
<g id="a_Node000001"><a xlink:title=" ">
<polygon fill="#999999" stroke="#666666" points="1109,-403.5 990,-403.5 990,-384.5 1109,-384.5 1109,-403.5"/>
<text text-anchor="middle" x="1049.5" y="-391.5" font-family="Helvetica,sans-Serif" font-size="10.00">netspeak::util::fclose</text>
</a>
</g>
</g>
<!-- Node2 -->
<g id="Node000002" class="node">
<title>Node2</title>
<g id="a_Node000002"><a xlink:href="classnetspeak_1_1bighashmap_1_1Builder.html#aee77cc2f04280bd3b36aad2c7e22c52b" target="_top" xlink:title=" ">
<polygon fill="white" stroke="#666666" points="949.5,-753 795.5,-753 795.5,-723 949.5,-723 949.5,-753"/>
<text text-anchor="start" x="803.5" y="-741" font-family="Helvetica,sans-Serif" font-size="10.00">netspeak::bighashmap</text>
<text text-anchor="middle" x="872.5" y="-730" font-family="Helvetica,sans-Serif" font-size="10.00">::Builder::BuildHashFunction</text>
</a>
</g>
</g>
<!-- Node1&#45;&gt;Node2 -->
<g id="edge1_Node000001_Node000002" class="edge">
<title>Node1&#45;&gt;Node2</title>
<g id="a_edge1_Node000001_Node000002"><a xlink:title=" ">
<path fill="none" stroke="#63b8ff" d="M1048.4,-413.82C1047.03,-468.43 1035.74,-622.7 954,-709 948.59,-714.72 941.96,-719.31 934.86,-723"/>
<polygon fill="#63b8ff" stroke="#63b8ff" points="1051.9,-413.8 1048.56,-403.75 1044.9,-413.69 1051.9,-413.8"/>
</a>
</g>
</g>
<!-- Node7 -->
<g id="Node000007" class="node">
<title>Node7</title>
<g id="a_Node000007"><a xlink:href="classnetspeak_1_1invertedindex_1_1StorageWriter.html#a504b8f6d78f6946fcdb5ee52b85348ce" target="_top" xlink:title=" ">
<polygon fill="white" stroke="#666666" points="347,-722 212,-722 212,-692 347,-692 347,-722"/>
<text text-anchor="start" x="220" y="-710" font-family="Helvetica,sans-Serif" font-size="10.00">netspeak::invertedindex</text>
<text text-anchor="middle" x="279.5" y="-699" font-family="Helvetica,sans-Serif" font-size="10.00">::StorageWriter::close</text>
</a>
</g>
</g>
<!-- Node1&#45;&gt;Node7 -->
<g id="edge24_Node000001_Node000007" class="edge">
<title>Node1&#45;&gt;Node7</title>
<g id="a_edge24_Node000001_Node000007"><a xlink:title=" ">
<path fill="none" stroke="#63b8ff" d="M1047.18,-413.64C1042.92,-460.47 1025.25,-579.13 954,-637 862.18,-711.58 498.5,-712.16 347.14,-709"/>
<polygon fill="#63b8ff" stroke="#63b8ff" points="1050.68,-413.84 1047.99,-403.59 1043.7,-413.28 1050.68,-413.84"/>
</a>
</g>
</g>
<!-- Node11 -->
<g id="Node000011" class="node">
<title>Node11</title>
<g id="a_Node000011"><a xlink:href="classnetspeak_1_1bighashmap_1_1Builder.html#a333ad1bb51cee1f0177b6b631148a423" target="_top" xlink:title=" ">
<polygon fill="white" stroke="#666666" points="941.5,-801 803.5,-801 803.5,-771 941.5,-771 941.5,-801"/>
<text text-anchor="start" x="811.5" y="-789" font-family="Helvetica,sans-Serif" font-size="10.00">netspeak::bighashmap</text>
<text text-anchor="middle" x="872.5" y="-778" font-family="Helvetica,sans-Serif" font-size="10.00">::Builder::BuildHashTable</text>
</a>
</g>
</g>
<!-- Node1&#45;&gt;Node11 -->
<g id="edge10_Node000001_Node000011" class="edge">
<title>Node1&#45;&gt;Node11</title>
<g id="a_edge10_Node000001_Node000011"><a xlink:title=" ">
<path fill="none" stroke="#63b8ff" d="M1045.98,-413.93C1036.86,-482.97 1003.51,-710.56 954,-762 950.36,-765.78 946.15,-768.98 941.61,-771.67"/>
<polygon fill="#63b8ff" stroke="#63b8ff" points="1049.5,-413.97 1047.32,-403.6 1042.56,-413.07 1049.5,-413.97"/>
</a>
</g>
</g>
<!-- Node12 -->
<g id="Node000012" class="node">
<title>Node12</title>
<g id="a_Node000012"><a xlink:href="classnetspeak_1_1invertedindex_1_1PostlistBuilder.html#aa8341dc51b109df63b5114f1212a64b5" target="_top" xlink:title=" ">
<polygon fill="white" stroke="#666666" points="940,-452 805,-452 805,-422 940,-422 940,-452"/>
<text text-anchor="start" x="813" y="-440" font-family="Helvetica,sans-Serif" font-size="10.00">netspeak::invertedindex</text>
<text text-anchor="middle" x="872.5" y="-429" font-family="Helvetica,sans-Serif" font-size="10.00">::PostlistBuilder::clear</text>
</a>
</g>
</g>
<!-- Node1&#45;&gt;Node12 -->
<g id="edge12_Node000001_Node000012" class="edge">
<title>Node1&#45;&gt;Node12</title>
<g id="a_edge12_Node000001_Node000012"><a xlink:title=" ">
<path fill="none" stroke="#63b8ff" d="M999.75,-405.98C979.55,-410.94 955.91,-416.75 934.57,-421.99"/>
<polygon fill="#63b8ff" stroke="#63b8ff" points="1000.79,-409.33 1009.66,-403.54 999.12,-402.53 1000.79,-409.33"/>
</a>
</g>
</g>
<!-- Node17 -->
<g id="Node000017" class="node">
<title>Node17</title>
<g id="a_Node000017"><a xlink:href="classnetspeak_1_1invertedindex_1_1PostlistSorter.html#a3a4bdc4279ad3c23c77d69c629f4b89a" target="_top" xlink:title=" ">
<polygon fill="white" stroke="#666666" points="528,-397 393,-397 393,-367 528,-367 528,-397"/>
<text text-anchor="start" x="401" y="-385" font-family="Helvetica,sans-Serif" font-size="10.00">netspeak::invertedindex</text>
<text text-anchor="middle" x="460.5" y="-374" font-family="Helvetica,sans-Serif" font-size="10.00">::PostlistSorter::merge</text>
</a>
</g>
</g>
<!-- Node1&#45;&gt;Node17 -->
<g id="edge33_Node000001_Node000017" class="edge">
<title>Node1&#45;&gt;Node17</title>
<g id="a_edge33_Node000001_Node000017"><a xlink:title=" ">
<path fill="none" stroke="#63b8ff" d="M979.48,-392.59C865.71,-390.26 640.27,-385.65 528.11,-383.36"/>
<polygon fill="#63b8ff" stroke="#63b8ff" points="979.73,-396.09 989.8,-392.8 979.87,-389.1 979.73,-396.09"/>
</a>
</g>
</g>
<!-- Node20 -->
<g id="Node000020" class="node">
<title>Node20</title>
<g id="a_Node000020"><a xlink:href="classnetspeak_1_1invertedindex_1_1StorageReader.html#aff3e5221c5e53e175ea46f8a5ec86371" target="_top" xlink:title=" ">
<polygon fill="white" stroke="#666666" points="940,-366 805,-366 805,-336 940,-336 940,-366"/>
<text text-anchor="start" x="813" y="-354" font-family="Helvetica,sans-Serif" font-size="10.00">netspeak::invertedindex</text>
<text text-anchor="middle" x="872.5" y="-343" font-family="Helvetica,sans-Serif" font-size="10.00">::StorageReader::Close</text>
</a>
</g>
</g>
<!-- Node1&#45;&gt;Node20 -->
<g id="edge22_Node000001_Node000020" class="edge">
<title>Node1&#45;&gt;Node20</title>
<g id="a_edge22_Node000001_Node000020"><a xlink:title=" ">
<path fill="none" stroke="#63b8ff" d="M999.75,-382.02C979.55,-377.06 955.91,-371.25 934.57,-366.01"/>
<polygon fill="#63b8ff" stroke="#63b8ff" points="999.12,-385.47 1009.66,-384.46 1000.79,-378.67 999.12,-385.47"/>
</a>
</g>
</g>
<!-- Node22 -->
<g id="Node000022" class="node">
<title>Node22</title>
<g id="a_Node000022"><a xlink:href="classnetspeak_1_1invertedindex_1_1UnsortedInput.html#a73407b6fe41e1204f787398082b4555e" target="_top" xlink:title=" ">
<polygon fill="white" stroke="#666666" points="940,-591 805,-591 805,-561 940,-561 940,-591"/>
<text text-anchor="start" x="813" y="-579" font-family="Helvetica,sans-Serif" font-size="10.00">netspeak::invertedindex</text>
<text text-anchor="middle" x="872.5" y="-568" font-family="Helvetica,sans-Serif" font-size="10.00">::UnsortedInput::close</text>
</a>
</g>
</g>
<!-- Node1&#45;&gt;Node22 -->
<g id="edge25_Node000001_Node000022" class="edge">
<title>Node1&#45;&gt;Node22</title>
<g id="a_edge25_Node000001_Node000022"><a xlink:title=" ">
<path fill="none" stroke="#63b8ff" d="M1042.19,-413.4C1030.35,-446.77 1001.59,-515.01 954,-552 949.62,-555.4 944.77,-558.32 939.69,-560.83"/>
<polygon fill="#63b8ff" stroke="#63b8ff" points="1045.53,-414.47 1045.45,-403.88 1038.9,-412.21 1045.53,-414.47"/>
</a>
</g>
</g>
<!-- Node25 -->
<g id="Node000025" class="node">
<title>Node25</title>
<g id="a_Node000025"><a xlink:href="classnetspeak_1_1bighashmap_1_1CmphMap.html#a8d33ce82688d2872b1c7e4034e848ee9" target="_top" xlink:title=" ">
<polygon fill="white" stroke="#666666" points="936.5,-318 808.5,-318 808.5,-288 936.5,-288 936.5,-318"/>
<text text-anchor="start" x="816.5" y="-306" font-family="Helvetica,sans-Serif" font-size="10.00">netspeak::bighashmap</text>
<text text-anchor="middle" x="872.5" y="-295" font-family="Helvetica,sans-Serif" font-size="10.00">::CmphMap::CmphMap</text>
</a>
</g>
</g>
<!-- Node1&#45;&gt;Node25 -->
<g id="edge29_Node000001_Node000025" class="edge">
<title>Node1&#45;&gt;Node25</title>
<g id="a_edge29_Node000001_Node000025"><a xlink:title=" ">
<path fill="none" stroke="#63b8ff" d="M1029.56,-377.72C1011.28,-362.73 982.28,-340.77 954,-327 947.18,-323.68 939.81,-320.72 932.4,-318.11"/>
<polygon fill="#63b8ff" stroke="#63b8ff" points="1027.71,-380.73 1037.63,-384.46 1032.19,-375.36 1027.71,-380.73"/>
</a>
</g>
</g>
<!-- Node26 -->
<g id="Node000026" class="node">
<title>Node26</title>
<g id="a_Node000026"><a xlink:href="classnetspeak_1_1invertedindex_1_1UnsortedInput.html#a8712a539032f34e5cbeb3c7a6ed99de0" target="_top" xlink:title=" ">
<polygon fill="white" stroke="#666666" points="347,-674 212,-674 212,-644 347,-644 347,-674"/>
<text text-anchor="start" x="220" y="-662" font-family="Helvetica,sans-Serif" font-size="10.00">netspeak::invertedindex</text>
<text text-anchor="middle" x="279.5" y="-651" font-family="Helvetica,sans-Serif" font-size="10.00">::UnsortedInput::group</text>
</a>
</g>
</g>
<!-- Node1&#45;&gt;Node26 -->
<g id="edge30_Node000001_Node000026" class="edge">
<title>Node1&#45;&gt;Node26</title>
<g id="a_edge30_Node000001_Node000026"><a xlink:title=" ">
<path fill="none" stroke="#63b8ff" d="M1045.88,-414.02C1039.17,-456.31 1017.23,-554.58 954,-600 858.19,-668.82 497.64,-665.94 347.14,-661.53"/>
<polygon fill="#63b8ff" stroke="#63b8ff" points="1049.37,-414.29 1047.36,-403.88 1042.45,-413.27 1049.37,-414.29"/>
</a>
</g>
</g>
<!-- Node27 -->
<g id="Node000027" class="node">
<title>Node27</title>
<g id="a_Node000027"><a xlink:href="classnetspeak_1_1bighashmap_1_1InternalMap.html#a2bf5f719141050961f5967e006036043" target="_top" xlink:title=" ">
<polygon fill="white" stroke="#666666" points="945.5,-270 799.5,-270 799.5,-240 945.5,-240 945.5,-270"/>
<text text-anchor="start" x="807.5" y="-258" font-family="Helvetica,sans-Serif" font-size="10.00">netspeak::bighashmap</text>
<text text-anchor="middle" x="872.5" y="-247" font-family="Helvetica,sans-Serif" font-size="10.00">::InternalMap::InternalMap</text>
</a>
</g>
</g>
<!-- Node1&#45;&gt;Node27 -->
<g id="edge32_Node000001_Node000027" class="edge">
<title>Node1&#45;&gt;Node27</title>
<g id="a_edge32_Node000001_Node000027"><a xlink:title=" ">
<path fill="none" stroke="#63b8ff" d="M1038.26,-375.66C1023.11,-350.23 992.36,-304.48 954,-279 948.9,-275.61 943.3,-272.69 937.51,-270.17"/>
<polygon fill="#63b8ff" stroke="#63b8ff" points="1035.24,-377.44 1043.28,-384.34 1041.3,-373.93 1035.24,-377.44"/>
</a>
</g>
</g>
<!-- Node28 -->
<g id="Node000028" class="node">
<title>Node28</title>
<g id="a_Node000028"><a xlink:href="classnetspeak_1_1invertedindex_1_1Searcher.html#a7892a42a3c0e390af6f33815de970002" target="_top" xlink:title=" ">
<polygon fill="white" stroke="#666666" points="940,-222 805,-222 805,-192 940,-192 940,-222"/>
<text text-anchor="start" x="813" y="-210" font-family="Helvetica,sans-Serif" font-size="10.00">netspeak::invertedindex</text>
<text text-anchor="middle" x="872.5" y="-199" font-family="Helvetica,sans-Serif" font-size="10.00">::Searcher::open</text>
</a>
</g>
</g>
<!-- Node1&#45;&gt;Node28 -->
<g id="edge34_Node000001_Node000028" class="edge">
<title>Node1&#45;&gt;Node28</title>
<g id="a_edge34_Node000001_Node000028"><a xlink:title=" ">
<path fill="none" stroke="#63b8ff" d="M1042.54,-374.48C1031.07,-340.25 1002.68,-269.37 954,-231 949.65,-227.57 944.81,-224.63 939.74,-222.11"/>
<polygon fill="#63b8ff" stroke="#63b8ff" points="1039.27,-375.77 1045.67,-384.22 1045.94,-373.63 1039.27,-375.77"/>
</a>
</g>
</g>
<!-- Node30 -->
<g id="Node000030" class="node">
<title>Node30</title>
<g id="a_Node000030"><a xlink:href="structnetspeak_1_1invertedindex_1_1Properties.html#ab68dc5c9ff901034a32d0d8b89a9f574" target="_top" xlink:title=" ">
<polygon fill="white" stroke="#666666" points="940,-174 805,-174 805,-144 940,-144 940,-174"/>
<text text-anchor="start" x="813" y="-162" font-family="Helvetica,sans-Serif" font-size="10.00">netspeak::invertedindex</text>
<text text-anchor="middle" x="872.5" y="-151" font-family="Helvetica,sans-Serif" font-size="10.00">::Properties::read</text>
</a>
</g>
</g>
<!-- Node1&#45;&gt;Node30 -->
<g id="edge36_Node000001_Node000030" class="edge">
<title>Node1&#45;&gt;Node30</title>
<g id="a_edge36_Node000001_Node000030"><a xlink:title=" ">
<path fill="none" stroke="#63b8ff" d="M1045.33,-374.39C1037.58,-332.82 1013.72,-235.35 954,-183 949.83,-179.35 945.13,-176.25 940.14,-173.62"/>
<polygon fill="#63b8ff" stroke="#63b8ff" points="1041.9,-375.1 1047.07,-384.34 1048.8,-373.89 1041.9,-375.1"/>
</a>
</g>
</g>
<!-- Node31 -->
<g id="Node000031" class="node">
<title>Node31</title>
<g id="a_Node000031"><a xlink:href="classnetspeak_1_1invertedindex_1_1UnsortedInput.html#aa5262dcbf66a5e0cb722f0bec7775b62" target="_top" xlink:title=" ">
<polygon fill="white" stroke="#666666" points="940,-543 805,-543 805,-513 940,-513 940,-543"/>
<text text-anchor="start" x="813" y="-531" font-family="Helvetica,sans-Serif" font-size="10.00">netspeak::invertedindex</text>
<text text-anchor="middle" x="872.5" y="-520" font-family="Helvetica,sans-Serif" font-size="10.00">::UnsortedInput::rehash</text>
</a>
</g>
</g>
<!-- Node1&#45;&gt;Node31 -->
<g id="edge37_Node000001_Node000031" class="edge">
<title>Node1&#45;&gt;Node31</title>
<g id="a_edge37_Node000001_Node000031"><a xlink:title=" ">
<path fill="none" stroke="#63b8ff" d="M1035.63,-411.57C1018.91,-433.37 987.81,-470.54 954,-494 943.16,-501.52 930.39,-507.86 918.25,-512.95"/>
<polygon fill="#63b8ff" stroke="#63b8ff" points="1038.48,-413.6 1041.7,-403.51 1032.89,-409.39 1038.48,-413.6"/>
</a>
</g>
</g>
<!-- Node33 -->
<g id="Node000033" class="node">
<title>Node33</title>
<g id="a_Node000033"><a xlink:href="structnetspeak_1_1invertedindex_1_1Properties.html#a87ba24f5097e993de6077cebcf4f5f3a" target="_top" xlink:title=" ">
<polygon fill="white" stroke="#666666" points="940,-126 805,-126 805,-96 940,-96 940,-126"/>
<text text-anchor="start" x="813" y="-114" font-family="Helvetica,sans-Serif" font-size="10.00">netspeak::invertedindex</text>
<text text-anchor="middle" x="872.5" y="-103" font-family="Helvetica,sans-Serif" font-size="10.00">::Properties::write</text>
</a>
</g>
</g>
<!-- Node1&#45;&gt;Node33 -->
<g id="edge40_Node000001_Node000033" class="edge">
<title>Node1&#45;&gt;Node33</title>
<g id="a_edge40_Node000001_Node000033"><a xlink:title=" ">
<path fill="none" stroke="#63b8ff" d="M1047.17,-374.34C1042.83,-326.26 1024.97,-201.83 954,-135 949.86,-131.1 945.11,-127.83 940.04,-125.09"/>
<polygon fill="#63b8ff" stroke="#63b8ff" points="1043.68,-374.67 1047.97,-384.36 1050.66,-374.11 1043.68,-374.67"/>
</a>
</g>
</g>
<!-- Node37 -->
<g id="Node000037" class="node">
<title>Node37</title>
<g id="a_Node000037"><a xlink:href="classnetspeak_1_1invertedindex_1_1StorageWriter.html#a84b8042112d8e747ea62522d157c2249" target="_top" xlink:title=" ">
<polygon fill="white" stroke="#666666" points="732,-495 597,-495 597,-465 732,-465 732,-495"/>
<text text-anchor="start" x="605" y="-483" font-family="Helvetica,sans-Serif" font-size="10.00">netspeak::invertedindex</text>
<text text-anchor="middle" x="664.5" y="-472" font-family="Helvetica,sans-Serif" font-size="10.00">::StorageWriter::write</text>
</a>
</g>
</g>
<!-- Node1&#45;&gt;Node37 -->
<g id="edge44_Node000001_Node000037" class="edge">
<title>Node1&#45;&gt;Node37</title>
<g id="a_edge44_Node000001_Node000037"><a xlink:title=" ">
<path fill="none" stroke="#63b8ff" d="M1031.05,-410.96C1013.28,-427.05 984.13,-450.3 954,-461 881.27,-486.83 791.84,-488.49 732,-485.69"/>
<polygon fill="#63b8ff" stroke="#63b8ff" points="1033.89,-413.11 1038.82,-403.73 1029.11,-407.99 1033.89,-413.11"/>
</a>
</g>
</g>
<!-- Node39 -->
<g id="Node000039" class="node">
<title>Node39</title>
<g id="a_Node000039"><a xlink:href="classnetspeak_1_1bighashmap_1_1ExternalMap.html#a7c85adb3c79c8672da4452c64760be3e" target="_top" xlink:title=" ">
<polygon fill="white" stroke="#666666" points="952.5,-78 792.5,-78 792.5,-48 952.5,-48 952.5,-78"/>
<text text-anchor="start" x="800.5" y="-66" font-family="Helvetica,sans-Serif" font-size="10.00">netspeak::bighashmap</text>
<text text-anchor="middle" x="872.5" y="-55" font-family="Helvetica,sans-Serif" font-size="10.00">::ExternalMap::~ExternalMap</text>
</a>
</g>
</g>
<!-- Node1&#45;&gt;Node39 -->
<g id="edge48_Node000001_Node000039" class="edge">
<title>Node1&#45;&gt;Node39</title>
<g id="a_edge48_Node000001_Node000039"><a xlink:title=" ">
<path fill="none" stroke="#63b8ff" d="M1048.46,-374.09C1047.25,-319.93 1036.29,-168.56 954,-87 950.58,-83.61 946.71,-80.7 942.55,-78.19"/>
<polygon fill="#63b8ff" stroke="#63b8ff" points="1044.97,-374.42 1048.6,-384.38 1051.97,-374.33 1044.97,-374.42"/>
</a>
</g>
</g>
<!-- Node40 -->
<g id="Node000040" class="node">
<title>Node40</title>
<g id="a_Node000040"><a xlink:href="structnetspeak_1_1invertedindex_1_1iterator__type.html#af8aa802ddc72499f44da07e2833259c7" target="_top" xlink:title=" ">
<polygon fill="white" stroke="#666666" points="954,-30 791,-30 791,0 954,0 954,-30"/>
<text text-anchor="start" x="799" y="-18" font-family="Helvetica,sans-Serif" font-size="10.00">netspeak::invertedindex</text>
<text text-anchor="middle" x="872.5" y="-7" font-family="Helvetica,sans-Serif" font-size="10.00">::iterator_type::~iterator_type</text>
</a>
</g>
</g>
<!-- Node1&#45;&gt;Node40 -->
<g id="edge49_Node000001_Node000040" class="edge">
<title>Node1&#45;&gt;Node40</title>
<g id="a_edge49_Node000001_Node000040"><a xlink:title=" ">
<path fill="none" stroke="#63b8ff" d="M1045.81,-374.33C1036.27,-307.18 1001.98,-88.42 954,-39 950.65,-35.55 946.82,-32.59 942.7,-30.05"/>
<polygon fill="#63b8ff" stroke="#63b8ff" points="1042.37,-374.98 1047.22,-384.4 1049.3,-374.01 1042.37,-374.98"/>
</a>
</g>
</g>
<!-- Node3 -->
<g id="Node000003" class="node">
<title>Node3</title>
<g id="a_Node000003"><a xlink:href="classnetspeak_1_1bighashmap_1_1Builder.html#a8435164185bac78bacf97c66e78b9a27" target="_top" xlink:title=" ">
<polygon fill="white" stroke="#666666" points="728.5,-760 600.5,-760 600.5,-730 728.5,-730 728.5,-760"/>
<text text-anchor="start" x="608.5" y="-748" font-family="Helvetica,sans-Serif" font-size="10.00">netspeak::bighashmap</text>
<text text-anchor="middle" x="664.5" y="-737" font-family="Helvetica,sans-Serif" font-size="10.00">::Builder::BuildMap</text>
</a>
</g>
</g>
<!-- Node2&#45;&gt;Node3 -->
<g id="edge2_Node000002_Node000003" class="edge">
<title>Node2&#45;&gt;Node3</title>
<g id="a_edge2_Node000002_Node000003"><a xlink:title=" ">
<path fill="none" stroke="#63b8ff" d="M785.27,-740.93C766.35,-741.57 746.65,-742.24 728.83,-742.85"/>
<polygon fill="#63b8ff" stroke="#63b8ff" points="785.5,-744.42 795.38,-740.59 785.27,-737.43 785.5,-744.42"/>
</a>
</g>
</g>
<!-- Node4 -->
<g id="Node000004" class="node">
<title>Node4</title>
<g id="a_Node000004"><a xlink:href="classnetspeak_1_1bighashmap_1_1Builder.html#a66906e74a9afa4707cfb7c999c0c635a" target="_top" xlink:title=" ">
<polygon fill="white" stroke="#666666" points="524.5,-760 396.5,-760 396.5,-730 524.5,-730 524.5,-760"/>
<text text-anchor="start" x="404.5" y="-748" font-family="Helvetica,sans-Serif" font-size="10.00">netspeak::bighashmap</text>
<text text-anchor="middle" x="460.5" y="-737" font-family="Helvetica,sans-Serif" font-size="10.00">::Builder::Build</text>
</a>
</g>
</g>
<!-- Node3&#45;&gt;Node4 -->
<g id="edge3_Node000003_Node000004" class="edge">
<title>Node3&#45;&gt;Node4</title>
<g id="a_edge3_Node000003_Node000004"><a xlink:title=" ">
<path fill="none" stroke="#63b8ff" d="M590.37,-745C568.9,-745 545.6,-745 524.8,-745"/>
<polygon fill="#63b8ff" stroke="#63b8ff" points="590.42,-748.5 600.42,-745 590.42,-741.5 590.42,-748.5"/>
</a>
</g>
</g>
<!-- Node5 -->
<g id="Node000005" class="node">
<title>Node5</title>
<g id="a_Node000005"><a xlink:href="classnetspeak_1_1bighashmap_1_1BigHashMap.html#a962d40196fcce78f1ddef98eb3d8344c" target="_top" xlink:title=" ">
<polygon fill="white" stroke="#666666" points="343.5,-770 215.5,-770 215.5,-740 343.5,-740 343.5,-770"/>
<text text-anchor="start" x="223.5" y="-758" font-family="Helvetica,sans-Serif" font-size="10.00">netspeak::bighashmap</text>
<text text-anchor="middle" x="279.5" y="-747" font-family="Helvetica,sans-Serif" font-size="10.00">::BigHashMap::Build</text>
</a>
</g>
</g>
<!-- Node4&#45;&gt;Node5 -->
<g id="edge4_Node000004_Node000005" class="edge">
<title>Node4&#45;&gt;Node5</title>
<g id="a_edge4_Node000004_Node000005"><a xlink:title=" ">
<path fill="none" stroke="#63b8ff" d="M386.22,-749.09C372.1,-749.88 357.41,-750.7 343.64,-751.47"/>
<polygon fill="#63b8ff" stroke="#63b8ff" points="386.6,-752.58 396.39,-748.53 386.21,-745.59 386.6,-752.58"/>
</a>
</g>
</g>
<!-- Node4&#45;&gt;Node7 -->
<g id="edge6_Node000004_Node000007" class="edge">
<title>Node4&#45;&gt;Node7</title>
<g id="a_edge6_Node000004_Node000007"><a xlink:title=" ">
<path fill="none" stroke="#63b8ff" d="M386.57,-729.52C373.57,-726.76 360.1,-723.9 347.29,-721.18"/>
<polygon fill="#63b8ff" stroke="#63b8ff" points="385.88,-732.95 396.39,-731.6 387.34,-726.1 385.88,-732.95"/>
</a>
</g>
</g>
<!-- Node6 -->
<g id="Node000006" class="node">
<title>Node6</title>
<g id="a_Node000006"><a xlink:href="namespacenetspeak.html#a84f2fcf7a89eca20f721ce3c30b85001" target="_top" xlink:title=" ">
<polygon fill="white" stroke="#666666" points="176,-764.5 0,-764.5 0,-745.5 176,-745.5 176,-764.5"/>
<text text-anchor="middle" x="88" y="-752.5" font-family="Helvetica,sans-Serif" font-size="10.00">netspeak::BuildPhraseDictionary</text>
</a>
</g>
</g>
<!-- Node5&#45;&gt;Node6 -->
<g id="edge5_Node000005_Node000006" class="edge">
<title>Node5&#45;&gt;Node6</title>
<g id="a_edge5_Node000005_Node000006"><a xlink:title=" ">
<path fill="none" stroke="#63b8ff" d="M205.2,-755C195.68,-755 185.84,-755 176.12,-755"/>
<polygon fill="#63b8ff" stroke="#63b8ff" points="205.4,-758.5 215.4,-755 205.4,-751.5 205.4,-758.5"/>
</a>
</g>
</g>
<!-- Node8 -->
<g id="Node000008" class="node">
<title>Node8</title>
<g id="a_Node000008"><a xlink:href="classnetspeak_1_1invertedindex_1_1UnsortedInput.html#a3bf52078c65c198e542a3e16d42eff20" target="_top" xlink:title=" ">
<polygon fill="white" stroke="#666666" points="155.5,-654 20.5,-654 20.5,-624 155.5,-624 155.5,-654"/>
<text text-anchor="start" x="28.5" y="-642" font-family="Helvetica,sans-Serif" font-size="10.00">netspeak::invertedindex</text>
<text text-anchor="middle" x="88" y="-631" font-family="Helvetica,sans-Serif" font-size="10.00">::UnsortedInput::index</text>
</a>
</g>
</g>
<!-- Node7&#45;&gt;Node8 -->
<g id="edge7_Node000007_Node000008" class="edge">
<title>Node7&#45;&gt;Node8</title>
<g id="a_edge7_Node000007_Node000008"><a xlink:title=" ">
<path fill="none" stroke="#63b8ff" d="M226.94,-688.5C196.8,-677.68 159.25,-664.21 130.94,-654.05"/>
<polygon fill="#63b8ff" stroke="#63b8ff" points="225.85,-691.83 236.44,-691.91 228.21,-685.24 225.85,-691.83"/>
</a>
</g>
</g>
<!-- Node9 -->
<g id="Node000009" class="node">
<title>Node9</title>
<g id="a_Node000009"><a xlink:href="classnetspeak_1_1invertedindex_1_1SortedInput.html#ae3183e635b4fa91c0b855773b95ce99c" target="_top" xlink:title=" ">
<polygon fill="white" stroke="#666666" points="155.5,-566 20.5,-566 20.5,-536 155.5,-536 155.5,-566"/>
<text text-anchor="start" x="28.5" y="-554" font-family="Helvetica,sans-Serif" font-size="10.00">netspeak::invertedindex</text>
<text text-anchor="middle" x="88" y="-543" font-family="Helvetica,sans-Serif" font-size="10.00">::SortedInput::index</text>
</a>
</g>
</g>
<!-- Node7&#45;&gt;Node9 -->
<g id="edge8_Node000007_Node000009" class="edge">
<title>Node7&#45;&gt;Node9</title>
<g id="a_edge8_Node000007_Node000009"><a xlink:title=" ">
<path fill="none" stroke="#63b8ff" d="M216.69,-686.69C215.06,-685.53 213.49,-684.3 212,-683 186.18,-660.58 198.34,-640.89 176,-615 158.73,-594.98 134.09,-577.6 115.44,-566.02"/>
<polygon fill="#63b8ff" stroke="#63b8ff" points="214.93,-689.71 225.27,-691.99 218.61,-683.76 214.93,-689.71"/>
</a>
</g>
</g>
<!-- Node10 -->
<g id="Node000010" class="node">
<title>Node10</title>
<g id="a_Node000010"><a xlink:href="classnetspeak_1_1invertedindex_1_1StorageWriter.html#af783f33c33c210523e44c0aef00b7ccd" target="_top" xlink:title=" ">
<polygon fill="white" stroke="#666666" points="174,-722 2,-722 2,-692 174,-692 174,-722"/>
<text text-anchor="start" x="10" y="-710" font-family="Helvetica,sans-Serif" font-size="10.00">netspeak::invertedindex</text>
<text text-anchor="middle" x="88" y="-699" font-family="Helvetica,sans-Serif" font-size="10.00">::StorageWriter::~StorageWriter</text>
</a>
</g>
</g>
<!-- Node7&#45;&gt;Node10 -->
<g id="edge9_Node000007_Node000010" class="edge">
<title>Node7&#45;&gt;Node10</title>
<g id="a_edge9_Node000007_Node000010"><a xlink:title=" ">
<path fill="none" stroke="#63b8ff" d="M201.76,-707C192.62,-707 183.26,-707 174.01,-707"/>
<polygon fill="#63b8ff" stroke="#63b8ff" points="201.96,-710.5 211.96,-707 201.96,-703.5 201.96,-710.5"/>
</a>
</g>
</g>
<!-- Node11&#45;&gt;Node3 -->
<g id="edge11_Node000011_Node000003" class="edge">
<title>Node11&#45;&gt;Node3</title>
<g id="a_edge11_Node000011_Node000003"><a xlink:title=" ">
<path fill="none" stroke="#63b8ff" d="M793.43,-770.46C772,-766.2 749.04,-761.63 728.57,-757.55"/>
<polygon fill="#63b8ff" stroke="#63b8ff" points="792.99,-773.94 803.48,-772.46 794.35,-767.08 792.99,-773.94"/>
</a>
</g>
</g>
<!-- Node13 -->
<g id="Node000013" class="node">
<title>Node13</title>
<g id="a_Node000013"><a xlink:href="classnetspeak_1_1invertedindex_1_1PostlistBuilder.html#aa133eb47feb79d3d4565aebc9d3c9c07" target="_top" xlink:title=" ">
<polygon fill="white" stroke="#666666" points="732,-447 597,-447 597,-417 732,-417 732,-447"/>
<text text-anchor="start" x="605" y="-435" font-family="Helvetica,sans-Serif" font-size="10.00">netspeak::invertedindex</text>
<text text-anchor="middle" x="664.5" y="-424" font-family="Helvetica,sans-Serif" font-size="10.00">::PostlistBuilder::build</text>
</a>
</g>
</g>
<!-- Node12&#45;&gt;Node13 -->
<g id="edge13_Node000012_Node000013" class="edge">
<title>Node12&#45;&gt;Node13</title>
<g id="a_edge13_Node000012_Node000013"><a xlink:title=" ">
<path fill="none" stroke="#63b8ff" d="M794.65,-435.13C774.14,-434.64 752.14,-434.1 732.22,-433.62"/>
<polygon fill="#63b8ff" stroke="#63b8ff" points="794.82,-438.64 804.9,-435.38 794.99,-431.64 794.82,-438.64"/>
</a>
</g>
</g>
<!-- Node14 -->
<g id="Node000014" class="node">
<title>Node14</title>
<g id="a_Node000014"><a xlink:href="classnetspeak_1_1invertedindex_1_1PostlistSorter.html#a0bb0492d40e3460f4463a35843df5bf7" target="_top" xlink:title=" ">
<polygon fill="white" stroke="#666666" points="538,-445 383,-445 383,-415 538,-415 538,-445"/>
<text text-anchor="start" x="391" y="-433" font-family="Helvetica,sans-Serif" font-size="10.00">netspeak::invertedindex</text>
<text text-anchor="middle" x="460.5" y="-422" font-family="Helvetica,sans-Serif" font-size="10.00">::PostlistSorter::internal_sort</text>
</a>
</g>
</g>
<!-- Node13&#45;&gt;Node14 -->
<g id="edge14_Node000013_Node000014" class="edge">
<title>Node13&#45;&gt;Node14</title>
<g id="a_edge14_Node000013_Node000014"><a xlink:title=" ">
<path fill="none" stroke="#63b8ff" d="M586.54,-431.24C570.73,-431.08 554.09,-430.92 538.28,-430.76"/>
<polygon fill="#63b8ff" stroke="#63b8ff" points="586.76,-434.74 596.8,-431.34 586.83,-427.74 586.76,-434.74"/>
</a>
</g>
</g>
<!-- Node13&#45;&gt;Node17 -->
<g id="edge17_Node000013_Node000017" class="edge">
<title>Node13&#45;&gt;Node17</title>
<g id="a_edge17_Node000013_Node000017"><a xlink:title=" ">
<path fill="none" stroke="#63b8ff" d="M593.17,-414.59C570.12,-408.89 544.71,-402.6 522.41,-397.08"/>
<polygon fill="#63b8ff" stroke="#63b8ff" points="592.35,-417.99 602.89,-417 594.03,-411.2 592.35,-417.99"/>
</a>
</g>
</g>
<!-- Node18 -->
<g id="Node000018" class="node">
<title>Node18</title>
<g id="a_Node000018"><a xlink:href="classnetspeak_1_1invertedindex_1_1SortedInput.html#a7a0960a0a573256e0887b29e8650a799" target="_top" xlink:title=" ">
<polygon fill="white" stroke="#666666" points="535,-504.5 386,-504.5 386,-463.5 535,-463.5 535,-504.5"/>
<text text-anchor="start" x="394" y="-492.5" font-family="Helvetica,sans-Serif" font-size="10.00">netspeak::invertedindex</text>
<text text-anchor="start" x="394" y="-481.5" font-family="Helvetica,sans-Serif" font-size="10.00">::SortedInput::write_current</text>
<text text-anchor="middle" x="460.5" y="-470.5" font-family="Helvetica,sans-Serif" font-size="10.00">_postlist_</text>
</a>
</g>
</g>
<!-- Node13&#45;&gt;Node18 -->
<g id="edge19_Node000013_Node000018" class="edge">
<title>Node13&#45;&gt;Node18</title>
<g id="a_edge19_Node000013_Node000018"><a xlink:title=" ">
<path fill="none" stroke="#63b8ff" d="M595.17,-449.59C575.9,-454.55 554.85,-459.97 535.27,-465.01"/>
<polygon fill="#63b8ff" stroke="#63b8ff" points="596.26,-452.92 605.07,-447.04 594.52,-446.14 596.26,-452.92"/>
</a>
</g>
</g>
<!-- Node15 -->
<g id="Node000015" class="node">
<title>Node15</title>
<g id="a_Node000015"><a xlink:href="classnetspeak_1_1invertedindex_1_1PostlistSorter.html#a58f01b8d58f6487a4ceb2f1ab3d2f0a1" target="_top" xlink:title=" ">
<polygon fill="white" stroke="#666666" points="347,-421 212,-421 212,-391 347,-391 347,-421"/>
<text text-anchor="start" x="220" y="-409" font-family="Helvetica,sans-Serif" font-size="10.00">netspeak::invertedindex</text>
<text text-anchor="middle" x="279.5" y="-398" font-family="Helvetica,sans-Serif" font-size="10.00">::PostlistSorter::sort</text>
</a>
</g>
</g>
<!-- Node14&#45;&gt;Node15 -->
<g id="edge15_Node000014_Node000015" class="edge">
<title>Node14&#45;&gt;Node15</title>
<g id="a_edge15_Node000014_Node000015"><a xlink:title=" ">
<path fill="none" stroke="#63b8ff" d="M372.75,-418.37C364.15,-417.22 355.51,-416.06 347.16,-414.94"/>
<polygon fill="#63b8ff" stroke="#63b8ff" points="372.43,-421.86 382.81,-419.72 373.36,-414.92 372.43,-421.86"/>
</a>
</g>
</g>
<!-- Node16 -->
<g id="Node000016" class="node">
<title>Node16</title>
<g id="a_Node000016"><a xlink:href="classnetspeak_1_1invertedindex_1_1UnsortedInput.html#ac107e445403ad38a4774f83e92e9bb70" target="_top" xlink:title=" ">
<polygon fill="white" stroke="#666666" points="155.5,-421 20.5,-421 20.5,-391 155.5,-391 155.5,-421"/>
<text text-anchor="start" x="28.5" y="-409" font-family="Helvetica,sans-Serif" font-size="10.00">netspeak::invertedindex</text>
<text text-anchor="middle" x="88" y="-398" font-family="Helvetica,sans-Serif" font-size="10.00">::UnsortedInput::sort</text>
</a>
</g>
</g>
<!-- Node15&#45;&gt;Node16 -->
<g id="edge16_Node000015_Node000016" class="edge">
<title>Node15&#45;&gt;Node16</title>
<g id="a_edge16_Node000015_Node000016"><a xlink:title=" ">
<path fill="none" stroke="#63b8ff" d="M201.56,-406C186.36,-406 170.53,-406 155.7,-406"/>
<polygon fill="#63b8ff" stroke="#63b8ff" points="201.96,-409.5 211.96,-406 201.96,-402.5 201.96,-409.5"/>
</a>
</g>
</g>
<!-- Node17&#45;&gt;Node15 -->
<g id="edge18_Node000017_Node000015" class="edge">
<title>Node17&#45;&gt;Node15</title>
<g id="a_edge18_Node000017_Node000015"><a xlink:title=" ">
<path fill="none" stroke="#63b8ff" d="M382.59,-392.31C370.82,-393.89 358.74,-395.51 347.21,-397.06"/>
<polygon fill="#63b8ff" stroke="#63b8ff" points="383.4,-395.73 392.85,-390.94 382.47,-388.8 383.4,-395.73"/>
</a>
</g>
</g>
<!-- Node18&#45;&gt;Node9 -->
<g id="edge20_Node000018_Node000009" class="edge">
<title>Node18&#45;&gt;Node9</title>
<g id="a_edge20_Node000018_Node000009"><a xlink:title=" ">
<path fill="none" stroke="#63b8ff" d="M375.73,-502.31C366.05,-504.29 356.32,-506.23 347,-508 282.2,-520.31 207.88,-532.49 155.7,-540.73"/>
<polygon fill="#63b8ff" stroke="#63b8ff" points="376.69,-505.68 385.77,-500.23 375.27,-498.83 376.69,-505.68"/>
</a>
</g>
</g>
<!-- Node19 -->
<g id="Node000019" class="node">
<title>Node19</title>
<g id="a_Node000019"><a xlink:href="classnetspeak_1_1invertedindex_1_1SortedInput.html#a6aff15206149d6721ea2bbd44a1aebd6" target="_top" xlink:title=" ">
<polygon fill="white" stroke="#666666" points="347,-499 212,-499 212,-469 347,-469 347,-499"/>
<text text-anchor="start" x="220" y="-487" font-family="Helvetica,sans-Serif" font-size="10.00">netspeak::invertedindex</text>
<text text-anchor="middle" x="279.5" y="-476" font-family="Helvetica,sans-Serif" font-size="10.00">::SortedInput::insert_</text>
</a>
</g>
</g>
<!-- Node18&#45;&gt;Node19 -->
<g id="edge21_Node000018_Node000019" class="edge">
<title>Node18&#45;&gt;Node19</title>
<g id="a_edge21_Node000018_Node000019"><a xlink:title=" ">
<path fill="none" stroke="#63b8ff" d="M375.62,-484C366.09,-484 356.46,-484 347.19,-484"/>
<polygon fill="#63b8ff" stroke="#63b8ff" points="375.92,-487.5 385.92,-484 375.92,-480.5 375.92,-487.5"/>
</a>
</g>
</g>
<!-- Node21 -->
<g id="Node000021" class="node">
<title>Node21</title>
<g id="a_Node000021"><a xlink:href="classnetspeak_1_1invertedindex_1_1StorageReader.html#ae8e5014b12b2679b1bd8d46f7dcc2076" target="_top" xlink:title=" ">
<polygon fill="white" stroke="#666666" points="755,-361 574,-361 574,-331 755,-331 755,-361"/>
<text text-anchor="start" x="582" y="-349" font-family="Helvetica,sans-Serif" font-size="10.00">netspeak::invertedindex</text>
<text text-anchor="middle" x="664.5" y="-338" font-family="Helvetica,sans-Serif" font-size="10.00">::StorageReader::~StorageReader</text>
</a>
</g>
</g>
<!-- Node20&#45;&gt;Node21 -->
<g id="edge23_Node000020_Node000021" class="edge">
<title>Node20&#45;&gt;Node21</title>
<g id="a_edge23_Node000020_Node000021"><a xlink:title=" ">
<path fill="none" stroke="#63b8ff" d="M794.7,-349.14C781.8,-348.82 768.31,-348.5 755.13,-348.18"/>
<polygon fill="#63b8ff" stroke="#63b8ff" points="794.82,-352.64 804.9,-349.38 794.99,-345.64 794.82,-352.64"/>
</a>
</g>
</g>
<!-- Node22&#45;&gt;Node8 -->
<g id="edge26_Node000022_Node000008" class="edge">
<title>Node22&#45;&gt;Node8</title>
<g id="a_edge26_Node000022_Node000008"><a xlink:title=" ">
<path fill="none" stroke="#63b8ff" d="M797.06,-593C783.14,-595.71 768.67,-598.2 755,-600 640.53,-615.06 300.4,-630.32 155.54,-636.33"/>
<polygon fill="#63b8ff" stroke="#63b8ff" points="797.96,-596.39 807.08,-591 796.59,-589.53 797.96,-596.39"/>
</a>
</g>
</g>
<!-- Node23 -->
<g id="Node000023" class="node">
<title>Node23</title>
<g id="a_Node000023"><a xlink:href="classnetspeak_1_1invertedindex_1_1UnsortedInput.html#abb4d4db8952dbc7771f13d7ea978ada7" target="_top" xlink:title=" ">
<polygon fill="white" stroke="#666666" points="732.5,-591 596.5,-591 596.5,-561 732.5,-561 732.5,-591"/>
<text text-anchor="start" x="604.5" y="-579" font-family="Helvetica,sans-Serif" font-size="10.00">netspeak::invertedindex</text>
<text text-anchor="middle" x="664.5" y="-568" font-family="Helvetica,sans-Serif" font-size="10.00">::UnsortedInput::rehash_</text>
</a>
</g>
</g>
<!-- Node22&#45;&gt;Node23 -->
<g id="edge27_Node000022_Node000023" class="edge">
<title>Node22&#45;&gt;Node23</title>
<g id="a_edge27_Node000022_Node000023"><a xlink:title=" ">
<path fill="none" stroke="#63b8ff" d="M794.7,-576C774.29,-576 752.42,-576 732.57,-576"/>
<polygon fill="#63b8ff" stroke="#63b8ff" points="794.9,-579.5 804.9,-576 794.9,-572.5 794.9,-579.5"/>
</a>
</g>
</g>
<!-- Node24 -->
<g id="Node000024" class="node">
<title>Node24</title>
<g id="a_Node000024"><a xlink:href="classnetspeak_1_1invertedindex_1_1UnsortedInput.html#a14d1dabae0597d0f84e11d9f97eda34e" target="_top" xlink:title=" ">
<polygon fill="white" stroke="#666666" points="528,-591 393,-591 393,-561 528,-561 528,-591"/>
<text text-anchor="start" x="401" y="-579" font-family="Helvetica,sans-Serif" font-size="10.00">netspeak::invertedindex</text>
<text text-anchor="middle" x="460.5" y="-568" font-family="Helvetica,sans-Serif" font-size="10.00">::UnsortedInput::insert_</text>
</a>
</g>
</g>
<!-- Node23&#45;&gt;Node24 -->
<g id="edge28_Node000023_Node000024" class="edge">
<title>Node23&#45;&gt;Node24</title>
<g id="a_edge28_Node000023_Node000024"><a xlink:title=" ">
<path fill="none" stroke="#63b8ff" d="M586.07,-576C566.96,-576 546.67,-576 528.13,-576"/>
<polygon fill="#63b8ff" stroke="#63b8ff" points="586.24,-579.5 596.24,-576 586.24,-572.5 586.24,-579.5"/>
</a>
</g>
</g>
<!-- Node26&#45;&gt;Node8 -->
<g id="edge31_Node000026_Node000008" class="edge">
<title>Node26&#45;&gt;Node8</title>
<g id="a_edge31_Node000026_Node000008"><a xlink:title=" ">
<path fill="none" stroke="#63b8ff" d="M201.99,-650.93C186.66,-649.31 170.67,-647.62 155.7,-646.04"/>
<polygon fill="#63b8ff" stroke="#63b8ff" points="201.64,-654.41 211.96,-651.98 202.38,-647.45 201.64,-654.41"/>
</a>
</g>
</g>
<!-- Node29 -->
<g id="Node000029" class="node">
<title>Node29</title>
<g id="a_Node000029"><a xlink:href="classnetspeak_1_1invertedindex_1_1Searcher.html#a89859cbc571a9e0ff7ff6830cb21ce72" target="_top" xlink:title=" ">
<polygon fill="white" stroke="#666666" points="732,-222 597,-222 597,-192 732,-192 732,-222"/>
<text text-anchor="start" x="605" y="-210" font-family="Helvetica,sans-Serif" font-size="10.00">netspeak::invertedindex</text>
<text text-anchor="middle" x="664.5" y="-199" font-family="Helvetica,sans-Serif" font-size="10.00">::Searcher::Searcher</text>
</a>
</g>
</g>
<!-- Node28&#45;&gt;Node29 -->
<g id="edge35_Node000028_Node000029" class="edge">
<title>Node28&#45;&gt;Node29</title>
<g id="a_edge35_Node000028_Node000029"><a xlink:title=" ">
<path fill="none" stroke="#63b8ff" d="M794.65,-207C774.14,-207 752.14,-207 732.22,-207"/>
<polygon fill="#63b8ff" stroke="#63b8ff" points="794.9,-210.5 804.9,-207 794.9,-203.5 794.9,-210.5"/>
</a>
</g>
</g>
<!-- Node31&#45;&gt;Node23 -->
<g id="edge38_Node000031_Node000023" class="edge">
<title>Node31&#45;&gt;Node23</title>
<g id="a_edge38_Node000031_Node000023"><a xlink:title=" ">
<path fill="none" stroke="#63b8ff" d="M796.94,-545.37C774.98,-550.49 751.15,-556.04 729.89,-561"/>
<polygon fill="#63b8ff" stroke="#63b8ff" points="797.94,-548.73 806.89,-543.06 796.35,-541.92 797.94,-548.73"/>
</a>
</g>
</g>
<!-- Node32 -->
<g id="Node000032" class="node">
<title>Node32</title>
<g id="a_Node000032"><a xlink:href="classnetspeak_1_1invertedindex_1_1UnsortedInput.html#a08ef9014c5622dbb729cf8c12ffc92fc" target="_top" xlink:title=" ">
<polygon fill="white" stroke="#666666" points="748,-543 581,-543 581,-513 748,-513 748,-543"/>
<text text-anchor="start" x="589" y="-531" font-family="Helvetica,sans-Serif" font-size="10.00">netspeak::invertedindex</text>
<text text-anchor="middle" x="664.5" y="-520" font-family="Helvetica,sans-Serif" font-size="10.00">::UnsortedInput::UnsortedInput</text>
</a>
</g>
</g>
<!-- Node31&#45;&gt;Node32 -->
<g id="edge39_Node000031_Node000032" class="edge">
<title>Node31&#45;&gt;Node32</title>
<g id="a_edge39_Node000031_Node000032"><a xlink:title=" ">
<path fill="none" stroke="#63b8ff" d="M794.56,-528C779.4,-528 763.44,-528 748.1,-528"/>
<polygon fill="#63b8ff" stroke="#63b8ff" points="794.9,-531.5 804.9,-528 794.9,-524.5 794.9,-531.5"/>
</a>
</g>
</g>
<!-- Node34 -->
<g id="Node000034" class="node">
<title>Node34</title>
<g id="a_Node000034"><a xlink:href="classnetspeak_1_1invertedindex_1_1Indexer.html#a01a9448341a44ad65f23452dd8487961" target="_top" xlink:title=" ">
<polygon fill="white" stroke="#666666" points="732,-126 597,-126 597,-96 732,-96 732,-126"/>
<text text-anchor="start" x="605" y="-114" font-family="Helvetica,sans-Serif" font-size="10.00">netspeak::invertedindex</text>
<text text-anchor="middle" x="664.5" y="-103" font-family="Helvetica,sans-Serif" font-size="10.00">::Indexer::index</text>
</a>
</g>
</g>
<!-- Node33&#45;&gt;Node34 -->
<g id="edge41_Node000033_Node000034" class="edge">
<title>Node33&#45;&gt;Node34</title>
<g id="a_edge41_Node000033_Node000034"><a xlink:title=" ">
<path fill="none" stroke="#63b8ff" d="M794.65,-111C774.14,-111 752.14,-111 732.22,-111"/>
<polygon fill="#63b8ff" stroke="#63b8ff" points="794.9,-114.5 804.9,-111 794.9,-107.5 794.9,-114.5"/>
</a>
</g>
</g>
<!-- Node35 -->
<g id="Node000035" class="node">
<title>Node35</title>
<g id="a_Node000035"><a xlink:href="namespacenetspeak.html#af42806304a02200d2a12099b3b54f35d" target="_top" xlink:title=" ">
<polygon fill="white" stroke="#666666" points="538,-99.5 383,-99.5 383,-80.5 538,-80.5 538,-99.5"/>
<text text-anchor="middle" x="460.5" y="-87.5" font-family="Helvetica,sans-Serif" font-size="10.00">netspeak::BuildPostlistIndex</text>
</a>
</g>
</g>
<!-- Node34&#45;&gt;Node35 -->
<g id="edge42_Node000034_Node000035" class="edge">
<title>Node34&#45;&gt;Node35</title>
<g id="a_edge42_Node000034_Node000035"><a xlink:title=" ">
<path fill="none" stroke="#63b8ff" d="M586.54,-103C570.73,-101.36 554.09,-99.63 538.28,-97.98"/>
<polygon fill="#63b8ff" stroke="#63b8ff" points="586.49,-106.51 596.8,-104.07 587.21,-99.55 586.49,-106.51"/>
</a>
</g>
</g>
<!-- Node36 -->
<g id="Node000036" class="node">
<title>Node36</title>
<g id="a_Node000036"><a xlink:href="classnetspeak_1_1invertedindex_1_1ManagedIndexer.html#ac43570be49a3700fc731358ffc45919d" target="_top" xlink:title=" ">
<polygon fill="white" stroke="#666666" points="529,-148 392,-148 392,-118 529,-118 529,-148"/>
<text text-anchor="start" x="400" y="-136" font-family="Helvetica,sans-Serif" font-size="10.00">netspeak::invertedindex</text>
<text text-anchor="middle" x="460.5" y="-125" font-family="Helvetica,sans-Serif" font-size="10.00">::ManagedIndexer::index</text>
</a>
</g>
</g>
<!-- Node34&#45;&gt;Node36 -->
<g id="edge43_Node000034_Node000036" class="edge">
<title>Node34&#45;&gt;Node36</title>
<g id="a_edge43_Node000034_Node000036"><a xlink:title=" ">
<path fill="none" stroke="#63b8ff" d="M586.72,-119.36C567.78,-121.42 547.64,-123.62 529.17,-125.63"/>
<polygon fill="#63b8ff" stroke="#63b8ff" points="587.24,-122.83 596.8,-118.26 586.48,-115.87 587.24,-122.83"/>
</a>
</g>
</g>
<!-- Node37&#45;&gt;Node18 -->
<g id="edge47_Node000037_Node000018" class="edge">
<title>Node37&#45;&gt;Node18</title>
<g id="a_edge47_Node000037_Node000018"><a xlink:title=" ">
<path fill="none" stroke="#63b8ff" d="M586.45,-481.53C569.6,-481.86 551.81,-482.21 535.1,-482.54"/>
<polygon fill="#63b8ff" stroke="#63b8ff" points="586.87,-485.02 596.8,-481.32 586.73,-478.02 586.87,-485.02"/>
</a>
</g>
</g>
<!-- Node38 -->
<g id="Node000038" class="node">
<title>Node38</title>
<g id="a_Node000038"><a xlink:href="classnetspeak_1_1invertedindex_1_1UnsortedInput.html#a7e52c2f2d76a1897a5ec1ebf05744dbb" target="_top" xlink:title=" ">
<polygon fill="white" stroke="#666666" points="347,-588 212,-588 212,-558 347,-558 347,-588"/>
<text text-anchor="start" x="220" y="-576" font-family="Helvetica,sans-Serif" font-size="10.00">netspeak::invertedindex</text>
<text text-anchor="middle" x="279.5" y="-565" font-family="Helvetica,sans-Serif" font-size="10.00">::UnsortedInput::store</text>
</a>
</g>
</g>
<!-- Node37&#45;&gt;Node38 -->
<g id="edge45_Node000037_Node000038" class="edge">
<title>Node37&#45;&gt;Node38</title>
<g id="a_edge45_Node000037_Node000038"><a xlink:title=" ">
<path fill="none" stroke="#63b8ff" d="M597.26,-497.69C589.42,-499.81 581.53,-501.94 574,-504 557.98,-508.37 554.1,-509.92 538,-514 473.42,-530.36 399.23,-547.15 347.12,-558.61"/>
<polygon fill="#63b8ff" stroke="#63b8ff" points="598.4,-501.01 607.14,-495.03 596.58,-494.25 598.4,-501.01"/>
</a>
</g>
</g>
<!-- Node38&#45;&gt;Node8 -->
<g id="edge46_Node000038_Node000008" class="edge">
<title>Node38&#45;&gt;Node8</title>
<g id="a_edge46_Node000038_Node000008"><a xlink:title=" ">
<path fill="none" stroke="#63b8ff" d="M225.34,-591.52C195.96,-601.75 159.92,-614.3 132.27,-623.93"/>
<polygon fill="#63b8ff" stroke="#63b8ff" points="226.73,-594.74 235.02,-588.14 224.43,-588.13 226.73,-594.74"/>
</a>
</g>
</g>
</g>
</svg>
