<?xml version="1.0" encoding="UTF-8" standalone="no"?>
<!DOCTYPE svg PUBLIC "-//W3C//DTD SVG 1.1//EN"
 "http://www.w3.org/Graphics/SVG/1.1/DTD/svg11.dtd">
<!-- Generated by graphviz version 2.43.0 (0)
 -->
<!-- Title: netspeak::model::operator&lt;&lt; Pages: 1 -->
<svg width="367pt" height="86pt"
 viewBox="0.00 0.00 367.00 86.00" xmlns="http://www.w3.org/2000/svg" xmlns:xlink="http://www.w3.org/1999/xlink">
<g id="graph0" class="graph" transform="scale(1 1) rotate(0) translate(4 82)">
<title>netspeak::model::operator&lt;&lt;</title>
<!-- Node1 -->
<g id="Node000001" class="node">
<title>Node1</title>
<g id="a_Node000001"><a xlink:title=" ">
<polygon fill="#999999" stroke="#666666" points="162,-48.5 0,-48.5 0,-29.5 162,-29.5 162,-48.5"/>
<text text-anchor="middle" x="81" y="-36.5" font-family="Helvetica,sans-Serif" font-size="10.00">netspeak::model::operator&lt;&lt;</text>
</a>
</g>
</g>
<!-- Node2 -->
<g id="Node000002" class="node">
<title>Node2</title>
<g id="a_Node000002"><a xlink:href="classnetspeak_1_1model_1_1NormQueryUnit____.html#acfa30079a8434df0560b0930cc185d51" target="_top" xlink:title=" ">
<polygon fill="white" stroke="#666666" points="359,-78 198,-78 198,-48 359,-48 359,-78"/>
<text text-anchor="start" x="206" y="-66" font-family="Helvetica,sans-Serif" font-size="10.00">netspeak::model::NormQuery</text>
<text text-anchor="middle" x="278.5" y="-55" font-family="Helvetica,sans-Serif" font-size="10.00">Unit__::tag</text>
</a>
</g>
</g>
<!-- Node1&#45;&gt;Node2 -->
<g id="edge1_Node000001_Node000002" class="edge">
<title>Node1&#45;&gt;Node2</title>
<g id="a_edge1_Node000001_Node000002"><a xlink:title=" ">
<path fill="none" stroke="#63b8ff" d="M159.55,-48.52C168.79,-49.65 178.28,-50.82 187.67,-51.97"/>
<polygon fill="#63b8ff" stroke="#63b8ff" points="187.45,-55.47 197.8,-53.22 188.3,-48.52 187.45,-55.47"/>
</a>
</g>
</g>
<!-- Node3 -->
<g id="Node000003" class="node">
<title>Node3</title>
<g id="a_Node000003"><a xlink:href="classnetspeak_1_1model_1_1NormQueryUnit____.html#a7f11cf1d3effc88caf0fa666fd472878" target="_top" xlink:title=" ">
<polygon fill="white" stroke="#666666" points="359,-30 198,-30 198,0 359,0 359,-30"/>
<text text-anchor="start" x="206" y="-18" font-family="Helvetica,sans-Serif" font-size="10.00">netspeak::model::NormQuery</text>
<text text-anchor="middle" x="278.5" y="-7" font-family="Helvetica,sans-Serif" font-size="10.00">Unit__::text</text>
</a>
</g>
</g>
<!-- Node1&#45;&gt;Node3 -->
<g id="edge2_Node000001_Node000003" class="edge">
<title>Node1&#45;&gt;Node3</title>
<g id="a_edge2_Node000001_Node000003"><a xlink:title=" ">
<path fill="none" stroke="#63b8ff" d="M159.55,-29.48C168.79,-28.35 178.28,-27.18 187.67,-26.03"/>
<polygon fill="#63b8ff" stroke="#63b8ff" points="188.3,-29.48 197.8,-24.78 187.45,-22.53 188.3,-29.48"/>
</a>
</g>
</g>
</g>
</svg>
