<?xml version="1.0" encoding="UTF-8" standalone="no"?>
<!DOCTYPE svg PUBLIC "-//W3C//DTD SVG 1.1//EN"
 "http://www.w3.org/Graphics/SVG/1.1/DTD/svg11.dtd">
<!-- Generated by graphviz version 2.43.0 (0)
 -->
<!-- Title: netspeak::util::__properties_format_impl::consume_spaces Pages: 1 -->
<svg width="513pt" height="59pt"
 viewBox="0.00 0.00 513.00 59.00" xmlns="http://www.w3.org/2000/svg" xmlns:xlink="http://www.w3.org/1999/xlink">
<g id="graph0" class="graph" transform="scale(1 1) rotate(0) translate(4 55)">
<title>netspeak::util::__properties_format_impl::consume_spaces</title>
<!-- Node1 -->
<g id="Node000001" class="node">
<title>Node1</title>
<g id="a_Node000001"><a xlink:title="Consumes any number of spaces and tabs.">
<polygon fill="#999999" stroke="#666666" points="171,-51 0,-51 0,-21 171,-21 171,-51"/>
<text text-anchor="start" x="8" y="-39" font-family="Helvetica,sans-Serif" font-size="10.00">netspeak::util::__properties</text>
<text text-anchor="middle" x="85.5" y="-28" font-family="Helvetica,sans-Serif" font-size="10.00">_format_impl::consume_spaces</text>
</a>
</g>
</g>
<!-- Node2 -->
<g id="Node000002" class="node">
<title>Node2</title>
<g id="a_Node000002"><a xlink:href="namespacenetspeak_1_1util.html#a4c91ad572508b4021399ac7dddff574d" target="_top" xlink:title=" ">
<polygon fill="white" stroke="#666666" points="505,-45.5 392,-45.5 392,-26.5 505,-26.5 505,-45.5"/>
<text text-anchor="middle" x="448.5" y="-33.5" font-family="Helvetica,sans-Serif" font-size="10.00">netspeak::util::hash</text>
</a>
</g>
</g>
<!-- Node1&#45;&gt;Node2 -->
<g id="edge1_Node000001_Node000002" class="edge">
<title>Node1&#45;&gt;Node2</title>
<g id="a_edge1_Node000001_Node000002"><a xlink:title=" ">
<path fill="none" stroke="#63b8ff" d="M171.09,-38.37C183.15,-38.63 195.39,-38.86 207,-39 273.22,-39.82 289.79,-40.09 356,-39 364.34,-38.86 373.1,-38.66 381.77,-38.41"/>
<polygon fill="#63b8ff" stroke="#63b8ff" points="381.97,-41.91 391.86,-38.12 381.76,-34.91 381.97,-41.91"/>
</a>
</g>
</g>
<!-- Node3 -->
<g id="Node000003" class="node">
<title>Node3</title>
<g id="a_Node000003"><a xlink:href="namespacenetspeak_1_1util_1_1____properties__format__impl.html#aa1caae33d5ecb274023b62bc9244f942" target="_top" xlink:title=" ">
<polygon fill="white" stroke="#666666" points="356,-30 207,-30 207,0 356,0 356,-30"/>
<text text-anchor="start" x="215" y="-18" font-family="Helvetica,sans-Serif" font-size="10.00">netspeak::util::__properties</text>
<text text-anchor="middle" x="281.5" y="-7" font-family="Helvetica,sans-Serif" font-size="10.00">_format_impl::is_space</text>
</a>
</g>
</g>
<!-- Node1&#45;&gt;Node3 -->
<g id="edge2_Node000001_Node000003" class="edge">
<title>Node1&#45;&gt;Node3</title>
<g id="a_edge2_Node000001_Node000003"><a xlink:title=" ">
<path fill="none" stroke="#63b8ff" d="M171.03,-26.85C179.61,-25.92 188.33,-24.98 196.91,-24.05"/>
<polygon fill="#63b8ff" stroke="#63b8ff" points="197.33,-27.52 206.9,-22.97 196.58,-20.56 197.33,-27.52"/>
</a>
</g>
</g>
<!-- Node3&#45;&gt;Node2 -->
<g id="edge3_Node000003_Node000002" class="edge">
<title>Node3&#45;&gt;Node2</title>
<g id="a_edge3_Node000003_Node000002"><a xlink:title=" ">
<path fill="none" stroke="#63b8ff" d="M356.31,-24.39C364.73,-25.47 373.27,-26.55 381.58,-27.61"/>
<polygon fill="#63b8ff" stroke="#63b8ff" points="381.21,-31.09 391.57,-28.88 382.09,-24.15 381.21,-31.09"/>
</a>
</g>
</g>
</g>
</svg>
