<?xml version="1.0" encoding="UTF-8" standalone="no"?>
<!DOCTYPE svg PUBLIC "-//W3C//DTD SVG 1.1//EN"
 "http://www.w3.org/Graphics/SVG/1.1/DTD/svg11.dtd">
<!-- Generated by graphviz version 2.43.0 (0)
 -->
<!-- Title: netspeak::util::fwrite Pages: 1 -->
<svg width="1065pt" height="275pt"
 viewBox="0.00 0.00 1065.00 275.00" xmlns="http://www.w3.org/2000/svg" xmlns:xlink="http://www.w3.org/1999/xlink">
<g id="graph0" class="graph" transform="scale(1 1) rotate(0) translate(4 271)">
<title>netspeak::util::fwrite</title>
<!-- Node1 -->
<g id="Node000001" class="node">
<title>Node1</title>
<g id="a_Node000001"><a xlink:title=" ">
<polygon fill="#999999" stroke="#666666" points="1057,-117.5 940,-117.5 940,-98.5 1057,-98.5 1057,-117.5"/>
<text text-anchor="middle" x="998.5" y="-105.5" font-family="Helvetica,sans-Serif" font-size="10.00">netspeak::util::fwrite</text>
</a>
</g>
</g>
<!-- Node2 -->
<g id="Node000002" class="node">
<title>Node2</title>
<g id="a_Node000002"><a xlink:href="classnetspeak_1_1bighashmap_1_1Builder.html#a333ad1bb51cee1f0177b6b631148a423" target="_top" xlink:title=" ">
<polygon fill="white" stroke="#666666" points="904,-219 766,-219 766,-189 904,-189 904,-219"/>
<text text-anchor="start" x="774" y="-207" font-family="Helvetica,sans-Serif" font-size="10.00">netspeak::bighashmap</text>
<text text-anchor="middle" x="835" y="-196" font-family="Helvetica,sans-Serif" font-size="10.00">::Builder::BuildHashTable</text>
</a>
</g>
</g>
<!-- Node1&#45;&gt;Node2 -->
<g id="edge1_Node000001_Node000002" class="edge">
<title>Node1&#45;&gt;Node2</title>
<g id="a_edge1_Node000001_Node000002"><a xlink:title=" ">
<path fill="none" stroke="#63b8ff" d="M979.43,-124.74C961.44,-140.7 932.47,-164.53 904,-180 897.95,-183.29 891.36,-186.27 884.74,-188.93"/>
<polygon fill="#63b8ff" stroke="#63b8ff" points="982.25,-126.91 987.33,-117.61 977.56,-121.71 982.25,-126.91"/>
</a>
</g>
</g>
<!-- Node11 -->
<g id="Node000011" class="node">
<title>Node11</title>
<g id="a_Node000011"><a xlink:href="structnetspeak_1_1invertedindex_1_1Properties.html#a87ba24f5097e993de6077cebcf4f5f3a" target="_top" xlink:title=" ">
<polygon fill="white" stroke="#666666" points="902.5,-123 767.5,-123 767.5,-93 902.5,-93 902.5,-123"/>
<text text-anchor="start" x="775.5" y="-111" font-family="Helvetica,sans-Serif" font-size="10.00">netspeak::invertedindex</text>
<text text-anchor="middle" x="835" y="-100" font-family="Helvetica,sans-Serif" font-size="10.00">::Properties::write</text>
</a>
</g>
</g>
<!-- Node1&#45;&gt;Node11 -->
<g id="edge10_Node000001_Node000011" class="edge">
<title>Node1&#45;&gt;Node11</title>
<g id="a_edge10_Node000001_Node000011"><a xlink:title=" ">
<path fill="none" stroke="#63b8ff" d="M929.63,-108C920.66,-108 911.47,-108 902.51,-108"/>
<polygon fill="#63b8ff" stroke="#63b8ff" points="929.65,-111.5 939.65,-108 929.65,-104.5 929.65,-111.5"/>
</a>
</g>
</g>
<!-- Node15 -->
<g id="Node000015" class="node">
<title>Node15</title>
<g id="a_Node000015"><a xlink:href="classnetspeak_1_1invertedindex_1_1RawPostlist.html#a8a1f20f0a3701426a49832d0c34637d8" target="_top" xlink:title=" ">
<polygon fill="white" stroke="#666666" points="902.5,-171 767.5,-171 767.5,-141 902.5,-141 902.5,-171"/>
<text text-anchor="start" x="775.5" y="-159" font-family="Helvetica,sans-Serif" font-size="10.00">netspeak::invertedindex</text>
<text text-anchor="middle" x="835" y="-148" font-family="Helvetica,sans-Serif" font-size="10.00">::RawPostlist::write</text>
</a>
</g>
</g>
<!-- Node1&#45;&gt;Node15 -->
<g id="edge14_Node000001_Node000015" class="edge">
<title>Node1&#45;&gt;Node15</title>
<g id="a_edge14_Node000001_Node000015"><a xlink:title=" ">
<path fill="none" stroke="#63b8ff" d="M955.58,-120.46C934.52,-126.72 908.84,-134.35 886.68,-140.94"/>
<polygon fill="#63b8ff" stroke="#63b8ff" points="956.62,-123.8 965.21,-117.6 954.62,-117.09 956.62,-123.8"/>
</a>
</g>
</g>
<!-- Node20 -->
<g id="Node000020" class="node">
<title>Node20</title>
<g id="a_Node000020"><a xlink:href="classnetspeak_1_1invertedindex_1_1ByteBuffer.html#aa1d97fc0d4ab34140ed20f41ad28ec49" target="_top" xlink:title=" ">
<polygon fill="white" stroke="#666666" points="902.5,-75 767.5,-75 767.5,-45 902.5,-45 902.5,-75"/>
<text text-anchor="start" x="775.5" y="-63" font-family="Helvetica,sans-Serif" font-size="10.00">netspeak::invertedindex</text>
<text text-anchor="middle" x="835" y="-52" font-family="Helvetica,sans-Serif" font-size="10.00">::ByteBuffer::write</text>
</a>
</g>
</g>
<!-- Node1&#45;&gt;Node20 -->
<g id="edge21_Node000001_Node000020" class="edge">
<title>Node1&#45;&gt;Node20</title>
<g id="a_edge21_Node000001_Node000020"><a xlink:title=" ">
<path fill="none" stroke="#63b8ff" d="M955.58,-95.54C934.52,-89.28 908.84,-81.65 886.68,-75.06"/>
<polygon fill="#63b8ff" stroke="#63b8ff" points="954.62,-98.91 965.21,-98.4 956.62,-92.2 954.62,-98.91"/>
</a>
</g>
</g>
<!-- Node22 -->
<g id="Node000022" class="node">
<title>Node22</title>
<g id="a_Node000022"><a xlink:href="structnetspeak_1_1invertedindex_1_1variable__size__iter.html#ac34d912dfd281b76d060021c24c9fc63" target="_top" xlink:title=" ">
<polygon fill="white" stroke="#666666" points="729,-30 589,-30 589,0 729,0 729,-30"/>
<text text-anchor="start" x="597" y="-18" font-family="Helvetica,sans-Serif" font-size="10.00">netspeak::invertedindex</text>
<text text-anchor="middle" x="659" y="-7" font-family="Helvetica,sans-Serif" font-size="10.00">::variable_size_iter::write</text>
</a>
</g>
</g>
<!-- Node1&#45;&gt;Node22 -->
<g id="edge24_Node000001_Node000022" class="edge">
<title>Node1&#45;&gt;Node22</title>
<g id="a_edge24_Node000001_Node000022"><a xlink:title=" ">
<path fill="none" stroke="#63b8ff" d="M981.78,-91.2C964.53,-74 935.13,-48.11 904,-36 847.93,-14.19 779.3,-10.07 729.12,-10.75"/>
<polygon fill="#63b8ff" stroke="#63b8ff" points="979.32,-93.7 988.81,-98.41 984.34,-88.81 979.32,-93.7"/>
</a>
</g>
</g>
<!-- Node3 -->
<g id="Node000003" class="node">
<title>Node3</title>
<g id="a_Node000003"><a xlink:href="classnetspeak_1_1bighashmap_1_1Builder.html#a8435164185bac78bacf97c66e78b9a27" target="_top" xlink:title=" ">
<polygon fill="white" stroke="#666666" points="723,-219 595,-219 595,-189 723,-189 723,-219"/>
<text text-anchor="start" x="603" y="-207" font-family="Helvetica,sans-Serif" font-size="10.00">netspeak::bighashmap</text>
<text text-anchor="middle" x="659" y="-196" font-family="Helvetica,sans-Serif" font-size="10.00">::Builder::BuildMap</text>
</a>
</g>
</g>
<!-- Node2&#45;&gt;Node3 -->
<g id="edge2_Node000002_Node000003" class="edge">
<title>Node2&#45;&gt;Node3</title>
<g id="a_edge2_Node000002_Node000003"><a xlink:title=" ">
<path fill="none" stroke="#63b8ff" d="M755.46,-204C744.68,-204 733.71,-204 723.25,-204"/>
<polygon fill="#63b8ff" stroke="#63b8ff" points="755.73,-207.5 765.73,-204 755.73,-200.5 755.73,-207.5"/>
</a>
</g>
</g>
<!-- Node4 -->
<g id="Node000004" class="node">
<title>Node4</title>
<g id="a_Node000004"><a xlink:href="classnetspeak_1_1bighashmap_1_1Builder.html#a66906e74a9afa4707cfb7c999c0c635a" target="_top" xlink:title=" ">
<polygon fill="white" stroke="#666666" points="538.5,-219 410.5,-219 410.5,-189 538.5,-189 538.5,-219"/>
<text text-anchor="start" x="418.5" y="-207" font-family="Helvetica,sans-Serif" font-size="10.00">netspeak::bighashmap</text>
<text text-anchor="middle" x="474.5" y="-196" font-family="Helvetica,sans-Serif" font-size="10.00">::Builder::Build</text>
</a>
</g>
</g>
<!-- Node3&#45;&gt;Node4 -->
<g id="edge3_Node000003_Node000004" class="edge">
<title>Node3&#45;&gt;Node4</title>
<g id="a_edge3_Node000003_Node000004"><a xlink:title=" ">
<path fill="none" stroke="#63b8ff" d="M584.53,-204C569.3,-204 553.38,-204 538.56,-204"/>
<polygon fill="#63b8ff" stroke="#63b8ff" points="584.94,-207.5 594.94,-204 584.94,-200.5 584.94,-207.5"/>
</a>
</g>
</g>
<!-- Node5 -->
<g id="Node000005" class="node">
<title>Node5</title>
<g id="a_Node000005"><a xlink:href="classnetspeak_1_1bighashmap_1_1BigHashMap.html#a962d40196fcce78f1ddef98eb3d8344c" target="_top" xlink:title=" ">
<polygon fill="white" stroke="#666666" points="350.5,-267 222.5,-267 222.5,-237 350.5,-237 350.5,-267"/>
<text text-anchor="start" x="230.5" y="-255" font-family="Helvetica,sans-Serif" font-size="10.00">netspeak::bighashmap</text>
<text text-anchor="middle" x="286.5" y="-244" font-family="Helvetica,sans-Serif" font-size="10.00">::BigHashMap::Build</text>
</a>
</g>
</g>
<!-- Node4&#45;&gt;Node5 -->
<g id="edge4_Node000004_Node000005" class="edge">
<title>Node4&#45;&gt;Node5</title>
<g id="a_edge4_Node000004_Node000005"><a xlink:title=" ">
<path fill="none" stroke="#63b8ff" d="M405.38,-221.58C385.77,-226.64 364.58,-232.11 345.63,-237"/>
<polygon fill="#63b8ff" stroke="#63b8ff" points="406.35,-224.94 415.16,-219.06 404.6,-218.17 406.35,-224.94"/>
</a>
</g>
</g>
<!-- Node7 -->
<g id="Node000007" class="node">
<title>Node7</title>
<g id="a_Node000007"><a xlink:href="classnetspeak_1_1invertedindex_1_1StorageWriter.html#a504b8f6d78f6946fcdb5ee52b85348ce" target="_top" xlink:title=" ">
<polygon fill="white" stroke="#666666" points="354,-219 219,-219 219,-189 354,-189 354,-219"/>
<text text-anchor="start" x="227" y="-207" font-family="Helvetica,sans-Serif" font-size="10.00">netspeak::invertedindex</text>
<text text-anchor="middle" x="286.5" y="-196" font-family="Helvetica,sans-Serif" font-size="10.00">::StorageWriter::close</text>
</a>
</g>
</g>
<!-- Node4&#45;&gt;Node7 -->
<g id="edge6_Node000004_Node000007" class="edge">
<title>Node4&#45;&gt;Node7</title>
<g id="a_edge6_Node000004_Node000007"><a xlink:title=" ">
<path fill="none" stroke="#63b8ff" d="M399.92,-204C384.78,-204 368.92,-204 354.05,-204"/>
<polygon fill="#63b8ff" stroke="#63b8ff" points="400.27,-207.5 410.27,-204 400.27,-200.5 400.27,-207.5"/>
</a>
</g>
</g>
<!-- Node6 -->
<g id="Node000006" class="node">
<title>Node6</title>
<g id="a_Node000006"><a xlink:href="namespacenetspeak.html#a84f2fcf7a89eca20f721ce3c30b85001" target="_top" xlink:title=" ">
<polygon fill="white" stroke="#666666" points="176,-261.5 0,-261.5 0,-242.5 176,-242.5 176,-261.5"/>
<text text-anchor="middle" x="88" y="-249.5" font-family="Helvetica,sans-Serif" font-size="10.00">netspeak::BuildPhraseDictionary</text>
</a>
</g>
</g>
<!-- Node5&#45;&gt;Node6 -->
<g id="edge5_Node000005_Node000006" class="edge">
<title>Node5&#45;&gt;Node6</title>
<g id="a_edge5_Node000005_Node000006"><a xlink:title=" ">
<path fill="none" stroke="#63b8ff" d="M212.09,-252C200.36,-252 188.13,-252 176.12,-252"/>
<polygon fill="#63b8ff" stroke="#63b8ff" points="212.24,-255.5 222.24,-252 212.24,-248.5 212.24,-255.5"/>
</a>
</g>
</g>
<!-- Node8 -->
<g id="Node000008" class="node">
<title>Node8</title>
<g id="a_Node000008"><a xlink:href="classnetspeak_1_1invertedindex_1_1UnsortedInput.html#a3bf52078c65c198e542a3e16d42eff20" target="_top" xlink:title=" ">
<polygon fill="white" stroke="#666666" points="155.5,-174 20.5,-174 20.5,-144 155.5,-144 155.5,-174"/>
<text text-anchor="start" x="28.5" y="-162" font-family="Helvetica,sans-Serif" font-size="10.00">netspeak::invertedindex</text>
<text text-anchor="middle" x="88" y="-151" font-family="Helvetica,sans-Serif" font-size="10.00">::UnsortedInput::index</text>
</a>
</g>
</g>
<!-- Node7&#45;&gt;Node8 -->
<g id="edge7_Node000007_Node000008" class="edge">
<title>Node7&#45;&gt;Node8</title>
<g id="a_edge7_Node000007_Node000008"><a xlink:title=" ">
<path fill="none" stroke="#63b8ff" d="M209.82,-186.67C191.62,-182.5 172.34,-178.08 154.64,-174.03"/>
<polygon fill="#63b8ff" stroke="#63b8ff" points="209.27,-190.13 219.8,-188.95 210.83,-183.31 209.27,-190.13"/>
</a>
</g>
</g>
<!-- Node9 -->
<g id="Node000009" class="node">
<title>Node9</title>
<g id="a_Node000009"><a xlink:href="classnetspeak_1_1invertedindex_1_1SortedInput.html#ae3183e635b4fa91c0b855773b95ce99c" target="_top" xlink:title=" ">
<polygon fill="white" stroke="#666666" points="155.5,-126 20.5,-126 20.5,-96 155.5,-96 155.5,-126"/>
<text text-anchor="start" x="28.5" y="-114" font-family="Helvetica,sans-Serif" font-size="10.00">netspeak::invertedindex</text>
<text text-anchor="middle" x="88" y="-103" font-family="Helvetica,sans-Serif" font-size="10.00">::SortedInput::index</text>
</a>
</g>
</g>
<!-- Node7&#45;&gt;Node9 -->
<g id="edge8_Node000007_Node000009" class="edge">
<title>Node7&#45;&gt;Node9</title>
<g id="a_edge8_Node000007_Node000009"><a xlink:title=" ">
<path fill="none" stroke="#63b8ff" d="M219.04,-184.39C216.61,-183.02 214.25,-181.56 212,-180 190.95,-165.41 197.39,-149.09 176,-135 169.72,-130.86 162.74,-127.43 155.53,-124.59"/>
<polygon fill="#63b8ff" stroke="#63b8ff" points="217.63,-187.6 228.13,-188.97 220.78,-181.35 217.63,-187.6"/>
</a>
</g>
</g>
<!-- Node10 -->
<g id="Node000010" class="node">
<title>Node10</title>
<g id="a_Node000010"><a xlink:href="classnetspeak_1_1invertedindex_1_1StorageWriter.html#af783f33c33c210523e44c0aef00b7ccd" target="_top" xlink:title=" ">
<polygon fill="white" stroke="#666666" points="174,-222 2,-222 2,-192 174,-192 174,-222"/>
<text text-anchor="start" x="10" y="-210" font-family="Helvetica,sans-Serif" font-size="10.00">netspeak::invertedindex</text>
<text text-anchor="middle" x="88" y="-199" font-family="Helvetica,sans-Serif" font-size="10.00">::StorageWriter::~StorageWriter</text>
</a>
</g>
</g>
<!-- Node7&#45;&gt;Node10 -->
<g id="edge9_Node000007_Node000010" class="edge">
<title>Node7&#45;&gt;Node10</title>
<g id="a_edge9_Node000007_Node000010"><a xlink:title=" ">
<path fill="none" stroke="#63b8ff" d="M208.73,-205.17C197.43,-205.34 185.73,-205.52 174.27,-205.7"/>
<polygon fill="#63b8ff" stroke="#63b8ff" points="209.03,-208.67 218.97,-205.02 208.92,-201.67 209.03,-208.67"/>
</a>
</g>
</g>
<!-- Node12 -->
<g id="Node000012" class="node">
<title>Node12</title>
<g id="a_Node000012"><a xlink:href="classnetspeak_1_1invertedindex_1_1Indexer.html#a01a9448341a44ad65f23452dd8487961" target="_top" xlink:title=" ">
<polygon fill="white" stroke="#666666" points="726.5,-126 591.5,-126 591.5,-96 726.5,-96 726.5,-126"/>
<text text-anchor="start" x="599.5" y="-114" font-family="Helvetica,sans-Serif" font-size="10.00">netspeak::invertedindex</text>
<text text-anchor="middle" x="659" y="-103" font-family="Helvetica,sans-Serif" font-size="10.00">::Indexer::index</text>
</a>
</g>
</g>
<!-- Node11&#45;&gt;Node12 -->
<g id="edge11_Node000011_Node000012" class="edge">
<title>Node11&#45;&gt;Node12</title>
<g id="a_edge11_Node000011_Node000012"><a xlink:title=" ">
<path fill="none" stroke="#63b8ff" d="M757.13,-109.33C746.95,-109.5 736.58,-109.68 726.6,-109.85"/>
<polygon fill="#63b8ff" stroke="#63b8ff" points="757.29,-112.82 767.22,-109.15 757.17,-105.82 757.29,-112.82"/>
</a>
</g>
</g>
<!-- Node13 -->
<g id="Node000013" class="node">
<title>Node13</title>
<g id="a_Node000013"><a xlink:href="namespacenetspeak.html#af42806304a02200d2a12099b3b54f35d" target="_top" xlink:title=" ">
<polygon fill="white" stroke="#666666" points="552,-121.5 397,-121.5 397,-102.5 552,-102.5 552,-121.5"/>
<text text-anchor="middle" x="474.5" y="-109.5" font-family="Helvetica,sans-Serif" font-size="10.00">netspeak::BuildPostlistIndex</text>
</a>
</g>
</g>
<!-- Node12&#45;&gt;Node13 -->
<g id="edge12_Node000012_Node000013" class="edge">
<title>Node12&#45;&gt;Node13</title>
<g id="a_edge12_Node000012_Node000013"><a xlink:title=" ">
<path fill="none" stroke="#63b8ff" d="M581.07,-111.42C571.51,-111.47 561.74,-111.53 552.18,-111.58"/>
<polygon fill="#63b8ff" stroke="#63b8ff" points="581.36,-114.92 591.34,-111.37 581.32,-107.92 581.36,-114.92"/>
</a>
</g>
</g>
<!-- Node14 -->
<g id="Node000014" class="node">
<title>Node14</title>
<g id="a_Node000014"><a xlink:href="classnetspeak_1_1invertedindex_1_1ManagedIndexer.html#ac43570be49a3700fc731358ffc45919d" target="_top" xlink:title=" ">
<polygon fill="white" stroke="#666666" points="543,-84 406,-84 406,-54 543,-54 543,-84"/>
<text text-anchor="start" x="414" y="-72" font-family="Helvetica,sans-Serif" font-size="10.00">netspeak::invertedindex</text>
<text text-anchor="middle" x="474.5" y="-61" font-family="Helvetica,sans-Serif" font-size="10.00">::ManagedIndexer::index</text>
</a>
</g>
</g>
<!-- Node12&#45;&gt;Node14 -->
<g id="edge13_Node000012_Node000014" class="edge">
<title>Node12&#45;&gt;Node14</title>
<g id="a_edge13_Node000012_Node000014"><a xlink:title=" ">
<path fill="none" stroke="#63b8ff" d="M582.61,-93.65C568.71,-90.45 554.3,-87.13 540.72,-84.01"/>
<polygon fill="#63b8ff" stroke="#63b8ff" points="582.1,-97.12 592.63,-95.96 583.67,-90.3 582.1,-97.12"/>
</a>
</g>
</g>
<!-- Node16 -->
<g id="Node000016" class="node">
<title>Node16</title>
<g id="a_Node000016"><a xlink:href="classnetspeak_1_1invertedindex_1_1StorageWriter.html#a84b8042112d8e747ea62522d157c2249" target="_top" xlink:title=" ">
<polygon fill="white" stroke="#666666" points="542,-171 407,-171 407,-141 542,-141 542,-171"/>
<text text-anchor="start" x="415" y="-159" font-family="Helvetica,sans-Serif" font-size="10.00">netspeak::invertedindex</text>
<text text-anchor="middle" x="474.5" y="-148" font-family="Helvetica,sans-Serif" font-size="10.00">::StorageWriter::write</text>
</a>
</g>
</g>
<!-- Node15&#45;&gt;Node16 -->
<g id="edge15_Node000015_Node000016" class="edge">
<title>Node15&#45;&gt;Node16</title>
<g id="a_edge15_Node000015_Node000016"><a xlink:title=" ">
<path fill="none" stroke="#63b8ff" d="M757.37,-156C693.37,-156 603.05,-156 542.04,-156"/>
<polygon fill="#63b8ff" stroke="#63b8ff" points="757.41,-159.5 767.41,-156 757.41,-152.5 757.41,-159.5"/>
</a>
</g>
</g>
<!-- Node17 -->
<g id="Node000017" class="node">
<title>Node17</title>
<g id="a_Node000017"><a xlink:href="classnetspeak_1_1invertedindex_1_1UnsortedInput.html#a7e52c2f2d76a1897a5ec1ebf05744dbb" target="_top" xlink:title=" ">
<polygon fill="white" stroke="#666666" points="354,-171 219,-171 219,-141 354,-141 354,-171"/>
<text text-anchor="start" x="227" y="-159" font-family="Helvetica,sans-Serif" font-size="10.00">netspeak::invertedindex</text>
<text text-anchor="middle" x="286.5" y="-148" font-family="Helvetica,sans-Serif" font-size="10.00">::UnsortedInput::store</text>
</a>
</g>
</g>
<!-- Node16&#45;&gt;Node17 -->
<g id="edge16_Node000016_Node000017" class="edge">
<title>Node16&#45;&gt;Node17</title>
<g id="a_edge16_Node000016_Node000017"><a xlink:title=" ">
<path fill="none" stroke="#63b8ff" d="M396.73,-156C382.64,-156 368.05,-156 354.28,-156"/>
<polygon fill="#63b8ff" stroke="#63b8ff" points="396.88,-159.5 406.88,-156 396.88,-152.5 396.88,-159.5"/>
</a>
</g>
</g>
<!-- Node18 -->
<g id="Node000018" class="node">
<title>Node18</title>
<g id="a_Node000018"><a xlink:href="classnetspeak_1_1invertedindex_1_1SortedInput.html#a7a0960a0a573256e0887b29e8650a799" target="_top" xlink:title=" ">
<polygon fill="white" stroke="#666666" points="361,-122.5 212,-122.5 212,-81.5 361,-81.5 361,-122.5"/>
<text text-anchor="start" x="220" y="-110.5" font-family="Helvetica,sans-Serif" font-size="10.00">netspeak::invertedindex</text>
<text text-anchor="start" x="220" y="-99.5" font-family="Helvetica,sans-Serif" font-size="10.00">::SortedInput::write_current</text>
<text text-anchor="middle" x="286.5" y="-88.5" font-family="Helvetica,sans-Serif" font-size="10.00">_postlist_</text>
</a>
</g>
</g>
<!-- Node16&#45;&gt;Node18 -->
<g id="edge18_Node000016_Node000018" class="edge">
<title>Node16&#45;&gt;Node18</title>
<g id="a_edge18_Node000016_Node000018"><a xlink:title=" ">
<path fill="none" stroke="#63b8ff" d="M411.78,-138.08C394.6,-133.09 375.8,-127.64 358.15,-122.51"/>
<polygon fill="#63b8ff" stroke="#63b8ff" points="411.11,-141.53 421.69,-140.96 413.06,-134.81 411.11,-141.53"/>
</a>
</g>
</g>
<!-- Node17&#45;&gt;Node8 -->
<g id="edge17_Node000017_Node000008" class="edge">
<title>Node17&#45;&gt;Node8</title>
<g id="a_edge17_Node000017_Node000008"><a xlink:title=" ">
<path fill="none" stroke="#63b8ff" d="M208.8,-157.17C191.3,-157.44 172.84,-157.72 155.79,-157.98"/>
<polygon fill="#63b8ff" stroke="#63b8ff" points="209.03,-160.67 218.97,-157.02 208.92,-153.67 209.03,-160.67"/>
</a>
</g>
</g>
<!-- Node18&#45;&gt;Node9 -->
<g id="edge19_Node000018_Node000009" class="edge">
<title>Node18&#45;&gt;Node9</title>
<g id="a_edge19_Node000018_Node000009"><a xlink:title=" ">
<path fill="none" stroke="#63b8ff" d="M201.75,-105.84C186.36,-106.54 170.49,-107.27 155.69,-107.95"/>
<polygon fill="#63b8ff" stroke="#63b8ff" points="201.94,-109.33 211.77,-105.38 201.62,-102.34 201.94,-109.33"/>
</a>
</g>
</g>
<!-- Node19 -->
<g id="Node000019" class="node">
<title>Node19</title>
<g id="a_Node000019"><a xlink:href="classnetspeak_1_1invertedindex_1_1SortedInput.html#a6aff15206149d6721ea2bbd44a1aebd6" target="_top" xlink:title=" ">
<polygon fill="white" stroke="#666666" points="155.5,-78 20.5,-78 20.5,-48 155.5,-48 155.5,-78"/>
<text text-anchor="start" x="28.5" y="-66" font-family="Helvetica,sans-Serif" font-size="10.00">netspeak::invertedindex</text>
<text text-anchor="middle" x="88" y="-55" font-family="Helvetica,sans-Serif" font-size="10.00">::SortedInput::insert_</text>
</a>
</g>
</g>
<!-- Node18&#45;&gt;Node19 -->
<g id="edge20_Node000018_Node000019" class="edge">
<title>Node18&#45;&gt;Node19</title>
<g id="a_edge20_Node000018_Node000019"><a xlink:title=" ">
<path fill="none" stroke="#63b8ff" d="M201.75,-85.38C186.36,-82.32 170.49,-79.17 155.69,-76.24"/>
<polygon fill="#63b8ff" stroke="#63b8ff" points="201.28,-88.85 211.77,-87.37 202.64,-81.99 201.28,-88.85"/>
</a>
</g>
</g>
<!-- Node21 -->
<g id="Node000021" class="node">
<title>Node21</title>
<g id="a_Node000021"><a xlink:href="structnetspeak_1_1invertedindex_1_1constant__size__iter.html#ad1b3b0bc3cf09bc8098287d3163a2d9f" target="_top" xlink:title=" ">
<polygon fill="white" stroke="#666666" points="730,-78 588,-78 588,-48 730,-48 730,-78"/>
<text text-anchor="start" x="596" y="-66" font-family="Helvetica,sans-Serif" font-size="10.00">netspeak::invertedindex</text>
<text text-anchor="middle" x="659" y="-55" font-family="Helvetica,sans-Serif" font-size="10.00">::constant_size_iter::write</text>
</a>
</g>
</g>
<!-- Node20&#45;&gt;Node21 -->
<g id="edge22_Node000020_Node000021" class="edge">
<title>Node20&#45;&gt;Node21</title>
<g id="a_edge22_Node000020_Node000021"><a xlink:title=" ">
<path fill="none" stroke="#63b8ff" d="M757.14,-61.33C748.13,-61.48 738.97,-61.64 730.06,-61.79"/>
<polygon fill="#63b8ff" stroke="#63b8ff" points="757.29,-64.82 767.22,-61.15 757.17,-57.82 757.29,-64.82"/>
</a>
</g>
</g>
<!-- Node20&#45;&gt;Node22 -->
<g id="edge23_Node000020_Node000022" class="edge">
<title>Node20&#45;&gt;Node22</title>
<g id="a_edge23_Node000020_Node000022"><a xlink:title=" ">
<path fill="none" stroke="#63b8ff" d="M765.46,-42.27C749.85,-38.24 733.41,-33.98 718.27,-30.07"/>
<polygon fill="#63b8ff" stroke="#63b8ff" points="765.02,-45.78 775.58,-44.89 766.77,-39 765.02,-45.78"/>
</a>
</g>
</g>
</g>
</svg>
