<?xml version="1.0" encoding="UTF-8" standalone="no"?>
<!DOCTYPE svg PUBLIC "-//W3C//DTD SVG 1.1//EN"
 "http://www.w3.org/Graphics/SVG/1.1/DTD/svg11.dtd">
<!-- Generated by graphviz version 2.43.0 (0)
 -->
<!-- Title: netspeak::util::__properties_format_impl::write_hex_digit Pages: 1 -->
<svg width="880pt" height="86pt"
 viewBox="0.00 0.00 880.00 86.00" xmlns="http://www.w3.org/2000/svg" xmlns:xlink="http://www.w3.org/1999/xlink">
<g id="graph0" class="graph" transform="scale(1 1) rotate(0) translate(4 82)">
<title>netspeak::util::__properties_format_impl::write_hex_digit</title>
<!-- Node1 -->
<g id="Node000001" class="node">
<title>Node1</title>
<g id="a_Node000001"><a xlink:title=" ">
<polygon fill="#999999" stroke="#666666" points="872,-54 709,-54 709,-24 872,-24 872,-54"/>
<text text-anchor="start" x="717" y="-42" font-family="Helvetica,sans-Serif" font-size="10.00">netspeak::util::__properties</text>
<text text-anchor="middle" x="790.5" y="-31" font-family="Helvetica,sans-Serif" font-size="10.00">_format_impl::write_hex_digit</text>
</a>
</g>
</g>
<!-- Node2 -->
<g id="Node000002" class="node">
<title>Node2</title>
<g id="a_Node000002"><a xlink:href="namespacenetspeak_1_1util_1_1____properties__format__impl.html#a6146b9c3e66f645f7127123550f19046" target="_top" xlink:title=" ">
<polygon fill="white" stroke="#666666" points="673,-54 491,-54 491,-24 673,-24 673,-54"/>
<text text-anchor="start" x="499" y="-42" font-family="Helvetica,sans-Serif" font-size="10.00">netspeak::util::__properties</text>
<text text-anchor="middle" x="582" y="-31" font-family="Helvetica,sans-Serif" font-size="10.00">_format_impl::write_unicode_char</text>
</a>
</g>
</g>
<!-- Node1&#45;&gt;Node2 -->
<g id="edge1_Node000001_Node000002" class="edge">
<title>Node1&#45;&gt;Node2</title>
<g id="a_edge1_Node000001_Node000002"><a xlink:title=" ">
<path fill="none" stroke="#63b8ff" d="M698.59,-39C690.17,-39 681.65,-39 673.25,-39"/>
<polygon fill="#63b8ff" stroke="#63b8ff" points="698.77,-42.5 708.77,-39 698.77,-35.5 698.77,-42.5"/>
</a>
</g>
</g>
<!-- Node3 -->
<g id="Node000003" class="node">
<title>Node3</title>
<g id="a_Node000003"><a xlink:href="namespacenetspeak_1_1util_1_1____properties__format__impl.html#a0e92214f9e3ba2baea59697cacf4b7f9" target="_top" xlink:title=" ">
<polygon fill="white" stroke="#666666" points="455,-78 306,-78 306,-48 455,-48 455,-78"/>
<text text-anchor="start" x="314" y="-66" font-family="Helvetica,sans-Serif" font-size="10.00">netspeak::util::__properties</text>
<text text-anchor="middle" x="380.5" y="-55" font-family="Helvetica,sans-Serif" font-size="10.00">_format_impl::write_key</text>
</a>
</g>
</g>
<!-- Node2&#45;&gt;Node3 -->
<g id="edge2_Node000002_Node000003" class="edge">
<title>Node2&#45;&gt;Node3</title>
<g id="a_edge2_Node000002_Node000003"><a xlink:title=" ">
<path fill="none" stroke="#63b8ff" d="M480.75,-51.06C472.1,-52.1 463.46,-53.14 455.08,-54.15"/>
<polygon fill="#63b8ff" stroke="#63b8ff" points="481.37,-54.51 490.88,-49.84 480.53,-47.56 481.37,-54.51"/>
</a>
</g>
</g>
<!-- Node6 -->
<g id="Node000006" class="node">
<title>Node6</title>
<g id="a_Node000006"><a xlink:href="namespacenetspeak_1_1util_1_1____properties__format__impl.html#aa93ba70613ea151ee49b7888a6b28a43" target="_top" xlink:title=" ">
<polygon fill="white" stroke="#666666" points="455,-30 306,-30 306,0 455,0 455,-30"/>
<text text-anchor="start" x="314" y="-18" font-family="Helvetica,sans-Serif" font-size="10.00">netspeak::util::__properties</text>
<text text-anchor="middle" x="380.5" y="-7" font-family="Helvetica,sans-Serif" font-size="10.00">_format_impl::write_value</text>
</a>
</g>
</g>
<!-- Node2&#45;&gt;Node6 -->
<g id="edge5_Node000002_Node000006" class="edge">
<title>Node2&#45;&gt;Node6</title>
<g id="a_edge5_Node000002_Node000006"><a xlink:title=" ">
<path fill="none" stroke="#63b8ff" d="M480.75,-26.94C472.1,-25.9 463.46,-24.86 455.08,-23.85"/>
<polygon fill="#63b8ff" stroke="#63b8ff" points="480.53,-30.44 490.88,-28.16 481.37,-23.49 480.53,-30.44"/>
</a>
</g>
</g>
<!-- Node4 -->
<g id="Node000004" class="node">
<title>Node4</title>
<g id="a_Node000004"><a xlink:href="namespacenetspeak_1_1util.html#aff96a54c98e1783d6dceb8fb51daca2e" target="_top" xlink:title=" ">
<polygon fill="white" stroke="#666666" points="270,-54 156,-54 156,-24 270,-24 270,-54"/>
<text text-anchor="start" x="164" y="-42" font-family="Helvetica,sans-Serif" font-size="10.00">netspeak::util::write</text>
<text text-anchor="middle" x="213" y="-31" font-family="Helvetica,sans-Serif" font-size="10.00">_properties</text>
</a>
</g>
</g>
<!-- Node3&#45;&gt;Node4 -->
<g id="edge3_Node000003_Node000004" class="edge">
<title>Node3&#45;&gt;Node4</title>
<g id="a_edge3_Node000003_Node000004"><a xlink:title=" ">
<path fill="none" stroke="#63b8ff" d="M295.85,-50.87C287.24,-49.62 278.65,-48.37 270.44,-47.18"/>
<polygon fill="#63b8ff" stroke="#63b8ff" points="295.55,-54.36 305.95,-52.33 296.55,-47.43 295.55,-54.36"/>
</a>
</g>
</g>
<!-- Node5 -->
<g id="Node000005" class="node">
<title>Node5</title>
<g id="a_Node000005"><a xlink:href="classnetspeak_1_1util_1_1Config.html#a9b472d498bac92f78ff5282406f4dc3d" target="_top" xlink:title="This will output the config in the .properties file format.">
<polygon fill="white" stroke="#666666" points="120,-54 0,-54 0,-24 120,-24 120,-54"/>
<text text-anchor="start" x="8" y="-42" font-family="Helvetica,sans-Serif" font-size="10.00">netspeak::util::Config</text>
<text text-anchor="middle" x="60" y="-31" font-family="Helvetica,sans-Serif" font-size="10.00">::operator&lt;&lt;</text>
</a>
</g>
</g>
<!-- Node4&#45;&gt;Node5 -->
<g id="edge4_Node000004_Node000005" class="edge">
<title>Node4&#45;&gt;Node5</title>
<g id="a_edge4_Node000004_Node000005"><a xlink:title=" ">
<path fill="none" stroke="#63b8ff" d="M145.53,-39C137.05,-39 128.41,-39 120.05,-39"/>
<polygon fill="#63b8ff" stroke="#63b8ff" points="145.77,-42.5 155.77,-39 145.77,-35.5 145.77,-42.5"/>
</a>
</g>
</g>
<!-- Node6&#45;&gt;Node4 -->
<g id="edge6_Node000006_Node000004" class="edge">
<title>Node6&#45;&gt;Node4</title>
<g id="a_edge6_Node000006_Node000004"><a xlink:title=" ">
<path fill="none" stroke="#63b8ff" d="M295.85,-27.13C287.24,-28.38 278.65,-29.63 270.44,-30.82"/>
<polygon fill="#63b8ff" stroke="#63b8ff" points="296.55,-30.57 305.95,-25.67 295.55,-23.64 296.55,-30.57"/>
</a>
</g>
</g>
</g>
</svg>
