<?xml version="1.0" encoding="UTF-8" standalone="no"?>
<!DOCTYPE svg PUBLIC "-//W3C//DTD SVG 1.1//EN"
 "http://www.w3.org/Graphics/SVG/1.1/DTD/svg11.dtd">
<!-- Generated by graphviz version 2.43.0 (0)
 -->
<!-- Title: netspeak::norm_query_to_key Pages: 1 -->
<svg width="465pt" height="98pt"
 viewBox="0.00 0.00 465.00 97.50" xmlns="http://www.w3.org/2000/svg" xmlns:xlink="http://www.w3.org/1999/xlink">
<g id="graph0" class="graph" transform="scale(1 1) rotate(0) translate(4 93.5)">
<title>netspeak::norm_query_to_key</title>
<!-- Node1 -->
<g id="Node000001" class="node">
<title>Node1</title>
<g id="a_Node000001"><a xlink:title="Returns a unique string representation for the given query.">
<polygon fill="#999999" stroke="#666666" points="457,-57 331,-57 331,-27 457,-27 457,-57"/>
<text text-anchor="start" x="339" y="-45" font-family="Helvetica,sans-Serif" font-size="10.00">netspeak::norm_query</text>
<text text-anchor="middle" x="394" y="-34" font-family="Helvetica,sans-Serif" font-size="10.00">_to_key</text>
</a>
</g>
</g>
<!-- Node2 -->
<g id="Node000002" class="node">
<title>Node2</title>
<g id="a_Node000002"><a xlink:href="classnetspeak_1_1Netspeak.html#aaaac0f03b7e31a499189cdcba71801f7" target="_top" xlink:title=" ">
<polygon fill="white" stroke="#666666" points="287.5,-89.5 157.5,-89.5 157.5,-48.5 287.5,-48.5 287.5,-89.5"/>
<text text-anchor="start" x="165.5" y="-77.5" font-family="Helvetica,sans-Serif" font-size="10.00">netspeak::Netspeak</text>
<text text-anchor="start" x="165.5" y="-66.5" font-family="Helvetica,sans-Serif" font-size="10.00">::process_non_wildcard</text>
<text text-anchor="middle" x="222.5" y="-55.5" font-family="Helvetica,sans-Serif" font-size="10.00">_query_</text>
</a>
</g>
</g>
<!-- Node1&#45;&gt;Node2 -->
<g id="edge1_Node000001_Node000002" class="edge">
<title>Node1&#45;&gt;Node2</title>
<g id="a_edge1_Node000001_Node000002"><a xlink:title=" ">
<path fill="none" stroke="#63b8ff" d="M320.82,-53.5C309.79,-55.25 298.48,-57.06 287.64,-58.78"/>
<polygon fill="#63b8ff" stroke="#63b8ff" points="321.52,-56.93 330.85,-51.9 320.42,-50.02 321.52,-56.93"/>
</a>
</g>
</g>
<!-- Node4 -->
<g id="Node000004" class="node">
<title>Node4</title>
<g id="a_Node000004"><a xlink:href="classnetspeak_1_1Netspeak.html#a63bb059fbca69dbbcb42a2c9ed24674f" target="_top" xlink:title=" ">
<polygon fill="white" stroke="#666666" points="295,-30 150,-30 150,0 295,0 295,-30"/>
<text text-anchor="start" x="158" y="-18" font-family="Helvetica,sans-Serif" font-size="10.00">netspeak::Netspeak</text>
<text text-anchor="middle" x="222.5" y="-7" font-family="Helvetica,sans-Serif" font-size="10.00">::process_wildcard_query_</text>
</a>
</g>
</g>
<!-- Node1&#45;&gt;Node4 -->
<g id="edge3_Node000001_Node000004" class="edge">
<title>Node1&#45;&gt;Node4</title>
<g id="a_edge3_Node000001_Node000004"><a xlink:title=" ">
<path fill="none" stroke="#63b8ff" d="M320.92,-30.52C312.37,-29.16 303.65,-27.77 295.11,-26.41"/>
<polygon fill="#63b8ff" stroke="#63b8ff" points="320.42,-33.98 330.85,-32.1 321.52,-27.07 320.42,-33.98"/>
</a>
</g>
</g>
<!-- Node3 -->
<g id="Node000003" class="node">
<title>Node3</title>
<g id="a_Node000003"><a xlink:href="classnetspeak_1_1Netspeak.html#aaa049275c7a0a7f6721acf7422402bff" target="_top" xlink:title=" ">
<polygon fill="white" stroke="#666666" points="114,-57 0,-57 0,-27 114,-27 114,-57"/>
<text text-anchor="start" x="8" y="-45" font-family="Helvetica,sans-Serif" font-size="10.00">netspeak::Netspeak</text>
<text text-anchor="middle" x="57" y="-34" font-family="Helvetica,sans-Serif" font-size="10.00">::search_raw_</text>
</a>
</g>
</g>
<!-- Node2&#45;&gt;Node3 -->
<g id="edge2_Node000002_Node000003" class="edge">
<title>Node2&#45;&gt;Node3</title>
<g id="a_edge2_Node000002_Node000003"><a xlink:title=" ">
<path fill="none" stroke="#63b8ff" d="M147.18,-56.73C136.03,-54.89 124.69,-53.01 114.01,-51.25"/>
<polygon fill="#63b8ff" stroke="#63b8ff" points="146.91,-60.23 157.35,-58.41 148.05,-53.32 146.91,-60.23"/>
</a>
</g>
</g>
<!-- Node4&#45;&gt;Node3 -->
<g id="edge4_Node000004_Node000003" class="edge">
<title>Node4&#45;&gt;Node3</title>
<g id="a_edge4_Node000004_Node000003"><a xlink:title=" ">
<path fill="none" stroke="#63b8ff" d="M139.75,-28.5C131.18,-29.91 122.61,-31.33 114.42,-32.68"/>
<polygon fill="#63b8ff" stroke="#63b8ff" points="140.49,-31.93 149.79,-26.84 139.35,-25.02 140.49,-31.93"/>
</a>
</g>
</g>
</g>
</svg>
