<?xml version="1.0" encoding="UTF-8" standalone="no"?>
<!DOCTYPE svg PUBLIC "-//W3C//DTD SVG 1.1//EN"
 "http://www.w3.org/Graphics/SVG/1.1/DTD/svg11.dtd">
<!-- Generated by graphviz version 2.43.0 (0)
 -->
<!-- Title: cli::print_error Pages: 1 -->
<svg width="621pt" height="175pt"
 viewBox="0.00 0.00 621.00 175.00" xmlns="http://www.w3.org/2000/svg" xmlns:xlink="http://www.w3.org/1999/xlink">
<g id="graph0" class="graph" transform="scale(1 1) rotate(0) translate(4 171)">
<title>cli::print_error</title>
<!-- Node1 -->
<g id="Node000001" class="node">
<title>Node1</title>
<g id="a_Node000001"><a xlink:title=" ">
<polygon fill="#999999" stroke="#666666" points="85,-93 0,-93 0,-74 85,-74 85,-93"/>
<text text-anchor="middle" x="42.5" y="-81" font-family="Helvetica,sans-Serif" font-size="10.00">cli::print_error</text>
</a>
</g>
</g>
<!-- Node2 -->
<g id="Node000002" class="node">
<title>Node2</title>
<g id="a_Node000002"><a xlink:href="namespacecli.html#afa35336b7c594c68eb850544a1ae6b41" target="_top" xlink:title=" ">
<polygon fill="white" stroke="#666666" points="258,-93 121,-93 121,-74 258,-74 258,-93"/>
<text text-anchor="middle" x="189.5" y="-81" font-family="Helvetica,sans-Serif" font-size="10.00">cli::print_command_help</text>
</a>
</g>
</g>
<!-- Node1&#45;&gt;Node2 -->
<g id="edge1_Node000001_Node000002" class="edge">
<title>Node1&#45;&gt;Node2</title>
<g id="a_edge1_Node000001_Node000002"><a xlink:title=" ">
<path fill="none" stroke="#63b8ff" d="M85.05,-83.5C93.2,-83.5 101.99,-83.5 110.88,-83.5"/>
<polygon fill="#63b8ff" stroke="#63b8ff" points="110.94,-87 120.94,-83.5 110.94,-80 110.94,-87"/>
</a>
</g>
</g>
<!-- Node3 -->
<g id="Node000003" class="node">
<title>Node3</title>
<g id="a_Node000003"><a xlink:href="classcli_1_1Command.html#ad1d4b2459b72ddab8cec0279f576b7a0" target="_top" xlink:title=" ">
<polygon fill="white" stroke="#666666" points="595,-167 482,-167 482,-148 595,-148 595,-167"/>
<text text-anchor="middle" x="538.5" y="-155" font-family="Helvetica,sans-Serif" font-size="10.00">cli::Command::desc</text>
</a>
</g>
</g>
<!-- Node2&#45;&gt;Node3 -->
<g id="edge2_Node000002_Node000003" class="edge">
<title>Node2&#45;&gt;Node3</title>
<g id="a_edge2_Node000002_Node000003"><a xlink:title=" ">
<path fill="none" stroke="#63b8ff" d="M203.75,-93.08C222.69,-106.2 259.1,-129.28 294,-139.5 352.3,-156.57 421.63,-160.17 471.38,-160.03"/>
<polygon fill="#63b8ff" stroke="#63b8ff" points="471.71,-163.53 481.68,-159.95 471.66,-156.53 471.71,-163.53"/>
</a>
</g>
</g>
<!-- Node4 -->
<g id="Node000004" class="node">
<title>Node4</title>
<g id="a_Node000004"><a xlink:href="namespacecli.html#a3aacc4bf1a67732a492a18bc25fcd211" target="_top" xlink:title=" ">
<polygon fill="white" stroke="#666666" points="417.5,-130 304.5,-130 304.5,-111 417.5,-111 417.5,-130"/>
<text text-anchor="middle" x="361" y="-118" font-family="Helvetica,sans-Serif" font-size="10.00">cli::get_option_desc</text>
</a>
</g>
</g>
<!-- Node2&#45;&gt;Node4 -->
<g id="edge3_Node000002_Node000004" class="edge">
<title>Node2&#45;&gt;Node4</title>
<g id="a_edge3_Node000002_Node000004"><a xlink:title=" ">
<path fill="none" stroke="#63b8ff" d="M234.15,-93.03C256.11,-97.82 282.93,-103.68 306.15,-108.75"/>
<polygon fill="#63b8ff" stroke="#63b8ff" points="305.69,-112.23 316.2,-110.94 307.18,-105.39 305.69,-112.23"/>
</a>
</g>
</g>
<!-- Node6 -->
<g id="Node000006" class="node">
<title>Node6</title>
<g id="a_Node000006"><a xlink:href="namespacecli.html#affe799d66dff4cf3b7872b5c76382a8d" target="_top" xlink:title=" ">
<polygon fill="white" stroke="#666666" points="428,-93 294,-93 294,-74 428,-74 428,-93"/>
<text text-anchor="middle" x="361" y="-81" font-family="Helvetica,sans-Serif" font-size="10.00">cli::get_option_identifier</text>
</a>
</g>
</g>
<!-- Node2&#45;&gt;Node6 -->
<g id="edge6_Node000002_Node000006" class="edge">
<title>Node2&#45;&gt;Node6</title>
<g id="a_edge6_Node000002_Node000006"><a xlink:title=" ">
<path fill="none" stroke="#63b8ff" d="M258.47,-83.5C266.78,-83.5 275.32,-83.5 283.75,-83.5"/>
<polygon fill="#63b8ff" stroke="#63b8ff" points="283.95,-87 293.95,-83.5 283.95,-80 283.95,-87"/>
</a>
</g>
</g>
<!-- Node7 -->
<g id="Node000007" class="node">
<title>Node7</title>
<g id="a_Node000007"><a xlink:href="classcli_1_1Command.html#a8dcc4261b4cdd458bd235f19eb604507" target="_top" xlink:title=" ">
<polygon fill="white" stroke="#666666" points="420,-56 302,-56 302,-37 420,-37 420,-56"/>
<text text-anchor="middle" x="361" y="-44" font-family="Helvetica,sans-Serif" font-size="10.00">cli::Command::name</text>
</a>
</g>
</g>
<!-- Node2&#45;&gt;Node7 -->
<g id="edge7_Node000002_Node000007" class="edge">
<title>Node2&#45;&gt;Node7</title>
<g id="a_edge7_Node000002_Node000007"><a xlink:title=" ">
<path fill="none" stroke="#63b8ff" d="M234.15,-73.97C256.11,-69.18 282.93,-63.32 306.15,-58.25"/>
<polygon fill="#63b8ff" stroke="#63b8ff" points="307.18,-61.61 316.2,-56.06 305.69,-54.77 307.18,-61.61"/>
</a>
</g>
</g>
<!-- Node8 -->
<g id="Node000008" class="node">
<title>Node8</title>
<g id="a_Node000008"><a xlink:href="namespacecli.html#a176ef3b1efb7c9ba45ff614d5ae0aacd" target="_top" xlink:title=" ">
<polygon fill="white" stroke="#666666" points="401.5,-19 320.5,-19 320.5,0 401.5,0 401.5,-19"/>
<text text-anchor="middle" x="361" y="-7" font-family="Helvetica,sans-Serif" font-size="10.00">cli::print_text</text>
</a>
</g>
</g>
<!-- Node2&#45;&gt;Node8 -->
<g id="edge8_Node000002_Node000008" class="edge">
<title>Node2&#45;&gt;Node8</title>
<g id="a_edge8_Node000002_Node000008"><a xlink:title=" ">
<path fill="none" stroke="#63b8ff" d="M205.74,-73.8C225.46,-61.6 261.19,-40.65 294,-27.5 299.37,-25.35 305.08,-23.37 310.81,-21.56"/>
<polygon fill="#63b8ff" stroke="#63b8ff" points="311.84,-24.91 320.42,-18.7 309.84,-18.2 311.84,-24.91"/>
</a>
</g>
</g>
<!-- Node4&#45;&gt;Node3 -->
<g id="edge5_Node000004_Node000003" class="edge">
<title>Node4&#45;&gt;Node3</title>
<g id="a_edge5_Node000004_Node000003"><a xlink:title=" ">
<path fill="none" stroke="#63b8ff" d="M407.2,-130.03C430.03,-134.84 457.95,-140.73 482.07,-145.81"/>
<polygon fill="#63b8ff" stroke="#63b8ff" points="481.65,-149.3 492.15,-147.94 483.09,-142.45 481.65,-149.3"/>
</a>
</g>
</g>
<!-- Node5 -->
<g id="Node000005" class="node">
<title>Node5</title>
<g id="a_Node000005"><a xlink:href="classcli_1_1Command.html#a384df28e8769751598c52346deebeb77" target="_top" xlink:title=" ">
<polygon fill="white" stroke="#666666" points="613,-130 464,-130 464,-111 613,-111 613,-130"/>
<text text-anchor="middle" x="538.5" y="-118" font-family="Helvetica,sans-Serif" font-size="10.00">cli::Command::add_options</text>
</a>
</g>
</g>
<!-- Node4&#45;&gt;Node5 -->
<g id="edge4_Node000004_Node000005" class="edge">
<title>Node4&#45;&gt;Node5</title>
<g id="a_edge4_Node000004_Node000005"><a xlink:title=" ">
<path fill="none" stroke="#63b8ff" d="M417.53,-120.5C428.98,-120.5 441.29,-120.5 453.5,-120.5"/>
<polygon fill="#63b8ff" stroke="#63b8ff" points="453.71,-124 463.71,-120.5 453.71,-117 453.71,-124"/>
</a>
</g>
</g>
<!-- Node9 -->
<g id="Node000009" class="node">
<title>Node9</title>
<g id="a_Node000009"><a xlink:href="namespacecli.html#a37b490d397c09cf994d962212b4a4f7a" target="_top" xlink:title=" ">
<polygon fill="white" stroke="#666666" points="578.5,-19 498.5,-19 498.5,0 578.5,0 578.5,-19"/>
<text text-anchor="middle" x="538.5" y="-7" font-family="Helvetica,sans-Serif" font-size="10.00">cli::print_line</text>
</a>
</g>
</g>
<!-- Node8&#45;&gt;Node9 -->
<g id="edge9_Node000008_Node000009" class="edge">
<title>Node8&#45;&gt;Node9</title>
<g id="a_edge9_Node000008_Node000009"><a xlink:title=" ">
<path fill="none" stroke="#63b8ff" d="M401.82,-9.5C427.47,-9.5 461,-9.5 488.31,-9.5"/>
<polygon fill="#63b8ff" stroke="#63b8ff" points="488.44,-13 498.44,-9.5 488.44,-6 488.44,-13"/>
</a>
</g>
</g>
</g>
</svg>
