<?xml version="1.0" encoding="UTF-8" standalone="no"?>
<!DOCTYPE svg PUBLIC "-//W3C//DTD SVG 1.1//EN"
 "http://www.w3.org/Graphics/SVG/1.1/DTD/svg11.dtd">
<!-- Generated by graphviz version 2.43.0 (0)
 -->
<!-- Title: netspeak::entry_size Pages: 1 -->
<svg width="448pt" height="104pt"
 viewBox="0.00 0.00 448.00 104.00" xmlns="http://www.w3.org/2000/svg" xmlns:xlink="http://www.w3.org/1999/xlink">
<g id="graph0" class="graph" transform="scale(1 1) rotate(0) translate(4 100)">
<title>netspeak::entry_size</title>
<!-- Node1 -->
<g id="Node000001" class="node">
<title>Node1</title>
<g id="a_Node000001"><a xlink:title="Returns the size in bytes each entry in the binary file of the given length (= n&#45;gram class).">
<polygon fill="#999999" stroke="#666666" points="440,-48.5 322,-48.5 322,-29.5 440,-29.5 440,-48.5"/>
<text text-anchor="middle" x="381" y="-36.5" font-family="Helvetica,sans-Serif" font-size="10.00">netspeak::entry_size</text>
</a>
</g>
</g>
<!-- Node2 -->
<g id="Node000002" class="node">
<title>Node2</title>
<g id="a_Node000002"><a xlink:href="classnetspeak_1_1PhraseCorpus.html#a436713055969380039d89778197d92bf" target="_top" xlink:title=" ">
<polygon fill="white" stroke="#666666" points="286,-78 152,-78 152,-48 286,-48 286,-78"/>
<text text-anchor="start" x="160" y="-66" font-family="Helvetica,sans-Serif" font-size="10.00">netspeak::PhraseCorpus</text>
<text text-anchor="middle" x="219" y="-55" font-family="Helvetica,sans-Serif" font-size="10.00">::count_phrases</text>
</a>
</g>
</g>
<!-- Node1&#45;&gt;Node2 -->
<g id="edge1_Node000001_Node000002" class="edge">
<title>Node1&#45;&gt;Node2</title>
<g id="a_edge1_Node000001_Node000002"><a xlink:title=" ">
<path fill="none" stroke="#63b8ff" d="M311.85,-49.22C303.29,-50.51 294.55,-51.82 286.03,-53.1"/>
<polygon fill="#63b8ff" stroke="#63b8ff" points="312.41,-52.68 321.78,-47.73 311.38,-45.75 312.41,-52.68"/>
</a>
</g>
</g>
<!-- Node4 -->
<g id="Node000004" class="node">
<title>Node4</title>
<g id="a_Node000004"><a xlink:href="classnetspeak_1_1PhraseCorpus.html#abc33683ef5bb92aa0dfa538fbbb7a05e" target="_top" xlink:title=" ">
<polygon fill="white" stroke="#666666" points="286,-30 152,-30 152,0 286,0 286,-30"/>
<text text-anchor="start" x="160" y="-18" font-family="Helvetica,sans-Serif" font-size="10.00">netspeak::PhraseCorpus</text>
<text text-anchor="middle" x="219" y="-7" font-family="Helvetica,sans-Serif" font-size="10.00">::read_phrases</text>
</a>
</g>
</g>
<!-- Node1&#45;&gt;Node4 -->
<g id="edge4_Node000001_Node000004" class="edge">
<title>Node1&#45;&gt;Node4</title>
<g id="a_edge4_Node000001_Node000004"><a xlink:title=" ">
<path fill="none" stroke="#63b8ff" d="M311.85,-28.78C303.29,-27.49 294.55,-26.18 286.03,-24.9"/>
<polygon fill="#63b8ff" stroke="#63b8ff" points="311.38,-32.25 321.78,-30.27 312.41,-25.32 311.38,-32.25"/>
</a>
</g>
</g>
<!-- Node3 -->
<g id="Node000003" class="node">
<title>Node3</title>
<g id="a_Node000003"><a xlink:href="classnetspeak_1_1Netspeak.html#a1787a53ca109ed1cc26504ea0f589dd3" target="_top" xlink:title=" ">
<polygon fill="white" stroke="#666666" points="115,-78 1,-78 1,-48 115,-48 115,-78"/>
<text text-anchor="start" x="9" y="-66" font-family="Helvetica,sans-Serif" font-size="10.00">netspeak::Netspeak</text>
<text text-anchor="middle" x="58" y="-55" font-family="Helvetica,sans-Serif" font-size="10.00">::properties</text>
</a>
</g>
</g>
<!-- Node2&#45;&gt;Node3 -->
<g id="edge2_Node000002_Node000003" class="edge">
<title>Node2&#45;&gt;Node3</title>
<g id="a_edge2_Node000002_Node000003"><a xlink:title=" ">
<path fill="none" stroke="#63b8ff" d="M141.94,-63C133.03,-63 124.06,-63 115.49,-63"/>
<polygon fill="#63b8ff" stroke="#63b8ff" points="141.95,-66.5 151.95,-63 141.95,-59.5 141.95,-66.5"/>
</a>
</g>
</g>
<!-- Node3&#45;&gt;Node3 -->
<g id="edge3_Node000003_Node000003" class="edge">
<title>Node3&#45;&gt;Node3</title>
<g id="a_edge3_Node000003_Node000003"><a xlink:title=" ">
<path fill="none" stroke="#63b8ff" d="M86.01,-88.6C82.18,-92.97 72.84,-96 58,-96 33,-96 23.62,-87.41 29.87,-78.28"/>
<polygon fill="#63b8ff" stroke="#63b8ff" points="89.51,-88.32 86.12,-78.28 82.51,-88.23 89.51,-88.32"/>
</a>
</g>
</g>
<!-- Node5 -->
<g id="Node000005" class="node">
<title>Node5</title>
<g id="a_Node000005"><a xlink:href="classnetspeak_1_1Netspeak.html#a2e5d64f9a6eca708b7581134e1405b44" target="_top" xlink:title=" ">
<polygon fill="white" stroke="#666666" points="116,-30 0,-30 0,0 116,0 116,-30"/>
<text text-anchor="start" x="8" y="-18" font-family="Helvetica,sans-Serif" font-size="10.00">netspeak::Netspeak</text>
<text text-anchor="middle" x="58" y="-7" font-family="Helvetica,sans-Serif" font-size="10.00">::merge_raw_result_</text>
</a>
</g>
</g>
<!-- Node4&#45;&gt;Node5 -->
<g id="edge5_Node000004_Node000005" class="edge">
<title>Node4&#45;&gt;Node5</title>
<g id="a_edge5_Node000004_Node000005"><a xlink:title=" ">
<path fill="none" stroke="#63b8ff" d="M141.87,-15C133.24,-15 124.56,-15 116.24,-15"/>
<polygon fill="#63b8ff" stroke="#63b8ff" points="141.95,-18.5 151.95,-15 141.95,-11.5 141.95,-18.5"/>
</a>
</g>
</g>
</g>
</svg>
