<?xml version="1.0" encoding="UTF-8" standalone="no"?>
<!DOCTYPE svg PUBLIC "-//W3C//DTD SVG 1.1//EN"
 "http://www.w3.org/Graphics/SVG/1.1/DTD/svg11.dtd">
<!-- Generated by graphviz version 2.43.0 (0)
 -->
<!-- Title: netspeak::util::directory_size Pages: 1 -->
<svg width="339pt" height="51pt"
 viewBox="0.00 0.00 339.00 50.50" xmlns="http://www.w3.org/2000/svg" xmlns:xlink="http://www.w3.org/1999/xlink">
<g id="graph0" class="graph" transform="scale(1 1) rotate(0) translate(4 46.5)">
<title>netspeak::util::directory_size</title>
<!-- Node1 -->
<g id="Node000001" class="node">
<title>Node1</title>
<g id="a_Node000001"><a xlink:title=" ">
<polygon fill="#999999" stroke="#666666" points="331,-24.5 173,-24.5 173,-5.5 331,-5.5 331,-24.5"/>
<text text-anchor="middle" x="252" y="-12.5" font-family="Helvetica,sans-Serif" font-size="10.00">netspeak::util::directory_size</text>
</a>
</g>
</g>
<!-- Node1&#45;&gt;Node1 -->
<g id="edge1_Node000001_Node000001" class="edge">
<title>Node1&#45;&gt;Node1</title>
<g id="a_edge1_Node000001_Node000001"><a xlink:title=" ">
<path fill="none" stroke="#63b8ff" d="M286.11,-32.57C285.61,-38.12 274.24,-42.5 252,-42.5 219.65,-42.5 210.3,-33.23 223.95,-24.58"/>
<polygon fill="#63b8ff" stroke="#63b8ff" points="288.88,-30.44 280.05,-24.58 283.3,-34.67 288.88,-30.44"/>
</a>
</g>
</g>
<!-- Node2 -->
<g id="Node000002" class="node">
<title>Node2</title>
<g id="a_Node000002"><a xlink:href="classnetspeak_1_1invertedindex_1_1ManagedIndexer.html#ac43570be49a3700fc731358ffc45919d" target="_top" xlink:title=" ">
<polygon fill="white" stroke="#666666" points="137,-30 0,-30 0,0 137,0 137,-30"/>
<text text-anchor="start" x="8" y="-18" font-family="Helvetica,sans-Serif" font-size="10.00">netspeak::invertedindex</text>
<text text-anchor="middle" x="68.5" y="-7" font-family="Helvetica,sans-Serif" font-size="10.00">::ManagedIndexer::index</text>
</a>
</g>
</g>
<!-- Node1&#45;&gt;Node2 -->
<g id="edge2_Node000001_Node000002" class="edge">
<title>Node1&#45;&gt;Node2</title>
<g id="a_edge2_Node000001_Node000002"><a xlink:title=" ">
<path fill="none" stroke="#63b8ff" d="M162.87,-15C154.23,-15 145.57,-15 137.18,-15"/>
<polygon fill="#63b8ff" stroke="#63b8ff" points="162.97,-18.5 172.97,-15 162.97,-11.5 162.97,-18.5"/>
</a>
</g>
</g>
</g>
</svg>
