<?xml version="1.0" encoding="UTF-8" standalone="no"?>
<!DOCTYPE svg PUBLIC "-//W3C//DTD SVG 1.1//EN"
 "http://www.w3.org/Graphics/SVG/1.1/DTD/svg11.dtd">
<!-- Generated by graphviz version 2.43.0 (0)
 -->
<!-- Title: cli::RunNetspeakShell Pages: 1 -->
<svg width="568pt" height="124pt"
 viewBox="0.00 0.00 568.00 124.00" xmlns="http://www.w3.org/2000/svg" xmlns:xlink="http://www.w3.org/1999/xlink">
<g id="graph0" class="graph" transform="scale(1 1) rotate(0) translate(4 120)">
<title>cli::RunNetspeakShell</title>
<!-- Node1 -->
<g id="Node000001" class="node">
<title>Node1</title>
<g id="a_Node000001"><a xlink:title=" ">
<polygon fill="#999999" stroke="#666666" points="123,-48.5 0,-48.5 0,-29.5 123,-29.5 123,-48.5"/>
<text text-anchor="middle" x="61.5" y="-36.5" font-family="Helvetica,sans-Serif" font-size="10.00">cli::RunNetspeakShell</text>
</a>
</g>
</g>
<!-- Node2 -->
<g id="Node000002" class="node">
<title>Node2</title>
<g id="a_Node000002"><a xlink:href="namespacenetspeak_1_1util.html#ad2441a387c3a4c47e09c373e9412fad0" target="_top" xlink:title=" ">
<polygon fill="white" stroke="#666666" points="263,-67.5 159,-67.5 159,-48.5 263,-48.5 263,-67.5"/>
<text text-anchor="middle" x="211" y="-55.5" font-family="Helvetica,sans-Serif" font-size="10.00">netspeak::util::log</text>
</a>
</g>
</g>
<!-- Node1&#45;&gt;Node2 -->
<g id="edge1_Node000001_Node000002" class="edge">
<title>Node1&#45;&gt;Node2</title>
<g id="a_edge1_Node000001_Node000002"><a xlink:title=" ">
<path fill="none" stroke="#63b8ff" d="M123.35,-46.84C131.7,-47.91 140.27,-49.02 148.63,-50.09"/>
<polygon fill="#63b8ff" stroke="#63b8ff" points="148.32,-53.58 158.69,-51.39 149.22,-46.64 148.32,-53.58"/>
</a>
</g>
</g>
<!-- Node6 -->
<g id="Node000006" class="node">
<title>Node6</title>
<g id="a_Node000006"><a xlink:href="namespacecli.html#a4671fa197b7eee6dfa2cd7789a6f4d29" target="_top" xlink:title=" ">
<polygon fill="white" stroke="#666666" points="249.5,-30.5 172.5,-30.5 172.5,-11.5 249.5,-11.5 249.5,-30.5"/>
<text text-anchor="middle" x="211" y="-18.5" font-family="Helvetica,sans-Serif" font-size="10.00">cli::RunShell</text>
</a>
</g>
</g>
<!-- Node1&#45;&gt;Node6 -->
<g id="edge6_Node000001_Node000006" class="edge">
<title>Node1&#45;&gt;Node6</title>
<g id="a_edge6_Node000001_Node000006"><a xlink:title=" ">
<path fill="none" stroke="#63b8ff" d="M123.35,-31.57C136.24,-30 149.68,-28.36 162.02,-26.86"/>
<polygon fill="#63b8ff" stroke="#63b8ff" points="162.58,-30.31 172.09,-25.63 161.74,-23.36 162.58,-30.31"/>
</a>
</g>
</g>
<!-- Node3 -->
<g id="Node000003" class="node">
<title>Node3</title>
<g id="a_Node000003"><a xlink:href="namespacenetspeak_1_1util.html#ab27a22c787271513007af0719b17cef9" target="_top" xlink:title=" ">
<polygon fill="white" stroke="#666666" points="407.5,-116 302.5,-116 302.5,-86 407.5,-86 407.5,-116"/>
<text text-anchor="start" x="310.5" y="-104" font-family="Helvetica,sans-Serif" font-size="10.00">netspeak::util::get</text>
<text text-anchor="middle" x="355" y="-93" font-family="Helvetica,sans-Serif" font-size="10.00">_log_mutex</text>
</a>
</g>
</g>
<!-- Node2&#45;&gt;Node3 -->
<g id="edge2_Node000002_Node000003" class="edge">
<title>Node2&#45;&gt;Node3</title>
<g id="a_edge2_Node000002_Node000003"><a xlink:title=" ">
<path fill="none" stroke="#63b8ff" d="M243.51,-67.54C258.61,-72.12 277.2,-77.74 294.8,-83.07"/>
<polygon fill="#63b8ff" stroke="#63b8ff" points="293.86,-86.45 304.44,-85.99 295.89,-79.75 293.86,-86.45"/>
</a>
</g>
</g>
<!-- Node4 -->
<g id="Node000004" class="node">
<title>Node4</title>
<g id="a_Node000004"><a xlink:href="namespacenetspeak_1_1util.html#a4c91ad572508b4021399ac7dddff574d" target="_top" xlink:title=" ">
<polygon fill="white" stroke="#666666" points="560,-45.5 447,-45.5 447,-26.5 560,-26.5 560,-45.5"/>
<text text-anchor="middle" x="503.5" y="-33.5" font-family="Helvetica,sans-Serif" font-size="10.00">netspeak::util::hash</text>
</a>
</g>
</g>
<!-- Node2&#45;&gt;Node4 -->
<g id="edge3_Node000002_Node000004" class="edge">
<title>Node2&#45;&gt;Node4</title>
<g id="a_edge3_Node000002_Node000004"><a xlink:title=" ">
<path fill="none" stroke="#63b8ff" d="M263.27,-54.12C311.52,-50.46 384.03,-44.97 436.57,-40.99"/>
<polygon fill="#63b8ff" stroke="#63b8ff" points="437.09,-44.46 446.79,-40.22 436.56,-37.48 437.09,-44.46"/>
</a>
</g>
</g>
<!-- Node5 -->
<g id="Node000005" class="node">
<title>Node5</title>
<g id="a_Node000005"><a xlink:href="namespacenetspeak_1_1util.html#a93e18aaa529a497b6afdf4b3bd221182" target="_top" xlink:title=" ">
<polygon fill="white" stroke="#666666" points="411,-30 299,-30 299,0 411,0 411,-30"/>
<text text-anchor="start" x="307" y="-18" font-family="Helvetica,sans-Serif" font-size="10.00">netspeak::util::print</text>
<text text-anchor="middle" x="355" y="-7" font-family="Helvetica,sans-Serif" font-size="10.00">_timestamp_to</text>
</a>
</g>
</g>
<!-- Node2&#45;&gt;Node5 -->
<g id="edge4_Node000002_Node000005" class="edge">
<title>Node2&#45;&gt;Node5</title>
<g id="a_edge4_Node000002_Node000005"><a xlink:title=" ">
<path fill="none" stroke="#63b8ff" d="M243.51,-48.46C258.61,-43.88 277.2,-38.26 294.8,-32.93"/>
<polygon fill="#63b8ff" stroke="#63b8ff" points="295.89,-36.25 304.44,-30.01 293.86,-29.55 295.89,-36.25"/>
</a>
</g>
</g>
<!-- Node5&#45;&gt;Node4 -->
<g id="edge5_Node000005_Node000004" class="edge">
<title>Node5&#45;&gt;Node4</title>
<g id="a_edge5_Node000005_Node000004"><a xlink:title=" ">
<path fill="none" stroke="#63b8ff" d="M411.39,-22.94C419.57,-24.11 428.06,-25.33 436.43,-26.53"/>
<polygon fill="#63b8ff" stroke="#63b8ff" points="436.15,-30.03 446.55,-27.98 437.15,-23.1 436.15,-30.03"/>
</a>
</g>
</g>
</g>
</svg>
