<?xml version="1.0" encoding="UTF-8" standalone="no"?>
<!DOCTYPE svg PUBLIC "-//W3C//DTD SVG 1.1//EN"
 "http://www.w3.org/Graphics/SVG/1.1/DTD/svg11.dtd">
<!-- Generated by graphviz version 2.43.0 (0)
 -->
<!-- Title: netspeak::util::fread Pages: 1 -->
<svg width="901pt" height="412pt"
 viewBox="0.00 0.00 901.00 412.00" xmlns="http://www.w3.org/2000/svg" xmlns:xlink="http://www.w3.org/1999/xlink">
<g id="graph0" class="graph" transform="scale(1 1) rotate(0) translate(4 408)">
<title>netspeak::util::fread</title>
<!-- Node1 -->
<g id="Node000001" class="node">
<title>Node1</title>
<g id="a_Node000001"><a xlink:title=" ">
<polygon fill="#999999" stroke="#666666" points="893,-254.5 778,-254.5 778,-235.5 893,-235.5 893,-254.5"/>
<text text-anchor="middle" x="835.5" y="-242.5" font-family="Helvetica,sans-Serif" font-size="10.00">netspeak::util::fread</text>
</a>
</g>
</g>
<!-- Node2 -->
<g id="Node000002" class="node">
<title>Node2</title>
<g id="a_Node000002"><a xlink:href="classnetspeak_1_1bighashmap_1_1CmphMap.html#ad3f1b7aa414ddef34f9118e7203f39dd" target="_top" xlink:title=" ">
<polygon fill="white" stroke="#666666" points="742,-404 581,-404 581,-374 742,-374 742,-404"/>
<text text-anchor="start" x="589" y="-392" font-family="Helvetica,sans-Serif" font-size="10.00">netspeak::bighashmap</text>
<text text-anchor="middle" x="661.5" y="-381" font-family="Helvetica,sans-Serif" font-size="10.00">::CmphMap::ExtractAlgorithm</text>
</a>
</g>
</g>
<!-- Node1&#45;&gt;Node2 -->
<g id="edge1_Node000001_Node000002" class="edge">
<title>Node1&#45;&gt;Node2</title>
<g id="a_edge1_Node000001_Node000002"><a xlink:title=" ">
<path fill="none" stroke="#63b8ff" d="M824.98,-263.73C810.58,-290.19 780.79,-338.26 742,-365 737.01,-368.44 731.53,-371.39 725.83,-373.93"/>
<polygon fill="#63b8ff" stroke="#63b8ff" points="828.15,-265.22 829.73,-254.74 821.96,-261.95 828.15,-265.22"/>
</a>
</g>
</g>
<!-- Node4 -->
<g id="Node000004" class="node">
<title>Node4</title>
<g id="a_Node000004"><a xlink:href="classnetspeak_1_1bighashmap_1_1InternalMap.html#a2bf5f719141050961f5967e006036043" target="_top" xlink:title=" ">
<polygon fill="white" stroke="#666666" points="734.5,-356 588.5,-356 588.5,-326 734.5,-326 734.5,-356"/>
<text text-anchor="start" x="596.5" y="-344" font-family="Helvetica,sans-Serif" font-size="10.00">netspeak::bighashmap</text>
<text text-anchor="middle" x="661.5" y="-333" font-family="Helvetica,sans-Serif" font-size="10.00">::InternalMap::InternalMap</text>
</a>
</g>
</g>
<!-- Node1&#45;&gt;Node4 -->
<g id="edge3_Node000001_Node000004" class="edge">
<title>Node1&#45;&gt;Node4</title>
<g id="a_edge3_Node000001_Node000004"><a xlink:title=" ">
<path fill="none" stroke="#63b8ff" d="M817.1,-261.78C799.46,-277.97 770.74,-302.14 742,-317 735.47,-320.38 728.38,-323.36 721.23,-325.98"/>
<polygon fill="#63b8ff" stroke="#63b8ff" points="819.91,-263.94 824.82,-254.55 815.13,-258.83 819.91,-263.94"/>
</a>
</g>
</g>
<!-- Node5 -->
<g id="Node000005" class="node">
<title>Node5</title>
<g id="a_Node000005"><a xlink:href="classnetspeak_1_1invertedindex_1_1Searcher.html#a7892a42a3c0e390af6f33815de970002" target="_top" xlink:title=" ">
<polygon fill="white" stroke="#666666" points="729,-308 594,-308 594,-278 729,-278 729,-308"/>
<text text-anchor="start" x="602" y="-296" font-family="Helvetica,sans-Serif" font-size="10.00">netspeak::invertedindex</text>
<text text-anchor="middle" x="661.5" y="-285" font-family="Helvetica,sans-Serif" font-size="10.00">::Searcher::open</text>
</a>
</g>
</g>
<!-- Node1&#45;&gt;Node5 -->
<g id="edge4_Node000001_Node000005" class="edge">
<title>Node1&#45;&gt;Node5</title>
<g id="a_edge4_Node000001_Node000005"><a xlink:title=" ">
<path fill="none" stroke="#63b8ff" d="M790.46,-257.29C767.92,-263.58 740.29,-271.29 716.48,-277.94"/>
<polygon fill="#63b8ff" stroke="#63b8ff" points="791.42,-260.66 800.11,-254.6 789.53,-253.92 791.42,-260.66"/>
</a>
</g>
</g>
<!-- Node7 -->
<g id="Node000007" class="node">
<title>Node7</title>
<g id="a_Node000007"><a xlink:href="structnetspeak_1_1invertedindex_1_1Properties.html#ab68dc5c9ff901034a32d0d8b89a9f574" target="_top" xlink:title=" ">
<polygon fill="white" stroke="#666666" points="729,-260 594,-260 594,-230 729,-230 729,-260"/>
<text text-anchor="start" x="602" y="-248" font-family="Helvetica,sans-Serif" font-size="10.00">netspeak::invertedindex</text>
<text text-anchor="middle" x="661.5" y="-237" font-family="Helvetica,sans-Serif" font-size="10.00">::Properties::read</text>
</a>
</g>
</g>
<!-- Node1&#45;&gt;Node7 -->
<g id="edge6_Node000001_Node000007" class="edge">
<title>Node1&#45;&gt;Node7</title>
<g id="a_edge6_Node000001_Node000007"><a xlink:title=" ">
<path fill="none" stroke="#63b8ff" d="M767.69,-245C755.01,-245 741.75,-245 729.09,-245"/>
<polygon fill="#63b8ff" stroke="#63b8ff" points="767.7,-248.5 777.7,-245 767.7,-241.5 767.7,-248.5"/>
</a>
</g>
</g>
<!-- Node8 -->
<g id="Node000008" class="node">
<title>Node8</title>
<g id="a_Node000008"><a xlink:href="classnetspeak_1_1invertedindex_1_1PostlistReader.html#a842a92ec19eeecf74c7a8ae80e1ee1af" target="_top" xlink:title=" ">
<polygon fill="white" stroke="#666666" points="537,-222 402,-222 402,-192 537,-192 537,-222"/>
<text text-anchor="start" x="410" y="-210" font-family="Helvetica,sans-Serif" font-size="10.00">netspeak::invertedindex</text>
<text text-anchor="middle" x="469.5" y="-199" font-family="Helvetica,sans-Serif" font-size="10.00">::PostlistReader::read</text>
</a>
</g>
</g>
<!-- Node1&#45;&gt;Node8 -->
<g id="edge7_Node000001_Node000008" class="edge">
<title>Node1&#45;&gt;Node8</title>
<g id="a_edge7_Node000001_Node000008"><a xlink:title=" ">
<path fill="none" stroke="#63b8ff" d="M794.35,-232.69C778.23,-228.25 759.38,-223.67 742,-221 672.73,-210.34 592.46,-207.34 537.27,-206.69"/>
<polygon fill="#63b8ff" stroke="#63b8ff" points="793.42,-236.07 803.99,-235.42 795.32,-229.33 793.42,-236.07"/>
</a>
</g>
</g>
<!-- Node12 -->
<g id="Node000012" class="node">
<title>Node12</title>
<g id="a_Node000012"><a xlink:href="classnetspeak_1_1invertedindex_1_1ByteBuffer.html#a2f5a59f9d290bd2116bbd73244666171" target="_top" xlink:title=" ">
<polygon fill="white" stroke="#666666" points="729,-174 594,-174 594,-144 729,-144 729,-174"/>
<text text-anchor="start" x="602" y="-162" font-family="Helvetica,sans-Serif" font-size="10.00">netspeak::invertedindex</text>
<text text-anchor="middle" x="661.5" y="-151" font-family="Helvetica,sans-Serif" font-size="10.00">::ByteBuffer::read</text>
</a>
</g>
</g>
<!-- Node1&#45;&gt;Node12 -->
<g id="edge11_Node000001_Node000012" class="edge">
<title>Node1&#45;&gt;Node12</title>
<g id="a_edge11_Node000001_Node000012"><a xlink:title=" ">
<path fill="none" stroke="#63b8ff" d="M812.42,-229.62C794.11,-217.32 767.13,-200.17 742,-188 731.42,-182.88 719.69,-178.12 708.56,-174.01"/>
<polygon fill="#63b8ff" stroke="#63b8ff" points="810.66,-232.66 820.9,-235.4 814.6,-226.87 810.66,-232.66"/>
</a>
</g>
</g>
<!-- Node19 -->
<g id="Node000019" class="node">
<title>Node19</title>
<g id="a_Node000019"><a xlink:href="classnetspeak_1_1invertedindex_1_1StorageReader.html#a62ed78016173bd9e7d42832d702518a6" target="_top" xlink:title=" ">
<polygon fill="white" stroke="#666666" points="737,-78 586,-78 586,-48 737,-48 737,-78"/>
<text text-anchor="start" x="594" y="-66" font-family="Helvetica,sans-Serif" font-size="10.00">netspeak::invertedindex</text>
<text text-anchor="middle" x="661.5" y="-55" font-family="Helvetica,sans-Serif" font-size="10.00">::StorageReader::ReadHead</text>
</a>
</g>
</g>
<!-- Node1&#45;&gt;Node19 -->
<g id="edge19_Node000001_Node000019" class="edge">
<title>Node1&#45;&gt;Node19</title>
<g id="a_edge19_Node000001_Node000019"><a xlink:title=" ">
<path fill="none" stroke="#63b8ff" d="M820.82,-227.28C803.36,-205 771.81,-165.93 742,-135 721.97,-114.22 697.05,-92.21 680.51,-78.07"/>
<polygon fill="#63b8ff" stroke="#63b8ff" points="818.09,-229.47 827,-235.21 823.61,-225.17 818.09,-229.47"/>
</a>
</g>
</g>
<!-- Node3 -->
<g id="Node000003" class="node">
<title>Node3</title>
<g id="a_Node000003"><a xlink:href="classnetspeak_1_1bighashmap_1_1CmphMap.html#a8d33ce82688d2872b1c7e4034e848ee9" target="_top" xlink:title=" ">
<polygon fill="white" stroke="#666666" points="533.5,-404 405.5,-404 405.5,-374 533.5,-374 533.5,-404"/>
<text text-anchor="start" x="413.5" y="-392" font-family="Helvetica,sans-Serif" font-size="10.00">netspeak::bighashmap</text>
<text text-anchor="middle" x="469.5" y="-381" font-family="Helvetica,sans-Serif" font-size="10.00">::CmphMap::CmphMap</text>
</a>
</g>
</g>
<!-- Node2&#45;&gt;Node3 -->
<g id="edge2_Node000002_Node000003" class="edge">
<title>Node2&#45;&gt;Node3</title>
<g id="a_edge2_Node000002_Node000003"><a xlink:title=" ">
<path fill="none" stroke="#63b8ff" d="M570.73,-389C558.18,-389 545.51,-389 533.6,-389"/>
<polygon fill="#63b8ff" stroke="#63b8ff" points="570.75,-392.5 580.75,-389 570.75,-385.5 570.75,-392.5"/>
</a>
</g>
</g>
<!-- Node6 -->
<g id="Node000006" class="node">
<title>Node6</title>
<g id="a_Node000006"><a xlink:href="classnetspeak_1_1invertedindex_1_1Searcher.html#a89859cbc571a9e0ff7ff6830cb21ce72" target="_top" xlink:title=" ">
<polygon fill="white" stroke="#666666" points="537,-308 402,-308 402,-278 537,-278 537,-308"/>
<text text-anchor="start" x="410" y="-296" font-family="Helvetica,sans-Serif" font-size="10.00">netspeak::invertedindex</text>
<text text-anchor="middle" x="469.5" y="-285" font-family="Helvetica,sans-Serif" font-size="10.00">::Searcher::Searcher</text>
</a>
</g>
</g>
<!-- Node5&#45;&gt;Node6 -->
<g id="edge5_Node000005_Node000006" class="edge">
<title>Node5&#45;&gt;Node6</title>
<g id="a_edge5_Node000005_Node000006"><a xlink:title=" ">
<path fill="none" stroke="#63b8ff" d="M583.73,-293C568.27,-293 552.14,-293 537.06,-293"/>
<polygon fill="#63b8ff" stroke="#63b8ff" points="583.78,-296.5 593.78,-293 583.78,-289.5 583.78,-296.5"/>
</a>
</g>
</g>
<!-- Node9 -->
<g id="Node000009" class="node">
<title>Node9</title>
<g id="a_Node000009"><a xlink:href="classnetspeak_1_1invertedindex_1_1StorageReader.html#a17bfa1d64575d331ae0a95bc4188005b" target="_top" xlink:title=" ">
<polygon fill="white" stroke="#666666" points="358,-270 197,-270 197,-240 358,-240 358,-270"/>
<text text-anchor="start" x="205" y="-258" font-family="Helvetica,sans-Serif" font-size="10.00">netspeak::invertedindex</text>
<text text-anchor="middle" x="277.5" y="-247" font-family="Helvetica,sans-Serif" font-size="10.00">::StorageReader::ReadPostlist</text>
</a>
</g>
</g>
<!-- Node8&#45;&gt;Node9 -->
<g id="edge8_Node000008_Node000009" class="edge">
<title>Node8&#45;&gt;Node9</title>
<g id="a_edge8_Node000008_Node000009"><a xlink:title=" ">
<path fill="none" stroke="#63b8ff" d="M399.19,-224.51C379.08,-229.59 357.32,-235.09 337.88,-240"/>
<polygon fill="#63b8ff" stroke="#63b8ff" points="400.07,-227.9 408.9,-222.06 398.35,-221.11 400.07,-227.9"/>
</a>
</g>
</g>
<!-- Node10 -->
<g id="Node000010" class="node">
<title>Node10</title>
<g id="a_Node000010"><a xlink:href="classnetspeak_1_1invertedindex_1_1StorageReader.html#ab6e2061d842d4fd8d35fc000fedd41c2" target="_top" xlink:title=" ">
<polygon fill="white" stroke="#666666" points="161,-294 0,-294 0,-264 161,-264 161,-294"/>
<text text-anchor="start" x="8" y="-282" font-family="Helvetica,sans-Serif" font-size="10.00">netspeak::invertedindex</text>
<text text-anchor="middle" x="80.5" y="-271" font-family="Helvetica,sans-Serif" font-size="10.00">::StorageReader::ReadPostlist</text>
</a>
</g>
</g>
<!-- Node9&#45;&gt;Node10 -->
<g id="edge9_Node000009_Node000010" class="edge">
<title>Node9&#45;&gt;Node10</title>
<g id="a_edge9_Node000009_Node000010"><a xlink:title=" ">
<path fill="none" stroke="#63b8ff" d="M186.88,-266.03C178.3,-267.09 169.64,-268.15 161.16,-269.2"/>
<polygon fill="#63b8ff" stroke="#63b8ff" points="187.41,-269.49 196.9,-264.8 186.55,-262.54 187.41,-269.49"/>
</a>
</g>
</g>
<!-- Node11 -->
<g id="Node000011" class="node">
<title>Node11</title>
<g id="a_Node000011"><a xlink:href="classnetspeak_1_1invertedindex_1_1StorageReader.html#a529c086e636606ac8adc5a72abfe57f5" target="_top" xlink:title=" ">
<polygon fill="white" stroke="#666666" points="161,-246 0,-246 0,-216 161,-216 161,-246"/>
<text text-anchor="start" x="8" y="-234" font-family="Helvetica,sans-Serif" font-size="10.00">netspeak::invertedindex</text>
<text text-anchor="middle" x="80.5" y="-223" font-family="Helvetica,sans-Serif" font-size="10.00">::StorageReader::ReadPostlist</text>
</a>
</g>
</g>
<!-- Node9&#45;&gt;Node11 -->
<g id="edge10_Node000009_Node000011" class="edge">
<title>Node9&#45;&gt;Node11</title>
<g id="a_edge10_Node000009_Node000011"><a xlink:title=" ">
<path fill="none" stroke="#63b8ff" d="M186.88,-243.97C178.3,-242.91 169.64,-241.85 161.16,-240.8"/>
<polygon fill="#63b8ff" stroke="#63b8ff" points="186.55,-247.46 196.9,-245.2 187.41,-240.51 186.55,-247.46"/>
</a>
</g>
</g>
<!-- Node12&#45;&gt;Node8 -->
<g id="edge12_Node000012_Node000008" class="edge">
<title>Node12&#45;&gt;Node8</title>
<g id="a_edge12_Node000012_Node000008"><a xlink:title=" ">
<path fill="none" stroke="#63b8ff" d="M591.19,-176.51C571.08,-181.59 549.32,-187.09 529.88,-192"/>
<polygon fill="#63b8ff" stroke="#63b8ff" points="592.07,-179.9 600.9,-174.06 590.35,-173.11 592.07,-179.9"/>
</a>
</g>
</g>
<!-- Node13 -->
<g id="Node000013" class="node">
<title>Node13</title>
<g id="a_Node000013"><a xlink:href="structnetspeak_1_1invertedindex_1_1constant__size__iter.html#a8c043bcbf0384d03394ab5ced5fc0feb" target="_top" xlink:title=" ">
<polygon fill="white" stroke="#666666" points="541,-174 398,-174 398,-144 541,-144 541,-174"/>
<text text-anchor="start" x="406" y="-162" font-family="Helvetica,sans-Serif" font-size="10.00">netspeak::invertedindex</text>
<text text-anchor="middle" x="469.5" y="-151" font-family="Helvetica,sans-Serif" font-size="10.00">::constant_size_iter::swap</text>
</a>
</g>
</g>
<!-- Node12&#45;&gt;Node13 -->
<g id="edge13_Node000012_Node000013" class="edge">
<title>Node12&#45;&gt;Node13</title>
<g id="a_edge13_Node000012_Node000013"><a xlink:title=" ">
<path fill="none" stroke="#63b8ff" d="M583.68,-159C569.66,-159 555.09,-159 541.25,-159"/>
<polygon fill="#63b8ff" stroke="#63b8ff" points="583.78,-162.5 593.78,-159 583.78,-155.5 583.78,-162.5"/>
</a>
</g>
</g>
<!-- Node16 -->
<g id="Node000016" class="node">
<title>Node16</title>
<g id="a_Node000016"><a xlink:href="structnetspeak_1_1invertedindex_1_1variable__size__iter.html#a84f326125a36a1055b2c34923767737d" target="_top" xlink:title=" ">
<polygon fill="white" stroke="#666666" points="539.5,-126 399.5,-126 399.5,-96 539.5,-96 539.5,-126"/>
<text text-anchor="start" x="407.5" y="-114" font-family="Helvetica,sans-Serif" font-size="10.00">netspeak::invertedindex</text>
<text text-anchor="middle" x="469.5" y="-103" font-family="Helvetica,sans-Serif" font-size="10.00">::variable_size_iter::swap</text>
</a>
</g>
</g>
<!-- Node12&#45;&gt;Node16 -->
<g id="edge16_Node000012_Node000016" class="edge">
<title>Node12&#45;&gt;Node16</title>
<g id="a_edge16_Node000012_Node000016"><a xlink:title=" ">
<path fill="none" stroke="#63b8ff" d="M591.19,-141.49C571.08,-136.41 549.32,-130.91 529.88,-126"/>
<polygon fill="#63b8ff" stroke="#63b8ff" points="590.35,-144.89 600.9,-143.94 592.07,-138.1 590.35,-144.89"/>
</a>
</g>
</g>
<!-- Node14 -->
<g id="Node000014" class="node">
<title>Node14</title>
<g id="a_Node000014"><a xlink:href="structnetspeak_1_1invertedindex_1_1constant__size__iter.html#abe8fd3fe3fbaf005c166068116dffdc8" target="_top" xlink:title=" ">
<polygon fill="white" stroke="#666666" points="347,-222 208,-222 208,-192 347,-192 347,-222"/>
<text text-anchor="start" x="216" y="-210" font-family="Helvetica,sans-Serif" font-size="10.00">netspeak::invertedindex</text>
<text text-anchor="middle" x="277.5" y="-199" font-family="Helvetica,sans-Serif" font-size="10.00">::constant_size_iter::next</text>
</a>
</g>
</g>
<!-- Node13&#45;&gt;Node14 -->
<g id="edge14_Node000013_Node000014" class="edge">
<title>Node13&#45;&gt;Node14</title>
<g id="a_edge14_Node000013_Node000014"><a xlink:title=" ">
<path fill="none" stroke="#63b8ff" d="M399.19,-176.51C379.08,-181.59 357.32,-187.09 337.88,-192"/>
<polygon fill="#63b8ff" stroke="#63b8ff" points="400.07,-179.9 408.9,-174.06 398.35,-173.11 400.07,-179.9"/>
</a>
</g>
</g>
<!-- Node15 -->
<g id="Node000015" class="node">
<title>Node15</title>
<g id="a_Node000015"><a xlink:href="structnetspeak_1_1invertedindex_1_1constant__size__iter.html#ad1b3b0bc3cf09bc8098287d3163a2d9f" target="_top" xlink:title=" ">
<polygon fill="white" stroke="#666666" points="348.5,-174 206.5,-174 206.5,-144 348.5,-144 348.5,-174"/>
<text text-anchor="start" x="214.5" y="-162" font-family="Helvetica,sans-Serif" font-size="10.00">netspeak::invertedindex</text>
<text text-anchor="middle" x="277.5" y="-151" font-family="Helvetica,sans-Serif" font-size="10.00">::constant_size_iter::write</text>
</a>
</g>
</g>
<!-- Node13&#45;&gt;Node15 -->
<g id="edge15_Node000013_Node000015" class="edge">
<title>Node13&#45;&gt;Node15</title>
<g id="a_edge15_Node000013_Node000015"><a xlink:title=" ">
<path fill="none" stroke="#63b8ff" d="M387.49,-159C374.58,-159 361.31,-159 348.68,-159"/>
<polygon fill="#63b8ff" stroke="#63b8ff" points="387.75,-162.5 397.75,-159 387.75,-155.5 387.75,-162.5"/>
</a>
</g>
</g>
<!-- Node17 -->
<g id="Node000017" class="node">
<title>Node17</title>
<g id="a_Node000017"><a xlink:href="structnetspeak_1_1invertedindex_1_1variable__size__iter.html#accad1a29b6fa4e264f6de1ab478828b2" target="_top" xlink:title=" ">
<polygon fill="white" stroke="#666666" points="346,-126 209,-126 209,-96 346,-96 346,-126"/>
<text text-anchor="start" x="217" y="-114" font-family="Helvetica,sans-Serif" font-size="10.00">netspeak::invertedindex</text>
<text text-anchor="middle" x="277.5" y="-103" font-family="Helvetica,sans-Serif" font-size="10.00">::variable_size_iter::next</text>
</a>
</g>
</g>
<!-- Node16&#45;&gt;Node17 -->
<g id="edge17_Node000016_Node000017" class="edge">
<title>Node16&#45;&gt;Node17</title>
<g id="a_edge17_Node000016_Node000017"><a xlink:title=" ">
<path fill="none" stroke="#63b8ff" d="M389.11,-111C374.88,-111 360.17,-111 346.31,-111"/>
<polygon fill="#63b8ff" stroke="#63b8ff" points="389.37,-114.5 399.37,-111 389.37,-107.5 389.37,-114.5"/>
</a>
</g>
</g>
<!-- Node18 -->
<g id="Node000018" class="node">
<title>Node18</title>
<g id="a_Node000018"><a xlink:href="structnetspeak_1_1invertedindex_1_1variable__size__iter.html#ac34d912dfd281b76d060021c24c9fc63" target="_top" xlink:title=" ">
<polygon fill="white" stroke="#666666" points="347.5,-78 207.5,-78 207.5,-48 347.5,-48 347.5,-78"/>
<text text-anchor="start" x="215.5" y="-66" font-family="Helvetica,sans-Serif" font-size="10.00">netspeak::invertedindex</text>
<text text-anchor="middle" x="277.5" y="-55" font-family="Helvetica,sans-Serif" font-size="10.00">::variable_size_iter::write</text>
</a>
</g>
</g>
<!-- Node16&#45;&gt;Node18 -->
<g id="edge18_Node000016_Node000018" class="edge">
<title>Node16&#45;&gt;Node18</title>
<g id="a_edge18_Node000016_Node000018"><a xlink:title=" ">
<path fill="none" stroke="#63b8ff" d="M399.19,-93.49C379.08,-88.41 357.32,-82.91 337.88,-78"/>
<polygon fill="#63b8ff" stroke="#63b8ff" points="398.35,-96.89 408.9,-95.94 400.07,-90.1 398.35,-96.89"/>
</a>
</g>
</g>
<!-- Node20 -->
<g id="Node000020" class="node">
<title>Node20</title>
<g id="a_Node000020"><a xlink:href="classnetspeak_1_1invertedindex_1_1StorageReader.html#a9ea857eb693897e97ff1c454160edf32" target="_top" xlink:title=" ">
<polygon fill="white" stroke="#666666" points="545,-78 394,-78 394,-48 545,-48 545,-78"/>
<text text-anchor="start" x="402" y="-66" font-family="Helvetica,sans-Serif" font-size="10.00">netspeak::invertedindex</text>
<text text-anchor="middle" x="469.5" y="-55" font-family="Helvetica,sans-Serif" font-size="10.00">::StorageReader::ReadHead</text>
</a>
</g>
</g>
<!-- Node19&#45;&gt;Node20 -->
<g id="edge20_Node000019_Node000020" class="edge">
<title>Node19&#45;&gt;Node20</title>
<g id="a_edge20_Node000019_Node000020"><a xlink:title=" ">
<path fill="none" stroke="#63b8ff" d="M575.8,-63C565.59,-63 555.21,-63 545.14,-63"/>
<polygon fill="#63b8ff" stroke="#63b8ff" points="575.95,-66.5 585.95,-63 575.95,-59.5 575.95,-66.5"/>
</a>
</g>
</g>
<!-- Node21 -->
<g id="Node000021" class="node">
<title>Node21</title>
<g id="a_Node000021"><a xlink:href="classnetspeak_1_1invertedindex_1_1StorageReader.html#a469b706ed0ab7232d8fe1bda8d1cf4cf" target="_top" xlink:title=" ">
<polygon fill="white" stroke="#666666" points="545,-30 394,-30 394,0 545,0 545,-30"/>
<text text-anchor="start" x="402" y="-18" font-family="Helvetica,sans-Serif" font-size="10.00">netspeak::invertedindex</text>
<text text-anchor="middle" x="469.5" y="-7" font-family="Helvetica,sans-Serif" font-size="10.00">::StorageReader::ReadHead</text>
</a>
</g>
</g>
<!-- Node19&#45;&gt;Node21 -->
<g id="edge21_Node000019_Node000021" class="edge">
<title>Node19&#45;&gt;Node21</title>
<g id="a_edge21_Node000019_Node000021"><a xlink:title=" ">
<path fill="none" stroke="#63b8ff" d="M591.19,-45.49C571.08,-40.41 549.32,-34.91 529.88,-30"/>
<polygon fill="#63b8ff" stroke="#63b8ff" points="590.35,-48.89 600.9,-47.94 592.07,-42.1 590.35,-48.89"/>
</a>
</g>
</g>
</g>
</svg>
