<?xml version="1.0" encoding="UTF-8" standalone="no"?>
<!DOCTYPE svg PUBLIC "-//W3C//DTD SVG 1.1//EN"
 "http://www.w3.org/Graphics/SVG/1.1/DTD/svg11.dtd">
<!-- Generated by graphviz version 2.43.0 (0)
 -->
<!-- Title: netspeak::util::fread Pages: 1 -->
<svg width="427pt" height="54pt"
 viewBox="0.00 0.00 427.00 53.50" xmlns="http://www.w3.org/2000/svg" xmlns:xlink="http://www.w3.org/1999/xlink">
<g id="graph0" class="graph" transform="scale(1 1) rotate(0) translate(4 49.5)">
<title>netspeak::util::fread</title>
<!-- Node1 -->
<g id="Node000001" class="node">
<title>Node1</title>
<g id="a_Node000001"><a xlink:title=" ">
<polygon fill="#999999" stroke="#666666" points="115,-45.5 0,-45.5 0,-26.5 115,-26.5 115,-45.5"/>
<text text-anchor="middle" x="57.5" y="-33.5" font-family="Helvetica,sans-Serif" font-size="10.00">netspeak::util::fread</text>
</a>
</g>
</g>
<!-- Node2 -->
<g id="Node000002" class="node">
<title>Node2</title>
<g id="a_Node000002"><a xlink:href="namespacenetspeak_1_1util.html#a4c91ad572508b4021399ac7dddff574d" target="_top" xlink:title=" ">
<polygon fill="white" stroke="#666666" points="419,-45.5 306,-45.5 306,-26.5 419,-26.5 419,-45.5"/>
<text text-anchor="middle" x="362.5" y="-33.5" font-family="Helvetica,sans-Serif" font-size="10.00">netspeak::util::hash</text>
</a>
</g>
</g>
<!-- Node1&#45;&gt;Node2 -->
<g id="edge1_Node000001_Node000002" class="edge">
<title>Node1&#45;&gt;Node2</title>
<g id="a_edge1_Node000001_Node000002"><a xlink:title=" ">
<path fill="none" stroke="#63b8ff" d="M115.24,-38.13C127.06,-38.49 139.43,-38.81 151,-39 203.88,-39.86 217.12,-39.87 270,-39 278.34,-38.86 287.1,-38.66 295.77,-38.41"/>
<polygon fill="#63b8ff" stroke="#63b8ff" points="295.97,-41.91 305.86,-38.12 295.76,-34.91 295.97,-41.91"/>
</a>
</g>
</g>
<!-- Node3 -->
<g id="Node000003" class="node">
<title>Node3</title>
<g id="a_Node000003"><a xlink:href="namespacenetspeak_1_1util.html#af94d48fda5f335ddcb461a8237079866" target="_top" xlink:title=" ">
<polygon fill="white" stroke="#666666" points="270,-30 151,-30 151,0 270,0 270,-30"/>
<text text-anchor="start" x="159" y="-18" font-family="Helvetica,sans-Serif" font-size="10.00">netspeak::util::signal</text>
<text text-anchor="middle" x="210.5" y="-7" font-family="Helvetica,sans-Serif" font-size="10.00">_error</text>
</a>
</g>
</g>
<!-- Node1&#45;&gt;Node3 -->
<g id="edge2_Node000001_Node000003" class="edge">
<title>Node1&#45;&gt;Node3</title>
<g id="a_edge2_Node000001_Node000003"><a xlink:title=" ">
<path fill="none" stroke="#63b8ff" d="M115.16,-28.12C123.52,-26.96 132.21,-25.75 140.78,-24.56"/>
<polygon fill="#63b8ff" stroke="#63b8ff" points="141.34,-28.01 150.76,-23.17 140.38,-21.08 141.34,-28.01"/>
</a>
</g>
</g>
<!-- Node3&#45;&gt;Node2 -->
<g id="edge3_Node000003_Node000002" class="edge">
<title>Node3&#45;&gt;Node2</title>
<g id="a_edge3_Node000003_Node000002"><a xlink:title=" ">
<path fill="none" stroke="#63b8ff" d="M270.35,-23.24C278.64,-24.4 287.2,-25.6 295.61,-26.78"/>
<polygon fill="#63b8ff" stroke="#63b8ff" points="295.37,-30.28 305.76,-28.2 296.34,-23.34 295.37,-30.28"/>
</a>
</g>
</g>
</g>
</svg>
