<?xml version="1.0" encoding="UTF-8" standalone="no"?>
<!DOCTYPE svg PUBLIC "-//W3C//DTD SVG 1.1//EN"
 "http://www.w3.org/Graphics/SVG/1.1/DTD/svg11.dtd">
<!-- Generated by graphviz version 2.43.0 (0)
 -->
<!-- Title: netspeak::util::fseek Pages: 1 -->
<svg width="428pt" height="54pt"
 viewBox="0.00 0.00 428.00 53.50" xmlns="http://www.w3.org/2000/svg" xmlns:xlink="http://www.w3.org/1999/xlink">
<g id="graph0" class="graph" transform="scale(1 1) rotate(0) translate(4 49.5)">
<title>netspeak::util::fseek</title>
<!-- Node1 -->
<g id="Node000001" class="node">
<title>Node1</title>
<g id="a_Node000001"><a xlink:title=" ">
<polygon fill="#999999" stroke="#666666" points="116,-45.5 0,-45.5 0,-26.5 116,-26.5 116,-45.5"/>
<text text-anchor="middle" x="58" y="-33.5" font-family="Helvetica,sans-Serif" font-size="10.00">netspeak::util::fseek</text>
</a>
</g>
</g>
<!-- Node2 -->
<g id="Node000002" class="node">
<title>Node2</title>
<g id="a_Node000002"><a xlink:href="namespacenetspeak_1_1util.html#a4c91ad572508b4021399ac7dddff574d" target="_top" xlink:title=" ">
<polygon fill="white" stroke="#666666" points="420,-45.5 307,-45.5 307,-26.5 420,-26.5 420,-45.5"/>
<text text-anchor="middle" x="363.5" y="-33.5" font-family="Helvetica,sans-Serif" font-size="10.00">netspeak::util::hash</text>
</a>
</g>
</g>
<!-- Node1&#45;&gt;Node2 -->
<g id="edge1_Node000001_Node000002" class="edge">
<title>Node1&#45;&gt;Node2</title>
<g id="a_edge1_Node000001_Node000002"><a xlink:title=" ">
<path fill="none" stroke="#63b8ff" d="M116.05,-38.13C127.93,-38.49 140.37,-38.81 152,-39 204.88,-39.85 218.12,-39.87 271,-39 279.34,-38.86 288.1,-38.66 296.77,-38.41"/>
<polygon fill="#63b8ff" stroke="#63b8ff" points="296.97,-41.91 306.86,-38.12 296.76,-34.91 296.97,-41.91"/>
</a>
</g>
</g>
<!-- Node3 -->
<g id="Node000003" class="node">
<title>Node3</title>
<g id="a_Node000003"><a xlink:href="namespacenetspeak_1_1util.html#af94d48fda5f335ddcb461a8237079866" target="_top" xlink:title=" ">
<polygon fill="white" stroke="#666666" points="271,-30 152,-30 152,0 271,0 271,-30"/>
<text text-anchor="start" x="160" y="-18" font-family="Helvetica,sans-Serif" font-size="10.00">netspeak::util::signal</text>
<text text-anchor="middle" x="211.5" y="-7" font-family="Helvetica,sans-Serif" font-size="10.00">_error</text>
</a>
</g>
</g>
<!-- Node1&#45;&gt;Node3 -->
<g id="edge2_Node000001_Node000003" class="edge">
<title>Node1&#45;&gt;Node3</title>
<g id="a_edge2_Node000001_Node000003"><a xlink:title=" ">
<path fill="none" stroke="#63b8ff" d="M116.28,-28.06C124.65,-26.9 133.34,-25.7 141.91,-24.51"/>
<polygon fill="#63b8ff" stroke="#63b8ff" points="142.46,-27.96 151.88,-23.13 141.5,-21.03 142.46,-27.96"/>
</a>
</g>
</g>
<!-- Node3&#45;&gt;Node2 -->
<g id="edge3_Node000003_Node000002" class="edge">
<title>Node3&#45;&gt;Node2</title>
<g id="a_edge3_Node000003_Node000002"><a xlink:title=" ">
<path fill="none" stroke="#63b8ff" d="M271.35,-23.24C279.64,-24.4 288.2,-25.6 296.61,-26.78"/>
<polygon fill="#63b8ff" stroke="#63b8ff" points="296.37,-30.28 306.76,-28.2 297.34,-23.34 296.37,-30.28"/>
</a>
</g>
</g>
</g>
</svg>
