<?xml version="1.0" encoding="UTF-8" standalone="no"?>
<!DOCTYPE svg PUBLIC "-//W3C//DTD SVG 1.1//EN"
 "http://www.w3.org/Graphics/SVG/1.1/DTD/svg11.dtd">
<!-- Generated by graphviz version 2.43.0 (0)
 -->
<!-- Title: netspeak::util::is_valid_utf8 Pages: 1 -->
<svg width="823pt" height="86pt"
 viewBox="0.00 0.00 823.00 86.00" xmlns="http://www.w3.org/2000/svg" xmlns:xlink="http://www.w3.org/1999/xlink">
<g id="graph0" class="graph" transform="scale(1 1) rotate(0) translate(4 82)">
<title>netspeak::util::is_valid_utf8</title>
<!-- Node1 -->
<g id="Node000001" class="node">
<title>Node1</title>
<g id="a_Node000001"><a xlink:title=" ">
<polygon fill="#999999" stroke="#666666" points="815,-54 717,-54 717,-24 815,-24 815,-54"/>
<text text-anchor="start" x="725" y="-42" font-family="Helvetica,sans-Serif" font-size="10.00">netspeak::util::is</text>
<text text-anchor="middle" x="766" y="-31" font-family="Helvetica,sans-Serif" font-size="10.00">_valid_utf8</text>
</a>
</g>
</g>
<!-- Node2 -->
<g id="Node000002" class="node">
<title>Node2</title>
<g id="a_Node000002"><a xlink:href="namespacenetspeak_1_1util.html#a1f7aa14f6cb81f98cbca5413e3026096" target="_top" xlink:title=" ">
<polygon fill="white" stroke="#666666" points="681,-78 563,-78 563,-48 681,-48 681,-78"/>
<text text-anchor="start" x="571" y="-66" font-family="Helvetica,sans-Serif" font-size="10.00">netspeak::util::check</text>
<text text-anchor="middle" x="622" y="-55" font-family="Helvetica,sans-Serif" font-size="10.00">_valid_utf8</text>
</a>
</g>
</g>
<!-- Node1&#45;&gt;Node2 -->
<g id="edge1_Node000001_Node000002" class="edge">
<title>Node1&#45;&gt;Node2</title>
<g id="a_edge1_Node000001_Node000002"><a xlink:title=" ">
<path fill="none" stroke="#63b8ff" d="M707.03,-48.8C698.48,-50.24 689.67,-51.73 681.11,-53.18"/>
<polygon fill="#63b8ff" stroke="#63b8ff" points="707.65,-52.24 716.93,-47.13 706.48,-45.34 707.65,-52.24"/>
</a>
</g>
</g>
<!-- Node6 -->
<g id="Node000006" class="node">
<title>Node6</title>
<g id="a_Node000006"><a xlink:href="namespacenetspeak_1_1util.html#a2f1ac3ff0378030738c2e5a7ff08e5a9" target="_top" xlink:title=" ">
<polygon fill="white" stroke="#666666" points="681,-30 563,-30 563,0 681,0 681,-30"/>
<text text-anchor="start" x="571" y="-18" font-family="Helvetica,sans-Serif" font-size="10.00">netspeak::util::check</text>
<text text-anchor="middle" x="622" y="-7" font-family="Helvetica,sans-Serif" font-size="10.00">_valid_utf8</text>
</a>
</g>
</g>
<!-- Node1&#45;&gt;Node6 -->
<g id="edge5_Node000001_Node000006" class="edge">
<title>Node1&#45;&gt;Node6</title>
<g id="a_edge5_Node000001_Node000006"><a xlink:title=" ">
<path fill="none" stroke="#63b8ff" d="M707.03,-29.2C698.48,-27.76 689.67,-26.27 681.11,-24.82"/>
<polygon fill="#63b8ff" stroke="#63b8ff" points="706.48,-32.66 716.93,-30.87 707.65,-25.76 706.48,-32.66"/>
</a>
</g>
</g>
<!-- Node3 -->
<g id="Node000003" class="node">
<title>Node3</title>
<g id="a_Node000003"><a xlink:href="classnetspeak_1_1PhraseFileParser.html#a2b1e4624be15f416aa1248496795497f" target="_top" xlink:title=" ">
<polygon fill="white" stroke="#666666" points="527,-78 379,-78 379,-48 527,-48 527,-78"/>
<text text-anchor="start" x="387" y="-66" font-family="Helvetica,sans-Serif" font-size="10.00">netspeak::PhraseFileParser</text>
<text text-anchor="middle" x="453" y="-55" font-family="Helvetica,sans-Serif" font-size="10.00">::read</text>
</a>
</g>
</g>
<!-- Node2&#45;&gt;Node3 -->
<g id="edge2_Node000002_Node000003" class="edge">
<title>Node2&#45;&gt;Node3</title>
<g id="a_edge2_Node000002_Node000003"><a xlink:title=" ">
<path fill="none" stroke="#63b8ff" d="M552.49,-63C544.1,-63 535.51,-63 527.06,-63"/>
<polygon fill="#63b8ff" stroke="#63b8ff" points="552.59,-66.5 562.59,-63 552.59,-59.5 552.59,-66.5"/>
</a>
</g>
</g>
<!-- Node4 -->
<g id="Node000004" class="node">
<title>Node4</title>
<g id="a_Node000004"><a xlink:href="classnetspeak_1_1PhraseFileParser.html#aa90dd22dcf63b47242edb7345cee89b5" target="_top" xlink:title=" ">
<polygon fill="white" stroke="#666666" points="343,-78 195,-78 195,-48 343,-48 343,-78"/>
<text text-anchor="start" x="203" y="-66" font-family="Helvetica,sans-Serif" font-size="10.00">netspeak::PhraseFileParser</text>
<text text-anchor="middle" x="269" y="-55" font-family="Helvetica,sans-Serif" font-size="10.00">::read_next</text>
</a>
</g>
</g>
<!-- Node3&#45;&gt;Node4 -->
<g id="edge3_Node000003_Node000004" class="edge">
<title>Node3&#45;&gt;Node4</title>
<g id="a_edge3_Node000003_Node000004"><a xlink:title=" ">
<path fill="none" stroke="#63b8ff" d="M368.48,-63C360.01,-63 351.44,-63 343.09,-63"/>
<polygon fill="#63b8ff" stroke="#63b8ff" points="368.76,-66.5 378.76,-63 368.76,-59.5 368.76,-66.5"/>
</a>
</g>
</g>
<!-- Node5 -->
<g id="Node000005" class="node">
<title>Node5</title>
<g id="a_Node000005"><a xlink:href="namespacenetspeak.html#ada202c21bedf32e697fdfb62ad980688" target="_top" xlink:title=" ">
<polygon fill="white" stroke="#666666" points="159,-72.5 0,-72.5 0,-53.5 159,-53.5 159,-72.5"/>
<text text-anchor="middle" x="79.5" y="-60.5" font-family="Helvetica,sans-Serif" font-size="10.00">netspeak::BuildPhraseCorpus</text>
</a>
</g>
</g>
<!-- Node4&#45;&gt;Node5 -->
<g id="edge4_Node000004_Node000005" class="edge">
<title>Node4&#45;&gt;Node5</title>
<g id="a_edge4_Node000004_Node000005"><a xlink:title=" ">
<path fill="none" stroke="#63b8ff" d="M184.71,-63C176.24,-63 167.65,-63 159.22,-63"/>
<polygon fill="#63b8ff" stroke="#63b8ff" points="184.97,-66.5 194.97,-63 184.97,-59.5 184.97,-66.5"/>
</a>
</g>
</g>
</g>
</svg>
