<?xml version="1.0" encoding="UTF-8" standalone="no"?>
<!DOCTYPE svg PUBLIC "-//W3C//DTD SVG 1.1//EN"
 "http://www.w3.org/Graphics/SVG/1.1/DTD/svg11.dtd">
<!-- Generated by graphviz version 2.43.0 (0)
 -->
<!-- Title: netspeak::service::log_error_status Pages: 1 -->
<svg width="590pt" height="77pt"
 viewBox="0.00 0.00 590.00 77.00" xmlns="http://www.w3.org/2000/svg" xmlns:xlink="http://www.w3.org/1999/xlink">
<g id="graph0" class="graph" transform="scale(1 1) rotate(0) translate(4 73)">
<title>netspeak::service::log_error_status</title>
<!-- Node1 -->
<g id="Node000001" class="node">
<title>Node1</title>
<g id="a_Node000001"><a xlink:title=" ">
<polygon fill="#999999" stroke="#666666" points="109,-51 0,-51 0,-21 109,-21 109,-51"/>
<text text-anchor="start" x="8" y="-39" font-family="Helvetica,sans-Serif" font-size="10.00">netspeak::service::</text>
<text text-anchor="middle" x="54.5" y="-28" font-family="Helvetica,sans-Serif" font-size="10.00">log_error_status</text>
</a>
</g>
</g>
<!-- Node1&#45;&gt;Node1 -->
<g id="edge1_Node000001_Node000001" class="edge">
<title>Node1&#45;&gt;Node1</title>
<g id="a_edge1_Node000001_Node000001"><a xlink:title=" ">
<path fill="none" stroke="#63b8ff" d="M26.38,-51.28C20.12,-60.41 29.5,-69 54.5,-69 69.34,-69 78.68,-65.97 82.51,-61.6"/>
<polygon fill="#63b8ff" stroke="#63b8ff" points="86.01,-61.32 82.62,-51.28 79.01,-61.23 86.01,-61.32"/>
</a>
</g>
</g>
<!-- Node2 -->
<g id="Node000002" class="node">
<title>Node2</title>
<g id="a_Node000002"><a xlink:href="classnetspeak_1_1util_1_1JsonWriter_1_1ObjectContinue.html#aa7d3f4f919394e032f405e39e58d7958" target="_top" xlink:title=" ">
<polygon fill="white" stroke="#666666" points="285,-51 145,-51 145,-21 285,-21 285,-51"/>
<text text-anchor="start" x="153" y="-39" font-family="Helvetica,sans-Serif" font-size="10.00">netspeak::util::JsonWriter</text>
<text text-anchor="middle" x="215" y="-28" font-family="Helvetica,sans-Serif" font-size="10.00">::ObjectContinue::prop</text>
</a>
</g>
</g>
<!-- Node1&#45;&gt;Node2 -->
<g id="edge2_Node000001_Node000002" class="edge">
<title>Node1&#45;&gt;Node2</title>
<g id="a_edge2_Node000001_Node000002"><a xlink:title=" ">
<path fill="none" stroke="#63b8ff" d="M109.16,-36C117.42,-36 126.1,-36 134.78,-36"/>
<polygon fill="#63b8ff" stroke="#63b8ff" points="134.94,-39.5 144.94,-36 134.94,-32.5 134.94,-39.5"/>
</a>
</g>
</g>
<!-- Node3 -->
<g id="Node000003" class="node">
<title>Node3</title>
<g id="a_Node000003"><a xlink:href="namespacenetspeak_1_1util.html#a134a9d8c3e5477e6835cb4367cdafebf" target="_top" xlink:title=" ">
<polygon fill="white" stroke="#666666" points="433,-51 321,-51 321,-21 433,-21 433,-51"/>
<text text-anchor="start" x="329" y="-39" font-family="Helvetica,sans-Serif" font-size="10.00">netspeak::util::print</text>
<text text-anchor="middle" x="377" y="-28" font-family="Helvetica,sans-Serif" font-size="10.00">_json_string</text>
</a>
</g>
</g>
<!-- Node2&#45;&gt;Node3 -->
<g id="edge3_Node000002_Node000003" class="edge">
<title>Node2&#45;&gt;Node3</title>
<g id="a_edge3_Node000002_Node000003"><a xlink:title=" ">
<path fill="none" stroke="#63b8ff" d="M285.25,-36C293.65,-36 302.22,-36 310.57,-36"/>
<polygon fill="#63b8ff" stroke="#63b8ff" points="310.62,-39.5 320.62,-36 310.62,-32.5 310.62,-39.5"/>
</a>
</g>
</g>
<!-- Node4 -->
<g id="Node000004" class="node">
<title>Node4</title>
<g id="a_Node000004"><a xlink:href="namespacenetspeak_1_1util.html#a4c91ad572508b4021399ac7dddff574d" target="_top" xlink:title=" ">
<polygon fill="white" stroke="#666666" points="582,-67.5 469,-67.5 469,-48.5 582,-48.5 582,-67.5"/>
<text text-anchor="middle" x="525.5" y="-55.5" font-family="Helvetica,sans-Serif" font-size="10.00">netspeak::util::hash</text>
</a>
</g>
</g>
<!-- Node3&#45;&gt;Node4 -->
<g id="edge4_Node000003_Node000004" class="edge">
<title>Node3&#45;&gt;Node4</title>
<g id="a_edge4_Node000003_Node000004"><a xlink:title=" ">
<path fill="none" stroke="#63b8ff" d="M433.39,-44.32C441.57,-45.55 450.06,-46.82 458.43,-48.08"/>
<polygon fill="#63b8ff" stroke="#63b8ff" points="458.14,-51.57 468.55,-49.6 459.18,-44.65 458.14,-51.57"/>
</a>
</g>
</g>
<!-- Node5 -->
<g id="Node000005" class="node">
<title>Node5</title>
<g id="a_Node000005"><a xlink:href="namespacenetspeak_1_1util.html#ab81364f286f51c8ceaafc921fd48dd5a" target="_top" xlink:title=" ">
<polygon fill="white" stroke="#666666" points="575,-30 476,-30 476,0 575,0 575,-30"/>
<text text-anchor="start" x="484" y="-18" font-family="Helvetica,sans-Serif" font-size="10.00">netspeak::util::to</text>
<text text-anchor="middle" x="525.5" y="-7" font-family="Helvetica,sans-Serif" font-size="10.00">_hex_digit</text>
</a>
</g>
</g>
<!-- Node3&#45;&gt;Node5 -->
<g id="edge5_Node000003_Node000005" class="edge">
<title>Node3&#45;&gt;Node5</title>
<g id="a_edge5_Node000003_Node000005"><a xlink:title=" ">
<path fill="none" stroke="#63b8ff" d="M433.39,-28.06C443.95,-26.55 455.04,-24.96 465.7,-23.43"/>
<polygon fill="#63b8ff" stroke="#63b8ff" points="466.36,-26.87 475.76,-21.99 465.37,-19.94 466.36,-26.87"/>
</a>
</g>
</g>
</g>
</svg>
