<?xml version="1.0" encoding="UTF-8" standalone="no"?>
<!DOCTYPE svg PUBLIC "-//W3C//DTD SVG 1.1//EN"
 "http://www.w3.org/Graphics/SVG/1.1/DTD/svg11.dtd">
<!-- Generated by graphviz version 2.43.0 (0)
 -->
<!-- Title: netspeak::service::is_valid_tracking_id Pages: 1 -->
<svg width="394pt" height="51pt"
 viewBox="0.00 0.00 394.00 50.50" xmlns="http://www.w3.org/2000/svg" xmlns:xlink="http://www.w3.org/1999/xlink">
<g id="graph0" class="graph" transform="scale(1 1) rotate(0) translate(4 46.5)">
<title>netspeak::service::is_valid_tracking_id</title>
<!-- Node1 -->
<g id="Node000001" class="node">
<title>Node1</title>
<g id="a_Node000001"><a xlink:title=" ">
<polygon fill="#999999" stroke="#666666" points="386,-30 273,-30 273,0 386,0 386,-30"/>
<text text-anchor="start" x="281" y="-18" font-family="Helvetica,sans-Serif" font-size="10.00">netspeak::service::</text>
<text text-anchor="middle" x="329.5" y="-7" font-family="Helvetica,sans-Serif" font-size="10.00">is_valid_tracking_id</text>
</a>
</g>
</g>
<!-- Node2 -->
<g id="Node000002" class="node">
<title>Node2</title>
<g id="a_Node000002"><a xlink:href="namespacenetspeak_1_1service.html#a3123a7ad18ee7a84fde227fc980c8ef6" target="_top" xlink:title=" ">
<polygon fill="white" stroke="#666666" points="237,-30 128,-30 128,0 237,0 237,-30"/>
<text text-anchor="start" x="136" y="-18" font-family="Helvetica,sans-Serif" font-size="10.00">netspeak::service::</text>
<text text-anchor="middle" x="182.5" y="-7" font-family="Helvetica,sans-Serif" font-size="10.00">set_tracking_id</text>
</a>
</g>
</g>
<!-- Node1&#45;&gt;Node2 -->
<g id="edge1_Node000001_Node000002" class="edge">
<title>Node1&#45;&gt;Node2</title>
<g id="a_edge1_Node000001_Node000002"><a xlink:title=" ">
<path fill="none" stroke="#63b8ff" d="M262.62,-15C254.15,-15 245.57,-15 237.33,-15"/>
<polygon fill="#63b8ff" stroke="#63b8ff" points="262.85,-18.5 272.85,-15 262.85,-11.5 262.85,-18.5"/>
</a>
</g>
</g>
<!-- Node3 -->
<g id="Node000003" class="node">
<title>Node3</title>
<g id="a_Node000003"><a xlink:href="classcli_1_1Tester.html#a9610291065c0c28e48064bfff0538de2" target="_top" xlink:title=" ">
<polygon fill="white" stroke="#666666" points="92,-24.5 0,-24.5 0,-5.5 92,-5.5 92,-24.5"/>
<text text-anchor="middle" x="46" y="-12.5" font-family="Helvetica,sans-Serif" font-size="10.00">cli::Tester::start</text>
</a>
</g>
</g>
<!-- Node2&#45;&gt;Node3 -->
<g id="edge2_Node000002_Node000003" class="edge">
<title>Node2&#45;&gt;Node3</title>
<g id="a_edge2_Node000002_Node000003"><a xlink:title=" ">
<path fill="none" stroke="#63b8ff" d="M117.84,-15C109.15,-15 100.39,-15 92.13,-15"/>
<polygon fill="#63b8ff" stroke="#63b8ff" points="117.96,-18.5 127.96,-15 117.96,-11.5 117.96,-18.5"/>
</a>
</g>
</g>
<!-- Node3&#45;&gt;Node3 -->
<g id="edge3_Node000003_Node000003" class="edge">
<title>Node3&#45;&gt;Node3</title>
<g id="a_edge3_Node000003_Node000003"><a xlink:title=" ">
<path fill="none" stroke="#63b8ff" d="M71.3,-33.69C69.92,-38.7 61.49,-42.5 46,-42.5 21.83,-42.5 14.84,-33.23 25.04,-24.58"/>
<polygon fill="#63b8ff" stroke="#63b8ff" points="74.42,-32.11 66.96,-24.58 68.1,-35.12 74.42,-32.11"/>
</a>
</g>
</g>
</g>
</svg>
