<?xml version="1.0" encoding="UTF-8" standalone="no"?>
<!DOCTYPE svg PUBLIC "-//W3C//DTD SVG 1.1//EN"
 "http://www.w3.org/Graphics/SVG/1.1/DTD/svg11.dtd">
<!-- Generated by graphviz version 2.43.0 (0)
 -->
<!-- Title: netspeak::service::utc_timestamp Pages: 1 -->
<svg width="449pt" height="128pt"
 viewBox="0.00 0.00 449.00 128.00" xmlns="http://www.w3.org/2000/svg" xmlns:xlink="http://www.w3.org/1999/xlink">
<g id="graph0" class="graph" transform="scale(1 1) rotate(0) translate(4 124)">
<title>netspeak::service::utc_timestamp</title>
<!-- Node1 -->
<g id="Node000001" class="node">
<title>Node1</title>
<g id="a_Node000001"><a xlink:title="Returns the current time formatted as a string following the ISO 8601 format for UTC date and time.">
<polygon fill="#999999" stroke="#666666" points="441,-87 332,-87 332,-57 441,-57 441,-87"/>
<text text-anchor="start" x="340" y="-75" font-family="Helvetica,sans-Serif" font-size="10.00">netspeak::service::</text>
<text text-anchor="middle" x="386.5" y="-64" font-family="Helvetica,sans-Serif" font-size="10.00">utc_timestamp</text>
</a>
</g>
</g>
<!-- Node2 -->
<g id="Node000002" class="node">
<title>Node2</title>
<g id="a_Node000002"><a xlink:href="namespacenetspeak_1_1service.html#a2ce9e6b6f83b0b45f9a8474b5210dce9" target="_top" xlink:title=" ">
<polygon fill="white" stroke="#666666" points="296,-120 187,-120 187,-90 296,-90 296,-120"/>
<text text-anchor="start" x="195" y="-108" font-family="Helvetica,sans-Serif" font-size="10.00">netspeak::service::</text>
<text text-anchor="middle" x="241.5" y="-97" font-family="Helvetica,sans-Serif" font-size="10.00">get_log_file_prefix</text>
</a>
</g>
</g>
<!-- Node1&#45;&gt;Node2 -->
<g id="edge1_Node000001_Node000002" class="edge">
<title>Node1&#45;&gt;Node2</title>
<g id="a_edge1_Node000001_Node000002"><a xlink:title=" ">
<path fill="none" stroke="#63b8ff" d="M321.95,-86.66C313.44,-88.63 304.78,-90.63 296.46,-92.55"/>
<polygon fill="#63b8ff" stroke="#63b8ff" points="322.89,-90.04 331.85,-84.38 321.31,-83.22 322.89,-90.04"/>
</a>
</g>
</g>
<!-- Node3 -->
<g id="Node000003" class="node">
<title>Node3</title>
<g id="a_Node000003"><a xlink:href="namespacenetspeak_1_1service.html#a75b5182433d6eb37dde58d0efff5b799" target="_top" xlink:title=" ">
<polygon fill="white" stroke="#666666" points="296,-54 187,-54 187,-24 296,-24 296,-54"/>
<text text-anchor="start" x="195" y="-42" font-family="Helvetica,sans-Serif" font-size="10.00">netspeak::service::</text>
<text text-anchor="middle" x="241.5" y="-31" font-family="Helvetica,sans-Serif" font-size="10.00">log_boilerplate</text>
</a>
</g>
</g>
<!-- Node1&#45;&gt;Node3 -->
<g id="edge2_Node000001_Node000003" class="edge">
<title>Node1&#45;&gt;Node3</title>
<g id="a_edge2_Node000001_Node000003"><a xlink:title=" ">
<path fill="none" stroke="#63b8ff" d="M321.95,-57.34C313.44,-55.37 304.78,-53.37 296.46,-51.45"/>
<polygon fill="#63b8ff" stroke="#63b8ff" points="321.31,-60.78 331.85,-59.62 322.89,-53.96 321.31,-60.78"/>
</a>
</g>
</g>
<!-- Node3&#45;&gt;Node3 -->
<g id="edge4_Node000003_Node000003" class="edge">
<title>Node3&#45;&gt;Node3</title>
<g id="a_edge4_Node000003_Node000003"><a xlink:title=" ">
<path fill="none" stroke="#63b8ff" d="M266.71,-64.6C263.26,-68.97 254.86,-72 241.5,-72 219,-72 210.56,-63.41 216.19,-54.28"/>
<polygon fill="#63b8ff" stroke="#63b8ff" points="270.21,-64.31 266.81,-54.28 263.21,-64.24 270.21,-64.31"/>
</a>
</g>
</g>
<!-- Node4 -->
<g id="Node000004" class="node">
<title>Node4</title>
<g id="a_Node000004"><a xlink:href="classnetspeak_1_1service_1_1RequestLogger.html#af6f740ce3b61ce0457265f30a7d36488" target="_top" xlink:title=" ">
<polygon fill="white" stroke="#666666" points="151,-78 0,-78 0,-48 151,-48 151,-78"/>
<text text-anchor="start" x="8" y="-66" font-family="Helvetica,sans-Serif" font-size="10.00">netspeak::service::</text>
<text text-anchor="middle" x="75.5" y="-55" font-family="Helvetica,sans-Serif" font-size="10.00">RequestLogger::GetCorpora</text>
</a>
</g>
</g>
<!-- Node3&#45;&gt;Node4 -->
<g id="edge3_Node000003_Node000004" class="edge">
<title>Node3&#45;&gt;Node4</title>
<g id="a_edge3_Node000003_Node000004"><a xlink:title=" ">
<path fill="none" stroke="#63b8ff" d="M176.73,-48.33C168.35,-49.56 159.7,-50.82 151.16,-52.07"/>
<polygon fill="#63b8ff" stroke="#63b8ff" points="177.41,-51.77 186.8,-46.86 176.4,-44.84 177.41,-51.77"/>
</a>
</g>
</g>
<!-- Node5 -->
<g id="Node000005" class="node">
<title>Node5</title>
<g id="a_Node000005"><a xlink:href="classnetspeak_1_1service_1_1RequestLogger.html#a131feb684685433d4f618ea9ba4e6380" target="_top" xlink:title=" ">
<polygon fill="white" stroke="#666666" points="139.5,-30 11.5,-30 11.5,0 139.5,0 139.5,-30"/>
<text text-anchor="start" x="19.5" y="-18" font-family="Helvetica,sans-Serif" font-size="10.00">netspeak::service::</text>
<text text-anchor="middle" x="75.5" y="-7" font-family="Helvetica,sans-Serif" font-size="10.00">RequestLogger::Search</text>
</a>
</g>
</g>
<!-- Node3&#45;&gt;Node5 -->
<g id="edge5_Node000003_Node000005" class="edge">
<title>Node3&#45;&gt;Node5</title>
<g id="a_edge5_Node000003_Node000005"><a xlink:title=" ">
<path fill="none" stroke="#63b8ff" d="M176.75,-29.67C164.59,-27.89 151.87,-26.03 139.73,-24.25"/>
<polygon fill="#63b8ff" stroke="#63b8ff" points="176.4,-33.16 186.8,-31.14 177.41,-26.23 176.4,-33.16"/>
</a>
</g>
</g>
</g>
</svg>
