<?xml version="1.0" encoding="UTF-8" standalone="no"?>
<!DOCTYPE svg PUBLIC "-//W3C//DTD SVG 1.1//EN"
 "http://www.w3.org/Graphics/SVG/1.1/DTD/svg11.dtd">
<!-- Generated by graphviz version 2.43.0 (0)
 -->
<!-- Title: netspeak::model::operator&lt;&lt; Pages: 1 -->
<svg width="373pt" height="134pt"
 viewBox="0.00 0.00 373.00 134.00" xmlns="http://www.w3.org/2000/svg" xmlns:xlink="http://www.w3.org/1999/xlink">
<g id="graph0" class="graph" transform="scale(1 1) rotate(0) translate(4 130)">
<title>netspeak::model::operator&lt;&lt;</title>
<!-- Node1 -->
<g id="Node000001" class="node">
<title>Node1</title>
<g id="a_Node000001"><a xlink:title=" ">
<polygon fill="#999999" stroke="#666666" points="162,-72.5 0,-72.5 0,-53.5 162,-53.5 162,-72.5"/>
<text text-anchor="middle" x="81" y="-60.5" font-family="Helvetica,sans-Serif" font-size="10.00">netspeak::model::operator&lt;&lt;</text>
</a>
</g>
</g>
<!-- Node2 -->
<g id="Node000002" class="node">
<title>Node2</title>
<g id="a_Node000002"><a xlink:href="classnetspeak_1_1model_1_1SimpleQueryUnit____.html#a8840caeb703398accd6bf417b0b1ae8e" target="_top" xlink:title=" ">
<polygon fill="white" stroke="#666666" points="365,-126 198,-126 198,-96 365,-96 365,-126"/>
<text text-anchor="start" x="206" y="-114" font-family="Helvetica,sans-Serif" font-size="10.00">netspeak::model::SimpleQuery</text>
<text text-anchor="middle" x="281.5" y="-103" font-family="Helvetica,sans-Serif" font-size="10.00">Unit__::children</text>
</a>
</g>
</g>
<!-- Node1&#45;&gt;Node2 -->
<g id="edge1_Node000001_Node000002" class="edge">
<title>Node1&#45;&gt;Node2</title>
<g id="a_edge1_Node000001_Node000002"><a xlink:title=" ">
<path fill="none" stroke="#63b8ff" d="M121.69,-72.6C146.49,-78.6 179.17,-86.5 208.43,-93.57"/>
<polygon fill="#63b8ff" stroke="#63b8ff" points="207.67,-96.99 218.21,-95.94 209.31,-90.18 207.67,-96.99"/>
</a>
</g>
</g>
<!-- Node3 -->
<g id="Node000003" class="node">
<title>Node3</title>
<g id="a_Node000003"><a xlink:href="classnetspeak_1_1model_1_1SimpleQueryUnit____.html#a06c21084859addaa75c754815d691d39" target="_top" xlink:title=" ">
<polygon fill="white" stroke="#666666" points="365,-78 198,-78 198,-48 365,-48 365,-78"/>
<text text-anchor="start" x="206" y="-66" font-family="Helvetica,sans-Serif" font-size="10.00">netspeak::model::SimpleQuery</text>
<text text-anchor="middle" x="281.5" y="-55" font-family="Helvetica,sans-Serif" font-size="10.00">Unit__::tag</text>
</a>
</g>
</g>
<!-- Node1&#45;&gt;Node3 -->
<g id="edge2_Node000001_Node000003" class="edge">
<title>Node1&#45;&gt;Node3</title>
<g id="a_edge2_Node000001_Node000003"><a xlink:title=" ">
<path fill="none" stroke="#63b8ff" d="M162.17,-63C170.5,-63 179.03,-63 187.49,-63"/>
<polygon fill="#63b8ff" stroke="#63b8ff" points="187.77,-66.5 197.77,-63 187.77,-59.5 187.77,-66.5"/>
</a>
</g>
</g>
<!-- Node4 -->
<g id="Node000004" class="node">
<title>Node4</title>
<g id="a_Node000004"><a xlink:href="classnetspeak_1_1model_1_1SimpleQueryUnit____.html#a1ffd5dced48df9d16a6de0e434858634" target="_top" xlink:title=" ">
<polygon fill="white" stroke="#666666" points="365,-30 198,-30 198,0 365,0 365,-30"/>
<text text-anchor="start" x="206" y="-18" font-family="Helvetica,sans-Serif" font-size="10.00">netspeak::model::SimpleQuery</text>
<text text-anchor="middle" x="281.5" y="-7" font-family="Helvetica,sans-Serif" font-size="10.00">Unit__::text</text>
</a>
</g>
</g>
<!-- Node1&#45;&gt;Node4 -->
<g id="edge3_Node000001_Node000004" class="edge">
<title>Node1&#45;&gt;Node4</title>
<g id="a_edge3_Node000001_Node000004"><a xlink:title=" ">
<path fill="none" stroke="#63b8ff" d="M121.69,-53.4C146.49,-47.4 179.17,-39.5 208.43,-32.43"/>
<polygon fill="#63b8ff" stroke="#63b8ff" points="209.31,-35.82 218.21,-30.06 207.67,-29.01 209.31,-35.82"/>
</a>
</g>
</g>
</g>
</svg>
