<?xml version="1.0" encoding="UTF-8" standalone="no"?>
<!DOCTYPE svg PUBLIC "-//W3C//DTD SVG 1.1//EN"
 "http://www.w3.org/Graphics/SVG/1.1/DTD/svg11.dtd">
<!-- Generated by graphviz version 2.43.0 (0)
 -->
<!-- Title: netspeak::find_missing_words Pages: 1 -->
<svg width="690pt" height="38pt"
 viewBox="0.00 0.00 690.00 38.00" xmlns="http://www.w3.org/2000/svg" xmlns:xlink="http://www.w3.org/1999/xlink">
<g id="graph0" class="graph" transform="scale(1 1) rotate(0) translate(4 34)">
<title>netspeak::find_missing_words</title>
<!-- Node1 -->
<g id="Node000001" class="node">
<title>Node1</title>
<g id="a_Node000001"><a xlink:title=" ">
<polygon fill="#999999" stroke="#666666" points="682,-30 553,-30 553,0 682,0 682,-30"/>
<text text-anchor="start" x="561" y="-18" font-family="Helvetica,sans-Serif" font-size="10.00">netspeak::find_missing</text>
<text text-anchor="middle" x="617.5" y="-7" font-family="Helvetica,sans-Serif" font-size="10.00">_words</text>
</a>
</g>
</g>
<!-- Node2 -->
<g id="Node000002" class="node">
<title>Node2</title>
<g id="a_Node000002"><a xlink:href="namespacenetspeak.html#a14c12d265b692be168a14990ed2c68e8" target="_top" xlink:title=" ">
<polygon fill="white" stroke="#666666" points="517,-24.5 388,-24.5 388,-5.5 517,-5.5 517,-24.5"/>
<text text-anchor="middle" x="452.5" y="-12.5" font-family="Helvetica,sans-Serif" font-size="10.00">netspeak::add_missing</text>
</a>
</g>
</g>
<!-- Node1&#45;&gt;Node2 -->
<g id="edge1_Node000001_Node000002" class="edge">
<title>Node1&#45;&gt;Node2</title>
<g id="a_edge1_Node000001_Node000002"><a xlink:title=" ">
<path fill="none" stroke="#63b8ff" d="M542.31,-15C533.86,-15 525.3,-15 517,-15"/>
<polygon fill="#63b8ff" stroke="#63b8ff" points="542.55,-18.5 552.55,-15 542.55,-11.5 542.55,-18.5"/>
</a>
</g>
</g>
<!-- Node3 -->
<g id="Node000003" class="node">
<title>Node3</title>
<g id="a_Node000003"><a xlink:href="namespacenetspeak.html#a1314b7075ba9a5635594b6d86fe2e881" target="_top" xlink:title=" ">
<polygon fill="white" stroke="#666666" points="352,-24.5 175,-24.5 175,-5.5 352,-5.5 352,-24.5"/>
<text text-anchor="middle" x="263.5" y="-12.5" font-family="Helvetica,sans-Serif" font-size="10.00">netspeak::BuildRegexVocabulary</text>
</a>
</g>
</g>
<!-- Node2&#45;&gt;Node3 -->
<g id="edge2_Node000002_Node000003" class="edge">
<title>Node2&#45;&gt;Node3</title>
<g id="a_edge2_Node000002_Node000003"><a xlink:title=" ">
<path fill="none" stroke="#63b8ff" d="M377.77,-15C369.33,-15 360.67,-15 352.08,-15"/>
<polygon fill="#63b8ff" stroke="#63b8ff" points="377.93,-18.5 387.93,-15 377.93,-11.5 377.93,-18.5"/>
</a>
</g>
</g>
<!-- Node4 -->
<g id="Node000004" class="node">
<title>Node4</title>
<g id="a_Node000004"><a xlink:href="namespacenetspeak.html#a4ea97d4aa2512ac858edac0e8710d49b" target="_top" xlink:title=" ">
<polygon fill="white" stroke="#666666" points="139,-24.5 0,-24.5 0,-5.5 139,-5.5 139,-24.5"/>
<text text-anchor="middle" x="69.5" y="-12.5" font-family="Helvetica,sans-Serif" font-size="10.00">netspeak::BuildNetspeak</text>
</a>
</g>
</g>
<!-- Node3&#45;&gt;Node4 -->
<g id="edge3_Node000003_Node000004" class="edge">
<title>Node3&#45;&gt;Node4</title>
<g id="a_edge3_Node000003_Node000004"><a xlink:title=" ">
<path fill="none" stroke="#63b8ff" d="M164.81,-15C156.18,-15 147.56,-15 139.25,-15"/>
<polygon fill="#63b8ff" stroke="#63b8ff" points="164.93,-18.5 174.93,-15 164.93,-11.5 164.93,-18.5"/>
</a>
</g>
</g>
</g>
</svg>
