<?xml version="1.0" encoding="UTF-8" standalone="no"?>
<!DOCTYPE svg PUBLIC "-//W3C//DTD SVG 1.1//EN"
 "http://www.w3.org/Graphics/SVG/1.1/DTD/svg11.dtd">
<!-- Generated by graphviz version 2.43.0 (0)
 -->
<!-- Title: netspeak::relative_to Pages: 1 -->
<svg width="1084pt" height="182pt"
 viewBox="0.00 0.00 1084.00 181.50" xmlns="http://www.w3.org/2000/svg" xmlns:xlink="http://www.w3.org/1999/xlink">
<g id="graph0" class="graph" transform="scale(1 1) rotate(0) translate(4 177.5)">
<title>netspeak::relative_to</title>
<!-- Node1 -->
<g id="Node000001" class="node">
<title>Node1</title>
<g id="a_Node000001"><a xlink:title=" ">
<polygon fill="#999999" stroke="#666666" points="1076,-120 956,-120 956,-101 1076,-101 1076,-120"/>
<text text-anchor="middle" x="1016" y="-108" font-family="Helvetica,sans-Serif" font-size="10.00">netspeak::relative_to</text>
</a>
</g>
</g>
<!-- Node2 -->
<g id="Node000002" class="node">
<title>Node2</title>
<g id="a_Node000002"><a xlink:href="classnetspeak_1_1Configuration.html#a68d3ae93a76264d217cab60f755e4510" target="_top" xlink:title=" ">
<polygon fill="white" stroke="#666666" points="920,-173.5 787,-173.5 787,-143.5 920,-143.5 920,-173.5"/>
<text text-anchor="start" x="795" y="-161.5" font-family="Helvetica,sans-Serif" font-size="10.00">netspeak::Configuration</text>
<text text-anchor="middle" x="853.5" y="-150.5" font-family="Helvetica,sans-Serif" font-size="10.00">::get_optional_path</text>
</a>
</g>
</g>
<!-- Node1&#45;&gt;Node2 -->
<g id="edge1_Node000001_Node000002" class="edge">
<title>Node1&#45;&gt;Node2</title>
<g id="a_edge1_Node000001_Node000002"><a xlink:title=" ">
<path fill="none" stroke="#63b8ff" d="M973.06,-123.04C952.18,-129.29 926.79,-136.88 904.87,-143.44"/>
<polygon fill="#63b8ff" stroke="#63b8ff" points="974.33,-126.32 982.91,-120.1 972.32,-119.61 974.33,-126.32"/>
</a>
</g>
</g>
<!-- Node4 -->
<g id="Node000004" class="node">
<title>Node4</title>
<g id="a_Node000004"><a xlink:href="classnetspeak_1_1Configuration.html#a349f4a5c0bf2a9d116ccee84a774cb2a" target="_top" xlink:title=" ">
<polygon fill="white" stroke="#666666" points="920,-125.5 787,-125.5 787,-95.5 920,-95.5 920,-125.5"/>
<text text-anchor="start" x="795" y="-113.5" font-family="Helvetica,sans-Serif" font-size="10.00">netspeak::Configuration</text>
<text text-anchor="middle" x="853.5" y="-102.5" font-family="Helvetica,sans-Serif" font-size="10.00">::get_path</text>
</a>
</g>
</g>
<!-- Node1&#45;&gt;Node4 -->
<g id="edge3_Node000001_Node000004" class="edge">
<title>Node1&#45;&gt;Node4</title>
<g id="a_edge3_Node000001_Node000004"><a xlink:title=" ">
<path fill="none" stroke="#63b8ff" d="M945.49,-110.5C937.04,-110.5 928.44,-110.5 920.05,-110.5"/>
<polygon fill="#63b8ff" stroke="#63b8ff" points="945.69,-114 955.69,-110.5 945.69,-107 945.69,-114"/>
</a>
</g>
</g>
<!-- Node5 -->
<g id="Node000005" class="node">
<title>Node5</title>
<g id="a_Node000005"><a xlink:href="classnetspeak_1_1Configuration.html#a178b1a84cf240f11fbf98ba1ab113766" target="_top" xlink:title=" ">
<polygon fill="white" stroke="#666666" points="920,-77.5 787,-77.5 787,-47.5 920,-47.5 920,-77.5"/>
<text text-anchor="start" x="795" y="-65.5" font-family="Helvetica,sans-Serif" font-size="10.00">netspeak::Configuration</text>
<text text-anchor="middle" x="853.5" y="-54.5" font-family="Helvetica,sans-Serif" font-size="10.00">::get_required_path</text>
</a>
</g>
</g>
<!-- Node1&#45;&gt;Node5 -->
<g id="edge4_Node000001_Node000005" class="edge">
<title>Node1&#45;&gt;Node5</title>
<g id="a_edge4_Node000001_Node000005"><a xlink:title=" ">
<path fill="none" stroke="#63b8ff" d="M973.06,-97.96C952.18,-91.71 926.79,-84.12 904.87,-77.56"/>
<polygon fill="#63b8ff" stroke="#63b8ff" points="972.32,-101.39 982.91,-100.9 974.33,-94.68 972.32,-101.39"/>
</a>
</g>
</g>
<!-- Node3 -->
<g id="Node000003" class="node">
<title>Node3</title>
<g id="a_Node000003"><a xlink:href="classnetspeak_1_1Netspeak.html#a4fa7fcfd57d5c943e1bf476c61610c99" target="_top" xlink:title=" ">
<polygon fill="white" stroke="#666666" points="731.5,-161.5 617.5,-161.5 617.5,-131.5 731.5,-131.5 731.5,-161.5"/>
<text text-anchor="start" x="625.5" y="-149.5" font-family="Helvetica,sans-Serif" font-size="10.00">netspeak::Netspeak</text>
<text text-anchor="middle" x="674.5" y="-138.5" font-family="Helvetica,sans-Serif" font-size="10.00">::initialize</text>
</a>
</g>
</g>
<!-- Node2&#45;&gt;Node3 -->
<g id="edge2_Node000002_Node000003" class="edge">
<title>Node2&#45;&gt;Node3</title>
<g id="a_edge2_Node000002_Node000003"><a xlink:title=" ">
<path fill="none" stroke="#63b8ff" d="M776.54,-153.35C761.51,-152.33 745.98,-151.28 731.75,-150.31"/>
<polygon fill="#63b8ff" stroke="#63b8ff" points="776.63,-156.86 786.84,-154.05 777.1,-149.88 776.63,-156.86"/>
</a>
</g>
</g>
<!-- Node5&#45;&gt;Node3 -->
<g id="edge10_Node000005_Node000003" class="edge">
<title>Node5&#45;&gt;Node3</title>
<g id="a_edge10_Node000005_Node000003"><a xlink:title=" ">
<path fill="none" stroke="#63b8ff" d="M799.48,-81.19C795.23,-82.91 791.02,-84.69 787,-86.5 756.72,-100.11 723.37,-118.54 701.11,-131.37"/>
<polygon fill="#63b8ff" stroke="#63b8ff" points="800.79,-84.44 808.81,-77.52 798.23,-77.92 800.79,-84.44"/>
</a>
</g>
</g>
<!-- Node6 -->
<g id="Node000006" class="node">
<title>Node6</title>
<g id="a_Node000006"><a xlink:href="classnetspeak_1_1Configuration.html#ac63101c63ef3cb005f881833757c121d" target="_top" xlink:title=" ">
<polygon fill="white" stroke="#666666" points="741,-89.5 608,-89.5 608,-59.5 741,-59.5 741,-89.5"/>
<text text-anchor="start" x="616" y="-77.5" font-family="Helvetica,sans-Serif" font-size="10.00">netspeak::Configuration</text>
<text text-anchor="middle" x="674.5" y="-66.5" font-family="Helvetica,sans-Serif" font-size="10.00">::full_config</text>
</a>
</g>
</g>
<!-- Node5&#45;&gt;Node6 -->
<g id="edge5_Node000005_Node000006" class="edge">
<title>Node5&#45;&gt;Node6</title>
<g id="a_edge5_Node000005_Node000006"><a xlink:title=" ">
<path fill="none" stroke="#63b8ff" d="M776.56,-67.65C764.74,-68.45 752.61,-69.27 741.05,-70.06"/>
<polygon fill="#63b8ff" stroke="#63b8ff" points="777.1,-71.12 786.84,-66.95 776.63,-64.14 777.1,-71.12"/>
</a>
</g>
</g>
<!-- Node11 -->
<g id="Node000011" class="node">
<title>Node11</title>
<g id="a_Node000011"><a xlink:href="classnetspeak_1_1RetrievalStrategy_3_01RetrievalStrategy3Tag_01_4.html#a2caa474eae2060143eb6ad2769f93a6d" target="_top" xlink:title=" ">
<polygon fill="white" stroke="#666666" points="751,-41 598,-41 598,0 751,0 751,-41"/>
<text text-anchor="start" x="606" y="-29" font-family="Helvetica,sans-Serif" font-size="10.00">netspeak::RetrievalStrategy</text>
<text text-anchor="start" x="606" y="-18" font-family="Helvetica,sans-Serif" font-size="10.00">&lt; RetrievalStrategy3Tag</text>
<text text-anchor="middle" x="674.5" y="-7" font-family="Helvetica,sans-Serif" font-size="10.00"> &gt;::initialize</text>
</a>
</g>
</g>
<!-- Node5&#45;&gt;Node11 -->
<g id="edge11_Node000005_Node000011" class="edge">
<title>Node5&#45;&gt;Node11</title>
<g id="a_edge11_Node000005_Node000011"><a xlink:title=" ">
<path fill="none" stroke="#63b8ff" d="M779.17,-45.1C769.91,-42.9 760.43,-40.65 751.15,-38.45"/>
<polygon fill="#63b8ff" stroke="#63b8ff" points="778.56,-48.55 789.1,-47.46 780.18,-41.74 778.56,-48.55"/>
</a>
</g>
</g>
<!-- Node7 -->
<g id="Node000007" class="node">
<title>Node7</title>
<g id="a_Node000007"><a xlink:href="classnetspeak_1_1Configuration.html#a7df6bab59598b039e18f637a9558fb83" target="_top" xlink:title=" ">
<polygon fill="white" stroke="#666666" points="562,-89.5 429,-89.5 429,-59.5 562,-59.5 562,-89.5"/>
<text text-anchor="start" x="437" y="-77.5" font-family="Helvetica,sans-Serif" font-size="10.00">netspeak::Configuration</text>
<text text-anchor="middle" x="495.5" y="-66.5" font-family="Helvetica,sans-Serif" font-size="10.00">::extend</text>
</a>
</g>
</g>
<!-- Node6&#45;&gt;Node7 -->
<g id="edge6_Node000006_Node000007" class="edge">
<title>Node6&#45;&gt;Node7</title>
<g id="a_edge6_Node000006_Node000007"><a xlink:title=" ">
<path fill="none" stroke="#63b8ff" d="M597.56,-74.5C585.74,-74.5 573.61,-74.5 562.05,-74.5"/>
<polygon fill="#63b8ff" stroke="#63b8ff" points="597.84,-78 607.84,-74.5 597.84,-71 597.84,-78"/>
</a>
</g>
</g>
<!-- Node8 -->
<g id="Node000008" class="node">
<title>Node8</title>
<g id="a_Node000008"><a xlink:href="namespacecli.html#a1675ea763b94dad279faca801dceccc9" target="_top" xlink:title=" ">
<polygon fill="white" stroke="#666666" points="393,-84 304,-84 304,-65 393,-65 393,-84"/>
<text text-anchor="middle" x="348.5" y="-72" font-family="Helvetica,sans-Serif" font-size="10.00">cli::load_config</text>
</a>
</g>
</g>
<!-- Node7&#45;&gt;Node8 -->
<g id="edge7_Node000007_Node000008" class="edge">
<title>Node7&#45;&gt;Node8</title>
<g id="a_edge7_Node000007_Node000008"><a xlink:title=" ">
<path fill="none" stroke="#63b8ff" d="M418.64,-74.5C410,-74.5 401.42,-74.5 393.4,-74.5"/>
<polygon fill="#63b8ff" stroke="#63b8ff" points="418.79,-78 428.79,-74.5 418.79,-71 418.79,-78"/>
</a>
</g>
</g>
<!-- Node9 -->
<g id="Node000009" class="node">
<title>Node9</title>
<g id="a_Node000009"><a xlink:href="namespacecli.html#aaed351e7f1f43640bec2125f822b5ec7" target="_top" xlink:title=" ">
<polygon fill="white" stroke="#666666" points="268,-84 170,-84 170,-65 268,-65 268,-84"/>
<text text-anchor="middle" x="219" y="-72" font-family="Helvetica,sans-Serif" font-size="10.00">cli::build_service</text>
</a>
</g>
</g>
<!-- Node8&#45;&gt;Node9 -->
<g id="edge8_Node000008_Node000009" class="edge">
<title>Node8&#45;&gt;Node9</title>
<g id="a_edge8_Node000008_Node000009"><a xlink:title=" ">
<path fill="none" stroke="#63b8ff" d="M293.76,-74.5C285.26,-74.5 276.5,-74.5 268.13,-74.5"/>
<polygon fill="#63b8ff" stroke="#63b8ff" points="293.98,-78 303.98,-74.5 293.98,-71 293.98,-78"/>
</a>
</g>
</g>
<!-- Node10 -->
<g id="Node000010" class="node">
<title>Node10</title>
<g id="a_Node000010"><a xlink:href="classcli_1_1ServeCommand.html#ae9d12b8532a97a743fdc831040ee45c1" target="_top" xlink:title=" ">
<polygon fill="white" stroke="#666666" points="134,-84 0,-84 0,-65 134,-65 134,-84"/>
<text text-anchor="middle" x="67" y="-72" font-family="Helvetica,sans-Serif" font-size="10.00">cli::ServeCommand::run</text>
</a>
</g>
</g>
<!-- Node9&#45;&gt;Node10 -->
<g id="edge9_Node000009_Node000010" class="edge">
<title>Node9&#45;&gt;Node10</title>
<g id="a_edge9_Node000009_Node000010"><a xlink:title=" ">
<path fill="none" stroke="#63b8ff" d="M159.71,-74.5C151.36,-74.5 142.72,-74.5 134.24,-74.5"/>
<polygon fill="#63b8ff" stroke="#63b8ff" points="159.71,-78 169.71,-74.5 159.71,-71 159.71,-78"/>
</a>
</g>
</g>
</g>
</svg>
