<?xml version="1.0" encoding="UTF-8" standalone="no"?>
<!DOCTYPE svg PUBLIC "-//W3C//DTD SVG 1.1//EN"
 "http://www.w3.org/Graphics/SVG/1.1/DTD/svg11.dtd">
<!-- Generated by graphviz version 2.43.0 (0)
 -->
<!-- Title: netspeak::SetReadOnly Pages: 1 -->
<svg width="314pt" height="64pt"
 viewBox="0.00 0.00 314.00 64.00" xmlns="http://www.w3.org/2000/svg" xmlns:xlink="http://www.w3.org/1999/xlink">
<g id="graph0" class="graph" transform="scale(1 1) rotate(0) translate(4 60)">
<title>netspeak::SetReadOnly</title>
<!-- Node1 -->
<g id="Node000001" class="node">
<title>Node1</title>
<g id="a_Node000001"><a xlink:title=" ">
<polygon fill="#999999" stroke="#666666" points="306,-37 175,-37 175,-18 306,-18 306,-37"/>
<text text-anchor="middle" x="240.5" y="-25" font-family="Helvetica,sans-Serif" font-size="10.00">netspeak::SetReadOnly</text>
</a>
</g>
</g>
<!-- Node2 -->
<g id="Node000002" class="node">
<title>Node2</title>
<g id="a_Node000002"><a xlink:href="namespacenetspeak.html#a4ea97d4aa2512ac858edac0e8710d49b" target="_top" xlink:title=" ">
<polygon fill="white" stroke="#666666" points="139,-56 0,-56 0,-37 139,-37 139,-56"/>
<text text-anchor="middle" x="69.5" y="-44" font-family="Helvetica,sans-Serif" font-size="10.00">netspeak::BuildNetspeak</text>
</a>
</g>
</g>
<!-- Node1&#45;&gt;Node2 -->
<g id="edge1_Node000001_Node000002" class="edge">
<title>Node1&#45;&gt;Node2</title>
<g id="a_edge1_Node000001_Node000002"><a xlink:title=" ">
<path fill="none" stroke="#63b8ff" d="M164.44,-35.94C156.01,-36.89 147.45,-37.85 139.11,-38.79"/>
<polygon fill="#63b8ff" stroke="#63b8ff" points="165.1,-39.39 174.64,-34.79 164.32,-32.43 165.1,-39.39"/>
</a>
</g>
</g>
<!-- Node3 -->
<g id="Node000003" class="node">
<title>Node3</title>
<g id="a_Node000003"><a xlink:href="namespacenetspeak.html#a715caf2202ac6a16d19f878f57b80060" target="_top" xlink:title=" ">
<polygon fill="white" stroke="#666666" points="135,-19 4,-19 4,0 135,0 135,-19"/>
<text text-anchor="middle" x="69.5" y="-7" font-family="Helvetica,sans-Serif" font-size="10.00">netspeak::SetReadOnly</text>
</a>
</g>
</g>
<!-- Node1&#45;&gt;Node3 -->
<g id="edge2_Node000001_Node000003" class="edge">
<title>Node1&#45;&gt;Node3</title>
<g id="a_edge2_Node000001_Node000003"><a xlink:title=" ">
<path fill="none" stroke="#63b8ff" d="M164.53,-19.51C154.74,-18.47 144.78,-17.41 135.18,-16.39"/>
<polygon fill="#63b8ff" stroke="#63b8ff" points="164.33,-23.01 174.64,-20.59 165.07,-16.05 164.33,-23.01"/>
</a>
</g>
</g>
</g>
</svg>
