<?xml version="1.0" encoding="UTF-8" standalone="no"?>
<!DOCTYPE svg PUBLIC "-//W3C//DTD SVG 1.1//EN"
 "http://www.w3.org/Graphics/SVG/1.1/DTD/svg11.dtd">
<!-- Generated by graphviz version 2.43.0 (0)
 -->
<!-- Title: netspeak::BuildPhraseCorpus Pages: 1 -->
<svg width="1018pt" height="412pt"
 viewBox="0.00 0.00 1018.00 412.00" xmlns="http://www.w3.org/2000/svg" xmlns:xlink="http://www.w3.org/1999/xlink">
<g id="graph0" class="graph" transform="scale(1 1) rotate(0) translate(4 408)">
<title>netspeak::BuildPhraseCorpus</title>
<!-- Node1 -->
<g id="Node000001" class="node">
<title>Node1</title>
<g id="a_Node000001"><a xlink:title=" ">
<polygon fill="#999999" stroke="#666666" points="159,-179.5 0,-179.5 0,-160.5 159,-160.5 159,-179.5"/>
<text text-anchor="middle" x="79.5" y="-167.5" font-family="Helvetica,sans-Serif" font-size="10.00">netspeak::BuildPhraseCorpus</text>
</a>
</g>
</g>
<!-- Node2 -->
<g id="Node000002" class="node">
<title>Node2</title>
<g id="a_Node000002"><a xlink:href="namespacenetspeak_1_1error__message.html#a2f39789e788d3f058a8b70dc5150363b" target="_top" xlink:title=" ">
<polygon fill="white" stroke="#666666" points="339,-319 199,-319 199,-289 339,-289 339,-319"/>
<text text-anchor="start" x="207" y="-307" font-family="Helvetica,sans-Serif" font-size="10.00">netspeak::error_message</text>
<text text-anchor="middle" x="269" y="-296" font-family="Helvetica,sans-Serif" font-size="10.00">::cannot_create</text>
</a>
</g>
</g>
<!-- Node1&#45;&gt;Node2 -->
<g id="edge1_Node000001_Node000002" class="edge">
<title>Node1&#45;&gt;Node2</title>
<g id="a_edge1_Node000001_Node000002"><a xlink:title=" ">
<path fill="none" stroke="#63b8ff" d="M88.01,-179.73C104.88,-200.94 147.99,-251.73 195,-280 197.8,-281.68 200.73,-283.27 203.75,-284.75"/>
<polygon fill="#63b8ff" stroke="#63b8ff" points="202.43,-288 212.99,-288.91 205.31,-281.61 202.43,-288"/>
</a>
</g>
</g>
<!-- Node3 -->
<g id="Node000003" class="node">
<title>Node3</title>
<g id="a_Node000003"><a xlink:href="namespacenetspeak_1_1error__message.html#a2a36ff57b354714213502a72e6d9d416" target="_top" xlink:title=" ">
<polygon fill="white" stroke="#666666" points="339,-271 199,-271 199,-241 339,-241 339,-271"/>
<text text-anchor="start" x="207" y="-259" font-family="Helvetica,sans-Serif" font-size="10.00">netspeak::error_message</text>
<text text-anchor="middle" x="269" y="-248" font-family="Helvetica,sans-Serif" font-size="10.00">::cannot_open</text>
</a>
</g>
</g>
<!-- Node1&#45;&gt;Node3 -->
<g id="edge2_Node000001_Node000003" class="edge">
<title>Node1&#45;&gt;Node3</title>
<g id="a_edge2_Node000001_Node000003"><a xlink:title=" ">
<path fill="none" stroke="#63b8ff" d="M98.52,-179.56C120.89,-191.29 160.33,-211.52 195,-227 202.7,-230.44 210.93,-233.91 219,-237.19"/>
<polygon fill="#63b8ff" stroke="#63b8ff" points="217.76,-240.46 228.35,-240.95 220.37,-233.97 217.76,-240.46"/>
</a>
</g>
</g>
<!-- Node4 -->
<g id="Node000004" class="node">
<title>Node4</title>
<g id="a_Node000004"><a xlink:href="namespacenetspeak_1_1util.html#aad6c5a8708322dd600c23507cc2035f1" target="_top" xlink:title=" ">
<polygon fill="white" stroke="#666666" points="861,-221.5 743,-221.5 743,-202.5 861,-202.5 861,-221.5"/>
<text text-anchor="middle" x="802" y="-209.5" font-family="Helvetica,sans-Serif" font-size="10.00">netspeak::util::check</text>
</a>
</g>
</g>
<!-- Node1&#45;&gt;Node4 -->
<g id="edge3_Node000001_Node000004" class="edge">
<title>Node1&#45;&gt;Node4</title>
<g id="a_edge3_Node000001_Node000004"><a xlink:title=" ">
<path fill="none" stroke="#63b8ff" d="M116.25,-160.41C213.8,-135.98 491.64,-77.94 707,-146 737.39,-155.6 766.48,-178.95 784.04,-195.13"/>
<polygon fill="#63b8ff" stroke="#63b8ff" points="782.03,-198.05 791.69,-202.4 786.86,-192.97 782.03,-198.05"/>
</a>
</g>
</g>
<!-- Node6 -->
<g id="Node000006" class="node">
<title>Node6</title>
<g id="a_Node000006"><a xlink:href="namespacenetspeak_1_1util.html#ad2441a387c3a4c47e09c373e9412fad0" target="_top" xlink:title=" ">
<polygon fill="white" stroke="#666666" points="692,-339.5 588,-339.5 588,-320.5 692,-320.5 692,-339.5"/>
<text text-anchor="middle" x="640" y="-327.5" font-family="Helvetica,sans-Serif" font-size="10.00">netspeak::util::log</text>
</a>
</g>
</g>
<!-- Node1&#45;&gt;Node6 -->
<g id="edge5_Node000001_Node000006" class="edge">
<title>Node1&#45;&gt;Node6</title>
<g id="a_edge5_Node000001_Node000006"><a xlink:title=" ">
<path fill="none" stroke="#63b8ff" d="M126.34,-179.55C178.97,-190.81 267.76,-210.7 343,-232 437.88,-258.86 547.61,-297.11 603.01,-316.95"/>
<polygon fill="#63b8ff" stroke="#63b8ff" points="602.11,-320.34 612.71,-320.43 604.48,-313.76 602.11,-320.34"/>
</a>
</g>
</g>
<!-- Node9 -->
<g id="Node000009" class="node">
<title>Node9</title>
<g id="a_Node000009"><a xlink:href="classnetspeak_1_1PhraseFileParser.html#aa90dd22dcf63b47242edb7345cee89b5" target="_top" xlink:title=" ">
<polygon fill="white" stroke="#666666" points="343,-185 195,-185 195,-155 343,-155 343,-185"/>
<text text-anchor="start" x="203" y="-173" font-family="Helvetica,sans-Serif" font-size="10.00">netspeak::PhraseFileParser</text>
<text text-anchor="middle" x="269" y="-162" font-family="Helvetica,sans-Serif" font-size="10.00">::read_next</text>
</a>
</g>
</g>
<!-- Node1&#45;&gt;Node9 -->
<g id="edge10_Node000001_Node000009" class="edge">
<title>Node1&#45;&gt;Node9</title>
<g id="a_edge10_Node000001_Node000009"><a xlink:title=" ">
<path fill="none" stroke="#63b8ff" d="M159.2,-170C167.61,-170 176.18,-170 184.64,-170"/>
<polygon fill="#63b8ff" stroke="#63b8ff" points="184.88,-173.5 194.88,-170 184.88,-166.5 184.88,-173.5"/>
</a>
</g>
</g>
<!-- Node15 -->
<g id="Node000015" class="node">
<title>Node15</title>
<g id="a_Node000015"><a xlink:href="classnetspeak_1_1model_1_1Words.html#a2100c650e63c1c205afd766bef7fc713" target="_top" xlink:title=" ">
<polygon fill="white" stroke="#666666" points="336,-99 202,-99 202,-69 336,-69 336,-99"/>
<text text-anchor="start" x="210" y="-87" font-family="Helvetica,sans-Serif" font-size="10.00">netspeak::model::Words</text>
<text text-anchor="middle" x="269" y="-76" font-family="Helvetica,sans-Serif" font-size="10.00">::size</text>
</a>
</g>
</g>
<!-- Node1&#45;&gt;Node15 -->
<g id="edge18_Node000001_Node000015" class="edge">
<title>Node1&#45;&gt;Node15</title>
<g id="a_edge18_Node000001_Node000015"><a xlink:title=" ">
<path fill="none" stroke="#63b8ff" d="M98.52,-160.44C120.89,-148.71 160.33,-128.48 195,-113 202.7,-109.56 210.93,-106.09 219,-102.81"/>
<polygon fill="#63b8ff" stroke="#63b8ff" points="220.37,-106.03 228.35,-99.05 217.76,-99.54 220.37,-106.03"/>
</a>
</g>
</g>
<!-- Node16 -->
<g id="Node000016" class="node">
<title>Node16</title>
<g id="a_Node000016"><a xlink:href="classnetspeak_1_1PhraseFileParser.html#abce49e07ba62c82ddf7a63722ef80208" target="_top" xlink:title=" ">
<polygon fill="white" stroke="#666666" points="343,-51 195,-51 195,-21 343,-21 343,-51"/>
<text text-anchor="start" x="203" y="-39" font-family="Helvetica,sans-Serif" font-size="10.00">netspeak::PhraseFileParser</text>
<text text-anchor="middle" x="269" y="-28" font-family="Helvetica,sans-Serif" font-size="10.00">::write</text>
</a>
</g>
</g>
<!-- Node1&#45;&gt;Node16 -->
<g id="edge19_Node000001_Node000016" class="edge">
<title>Node1&#45;&gt;Node16</title>
<g id="a_edge19_Node000001_Node000016"><a xlink:title=" ">
<path fill="none" stroke="#63b8ff" d="M88.01,-160.27C104.88,-139.06 147.99,-88.27 195,-60 197.8,-58.32 200.73,-56.73 203.75,-55.25"/>
<polygon fill="#63b8ff" stroke="#63b8ff" points="205.31,-58.39 212.99,-51.09 202.43,-52 205.31,-58.39"/>
</a>
</g>
</g>
<!-- Node5 -->
<g id="Node000005" class="node">
<title>Node5</title>
<g id="a_Node000005"><a xlink:href="namespacenetspeak_1_1util.html#a4c91ad572508b4021399ac7dddff574d" target="_top" xlink:title=" ">
<polygon fill="white" stroke="#666666" points="1010,-285.5 897,-285.5 897,-266.5 1010,-266.5 1010,-285.5"/>
<text text-anchor="middle" x="953.5" y="-273.5" font-family="Helvetica,sans-Serif" font-size="10.00">netspeak::util::hash</text>
</a>
</g>
</g>
<!-- Node4&#45;&gt;Node5 -->
<g id="edge4_Node000004_Node000005" class="edge">
<title>Node4&#45;&gt;Node5</title>
<g id="a_edge4_Node000004_Node000005"><a xlink:title=" ">
<path fill="none" stroke="#63b8ff" d="M834.9,-221.56C843.46,-224.37 852.66,-227.6 861,-231 883.27,-240.07 907.67,-252.19 925.67,-261.56"/>
<polygon fill="#63b8ff" stroke="#63b8ff" points="924.48,-264.89 934.96,-266.45 927.74,-258.69 924.48,-264.89"/>
</a>
</g>
</g>
<!-- Node6&#45;&gt;Node5 -->
<g id="edge7_Node000006_Node000005" class="edge">
<title>Node6&#45;&gt;Node5</title>
<g id="a_edge7_Node000006_Node000005"><a xlink:title=" ">
<path fill="none" stroke="#63b8ff" d="M692.09,-321.14C745.41,-311.9 829.2,-297.37 887.28,-287.31"/>
<polygon fill="#63b8ff" stroke="#63b8ff" points="888.19,-290.7 897.45,-285.54 886.99,-283.8 888.19,-290.7"/>
</a>
</g>
</g>
<!-- Node7 -->
<g id="Node000007" class="node">
<title>Node7</title>
<g id="a_Node000007"><a xlink:href="namespacenetspeak_1_1util.html#ab27a22c787271513007af0719b17cef9" target="_top" xlink:title=" ">
<polygon fill="white" stroke="#666666" points="854.5,-404 749.5,-404 749.5,-374 854.5,-374 854.5,-404"/>
<text text-anchor="start" x="757.5" y="-392" font-family="Helvetica,sans-Serif" font-size="10.00">netspeak::util::get</text>
<text text-anchor="middle" x="802" y="-381" font-family="Helvetica,sans-Serif" font-size="10.00">_log_mutex</text>
</a>
</g>
</g>
<!-- Node6&#45;&gt;Node7 -->
<g id="edge6_Node000006_Node000007" class="edge">
<title>Node6&#45;&gt;Node7</title>
<g id="a_edge6_Node000006_Node000007"><a xlink:title=" ">
<path fill="none" stroke="#63b8ff" d="M667.06,-339.61C689.64,-347.94 722.94,-360.22 750.69,-370.45"/>
<polygon fill="#63b8ff" stroke="#63b8ff" points="749.65,-373.8 760.24,-373.97 752.07,-367.23 749.65,-373.8"/>
</a>
</g>
</g>
<!-- Node8 -->
<g id="Node000008" class="node">
<title>Node8</title>
<g id="a_Node000008"><a xlink:href="namespacenetspeak_1_1util.html#a93e18aaa529a497b6afdf4b3bd221182" target="_top" xlink:title=" ">
<polygon fill="white" stroke="#666666" points="858,-356 746,-356 746,-326 858,-326 858,-356"/>
<text text-anchor="start" x="754" y="-344" font-family="Helvetica,sans-Serif" font-size="10.00">netspeak::util::print</text>
<text text-anchor="middle" x="802" y="-333" font-family="Helvetica,sans-Serif" font-size="10.00">_timestamp_to</text>
</a>
</g>
</g>
<!-- Node6&#45;&gt;Node8 -->
<g id="edge8_Node000006_Node000008" class="edge">
<title>Node6&#45;&gt;Node8</title>
<g id="a_edge8_Node000006_Node000008"><a xlink:title=" ">
<path fill="none" stroke="#63b8ff" d="M692.06,-333.51C706.03,-334.47 721.36,-335.53 736,-336.53"/>
<polygon fill="#63b8ff" stroke="#63b8ff" points="735.78,-340.02 746,-337.22 736.26,-333.04 735.78,-340.02"/>
</a>
</g>
</g>
<!-- Node8&#45;&gt;Node5 -->
<g id="edge9_Node000008_Node000005" class="edge">
<title>Node8&#45;&gt;Node5</title>
<g id="a_edge9_Node000008_Node000005"><a xlink:title=" ">
<path fill="none" stroke="#63b8ff" d="M837.67,-325.92C862.96,-314.93 896.92,-300.16 921.34,-289.55"/>
<polygon fill="#63b8ff" stroke="#63b8ff" points="922.75,-292.75 930.52,-285.56 919.95,-286.33 922.75,-292.75"/>
</a>
</g>
</g>
<!-- Node10 -->
<g id="Node000010" class="node">
<title>Node10</title>
<g id="a_Node000010"><a xlink:href="classnetspeak_1_1PhraseFileParser.html#a2b1e4624be15f416aa1248496795497f" target="_top" xlink:title=" ">
<polygon fill="white" stroke="#666666" points="532,-185 384,-185 384,-155 532,-155 532,-185"/>
<text text-anchor="start" x="392" y="-173" font-family="Helvetica,sans-Serif" font-size="10.00">netspeak::PhraseFileParser</text>
<text text-anchor="middle" x="458" y="-162" font-family="Helvetica,sans-Serif" font-size="10.00">::read</text>
</a>
</g>
</g>
<!-- Node9&#45;&gt;Node10 -->
<g id="edge11_Node000009_Node000010" class="edge">
<title>Node9&#45;&gt;Node10</title>
<g id="a_edge11_Node000009_Node000010"><a xlink:title=" ">
<path fill="none" stroke="#63b8ff" d="M343.1,-170C353.17,-170 363.56,-170 373.79,-170"/>
<polygon fill="#63b8ff" stroke="#63b8ff" points="373.95,-173.5 383.95,-170 373.95,-166.5 373.95,-173.5"/>
</a>
</g>
</g>
<!-- Node11 -->
<g id="Node000011" class="node">
<title>Node11</title>
<g id="a_Node000011"><a xlink:href="namespacenetspeak_1_1util.html#a1f7aa14f6cb81f98cbca5413e3026096" target="_top" xlink:title=" ">
<polygon fill="white" stroke="#666666" points="699,-281 581,-281 581,-251 699,-251 699,-281"/>
<text text-anchor="start" x="589" y="-269" font-family="Helvetica,sans-Serif" font-size="10.00">netspeak::util::check</text>
<text text-anchor="middle" x="640" y="-258" font-family="Helvetica,sans-Serif" font-size="10.00">_valid_utf8</text>
</a>
</g>
</g>
<!-- Node10&#45;&gt;Node11 -->
<g id="edge12_Node000010_Node000011" class="edge">
<title>Node10&#45;&gt;Node11</title>
<g id="a_edge12_Node000010_Node000011"><a xlink:title=" ">
<path fill="none" stroke="#63b8ff" d="M511.25,-185.12C520.25,-188.91 529.21,-193.5 537,-199 557.36,-213.38 552.59,-227.7 573,-242 575.1,-243.47 577.29,-244.86 579.56,-246.17"/>
<polygon fill="#63b8ff" stroke="#63b8ff" points="578.1,-249.36 588.58,-250.87 581.33,-243.15 578.1,-249.36"/>
</a>
</g>
</g>
<!-- Node13 -->
<g id="Node000013" class="node">
<title>Node13</title>
<g id="a_Node000013"><a xlink:href="classnetspeak_1_1model_1_1Words.html#abb26187aa586f258c8eb4271f3d5af0f" target="_top" xlink:title=" ">
<polygon fill="white" stroke="#666666" points="707,-233 573,-233 573,-203 707,-203 707,-233"/>
<text text-anchor="start" x="581" y="-221" font-family="Helvetica,sans-Serif" font-size="10.00">netspeak::model::Words</text>
<text text-anchor="middle" x="640" y="-210" font-family="Helvetica,sans-Serif" font-size="10.00">::data</text>
</a>
</g>
</g>
<!-- Node10&#45;&gt;Node13 -->
<g id="edge16_Node000010_Node000013" class="edge">
<title>Node10&#45;&gt;Node13</title>
<g id="a_edge16_Node000010_Node000013"><a xlink:title=" ">
<path fill="none" stroke="#63b8ff" d="M515.46,-185.06C533.72,-189.93 554.13,-195.37 573.02,-200.41"/>
<polygon fill="#63b8ff" stroke="#63b8ff" points="572.18,-203.8 582.74,-203 573.98,-197.04 572.18,-203.8"/>
</a>
</g>
</g>
<!-- Node14 -->
<g id="Node000014" class="node">
<title>Node14</title>
<g id="a_Node000014"><a xlink:href="classnetspeak_1_1model_1_1Words.html#a74ce9e9ed9745cdfffd806ec605974df" target="_top" xlink:title=" ">
<polygon fill="white" stroke="#666666" points="707,-185 573,-185 573,-155 707,-155 707,-185"/>
<text text-anchor="start" x="581" y="-173" font-family="Helvetica,sans-Serif" font-size="10.00">netspeak::model::Words</text>
<text text-anchor="middle" x="640" y="-162" font-family="Helvetica,sans-Serif" font-size="10.00">::push_back</text>
</a>
</g>
</g>
<!-- Node10&#45;&gt;Node14 -->
<g id="edge17_Node000010_Node000014" class="edge">
<title>Node10&#45;&gt;Node14</title>
<g id="a_edge17_Node000010_Node000014"><a xlink:title=" ">
<path fill="none" stroke="#63b8ff" d="M532.21,-170C542.29,-170 552.65,-170 562.78,-170"/>
<polygon fill="#63b8ff" stroke="#63b8ff" points="562.81,-173.5 572.81,-170 562.81,-166.5 562.81,-173.5"/>
</a>
</g>
</g>
<!-- Node11&#45;&gt;Node4 -->
<g id="edge13_Node000011_Node000004" class="edge">
<title>Node11&#45;&gt;Node4</title>
<g id="a_edge13_Node000011_Node000004"><a xlink:title=" ">
<path fill="none" stroke="#63b8ff" d="M684.63,-250.88C702.68,-244.66 723.83,-237.43 743,-231 749.07,-228.97 755.5,-226.83 761.78,-224.76"/>
<polygon fill="#63b8ff" stroke="#63b8ff" points="763.06,-228.03 771.47,-221.59 760.87,-221.38 763.06,-228.03"/>
</a>
</g>
</g>
<!-- Node12 -->
<g id="Node000012" class="node">
<title>Node12</title>
<g id="a_Node000012"><a xlink:href="namespacenetspeak_1_1util.html#a53fac399fbfab002a4a512c161eb184f" target="_top" xlink:title=" ">
<polygon fill="white" stroke="#666666" points="851,-270 753,-270 753,-240 851,-240 851,-270"/>
<text text-anchor="start" x="761" y="-258" font-family="Helvetica,sans-Serif" font-size="10.00">netspeak::util::is</text>
<text text-anchor="middle" x="802" y="-247" font-family="Helvetica,sans-Serif" font-size="10.00">_valid_utf8</text>
</a>
</g>
</g>
<!-- Node11&#45;&gt;Node12 -->
<g id="edge14_Node000011_Node000012" class="edge">
<title>Node11&#45;&gt;Node12</title>
<g id="a_edge14_Node000011_Node000012"><a xlink:title=" ">
<path fill="none" stroke="#63b8ff" d="M699.22,-262C713.38,-261.02 728.53,-259.98 742.7,-259.01"/>
<polygon fill="#63b8ff" stroke="#63b8ff" points="743.08,-262.49 752.81,-258.31 742.6,-255.51 743.08,-262.49"/>
</a>
</g>
</g>
<!-- Node12&#45;&gt;Node5 -->
<g id="edge15_Node000012_Node000005" class="edge">
<title>Node12&#45;&gt;Node5</title>
<g id="a_edge15_Node000012_Node000005"><a xlink:title=" ">
<path fill="none" stroke="#63b8ff" d="M851.13,-261.76C862.53,-263.36 874.88,-265.1 886.92,-266.79"/>
<polygon fill="#63b8ff" stroke="#63b8ff" points="886.53,-270.27 896.92,-268.19 887.5,-263.34 886.53,-270.27"/>
</a>
</g>
</g>
<!-- Node17 -->
<g id="Node000017" class="node">
<title>Node17</title>
<g id="a_Node000017"><a xlink:href="classnetspeak_1_1model_1_1Words.html#a77505acf42c7aa8988a6b96868dbf0f3" target="_top" xlink:title=" ">
<polygon fill="white" stroke="#666666" points="525,-30 391,-30 391,0 525,0 525,-30"/>
<text text-anchor="start" x="399" y="-18" font-family="Helvetica,sans-Serif" font-size="10.00">netspeak::model::Words</text>
<text text-anchor="middle" x="458" y="-7" font-family="Helvetica,sans-Serif" font-size="10.00">::begin</text>
</a>
</g>
</g>
<!-- Node16&#45;&gt;Node17 -->
<g id="edge20_Node000016_Node000017" class="edge">
<title>Node16&#45;&gt;Node17</title>
<g id="a_edge20_Node000016_Node000017"><a xlink:title=" ">
<path fill="none" stroke="#63b8ff" d="M343.1,-27.79C355.43,-26.41 368.25,-24.97 380.65,-23.57"/>
<polygon fill="#63b8ff" stroke="#63b8ff" points="381.41,-27.01 390.95,-22.42 380.63,-20.05 381.41,-27.01"/>
</a>
</g>
</g>
<!-- Node18 -->
<g id="Node000018" class="node">
<title>Node18</title>
<g id="a_Node000018"><a xlink:href="classnetspeak_1_1model_1_1Words.html#a508100838caa82812f550f172ae314c5" target="_top" xlink:title=" ">
<polygon fill="white" stroke="#666666" points="537,-67.5 379,-67.5 379,-48.5 537,-48.5 537,-67.5"/>
<text text-anchor="middle" x="458" y="-55.5" font-family="Helvetica,sans-Serif" font-size="10.00">netspeak::model::Words::end</text>
</a>
</g>
</g>
<!-- Node16&#45;&gt;Node18 -->
<g id="edge21_Node000016_Node000018" class="edge">
<title>Node16&#45;&gt;Node18</title>
<g id="a_edge21_Node000016_Node000018"><a xlink:title=" ">
<path fill="none" stroke="#63b8ff" d="M343.1,-44.6C351.5,-45.59 360.12,-46.6 368.69,-47.61"/>
<polygon fill="#63b8ff" stroke="#63b8ff" points="368.36,-51.1 378.7,-48.79 369.17,-44.14 368.36,-51.1"/>
</a>
</g>
</g>
</g>
</svg>
