<?xml version="1.0" encoding="UTF-8" standalone="no"?>
<!DOCTYPE svg PUBLIC "-//W3C//DTD SVG 1.1//EN"
 "http://www.w3.org/Graphics/SVG/1.1/DTD/svg11.dtd">
<!-- Generated by graphviz version 2.43.0 (0)
 -->
<!-- Title: netspeak::util::tmpfile Pages: 1 -->
<svg width="436pt" height="54pt"
 viewBox="0.00 0.00 436.00 53.50" xmlns="http://www.w3.org/2000/svg" xmlns:xlink="http://www.w3.org/1999/xlink">
<g id="graph0" class="graph" transform="scale(1 1) rotate(0) translate(4 49.5)">
<title>netspeak::util::tmpfile</title>
<!-- Node1 -->
<g id="Node000001" class="node">
<title>Node1</title>
<g id="a_Node000001"><a xlink:title=" ">
<polygon fill="#999999" stroke="#666666" points="124,-45.5 0,-45.5 0,-26.5 124,-26.5 124,-45.5"/>
<text text-anchor="middle" x="62" y="-33.5" font-family="Helvetica,sans-Serif" font-size="10.00">netspeak::util::tmpfile</text>
</a>
</g>
</g>
<!-- Node2 -->
<g id="Node000002" class="node">
<title>Node2</title>
<g id="a_Node000002"><a xlink:href="namespacenetspeak_1_1util.html#a4c91ad572508b4021399ac7dddff574d" target="_top" xlink:title=" ">
<polygon fill="white" stroke="#666666" points="428,-45.5 315,-45.5 315,-26.5 428,-26.5 428,-45.5"/>
<text text-anchor="middle" x="371.5" y="-33.5" font-family="Helvetica,sans-Serif" font-size="10.00">netspeak::util::hash</text>
</a>
</g>
</g>
<!-- Node1&#45;&gt;Node2 -->
<g id="edge1_Node000001_Node000002" class="edge">
<title>Node1&#45;&gt;Node2</title>
<g id="a_edge1_Node000001_Node000002"><a xlink:title=" ">
<path fill="none" stroke="#63b8ff" d="M124.05,-38.18C135.97,-38.52 148.38,-38.82 160,-39 212.88,-39.82 226.12,-39.87 279,-39 287.34,-38.86 296.1,-38.66 304.77,-38.41"/>
<polygon fill="#63b8ff" stroke="#63b8ff" points="304.97,-41.91 314.86,-38.12 304.76,-34.91 304.97,-41.91"/>
</a>
</g>
</g>
<!-- Node3 -->
<g id="Node000003" class="node">
<title>Node3</title>
<g id="a_Node000003"><a xlink:href="namespacenetspeak_1_1util.html#af94d48fda5f335ddcb461a8237079866" target="_top" xlink:title=" ">
<polygon fill="white" stroke="#666666" points="279,-30 160,-30 160,0 279,0 279,-30"/>
<text text-anchor="start" x="168" y="-18" font-family="Helvetica,sans-Serif" font-size="10.00">netspeak::util::signal</text>
<text text-anchor="middle" x="219.5" y="-7" font-family="Helvetica,sans-Serif" font-size="10.00">_error</text>
</a>
</g>
</g>
<!-- Node1&#45;&gt;Node3 -->
<g id="edge2_Node000001_Node000003" class="edge">
<title>Node1&#45;&gt;Node3</title>
<g id="a_edge2_Node000001_Node000003"><a xlink:title=" ">
<path fill="none" stroke="#63b8ff" d="M124.01,-27.76C132.51,-26.61 141.29,-25.43 149.92,-24.26"/>
<polygon fill="#63b8ff" stroke="#63b8ff" points="150.51,-27.71 159.95,-22.91 149.58,-20.78 150.51,-27.71"/>
</a>
</g>
</g>
<!-- Node3&#45;&gt;Node2 -->
<g id="edge3_Node000003_Node000002" class="edge">
<title>Node3&#45;&gt;Node2</title>
<g id="a_edge3_Node000003_Node000002"><a xlink:title=" ">
<path fill="none" stroke="#63b8ff" d="M279.35,-23.24C287.64,-24.4 296.2,-25.6 304.61,-26.78"/>
<polygon fill="#63b8ff" stroke="#63b8ff" points="304.37,-30.28 314.76,-28.2 305.34,-23.34 304.37,-30.28"/>
</a>
</g>
</g>
</g>
</svg>
