<?xml version="1.0" encoding="UTF-8" standalone="no"?>
<!DOCTYPE svg PUBLIC "-//W3C//DTD SVG 1.1//EN"
 "http://www.w3.org/Graphics/SVG/1.1/DTD/svg11.dtd">
<!-- Generated by graphviz version 2.43.0 (0)
 -->
<!-- Title: netspeak/util/logging.hpp Pages: 1 -->
<svg width="1304pt" height="544pt"
 viewBox="0.00 0.00 1303.50 544.00" xmlns="http://www.w3.org/2000/svg" xmlns:xlink="http://www.w3.org/1999/xlink">
<g id="graph0" class="graph" transform="scale(1 1) rotate(0) translate(4 540)">
<title>netspeak/util/logging.hpp</title>
<!-- Node1 -->
<g id="Node000001" class="node">
<title>Node1</title>
<g id="a_Node000001"><a xlink:title=" ">
<polygon fill="#999999" stroke="#666666" points="825.5,-536 685.5,-536 685.5,-517 825.5,-517 825.5,-536"/>
<text text-anchor="middle" x="755.5" y="-524" font-family="Helvetica,sans-Serif" font-size="10.00">netspeak/util/logging.hpp</text>
</a>
</g>
</g>
<!-- Node2 -->
<g id="Node000002" class="node">
<title>Node2</title>
<g id="a_Node000002"><a xlink:href="Netspeak_8hpp.html" target="_top" xlink:title=" ">
<polygon fill="white" stroke="#666666" points="516.5,-156.5 384.5,-156.5 384.5,-137.5 516.5,-137.5 516.5,-156.5"/>
<text text-anchor="middle" x="450.5" y="-144.5" font-family="Helvetica,sans-Serif" font-size="10.00">netspeak/Netspeak.hpp</text>
</a>
</g>
</g>
<!-- Node1&#45;&gt;Node2 -->
<g id="edge1_Node000001_Node000002" class="edge">
<title>Node1&#45;&gt;Node2</title>
<g id="a_edge1_Node000001_Node000002"><a xlink:title=" ">
<path fill="none" stroke="#63b8ff" d="M675.28,-524.93C611.11,-521.93 520.04,-511.84 446.5,-481 392.4,-458.31 341.5,-459.67 341.5,-401 341.5,-401 341.5,-401 341.5,-267 341.5,-235.19 340.84,-223.01 360.5,-198 376.52,-177.62 403.26,-164.29 423.45,-156.56"/>
<polygon fill="#63b8ff" stroke="#63b8ff" points="675.2,-528.43 685.34,-525.36 675.49,-521.44 675.2,-528.43"/>
</a>
</g>
</g>
<!-- Node13 -->
<g id="Node000013" class="node">
<title>Node13</title>
<g id="a_Node000013"><a xlink:href="QueryProcessor_8hpp.html" target="_top" xlink:title=" ">
<polygon fill="white" stroke="#666666" points="531,-217 370,-217 370,-198 531,-198 531,-217"/>
<text text-anchor="middle" x="450.5" y="-205" font-family="Helvetica,sans-Serif" font-size="10.00">netspeak/QueryProcessor.hpp</text>
</a>
</g>
</g>
<!-- Node1&#45;&gt;Node13 -->
<g id="edge13_Node000001_Node000013" class="edge">
<title>Node1&#45;&gt;Node13</title>
<g id="a_edge13_Node000001_Node000013"><a xlink:title=" ">
<path fill="none" stroke="#63b8ff" d="M675.11,-522.67C601.51,-518.39 499.72,-507.7 470.5,-481 443.44,-456.28 450.5,-437.65 450.5,-401 450.5,-401 450.5,-401 450.5,-333 450.5,-289.55 450.5,-237.58 450.5,-217.25"/>
<polygon fill="#63b8ff" stroke="#63b8ff" points="675.12,-526.17 685.3,-523.23 675.51,-519.18 675.12,-526.17"/>
</a>
</g>
</g>
<!-- Node14 -->
<g id="Node000014" class="node">
<title>Node14</title>
<g id="a_Node000014"><a xlink:href="Builder_8hpp.html" target="_top" xlink:title=" ">
<polygon fill="white" stroke="#666666" points="890,-481 765,-481 765,-451 890,-451 890,-481"/>
<text text-anchor="start" x="773" y="-469" font-family="Helvetica,sans-Serif" font-size="10.00">netspeak/bighashmap</text>
<text text-anchor="middle" x="827.5" y="-458" font-family="Helvetica,sans-Serif" font-size="10.00">/Builder.hpp</text>
</a>
</g>
</g>
<!-- Node1&#45;&gt;Node14 -->
<g id="edge15_Node000001_Node000014" class="edge">
<title>Node1&#45;&gt;Node14</title>
<g id="a_edge15_Node000001_Node000014"><a xlink:title=" ">
<path fill="none" stroke="#63b8ff" d="M773.96,-510.5C785.1,-501.45 799.19,-490 810.13,-481.11"/>
<polygon fill="#63b8ff" stroke="#63b8ff" points="771.68,-507.85 766.12,-516.87 776.09,-513.28 771.68,-507.85"/>
</a>
</g>
</g>
<!-- Node25 -->
<g id="Node000025" class="node">
<title>Node25</title>
<g id="a_Node000025"><a xlink:href="ExternalMap_8hpp.html" target="_top" xlink:title=" ">
<polygon fill="white" stroke="#666666" points="604,-481 479,-481 479,-451 604,-451 604,-481"/>
<text text-anchor="start" x="487" y="-469" font-family="Helvetica,sans-Serif" font-size="10.00">netspeak/bighashmap</text>
<text text-anchor="middle" x="541.5" y="-458" font-family="Helvetica,sans-Serif" font-size="10.00">/ExternalMap.hpp</text>
</a>
</g>
</g>
<!-- Node1&#45;&gt;Node25 -->
<g id="edge34_Node000001_Node000025" class="edge">
<title>Node1&#45;&gt;Node25</title>
<g id="a_edge34_Node000001_Node000025"><a xlink:title=" ">
<path fill="none" stroke="#63b8ff" d="M714.61,-514.32C680.01,-504.86 630.25,-491.26 592.95,-481.06"/>
<polygon fill="#63b8ff" stroke="#63b8ff" points="713.81,-517.73 724.38,-516.99 715.66,-510.98 713.81,-517.73"/>
</a>
</g>
</g>
<!-- Node26 -->
<g id="Node000026" class="node">
<title>Node26</title>
<g id="a_Node000026"><a xlink:href="InternalMap_8hpp.html" target="_top" xlink:title=" ">
<polygon fill="white" stroke="#666666" points="747,-481 622,-481 622,-451 747,-451 747,-481"/>
<text text-anchor="start" x="630" y="-469" font-family="Helvetica,sans-Serif" font-size="10.00">netspeak/bighashmap</text>
<text text-anchor="middle" x="684.5" y="-458" font-family="Helvetica,sans-Serif" font-size="10.00">/InternalMap.hpp</text>
</a>
</g>
</g>
<!-- Node1&#45;&gt;Node26 -->
<g id="edge36_Node000001_Node000026" class="edge">
<title>Node1&#45;&gt;Node26</title>
<g id="a_edge36_Node000001_Node000026"><a xlink:title=" ">
<path fill="none" stroke="#63b8ff" d="M737.3,-510.5C726.32,-501.45 712.41,-490 701.63,-481.11"/>
<polygon fill="#63b8ff" stroke="#63b8ff" points="735.08,-513.21 745.02,-516.87 739.53,-507.81 735.08,-513.21"/>
</a>
</g>
</g>
<!-- Node27 -->
<g id="Node000027" class="node">
<title>Node27</title>
<g id="a_Node000027"><a xlink:href="PostlistBuilder_8hpp.html" target="_top" xlink:title=" ">
<polygon fill="white" stroke="#666666" points="1137.5,-481 1005.5,-481 1005.5,-451 1137.5,-451 1137.5,-481"/>
<text text-anchor="start" x="1013.5" y="-469" font-family="Helvetica,sans-Serif" font-size="10.00">netspeak/invertedindex</text>
<text text-anchor="middle" x="1071.5" y="-458" font-family="Helvetica,sans-Serif" font-size="10.00">/PostlistBuilder.hpp</text>
</a>
</g>
</g>
<!-- Node1&#45;&gt;Node27 -->
<g id="edge38_Node000001_Node000027" class="edge">
<title>Node1&#45;&gt;Node27</title>
<g id="a_edge38_Node000001_Node000027"><a xlink:title=" ">
<path fill="none" stroke="#63b8ff" d="M811.57,-515.12C865.81,-505.08 948.01,-489.86 1005.4,-479.24"/>
<polygon fill="#63b8ff" stroke="#63b8ff" points="810.64,-511.73 801.45,-516.99 811.92,-518.61 810.64,-511.73"/>
</a>
</g>
</g>
<!-- Node29 -->
<g id="Node000029" class="node">
<title>Node29</title>
<g id="a_Node000029"><a xlink:href="PostlistReader_8hpp.html" target="_top" xlink:title=" ">
<polygon fill="white" stroke="#666666" points="893.5,-415 761.5,-415 761.5,-385 893.5,-385 893.5,-415"/>
<text text-anchor="start" x="769.5" y="-403" font-family="Helvetica,sans-Serif" font-size="10.00">netspeak/invertedindex</text>
<text text-anchor="middle" x="827.5" y="-392" font-family="Helvetica,sans-Serif" font-size="10.00">/PostlistReader.hpp</text>
</a>
</g>
</g>
<!-- Node1&#45;&gt;Node29 -->
<g id="edge44_Node000001_Node000029" class="edge">
<title>Node1&#45;&gt;Node29</title>
<g id="a_edge44_Node000001_Node000029"><a xlink:title=" ">
<path fill="none" stroke="#63b8ff" d="M835.62,-518.99C860.05,-512.79 884.41,-501.45 899.5,-481 907.41,-470.27 905.68,-462.81 899.5,-451 891.18,-435.09 875.23,-423.22 860.45,-415.05"/>
<polygon fill="#63b8ff" stroke="#63b8ff" points="834.52,-515.65 825.54,-521.26 836.07,-522.47 834.52,-515.65"/>
</a>
</g>
</g>
<!-- Node30 -->
<g id="Node000030" class="node">
<title>Node30</title>
<g id="a_Node000030"><a xlink:href="netspeak_2util_2logging_8cpp.html" target="_top" xlink:title=" ">
<polygon fill="white" stroke="#666666" points="1295.5,-475.5 1155.5,-475.5 1155.5,-456.5 1295.5,-456.5 1295.5,-475.5"/>
<text text-anchor="middle" x="1225.5" y="-463.5" font-family="Helvetica,sans-Serif" font-size="10.00">netspeak/util/logging.cpp</text>
</a>
</g>
</g>
<!-- Node1&#45;&gt;Node30 -->
<g id="edge46_Node000001_Node000030" class="edge">
<title>Node1&#45;&gt;Node30</title>
<g id="a_edge46_Node000001_Node000030"><a xlink:title=" ">
<path fill="none" stroke="#63b8ff" d="M835.98,-517.81C915.16,-509.91 1039.41,-496.57 1146.5,-481 1157.39,-479.42 1169.08,-477.48 1180.04,-475.55"/>
<polygon fill="#63b8ff" stroke="#63b8ff" points="835.2,-514.37 825.59,-518.85 835.89,-521.34 835.2,-514.37"/>
</a>
</g>
</g>
<!-- Node3 -->
<g id="Node000003" class="node">
<title>Node3</title>
<g id="a_Node000003"><a xlink:href="ProxyCommand_8cpp.html" target="_top" xlink:title=" ">
<polygon fill="white" stroke="#666666" points="129,-90.5 0,-90.5 0,-71.5 129,-71.5 129,-90.5"/>
<text text-anchor="middle" x="64.5" y="-78.5" font-family="Helvetica,sans-Serif" font-size="10.00">cli/ProxyCommand.cpp</text>
</a>
</g>
</g>
<!-- Node2&#45;&gt;Node3 -->
<g id="edge2_Node000002_Node000003" class="edge">
<title>Node2&#45;&gt;Node3</title>
<g id="a_edge2_Node000002_Node000003"><a xlink:title=" ">
<path fill="none" stroke="#63b8ff" d="M386.63,-135.86C324.5,-125.94 227.46,-110.28 143.5,-96 133.34,-94.27 122.45,-92.37 112.11,-90.55"/>
<polygon fill="#63b8ff" stroke="#63b8ff" points="386.24,-139.35 396.67,-137.47 387.35,-132.43 386.24,-139.35"/>
</a>
</g>
</g>
<!-- Node4 -->
<g id="Node000004" class="node">
<title>Node4</title>
<g id="a_Node000004"><a xlink:href="ServeCommand_8cpp.html" target="_top" xlink:title=" ">
<polygon fill="white" stroke="#666666" points="222,-24.5 93,-24.5 93,-5.5 222,-5.5 222,-24.5"/>
<text text-anchor="middle" x="157.5" y="-12.5" font-family="Helvetica,sans-Serif" font-size="10.00">cli/ServeCommand.cpp</text>
</a>
</g>
</g>
<!-- Node2&#45;&gt;Node4 -->
<g id="edge3_Node000002_Node000004" class="edge">
<title>Node2&#45;&gt;Node4</title>
<g id="a_edge3_Node000002_Node000004"><a xlink:title=" ">
<path fill="none" stroke="#63b8ff" d="M374.22,-141.29C303.25,-135.33 204.38,-122.45 176.5,-96 156.51,-77.04 155.86,-41.2 156.75,-24.71"/>
<polygon fill="#63b8ff" stroke="#63b8ff" points="374.23,-144.8 384.48,-142.12 374.79,-137.83 374.23,-144.8"/>
</a>
</g>
</g>
<!-- Node5 -->
<g id="Node000005" class="node">
<title>Node5</title>
<g id="a_Node000005"><a xlink:href="ShellCommand_8cpp.html" target="_top" xlink:title=" ">
<polygon fill="white" stroke="#666666" points="508,-90.5 383,-90.5 383,-71.5 508,-71.5 508,-90.5"/>
<text text-anchor="middle" x="445.5" y="-78.5" font-family="Helvetica,sans-Serif" font-size="10.00">cli/ShellCommand.cpp</text>
</a>
</g>
</g>
<!-- Node2&#45;&gt;Node5 -->
<g id="edge4_Node000002_Node000005" class="edge">
<title>Node2&#45;&gt;Node5</title>
<g id="a_edge4_Node000002_Node000005"><a xlink:title=" ">
<path fill="none" stroke="#63b8ff" d="M449.02,-127.08C448.09,-115.13 446.92,-100.22 446.2,-90.91"/>
<polygon fill="#63b8ff" stroke="#63b8ff" points="445.56,-127.67 449.83,-137.37 452.54,-127.13 445.56,-127.67"/>
</a>
</g>
</g>
<!-- Node6 -->
<g id="Node000006" class="node">
<title>Node6</title>
<g id="a_Node000006"><a xlink:href="Netspeak_8cpp.html" target="_top" xlink:title=" ">
<polygon fill="white" stroke="#666666" points="657,-90.5 526,-90.5 526,-71.5 657,-71.5 657,-90.5"/>
<text text-anchor="middle" x="591.5" y="-78.5" font-family="Helvetica,sans-Serif" font-size="10.00">netspeak/Netspeak.cpp</text>
</a>
</g>
</g>
<!-- Node2&#45;&gt;Node6 -->
<g id="edge5_Node000002_Node000006" class="edge">
<title>Node2&#45;&gt;Node6</title>
<g id="a_edge5_Node000002_Node000006"><a xlink:title=" ">
<path fill="none" stroke="#63b8ff" d="M478.71,-133.19C506.5,-120.58 548.19,-101.66 572.34,-90.7"/>
<polygon fill="#63b8ff" stroke="#63b8ff" points="477.18,-130.05 469.52,-137.37 480.07,-136.42 477.18,-130.05"/>
</a>
</g>
</g>
<!-- Node7 -->
<g id="Node000007" class="node">
<title>Node7</title>
<g id="a_Node000007"><a xlink:href="indexing_8cpp.html" target="_top" xlink:title=" ">
<polygon fill="white" stroke="#666666" points="963,-90.5 836,-90.5 836,-71.5 963,-71.5 963,-90.5"/>
<text text-anchor="middle" x="899.5" y="-78.5" font-family="Helvetica,sans-Serif" font-size="10.00">netspeak/indexing.cpp</text>
</a>
</g>
</g>
<!-- Node2&#45;&gt;Node7 -->
<g id="edge6_Node000002_Node000007" class="edge">
<title>Node2&#45;&gt;Node7</title>
<g id="a_edge6_Node000002_Node000007"><a xlink:title=" ">
<path fill="none" stroke="#63b8ff" d="M526.74,-137.25C603.03,-128.18 723.67,-112.96 827.5,-96 837.3,-94.4 847.82,-92.47 857.7,-90.57"/>
<polygon fill="#63b8ff" stroke="#63b8ff" points="526.26,-133.79 516.74,-138.44 527.08,-140.74 526.26,-133.79"/>
</a>
</g>
</g>
<!-- Node8 -->
<g id="Node000008" class="node">
<title>Node8</title>
<g id="a_Node000008"><a xlink:href="RequestLogger_8hpp.html" target="_top" xlink:title=" ">
<polygon fill="white" stroke="#666666" points="818,-96 675,-96 675,-66 818,-66 818,-96"/>
<text text-anchor="start" x="683" y="-84" font-family="Helvetica,sans-Serif" font-size="10.00">netspeak/service/Request</text>
<text text-anchor="middle" x="746.5" y="-73" font-family="Helvetica,sans-Serif" font-size="10.00">Logger.hpp</text>
</a>
</g>
</g>
<!-- Node2&#45;&gt;Node8 -->
<g id="edge7_Node000002_Node000008" class="edge">
<title>Node2&#45;&gt;Node8</title>
<g id="a_edge7_Node000002_Node000008"><a xlink:title=" ">
<path fill="none" stroke="#63b8ff" d="M500.01,-135.3C549.84,-124.52 626.94,-107.85 681.64,-96.02"/>
<polygon fill="#63b8ff" stroke="#63b8ff" points="499.15,-131.9 490.11,-137.44 500.63,-138.74 499.15,-131.9"/>
</a>
</g>
</g>
<!-- Node11 -->
<g id="Node000011" class="node">
<title>Node11</title>
<g id="a_Node000011"><a xlink:href="UniqueMap_8hpp.html" target="_top" xlink:title=" ">
<polygon fill="white" stroke="#666666" points="365,-90.5 186,-90.5 186,-71.5 365,-71.5 365,-90.5"/>
<text text-anchor="middle" x="275.5" y="-78.5" font-family="Helvetica,sans-Serif" font-size="10.00">netspeak/service/UniqueMap.hpp</text>
</a>
</g>
</g>
<!-- Node2&#45;&gt;Node11 -->
<g id="edge10_Node000002_Node000011" class="edge">
<title>Node2&#45;&gt;Node11</title>
<g id="a_edge10_Node000002_Node000011"><a xlink:title=" ">
<path fill="none" stroke="#63b8ff" d="M417.25,-133.84C382.67,-121.2 329.44,-101.73 299.01,-90.6"/>
<polygon fill="#63b8ff" stroke="#63b8ff" points="416.3,-137.22 426.9,-137.37 418.71,-130.65 416.3,-137.22"/>
</a>
</g>
</g>
<!-- Node9 -->
<g id="Node000009" class="node">
<title>Node9</title>
<g id="a_Node000009"><a xlink:href="cli_2logging_8cpp.html" target="_top" xlink:title=" ">
<polygon fill="white" stroke="#666666" points="723,-24.5 636,-24.5 636,-5.5 723,-5.5 723,-24.5"/>
<text text-anchor="middle" x="679.5" y="-12.5" font-family="Helvetica,sans-Serif" font-size="10.00">cli/logging.cpp</text>
</a>
</g>
</g>
<!-- Node8&#45;&gt;Node9 -->
<g id="edge8_Node000008_Node000009" class="edge">
<title>Node8&#45;&gt;Node9</title>
<g id="a_edge8_Node000008_Node000009"><a xlink:title=" ">
<path fill="none" stroke="#63b8ff" d="M724.1,-58.6C712.05,-47.1 697.84,-33.52 688.76,-24.84"/>
<polygon fill="#63b8ff" stroke="#63b8ff" points="721.98,-61.42 731.63,-65.8 726.82,-56.36 721.98,-61.42"/>
</a>
</g>
</g>
<!-- Node10 -->
<g id="Node000010" class="node">
<title>Node10</title>
<g id="a_Node000010"><a xlink:href="RequestLogger_8cpp.html" target="_top" xlink:title=" ">
<polygon fill="white" stroke="#666666" points="884,-30 741,-30 741,0 884,0 884,-30"/>
<text text-anchor="start" x="749" y="-18" font-family="Helvetica,sans-Serif" font-size="10.00">netspeak/service/Request</text>
<text text-anchor="middle" x="812.5" y="-7" font-family="Helvetica,sans-Serif" font-size="10.00">Logger.cpp</text>
</a>
</g>
</g>
<!-- Node8&#45;&gt;Node10 -->
<g id="edge9_Node000008_Node000010" class="edge">
<title>Node8&#45;&gt;Node10</title>
<g id="a_edge9_Node000008_Node000010"><a xlink:title=" ">
<path fill="none" stroke="#63b8ff" d="M768.52,-58.65C778.19,-49.27 789.27,-38.53 797.89,-30.16"/>
<polygon fill="#63b8ff" stroke="#63b8ff" points="765.89,-56.32 761.15,-65.8 770.76,-61.35 765.89,-56.32"/>
</a>
</g>
</g>
<!-- Node11&#45;&gt;Node4 -->
<g id="edge11_Node000011_Node000004" class="edge">
<title>Node11&#45;&gt;Node4</title>
<g id="a_edge11_Node000011_Node000004"><a xlink:title=" ">
<path fill="none" stroke="#63b8ff" d="M250.66,-66.53C227.42,-53.92 193.39,-35.47 173.54,-24.7"/>
<polygon fill="#63b8ff" stroke="#63b8ff" points="249.13,-69.68 259.59,-71.37 252.46,-63.52 249.13,-69.68"/>
</a>
</g>
</g>
<!-- Node12 -->
<g id="Node000012" class="node">
<title>Node12</title>
<g id="a_Node000012"><a xlink:href="UniqueMap_8cpp.html" target="_top" xlink:title=" ">
<polygon fill="white" stroke="#666666" points="419,-24.5 240,-24.5 240,-5.5 419,-5.5 419,-24.5"/>
<text text-anchor="middle" x="329.5" y="-12.5" font-family="Helvetica,sans-Serif" font-size="10.00">netspeak/service/UniqueMap.cpp</text>
</a>
</g>
</g>
<!-- Node11&#45;&gt;Node12 -->
<g id="edge12_Node000011_Node000012" class="edge">
<title>Node11&#45;&gt;Node12</title>
<g id="a_edge12_Node000011_Node000012"><a xlink:title=" ">
<path fill="none" stroke="#63b8ff" d="M289.32,-63.62C299.71,-51.31 313.56,-34.89 321.99,-24.91"/>
<polygon fill="#63b8ff" stroke="#63b8ff" points="286.56,-61.47 282.78,-71.37 291.91,-65.98 286.56,-61.47"/>
</a>
</g>
</g>
<!-- Node13&#45;&gt;Node2 -->
<g id="edge14_Node000013_Node000002" class="edge">
<title>Node13&#45;&gt;Node2</title>
<g id="a_edge14_Node000013_Node000002"><a xlink:title=" ">
<path fill="none" stroke="#63b8ff" d="M450.5,-187.66C450.5,-177.24 450.5,-164.8 450.5,-156.67"/>
<polygon fill="#63b8ff" stroke="#63b8ff" points="447,-187.87 450.5,-197.87 454,-187.87 447,-187.87"/>
</a>
</g>
</g>
<!-- Node15 -->
<g id="Node000015" class="node">
<title>Node15</title>
<g id="a_Node000015"><a xlink:href="BigHashMap_8hpp.html" target="_top" xlink:title=" ">
<polygon fill="white" stroke="#666666" points="743,-415 618,-415 618,-385 743,-385 743,-415"/>
<text text-anchor="start" x="626" y="-403" font-family="Helvetica,sans-Serif" font-size="10.00">netspeak/bighashmap</text>
<text text-anchor="middle" x="680.5" y="-392" font-family="Helvetica,sans-Serif" font-size="10.00">/BigHashMap.hpp</text>
</a>
</g>
</g>
<!-- Node14&#45;&gt;Node15 -->
<g id="edge16_Node000014_Node000015" class="edge">
<title>Node14&#45;&gt;Node15</title>
<g id="a_edge16_Node000014_Node000015"><a xlink:title=" ">
<path fill="none" stroke="#63b8ff" d="M785.97,-446.92C762.74,-436.8 734.21,-424.38 712.68,-415.01"/>
<polygon fill="#63b8ff" stroke="#63b8ff" points="784.67,-450.17 795.24,-450.95 787.47,-443.75 784.67,-450.17"/>
</a>
</g>
</g>
<!-- Node20 -->
<g id="Node000020" class="node">
<title>Node20</title>
<g id="a_Node000020"><a xlink:href="StorageWriter_8hpp.html" target="_top" xlink:title=" ">
<polygon fill="white" stroke="#666666" points="1043.5,-415 911.5,-415 911.5,-385 1043.5,-385 1043.5,-415"/>
<text text-anchor="start" x="919.5" y="-403" font-family="Helvetica,sans-Serif" font-size="10.00">netspeak/invertedindex</text>
<text text-anchor="middle" x="977.5" y="-392" font-family="Helvetica,sans-Serif" font-size="10.00">/StorageWriter.hpp</text>
</a>
</g>
</g>
<!-- Node14&#45;&gt;Node20 -->
<g id="edge26_Node000014_Node000020" class="edge">
<title>Node14&#45;&gt;Node20</title>
<g id="a_edge26_Node000014_Node000020"><a xlink:title=" ">
<path fill="none" stroke="#63b8ff" d="M869.88,-446.92C893.58,-436.8 922.69,-424.38 944.66,-415.01"/>
<polygon fill="#63b8ff" stroke="#63b8ff" points="868.24,-443.81 860.42,-450.95 870.99,-450.25 868.24,-443.81"/>
</a>
</g>
</g>
<!-- Node15&#45;&gt;Node7 -->
<g id="edge21_Node000015_Node000007" class="edge">
<title>Node15&#45;&gt;Node7</title>
<g id="a_edge21_Node000015_Node000007"><a xlink:title=" ">
<path fill="none" stroke="#63b8ff" d="M713.56,-379.31C746.28,-357.04 791.5,-317.49 791.5,-269 791.5,-269 791.5,-269 791.5,-206.5 791.5,-150.99 853.52,-108.11 883.56,-90.6"/>
<polygon fill="#63b8ff" stroke="#63b8ff" points="711.56,-376.44 705.13,-384.86 715.41,-382.29 711.56,-376.44"/>
</a>
</g>
</g>
<!-- Node16 -->
<g id="Node000016" class="node">
<title>Node16</title>
<g id="a_Node000016"><a xlink:href="PhraseDictionary_8hpp.html" target="_top" xlink:title=" ">
<polygon fill="white" stroke="#666666" points="759,-277.5 592,-277.5 592,-258.5 759,-258.5 759,-277.5"/>
<text text-anchor="middle" x="675.5" y="-265.5" font-family="Helvetica,sans-Serif" font-size="10.00">netspeak/PhraseDictionary.hpp</text>
</a>
</g>
</g>
<!-- Node15&#45;&gt;Node16 -->
<g id="edge17_Node000015_Node000016" class="edge">
<title>Node15&#45;&gt;Node16</title>
<g id="a_edge17_Node000015_Node000016"><a xlink:title=" ">
<path fill="none" stroke="#63b8ff" d="M679.56,-374.57C678.43,-345.17 676.59,-297.31 675.84,-277.75"/>
<polygon fill="#63b8ff" stroke="#63b8ff" points="676.07,-374.98 679.96,-384.84 683.07,-374.71 676.07,-374.98"/>
</a>
</g>
</g>
<!-- Node18 -->
<g id="Node000018" class="node">
<title>Node18</title>
<g id="a_Node000018"><a xlink:href="StorageReader_8hpp.html" target="_top" xlink:title=" ">
<polygon fill="white" stroke="#666666" points="951.5,-349 819.5,-349 819.5,-319 951.5,-319 951.5,-349"/>
<text text-anchor="start" x="827.5" y="-337" font-family="Helvetica,sans-Serif" font-size="10.00">netspeak/invertedindex</text>
<text text-anchor="middle" x="885.5" y="-326" font-family="Helvetica,sans-Serif" font-size="10.00">/StorageReader.hpp</text>
</a>
</g>
</g>
<!-- Node15&#45;&gt;Node18 -->
<g id="edge22_Node000015_Node000018" class="edge">
<title>Node15&#45;&gt;Node18</title>
<g id="a_edge22_Node000015_Node000018"><a xlink:title=" ">
<path fill="none" stroke="#63b8ff" d="M735.41,-381.86C768.33,-371.58 809.66,-358.68 840.62,-349.01"/>
<polygon fill="#63b8ff" stroke="#63b8ff" points="733.99,-378.63 725.49,-384.95 736.08,-385.32 733.99,-378.63"/>
</a>
</g>
</g>
<!-- Node16&#45;&gt;Node2 -->
<g id="edge18_Node000016_Node000002" class="edge">
<title>Node16&#45;&gt;Node2</title>
<g id="a_edge18_Node000016_Node000002"><a xlink:title=" ">
<path fill="none" stroke="#63b8ff" d="M649.71,-253.87C630.12,-243.86 602.55,-229.68 578.5,-217 537.86,-195.57 490.31,-169.74 466.21,-156.59"/>
<polygon fill="#63b8ff" stroke="#63b8ff" points="648.13,-256.99 658.63,-258.42 651.31,-250.76 648.13,-256.99"/>
</a>
</g>
</g>
<!-- Node17 -->
<g id="Node000017" class="node">
<title>Node17</title>
<g id="a_Node000017"><a xlink:href="RetrievalStrategy3_8hpp.html" target="_top" xlink:title=" ">
<polygon fill="white" stroke="#666666" points="764,-217 587,-217 587,-198 764,-198 764,-217"/>
<text text-anchor="middle" x="675.5" y="-205" font-family="Helvetica,sans-Serif" font-size="10.00">netspeak/RetrievalStrategy3.hpp</text>
</a>
</g>
</g>
<!-- Node16&#45;&gt;Node17 -->
<g id="edge19_Node000016_Node000017" class="edge">
<title>Node16&#45;&gt;Node17</title>
<g id="a_edge19_Node000016_Node000017"><a xlink:title=" ">
<path fill="none" stroke="#63b8ff" d="M675.5,-248.16C675.5,-237.74 675.5,-225.3 675.5,-217.17"/>
<polygon fill="#63b8ff" stroke="#63b8ff" points="672,-248.37 675.5,-258.37 679,-248.37 672,-248.37"/>
</a>
</g>
</g>
<!-- Node17&#45;&gt;Node2 -->
<g id="edge20_Node000017_Node000002" class="edge">
<title>Node17&#45;&gt;Node2</title>
<g id="a_edge20_Node000017_Node000002"><a xlink:title=" ">
<path fill="none" stroke="#63b8ff" d="M633.06,-195.47C589.57,-184.16 522.85,-166.81 483.26,-156.52"/>
<polygon fill="#63b8ff" stroke="#63b8ff" points="632.22,-198.86 642.78,-197.99 633.99,-192.09 632.22,-198.86"/>
</a>
</g>
</g>
<!-- Node19 -->
<g id="Node000019" class="node">
<title>Node19</title>
<g id="a_Node000019"><a xlink:href="Searcher_8hpp.html" target="_top" xlink:title=" ">
<polygon fill="white" stroke="#666666" points="951.5,-283 819.5,-283 819.5,-253 951.5,-253 951.5,-283"/>
<text text-anchor="start" x="827.5" y="-271" font-family="Helvetica,sans-Serif" font-size="10.00">netspeak/invertedindex</text>
<text text-anchor="middle" x="885.5" y="-260" font-family="Helvetica,sans-Serif" font-size="10.00">/Searcher.hpp</text>
</a>
</g>
</g>
<!-- Node18&#45;&gt;Node19 -->
<g id="edge23_Node000018_Node000019" class="edge">
<title>Node18&#45;&gt;Node19</title>
<g id="a_edge23_Node000018_Node000019"><a xlink:title=" ">
<path fill="none" stroke="#63b8ff" d="M885.5,-308.54C885.5,-299.96 885.5,-290.61 885.5,-283.16"/>
<polygon fill="#63b8ff" stroke="#63b8ff" points="882,-308.8 885.5,-318.8 889,-308.8 882,-308.8"/>
</a>
</g>
</g>
<!-- Node19&#45;&gt;Node7 -->
<g id="edge25_Node000019_Node000007" class="edge">
<title>Node19&#45;&gt;Node7</title>
<g id="a_edge25_Node000019_Node000007"><a xlink:title=" ">
<path fill="none" stroke="#63b8ff" d="M887.34,-242.66C890.5,-200.87 896.82,-117.38 898.85,-90.53"/>
<polygon fill="#63b8ff" stroke="#63b8ff" points="883.84,-242.55 886.58,-252.79 890.82,-243.08 883.84,-242.55"/>
</a>
</g>
</g>
<!-- Node19&#45;&gt;Node17 -->
<g id="edge24_Node000019_Node000017" class="edge">
<title>Node19&#45;&gt;Node17</title>
<g id="a_edge24_Node000019_Node000017"><a xlink:title=" ">
<path fill="none" stroke="#63b8ff" d="M825.53,-250.29C786.57,-239.44 737.41,-225.75 706.21,-217.05"/>
<polygon fill="#63b8ff" stroke="#63b8ff" points="824.63,-253.68 835.2,-252.99 826.51,-246.93 824.63,-253.68"/>
</a>
</g>
</g>
<!-- Node20&#45;&gt;Node18 -->
<g id="edge31_Node000020_Node000018" class="edge">
<title>Node20&#45;&gt;Node18</title>
<g id="a_edge31_Node000020_Node000018"><a xlink:title=" ">
<path fill="none" stroke="#63b8ff" d="M948.79,-379.03C934.87,-369.34 918.47,-357.94 905.86,-349.16"/>
<polygon fill="#63b8ff" stroke="#63b8ff" points="946.87,-381.96 957.08,-384.8 950.87,-376.21 946.87,-381.96"/>
</a>
</g>
</g>
<!-- Node21 -->
<g id="Node000021" class="node">
<title>Node21</title>
<g id="a_Node000021"><a xlink:href="SortedInput_8hpp.html" target="_top" xlink:title=" ">
<polygon fill="white" stroke="#666666" points="1101.5,-349 969.5,-349 969.5,-319 1101.5,-319 1101.5,-349"/>
<text text-anchor="start" x="977.5" y="-337" font-family="Helvetica,sans-Serif" font-size="10.00">netspeak/invertedindex</text>
<text text-anchor="middle" x="1035.5" y="-326" font-family="Helvetica,sans-Serif" font-size="10.00">/SortedInput.hpp</text>
</a>
</g>
</g>
<!-- Node20&#45;&gt;Node21 -->
<g id="edge27_Node000020_Node000021" class="edge">
<title>Node20&#45;&gt;Node21</title>
<g id="a_edge27_Node000020_Node000021"><a xlink:title=" ">
<path fill="none" stroke="#63b8ff" d="M997.1,-377.37C1005.54,-368.06 1015.16,-357.44 1022.66,-349.16"/>
<polygon fill="#63b8ff" stroke="#63b8ff" points="994.49,-375.04 990.37,-384.8 999.68,-379.74 994.49,-375.04"/>
</a>
</g>
</g>
<!-- Node24 -->
<g id="Node000024" class="node">
<title>Node24</title>
<g id="a_Node000024"><a xlink:href="UnsortedInput_8hpp.html" target="_top" xlink:title=" ">
<polygon fill="white" stroke="#666666" points="1251.5,-349 1119.5,-349 1119.5,-319 1251.5,-319 1251.5,-349"/>
<text text-anchor="start" x="1127.5" y="-337" font-family="Helvetica,sans-Serif" font-size="10.00">netspeak/invertedindex</text>
<text text-anchor="middle" x="1185.5" y="-326" font-family="Helvetica,sans-Serif" font-size="10.00">/UnsortedInput.hpp</text>
</a>
</g>
</g>
<!-- Node20&#45;&gt;Node24 -->
<g id="edge32_Node000020_Node000024" class="edge">
<title>Node20&#45;&gt;Node24</title>
<g id="a_edge32_Node000020_Node000024"><a xlink:title=" ">
<path fill="none" stroke="#63b8ff" d="M1032.79,-381.99C1066.25,-371.69 1108.42,-358.72 1139.96,-349.01"/>
<polygon fill="#63b8ff" stroke="#63b8ff" points="1031.67,-378.67 1023.15,-384.95 1033.73,-385.36 1031.67,-378.67"/>
</a>
</g>
</g>
<!-- Node22 -->
<g id="Node000022" class="node">
<title>Node22</title>
<g id="a_Node000022"><a xlink:href="Indexer_8hpp.html" target="_top" xlink:title=" ">
<polygon fill="white" stroke="#666666" points="1101.5,-283 969.5,-283 969.5,-253 1101.5,-253 1101.5,-283"/>
<text text-anchor="start" x="977.5" y="-271" font-family="Helvetica,sans-Serif" font-size="10.00">netspeak/invertedindex</text>
<text text-anchor="middle" x="1035.5" y="-260" font-family="Helvetica,sans-Serif" font-size="10.00">/Indexer.hpp</text>
</a>
</g>
</g>
<!-- Node21&#45;&gt;Node22 -->
<g id="edge28_Node000021_Node000022" class="edge">
<title>Node21&#45;&gt;Node22</title>
<g id="a_edge28_Node000021_Node000022"><a xlink:title=" ">
<path fill="none" stroke="#63b8ff" d="M1035.5,-308.54C1035.5,-299.96 1035.5,-290.61 1035.5,-283.16"/>
<polygon fill="#63b8ff" stroke="#63b8ff" points="1032,-308.8 1035.5,-318.8 1039,-308.8 1032,-308.8"/>
</a>
</g>
</g>
<!-- Node23 -->
<g id="Node000023" class="node">
<title>Node23</title>
<g id="a_Node000023"><a xlink:href="ManagedIndexer_8hpp.html" target="_top" xlink:title=" ">
<polygon fill="white" stroke="#666666" points="1077.5,-162 945.5,-162 945.5,-132 1077.5,-132 1077.5,-162"/>
<text text-anchor="start" x="953.5" y="-150" font-family="Helvetica,sans-Serif" font-size="10.00">netspeak/invertedindex</text>
<text text-anchor="middle" x="1011.5" y="-139" font-family="Helvetica,sans-Serif" font-size="10.00">/ManagedIndexer.hpp</text>
</a>
</g>
</g>
<!-- Node22&#45;&gt;Node23 -->
<g id="edge29_Node000022_Node000023" class="edge">
<title>Node22&#45;&gt;Node23</title>
<g id="a_edge29_Node000022_Node000023"><a xlink:title=" ">
<path fill="none" stroke="#63b8ff" d="M1030.66,-243.02C1025.77,-218.75 1018.37,-182.04 1014.34,-162.1"/>
<polygon fill="#63b8ff" stroke="#63b8ff" points="1027.24,-243.77 1032.65,-252.88 1034.11,-242.39 1027.24,-243.77"/>
</a>
</g>
</g>
<!-- Node23&#45;&gt;Node7 -->
<g id="edge30_Node000023_Node000007" class="edge">
<title>Node23&#45;&gt;Node7</title>
<g id="a_edge30_Node000023_Node000007"><a xlink:title=" ">
<path fill="none" stroke="#63b8ff" d="M978.2,-126.97C957.02,-114.87 930.61,-99.78 914.41,-90.52"/>
<polygon fill="#63b8ff" stroke="#63b8ff" points="976.5,-130.03 986.92,-131.95 979.98,-123.95 976.5,-130.03"/>
</a>
</g>
</g>
<!-- Node24&#45;&gt;Node22 -->
<g id="edge33_Node000024_Node000022" class="edge">
<title>Node24&#45;&gt;Node22</title>
<g id="a_edge33_Node000024_Node000022"><a xlink:title=" ">
<path fill="none" stroke="#63b8ff" d="M1143.12,-314.92C1119.42,-304.8 1090.31,-292.38 1068.34,-283.01"/>
<polygon fill="#63b8ff" stroke="#63b8ff" points="1142.01,-318.25 1152.58,-318.95 1144.76,-311.81 1142.01,-318.25"/>
</a>
</g>
</g>
<!-- Node25&#45;&gt;Node15 -->
<g id="edge35_Node000025_Node000015" class="edge">
<title>Node25&#45;&gt;Node15</title>
<g id="a_edge35_Node000025_Node000015"><a xlink:title=" ">
<path fill="none" stroke="#63b8ff" d="M581.36,-446.65C603.22,-436.58 629.89,-424.3 650.07,-415.01"/>
<polygon fill="#63b8ff" stroke="#63b8ff" points="579.62,-443.59 572,-450.95 582.55,-449.95 579.62,-443.59"/>
</a>
</g>
</g>
<!-- Node26&#45;&gt;Node15 -->
<g id="edge37_Node000026_Node000015" class="edge">
<title>Node26&#45;&gt;Node15</title>
<g id="a_edge37_Node000026_Node000015"><a xlink:title=" ">
<path fill="none" stroke="#63b8ff" d="M682.97,-440.54C682.44,-431.96 681.85,-422.61 681.39,-415.16"/>
<polygon fill="#63b8ff" stroke="#63b8ff" points="679.5,-441.03 683.61,-450.8 686.48,-440.6 679.5,-441.03"/>
</a>
</g>
</g>
<!-- Node27&#45;&gt;Node21 -->
<g id="edge42_Node000027_Node000021" class="edge">
<title>Node27&#45;&gt;Node21</title>
<g id="a_edge42_Node000027_Node000021"><a xlink:title=" ">
<path fill="none" stroke="#63b8ff" d="M1066.34,-440.65C1062.82,-424.71 1057.83,-403.5 1052.5,-385 1049,-372.84 1044.33,-359.26 1040.77,-349.33"/>
<polygon fill="#63b8ff" stroke="#63b8ff" points="1062.99,-441.7 1068.54,-450.73 1069.83,-440.22 1062.99,-441.7"/>
</a>
</g>
</g>
<!-- Node27&#45;&gt;Node24 -->
<g id="edge43_Node000027_Node000024" class="edge">
<title>Node27&#45;&gt;Node24</title>
<g id="a_edge43_Node000027_Node000024"><a xlink:title=" ">
<path fill="none" stroke="#63b8ff" d="M1141.16,-448.55C1184.87,-437.52 1234.14,-423.52 1240.5,-415 1257.34,-392.45 1228.81,-365.28 1206.93,-349.11"/>
<polygon fill="#63b8ff" stroke="#63b8ff" points="1140.21,-445.18 1131.36,-451 1141.91,-451.97 1140.21,-445.18"/>
</a>
</g>
</g>
<!-- Node28 -->
<g id="Node000028" class="node">
<title>Node28</title>
<g id="a_Node000028"><a xlink:href="PostlistSorter_8hpp.html" target="_top" xlink:title=" ">
<polygon fill="white" stroke="#666666" points="1231.5,-415 1099.5,-415 1099.5,-385 1231.5,-385 1231.5,-415"/>
<text text-anchor="start" x="1107.5" y="-403" font-family="Helvetica,sans-Serif" font-size="10.00">netspeak/invertedindex</text>
<text text-anchor="middle" x="1165.5" y="-392" font-family="Helvetica,sans-Serif" font-size="10.00">/PostlistSorter.hpp</text>
</a>
</g>
</g>
<!-- Node27&#45;&gt;Node28 -->
<g id="edge39_Node000027_Node000028" class="edge">
<title>Node27&#45;&gt;Node28</title>
<g id="a_edge39_Node000027_Node000028"><a xlink:title=" ">
<path fill="none" stroke="#63b8ff" d="M1100.83,-445.03C1115.06,-435.34 1131.81,-423.94 1144.7,-415.16"/>
<polygon fill="#63b8ff" stroke="#63b8ff" points="1098.66,-442.28 1092.36,-450.8 1102.6,-448.06 1098.66,-442.28"/>
</a>
</g>
</g>
<!-- Node28&#45;&gt;Node21 -->
<g id="edge40_Node000028_Node000021" class="edge">
<title>Node28&#45;&gt;Node21</title>
<g id="a_edge40_Node000028_Node000021"><a xlink:title=" ">
<path fill="none" stroke="#63b8ff" d="M1127.95,-380.51C1107.55,-370.47 1082.74,-358.26 1063.96,-349.01"/>
<polygon fill="#63b8ff" stroke="#63b8ff" points="1126.45,-383.68 1136.97,-384.95 1129.55,-377.4 1126.45,-383.68"/>
</a>
</g>
</g>
<!-- Node28&#45;&gt;Node24 -->
<g id="edge41_Node000028_Node000024" class="edge">
<title>Node28&#45;&gt;Node24</title>
<g id="a_edge41_Node000028_Node000024"><a xlink:title=" ">
<path fill="none" stroke="#63b8ff" d="M1172.97,-375.11C1175.69,-366.38 1178.69,-356.78 1181.07,-349.16"/>
<polygon fill="#63b8ff" stroke="#63b8ff" points="1169.58,-374.21 1169.94,-384.8 1176.26,-376.3 1169.58,-374.21"/>
</a>
</g>
</g>
<!-- Node29&#45;&gt;Node18 -->
<g id="edge45_Node000029_Node000018" class="edge">
<title>Node29&#45;&gt;Node18</title>
<g id="a_edge45_Node000029_Node000018"><a xlink:title=" ">
<path fill="none" stroke="#63b8ff" d="M847.1,-377.37C855.54,-368.06 865.16,-357.44 872.66,-349.16"/>
<polygon fill="#63b8ff" stroke="#63b8ff" points="844.49,-375.04 840.37,-384.8 849.68,-379.74 844.49,-375.04"/>
</a>
</g>
</g>
</g>
</svg>
