<?xml version="1.0" encoding="UTF-8" standalone="no"?>
<!DOCTYPE svg PUBLIC "-//W3C//DTD SVG 1.1//EN"
 "http://www.w3.org/Graphics/SVG/1.1/DTD/svg11.dtd">
<!-- Generated by graphviz version 2.43.0 (0)
 -->
<!-- Title: netspeak/model/NormQuery.cpp Pages: 1 -->
<svg width="828pt" height="247pt"
 viewBox="0.00 0.00 827.50 247.00" xmlns="http://www.w3.org/2000/svg" xmlns:xlink="http://www.w3.org/1999/xlink">
<g id="graph0" class="graph" transform="scale(1 1) rotate(0) translate(4 243)">
<title>netspeak/model/NormQuery.cpp</title>
<!-- Node1 -->
<g id="Node000001" class="node">
<title>Node1</title>
<g id="a_Node000001"><a xlink:title=" ">
<polygon fill="#999999" stroke="#666666" points="361.5,-239 188.5,-239 188.5,-220 361.5,-220 361.5,-239"/>
<text text-anchor="middle" x="275" y="-227" font-family="Helvetica,sans-Serif" font-size="10.00">netspeak/model/NormQuery.cpp</text>
</a>
</g>
</g>
<!-- Node2 -->
<g id="Node000002" class="node">
<title>Node2</title>
<g id="a_Node000002"><a xlink:title=" ">
<polygon fill="#e0e0e0" stroke="#999999" points="50,-184 0,-184 0,-165 50,-165 50,-184"/>
<text text-anchor="middle" x="25" y="-172" font-family="Helvetica,sans-Serif" font-size="10.00">format</text>
</a>
</g>
</g>
<!-- Node1&#45;&gt;Node2 -->
<g id="edge1_Node000001_Node000002" class="edge">
<title>Node1&#45;&gt;Node2</title>
<g id="a_edge1_Node000001_Node000002"><a xlink:title=" ">
<path fill="none" stroke="#63b8ff" d="M234.14,-219.97C191.62,-211.07 123.12,-196.68 64,-184 62.74,-183.73 61.46,-183.46 60.17,-183.18"/>
<polygon fill="#63b8ff" stroke="#63b8ff" points="60.68,-179.71 50.17,-181.01 59.2,-186.55 60.68,-179.71"/>
</a>
</g>
</g>
<!-- Node3 -->
<g id="Node000003" class="node">
<title>Node3</title>
<g id="a_Node000003"><a xlink:href="error_8hpp.html" target="_top" xlink:title=" ">
<polygon fill="white" stroke="#666666" points="329,-184 221,-184 221,-165 329,-165 329,-184"/>
<text text-anchor="middle" x="275" y="-172" font-family="Helvetica,sans-Serif" font-size="10.00">netspeak/error.hpp</text>
</a>
</g>
</g>
<!-- Node1&#45;&gt;Node3 -->
<g id="edge2_Node000001_Node000003" class="edge">
<title>Node1&#45;&gt;Node3</title>
<g id="a_edge2_Node000001_Node000003"><a xlink:title=" ">
<path fill="none" stroke="#63b8ff" d="M275,-219.75C275,-212.8 275,-202.85 275,-194.13"/>
<polygon fill="#63b8ff" stroke="#63b8ff" points="278.5,-194.09 275,-184.09 271.5,-194.09 278.5,-194.09"/>
</a>
</g>
</g>
<!-- Node8 -->
<g id="Node000008" class="node">
<title>Node8</title>
<g id="a_Node000008"><a xlink:title=" ">
<polygon fill="#e0e0e0" stroke="#999999" points="421.5,-74 356.5,-74 356.5,-55 421.5,-55 421.5,-74"/>
<text text-anchor="middle" x="389" y="-62" font-family="Helvetica,sans-Serif" font-size="10.00">stdexcept</text>
</a>
</g>
</g>
<!-- Node1&#45;&gt;Node8 -->
<g id="edge24_Node000001_Node000008" class="edge">
<title>Node1&#45;&gt;Node8</title>
<g id="a_edge24_Node000001_Node000008"><a xlink:title=" ">
<path fill="none" stroke="#63b8ff" d="M291.95,-219.96C305.9,-212.2 325.35,-199.6 338,-184 362.83,-153.37 377.63,-108.83 384.45,-84"/>
<polygon fill="#63b8ff" stroke="#63b8ff" points="387.89,-84.65 387.03,-74.09 381.12,-82.89 387.89,-84.65"/>
</a>
</g>
</g>
<!-- Node10 -->
<g id="Node000010" class="node">
<title>Node10</title>
<g id="a_Node000010"><a xlink:href="NormQuery_8hpp.html" target="_top" xlink:title=" ">
<polygon fill="white" stroke="#666666" points="687,-184 513,-184 513,-165 687,-165 687,-184"/>
<text text-anchor="middle" x="600" y="-172" font-family="Helvetica,sans-Serif" font-size="10.00">netspeak/model/NormQuery.hpp</text>
</a>
</g>
</g>
<!-- Node1&#45;&gt;Node10 -->
<g id="edge10_Node000001_Node000010" class="edge">
<title>Node1&#45;&gt;Node10</title>
<g id="a_edge10_Node000001_Node000010"><a xlink:title=" ">
<path fill="none" stroke="#63b8ff" d="M327.22,-219.98C384.58,-210.63 476.67,-195.61 537.74,-185.65"/>
<polygon fill="#63b8ff" stroke="#63b8ff" points="538.34,-189.1 547.64,-184.04 537.21,-182.19 538.34,-189.1"/>
</a>
</g>
</g>
<!-- Node16 -->
<g id="Node000016" class="node">
<title>Node16</title>
<g id="a_Node000016"><a xlink:title=" ">
<polygon fill="#e0e0e0" stroke="#999999" points="304.5,-19 247.5,-19 247.5,0 304.5,0 304.5,-19"/>
<text text-anchor="middle" x="276" y="-7" font-family="Helvetica,sans-Serif" font-size="10.00">ostream</text>
</a>
</g>
</g>
<!-- Node1&#45;&gt;Node16 -->
<g id="edge23_Node000001_Node000016" class="edge">
<title>Node1&#45;&gt;Node16</title>
<g id="a_edge23_Node000001_Node000016"><a xlink:title=" ">
<path fill="none" stroke="#63b8ff" d="M256.32,-219.89C205.45,-195.27 71.55,-122.09 122,-55 135.88,-36.55 196.47,-23.32 237.38,-16.3"/>
<polygon fill="#63b8ff" stroke="#63b8ff" points="238.03,-19.74 247.32,-14.64 236.88,-12.83 238.03,-19.74"/>
</a>
</g>
</g>
<!-- Node4 -->
<g id="Node000004" class="node">
<title>Node4</title>
<g id="a_Node000004"><a xlink:title=" ">
<polygon fill="#e0e0e0" stroke="#999999" points="486.5,-19 421.5,-19 421.5,0 486.5,0 486.5,-19"/>
<text text-anchor="middle" x="454" y="-7" font-family="Helvetica,sans-Serif" font-size="10.00">inttypes.h</text>
</a>
</g>
</g>
<!-- Node3&#45;&gt;Node4 -->
<g id="edge3_Node000003_Node000004" class="edge">
<title>Node3&#45;&gt;Node4</title>
<g id="a_edge3_Node000003_Node000004"><a xlink:title=" ">
<path fill="none" stroke="#63b8ff" d="M249.17,-164.92C198.39,-146.76 93.92,-102.2 135,-55 152.89,-34.44 328.46,-19.39 411.23,-13.38"/>
<polygon fill="#63b8ff" stroke="#63b8ff" points="411.6,-16.86 421.32,-12.66 411.1,-9.88 411.6,-16.86"/>
</a>
</g>
</g>
<!-- Node5 -->
<g id="Node000005" class="node">
<title>Node5</title>
<g id="a_Node000005"><a xlink:title=" ">
<polygon fill="#e0e0e0" stroke="#999999" points="484,-74 440,-74 440,-55 484,-55 484,-74"/>
<text text-anchor="middle" x="462" y="-62" font-family="Helvetica,sans-Serif" font-size="10.00">string</text>
</a>
</g>
</g>
<!-- Node3&#45;&gt;Node5 -->
<g id="edge4_Node000003_Node000005" class="edge">
<title>Node3&#45;&gt;Node5</title>
<g id="a_edge4_Node000003_Node000005"><a xlink:title=" ">
<path fill="none" stroke="#63b8ff" d="M289.99,-164.84C322.35,-146.16 398.98,-101.9 438.11,-79.3"/>
<polygon fill="#63b8ff" stroke="#63b8ff" points="440.29,-82.08 447.2,-74.05 436.79,-76.02 440.29,-82.08"/>
</a>
</g>
</g>
<!-- Node6 -->
<g id="Node000006" class="node">
<title>Node6</title>
<g id="a_Node000006"><a xlink:href="traceable__error_8hpp.html" target="_top" xlink:title=" ">
<polygon fill="white" stroke="#666666" points="340,-129 210,-129 210,-110 340,-110 340,-129"/>
<text text-anchor="middle" x="275" y="-117" font-family="Helvetica,sans-Serif" font-size="10.00">util/traceable_error.hpp</text>
</a>
</g>
</g>
<!-- Node3&#45;&gt;Node6 -->
<g id="edge5_Node000003_Node000006" class="edge">
<title>Node3&#45;&gt;Node6</title>
<g id="a_edge5_Node000003_Node000006"><a xlink:title=" ">
<path fill="none" stroke="#63b8ff" d="M275,-164.75C275,-157.8 275,-147.85 275,-139.13"/>
<polygon fill="#63b8ff" stroke="#63b8ff" points="278.5,-139.09 275,-129.09 271.5,-139.09 278.5,-139.09"/>
</a>
</g>
</g>
<!-- Node6&#45;&gt;Node5 -->
<g id="edge8_Node000006_Node000005" class="edge">
<title>Node6&#45;&gt;Node5</title>
<g id="a_edge8_Node000006_Node000005"><a xlink:title=" ">
<path fill="none" stroke="#63b8ff" d="M305.04,-109.98C339.34,-100.26 395.21,-84.43 430.22,-74.51"/>
<polygon fill="#63b8ff" stroke="#63b8ff" points="431.27,-77.85 439.93,-71.75 429.36,-71.11 431.27,-77.85"/>
</a>
</g>
</g>
<!-- Node7 -->
<g id="Node000007" class="node">
<title>Node7</title>
<g id="a_Node000007"><a xlink:title=" ">
<polygon fill="#e0e0e0" stroke="#999999" points="338,-74 282,-74 282,-55 338,-55 338,-74"/>
<text text-anchor="middle" x="310" y="-62" font-family="Helvetica,sans-Serif" font-size="10.00">sstream</text>
</a>
</g>
</g>
<!-- Node6&#45;&gt;Node7 -->
<g id="edge6_Node000006_Node000007" class="edge">
<title>Node6&#45;&gt;Node7</title>
<g id="a_edge6_Node000006_Node000007"><a xlink:title=" ">
<path fill="none" stroke="#63b8ff" d="M280.78,-109.75C285.62,-102.42 292.68,-91.73 298.64,-82.7"/>
<polygon fill="#63b8ff" stroke="#63b8ff" points="301.74,-84.36 304.33,-74.09 295.9,-80.5 301.74,-84.36"/>
</a>
</g>
</g>
<!-- Node6&#45;&gt;Node8 -->
<g id="edge7_Node000006_Node000008" class="edge">
<title>Node6&#45;&gt;Node8</title>
<g id="a_edge7_Node000006_Node000008"><a xlink:title=" ">
<path fill="none" stroke="#63b8ff" d="M293.32,-109.98C311.66,-101.46 340.11,-88.23 361.23,-78.41"/>
<polygon fill="#63b8ff" stroke="#63b8ff" points="362.76,-81.56 370.35,-74.17 359.81,-75.21 362.76,-81.56"/>
</a>
</g>
</g>
<!-- Node9 -->
<g id="Node000009" class="node">
<title>Node9</title>
<g id="a_Node000009"><a xlink:title=" ">
<polygon fill="#e0e0e0" stroke="#999999" points="263.5,-74 144.5,-74 144.5,-55 263.5,-55 263.5,-74"/>
<text text-anchor="middle" x="204" y="-62" font-family="Helvetica,sans-Serif" font-size="10.00">boost/stacktrace.hpp</text>
</a>
</g>
</g>
<!-- Node6&#45;&gt;Node9 -->
<g id="edge9_Node000006_Node000009" class="edge">
<title>Node6&#45;&gt;Node9</title>
<g id="a_edge9_Node000006_Node000009"><a xlink:title=" ">
<path fill="none" stroke="#63b8ff" d="M263.59,-109.98C252.89,-102 236.66,-89.88 223.84,-80.31"/>
<polygon fill="#63b8ff" stroke="#63b8ff" points="225.72,-77.35 215.61,-74.17 221.53,-82.96 225.72,-77.35"/>
</a>
</g>
</g>
<!-- Node10&#45;&gt;Node5 -->
<g id="edge12_Node000010_Node000005" class="edge">
<title>Node10&#45;&gt;Node5</title>
<g id="a_edge12_Node000010_Node000005"><a xlink:title=" ">
<path fill="none" stroke="#63b8ff" d="M579.3,-164.96C561.69,-157.13 536.28,-144.42 517,-129 499.99,-115.4 484.12,-96.07 473.84,-82.31"/>
<polygon fill="#63b8ff" stroke="#63b8ff" points="476.65,-80.22 467.93,-74.19 470.99,-84.34 476.65,-80.22"/>
</a>
</g>
</g>
<!-- Node11 -->
<g id="Node000011" class="node">
<title>Node11</title>
<g id="a_Node000011"><a xlink:title=" ">
<polygon fill="#e0e0e0" stroke="#999999" points="754,-74 696,-74 696,-55 754,-55 754,-74"/>
<text text-anchor="middle" x="725" y="-62" font-family="Helvetica,sans-Serif" font-size="10.00">memory</text>
</a>
</g>
</g>
<!-- Node10&#45;&gt;Node11 -->
<g id="edge11_Node000010_Node000011" class="edge">
<title>Node10&#45;&gt;Node11</title>
<g id="a_edge11_Node000010_Node000011"><a xlink:title=" ">
<path fill="none" stroke="#63b8ff" d="M622.34,-164.86C639.94,-157.29 664.36,-144.99 682,-129 696.45,-115.9 708.44,-97.01 716.05,-83.24"/>
<polygon fill="#63b8ff" stroke="#63b8ff" points="719.21,-84.75 720.8,-74.27 713.03,-81.47 719.21,-84.75"/>
</a>
</g>
</g>
<!-- Node12 -->
<g id="Node000012" class="node">
<title>Node12</title>
<g id="a_Node000012"><a xlink:title=" ">
<polygon fill="#e0e0e0" stroke="#999999" points="819.5,-74 772.5,-74 772.5,-55 819.5,-55 819.5,-74"/>
<text text-anchor="middle" x="796" y="-62" font-family="Helvetica,sans-Serif" font-size="10.00">vector</text>
</a>
</g>
</g>
<!-- Node10&#45;&gt;Node12 -->
<g id="edge13_Node000010_Node000012" class="edge">
<title>Node10&#45;&gt;Node12</title>
<g id="a_edge13_Node000010_Node000012"><a xlink:title=" ">
<path fill="none" stroke="#63b8ff" d="M624.02,-164.96C645.74,-156.86 678.32,-143.75 705,-129 731.37,-114.42 759.49,-93.95 777.37,-80.23"/>
<polygon fill="#63b8ff" stroke="#63b8ff" points="779.52,-82.99 785.28,-74.1 775.23,-77.46 779.52,-82.99"/>
</a>
</g>
</g>
<!-- Node13 -->
<g id="Node000013" class="node">
<title>Node13</title>
<g id="a_Node000013"><a xlink:href="Query_8hpp.html" target="_top" xlink:title=" ">
<polygon fill="white" stroke="#666666" points="673.5,-129 526.5,-129 526.5,-110 673.5,-110 673.5,-129"/>
<text text-anchor="middle" x="600" y="-117" font-family="Helvetica,sans-Serif" font-size="10.00">netspeak/model/Query.hpp</text>
</a>
</g>
</g>
<!-- Node10&#45;&gt;Node13 -->
<g id="edge14_Node000010_Node000013" class="edge">
<title>Node10&#45;&gt;Node13</title>
<g id="a_edge14_Node000010_Node000013"><a xlink:title=" ">
<path fill="none" stroke="#63b8ff" d="M600,-164.75C600,-157.8 600,-147.85 600,-139.13"/>
<polygon fill="#63b8ff" stroke="#63b8ff" points="603.5,-139.09 600,-129.09 596.5,-139.09 603.5,-139.09"/>
</a>
</g>
</g>
<!-- Node13&#45;&gt;Node5 -->
<g id="edge18_Node000013_Node000005" class="edge">
<title>Node13&#45;&gt;Node5</title>
<g id="a_edge18_Node000013_Node000005"><a xlink:title=" ">
<path fill="none" stroke="#63b8ff" d="M577.83,-109.98C555.09,-101.25 519.52,-87.59 493.79,-77.71"/>
<polygon fill="#63b8ff" stroke="#63b8ff" points="494.71,-74.31 484.12,-73.99 492.2,-80.85 494.71,-74.31"/>
</a>
</g>
</g>
<!-- Node13&#45;&gt;Node8 -->
<g id="edge17_Node000013_Node000008" class="edge">
<title>Node13&#45;&gt;Node8</title>
<g id="a_edge17_Node000013_Node000008"><a xlink:title=" ">
<path fill="none" stroke="#63b8ff" d="M566.1,-109.98C529.56,-100.81 471.31,-86.18 431.68,-76.22"/>
<polygon fill="#63b8ff" stroke="#63b8ff" points="432.33,-72.77 421.78,-73.73 430.62,-79.56 432.33,-72.77"/>
</a>
</g>
</g>
<!-- Node13&#45;&gt;Node11 -->
<g id="edge15_Node000013_Node000011" class="edge">
<title>Node13&#45;&gt;Node11</title>
<g id="a_edge15_Node000013_Node000011"><a xlink:title=" ">
<path fill="none" stroke="#63b8ff" d="M620.08,-109.98C640.37,-101.38 671.96,-87.99 695.17,-78.15"/>
<polygon fill="#63b8ff" stroke="#63b8ff" points="696.71,-81.3 704.55,-74.17 693.98,-74.85 696.71,-81.3"/>
</a>
</g>
</g>
<!-- Node13&#45;&gt;Node12 -->
<g id="edge19_Node000013_Node000012" class="edge">
<title>Node13&#45;&gt;Node12</title>
<g id="a_edge19_Node000013_Node000012"><a xlink:title=" ">
<path fill="none" stroke="#63b8ff" d="M631.49,-109.98C667.4,-100.28 725.85,-84.47 762.55,-74.54"/>
<polygon fill="#63b8ff" stroke="#63b8ff" points="763.55,-77.9 772.29,-71.91 761.73,-71.14 763.55,-77.9"/>
</a>
</g>
</g>
<!-- Node14 -->
<g id="Node000014" class="node">
<title>Node14</title>
<g id="a_Node000014"><a xlink:title=" ">
<polygon fill="#e0e0e0" stroke="#999999" points="678,-74 622,-74 622,-55 678,-55 678,-74"/>
<text text-anchor="middle" x="650" y="-62" font-family="Helvetica,sans-Serif" font-size="10.00">optional</text>
</a>
</g>
</g>
<!-- Node13&#45;&gt;Node14 -->
<g id="edge16_Node000013_Node000014" class="edge">
<title>Node13&#45;&gt;Node14</title>
<g id="a_edge16_Node000013_Node000014"><a xlink:title=" ">
<path fill="none" stroke="#63b8ff" d="M608.26,-109.75C615.46,-102.11 626.11,-90.82 634.85,-81.56"/>
<polygon fill="#63b8ff" stroke="#63b8ff" points="637.58,-83.76 641.9,-74.09 632.49,-78.96 637.58,-83.76"/>
</a>
</g>
</g>
<!-- Node15 -->
<g id="Node000015" class="node">
<title>Node15</title>
<g id="a_Node000015"><a xlink:href="LengthRange_8hpp.html" target="_top" xlink:title=" ">
<polygon fill="white" stroke="#666666" points="603.5,-74 502.5,-74 502.5,-55 603.5,-55 603.5,-74"/>
<text text-anchor="middle" x="553" y="-62" font-family="Helvetica,sans-Serif" font-size="10.00">LengthRange.hpp</text>
</a>
</g>
</g>
<!-- Node13&#45;&gt;Node15 -->
<g id="edge20_Node000013_Node000015" class="edge">
<title>Node13&#45;&gt;Node15</title>
<g id="a_edge20_Node000013_Node000015"><a xlink:title=" ">
<path fill="none" stroke="#63b8ff" d="M592.24,-109.75C585.53,-102.18 575.66,-91.05 567.49,-81.84"/>
<polygon fill="#63b8ff" stroke="#63b8ff" points="569.87,-79.25 560.62,-74.09 564.63,-83.89 569.87,-79.25"/>
</a>
</g>
</g>
<!-- Node15&#45;&gt;Node4 -->
<g id="edge21_Node000015_Node000004" class="edge">
<title>Node15&#45;&gt;Node4</title>
<g id="a_edge21_Node000015_Node000004"><a xlink:title=" ">
<path fill="none" stroke="#63b8ff" d="M537.09,-54.98C521.45,-46.61 497.34,-33.7 479.12,-23.95"/>
<polygon fill="#63b8ff" stroke="#63b8ff" points="480.66,-20.8 470.2,-19.17 477.36,-26.98 480.66,-20.8"/>
</a>
</g>
</g>
<!-- Node15&#45;&gt;Node16 -->
<g id="edge22_Node000015_Node000016" class="edge">
<title>Node15&#45;&gt;Node16</title>
<g id="a_edge22_Node000015_Node000016"><a xlink:title=" ">
<path fill="none" stroke="#63b8ff" d="M508.5,-54.98C454.84,-44.72 365.56,-27.64 314.66,-17.9"/>
<polygon fill="#63b8ff" stroke="#63b8ff" points="315.19,-14.44 304.71,-15.99 313.88,-21.31 315.19,-14.44"/>
</a>
</g>
</g>
</g>
</svg>
