<?xml version="1.0" encoding="UTF-8" standalone="no"?>
<!DOCTYPE svg PUBLIC "-//W3C//DTD SVG 1.1//EN"
 "http://www.w3.org/Graphics/SVG/1.1/DTD/svg11.dtd">
<!-- Generated by graphviz version 2.43.0 (0)
 -->
<!-- Title: netspeak/value/pair_traits.hpp Pages: 1 -->
<svg width="569pt" height="148pt"
 viewBox="0.00 0.00 568.50 148.00" xmlns="http://www.w3.org/2000/svg" xmlns:xlink="http://www.w3.org/1999/xlink">
<g id="graph0" class="graph" transform="scale(1 1) rotate(0) translate(4 144)">
<title>netspeak/value/pair_traits.hpp</title>
<!-- Node1 -->
<g id="Node000001" class="node">
<title>Node1</title>
<g id="a_Node000001"><a xlink:title=" ">
<polygon fill="#999999" stroke="#666666" points="317,-140 204,-140 204,-110 317,-110 317,-140"/>
<text text-anchor="start" x="212" y="-128" font-family="Helvetica,sans-Serif" font-size="10.00">netspeak/value/pair</text>
<text text-anchor="middle" x="260.5" y="-117" font-family="Helvetica,sans-Serif" font-size="10.00">_traits.hpp</text>
</a>
</g>
</g>
<!-- Node2 -->
<g id="Node000002" class="node">
<title>Node2</title>
<g id="a_Node000002"><a xlink:href="pair_8hpp.html" target="_top" xlink:title=" ">
<polygon fill="white" stroke="#666666" points="104.5,-74 48.5,-74 48.5,-55 104.5,-55 104.5,-74"/>
<text text-anchor="middle" x="76.5" y="-62" font-family="Helvetica,sans-Serif" font-size="10.00">pair.hpp</text>
</a>
</g>
</g>
<!-- Node1&#45;&gt;Node2 -->
<g id="edge1_Node000001_Node000002" class="edge">
<title>Node1&#45;&gt;Node2</title>
<g id="a_edge1_Node000001_Node000002"><a xlink:title=" ">
<path fill="none" stroke="#63b8ff" d="M216.43,-109.99C184.81,-99.94 142.72,-86.55 112.98,-77.1"/>
<polygon fill="#63b8ff" stroke="#63b8ff" points="113.99,-73.75 103.4,-74.05 111.87,-80.42 113.99,-73.75"/>
</a>
</g>
</g>
<!-- Node4 -->
<g id="Node000004" class="node">
<title>Node4</title>
<g id="a_Node000004"><a xlink:href="value__traits_8hpp.html" target="_top" xlink:title=" ">
<polygon fill="white" stroke="#666666" points="308,-74 213,-74 213,-55 308,-55 308,-74"/>
<text text-anchor="middle" x="260.5" y="-62" font-family="Helvetica,sans-Serif" font-size="10.00">value_traits.hpp</text>
</a>
</g>
</g>
<!-- Node1&#45;&gt;Node4 -->
<g id="edge3_Node000001_Node000004" class="edge">
<title>Node1&#45;&gt;Node4</title>
<g id="a_edge3_Node000001_Node000004"><a xlink:title=" ">
<path fill="none" stroke="#63b8ff" d="M260.5,-109.84C260.5,-102.21 260.5,-92.7 260.5,-84.45"/>
<polygon fill="#63b8ff" stroke="#63b8ff" points="264,-84.27 260.5,-74.27 257,-84.27 264,-84.27"/>
</a>
</g>
</g>
<!-- Node7 -->
<g id="Node000007" class="node">
<title>Node7</title>
<g id="a_Node000007"><a xlink:title=" ">
<polygon fill="#e0e0e0" stroke="#999999" points="113.5,-19 63.5,-19 63.5,0 113.5,0 113.5,-19"/>
<text text-anchor="middle" x="88.5" y="-7" font-family="Helvetica,sans-Serif" font-size="10.00">format</text>
</a>
</g>
</g>
<!-- Node1&#45;&gt;Node7 -->
<g id="edge11_Node000001_Node000007" class="edge">
<title>Node1&#45;&gt;Node7</title>
<g id="a_edge11_Node000001_Node000007"><a xlink:title=" ">
<path fill="none" stroke="#63b8ff" d="M239.06,-109.85C206.14,-88.13 143.46,-46.77 110.31,-24.89"/>
<polygon fill="#63b8ff" stroke="#63b8ff" points="112.07,-21.86 101.79,-19.27 108.21,-27.7 112.07,-21.86"/>
</a>
</g>
</g>
<!-- Node10 -->
<g id="Node000010" class="node">
<title>Node10</title>
<g id="a_Node000010"><a xlink:title=" ">
<polygon fill="#e0e0e0" stroke="#999999" points="560.5,-19 516.5,-19 516.5,0 560.5,0 560.5,-19"/>
<text text-anchor="middle" x="538.5" y="-7" font-family="Helvetica,sans-Serif" font-size="10.00">string</text>
</a>
</g>
</g>
<!-- Node1&#45;&gt;Node10 -->
<g id="edge13_Node000001_Node000010" class="edge">
<title>Node1&#45;&gt;Node10</title>
<g id="a_edge13_Node000001_Node000010"><a xlink:title=" ">
<path fill="none" stroke="#63b8ff" d="M275.74,-109.93C293.56,-94.24 324.56,-69.2 355.5,-55 415.76,-27.34 438.21,-35.35 506.26,-19.17"/>
<polygon fill="#63b8ff" stroke="#63b8ff" points="507.31,-22.52 516.17,-16.72 505.63,-15.72 507.31,-22.52"/>
</a>
</g>
</g>
<!-- Node12 -->
<g id="Node000012" class="node">
<title>Node12</title>
<g id="a_Node000012"><a xlink:title=" ">
<polygon fill="#e0e0e0" stroke="#999999" points="420.5,-74 364.5,-74 364.5,-55 420.5,-55 420.5,-74"/>
<text text-anchor="middle" x="392.5" y="-62" font-family="Helvetica,sans-Serif" font-size="10.00">sstream</text>
</a>
</g>
</g>
<!-- Node1&#45;&gt;Node12 -->
<g id="edge12_Node000001_Node000012" class="edge">
<title>Node1&#45;&gt;Node12</title>
<g id="a_edge12_Node000001_Node000012"><a xlink:title=" ">
<path fill="none" stroke="#63b8ff" d="M292.12,-109.99C313.85,-100.36 342.47,-87.67 363.59,-78.31"/>
<polygon fill="#63b8ff" stroke="#63b8ff" points="365.28,-81.39 373.01,-74.14 362.45,-74.99 365.28,-81.39"/>
</a>
</g>
</g>
<!-- Node3 -->
<g id="Node000003" class="node">
<title>Node3</title>
<g id="a_Node000003"><a xlink:title=" ">
<polygon fill="#e0e0e0" stroke="#999999" points="45,-19 0,-19 0,0 45,0 45,-19"/>
<text text-anchor="middle" x="22.5" y="-7" font-family="Helvetica,sans-Serif" font-size="10.00">utility</text>
</a>
</g>
</g>
<!-- Node2&#45;&gt;Node3 -->
<g id="edge2_Node000002_Node000003" class="edge">
<title>Node2&#45;&gt;Node3</title>
<g id="a_edge2_Node000002_Node000003"><a xlink:title=" ">
<path fill="none" stroke="#63b8ff" d="M67.58,-54.75C59.72,-47.03 48.07,-35.6 38.58,-26.28"/>
<polygon fill="#63b8ff" stroke="#63b8ff" points="40.84,-23.6 31.25,-19.09 35.94,-28.59 40.84,-23.6"/>
</a>
</g>
</g>
<!-- Node5 -->
<g id="Node000005" class="node">
<title>Node5</title>
<g id="a_Node000005"><a xlink:title=" ">
<polygon fill="#e0e0e0" stroke="#999999" points="181.5,-19 131.5,-19 131.5,0 181.5,0 181.5,-19"/>
<text text-anchor="middle" x="156.5" y="-7" font-family="Helvetica,sans-Serif" font-size="10.00">cstdint</text>
</a>
</g>
</g>
<!-- Node4&#45;&gt;Node5 -->
<g id="edge4_Node000004_Node000005" class="edge">
<title>Node4&#45;&gt;Node5</title>
<g id="a_edge4_Node000004_Node000005"><a xlink:title=" ">
<path fill="none" stroke="#63b8ff" d="M243.79,-54.98C227.29,-46.57 201.8,-33.59 182.62,-23.81"/>
<polygon fill="#63b8ff" stroke="#63b8ff" points="184.01,-20.59 173.51,-19.17 180.83,-26.83 184.01,-20.59"/>
</a>
</g>
</g>
<!-- Node6 -->
<g id="Node000006" class="node">
<title>Node6</title>
<g id="a_Node000006"><a xlink:title=" ">
<polygon fill="#e0e0e0" stroke="#999999" points="249.5,-19 199.5,-19 199.5,0 249.5,0 249.5,-19"/>
<text text-anchor="middle" x="224.5" y="-7" font-family="Helvetica,sans-Serif" font-size="10.00">cstring</text>
</a>
</g>
</g>
<!-- Node4&#45;&gt;Node6 -->
<g id="edge5_Node000004_Node000006" class="edge">
<title>Node4&#45;&gt;Node6</title>
<g id="a_edge5_Node000004_Node000006"><a xlink:title=" ">
<path fill="none" stroke="#63b8ff" d="M254.56,-54.75C249.52,-47.34 242.16,-36.5 235.99,-27.41"/>
<polygon fill="#63b8ff" stroke="#63b8ff" points="238.85,-25.39 230.33,-19.09 233.06,-29.33 238.85,-25.39"/>
</a>
</g>
</g>
<!-- Node4&#45;&gt;Node7 -->
<g id="edge6_Node000004_Node000007" class="edge">
<title>Node4&#45;&gt;Node7</title>
<g id="a_edge6_Node000004_Node000007"><a xlink:title=" ">
<path fill="none" stroke="#63b8ff" d="M232.87,-54.98C203.13,-45.82 155.77,-31.23 123.47,-21.27"/>
<polygon fill="#63b8ff" stroke="#63b8ff" points="124.14,-17.82 113.55,-18.22 122.07,-24.51 124.14,-17.82"/>
</a>
</g>
</g>
<!-- Node8 -->
<g id="Node000008" class="node">
<title>Node8</title>
<g id="a_Node000008"><a xlink:title=" ">
<polygon fill="#e0e0e0" stroke="#999999" points="327.5,-19 267.5,-19 267.5,0 327.5,0 327.5,-19"/>
<text text-anchor="middle" x="297.5" y="-7" font-family="Helvetica,sans-Serif" font-size="10.00">iostream</text>
</a>
</g>
</g>
<!-- Node4&#45;&gt;Node8 -->
<g id="edge7_Node000004_Node000008" class="edge">
<title>Node4&#45;&gt;Node8</title>
<g id="a_edge7_Node000004_Node000008"><a xlink:title=" ">
<path fill="none" stroke="#63b8ff" d="M266.61,-54.75C271.78,-47.34 279.35,-36.5 285.69,-27.41"/>
<polygon fill="#63b8ff" stroke="#63b8ff" points="288.65,-29.29 291.5,-19.09 282.91,-25.29 288.65,-29.29"/>
</a>
</g>
</g>
<!-- Node9 -->
<g id="Node000009" class="node">
<title>Node9</title>
<g id="a_Node000009"><a xlink:title=" ">
<polygon fill="#e0e0e0" stroke="#999999" points="411,-19 346,-19 346,0 411,0 411,-19"/>
<text text-anchor="middle" x="378.5" y="-7" font-family="Helvetica,sans-Serif" font-size="10.00">stdexcept</text>
</a>
</g>
</g>
<!-- Node4&#45;&gt;Node9 -->
<g id="edge8_Node000004_Node000009" class="edge">
<title>Node4&#45;&gt;Node9</title>
<g id="a_edge8_Node000004_Node000009"><a xlink:title=" ">
<path fill="none" stroke="#63b8ff" d="M279.46,-54.98C298.53,-46.42 328.16,-33.11 350.05,-23.28"/>
<polygon fill="#63b8ff" stroke="#63b8ff" points="351.51,-26.46 359.2,-19.17 348.64,-20.07 351.51,-26.46"/>
</a>
</g>
</g>
<!-- Node4&#45;&gt;Node10 -->
<g id="edge9_Node000004_Node000010" class="edge">
<title>Node4&#45;&gt;Node10</title>
<g id="a_edge9_Node000004_Node000010"><a xlink:title=" ">
<path fill="none" stroke="#63b8ff" d="M308.11,-56.22C355.89,-48.62 431.79,-35.77 506.2,-19.13"/>
<polygon fill="#63b8ff" stroke="#63b8ff" points="507.23,-22.49 516.21,-16.87 505.68,-15.66 507.23,-22.49"/>
</a>
</g>
</g>
<!-- Node11 -->
<g id="Node000011" class="node">
<title>Node11</title>
<g id="a_Node000011"><a xlink:title=" ">
<polygon fill="#e0e0e0" stroke="#999999" points="498,-19 429,-19 429,0 498,0 498,-19"/>
<text text-anchor="middle" x="463.5" y="-7" font-family="Helvetica,sans-Serif" font-size="10.00">type_traits</text>
</a>
</g>
</g>
<!-- Node4&#45;&gt;Node11 -->
<g id="edge10_Node000004_Node000011" class="edge">
<title>Node4&#45;&gt;Node11</title>
<g id="a_edge10_Node000004_Node000011"><a xlink:title=" ">
<path fill="none" stroke="#63b8ff" d="M293.12,-54.98C327.79,-45.93 382.76,-31.58 420.85,-21.64"/>
<polygon fill="#63b8ff" stroke="#63b8ff" points="421.84,-24.99 430.63,-19.08 420.07,-18.22 421.84,-24.99"/>
</a>
</g>
</g>
</g>
</svg>
