<?xml version="1.0" encoding="UTF-8" standalone="no"?>
<!DOCTYPE svg PUBLIC "-//W3C//DTD SVG 1.1//EN"
 "http://www.w3.org/Graphics/SVG/1.1/DTD/svg11.dtd">
<!-- Generated by graphviz version 2.43.0 (0)
 -->
<!-- Title: netspeak/model/Phrase.hpp Pages: 1 -->
<svg width="1281pt" height="335pt"
 viewBox="0.00 0.00 1280.50 335.00" xmlns="http://www.w3.org/2000/svg" xmlns:xlink="http://www.w3.org/1999/xlink">
<g id="graph0" class="graph" transform="scale(1 1) rotate(0) translate(4 331)">
<title>netspeak/model/Phrase.hpp</title>
<!-- Node1 -->
<g id="Node000001" class="node">
<title>Node1</title>
<g id="a_Node000001"><a xlink:title=" ">
<polygon fill="#999999" stroke="#666666" points="886.5,-327 734.5,-327 734.5,-308 886.5,-308 886.5,-327"/>
<text text-anchor="middle" x="810.5" y="-315" font-family="Helvetica,sans-Serif" font-size="10.00">netspeak/model/Phrase.hpp</text>
</a>
</g>
</g>
<!-- Node2 -->
<g id="Node000002" class="node">
<title>Node2</title>
<g id="a_Node000002"><a xlink:href="Netspeak_8hpp.html" target="_top" xlink:title=" ">
<polygon fill="white" stroke="#666666" points="488.5,-151 356.5,-151 356.5,-132 488.5,-132 488.5,-151"/>
<text text-anchor="middle" x="422.5" y="-139" font-family="Helvetica,sans-Serif" font-size="10.00">netspeak/Netspeak.hpp</text>
</a>
</g>
</g>
<!-- Node1&#45;&gt;Node2 -->
<g id="edge1_Node000001_Node000002" class="edge">
<title>Node1&#45;&gt;Node2</title>
<g id="a_edge1_Node000001_Node000002"><a xlink:title=" ">
<path fill="none" stroke="#63b8ff" d="M744.47,-306.01C706,-298.46 662.72,-286.96 650.5,-272 626.54,-242.67 669.52,-215.43 644.5,-187 624.28,-164.02 546.49,-152.53 488.66,-147.06"/>
<polygon fill="#63b8ff" stroke="#63b8ff" points="744.16,-309.51 754.64,-307.94 745.47,-302.64 744.16,-309.51"/>
</a>
</g>
</g>
<!-- Node7 -->
<g id="Node000007" class="node">
<title>Node7</title>
<g id="a_Node000007"><a xlink:href="indexing_8cpp.html" target="_top" xlink:title=" ">
<polygon fill="white" stroke="#666666" points="969,-90.5 842,-90.5 842,-71.5 969,-71.5 969,-90.5"/>
<text text-anchor="middle" x="905.5" y="-78.5" font-family="Helvetica,sans-Serif" font-size="10.00">netspeak/indexing.cpp</text>
</a>
</g>
</g>
<!-- Node1&#45;&gt;Node7 -->
<g id="edge20_Node000001_Node000007" class="edge">
<title>Node1&#45;&gt;Node7</title>
<g id="a_edge20_Node000001_Node000007"><a xlink:title=" ">
<path fill="none" stroke="#63b8ff" d="M834.06,-302.29C845.21,-294.54 857.94,-284.07 866.5,-272 908.41,-212.96 907.43,-119.08 906.04,-90.52"/>
<polygon fill="#63b8ff" stroke="#63b8ff" points="831.97,-299.47 825.56,-307.9 835.83,-305.31 831.97,-299.47"/>
</a>
</g>
</g>
<!-- Node13 -->
<g id="Node000013" class="node">
<title>Node13</title>
<g id="a_Node000013"><a xlink:href="PhraseCorpus_8hpp.html" target="_top" xlink:title=" ">
<polygon fill="white" stroke="#666666" points="880.5,-206 728.5,-206 728.5,-187 880.5,-187 880.5,-206"/>
<text text-anchor="middle" x="804.5" y="-194" font-family="Helvetica,sans-Serif" font-size="10.00">netspeak/PhraseCorpus.hpp</text>
</a>
</g>
</g>
<!-- Node1&#45;&gt;Node13 -->
<g id="edge13_Node000001_Node000013" class="edge">
<title>Node1&#45;&gt;Node13</title>
<g id="a_edge13_Node000001_Node000013"><a xlink:title=" ">
<path fill="none" stroke="#63b8ff" d="M830.07,-301.15C838.36,-293.41 847.1,-283.27 851.5,-272 856.35,-259.58 856.77,-254.25 851.5,-242 844.84,-226.52 829.85,-213.9 818.57,-206.11"/>
<polygon fill="#63b8ff" stroke="#63b8ff" points="827.68,-298.6 822.43,-307.8 832.27,-303.88 827.68,-298.6"/>
</a>
</g>
</g>
<!-- Node15 -->
<g id="Node000015" class="node">
<title>Node15</title>
<g id="a_Node000015"><a xlink:href="PhraseFileParser_8hpp.html" target="_top" xlink:title=" ">
<polygon fill="white" stroke="#666666" points="1102,-266.5 937,-266.5 937,-247.5 1102,-247.5 1102,-266.5"/>
<text text-anchor="middle" x="1019.5" y="-254.5" font-family="Helvetica,sans-Serif" font-size="10.00">netspeak/PhraseFileParser.hpp</text>
</a>
</g>
</g>
<!-- Node1&#45;&gt;Node15 -->
<g id="edge17_Node000001_Node000015" class="edge">
<title>Node1&#45;&gt;Node15</title>
<g id="a_edge17_Node000001_Node000015"><a xlink:title=" ">
<path fill="none" stroke="#63b8ff" d="M850.69,-305.25C891.1,-293.94 952.53,-276.75 989.07,-266.52"/>
<polygon fill="#63b8ff" stroke="#63b8ff" points="849.58,-301.93 840.89,-307.99 851.46,-308.67 849.58,-301.93"/>
</a>
</g>
</g>
<!-- Node17 -->
<g id="Node000017" class="node">
<title>Node17</title>
<g id="a_Node000017"><a xlink:href="Phrase_8cpp.html" target="_top" xlink:title=" ">
<polygon fill="white" stroke="#666666" points="1272.5,-266.5 1120.5,-266.5 1120.5,-247.5 1272.5,-247.5 1272.5,-266.5"/>
<text text-anchor="middle" x="1196.5" y="-254.5" font-family="Helvetica,sans-Serif" font-size="10.00">netspeak/model/Phrase.cpp</text>
</a>
</g>
</g>
<!-- Node1&#45;&gt;Node17 -->
<g id="edge21_Node000001_Node000017" class="edge">
<title>Node1&#45;&gt;Node17</title>
<g id="a_edge21_Node000001_Node000017"><a xlink:title=" ">
<path fill="none" stroke="#63b8ff" d="M880.13,-306.54C941.17,-297.72 1032.27,-284.38 1111.5,-272 1122.58,-270.27 1134.47,-268.35 1145.73,-266.5"/>
<polygon fill="#63b8ff" stroke="#63b8ff" points="879.62,-303.07 870.22,-307.97 880.62,-310 879.62,-303.07"/>
</a>
</g>
</g>
<!-- Node18 -->
<g id="Node000018" class="node">
<title>Node18</title>
<g id="a_Node000018"><a xlink:href="RawPhraseResult_8hpp.html" target="_top" xlink:title=" ">
<polygon fill="white" stroke="#666666" points="278.5,-272 126.5,-272 126.5,-242 278.5,-242 278.5,-272"/>
<text text-anchor="start" x="134.5" y="-260" font-family="Helvetica,sans-Serif" font-size="10.00">netspeak/model/RawPhrase</text>
<text text-anchor="middle" x="202.5" y="-249" font-family="Helvetica,sans-Serif" font-size="10.00">Result.hpp</text>
</a>
</g>
</g>
<!-- Node1&#45;&gt;Node18 -->
<g id="edge22_Node000001_Node000018" class="edge">
<title>Node1&#45;&gt;Node18</title>
<g id="a_edge22_Node000001_Node000018"><a xlink:title=" ">
<path fill="none" stroke="#63b8ff" d="M724.22,-309.53C625.74,-301.39 459.88,-287.09 317.5,-272 304.9,-270.66 291.54,-269.14 278.55,-267.6"/>
<polygon fill="#63b8ff" stroke="#63b8ff" points="724.16,-313.04 734.42,-310.37 724.74,-306.06 724.16,-313.04"/>
</a>
</g>
</g>
<!-- Node21 -->
<g id="Node000021" class="node">
<title>Node21</title>
<g id="a_Node000021"><a xlink:href="RawRefResult_8hpp.html" target="_top" xlink:title=" ">
<polygon fill="white" stroke="#666666" points="514.5,-266.5 326.5,-266.5 326.5,-247.5 514.5,-247.5 514.5,-266.5"/>
<text text-anchor="middle" x="420.5" y="-254.5" font-family="Helvetica,sans-Serif" font-size="10.00">netspeak/model/RawRefResult.hpp</text>
</a>
</g>
</g>
<!-- Node1&#45;&gt;Node21 -->
<g id="edge27_Node000001_Node000021" class="edge">
<title>Node1&#45;&gt;Node21</title>
<g id="a_edge27_Node000001_Node000021"><a xlink:title=" ">
<path fill="none" stroke="#63b8ff" d="M743.5,-306.45C668.41,-295.19 547.93,-277.11 477.28,-266.52"/>
<polygon fill="#63b8ff" stroke="#63b8ff" points="743.38,-309.97 753.79,-307.99 744.42,-303.05 743.38,-309.97"/>
</a>
</g>
</g>
<!-- Node24 -->
<g id="Node000024" class="node">
<title>Node24</title>
<g id="a_Node000024"><a xlink:href="SearchResult_8hpp.html" target="_top" xlink:title=" ">
<polygon fill="white" stroke="#666666" points="842,-266.5 659,-266.5 659,-247.5 842,-247.5 842,-266.5"/>
<text text-anchor="middle" x="750.5" y="-254.5" font-family="Helvetica,sans-Serif" font-size="10.00">netspeak/model/SearchResult.hpp</text>
</a>
</g>
</g>
<!-- Node1&#45;&gt;Node24 -->
<g id="edge33_Node000001_Node000024" class="edge">
<title>Node1&#45;&gt;Node24</title>
<g id="a_edge33_Node000001_Node000024"><a xlink:title=" ">
<path fill="none" stroke="#63b8ff" d="M794.18,-300.59C782.98,-289.67 768.53,-275.58 759.39,-266.67"/>
<polygon fill="#63b8ff" stroke="#63b8ff" points="792.04,-303.39 801.65,-307.87 796.93,-298.38 792.04,-303.39"/>
</a>
</g>
</g>
<!-- Node3 -->
<g id="Node000003" class="node">
<title>Node3</title>
<g id="a_Node000003"><a xlink:href="ProxyCommand_8cpp.html" target="_top" xlink:title=" ">
<polygon fill="white" stroke="#666666" points="317,-90.5 188,-90.5 188,-71.5 317,-71.5 317,-90.5"/>
<text text-anchor="middle" x="252.5" y="-78.5" font-family="Helvetica,sans-Serif" font-size="10.00">cli/ProxyCommand.cpp</text>
</a>
</g>
</g>
<!-- Node2&#45;&gt;Node3 -->
<g id="edge2_Node000002_Node000003" class="edge">
<title>Node2&#45;&gt;Node3</title>
<g id="a_edge2_Node000002_Node000003"><a xlink:title=" ">
<path fill="none" stroke="#63b8ff" d="M388.13,-128.67C355.25,-117.36 306.47,-100.57 277.25,-90.52"/>
<polygon fill="#63b8ff" stroke="#63b8ff" points="387.19,-132.05 397.78,-131.99 389.46,-125.43 387.19,-132.05"/>
</a>
</g>
</g>
<!-- Node4 -->
<g id="Node000004" class="node">
<title>Node4</title>
<g id="a_Node000004"><a xlink:href="ServeCommand_8cpp.html" target="_top" xlink:title=" ">
<polygon fill="white" stroke="#666666" points="271,-24.5 142,-24.5 142,-5.5 271,-5.5 271,-24.5"/>
<text text-anchor="middle" x="206.5" y="-12.5" font-family="Helvetica,sans-Serif" font-size="10.00">cli/ServeCommand.cpp</text>
</a>
</g>
</g>
<!-- Node2&#45;&gt;Node4 -->
<g id="edge3_Node000002_Node000004" class="edge">
<title>Node2&#45;&gt;Node4</title>
<g id="a_edge3_Node000002_Node000004"><a xlink:title=" ">
<path fill="none" stroke="#63b8ff" d="M346.41,-137C282.96,-132.29 199.64,-121.35 178.5,-96 160.5,-74.42 184.94,-40.51 198.52,-24.68"/>
<polygon fill="#63b8ff" stroke="#63b8ff" points="346.18,-140.49 356.41,-137.7 346.68,-133.51 346.18,-140.49"/>
</a>
</g>
</g>
<!-- Node5 -->
<g id="Node000005" class="node">
<title>Node5</title>
<g id="a_Node000005"><a xlink:href="ShellCommand_8cpp.html" target="_top" xlink:title=" ">
<polygon fill="white" stroke="#666666" points="818,-90.5 693,-90.5 693,-71.5 818,-71.5 818,-90.5"/>
<text text-anchor="middle" x="755.5" y="-78.5" font-family="Helvetica,sans-Serif" font-size="10.00">cli/ShellCommand.cpp</text>
</a>
</g>
</g>
<!-- Node2&#45;&gt;Node5 -->
<g id="edge4_Node000002_Node000005" class="edge">
<title>Node2&#45;&gt;Node5</title>
<g id="a_edge4_Node000002_Node000005"><a xlink:title=" ">
<path fill="none" stroke="#63b8ff" d="M485.21,-130.33C538.34,-121.59 616.5,-108.48 684.5,-96 693.77,-94.3 703.7,-92.39 713.11,-90.55"/>
<polygon fill="#63b8ff" stroke="#63b8ff" points="484.57,-126.89 475.26,-131.96 485.7,-133.79 484.57,-126.89"/>
</a>
</g>
</g>
<!-- Node6 -->
<g id="Node000006" class="node">
<title>Node6</title>
<g id="a_Node000006"><a xlink:href="Netspeak_8cpp.html" target="_top" xlink:title=" ">
<polygon fill="white" stroke="#666666" points="131,-90.5 0,-90.5 0,-71.5 131,-71.5 131,-90.5"/>
<text text-anchor="middle" x="65.5" y="-78.5" font-family="Helvetica,sans-Serif" font-size="10.00">netspeak/Netspeak.cpp</text>
</a>
</g>
</g>
<!-- Node2&#45;&gt;Node6 -->
<g id="edge5_Node000002_Node000006" class="edge">
<title>Node2&#45;&gt;Node6</title>
<g id="a_edge5_Node000002_Node000006"><a xlink:title=" ">
<path fill="none" stroke="#63b8ff" d="M357.9,-130.38C301.74,-121.53 218.19,-108.2 145.5,-96 135.21,-94.27 124.18,-92.37 113.71,-90.55"/>
<polygon fill="#63b8ff" stroke="#63b8ff" points="357.64,-133.89 368.06,-131.98 358.73,-126.97 357.64,-133.89"/>
</a>
</g>
</g>
<!-- Node2&#45;&gt;Node7 -->
<g id="edge6_Node000002_Node000007" class="edge">
<title>Node2&#45;&gt;Node7</title>
<g id="a_edge6_Node000002_Node000007"><a xlink:title=" ">
<path fill="none" stroke="#63b8ff" d="M498.79,-133.68C580.35,-126.03 713.37,-112.49 827.5,-96 838.39,-94.43 850.1,-92.47 861.04,-90.52"/>
<polygon fill="#63b8ff" stroke="#63b8ff" points="498.25,-130.22 488.62,-134.63 498.9,-137.19 498.25,-130.22"/>
</a>
</g>
</g>
<!-- Node8 -->
<g id="Node000008" class="node">
<title>Node8</title>
<g id="a_Node000008"><a xlink:href="RequestLogger_8hpp.html" target="_top" xlink:title=" ">
<polygon fill="white" stroke="#666666" points="675,-96 532,-96 532,-66 675,-66 675,-96"/>
<text text-anchor="start" x="540" y="-84" font-family="Helvetica,sans-Serif" font-size="10.00">netspeak/service/Request</text>
<text text-anchor="middle" x="603.5" y="-73" font-family="Helvetica,sans-Serif" font-size="10.00">Logger.hpp</text>
</a>
</g>
</g>
<!-- Node2&#45;&gt;Node8 -->
<g id="edge7_Node000002_Node000008" class="edge">
<title>Node2&#45;&gt;Node8</title>
<g id="a_edge7_Node000002_Node000008"><a xlink:title=" ">
<path fill="none" stroke="#63b8ff" d="M458.61,-128.83C487.79,-119.4 528.98,-106.09 559.98,-96.06"/>
<polygon fill="#63b8ff" stroke="#63b8ff" points="457.26,-125.59 448.82,-131.99 459.41,-132.25 457.26,-125.59"/>
</a>
</g>
</g>
<!-- Node11 -->
<g id="Node000011" class="node">
<title>Node11</title>
<g id="a_Node000011"><a xlink:href="UniqueMap_8hpp.html" target="_top" xlink:title=" ">
<polygon fill="white" stroke="#666666" points="514,-90.5 335,-90.5 335,-71.5 514,-71.5 514,-90.5"/>
<text text-anchor="middle" x="424.5" y="-78.5" font-family="Helvetica,sans-Serif" font-size="10.00">netspeak/service/UniqueMap.hpp</text>
</a>
</g>
</g>
<!-- Node2&#45;&gt;Node11 -->
<g id="edge10_Node000002_Node000011" class="edge">
<title>Node2&#45;&gt;Node11</title>
<g id="a_edge10_Node000002_Node000011"><a xlink:title=" ">
<path fill="none" stroke="#63b8ff" d="M423.14,-121.66C423.5,-111.24 423.93,-98.8 424.2,-90.67"/>
<polygon fill="#63b8ff" stroke="#63b8ff" points="419.64,-121.75 422.8,-131.87 426.63,-121.99 419.64,-121.75"/>
</a>
</g>
</g>
<!-- Node9 -->
<g id="Node000009" class="node">
<title>Node9</title>
<g id="a_Node000009"><a xlink:href="cli_2logging_8cpp.html" target="_top" xlink:title=" ">
<polygon fill="white" stroke="#666666" points="780,-24.5 693,-24.5 693,-5.5 780,-5.5 780,-24.5"/>
<text text-anchor="middle" x="736.5" y="-12.5" font-family="Helvetica,sans-Serif" font-size="10.00">cli/logging.cpp</text>
</a>
</g>
</g>
<!-- Node8&#45;&gt;Node9 -->
<g id="edge8_Node000008_Node000009" class="edge">
<title>Node8&#45;&gt;Node9</title>
<g id="a_edge8_Node000008_Node000009"><a xlink:title=" ">
<path fill="none" stroke="#63b8ff" d="M642.03,-61.46C667.36,-49.27 699.3,-33.9 718.8,-24.52"/>
<polygon fill="#63b8ff" stroke="#63b8ff" points="640.18,-58.46 632.69,-65.95 643.22,-64.77 640.18,-58.46"/>
</a>
</g>
</g>
<!-- Node10 -->
<g id="Node000010" class="node">
<title>Node10</title>
<g id="a_Node000010"><a xlink:href="RequestLogger_8cpp.html" target="_top" xlink:title=" ">
<polygon fill="white" stroke="#666666" points="675,-30 532,-30 532,0 675,0 675,-30"/>
<text text-anchor="start" x="540" y="-18" font-family="Helvetica,sans-Serif" font-size="10.00">netspeak/service/Request</text>
<text text-anchor="middle" x="603.5" y="-7" font-family="Helvetica,sans-Serif" font-size="10.00">Logger.cpp</text>
</a>
</g>
</g>
<!-- Node8&#45;&gt;Node10 -->
<g id="edge9_Node000008_Node000010" class="edge">
<title>Node8&#45;&gt;Node10</title>
<g id="a_edge9_Node000008_Node000010"><a xlink:title=" ">
<path fill="none" stroke="#63b8ff" d="M603.5,-55.54C603.5,-46.96 603.5,-37.61 603.5,-30.16"/>
<polygon fill="#63b8ff" stroke="#63b8ff" points="600,-55.8 603.5,-65.8 607,-55.8 600,-55.8"/>
</a>
</g>
</g>
<!-- Node11&#45;&gt;Node4 -->
<g id="edge11_Node000011_Node000004" class="edge">
<title>Node11&#45;&gt;Node4</title>
<g id="a_edge11_Node000011_Node000004"><a xlink:title=" ">
<path fill="none" stroke="#63b8ff" d="M385.27,-68.48C342.29,-55.87 274.35,-35.92 235.78,-24.6"/>
<polygon fill="#63b8ff" stroke="#63b8ff" points="384.52,-71.91 395.1,-71.37 386.49,-65.19 384.52,-71.91"/>
</a>
</g>
</g>
<!-- Node12 -->
<g id="Node000012" class="node">
<title>Node12</title>
<g id="a_Node000012"><a xlink:href="UniqueMap_8cpp.html" target="_top" xlink:title=" ">
<polygon fill="white" stroke="#666666" points="514,-24.5 335,-24.5 335,-5.5 514,-5.5 514,-24.5"/>
<text text-anchor="middle" x="424.5" y="-12.5" font-family="Helvetica,sans-Serif" font-size="10.00">netspeak/service/UniqueMap.cpp</text>
</a>
</g>
</g>
<!-- Node11&#45;&gt;Node12 -->
<g id="edge12_Node000011_Node000012" class="edge">
<title>Node11&#45;&gt;Node12</title>
<g id="a_edge12_Node000011_Node000012"><a xlink:title=" ">
<path fill="none" stroke="#63b8ff" d="M424.5,-61.08C424.5,-49.13 424.5,-34.22 424.5,-24.91"/>
<polygon fill="#63b8ff" stroke="#63b8ff" points="421,-61.37 424.5,-71.37 428,-61.37 421,-61.37"/>
</a>
</g>
</g>
<!-- Node13&#45;&gt;Node2 -->
<g id="edge14_Node000013_Node000002" class="edge">
<title>Node13&#45;&gt;Node2</title>
<g id="a_edge14_Node000013_Node000002"><a xlink:title=" ">
<path fill="none" stroke="#63b8ff" d="M732.83,-185.56C661.11,-175.61 551.95,-160.46 484.04,-151.04"/>
<polygon fill="#63b8ff" stroke="#63b8ff" points="732.74,-189.08 743.13,-186.98 733.7,-182.14 732.74,-189.08"/>
</a>
</g>
</g>
<!-- Node13&#45;&gt;Node7 -->
<g id="edge16_Node000013_Node000007" class="edge">
<title>Node13&#45;&gt;Node7</title>
<g id="a_edge16_Node000013_Node000007"><a xlink:title=" ">
<path fill="none" stroke="#63b8ff" d="M822.3,-179.81C831.35,-171.54 842.35,-161.05 851.5,-151 870.13,-130.53 889.57,-104.29 899.24,-90.83"/>
<polygon fill="#63b8ff" stroke="#63b8ff" points="819.73,-177.41 814.64,-186.7 824.41,-182.62 819.73,-177.41"/>
</a>
</g>
</g>
<!-- Node14 -->
<g id="Node000014" class="node">
<title>Node14</title>
<g id="a_Node000014"><a xlink:href="PhraseCorpus_8cpp.html" target="_top" xlink:title=" ">
<polygon fill="white" stroke="#666666" points="842.5,-151 690.5,-151 690.5,-132 842.5,-132 842.5,-151"/>
<text text-anchor="middle" x="766.5" y="-139" font-family="Helvetica,sans-Serif" font-size="10.00">netspeak/PhraseCorpus.cpp</text>
</a>
</g>
</g>
<!-- Node13&#45;&gt;Node14 -->
<g id="edge15_Node000013_Node000014" class="edge">
<title>Node13&#45;&gt;Node14</title>
<g id="a_edge15_Node000013_Node000014"><a xlink:title=" ">
<path fill="none" stroke="#63b8ff" d="M792.23,-178.39C785.69,-169.27 777.93,-158.45 772.66,-151.09"/>
<polygon fill="#63b8ff" stroke="#63b8ff" points="789.55,-180.66 798.23,-186.75 795.24,-176.58 789.55,-180.66"/>
</a>
</g>
</g>
<!-- Node16 -->
<g id="Node000016" class="node">
<title>Node16</title>
<g id="a_Node000016"><a xlink:href="PhraseFileReader_8hpp.html" target="_top" xlink:title=" ">
<polygon fill="white" stroke="#666666" points="1106.5,-151 936.5,-151 936.5,-132 1106.5,-132 1106.5,-151"/>
<text text-anchor="middle" x="1021.5" y="-139" font-family="Helvetica,sans-Serif" font-size="10.00">netspeak/PhraseFileReader.hpp</text>
</a>
</g>
</g>
<!-- Node15&#45;&gt;Node16 -->
<g id="edge18_Node000015_Node000016" class="edge">
<title>Node15&#45;&gt;Node16</title>
<g id="a_edge18_Node000015_Node000016"><a xlink:title=" ">
<path fill="none" stroke="#63b8ff" d="M1019.83,-237.15C1020.27,-212.24 1021.03,-169.38 1021.35,-151.13"/>
<polygon fill="#63b8ff" stroke="#63b8ff" points="1016.33,-237.41 1019.65,-247.47 1023.33,-237.53 1016.33,-237.41"/>
</a>
</g>
</g>
<!-- Node16&#45;&gt;Node7 -->
<g id="edge19_Node000016_Node000007" class="edge">
<title>Node16&#45;&gt;Node7</title>
<g id="a_edge19_Node000016_Node000007"><a xlink:title=" ">
<path fill="none" stroke="#63b8ff" d="M995.18,-127.23C972.97,-116.03 941.82,-100.32 922.69,-90.67"/>
<polygon fill="#63b8ff" stroke="#63b8ff" points="993.88,-130.49 1004.38,-131.87 997.03,-124.24 993.88,-130.49"/>
</a>
</g>
</g>
<!-- Node18&#45;&gt;Node2 -->
<g id="edge23_Node000018_Node000002" class="edge">
<title>Node18&#45;&gt;Node2</title>
<g id="a_edge23_Node000018_Node000002"><a xlink:title=" ">
<path fill="none" stroke="#63b8ff" d="M203.1,-231.87C204.77,-216.94 209.4,-198.5 221.5,-187 240.77,-168.69 305.51,-156.63 356.37,-149.74"/>
<polygon fill="#63b8ff" stroke="#63b8ff" points="199.6,-231.73 202.34,-241.96 206.58,-232.25 199.6,-231.73"/>
</a>
</g>
</g>
<!-- Node19 -->
<g id="Node000019" class="node">
<title>Node19</title>
<g id="a_Node000019"><a xlink:href="RawResult_8hpp.html" target="_top" xlink:title=" ">
<polygon fill="white" stroke="#666666" points="174,-206 3,-206 3,-187 174,-187 174,-206"/>
<text text-anchor="middle" x="88.5" y="-194" font-family="Helvetica,sans-Serif" font-size="10.00">netspeak/model/RawResult.hpp</text>
</a>
</g>
</g>
<!-- Node18&#45;&gt;Node19 -->
<g id="edge24_Node000018_Node000019" class="edge">
<title>Node18&#45;&gt;Node19</title>
<g id="a_edge24_Node000018_Node000019"><a xlink:title=" ">
<path fill="none" stroke="#63b8ff" d="M166.16,-237.35C145.76,-226.88 121.28,-214.32 105.34,-206.14"/>
<polygon fill="#63b8ff" stroke="#63b8ff" points="164.7,-240.54 175.19,-241.99 167.9,-234.31 164.7,-240.54"/>
</a>
</g>
</g>
<!-- Node19&#45;&gt;Node2 -->
<g id="edge25_Node000019_Node000002" class="edge">
<title>Node19&#45;&gt;Node2</title>
<g id="a_edge25_Node000019_Node000002"><a xlink:title=" ">
<path fill="none" stroke="#63b8ff" d="M152.33,-185.37C215.05,-175.42 309.68,-160.4 368.69,-151.04"/>
<polygon fill="#63b8ff" stroke="#63b8ff" points="151.49,-181.96 142.16,-186.98 152.59,-188.87 151.49,-181.96"/>
</a>
</g>
</g>
<!-- Node20 -->
<g id="Node000020" class="node">
<title>Node20</title>
<g id="a_Node000020"><a xlink:href="RawResult_8cpp.html" target="_top" xlink:title=" ">
<polygon fill="white" stroke="#666666" points="173.5,-151 3.5,-151 3.5,-132 173.5,-132 173.5,-151"/>
<text text-anchor="middle" x="88.5" y="-139" font-family="Helvetica,sans-Serif" font-size="10.00">netspeak/model/RawResult.cpp</text>
</a>
</g>
</g>
<!-- Node19&#45;&gt;Node20 -->
<g id="edge26_Node000019_Node000020" class="edge">
<title>Node19&#45;&gt;Node20</title>
<g id="a_edge26_Node000019_Node000020"><a xlink:title=" ">
<path fill="none" stroke="#63b8ff" d="M88.5,-176.66C88.5,-167.93 88.5,-157.99 88.5,-151.09"/>
<polygon fill="#63b8ff" stroke="#63b8ff" points="85,-176.75 88.5,-186.75 92,-176.75 85,-176.75"/>
</a>
</g>
</g>
<!-- Node21&#45;&gt;Node2 -->
<g id="edge28_Node000021_Node000002" class="edge">
<title>Node21&#45;&gt;Node2</title>
<g id="a_edge28_Node000021_Node000002"><a xlink:title=" ">
<path fill="none" stroke="#63b8ff" d="M420.83,-237.15C421.27,-212.24 422.03,-169.38 422.35,-151.13"/>
<polygon fill="#63b8ff" stroke="#63b8ff" points="417.33,-237.41 420.65,-247.47 424.33,-237.53 417.33,-237.41"/>
</a>
</g>
</g>
<!-- Node21&#45;&gt;Node19 -->
<g id="edge32_Node000021_Node000019" class="edge">
<title>Node21&#45;&gt;Node19</title>
<g id="a_edge32_Node000021_Node000019"><a xlink:title=" ">
<path fill="none" stroke="#63b8ff" d="M362.29,-245.74C298.28,-234.46 196.61,-216.55 136.83,-206.02"/>
<polygon fill="#63b8ff" stroke="#63b8ff" points="361.77,-249.21 372.22,-247.49 362.98,-242.31 361.77,-249.21"/>
</a>
</g>
</g>
<!-- Node22 -->
<g id="Node000022" class="node">
<title>Node22</title>
<g id="a_Node000022"><a xlink:href="QueryProcessor_8hpp.html" target="_top" xlink:title=" ">
<polygon fill="white" stroke="#666666" points="392,-206 231,-206 231,-187 392,-187 392,-206"/>
<text text-anchor="middle" x="311.5" y="-194" font-family="Helvetica,sans-Serif" font-size="10.00">netspeak/QueryProcessor.hpp</text>
</a>
</g>
</g>
<!-- Node21&#45;&gt;Node22 -->
<g id="edge29_Node000021_Node000022" class="edge">
<title>Node21&#45;&gt;Node22</title>
<g id="a_edge29_Node000021_Node000022"><a xlink:title=" ">
<path fill="none" stroke="#63b8ff" d="M395.49,-242.58C374.64,-231.38 345.55,-215.77 327.65,-206.17"/>
<polygon fill="#63b8ff" stroke="#63b8ff" points="393.95,-245.72 404.42,-247.37 397.26,-239.56 393.95,-245.72"/>
</a>
</g>
</g>
<!-- Node23 -->
<g id="Node000023" class="node">
<title>Node23</title>
<g id="a_Node000023"><a xlink:href="RawRefResult_8cpp.html" target="_top" xlink:title=" ">
<polygon fill="white" stroke="#666666" points="635,-206 448,-206 448,-187 635,-187 635,-206"/>
<text text-anchor="middle" x="541.5" y="-194" font-family="Helvetica,sans-Serif" font-size="10.00">netspeak/model/RawRefResult.cpp</text>
</a>
</g>
</g>
<!-- Node21&#45;&gt;Node23 -->
<g id="edge31_Node000021_Node000023" class="edge">
<title>Node21&#45;&gt;Node23</title>
<g id="a_edge31_Node000021_Node000023"><a xlink:title=" ">
<path fill="none" stroke="#63b8ff" d="M447.11,-243.13C470.45,-231.85 503.71,-215.77 523.88,-206.02"/>
<polygon fill="#63b8ff" stroke="#63b8ff" points="445.57,-239.99 438.09,-247.49 448.62,-246.29 445.57,-239.99"/>
</a>
</g>
</g>
<!-- Node22&#45;&gt;Node2 -->
<g id="edge30_Node000022_Node000002" class="edge">
<title>Node22&#45;&gt;Node2</title>
<g id="a_edge30_Node000022_Node000002"><a xlink:title=" ">
<path fill="none" stroke="#63b8ff" d="M338.45,-182.63C358.89,-172.87 386.45,-159.71 404.34,-151.17"/>
<polygon fill="#63b8ff" stroke="#63b8ff" points="336.85,-179.52 329.33,-186.98 339.87,-185.83 336.85,-179.52"/>
</a>
</g>
</g>
<!-- Node24&#45;&gt;Node2 -->
<g id="edge34_Node000024_Node000002" class="edge">
<title>Node24&#45;&gt;Node2</title>
<g id="a_edge34_Node000024_Node000002"><a xlink:title=" ">
<path fill="none" stroke="#63b8ff" d="M737.35,-239.04C723.89,-222.94 701.44,-199.42 676.5,-187 617.29,-157.52 541.82,-147.25 488.58,-143.83"/>
<polygon fill="#63b8ff" stroke="#63b8ff" points="734.86,-241.52 743.87,-247.1 740.3,-237.12 734.86,-241.52"/>
</a>
</g>
</g>
</g>
</svg>
