<?xml version="1.0" encoding="UTF-8" standalone="no"?>
<!DOCTYPE svg PUBLIC "-//W3C//DTD SVG 1.1//EN"
 "http://www.w3.org/Graphics/SVG/1.1/DTD/svg11.dtd">
<!-- Generated by graphviz version 2.43.0 (0)
 -->
<!-- Title: netspeak/PhraseFileParser.hpp Pages: 1 -->
<svg width="553pt" height="247pt"
 viewBox="0.00 0.00 552.50 247.00" xmlns="http://www.w3.org/2000/svg" xmlns:xlink="http://www.w3.org/1999/xlink">
<g id="graph0" class="graph" transform="scale(1 1) rotate(0) translate(4 243)">
<title>netspeak/PhraseFileParser.hpp</title>
<!-- Node1 -->
<g id="Node000001" class="node">
<title>Node1</title>
<g id="a_Node000001"><a xlink:title=" ">
<polygon fill="#999999" stroke="#666666" points="246.5,-239 81.5,-239 81.5,-220 246.5,-220 246.5,-239"/>
<text text-anchor="middle" x="164" y="-227" font-family="Helvetica,sans-Serif" font-size="10.00">netspeak/PhraseFileParser.hpp</text>
</a>
</g>
</g>
<!-- Node2 -->
<g id="Node000002" class="node">
<title>Node2</title>
<g id="a_Node000002"><a xlink:title=" ">
<polygon fill="#e0e0e0" stroke="#999999" points="54,-184 0,-184 0,-165 54,-165 54,-184"/>
<text text-anchor="middle" x="27" y="-172" font-family="Helvetica,sans-Serif" font-size="10.00">istream</text>
</a>
</g>
</g>
<!-- Node1&#45;&gt;Node2 -->
<g id="edge1_Node000001_Node000002" class="edge">
<title>Node1&#45;&gt;Node2</title>
<g id="a_edge1_Node000001_Node000002"><a xlink:title=" ">
<path fill="none" stroke="#63b8ff" d="M141.99,-219.98C119.55,-211.3 84.52,-197.75 59.01,-187.88"/>
<polygon fill="#63b8ff" stroke="#63b8ff" points="60,-184.51 49.41,-184.17 57.48,-191.04 60,-184.51"/>
</a>
</g>
</g>
<!-- Node3 -->
<g id="Node000003" class="node">
<title>Node3</title>
<g id="a_Node000003"><a xlink:title=" ">
<polygon fill="#e0e0e0" stroke="#999999" points="148.5,-74 91.5,-74 91.5,-55 148.5,-55 148.5,-74"/>
<text text-anchor="middle" x="120" y="-62" font-family="Helvetica,sans-Serif" font-size="10.00">ostream</text>
</a>
</g>
</g>
<!-- Node1&#45;&gt;Node3 -->
<g id="edge2_Node000001_Node000003" class="edge">
<title>Node1&#45;&gt;Node3</title>
<g id="a_edge2_Node000001_Node000003"><a xlink:title=" ">
<path fill="none" stroke="#63b8ff" d="M159.67,-219.99C151.3,-203.13 133.07,-164.08 125,-129 121.62,-114.31 120.42,-97.27 120.04,-84.54"/>
<polygon fill="#63b8ff" stroke="#63b8ff" points="123.54,-84.19 119.88,-74.25 116.54,-84.3 123.54,-84.19"/>
</a>
</g>
</g>
<!-- Node4 -->
<g id="Node000004" class="node">
<title>Node4</title>
<g id="a_Node000004"><a xlink:href="Phrase_8hpp.html" target="_top" xlink:title=" ">
<polygon fill="white" stroke="#666666" points="296,-184 192,-184 192,-165 296,-165 296,-184"/>
<text text-anchor="middle" x="244" y="-172" font-family="Helvetica,sans-Serif" font-size="10.00">model/Phrase.hpp</text>
</a>
</g>
</g>
<!-- Node1&#45;&gt;Node4 -->
<g id="edge3_Node000001_Node000004" class="edge">
<title>Node1&#45;&gt;Node4</title>
<g id="a_edge3_Node000001_Node000004"><a xlink:title=" ">
<path fill="none" stroke="#63b8ff" d="M176.85,-219.98C189.14,-211.84 207.91,-199.41 222.48,-189.76"/>
<polygon fill="#63b8ff" stroke="#63b8ff" points="224.51,-192.61 230.91,-184.17 220.64,-186.78 224.51,-192.61"/>
</a>
</g>
</g>
<!-- Node7 -->
<g id="Node000007" class="node">
<title>Node7</title>
<g id="a_Node000007"><a xlink:href="Words_8hpp.html" target="_top" xlink:title=" ">
<polygon fill="white" stroke="#666666" points="216,-129 148,-129 148,-110 216,-110 216,-129"/>
<text text-anchor="middle" x="182" y="-117" font-family="Helvetica,sans-Serif" font-size="10.00">Words.hpp</text>
</a>
</g>
</g>
<!-- Node1&#45;&gt;Node7 -->
<g id="edge15_Node000001_Node000007" class="edge">
<title>Node1&#45;&gt;Node7</title>
<g id="a_edge15_Node000001_Node000007"><a xlink:title=" ">
<path fill="none" stroke="#63b8ff" d="M165.47,-219.66C168.39,-202.17 174.95,-162.8 178.87,-139.27"/>
<polygon fill="#63b8ff" stroke="#63b8ff" points="182.37,-139.6 180.56,-129.16 175.46,-138.45 182.37,-139.6"/>
</a>
</g>
</g>
<!-- Node12 -->
<g id="Node000012" class="node">
<title>Node12</title>
<g id="a_Node000012"><a xlink:href="string_8hpp.html" target="_top" xlink:title=" ">
<polygon fill="white" stroke="#666666" points="394,-129 310,-129 310,-110 394,-110 394,-129"/>
<text text-anchor="middle" x="352" y="-117" font-family="Helvetica,sans-Serif" font-size="10.00">util/string.hpp</text>
</a>
</g>
</g>
<!-- Node1&#45;&gt;Node12 -->
<g id="edge16_Node000001_Node000012" class="edge">
<title>Node1&#45;&gt;Node12</title>
<g id="a_edge16_Node000001_Node000012"><a xlink:title=" ">
<path fill="none" stroke="#63b8ff" d="M217.14,-219.95C245.2,-213.5 279.09,-202.49 305,-184 321.69,-172.09 334.92,-152.44 343.03,-138.14"/>
<polygon fill="#63b8ff" stroke="#63b8ff" points="346.15,-139.73 347.81,-129.27 339.99,-136.41 346.15,-139.73"/>
</a>
</g>
</g>
<!-- Node4&#45;&gt;Node3 -->
<g id="edge4_Node000004_Node000003" class="edge">
<title>Node4&#45;&gt;Node3</title>
<g id="a_edge4_Node000004_Node000003"><a xlink:title=" ">
<path fill="none" stroke="#63b8ff" d="M202.62,-164.95C180.93,-158.48 155.51,-147.44 139,-129 127.96,-116.68 123.33,-98.17 121.39,-84.31"/>
<polygon fill="#63b8ff" stroke="#63b8ff" points="124.83,-83.58 120.31,-74 117.87,-84.31 124.83,-83.58"/>
</a>
</g>
</g>
<!-- Node5 -->
<g id="Node000005" class="node">
<title>Node5</title>
<g id="a_Node000005"><a xlink:title=" ">
<polygon fill="#e0e0e0" stroke="#999999" points="304,-74 260,-74 260,-55 304,-55 304,-74"/>
<text text-anchor="middle" x="282" y="-62" font-family="Helvetica,sans-Serif" font-size="10.00">string</text>
</a>
</g>
</g>
<!-- Node4&#45;&gt;Node5 -->
<g id="edge5_Node000004_Node000005" class="edge">
<title>Node4&#45;&gt;Node5</title>
<g id="a_edge5_Node000004_Node000005"><a xlink:title=" ">
<path fill="none" stroke="#63b8ff" d="M247.11,-164.66C253.32,-147.01 267.37,-107.09 275.62,-83.64"/>
<polygon fill="#63b8ff" stroke="#63b8ff" points="278.94,-84.75 278.95,-74.16 272.33,-82.43 278.94,-84.75"/>
</a>
</g>
</g>
<!-- Node6 -->
<g id="Node000006" class="node">
<title>Node6</title>
<g id="a_Node000006"><a xlink:title=" ">
<polygon fill="#e0e0e0" stroke="#999999" points="227.5,-74 180.5,-74 180.5,-55 227.5,-55 227.5,-74"/>
<text text-anchor="middle" x="204" y="-62" font-family="Helvetica,sans-Serif" font-size="10.00">vector</text>
</a>
</g>
</g>
<!-- Node4&#45;&gt;Node6 -->
<g id="edge6_Node000004_Node000006" class="edge">
<title>Node4&#45;&gt;Node6</title>
<g id="a_edge6_Node000004_Node000006"><a xlink:title=" ">
<path fill="none" stroke="#63b8ff" d="M241.82,-164.73C238.65,-152.36 232.33,-129.13 225,-110 221.56,-101.03 217.09,-91.34 213.16,-83.31"/>
<polygon fill="#63b8ff" stroke="#63b8ff" points="216.2,-81.56 208.58,-74.2 209.94,-84.7 216.2,-81.56"/>
</a>
</g>
</g>
<!-- Node4&#45;&gt;Node7 -->
<g id="edge7_Node000004_Node000007" class="edge">
<title>Node4&#45;&gt;Node7</title>
<g id="a_edge7_Node000004_Node000007"><a xlink:title=" ">
<path fill="none" stroke="#63b8ff" d="M234.04,-164.98C224.87,-157.15 211.06,-145.34 199.97,-135.86"/>
<polygon fill="#63b8ff" stroke="#63b8ff" points="202.02,-133.01 192.14,-129.17 197.47,-138.33 202.02,-133.01"/>
</a>
</g>
</g>
<!-- Node8 -->
<g id="Node000008" class="node">
<title>Node8</title>
<g id="a_Node000008"><a xlink:href="typedefs_8hpp.html" target="_top" xlink:title=" ">
<polygon fill="white" stroke="#666666" points="492,-129 412,-129 412,-110 492,-110 492,-129"/>
<text text-anchor="middle" x="452" y="-117" font-family="Helvetica,sans-Serif" font-size="10.00">typedefs.hpp</text>
</a>
</g>
</g>
<!-- Node4&#45;&gt;Node8 -->
<g id="edge11_Node000004_Node000008" class="edge">
<title>Node4&#45;&gt;Node8</title>
<g id="a_edge11_Node000004_Node000008"><a xlink:title=" ">
<path fill="none" stroke="#63b8ff" d="M277.42,-164.98C312.94,-155.93 369.27,-141.58 408.3,-131.64"/>
<polygon fill="#63b8ff" stroke="#63b8ff" points="409.49,-134.94 418.32,-129.08 407.76,-128.16 409.49,-134.94"/>
</a>
</g>
</g>
<!-- Node7&#45;&gt;Node3 -->
<g id="edge8_Node000007_Node000003" class="edge">
<title>Node7&#45;&gt;Node3</title>
<g id="a_edge8_Node000007_Node000003"><a xlink:title=" ">
<path fill="none" stroke="#63b8ff" d="M172.04,-109.98C162.87,-102.15 149.06,-90.34 137.97,-80.86"/>
<polygon fill="#63b8ff" stroke="#63b8ff" points="140.02,-78.01 130.14,-74.17 135.47,-83.33 140.02,-78.01"/>
</a>
</g>
</g>
<!-- Node7&#45;&gt;Node5 -->
<g id="edge9_Node000007_Node000005" class="edge">
<title>Node7&#45;&gt;Node5</title>
<g id="a_edge9_Node000007_Node000005"><a xlink:title=" ">
<path fill="none" stroke="#63b8ff" d="M198.07,-109.98C213.86,-101.61 238.22,-88.7 256.63,-78.95"/>
<polygon fill="#63b8ff" stroke="#63b8ff" points="258.44,-81.95 265.64,-74.17 255.17,-75.76 258.44,-81.95"/>
</a>
</g>
</g>
<!-- Node7&#45;&gt;Node6 -->
<g id="edge10_Node000007_Node000006" class="edge">
<title>Node7&#45;&gt;Node6</title>
<g id="a_edge10_Node000007_Node000006"><a xlink:title=" ">
<path fill="none" stroke="#63b8ff" d="M185.63,-109.75C188.58,-102.65 192.83,-92.4 196.51,-83.56"/>
<polygon fill="#63b8ff" stroke="#63b8ff" points="199.83,-84.67 200.43,-74.09 193.37,-81.98 199.83,-84.67"/>
</a>
</g>
</g>
<!-- Node9 -->
<g id="Node000009" class="node">
<title>Node9</title>
<g id="a_Node000009"><a xlink:title=" ">
<polygon fill="#e0e0e0" stroke="#999999" points="431,-74 381,-74 381,-55 431,-55 431,-74"/>
<text text-anchor="middle" x="406" y="-62" font-family="Helvetica,sans-Serif" font-size="10.00">cstdint</text>
</a>
</g>
</g>
<!-- Node8&#45;&gt;Node9 -->
<g id="edge12_Node000008_Node000009" class="edge">
<title>Node8&#45;&gt;Node9</title>
<g id="a_edge12_Node000008_Node000009"><a xlink:title=" ">
<path fill="none" stroke="#63b8ff" d="M444.4,-109.75C437.84,-102.18 428.18,-91.05 420.19,-81.84"/>
<polygon fill="#63b8ff" stroke="#63b8ff" points="422.65,-79.35 413.45,-74.09 417.37,-83.94 422.65,-79.35"/>
</a>
</g>
</g>
<!-- Node10 -->
<g id="Node000010" class="node">
<title>Node10</title>
<g id="a_Node000010"><a xlink:href="pair_8hpp.html" target="_top" xlink:title=" ">
<polygon fill="white" stroke="#666666" points="544.5,-74 449.5,-74 449.5,-55 544.5,-55 544.5,-74"/>
<text text-anchor="middle" x="497" y="-62" font-family="Helvetica,sans-Serif" font-size="10.00">../value/pair.hpp</text>
</a>
</g>
</g>
<!-- Node8&#45;&gt;Node10 -->
<g id="edge13_Node000008_Node000010" class="edge">
<title>Node8&#45;&gt;Node10</title>
<g id="a_edge13_Node000008_Node000010"><a xlink:title=" ">
<path fill="none" stroke="#63b8ff" d="M459.43,-109.75C465.85,-102.18 475.31,-91.05 483.12,-81.84"/>
<polygon fill="#63b8ff" stroke="#63b8ff" points="485.9,-83.98 489.71,-74.09 480.57,-79.45 485.9,-83.98"/>
</a>
</g>
</g>
<!-- Node11 -->
<g id="Node000011" class="node">
<title>Node11</title>
<g id="a_Node000011"><a xlink:title=" ">
<polygon fill="#e0e0e0" stroke="#999999" points="519.5,-19 474.5,-19 474.5,0 519.5,0 519.5,-19"/>
<text text-anchor="middle" x="497" y="-7" font-family="Helvetica,sans-Serif" font-size="10.00">utility</text>
</a>
</g>
</g>
<!-- Node10&#45;&gt;Node11 -->
<g id="edge14_Node000010_Node000011" class="edge">
<title>Node10&#45;&gt;Node11</title>
<g id="a_edge14_Node000010_Node000011"><a xlink:title=" ">
<path fill="none" stroke="#63b8ff" d="M497,-54.75C497,-47.8 497,-37.85 497,-29.13"/>
<polygon fill="#63b8ff" stroke="#63b8ff" points="500.5,-29.09 497,-19.09 493.5,-29.09 500.5,-29.09"/>
</a>
</g>
</g>
<!-- Node12&#45;&gt;Node5 -->
<g id="edge17_Node000012_Node000005" class="edge">
<title>Node12&#45;&gt;Node5</title>
<g id="a_edge17_Node000012_Node000005"><a xlink:title=" ">
<path fill="none" stroke="#63b8ff" d="M340.75,-109.98C330.2,-102 314.2,-89.88 301.56,-80.31"/>
<polygon fill="#63b8ff" stroke="#63b8ff" points="303.54,-77.42 293.45,-74.17 299.31,-83 303.54,-77.42"/>
</a>
</g>
</g>
</g>
</svg>
