<?xml version="1.0" encoding="UTF-8" standalone="no"?>
<!DOCTYPE svg PUBLIC "-//W3C//DTD SVG 1.1//EN"
 "http://www.w3.org/Graphics/SVG/1.1/DTD/svg11.dtd">
<!-- Generated by graphviz version 2.43.0 (0)
 -->
<!-- Title: netspeak/model/Phrase.hpp Pages: 1 -->
<svg width="378pt" height="192pt"
 viewBox="0.00 0.00 377.50 192.00" xmlns="http://www.w3.org/2000/svg" xmlns:xlink="http://www.w3.org/1999/xlink">
<g id="graph0" class="graph" transform="scale(1 1) rotate(0) translate(4 188)">
<title>netspeak/model/Phrase.hpp</title>
<!-- Node1 -->
<g id="Node000001" class="node">
<title>Node1</title>
<g id="a_Node000001"><a xlink:title=" ">
<polygon fill="#999999" stroke="#666666" points="200.5,-184 48.5,-184 48.5,-165 200.5,-165 200.5,-184"/>
<text text-anchor="middle" x="124.5" y="-172" font-family="Helvetica,sans-Serif" font-size="10.00">netspeak/model/Phrase.hpp</text>
</a>
</g>
</g>
<!-- Node2 -->
<g id="Node000002" class="node">
<title>Node2</title>
<g id="a_Node000002"><a xlink:title=" ">
<polygon fill="#e0e0e0" stroke="#999999" points="57,-74 0,-74 0,-55 57,-55 57,-74"/>
<text text-anchor="middle" x="28.5" y="-62" font-family="Helvetica,sans-Serif" font-size="10.00">ostream</text>
</a>
</g>
</g>
<!-- Node1&#45;&gt;Node2 -->
<g id="edge1_Node000001_Node000002" class="edge">
<title>Node1&#45;&gt;Node2</title>
<g id="a_edge1_Node000001_Node000002"><a xlink:title=" ">
<path fill="none" stroke="#63b8ff" d="M113.81,-164.85C103.49,-156.26 87.68,-142.47 75.5,-129 62.17,-114.27 48.88,-95.88 39.85,-82.69"/>
<polygon fill="#63b8ff" stroke="#63b8ff" points="42.58,-80.47 34.09,-74.13 36.77,-84.38 42.58,-80.47"/>
</a>
</g>
</g>
<!-- Node3 -->
<g id="Node000003" class="node">
<title>Node3</title>
<g id="a_Node000003"><a xlink:title=" ">
<polygon fill="#e0e0e0" stroke="#999999" points="121.5,-74 77.5,-74 77.5,-55 121.5,-55 121.5,-74"/>
<text text-anchor="middle" x="99.5" y="-62" font-family="Helvetica,sans-Serif" font-size="10.00">string</text>
</a>
</g>
</g>
<!-- Node1&#45;&gt;Node3 -->
<g id="edge2_Node000001_Node000003" class="edge">
<title>Node1&#45;&gt;Node3</title>
<g id="a_edge2_Node000001_Node000003"><a xlink:title=" ">
<path fill="none" stroke="#63b8ff" d="M112.01,-164.93C101.63,-156.99 87.62,-144.14 81.5,-129 75.41,-113.93 81.59,-96.07 88.32,-83.13"/>
<polygon fill="#63b8ff" stroke="#63b8ff" points="91.43,-84.74 93.38,-74.33 85.36,-81.26 91.43,-84.74"/>
</a>
</g>
</g>
<!-- Node4 -->
<g id="Node000004" class="node">
<title>Node4</title>
<g id="a_Node000004"><a xlink:title=" ">
<polygon fill="#e0e0e0" stroke="#999999" points="188,-74 141,-74 141,-55 188,-55 188,-74"/>
<text text-anchor="middle" x="164.5" y="-62" font-family="Helvetica,sans-Serif" font-size="10.00">vector</text>
</a>
</g>
</g>
<!-- Node1&#45;&gt;Node4 -->
<g id="edge3_Node000001_Node000004" class="edge">
<title>Node1&#45;&gt;Node4</title>
<g id="a_edge3_Node000001_Node000004"><a xlink:title=" ">
<path fill="none" stroke="#63b8ff" d="M136.99,-164.93C147.37,-156.99 161.38,-144.14 167.5,-129 173.26,-114.75 171.87,-97.22 169.4,-84.19"/>
<polygon fill="#63b8ff" stroke="#63b8ff" points="172.73,-83.07 167.1,-74.1 165.91,-84.62 172.73,-83.07"/>
</a>
</g>
</g>
<!-- Node5 -->
<g id="Node000005" class="node">
<title>Node5</title>
<g id="a_Node000005"><a xlink:href="Words_8hpp.html" target="_top" xlink:title=" ">
<polygon fill="white" stroke="#666666" points="158.5,-129 90.5,-129 90.5,-110 158.5,-110 158.5,-129"/>
<text text-anchor="middle" x="124.5" y="-117" font-family="Helvetica,sans-Serif" font-size="10.00">Words.hpp</text>
</a>
</g>
</g>
<!-- Node1&#45;&gt;Node5 -->
<g id="edge4_Node000001_Node000005" class="edge">
<title>Node1&#45;&gt;Node5</title>
<g id="a_edge4_Node000001_Node000005"><a xlink:title=" ">
<path fill="none" stroke="#63b8ff" d="M124.5,-164.75C124.5,-157.8 124.5,-147.85 124.5,-139.13"/>
<polygon fill="#63b8ff" stroke="#63b8ff" points="128,-139.09 124.5,-129.09 121,-139.09 128,-139.09"/>
</a>
</g>
</g>
<!-- Node6 -->
<g id="Node000006" class="node">
<title>Node6</title>
<g id="a_Node000006"><a xlink:href="typedefs_8hpp.html" target="_top" xlink:title=" ">
<polygon fill="white" stroke="#666666" points="294.5,-129 214.5,-129 214.5,-110 294.5,-110 294.5,-129"/>
<text text-anchor="middle" x="254.5" y="-117" font-family="Helvetica,sans-Serif" font-size="10.00">typedefs.hpp</text>
</a>
</g>
</g>
<!-- Node1&#45;&gt;Node6 -->
<g id="edge8_Node000001_Node000006" class="edge">
<title>Node1&#45;&gt;Node6</title>
<g id="a_edge8_Node000001_Node000006"><a xlink:title=" ">
<path fill="none" stroke="#63b8ff" d="M145.39,-164.98C166.58,-156.34 199.63,-142.87 223.8,-133.02"/>
<polygon fill="#63b8ff" stroke="#63b8ff" points="225.29,-136.19 233.23,-129.17 222.65,-129.7 225.29,-136.19"/>
</a>
</g>
</g>
<!-- Node5&#45;&gt;Node2 -->
<g id="edge5_Node000005_Node000002" class="edge">
<title>Node5&#45;&gt;Node2</title>
<g id="a_edge5_Node000005_Node000002"><a xlink:title=" ">
<path fill="none" stroke="#63b8ff" d="M109.08,-109.98C94.05,-101.69 70.96,-88.94 53.34,-79.22"/>
<polygon fill="#63b8ff" stroke="#63b8ff" points="54.65,-75.94 44.2,-74.17 51.27,-82.07 54.65,-75.94"/>
</a>
</g>
</g>
<!-- Node5&#45;&gt;Node3 -->
<g id="edge6_Node000005_Node000003" class="edge">
<title>Node5&#45;&gt;Node3</title>
<g id="a_edge6_Node000005_Node000003"><a xlink:title=" ">
<path fill="none" stroke="#63b8ff" d="M120.37,-109.75C116.99,-102.57 112.08,-92.18 107.88,-83.27"/>
<polygon fill="#63b8ff" stroke="#63b8ff" points="110.98,-81.64 103.55,-74.09 104.65,-84.63 110.98,-81.64"/>
</a>
</g>
</g>
<!-- Node5&#45;&gt;Node4 -->
<g id="edge7_Node000005_Node000004" class="edge">
<title>Node5&#45;&gt;Node4</title>
<g id="a_edge7_Node000005_Node000004"><a xlink:title=" ">
<path fill="none" stroke="#63b8ff" d="M131.11,-109.75C136.76,-102.26 145.04,-91.28 151.95,-82.13"/>
<polygon fill="#63b8ff" stroke="#63b8ff" points="154.79,-84.18 158.02,-74.09 149.2,-79.96 154.79,-84.18"/>
</a>
</g>
</g>
<!-- Node7 -->
<g id="Node000007" class="node">
<title>Node7</title>
<g id="a_Node000007"><a xlink:title=" ">
<polygon fill="#e0e0e0" stroke="#999999" points="369.5,-74 319.5,-74 319.5,-55 369.5,-55 369.5,-74"/>
<text text-anchor="middle" x="344.5" y="-62" font-family="Helvetica,sans-Serif" font-size="10.00">cstdint</text>
</a>
</g>
</g>
<!-- Node6&#45;&gt;Node7 -->
<g id="edge9_Node000006_Node000007" class="edge">
<title>Node6&#45;&gt;Node7</title>
<g id="a_edge9_Node000006_Node000007"><a xlink:title=" ">
<path fill="none" stroke="#63b8ff" d="M268.96,-109.98C282.92,-101.77 304.29,-89.18 320.75,-79.49"/>
<polygon fill="#63b8ff" stroke="#63b8ff" points="322.94,-82.26 329.78,-74.17 319.38,-76.23 322.94,-82.26"/>
</a>
</g>
</g>
<!-- Node8 -->
<g id="Node000008" class="node">
<title>Node8</title>
<g id="a_Node000008"><a xlink:href="pair_8hpp.html" target="_top" xlink:title=" ">
<polygon fill="white" stroke="#666666" points="301,-74 206,-74 206,-55 301,-55 301,-74"/>
<text text-anchor="middle" x="253.5" y="-62" font-family="Helvetica,sans-Serif" font-size="10.00">../value/pair.hpp</text>
</a>
</g>
</g>
<!-- Node6&#45;&gt;Node8 -->
<g id="edge10_Node000006_Node000008" class="edge">
<title>Node6&#45;&gt;Node8</title>
<g id="a_edge10_Node000006_Node000008"><a xlink:title=" ">
<path fill="none" stroke="#63b8ff" d="M254.33,-109.75C254.2,-102.8 254.02,-92.85 253.85,-84.13"/>
<polygon fill="#63b8ff" stroke="#63b8ff" points="257.35,-84.02 253.66,-74.09 250.35,-84.15 257.35,-84.02"/>
</a>
</g>
</g>
<!-- Node9 -->
<g id="Node000009" class="node">
<title>Node9</title>
<g id="a_Node000009"><a xlink:title=" ">
<polygon fill="#e0e0e0" stroke="#999999" points="276,-19 231,-19 231,0 276,0 276,-19"/>
<text text-anchor="middle" x="253.5" y="-7" font-family="Helvetica,sans-Serif" font-size="10.00">utility</text>
</a>
</g>
</g>
<!-- Node8&#45;&gt;Node9 -->
<g id="edge11_Node000008_Node000009" class="edge">
<title>Node8&#45;&gt;Node9</title>
<g id="a_edge11_Node000008_Node000009"><a xlink:title=" ">
<path fill="none" stroke="#63b8ff" d="M253.5,-54.75C253.5,-47.8 253.5,-37.85 253.5,-29.13"/>
<polygon fill="#63b8ff" stroke="#63b8ff" points="257,-29.09 253.5,-19.09 250,-29.09 257,-29.09"/>
</a>
</g>
</g>
</g>
</svg>
