<?xml version="1.0" encoding="UTF-8" standalone="no"?>
<!DOCTYPE svg PUBLIC "-//W3C//DTD SVG 1.1//EN"
 "http://www.w3.org/Graphics/SVG/1.1/DTD/svg11.dtd">
<!-- Generated by graphviz version 2.43.0 (0)
 -->
<!-- Title: netspeak/invertedindex/PostlistReader.hpp Pages: 1 -->
<svg width="1698pt" height="445pt"
 viewBox="0.00 0.00 1698.39 445.00" xmlns="http://www.w3.org/2000/svg" xmlns:xlink="http://www.w3.org/1999/xlink">
<g id="graph0" class="graph" transform="scale(1 1) rotate(0) translate(4 441)">
<title>netspeak/invertedindex/PostlistReader.hpp</title>
<!-- Node1 -->
<g id="Node000001" class="node">
<title>Node1</title>
<g id="a_Node000001"><a xlink:title=" ">
<polygon fill="#999999" stroke="#666666" points="1309.5,-437 1177.5,-437 1177.5,-407 1309.5,-407 1309.5,-437"/>
<text text-anchor="start" x="1185.5" y="-425" font-family="Helvetica,sans-Serif" font-size="10.00">netspeak/invertedindex</text>
<text text-anchor="middle" x="1243.5" y="-414" font-family="Helvetica,sans-Serif" font-size="10.00">/PostlistReader.hpp</text>
</a>
</g>
</g>
<!-- Node2 -->
<g id="Node000002" class="node">
<title>Node2</title>
<g id="a_Node000002"><a xlink:title=" ">
<polygon fill="#e0e0e0" stroke="#999999" points="1661.5,-79.5 1611.5,-79.5 1611.5,-60.5 1661.5,-60.5 1661.5,-79.5"/>
<text text-anchor="middle" x="1636.5" y="-67.5" font-family="Helvetica,sans-Serif" font-size="10.00">climits</text>
</a>
</g>
</g>
<!-- Node1&#45;&gt;Node2 -->
<g id="edge1_Node000001_Node000002" class="edge">
<title>Node1&#45;&gt;Node2</title>
<g id="a_edge1_Node000001_Node000002"><a xlink:title=" ">
<path fill="none" stroke="#63b8ff" d="M1309.68,-410.1C1399.38,-393.41 1548.5,-358.07 1548.5,-307.5 1548.5,-307.5 1548.5,-307.5 1548.5,-195.5 1548.5,-148.89 1590.14,-107.49 1616.13,-86.19"/>
<polygon fill="#63b8ff" stroke="#63b8ff" points="1618.59,-88.71 1624.26,-79.76 1614.25,-83.22 1618.59,-88.71"/>
</a>
</g>
</g>
<!-- Node3 -->
<g id="Node000003" class="node">
<title>Node3</title>
<g id="a_Node000003"><a xlink:title=" ">
<polygon fill="#e0e0e0" stroke="#999999" points="765,-371 718,-371 718,-352 765,-352 765,-371"/>
<text text-anchor="middle" x="741.5" y="-359" font-family="Helvetica,sans-Serif" font-size="10.00">cmath</text>
</a>
</g>
</g>
<!-- Node1&#45;&gt;Node3 -->
<g id="edge2_Node000001_Node000003" class="edge">
<title>Node1&#45;&gt;Node3</title>
<g id="a_edge2_Node000001_Node000003"><a xlink:title=" ">
<path fill="none" stroke="#63b8ff" d="M1177.49,-416.24C1087.22,-409.2 920.39,-394.27 779.5,-371 778.04,-370.76 776.55,-370.5 775.05,-370.22"/>
<polygon fill="#63b8ff" stroke="#63b8ff" points="775.63,-366.77 765.14,-368.22 774.25,-373.63 775.63,-366.77"/>
</a>
</g>
</g>
<!-- Node4 -->
<g id="Node000004" class="node">
<title>Node4</title>
<g id="a_Node000004"><a xlink:title=" ">
<polygon fill="#e0e0e0" stroke="#999999" points="1617.5,-19 1549.5,-19 1549.5,0 1617.5,0 1617.5,-19"/>
<text text-anchor="middle" x="1583.5" y="-7" font-family="Helvetica,sans-Serif" font-size="10.00">filesystem</text>
</a>
</g>
</g>
<!-- Node1&#45;&gt;Node4 -->
<g id="edge3_Node000001_Node000004" class="edge">
<title>Node1&#45;&gt;Node4</title>
<g id="a_edge3_Node000001_Node000004"><a xlink:title=" ">
<path fill="none" stroke="#63b8ff" d="M1309.79,-417.86C1434.03,-410.16 1689.5,-384.9 1689.5,-307.5 1689.5,-307.5 1689.5,-307.5 1689.5,-135 1689.5,-98.46 1693.07,-83.74 1670.5,-55 1658.76,-40.05 1640.64,-29.67 1623.97,-22.71"/>
<polygon fill="#63b8ff" stroke="#63b8ff" points="1624.97,-19.34 1614.38,-19 1622.44,-25.87 1624.97,-19.34"/>
</a>
</g>
</g>
<!-- Node5 -->
<g id="Node000005" class="node">
<title>Node5</title>
<g id="a_Node000005"><a xlink:title=" ">
<polygon fill="#e0e0e0" stroke="#999999" points="260.5,-145.5 202.5,-145.5 202.5,-126.5 260.5,-126.5 260.5,-145.5"/>
<text text-anchor="middle" x="231.5" y="-133.5" font-family="Helvetica,sans-Serif" font-size="10.00">memory</text>
</a>
</g>
</g>
<!-- Node1&#45;&gt;Node5 -->
<g id="edge4_Node000001_Node000005" class="edge">
<title>Node1&#45;&gt;Node5</title>
<g id="a_edge4_Node000001_Node000005"><a xlink:title=" ">
<path fill="none" stroke="#63b8ff" d="M1177.1,-418.01C1051.93,-410.54 793.5,-385.65 793.5,-307.5 793.5,-307.5 793.5,-307.5 793.5,-250.5 793.5,-131.76 382.8,-183.19 268.5,-151 266.35,-150.39 264.15,-149.72 261.95,-149"/>
<polygon fill="#63b8ff" stroke="#63b8ff" points="263.01,-145.66 252.42,-145.64 260.69,-152.26 263.01,-145.66"/>
</a>
</g>
</g>
<!-- Node6 -->
<g id="Node000006" class="node">
<title>Node6</title>
<g id="a_Node000006"><a xlink:title=" ">
<polygon fill="#e0e0e0" stroke="#999999" points="1315.5,-206 1259.5,-206 1259.5,-187 1315.5,-187 1315.5,-206"/>
<text text-anchor="middle" x="1287.5" y="-194" font-family="Helvetica,sans-Serif" font-size="10.00">numeric</text>
</a>
</g>
</g>
<!-- Node1&#45;&gt;Node6 -->
<g id="edge5_Node000001_Node000006" class="edge">
<title>Node1&#45;&gt;Node6</title>
<g id="a_edge5_Node000001_Node000006"><a xlink:title=" ">
<path fill="none" stroke="#63b8ff" d="M1246.32,-406.68C1254,-367.68 1275.27,-259.61 1283.85,-216.05"/>
<polygon fill="#63b8ff" stroke="#63b8ff" points="1287.28,-216.72 1285.78,-206.23 1280.42,-215.37 1287.28,-216.72"/>
</a>
</g>
</g>
<!-- Node7 -->
<g id="Node000007" class="node">
<title>Node7</title>
<g id="a_Node000007"><a xlink:href="netspeak_2util_2logging_8hpp.html" target="_top" xlink:title=" ">
<polygon fill="white" stroke="#666666" points="111,-79.5 10,-79.5 10,-60.5 111,-60.5 111,-79.5"/>
<text text-anchor="middle" x="60.5" y="-67.5" font-family="Helvetica,sans-Serif" font-size="10.00">../util/logging.hpp</text>
</a>
</g>
</g>
<!-- Node1&#45;&gt;Node7 -->
<g id="edge6_Node000001_Node000007" class="edge">
<title>Node1&#45;&gt;Node7</title>
<g id="a_edge6_Node000001_Node000007"><a xlink:title=" ">
<path fill="none" stroke="#63b8ff" d="M1177.27,-421.32C935.9,-421.61 117.5,-414.7 117.5,-307.5 117.5,-307.5 117.5,-307.5 117.5,-195.5 117.5,-153.74 90.66,-110.66 73.81,-87.74"/>
<polygon fill="#63b8ff" stroke="#63b8ff" points="76.56,-85.57 67.72,-79.73 70.99,-89.81 76.56,-85.57"/>
</a>
</g>
</g>
<!-- Node12 -->
<g id="Node000012" class="node">
<title>Node12</title>
<g id="a_Node000012"><a xlink:href="systemio_8hpp.html" target="_top" xlink:title=" ">
<polygon fill="white" stroke="#666666" points="1431.5,-145.5 1321.5,-145.5 1321.5,-126.5 1431.5,-126.5 1431.5,-145.5"/>
<text text-anchor="middle" x="1376.5" y="-133.5" font-family="Helvetica,sans-Serif" font-size="10.00">../util/systemio.hpp</text>
</a>
</g>
</g>
<!-- Node1&#45;&gt;Node12 -->
<g id="edge11_Node000001_Node000012" class="edge">
<title>Node1&#45;&gt;Node12</title>
<g id="a_edge11_Node000001_Node000012"><a xlink:title=" ">
<path fill="none" stroke="#63b8ff" d="M1275.16,-407C1309.81,-389.27 1360.5,-355.19 1360.5,-307.5 1360.5,-307.5 1360.5,-307.5 1360.5,-250.5 1360.5,-216.79 1367.5,-178 1372.24,-155.61"/>
<polygon fill="#63b8ff" stroke="#63b8ff" points="1375.68,-156.29 1374.41,-145.77 1368.84,-154.79 1375.68,-156.29"/>
</a>
</g>
</g>
<!-- Node18 -->
<g id="Node000018" class="node">
<title>Node18</title>
<g id="a_Node000018"><a xlink:href="Postlist_8hpp.html" target="_top" xlink:title=" ">
<polygon fill="white" stroke="#666666" points="1163.5,-371 1089.5,-371 1089.5,-352 1163.5,-352 1163.5,-371"/>
<text text-anchor="middle" x="1126.5" y="-359" font-family="Helvetica,sans-Serif" font-size="10.00">Postlist.hpp</text>
</a>
</g>
</g>
<!-- Node1&#45;&gt;Node18 -->
<g id="edge22_Node000001_Node000018" class="edge">
<title>Node1&#45;&gt;Node18</title>
<g id="a_edge22_Node000001_Node000018"><a xlink:title=" ">
<path fill="none" stroke="#63b8ff" d="M1215.48,-406.99C1196.48,-397.49 1171.53,-385.02 1152.89,-375.69"/>
<polygon fill="#63b8ff" stroke="#63b8ff" points="1154.29,-372.48 1143.78,-371.14 1151.16,-378.74 1154.29,-372.48"/>
</a>
</g>
</g>
<!-- Node8 -->
<g id="Node000008" class="node">
<title>Node8</title>
<g id="a_Node000008"><a xlink:title=" ">
<polygon fill="#e0e0e0" stroke="#999999" points="253.5,-19 193.5,-19 193.5,0 253.5,0 253.5,-19"/>
<text text-anchor="middle" x="223.5" y="-7" font-family="Helvetica,sans-Serif" font-size="10.00">iostream</text>
</a>
</g>
</g>
<!-- Node7&#45;&gt;Node8 -->
<g id="edge7_Node000007_Node000008" class="edge">
<title>Node7&#45;&gt;Node8</title>
<g id="a_edge7_Node000007_Node000008"><a xlink:title=" ">
<path fill="none" stroke="#63b8ff" d="M84.2,-60.49C112.09,-50.49 158.57,-33.8 190.1,-22.49"/>
<polygon fill="#63b8ff" stroke="#63b8ff" points="191.54,-25.69 199.77,-19.02 189.18,-19.1 191.54,-25.69"/>
</a>
</g>
</g>
<!-- Node9 -->
<g id="Node000009" class="node">
<title>Node9</title>
<g id="a_Node000009"><a xlink:title=" ">
<polygon fill="#e0e0e0" stroke="#999999" points="53,-19 0,-19 0,0 53,0 53,-19"/>
<text text-anchor="middle" x="26.5" y="-7" font-family="Helvetica,sans-Serif" font-size="10.00">iterator</text>
</a>
</g>
</g>
<!-- Node7&#45;&gt;Node9 -->
<g id="edge8_Node000007_Node000009" class="edge">
<title>Node7&#45;&gt;Node9</title>
<g id="a_edge8_Node000007_Node000009"><a xlink:title=" ">
<path fill="none" stroke="#63b8ff" d="M55.48,-60.37C50.56,-51.9 42.91,-38.74 36.71,-28.07"/>
<polygon fill="#63b8ff" stroke="#63b8ff" points="39.59,-26.05 31.54,-19.17 33.54,-29.57 39.59,-26.05"/>
</a>
</g>
</g>
<!-- Node10 -->
<g id="Node000010" class="node">
<title>Node10</title>
<g id="a_Node000010"><a xlink:title=" ">
<polygon fill="#e0e0e0" stroke="#999999" points="119.5,-19 71.5,-19 71.5,0 119.5,0 119.5,-19"/>
<text text-anchor="middle" x="95.5" y="-7" font-family="Helvetica,sans-Serif" font-size="10.00">mutex</text>
</a>
</g>
</g>
<!-- Node7&#45;&gt;Node10 -->
<g id="edge9_Node000007_Node000010" class="edge">
<title>Node7&#45;&gt;Node10</title>
<g id="a_edge9_Node000007_Node000010"><a xlink:title=" ">
<path fill="none" stroke="#63b8ff" d="M65.66,-60.37C70.73,-51.9 78.6,-38.74 84.99,-28.07"/>
<polygon fill="#63b8ff" stroke="#63b8ff" points="88.18,-29.55 90.31,-19.17 82.18,-25.95 88.18,-29.55"/>
</a>
</g>
</g>
<!-- Node11 -->
<g id="Node000011" class="node">
<title>Node11</title>
<g id="a_Node000011"><a xlink:title=" ">
<polygon fill="#e0e0e0" stroke="#999999" points="705.5,-19 661.5,-19 661.5,0 705.5,0 705.5,-19"/>
<text text-anchor="middle" x="683.5" y="-7" font-family="Helvetica,sans-Serif" font-size="10.00">string</text>
</a>
</g>
</g>
<!-- Node7&#45;&gt;Node11 -->
<g id="edge10_Node000007_Node000011" class="edge">
<title>Node7&#45;&gt;Node11</title>
<g id="a_edge10_Node000007_Node000011"><a xlink:title=" ">
<path fill="none" stroke="#63b8ff" d="M111.17,-63.49C136.74,-60.79 168.25,-57.57 196.5,-55 395.7,-36.89 450.49,-53.48 651.28,-18.88"/>
<polygon fill="#63b8ff" stroke="#63b8ff" points="652.01,-22.3 661.26,-17.14 650.81,-15.41 652.01,-22.3"/>
</a>
</g>
</g>
<!-- Node12&#45;&gt;Node2 -->
<g id="edge13_Node000012_Node000002" class="edge">
<title>Node12&#45;&gt;Node2</title>
<g id="a_edge13_Node000012_Node000002"><a xlink:title=" ">
<path fill="none" stroke="#63b8ff" d="M1421.78,-126.44C1466.74,-117.55 1537.45,-102.5 1597.5,-85 1599.77,-84.34 1602.11,-83.61 1604.45,-82.86"/>
<polygon fill="#63b8ff" stroke="#63b8ff" points="1605.63,-86.15 1613.97,-79.62 1603.37,-79.52 1605.63,-86.15"/>
</a>
</g>
</g>
<!-- Node12&#45;&gt;Node4 -->
<g id="edge15_Node000012_Node000004" class="edge">
<title>Node12&#45;&gt;Node4</title>
<g id="a_edge15_Node000012_Node000004"><a xlink:title=" ">
<path fill="none" stroke="#63b8ff" d="M1431.55,-129.43C1466.8,-123.42 1511.73,-110.93 1543.5,-85 1561.23,-70.53 1572.2,-46.07 1578.06,-29.14"/>
<polygon fill="#63b8ff" stroke="#63b8ff" points="1581.5,-29.88 1581.2,-19.29 1574.83,-27.75 1581.5,-29.88"/>
</a>
</g>
</g>
<!-- Node13 -->
<g id="Node000013" class="node">
<title>Node13</title>
<g id="a_Node000013"><a xlink:title=" ">
<polygon fill="#e0e0e0" stroke="#999999" points="1517.5,-79.5 1461.5,-79.5 1461.5,-60.5 1517.5,-60.5 1517.5,-79.5"/>
<text text-anchor="middle" x="1489.5" y="-67.5" font-family="Helvetica,sans-Serif" font-size="10.00">assert.h</text>
</a>
</g>
</g>
<!-- Node12&#45;&gt;Node13 -->
<g id="edge12_Node000012_Node000013" class="edge">
<title>Node12&#45;&gt;Node13</title>
<g id="a_edge12_Node000012_Node000013"><a xlink:title=" ">
<path fill="none" stroke="#63b8ff" d="M1391.74,-126.37C1410.61,-115.68 1442.98,-97.35 1465.27,-84.72"/>
<polygon fill="#63b8ff" stroke="#63b8ff" points="1467.16,-87.67 1474.14,-79.7 1463.71,-81.58 1467.16,-87.67"/>
</a>
</g>
</g>
<!-- Node14 -->
<g id="Node000014" class="node">
<title>Node14</title>
<g id="a_Node000014"><a xlink:title=" ">
<polygon fill="#e0e0e0" stroke="#999999" points="1314.5,-19 1264.5,-19 1264.5,0 1314.5,0 1314.5,-19"/>
<text text-anchor="middle" x="1289.5" y="-7" font-family="Helvetica,sans-Serif" font-size="10.00">cstring</text>
</a>
</g>
</g>
<!-- Node12&#45;&gt;Node14 -->
<g id="edge14_Node000012_Node000014" class="edge">
<title>Node12&#45;&gt;Node14</title>
<g id="a_edge14_Node000012_Node000014"><a xlink:title=" ">
<path fill="none" stroke="#63b8ff" d="M1429.7,-126.47C1484.55,-115.42 1557.97,-92.93 1526.5,-55 1501.28,-24.61 1384.5,-14.84 1324.82,-11.81"/>
<polygon fill="#63b8ff" stroke="#63b8ff" points="1324.88,-8.31 1314.72,-11.33 1324.55,-15.3 1324.88,-8.31"/>
</a>
</g>
</g>
<!-- Node15 -->
<g id="Node000015" class="node">
<title>Node15</title>
<g id="a_Node000015"><a xlink:title=" ">
<polygon fill="#e0e0e0" stroke="#999999" points="1102.5,-19 1052.5,-19 1052.5,0 1102.5,0 1102.5,-19"/>
<text text-anchor="middle" x="1077.5" y="-7" font-family="Helvetica,sans-Serif" font-size="10.00">format</text>
</a>
</g>
</g>
<!-- Node12&#45;&gt;Node15 -->
<g id="edge16_Node000012_Node000015" class="edge">
<title>Node12&#45;&gt;Node15</title>
<g id="a_edge16_Node000012_Node000015"><a xlink:title=" ">
<path fill="none" stroke="#63b8ff" d="M1362.59,-126.28C1336.77,-110.37 1279.36,-76.35 1227.5,-55 1189.25,-39.25 1143.43,-26.49 1112.58,-18.74"/>
<polygon fill="#63b8ff" stroke="#63b8ff" points="1113.27,-15.3 1102.72,-16.3 1111.59,-22.1 1113.27,-15.3"/>
</a>
</g>
</g>
<!-- Node16 -->
<g id="Node000016" class="node">
<title>Node16</title>
<g id="a_Node000016"><a xlink:href="std__path__formatter_8hpp.html" target="_top" xlink:title="Defines an std::formatter for std::filesystem::path. MUST be deleted when C++26 is available with tha...">
<polygon fill="white" stroke="#666666" points="1443,-85 1318,-85 1318,-55 1443,-55 1443,-85"/>
<text text-anchor="start" x="1326" y="-73" font-family="Helvetica,sans-Serif" font-size="10.00">netspeak/util/std_path</text>
<text text-anchor="middle" x="1380.5" y="-62" font-family="Helvetica,sans-Serif" font-size="10.00">_formatter.hpp</text>
</a>
</g>
</g>
<!-- Node12&#45;&gt;Node16 -->
<g id="edge17_Node000012_Node000016" class="edge">
<title>Node12&#45;&gt;Node16</title>
<g id="a_edge17_Node000012_Node000016"><a xlink:title=" ">
<path fill="none" stroke="#63b8ff" d="M1377.04,-126.37C1377.53,-118.49 1378.28,-106.45 1378.96,-95.6"/>
<polygon fill="#63b8ff" stroke="#63b8ff" points="1382.47,-95.56 1379.6,-85.36 1375.49,-95.12 1382.47,-95.56"/>
</a>
</g>
</g>
<!-- Node17 -->
<g id="Node000017" class="node">
<title>Node17</title>
<g id="a_Node000017"><a xlink:title=" ">
<polygon fill="#e0e0e0" stroke="#999999" points="488,-19 423,-19 423,0 488,0 488,-19"/>
<text text-anchor="middle" x="455.5" y="-7" font-family="Helvetica,sans-Serif" font-size="10.00">stdexcept</text>
</a>
</g>
</g>
<!-- Node12&#45;&gt;Node17 -->
<g id="edge21_Node000012_Node000017" class="edge">
<title>Node12&#45;&gt;Node17</title>
<g id="a_edge21_Node000012_Node000017"><a xlink:title=" ">
<path fill="none" stroke="#63b8ff" d="M1351.39,-126.39C1295.84,-107.49 1163.81,-63.37 1117.5,-55 848.76,-6.45 772.45,-53.97 498.35,-19.04"/>
<polygon fill="#63b8ff" stroke="#63b8ff" points="498.47,-15.53 488.1,-17.71 497.57,-22.47 498.47,-15.53"/>
</a>
</g>
</g>
<!-- Node16&#45;&gt;Node4 -->
<g id="edge18_Node000016_Node000004" class="edge">
<title>Node16&#45;&gt;Node4</title>
<g id="a_edge18_Node000016_Node000004"><a xlink:title=" ">
<path fill="none" stroke="#63b8ff" d="M1429.12,-54.99C1464.31,-44.85 1511.26,-31.32 1544.1,-21.85"/>
<polygon fill="#63b8ff" stroke="#63b8ff" points="1545.18,-25.19 1553.82,-19.05 1543.24,-18.46 1545.18,-25.19"/>
</a>
</g>
</g>
<!-- Node16&#45;&gt;Node11 -->
<g id="edge20_Node000016_Node000011" class="edge">
<title>Node16&#45;&gt;Node11</title>
<g id="a_edge20_Node000016_Node000011"><a xlink:title=" ">
<path fill="none" stroke="#63b8ff" d="M1317.98,-63.14C1290.27,-60.58 1257.26,-57.58 1227.5,-55 1033.28,-38.17 799.89,-19.65 715.72,-13.03"/>
<polygon fill="#63b8ff" stroke="#63b8ff" points="715.77,-9.52 705.53,-12.23 715.22,-16.5 715.77,-9.52"/>
</a>
</g>
</g>
<!-- Node16&#45;&gt;Node15 -->
<g id="edge19_Node000016_Node000015" class="edge">
<title>Node16&#45;&gt;Node15</title>
<g id="a_edge19_Node000016_Node000015"><a xlink:title=" ">
<path fill="none" stroke="#63b8ff" d="M1317.72,-56.88C1255.58,-44.88 1162.68,-26.95 1112.57,-17.27"/>
<polygon fill="#63b8ff" stroke="#63b8ff" points="1113.04,-13.8 1102.55,-15.34 1111.71,-20.67 1113.04,-13.8"/>
</a>
</g>
</g>
<!-- Node19 -->
<g id="Node000019" class="node">
<title>Node19</title>
<g id="a_Node000019"><a xlink:href="RawPostlist_8hpp.html" target="_top" xlink:title=" ">
<polygon fill="white" stroke="#666666" points="1115,-316 1020,-316 1020,-297 1115,-297 1115,-316"/>
<text text-anchor="middle" x="1067.5" y="-304" font-family="Helvetica,sans-Serif" font-size="10.00">RawPostlist.hpp</text>
</a>
</g>
</g>
<!-- Node18&#45;&gt;Node19 -->
<g id="edge23_Node000018_Node000019" class="edge">
<title>Node18&#45;&gt;Node19</title>
<g id="a_edge23_Node000018_Node000019"><a xlink:title=" ">
<path fill="none" stroke="#63b8ff" d="M1117.02,-351.98C1108.3,-344.15 1095.16,-332.34 1084.6,-322.86"/>
<polygon fill="#63b8ff" stroke="#63b8ff" points="1086.93,-320.25 1077.15,-316.17 1082.25,-325.46 1086.93,-320.25"/>
</a>
</g>
</g>
<!-- Node19&#45;&gt;Node5 -->
<g id="edge24_Node000019_Node000005" class="edge">
<title>Node19&#45;&gt;Node5</title>
<g id="a_edge24_Node000019_Node000005"><a xlink:title=" ">
<path fill="none" stroke="#63b8ff" d="M1048.65,-296.85C989.4,-269.69 810.71,-187.81 807.5,-187 574.71,-128.26 503.1,-202.04 268.5,-151 265.82,-150.42 263.08,-149.68 260.36,-148.84"/>
<polygon fill="#63b8ff" stroke="#63b8ff" points="261.35,-145.48 250.76,-145.51 259.06,-152.1 261.35,-145.48"/>
</a>
</g>
</g>
<!-- Node20 -->
<g id="Node000020" class="node">
<title>Node20</title>
<g id="a_Node000020"><a xlink:href="Iterator_8hpp.html" target="_top" xlink:title=" ">
<polygon fill="white" stroke="#666666" points="1104,-261 1031,-261 1031,-242 1104,-242 1104,-261"/>
<text text-anchor="middle" x="1067.5" y="-249" font-family="Helvetica,sans-Serif" font-size="10.00">Iterator.hpp</text>
</a>
</g>
</g>
<!-- Node19&#45;&gt;Node20 -->
<g id="edge25_Node000019_Node000020" class="edge">
<title>Node19&#45;&gt;Node20</title>
<g id="a_edge25_Node000019_Node000020"><a xlink:title=" ">
<path fill="none" stroke="#63b8ff" d="M1067.5,-296.75C1067.5,-289.8 1067.5,-279.85 1067.5,-271.13"/>
<polygon fill="#63b8ff" stroke="#63b8ff" points="1071,-271.09 1067.5,-261.09 1064,-271.09 1071,-271.09"/>
</a>
</g>
</g>
<!-- Node20&#45;&gt;Node6 -->
<g id="edge26_Node000020_Node000006" class="edge">
<title>Node20&#45;&gt;Node6</title>
<g id="a_edge26_Node000020_Node000006"><a xlink:title=" ">
<path fill="none" stroke="#63b8ff" d="M1102.85,-241.98C1142.93,-232.33 1208.06,-216.64 1249.3,-206.7"/>
<polygon fill="#63b8ff" stroke="#63b8ff" points="1250.33,-210.05 1259.23,-204.31 1248.69,-203.25 1250.33,-210.05"/>
</a>
</g>
</g>
<!-- Node20&#45;&gt;Node12 -->
<g id="edge30_Node000020_Node000012" class="edge">
<title>Node20&#45;&gt;Node12</title>
<g id="a_edge30_Node000020_Node000012"><a xlink:title=" ">
<path fill="none" stroke="#63b8ff" d="M1065.02,-241.82C1061.73,-228.25 1057.8,-202.01 1071.5,-187 1106.67,-148.47 1252.09,-159.91 1303.5,-151 1309.84,-149.9 1316.48,-148.7 1323.07,-147.47"/>
<polygon fill="#63b8ff" stroke="#63b8ff" points="1324.13,-150.83 1333.31,-145.55 1322.84,-143.96 1324.13,-150.83"/>
</a>
</g>
</g>
<!-- Node21 -->
<g id="Node000021" class="node">
<title>Node21</title>
<g id="a_Node000021"><a xlink:title=" ">
<polygon fill="#e0e0e0" stroke="#999999" points="917,-206 860,-206 860,-187 917,-187 917,-206"/>
<text text-anchor="middle" x="888.5" y="-194" font-family="Helvetica,sans-Serif" font-size="10.00">ostream</text>
</a>
</g>
</g>
<!-- Node20&#45;&gt;Node21 -->
<g id="edge27_Node000020_Node000021" class="edge">
<title>Node20&#45;&gt;Node21</title>
<g id="a_edge27_Node000020_Node000021"><a xlink:title=" ">
<path fill="none" stroke="#63b8ff" d="M1038.74,-241.98C1008.47,-233.02 960.64,-218.86 927.1,-208.93"/>
<polygon fill="#63b8ff" stroke="#63b8ff" points="927.77,-205.48 917.19,-205.99 925.78,-212.19 927.77,-205.48"/>
</a>
</g>
</g>
<!-- Node22 -->
<g id="Node000022" class="node">
<title>Node22</title>
<g id="a_Node000022"><a xlink:title=" ">
<polygon fill="#e0e0e0" stroke="#999999" points="1128,-206 1081,-206 1081,-187 1128,-187 1128,-206"/>
<text text-anchor="middle" x="1104.5" y="-194" font-family="Helvetica,sans-Serif" font-size="10.00">vector</text>
</a>
</g>
</g>
<!-- Node20&#45;&gt;Node22 -->
<g id="edge28_Node000020_Node000022" class="edge">
<title>Node20&#45;&gt;Node22</title>
<g id="a_edge28_Node000020_Node000022"><a xlink:title=" ">
<path fill="none" stroke="#63b8ff" d="M1073.61,-241.75C1078.78,-234.34 1086.35,-223.5 1092.69,-214.41"/>
<polygon fill="#63b8ff" stroke="#63b8ff" points="1095.65,-216.29 1098.5,-206.09 1089.91,-212.29 1095.65,-216.29"/>
</a>
</g>
</g>
<!-- Node23 -->
<g id="Node000023" class="node">
<title>Node23</title>
<g id="a_Node000023"><a xlink:title=" ">
<polygon fill="#e0e0e0" stroke="#999999" points="1241,-206 1146,-206 1146,-187 1241,-187 1241,-206"/>
<text text-anchor="middle" x="1193.5" y="-194" font-family="Helvetica,sans-Serif" font-size="10.00">boost/utility.hpp</text>
</a>
</g>
</g>
<!-- Node20&#45;&gt;Node23 -->
<g id="edge29_Node000020_Node000023" class="edge">
<title>Node20&#45;&gt;Node23</title>
<g id="a_edge29_Node000020_Node000023"><a xlink:title=" ">
<path fill="none" stroke="#63b8ff" d="M1087.74,-241.98C1108.2,-233.38 1140.03,-219.99 1163.43,-210.15"/>
<polygon fill="#63b8ff" stroke="#63b8ff" points="1165.03,-213.27 1172.89,-206.17 1162.31,-206.82 1165.03,-213.27"/>
</a>
</g>
</g>
<!-- Node24 -->
<g id="Node000024" class="node">
<title>Node24</title>
<g id="a_Node000024"><a xlink:href="ByteBuffer_8hpp.html" target="_top" xlink:title=" ">
<polygon fill="white" stroke="#666666" points="1024,-206 935,-206 935,-187 1024,-187 1024,-206"/>
<text text-anchor="middle" x="979.5" y="-194" font-family="Helvetica,sans-Serif" font-size="10.00">ByteBuffer.hpp</text>
</a>
</g>
</g>
<!-- Node20&#45;&gt;Node24 -->
<g id="edge31_Node000020_Node000024" class="edge">
<title>Node20&#45;&gt;Node24</title>
<g id="a_edge31_Node000020_Node000024"><a xlink:title=" ">
<path fill="none" stroke="#63b8ff" d="M1053.36,-241.98C1039.71,-233.77 1018.81,-221.18 1002.72,-211.49"/>
<polygon fill="#63b8ff" stroke="#63b8ff" points="1004.27,-208.33 993.9,-206.17 1000.66,-214.33 1004.27,-208.33"/>
</a>
</g>
</g>
<!-- Node24&#45;&gt;Node5 -->
<g id="edge35_Node000024_Node000005" class="edge">
<title>Node24&#45;&gt;Node5</title>
<g id="a_edge35_Node000024_Node000005"><a xlink:title=" ">
<path fill="none" stroke="#63b8ff" d="M934.76,-188.1C931.63,-187.69 928.52,-187.32 925.5,-187 637.34,-156.43 559.33,-204.3 274.5,-151 271,-150.34 267.39,-149.48 263.82,-148.51"/>
<polygon fill="#63b8ff" stroke="#63b8ff" points="264.56,-145.07 253.98,-145.53 262.54,-151.78 264.56,-145.07"/>
</a>
</g>
</g>
<!-- Node24&#45;&gt;Node12 -->
<g id="edge37_Node000024_Node000012" class="edge">
<title>Node24&#45;&gt;Node12</title>
<g id="a_edge37_Node000024_Node000012"><a xlink:title=" ">
<path fill="none" stroke="#63b8ff" d="M1024.27,-189.01C1029.07,-188.33 1033.89,-187.65 1038.5,-187 1156.21,-170.53 1186.2,-170.2 1303.5,-151 1310.17,-149.91 1317.17,-148.68 1324.09,-147.41"/>
<polygon fill="#63b8ff" stroke="#63b8ff" points="1324.92,-150.81 1334.11,-145.53 1323.64,-143.93 1324.92,-150.81"/>
</a>
</g>
</g>
<!-- Node24&#45;&gt;Node14 -->
<g id="edge33_Node000024_Node000014" class="edge">
<title>Node24&#45;&gt;Node14</title>
<g id="a_edge33_Node000024_Node000014"><a xlink:title=" ">
<path fill="none" stroke="#63b8ff" d="M1024.07,-189.82C1101.39,-179.77 1253,-159.17 1261.5,-151 1294.74,-119.07 1294.53,-59.74 1291.88,-29.41"/>
<polygon fill="#63b8ff" stroke="#63b8ff" points="1295.34,-28.9 1290.81,-19.33 1288.38,-29.64 1295.34,-28.9"/>
</a>
</g>
</g>
<!-- Node24&#45;&gt;Node15 -->
<g id="edge34_Node000024_Node000015" class="edge">
<title>Node24&#45;&gt;Node15</title>
<g id="a_edge34_Node000024_Node000015"><a xlink:title=" ">
<path fill="none" stroke="#63b8ff" d="M1004.13,-186.9C1040.96,-172.48 1108.78,-139.55 1134.5,-85 1140.19,-72.94 1140.35,-66.98 1134.5,-55 1128.2,-42.09 1116.15,-31.83 1104.74,-24.43"/>
<polygon fill="#63b8ff" stroke="#63b8ff" points="1106.23,-21.25 1095.85,-19.12 1102.64,-27.25 1106.23,-21.25"/>
</a>
</g>
</g>
<!-- Node24&#45;&gt;Node17 -->
<g id="edge36_Node000024_Node000017" class="edge">
<title>Node24&#45;&gt;Node17</title>
<g id="a_edge36_Node000024_Node000017"><a xlink:title=" ">
<path fill="none" stroke="#63b8ff" d="M934.75,-188.16C931.62,-187.74 928.52,-187.34 925.5,-187 701.94,-161.48 642.61,-187.03 420.5,-151 391.29,-146.26 180.65,-108.37 162.5,-85 57.78,49.87 -126.88,-110.76 412.95,-18.99"/>
<polygon fill="#63b8ff" stroke="#63b8ff" points="413.71,-22.41 422.98,-17.27 412.53,-15.51 413.71,-22.41"/>
</a>
</g>
</g>
<!-- Node25 -->
<g id="Node000025" class="node">
<title>Node25</title>
<g id="a_Node000025"><a xlink:title=" ">
<polygon fill="#e0e0e0" stroke="#999999" points="1253,-145.5 1204,-145.5 1204,-126.5 1253,-126.5 1253,-145.5"/>
<text text-anchor="middle" x="1228.5" y="-133.5" font-family="Helvetica,sans-Serif" font-size="10.00">cstdlib</text>
</a>
</g>
</g>
<!-- Node24&#45;&gt;Node25 -->
<g id="edge32_Node000024_Node000025" class="edge">
<title>Node24&#45;&gt;Node25</title>
<g id="a_edge32_Node000024_Node000025"><a xlink:title=" ">
<path fill="none" stroke="#63b8ff" d="M1024.17,-187.85C1066.98,-180.1 1133.22,-166.99 1189.5,-151 1191.92,-150.31 1194.41,-149.55 1196.9,-148.75"/>
<polygon fill="#63b8ff" stroke="#63b8ff" points="1198.05,-152.05 1206.4,-145.52 1195.8,-145.43 1198.05,-152.05"/>
</a>
</g>
</g>
<!-- Node26 -->
<g id="Node000026" class="node">
<title>Node26</title>
<g id="a_Node000026"><a xlink:href="pair__traits_8hpp.html" target="_top" xlink:title=" ">
<polygon fill="white" stroke="#666666" points="740.5,-145.5 614.5,-145.5 614.5,-126.5 740.5,-126.5 740.5,-145.5"/>
<text text-anchor="middle" x="677.5" y="-133.5" font-family="Helvetica,sans-Serif" font-size="10.00">../value/pair_traits.hpp</text>
</a>
</g>
</g>
<!-- Node24&#45;&gt;Node26 -->
<g id="edge38_Node000024_Node000026" class="edge">
<title>Node24&#45;&gt;Node26</title>
<g id="a_edge38_Node000024_Node000026"><a xlink:title=" ">
<path fill="none" stroke="#63b8ff" d="M935.59,-186.99C881.57,-176.53 789.89,-158.77 731.59,-147.48"/>
<polygon fill="#63b8ff" stroke="#63b8ff" points="731.95,-143.98 721.47,-145.52 730.62,-150.85 731.95,-143.98"/>
</a>
</g>
</g>
<!-- Node33 -->
<g id="Node000033" class="node">
<title>Node33</title>
<g id="a_Node000033"><a xlink:href="quadruple__traits_8hpp.html" target="_top" xlink:title=" ">
<polygon fill="white" stroke="#666666" points="892.5,-151 788.5,-151 788.5,-121 892.5,-121 892.5,-151"/>
<text text-anchor="start" x="796.5" y="-139" font-family="Helvetica,sans-Serif" font-size="10.00">../value/quadruple</text>
<text text-anchor="middle" x="840.5" y="-128" font-family="Helvetica,sans-Serif" font-size="10.00">_traits.hpp</text>
</a>
</g>
</g>
<!-- Node24&#45;&gt;Node33 -->
<g id="edge52_Node000024_Node000033" class="edge">
<title>Node24&#45;&gt;Node33</title>
<g id="a_edge52_Node000024_Node000033"><a xlink:title=" ">
<path fill="none" stroke="#63b8ff" d="M959.29,-186.99C939.46,-178.65 908.6,-165.66 883.31,-155.02"/>
<polygon fill="#63b8ff" stroke="#63b8ff" points="884.49,-151.72 873.92,-151.06 881.78,-158.17 884.49,-151.72"/>
</a>
</g>
</g>
<!-- Node35 -->
<g id="Node000035" class="node">
<title>Node35</title>
<g id="a_Node000035"><a xlink:href="string__traits_8hpp.html" target="_top" xlink:title=" ">
<polygon fill="white" stroke="#666666" points="565,-145.5 430,-145.5 430,-126.5 565,-126.5 565,-145.5"/>
<text text-anchor="middle" x="497.5" y="-133.5" font-family="Helvetica,sans-Serif" font-size="10.00">../value/string_traits.hpp</text>
</a>
</g>
</g>
<!-- Node24&#45;&gt;Node35 -->
<g id="edge58_Node000024_Node000035" class="edge">
<title>Node24&#45;&gt;Node35</title>
<g id="a_edge58_Node000024_Node000035"><a xlink:title=" ">
<path fill="none" stroke="#63b8ff" d="M934.73,-188.3C931.61,-187.84 928.51,-187.41 925.5,-187 783.67,-167.87 747.58,-168.2 605.5,-151 594.65,-149.69 583.19,-148.25 571.96,-146.82"/>
<polygon fill="#63b8ff" stroke="#63b8ff" points="572.09,-143.31 561.72,-145.51 571.2,-150.25 572.09,-143.31"/>
</a>
</g>
</g>
<!-- Node38 -->
<g id="Node000038" class="node">
<title>Node38</title>
<g id="a_Node000038"><a xlink:href="triple__traits_8hpp.html" target="_top" xlink:title=" ">
<polygon fill="white" stroke="#666666" points="1046,-145.5 913,-145.5 913,-126.5 1046,-126.5 1046,-145.5"/>
<text text-anchor="middle" x="979.5" y="-133.5" font-family="Helvetica,sans-Serif" font-size="10.00">../value/triple_traits.hpp</text>
</a>
</g>
</g>
<!-- Node24&#45;&gt;Node38 -->
<g id="edge65_Node000024_Node000038" class="edge">
<title>Node24&#45;&gt;Node38</title>
<g id="a_edge65_Node000024_Node000038"><a xlink:title=" ">
<path fill="none" stroke="#63b8ff" d="M979.5,-186.87C979.5,-178.75 979.5,-166.31 979.5,-155.89"/>
<polygon fill="#63b8ff" stroke="#63b8ff" points="983,-155.67 979.5,-145.67 976,-155.67 983,-155.67"/>
</a>
</g>
</g>
<!-- Node26&#45;&gt;Node11 -->
<g id="edge51_Node000026_Node000011" class="edge">
<title>Node26&#45;&gt;Node11</title>
<g id="a_edge51_Node000026_Node000011"><a xlink:title=" ">
<path fill="none" stroke="#63b8ff" d="M677.91,-126.44C678.87,-106.54 681.27,-56.76 682.59,-29.35"/>
<polygon fill="#63b8ff" stroke="#63b8ff" points="686.1,-29.27 683.08,-19.12 679.11,-28.94 686.1,-29.27"/>
</a>
</g>
</g>
<!-- Node26&#45;&gt;Node15 -->
<g id="edge49_Node000026_Node000015" class="edge">
<title>Node26&#45;&gt;Node15</title>
<g id="a_edge49_Node000026_Node000015"><a xlink:title=" ">
<path fill="none" stroke="#63b8ff" d="M681.83,-126.44C690.88,-109.54 713.55,-72.04 744.5,-55 795.15,-27.12 967.06,-15.73 1042.04,-12.02"/>
<polygon fill="#63b8ff" stroke="#63b8ff" points="1042.55,-15.49 1052.37,-11.52 1042.22,-8.5 1042.55,-15.49"/>
</a>
</g>
</g>
<!-- Node27 -->
<g id="Node000027" class="node">
<title>Node27</title>
<g id="a_Node000027"><a xlink:href="pair_8hpp.html" target="_top" xlink:title=" ">
<polygon fill="white" stroke="#666666" points="469.5,-79.5 413.5,-79.5 413.5,-60.5 469.5,-60.5 469.5,-79.5"/>
<text text-anchor="middle" x="441.5" y="-67.5" font-family="Helvetica,sans-Serif" font-size="10.00">pair.hpp</text>
</a>
</g>
</g>
<!-- Node26&#45;&gt;Node27 -->
<g id="edge39_Node000026_Node000027" class="edge">
<title>Node26&#45;&gt;Node27</title>
<g id="a_edge39_Node000026_Node000027"><a xlink:title=" ">
<path fill="none" stroke="#63b8ff" d="M645.67,-126.37C602.51,-114.66 525.53,-93.79 479.42,-81.28"/>
<polygon fill="#63b8ff" stroke="#63b8ff" points="480.09,-77.84 469.52,-78.6 478.25,-84.59 480.09,-77.84"/>
</a>
</g>
</g>
<!-- Node29 -->
<g id="Node000029" class="node">
<title>Node29</title>
<g id="a_Node000029"><a xlink:href="value__traits_8hpp.html" target="_top" xlink:title=" ">
<polygon fill="white" stroke="#666666" points="621,-79.5 526,-79.5 526,-60.5 621,-60.5 621,-79.5"/>
<text text-anchor="middle" x="573.5" y="-67.5" font-family="Helvetica,sans-Serif" font-size="10.00">value_traits.hpp</text>
</a>
</g>
</g>
<!-- Node26&#45;&gt;Node29 -->
<g id="edge41_Node000026_Node000029" class="edge">
<title>Node26&#45;&gt;Node29</title>
<g id="a_edge41_Node000026_Node000029"><a xlink:title=" ">
<path fill="none" stroke="#63b8ff" d="M663.47,-126.37C646.26,-115.78 616.84,-97.67 596.35,-85.06"/>
<polygon fill="#63b8ff" stroke="#63b8ff" points="597.99,-81.96 587.64,-79.7 594.32,-87.92 597.99,-81.96"/>
</a>
</g>
</g>
<!-- Node32 -->
<g id="Node000032" class="node">
<title>Node32</title>
<g id="a_Node000032"><a xlink:title=" ">
<polygon fill="#e0e0e0" stroke="#999999" points="809.5,-79.5 753.5,-79.5 753.5,-60.5 809.5,-60.5 809.5,-79.5"/>
<text text-anchor="middle" x="781.5" y="-67.5" font-family="Helvetica,sans-Serif" font-size="10.00">sstream</text>
</a>
</g>
</g>
<!-- Node26&#45;&gt;Node32 -->
<g id="edge50_Node000026_Node000032" class="edge">
<title>Node26&#45;&gt;Node32</title>
<g id="a_edge50_Node000026_Node000032"><a xlink:title=" ">
<path fill="none" stroke="#63b8ff" d="M691.53,-126.37C708.74,-115.78 738.16,-97.67 758.65,-85.06"/>
<polygon fill="#63b8ff" stroke="#63b8ff" points="760.68,-87.92 767.36,-79.7 757.01,-81.96 760.68,-87.92"/>
</a>
</g>
</g>
<!-- Node28 -->
<g id="Node000028" class="node">
<title>Node28</title>
<g id="a_Node000028"><a xlink:title=" ">
<polygon fill="#e0e0e0" stroke="#999999" points="405,-19 360,-19 360,0 405,0 405,-19"/>
<text text-anchor="middle" x="382.5" y="-7" font-family="Helvetica,sans-Serif" font-size="10.00">utility</text>
</a>
</g>
</g>
<!-- Node27&#45;&gt;Node28 -->
<g id="edge40_Node000027_Node000028" class="edge">
<title>Node27&#45;&gt;Node28</title>
<g id="a_edge40_Node000027_Node000028"><a xlink:title=" ">
<path fill="none" stroke="#63b8ff" d="M432.79,-60.37C423.82,-51.47 409.62,-37.39 398.59,-26.45"/>
<polygon fill="#63b8ff" stroke="#63b8ff" points="400.81,-23.72 391.24,-19.17 395.88,-28.69 400.81,-23.72"/>
</a>
</g>
</g>
<!-- Node29&#45;&gt;Node8 -->
<g id="edge45_Node000029_Node000008" class="edge">
<title>Node29&#45;&gt;Node8</title>
<g id="a_edge45_Node000029_Node000008"><a xlink:title=" ">
<path fill="none" stroke="#63b8ff" d="M525.93,-61.05C456.56,-49.45 328.85,-28.11 263.82,-17.24"/>
<polygon fill="#63b8ff" stroke="#63b8ff" points="264.39,-13.79 253.94,-15.59 263.23,-20.69 264.39,-13.79"/>
</a>
</g>
</g>
<!-- Node29&#45;&gt;Node11 -->
<g id="edge47_Node000029_Node000011" class="edge">
<title>Node29&#45;&gt;Node11</title>
<g id="a_edge47_Node000029_Node000011"><a xlink:title=" ">
<path fill="none" stroke="#63b8ff" d="M589.73,-60.37C607.77,-50.78 637.12,-35.17 658.18,-23.97"/>
<polygon fill="#63b8ff" stroke="#63b8ff" points="660.02,-26.95 667.2,-19.17 656.73,-20.77 660.02,-26.95"/>
</a>
</g>
</g>
<!-- Node29&#45;&gt;Node14 -->
<g id="edge43_Node000029_Node000014" class="edge">
<title>Node29&#45;&gt;Node14</title>
<g id="a_edge43_Node000029_Node000014"><a xlink:title=" ">
<path fill="none" stroke="#63b8ff" d="M621.04,-65.1C655.35,-62.29 702.79,-58.41 744.5,-55 936.83,-39.27 1167.34,-20.47 1254.14,-13.38"/>
<polygon fill="#63b8ff" stroke="#63b8ff" points="1254.56,-16.86 1264.24,-12.56 1253.99,-9.89 1254.56,-16.86"/>
</a>
</g>
</g>
<!-- Node29&#45;&gt;Node15 -->
<g id="edge44_Node000029_Node000015" class="edge">
<title>Node29&#45;&gt;Node15</title>
<g id="a_edge44_Node000029_Node000015"><a xlink:title=" ">
<path fill="none" stroke="#63b8ff" d="M621.02,-62.06C637.61,-59.71 656.37,-57.14 673.5,-55 809.69,-37.97 972.16,-21.13 1042.35,-14.02"/>
<polygon fill="#63b8ff" stroke="#63b8ff" points="1042.82,-17.49 1052.41,-13 1042.11,-10.53 1042.82,-17.49"/>
</a>
</g>
</g>
<!-- Node29&#45;&gt;Node17 -->
<g id="edge46_Node000029_Node000017" class="edge">
<title>Node29&#45;&gt;Node17</title>
<g id="a_edge46_Node000029_Node000017"><a xlink:title=" ">
<path fill="none" stroke="#63b8ff" d="M556.34,-60.49C536.77,-50.79 504.53,-34.81 481.78,-23.53"/>
<polygon fill="#63b8ff" stroke="#63b8ff" points="483.19,-20.32 472.68,-19.02 480.08,-26.59 483.19,-20.32"/>
</a>
</g>
</g>
<!-- Node30 -->
<g id="Node000030" class="node">
<title>Node30</title>
<g id="a_Node000030"><a xlink:title=" ">
<polygon fill="#e0e0e0" stroke="#999999" points="643.5,-19 593.5,-19 593.5,0 643.5,0 643.5,-19"/>
<text text-anchor="middle" x="618.5" y="-7" font-family="Helvetica,sans-Serif" font-size="10.00">cstdint</text>
</a>
</g>
</g>
<!-- Node29&#45;&gt;Node30 -->
<g id="edge42_Node000029_Node000030" class="edge">
<title>Node29&#45;&gt;Node30</title>
<g id="a_edge42_Node000029_Node000030"><a xlink:title=" ">
<path fill="none" stroke="#63b8ff" d="M580.14,-60.37C586.79,-51.73 597.19,-38.2 605.49,-27.42"/>
<polygon fill="#63b8ff" stroke="#63b8ff" points="608.51,-29.23 611.83,-19.17 602.96,-24.96 608.51,-29.23"/>
</a>
</g>
</g>
<!-- Node31 -->
<g id="Node000031" class="node">
<title>Node31</title>
<g id="a_Node000031"><a xlink:title=" ">
<polygon fill="#e0e0e0" stroke="#999999" points="575,-19 506,-19 506,0 575,0 575,-19"/>
<text text-anchor="middle" x="540.5" y="-7" font-family="Helvetica,sans-Serif" font-size="10.00">type_traits</text>
</a>
</g>
</g>
<!-- Node29&#45;&gt;Node31 -->
<g id="edge48_Node000029_Node000031" class="edge">
<title>Node29&#45;&gt;Node31</title>
<g id="a_edge48_Node000029_Node000031"><a xlink:title=" ">
<path fill="none" stroke="#63b8ff" d="M568.63,-60.37C563.85,-51.9 556.43,-38.74 550.41,-28.07"/>
<polygon fill="#63b8ff" stroke="#63b8ff" points="553.35,-26.16 545.39,-19.17 547.25,-29.6 553.35,-26.16"/>
</a>
</g>
</g>
<!-- Node33&#45;&gt;Node11 -->
<g id="edge57_Node000033_Node000011" class="edge">
<title>Node33&#45;&gt;Node11</title>
<g id="a_edge57_Node000033_Node000011"><a xlink:title=" ">
<path fill="none" stroke="#63b8ff" d="M840.48,-120.92C839.68,-103.24 835.67,-73.06 818.5,-55 791.57,-26.69 746.31,-16.38 715.7,-12.63"/>
<polygon fill="#63b8ff" stroke="#63b8ff" points="715.84,-9.12 705.53,-11.56 715.11,-16.08 715.84,-9.12"/>
</a>
</g>
</g>
<!-- Node33&#45;&gt;Node15 -->
<g id="edge55_Node000033_Node000015" class="edge">
<title>Node33&#45;&gt;Node15</title>
<g id="a_edge55_Node000033_Node000015"><a xlink:title=" ">
<path fill="none" stroke="#63b8ff" d="M878.83,-120.98C902.77,-111.74 933.99,-98.83 960.5,-85 995.93,-66.51 1034.6,-40.68 1057.41,-24.8"/>
<polygon fill="#63b8ff" stroke="#63b8ff" points="1059.44,-27.65 1065.62,-19.04 1055.42,-21.92 1059.44,-27.65"/>
</a>
</g>
</g>
<!-- Node33&#45;&gt;Node29 -->
<g id="edge54_Node000033_Node000029" class="edge">
<title>Node33&#45;&gt;Node29</title>
<g id="a_edge54_Node000033_Node000029"><a xlink:title=" ">
<path fill="none" stroke="#63b8ff" d="M788.39,-122.51C739.18,-110.71 666.13,-93.2 619.16,-81.94"/>
<polygon fill="#63b8ff" stroke="#63b8ff" points="619.8,-78.5 609.26,-79.57 618.17,-85.31 619.8,-78.5"/>
</a>
</g>
</g>
<!-- Node33&#45;&gt;Node32 -->
<g id="edge56_Node000033_Node000032" class="edge">
<title>Node33&#45;&gt;Node32</title>
<g id="a_edge56_Node000033_Node000032"><a xlink:title=" ">
<path fill="none" stroke="#63b8ff" d="M827.41,-120.8C818.3,-110.92 806.13,-97.72 796.61,-87.39"/>
<polygon fill="#63b8ff" stroke="#63b8ff" points="799,-84.82 789.65,-79.84 793.86,-89.57 799,-84.82"/>
</a>
</g>
</g>
<!-- Node34 -->
<g id="Node000034" class="node">
<title>Node34</title>
<g id="a_Node000034"><a xlink:href="quadruple_8hpp.html" target="_top" xlink:title=" ">
<polygon fill="white" stroke="#666666" points="951.5,-79.5 865.5,-79.5 865.5,-60.5 951.5,-60.5 951.5,-79.5"/>
<text text-anchor="middle" x="908.5" y="-67.5" font-family="Helvetica,sans-Serif" font-size="10.00">quadruple.hpp</text>
</a>
</g>
</g>
<!-- Node33&#45;&gt;Node34 -->
<g id="edge53_Node000033_Node000034" class="edge">
<title>Node33&#45;&gt;Node34</title>
<g id="a_edge53_Node000033_Node000034"><a xlink:title=" ">
<path fill="none" stroke="#63b8ff" d="M855.59,-120.8C866.3,-110.72 880.67,-97.19 891.73,-86.78"/>
<polygon fill="#63b8ff" stroke="#63b8ff" points="894.22,-89.25 899.1,-79.84 889.42,-84.15 894.22,-89.25"/>
</a>
</g>
</g>
<!-- Node35&#45;&gt;Node11 -->
<g id="edge62_Node000035_Node000011" class="edge">
<title>Node35&#45;&gt;Node11</title>
<g id="a_edge62_Node000035_Node000011"><a xlink:title=" ">
<path fill="none" stroke="#63b8ff" d="M496.88,-126.18C496.25,-109.81 497.37,-74.63 516.5,-55 558.01,-12.41 588.98,-32.99 651.59,-19"/>
<polygon fill="#63b8ff" stroke="#63b8ff" points="652.62,-22.35 661.49,-16.56 650.94,-15.56 652.62,-22.35"/>
</a>
</g>
</g>
<!-- Node35&#45;&gt;Node15 -->
<g id="edge60_Node000035_Node000015" class="edge">
<title>Node35&#45;&gt;Node15</title>
<g id="a_edge60_Node000035_Node000015"><a xlink:title=" ">
<path fill="none" stroke="#63b8ff" d="M520.42,-126.39C546.76,-116.48 591.3,-99.68 629.5,-85 663.78,-71.83 670.87,-63.92 706.5,-55 827.21,-24.76 975.32,-14.85 1042,-11.79"/>
<polygon fill="#63b8ff" stroke="#63b8ff" points="1042.52,-15.27 1052.36,-11.34 1042.22,-8.27 1042.52,-15.27"/>
</a>
</g>
</g>
<!-- Node35&#45;&gt;Node17 -->
<g id="edge61_Node000035_Node000017" class="edge">
<title>Node35&#45;&gt;Node17</title>
<g id="a_edge61_Node000035_Node000017"><a xlink:title=" ">
<path fill="none" stroke="#63b8ff" d="M429.95,-128.38C345.87,-119.46 211.44,-102.63 196.5,-85 95.71,33.91 -26.78,-98.36 412.81,-19.05"/>
<polygon fill="#63b8ff" stroke="#63b8ff" points="413.75,-22.44 422.96,-17.2 412.5,-15.55 413.75,-22.44"/>
</a>
</g>
</g>
<!-- Node35&#45;&gt;Node29 -->
<g id="edge64_Node000035_Node000029" class="edge">
<title>Node35&#45;&gt;Node29</title>
<g id="a_edge64_Node000035_Node000029"><a xlink:title=" ">
<path fill="none" stroke="#63b8ff" d="M507.75,-126.37C519.81,-116.21 540.06,-99.16 554.91,-86.65"/>
<polygon fill="#63b8ff" stroke="#63b8ff" points="557.53,-89.02 562.93,-79.91 553.02,-83.67 557.53,-89.02"/>
</a>
</g>
</g>
<!-- Node36 -->
<g id="Node000036" class="node">
<title>Node36</title>
<g id="a_Node000036"><a xlink:title=" ">
<polygon fill="#e0e0e0" stroke="#999999" points="395.5,-79.5 349.5,-79.5 349.5,-60.5 395.5,-60.5 395.5,-79.5"/>
<text text-anchor="middle" x="372.5" y="-67.5" font-family="Helvetica,sans-Serif" font-size="10.00">cstdio</text>
</a>
</g>
</g>
<!-- Node35&#45;&gt;Node36 -->
<g id="edge59_Node000035_Node000036" class="edge">
<title>Node35&#45;&gt;Node36</title>
<g id="a_edge59_Node000035_Node000036"><a xlink:title=" ">
<path fill="none" stroke="#63b8ff" d="M480.64,-126.37C459.58,-115.59 423.32,-97.02 398.64,-84.38"/>
<polygon fill="#63b8ff" stroke="#63b8ff" points="399.99,-81.14 389.49,-79.7 396.8,-87.37 399.99,-81.14"/>
</a>
</g>
</g>
<!-- Node37 -->
<g id="Node000037" class="node">
<title>Node37</title>
<g id="a_Node000037"><a xlink:title=" ">
<polygon fill="#e0e0e0" stroke="#999999" points="331,-85 206,-85 206,-55 331,-55 331,-85"/>
<text text-anchor="start" x="214" y="-73" font-family="Helvetica,sans-Serif" font-size="10.00">boost/algorithm/string</text>
<text text-anchor="middle" x="268.5" y="-62" font-family="Helvetica,sans-Serif" font-size="10.00">/trim.hpp</text>
</a>
</g>
</g>
<!-- Node35&#45;&gt;Node37 -->
<g id="edge63_Node000035_Node000037" class="edge">
<title>Node35&#45;&gt;Node37</title>
<g id="a_edge63_Node000035_Node000037"><a xlink:title=" ">
<path fill="none" stroke="#63b8ff" d="M466.62,-126.37C431.43,-116.54 373.08,-100.23 328.8,-87.85"/>
<polygon fill="#63b8ff" stroke="#63b8ff" points="329.58,-84.44 319.01,-85.12 327.7,-91.18 329.58,-84.44"/>
</a>
</g>
</g>
<!-- Node38&#45;&gt;Node11 -->
<g id="edge70_Node000038_Node000011" class="edge">
<title>Node38&#45;&gt;Node11</title>
<g id="a_edge70_Node000038_Node000011"><a xlink:title=" ">
<path fill="none" stroke="#63b8ff" d="M980.28,-126.26C981.24,-109.7 980.69,-73.75 960.5,-55 925.42,-22.43 780.91,-13.64 715.69,-11.31"/>
<polygon fill="#63b8ff" stroke="#63b8ff" points="715.68,-7.81 705.57,-10.98 715.45,-14.81 715.68,-7.81"/>
</a>
</g>
</g>
<!-- Node38&#45;&gt;Node15 -->
<g id="edge68_Node000038_Node000015" class="edge">
<title>Node38&#45;&gt;Node15</title>
<g id="a_edge68_Node000038_Node000015"><a xlink:title=" ">
<path fill="none" stroke="#63b8ff" d="M1046.17,-127.43C1072.9,-120.75 1101.19,-108.26 1117.5,-85 1130.97,-65.79 1112.03,-41.52 1095.89,-26"/>
<polygon fill="#63b8ff" stroke="#63b8ff" points="1098.11,-23.29 1088.35,-19.15 1093.4,-28.47 1098.11,-23.29"/>
</a>
</g>
</g>
<!-- Node38&#45;&gt;Node29 -->
<g id="edge67_Node000038_Node000029" class="edge">
<title>Node38&#45;&gt;Node29</title>
<g id="a_edge67_Node000038_Node000029"><a xlink:title=" ">
<path fill="none" stroke="#63b8ff" d="M932.93,-126.43C922.59,-124.59 911.68,-122.69 901.5,-121 806.97,-105.31 696.8,-88.9 631.22,-79.33"/>
<polygon fill="#63b8ff" stroke="#63b8ff" points="631.49,-75.83 621.09,-77.85 630.48,-82.76 631.49,-75.83"/>
</a>
</g>
</g>
<!-- Node38&#45;&gt;Node32 -->
<g id="edge69_Node000038_Node000032" class="edge">
<title>Node38&#45;&gt;Node32</title>
<g id="a_edge69_Node000038_Node000032"><a xlink:title=" ">
<path fill="none" stroke="#63b8ff" d="M952.8,-126.37C918.01,-115.12 857.04,-95.42 818,-82.8"/>
<polygon fill="#63b8ff" stroke="#63b8ff" points="818.69,-79.34 808.1,-79.6 816.53,-86 818.69,-79.34"/>
</a>
</g>
</g>
<!-- Node39 -->
<g id="Node000039" class="node">
<title>Node39</title>
<g id="a_Node000039"><a xlink:href="triple_8hpp.html" target="_top" xlink:title=" ">
<polygon fill="white" stroke="#666666" points="1109,-79.5 1046,-79.5 1046,-60.5 1109,-60.5 1109,-79.5"/>
<text text-anchor="middle" x="1077.5" y="-67.5" font-family="Helvetica,sans-Serif" font-size="10.00">triple.hpp</text>
</a>
</g>
</g>
<!-- Node38&#45;&gt;Node39 -->
<g id="edge66_Node000038_Node000039" class="edge">
<title>Node38&#45;&gt;Node39</title>
<g id="a_edge66_Node000038_Node000039"><a xlink:title=" ">
<path fill="none" stroke="#63b8ff" d="M992.72,-126.37C1008.86,-115.82 1036.41,-97.84 1055.71,-85.23"/>
<polygon fill="#63b8ff" stroke="#63b8ff" points="1057.72,-88.1 1064.18,-79.7 1053.89,-82.24 1057.72,-88.1"/>
</a>
</g>
</g>
</g>
</svg>
