<?xml version="1.0" encoding="UTF-8" standalone="no"?>
<!DOCTYPE svg PUBLIC "-//W3C//DTD SVG 1.1//EN"
 "http://www.w3.org/Graphics/SVG/1.1/DTD/svg11.dtd">
<!-- Generated by graphviz version 2.43.0 (0)
 -->
<!-- Title: netspeak/invertedindex/PostlistBuilder.hpp Pages: 1 -->
<svg width="1754pt" height="445pt"
 viewBox="0.00 0.00 1753.50 445.00" xmlns="http://www.w3.org/2000/svg" xmlns:xlink="http://www.w3.org/1999/xlink">
<g id="graph0" class="graph" transform="scale(1 1) rotate(0) translate(4 441)">
<title>netspeak/invertedindex/PostlistBuilder.hpp</title>
<!-- Node1 -->
<g id="Node000001" class="node">
<title>Node1</title>
<g id="a_Node000001"><a xlink:title=" ">
<polygon fill="#999999" stroke="#666666" points="1252.5,-437 1120.5,-437 1120.5,-407 1252.5,-407 1252.5,-437"/>
<text text-anchor="start" x="1128.5" y="-425" font-family="Helvetica,sans-Serif" font-size="10.00">netspeak/invertedindex</text>
<text text-anchor="middle" x="1186.5" y="-414" font-family="Helvetica,sans-Serif" font-size="10.00">/PostlistBuilder.hpp</text>
</a>
</g>
</g>
<!-- Node2 -->
<g id="Node000002" class="node">
<title>Node2</title>
<g id="a_Node000002"><a xlink:title=" ">
<polygon fill="#e0e0e0" stroke="#999999" points="897.5,-19 847.5,-19 847.5,0 897.5,0 897.5,-19"/>
<text text-anchor="middle" x="872.5" y="-7" font-family="Helvetica,sans-Serif" font-size="10.00">format</text>
</a>
</g>
</g>
<!-- Node1&#45;&gt;Node2 -->
<g id="edge1_Node000001_Node000002" class="edge">
<title>Node1&#45;&gt;Node2</title>
<g id="a_edge1_Node000001_Node000002"><a xlink:title=" ">
<path fill="none" stroke="#63b8ff" d="M1120.29,-410.79C1028.17,-394.69 872.5,-359.74 872.5,-307.5 872.5,-307.5 872.5,-307.5 872.5,-135 872.5,-97.49 872.5,-53.63 872.5,-29.26"/>
<polygon fill="#63b8ff" stroke="#63b8ff" points="876,-29.25 872.5,-19.25 869,-29.25 876,-29.25"/>
</a>
</g>
</g>
<!-- Node3 -->
<g id="Node000003" class="node">
<title>Node3</title>
<g id="a_Node000003"><a xlink:title=" ">
<polygon fill="#e0e0e0" stroke="#999999" points="844.5,-371 800.5,-371 800.5,-352 844.5,-352 844.5,-371"/>
<text text-anchor="middle" x="822.5" y="-359" font-family="Helvetica,sans-Serif" font-size="10.00">limits</text>
</a>
</g>
</g>
<!-- Node1&#45;&gt;Node3 -->
<g id="edge2_Node000001_Node000003" class="edge">
<title>Node1&#45;&gt;Node3</title>
<g id="a_edge2_Node000001_Node000003"><a xlink:title=" ">
<path fill="none" stroke="#63b8ff" d="M1120.27,-412.5C1053.82,-403.6 948.69,-388.49 858.5,-371 857.22,-370.75 855.92,-370.49 854.61,-370.22"/>
<polygon fill="#63b8ff" stroke="#63b8ff" points="855.04,-366.73 844.52,-368 853.54,-373.57 855.04,-366.73"/>
</a>
</g>
</g>
<!-- Node4 -->
<g id="Node000004" class="node">
<title>Node4</title>
<g id="a_Node000004"><a xlink:title=" ">
<polygon fill="#e0e0e0" stroke="#999999" points="1691.5,-145.5 1633.5,-145.5 1633.5,-126.5 1691.5,-126.5 1691.5,-145.5"/>
<text text-anchor="middle" x="1662.5" y="-133.5" font-family="Helvetica,sans-Serif" font-size="10.00">memory</text>
</a>
</g>
</g>
<!-- Node1&#45;&gt;Node4 -->
<g id="edge3_Node000001_Node000004" class="edge">
<title>Node1&#45;&gt;Node4</title>
<g id="a_edge3_Node000001_Node000004"><a xlink:title=" ">
<path fill="none" stroke="#63b8ff" d="M1196.18,-406.88C1225.3,-365.57 1316.81,-244.27 1424.5,-187 1495.38,-149.31 1523.04,-167.98 1601.5,-151 1608.66,-149.45 1616.27,-147.75 1623.61,-146.08"/>
<polygon fill="#63b8ff" stroke="#63b8ff" points="1624.4,-149.49 1633.37,-143.84 1622.84,-142.66 1624.4,-149.49"/>
</a>
</g>
</g>
<!-- Node5 -->
<g id="Node000005" class="node">
<title>Node5</title>
<g id="a_Node000005"><a xlink:href="std__path__formatter_8hpp.html" target="_top" xlink:title="Defines an std::formatter for std::filesystem::path. MUST be deleted when C++26 is available with tha...">
<polygon fill="white" stroke="#666666" points="1271,-85 1146,-85 1146,-55 1271,-55 1271,-85"/>
<text text-anchor="start" x="1154" y="-73" font-family="Helvetica,sans-Serif" font-size="10.00">netspeak/util/std_path</text>
<text text-anchor="middle" x="1208.5" y="-62" font-family="Helvetica,sans-Serif" font-size="10.00">_formatter.hpp</text>
</a>
</g>
</g>
<!-- Node1&#45;&gt;Node5 -->
<g id="edge4_Node000001_Node000005" class="edge">
<title>Node1&#45;&gt;Node5</title>
<g id="a_edge4_Node000001_Node000005"><a xlink:title=" ">
<path fill="none" stroke="#63b8ff" d="M1155.38,-406.85C1121.32,-388.98 1071.5,-354.77 1071.5,-307.5 1071.5,-307.5 1071.5,-307.5 1071.5,-195.5 1071.5,-144.66 1123.8,-109.12 1163.78,-89.37"/>
<polygon fill="#63b8ff" stroke="#63b8ff" points="1165.34,-92.51 1172.86,-85.05 1162.33,-86.19 1165.34,-92.51"/>
</a>
</g>
</g>
<!-- Node8 -->
<g id="Node000008" class="node">
<title>Node8</title>
<g id="a_Node000008"><a xlink:title=" ">
<polygon fill="#e0e0e0" stroke="#999999" points="1155.5,-206 1099.5,-206 1099.5,-187 1155.5,-187 1155.5,-206"/>
<text text-anchor="middle" x="1127.5" y="-194" font-family="Helvetica,sans-Serif" font-size="10.00">numeric</text>
</a>
</g>
</g>
<!-- Node1&#45;&gt;Node8 -->
<g id="edge8_Node000001_Node000008" class="edge">
<title>Node1&#45;&gt;Node8</title>
<g id="a_edge8_Node000001_Node000008"><a xlink:title=" ">
<path fill="none" stroke="#63b8ff" d="M1182.72,-406.68C1172.42,-367.68 1143.9,-259.61 1132.4,-216.05"/>
<polygon fill="#63b8ff" stroke="#63b8ff" points="1135.74,-215.01 1129.8,-206.23 1128.97,-216.79 1135.74,-215.01"/>
</a>
</g>
</g>
<!-- Node9 -->
<g id="Node000009" class="node">
<title>Node9</title>
<g id="a_Node000009"><a xlink:title=" ">
<polygon fill="#e0e0e0" stroke="#999999" points="1446,-19 1381,-19 1381,0 1446,0 1446,-19"/>
<text text-anchor="middle" x="1413.5" y="-7" font-family="Helvetica,sans-Serif" font-size="10.00">stdexcept</text>
</a>
</g>
</g>
<!-- Node1&#45;&gt;Node9 -->
<g id="edge9_Node000001_Node000009" class="edge">
<title>Node1&#45;&gt;Node9</title>
<g id="a_edge9_Node000001_Node000009"><a xlink:title=" ">
<path fill="none" stroke="#63b8ff" d="M1252.54,-421.32C1400.46,-420.25 1745.5,-407.09 1745.5,-307.5 1745.5,-307.5 1745.5,-307.5 1745.5,-135 1745.5,-79.8 1700.38,-78.65 1650.5,-55 1587.24,-25.01 1505.49,-15.21 1456.41,-12.02"/>
<polygon fill="#63b8ff" stroke="#63b8ff" points="1456.34,-8.51 1446.15,-11.42 1455.93,-15.5 1456.34,-8.51"/>
</a>
</g>
</g>
<!-- Node10 -->
<g id="Node000010" class="node">
<title>Node10</title>
<g id="a_Node000010"><a xlink:title=" ">
<polygon fill="#e0e0e0" stroke="#999999" points="1269,-206 1174,-206 1174,-187 1269,-187 1269,-206"/>
<text text-anchor="middle" x="1221.5" y="-194" font-family="Helvetica,sans-Serif" font-size="10.00">boost/utility.hpp</text>
</a>
</g>
</g>
<!-- Node1&#45;&gt;Node10 -->
<g id="edge10_Node000001_Node000010" class="edge">
<title>Node1&#45;&gt;Node10</title>
<g id="a_edge10_Node000001_Node000010"><a xlink:title=" ">
<path fill="none" stroke="#63b8ff" d="M1188.74,-406.68C1194.84,-367.76 1211.7,-260.07 1218.55,-216.33"/>
<polygon fill="#63b8ff" stroke="#63b8ff" points="1222.04,-216.65 1220.13,-206.23 1215.13,-215.57 1222.04,-216.65"/>
</a>
</g>
</g>
<!-- Node11 -->
<g id="Node000011" class="node">
<title>Node11</title>
<g id="a_Node000011"><a xlink:href="netspeak_2util_2logging_8hpp.html" target="_top" xlink:title=" ">
<polygon fill="white" stroke="#666666" points="130,-79.5 29,-79.5 29,-60.5 130,-60.5 130,-79.5"/>
<text text-anchor="middle" x="79.5" y="-67.5" font-family="Helvetica,sans-Serif" font-size="10.00">../util/logging.hpp</text>
</a>
</g>
</g>
<!-- Node1&#45;&gt;Node11 -->
<g id="edge11_Node000001_Node000011" class="edge">
<title>Node1&#45;&gt;Node11</title>
<g id="a_edge11_Node000001_Node000011"><a xlink:title=" ">
<path fill="none" stroke="#63b8ff" d="M1120.16,-420.31C899.56,-417.16 204.5,-399.91 204.5,-307.5 204.5,-307.5 204.5,-307.5 204.5,-195.5 204.5,-141.66 145.56,-103.05 108.62,-84.15"/>
<polygon fill="#63b8ff" stroke="#63b8ff" points="109.82,-80.84 99.31,-79.56 106.73,-87.12 109.82,-80.84"/>
</a>
</g>
</g>
<!-- Node15 -->
<g id="Node000015" class="node">
<title>Node15</title>
<g id="a_Node000015"><a xlink:href="Iterator_8hpp.html" target="_top" xlink:title=" ">
<polygon fill="white" stroke="#666666" points="1499,-261 1426,-261 1426,-242 1499,-242 1499,-261"/>
<text text-anchor="middle" x="1462.5" y="-249" font-family="Helvetica,sans-Serif" font-size="10.00">Iterator.hpp</text>
</a>
</g>
</g>
<!-- Node1&#45;&gt;Node15 -->
<g id="edge16_Node000001_Node000015" class="edge">
<title>Node1&#45;&gt;Node15</title>
<g id="a_edge16_Node000001_Node000015"><a xlink:title=" ">
<path fill="none" stroke="#63b8ff" d="M1252.78,-413.03C1310.17,-404.93 1387.61,-390.78 1411.5,-371 1442.31,-345.49 1454.95,-297.91 1459.78,-271.46"/>
<polygon fill="#63b8ff" stroke="#63b8ff" points="1463.29,-271.68 1461.45,-261.25 1456.38,-270.56 1463.29,-271.68"/>
</a>
</g>
</g>
<!-- Node38 -->
<g id="Node000038" class="node">
<title>Node38</title>
<g id="a_Node000038"><a xlink:href="Postlist_8hpp.html" target="_top" xlink:title=" ">
<polygon fill="white" stroke="#666666" points="1542.5,-371 1468.5,-371 1468.5,-352 1542.5,-352 1542.5,-371"/>
<text text-anchor="middle" x="1505.5" y="-359" font-family="Helvetica,sans-Serif" font-size="10.00">Postlist.hpp</text>
</a>
</g>
</g>
<!-- Node1&#45;&gt;Node38 -->
<g id="edge69_Node000001_Node000038" class="edge">
<title>Node1&#45;&gt;Node38</title>
<g id="a_edge69_Node000001_Node000038"><a xlink:title=" ">
<path fill="none" stroke="#63b8ff" d="M1252.6,-408.88C1313.97,-397.62 1403.84,-381.14 1458.29,-371.16"/>
<polygon fill="#63b8ff" stroke="#63b8ff" points="1459.15,-374.56 1468.36,-369.31 1457.89,-367.67 1459.15,-374.56"/>
</a>
</g>
</g>
<!-- Node5&#45;&gt;Node2 -->
<g id="edge6_Node000005_Node000002" class="edge">
<title>Node5&#45;&gt;Node2</title>
<g id="a_edge6_Node000005_Node000002"><a xlink:title=" ">
<path fill="none" stroke="#63b8ff" d="M1145.8,-56.54C1143,-56.01 1140.22,-55.5 1137.5,-55 1055.45,-40.02 958.76,-24.26 907.89,-16.12"/>
<polygon fill="#63b8ff" stroke="#63b8ff" points="908.18,-12.62 897.75,-14.5 907.08,-19.53 908.18,-12.62"/>
</a>
</g>
</g>
<!-- Node6 -->
<g id="Node000006" class="node">
<title>Node6</title>
<g id="a_Node000006"><a xlink:title=" ">
<polygon fill="#e0e0e0" stroke="#999999" points="1302.5,-19 1234.5,-19 1234.5,0 1302.5,0 1302.5,-19"/>
<text text-anchor="middle" x="1268.5" y="-7" font-family="Helvetica,sans-Serif" font-size="10.00">filesystem</text>
</a>
</g>
</g>
<!-- Node5&#45;&gt;Node6 -->
<g id="edge5_Node000005_Node000006" class="edge">
<title>Node5&#45;&gt;Node6</title>
<g id="a_edge5_Node000005_Node000006"><a xlink:title=" ">
<path fill="none" stroke="#63b8ff" d="M1223.02,-54.84C1231.82,-46.26 1243.07,-35.3 1252.17,-26.42"/>
<polygon fill="#63b8ff" stroke="#63b8ff" points="1254.79,-28.75 1259.51,-19.27 1249.91,-23.74 1254.79,-28.75"/>
</a>
</g>
</g>
<!-- Node7 -->
<g id="Node000007" class="node">
<title>Node7</title>
<g id="a_Node000007"><a xlink:title=" ">
<polygon fill="#e0e0e0" stroke="#999999" points="546.5,-19 502.5,-19 502.5,0 546.5,0 546.5,-19"/>
<text text-anchor="middle" x="524.5" y="-7" font-family="Helvetica,sans-Serif" font-size="10.00">string</text>
</a>
</g>
</g>
<!-- Node5&#45;&gt;Node7 -->
<g id="edge7_Node000005_Node000007" class="edge">
<title>Node5&#45;&gt;Node7</title>
<g id="a_edge7_Node000005_Node000007"><a xlink:title=" ">
<path fill="none" stroke="#63b8ff" d="M1145.85,-56.19C1143.03,-55.76 1140.24,-55.36 1137.5,-55 891.51,-22.94 827.14,-45.64 580.5,-19 572.68,-18.16 564.29,-17.01 556.43,-15.83"/>
<polygon fill="#63b8ff" stroke="#63b8ff" points="556.94,-12.37 546.52,-14.29 555.86,-19.29 556.94,-12.37"/>
</a>
</g>
</g>
<!-- Node11&#45;&gt;Node7 -->
<g id="edge15_Node000011_Node000007" class="edge">
<title>Node11&#45;&gt;Node7</title>
<g id="a_edge15_Node000011_Node000007"><a xlink:title=" ">
<path fill="none" stroke="#63b8ff" d="M113,-60.47C121.6,-58.48 130.86,-56.5 139.5,-55 269.17,-32.45 425.46,-18.38 491.98,-13"/>
<polygon fill="#63b8ff" stroke="#63b8ff" points="492.55,-16.46 502.24,-12.18 491.99,-9.48 492.55,-16.46"/>
</a>
</g>
</g>
<!-- Node12 -->
<g id="Node000012" class="node">
<title>Node12</title>
<g id="a_Node000012"><a xlink:title=" ">
<polygon fill="#e0e0e0" stroke="#999999" points="381.5,-19 321.5,-19 321.5,0 381.5,0 381.5,-19"/>
<text text-anchor="middle" x="351.5" y="-7" font-family="Helvetica,sans-Serif" font-size="10.00">iostream</text>
</a>
</g>
</g>
<!-- Node11&#45;&gt;Node12 -->
<g id="edge12_Node000011_Node000012" class="edge">
<title>Node11&#45;&gt;Node12</title>
<g id="a_edge12_Node000011_Node000012"><a xlink:title=" ">
<path fill="none" stroke="#63b8ff" d="M115.64,-60.43C123.5,-58.6 131.77,-56.71 139.5,-55 199.2,-41.77 268.58,-27.4 311.27,-18.67"/>
<polygon fill="#63b8ff" stroke="#63b8ff" points="312.16,-22.06 321.26,-16.63 310.76,-15.2 312.16,-22.06"/>
</a>
</g>
</g>
<!-- Node13 -->
<g id="Node000013" class="node">
<title>Node13</title>
<g id="a_Node000013"><a xlink:title=" ">
<polygon fill="#e0e0e0" stroke="#999999" points="53,-19 0,-19 0,0 53,0 53,-19"/>
<text text-anchor="middle" x="26.5" y="-7" font-family="Helvetica,sans-Serif" font-size="10.00">iterator</text>
</a>
</g>
</g>
<!-- Node11&#45;&gt;Node13 -->
<g id="edge13_Node000011_Node000013" class="edge">
<title>Node11&#45;&gt;Node13</title>
<g id="a_edge13_Node000011_Node000013"><a xlink:title=" ">
<path fill="none" stroke="#63b8ff" d="M71.68,-60.37C63.69,-51.55 51.11,-37.66 41.24,-26.77"/>
<polygon fill="#63b8ff" stroke="#63b8ff" points="43.66,-24.23 34.35,-19.17 38.47,-28.93 43.66,-24.23"/>
</a>
</g>
</g>
<!-- Node14 -->
<g id="Node000014" class="node">
<title>Node14</title>
<g id="a_Node000014"><a xlink:title=" ">
<polygon fill="#e0e0e0" stroke="#999999" points="119.5,-19 71.5,-19 71.5,0 119.5,0 119.5,-19"/>
<text text-anchor="middle" x="95.5" y="-7" font-family="Helvetica,sans-Serif" font-size="10.00">mutex</text>
</a>
</g>
</g>
<!-- Node11&#45;&gt;Node14 -->
<g id="edge14_Node000011_Node000014" class="edge">
<title>Node11&#45;&gt;Node14</title>
<g id="a_edge14_Node000011_Node000014"><a xlink:title=" ">
<path fill="none" stroke="#63b8ff" d="M81.86,-60.37C84.11,-52.16 87.56,-39.54 90.43,-29.05"/>
<polygon fill="#63b8ff" stroke="#63b8ff" points="93.87,-29.74 93.13,-19.17 87.12,-27.89 93.87,-29.74"/>
</a>
</g>
</g>
<!-- Node15&#45;&gt;Node8 -->
<g id="edge17_Node000015_Node000008" class="edge">
<title>Node15&#45;&gt;Node8</title>
<g id="a_edge17_Node000015_Node000008"><a xlink:title=" ">
<path fill="none" stroke="#63b8ff" d="M1425.78,-245.86C1369.54,-238.55 1258.78,-223.4 1165.5,-206 1165.4,-205.98 1165.3,-205.96 1165.2,-205.94"/>
<polygon fill="#63b8ff" stroke="#63b8ff" points="1166.17,-202.57 1155.68,-204.04 1164.79,-209.43 1166.17,-202.57"/>
</a>
</g>
</g>
<!-- Node15&#45;&gt;Node10 -->
<g id="edge20_Node000015_Node000010" class="edge">
<title>Node15&#45;&gt;Node10</title>
<g id="a_edge20_Node000015_Node000010"><a xlink:title=" ">
<path fill="none" stroke="#63b8ff" d="M1425.9,-242.45C1384.4,-233.32 1316.54,-218.4 1270.5,-208.28"/>
<polygon fill="#63b8ff" stroke="#63b8ff" points="1270.97,-204.8 1260.45,-206.07 1269.46,-211.63 1270.97,-204.8"/>
</a>
</g>
</g>
<!-- Node16 -->
<g id="Node000016" class="node">
<title>Node16</title>
<g id="a_Node000016"><a xlink:title=" ">
<polygon fill="#e0e0e0" stroke="#999999" points="1555,-206 1498,-206 1498,-187 1555,-187 1555,-206"/>
<text text-anchor="middle" x="1526.5" y="-194" font-family="Helvetica,sans-Serif" font-size="10.00">ostream</text>
</a>
</g>
</g>
<!-- Node15&#45;&gt;Node16 -->
<g id="edge18_Node000015_Node000016" class="edge">
<title>Node15&#45;&gt;Node16</title>
<g id="a_edge18_Node000015_Node000016"><a xlink:title=" ">
<path fill="none" stroke="#63b8ff" d="M1472.78,-241.98C1482.34,-234.07 1496.78,-222.11 1508.28,-212.58"/>
<polygon fill="#63b8ff" stroke="#63b8ff" points="1510.56,-215.24 1516.03,-206.17 1506.1,-209.85 1510.56,-215.24"/>
</a>
</g>
</g>
<!-- Node17 -->
<g id="Node000017" class="node">
<title>Node17</title>
<g id="a_Node000017"><a xlink:title=" ">
<polygon fill="#e0e0e0" stroke="#999999" points="1480,-206 1433,-206 1433,-187 1480,-187 1480,-206"/>
<text text-anchor="middle" x="1456.5" y="-194" font-family="Helvetica,sans-Serif" font-size="10.00">vector</text>
</a>
</g>
</g>
<!-- Node15&#45;&gt;Node17 -->
<g id="edge19_Node000015_Node000017" class="edge">
<title>Node15&#45;&gt;Node17</title>
<g id="a_edge19_Node000015_Node000017"><a xlink:title=" ">
<path fill="none" stroke="#63b8ff" d="M1461.51,-241.75C1460.72,-234.8 1459.6,-224.85 1458.61,-216.13"/>
<polygon fill="#63b8ff" stroke="#63b8ff" points="1462.08,-215.63 1457.47,-206.09 1455.12,-216.42 1462.08,-215.63"/>
</a>
</g>
</g>
<!-- Node18 -->
<g id="Node000018" class="node">
<title>Node18</title>
<g id="a_Node000018"><a xlink:href="systemio_8hpp.html" target="_top" xlink:title=" ">
<polygon fill="white" stroke="#666666" points="1551.5,-145.5 1441.5,-145.5 1441.5,-126.5 1551.5,-126.5 1551.5,-145.5"/>
<text text-anchor="middle" x="1496.5" y="-133.5" font-family="Helvetica,sans-Serif" font-size="10.00">../util/systemio.hpp</text>
</a>
</g>
</g>
<!-- Node15&#45;&gt;Node18 -->
<g id="edge21_Node000015_Node000018" class="edge">
<title>Node15&#45;&gt;Node18</title>
<g id="a_edge21_Node000015_Node000018"><a xlink:title=" ">
<path fill="none" stroke="#63b8ff" d="M1499.24,-244.82C1522.22,-239.17 1550.11,-227.98 1564.5,-206 1578.96,-183.92 1550.13,-162.98 1525.66,-150.08"/>
<polygon fill="#63b8ff" stroke="#63b8ff" points="1527.1,-146.89 1516.59,-145.54 1523.97,-153.15 1527.1,-146.89"/>
</a>
</g>
</g>
<!-- Node22 -->
<g id="Node000022" class="node">
<title>Node22</title>
<g id="a_Node000022"><a xlink:href="ByteBuffer_8hpp.html" target="_top" xlink:title=" ">
<polygon fill="white" stroke="#666666" points="1376,-206 1287,-206 1287,-187 1376,-187 1376,-206"/>
<text text-anchor="middle" x="1331.5" y="-194" font-family="Helvetica,sans-Serif" font-size="10.00">ByteBuffer.hpp</text>
</a>
</g>
</g>
<!-- Node15&#45;&gt;Node22 -->
<g id="edge29_Node000015_Node000022" class="edge">
<title>Node15&#45;&gt;Node22</title>
<g id="a_edge29_Node000015_Node000022"><a xlink:title=" ">
<path fill="none" stroke="#63b8ff" d="M1441.45,-241.98C1420.09,-233.34 1386.8,-219.87 1362.44,-210.02"/>
<polygon fill="#63b8ff" stroke="#63b8ff" points="1363.51,-206.68 1352.93,-206.17 1360.89,-213.17 1363.51,-206.68"/>
</a>
</g>
</g>
<!-- Node18&#45;&gt;Node2 -->
<g id="edge26_Node000018_Node000002" class="edge">
<title>Node18&#45;&gt;Node2</title>
<g id="a_edge26_Node000018_Node000002"><a xlink:title=" ">
<path fill="none" stroke="#63b8ff" d="M1474.42,-126.45C1452.24,-117.45 1417.42,-102.22 1389.5,-85 1371.19,-73.7 1371.48,-62.99 1351.5,-55 1270.78,-22.71 1004.54,-13.51 907.93,-11.2"/>
<polygon fill="#63b8ff" stroke="#63b8ff" points="907.87,-7.7 897.79,-10.97 907.71,-14.69 907.87,-7.7"/>
</a>
</g>
</g>
<!-- Node18&#45;&gt;Node5 -->
<g id="edge27_Node000018_Node000005" class="edge">
<title>Node18&#45;&gt;Node5</title>
<g id="a_edge27_Node000018_Node000005"><a xlink:title=" ">
<path fill="none" stroke="#63b8ff" d="M1457.96,-126.44C1412.84,-116.41 1337.16,-99.59 1280.96,-87.1"/>
<polygon fill="#63b8ff" stroke="#63b8ff" points="1281.58,-83.66 1271.06,-84.9 1280.07,-90.49 1281.58,-83.66"/>
</a>
</g>
</g>
<!-- Node18&#45;&gt;Node6 -->
<g id="edge25_Node000018_Node000006" class="edge">
<title>Node18&#45;&gt;Node6</title>
<g id="a_edge25_Node000018_Node000006"><a xlink:title=" ">
<path fill="none" stroke="#63b8ff" d="M1487.12,-126.48C1469.26,-110.62 1428.64,-76.24 1389.5,-55 1363.82,-41.07 1332.88,-29.77 1308.71,-22.05"/>
<polygon fill="#63b8ff" stroke="#63b8ff" points="1309.72,-18.7 1299.14,-19.06 1307.64,-25.38 1309.72,-18.7"/>
</a>
</g>
</g>
<!-- Node18&#45;&gt;Node9 -->
<g id="edge28_Node000018_Node000009" class="edge">
<title>Node18&#45;&gt;Node9</title>
<g id="a_edge28_Node000018_Node000009"><a xlink:title=" ">
<path fill="none" stroke="#63b8ff" d="M1494.64,-126.39C1491.01,-110.98 1481.86,-78.09 1465.5,-55 1457.34,-43.49 1445.57,-33.08 1435.28,-25.23"/>
<polygon fill="#63b8ff" stroke="#63b8ff" points="1437.25,-22.33 1427.1,-19.27 1433.12,-27.99 1437.25,-22.33"/>
</a>
</g>
</g>
<!-- Node19 -->
<g id="Node000019" class="node">
<title>Node19</title>
<g id="a_Node000019"><a xlink:title=" ">
<polygon fill="#e0e0e0" stroke="#999999" points="1573.5,-79.5 1517.5,-79.5 1517.5,-60.5 1573.5,-60.5 1573.5,-79.5"/>
<text text-anchor="middle" x="1545.5" y="-67.5" font-family="Helvetica,sans-Serif" font-size="10.00">assert.h</text>
</a>
</g>
</g>
<!-- Node18&#45;&gt;Node19 -->
<g id="edge22_Node000018_Node000019" class="edge">
<title>Node18&#45;&gt;Node19</title>
<g id="a_edge22_Node000018_Node000019"><a xlink:title=" ">
<path fill="none" stroke="#63b8ff" d="M1503.11,-126.37C1510.59,-116.59 1522.97,-100.42 1532.43,-88.08"/>
<polygon fill="#63b8ff" stroke="#63b8ff" points="1535.38,-89.97 1538.68,-79.91 1529.82,-85.72 1535.38,-89.97"/>
</a>
</g>
</g>
<!-- Node20 -->
<g id="Node000020" class="node">
<title>Node20</title>
<g id="a_Node000020"><a xlink:title=" ">
<polygon fill="#e0e0e0" stroke="#999999" points="1641.5,-79.5 1591.5,-79.5 1591.5,-60.5 1641.5,-60.5 1641.5,-79.5"/>
<text text-anchor="middle" x="1616.5" y="-67.5" font-family="Helvetica,sans-Serif" font-size="10.00">climits</text>
</a>
</g>
</g>
<!-- Node18&#45;&gt;Node20 -->
<g id="edge23_Node000018_Node000020" class="edge">
<title>Node18&#45;&gt;Node20</title>
<g id="a_edge23_Node000018_Node000020"><a xlink:title=" ">
<path fill="none" stroke="#63b8ff" d="M1512.68,-126.37C1532.81,-115.63 1567.41,-97.18 1591.09,-84.55"/>
<polygon fill="#63b8ff" stroke="#63b8ff" points="1593.01,-87.49 1600.19,-79.7 1589.72,-81.32 1593.01,-87.49"/>
</a>
</g>
</g>
<!-- Node21 -->
<g id="Node000021" class="node">
<title>Node21</title>
<g id="a_Node000021"><a xlink:title=" ">
<polygon fill="#e0e0e0" stroke="#999999" points="1694.5,-19 1644.5,-19 1644.5,0 1694.5,0 1694.5,-19"/>
<text text-anchor="middle" x="1669.5" y="-7" font-family="Helvetica,sans-Serif" font-size="10.00">cstring</text>
</a>
</g>
</g>
<!-- Node18&#45;&gt;Node21 -->
<g id="edge24_Node000018_Node000021" class="edge">
<title>Node18&#45;&gt;Node21</title>
<g id="a_edge24_Node000018_Node000021"><a xlink:title=" ">
<path fill="none" stroke="#63b8ff" d="M1551.65,-130.29C1584.66,-124.61 1625.02,-112.17 1650.5,-85 1664.6,-69.97 1668.6,-45.97 1669.56,-29.29"/>
<polygon fill="#63b8ff" stroke="#63b8ff" points="1673.06,-29.2 1669.82,-19.11 1666.06,-29.02 1673.06,-29.2"/>
</a>
</g>
</g>
<!-- Node22&#45;&gt;Node2 -->
<g id="edge32_Node000022_Node000002" class="edge">
<title>Node22&#45;&gt;Node2</title>
<g id="a_edge32_Node000022_Node000002"><a xlink:title=" ">
<path fill="none" stroke="#63b8ff" d="M1331.58,-186.78C1331.26,-160.97 1326.34,-84.94 1280.5,-55 1219.44,-15.12 995.14,-10.57 907.71,-10.34"/>
<polygon fill="#63b8ff" stroke="#63b8ff" points="907.51,-6.84 897.51,-10.33 907.51,-13.84 907.51,-6.84"/>
</a>
</g>
</g>
<!-- Node22&#45;&gt;Node4 -->
<g id="edge33_Node000022_Node000004" class="edge">
<title>Node22&#45;&gt;Node4</title>
<g id="a_edge33_Node000022_Node000004"><a xlink:title=" ">
<path fill="none" stroke="#63b8ff" d="M1376.17,-189C1451.12,-178.04 1596.31,-156.53 1619.5,-151 1622.53,-150.28 1625.66,-149.44 1628.78,-148.55"/>
<polygon fill="#63b8ff" stroke="#63b8ff" points="1630.05,-151.82 1638.59,-145.54 1628,-145.12 1630.05,-151.82"/>
</a>
</g>
</g>
<!-- Node22&#45;&gt;Node9 -->
<g id="edge34_Node000022_Node000009" class="edge">
<title>Node22&#45;&gt;Node9</title>
<g id="a_edge34_Node000022_Node000009"><a xlink:title=" ">
<path fill="none" stroke="#63b8ff" d="M1335.35,-186.98C1339.39,-178.03 1345.92,-163.53 1351.5,-151 1371.13,-106.92 1393.99,-54.95 1405.7,-28.27"/>
<polygon fill="#63b8ff" stroke="#63b8ff" points="1408.93,-29.63 1409.75,-19.06 1402.52,-26.81 1408.93,-29.63"/>
</a>
</g>
</g>
<!-- Node22&#45;&gt;Node18 -->
<g id="edge35_Node000022_Node000018" class="edge">
<title>Node22&#45;&gt;Node18</title>
<g id="a_edge35_Node000022_Node000018"><a xlink:title=" ">
<path fill="none" stroke="#63b8ff" d="M1355.49,-186.99C1383.72,-176.99 1430.78,-160.3 1462.69,-148.99"/>
<polygon fill="#63b8ff" stroke="#63b8ff" points="1464.22,-152.16 1472.48,-145.52 1461.88,-145.56 1464.22,-152.16"/>
</a>
</g>
</g>
<!-- Node22&#45;&gt;Node21 -->
<g id="edge31_Node000022_Node000021" class="edge">
<title>Node22&#45;&gt;Node21</title>
<g id="a_edge31_Node000022_Node000021"><a xlink:title=" ">
<path fill="none" stroke="#63b8ff" d="M1376.31,-188.67C1433.07,-179.69 1527.48,-163.59 1560.5,-151 1573.91,-145.89 1664.41,-97.47 1671.5,-85 1681.27,-67.82 1678.67,-44.62 1674.98,-28.7"/>
<polygon fill="#63b8ff" stroke="#63b8ff" points="1678.35,-27.76 1672.39,-19 1671.59,-29.57 1678.35,-27.76"/>
</a>
</g>
</g>
<!-- Node23 -->
<g id="Node000023" class="node">
<title>Node23</title>
<g id="a_Node000023"><a xlink:title=" ">
<polygon fill="#e0e0e0" stroke="#999999" points="1309,-145.5 1260,-145.5 1260,-126.5 1309,-126.5 1309,-145.5"/>
<text text-anchor="middle" x="1284.5" y="-133.5" font-family="Helvetica,sans-Serif" font-size="10.00">cstdlib</text>
</a>
</g>
</g>
<!-- Node22&#45;&gt;Node23 -->
<g id="edge30_Node000022_Node000023" class="edge">
<title>Node22&#45;&gt;Node23</title>
<g id="a_edge30_Node000022_Node000023"><a xlink:title=" ">
<path fill="none" stroke="#63b8ff" d="M1324.56,-186.87C1317.55,-178.14 1306.54,-164.43 1297.83,-153.59"/>
<polygon fill="#63b8ff" stroke="#63b8ff" points="1300.46,-151.27 1291.46,-145.67 1295,-155.66 1300.46,-151.27"/>
</a>
</g>
</g>
<!-- Node24 -->
<g id="Node000024" class="node">
<title>Node24</title>
<g id="a_Node000024"><a xlink:href="pair__traits_8hpp.html" target="_top" xlink:title=" ">
<polygon fill="white" stroke="#666666" points="427.5,-145.5 301.5,-145.5 301.5,-126.5 427.5,-126.5 427.5,-145.5"/>
<text text-anchor="middle" x="364.5" y="-133.5" font-family="Helvetica,sans-Serif" font-size="10.00">../value/pair_traits.hpp</text>
</a>
</g>
</g>
<!-- Node22&#45;&gt;Node24 -->
<g id="edge36_Node000022_Node000024" class="edge">
<title>Node22&#45;&gt;Node24</title>
<g id="a_edge36_Node000022_Node000024"><a xlink:title=" ">
<path fill="none" stroke="#63b8ff" d="M1286.73,-187.95C1283.95,-187.6 1281.19,-187.27 1278.5,-187 918.24,-150.27 825.11,-184.14 464.5,-151 452.96,-149.94 440.7,-148.49 428.88,-146.93"/>
<polygon fill="#63b8ff" stroke="#63b8ff" points="429.01,-143.41 418.63,-145.53 428.06,-150.35 429.01,-143.41"/>
</a>
</g>
</g>
<!-- Node31 -->
<g id="Node000031" class="node">
<title>Node31</title>
<g id="a_Node000031"><a xlink:href="quadruple__traits_8hpp.html" target="_top" xlink:title=" ">
<polygon fill="white" stroke="#666666" points="577.5,-151 473.5,-151 473.5,-121 577.5,-121 577.5,-151"/>
<text text-anchor="start" x="481.5" y="-139" font-family="Helvetica,sans-Serif" font-size="10.00">../value/quadruple</text>
<text text-anchor="middle" x="525.5" y="-128" font-family="Helvetica,sans-Serif" font-size="10.00">_traits.hpp</text>
</a>
</g>
</g>
<!-- Node22&#45;&gt;Node31 -->
<g id="edge50_Node000022_Node000031" class="edge">
<title>Node22&#45;&gt;Node31</title>
<g id="a_edge50_Node000022_Node000031"><a xlink:title=" ">
<path fill="none" stroke="#63b8ff" d="M1286.72,-188C1283.94,-187.63 1281.19,-187.29 1278.5,-187 1009.41,-157.53 940.38,-172.01 670.5,-151 643.34,-148.89 613.37,-146.07 587.76,-143.52"/>
<polygon fill="#63b8ff" stroke="#63b8ff" points="588.11,-140.04 577.81,-142.52 587.41,-147 588.11,-140.04"/>
</a>
</g>
</g>
<!-- Node33 -->
<g id="Node000033" class="node">
<title>Node33</title>
<g id="a_Node000033"><a xlink:href="string__traits_8hpp.html" target="_top" xlink:title=" ">
<polygon fill="white" stroke="#666666" points="1036,-145.5 901,-145.5 901,-126.5 1036,-126.5 1036,-145.5"/>
<text text-anchor="middle" x="968.5" y="-133.5" font-family="Helvetica,sans-Serif" font-size="10.00">../value/string_traits.hpp</text>
</a>
</g>
</g>
<!-- Node22&#45;&gt;Node33 -->
<g id="edge56_Node000022_Node000033" class="edge">
<title>Node22&#45;&gt;Node33</title>
<g id="a_edge56_Node000022_Node000033"><a xlink:title=" ">
<path fill="none" stroke="#63b8ff" d="M1286.99,-188.33C1222.89,-178 1104.29,-158.88 1031.31,-147.12"/>
<polygon fill="#63b8ff" stroke="#63b8ff" points="1031.75,-143.65 1021.32,-145.51 1030.64,-150.56 1031.75,-143.65"/>
</a>
</g>
</g>
<!-- Node36 -->
<g id="Node000036" class="node">
<title>Node36</title>
<g id="a_Node000036"><a xlink:href="triple__traits_8hpp.html" target="_top" xlink:title=" ">
<polygon fill="white" stroke="#666666" points="813,-145.5 680,-145.5 680,-126.5 813,-126.5 813,-145.5"/>
<text text-anchor="middle" x="746.5" y="-133.5" font-family="Helvetica,sans-Serif" font-size="10.00">../value/triple_traits.hpp</text>
</a>
</g>
</g>
<!-- Node22&#45;&gt;Node36 -->
<g id="edge63_Node000022_Node000036" class="edge">
<title>Node22&#45;&gt;Node36</title>
<g id="a_edge63_Node000022_Node000036"><a xlink:title=" ">
<path fill="none" stroke="#63b8ff" d="M1287,-188.14C1284.12,-187.74 1281.27,-187.35 1278.5,-187 1107.12,-165.31 1063.47,-167.3 891.5,-151 869.34,-148.9 845.28,-146.59 823.24,-144.46"/>
<polygon fill="#63b8ff" stroke="#63b8ff" points="823.56,-140.97 813.27,-143.5 822.89,-147.94 823.56,-140.97"/>
</a>
</g>
</g>
<!-- Node24&#45;&gt;Node2 -->
<g id="edge47_Node000024_Node000002" class="edge">
<title>Node24&#45;&gt;Node2</title>
<g id="a_edge47_Node000024_Node000002"><a xlink:title=" ">
<path fill="none" stroke="#63b8ff" d="M354.72,-126.3C338.04,-110.45 307.69,-76.49 327.5,-55 336.18,-45.58 718.14,-20.38 837.35,-12.73"/>
<polygon fill="#63b8ff" stroke="#63b8ff" points="837.65,-16.22 847.4,-12.09 837.2,-9.23 837.65,-16.22"/>
</a>
</g>
</g>
<!-- Node24&#45;&gt;Node7 -->
<g id="edge49_Node000024_Node000007" class="edge">
<title>Node24&#45;&gt;Node7</title>
<g id="a_edge49_Node000024_Node000007"><a xlink:title=" ">
<path fill="none" stroke="#63b8ff" d="M352.6,-126.3C333.1,-111 298.37,-78.68 317.5,-55 339.11,-28.25 439.71,-16.83 492.29,-12.62"/>
<polygon fill="#63b8ff" stroke="#63b8ff" points="492.73,-16.1 502.43,-11.85 492.2,-9.12 492.73,-16.1"/>
</a>
</g>
</g>
<!-- Node25 -->
<g id="Node000025" class="node">
<title>Node25</title>
<g id="a_Node000025"><a xlink:href="pair_8hpp.html" target="_top" xlink:title=" ">
<polygon fill="white" stroke="#666666" points="204.5,-79.5 148.5,-79.5 148.5,-60.5 204.5,-60.5 204.5,-79.5"/>
<text text-anchor="middle" x="176.5" y="-67.5" font-family="Helvetica,sans-Serif" font-size="10.00">pair.hpp</text>
</a>
</g>
</g>
<!-- Node24&#45;&gt;Node25 -->
<g id="edge37_Node000024_Node000025" class="edge">
<title>Node24&#45;&gt;Node25</title>
<g id="a_edge37_Node000024_Node000025"><a xlink:title=" ">
<path fill="none" stroke="#63b8ff" d="M339.15,-126.37C306.26,-115.17 248.72,-95.58 211.63,-82.96"/>
<polygon fill="#63b8ff" stroke="#63b8ff" points="212.35,-79.51 201.75,-79.6 210.09,-86.13 212.35,-79.51"/>
</a>
</g>
</g>
<!-- Node27 -->
<g id="Node000027" class="node">
<title>Node27</title>
<g id="a_Node000027"><a xlink:href="value__traits_8hpp.html" target="_top" xlink:title=" ">
<polygon fill="white" stroke="#666666" points="686,-79.5 591,-79.5 591,-60.5 686,-60.5 686,-79.5"/>
<text text-anchor="middle" x="638.5" y="-67.5" font-family="Helvetica,sans-Serif" font-size="10.00">value_traits.hpp</text>
</a>
</g>
</g>
<!-- Node24&#45;&gt;Node27 -->
<g id="edge39_Node000024_Node000027" class="edge">
<title>Node24&#45;&gt;Node27</title>
<g id="a_edge39_Node000024_Node000027"><a xlink:title=" ">
<path fill="none" stroke="#63b8ff" d="M401.17,-126.44C450.49,-114.92 538.21,-94.43 592.07,-81.84"/>
<polygon fill="#63b8ff" stroke="#63b8ff" points="593.11,-85.2 602.05,-79.51 591.51,-78.38 593.11,-85.2"/>
</a>
</g>
</g>
<!-- Node30 -->
<g id="Node000030" class="node">
<title>Node30</title>
<g id="a_Node000030"><a xlink:title=" ">
<polygon fill="#e0e0e0" stroke="#999999" points="496.5,-79.5 440.5,-79.5 440.5,-60.5 496.5,-60.5 496.5,-79.5"/>
<text text-anchor="middle" x="468.5" y="-67.5" font-family="Helvetica,sans-Serif" font-size="10.00">sstream</text>
</a>
</g>
</g>
<!-- Node24&#45;&gt;Node30 -->
<g id="edge48_Node000024_Node000030" class="edge">
<title>Node24&#45;&gt;Node30</title>
<g id="a_edge48_Node000024_Node000030"><a xlink:title=" ">
<path fill="none" stroke="#63b8ff" d="M378.53,-126.37C395.74,-115.78 425.16,-97.67 445.65,-85.06"/>
<polygon fill="#63b8ff" stroke="#63b8ff" points="447.68,-87.92 454.36,-79.7 444.01,-81.96 447.68,-87.92"/>
</a>
</g>
</g>
<!-- Node26 -->
<g id="Node000026" class="node">
<title>Node26</title>
<g id="a_Node000026"><a xlink:title=" ">
<polygon fill="#e0e0e0" stroke="#999999" points="199,-19 154,-19 154,0 199,0 199,-19"/>
<text text-anchor="middle" x="176.5" y="-7" font-family="Helvetica,sans-Serif" font-size="10.00">utility</text>
</a>
</g>
</g>
<!-- Node25&#45;&gt;Node26 -->
<g id="edge38_Node000025_Node000026" class="edge">
<title>Node25&#45;&gt;Node26</title>
<g id="a_edge38_Node000025_Node000026"><a xlink:title=" ">
<path fill="none" stroke="#63b8ff" d="M176.5,-60.37C176.5,-52.25 176.5,-39.81 176.5,-29.39"/>
<polygon fill="#63b8ff" stroke="#63b8ff" points="180,-29.17 176.5,-19.17 173,-29.17 180,-29.17"/>
</a>
</g>
</g>
<!-- Node27&#45;&gt;Node2 -->
<g id="edge42_Node000027_Node000002" class="edge">
<title>Node27&#45;&gt;Node2</title>
<g id="a_edge42_Node000027_Node000002"><a xlink:title=" ">
<path fill="none" stroke="#63b8ff" d="M672.53,-60.49C716.62,-49.47 793.12,-30.34 837.63,-19.22"/>
<polygon fill="#63b8ff" stroke="#63b8ff" points="838.57,-22.59 847.42,-16.77 836.87,-15.8 838.57,-22.59"/>
</a>
</g>
</g>
<!-- Node27&#45;&gt;Node7 -->
<g id="edge45_Node000027_Node000007" class="edge">
<title>Node27&#45;&gt;Node7</title>
<g id="a_edge45_Node000027_Node000007"><a xlink:title=" ">
<path fill="none" stroke="#63b8ff" d="M621.68,-60.37C602.9,-50.73 572.3,-35.03 550.45,-23.81"/>
<polygon fill="#63b8ff" stroke="#63b8ff" points="551.89,-20.62 541.39,-19.17 548.69,-26.85 551.89,-20.62"/>
</a>
</g>
</g>
<!-- Node27&#45;&gt;Node9 -->
<g id="edge44_Node000027_Node000009" class="edge">
<title>Node27&#45;&gt;Node9</title>
<g id="a_edge44_Node000027_Node000009"><a xlink:title=" ">
<path fill="none" stroke="#63b8ff" d="M686.24,-61.16C701.33,-58.9 718.08,-56.61 733.5,-55 989.49,-28.21 1054.79,-37.69 1311.5,-19 1331,-17.58 1352.58,-15.81 1370.85,-14.25"/>
<polygon fill="#63b8ff" stroke="#63b8ff" points="1371.23,-17.73 1380.9,-13.39 1370.64,-10.76 1371.23,-17.73"/>
</a>
</g>
</g>
<!-- Node27&#45;&gt;Node12 -->
<g id="edge43_Node000027_Node000012" class="edge">
<title>Node27&#45;&gt;Node12</title>
<g id="a_edge43_Node000027_Node000012"><a xlink:title=" ">
<path fill="none" stroke="#63b8ff" d="M596.77,-60.49C541.85,-49.3 445.97,-29.76 391.78,-18.71"/>
<polygon fill="#63b8ff" stroke="#63b8ff" points="392.35,-15.25 381.85,-16.69 390.95,-22.11 392.35,-15.25"/>
</a>
</g>
</g>
<!-- Node27&#45;&gt;Node21 -->
<g id="edge41_Node000027_Node000021" class="edge">
<title>Node27&#45;&gt;Node21</title>
<g id="a_edge41_Node000027_Node000021"><a xlink:title=" ">
<path fill="none" stroke="#63b8ff" d="M686.23,-61.03C701.31,-58.76 718.07,-56.5 733.5,-55 824.32,-46.17 1474.79,-18.64 1634.27,-11.97"/>
<polygon fill="#63b8ff" stroke="#63b8ff" points="1634.63,-15.46 1644.47,-11.54 1634.34,-8.46 1634.63,-15.46"/>
</a>
</g>
</g>
<!-- Node28 -->
<g id="Node000028" class="node">
<title>Node28</title>
<g id="a_Node000028"><a xlink:title=" ">
<polygon fill="#e0e0e0" stroke="#999999" points="639.5,-19 589.5,-19 589.5,0 639.5,0 639.5,-19"/>
<text text-anchor="middle" x="614.5" y="-7" font-family="Helvetica,sans-Serif" font-size="10.00">cstdint</text>
</a>
</g>
</g>
<!-- Node27&#45;&gt;Node28 -->
<g id="edge40_Node000027_Node000028" class="edge">
<title>Node27&#45;&gt;Node28</title>
<g id="a_edge40_Node000027_Node000028"><a xlink:title=" ">
<path fill="none" stroke="#63b8ff" d="M634.96,-60.37C631.56,-52.07 626.31,-39.28 621.98,-28.72"/>
<polygon fill="#63b8ff" stroke="#63b8ff" points="625.09,-27.09 618.06,-19.17 618.61,-29.75 625.09,-27.09"/>
</a>
</g>
</g>
<!-- Node29 -->
<g id="Node000029" class="node">
<title>Node29</title>
<g id="a_Node000029"><a xlink:title=" ">
<polygon fill="#e0e0e0" stroke="#999999" points="727,-19 658,-19 658,0 727,0 727,-19"/>
<text text-anchor="middle" x="692.5" y="-7" font-family="Helvetica,sans-Serif" font-size="10.00">type_traits</text>
</a>
</g>
</g>
<!-- Node27&#45;&gt;Node29 -->
<g id="edge46_Node000027_Node000029" class="edge">
<title>Node27&#45;&gt;Node29</title>
<g id="a_edge46_Node000027_Node000029"><a xlink:title=" ">
<path fill="none" stroke="#63b8ff" d="M646.47,-60.37C654.6,-51.55 667.43,-37.66 677.48,-26.77"/>
<polygon fill="#63b8ff" stroke="#63b8ff" points="680.29,-28.89 684.5,-19.17 675.14,-24.14 680.29,-28.89"/>
</a>
</g>
</g>
<!-- Node31&#45;&gt;Node2 -->
<g id="edge53_Node000031_Node000002" class="edge">
<title>Node31&#45;&gt;Node2</title>
<g id="a_edge53_Node000031_Node000002"><a xlink:title=" ">
<path fill="none" stroke="#63b8ff" d="M577.65,-124.8C612.05,-116.84 657.43,-103.91 694.5,-85 713.98,-75.06 714.13,-65.15 733.5,-55 766.88,-37.5 808.39,-25.32 837.32,-18.18"/>
<polygon fill="#63b8ff" stroke="#63b8ff" points="838.46,-21.5 847.37,-15.77 836.83,-14.69 838.46,-21.5"/>
</a>
</g>
</g>
<!-- Node31&#45;&gt;Node7 -->
<g id="edge55_Node000031_Node000007" class="edge">
<title>Node31&#45;&gt;Node7</title>
<g id="a_edge55_Node000031_Node000007"><a xlink:title=" ">
<path fill="none" stroke="#63b8ff" d="M473.14,-125.21C417.6,-114.29 336.57,-96.64 327.5,-85 319.31,-74.48 319.18,-65.42 327.5,-55 347.79,-29.62 441.94,-17.67 492.38,-13"/>
<polygon fill="#63b8ff" stroke="#63b8ff" points="492.78,-16.48 502.44,-12.11 492.17,-9.5 492.78,-16.48"/>
</a>
</g>
</g>
<!-- Node31&#45;&gt;Node27 -->
<g id="edge52_Node000031_Node000027" class="edge">
<title>Node31&#45;&gt;Node27</title>
<g id="a_edge52_Node000031_Node000027"><a xlink:title=" ">
<path fill="none" stroke="#63b8ff" d="M550.3,-120.95C569.42,-110.13 595.7,-95.24 614.59,-84.54"/>
<polygon fill="#63b8ff" stroke="#63b8ff" points="616.49,-87.49 623.46,-79.52 613.04,-81.4 616.49,-87.49"/>
</a>
</g>
</g>
<!-- Node31&#45;&gt;Node30 -->
<g id="edge54_Node000031_Node000030" class="edge">
<title>Node31&#45;&gt;Node30</title>
<g id="a_edge54_Node000031_Node000030"><a xlink:title=" ">
<path fill="none" stroke="#63b8ff" d="M512.85,-120.8C504.05,-110.92 492.3,-97.72 483.1,-87.39"/>
<polygon fill="#63b8ff" stroke="#63b8ff" points="485.64,-84.98 476.38,-79.84 480.41,-89.64 485.64,-84.98"/>
</a>
</g>
</g>
<!-- Node32 -->
<g id="Node000032" class="node">
<title>Node32</title>
<g id="a_Node000032"><a xlink:href="quadruple_8hpp.html" target="_top" xlink:title=" ">
<polygon fill="white" stroke="#666666" points="422.5,-79.5 336.5,-79.5 336.5,-60.5 422.5,-60.5 422.5,-79.5"/>
<text text-anchor="middle" x="379.5" y="-67.5" font-family="Helvetica,sans-Serif" font-size="10.00">quadruple.hpp</text>
</a>
</g>
</g>
<!-- Node31&#45;&gt;Node32 -->
<g id="edge51_Node000031_Node000032" class="edge">
<title>Node31&#45;&gt;Node32</title>
<g id="a_edge51_Node000031_Node000032"><a xlink:title=" ">
<path fill="none" stroke="#63b8ff" d="M493.46,-120.95C468.08,-109.83 432.94,-94.42 408.41,-83.67"/>
<polygon fill="#63b8ff" stroke="#63b8ff" points="409.49,-80.33 398.93,-79.52 406.68,-86.74 409.49,-80.33"/>
</a>
</g>
</g>
<!-- Node33&#45;&gt;Node2 -->
<g id="edge58_Node000033_Node000002" class="edge">
<title>Node33&#45;&gt;Node2</title>
<g id="a_edge58_Node000033_Node000002"><a xlink:title=" ">
<path fill="none" stroke="#63b8ff" d="M961.57,-126.17C953.75,-116.19 940.67,-99.46 929.5,-85 914.33,-65.36 897.02,-42.71 885.5,-27.59"/>
<polygon fill="#63b8ff" stroke="#63b8ff" points="887.99,-25.07 879.14,-19.24 882.42,-29.31 887.99,-25.07"/>
</a>
</g>
</g>
<!-- Node33&#45;&gt;Node7 -->
<g id="edge60_Node000033_Node000007" class="edge">
<title>Node33&#45;&gt;Node7</title>
<g id="a_edge60_Node000033_Node000007"><a xlink:title=" ">
<path fill="none" stroke="#63b8ff" d="M900.58,-127.59C793.26,-115.7 595.14,-92.87 581.5,-85 558.86,-71.94 542.2,-45.97 532.93,-28.42"/>
<polygon fill="#63b8ff" stroke="#63b8ff" points="535.93,-26.59 528.33,-19.21 529.67,-29.72 535.93,-26.59"/>
</a>
</g>
</g>
<!-- Node33&#45;&gt;Node9 -->
<g id="edge59_Node000033_Node000009" class="edge">
<title>Node33&#45;&gt;Node9</title>
<g id="a_edge59_Node000033_Node000009"><a xlink:title=" ">
<path fill="none" stroke="#63b8ff" d="M1036.2,-131.02C1100.55,-125.65 1199.28,-113.25 1280.5,-85 1323.24,-70.13 1368.23,-41.89 1393.39,-24.77"/>
<polygon fill="#63b8ff" stroke="#63b8ff" points="1395.48,-27.58 1401.72,-19.01 1391.5,-21.82 1395.48,-27.58"/>
</a>
</g>
</g>
<!-- Node33&#45;&gt;Node27 -->
<g id="edge62_Node000033_Node000027" class="edge">
<title>Node33&#45;&gt;Node27</title>
<g id="a_edge62_Node000033_Node000027"><a xlink:title=" ">
<path fill="none" stroke="#63b8ff" d="M924.34,-126.44C864.32,-114.8 757.09,-94 692.4,-81.45"/>
<polygon fill="#63b8ff" stroke="#63b8ff" points="692.88,-77.98 682.4,-79.51 691.55,-84.85 692.88,-77.98"/>
</a>
</g>
</g>
<!-- Node34 -->
<g id="Node000034" class="node">
<title>Node34</title>
<g id="a_Node000034"><a xlink:title=" ">
<polygon fill="#e0e0e0" stroke="#999999" points="984.5,-79.5 938.5,-79.5 938.5,-60.5 984.5,-60.5 984.5,-79.5"/>
<text text-anchor="middle" x="961.5" y="-67.5" font-family="Helvetica,sans-Serif" font-size="10.00">cstdio</text>
</a>
</g>
</g>
<!-- Node33&#45;&gt;Node34 -->
<g id="edge57_Node000033_Node000034" class="edge">
<title>Node33&#45;&gt;Node34</title>
<g id="a_edge57_Node000033_Node000034"><a xlink:title=" ">
<path fill="none" stroke="#63b8ff" d="M967.56,-126.37C966.54,-117.07 964.89,-101.98 963.57,-89.9"/>
<polygon fill="#63b8ff" stroke="#63b8ff" points="967.04,-89.47 962.47,-79.91 960.08,-90.23 967.04,-89.47"/>
</a>
</g>
</g>
<!-- Node35 -->
<g id="Node000035" class="node">
<title>Node35</title>
<g id="a_Node000035"><a xlink:title=" ">
<polygon fill="#e0e0e0" stroke="#999999" points="1128,-85 1003,-85 1003,-55 1128,-55 1128,-85"/>
<text text-anchor="start" x="1011" y="-73" font-family="Helvetica,sans-Serif" font-size="10.00">boost/algorithm/string</text>
<text text-anchor="middle" x="1065.5" y="-62" font-family="Helvetica,sans-Serif" font-size="10.00">/trim.hpp</text>
</a>
</g>
</g>
<!-- Node33&#45;&gt;Node35 -->
<g id="edge61_Node000033_Node000035" class="edge">
<title>Node33&#45;&gt;Node35</title>
<g id="a_edge61_Node000033_Node000035"><a xlink:title=" ">
<path fill="none" stroke="#63b8ff" d="M981.58,-126.37C995.36,-117.28 1017.52,-102.66 1035.61,-90.72"/>
<polygon fill="#63b8ff" stroke="#63b8ff" points="1037.69,-93.54 1044.11,-85.12 1033.83,-87.7 1037.69,-93.54"/>
</a>
</g>
</g>
<!-- Node36&#45;&gt;Node2 -->
<g id="edge66_Node000036_Node000002" class="edge">
<title>Node36&#45;&gt;Node2</title>
<g id="a_edge66_Node000036_Node000002"><a xlink:title=" ">
<path fill="none" stroke="#63b8ff" d="M760.39,-126.42C774.77,-117.18 797.49,-101.55 814.5,-85 832.77,-67.23 850.24,-43.56 861.15,-27.72"/>
<polygon fill="#63b8ff" stroke="#63b8ff" points="864.07,-29.64 866.76,-19.4 858.27,-25.73 864.07,-29.64"/>
</a>
</g>
</g>
<!-- Node36&#45;&gt;Node7 -->
<g id="edge68_Node000036_Node000007" class="edge">
<title>Node36&#45;&gt;Node7</title>
<g id="a_edge68_Node000036_Node000007"><a xlink:title=" ">
<path fill="none" stroke="#63b8ff" d="M679.95,-134.08C637.36,-130.03 583.67,-117.98 548.5,-85 533.2,-70.65 527.62,-46.52 525.61,-29.62"/>
<polygon fill="#63b8ff" stroke="#63b8ff" points="529.06,-28.94 524.71,-19.28 522.09,-29.55 529.06,-28.94"/>
</a>
</g>
</g>
<!-- Node36&#45;&gt;Node27 -->
<g id="edge65_Node000036_Node000027" class="edge">
<title>Node36&#45;&gt;Node27</title>
<g id="a_edge65_Node000036_Node000027"><a xlink:title=" ">
<path fill="none" stroke="#63b8ff" d="M731.93,-126.37C713.98,-115.73 683.23,-97.51 661.94,-84.89"/>
<polygon fill="#63b8ff" stroke="#63b8ff" points="663.57,-81.79 653.18,-79.7 660,-87.81 663.57,-81.79"/>
</a>
</g>
</g>
<!-- Node36&#45;&gt;Node30 -->
<g id="edge67_Node000036_Node000030" class="edge">
<title>Node36&#45;&gt;Node30</title>
<g id="a_edge67_Node000036_Node000030"><a xlink:title=" ">
<path fill="none" stroke="#63b8ff" d="M698.21,-126.42C650.24,-117.52 574.76,-102.46 510.5,-85 507.88,-84.29 505.18,-83.51 502.48,-82.69"/>
<polygon fill="#63b8ff" stroke="#63b8ff" points="503.38,-79.3 492.79,-79.61 501.26,-85.97 503.38,-79.3"/>
</a>
</g>
</g>
<!-- Node37 -->
<g id="Node000037" class="node">
<title>Node37</title>
<g id="a_Node000037"><a xlink:href="triple_8hpp.html" target="_top" xlink:title=" ">
<polygon fill="white" stroke="#666666" points="806,-79.5 743,-79.5 743,-60.5 806,-60.5 806,-79.5"/>
<text text-anchor="middle" x="774.5" y="-67.5" font-family="Helvetica,sans-Serif" font-size="10.00">triple.hpp</text>
</a>
</g>
</g>
<!-- Node36&#45;&gt;Node37 -->
<g id="edge64_Node000036_Node000037" class="edge">
<title>Node36&#45;&gt;Node37</title>
<g id="a_edge64_Node000036_Node000037"><a xlink:title=" ">
<path fill="none" stroke="#63b8ff" d="M750.28,-126.37C754.43,-116.88 761.22,-101.36 766.55,-89.16"/>
<polygon fill="#63b8ff" stroke="#63b8ff" points="769.8,-90.47 770.6,-79.91 763.39,-87.66 769.8,-90.47"/>
</a>
</g>
</g>
<!-- Node39 -->
<g id="Node000039" class="node">
<title>Node39</title>
<g id="a_Node000039"><a xlink:href="RawPostlist_8hpp.html" target="_top" xlink:title=" ">
<polygon fill="white" stroke="#666666" points="1559,-316 1464,-316 1464,-297 1559,-297 1559,-316"/>
<text text-anchor="middle" x="1511.5" y="-304" font-family="Helvetica,sans-Serif" font-size="10.00">RawPostlist.hpp</text>
</a>
</g>
</g>
<!-- Node38&#45;&gt;Node39 -->
<g id="edge70_Node000038_Node000039" class="edge">
<title>Node38&#45;&gt;Node39</title>
<g id="a_edge70_Node000038_Node000039"><a xlink:title=" ">
<path fill="none" stroke="#63b8ff" d="M1506.49,-351.75C1507.28,-344.8 1508.4,-334.85 1509.39,-326.13"/>
<polygon fill="#63b8ff" stroke="#63b8ff" points="1512.88,-326.42 1510.53,-316.09 1505.92,-325.63 1512.88,-326.42"/>
</a>
</g>
</g>
<!-- Node39&#45;&gt;Node4 -->
<g id="edge71_Node000039_Node000004" class="edge">
<title>Node39&#45;&gt;Node4</title>
<g id="a_edge71_Node000039_Node000004"><a xlink:title=" ">
<path fill="none" stroke="#63b8ff" d="M1519.2,-296.91C1543.12,-270.21 1616.47,-188.36 1647.93,-153.26"/>
<polygon fill="#63b8ff" stroke="#63b8ff" points="1650.57,-155.56 1654.64,-145.77 1645.36,-150.88 1650.57,-155.56"/>
</a>
</g>
</g>
<!-- Node39&#45;&gt;Node15 -->
<g id="edge72_Node000039_Node000015" class="edge">
<title>Node39&#45;&gt;Node15</title>
<g id="a_edge72_Node000039_Node000015"><a xlink:title=" ">
<path fill="none" stroke="#63b8ff" d="M1503.41,-296.75C1496.34,-289.11 1485.91,-277.82 1477.35,-268.56"/>
<polygon fill="#63b8ff" stroke="#63b8ff" points="1479.8,-266.06 1470.44,-261.09 1474.66,-270.81 1479.8,-266.06"/>
</a>
</g>
</g>
</g>
</svg>
