<?xml version="1.0" encoding="UTF-8" standalone="no"?>
<!DOCTYPE svg PUBLIC "-//W3C//DTD SVG 1.1//EN"
 "http://www.w3.org/Graphics/SVG/1.1/DTD/svg11.dtd">
<!-- Generated by graphviz version 2.43.0 (0)
 -->
<!-- Title: netspeak/invertedindex/PostlistSorter.hpp Pages: 1 -->
<svg width="1700pt" height="500pt"
 viewBox="0.00 0.00 1699.56 500.00" xmlns="http://www.w3.org/2000/svg" xmlns:xlink="http://www.w3.org/1999/xlink">
<g id="graph0" class="graph" transform="scale(1 1) rotate(0) translate(4 496)">
<title>netspeak/invertedindex/PostlistSorter.hpp</title>
<!-- Node1 -->
<g id="Node000001" class="node">
<title>Node1</title>
<g id="a_Node000001"><a xlink:title=" ">
<polygon fill="#999999" stroke="#666666" points="1244,-492 1112,-492 1112,-462 1244,-462 1244,-492"/>
<text text-anchor="start" x="1120" y="-480" font-family="Helvetica,sans-Serif" font-size="10.00">netspeak/invertedindex</text>
<text text-anchor="middle" x="1178" y="-469" font-family="Helvetica,sans-Serif" font-size="10.00">/PostlistSorter.hpp</text>
</a>
</g>
</g>
<!-- Node2 -->
<g id="Node000002" class="node">
<title>Node2</title>
<g id="a_Node000002"><a xlink:title=" ">
<polygon fill="#e0e0e0" stroke="#999999" points="1106,-426 1054,-426 1054,-407 1106,-407 1106,-426"/>
<text text-anchor="middle" x="1080" y="-414" font-family="Helvetica,sans-Serif" font-size="10.00">cassert</text>
</a>
</g>
</g>
<!-- Node1&#45;&gt;Node2 -->
<g id="edge1_Node000001_Node000002" class="edge">
<title>Node1&#45;&gt;Node2</title>
<g id="a_edge1_Node000001_Node000002"><a xlink:title=" ">
<path fill="none" stroke="#63b8ff" d="M1154.28,-461.84C1138.8,-452.6 1118.68,-440.59 1103.29,-431.4"/>
<polygon fill="#63b8ff" stroke="#63b8ff" points="1104.78,-428.21 1094.4,-426.09 1101.19,-434.23 1104.78,-428.21"/>
</a>
</g>
</g>
<!-- Node3 -->
<g id="Node000003" class="node">
<title>Node3</title>
<g id="a_Node000003"><a xlink:href="systemio_8hpp.html" target="_top" xlink:title=" ">
<polygon fill="white" stroke="#666666" points="1547,-145.5 1437,-145.5 1437,-126.5 1547,-126.5 1547,-145.5"/>
<text text-anchor="middle" x="1492" y="-133.5" font-family="Helvetica,sans-Serif" font-size="10.00">../util/systemio.hpp</text>
</a>
</g>
</g>
<!-- Node1&#45;&gt;Node3 -->
<g id="edge2_Node000001_Node000003" class="edge">
<title>Node1&#45;&gt;Node3</title>
<g id="a_edge2_Node000001_Node000003"><a xlink:title=" ">
<path fill="none" stroke="#63b8ff" d="M1244.1,-469.13C1349.28,-456.34 1543,-424.38 1543,-362.5 1543,-362.5 1543,-362.5 1543,-305.5 1543,-248.63 1516.06,-185.42 1501.34,-155.12"/>
<polygon fill="#63b8ff" stroke="#63b8ff" points="1504.31,-153.23 1496.71,-145.85 1498.04,-156.36 1504.31,-153.23"/>
</a>
</g>
</g>
<!-- Node12 -->
<g id="Node000012" class="node">
<title>Node12</title>
<g id="a_Node000012"><a xlink:href="PostlistBuilder_8hpp.html" target="_top" xlink:title=" ">
<polygon fill="white" stroke="#666666" points="1231.5,-426 1124.5,-426 1124.5,-407 1231.5,-407 1231.5,-426"/>
<text text-anchor="middle" x="1178" y="-414" font-family="Helvetica,sans-Serif" font-size="10.00">PostlistBuilder.hpp</text>
</a>
</g>
</g>
<!-- Node1&#45;&gt;Node12 -->
<g id="edge13_Node000001_Node000012" class="edge">
<title>Node1&#45;&gt;Node12</title>
<g id="a_edge13_Node000001_Node000012"><a xlink:title=" ">
<path fill="none" stroke="#63b8ff" d="M1178,-461.84C1178,-454.21 1178,-444.7 1178,-436.45"/>
<polygon fill="#63b8ff" stroke="#63b8ff" points="1181.5,-436.27 1178,-426.27 1174.5,-436.27 1181.5,-436.27"/>
</a>
</g>
</g>
<!-- Node4 -->
<g id="Node000004" class="node">
<title>Node4</title>
<g id="a_Node000004"><a xlink:title=" ">
<polygon fill="#e0e0e0" stroke="#999999" points="1592,-79.5 1536,-79.5 1536,-60.5 1592,-60.5 1592,-79.5"/>
<text text-anchor="middle" x="1564" y="-67.5" font-family="Helvetica,sans-Serif" font-size="10.00">assert.h</text>
</a>
</g>
</g>
<!-- Node3&#45;&gt;Node4 -->
<g id="edge3_Node000003_Node000004" class="edge">
<title>Node3&#45;&gt;Node4</title>
<g id="a_edge3_Node000003_Node000004"><a xlink:title=" ">
<path fill="none" stroke="#63b8ff" d="M1501.71,-126.37C1513.13,-116.21 1532.32,-99.16 1546.39,-86.65"/>
<polygon fill="#63b8ff" stroke="#63b8ff" points="1548.83,-89.16 1553.98,-79.91 1544.18,-83.93 1548.83,-89.16"/>
</a>
</g>
</g>
<!-- Node5 -->
<g id="Node000005" class="node">
<title>Node5</title>
<g id="a_Node000005"><a xlink:title=" ">
<polygon fill="#e0e0e0" stroke="#999999" points="1660,-79.5 1610,-79.5 1610,-60.5 1660,-60.5 1660,-79.5"/>
<text text-anchor="middle" x="1635" y="-67.5" font-family="Helvetica,sans-Serif" font-size="10.00">climits</text>
</a>
</g>
</g>
<!-- Node3&#45;&gt;Node5 -->
<g id="edge4_Node000003_Node000005" class="edge">
<title>Node3&#45;&gt;Node5</title>
<g id="a_edge4_Node000003_Node000005"><a xlink:title=" ">
<path fill="none" stroke="#63b8ff" d="M1511.29,-126.37C1535.7,-115.44 1577.97,-96.52 1606.21,-83.88"/>
<polygon fill="#63b8ff" stroke="#63b8ff" points="1607.87,-86.98 1615.56,-79.7 1605.01,-80.59 1607.87,-86.98"/>
</a>
</g>
</g>
<!-- Node6 -->
<g id="Node000006" class="node">
<title>Node6</title>
<g id="a_Node000006"><a xlink:title=" ">
<polygon fill="#e0e0e0" stroke="#999999" points="1533,-19 1483,-19 1483,0 1533,0 1533,-19"/>
<text text-anchor="middle" x="1508" y="-7" font-family="Helvetica,sans-Serif" font-size="10.00">cstring</text>
</a>
</g>
</g>
<!-- Node3&#45;&gt;Node6 -->
<g id="edge5_Node000003_Node000006" class="edge">
<title>Node3&#45;&gt;Node6</title>
<g id="a_edge5_Node000003_Node000006"><a xlink:title=" ">
<path fill="none" stroke="#63b8ff" d="M1531.41,-126.5C1580.95,-115.41 1660.57,-96.14 1669,-85 1703.99,-38.76 1600.42,-20.24 1543.18,-13.67"/>
<polygon fill="#63b8ff" stroke="#63b8ff" points="1543.4,-10.18 1533.08,-12.58 1542.64,-17.14 1543.4,-10.18"/>
</a>
</g>
</g>
<!-- Node7 -->
<g id="Node000007" class="node">
<title>Node7</title>
<g id="a_Node000007"><a xlink:title=" ">
<polygon fill="#e0e0e0" stroke="#999999" points="1689,-19 1621,-19 1621,0 1689,0 1689,-19"/>
<text text-anchor="middle" x="1655" y="-7" font-family="Helvetica,sans-Serif" font-size="10.00">filesystem</text>
</a>
</g>
</g>
<!-- Node3&#45;&gt;Node7 -->
<g id="edge6_Node000003_Node000007" class="edge">
<title>Node3&#45;&gt;Node7</title>
<g id="a_edge6_Node000003_Node000007"><a xlink:title=" ">
<path fill="none" stroke="#63b8ff" d="M1530.04,-126.45C1585.14,-113.89 1681.15,-91.25 1686,-85 1699.74,-67.27 1684.17,-42.58 1670.58,-26.57"/>
<polygon fill="#63b8ff" stroke="#63b8ff" points="1673.11,-24.15 1663.81,-19.07 1667.91,-28.84 1673.11,-24.15"/>
</a>
</g>
</g>
<!-- Node8 -->
<g id="Node000008" class="node">
<title>Node8</title>
<g id="a_Node000008"><a xlink:title=" ">
<polygon fill="#e0e0e0" stroke="#999999" points="972,-19 922,-19 922,0 972,0 972,-19"/>
<text text-anchor="middle" x="947" y="-7" font-family="Helvetica,sans-Serif" font-size="10.00">format</text>
</a>
</g>
</g>
<!-- Node3&#45;&gt;Node8 -->
<g id="edge7_Node000003_Node000008" class="edge">
<title>Node3&#45;&gt;Node8</title>
<g id="a_edge7_Node000003_Node000008"><a xlink:title=" ">
<path fill="none" stroke="#63b8ff" d="M1490.43,-126.43C1486.82,-109.52 1476.24,-72 1451,-55 1412.26,-28.91 1090.06,-15.46 982.1,-11.65"/>
<polygon fill="#63b8ff" stroke="#63b8ff" points="982.16,-8.15 972.05,-11.3 981.92,-15.15 982.16,-8.15"/>
</a>
</g>
</g>
<!-- Node9 -->
<g id="Node000009" class="node">
<title>Node9</title>
<g id="a_Node000009"><a xlink:href="std__path__formatter_8hpp.html" target="_top" xlink:title="Defines an std::formatter for std::filesystem::path. MUST be deleted when C++26 is available with tha...">
<polygon fill="white" stroke="#666666" points="1441.5,-85 1316.5,-85 1316.5,-55 1441.5,-55 1441.5,-85"/>
<text text-anchor="start" x="1324.5" y="-73" font-family="Helvetica,sans-Serif" font-size="10.00">netspeak/util/std_path</text>
<text text-anchor="middle" x="1379" y="-62" font-family="Helvetica,sans-Serif" font-size="10.00">_formatter.hpp</text>
</a>
</g>
</g>
<!-- Node3&#45;&gt;Node9 -->
<g id="edge8_Node000003_Node000009" class="edge">
<title>Node3&#45;&gt;Node9</title>
<g id="a_edge8_Node000003_Node000009"><a xlink:title=" ">
<path fill="none" stroke="#63b8ff" d="M1476.76,-126.37C1460.42,-117.11 1433.95,-102.12 1412.68,-90.07"/>
<polygon fill="#63b8ff" stroke="#63b8ff" points="1414.35,-87 1403.92,-85.12 1410.9,-93.09 1414.35,-87"/>
</a>
</g>
</g>
<!-- Node11 -->
<g id="Node000011" class="node">
<title>Node11</title>
<g id="a_Node000011"><a xlink:title=" ">
<polygon fill="#e0e0e0" stroke="#999999" points="903.5,-19 838.5,-19 838.5,0 903.5,0 903.5,-19"/>
<text text-anchor="middle" x="871" y="-7" font-family="Helvetica,sans-Serif" font-size="10.00">stdexcept</text>
</a>
</g>
</g>
<!-- Node3&#45;&gt;Node11 -->
<g id="edge12_Node000003_Node000011" class="edge">
<title>Node3&#45;&gt;Node11</title>
<g id="a_edge12_Node000003_Node000011"><a xlink:title=" ">
<path fill="none" stroke="#63b8ff" d="M1460.58,-126.47C1386.55,-106.4 1206.38,-57.64 1193,-55 1073.03,-31.35 1038.53,-39.04 913.48,-18.95"/>
<polygon fill="#63b8ff" stroke="#63b8ff" points="913.95,-15.48 903.52,-17.32 912.82,-22.39 913.95,-15.48"/>
</a>
</g>
</g>
<!-- Node9&#45;&gt;Node7 -->
<g id="edge9_Node000009_Node000007" class="edge">
<title>Node9&#45;&gt;Node7</title>
<g id="a_edge9_Node000009_Node000007"><a xlink:title=" ">
<path fill="none" stroke="#63b8ff" d="M1441.63,-55.73C1493.23,-44.79 1565.12,-29.55 1610.86,-19.86"/>
<polygon fill="#63b8ff" stroke="#63b8ff" points="1611.71,-23.25 1620.77,-17.76 1610.26,-16.4 1611.71,-23.25"/>
</a>
</g>
</g>
<!-- Node9&#45;&gt;Node8 -->
<g id="edge10_Node000009_Node000008" class="edge">
<title>Node9&#45;&gt;Node8</title>
<g id="a_edge10_Node000009_Node000008"><a xlink:title=" ">
<path fill="none" stroke="#63b8ff" d="M1316.43,-57.33C1311.55,-56.51 1306.7,-55.72 1302,-55 1185.34,-37.1 1046.29,-21.26 982.35,-14.28"/>
<polygon fill="#63b8ff" stroke="#63b8ff" points="982.35,-10.76 972.03,-13.16 981.59,-17.72 982.35,-10.76"/>
</a>
</g>
</g>
<!-- Node10 -->
<g id="Node000010" class="node">
<title>Node10</title>
<g id="a_Node000010"><a xlink:title=" ">
<polygon fill="#e0e0e0" stroke="#999999" points="526,-19 482,-19 482,0 526,0 526,-19"/>
<text text-anchor="middle" x="504" y="-7" font-family="Helvetica,sans-Serif" font-size="10.00">string</text>
</a>
</g>
</g>
<!-- Node9&#45;&gt;Node10 -->
<g id="edge11_Node000009_Node000010" class="edge">
<title>Node9&#45;&gt;Node10</title>
<g id="a_edge11_Node000009_Node000010"><a xlink:title=" ">
<path fill="none" stroke="#63b8ff" d="M1316.17,-63.98C1280.13,-61.18 1234.04,-57.71 1193,-55 911.82,-36.42 840.27,-48.18 560,-19 552.18,-18.19 543.78,-17.05 535.93,-15.88"/>
<polygon fill="#63b8ff" stroke="#63b8ff" points="536.43,-12.41 526.01,-14.33 535.36,-19.33 536.43,-12.41"/>
</a>
</g>
</g>
<!-- Node12&#45;&gt;Node8 -->
<g id="edge14_Node000012_Node000008" class="edge">
<title>Node12&#45;&gt;Node8</title>
<g id="a_edge14_Node000012_Node000008"><a xlink:title=" ">
<path fill="none" stroke="#63b8ff" d="M1125.85,-406.95C1042.85,-391.86 890,-357.3 890,-307.5 890,-307.5 890,-307.5 890,-135 890,-93.24 916.84,-50.16 933.69,-27.24"/>
<polygon fill="#63b8ff" stroke="#63b8ff" points="936.51,-29.31 939.78,-19.23 930.94,-25.07 936.51,-29.31"/>
</a>
</g>
</g>
<!-- Node12&#45;&gt;Node9 -->
<g id="edge17_Node000012_Node000009" class="edge">
<title>Node12&#45;&gt;Node9</title>
<g id="a_edge17_Node000012_Node000009"><a xlink:title=" ">
<path fill="none" stroke="#63b8ff" d="M1182.86,-406.73C1199.79,-376.2 1257.89,-271.9 1308,-187 1327.29,-154.33 1350.33,-116.98 1364.82,-93.69"/>
<polygon fill="#63b8ff" stroke="#63b8ff" points="1367.79,-95.54 1370.11,-85.2 1361.85,-91.83 1367.79,-95.54"/>
</a>
</g>
</g>
<!-- Node12&#45;&gt;Node11 -->
<g id="edge19_Node000012_Node000011" class="edge">
<title>Node12&#45;&gt;Node11</title>
<g id="a_edge19_Node000012_Node000011"><a xlink:title=" ">
<path fill="none" stroke="#63b8ff" d="M1124.4,-408.15C1121.22,-407.75 1118.07,-407.36 1115,-407 1006.64,-394.18 138,-416.62 138,-307.5 138,-307.5 138,-307.5 138,-135 138,-98.46 129.05,-78.54 157,-55 163.46,-49.56 674.47,-21.24 827.91,-12.84"/>
<polygon fill="#63b8ff" stroke="#63b8ff" points="828.53,-16.32 838.33,-12.28 828.15,-9.33 828.53,-16.32"/>
</a>
</g>
</g>
<!-- Node13 -->
<g id="Node000013" class="node">
<title>Node13</title>
<g id="a_Node000013"><a xlink:title=" ">
<polygon fill="#e0e0e0" stroke="#999999" points="1112,-371 1068,-371 1068,-352 1112,-352 1112,-371"/>
<text text-anchor="middle" x="1090" y="-359" font-family="Helvetica,sans-Serif" font-size="10.00">limits</text>
</a>
</g>
</g>
<!-- Node12&#45;&gt;Node13 -->
<g id="edge15_Node000012_Node000013" class="edge">
<title>Node12&#45;&gt;Node13</title>
<g id="a_edge15_Node000012_Node000013"><a xlink:title=" ">
<path fill="none" stroke="#63b8ff" d="M1163.86,-406.98C1150.21,-398.77 1129.31,-386.18 1113.22,-376.49"/>
<polygon fill="#63b8ff" stroke="#63b8ff" points="1114.77,-373.33 1104.4,-371.17 1111.16,-379.33 1114.77,-373.33"/>
</a>
</g>
</g>
<!-- Node14 -->
<g id="Node000014" class="node">
<title>Node14</title>
<g id="a_Node000014"><a xlink:title=" ">
<polygon fill="#e0e0e0" stroke="#999999" points="1623,-145.5 1565,-145.5 1565,-126.5 1623,-126.5 1623,-145.5"/>
<text text-anchor="middle" x="1594" y="-133.5" font-family="Helvetica,sans-Serif" font-size="10.00">memory</text>
</a>
</g>
</g>
<!-- Node12&#45;&gt;Node14 -->
<g id="edge16_Node000012_Node000014" class="edge">
<title>Node12&#45;&gt;Node14</title>
<g id="a_edge16_Node000012_Node000014"><a xlink:title=" ">
<path fill="none" stroke="#63b8ff" d="M1231.51,-411.33C1297.41,-405.35 1404.73,-392.61 1438,-371 1521.59,-316.69 1571.07,-200.17 1587.68,-155.22"/>
<polygon fill="#63b8ff" stroke="#63b8ff" points="1591.04,-156.22 1591.12,-145.63 1584.45,-153.86 1591.04,-156.22"/>
</a>
</g>
</g>
<!-- Node15 -->
<g id="Node000015" class="node">
<title>Node15</title>
<g id="a_Node000015"><a xlink:title=" ">
<polygon fill="#e0e0e0" stroke="#999999" points="1039,-206 983,-206 983,-187 1039,-187 1039,-206"/>
<text text-anchor="middle" x="1011" y="-194" font-family="Helvetica,sans-Serif" font-size="10.00">numeric</text>
</a>
</g>
</g>
<!-- Node12&#45;&gt;Node15 -->
<g id="edge18_Node000012_Node000015" class="edge">
<title>Node12&#45;&gt;Node15</title>
<g id="a_edge18_Node000012_Node000015"><a xlink:title=" ">
<path fill="none" stroke="#63b8ff" d="M1171.45,-406.95C1146.57,-374.47 1057.57,-258.29 1023.97,-214.43"/>
<polygon fill="#63b8ff" stroke="#63b8ff" points="1026.54,-212.03 1017.68,-206.22 1020.99,-216.29 1026.54,-212.03"/>
</a>
</g>
</g>
<!-- Node16 -->
<g id="Node000016" class="node">
<title>Node16</title>
<g id="a_Node000016"><a xlink:title=" ">
<polygon fill="#e0e0e0" stroke="#999999" points="1152.5,-206 1057.5,-206 1057.5,-187 1152.5,-187 1152.5,-206"/>
<text text-anchor="middle" x="1105" y="-194" font-family="Helvetica,sans-Serif" font-size="10.00">boost/utility.hpp</text>
</a>
</g>
</g>
<!-- Node12&#45;&gt;Node16 -->
<g id="edge20_Node000012_Node000016" class="edge">
<title>Node12&#45;&gt;Node16</title>
<g id="a_edge20_Node000012_Node000016"><a xlink:title=" ">
<path fill="none" stroke="#63b8ff" d="M1178.78,-406.94C1180.8,-380.58 1184.08,-299.02 1154,-242 1147.78,-230.21 1137.13,-219.97 1127.35,-212.29"/>
<polygon fill="#63b8ff" stroke="#63b8ff" points="1129.24,-209.33 1119.11,-206.23 1125.09,-214.97 1129.24,-209.33"/>
</a>
</g>
</g>
<!-- Node17 -->
<g id="Node000017" class="node">
<title>Node17</title>
<g id="a_Node000017"><a xlink:href="netspeak_2util_2logging_8hpp.html" target="_top" xlink:title=" ">
<polygon fill="white" stroke="#666666" points="109.5,-79.5 8.5,-79.5 8.5,-60.5 109.5,-60.5 109.5,-79.5"/>
<text text-anchor="middle" x="59" y="-67.5" font-family="Helvetica,sans-Serif" font-size="10.00">../util/logging.hpp</text>
</a>
</g>
</g>
<!-- Node12&#45;&gt;Node17 -->
<g id="edge21_Node000012_Node000017" class="edge">
<title>Node12&#45;&gt;Node17</title>
<g id="a_edge21_Node000012_Node000017"><a xlink:title=" ">
<path fill="none" stroke="#63b8ff" d="M1124.42,-407.91C1121.24,-407.57 1118.08,-407.26 1115,-407 1005.22,-397.62 220.66,-423.88 124,-371 93.88,-354.52 80,-341.84 80,-307.5 80,-307.5 80,-307.5 80,-195.5 80,-157.46 70.35,-113.79 64.14,-89.6"/>
<polygon fill="#63b8ff" stroke="#63b8ff" points="67.45,-88.43 61.49,-79.67 60.68,-90.23 67.45,-88.43"/>
</a>
</g>
</g>
<!-- Node21 -->
<g id="Node000021" class="node">
<title>Node21</title>
<g id="a_Node000021"><a xlink:href="Iterator_8hpp.html" target="_top" xlink:title=" ">
<polygon fill="white" stroke="#666666" points="1385.5,-261 1312.5,-261 1312.5,-242 1385.5,-242 1385.5,-261"/>
<text text-anchor="middle" x="1349" y="-249" font-family="Helvetica,sans-Serif" font-size="10.00">Iterator.hpp</text>
</a>
</g>
</g>
<!-- Node12&#45;&gt;Node21 -->
<g id="edge26_Node000012_Node000021" class="edge">
<title>Node12&#45;&gt;Node21</title>
<g id="a_edge26_Node000012_Node000021"><a xlink:title=" ">
<path fill="none" stroke="#63b8ff" d="M1226.36,-406.95C1250.4,-400.56 1278.43,-389.59 1298,-371 1326.86,-343.59 1340.23,-297.13 1345.7,-271.28"/>
<polygon fill="#63b8ff" stroke="#63b8ff" points="1349.17,-271.77 1347.64,-261.29 1342.3,-270.44 1349.17,-271.77"/>
</a>
</g>
</g>
<!-- Node40 -->
<g id="Node000040" class="node">
<title>Node40</title>
<g id="a_Node000040"><a xlink:href="Postlist_8hpp.html" target="_top" xlink:title=" ">
<polygon fill="white" stroke="#666666" points="1429,-371 1355,-371 1355,-352 1429,-352 1429,-371"/>
<text text-anchor="middle" x="1392" y="-359" font-family="Helvetica,sans-Serif" font-size="10.00">Postlist.hpp</text>
</a>
</g>
</g>
<!-- Node12&#45;&gt;Node40 -->
<g id="edge72_Node000012_Node000040" class="edge">
<title>Node12&#45;&gt;Node40</title>
<g id="a_edge72_Node000012_Node000040"><a xlink:title=" ">
<path fill="none" stroke="#63b8ff" d="M1212.38,-406.98C1249.09,-397.89 1307.38,-383.46 1347.55,-373.51"/>
<polygon fill="#63b8ff" stroke="#63b8ff" points="1348.48,-376.88 1357.35,-371.08 1346.8,-370.09 1348.48,-376.88"/>
</a>
</g>
</g>
<!-- Node17&#45;&gt;Node10 -->
<g id="edge25_Node000017_Node000010" class="edge">
<title>Node17&#45;&gt;Node10</title>
<g id="a_edge25_Node000017_Node000010"><a xlink:title=" ">
<path fill="none" stroke="#63b8ff" d="M95.66,-60.46C104.88,-58.49 114.78,-56.53 124,-55 251.87,-33.79 405.59,-19.06 471.46,-13.25"/>
<polygon fill="#63b8ff" stroke="#63b8ff" points="471.96,-16.72 481.62,-12.37 471.36,-9.75 471.96,-16.72"/>
</a>
</g>
</g>
<!-- Node18 -->
<g id="Node000018" class="node">
<title>Node18</title>
<g id="a_Node000018"><a xlink:title=" ">
<polygon fill="#e0e0e0" stroke="#999999" points="380,-19 320,-19 320,0 380,0 380,-19"/>
<text text-anchor="middle" x="350" y="-7" font-family="Helvetica,sans-Serif" font-size="10.00">iostream</text>
</a>
</g>
</g>
<!-- Node17&#45;&gt;Node18 -->
<g id="edge22_Node000017_Node000018" class="edge">
<title>Node17&#45;&gt;Node18</title>
<g id="a_edge22_Node000017_Node000018"><a xlink:title=" ">
<path fill="none" stroke="#63b8ff" d="M98.16,-60.45C106.67,-58.62 115.63,-56.72 124,-55 189.04,-41.59 264.8,-26.85 310,-18.15"/>
<polygon fill="#63b8ff" stroke="#63b8ff" points="310.83,-21.56 319.99,-16.23 309.51,-14.68 310.83,-21.56"/>
</a>
</g>
</g>
<!-- Node19 -->
<g id="Node000019" class="node">
<title>Node19</title>
<g id="a_Node000019"><a xlink:title=" ">
<polygon fill="#e0e0e0" stroke="#999999" points="119.5,-19 66.5,-19 66.5,0 119.5,0 119.5,-19"/>
<text text-anchor="middle" x="93" y="-7" font-family="Helvetica,sans-Serif" font-size="10.00">iterator</text>
</a>
</g>
</g>
<!-- Node17&#45;&gt;Node19 -->
<g id="edge23_Node000017_Node000019" class="edge">
<title>Node17&#45;&gt;Node19</title>
<g id="a_edge23_Node000017_Node000019"><a xlink:title=" ">
<path fill="none" stroke="#63b8ff" d="M64.02,-60.37C68.94,-51.9 76.59,-38.74 82.79,-28.07"/>
<polygon fill="#63b8ff" stroke="#63b8ff" points="85.96,-29.57 87.96,-19.17 79.91,-26.05 85.96,-29.57"/>
</a>
</g>
</g>
<!-- Node20 -->
<g id="Node000020" class="node">
<title>Node20</title>
<g id="a_Node000020"><a xlink:title=" ">
<polygon fill="#e0e0e0" stroke="#999999" points="48,-19 0,-19 0,0 48,0 48,-19"/>
<text text-anchor="middle" x="24" y="-7" font-family="Helvetica,sans-Serif" font-size="10.00">mutex</text>
</a>
</g>
</g>
<!-- Node17&#45;&gt;Node20 -->
<g id="edge24_Node000017_Node000020" class="edge">
<title>Node17&#45;&gt;Node20</title>
<g id="a_edge24_Node000017_Node000020"><a xlink:title=" ">
<path fill="none" stroke="#63b8ff" d="M53.84,-60.37C48.77,-51.9 40.9,-38.74 34.51,-28.07"/>
<polygon fill="#63b8ff" stroke="#63b8ff" points="37.32,-25.95 29.19,-19.17 31.32,-29.55 37.32,-25.95"/>
</a>
</g>
</g>
<!-- Node21&#45;&gt;Node3 -->
<g id="edge31_Node000021_Node000003" class="edge">
<title>Node21&#45;&gt;Node3</title>
<g id="a_edge31_Node000021_Node000003"><a xlink:title=" ">
<path fill="none" stroke="#63b8ff" d="M1379.27,-242C1400.3,-234.94 1428.04,-223.25 1448,-206 1464.24,-191.96 1476.64,-170.45 1484.08,-155.18"/>
<polygon fill="#63b8ff" stroke="#63b8ff" points="1487.4,-156.33 1488.41,-145.78 1481.05,-153.39 1487.4,-156.33"/>
</a>
</g>
</g>
<!-- Node21&#45;&gt;Node15 -->
<g id="edge27_Node000021_Node000015" class="edge">
<title>Node21&#45;&gt;Node15</title>
<g id="a_edge27_Node000021_Node000015"><a xlink:title=" ">
<path fill="none" stroke="#63b8ff" d="M1312.38,-245.94C1255.71,-238.69 1143.48,-223.55 1049,-206 1048.9,-205.98 1048.8,-205.96 1048.7,-205.94"/>
<polygon fill="#63b8ff" stroke="#63b8ff" points="1049.67,-202.57 1039.17,-204.04 1048.3,-209.43 1049.67,-202.57"/>
</a>
</g>
</g>
<!-- Node21&#45;&gt;Node16 -->
<g id="edge30_Node000021_Node000016" class="edge">
<title>Node21&#45;&gt;Node16</title>
<g id="a_edge30_Node000021_Node000016"><a xlink:title=" ">
<path fill="none" stroke="#63b8ff" d="M1312.47,-242.57C1270.36,-233.42 1200.94,-218.34 1154.13,-208.17"/>
<polygon fill="#63b8ff" stroke="#63b8ff" points="1154.72,-204.72 1144.21,-206.02 1153.24,-211.56 1154.72,-204.72"/>
</a>
</g>
</g>
<!-- Node22 -->
<g id="Node000022" class="node">
<title>Node22</title>
<g id="a_Node000022"><a xlink:title=" ">
<polygon fill="#e0e0e0" stroke="#999999" points="1373.5,-206 1316.5,-206 1316.5,-187 1373.5,-187 1373.5,-206"/>
<text text-anchor="middle" x="1345" y="-194" font-family="Helvetica,sans-Serif" font-size="10.00">ostream</text>
</a>
</g>
</g>
<!-- Node21&#45;&gt;Node22 -->
<g id="edge28_Node000021_Node000022" class="edge">
<title>Node21&#45;&gt;Node22</title>
<g id="a_edge28_Node000021_Node000022"><a xlink:title=" ">
<path fill="none" stroke="#63b8ff" d="M1348.34,-241.75C1347.82,-234.8 1347.06,-224.85 1346.41,-216.13"/>
<polygon fill="#63b8ff" stroke="#63b8ff" points="1349.89,-215.8 1345.65,-206.09 1342.91,-216.32 1349.89,-215.8"/>
</a>
</g>
</g>
<!-- Node23 -->
<g id="Node000023" class="node">
<title>Node23</title>
<g id="a_Node000023"><a xlink:title=" ">
<polygon fill="#e0e0e0" stroke="#999999" points="1438.5,-206 1391.5,-206 1391.5,-187 1438.5,-187 1438.5,-206"/>
<text text-anchor="middle" x="1415" y="-194" font-family="Helvetica,sans-Serif" font-size="10.00">vector</text>
</a>
</g>
</g>
<!-- Node21&#45;&gt;Node23 -->
<g id="edge29_Node000021_Node000023" class="edge">
<title>Node21&#45;&gt;Node23</title>
<g id="a_edge29_Node000021_Node000023"><a xlink:title=" ">
<path fill="none" stroke="#63b8ff" d="M1359.6,-241.98C1369.46,-234.07 1384.35,-222.11 1396.22,-212.58"/>
<polygon fill="#63b8ff" stroke="#63b8ff" points="1398.6,-215.16 1404.2,-206.17 1394.21,-209.7 1398.6,-215.16"/>
</a>
</g>
</g>
<!-- Node24 -->
<g id="Node000024" class="node">
<title>Node24</title>
<g id="a_Node000024"><a xlink:href="ByteBuffer_8hpp.html" target="_top" xlink:title=" ">
<polygon fill="white" stroke="#666666" points="1259.5,-206 1170.5,-206 1170.5,-187 1259.5,-187 1259.5,-206"/>
<text text-anchor="middle" x="1215" y="-194" font-family="Helvetica,sans-Serif" font-size="10.00">ByteBuffer.hpp</text>
</a>
</g>
</g>
<!-- Node21&#45;&gt;Node24 -->
<g id="edge32_Node000021_Node000024" class="edge">
<title>Node21&#45;&gt;Node24</title>
<g id="a_edge32_Node000021_Node000024"><a xlink:title=" ">
<path fill="none" stroke="#63b8ff" d="M1327.47,-241.98C1305.53,-233.3 1271.26,-219.75 1246.31,-209.88"/>
<polygon fill="#63b8ff" stroke="#63b8ff" points="1247.51,-206.59 1236.92,-206.17 1244.93,-213.1 1247.51,-206.59"/>
</a>
</g>
</g>
<!-- Node24&#45;&gt;Node3 -->
<g id="edge38_Node000024_Node000003" class="edge">
<title>Node24&#45;&gt;Node3</title>
<g id="a_edge38_Node000024_Node000003"><a xlink:title=" ">
<path fill="none" stroke="#63b8ff" d="M1255.28,-186.99C1304.62,-176.57 1388.21,-158.92 1441.72,-147.62"/>
<polygon fill="#63b8ff" stroke="#63b8ff" points="1442.61,-151.01 1451.67,-145.52 1441.17,-144.16 1442.61,-151.01"/>
</a>
</g>
</g>
<!-- Node24&#45;&gt;Node6 -->
<g id="edge34_Node000024_Node000006" class="edge">
<title>Node24&#45;&gt;Node6</title>
<g id="a_edge34_Node000024_Node000006"><a xlink:title=" ">
<path fill="none" stroke="#63b8ff" d="M1243.96,-186.95C1291.08,-172 1385.63,-137.63 1451,-85 1470.94,-68.95 1487.88,-44.53 1497.99,-28.06"/>
<polygon fill="#63b8ff" stroke="#63b8ff" points="1501.03,-29.8 1503.12,-19.41 1495.01,-26.23 1501.03,-29.8"/>
</a>
</g>
</g>
<!-- Node24&#45;&gt;Node8 -->
<g id="edge35_Node000024_Node000008" class="edge">
<title>Node24&#45;&gt;Node8</title>
<g id="a_edge35_Node000024_Node000008"><a xlink:title=" ">
<path fill="none" stroke="#63b8ff" d="M1217.88,-186.9C1225.39,-162.7 1242.75,-93.27 1209,-55 1179.66,-21.73 1046.57,-13.33 982.15,-11.21"/>
<polygon fill="#63b8ff" stroke="#63b8ff" points="982.16,-7.71 972.06,-10.92 981.95,-14.71 982.16,-7.71"/>
</a>
</g>
</g>
<!-- Node24&#45;&gt;Node11 -->
<g id="edge37_Node000024_Node000011" class="edge">
<title>Node24&#45;&gt;Node11</title>
<g id="a_edge37_Node000024_Node000011"><a xlink:title=" ">
<path fill="none" stroke="#63b8ff" d="M1170.32,-188.07C1099.09,-176.17 967.32,-153.85 963,-151 917.27,-120.85 889.12,-59.3 877.37,-28.66"/>
<polygon fill="#63b8ff" stroke="#63b8ff" points="880.63,-27.39 873.89,-19.21 874.06,-29.81 880.63,-27.39"/>
</a>
</g>
</g>
<!-- Node24&#45;&gt;Node14 -->
<g id="edge36_Node000024_Node000014" class="edge">
<title>Node24&#45;&gt;Node14</title>
<g id="a_edge36_Node000024_Node000014"><a xlink:title=" ">
<path fill="none" stroke="#63b8ff" d="M1259.7,-190.92C1338.92,-182.6 1500.78,-164.59 1556,-151 1558.51,-150.38 1561.08,-149.65 1563.65,-148.86"/>
<polygon fill="#63b8ff" stroke="#63b8ff" points="1565.01,-152.09 1573.36,-145.56 1562.76,-145.46 1565.01,-152.09"/>
</a>
</g>
</g>
<!-- Node25 -->
<g id="Node000025" class="node">
<title>Node25</title>
<g id="a_Node000025"><a xlink:title=" ">
<polygon fill="#e0e0e0" stroke="#999999" points="1020.5,-145.5 971.5,-145.5 971.5,-126.5 1020.5,-126.5 1020.5,-145.5"/>
<text text-anchor="middle" x="996" y="-133.5" font-family="Helvetica,sans-Serif" font-size="10.00">cstdlib</text>
</a>
</g>
</g>
<!-- Node24&#45;&gt;Node25 -->
<g id="edge33_Node000024_Node000025" class="edge">
<title>Node24&#45;&gt;Node25</title>
<g id="a_edge33_Node000024_Node000025"><a xlink:title=" ">
<path fill="none" stroke="#63b8ff" d="M1171.11,-186.94C1133.29,-179.09 1077.45,-166.37 1030,-151 1028.33,-150.46 1026.63,-149.87 1024.92,-149.26"/>
<polygon fill="#63b8ff" stroke="#63b8ff" points="1025.82,-145.85 1015.23,-145.52 1023.3,-152.38 1025.82,-145.85"/>
</a>
</g>
</g>
<!-- Node26 -->
<g id="Node000026" class="node">
<title>Node26</title>
<g id="a_Node000026"><a xlink:href="pair__traits_8hpp.html" target="_top" xlink:title=" ">
<polygon fill="white" stroke="#666666" points="521,-145.5 395,-145.5 395,-126.5 521,-126.5 521,-145.5"/>
<text text-anchor="middle" x="458" y="-133.5" font-family="Helvetica,sans-Serif" font-size="10.00">../value/pair_traits.hpp</text>
</a>
</g>
</g>
<!-- Node24&#45;&gt;Node26 -->
<g id="edge39_Node000024_Node000026" class="edge">
<title>Node24&#45;&gt;Node26</title>
<g id="a_edge39_Node000024_Node000026"><a xlink:title=" ">
<path fill="none" stroke="#63b8ff" d="M1170.22,-187.99C1167.44,-187.63 1164.69,-187.29 1162,-187 890.26,-157.32 819.81,-180.04 548,-151 538.09,-149.94 527.61,-148.56 517.44,-147.07"/>
<polygon fill="#63b8ff" stroke="#63b8ff" points="517.81,-143.59 507.4,-145.56 516.77,-150.51 517.81,-143.59"/>
</a>
</g>
</g>
<!-- Node33 -->
<g id="Node000033" class="node">
<title>Node33</title>
<g id="a_Node000033"><a xlink:href="quadruple__traits_8hpp.html" target="_top" xlink:title=" ">
<polygon fill="white" stroke="#666666" points="661,-151 557,-151 557,-121 661,-121 661,-151"/>
<text text-anchor="start" x="565" y="-139" font-family="Helvetica,sans-Serif" font-size="10.00">../value/quadruple</text>
<text text-anchor="middle" x="609" y="-128" font-family="Helvetica,sans-Serif" font-size="10.00">_traits.hpp</text>
</a>
</g>
</g>
<!-- Node24&#45;&gt;Node33 -->
<g id="edge53_Node000024_Node000033" class="edge">
<title>Node24&#45;&gt;Node33</title>
<g id="a_edge53_Node000024_Node000033"><a xlink:title=" ">
<path fill="none" stroke="#63b8ff" d="M1170.22,-188.05C1167.44,-187.67 1164.68,-187.32 1162,-187 954.39,-162.43 900.53,-176.21 693,-151 685.94,-150.14 678.56,-149.11 671.24,-148"/>
<polygon fill="#63b8ff" stroke="#63b8ff" points="671.74,-144.54 661.32,-146.46 670.66,-151.46 671.74,-144.54"/>
</a>
</g>
</g>
<!-- Node35 -->
<g id="Node000035" class="node">
<title>Node35</title>
<g id="a_Node000035"><a xlink:href="string__traits_8hpp.html" target="_top" xlink:title=" ">
<polygon fill="white" stroke="#666666" points="1173.5,-145.5 1038.5,-145.5 1038.5,-126.5 1173.5,-126.5 1173.5,-145.5"/>
<text text-anchor="middle" x="1106" y="-133.5" font-family="Helvetica,sans-Serif" font-size="10.00">../value/string_traits.hpp</text>
</a>
</g>
</g>
<!-- Node24&#45;&gt;Node35 -->
<g id="edge59_Node000024_Node000035" class="edge">
<title>Node24&#45;&gt;Node35</title>
<g id="a_edge59_Node000024_Node000035"><a xlink:title=" ">
<path fill="none" stroke="#63b8ff" d="M1198.92,-186.87C1181.05,-177.28 1151.96,-161.67 1131.09,-150.47"/>
<polygon fill="#63b8ff" stroke="#63b8ff" points="1132.62,-147.31 1122.15,-145.67 1129.31,-153.48 1132.62,-147.31"/>
</a>
</g>
</g>
<!-- Node38 -->
<g id="Node000038" class="node">
<title>Node38</title>
<g id="a_Node000038"><a xlink:href="triple__traits_8hpp.html" target="_top" xlink:title=" ">
<polygon fill="white" stroke="#666666" points="835.5,-145.5 702.5,-145.5 702.5,-126.5 835.5,-126.5 835.5,-145.5"/>
<text text-anchor="middle" x="769" y="-133.5" font-family="Helvetica,sans-Serif" font-size="10.00">../value/triple_traits.hpp</text>
</a>
</g>
</g>
<!-- Node24&#45;&gt;Node38 -->
<g id="edge66_Node000024_Node000038" class="edge">
<title>Node24&#45;&gt;Node38</title>
<g id="a_edge66_Node000024_Node000038"><a xlink:title=" ">
<path fill="none" stroke="#63b8ff" d="M1170.48,-188.25C1167.61,-187.82 1164.77,-187.4 1162,-187 1052.54,-171.26 925.56,-155.57 846.23,-146.08"/>
<polygon fill="#63b8ff" stroke="#63b8ff" points="846.19,-142.54 835.84,-144.83 845.36,-149.5 846.19,-142.54"/>
</a>
</g>
</g>
<!-- Node26&#45;&gt;Node8 -->
<g id="edge50_Node000026_Node000008" class="edge">
<title>Node26&#45;&gt;Node8</title>
<g id="a_edge50_Node000026_Node000008"><a xlink:title=" ">
<path fill="none" stroke="#63b8ff" d="M507.32,-126.49C561.71,-116.6 645.34,-99.75 674,-85 691.92,-75.78 689.84,-63.74 708,-55 788.51,-16.27 820.32,-36.71 911.85,-19.04"/>
<polygon fill="#63b8ff" stroke="#63b8ff" points="912.69,-22.44 921.8,-17.01 911.3,-15.58 912.69,-22.44"/>
</a>
</g>
</g>
<!-- Node26&#45;&gt;Node10 -->
<g id="edge52_Node000026_Node000010" class="edge">
<title>Node26&#45;&gt;Node10</title>
<g id="a_edge52_Node000026_Node000010"><a xlink:title=" ">
<path fill="none" stroke="#63b8ff" d="M394.82,-129.18C327.91,-120.55 236.7,-100.21 274,-55 298.68,-25.09 414.23,-15.05 471.57,-11.87"/>
<polygon fill="#63b8ff" stroke="#63b8ff" points="472.08,-15.35 481.89,-11.34 471.72,-8.36 472.08,-15.35"/>
</a>
</g>
</g>
<!-- Node27 -->
<g id="Node000027" class="node">
<title>Node27</title>
<g id="a_Node000027"><a xlink:href="pair_8hpp.html" target="_top" xlink:title=" ">
<polygon fill="white" stroke="#666666" points="222,-79.5 166,-79.5 166,-60.5 222,-60.5 222,-79.5"/>
<text text-anchor="middle" x="194" y="-67.5" font-family="Helvetica,sans-Serif" font-size="10.00">pair.hpp</text>
</a>
</g>
</g>
<!-- Node26&#45;&gt;Node27 -->
<g id="edge40_Node000026_Node000027" class="edge">
<title>Node26&#45;&gt;Node27</title>
<g id="a_edge40_Node000026_Node000027"><a xlink:title=" ">
<path fill="none" stroke="#63b8ff" d="M413.87,-126.42C368.84,-117.35 297.08,-102.01 236,-85 233.38,-84.27 230.69,-83.48 227.99,-82.65"/>
<polygon fill="#63b8ff" stroke="#63b8ff" points="228.89,-79.26 218.3,-79.56 226.77,-85.93 228.89,-79.26"/>
</a>
</g>
</g>
<!-- Node29 -->
<g id="Node000029" class="node">
<title>Node29</title>
<g id="a_Node000029"><a xlink:href="value__traits_8hpp.html" target="_top" xlink:title=" ">
<polygon fill="white" stroke="#666666" points="665.5,-79.5 570.5,-79.5 570.5,-60.5 665.5,-60.5 665.5,-79.5"/>
<text text-anchor="middle" x="618" y="-67.5" font-family="Helvetica,sans-Serif" font-size="10.00">value_traits.hpp</text>
</a>
</g>
</g>
<!-- Node26&#45;&gt;Node29 -->
<g id="edge42_Node000026_Node000029" class="edge">
<title>Node26&#45;&gt;Node29</title>
<g id="a_edge42_Node000026_Node000029"><a xlink:title=" ">
<path fill="none" stroke="#63b8ff" d="M479.58,-126.37C507.21,-115.32 555.29,-96.08 586.88,-83.45"/>
<polygon fill="#63b8ff" stroke="#63b8ff" points="588.52,-86.56 596.51,-79.6 585.92,-80.06 588.52,-86.56"/>
</a>
</g>
</g>
<!-- Node32 -->
<g id="Node000032" class="node">
<title>Node32</title>
<g id="a_Node000032"><a xlink:title=" ">
<polygon fill="#e0e0e0" stroke="#999999" points="476,-79.5 420,-79.5 420,-60.5 476,-60.5 476,-79.5"/>
<text text-anchor="middle" x="448" y="-67.5" font-family="Helvetica,sans-Serif" font-size="10.00">sstream</text>
</a>
</g>
</g>
<!-- Node26&#45;&gt;Node32 -->
<g id="edge51_Node000026_Node000032" class="edge">
<title>Node26&#45;&gt;Node32</title>
<g id="a_edge51_Node000026_Node000032"><a xlink:title=" ">
<path fill="none" stroke="#63b8ff" d="M456.65,-126.37C455.2,-117.07 452.84,-101.98 450.95,-89.9"/>
<polygon fill="#63b8ff" stroke="#63b8ff" points="454.39,-89.25 449.39,-79.91 447.48,-90.33 454.39,-89.25"/>
</a>
</g>
</g>
<!-- Node28 -->
<g id="Node000028" class="node">
<title>Node28</title>
<g id="a_Node000028"><a xlink:title=" ">
<polygon fill="#e0e0e0" stroke="#999999" points="216.5,-19 171.5,-19 171.5,0 216.5,0 216.5,-19"/>
<text text-anchor="middle" x="194" y="-7" font-family="Helvetica,sans-Serif" font-size="10.00">utility</text>
</a>
</g>
</g>
<!-- Node27&#45;&gt;Node28 -->
<g id="edge41_Node000027_Node000028" class="edge">
<title>Node27&#45;&gt;Node28</title>
<g id="a_edge41_Node000027_Node000028"><a xlink:title=" ">
<path fill="none" stroke="#63b8ff" d="M194,-60.37C194,-52.25 194,-39.81 194,-29.39"/>
<polygon fill="#63b8ff" stroke="#63b8ff" points="197.5,-29.17 194,-19.17 190.5,-29.17 197.5,-29.17"/>
</a>
</g>
</g>
<!-- Node29&#45;&gt;Node6 -->
<g id="edge44_Node000029_Node000006" class="edge">
<title>Node29&#45;&gt;Node6</title>
<g id="a_edge44_Node000029_Node000006"><a xlink:title=" ">
<path fill="none" stroke="#63b8ff" d="M665.66,-63.45C690.98,-60.63 722.65,-57.32 751,-55 1028.77,-32.23 1364.81,-16.69 1472.79,-11.99"/>
<polygon fill="#63b8ff" stroke="#63b8ff" points="1472.97,-15.49 1482.81,-11.56 1472.67,-8.49 1472.97,-15.49"/>
</a>
</g>
</g>
<!-- Node29&#45;&gt;Node8 -->
<g id="edge45_Node000029_Node000008" class="edge">
<title>Node29&#45;&gt;Node8</title>
<g id="a_edge45_Node000029_Node000008"><a xlink:title=" ">
<path fill="none" stroke="#63b8ff" d="M653.98,-60.44C662.49,-58.53 671.54,-56.61 680,-55 779.83,-36.04 808.56,-39.49 911.91,-19.06"/>
<polygon fill="#63b8ff" stroke="#63b8ff" points="912.69,-22.47 921.81,-17.07 911.31,-15.61 912.69,-22.47"/>
</a>
</g>
</g>
<!-- Node29&#45;&gt;Node10 -->
<g id="edge48_Node000029_Node000010" class="edge">
<title>Node29&#45;&gt;Node10</title>
<g id="a_edge48_Node000029_Node000010"><a xlink:title=" ">
<path fill="none" stroke="#63b8ff" d="M601.18,-60.37C582.4,-50.73 551.8,-35.03 529.95,-23.81"/>
<polygon fill="#63b8ff" stroke="#63b8ff" points="531.39,-20.62 520.89,-19.17 528.19,-26.85 531.39,-20.62"/>
</a>
</g>
</g>
<!-- Node29&#45;&gt;Node11 -->
<g id="edge47_Node000029_Node000011" class="edge">
<title>Node29&#45;&gt;Node11</title>
<g id="a_edge47_Node000029_Node000011"><a xlink:title=" ">
<path fill="none" stroke="#63b8ff" d="M654.79,-60.49C700.85,-49.84 779.61,-31.63 828.28,-20.38"/>
<polygon fill="#63b8ff" stroke="#63b8ff" points="829.24,-23.75 838.19,-18.09 827.66,-16.93 829.24,-23.75"/>
</a>
</g>
</g>
<!-- Node29&#45;&gt;Node18 -->
<g id="edge46_Node000029_Node000018" class="edge">
<title>Node29&#45;&gt;Node18</title>
<g id="a_edge46_Node000029_Node000018"><a xlink:title=" ">
<path fill="none" stroke="#63b8ff" d="M579.03,-60.49C528.64,-49.49 441.32,-30.43 390.29,-19.3"/>
<polygon fill="#63b8ff" stroke="#63b8ff" points="390.8,-15.82 380.29,-17.11 389.31,-22.66 390.8,-15.82"/>
</a>
</g>
</g>
<!-- Node30 -->
<g id="Node000030" class="node">
<title>Node30</title>
<g id="a_Node000030"><a xlink:title=" ">
<polygon fill="#e0e0e0" stroke="#999999" points="619,-19 569,-19 569,0 619,0 619,-19"/>
<text text-anchor="middle" x="594" y="-7" font-family="Helvetica,sans-Serif" font-size="10.00">cstdint</text>
</a>
</g>
</g>
<!-- Node29&#45;&gt;Node30 -->
<g id="edge43_Node000029_Node000030" class="edge">
<title>Node29&#45;&gt;Node30</title>
<g id="a_edge43_Node000029_Node000030"><a xlink:title=" ">
<path fill="none" stroke="#63b8ff" d="M614.46,-60.37C611.06,-52.07 605.81,-39.28 601.48,-28.72"/>
<polygon fill="#63b8ff" stroke="#63b8ff" points="604.59,-27.09 597.56,-19.17 598.11,-29.75 604.59,-27.09"/>
</a>
</g>
</g>
<!-- Node31 -->
<g id="Node000031" class="node">
<title>Node31</title>
<g id="a_Node000031"><a xlink:title=" ">
<polygon fill="#e0e0e0" stroke="#999999" points="706.5,-19 637.5,-19 637.5,0 706.5,0 706.5,-19"/>
<text text-anchor="middle" x="672" y="-7" font-family="Helvetica,sans-Serif" font-size="10.00">type_traits</text>
</a>
</g>
</g>
<!-- Node29&#45;&gt;Node31 -->
<g id="edge49_Node000029_Node000031" class="edge">
<title>Node29&#45;&gt;Node31</title>
<g id="a_edge49_Node000029_Node000031"><a xlink:title=" ">
<path fill="none" stroke="#63b8ff" d="M625.97,-60.37C634.1,-51.55 646.93,-37.66 656.98,-26.77"/>
<polygon fill="#63b8ff" stroke="#63b8ff" points="659.79,-28.89 664,-19.17 654.64,-24.14 659.79,-28.89"/>
</a>
</g>
</g>
<!-- Node33&#45;&gt;Node8 -->
<g id="edge56_Node000033_Node000008" class="edge">
<title>Node33&#45;&gt;Node8</title>
<g id="a_edge56_Node000033_Node000008"><a xlink:title=" ">
<path fill="none" stroke="#63b8ff" d="M639.49,-120.98C659.37,-111.51 685.68,-98.33 708,-85 728.01,-73.05 729.67,-64.37 751,-55 815.63,-26.61 839.18,-35.11 911.7,-19.18"/>
<polygon fill="#63b8ff" stroke="#63b8ff" points="912.8,-22.52 921.77,-16.89 911.24,-15.7 912.8,-22.52"/>
</a>
</g>
</g>
<!-- Node33&#45;&gt;Node10 -->
<g id="edge58_Node000033_Node000010" class="edge">
<title>Node33&#45;&gt;Node10</title>
<g id="a_edge58_Node000033_Node000010"><a xlink:title=" ">
<path fill="none" stroke="#63b8ff" d="M556.75,-125.62C547.83,-124.06 538.65,-122.46 530,-121 480.51,-112.62 339.54,-123.22 307,-85 259.86,-29.64 404.83,-15.33 471.89,-11.7"/>
<polygon fill="#63b8ff" stroke="#63b8ff" points="472.13,-15.2 481.95,-11.21 471.79,-8.2 472.13,-15.2"/>
</a>
</g>
</g>
<!-- Node33&#45;&gt;Node29 -->
<g id="edge55_Node000033_Node000029" class="edge">
<title>Node33&#45;&gt;Node29</title>
<g id="a_edge55_Node000033_Node000029"><a xlink:title=" ">
<path fill="none" stroke="#63b8ff" d="M611,-120.8C612.28,-111.7 613.95,-99.79 615.34,-89.9"/>
<polygon fill="#63b8ff" stroke="#63b8ff" points="618.83,-90.23 616.76,-79.84 611.9,-89.26 618.83,-90.23"/>
</a>
</g>
</g>
<!-- Node33&#45;&gt;Node32 -->
<g id="edge57_Node000033_Node000032" class="edge">
<title>Node33&#45;&gt;Node32</title>
<g id="a_edge57_Node000033_Node000032"><a xlink:title=" ">
<path fill="none" stroke="#63b8ff" d="M573.67,-120.95C545.31,-109.68 505.89,-94.01 478.8,-83.25"/>
<polygon fill="#63b8ff" stroke="#63b8ff" points="480.01,-79.96 469.43,-79.52 477.43,-86.46 480.01,-79.96"/>
</a>
</g>
</g>
<!-- Node34 -->
<g id="Node000034" class="node">
<title>Node34</title>
<g id="a_Node000034"><a xlink:href="quadruple_8hpp.html" target="_top" xlink:title=" ">
<polygon fill="white" stroke="#666666" points="402,-79.5 316,-79.5 316,-60.5 402,-60.5 402,-79.5"/>
<text text-anchor="middle" x="359" y="-67.5" font-family="Helvetica,sans-Serif" font-size="10.00">quadruple.hpp</text>
</a>
</g>
</g>
<!-- Node33&#45;&gt;Node34 -->
<g id="edge54_Node000033_Node000034" class="edge">
<title>Node33&#45;&gt;Node34</title>
<g id="a_edge54_Node000033_Node000034"><a xlink:title=" ">
<path fill="none" stroke="#63b8ff" d="M556.83,-122.06C516.87,-112.1 460.4,-97.89 411,-85 407.44,-84.07 403.75,-83.1 400.05,-82.12"/>
<polygon fill="#63b8ff" stroke="#63b8ff" points="400.89,-78.72 390.33,-79.52 399.08,-85.48 400.89,-78.72"/>
</a>
</g>
</g>
<!-- Node35&#45;&gt;Node8 -->
<g id="edge61_Node000035_Node000008" class="edge">
<title>Node35&#45;&gt;Node8</title>
<g id="a_edge61_Node000035_Node000008"><a xlink:title=" ">
<path fill="none" stroke="#63b8ff" d="M1128.52,-126.45C1161.67,-112.63 1217.2,-83.98 1193,-55 1166.57,-23.36 1043.85,-14.17 982.34,-11.54"/>
<polygon fill="#63b8ff" stroke="#63b8ff" points="982.44,-8.04 972.31,-11.14 982.17,-15.03 982.44,-8.04"/>
</a>
</g>
</g>
<!-- Node35&#45;&gt;Node10 -->
<g id="edge63_Node000035_Node000010" class="edge">
<title>Node35&#45;&gt;Node10</title>
<g id="a_edge63_Node000035_Node000010"><a xlink:title=" ">
<path fill="none" stroke="#63b8ff" d="M1063.92,-126.43C1052.91,-124.41 1041.04,-122.44 1030,-121 926.34,-107.51 652.87,-134.85 561,-85 538.03,-72.53 521.45,-46.42 512.29,-28.66"/>
<polygon fill="#63b8ff" stroke="#63b8ff" points="515.28,-26.81 507.75,-19.34 508.98,-29.87 515.28,-26.81"/>
</a>
</g>
</g>
<!-- Node35&#45;&gt;Node11 -->
<g id="edge62_Node000035_Node000011" class="edge">
<title>Node35&#45;&gt;Node11</title>
<g id="a_edge62_Node000035_Node000011"><a xlink:title=" ">
<path fill="none" stroke="#63b8ff" d="M1080.71,-126.37C1055.7,-117.43 1016.71,-102.34 985,-85 964.56,-73.82 961.43,-67.86 942,-55 926.08,-44.46 907.82,-33.03 893.8,-24.4"/>
<polygon fill="#63b8ff" stroke="#63b8ff" points="895.63,-21.41 885.28,-19.16 891.97,-27.38 895.63,-21.41"/>
</a>
</g>
</g>
<!-- Node35&#45;&gt;Node29 -->
<g id="edge65_Node000035_Node000029" class="edge">
<title>Node35&#45;&gt;Node29</title>
<g id="a_edge65_Node000035_Node000029"><a xlink:title=" ">
<path fill="none" stroke="#63b8ff" d="M1062.27,-126.47C1051.73,-124.54 1040.48,-122.6 1030,-121 904.23,-101.8 755.95,-85.3 676.05,-76.91"/>
<polygon fill="#63b8ff" stroke="#63b8ff" points="676.02,-73.39 665.71,-75.83 675.29,-80.35 676.02,-73.39"/>
</a>
</g>
</g>
<!-- Node36 -->
<g id="Node000036" class="node">
<title>Node36</title>
<g id="a_Node000036"><a xlink:title=" ">
<polygon fill="#e0e0e0" stroke="#999999" points="1040,-79.5 994,-79.5 994,-60.5 1040,-60.5 1040,-79.5"/>
<text text-anchor="middle" x="1017" y="-67.5" font-family="Helvetica,sans-Serif" font-size="10.00">cstdio</text>
</a>
</g>
</g>
<!-- Node35&#45;&gt;Node36 -->
<g id="edge60_Node000035_Node000036" class="edge">
<title>Node35&#45;&gt;Node36</title>
<g id="a_edge60_Node000035_Node000036"><a xlink:title=" ">
<path fill="none" stroke="#63b8ff" d="M1094,-126.37C1079.53,-115.97 1054.99,-98.32 1037.51,-85.75"/>
<polygon fill="#63b8ff" stroke="#63b8ff" points="1039.26,-82.7 1029.1,-79.7 1035.17,-88.38 1039.26,-82.7"/>
</a>
</g>
</g>
<!-- Node37 -->
<g id="Node000037" class="node">
<title>Node37</title>
<g id="a_Node000037"><a xlink:title=" ">
<polygon fill="#e0e0e0" stroke="#999999" points="1183.5,-85 1058.5,-85 1058.5,-55 1183.5,-55 1183.5,-85"/>
<text text-anchor="start" x="1066.5" y="-73" font-family="Helvetica,sans-Serif" font-size="10.00">boost/algorithm/string</text>
<text text-anchor="middle" x="1121" y="-62" font-family="Helvetica,sans-Serif" font-size="10.00">/trim.hpp</text>
</a>
</g>
</g>
<!-- Node35&#45;&gt;Node37 -->
<g id="edge64_Node000035_Node000037" class="edge">
<title>Node35&#45;&gt;Node37</title>
<g id="a_edge64_Node000035_Node000037"><a xlink:title=" ">
<path fill="none" stroke="#63b8ff" d="M1108.02,-126.37C1109.89,-118.4 1112.75,-106.2 1115.31,-95.27"/>
<polygon fill="#63b8ff" stroke="#63b8ff" points="1118.76,-95.9 1117.63,-85.36 1111.94,-94.3 1118.76,-95.9"/>
</a>
</g>
</g>
<!-- Node38&#45;&gt;Node8 -->
<g id="edge69_Node000038_Node000008" class="edge">
<title>Node38&#45;&gt;Node8</title>
<g id="a_edge69_Node000038_Node000008"><a xlink:title=" ">
<path fill="none" stroke="#63b8ff" d="M780.03,-126.28C799.19,-111.24 840.03,-79.66 876,-55 891.75,-44.2 910.01,-32.78 924.07,-24.21"/>
<polygon fill="#63b8ff" stroke="#63b8ff" points="925.89,-27.2 932.63,-19.03 922.27,-21.21 925.89,-27.2"/>
</a>
</g>
</g>
<!-- Node38&#45;&gt;Node10 -->
<g id="edge71_Node000038_Node000010" class="edge">
<title>Node38&#45;&gt;Node10</title>
<g id="a_edge71_Node000038_Node000010"><a xlink:title=" ">
<path fill="none" stroke="#63b8ff" d="M713.47,-126.49C646.67,-115.79 541.73,-97.33 528,-85 512.31,-70.91 506.82,-46.52 504.94,-29.5"/>
<polygon fill="#63b8ff" stroke="#63b8ff" points="508.39,-28.81 504.12,-19.12 501.41,-29.36 508.39,-28.81"/>
</a>
</g>
</g>
<!-- Node38&#45;&gt;Node29 -->
<g id="edge68_Node000038_Node000029" class="edge">
<title>Node38&#45;&gt;Node29</title>
<g id="a_edge68_Node000038_Node000029"><a xlink:title=" ">
<path fill="none" stroke="#63b8ff" d="M748.64,-126.37C722.74,-115.39 677.83,-96.36 648.01,-83.72"/>
<polygon fill="#63b8ff" stroke="#63b8ff" points="649.1,-80.38 638.52,-79.7 646.37,-86.82 649.1,-80.38"/>
</a>
</g>
</g>
<!-- Node38&#45;&gt;Node32 -->
<g id="edge70_Node000038_Node000032" class="edge">
<title>Node38&#45;&gt;Node32</title>
<g id="a_edge70_Node000038_Node000032"><a xlink:title=" ">
<path fill="none" stroke="#63b8ff" d="M706.67,-126.47C649.76,-118.05 563.55,-103.75 490,-85 487.21,-84.29 484.33,-83.48 481.46,-82.63"/>
<polygon fill="#63b8ff" stroke="#63b8ff" points="482.4,-79.26 471.81,-79.6 480.3,-85.94 482.4,-79.26"/>
</a>
</g>
</g>
<!-- Node39 -->
<g id="Node000039" class="node">
<title>Node39</title>
<g id="a_Node000039"><a xlink:href="triple_8hpp.html" target="_top" xlink:title=" ">
<polygon fill="white" stroke="#666666" points="823.5,-79.5 760.5,-79.5 760.5,-60.5 823.5,-60.5 823.5,-79.5"/>
<text text-anchor="middle" x="792" y="-67.5" font-family="Helvetica,sans-Serif" font-size="10.00">triple.hpp</text>
</a>
</g>
</g>
<!-- Node38&#45;&gt;Node39 -->
<g id="edge67_Node000038_Node000039" class="edge">
<title>Node38&#45;&gt;Node39</title>
<g id="a_edge67_Node000038_Node000039"><a xlink:title=" ">
<path fill="none" stroke="#63b8ff" d="M772.1,-126.37C775.48,-116.97 780.98,-101.67 785.34,-89.53"/>
<polygon fill="#63b8ff" stroke="#63b8ff" points="788.71,-90.5 788.8,-79.91 782.12,-88.13 788.71,-90.5"/>
</a>
</g>
</g>
<!-- Node41 -->
<g id="Node000041" class="node">
<title>Node41</title>
<g id="a_Node000041"><a xlink:href="RawPostlist_8hpp.html" target="_top" xlink:title=" ">
<polygon fill="white" stroke="#666666" points="1445.5,-316 1350.5,-316 1350.5,-297 1445.5,-297 1445.5,-316"/>
<text text-anchor="middle" x="1398" y="-304" font-family="Helvetica,sans-Serif" font-size="10.00">RawPostlist.hpp</text>
</a>
</g>
</g>
<!-- Node40&#45;&gt;Node41 -->
<g id="edge73_Node000040_Node000041" class="edge">
<title>Node40&#45;&gt;Node41</title>
<g id="a_edge73_Node000040_Node000041"><a xlink:title=" ">
<path fill="none" stroke="#63b8ff" d="M1392.99,-351.75C1393.78,-344.8 1394.9,-334.85 1395.89,-326.13"/>
<polygon fill="#63b8ff" stroke="#63b8ff" points="1399.38,-326.42 1397.03,-316.09 1392.42,-325.63 1399.38,-326.42"/>
</a>
</g>
</g>
<!-- Node41&#45;&gt;Node14 -->
<g id="edge74_Node000041_Node000014" class="edge">
<title>Node41&#45;&gt;Node14</title>
<g id="a_edge74_Node000041_Node000014"><a xlink:title=" ">
<path fill="none" stroke="#63b8ff" d="M1407.99,-296.91C1439.31,-269.99 1535.87,-186.98 1576.11,-152.38"/>
<polygon fill="#63b8ff" stroke="#63b8ff" points="1578.49,-154.95 1583.8,-145.77 1573.93,-149.64 1578.49,-154.95"/>
</a>
</g>
</g>
<!-- Node41&#45;&gt;Node21 -->
<g id="edge75_Node000041_Node000021" class="edge">
<title>Node41&#45;&gt;Node21</title>
<g id="a_edge75_Node000041_Node000021"><a xlink:title=" ">
<path fill="none" stroke="#63b8ff" d="M1389.91,-296.75C1382.84,-289.11 1372.41,-277.82 1363.85,-268.56"/>
<polygon fill="#63b8ff" stroke="#63b8ff" points="1366.3,-266.06 1356.94,-261.09 1361.16,-270.81 1366.3,-266.06"/>
</a>
</g>
</g>
</g>
</svg>
