<?xml version="1.0" encoding="UTF-8" standalone="no"?>
<!DOCTYPE svg PUBLIC "-//W3C//DTD SVG 1.1//EN"
 "http://www.w3.org/Graphics/SVG/1.1/DTD/svg11.dtd">
<!-- Generated by graphviz version 2.43.0 (0)
 -->
<!-- Title: netspeak/invertedindex/Postlist.hpp Pages: 1 -->
<svg width="1033pt" height="500pt"
 viewBox="0.00 0.00 1033.00 500.00" xmlns="http://www.w3.org/2000/svg" xmlns:xlink="http://www.w3.org/1999/xlink">
<g id="graph0" class="graph" transform="scale(1 1) rotate(0) translate(4 496)">
<title>netspeak/invertedindex/Postlist.hpp</title>
<!-- Node1 -->
<g id="Node000001" class="node">
<title>Node1</title>
<g id="a_Node000001"><a xlink:title=" ">
<polygon fill="#999999" stroke="#666666" points="358.5,-492 226.5,-492 226.5,-462 358.5,-462 358.5,-492"/>
<text text-anchor="start" x="234.5" y="-480" font-family="Helvetica,sans-Serif" font-size="10.00">netspeak/invertedindex</text>
<text text-anchor="middle" x="292.5" y="-469" font-family="Helvetica,sans-Serif" font-size="10.00">/Postlist.hpp</text>
</a>
</g>
</g>
<!-- Node2 -->
<g id="Node000002" class="node">
<title>Node2</title>
<g id="a_Node000002"><a xlink:href="indexing_8cpp.html" target="_top" xlink:title=" ">
<polygon fill="white" stroke="#666666" points="127,-90.5 0,-90.5 0,-71.5 127,-71.5 127,-90.5"/>
<text text-anchor="middle" x="63.5" y="-78.5" font-family="Helvetica,sans-Serif" font-size="10.00">netspeak/indexing.cpp</text>
</a>
</g>
</g>
<!-- Node1&#45;&gt;Node2 -->
<g id="edge1_Node000001_Node000002" class="edge">
<title>Node1&#45;&gt;Node2</title>
<g id="a_edge1_Node000001_Node000002"><a xlink:title=" ">
<path fill="none" stroke="#63b8ff" d="M216.57,-470.81C137.64,-460.8 25.5,-431.53 25.5,-346 25.5,-346 25.5,-346 25.5,-212 25.5,-164.5 49.16,-111.02 59.14,-90.57"/>
<polygon fill="#63b8ff" stroke="#63b8ff" points="216.16,-474.29 226.5,-471.99 216.98,-467.34 216.16,-474.29"/>
</a>
</g>
</g>
<!-- Node3 -->
<g id="Node000003" class="node">
<title>Node3</title>
<g id="a_Node000003"><a xlink:href="indexing_8hpp.html" target="_top" xlink:title=" ">
<polygon fill="white" stroke="#666666" points="217.5,-420.5 89.5,-420.5 89.5,-401.5 217.5,-401.5 217.5,-420.5"/>
<text text-anchor="middle" x="153.5" y="-408.5" font-family="Helvetica,sans-Serif" font-size="10.00">netspeak/indexing.hpp</text>
</a>
</g>
</g>
<!-- Node1&#45;&gt;Node3 -->
<g id="edge2_Node000001_Node000003" class="edge">
<title>Node1&#45;&gt;Node3</title>
<g id="a_edge2_Node000001_Node000003"><a xlink:title=" ">
<path fill="none" stroke="#63b8ff" d="M252.58,-457.62C226.06,-445.41 192.46,-429.94 172,-420.52"/>
<polygon fill="#63b8ff" stroke="#63b8ff" points="251.45,-460.95 262,-461.95 254.38,-454.59 251.45,-460.95"/>
</a>
</g>
</g>
<!-- Node5 -->
<g id="Node000005" class="node">
<title>Node5</title>
<g id="a_Node000005"><a xlink:href="PostlistBuilder_8hpp.html" target="_top" xlink:title=" ">
<polygon fill="white" stroke="#666666" points="705.5,-426 573.5,-426 573.5,-396 705.5,-396 705.5,-426"/>
<text text-anchor="start" x="581.5" y="-414" font-family="Helvetica,sans-Serif" font-size="10.00">netspeak/invertedindex</text>
<text text-anchor="middle" x="639.5" y="-403" font-family="Helvetica,sans-Serif" font-size="10.00">/PostlistBuilder.hpp</text>
</a>
</g>
</g>
<!-- Node1&#45;&gt;Node5 -->
<g id="edge5_Node000001_Node000005" class="edge">
<title>Node1&#45;&gt;Node5</title>
<g id="a_edge5_Node000001_Node000005"><a xlink:title=" ">
<path fill="none" stroke="#63b8ff" d="M368.68,-462.05C423.22,-452.06 498.39,-438.25 564.5,-426 567.37,-425.47 570.29,-424.93 573.25,-424.38"/>
<polygon fill="#63b8ff" stroke="#63b8ff" points="367.95,-458.63 358.74,-463.88 369.21,-465.52 367.95,-458.63"/>
</a>
</g>
</g>
<!-- Node11 -->
<g id="Node000011" class="node">
<title>Node11</title>
<g id="a_Node000011"><a xlink:href="PostlistReader_8hpp.html" target="_top" xlink:title=" ">
<polygon fill="white" stroke="#666666" points="405.5,-426 273.5,-426 273.5,-396 405.5,-396 405.5,-426"/>
<text text-anchor="start" x="281.5" y="-414" font-family="Helvetica,sans-Serif" font-size="10.00">netspeak/invertedindex</text>
<text text-anchor="middle" x="339.5" y="-403" font-family="Helvetica,sans-Serif" font-size="10.00">/PostlistReader.hpp</text>
</a>
</g>
</g>
<!-- Node1&#45;&gt;Node11 -->
<g id="edge15_Node000001_Node000011" class="edge">
<title>Node1&#45;&gt;Node11</title>
<g id="a_edge15_Node000001_Node000011"><a xlink:title=" ">
<path fill="none" stroke="#63b8ff" d="M309,-453.53C315.69,-444.43 323.2,-434.19 329.1,-426.16"/>
<polygon fill="#63b8ff" stroke="#63b8ff" points="306.03,-451.66 302.93,-461.8 311.67,-455.81 306.03,-451.66"/>
</a>
</g>
</g>
<!-- Node13 -->
<g id="Node000013" class="node">
<title>Node13</title>
<g id="a_Node000013"><a xlink:href="Searcher_8hpp.html" target="_top" xlink:title=" ">
<polygon fill="white" stroke="#666666" points="332.5,-294 200.5,-294 200.5,-264 332.5,-264 332.5,-294"/>
<text text-anchor="start" x="208.5" y="-282" font-family="Helvetica,sans-Serif" font-size="10.00">netspeak/invertedindex</text>
<text text-anchor="middle" x="266.5" y="-271" font-family="Helvetica,sans-Serif" font-size="10.00">/Searcher.hpp</text>
</a>
</g>
</g>
<!-- Node1&#45;&gt;Node13 -->
<g id="edge32_Node000001_Node000013" class="edge">
<title>Node1&#45;&gt;Node13</title>
<g id="a_edge32_Node000001_Node000013"><a xlink:title=" ">
<path fill="none" stroke="#63b8ff" d="M276.6,-453.36C271.72,-445.13 266.98,-435.51 264.5,-426 252.28,-379.15 259.41,-320.94 263.81,-294.4"/>
<polygon fill="#63b8ff" stroke="#63b8ff" points="273.75,-455.4 282.06,-461.97 279.66,-451.65 273.75,-455.4"/>
</a>
</g>
</g>
<!-- Node25 -->
<g id="Node000025" class="node">
<title>Node25</title>
<g id="a_Node000025"><a xlink:href="StorageWriter_8hpp.html" target="_top" xlink:title=" ">
<polygon fill="white" stroke="#666666" points="555.5,-426 423.5,-426 423.5,-396 555.5,-396 555.5,-426"/>
<text text-anchor="start" x="431.5" y="-414" font-family="Helvetica,sans-Serif" font-size="10.00">netspeak/invertedindex</text>
<text text-anchor="middle" x="489.5" y="-403" font-family="Helvetica,sans-Serif" font-size="10.00">/StorageWriter.hpp</text>
</a>
</g>
</g>
<!-- Node1&#45;&gt;Node25 -->
<g id="edge33_Node000001_Node000025" class="edge">
<title>Node1&#45;&gt;Node25</title>
<g id="a_edge33_Node000001_Node000025"><a xlink:title=" ">
<path fill="none" stroke="#63b8ff" d="M345.27,-458.86C376.9,-448.58 416.62,-435.68 446.37,-426.01"/>
<polygon fill="#63b8ff" stroke="#63b8ff" points="344.16,-455.54 335.73,-461.95 346.32,-462.19 344.16,-455.54"/>
</a>
</g>
</g>
<!-- Node3&#45;&gt;Node2 -->
<g id="edge4_Node000003_Node000002" class="edge">
<title>Node3&#45;&gt;Node2</title>
<g id="a_edge4_Node000003_Node000002"><a xlink:title=" ">
<path fill="none" stroke="#63b8ff" d="M125.36,-396.56C110.48,-388.06 93.14,-375.71 82.5,-360 62.01,-329.74 63.5,-316.54 63.5,-280 63.5,-280 63.5,-280 63.5,-212 63.5,-166.18 63.5,-111.29 63.5,-90.52"/>
<polygon fill="#63b8ff" stroke="#63b8ff" points="123.77,-399.67 134.23,-401.34 127.09,-393.51 123.77,-399.67"/>
</a>
</g>
</g>
<!-- Node4 -->
<g id="Node000004" class="node">
<title>Node4</title>
<g id="a_Node000004"><a xlink:href="BuildCommand_8cpp.html" target="_top" xlink:title=" ">
<polygon fill="white" stroke="#666666" points="217.5,-354.5 91.5,-354.5 91.5,-335.5 217.5,-335.5 217.5,-354.5"/>
<text text-anchor="middle" x="154.5" y="-342.5" font-family="Helvetica,sans-Serif" font-size="10.00">cli/BuildCommand.cpp</text>
</a>
</g>
</g>
<!-- Node3&#45;&gt;Node4 -->
<g id="edge3_Node000003_Node000004" class="edge">
<title>Node3&#45;&gt;Node4</title>
<g id="a_edge3_Node000003_Node000004"><a xlink:title=" ">
<path fill="none" stroke="#63b8ff" d="M153.8,-391.08C153.98,-379.13 154.22,-364.22 154.36,-354.91"/>
<polygon fill="#63b8ff" stroke="#63b8ff" points="150.29,-391.32 153.63,-401.37 157.29,-391.42 150.29,-391.32"/>
</a>
</g>
</g>
<!-- Node6 -->
<g id="Node000006" class="node">
<title>Node6</title>
<g id="a_Node000006"><a xlink:href="PostlistSorter_8hpp.html" target="_top" xlink:title=" ">
<polygon fill="white" stroke="#666666" points="696.5,-360 564.5,-360 564.5,-330 696.5,-330 696.5,-360"/>
<text text-anchor="start" x="572.5" y="-348" font-family="Helvetica,sans-Serif" font-size="10.00">netspeak/invertedindex</text>
<text text-anchor="middle" x="630.5" y="-337" font-family="Helvetica,sans-Serif" font-size="10.00">/PostlistSorter.hpp</text>
</a>
</g>
</g>
<!-- Node5&#45;&gt;Node6 -->
<g id="edge6_Node000005_Node000006" class="edge">
<title>Node5&#45;&gt;Node6</title>
<g id="a_edge6_Node000005_Node000006"><a xlink:title=" ">
<path fill="none" stroke="#63b8ff" d="M636.1,-385.83C634.88,-377.17 633.55,-367.7 632.49,-360.16"/>
<polygon fill="#63b8ff" stroke="#63b8ff" points="632.64,-386.38 637.5,-395.8 639.58,-385.41 632.64,-386.38"/>
</a>
</g>
</g>
<!-- Node7 -->
<g id="Node000007" class="node">
<title>Node7</title>
<g id="a_Node000007"><a xlink:href="SortedInput_8hpp.html" target="_top" xlink:title=" ">
<polygon fill="white" stroke="#666666" points="696.5,-294 564.5,-294 564.5,-264 696.5,-264 696.5,-294"/>
<text text-anchor="start" x="572.5" y="-282" font-family="Helvetica,sans-Serif" font-size="10.00">netspeak/invertedindex</text>
<text text-anchor="middle" x="630.5" y="-271" font-family="Helvetica,sans-Serif" font-size="10.00">/SortedInput.hpp</text>
</a>
</g>
</g>
<!-- Node5&#45;&gt;Node7 -->
<g id="edge13_Node000005_Node000007" class="edge">
<title>Node5&#45;&gt;Node7</title>
<g id="a_edge13_Node000005_Node000007"><a xlink:title=" ">
<path fill="none" stroke="#63b8ff" d="M677.27,-390.41C688.45,-382.57 699.33,-372.41 705.5,-360 711.43,-348.06 711.79,-341.76 705.5,-330 696.93,-314 680.73,-302.23 665.57,-294.15"/>
<polygon fill="#63b8ff" stroke="#63b8ff" points="675.22,-387.56 668.75,-395.95 679.04,-393.43 675.22,-387.56"/>
</a>
</g>
</g>
<!-- Node10 -->
<g id="Node000010" class="node">
<title>Node10</title>
<g id="a_Node000010"><a xlink:href="UnsortedInput_8hpp.html" target="_top" xlink:title=" ">
<polygon fill="white" stroke="#666666" points="546.5,-294 414.5,-294 414.5,-264 546.5,-264 546.5,-294"/>
<text text-anchor="start" x="422.5" y="-282" font-family="Helvetica,sans-Serif" font-size="10.00">netspeak/invertedindex</text>
<text text-anchor="middle" x="480.5" y="-271" font-family="Helvetica,sans-Serif" font-size="10.00">/UnsortedInput.hpp</text>
</a>
</g>
</g>
<!-- Node5&#45;&gt;Node10 -->
<g id="edge14_Node000005_Node000010" class="edge">
<title>Node5&#45;&gt;Node10</title>
<g id="a_edge14_Node000005_Node000010"><a xlink:title=" ">
<path fill="none" stroke="#63b8ff" d="M602.26,-390.82C587.12,-382.28 569.85,-371.54 555.5,-360 530.28,-339.72 505.48,-311.09 491.67,-294.15"/>
<polygon fill="#63b8ff" stroke="#63b8ff" points="600.92,-394.08 611.37,-395.84 604.3,-387.95 600.92,-394.08"/>
</a>
</g>
</g>
<!-- Node6&#45;&gt;Node7 -->
<g id="edge7_Node000006_Node000007" class="edge">
<title>Node6&#45;&gt;Node7</title>
<g id="a_edge7_Node000006_Node000007"><a xlink:title=" ">
<path fill="none" stroke="#63b8ff" d="M630.5,-319.54C630.5,-310.96 630.5,-301.61 630.5,-294.16"/>
<polygon fill="#63b8ff" stroke="#63b8ff" points="627,-319.8 630.5,-329.8 634,-319.8 627,-319.8"/>
</a>
</g>
</g>
<!-- Node6&#45;&gt;Node10 -->
<g id="edge11_Node000006_Node000010" class="edge">
<title>Node6&#45;&gt;Node10</title>
<g id="a_edge11_Node000006_Node000010"><a xlink:title=" ">
<path fill="none" stroke="#63b8ff" d="M588.12,-325.92C564.42,-315.8 535.31,-303.38 513.34,-294.01"/>
<polygon fill="#63b8ff" stroke="#63b8ff" points="587.01,-329.25 597.58,-329.95 589.76,-322.81 587.01,-329.25"/>
</a>
</g>
</g>
<!-- Node8 -->
<g id="Node000008" class="node">
<title>Node8</title>
<g id="a_Node000008"><a xlink:href="Indexer_8hpp.html" target="_top" xlink:title=" ">
<polygon fill="white" stroke="#666666" points="546.5,-228 414.5,-228 414.5,-198 546.5,-198 546.5,-228"/>
<text text-anchor="start" x="422.5" y="-216" font-family="Helvetica,sans-Serif" font-size="10.00">netspeak/invertedindex</text>
<text text-anchor="middle" x="480.5" y="-205" font-family="Helvetica,sans-Serif" font-size="10.00">/Indexer.hpp</text>
</a>
</g>
</g>
<!-- Node7&#45;&gt;Node8 -->
<g id="edge8_Node000007_Node000008" class="edge">
<title>Node7&#45;&gt;Node8</title>
<g id="a_edge8_Node000007_Node000008"><a xlink:title=" ">
<path fill="none" stroke="#63b8ff" d="M588.12,-259.92C564.42,-249.8 535.31,-237.38 513.34,-228.01"/>
<polygon fill="#63b8ff" stroke="#63b8ff" points="587.01,-263.25 597.58,-263.95 589.76,-256.81 587.01,-263.25"/>
</a>
</g>
</g>
<!-- Node9 -->
<g id="Node000009" class="node">
<title>Node9</title>
<g id="a_Node000009"><a xlink:href="ManagedIndexer_8hpp.html" target="_top" xlink:title=" ">
<polygon fill="white" stroke="#666666" points="332.5,-162 200.5,-162 200.5,-132 332.5,-132 332.5,-162"/>
<text text-anchor="start" x="208.5" y="-150" font-family="Helvetica,sans-Serif" font-size="10.00">netspeak/invertedindex</text>
<text text-anchor="middle" x="266.5" y="-139" font-family="Helvetica,sans-Serif" font-size="10.00">/ManagedIndexer.hpp</text>
</a>
</g>
</g>
<!-- Node8&#45;&gt;Node9 -->
<g id="edge9_Node000008_Node000009" class="edge">
<title>Node8&#45;&gt;Node9</title>
<g id="a_edge9_Node000008_Node000009"><a xlink:title=" ">
<path fill="none" stroke="#63b8ff" d="M423.62,-194.99C389.19,-184.69 345.8,-171.72 313.35,-162.01"/>
<polygon fill="#63b8ff" stroke="#63b8ff" points="422.95,-198.44 433.54,-197.95 424.96,-191.74 422.95,-198.44"/>
</a>
</g>
</g>
<!-- Node9&#45;&gt;Node2 -->
<g id="edge10_Node000009_Node000002" class="edge">
<title>Node9&#45;&gt;Node2</title>
<g id="a_edge10_Node000009_Node000002"><a xlink:title=" ">
<path fill="none" stroke="#63b8ff" d="M212.24,-128.89C172.93,-116.5 121.45,-100.27 90.52,-90.52"/>
<polygon fill="#63b8ff" stroke="#63b8ff" points="211.36,-132.29 221.95,-131.95 213.47,-125.61 211.36,-132.29"/>
</a>
</g>
</g>
<!-- Node10&#45;&gt;Node8 -->
<g id="edge12_Node000010_Node000008" class="edge">
<title>Node10&#45;&gt;Node8</title>
<g id="a_edge12_Node000010_Node000008"><a xlink:title=" ">
<path fill="none" stroke="#63b8ff" d="M480.5,-253.54C480.5,-244.96 480.5,-235.61 480.5,-228.16"/>
<polygon fill="#63b8ff" stroke="#63b8ff" points="477,-253.8 480.5,-263.8 484,-253.8 477,-253.8"/>
</a>
</g>
</g>
<!-- Node12 -->
<g id="Node000012" class="node">
<title>Node12</title>
<g id="a_Node000012"><a xlink:href="StorageReader_8hpp.html" target="_top" xlink:title=" ">
<polygon fill="white" stroke="#666666" points="405.5,-360 273.5,-360 273.5,-330 405.5,-330 405.5,-360"/>
<text text-anchor="start" x="281.5" y="-348" font-family="Helvetica,sans-Serif" font-size="10.00">netspeak/invertedindex</text>
<text text-anchor="middle" x="339.5" y="-337" font-family="Helvetica,sans-Serif" font-size="10.00">/StorageReader.hpp</text>
</a>
</g>
</g>
<!-- Node11&#45;&gt;Node12 -->
<g id="edge16_Node000011_Node000012" class="edge">
<title>Node11&#45;&gt;Node12</title>
<g id="a_edge16_Node000011_Node000012"><a xlink:title=" ">
<path fill="none" stroke="#63b8ff" d="M339.5,-385.54C339.5,-376.96 339.5,-367.61 339.5,-360.16"/>
<polygon fill="#63b8ff" stroke="#63b8ff" points="336,-385.8 339.5,-395.8 343,-385.8 336,-385.8"/>
</a>
</g>
</g>
<!-- Node12&#45;&gt;Node13 -->
<g id="edge17_Node000012_Node000013" class="edge">
<title>Node12&#45;&gt;Node13</title>
<g id="a_edge17_Node000012_Node000013"><a xlink:title=" ">
<path fill="none" stroke="#63b8ff" d="M315.78,-323.2C304.94,-313.7 292.38,-302.69 282.66,-294.16"/>
<polygon fill="#63b8ff" stroke="#63b8ff" points="313.47,-325.84 323.3,-329.8 318.09,-320.57 313.47,-325.84"/>
</a>
</g>
</g>
<!-- Node13&#45;&gt;Node2 -->
<g id="edge31_Node000013_Node000002" class="edge">
<title>Node13&#45;&gt;Node2</title>
<g id="a_edge31_Node000013_Node000002"><a xlink:title=" ">
<path fill="none" stroke="#63b8ff" d="M232.65,-258.51C218.96,-249.94 203.38,-239.26 190.5,-228 137.89,-182.01 86.93,-114.37 69.67,-90.62"/>
<polygon fill="#63b8ff" stroke="#63b8ff" points="230.97,-261.59 241.33,-263.83 234.63,-255.62 230.97,-261.59"/>
</a>
</g>
</g>
<!-- Node14 -->
<g id="Node000014" class="node">
<title>Node14</title>
<g id="a_Node000014"><a xlink:href="RetrievalStrategy3_8hpp.html" target="_top" xlink:title=" ">
<polygon fill="white" stroke="#666666" points="376,-222.5 199,-222.5 199,-203.5 376,-203.5 376,-222.5"/>
<text text-anchor="middle" x="287.5" y="-210.5" font-family="Helvetica,sans-Serif" font-size="10.00">netspeak/RetrievalStrategy3.hpp</text>
</a>
</g>
</g>
<!-- Node13&#45;&gt;Node14 -->
<g id="edge18_Node000013_Node000014" class="edge">
<title>Node13&#45;&gt;Node14</title>
<g id="a_edge18_Node000013_Node000014"><a xlink:title=" ">
<path fill="none" stroke="#63b8ff" d="M274.28,-254.28C277.88,-243.31 281.94,-230.94 284.6,-222.84"/>
<polygon fill="#63b8ff" stroke="#63b8ff" points="270.95,-253.2 271.16,-263.8 277.6,-255.39 270.95,-253.2"/>
</a>
</g>
</g>
<!-- Node15 -->
<g id="Node000015" class="node">
<title>Node15</title>
<g id="a_Node000015"><a xlink:href="Netspeak_8hpp.html" target="_top" xlink:title=" ">
<polygon fill="white" stroke="#666666" points="497.5,-156.5 365.5,-156.5 365.5,-137.5 497.5,-137.5 497.5,-156.5"/>
<text text-anchor="middle" x="431.5" y="-144.5" font-family="Helvetica,sans-Serif" font-size="10.00">netspeak/Netspeak.hpp</text>
</a>
</g>
</g>
<!-- Node14&#45;&gt;Node15 -->
<g id="edge19_Node000014_Node000015" class="edge">
<title>Node14&#45;&gt;Node15</title>
<g id="a_edge19_Node000014_Node000015"><a xlink:title=" ">
<path fill="none" stroke="#63b8ff" d="M316.31,-199.19C344.69,-186.58 387.27,-167.66 411.93,-156.7"/>
<polygon fill="#63b8ff" stroke="#63b8ff" points="314.64,-196.11 306.92,-203.37 317.48,-202.51 314.64,-196.11"/>
</a>
</g>
</g>
<!-- Node15&#45;&gt;Node2 -->
<g id="edge24_Node000015_Node000002" class="edge">
<title>Node15&#45;&gt;Node2</title>
<g id="a_edge24_Node000015_Node000002"><a xlink:title=" ">
<path fill="none" stroke="#63b8ff" d="M368.69,-135.85C308.72,-126.05 215.84,-110.59 135.5,-96 126.1,-94.29 116.03,-92.38 106.49,-90.54"/>
<polygon fill="#63b8ff" stroke="#63b8ff" points="368.33,-139.34 378.76,-137.5 369.46,-132.43 368.33,-139.34"/>
</a>
</g>
</g>
<!-- Node16 -->
<g id="Node000016" class="node">
<title>Node16</title>
<g id="a_Node000016"><a xlink:href="ProxyCommand_8cpp.html" target="_top" xlink:title=" ">
<polygon fill="white" stroke="#666666" points="802,-90.5 673,-90.5 673,-71.5 802,-71.5 802,-90.5"/>
<text text-anchor="middle" x="737.5" y="-78.5" font-family="Helvetica,sans-Serif" font-size="10.00">cli/ProxyCommand.cpp</text>
</a>
</g>
</g>
<!-- Node15&#45;&gt;Node16 -->
<g id="edge20_Node000015_Node000016" class="edge">
<title>Node15&#45;&gt;Node16</title>
<g id="a_edge20_Node000015_Node000016"><a xlink:title=" ">
<path fill="none" stroke="#63b8ff" d="M482.49,-135.34C542.66,-122.75 641.5,-102.08 696.79,-90.51"/>
<polygon fill="#63b8ff" stroke="#63b8ff" points="481.52,-131.96 472.45,-137.44 482.96,-138.81 481.52,-131.96"/>
</a>
</g>
</g>
<!-- Node17 -->
<g id="Node000017" class="node">
<title>Node17</title>
<g id="a_Node000017"><a xlink:href="ServeCommand_8cpp.html" target="_top" xlink:title=" ">
<polygon fill="white" stroke="#666666" points="646,-24.5 517,-24.5 517,-5.5 646,-5.5 646,-24.5"/>
<text text-anchor="middle" x="581.5" y="-12.5" font-family="Helvetica,sans-Serif" font-size="10.00">cli/ServeCommand.cpp</text>
</a>
</g>
</g>
<!-- Node15&#45;&gt;Node17 -->
<g id="edge21_Node000015_Node000017" class="edge">
<title>Node15&#45;&gt;Node17</title>
<g id="a_edge21_Node000015_Node000017"><a xlink:title=" ">
<path fill="none" stroke="#63b8ff" d="M507.61,-136.04C555.44,-128.05 610.78,-114.99 625.5,-96 643.85,-72.32 611.12,-40 592.73,-24.7"/>
<polygon fill="#63b8ff" stroke="#63b8ff" points="506.85,-132.62 497.53,-137.67 507.96,-139.53 506.85,-132.62"/>
</a>
</g>
</g>
<!-- Node18 -->
<g id="Node000018" class="node">
<title>Node18</title>
<g id="a_Node000018"><a xlink:href="ShellCommand_8cpp.html" target="_top" xlink:title=" ">
<polygon fill="white" stroke="#666666" points="467,-90.5 342,-90.5 342,-71.5 467,-71.5 467,-90.5"/>
<text text-anchor="middle" x="404.5" y="-78.5" font-family="Helvetica,sans-Serif" font-size="10.00">cli/ShellCommand.cpp</text>
</a>
</g>
</g>
<!-- Node15&#45;&gt;Node18 -->
<g id="edge22_Node000015_Node000018" class="edge">
<title>Node15&#45;&gt;Node18</title>
<g id="a_edge22_Node000015_Node000018"><a xlink:title=" ">
<path fill="none" stroke="#63b8ff" d="M423.83,-127.82C418.73,-115.74 412.27,-100.41 408.26,-90.91"/>
<polygon fill="#63b8ff" stroke="#63b8ff" points="420.75,-129.52 427.86,-137.37 427.2,-126.79 420.75,-129.52"/>
</a>
</g>
</g>
<!-- Node19 -->
<g id="Node000019" class="node">
<title>Node19</title>
<g id="a_Node000019"><a xlink:href="Netspeak_8cpp.html" target="_top" xlink:title=" ">
<polygon fill="white" stroke="#666666" points="616,-90.5 485,-90.5 485,-71.5 616,-71.5 616,-90.5"/>
<text text-anchor="middle" x="550.5" y="-78.5" font-family="Helvetica,sans-Serif" font-size="10.00">netspeak/Netspeak.cpp</text>
</a>
</g>
</g>
<!-- Node15&#45;&gt;Node19 -->
<g id="edge23_Node000015_Node000019" class="edge">
<title>Node15&#45;&gt;Node19</title>
<g id="a_edge23_Node000015_Node000019"><a xlink:title=" ">
<path fill="none" stroke="#63b8ff" d="M456.55,-132.53C479.99,-119.92 514.3,-101.47 534.33,-90.7"/>
<polygon fill="#63b8ff" stroke="#63b8ff" points="454.7,-129.55 447.55,-137.37 458.01,-135.71 454.7,-129.55"/>
</a>
</g>
</g>
<!-- Node20 -->
<g id="Node000020" class="node">
<title>Node20</title>
<g id="a_Node000020"><a xlink:href="RequestLogger_8hpp.html" target="_top" xlink:title=" ">
<polygon fill="white" stroke="#666666" points="963,-96 820,-96 820,-66 963,-66 963,-96"/>
<text text-anchor="start" x="828" y="-84" font-family="Helvetica,sans-Serif" font-size="10.00">netspeak/service/Request</text>
<text text-anchor="middle" x="891.5" y="-73" font-family="Helvetica,sans-Serif" font-size="10.00">Logger.hpp</text>
</a>
</g>
</g>
<!-- Node15&#45;&gt;Node20 -->
<g id="edge25_Node000015_Node000020" class="edge">
<title>Node15&#45;&gt;Node20</title>
<g id="a_edge25_Node000015_Node000020"><a xlink:title=" ">
<path fill="none" stroke="#63b8ff" d="M507.59,-136.95C584.4,-127.59 706.38,-112.11 811.5,-96 814.29,-95.57 817.13,-95.13 820,-94.67"/>
<polygon fill="#63b8ff" stroke="#63b8ff" points="507.03,-133.49 497.52,-138.17 507.87,-140.44 507.03,-133.49"/>
</a>
</g>
</g>
<!-- Node23 -->
<g id="Node000023" class="node">
<title>Node23</title>
<g id="a_Node000023"><a xlink:href="UniqueMap_8hpp.html" target="_top" xlink:title=" ">
<polygon fill="white" stroke="#666666" points="324,-90.5 145,-90.5 145,-71.5 324,-71.5 324,-90.5"/>
<text text-anchor="middle" x="234.5" y="-78.5" font-family="Helvetica,sans-Serif" font-size="10.00">netspeak/service/UniqueMap.hpp</text>
</a>
</g>
</g>
<!-- Node15&#45;&gt;Node23 -->
<g id="edge28_Node000015_Node000023" class="edge">
<title>Node15&#45;&gt;Node23</title>
<g id="a_edge28_Node000015_Node000023"><a xlink:title=" ">
<path fill="none" stroke="#63b8ff" d="M395.06,-134.16C356.18,-121.53 295.52,-101.82 260.96,-90.6"/>
<polygon fill="#63b8ff" stroke="#63b8ff" points="394.34,-137.61 404.93,-137.37 396.5,-130.95 394.34,-137.61"/>
</a>
</g>
</g>
<!-- Node21 -->
<g id="Node000021" class="node">
<title>Node21</title>
<g id="a_Node000021"><a xlink:href="cli_2logging_8cpp.html" target="_top" xlink:title=" ">
<polygon fill="white" stroke="#666666" points="864,-24.5 777,-24.5 777,-5.5 864,-5.5 864,-24.5"/>
<text text-anchor="middle" x="820.5" y="-12.5" font-family="Helvetica,sans-Serif" font-size="10.00">cli/logging.cpp</text>
</a>
</g>
</g>
<!-- Node20&#45;&gt;Node21 -->
<g id="edge26_Node000020_Node000021" class="edge">
<title>Node20&#45;&gt;Node21</title>
<g id="a_edge26_Node000020_Node000021"><a xlink:title=" ">
<path fill="none" stroke="#63b8ff" d="M868.13,-58.93C855.28,-47.35 840.03,-33.61 830.31,-24.84"/>
<polygon fill="#63b8ff" stroke="#63b8ff" points="865.97,-61.7 875.74,-65.8 870.66,-56.5 865.97,-61.7"/>
</a>
</g>
</g>
<!-- Node22 -->
<g id="Node000022" class="node">
<title>Node22</title>
<g id="a_Node000022"><a xlink:href="RequestLogger_8cpp.html" target="_top" xlink:title=" ">
<polygon fill="white" stroke="#666666" points="1025,-30 882,-30 882,0 1025,0 1025,-30"/>
<text text-anchor="start" x="890" y="-18" font-family="Helvetica,sans-Serif" font-size="10.00">netspeak/service/Request</text>
<text text-anchor="middle" x="953.5" y="-7" font-family="Helvetica,sans-Serif" font-size="10.00">Logger.cpp</text>
</a>
</g>
</g>
<!-- Node20&#45;&gt;Node22 -->
<g id="edge27_Node000020_Node000022" class="edge">
<title>Node20&#45;&gt;Node22</title>
<g id="a_edge27_Node000020_Node000022"><a xlink:title=" ">
<path fill="none" stroke="#63b8ff" d="M912.46,-58.37C921.47,-49.06 931.76,-38.44 939.78,-30.16"/>
<polygon fill="#63b8ff" stroke="#63b8ff" points="909.7,-56.18 905.26,-65.8 914.73,-61.05 909.7,-56.18"/>
</a>
</g>
</g>
<!-- Node23&#45;&gt;Node17 -->
<g id="edge29_Node000023_Node000017" class="edge">
<title>Node23&#45;&gt;Node17</title>
<g id="a_edge29_Node000023_Node000017"><a xlink:title=" ">
<path fill="none" stroke="#63b8ff" d="M291.06,-69.57C359.16,-57.01 472.24,-36.15 535.34,-24.51"/>
<polygon fill="#63b8ff" stroke="#63b8ff" points="290.14,-66.18 280.94,-71.44 291.41,-73.06 290.14,-66.18"/>
</a>
</g>
</g>
<!-- Node24 -->
<g id="Node000024" class="node">
<title>Node24</title>
<g id="a_Node000024"><a xlink:href="UniqueMap_8cpp.html" target="_top" xlink:title=" ">
<polygon fill="white" stroke="#666666" points="324,-24.5 145,-24.5 145,-5.5 324,-5.5 324,-24.5"/>
<text text-anchor="middle" x="234.5" y="-12.5" font-family="Helvetica,sans-Serif" font-size="10.00">netspeak/service/UniqueMap.cpp</text>
</a>
</g>
</g>
<!-- Node23&#45;&gt;Node24 -->
<g id="edge30_Node000023_Node000024" class="edge">
<title>Node23&#45;&gt;Node24</title>
<g id="a_edge30_Node000023_Node000024"><a xlink:title=" ">
<path fill="none" stroke="#63b8ff" d="M234.5,-61.08C234.5,-49.13 234.5,-34.22 234.5,-24.91"/>
<polygon fill="#63b8ff" stroke="#63b8ff" points="231,-61.37 234.5,-71.37 238,-61.37 231,-61.37"/>
</a>
</g>
</g>
<!-- Node25&#45;&gt;Node7 -->
<g id="edge34_Node000025_Node000007" class="edge">
<title>Node25&#45;&gt;Node7</title>
<g id="a_edge34_Node000025_Node000007"><a xlink:title=" ">
<path fill="none" stroke="#63b8ff" d="M505.1,-387.71C517.58,-370.76 536.15,-347.47 555.5,-330 570.83,-316.16 590.29,-303.29 605.55,-294.08"/>
<polygon fill="#63b8ff" stroke="#63b8ff" points="502.18,-385.77 499.15,-395.93 507.85,-389.88 502.18,-385.77"/>
</a>
</g>
</g>
<!-- Node25&#45;&gt;Node10 -->
<g id="edge36_Node000025_Node000010" class="edge">
<title>Node25&#45;&gt;Node10</title>
<g id="a_edge36_Node000025_Node000010"><a xlink:title=" ">
<path fill="none" stroke="#63b8ff" d="M486.81,-385.6C485.98,-377.46 485.13,-368.35 484.5,-360 482.77,-336.98 481.6,-310.18 481,-294.18"/>
<polygon fill="#63b8ff" stroke="#63b8ff" points="483.34,-386 487.87,-395.58 490.3,-385.26 483.34,-386"/>
</a>
</g>
</g>
<!-- Node25&#45;&gt;Node12 -->
<g id="edge35_Node000025_Node000012" class="edge">
<title>Node25&#45;&gt;Node12</title>
<g id="a_edge35_Node000025_Node000012"><a xlink:title=" ">
<path fill="none" stroke="#63b8ff" d="M447.12,-391.92C423.42,-381.8 394.31,-369.38 372.34,-360.01"/>
<polygon fill="#63b8ff" stroke="#63b8ff" points="446.01,-395.25 456.58,-395.95 448.76,-388.81 446.01,-395.25"/>
</a>
</g>
</g>
</g>
</svg>
