<?xml version="1.0" encoding="UTF-8" standalone="no"?>
<!DOCTYPE svg PUBLIC "-//W3C//DTD SVG 1.1//EN"
 "http://www.w3.org/Graphics/SVG/1.1/DTD/svg11.dtd">
<!-- Generated by graphviz version 2.43.0 (0)
 -->
<!-- Title: netspeak/QueryNormalizer.hpp Pages: 1 -->
<svg width="1039pt" height="247pt"
 viewBox="0.00 0.00 1039.00 247.00" xmlns="http://www.w3.org/2000/svg" xmlns:xlink="http://www.w3.org/1999/xlink">
<g id="graph0" class="graph" transform="scale(1 1) rotate(0) translate(4 243)">
<title>netspeak/QueryNormalizer.hpp</title>
<!-- Node1 -->
<g id="Node000001" class="node">
<title>Node1</title>
<g id="a_Node000001"><a xlink:title=" ">
<polygon fill="#999999" stroke="#666666" points="383,-239 215,-239 215,-220 383,-220 383,-239"/>
<text text-anchor="middle" x="299" y="-227" font-family="Helvetica,sans-Serif" font-size="10.00">netspeak/QueryNormalizer.hpp</text>
</a>
</g>
</g>
<!-- Node2 -->
<g id="Node000002" class="node">
<title>Node2</title>
<g id="a_Node000002"><a xlink:title=" ">
<polygon fill="#e0e0e0" stroke="#999999" points="58,-74 0,-74 0,-55 58,-55 58,-74"/>
<text text-anchor="middle" x="29" y="-62" font-family="Helvetica,sans-Serif" font-size="10.00">memory</text>
</a>
</g>
</g>
<!-- Node1&#45;&gt;Node2 -->
<g id="edge1_Node000001_Node000002" class="edge">
<title>Node1&#45;&gt;Node2</title>
<g id="a_edge1_Node000001_Node000002"><a xlink:title=" ">
<path fill="none" stroke="#63b8ff" d="M245.15,-219.99C210.52,-213.21 165.21,-201.83 128,-184 91.05,-166.29 78.91,-161.54 54,-129 43.76,-115.62 37.18,-97.52 33.36,-84.06"/>
<polygon fill="#63b8ff" stroke="#63b8ff" points="36.66,-82.86 30.77,-74.06 29.89,-84.62 36.66,-82.86"/>
</a>
</g>
</g>
<!-- Node3 -->
<g id="Node000003" class="node">
<title>Node3</title>
<g id="a_Node000003"><a xlink:title=" ">
<polygon fill="#e0e0e0" stroke="#999999" points="397,-74 353,-74 353,-55 397,-55 397,-74"/>
<text text-anchor="middle" x="375" y="-62" font-family="Helvetica,sans-Serif" font-size="10.00">string</text>
</a>
</g>
</g>
<!-- Node1&#45;&gt;Node3 -->
<g id="edge2_Node000001_Node000003" class="edge">
<title>Node1&#45;&gt;Node3</title>
<g id="a_edge2_Node000001_Node000003"><a xlink:title=" ">
<path fill="none" stroke="#63b8ff" d="M303.09,-219.74C315.05,-194.09 350.16,-118.78 366.48,-83.78"/>
<polygon fill="#63b8ff" stroke="#63b8ff" points="369.84,-84.85 370.89,-74.31 363.5,-81.89 369.84,-84.85"/>
</a>
</g>
</g>
<!-- Node4 -->
<g id="Node000004" class="node">
<title>Node4</title>
<g id="a_Node000004"><a xlink:title=" ">
<polygon fill="#e0e0e0" stroke="#999999" points="706.5,-74 659.5,-74 659.5,-55 706.5,-55 706.5,-74"/>
<text text-anchor="middle" x="683" y="-62" font-family="Helvetica,sans-Serif" font-size="10.00">vector</text>
</a>
</g>
</g>
<!-- Node1&#45;&gt;Node4 -->
<g id="edge3_Node000001_Node000004" class="edge">
<title>Node1&#45;&gt;Node4</title>
<g id="a_edge3_Node000001_Node000004"><a xlink:title=" ">
<path fill="none" stroke="#63b8ff" d="M357.6,-219.98C449.65,-205.42 621.99,-173 664,-129 675.54,-116.92 680.1,-98.11 681.89,-84.1"/>
<polygon fill="#63b8ff" stroke="#63b8ff" points="685.38,-84.39 682.81,-74.11 678.4,-83.75 685.38,-84.39"/>
</a>
</g>
</g>
<!-- Node5 -->
<g id="Node000005" class="node">
<title>Node5</title>
<g id="a_Node000005"><a xlink:href="Dictionaries_8hpp.html" target="_top" xlink:title=" ">
<polygon fill="white" stroke="#666666" points="498,-184 402,-184 402,-165 498,-165 498,-184"/>
<text text-anchor="middle" x="450" y="-172" font-family="Helvetica,sans-Serif" font-size="10.00">Dictionaries.hpp</text>
</a>
</g>
</g>
<!-- Node1&#45;&gt;Node5 -->
<g id="edge4_Node000001_Node000005" class="edge">
<title>Node1&#45;&gt;Node5</title>
<g id="a_edge4_Node000001_Node000005"><a xlink:title=" ">
<path fill="none" stroke="#63b8ff" d="M323.26,-219.98C348.32,-211.19 387.63,-197.39 415.83,-187.49"/>
<polygon fill="#63b8ff" stroke="#63b8ff" points="417.02,-190.78 425.3,-184.17 414.7,-184.18 417.02,-190.78"/>
</a>
</g>
</g>
<!-- Node9 -->
<g id="Node000009" class="node">
<title>Node9</title>
<g id="a_Node000009"><a xlink:href="NormQuery_8hpp.html" target="_top" xlink:title=" ">
<polygon fill="white" stroke="#666666" points="271,-184 145,-184 145,-165 271,-165 271,-184"/>
<text text-anchor="middle" x="208" y="-172" font-family="Helvetica,sans-Serif" font-size="10.00">model/NormQuery.hpp</text>
</a>
</g>
</g>
<!-- Node1&#45;&gt;Node9 -->
<g id="edge9_Node000001_Node000009" class="edge">
<title>Node1&#45;&gt;Node9</title>
<g id="a_edge9_Node000001_Node000009"><a xlink:title=" ">
<path fill="none" stroke="#63b8ff" d="M284.38,-219.98C270.14,-211.69 248.25,-198.94 231.55,-189.22"/>
<polygon fill="#63b8ff" stroke="#63b8ff" points="233.29,-186.18 222.89,-184.17 229.77,-192.23 233.29,-186.18"/>
</a>
</g>
</g>
<!-- Node10 -->
<g id="Node000010" class="node">
<title>Node10</title>
<g id="a_Node000010"><a xlink:href="Query_8hpp.html" target="_top" xlink:title=" ">
<polygon fill="white" stroke="#666666" points="232.5,-129 85.5,-129 85.5,-110 232.5,-110 232.5,-129"/>
<text text-anchor="middle" x="159" y="-117" font-family="Helvetica,sans-Serif" font-size="10.00">netspeak/model/Query.hpp</text>
</a>
</g>
</g>
<!-- Node1&#45;&gt;Node10 -->
<g id="edge22_Node000001_Node000010" class="edge">
<title>Node1&#45;&gt;Node10</title>
<g id="a_edge22_Node000001_Node000010"><a xlink:title=" ">
<path fill="none" stroke="#63b8ff" d="M239.63,-219.96C198.44,-212.68 148.77,-200.73 136,-184 125.38,-170.09 134.97,-150.8 144.81,-137.15"/>
<polygon fill="#63b8ff" stroke="#63b8ff" points="147.7,-139.13 151.1,-129.1 142.18,-134.82 147.7,-139.13"/>
</a>
</g>
</g>
<!-- Node16 -->
<g id="Node000016" class="node">
<title>Node16</title>
<g id="a_Node000016"><a xlink:href="RegexIndex_8hpp.html" target="_top" xlink:title=" ">
<polygon fill="white" stroke="#666666" points="900,-184 774,-184 774,-165 900,-165 900,-184"/>
<text text-anchor="middle" x="837" y="-172" font-family="Helvetica,sans-Serif" font-size="10.00">regex/RegexIndex.hpp</text>
</a>
</g>
</g>
<!-- Node1&#45;&gt;Node16 -->
<g id="edge23_Node000001_Node000016" class="edge">
<title>Node1&#45;&gt;Node16</title>
<g id="a_edge23_Node000001_Node000016"><a xlink:title=" ">
<path fill="none" stroke="#63b8ff" d="M383.06,-220.22C487.53,-209.93 664.12,-192.53 763.45,-182.75"/>
<polygon fill="#63b8ff" stroke="#63b8ff" points="764.09,-186.2 773.7,-181.74 763.41,-179.23 764.09,-186.2"/>
</a>
</g>
</g>
<!-- Node5&#45;&gt;Node3 -->
<g id="edge7_Node000005_Node000003" class="edge">
<title>Node5&#45;&gt;Node3</title>
<g id="a_edge7_Node000005_Node000003"><a xlink:title=" ">
<path fill="none" stroke="#63b8ff" d="M434.85,-164.76C422.47,-156.89 405.37,-144.23 395,-129 385.85,-115.57 380.72,-97.73 377.95,-84.38"/>
<polygon fill="#63b8ff" stroke="#63b8ff" points="381.37,-83.64 376.15,-74.42 374.48,-84.88 381.37,-83.64"/>
</a>
</g>
</g>
<!-- Node6 -->
<g id="Node000006" class="node">
<title>Node6</title>
<g id="a_Node000006"><a xlink:title=" ">
<polygon fill="#e0e0e0" stroke="#999999" points="583,-129 515,-129 515,-110 583,-110 583,-129"/>
<text text-anchor="middle" x="549" y="-117" font-family="Helvetica,sans-Serif" font-size="10.00">filesystem</text>
</a>
</g>
</g>
<!-- Node5&#45;&gt;Node6 -->
<g id="edge5_Node000005_Node000006" class="edge">
<title>Node5&#45;&gt;Node6</title>
<g id="a_edge5_Node000005_Node000006"><a xlink:title=" ">
<path fill="none" stroke="#63b8ff" d="M465.91,-164.98C481.55,-156.61 505.66,-143.7 523.88,-133.95"/>
<polygon fill="#63b8ff" stroke="#63b8ff" points="525.64,-136.98 532.8,-129.17 522.34,-130.8 525.64,-136.98"/>
</a>
</g>
</g>
<!-- Node7 -->
<g id="Node000007" class="node">
<title>Node7</title>
<g id="a_Node000007"><a xlink:title=" ">
<polygon fill="#e0e0e0" stroke="#999999" points="655,-129 601,-129 601,-110 655,-110 655,-129"/>
<text text-anchor="middle" x="628" y="-117" font-family="Helvetica,sans-Serif" font-size="10.00">istream</text>
</a>
</g>
</g>
<!-- Node5&#45;&gt;Node7 -->
<g id="edge6_Node000005_Node000007" class="edge">
<title>Node5&#45;&gt;Node7</title>
<g id="a_edge6_Node000005_Node000007"><a xlink:title=" ">
<path fill="none" stroke="#63b8ff" d="M478.6,-164.98C509.15,-155.89 557.67,-141.44 591.08,-131.49"/>
<polygon fill="#63b8ff" stroke="#63b8ff" points="592.35,-134.77 600.93,-128.56 590.35,-128.06 592.35,-134.77"/>
</a>
</g>
</g>
<!-- Node8 -->
<g id="Node000008" class="node">
<title>Node8</title>
<g id="a_Node000008"><a xlink:title=" ">
<polygon fill="#e0e0e0" stroke="#999999" points="496.5,-129 403.5,-129 403.5,-110 496.5,-110 496.5,-129"/>
<text text-anchor="middle" x="450" y="-117" font-family="Helvetica,sans-Serif" font-size="10.00">unordered_map</text>
</a>
</g>
</g>
<!-- Node5&#45;&gt;Node8 -->
<g id="edge8_Node000005_Node000008" class="edge">
<title>Node5&#45;&gt;Node8</title>
<g id="a_edge8_Node000005_Node000008"><a xlink:title=" ">
<path fill="none" stroke="#63b8ff" d="M450,-164.75C450,-157.8 450,-147.85 450,-139.13"/>
<polygon fill="#63b8ff" stroke="#63b8ff" points="453.5,-139.09 450,-129.09 446.5,-139.09 453.5,-139.09"/>
</a>
</g>
</g>
<!-- Node9&#45;&gt;Node2 -->
<g id="edge10_Node000009_Node000002" class="edge">
<title>Node9&#45;&gt;Node2</title>
<g id="a_edge10_Node000009_Node000002"><a xlink:title=" ">
<path fill="none" stroke="#63b8ff" d="M161.08,-164.99C134.28,-158.43 101.12,-147.29 76,-129 59.42,-116.93 46.18,-97.3 38.03,-83.06"/>
<polygon fill="#63b8ff" stroke="#63b8ff" points="41.07,-81.33 33.22,-74.22 34.92,-84.68 41.07,-81.33"/>
</a>
</g>
</g>
<!-- Node9&#45;&gt;Node3 -->
<g id="edge11_Node000009_Node000003" class="edge">
<title>Node9&#45;&gt;Node3</title>
<g id="a_edge11_Node000009_Node000003"><a xlink:title=" ">
<path fill="none" stroke="#63b8ff" d="M216.95,-164.94C230.78,-152 258.52,-127.13 285,-110 304.01,-97.69 326.91,-86.42 344.85,-78.29"/>
<polygon fill="#63b8ff" stroke="#63b8ff" points="346.54,-81.38 354.25,-74.12 343.7,-74.98 346.54,-81.38"/>
</a>
</g>
</g>
<!-- Node9&#45;&gt;Node4 -->
<g id="edge12_Node000009_Node000004" class="edge">
<title>Node9&#45;&gt;Node4</title>
<g id="a_edge12_Node000009_Node000004"><a xlink:title=" ">
<path fill="none" stroke="#63b8ff" d="M229.24,-164.93C263.55,-151.39 333.56,-125.06 395,-110 485.52,-87.82 594.9,-74.52 649.12,-68.8"/>
<polygon fill="#63b8ff" stroke="#63b8ff" points="649.62,-72.27 659.21,-67.76 648.9,-65.31 649.62,-72.27"/>
</a>
</g>
</g>
<!-- Node9&#45;&gt;Node10 -->
<g id="edge13_Node000009_Node000010" class="edge">
<title>Node9&#45;&gt;Node10</title>
<g id="a_edge13_Node000009_Node000010"><a xlink:title=" ">
<path fill="none" stroke="#63b8ff" d="M199.91,-164.75C192.84,-157.11 182.41,-145.82 173.85,-136.56"/>
<polygon fill="#63b8ff" stroke="#63b8ff" points="176.3,-134.06 166.94,-129.09 171.16,-138.81 176.3,-134.06"/>
</a>
</g>
</g>
<!-- Node10&#45;&gt;Node2 -->
<g id="edge14_Node000010_Node000002" class="edge">
<title>Node10&#45;&gt;Node2</title>
<g id="a_edge14_Node000010_Node000002"><a xlink:title=" ">
<path fill="none" stroke="#63b8ff" d="M138.11,-109.98C116.92,-101.34 83.87,-87.87 59.7,-78.02"/>
<polygon fill="#63b8ff" stroke="#63b8ff" points="60.85,-74.7 50.27,-74.17 58.21,-81.19 60.85,-74.7"/>
</a>
</g>
</g>
<!-- Node10&#45;&gt;Node3 -->
<g id="edge17_Node000010_Node000003" class="edge">
<title>Node10&#45;&gt;Node3</title>
<g id="a_edge17_Node000010_Node000003"><a xlink:title=" ">
<path fill="none" stroke="#63b8ff" d="M195.94,-109.98C231.3,-101.74 286.37,-88.7 342.86,-74.24"/>
<polygon fill="#63b8ff" stroke="#63b8ff" points="343.86,-77.59 352.67,-71.71 342.11,-70.81 343.86,-77.59"/>
</a>
</g>
</g>
<!-- Node10&#45;&gt;Node4 -->
<g id="edge18_Node000010_Node000004" class="edge">
<title>Node10&#45;&gt;Node4</title>
<g id="a_edge18_Node000010_Node000004"><a xlink:title=" ">
<path fill="none" stroke="#63b8ff" d="M232.69,-111.05C347.73,-99.41 565.48,-77.39 649.11,-68.93"/>
<polygon fill="#63b8ff" stroke="#63b8ff" points="649.72,-72.38 659.32,-67.9 649.02,-65.42 649.72,-72.38"/>
</a>
</g>
</g>
<!-- Node11 -->
<g id="Node000011" class="node">
<title>Node11</title>
<g id="a_Node000011"><a xlink:title=" ">
<polygon fill="#e0e0e0" stroke="#999999" points="132,-74 76,-74 76,-55 132,-55 132,-74"/>
<text text-anchor="middle" x="104" y="-62" font-family="Helvetica,sans-Serif" font-size="10.00">optional</text>
</a>
</g>
</g>
<!-- Node10&#45;&gt;Node11 -->
<g id="edge15_Node000010_Node000011" class="edge">
<title>Node10&#45;&gt;Node11</title>
<g id="a_edge15_Node000010_Node000011"><a xlink:title=" ">
<path fill="none" stroke="#63b8ff" d="M149.92,-109.75C141.91,-102.03 130.04,-90.6 120.38,-81.28"/>
<polygon fill="#63b8ff" stroke="#63b8ff" points="122.54,-78.51 112.91,-74.09 117.69,-83.55 122.54,-78.51"/>
</a>
</g>
</g>
<!-- Node12 -->
<g id="Node000012" class="node">
<title>Node12</title>
<g id="a_Node000012"><a xlink:title=" ">
<polygon fill="#e0e0e0" stroke="#999999" points="215.5,-74 150.5,-74 150.5,-55 215.5,-55 215.5,-74"/>
<text text-anchor="middle" x="183" y="-62" font-family="Helvetica,sans-Serif" font-size="10.00">stdexcept</text>
</a>
</g>
</g>
<!-- Node10&#45;&gt;Node12 -->
<g id="edge16_Node000010_Node000012" class="edge">
<title>Node10&#45;&gt;Node12</title>
<g id="a_edge16_Node000010_Node000012"><a xlink:title=" ">
<path fill="none" stroke="#63b8ff" d="M162.96,-109.75C166.21,-102.57 170.92,-92.18 174.95,-83.27"/>
<polygon fill="#63b8ff" stroke="#63b8ff" points="178.17,-84.64 179.11,-74.09 171.8,-81.75 178.17,-84.64"/>
</a>
</g>
</g>
<!-- Node13 -->
<g id="Node000013" class="node">
<title>Node13</title>
<g id="a_Node000013"><a xlink:href="LengthRange_8hpp.html" target="_top" xlink:title=" ">
<polygon fill="white" stroke="#666666" points="334.5,-74 233.5,-74 233.5,-55 334.5,-55 334.5,-74"/>
<text text-anchor="middle" x="284" y="-62" font-family="Helvetica,sans-Serif" font-size="10.00">LengthRange.hpp</text>
</a>
</g>
</g>
<!-- Node10&#45;&gt;Node13 -->
<g id="edge19_Node000010_Node000013" class="edge">
<title>Node10&#45;&gt;Node13</title>
<g id="a_edge19_Node000010_Node000013"><a xlink:title=" ">
<path fill="none" stroke="#63b8ff" d="M179.08,-109.98C199.37,-101.38 230.96,-87.99 254.17,-78.15"/>
<polygon fill="#63b8ff" stroke="#63b8ff" points="255.71,-81.3 263.55,-74.17 252.98,-74.85 255.71,-81.3"/>
</a>
</g>
</g>
<!-- Node14 -->
<g id="Node000014" class="node">
<title>Node14</title>
<g id="a_Node000014"><a xlink:title=" ">
<polygon fill="#e0e0e0" stroke="#999999" points="581.5,-19 516.5,-19 516.5,0 581.5,0 581.5,-19"/>
<text text-anchor="middle" x="549" y="-7" font-family="Helvetica,sans-Serif" font-size="10.00">inttypes.h</text>
</a>
</g>
</g>
<!-- Node13&#45;&gt;Node14 -->
<g id="edge20_Node000013_Node000014" class="edge">
<title>Node13&#45;&gt;Node14</title>
<g id="a_edge20_Node000013_Node000014"><a xlink:title=" ">
<path fill="none" stroke="#63b8ff" d="M326.58,-54.98C375.89,-45.12 456.66,-28.97 506.1,-19.08"/>
<polygon fill="#63b8ff" stroke="#63b8ff" points="507.04,-22.46 516.15,-17.07 505.66,-15.6 507.04,-22.46"/>
</a>
</g>
</g>
<!-- Node15 -->
<g id="Node000015" class="node">
<title>Node15</title>
<g id="a_Node000015"><a xlink:title=" ">
<polygon fill="#e0e0e0" stroke="#999999" points="312.5,-19 255.5,-19 255.5,0 312.5,0 312.5,-19"/>
<text text-anchor="middle" x="284" y="-7" font-family="Helvetica,sans-Serif" font-size="10.00">ostream</text>
</a>
</g>
</g>
<!-- Node13&#45;&gt;Node15 -->
<g id="edge21_Node000013_Node000015" class="edge">
<title>Node13&#45;&gt;Node15</title>
<g id="a_edge21_Node000013_Node000015"><a xlink:title=" ">
<path fill="none" stroke="#63b8ff" d="M284,-54.75C284,-47.8 284,-37.85 284,-29.13"/>
<polygon fill="#63b8ff" stroke="#63b8ff" points="287.5,-29.09 284,-19.09 280.5,-29.09 287.5,-29.09"/>
</a>
</g>
</g>
<!-- Node16&#45;&gt;Node3 -->
<g id="edge25_Node000016_Node000003" class="edge">
<title>Node16&#45;&gt;Node3</title>
<g id="a_edge25_Node000016_Node000003"><a xlink:title=" ">
<path fill="none" stroke="#63b8ff" d="M817.69,-164.97C786.14,-151.36 721.32,-124.77 664,-110 572.29,-86.36 460.76,-73.54 407.01,-68.33"/>
<polygon fill="#63b8ff" stroke="#63b8ff" points="407.34,-64.84 397.05,-67.39 406.68,-71.81 407.34,-64.84"/>
</a>
</g>
</g>
<!-- Node16&#45;&gt;Node4 -->
<g id="edge26_Node000016_Node000004" class="edge">
<title>Node16&#45;&gt;Node4</title>
<g id="a_edge26_Node000016_Node000004"><a xlink:title=" ">
<path fill="none" stroke="#63b8ff" d="M872.5,-164.97C908.31,-154.7 955.47,-135.61 934,-110 906.65,-77.38 778.67,-68.66 716.74,-66.33"/>
<polygon fill="#63b8ff" stroke="#63b8ff" points="716.8,-62.83 706.69,-65.99 716.56,-69.83 716.8,-62.83"/>
</a>
</g>
</g>
<!-- Node17 -->
<g id="Node000017" class="node">
<title>Node17</title>
<g id="a_Node000017"><a xlink:title=" ">
<polygon fill="#e0e0e0" stroke="#999999" points="1031,-129 981,-129 981,-110 1031,-110 1031,-129"/>
<text text-anchor="middle" x="1006" y="-117" font-family="Helvetica,sans-Serif" font-size="10.00">chrono</text>
</a>
</g>
</g>
<!-- Node16&#45;&gt;Node17 -->
<g id="edge24_Node000016_Node000017" class="edge">
<title>Node16&#45;&gt;Node17</title>
<g id="a_edge24_Node000016_Node000017"><a xlink:title=" ">
<path fill="none" stroke="#63b8ff" d="M864.15,-164.98C893.2,-155.88 939.36,-141.4 971.09,-131.45"/>
<polygon fill="#63b8ff" stroke="#63b8ff" points="972.35,-134.72 980.85,-128.39 970.26,-128.04 972.35,-134.72"/>
</a>
</g>
</g>
<!-- Node18 -->
<g id="Node000018" class="node">
<title>Node18</title>
<g id="a_Node000018"><a xlink:href="RegexQuery_8hpp.html" target="_top" xlink:title=" ">
<polygon fill="white" stroke="#666666" points="924.5,-129 749.5,-129 749.5,-110 924.5,-110 924.5,-129"/>
<text text-anchor="middle" x="837" y="-117" font-family="Helvetica,sans-Serif" font-size="10.00">netspeak/regex/RegexQuery.hpp</text>
</a>
</g>
</g>
<!-- Node16&#45;&gt;Node18 -->
<g id="edge27_Node000016_Node000018" class="edge">
<title>Node16&#45;&gt;Node18</title>
<g id="a_edge27_Node000016_Node000018"><a xlink:title=" ">
<path fill="none" stroke="#63b8ff" d="M837,-164.75C837,-157.8 837,-147.85 837,-139.13"/>
<polygon fill="#63b8ff" stroke="#63b8ff" points="840.5,-139.09 837,-129.09 833.5,-139.09 840.5,-139.09"/>
</a>
</g>
</g>
<!-- Node18&#45;&gt;Node3 -->
<g id="edge29_Node000018_Node000003" class="edge">
<title>Node18&#45;&gt;Node3</title>
<g id="a_edge29_Node000018_Node000003"><a xlink:title=" ">
<path fill="none" stroke="#63b8ff" d="M762.77,-109.98C660.42,-98.24 480.32,-77.58 407.21,-69.19"/>
<polygon fill="#63b8ff" stroke="#63b8ff" points="407.55,-65.71 397.22,-68.05 406.75,-72.67 407.55,-65.71"/>
</a>
</g>
</g>
<!-- Node18&#45;&gt;Node4 -->
<g id="edge30_Node000018_Node000004" class="edge">
<title>Node18&#45;&gt;Node4</title>
<g id="a_edge30_Node000018_Node000004"><a xlink:title=" ">
<path fill="none" stroke="#63b8ff" d="M812.26,-109.98C786.25,-101.03 745.17,-86.9 716.32,-76.97"/>
<polygon fill="#63b8ff" stroke="#63b8ff" points="717.26,-73.59 706.67,-73.65 714.99,-80.21 717.26,-73.59"/>
</a>
</g>
</g>
<!-- Node18&#45;&gt;Node14 -->
<g id="edge28_Node000018_Node000014" class="edge">
<title>Node18&#45;&gt;Node14</title>
<g id="a_edge28_Node000018_Node000014"><a xlink:title=" ">
<path fill="none" stroke="#63b8ff" d="M822.96,-109.8C800.9,-96.44 756.45,-70.77 716,-55 674.96,-38.99 626.07,-26.71 591.83,-19.15"/>
<polygon fill="#63b8ff" stroke="#63b8ff" points="592.21,-15.65 581.7,-16.95 590.73,-22.49 592.21,-15.65"/>
</a>
</g>
</g>
</g>
</svg>
