<?xml version="1.0" encoding="UTF-8" standalone="no"?>
<!DOCTYPE svg PUBLIC "-//W3C//DTD SVG 1.1//EN"
 "http://www.w3.org/Graphics/SVG/1.1/DTD/svg11.dtd">
<!-- Generated by graphviz version 2.43.0 (0)
 -->
<!-- Title: netspeak/model/Query.hpp Pages: 1 -->
<svg width="1619pt" height="379pt"
 viewBox="0.00 0.00 1618.50 379.00" xmlns="http://www.w3.org/2000/svg" xmlns:xlink="http://www.w3.org/1999/xlink">
<g id="graph0" class="graph" transform="scale(1 1) rotate(0) translate(4 375)">
<title>netspeak/model/Query.hpp</title>
<!-- Node1 -->
<g id="Node000001" class="node">
<title>Node1</title>
<g id="a_Node000001"><a xlink:title=" ">
<polygon fill="#999999" stroke="#666666" points="1212,-371 1065,-371 1065,-352 1212,-352 1212,-371"/>
<text text-anchor="middle" x="1138.5" y="-359" font-family="Helvetica,sans-Serif" font-size="10.00">netspeak/model/Query.hpp</text>
</a>
</g>
</g>
<!-- Node2 -->
<g id="Node000002" class="node">
<title>Node2</title>
<g id="a_Node000002"><a xlink:href="parse_8hpp.html" target="_top" xlink:title=" ">
<polygon fill="white" stroke="#666666" points="171.5,-316 75.5,-316 75.5,-297 171.5,-297 171.5,-316"/>
<text text-anchor="middle" x="123.5" y="-304" font-family="Helvetica,sans-Serif" font-size="10.00">antlr4/parse.hpp</text>
</a>
</g>
</g>
<!-- Node1&#45;&gt;Node2 -->
<g id="edge1_Node000001_Node000002" class="edge">
<title>Node1&#45;&gt;Node2</title>
<g id="a_edge1_Node000001_Node000002"><a xlink:title=" ">
<path fill="none" stroke="#63b8ff" d="M1054.61,-356.12C850.36,-345.45 332.2,-318.4 171.67,-310.02"/>
<polygon fill="#63b8ff" stroke="#63b8ff" points="1054.52,-359.62 1064.69,-356.65 1054.88,-352.63 1054.52,-359.62"/>
</a>
</g>
</g>
<!-- Node4 -->
<g id="Node000004" class="node">
<title>Node4</title>
<g id="a_Node000004"><a xlink:href="Netspeak_8hpp.html" target="_top" xlink:title=" ">
<polygon fill="white" stroke="#666666" points="652.5,-151 520.5,-151 520.5,-132 652.5,-132 652.5,-151"/>
<text text-anchor="middle" x="586.5" y="-139" font-family="Helvetica,sans-Serif" font-size="10.00">netspeak/Netspeak.hpp</text>
</a>
</g>
</g>
<!-- Node1&#45;&gt;Node4 -->
<g id="edge15_Node000001_Node000004" class="edge">
<title>Node1&#45;&gt;Node4</title>
<g id="a_edge15_Node000001_Node000004"><a xlink:title=" ">
<path fill="none" stroke="#63b8ff" d="M1189.94,-349.75C1289.97,-326.75 1494.42,-268.15 1417.5,-187 1391.32,-159.38 845.05,-147.08 652.76,-143.59"/>
<polygon fill="#63b8ff" stroke="#63b8ff" points="1189,-346.38 1180.02,-352 1190.55,-353.2 1189,-346.38"/>
</a>
</g>
</g>
<!-- Node15 -->
<g id="Node000015" class="node">
<title>Node15</title>
<g id="a_Node000015"><a xlink:href="QueryNormalizer_8hpp.html" target="_top" xlink:title=" ">
<polygon fill="white" stroke="#666666" points="1102.5,-261 934.5,-261 934.5,-242 1102.5,-242 1102.5,-261"/>
<text text-anchor="middle" x="1018.5" y="-249" font-family="Helvetica,sans-Serif" font-size="10.00">netspeak/QueryNormalizer.hpp</text>
</a>
</g>
</g>
<!-- Node1&#45;&gt;Node15 -->
<g id="edge16_Node000001_Node000015" class="edge">
<title>Node1&#45;&gt;Node15</title>
<g id="a_edge16_Node000001_Node000015"><a xlink:title=" ">
<path fill="none" stroke="#63b8ff" d="M1121.17,-344.91C1095.54,-321.83 1048.35,-279.37 1028.12,-261.16"/>
<polygon fill="#63b8ff" stroke="#63b8ff" points="1118.91,-347.57 1128.68,-351.66 1123.59,-342.37 1118.91,-347.57"/>
</a>
</g>
</g>
<!-- Node17 -->
<g id="Node000017" class="node">
<title>Node17</title>
<g id="a_Node000017"><a xlink:href="NormQuery_8hpp.html" target="_top" xlink:title=" ">
<polygon fill="white" stroke="#666666" points="747.5,-316 573.5,-316 573.5,-297 747.5,-297 747.5,-316"/>
<text text-anchor="middle" x="660.5" y="-304" font-family="Helvetica,sans-Serif" font-size="10.00">netspeak/model/NormQuery.hpp</text>
</a>
</g>
</g>
<!-- Node1&#45;&gt;Node17 -->
<g id="edge19_Node000001_Node000017" class="edge">
<title>Node1&#45;&gt;Node17</title>
<g id="a_edge19_Node000001_Node000017"><a xlink:title=" ">
<path fill="none" stroke="#63b8ff" d="M1054.74,-351.21C965.14,-341.28 824.25,-325.66 737.39,-316.03"/>
<polygon fill="#63b8ff" stroke="#63b8ff" points="1054.54,-354.71 1064.86,-352.33 1055.31,-347.75 1054.54,-354.71"/>
</a>
</g>
</g>
<!-- Node25 -->
<g id="Node000025" class="node">
<title>Node25</title>
<g id="a_Node000025"><a xlink:href="SimpleQuery_8hpp.html" target="_top" xlink:title=" ">
<polygon fill="white" stroke="#666666" points="1302,-261 1121,-261 1121,-242 1302,-242 1302,-261"/>
<text text-anchor="middle" x="1211.5" y="-249" font-family="Helvetica,sans-Serif" font-size="10.00">netspeak/model/SimpleQuery.hpp</text>
</a>
</g>
</g>
<!-- Node1&#45;&gt;Node25 -->
<g id="edge39_Node000001_Node000025" class="edge">
<title>Node1&#45;&gt;Node25</title>
<g id="a_edge39_Node000001_Node000025"><a xlink:title=" ">
<path fill="none" stroke="#63b8ff" d="M1150.28,-343.07C1166.12,-319.64 1193.66,-278.89 1205.65,-261.16"/>
<polygon fill="#63b8ff" stroke="#63b8ff" points="1147.17,-341.42 1144.47,-351.66 1152.97,-345.34 1147.17,-341.42"/>
</a>
</g>
</g>
<!-- Node27 -->
<g id="Node000027" class="node">
<title>Node27</title>
<g id="a_Node000027"><a xlink:href="Query_8cpp.html" target="_top" xlink:title=" ">
<polygon fill="white" stroke="#666666" points="1610.5,-316 1464.5,-316 1464.5,-297 1610.5,-297 1610.5,-316"/>
<text text-anchor="middle" x="1537.5" y="-304" font-family="Helvetica,sans-Serif" font-size="10.00">netspeak/model/Query.cpp</text>
</a>
</g>
</g>
<!-- Node1&#45;&gt;Node27 -->
<g id="edge38_Node000001_Node000027" class="edge">
<title>Node1&#45;&gt;Node27</title>
<g id="a_edge38_Node000001_Node000027"><a xlink:title=" ">
<path fill="none" stroke="#63b8ff" d="M1212.9,-350.62C1287.81,-340.67 1402.15,-325.48 1473.22,-316.04"/>
<polygon fill="#63b8ff" stroke="#63b8ff" points="1212.06,-347.2 1202.61,-351.98 1212.98,-354.14 1212.06,-347.2"/>
</a>
</g>
</g>
<!-- Node3 -->
<g id="Node000003" class="node">
<title>Node3</title>
<g id="a_Node000003"><a xlink:href="parse_8cpp.html" target="_top" xlink:title=" ">
<polygon fill="white" stroke="#666666" points="95,-261 0,-261 0,-242 95,-242 95,-261"/>
<text text-anchor="middle" x="47.5" y="-249" font-family="Helvetica,sans-Serif" font-size="10.00">antlr4/parse.cpp</text>
</a>
</g>
</g>
<!-- Node2&#45;&gt;Node3 -->
<g id="edge2_Node000002_Node000003" class="edge">
<title>Node2&#45;&gt;Node3</title>
<g id="a_edge2_Node000002_Node000003"><a xlink:title=" ">
<path fill="none" stroke="#63b8ff" d="M102.92,-291.15C89.19,-281.57 71.57,-269.29 59.93,-261.17"/>
<polygon fill="#63b8ff" stroke="#63b8ff" points="101.08,-294.14 111.29,-296.98 105.09,-288.39 101.08,-294.14"/>
</a>
</g>
</g>
<!-- Node2&#45;&gt;Node4 -->
<g id="edge3_Node000002_Node000004" class="edge">
<title>Node2&#45;&gt;Node4</title>
<g id="a_edge3_Node000002_Node000004"><a xlink:title=" ">
<path fill="none" stroke="#63b8ff" d="M122.73,-286.68C122.77,-260.01 127.22,-211.72 156.5,-187 183.7,-164.03 406.82,-150.66 520.48,-145.28"/>
<polygon fill="#63b8ff" stroke="#63b8ff" points="119.24,-287.02 122.94,-296.95 126.24,-286.88 119.24,-287.02"/>
</a>
</g>
</g>
<!-- Node5 -->
<g id="Node000005" class="node">
<title>Node5</title>
<g id="a_Node000005"><a xlink:href="ProxyCommand_8cpp.html" target="_top" xlink:title=" ">
<polygon fill="white" stroke="#666666" points="270,-90.5 141,-90.5 141,-71.5 270,-71.5 270,-90.5"/>
<text text-anchor="middle" x="205.5" y="-78.5" font-family="Helvetica,sans-Serif" font-size="10.00">cli/ProxyCommand.cpp</text>
</a>
</g>
</g>
<!-- Node4&#45;&gt;Node5 -->
<g id="edge4_Node000004_Node000005" class="edge">
<title>Node4&#45;&gt;Node5</title>
<g id="a_edge4_Node000004_Node000005"><a xlink:title=" ">
<path fill="none" stroke="#63b8ff" d="M515.16,-130.58C453.91,-121.93 363.29,-108.78 284.5,-96 274.05,-94.3 262.84,-92.38 252.25,-90.52"/>
<polygon fill="#63b8ff" stroke="#63b8ff" points="514.72,-134.06 525.11,-131.99 515.69,-127.13 514.72,-134.06"/>
</a>
</g>
</g>
<!-- Node6 -->
<g id="Node000006" class="node">
<title>Node6</title>
<g id="a_Node000006"><a xlink:href="ServeCommand_8cpp.html" target="_top" xlink:title=" ">
<polygon fill="white" stroke="#666666" points="363,-24.5 234,-24.5 234,-5.5 363,-5.5 363,-24.5"/>
<text text-anchor="middle" x="298.5" y="-12.5" font-family="Helvetica,sans-Serif" font-size="10.00">cli/ServeCommand.cpp</text>
</a>
</g>
</g>
<!-- Node4&#45;&gt;Node6 -->
<g id="edge5_Node000004_Node000006" class="edge">
<title>Node4&#45;&gt;Node6</title>
<g id="a_edge5_Node000004_Node000006"><a xlink:title=" ">
<path fill="none" stroke="#63b8ff" d="M510.41,-137.14C440.88,-132.48 344.84,-121.51 317.5,-96 297.36,-77.2 296.79,-41.28 297.73,-24.74"/>
<polygon fill="#63b8ff" stroke="#63b8ff" points="510.27,-140.64 520.47,-137.79 510.71,-133.66 510.27,-140.64"/>
</a>
</g>
</g>
<!-- Node7 -->
<g id="Node000007" class="node">
<title>Node7</title>
<g id="a_Node000007"><a xlink:href="ShellCommand_8cpp.html" target="_top" xlink:title=" ">
<polygon fill="white" stroke="#666666" points="649,-90.5 524,-90.5 524,-71.5 649,-71.5 649,-90.5"/>
<text text-anchor="middle" x="586.5" y="-78.5" font-family="Helvetica,sans-Serif" font-size="10.00">cli/ShellCommand.cpp</text>
</a>
</g>
</g>
<!-- Node4&#45;&gt;Node7 -->
<g id="edge6_Node000004_Node000007" class="edge">
<title>Node4&#45;&gt;Node7</title>
<g id="a_edge6_Node000004_Node000007"><a xlink:title=" ">
<path fill="none" stroke="#63b8ff" d="M586.5,-121.66C586.5,-111.24 586.5,-98.8 586.5,-90.67"/>
<polygon fill="#63b8ff" stroke="#63b8ff" points="583,-121.87 586.5,-131.87 590,-121.87 583,-121.87"/>
</a>
</g>
</g>
<!-- Node8 -->
<g id="Node000008" class="node">
<title>Node8</title>
<g id="a_Node000008"><a xlink:href="Netspeak_8cpp.html" target="_top" xlink:title=" ">
<polygon fill="white" stroke="#666666" points="798,-90.5 667,-90.5 667,-71.5 798,-71.5 798,-90.5"/>
<text text-anchor="middle" x="732.5" y="-78.5" font-family="Helvetica,sans-Serif" font-size="10.00">netspeak/Netspeak.cpp</text>
</a>
</g>
</g>
<!-- Node4&#45;&gt;Node8 -->
<g id="edge7_Node000004_Node000008" class="edge">
<title>Node4&#45;&gt;Node8</title>
<g id="a_edge7_Node000004_Node000008"><a xlink:title=" ">
<path fill="none" stroke="#63b8ff" d="M617.12,-128.23C645.34,-116.92 686.47,-100.44 711.24,-90.52"/>
<polygon fill="#63b8ff" stroke="#63b8ff" points="615.71,-125.03 607.73,-131.99 618.31,-131.52 615.71,-125.03"/>
</a>
</g>
</g>
<!-- Node9 -->
<g id="Node000009" class="node">
<title>Node9</title>
<g id="a_Node000009"><a xlink:href="indexing_8cpp.html" target="_top" xlink:title=" ">
<polygon fill="white" stroke="#666666" points="943,-90.5 816,-90.5 816,-71.5 943,-71.5 943,-90.5"/>
<text text-anchor="middle" x="879.5" y="-78.5" font-family="Helvetica,sans-Serif" font-size="10.00">netspeak/indexing.cpp</text>
</a>
</g>
</g>
<!-- Node4&#45;&gt;Node9 -->
<g id="edge8_Node000004_Node000009" class="edge">
<title>Node4&#45;&gt;Node9</title>
<g id="a_edge8_Node000004_Node000009"><a xlink:title=" ">
<path fill="none" stroke="#63b8ff" d="M638.92,-130.03C695.47,-118.74 784.42,-100.98 836.84,-90.52"/>
<polygon fill="#63b8ff" stroke="#63b8ff" points="638.23,-126.6 629.1,-131.99 639.6,-133.47 638.23,-126.6"/>
</a>
</g>
</g>
<!-- Node10 -->
<g id="Node000010" class="node">
<title>Node10</title>
<g id="a_Node000010"><a xlink:href="RequestLogger_8hpp.html" target="_top" xlink:title=" ">
<polygon fill="white" stroke="#666666" points="1104,-96 961,-96 961,-66 1104,-66 1104,-96"/>
<text text-anchor="start" x="969" y="-84" font-family="Helvetica,sans-Serif" font-size="10.00">netspeak/service/Request</text>
<text text-anchor="middle" x="1032.5" y="-73" font-family="Helvetica,sans-Serif" font-size="10.00">Logger.hpp</text>
</a>
</g>
</g>
<!-- Node4&#45;&gt;Node10 -->
<g id="edge9_Node000004_Node000010" class="edge">
<title>Node4&#45;&gt;Node10</title>
<g id="a_edge9_Node000004_Node000010"><a xlink:title=" ">
<path fill="none" stroke="#63b8ff" d="M662.94,-132.38C737.09,-124.23 852.72,-110.79 952.5,-96 955.15,-95.61 957.85,-95.2 960.57,-94.77"/>
<polygon fill="#63b8ff" stroke="#63b8ff" points="662.32,-128.93 652.76,-133.5 663.08,-135.89 662.32,-128.93"/>
</a>
</g>
</g>
<!-- Node13 -->
<g id="Node000013" class="node">
<title>Node13</title>
<g id="a_Node000013"><a xlink:href="UniqueMap_8hpp.html" target="_top" xlink:title=" ">
<polygon fill="white" stroke="#666666" points="506,-90.5 327,-90.5 327,-71.5 506,-71.5 506,-90.5"/>
<text text-anchor="middle" x="416.5" y="-78.5" font-family="Helvetica,sans-Serif" font-size="10.00">netspeak/service/UniqueMap.hpp</text>
</a>
</g>
</g>
<!-- Node4&#45;&gt;Node13 -->
<g id="edge12_Node000004_Node000013" class="edge">
<title>Node4&#45;&gt;Node13</title>
<g id="a_edge12_Node000004_Node000013"><a xlink:title=" ">
<path fill="none" stroke="#63b8ff" d="M552.13,-128.67C519.25,-117.36 470.47,-100.57 441.25,-90.52"/>
<polygon fill="#63b8ff" stroke="#63b8ff" points="551.19,-132.05 561.78,-131.99 553.46,-125.43 551.19,-132.05"/>
</a>
</g>
</g>
<!-- Node11 -->
<g id="Node000011" class="node">
<title>Node11</title>
<g id="a_Node000011"><a xlink:href="cli_2logging_8cpp.html" target="_top" xlink:title=" ">
<polygon fill="white" stroke="#666666" points="1009,-24.5 922,-24.5 922,-5.5 1009,-5.5 1009,-24.5"/>
<text text-anchor="middle" x="965.5" y="-12.5" font-family="Helvetica,sans-Serif" font-size="10.00">cli/logging.cpp</text>
</a>
</g>
</g>
<!-- Node10&#45;&gt;Node11 -->
<g id="edge10_Node000010_Node000011" class="edge">
<title>Node10&#45;&gt;Node11</title>
<g id="a_edge10_Node000010_Node000011"><a xlink:title=" ">
<path fill="none" stroke="#63b8ff" d="M1010.1,-58.6C998.05,-47.1 983.84,-33.52 974.76,-24.84"/>
<polygon fill="#63b8ff" stroke="#63b8ff" points="1007.98,-61.42 1017.63,-65.8 1012.82,-56.36 1007.98,-61.42"/>
</a>
</g>
</g>
<!-- Node12 -->
<g id="Node000012" class="node">
<title>Node12</title>
<g id="a_Node000012"><a xlink:href="RequestLogger_8cpp.html" target="_top" xlink:title=" ">
<polygon fill="white" stroke="#666666" points="1170,-30 1027,-30 1027,0 1170,0 1170,-30"/>
<text text-anchor="start" x="1035" y="-18" font-family="Helvetica,sans-Serif" font-size="10.00">netspeak/service/Request</text>
<text text-anchor="middle" x="1098.5" y="-7" font-family="Helvetica,sans-Serif" font-size="10.00">Logger.cpp</text>
</a>
</g>
</g>
<!-- Node10&#45;&gt;Node12 -->
<g id="edge11_Node000010_Node000012" class="edge">
<title>Node10&#45;&gt;Node12</title>
<g id="a_edge11_Node000010_Node000012"><a xlink:title=" ">
<path fill="none" stroke="#63b8ff" d="M1054.52,-58.65C1064.19,-49.27 1075.27,-38.53 1083.89,-30.16"/>
<polygon fill="#63b8ff" stroke="#63b8ff" points="1051.89,-56.32 1047.15,-65.8 1056.76,-61.35 1051.89,-56.32"/>
</a>
</g>
</g>
<!-- Node13&#45;&gt;Node6 -->
<g id="edge13_Node000013_Node000006" class="edge">
<title>Node13&#45;&gt;Node6</title>
<g id="a_edge13_Node000013_Node000006"><a xlink:title=" ">
<path fill="none" stroke="#63b8ff" d="M391.66,-66.53C368.42,-53.92 334.39,-35.47 314.54,-24.7"/>
<polygon fill="#63b8ff" stroke="#63b8ff" points="390.13,-69.68 400.59,-71.37 393.46,-63.52 390.13,-69.68"/>
</a>
</g>
</g>
<!-- Node14 -->
<g id="Node000014" class="node">
<title>Node14</title>
<g id="a_Node000014"><a xlink:href="UniqueMap_8cpp.html" target="_top" xlink:title=" ">
<polygon fill="white" stroke="#666666" points="560,-24.5 381,-24.5 381,-5.5 560,-5.5 560,-24.5"/>
<text text-anchor="middle" x="470.5" y="-12.5" font-family="Helvetica,sans-Serif" font-size="10.00">netspeak/service/UniqueMap.cpp</text>
</a>
</g>
</g>
<!-- Node13&#45;&gt;Node14 -->
<g id="edge14_Node000013_Node000014" class="edge">
<title>Node13&#45;&gt;Node14</title>
<g id="a_edge14_Node000013_Node000014"><a xlink:title=" ">
<path fill="none" stroke="#63b8ff" d="M430.32,-63.62C440.71,-51.31 454.56,-34.89 462.99,-24.91"/>
<polygon fill="#63b8ff" stroke="#63b8ff" points="427.56,-61.47 423.78,-71.37 432.91,-65.98 427.56,-61.47"/>
</a>
</g>
</g>
<!-- Node15&#45;&gt;Node4 -->
<g id="edge17_Node000015_Node000004" class="edge">
<title>Node15&#45;&gt;Node4</title>
<g id="a_edge17_Node000015_Node000004"><a xlink:title=" ">
<path fill="none" stroke="#63b8ff" d="M1011.43,-232.51C1004.58,-217.67 992.71,-197.43 975.5,-187 922.74,-155.03 749.26,-146.03 652.75,-143.49"/>
<polygon fill="#63b8ff" stroke="#63b8ff" points="1008.22,-233.91 1015.36,-241.73 1014.66,-231.16 1008.22,-233.91"/>
</a>
</g>
</g>
<!-- Node16 -->
<g id="Node000016" class="node">
<title>Node16</title>
<g id="a_Node000016"><a xlink:href="QueryNormalizer_8cpp.html" target="_top" xlink:title=" ">
<polygon fill="white" stroke="#666666" points="1210,-206 1043,-206 1043,-187 1210,-187 1210,-206"/>
<text text-anchor="middle" x="1126.5" y="-194" font-family="Helvetica,sans-Serif" font-size="10.00">netspeak/QueryNormalizer.cpp</text>
</a>
</g>
</g>
<!-- Node15&#45;&gt;Node16 -->
<g id="edge18_Node000015_Node000016" class="edge">
<title>Node15&#45;&gt;Node16</title>
<g id="a_edge18_Node000015_Node000016"><a xlink:title=" ">
<path fill="none" stroke="#63b8ff" d="M1044.99,-237.5C1064.86,-227.75 1091.5,-214.68 1108.83,-206.17"/>
<polygon fill="#63b8ff" stroke="#63b8ff" points="1043.29,-234.44 1035.85,-241.98 1046.37,-240.72 1043.29,-234.44"/>
</a>
</g>
</g>
<!-- Node17&#45;&gt;Node4 -->
<g id="edge20_Node000017_Node000004" class="edge">
<title>Node17&#45;&gt;Node4</title>
<g id="a_edge20_Node000017_Node000004"><a xlink:title=" ">
<path fill="none" stroke="#63b8ff" d="M563.37,-298.42C502.61,-288.16 429.62,-263.7 395.5,-206 366.11,-156.29 454.25,-144.3 520.43,-142.04"/>
<polygon fill="#63b8ff" stroke="#63b8ff" points="562.97,-301.9 573.4,-300.01 564.07,-294.99 562.97,-301.9"/>
</a>
</g>
</g>
<!-- Node17&#45;&gt;Node15 -->
<g id="edge21_Node000017_Node000015" class="edge">
<title>Node17&#45;&gt;Node15</title>
<g id="a_edge21_Node000017_Node000015"><a xlink:title=" ">
<path fill="none" stroke="#63b8ff" d="M728.09,-295.49C795.3,-285.54 897.31,-270.44 960.83,-261.04"/>
<polygon fill="#63b8ff" stroke="#63b8ff" points="727.4,-292.06 718.02,-296.98 728.42,-298.98 727.4,-292.06"/>
</a>
</g>
</g>
<!-- Node18 -->
<g id="Node000018" class="node">
<title>Node18</title>
<g id="a_Node000018"><a xlink:href="QueryProcessor_8hpp.html" target="_top" xlink:title=" ">
<polygon fill="white" stroke="#666666" points="761,-206 600,-206 600,-187 761,-187 761,-206"/>
<text text-anchor="middle" x="680.5" y="-194" font-family="Helvetica,sans-Serif" font-size="10.00">netspeak/QueryProcessor.hpp</text>
</a>
</g>
</g>
<!-- Node17&#45;&gt;Node18 -->
<g id="edge22_Node000017_Node000018" class="edge">
<title>Node17&#45;&gt;Node18</title>
<g id="a_edge22_Node000017_Node000018"><a xlink:title=" ">
<path fill="none" stroke="#63b8ff" d="M678.14,-289.86C685.64,-282.04 693.56,-271.91 697.5,-261 704.4,-241.9 693.49,-218.66 686.2,-206.27"/>
<polygon fill="#63b8ff" stroke="#63b8ff" points="675.66,-287.39 670.94,-296.87 680.55,-292.4 675.66,-287.39"/>
</a>
</g>
</g>
<!-- Node19 -->
<g id="Node000019" class="node">
<title>Node19</title>
<g id="a_Node000019"><a xlink:href="RetrievalStrategy_8hpp.html" target="_top" xlink:title=" ">
<polygon fill="white" stroke="#666666" points="688.5,-261 518.5,-261 518.5,-242 688.5,-242 688.5,-261"/>
<text text-anchor="middle" x="603.5" y="-249" font-family="Helvetica,sans-Serif" font-size="10.00">netspeak/RetrievalStrategy.hpp</text>
</a>
</g>
</g>
<!-- Node17&#45;&gt;Node19 -->
<g id="edge24_Node000017_Node000019" class="edge">
<title>Node17&#45;&gt;Node19</title>
<g id="a_edge24_Node000017_Node000019"><a xlink:title=" ">
<path fill="none" stroke="#63b8ff" d="M643.88,-290.04C633.77,-280.64 621.22,-268.98 612.82,-261.17"/>
<polygon fill="#63b8ff" stroke="#63b8ff" points="641.64,-292.74 651.34,-296.98 646.4,-287.61 641.64,-292.74"/>
</a>
</g>
</g>
<!-- Node20 -->
<g id="Node000020" class="node">
<title>Node20</title>
<g id="a_Node000020"><a xlink:href="RetrievalStrategy3_8hpp.html" target="_top" xlink:title=" ">
<polygon fill="white" stroke="#666666" points="582,-206 405,-206 405,-187 582,-187 582,-206"/>
<text text-anchor="middle" x="493.5" y="-194" font-family="Helvetica,sans-Serif" font-size="10.00">netspeak/RetrievalStrategy3.hpp</text>
</a>
</g>
</g>
<!-- Node17&#45;&gt;Node20 -->
<g id="edge28_Node000017_Node000020" class="edge">
<title>Node17&#45;&gt;Node20</title>
<g id="a_edge28_Node000017_Node000020"><a xlink:title=" ">
<path fill="none" stroke="#63b8ff" d="M567.53,-294.15C546.08,-287.52 525.02,-277.15 509.5,-261 495.01,-245.92 493.08,-219.71 493.15,-206.16"/>
<polygon fill="#63b8ff" stroke="#63b8ff" points="566.83,-297.59 577.4,-296.95 568.73,-290.86 566.83,-297.59"/>
</a>
</g>
</g>
<!-- Node21 -->
<g id="Node000021" class="node">
<title>Node21</title>
<g id="a_Node000021"><a xlink:href="NormQuery_8cpp.html" target="_top" xlink:title=" ">
<polygon fill="white" stroke="#666666" points="325,-261 152,-261 152,-242 325,-242 325,-261"/>
<text text-anchor="middle" x="238.5" y="-249" font-family="Helvetica,sans-Serif" font-size="10.00">netspeak/model/NormQuery.cpp</text>
</a>
</g>
</g>
<!-- Node17&#45;&gt;Node21 -->
<g id="edge29_Node000017_Node000021" class="edge">
<title>Node17&#45;&gt;Node21</title>
<g id="a_edge29_Node000017_Node000021"><a xlink:title=" ">
<path fill="none" stroke="#63b8ff" d="M582.78,-295.74C503.58,-285.79 381.96,-270.52 306.48,-261.04"/>
<polygon fill="#63b8ff" stroke="#63b8ff" points="582.34,-299.21 592.7,-296.98 583.21,-292.27 582.34,-299.21"/>
</a>
</g>
</g>
<!-- Node22 -->
<g id="Node000022" class="node">
<title>Node22</title>
<g id="a_Node000022"><a xlink:href="RawResult_8hpp.html" target="_top" xlink:title=" ">
<polygon fill="white" stroke="#666666" points="916,-261 745,-261 745,-242 916,-242 916,-261"/>
<text text-anchor="middle" x="830.5" y="-249" font-family="Helvetica,sans-Serif" font-size="10.00">netspeak/model/RawResult.hpp</text>
</a>
</g>
</g>
<!-- Node17&#45;&gt;Node22 -->
<g id="edge30_Node000017_Node000022" class="edge">
<title>Node17&#45;&gt;Node22</title>
<g id="a_edge30_Node000017_Node000022"><a xlink:title=" ">
<path fill="none" stroke="#63b8ff" d="M697.62,-293.93C729.37,-284.03 774.35,-270.01 802.97,-261.08"/>
<polygon fill="#63b8ff" stroke="#63b8ff" points="696.32,-290.67 687.81,-296.98 698.4,-297.35 696.32,-290.67"/>
</a>
</g>
</g>
<!-- Node24 -->
<g id="Node000024" class="node">
<title>Node24</title>
<g id="a_Node000024"><a xlink:href="SearchResult_8hpp.html" target="_top" xlink:title=" ">
<polygon fill="white" stroke="#666666" points="349,-206 166,-206 166,-187 349,-187 349,-206"/>
<text text-anchor="middle" x="257.5" y="-194" font-family="Helvetica,sans-Serif" font-size="10.00">netspeak/model/SearchResult.hpp</text>
</a>
</g>
</g>
<!-- Node17&#45;&gt;Node24 -->
<g id="edge33_Node000017_Node000024" class="edge">
<title>Node17&#45;&gt;Node24</title>
<g id="a_edge33_Node000017_Node000024"><a xlink:title=" ">
<path fill="none" stroke="#63b8ff" d="M563.11,-298.2C507.65,-292.07 437.47,-280.96 377.5,-261 356.03,-253.85 299.27,-221.71 272.22,-206.08"/>
<polygon fill="#63b8ff" stroke="#63b8ff" points="562.98,-301.7 573.29,-299.29 563.72,-294.74 562.98,-301.7"/>
</a>
</g>
</g>
<!-- Node17&#45;&gt;Node25 -->
<g id="edge35_Node000017_Node000025" class="edge">
<title>Node17&#45;&gt;Node25</title>
<g id="a_edge35_Node000017_Node000025"><a xlink:title=" ">
<path fill="none" stroke="#63b8ff" d="M757.63,-296.16C861.03,-286.21 1023.21,-270.61 1123.13,-261"/>
<polygon fill="#63b8ff" stroke="#63b8ff" points="757.12,-292.69 747.5,-297.13 757.79,-299.66 757.12,-292.69"/>
</a>
</g>
</g>
<!-- Node18&#45;&gt;Node4 -->
<g id="edge23_Node000018_Node000004" class="edge">
<title>Node18&#45;&gt;Node4</title>
<g id="a_edge23_Node000018_Node000004"><a xlink:title=" ">
<path fill="none" stroke="#63b8ff" d="M656.5,-181.97C639.31,-172.28 616.69,-159.52 601.88,-151.17"/>
<polygon fill="#63b8ff" stroke="#63b8ff" points="654.97,-185.12 665.4,-186.98 658.41,-179.02 654.97,-185.12"/>
</a>
</g>
</g>
<!-- Node19&#45;&gt;Node18 -->
<g id="edge25_Node000019_Node000018" class="edge">
<title>Node19&#45;&gt;Node18</title>
<g id="a_edge25_Node000019_Node000018"><a xlink:title=" ">
<path fill="none" stroke="#63b8ff" d="M624.35,-236.15C638.26,-226.57 656.11,-214.29 667.9,-206.17"/>
<polygon fill="#63b8ff" stroke="#63b8ff" points="622.12,-233.43 615.87,-241.98 626.09,-239.2 622.12,-233.43"/>
</a>
</g>
</g>
<!-- Node19&#45;&gt;Node20 -->
<g id="edge26_Node000019_Node000020" class="edge">
<title>Node19&#45;&gt;Node20</title>
<g id="a_edge26_Node000019_Node000020"><a xlink:title=" ">
<path fill="none" stroke="#63b8ff" d="M576.8,-237.63C556.53,-227.87 529.23,-214.71 511.49,-206.17"/>
<polygon fill="#63b8ff" stroke="#63b8ff" points="575.3,-240.8 585.83,-241.98 578.34,-234.49 575.3,-240.8"/>
</a>
</g>
</g>
<!-- Node20&#45;&gt;Node4 -->
<g id="edge27_Node000020_Node000004" class="edge">
<title>Node20&#45;&gt;Node4</title>
<g id="a_edge27_Node000020_Node000004"><a xlink:title=" ">
<path fill="none" stroke="#63b8ff" d="M517.25,-181.97C534.25,-172.28 556.63,-159.52 571.29,-151.17"/>
<polygon fill="#63b8ff" stroke="#63b8ff" points="515.4,-178.99 508.44,-186.98 518.86,-185.07 515.4,-178.99"/>
</a>
</g>
</g>
<!-- Node22&#45;&gt;Node4 -->
<g id="edge31_Node000022_Node000004" class="edge">
<title>Node22&#45;&gt;Node4</title>
<g id="a_edge31_Node000022_Node000004"><a xlink:title=" ">
<path fill="none" stroke="#63b8ff" d="M896.77,-239.88C939.15,-230.31 982.1,-213.59 958.5,-187 938.59,-164.56 754.15,-151.35 652.69,-145.72"/>
<polygon fill="#63b8ff" stroke="#63b8ff" points="895.95,-236.48 886.91,-241.99 897.42,-243.32 895.95,-236.48"/>
</a>
</g>
</g>
<!-- Node23 -->
<g id="Node000023" class="node">
<title>Node23</title>
<g id="a_Node000023"><a xlink:href="RawResult_8cpp.html" target="_top" xlink:title=" ">
<polygon fill="white" stroke="#666666" points="949.5,-206 779.5,-206 779.5,-187 949.5,-187 949.5,-206"/>
<text text-anchor="middle" x="864.5" y="-194" font-family="Helvetica,sans-Serif" font-size="10.00">netspeak/model/RawResult.cpp</text>
</a>
</g>
</g>
<!-- Node22&#45;&gt;Node23 -->
<g id="edge32_Node000022_Node000023" class="edge">
<title>Node22&#45;&gt;Node23</title>
<g id="a_edge32_Node000022_Node000023"><a xlink:title=" ">
<path fill="none" stroke="#63b8ff" d="M841.66,-233.1C847.47,-224.04 854.32,-213.37 858.99,-206.09"/>
<polygon fill="#63b8ff" stroke="#63b8ff" points="838.57,-231.44 836.11,-241.75 844.46,-235.22 838.57,-231.44"/>
</a>
</g>
</g>
<!-- Node24&#45;&gt;Node4 -->
<g id="edge34_Node000024_Node000004" class="edge">
<title>Node24&#45;&gt;Node4</title>
<g id="a_edge34_Node000024_Node000004"><a xlink:title=" ">
<path fill="none" stroke="#63b8ff" d="M320.37,-185.37C382.15,-175.42 475.37,-160.4 533.5,-151.04"/>
<polygon fill="#63b8ff" stroke="#63b8ff" points="319.68,-181.94 310.36,-186.98 320.79,-188.85 319.68,-181.94"/>
</a>
</g>
</g>
<!-- Node25&#45;&gt;Node16 -->
<g id="edge36_Node000025_Node000016" class="edge">
<title>Node25&#45;&gt;Node16</title>
<g id="a_edge36_Node000025_Node000016"><a xlink:title=" ">
<path fill="none" stroke="#63b8ff" d="M1188.93,-236.42C1173.5,-226.81 1153.55,-214.37 1140.41,-206.17"/>
<polygon fill="#63b8ff" stroke="#63b8ff" points="1187.51,-239.66 1197.84,-241.98 1191.21,-233.72 1187.51,-239.66"/>
</a>
</g>
</g>
<!-- Node26 -->
<g id="Node000026" class="node">
<title>Node26</title>
<g id="a_Node000026"><a xlink:href="SimpleQuery_8cpp.html" target="_top" xlink:title=" ">
<polygon fill="white" stroke="#666666" points="1408.5,-206 1228.5,-206 1228.5,-187 1408.5,-187 1408.5,-206"/>
<text text-anchor="middle" x="1318.5" y="-194" font-family="Helvetica,sans-Serif" font-size="10.00">netspeak/model/SimpleQuery.cpp</text>
</a>
</g>
</g>
<!-- Node25&#45;&gt;Node26 -->
<g id="edge37_Node000025_Node000026" class="edge">
<title>Node25&#45;&gt;Node26</title>
<g id="a_edge37_Node000025_Node000026"><a xlink:title=" ">
<path fill="none" stroke="#63b8ff" d="M1237.74,-237.5C1257.43,-227.75 1283.82,-214.68 1301,-206.17"/>
<polygon fill="#63b8ff" stroke="#63b8ff" points="1236.1,-234.41 1228.69,-241.98 1239.21,-240.68 1236.1,-234.41"/>
</a>
</g>
</g>
</g>
</svg>
