<?xml version="1.0" encoding="UTF-8" standalone="no"?>
<!DOCTYPE svg PUBLIC "-//W3C//DTD SVG 1.1//EN"
 "http://www.w3.org/Graphics/SVG/1.1/DTD/svg11.dtd">
<!-- Generated by graphviz version 2.43.0 (0)
 -->
<!-- Title: antlr4/QueryErrorHandler.hpp Pages: 1 -->
<svg width="280pt" height="82pt"
 viewBox="0.00 0.00 279.50 82.00" xmlns="http://www.w3.org/2000/svg" xmlns:xlink="http://www.w3.org/1999/xlink">
<g id="graph0" class="graph" transform="scale(1 1) rotate(0) translate(4 78)">
<title>antlr4/QueryErrorHandler.hpp</title>
<!-- Node1 -->
<g id="Node000001" class="node">
<title>Node1</title>
<g id="a_Node000001"><a xlink:title=" ">
<polygon fill="#999999" stroke="#666666" points="230.5,-74 71.5,-74 71.5,-55 230.5,-55 230.5,-74"/>
<text text-anchor="middle" x="151" y="-62" font-family="Helvetica,sans-Serif" font-size="10.00">antlr4/QueryErrorHandler.hpp</text>
</a>
</g>
</g>
<!-- Node2 -->
<g id="Node000002" class="node">
<title>Node2</title>
<g id="a_Node000002"><a xlink:href="QueryErrorHandler_8cpp.html" target="_top" xlink:title=" ">
<polygon fill="white" stroke="#666666" points="158,-19 0,-19 0,0 158,0 158,-19"/>
<text text-anchor="middle" x="79" y="-7" font-family="Helvetica,sans-Serif" font-size="10.00">antlr4/QueryErrorHandler.cpp</text>
</a>
</g>
</g>
<!-- Node1&#45;&gt;Node2 -->
<g id="edge1_Node000001_Node000002" class="edge">
<title>Node1&#45;&gt;Node2</title>
<g id="a_edge1_Node000001_Node000002"><a xlink:title=" ">
<path fill="none" stroke="#63b8ff" d="M131.13,-48.88C118.18,-39.34 101.7,-27.21 90.78,-19.17"/>
<polygon fill="#63b8ff" stroke="#63b8ff" points="129.3,-51.88 139.43,-54.98 133.45,-46.24 129.3,-51.88"/>
</a>
</g>
</g>
<!-- Node3 -->
<g id="Node000003" class="node">
<title>Node3</title>
<g id="a_Node000003"><a xlink:href="parse_8cpp.html" target="_top" xlink:title=" ">
<polygon fill="white" stroke="#666666" points="271.5,-19 176.5,-19 176.5,0 271.5,0 271.5,-19"/>
<text text-anchor="middle" x="224" y="-7" font-family="Helvetica,sans-Serif" font-size="10.00">antlr4/parse.cpp</text>
</a>
</g>
</g>
<!-- Node1&#45;&gt;Node3 -->
<g id="edge2_Node000001_Node000003" class="edge">
<title>Node1&#45;&gt;Node3</title>
<g id="a_edge2_Node000001_Node000003"><a xlink:title=" ">
<path fill="none" stroke="#63b8ff" d="M171.14,-48.88C184.28,-39.34 200.98,-27.21 212.06,-19.17"/>
<polygon fill="#63b8ff" stroke="#63b8ff" points="168.76,-46.28 162.73,-54.98 172.88,-51.94 168.76,-46.28"/>
</a>
</g>
</g>
</g>
</svg>
