<?xml version="1.0" encoding="UTF-8" standalone="no"?>
<!DOCTYPE svg PUBLIC "-//W3C//DTD SVG 1.1//EN"
 "http://www.w3.org/Graphics/SVG/1.1/DTD/svg11.dtd">
<!-- Generated by graphviz version 2.43.0 (0)
 -->
<!-- Title: netspeak/invertedindex/RawIndexer.hpp Pages: 1 -->
<svg width="727pt" height="258pt"
 viewBox="0.00 0.00 726.50 258.00" xmlns="http://www.w3.org/2000/svg" xmlns:xlink="http://www.w3.org/1999/xlink">
<g id="graph0" class="graph" transform="scale(1 1) rotate(0) translate(4 254)">
<title>netspeak/invertedindex/RawIndexer.hpp</title>
<!-- Node1 -->
<g id="Node000001" class="node">
<title>Node1</title>
<g id="a_Node000001"><a xlink:title=" ">
<polygon fill="#999999" stroke="#666666" points="412.5,-250 280.5,-250 280.5,-220 412.5,-220 412.5,-250"/>
<text text-anchor="start" x="288.5" y="-238" font-family="Helvetica,sans-Serif" font-size="10.00">netspeak/invertedindex</text>
<text text-anchor="middle" x="346.5" y="-227" font-family="Helvetica,sans-Serif" font-size="10.00">/RawIndexer.hpp</text>
</a>
</g>
</g>
<!-- Node2 -->
<g id="Node000002" class="node">
<title>Node2</title>
<g id="a_Node000002"><a xlink:title=" ">
<polygon fill="#e0e0e0" stroke="#999999" points="318,-184 253,-184 253,-165 318,-165 318,-184"/>
<text text-anchor="middle" x="285.5" y="-172" font-family="Helvetica,sans-Serif" font-size="10.00">inttypes.h</text>
</a>
</g>
</g>
<!-- Node1&#45;&gt;Node2 -->
<g id="edge1_Node000001_Node000002" class="edge">
<title>Node1&#45;&gt;Node2</title>
<g id="a_edge1_Node000001_Node000002"><a xlink:title=" ">
<path fill="none" stroke="#63b8ff" d="M331.73,-219.84C322.79,-211.26 311.36,-200.3 302.1,-191.42"/>
<polygon fill="#63b8ff" stroke="#63b8ff" points="304.28,-188.66 294.64,-184.27 299.44,-193.71 304.28,-188.66"/>
</a>
</g>
</g>
<!-- Node3 -->
<g id="Node000003" class="node">
<title>Node3</title>
<g id="a_Node000003"><a xlink:title=" ">
<polygon fill="#e0e0e0" stroke="#999999" points="489.5,-19 445.5,-19 445.5,0 489.5,0 489.5,-19"/>
<text text-anchor="middle" x="467.5" y="-7" font-family="Helvetica,sans-Serif" font-size="10.00">string</text>
</a>
</g>
</g>
<!-- Node1&#45;&gt;Node3 -->
<g id="edge2_Node000001_Node000003" class="edge">
<title>Node1&#45;&gt;Node3</title>
<g id="a_edge2_Node000001_Node000003"><a xlink:title=" ">
<path fill="none" stroke="#63b8ff" d="M345.84,-219.72C345.32,-195.69 346.88,-146.22 365.5,-110 384.36,-73.32 421.91,-42.22 445.81,-24.99"/>
<polygon fill="#63b8ff" stroke="#63b8ff" points="448.06,-27.68 454.23,-19.08 444.04,-21.95 448.06,-27.68"/>
</a>
</g>
</g>
<!-- Node4 -->
<g id="Node000004" class="node">
<title>Node4</title>
<g id="a_Node000004"><a xlink:href="invertedindex_2Properties_8hpp.html" target="_top" xlink:title=" ">
<polygon fill="white" stroke="#666666" points="504,-184 417,-184 417,-165 504,-165 504,-184"/>
<text text-anchor="middle" x="460.5" y="-172" font-family="Helvetica,sans-Serif" font-size="10.00">Properties.hpp</text>
</a>
</g>
</g>
<!-- Node1&#45;&gt;Node4 -->
<g id="edge3_Node000001_Node000004" class="edge">
<title>Node1&#45;&gt;Node4</title>
<g id="a_edge3_Node000001_Node000004"><a xlink:title=" ">
<path fill="none" stroke="#63b8ff" d="M373.81,-219.99C392.15,-210.58 416.18,-198.24 434.29,-188.95"/>
<polygon fill="#63b8ff" stroke="#63b8ff" points="436.37,-191.82 443.66,-184.14 433.17,-185.59 436.37,-191.82"/>
</a>
</g>
</g>
<!-- Node4&#45;&gt;Node3 -->
<g id="edge6_Node000004_Node000003" class="edge">
<title>Node4&#45;&gt;Node3</title>
<g id="a_edge6_Node000004_Node000003"><a xlink:title=" ">
<path fill="none" stroke="#63b8ff" d="M460.88,-164.74C461.97,-139.31 465.16,-65.08 466.68,-29.69"/>
<polygon fill="#63b8ff" stroke="#63b8ff" points="470.19,-29.45 467.12,-19.31 463.2,-29.15 470.19,-29.45"/>
</a>
</g>
</g>
<!-- Node5 -->
<g id="Node000005" class="node">
<title>Node5</title>
<g id="a_Node000005"><a xlink:title=" ">
<polygon fill="#e0e0e0" stroke="#999999" points="718.5,-74 650.5,-74 650.5,-55 718.5,-55 718.5,-74"/>
<text text-anchor="middle" x="684.5" y="-62" font-family="Helvetica,sans-Serif" font-size="10.00">filesystem</text>
</a>
</g>
</g>
<!-- Node4&#45;&gt;Node5 -->
<g id="edge4_Node000004_Node000005" class="edge">
<title>Node4&#45;&gt;Node5</title>
<g id="a_edge4_Node000004_Node000005"><a xlink:title=" ">
<path fill="none" stroke="#63b8ff" d="M500.55,-164.99C529.85,-157.82 569.98,-145.98 602.5,-129 627.28,-116.06 652.16,-95.46 667.91,-81.25"/>
<polygon fill="#63b8ff" stroke="#63b8ff" points="670.68,-83.46 675.66,-74.1 665.93,-78.31 670.68,-83.46"/>
</a>
</g>
</g>
<!-- Node6 -->
<g id="Node000006" class="node">
<title>Node6</title>
<g id="a_Node000006"><a xlink:title=" ">
<polygon fill="#e0e0e0" stroke="#999999" points="432,-129 375,-129 375,-110 432,-110 432,-129"/>
<text text-anchor="middle" x="403.5" y="-117" font-family="Helvetica,sans-Serif" font-size="10.00">ostream</text>
</a>
</g>
</g>
<!-- Node4&#45;&gt;Node6 -->
<g id="edge5_Node000004_Node000006" class="edge">
<title>Node4&#45;&gt;Node6</title>
<g id="a_edge5_Node000004_Node000006"><a xlink:title=" ">
<path fill="none" stroke="#63b8ff" d="M451.34,-164.98C443,-157.23 430.47,-145.58 420.32,-136.14"/>
<polygon fill="#63b8ff" stroke="#63b8ff" points="422.53,-133.42 412.82,-129.17 417.76,-138.54 422.53,-133.42"/>
</a>
</g>
</g>
<!-- Node7 -->
<g id="Node000007" class="node">
<title>Node7</title>
<g id="a_Node000007"><a xlink:href="invertedindex_2Configuration_8hpp.html" target="_top" xlink:title=" ">
<polygon fill="white" stroke="#666666" points="593,-129 490,-129 490,-110 593,-110 593,-129"/>
<text text-anchor="middle" x="541.5" y="-117" font-family="Helvetica,sans-Serif" font-size="10.00">Configuration.hpp</text>
</a>
</g>
</g>
<!-- Node4&#45;&gt;Node7 -->
<g id="edge7_Node000004_Node000007" class="edge">
<title>Node4&#45;&gt;Node7</title>
<g id="a_edge7_Node000004_Node000007"><a xlink:title=" ">
<path fill="none" stroke="#63b8ff" d="M473.51,-164.98C485.96,-156.84 504.96,-144.41 519.71,-134.76"/>
<polygon fill="#63b8ff" stroke="#63b8ff" points="521.8,-137.57 528.25,-129.17 517.96,-131.72 521.8,-137.57"/>
</a>
</g>
</g>
<!-- Node7&#45;&gt;Node5 -->
<g id="edge9_Node000007_Node000005" class="edge">
<title>Node7&#45;&gt;Node5</title>
<g id="a_edge9_Node000007_Node000005"><a xlink:title=" ">
<path fill="none" stroke="#63b8ff" d="M564.48,-109.98C588,-101.27 624.79,-87.63 651.44,-77.75"/>
<polygon fill="#63b8ff" stroke="#63b8ff" points="652.95,-80.93 661.11,-74.17 650.51,-74.36 652.95,-80.93"/>
</a>
</g>
</g>
<!-- Node8 -->
<g id="Node000008" class="node">
<title>Node8</title>
<g id="a_Node000008"><a xlink:title=" ">
<polygon fill="#e0e0e0" stroke="#999999" points="607.5,-19 557.5,-19 557.5,0 607.5,0 607.5,-19"/>
<text text-anchor="middle" x="582.5" y="-7" font-family="Helvetica,sans-Serif" font-size="10.00">cstdint</text>
</a>
</g>
</g>
<!-- Node7&#45;&gt;Node8 -->
<g id="edge8_Node000007_Node000008" class="edge">
<title>Node7&#45;&gt;Node8</title>
<g id="a_edge8_Node000007_Node000008"><a xlink:title=" ">
<path fill="none" stroke="#63b8ff" d="M562.02,-110C576.52,-102.77 594.85,-90.86 603.5,-74 611.18,-59.04 603.45,-40.68 595.28,-27.56"/>
<polygon fill="#63b8ff" stroke="#63b8ff" points="598.01,-25.34 589.48,-19.05 592.22,-29.28 598.01,-25.34"/>
</a>
</g>
</g>
<!-- Node9 -->
<g id="Node000009" class="node">
<title>Node9</title>
<g id="a_Node000009"><a xlink:href="conversion_8hpp.html" target="_top" xlink:title=" ">
<polygon fill="white" stroke="#666666" points="312,-74 193,-74 193,-55 312,-55 312,-74"/>
<text text-anchor="middle" x="252.5" y="-62" font-family="Helvetica,sans-Serif" font-size="10.00">../util/conversion.hpp</text>
</a>
</g>
</g>
<!-- Node7&#45;&gt;Node9 -->
<g id="edge10_Node000007_Node000009" class="edge">
<title>Node7&#45;&gt;Node9</title>
<g id="a_edge10_Node000007_Node000009"><a xlink:title=" ">
<path fill="none" stroke="#63b8ff" d="M495.07,-109.98C444.55,-100.72 363.76,-85.9 309.45,-75.94"/>
<polygon fill="#63b8ff" stroke="#63b8ff" points="309.76,-72.44 299.3,-74.08 308.5,-79.33 309.76,-72.44"/>
</a>
</g>
</g>
<!-- Node16 -->
<g id="Node000016" class="node">
<title>Node16</title>
<g id="a_Node000016"><a xlink:href="memory_8hpp.html" target="_top" xlink:title=" ">
<polygon fill="white" stroke="#666666" points="594,-74 489,-74 489,-55 594,-55 594,-74"/>
<text text-anchor="middle" x="541.5" y="-62" font-family="Helvetica,sans-Serif" font-size="10.00">../util/memory.hpp</text>
</a>
</g>
</g>
<!-- Node7&#45;&gt;Node16 -->
<g id="edge18_Node000007_Node000016" class="edge">
<title>Node7&#45;&gt;Node16</title>
<g id="a_edge18_Node000007_Node000016"><a xlink:title=" ">
<path fill="none" stroke="#63b8ff" d="M541.5,-109.75C541.5,-102.8 541.5,-92.85 541.5,-84.13"/>
<polygon fill="#63b8ff" stroke="#63b8ff" points="545,-84.09 541.5,-74.09 538,-84.09 545,-84.09"/>
</a>
</g>
</g>
<!-- Node9&#45;&gt;Node3 -->
<g id="edge17_Node000009_Node000003" class="edge">
<title>Node9&#45;&gt;Node3</title>
<g id="a_edge17_Node000009_Node000003"><a xlink:title=" ">
<path fill="none" stroke="#63b8ff" d="M289.24,-54.96C324.4,-46.71 379.18,-33.66 435.4,-19.23"/>
<polygon fill="#63b8ff" stroke="#63b8ff" points="436.36,-22.59 445.17,-16.71 434.61,-15.82 436.36,-22.59"/>
</a>
</g>
</g>
<!-- Node10 -->
<g id="Node000010" class="node">
<title>Node10</title>
<g id="a_Node000010"><a xlink:title=" ">
<polygon fill="#e0e0e0" stroke="#999999" points="427.5,-19 369.5,-19 369.5,0 427.5,0 427.5,-19"/>
<text text-anchor="middle" x="398.5" y="-7" font-family="Helvetica,sans-Serif" font-size="10.00">cxxabi.h</text>
</a>
</g>
</g>
<!-- Node9&#45;&gt;Node10 -->
<g id="edge11_Node000009_Node000010" class="edge">
<title>Node9&#45;&gt;Node10</title>
<g id="a_edge11_Node000009_Node000010"><a xlink:title=" ">
<path fill="none" stroke="#63b8ff" d="M275.96,-54.98C300.08,-46.23 337.87,-32.51 365.1,-22.62"/>
<polygon fill="#63b8ff" stroke="#63b8ff" points="366.41,-25.87 374.62,-19.17 364.02,-19.29 366.41,-25.87"/>
</a>
</g>
</g>
<!-- Node11 -->
<g id="Node000011" class="node">
<title>Node11</title>
<g id="a_Node000011"><a xlink:title=" ">
<polygon fill="#e0e0e0" stroke="#999999" points="49,-19 0,-19 0,0 49,0 49,-19"/>
<text text-anchor="middle" x="24.5" y="-7" font-family="Helvetica,sans-Serif" font-size="10.00">cstdlib</text>
</a>
</g>
</g>
<!-- Node9&#45;&gt;Node11 -->
<g id="edge12_Node000009_Node000011" class="edge">
<title>Node9&#45;&gt;Node11</title>
<g id="a_edge12_Node000009_Node000011"><a xlink:title=" ">
<path fill="none" stroke="#63b8ff" d="M214.17,-54.94C177.06,-46.6 118.97,-33.41 59.02,-19.09"/>
<polygon fill="#63b8ff" stroke="#63b8ff" points="59.54,-15.61 49,-16.69 57.91,-22.42 59.54,-15.61"/>
</a>
</g>
</g>
<!-- Node12 -->
<g id="Node000012" class="node">
<title>Node12</title>
<g id="a_Node000012"><a xlink:title=" ">
<polygon fill="#e0e0e0" stroke="#999999" points="117.5,-19 67.5,-19 67.5,0 117.5,0 117.5,-19"/>
<text text-anchor="middle" x="92.5" y="-7" font-family="Helvetica,sans-Serif" font-size="10.00">format</text>
</a>
</g>
</g>
<!-- Node9&#45;&gt;Node12 -->
<g id="edge13_Node000009_Node000012" class="edge">
<title>Node9&#45;&gt;Node12</title>
<g id="a_edge13_Node000009_Node000012"><a xlink:title=" ">
<path fill="none" stroke="#63b8ff" d="M226.79,-54.98C199.81,-46.05 157.22,-31.94 127.25,-22.01"/>
<polygon fill="#63b8ff" stroke="#63b8ff" points="128.21,-18.64 117.62,-18.82 126.01,-25.29 128.21,-18.64"/>
</a>
</g>
</g>
<!-- Node13 -->
<g id="Node000013" class="node">
<title>Node13</title>
<g id="a_Node000013"><a xlink:title=" ">
<polygon fill="#e0e0e0" stroke="#999999" points="193.5,-19 135.5,-19 135.5,0 193.5,0 193.5,-19"/>
<text text-anchor="middle" x="164.5" y="-7" font-family="Helvetica,sans-Serif" font-size="10.00">memory</text>
</a>
</g>
</g>
<!-- Node9&#45;&gt;Node13 -->
<g id="edge14_Node000009_Node000013" class="edge">
<title>Node9&#45;&gt;Node13</title>
<g id="a_edge14_Node000009_Node000013"><a xlink:title=" ">
<path fill="none" stroke="#63b8ff" d="M238.36,-54.98C224.71,-46.77 203.81,-34.18 187.72,-24.49"/>
<polygon fill="#63b8ff" stroke="#63b8ff" points="189.27,-21.33 178.9,-19.17 185.66,-27.33 189.27,-21.33"/>
</a>
</g>
</g>
<!-- Node14 -->
<g id="Node000014" class="node">
<title>Node14</title>
<g id="a_Node000014"><a xlink:title=" ">
<polygon fill="#e0e0e0" stroke="#999999" points="267.5,-19 211.5,-19 211.5,0 267.5,0 267.5,-19"/>
<text text-anchor="middle" x="239.5" y="-7" font-family="Helvetica,sans-Serif" font-size="10.00">sstream</text>
</a>
</g>
</g>
<!-- Node9&#45;&gt;Node14 -->
<g id="edge15_Node000009_Node000014" class="edge">
<title>Node9&#45;&gt;Node14</title>
<g id="a_edge15_Node000009_Node000014"><a xlink:title=" ">
<path fill="none" stroke="#63b8ff" d="M250.35,-54.75C248.63,-47.72 246.15,-37.62 244,-28.84"/>
<polygon fill="#63b8ff" stroke="#63b8ff" points="247.39,-27.97 241.61,-19.09 240.59,-29.63 247.39,-27.97"/>
</a>
</g>
</g>
<!-- Node15 -->
<g id="Node000015" class="node">
<title>Node15</title>
<g id="a_Node000015"><a xlink:title=" ">
<polygon fill="#e0e0e0" stroke="#999999" points="351,-19 286,-19 286,0 351,0 351,-19"/>
<text text-anchor="middle" x="318.5" y="-7" font-family="Helvetica,sans-Serif" font-size="10.00">stdexcept</text>
</a>
</g>
</g>
<!-- Node9&#45;&gt;Node15 -->
<g id="edge16_Node000009_Node000015" class="edge">
<title>Node9&#45;&gt;Node15</title>
<g id="a_edge16_Node000009_Node000015"><a xlink:title=" ">
<path fill="none" stroke="#63b8ff" d="M263.1,-54.98C272.96,-47.07 287.85,-35.11 299.72,-25.58"/>
<polygon fill="#63b8ff" stroke="#63b8ff" points="302.1,-28.16 307.7,-19.17 297.71,-22.7 302.1,-28.16"/>
</a>
</g>
</g>
<!-- Node16&#45;&gt;Node3 -->
<g id="edge20_Node000016_Node000003" class="edge">
<title>Node16&#45;&gt;Node3</title>
<g id="a_edge20_Node000016_Node000003"><a xlink:title=" ">
<path fill="none" stroke="#63b8ff" d="M529.61,-54.98C518.35,-46.92 501.21,-34.65 487.79,-25.03"/>
<polygon fill="#63b8ff" stroke="#63b8ff" points="489.77,-22.15 479.61,-19.17 485.7,-27.84 489.77,-22.15"/>
</a>
</g>
</g>
<!-- Node16&#45;&gt;Node8 -->
<g id="edge19_Node000016_Node000008" class="edge">
<title>Node16&#45;&gt;Node8</title>
<g id="a_edge19_Node000016_Node000008"><a xlink:title=" ">
<path fill="none" stroke="#63b8ff" d="M548.27,-54.75C554.06,-47.26 562.56,-36.28 569.64,-27.13"/>
<polygon fill="#63b8ff" stroke="#63b8ff" points="572.51,-29.14 575.86,-19.09 566.97,-24.86 572.51,-29.14"/>
</a>
</g>
</g>
</g>
</svg>
