<?xml version="1.0" encoding="UTF-8" standalone="no"?>
<!DOCTYPE svg PUBLIC "-//W3C//DTD SVG 1.1//EN"
 "http://www.w3.org/Graphics/SVG/1.1/DTD/svg11.dtd">
<!-- Generated by graphviz version 2.43.0 (0)
 -->
<!-- Title: netspeak/model/RawPhraseResult.hpp Pages: 1 -->
<svg width="417pt" height="258pt"
 viewBox="0.00 0.00 416.50 258.00" xmlns="http://www.w3.org/2000/svg" xmlns:xlink="http://www.w3.org/1999/xlink">
<g id="graph0" class="graph" transform="scale(1 1) rotate(0) translate(4 254)">
<title>netspeak/model/RawPhraseResult.hpp</title>
<!-- Node1 -->
<g id="Node000001" class="node">
<title>Node1</title>
<g id="a_Node000001"><a xlink:title=" ">
<polygon fill="#999999" stroke="#666666" points="194,-250 42,-250 42,-220 194,-220 194,-250"/>
<text text-anchor="start" x="50" y="-238" font-family="Helvetica,sans-Serif" font-size="10.00">netspeak/model/RawPhrase</text>
<text text-anchor="middle" x="118" y="-227" font-family="Helvetica,sans-Serif" font-size="10.00">Result.hpp</text>
</a>
</g>
</g>
<!-- Node2 -->
<g id="Node000002" class="node">
<title>Node2</title>
<g id="a_Node000002"><a xlink:title=" ">
<polygon fill="#e0e0e0" stroke="#999999" points="44,-74 0,-74 0,-55 44,-55 44,-74"/>
<text text-anchor="middle" x="22" y="-62" font-family="Helvetica,sans-Serif" font-size="10.00">string</text>
</a>
</g>
</g>
<!-- Node1&#45;&gt;Node2 -->
<g id="edge1_Node000001_Node000002" class="edge">
<title>Node1&#45;&gt;Node2</title>
<g id="a_edge1_Node000001_Node000002"><a xlink:title=" ">
<path fill="none" stroke="#63b8ff" d="M77.9,-219.83C61.3,-211.89 43.5,-200.25 33,-184 13.25,-153.45 15.46,-108.88 18.77,-84.02"/>
<polygon fill="#63b8ff" stroke="#63b8ff" points="22.23,-84.52 20.29,-74.11 15.32,-83.46 22.23,-84.52"/>
</a>
</g>
</g>
<!-- Node3 -->
<g id="Node000003" class="node">
<title>Node3</title>
<g id="a_Node000003"><a xlink:title=" ">
<polygon fill="#e0e0e0" stroke="#999999" points="207.5,-74 160.5,-74 160.5,-55 207.5,-55 207.5,-74"/>
<text text-anchor="middle" x="184" y="-62" font-family="Helvetica,sans-Serif" font-size="10.00">vector</text>
</a>
</g>
</g>
<!-- Node1&#45;&gt;Node3 -->
<g id="edge2_Node000001_Node000003" class="edge">
<title>Node1&#45;&gt;Node3</title>
<g id="a_edge2_Node000001_Node000003"><a xlink:title=" ">
<path fill="none" stroke="#63b8ff" d="M159.84,-219.93C176.33,-212.09 193.56,-200.5 203,-184 221.28,-152.03 205.26,-107.72 193.59,-83.35"/>
<polygon fill="#63b8ff" stroke="#63b8ff" points="196.61,-81.56 188.97,-74.22 190.36,-84.72 196.61,-81.56"/>
</a>
</g>
</g>
<!-- Node4 -->
<g id="Node000004" class="node">
<title>Node4</title>
<g id="a_Node000004"><a xlink:href="Phrase_8hpp.html" target="_top" xlink:title=" ">
<polygon fill="white" stroke="#666666" points="194,-184 42,-184 42,-165 194,-165 194,-184"/>
<text text-anchor="middle" x="118" y="-172" font-family="Helvetica,sans-Serif" font-size="10.00">netspeak/model/Phrase.hpp</text>
</a>
</g>
</g>
<!-- Node1&#45;&gt;Node4 -->
<g id="edge3_Node000001_Node000004" class="edge">
<title>Node1&#45;&gt;Node4</title>
<g id="a_edge3_Node000001_Node000004"><a xlink:title=" ">
<path fill="none" stroke="#63b8ff" d="M118,-219.84C118,-212.21 118,-202.7 118,-194.45"/>
<polygon fill="#63b8ff" stroke="#63b8ff" points="121.5,-194.27 118,-184.27 114.5,-194.27 121.5,-194.27"/>
</a>
</g>
</g>
<!-- Node4&#45;&gt;Node2 -->
<g id="edge5_Node000004_Node000002" class="edge">
<title>Node4&#45;&gt;Node2</title>
<g id="a_edge5_Node000004_Node000002"><a xlink:title=" ">
<path fill="none" stroke="#63b8ff" d="M93.52,-164.97C76.49,-157.85 54.5,-146.08 41,-129 30.86,-116.16 26.12,-98 23.91,-84.38"/>
<polygon fill="#63b8ff" stroke="#63b8ff" points="27.35,-83.7 22.59,-74.23 20.41,-84.6 27.35,-83.7"/>
</a>
</g>
</g>
<!-- Node4&#45;&gt;Node3 -->
<g id="edge6_Node000004_Node000003" class="edge">
<title>Node4&#45;&gt;Node3</title>
<g id="a_edge6_Node000004_Node000003"><a xlink:title=" ">
<path fill="none" stroke="#63b8ff" d="M123.4,-164.66C134.33,-146.77 159.25,-106 173.49,-82.69"/>
<polygon fill="#63b8ff" stroke="#63b8ff" points="176.48,-84.52 178.71,-74.16 170.51,-80.87 176.48,-84.52"/>
</a>
</g>
</g>
<!-- Node5 -->
<g id="Node000005" class="node">
<title>Node5</title>
<g id="a_Node000005"><a xlink:title=" ">
<polygon fill="#e0e0e0" stroke="#999999" points="131.5,-74 74.5,-74 74.5,-55 131.5,-55 131.5,-74"/>
<text text-anchor="middle" x="103" y="-62" font-family="Helvetica,sans-Serif" font-size="10.00">ostream</text>
</a>
</g>
</g>
<!-- Node4&#45;&gt;Node5 -->
<g id="edge4_Node000004_Node000005" class="edge">
<title>Node4&#45;&gt;Node5</title>
<g id="a_edge4_Node000004_Node000005"><a xlink:title=" ">
<path fill="none" stroke="#63b8ff" d="M121.35,-164.76C125.61,-152.41 131.85,-129.22 127,-110 124.59,-100.44 119.67,-90.7 114.91,-82.78"/>
<polygon fill="#63b8ff" stroke="#63b8ff" points="117.72,-80.68 109.37,-74.16 111.83,-84.46 117.72,-80.68"/>
</a>
</g>
</g>
<!-- Node6 -->
<g id="Node000006" class="node">
<title>Node6</title>
<g id="a_Node000006"><a xlink:href="Words_8hpp.html" target="_top" xlink:title=" ">
<polygon fill="white" stroke="#666666" points="118,-129 50,-129 50,-110 118,-110 118,-129"/>
<text text-anchor="middle" x="84" y="-117" font-family="Helvetica,sans-Serif" font-size="10.00">Words.hpp</text>
</a>
</g>
</g>
<!-- Node4&#45;&gt;Node6 -->
<g id="edge7_Node000004_Node000006" class="edge">
<title>Node4&#45;&gt;Node6</title>
<g id="a_edge7_Node000004_Node000006"><a xlink:title=" ">
<path fill="none" stroke="#63b8ff" d="M112.39,-164.75C107.68,-157.42 100.83,-146.73 95.03,-137.7"/>
<polygon fill="#63b8ff" stroke="#63b8ff" points="97.86,-135.62 89.51,-129.09 91.96,-139.4 97.86,-135.62"/>
</a>
</g>
</g>
<!-- Node7 -->
<g id="Node000007" class="node">
<title>Node7</title>
<g id="a_Node000007"><a xlink:href="typedefs_8hpp.html" target="_top" xlink:title=" ">
<polygon fill="white" stroke="#666666" points="330,-129 250,-129 250,-110 330,-110 330,-129"/>
<text text-anchor="middle" x="290" y="-117" font-family="Helvetica,sans-Serif" font-size="10.00">typedefs.hpp</text>
</a>
</g>
</g>
<!-- Node4&#45;&gt;Node7 -->
<g id="edge11_Node000004_Node000007" class="edge">
<title>Node4&#45;&gt;Node7</title>
<g id="a_edge11_Node000004_Node000007"><a xlink:title=" ">
<path fill="none" stroke="#63b8ff" d="M145.63,-164.98C174.51,-156.09 220.01,-142.07 252.2,-132.15"/>
<polygon fill="#63b8ff" stroke="#63b8ff" points="253.62,-135.37 262.15,-129.08 251.56,-128.68 253.62,-135.37"/>
</a>
</g>
</g>
<!-- Node6&#45;&gt;Node2 -->
<g id="edge9_Node000006_Node000002" class="edge">
<title>Node6&#45;&gt;Node2</title>
<g id="a_edge9_Node000006_Node000002"><a xlink:title=" ">
<path fill="none" stroke="#63b8ff" d="M74.04,-109.98C64.87,-102.15 51.06,-90.34 39.97,-80.86"/>
<polygon fill="#63b8ff" stroke="#63b8ff" points="42.02,-78.01 32.14,-74.17 37.47,-83.33 42.02,-78.01"/>
</a>
</g>
</g>
<!-- Node6&#45;&gt;Node3 -->
<g id="edge10_Node000006_Node000003" class="edge">
<title>Node6&#45;&gt;Node3</title>
<g id="a_edge10_Node000006_Node000003"><a xlink:title=" ">
<path fill="none" stroke="#63b8ff" d="M100.07,-109.98C115.86,-101.61 140.22,-88.7 158.63,-78.95"/>
<polygon fill="#63b8ff" stroke="#63b8ff" points="160.44,-81.95 167.64,-74.17 157.17,-75.76 160.44,-81.95"/>
</a>
</g>
</g>
<!-- Node6&#45;&gt;Node5 -->
<g id="edge8_Node000006_Node000005" class="edge">
<title>Node6&#45;&gt;Node5</title>
<g id="a_edge8_Node000006_Node000005"><a xlink:title=" ">
<path fill="none" stroke="#63b8ff" d="M87.14,-109.75C89.68,-102.65 93.36,-92.4 96.53,-83.56"/>
<polygon fill="#63b8ff" stroke="#63b8ff" points="99.84,-84.68 99.92,-74.09 93.25,-82.32 99.84,-84.68"/>
</a>
</g>
</g>
<!-- Node8 -->
<g id="Node000008" class="node">
<title>Node8</title>
<g id="a_Node000008"><a xlink:title=" ">
<polygon fill="#e0e0e0" stroke="#999999" points="295,-74 245,-74 245,-55 295,-55 295,-74"/>
<text text-anchor="middle" x="270" y="-62" font-family="Helvetica,sans-Serif" font-size="10.00">cstdint</text>
</a>
</g>
</g>
<!-- Node7&#45;&gt;Node8 -->
<g id="edge12_Node000007_Node000008" class="edge">
<title>Node7&#45;&gt;Node8</title>
<g id="a_edge12_Node000007_Node000008"><a xlink:title=" ">
<path fill="none" stroke="#63b8ff" d="M286.7,-109.75C284.02,-102.65 280.15,-92.4 276.81,-83.56"/>
<polygon fill="#63b8ff" stroke="#63b8ff" points="280.05,-82.21 273.24,-74.09 273.5,-84.68 280.05,-82.21"/>
</a>
</g>
</g>
<!-- Node9 -->
<g id="Node000009" class="node">
<title>Node9</title>
<g id="a_Node000009"><a xlink:href="pair_8hpp.html" target="_top" xlink:title=" ">
<polygon fill="white" stroke="#666666" points="408.5,-74 313.5,-74 313.5,-55 408.5,-55 408.5,-74"/>
<text text-anchor="middle" x="361" y="-62" font-family="Helvetica,sans-Serif" font-size="10.00">../value/pair.hpp</text>
</a>
</g>
</g>
<!-- Node7&#45;&gt;Node9 -->
<g id="edge13_Node000007_Node000009" class="edge">
<title>Node7&#45;&gt;Node9</title>
<g id="a_edge13_Node000007_Node000009"><a xlink:title=" ">
<path fill="none" stroke="#63b8ff" d="M301.41,-109.98C312.11,-102 328.34,-89.88 341.16,-80.31"/>
<polygon fill="#63b8ff" stroke="#63b8ff" points="343.47,-82.96 349.39,-74.17 339.28,-77.35 343.47,-82.96"/>
</a>
</g>
</g>
<!-- Node10 -->
<g id="Node000010" class="node">
<title>Node10</title>
<g id="a_Node000010"><a xlink:title=" ">
<polygon fill="#e0e0e0" stroke="#999999" points="383.5,-19 338.5,-19 338.5,0 383.5,0 383.5,-19"/>
<text text-anchor="middle" x="361" y="-7" font-family="Helvetica,sans-Serif" font-size="10.00">utility</text>
</a>
</g>
</g>
<!-- Node9&#45;&gt;Node10 -->
<g id="edge14_Node000009_Node000010" class="edge">
<title>Node9&#45;&gt;Node10</title>
<g id="a_edge14_Node000009_Node000010"><a xlink:title=" ">
<path fill="none" stroke="#63b8ff" d="M361,-54.75C361,-47.8 361,-37.85 361,-29.13"/>
<polygon fill="#63b8ff" stroke="#63b8ff" points="364.5,-29.09 361,-19.09 357.5,-29.09 364.5,-29.09"/>
</a>
</g>
</g>
</g>
</svg>
