<?xml version="1.0" encoding="UTF-8" standalone="no"?>
<!DOCTYPE svg PUBLIC "-//W3C//DTD SVG 1.1//EN"
 "http://www.w3.org/Graphics/SVG/1.1/DTD/svg11.dtd">
<!-- Generated by graphviz version 2.43.0 (0)
 -->
<!-- Title: netspeak/invertedindex/RawPostlist.hpp Pages: 1 -->
<svg width="1511pt" height="335pt"
 viewBox="0.00 0.00 1510.97 335.00" xmlns="http://www.w3.org/2000/svg" xmlns:xlink="http://www.w3.org/1999/xlink">
<g id="graph0" class="graph" transform="scale(1 1) rotate(0) translate(4 331)">
<title>netspeak/invertedindex/RawPostlist.hpp</title>
<!-- Node1 -->
<g id="Node000001" class="node">
<title>Node1</title>
<g id="a_Node000001"><a xlink:title=" ">
<polygon fill="#999999" stroke="#666666" points="644,-327 512,-327 512,-297 644,-297 644,-327"/>
<text text-anchor="start" x="520" y="-315" font-family="Helvetica,sans-Serif" font-size="10.00">netspeak/invertedindex</text>
<text text-anchor="middle" x="578" y="-304" font-family="Helvetica,sans-Serif" font-size="10.00">/RawPostlist.hpp</text>
</a>
</g>
</g>
<!-- Node2 -->
<g id="Node000002" class="node">
<title>Node2</title>
<g id="a_Node000002"><a xlink:title=" ">
<polygon fill="#e0e0e0" stroke="#999999" points="152,-145.5 94,-145.5 94,-126.5 152,-126.5 152,-145.5"/>
<text text-anchor="middle" x="123" y="-133.5" font-family="Helvetica,sans-Serif" font-size="10.00">memory</text>
</a>
</g>
</g>
<!-- Node1&#45;&gt;Node2 -->
<g id="edge1_Node000001_Node000002" class="edge">
<title>Node1&#45;&gt;Node2</title>
<g id="a_edge1_Node000001_Node000002"><a xlink:title=" ">
<path fill="none" stroke="#63b8ff" d="M541.15,-296.91C454.02,-263.59 236.53,-180.41 154.75,-149.14"/>
<polygon fill="#63b8ff" stroke="#63b8ff" points="155.84,-145.81 145.25,-145.51 153.34,-152.35 155.84,-145.81"/>
</a>
</g>
</g>
<!-- Node3 -->
<g id="Node000003" class="node">
<title>Node3</title>
<g id="a_Node000003"><a xlink:href="Iterator_8hpp.html" target="_top" xlink:title=" ">
<polygon fill="white" stroke="#666666" points="973.5,-261 900.5,-261 900.5,-242 973.5,-242 973.5,-261"/>
<text text-anchor="middle" x="937" y="-249" font-family="Helvetica,sans-Serif" font-size="10.00">Iterator.hpp</text>
</a>
</g>
</g>
<!-- Node1&#45;&gt;Node3 -->
<g id="edge2_Node000001_Node000003" class="edge">
<title>Node1&#45;&gt;Node3</title>
<g id="a_edge2_Node000001_Node000003"><a xlink:title=" ">
<path fill="none" stroke="#63b8ff" d="M644.26,-300.2C715.66,-288.57 827.44,-270.35 890.2,-260.13"/>
<polygon fill="#63b8ff" stroke="#63b8ff" points="890.91,-263.56 900.21,-258.49 889.78,-256.65 890.91,-263.56"/>
</a>
</g>
</g>
<!-- Node4 -->
<g id="Node000004" class="node">
<title>Node4</title>
<g id="a_Node000004"><a xlink:title=" ">
<polygon fill="#e0e0e0" stroke="#999999" points="890,-206 834,-206 834,-187 890,-187 890,-206"/>
<text text-anchor="middle" x="862" y="-194" font-family="Helvetica,sans-Serif" font-size="10.00">numeric</text>
</a>
</g>
</g>
<!-- Node3&#45;&gt;Node4 -->
<g id="edge3_Node000003_Node000004" class="edge">
<title>Node3&#45;&gt;Node4</title>
<g id="a_edge3_Node000003_Node000004"><a xlink:title=" ">
<path fill="none" stroke="#63b8ff" d="M924.95,-241.98C913.54,-233.92 896.17,-221.65 882.57,-212.03"/>
<polygon fill="#63b8ff" stroke="#63b8ff" points="884.46,-209.08 874.27,-206.17 880.42,-214.8 884.46,-209.08"/>
</a>
</g>
</g>
<!-- Node5 -->
<g id="Node000005" class="node">
<title>Node5</title>
<g id="a_Node000005"><a xlink:title=" ">
<polygon fill="#e0e0e0" stroke="#999999" points="965.5,-206 908.5,-206 908.5,-187 965.5,-187 965.5,-206"/>
<text text-anchor="middle" x="937" y="-194" font-family="Helvetica,sans-Serif" font-size="10.00">ostream</text>
</a>
</g>
</g>
<!-- Node3&#45;&gt;Node5 -->
<g id="edge4_Node000003_Node000005" class="edge">
<title>Node3&#45;&gt;Node5</title>
<g id="a_edge4_Node000003_Node000005"><a xlink:title=" ">
<path fill="none" stroke="#63b8ff" d="M937,-241.75C937,-234.8 937,-224.85 937,-216.13"/>
<polygon fill="#63b8ff" stroke="#63b8ff" points="940.5,-216.09 937,-206.09 933.5,-216.09 940.5,-216.09"/>
</a>
</g>
</g>
<!-- Node6 -->
<g id="Node000006" class="node">
<title>Node6</title>
<g id="a_Node000006"><a xlink:title=" ">
<polygon fill="#e0e0e0" stroke="#999999" points="1030.5,-206 983.5,-206 983.5,-187 1030.5,-187 1030.5,-206"/>
<text text-anchor="middle" x="1007" y="-194" font-family="Helvetica,sans-Serif" font-size="10.00">vector</text>
</a>
</g>
</g>
<!-- Node3&#45;&gt;Node6 -->
<g id="edge5_Node000003_Node000006" class="edge">
<title>Node3&#45;&gt;Node6</title>
<g id="a_edge5_Node000003_Node000006"><a xlink:title=" ">
<path fill="none" stroke="#63b8ff" d="M948.25,-241.98C958.8,-234 974.8,-221.88 987.44,-212.31"/>
<polygon fill="#63b8ff" stroke="#63b8ff" points="989.69,-215 995.55,-206.17 985.46,-209.42 989.69,-215"/>
</a>
</g>
</g>
<!-- Node7 -->
<g id="Node000007" class="node">
<title>Node7</title>
<g id="a_Node000007"><a xlink:title=" ">
<polygon fill="#e0e0e0" stroke="#999999" points="1143.5,-206 1048.5,-206 1048.5,-187 1143.5,-187 1143.5,-206"/>
<text text-anchor="middle" x="1096" y="-194" font-family="Helvetica,sans-Serif" font-size="10.00">boost/utility.hpp</text>
</a>
</g>
</g>
<!-- Node3&#45;&gt;Node7 -->
<g id="edge6_Node000003_Node000007" class="edge">
<title>Node3&#45;&gt;Node7</title>
<g id="a_edge6_Node000003_Node000007"><a xlink:title=" ">
<path fill="none" stroke="#63b8ff" d="M962.55,-241.98C989.12,-233.13 1030.94,-219.19 1060.67,-209.28"/>
<polygon fill="#63b8ff" stroke="#63b8ff" points="1061.87,-212.56 1070.25,-206.08 1059.66,-205.92 1061.87,-212.56"/>
</a>
</g>
</g>
<!-- Node8 -->
<g id="Node000008" class="node">
<title>Node8</title>
<g id="a_Node000008"><a xlink:href="systemio_8hpp.html" target="_top" xlink:title=" ">
<polygon fill="white" stroke="#666666" points="1438,-145.5 1328,-145.5 1328,-126.5 1438,-126.5 1438,-145.5"/>
<text text-anchor="middle" x="1383" y="-133.5" font-family="Helvetica,sans-Serif" font-size="10.00">../util/systemio.hpp</text>
</a>
</g>
</g>
<!-- Node3&#45;&gt;Node8 -->
<g id="edge7_Node000003_Node000008" class="edge">
<title>Node3&#45;&gt;Node8</title>
<g id="a_edge7_Node000003_Node000008"><a xlink:title=" ">
<path fill="none" stroke="#63b8ff" d="M973.53,-243.99C1016.66,-236.08 1090.45,-221.79 1153,-206 1222.71,-188.4 1302.87,-163.2 1347.77,-148.63"/>
<polygon fill="#63b8ff" stroke="#63b8ff" points="1348.91,-151.94 1357.34,-145.51 1346.74,-145.28 1348.91,-151.94"/>
</a>
</g>
</g>
<!-- Node17 -->
<g id="Node000017" class="node">
<title>Node17</title>
<g id="a_Node000017"><a xlink:href="ByteBuffer_8hpp.html" target="_top" xlink:title=" ">
<polygon fill="white" stroke="#666666" points="816.5,-206 727.5,-206 727.5,-187 816.5,-187 816.5,-206"/>
<text text-anchor="middle" x="772" y="-194" font-family="Helvetica,sans-Serif" font-size="10.00">ByteBuffer.hpp</text>
</a>
</g>
</g>
<!-- Node3&#45;&gt;Node17 -->
<g id="edge18_Node000003_Node000017" class="edge">
<title>Node3&#45;&gt;Node17</title>
<g id="a_edge18_Node000003_Node000017"><a xlink:title=" ">
<path fill="none" stroke="#63b8ff" d="M910.49,-241.98C882.79,-233.09 839.14,-219.07 808.26,-209.15"/>
<polygon fill="#63b8ff" stroke="#63b8ff" points="809.31,-205.81 798.72,-206.08 807.17,-212.47 809.31,-205.81"/>
</a>
</g>
</g>
<!-- Node9 -->
<g id="Node000009" class="node">
<title>Node9</title>
<g id="a_Node000009"><a xlink:title=" ">
<polygon fill="#e0e0e0" stroke="#999999" points="1388,-79.5 1332,-79.5 1332,-60.5 1388,-60.5 1388,-79.5"/>
<text text-anchor="middle" x="1360" y="-67.5" font-family="Helvetica,sans-Serif" font-size="10.00">assert.h</text>
</a>
</g>
</g>
<!-- Node8&#45;&gt;Node9 -->
<g id="edge8_Node000008_Node000009" class="edge">
<title>Node8&#45;&gt;Node9</title>
<g id="a_edge8_Node000008_Node000009"><a xlink:title=" ">
<path fill="none" stroke="#63b8ff" d="M1379.9,-126.37C1376.52,-116.97 1371.02,-101.67 1366.66,-89.53"/>
<polygon fill="#63b8ff" stroke="#63b8ff" points="1369.88,-88.13 1363.2,-79.91 1363.29,-90.5 1369.88,-88.13"/>
</a>
</g>
</g>
<!-- Node10 -->
<g id="Node000010" class="node">
<title>Node10</title>
<g id="a_Node000010"><a xlink:title=" ">
<polygon fill="#e0e0e0" stroke="#999999" points="1456,-79.5 1406,-79.5 1406,-60.5 1456,-60.5 1456,-79.5"/>
<text text-anchor="middle" x="1431" y="-67.5" font-family="Helvetica,sans-Serif" font-size="10.00">climits</text>
</a>
</g>
</g>
<!-- Node8&#45;&gt;Node10 -->
<g id="edge9_Node000008_Node000010" class="edge">
<title>Node8&#45;&gt;Node10</title>
<g id="a_edge9_Node000008_Node000010"><a xlink:title=" ">
<path fill="none" stroke="#63b8ff" d="M1389.47,-126.37C1396.8,-116.59 1408.93,-100.42 1418.19,-88.08"/>
<polygon fill="#63b8ff" stroke="#63b8ff" points="1421.12,-90.01 1424.32,-79.91 1415.52,-85.81 1421.12,-90.01"/>
</a>
</g>
</g>
<!-- Node11 -->
<g id="Node000011" class="node">
<title>Node11</title>
<g id="a_Node000011"><a xlink:title=" ">
<polygon fill="#e0e0e0" stroke="#999999" points="1329,-19 1279,-19 1279,0 1329,0 1329,-19"/>
<text text-anchor="middle" x="1304" y="-7" font-family="Helvetica,sans-Serif" font-size="10.00">cstring</text>
</a>
</g>
</g>
<!-- Node8&#45;&gt;Node11 -->
<g id="edge10_Node000008_Node000011" class="edge">
<title>Node8&#45;&gt;Node11</title>
<g id="a_edge10_Node000008_Node000011"><a xlink:title=" ">
<path fill="none" stroke="#63b8ff" d="M1410.4,-126.37C1429.45,-118.77 1453.41,-105.65 1465,-85 1471.53,-73.37 1473.08,-65.61 1465,-55 1449.83,-35.07 1381.82,-21.77 1339.19,-15.23"/>
<polygon fill="#63b8ff" stroke="#63b8ff" points="1339.61,-11.76 1329.2,-13.75 1338.58,-18.68 1339.61,-11.76"/>
</a>
</g>
</g>
<!-- Node12 -->
<g id="Node000012" class="node">
<title>Node12</title>
<g id="a_Node000012"><a xlink:title=" ">
<polygon fill="#e0e0e0" stroke="#999999" points="1485,-19 1417,-19 1417,0 1485,0 1485,-19"/>
<text text-anchor="middle" x="1451" y="-7" font-family="Helvetica,sans-Serif" font-size="10.00">filesystem</text>
</a>
</g>
</g>
<!-- Node8&#45;&gt;Node12 -->
<g id="edge11_Node000008_Node000012" class="edge">
<title>Node8&#45;&gt;Node12</title>
<g id="a_edge11_Node000008_Node000012"><a xlink:title=" ">
<path fill="none" stroke="#63b8ff" d="M1432.87,-126.42C1456.86,-119.51 1483.5,-107.12 1498,-85 1505.31,-73.85 1503.27,-67.25 1498,-55 1492.85,-43.03 1482.71,-32.76 1473.17,-25.12"/>
<polygon fill="#63b8ff" stroke="#63b8ff" points="1475.19,-22.26 1465.07,-19.11 1471.01,-27.88 1475.19,-22.26"/>
</a>
</g>
</g>
<!-- Node13 -->
<g id="Node000013" class="node">
<title>Node13</title>
<g id="a_Node000013"><a xlink:title=" ">
<polygon fill="#e0e0e0" stroke="#999999" points="730,-19 680,-19 680,0 730,0 730,-19"/>
<text text-anchor="middle" x="705" y="-7" font-family="Helvetica,sans-Serif" font-size="10.00">format</text>
</a>
</g>
</g>
<!-- Node8&#45;&gt;Node13 -->
<g id="edge12_Node000008_Node000013" class="edge">
<title>Node8&#45;&gt;Node13</title>
<g id="a_edge12_Node000008_Node000013"><a xlink:title=" ">
<path fill="none" stroke="#63b8ff" d="M1361.34,-126.39C1318.48,-109.73 1219.53,-73.14 1133,-55 989.44,-24.9 814.33,-14.8 740.51,-11.72"/>
<polygon fill="#63b8ff" stroke="#63b8ff" points="740.5,-8.22 730.37,-11.32 740.22,-15.21 740.5,-8.22"/>
</a>
</g>
</g>
<!-- Node14 -->
<g id="Node000014" class="node">
<title>Node14</title>
<g id="a_Node000014"><a xlink:href="std__path__formatter_8hpp.html" target="_top" xlink:title="Defines an std::formatter for std::filesystem::path. MUST be deleted when C++26 is available with tha...">
<polygon fill="white" stroke="#666666" points="1123.5,-85 998.5,-85 998.5,-55 1123.5,-55 1123.5,-85"/>
<text text-anchor="start" x="1006.5" y="-73" font-family="Helvetica,sans-Serif" font-size="10.00">netspeak/util/std_path</text>
<text text-anchor="middle" x="1061" y="-62" font-family="Helvetica,sans-Serif" font-size="10.00">_formatter.hpp</text>
</a>
</g>
</g>
<!-- Node8&#45;&gt;Node14 -->
<g id="edge13_Node000008_Node000014" class="edge">
<title>Node8&#45;&gt;Node14</title>
<g id="a_edge13_Node000008_Node000014"><a xlink:title=" ">
<path fill="none" stroke="#63b8ff" d="M1339.91,-126.44C1287.2,-115.96 1197.18,-98.07 1133.69,-85.45"/>
<polygon fill="#63b8ff" stroke="#63b8ff" points="1134.23,-81.99 1123.74,-83.47 1132.86,-88.85 1134.23,-81.99"/>
</a>
</g>
</g>
<!-- Node16 -->
<g id="Node000016" class="node">
<title>Node16</title>
<g id="a_Node000016"><a xlink:title=" ">
<polygon fill="#e0e0e0" stroke="#999999" points="1203.5,-19 1138.5,-19 1138.5,0 1203.5,0 1203.5,-19"/>
<text text-anchor="middle" x="1171" y="-7" font-family="Helvetica,sans-Serif" font-size="10.00">stdexcept</text>
</a>
</g>
</g>
<!-- Node8&#45;&gt;Node16 -->
<g id="edge17_Node000008_Node000016" class="edge">
<title>Node8&#45;&gt;Node16</title>
<g id="a_edge17_Node000008_Node000016"><a xlink:title=" ">
<path fill="none" stroke="#63b8ff" d="M1368.43,-126.44C1332.35,-105.25 1238.59,-50.19 1194.53,-24.32"/>
<polygon fill="#63b8ff" stroke="#63b8ff" points="1196.07,-21.16 1185.67,-19.12 1192.52,-27.2 1196.07,-21.16"/>
</a>
</g>
</g>
<!-- Node14&#45;&gt;Node12 -->
<g id="edge14_Node000014_Node000012" class="edge">
<title>Node14&#45;&gt;Node12</title>
<g id="a_edge14_Node000014_Node000012"><a xlink:title=" ">
<path fill="none" stroke="#63b8ff" d="M1123.66,-59.6C1202.92,-47.71 1337.41,-27.54 1406.75,-17.14"/>
<polygon fill="#63b8ff" stroke="#63b8ff" points="1407.52,-20.56 1416.89,-15.62 1406.49,-13.64 1407.52,-20.56"/>
</a>
</g>
</g>
<!-- Node14&#45;&gt;Node13 -->
<g id="edge15_Node000014_Node000013" class="edge">
<title>Node14&#45;&gt;Node13</title>
<g id="a_edge15_Node000014_Node000013"><a xlink:title=" ">
<path fill="none" stroke="#63b8ff" d="M998.41,-57.5C993.53,-56.64 988.69,-55.8 984,-55 896.47,-40.06 793.22,-24 740.25,-15.87"/>
<polygon fill="#63b8ff" stroke="#63b8ff" points="740.45,-12.36 730.04,-14.31 739.39,-19.28 740.45,-12.36"/>
</a>
</g>
</g>
<!-- Node15 -->
<g id="Node000015" class="node">
<title>Node15</title>
<g id="a_Node000015"><a xlink:title=" ">
<polygon fill="#e0e0e0" stroke="#999999" points="512,-19 468,-19 468,0 512,0 512,-19"/>
<text text-anchor="middle" x="490" y="-7" font-family="Helvetica,sans-Serif" font-size="10.00">string</text>
</a>
</g>
</g>
<!-- Node14&#45;&gt;Node15 -->
<g id="edge16_Node000014_Node000015" class="edge">
<title>Node14&#45;&gt;Node15</title>
<g id="a_edge16_Node000014_Node000015"><a xlink:title=" ">
<path fill="none" stroke="#63b8ff" d="M998.22,-60.68C982.79,-58.72 966.31,-56.71 951,-55 790.3,-37.02 597.58,-19.83 522.33,-13.28"/>
<polygon fill="#63b8ff" stroke="#63b8ff" points="522.36,-9.77 512.1,-12.39 521.76,-16.74 522.36,-9.77"/>
</a>
</g>
</g>
<!-- Node17&#45;&gt;Node2 -->
<g id="edge22_Node000017_Node000002" class="edge">
<title>Node17&#45;&gt;Node2</title>
<g id="a_edge22_Node000017_Node000002"><a xlink:title=" ">
<path fill="none" stroke="#63b8ff" d="M727.46,-193.87C605.71,-189.17 269.25,-174.39 161,-151 158.32,-150.42 155.58,-149.69 152.85,-148.88"/>
<polygon fill="#63b8ff" stroke="#63b8ff" points="153.79,-145.5 143.2,-145.63 151.56,-152.14 153.79,-145.5"/>
</a>
</g>
</g>
<!-- Node17&#45;&gt;Node8 -->
<g id="edge24_Node000017_Node000008" class="edge">
<title>Node17&#45;&gt;Node8</title>
<g id="a_edge24_Node000017_Node000008"><a xlink:title=" ">
<path fill="none" stroke="#63b8ff" d="M816.78,-188.04C819.56,-187.67 822.32,-187.31 825,-187 1041.45,-161.72 1098.12,-180.73 1314,-151 1320.83,-150.06 1328.01,-148.85 1335.04,-147.54"/>
<polygon fill="#63b8ff" stroke="#63b8ff" points="1336.04,-150.91 1345.19,-145.57 1334.7,-144.04 1336.04,-150.91"/>
</a>
</g>
</g>
<!-- Node17&#45;&gt;Node11 -->
<g id="edge20_Node000017_Node000011" class="edge">
<title>Node17&#45;&gt;Node11</title>
<g id="a_edge20_Node000017_Node000011"><a xlink:title=" ">
<path fill="none" stroke="#63b8ff" d="M816.78,-188.06C819.56,-187.68 822.32,-187.32 825,-187 875.02,-181.01 1239.46,-184.61 1277,-151 1311.46,-120.15 1310.07,-59.84 1306.76,-29.25"/>
<polygon fill="#63b8ff" stroke="#63b8ff" points="1310.2,-28.59 1305.46,-19.11 1303.26,-29.47 1310.2,-28.59"/>
</a>
</g>
</g>
<!-- Node17&#45;&gt;Node13 -->
<g id="edge21_Node000017_Node000013" class="edge">
<title>Node17&#45;&gt;Node13</title>
<g id="a_edge21_Node000017_Node000013"><a xlink:title=" ">
<path fill="none" stroke="#63b8ff" d="M765.12,-186.78C758.6,-178.13 748.95,-164.3 743,-151 724.39,-109.43 713.15,-56.74 708.12,-29.2"/>
<polygon fill="#63b8ff" stroke="#63b8ff" points="711.52,-28.3 706.35,-19.05 704.62,-29.5 711.52,-28.3"/>
</a>
</g>
</g>
<!-- Node17&#45;&gt;Node16 -->
<g id="edge23_Node000017_Node000016" class="edge">
<title>Node17&#45;&gt;Node16</title>
<g id="a_edge23_Node000017_Node000016"><a xlink:title=" ">
<path fill="none" stroke="#63b8ff" d="M810.37,-186.95C903.23,-165.91 1134.23,-111.43 1158,-85 1171.55,-69.93 1173.49,-45.94 1172.89,-29.27"/>
<polygon fill="#63b8ff" stroke="#63b8ff" points="1176.37,-28.84 1172.18,-19.1 1169.38,-29.32 1176.37,-28.84"/>
</a>
</g>
</g>
<!-- Node18 -->
<g id="Node000018" class="node">
<title>Node18</title>
<g id="a_Node000018"><a xlink:title=" ">
<polygon fill="#e0e0e0" stroke="#999999" points="1267.5,-145.5 1218.5,-145.5 1218.5,-126.5 1267.5,-126.5 1267.5,-145.5"/>
<text text-anchor="middle" x="1243" y="-133.5" font-family="Helvetica,sans-Serif" font-size="10.00">cstdlib</text>
</a>
</g>
</g>
<!-- Node17&#45;&gt;Node18 -->
<g id="edge19_Node000017_Node000018" class="edge">
<title>Node17&#45;&gt;Node18</title>
<g id="a_edge19_Node000017_Node000018"><a xlink:title=" ">
<path fill="none" stroke="#63b8ff" d="M816.5,-188.15C819.38,-187.74 822.23,-187.35 825,-187 992.84,-165.59 1038.86,-187.87 1204,-151 1206.83,-150.37 1209.74,-149.59 1212.62,-148.72"/>
<polygon fill="#63b8ff" stroke="#63b8ff" points="1213.84,-152.01 1222.23,-145.54 1211.64,-145.36 1213.84,-152.01"/>
</a>
</g>
</g>
<!-- Node19 -->
<g id="Node000019" class="node">
<title>Node19</title>
<g id="a_Node000019"><a xlink:href="pair__traits_8hpp.html" target="_top" xlink:title=" ">
<polygon fill="white" stroke="#666666" points="296,-145.5 170,-145.5 170,-126.5 296,-126.5 296,-145.5"/>
<text text-anchor="middle" x="233" y="-133.5" font-family="Helvetica,sans-Serif" font-size="10.00">../value/pair_traits.hpp</text>
</a>
</g>
</g>
<!-- Node17&#45;&gt;Node19 -->
<g id="edge25_Node000017_Node000019" class="edge">
<title>Node17&#45;&gt;Node19</title>
<g id="a_edge25_Node000017_Node000019"><a xlink:title=" ">
<path fill="none" stroke="#63b8ff" d="M727.49,-191.42C648.68,-184.09 479.48,-167.87 337,-151 326.26,-149.73 314.92,-148.29 303.82,-146.84"/>
<polygon fill="#63b8ff" stroke="#63b8ff" points="304.1,-143.35 293.73,-145.51 303.18,-150.29 304.1,-143.35"/>
</a>
</g>
</g>
<!-- Node27 -->
<g id="Node000027" class="node">
<title>Node27</title>
<g id="a_Node000027"><a xlink:href="quadruple__traits_8hpp.html" target="_top" xlink:title=" ">
<polygon fill="white" stroke="#666666" points="450,-151 346,-151 346,-121 450,-121 450,-151"/>
<text text-anchor="start" x="354" y="-139" font-family="Helvetica,sans-Serif" font-size="10.00">../value/quadruple</text>
<text text-anchor="middle" x="398" y="-128" font-family="Helvetica,sans-Serif" font-size="10.00">_traits.hpp</text>
</a>
</g>
</g>
<!-- Node17&#45;&gt;Node27 -->
<g id="edge39_Node000017_Node000027" class="edge">
<title>Node17&#45;&gt;Node27</title>
<g id="a_edge39_Node000017_Node000027"><a xlink:title=" ">
<path fill="none" stroke="#63b8ff" d="M727.26,-188.5C660.87,-178.12 536.03,-158.59 460.6,-146.79"/>
<polygon fill="#63b8ff" stroke="#63b8ff" points="460.72,-143.27 450.3,-145.18 459.63,-150.18 460.72,-143.27"/>
</a>
</g>
</g>
<!-- Node29 -->
<g id="Node000029" class="node">
<title>Node29</title>
<g id="a_Node000029"><a xlink:href="string__traits_8hpp.html" target="_top" xlink:title=" ">
<polygon fill="white" stroke="#666666" points="887.5,-145.5 752.5,-145.5 752.5,-126.5 887.5,-126.5 887.5,-145.5"/>
<text text-anchor="middle" x="820" y="-133.5" font-family="Helvetica,sans-Serif" font-size="10.00">../value/string_traits.hpp</text>
</a>
</g>
</g>
<!-- Node17&#45;&gt;Node29 -->
<g id="edge45_Node000017_Node000029" class="edge">
<title>Node17&#45;&gt;Node29</title>
<g id="a_edge45_Node000017_Node000029"><a xlink:title=" ">
<path fill="none" stroke="#63b8ff" d="M779.08,-186.87C786.24,-178.14 797.49,-164.43 806.39,-153.59"/>
<polygon fill="#63b8ff" stroke="#63b8ff" points="809.25,-155.62 812.89,-145.67 803.84,-151.18 809.25,-155.62"/>
</a>
</g>
</g>
<!-- Node32 -->
<g id="Node000032" class="node">
<title>Node32</title>
<g id="a_Node000032"><a xlink:href="triple__traits_8hpp.html" target="_top" xlink:title=" ">
<polygon fill="white" stroke="#666666" points="636.5,-145.5 503.5,-145.5 503.5,-126.5 636.5,-126.5 636.5,-145.5"/>
<text text-anchor="middle" x="570" y="-133.5" font-family="Helvetica,sans-Serif" font-size="10.00">../value/triple_traits.hpp</text>
</a>
</g>
</g>
<!-- Node17&#45;&gt;Node32 -->
<g id="edge52_Node000017_Node000032" class="edge">
<title>Node17&#45;&gt;Node32</title>
<g id="a_edge52_Node000017_Node000032"><a xlink:title=" ">
<path fill="none" stroke="#63b8ff" d="M742.63,-186.99C707.4,-176.79 648.21,-159.65 609.13,-148.33"/>
<polygon fill="#63b8ff" stroke="#63b8ff" points="609.99,-144.94 599.41,-145.52 608.04,-151.66 609.99,-144.94"/>
</a>
</g>
</g>
<!-- Node19&#45;&gt;Node13 -->
<g id="edge36_Node000019_Node000013" class="edge">
<title>Node19&#45;&gt;Node13</title>
<g id="a_edge36_Node000019_Node000013"><a xlink:title=" ">
<path fill="none" stroke="#63b8ff" d="M219.79,-126.46C197.64,-111.15 157.46,-78.44 179,-55 195.65,-36.88 554.66,-17.84 669.8,-12.18"/>
<polygon fill="#63b8ff" stroke="#63b8ff" points="670.03,-15.67 679.85,-11.69 669.69,-8.68 670.03,-15.67"/>
</a>
</g>
</g>
<!-- Node19&#45;&gt;Node15 -->
<g id="edge38_Node000019_Node000015" class="edge">
<title>Node19&#45;&gt;Node15</title>
<g id="a_edge38_Node000019_Node000015"><a xlink:title=" ">
<path fill="none" stroke="#63b8ff" d="M195.51,-126.41C148.49,-113.99 77.53,-88.76 108,-55 158.59,1.04 365.73,-30.83 457.65,-18.68"/>
<polygon fill="#63b8ff" stroke="#63b8ff" points="458.43,-22.1 467.75,-17.07 457.33,-15.19 458.43,-22.1"/>
</a>
</g>
</g>
<!-- Node20 -->
<g id="Node000020" class="node">
<title>Node20</title>
<g id="a_Node000020"><a xlink:href="pair_8hpp.html" target="_top" xlink:title=" ">
<polygon fill="white" stroke="#666666" points="56,-79.5 0,-79.5 0,-60.5 56,-60.5 56,-79.5"/>
<text text-anchor="middle" x="28" y="-67.5" font-family="Helvetica,sans-Serif" font-size="10.00">pair.hpp</text>
</a>
</g>
</g>
<!-- Node19&#45;&gt;Node20 -->
<g id="edge26_Node000019_Node000020" class="edge">
<title>Node19&#45;&gt;Node20</title>
<g id="a_edge26_Node000019_Node000020"><a xlink:title=" ">
<path fill="none" stroke="#63b8ff" d="M204.37,-126.45C171.77,-116.65 116.94,-100.02 70,-85 67.71,-84.27 65.36,-83.51 62.99,-82.73"/>
<polygon fill="#63b8ff" stroke="#63b8ff" points="63.88,-79.34 53.29,-79.54 61.69,-85.99 63.88,-79.34"/>
</a>
</g>
</g>
<!-- Node22 -->
<g id="Node000022" class="node">
<title>Node22</title>
<g id="a_Node000022"><a xlink:href="value__traits_8hpp.html" target="_top" xlink:title=" ">
<polygon fill="white" stroke="#666666" points="461.5,-79.5 366.5,-79.5 366.5,-60.5 461.5,-60.5 461.5,-79.5"/>
<text text-anchor="middle" x="414" y="-67.5" font-family="Helvetica,sans-Serif" font-size="10.00">value_traits.hpp</text>
</a>
</g>
</g>
<!-- Node19&#45;&gt;Node22 -->
<g id="edge28_Node000019_Node000022" class="edge">
<title>Node19&#45;&gt;Node22</title>
<g id="a_edge28_Node000019_Node000022"><a xlink:title=" ">
<path fill="none" stroke="#63b8ff" d="M257.41,-126.37C289.08,-115.17 344.47,-95.58 380.18,-82.96"/>
<polygon fill="#63b8ff" stroke="#63b8ff" points="381.43,-86.23 389.69,-79.6 379.09,-79.63 381.43,-86.23"/>
</a>
</g>
</g>
<!-- Node26 -->
<g id="Node000026" class="node">
<title>Node26</title>
<g id="a_Node000026"><a xlink:title=" ">
<polygon fill="#e0e0e0" stroke="#999999" points="244,-79.5 188,-79.5 188,-60.5 244,-60.5 244,-79.5"/>
<text text-anchor="middle" x="216" y="-67.5" font-family="Helvetica,sans-Serif" font-size="10.00">sstream</text>
</a>
</g>
</g>
<!-- Node19&#45;&gt;Node26 -->
<g id="edge37_Node000019_Node000026" class="edge">
<title>Node19&#45;&gt;Node26</title>
<g id="a_edge37_Node000019_Node000026"><a xlink:title=" ">
<path fill="none" stroke="#63b8ff" d="M230.71,-126.37C228.24,-117.07 224.23,-101.98 221.02,-89.9"/>
<polygon fill="#63b8ff" stroke="#63b8ff" points="224.32,-88.67 218.37,-79.91 217.55,-90.47 224.32,-88.67"/>
</a>
</g>
</g>
<!-- Node21 -->
<g id="Node000021" class="node">
<title>Node21</title>
<g id="a_Node000021"><a xlink:title=" ">
<polygon fill="#e0e0e0" stroke="#999999" points="50.5,-19 5.5,-19 5.5,0 50.5,0 50.5,-19"/>
<text text-anchor="middle" x="28" y="-7" font-family="Helvetica,sans-Serif" font-size="10.00">utility</text>
</a>
</g>
</g>
<!-- Node20&#45;&gt;Node21 -->
<g id="edge27_Node000020_Node000021" class="edge">
<title>Node20&#45;&gt;Node21</title>
<g id="a_edge27_Node000020_Node000021"><a xlink:title=" ">
<path fill="none" stroke="#63b8ff" d="M28,-60.37C28,-52.25 28,-39.81 28,-29.39"/>
<polygon fill="#63b8ff" stroke="#63b8ff" points="31.5,-29.17 28,-19.17 24.5,-29.17 31.5,-29.17"/>
</a>
</g>
</g>
<!-- Node22&#45;&gt;Node11 -->
<g id="edge30_Node000022_Node000011" class="edge">
<title>Node22&#45;&gt;Node11</title>
<g id="a_edge30_Node000022_Node000011"><a xlink:title=" ">
<path fill="none" stroke="#63b8ff" d="M461.65,-63.39C486.98,-60.56 518.65,-57.26 547,-55 842.5,-31.48 917.37,-40.79 1213,-19 1231.48,-17.64 1252.03,-15.75 1268.92,-14.1"/>
<polygon fill="#63b8ff" stroke="#63b8ff" points="1269.31,-17.58 1278.92,-13.11 1268.62,-10.61 1269.31,-17.58"/>
</a>
</g>
</g>
<!-- Node22&#45;&gt;Node13 -->
<g id="edge31_Node000022_Node000013" class="edge">
<title>Node22&#45;&gt;Node13</title>
<g id="a_edge31_Node000022_Node000013"><a xlink:title=" ">
<path fill="none" stroke="#63b8ff" d="M456.31,-60.49C513.95,-48.91 616.09,-28.37 669.78,-17.58"/>
<polygon fill="#63b8ff" stroke="#63b8ff" points="670.73,-20.96 679.84,-15.56 669.35,-14.1 670.73,-20.96"/>
</a>
</g>
</g>
<!-- Node22&#45;&gt;Node15 -->
<g id="edge34_Node000022_Node000015" class="edge">
<title>Node22&#45;&gt;Node15</title>
<g id="a_edge34_Node000022_Node000015"><a xlink:title=" ">
<path fill="none" stroke="#63b8ff" d="M425.21,-60.37C437.11,-51.21 456.14,-36.56 470.51,-25.51"/>
<polygon fill="#63b8ff" stroke="#63b8ff" points="472.95,-28.04 478.74,-19.17 468.68,-22.49 472.95,-28.04"/>
</a>
</g>
</g>
<!-- Node22&#45;&gt;Node16 -->
<g id="edge33_Node000022_Node000016" class="edge">
<title>Node22&#45;&gt;Node16</title>
<g id="a_edge33_Node000022_Node000016"><a xlink:title=" ">
<path fill="none" stroke="#63b8ff" d="M461.67,-63.59C487,-60.81 518.67,-57.5 547,-55 765.38,-35.72 1027.34,-19.18 1128.38,-13.04"/>
<polygon fill="#63b8ff" stroke="#63b8ff" points="1128.72,-16.53 1138.49,-12.43 1128.3,-9.54 1128.72,-16.53"/>
</a>
</g>
</g>
<!-- Node23 -->
<g id="Node000023" class="node">
<title>Node23</title>
<g id="a_Node000023"><a xlink:title=" ">
<polygon fill="#e0e0e0" stroke="#999999" points="372,-19 322,-19 322,0 372,0 372,-19"/>
<text text-anchor="middle" x="347" y="-7" font-family="Helvetica,sans-Serif" font-size="10.00">cstdint</text>
</a>
</g>
</g>
<!-- Node22&#45;&gt;Node23 -->
<g id="edge29_Node000022_Node000023" class="edge">
<title>Node22&#45;&gt;Node23</title>
<g id="a_edge29_Node000022_Node000023"><a xlink:title=" ">
<path fill="none" stroke="#63b8ff" d="M404.11,-60.37C393.72,-51.3 377.16,-36.84 364.55,-25.82"/>
<polygon fill="#63b8ff" stroke="#63b8ff" points="366.76,-23.11 356.93,-19.17 362.16,-28.38 366.76,-23.11"/>
</a>
</g>
</g>
<!-- Node24 -->
<g id="Node000024" class="node">
<title>Node24</title>
<g id="a_Node000024"><a xlink:title=" ">
<polygon fill="#e0e0e0" stroke="#999999" points="450,-19 390,-19 390,0 450,0 450,-19"/>
<text text-anchor="middle" x="420" y="-7" font-family="Helvetica,sans-Serif" font-size="10.00">iostream</text>
</a>
</g>
</g>
<!-- Node22&#45;&gt;Node24 -->
<g id="edge32_Node000022_Node000024" class="edge">
<title>Node22&#45;&gt;Node24</title>
<g id="a_edge32_Node000022_Node000024"><a xlink:title=" ">
<path fill="none" stroke="#63b8ff" d="M414.89,-60.37C415.72,-52.25 416.99,-39.81 418.06,-29.39"/>
<polygon fill="#63b8ff" stroke="#63b8ff" points="421.57,-29.47 419.11,-19.17 414.61,-28.76 421.57,-29.47"/>
</a>
</g>
</g>
<!-- Node25 -->
<g id="Node000025" class="node">
<title>Node25</title>
<g id="a_Node000025"><a xlink:title=" ">
<polygon fill="#e0e0e0" stroke="#999999" points="303.5,-19 234.5,-19 234.5,0 303.5,0 303.5,-19"/>
<text text-anchor="middle" x="269" y="-7" font-family="Helvetica,sans-Serif" font-size="10.00">type_traits</text>
</a>
</g>
</g>
<!-- Node22&#45;&gt;Node25 -->
<g id="edge35_Node000022_Node000025" class="edge">
<title>Node22&#45;&gt;Node25</title>
<g id="a_edge35_Node000022_Node000025"><a xlink:title=" ">
<path fill="none" stroke="#63b8ff" d="M392.92,-60.49C368.32,-50.57 327.47,-34.09 299.44,-22.78"/>
<polygon fill="#63b8ff" stroke="#63b8ff" points="300.69,-19.51 290.11,-19.02 298.07,-26 300.69,-19.51"/>
</a>
</g>
</g>
<!-- Node27&#45;&gt;Node13 -->
<g id="edge42_Node000027_Node000013" class="edge">
<title>Node27&#45;&gt;Node13</title>
<g id="a_edge42_Node000027_Node000013"><a xlink:title=" ">
<path fill="none" stroke="#63b8ff" d="M420.47,-120.92C449.01,-103.52 500.17,-73.9 547,-55 588.01,-38.45 637.37,-25.61 669.88,-18.06"/>
<polygon fill="#63b8ff" stroke="#63b8ff" points="670.84,-21.44 679.81,-15.8 669.28,-14.61 670.84,-21.44"/>
</a>
</g>
</g>
<!-- Node27&#45;&gt;Node15 -->
<g id="edge44_Node000027_Node000015" class="edge">
<title>Node27&#45;&gt;Node15</title>
<g id="a_edge44_Node000027_Node000015"><a xlink:title=" ">
<path fill="none" stroke="#63b8ff" d="M345.85,-126.57C284.44,-116.12 189.44,-98.09 179,-85 170.69,-74.58 170.19,-65.01 179,-55 218.57,-10.01 381.85,-29.36 457.65,-18.72"/>
<polygon fill="#63b8ff" stroke="#63b8ff" points="458.46,-22.13 467.74,-17 457.29,-15.23 458.46,-22.13"/>
</a>
</g>
</g>
<!-- Node27&#45;&gt;Node22 -->
<g id="edge41_Node000027_Node000022" class="edge">
<title>Node27&#45;&gt;Node22</title>
<g id="a_edge41_Node000027_Node000022"><a xlink:title=" ">
<path fill="none" stroke="#63b8ff" d="M401.55,-120.8C403.85,-111.6 406.87,-99.53 409.36,-89.58"/>
<polygon fill="#63b8ff" stroke="#63b8ff" points="412.76,-90.39 411.79,-79.84 405.97,-88.7 412.76,-90.39"/>
</a>
</g>
</g>
<!-- Node27&#45;&gt;Node26 -->
<g id="edge43_Node000027_Node000026" class="edge">
<title>Node27&#45;&gt;Node26</title>
<g id="a_edge43_Node000027_Node000026"><a xlink:title=" ">
<path fill="none" stroke="#63b8ff" d="M356.32,-120.99C327.28,-111.14 287.68,-97.54 253,-85 251.36,-84.41 249.68,-83.79 247.98,-83.17"/>
<polygon fill="#63b8ff" stroke="#63b8ff" points="248.86,-79.76 238.27,-79.55 246.41,-86.32 248.86,-79.76"/>
</a>
</g>
</g>
<!-- Node28 -->
<g id="Node000028" class="node">
<title>Node28</title>
<g id="a_Node000028"><a xlink:href="quadruple_8hpp.html" target="_top" xlink:title=" ">
<polygon fill="white" stroke="#666666" points="348,-79.5 262,-79.5 262,-60.5 348,-60.5 348,-79.5"/>
<text text-anchor="middle" x="305" y="-67.5" font-family="Helvetica,sans-Serif" font-size="10.00">quadruple.hpp</text>
</a>
</g>
</g>
<!-- Node27&#45;&gt;Node28 -->
<g id="edge40_Node000027_Node000028" class="edge">
<title>Node27&#45;&gt;Node28</title>
<g id="a_edge40_Node000027_Node000028"><a xlink:title=" ">
<path fill="none" stroke="#63b8ff" d="M377.36,-120.8C362.06,-110.27 341.29,-95.97 325.92,-85.4"/>
<polygon fill="#63b8ff" stroke="#63b8ff" points="327.8,-82.44 317.58,-79.66 323.84,-88.21 327.8,-82.44"/>
</a>
</g>
</g>
<!-- Node29&#45;&gt;Node13 -->
<g id="edge47_Node000029_Node000013" class="edge">
<title>Node29&#45;&gt;Node13</title>
<g id="a_edge47_Node000029_Node000013"><a xlink:title=" ">
<path fill="none" stroke="#63b8ff" d="M861.28,-126.49C909.93,-114.62 980.64,-90.48 951,-55 924.57,-23.36 801.85,-14.17 740.34,-11.54"/>
<polygon fill="#63b8ff" stroke="#63b8ff" points="740.44,-8.04 730.31,-11.14 740.17,-15.03 740.44,-8.04"/>
</a>
</g>
</g>
<!-- Node29&#45;&gt;Node15 -->
<g id="edge49_Node000029_Node000015" class="edge">
<title>Node29&#45;&gt;Node15</title>
<g id="a_edge49_Node000029_Node000015"><a xlink:title=" ">
<path fill="none" stroke="#63b8ff" d="M800.86,-126.4C766.56,-111.14 692.2,-78.68 628,-55 592.03,-41.73 550.02,-28.5 521.88,-19.96"/>
<polygon fill="#63b8ff" stroke="#63b8ff" points="522.77,-16.57 512.18,-17.03 520.74,-23.27 522.77,-16.57"/>
</a>
</g>
</g>
<!-- Node29&#45;&gt;Node16 -->
<g id="edge48_Node000029_Node000016" class="edge">
<title>Node29&#45;&gt;Node16</title>
<g id="a_edge48_Node000029_Node000016"><a xlink:title=" ">
<path fill="none" stroke="#63b8ff" d="M887.67,-131.3C967.7,-125.72 1094.89,-112.71 1133,-85 1151.49,-71.55 1161.62,-46.45 1166.67,-29.13"/>
<polygon fill="#63b8ff" stroke="#63b8ff" points="1170.15,-29.63 1169.29,-19.07 1163.38,-27.86 1170.15,-29.63"/>
</a>
</g>
</g>
<!-- Node29&#45;&gt;Node22 -->
<g id="edge51_Node000029_Node000022" class="edge">
<title>Node29&#45;&gt;Node22</title>
<g id="a_edge51_Node000029_Node000022"><a xlink:title=" ">
<path fill="none" stroke="#63b8ff" d="M765.67,-126.44C689.15,-114.37 550.27,-92.48 471.88,-80.12"/>
<polygon fill="#63b8ff" stroke="#63b8ff" points="472.12,-76.62 461.7,-78.52 471.03,-83.53 472.12,-76.62"/>
</a>
</g>
</g>
<!-- Node30 -->
<g id="Node000030" class="node">
<title>Node30</title>
<g id="a_Node000030"><a xlink:title=" ">
<polygon fill="#e0e0e0" stroke="#999999" points="798,-79.5 752,-79.5 752,-60.5 798,-60.5 798,-79.5"/>
<text text-anchor="middle" x="775" y="-67.5" font-family="Helvetica,sans-Serif" font-size="10.00">cstdio</text>
</a>
</g>
</g>
<!-- Node29&#45;&gt;Node30 -->
<g id="edge46_Node000029_Node000030" class="edge">
<title>Node29&#45;&gt;Node30</title>
<g id="a_edge46_Node000029_Node000030"><a xlink:title=" ">
<path fill="none" stroke="#63b8ff" d="M813.93,-126.37C807.13,-116.69 795.91,-100.74 787.26,-88.44"/>
<polygon fill="#63b8ff" stroke="#63b8ff" points="789.88,-86.07 781.26,-79.91 784.15,-90.1 789.88,-86.07"/>
</a>
</g>
</g>
<!-- Node31 -->
<g id="Node000031" class="node">
<title>Node31</title>
<g id="a_Node000031"><a xlink:title=" ">
<polygon fill="#e0e0e0" stroke="#999999" points="941.5,-85 816.5,-85 816.5,-55 941.5,-55 941.5,-85"/>
<text text-anchor="start" x="824.5" y="-73" font-family="Helvetica,sans-Serif" font-size="10.00">boost/algorithm/string</text>
<text text-anchor="middle" x="879" y="-62" font-family="Helvetica,sans-Serif" font-size="10.00">/trim.hpp</text>
</a>
</g>
</g>
<!-- Node29&#45;&gt;Node31 -->
<g id="edge50_Node000029_Node000031" class="edge">
<title>Node29&#45;&gt;Node31</title>
<g id="a_edge50_Node000029_Node000031"><a xlink:title=" ">
<path fill="none" stroke="#63b8ff" d="M827.96,-126.37C835.83,-117.83 848.2,-104.41 858.79,-92.92"/>
<polygon fill="#63b8ff" stroke="#63b8ff" points="861.56,-95.09 865.76,-85.36 856.41,-90.34 861.56,-95.09"/>
</a>
</g>
</g>
<!-- Node32&#45;&gt;Node13 -->
<g id="edge55_Node000032_Node000013" class="edge">
<title>Node32&#45;&gt;Node13</title>
<g id="a_edge55_Node000032_Node000013"><a xlink:title=" ">
<path fill="none" stroke="#63b8ff" d="M580.42,-126.32C592.16,-116.49 611.71,-99.88 628,-85 649.52,-65.34 673.54,-41.84 688.94,-26.56"/>
<polygon fill="#63b8ff" stroke="#63b8ff" points="691.53,-28.92 696.15,-19.39 686.59,-23.96 691.53,-28.92"/>
</a>
</g>
</g>
<!-- Node32&#45;&gt;Node15 -->
<g id="edge57_Node000032_Node000015" class="edge">
<title>Node32&#45;&gt;Node15</title>
<g id="a_edge57_Node000032_Node000015"><a xlink:title=" ">
<path fill="none" stroke="#63b8ff" d="M564.5,-126.44C551.43,-106.1 518.29,-54.53 500.95,-27.54"/>
<polygon fill="#63b8ff" stroke="#63b8ff" points="503.89,-25.64 495.54,-19.12 498,-29.42 503.89,-25.64"/>
</a>
</g>
</g>
<!-- Node32&#45;&gt;Node22 -->
<g id="edge54_Node000032_Node000022" class="edge">
<title>Node32&#45;&gt;Node22</title>
<g id="a_edge54_Node000032_Node000022"><a xlink:title=" ">
<path fill="none" stroke="#63b8ff" d="M548.96,-126.37C522.02,-115.32 475.14,-96.08 444.34,-83.45"/>
<polygon fill="#63b8ff" stroke="#63b8ff" points="445.53,-80.15 434.95,-79.6 442.88,-86.63 445.53,-80.15"/>
</a>
</g>
</g>
<!-- Node32&#45;&gt;Node26 -->
<g id="edge56_Node000032_Node000026" class="edge">
<title>Node32&#45;&gt;Node26</title>
<g id="a_edge56_Node000032_Node000026"><a xlink:title=" ">
<path fill="none" stroke="#63b8ff" d="M505.99,-126.49C427.6,-115.79 299.52,-97.33 253,-85 250.7,-84.39 248.35,-83.69 246,-82.94"/>
<polygon fill="#63b8ff" stroke="#63b8ff" points="247.09,-79.61 236.5,-79.61 244.78,-86.22 247.09,-79.61"/>
</a>
</g>
</g>
<!-- Node33 -->
<g id="Node000033" class="node">
<title>Node33</title>
<g id="a_Node000033"><a xlink:href="triple_8hpp.html" target="_top" xlink:title=" ">
<polygon fill="white" stroke="#666666" points="619.5,-79.5 556.5,-79.5 556.5,-60.5 619.5,-60.5 619.5,-79.5"/>
<text text-anchor="middle" x="588" y="-67.5" font-family="Helvetica,sans-Serif" font-size="10.00">triple.hpp</text>
</a>
</g>
</g>
<!-- Node32&#45;&gt;Node33 -->
<g id="edge53_Node000032_Node000033" class="edge">
<title>Node32&#45;&gt;Node33</title>
<g id="a_edge53_Node000032_Node000033"><a xlink:title=" ">
<path fill="none" stroke="#63b8ff" d="M572.43,-126.37C575.04,-117.07 579.29,-101.98 582.68,-89.9"/>
<polygon fill="#63b8ff" stroke="#63b8ff" points="586.16,-90.48 585.5,-79.91 579.42,-88.58 586.16,-90.48"/>
</a>
</g>
</g>
</g>
</svg>
