<?xml version="1.0" encoding="UTF-8" standalone="no"?>
<!DOCTYPE svg PUBLIC "-//W3C//DTD SVG 1.1//EN"
 "http://www.w3.org/Graphics/SVG/1.1/DTD/svg11.dtd">
<!-- Generated by graphviz version 2.43.0 (0)
 -->
<!-- Title: netspeak/invertedindex/RawSearcher.hpp Pages: 1 -->
<svg width="2109pt" height="390pt"
 viewBox="0.00 0.00 2109.27 390.00" xmlns="http://www.w3.org/2000/svg" xmlns:xlink="http://www.w3.org/1999/xlink">
<g id="graph0" class="graph" transform="scale(1 1) rotate(0) translate(4 386)">
<title>netspeak/invertedindex/RawSearcher.hpp</title>
<!-- Node1 -->
<g id="Node000001" class="node">
<title>Node1</title>
<g id="a_Node000001"><a xlink:title=" ">
<polygon fill="#999999" stroke="#666666" points="317,-382 185,-382 185,-352 317,-352 317,-382"/>
<text text-anchor="start" x="193" y="-370" font-family="Helvetica,sans-Serif" font-size="10.00">netspeak/invertedindex</text>
<text text-anchor="middle" x="251" y="-359" font-family="Helvetica,sans-Serif" font-size="10.00">/RawSearcher.hpp</text>
</a>
</g>
</g>
<!-- Node2 -->
<g id="Node000002" class="node">
<title>Node2</title>
<g id="a_Node000002"><a xlink:title=" ">
<polygon fill="#e0e0e0" stroke="#999999" points="185,-316 141,-316 141,-297 185,-297 185,-316"/>
<text text-anchor="middle" x="163" y="-304" font-family="Helvetica,sans-Serif" font-size="10.00">limits</text>
</a>
</g>
</g>
<!-- Node1&#45;&gt;Node2 -->
<g id="edge1_Node000001_Node000002" class="edge">
<title>Node1&#45;&gt;Node2</title>
<g id="a_edge1_Node000001_Node000002"><a xlink:title=" ">
<path fill="none" stroke="#63b8ff" d="M229.7,-351.84C215.93,-342.68 198.07,-330.82 184.3,-321.66"/>
<polygon fill="#63b8ff" stroke="#63b8ff" points="186.19,-318.72 175.93,-316.09 182.32,-324.55 186.19,-318.72"/>
</a>
</g>
</g>
<!-- Node3 -->
<g id="Node000003" class="node">
<title>Node3</title>
<g id="a_Node000003"><a xlink:title=" ">
<polygon fill="#e0e0e0" stroke="#999999" points="595,-79.5 537,-79.5 537,-60.5 595,-60.5 595,-79.5"/>
<text text-anchor="middle" x="566" y="-67.5" font-family="Helvetica,sans-Serif" font-size="10.00">memory</text>
</a>
</g>
</g>
<!-- Node1&#45;&gt;Node3 -->
<g id="edge2_Node000001_Node000003" class="edge">
<title>Node1&#45;&gt;Node3</title>
<g id="a_edge2_Node000001_Node000003"><a xlink:title=" ">
<path fill="none" stroke="#63b8ff" d="M317.22,-362.36C388.25,-354.47 491,-329.7 491,-252.5 491,-252.5 491,-252.5 491,-195.5 491,-151 526.59,-108.73 548.73,-86.74"/>
<polygon fill="#63b8ff" stroke="#63b8ff" points="551.4,-89.03 556.2,-79.58 546.55,-83.98 551.4,-89.03"/>
</a>
</g>
</g>
<!-- Node4 -->
<g id="Node000004" class="node">
<title>Node4</title>
<g id="a_Node000004"><a xlink:title=" ">
<polygon fill="#e0e0e0" stroke="#999999" points="854,-19 810,-19 810,0 854,0 854,-19"/>
<text text-anchor="middle" x="832" y="-7" font-family="Helvetica,sans-Serif" font-size="10.00">string</text>
</a>
</g>
</g>
<!-- Node1&#45;&gt;Node4 -->
<g id="edge3_Node000001_Node000004" class="edge">
<title>Node1&#45;&gt;Node4</title>
<g id="a_edge3_Node000001_Node000004"><a xlink:title=" ">
<path fill="none" stroke="#63b8ff" d="M251,-351.67C251,-330.14 251,-288.17 251,-252.5 251,-252.5 251,-252.5 251,-135 251,-98.46 242.25,-78.77 270,-55 310.33,-20.46 686.1,-12.5 799.65,-10.88"/>
<polygon fill="#63b8ff" stroke="#63b8ff" points="799.85,-14.38 809.8,-10.74 799.76,-7.38 799.85,-14.38"/>
</a>
</g>
</g>
<!-- Node5 -->
<g id="Node000005" class="node">
<title>Node5</title>
<g id="a_Node000005"><a xlink:href="invertedindex_2Properties_8hpp.html" target="_top" xlink:title=" ">
<polygon fill="white" stroke="#666666" points="222.5,-261 135.5,-261 135.5,-242 222.5,-242 222.5,-261"/>
<text text-anchor="middle" x="179" y="-249" font-family="Helvetica,sans-Serif" font-size="10.00">Properties.hpp</text>
</a>
</g>
</g>
<!-- Node1&#45;&gt;Node5 -->
<g id="edge4_Node000001_Node000005" class="edge">
<title>Node1&#45;&gt;Node5</title>
<g id="a_edge4_Node000001_Node000005"><a xlink:title=" ">
<path fill="none" stroke="#63b8ff" d="M241.88,-351.63C228.64,-330.75 204.12,-292.09 189.92,-269.72"/>
<polygon fill="#63b8ff" stroke="#63b8ff" points="192.85,-267.8 184.54,-261.23 186.94,-271.55 192.85,-267.8"/>
</a>
</g>
</g>
<!-- Node17 -->
<g id="Node000017" class="node">
<title>Node17</title>
<g id="a_Node000017"><a xlink:href="RawPostlist_8hpp.html" target="_top" xlink:title=" ">
<polygon fill="white" stroke="#666666" points="614.5,-316 519.5,-316 519.5,-297 614.5,-297 614.5,-316"/>
<text text-anchor="middle" x="567" y="-304" font-family="Helvetica,sans-Serif" font-size="10.00">RawPostlist.hpp</text>
</a>
</g>
</g>
<!-- Node1&#45;&gt;Node17 -->
<g id="edge22_Node000001_Node000017" class="edge">
<title>Node1&#45;&gt;Node17</title>
<g id="a_edge22_Node000001_Node000017"><a xlink:title=" ">
<path fill="none" stroke="#63b8ff" d="M317.24,-353.74C374.54,-343.13 456.48,-327.96 510.67,-317.93"/>
<polygon fill="#63b8ff" stroke="#63b8ff" points="511.59,-321.32 520.79,-316.06 510.32,-314.43 511.59,-321.32"/>
</a>
</g>
</g>
<!-- Node5&#45;&gt;Node4 -->
<g id="edge7_Node000005_Node000004" class="edge">
<title>Node5&#45;&gt;Node4</title>
<g id="a_edge7_Node000005_Node000004"><a xlink:title=" ">
<path fill="none" stroke="#63b8ff" d="M181.52,-241.88C192.55,-204.21 236.04,-55.78 237,-55 280.99,-19.54 682.21,-12.2 799.77,-10.8"/>
<polygon fill="#63b8ff" stroke="#63b8ff" points="799.97,-14.3 809.93,-10.69 799.9,-7.3 799.97,-14.3"/>
</a>
</g>
</g>
<!-- Node6 -->
<g id="Node000006" class="node">
<title>Node6</title>
<g id="a_Node000006"><a xlink:title=" ">
<polygon fill="#e0e0e0" stroke="#999999" points="68,-19 0,-19 0,0 68,0 68,-19"/>
<text text-anchor="middle" x="34" y="-7" font-family="Helvetica,sans-Serif" font-size="10.00">filesystem</text>
</a>
</g>
</g>
<!-- Node5&#45;&gt;Node6 -->
<g id="edge5_Node000005_Node000006" class="edge">
<title>Node5&#45;&gt;Node6</title>
<g id="a_edge5_Node000005_Node000006"><a xlink:title=" ">
<path fill="none" stroke="#63b8ff" d="M135.41,-242.22C113.22,-235.86 87.5,-224.84 71,-206 26.45,-155.13 28.4,-67.75 31.78,-29.44"/>
<polygon fill="#63b8ff" stroke="#63b8ff" points="35.29,-29.52 32.83,-19.22 28.33,-28.81 35.29,-29.52"/>
</a>
</g>
</g>
<!-- Node7 -->
<g id="Node000007" class="node">
<title>Node7</title>
<g id="a_Node000007"><a xlink:title=" ">
<polygon fill="#e0e0e0" stroke="#999999" points="399.5,-206 342.5,-206 342.5,-187 399.5,-187 399.5,-206"/>
<text text-anchor="middle" x="371" y="-194" font-family="Helvetica,sans-Serif" font-size="10.00">ostream</text>
</a>
</g>
</g>
<!-- Node5&#45;&gt;Node7 -->
<g id="edge6_Node000005_Node000007" class="edge">
<title>Node5&#45;&gt;Node7</title>
<g id="a_edge6_Node000005_Node000007"><a xlink:title=" ">
<path fill="none" stroke="#63b8ff" d="M209.85,-241.98C243.28,-232.76 296.66,-218.02 332.74,-208.06"/>
<polygon fill="#63b8ff" stroke="#63b8ff" points="333.71,-211.42 342.42,-205.39 331.85,-204.68 333.71,-211.42"/>
</a>
</g>
</g>
<!-- Node8 -->
<g id="Node000008" class="node">
<title>Node8</title>
<g id="a_Node000008"><a xlink:href="invertedindex_2Configuration_8hpp.html" target="_top" xlink:title=" ">
<polygon fill="white" stroke="#666666" points="183.5,-206 80.5,-206 80.5,-187 183.5,-187 183.5,-206"/>
<text text-anchor="middle" x="132" y="-194" font-family="Helvetica,sans-Serif" font-size="10.00">Configuration.hpp</text>
</a>
</g>
</g>
<!-- Node5&#45;&gt;Node8 -->
<g id="edge8_Node000005_Node000008" class="edge">
<title>Node5&#45;&gt;Node8</title>
<g id="a_edge8_Node000005_Node000008"><a xlink:title=" ">
<path fill="none" stroke="#63b8ff" d="M171.24,-241.75C164.53,-234.18 154.66,-223.05 146.49,-213.84"/>
<polygon fill="#63b8ff" stroke="#63b8ff" points="148.87,-211.25 139.62,-206.09 143.63,-215.89 148.87,-211.25"/>
</a>
</g>
</g>
<!-- Node8&#45;&gt;Node6 -->
<g id="edge10_Node000008_Node000006" class="edge">
<title>Node8&#45;&gt;Node6</title>
<g id="a_edge10_Node000008_Node000006"><a xlink:title=" ">
<path fill="none" stroke="#63b8ff" d="M118.49,-186.79C107.03,-178.76 90.91,-165.86 81,-151 55.04,-112.07 42.24,-57.51 37.01,-29.2"/>
<polygon fill="#63b8ff" stroke="#63b8ff" points="40.41,-28.36 35.26,-19.1 33.52,-29.55 40.41,-28.36"/>
</a>
</g>
</g>
<!-- Node9 -->
<g id="Node000009" class="node">
<title>Node9</title>
<g id="a_Node000009"><a xlink:title=" ">
<polygon fill="#e0e0e0" stroke="#999999" points="157,-19 107,-19 107,0 157,0 157,-19"/>
<text text-anchor="middle" x="132" y="-7" font-family="Helvetica,sans-Serif" font-size="10.00">cstdint</text>
</a>
</g>
</g>
<!-- Node8&#45;&gt;Node9 -->
<g id="edge9_Node000008_Node000009" class="edge">
<title>Node8&#45;&gt;Node9</title>
<g id="a_edge9_Node000008_Node000009"><a xlink:title=" ">
<path fill="none" stroke="#63b8ff" d="M124.96,-186.74C111.14,-168.89 80.85,-126.5 70,-85 66.63,-72.1 63.91,-66.86 70,-55 76.96,-41.44 90.19,-31.07 102.65,-23.78"/>
<polygon fill="#63b8ff" stroke="#63b8ff" points="104.35,-26.84 111.48,-19 101.02,-20.68 104.35,-26.84"/>
</a>
</g>
</g>
<!-- Node10 -->
<g id="Node000010" class="node">
<title>Node10</title>
<g id="a_Node000010"><a xlink:href="conversion_8hpp.html" target="_top" xlink:title=" ">
<polygon fill="white" stroke="#666666" points="462.5,-145.5 343.5,-145.5 343.5,-126.5 462.5,-126.5 462.5,-145.5"/>
<text text-anchor="middle" x="403" y="-133.5" font-family="Helvetica,sans-Serif" font-size="10.00">../util/conversion.hpp</text>
</a>
</g>
</g>
<!-- Node8&#45;&gt;Node10 -->
<g id="edge11_Node000008_Node000010" class="edge">
<title>Node8&#45;&gt;Node10</title>
<g id="a_edge11_Node000008_Node000010"><a xlink:title=" ">
<path fill="none" stroke="#63b8ff" d="M171.41,-186.99C219.57,-176.6 301.12,-158.99 353.48,-147.69"/>
<polygon fill="#63b8ff" stroke="#63b8ff" points="354.51,-151.05 363.55,-145.52 353.03,-144.21 354.51,-151.05"/>
</a>
</g>
</g>
<!-- Node16 -->
<g id="Node000016" class="node">
<title>Node16</title>
<g id="a_Node000016"><a xlink:href="memory_8hpp.html" target="_top" xlink:title=" ">
<polygon fill="white" stroke="#666666" points="184.5,-79.5 79.5,-79.5 79.5,-60.5 184.5,-60.5 184.5,-79.5"/>
<text text-anchor="middle" x="132" y="-67.5" font-family="Helvetica,sans-Serif" font-size="10.00">../util/memory.hpp</text>
</a>
</g>
</g>
<!-- Node8&#45;&gt;Node16 -->
<g id="edge19_Node000008_Node000016" class="edge">
<title>Node8&#45;&gt;Node16</title>
<g id="a_edge19_Node000008_Node000016"><a xlink:title=" ">
<path fill="none" stroke="#63b8ff" d="M132,-186.94C132,-167.04 132,-117.26 132,-89.85"/>
<polygon fill="#63b8ff" stroke="#63b8ff" points="135.5,-89.62 132,-79.62 128.5,-89.62 135.5,-89.62"/>
</a>
</g>
</g>
<!-- Node10&#45;&gt;Node3 -->
<g id="edge15_Node000010_Node000003" class="edge">
<title>Node10&#45;&gt;Node3</title>
<g id="a_edge15_Node000010_Node000003"><a xlink:title=" ">
<path fill="none" stroke="#63b8ff" d="M424.98,-126.37C453.25,-115.27 502.54,-95.92 534.71,-83.28"/>
<polygon fill="#63b8ff" stroke="#63b8ff" points="536.08,-86.51 544.11,-79.6 533.52,-79.99 536.08,-86.51"/>
</a>
</g>
</g>
<!-- Node10&#45;&gt;Node4 -->
<g id="edge18_Node000010_Node000004" class="edge">
<title>Node10&#45;&gt;Node4</title>
<g id="a_edge18_Node000010_Node000004"><a xlink:title=" ">
<path fill="none" stroke="#63b8ff" d="M397.41,-126.26C387.79,-110.04 370.84,-75.08 389,-55 416.49,-24.61 702.39,-14.03 799.74,-11.3"/>
<polygon fill="#63b8ff" stroke="#63b8ff" points="799.97,-14.79 809.87,-11.02 799.78,-7.8 799.97,-14.79"/>
</a>
</g>
</g>
<!-- Node11 -->
<g id="Node000011" class="node">
<title>Node11</title>
<g id="a_Node000011"><a xlink:title=" ">
<polygon fill="#e0e0e0" stroke="#999999" points="337,-79.5 279,-79.5 279,-60.5 337,-60.5 337,-79.5"/>
<text text-anchor="middle" x="308" y="-67.5" font-family="Helvetica,sans-Serif" font-size="10.00">cxxabi.h</text>
</a>
</g>
</g>
<!-- Node10&#45;&gt;Node11 -->
<g id="edge12_Node000010_Node000011" class="edge">
<title>Node10&#45;&gt;Node11</title>
<g id="a_edge12_Node000010_Node000011"><a xlink:title=" ">
<path fill="none" stroke="#63b8ff" d="M390.19,-126.37C374.61,-115.87 348.07,-98 329.38,-85.4"/>
<polygon fill="#63b8ff" stroke="#63b8ff" points="331.16,-82.38 320.91,-79.7 327.25,-88.19 331.16,-82.38"/>
</a>
</g>
</g>
<!-- Node12 -->
<g id="Node000012" class="node">
<title>Node12</title>
<g id="a_Node000012"><a xlink:title=" ">
<polygon fill="#e0e0e0" stroke="#999999" points="518.5,-79.5 469.5,-79.5 469.5,-60.5 518.5,-60.5 518.5,-79.5"/>
<text text-anchor="middle" x="494" y="-67.5" font-family="Helvetica,sans-Serif" font-size="10.00">cstdlib</text>
</a>
</g>
</g>
<!-- Node10&#45;&gt;Node12 -->
<g id="edge13_Node000010_Node000012" class="edge">
<title>Node10&#45;&gt;Node12</title>
<g id="a_edge13_Node000010_Node000012"><a xlink:title=" ">
<path fill="none" stroke="#63b8ff" d="M415.27,-126.37C430.06,-115.97 455.15,-98.32 473.03,-85.75"/>
<polygon fill="#63b8ff" stroke="#63b8ff" points="475.46,-88.31 481.63,-79.7 471.44,-82.59 475.46,-88.31"/>
</a>
</g>
</g>
<!-- Node13 -->
<g id="Node000013" class="node">
<title>Node13</title>
<g id="a_Node000013"><a xlink:title=" ">
<polygon fill="#e0e0e0" stroke="#999999" points="1498,-19 1448,-19 1448,0 1498,0 1498,-19"/>
<text text-anchor="middle" x="1473" y="-7" font-family="Helvetica,sans-Serif" font-size="10.00">format</text>
</a>
</g>
</g>
<!-- Node10&#45;&gt;Node13 -->
<g id="edge14_Node000010_Node000013" class="edge">
<title>Node10&#45;&gt;Node13</title>
<g id="a_edge14_Node000010_Node000013"><a xlink:title=" ">
<path fill="none" stroke="#63b8ff" d="M406.29,-126.24C413.31,-108.97 431.54,-70.85 461,-55 504.85,-31.4 1263.36,-14.73 1437.55,-11.2"/>
<polygon fill="#63b8ff" stroke="#63b8ff" points="1437.78,-14.69 1447.71,-10.99 1437.64,-7.69 1437.78,-14.69"/>
</a>
</g>
</g>
<!-- Node14 -->
<g id="Node000014" class="node">
<title>Node14</title>
<g id="a_Node000014"><a xlink:title=" ">
<polygon fill="#e0e0e0" stroke="#999999" points="1325,-79.5 1269,-79.5 1269,-60.5 1325,-60.5 1325,-79.5"/>
<text text-anchor="middle" x="1297" y="-67.5" font-family="Helvetica,sans-Serif" font-size="10.00">sstream</text>
</a>
</g>
</g>
<!-- Node10&#45;&gt;Node14 -->
<g id="edge16_Node000010_Node000014" class="edge">
<title>Node10&#45;&gt;Node14</title>
<g id="a_edge16_Node000010_Node000014"><a xlink:title=" ">
<path fill="none" stroke="#63b8ff" d="M462.58,-133.88C597.99,-130.79 939.06,-119.91 1222,-85 1234.1,-83.51 1247.19,-81.28 1259,-79.04"/>
<polygon fill="#63b8ff" stroke="#63b8ff" points="1259.85,-82.44 1268.99,-77.08 1258.51,-75.57 1259.85,-82.44"/>
</a>
</g>
</g>
<!-- Node15 -->
<g id="Node000015" class="node">
<title>Node15</title>
<g id="a_Node000015"><a xlink:title=" ">
<polygon fill="#e0e0e0" stroke="#999999" points="1055.5,-19 990.5,-19 990.5,0 1055.5,0 1055.5,-19"/>
<text text-anchor="middle" x="1023" y="-7" font-family="Helvetica,sans-Serif" font-size="10.00">stdexcept</text>
</a>
</g>
</g>
<!-- Node10&#45;&gt;Node15 -->
<g id="edge17_Node000010_Node000015" class="edge">
<title>Node10&#45;&gt;Node15</title>
<g id="a_edge17_Node000010_Node000015"><a xlink:title=" ">
<path fill="none" stroke="#63b8ff" d="M402.68,-126.3C402.6,-109.48 405.07,-72.62 427,-55 437.79,-46.33 845,-21.18 980.01,-13.06"/>
<polygon fill="#63b8ff" stroke="#63b8ff" points="980.59,-16.53 990.36,-12.44 980.17,-9.54 980.59,-16.53"/>
</a>
</g>
</g>
<!-- Node16&#45;&gt;Node4 -->
<g id="edge21_Node000016_Node000004" class="edge">
<title>Node16&#45;&gt;Node4</title>
<g id="a_edge21_Node000016_Node000004"><a xlink:title=" ">
<path fill="none" stroke="#63b8ff" d="M168.35,-60.47C178.25,-58.4 189,-56.39 199,-55 427.56,-23.24 705.86,-13.66 799.5,-11.23"/>
<polygon fill="#63b8ff" stroke="#63b8ff" points="799.83,-14.72 809.74,-10.97 799.66,-7.72 799.83,-14.72"/>
</a>
</g>
</g>
<!-- Node16&#45;&gt;Node9 -->
<g id="edge20_Node000016_Node000009" class="edge">
<title>Node16&#45;&gt;Node9</title>
<g id="a_edge20_Node000016_Node000009"><a xlink:title=" ">
<path fill="none" stroke="#63b8ff" d="M132,-60.37C132,-52.25 132,-39.81 132,-29.39"/>
<polygon fill="#63b8ff" stroke="#63b8ff" points="135.5,-29.17 132,-19.17 128.5,-29.17 135.5,-29.17"/>
</a>
</g>
</g>
<!-- Node17&#45;&gt;Node3 -->
<g id="edge23_Node000017_Node000003" class="edge">
<title>Node17&#45;&gt;Node3</title>
<g id="a_edge23_Node000017_Node000003"><a xlink:title=" ">
<path fill="none" stroke="#63b8ff" d="M566.96,-296.88C566.82,-262.98 566.29,-138.43 566.08,-90.22"/>
<polygon fill="#63b8ff" stroke="#63b8ff" points="569.58,-89.94 566.04,-79.95 562.58,-89.97 569.58,-89.94"/>
</a>
</g>
</g>
<!-- Node18 -->
<g id="Node000018" class="node">
<title>Node18</title>
<g id="a_Node000018"><a xlink:href="Iterator_8hpp.html" target="_top" xlink:title=" ">
<polygon fill="white" stroke="#666666" points="802.5,-261 729.5,-261 729.5,-242 802.5,-242 802.5,-261"/>
<text text-anchor="middle" x="766" y="-249" font-family="Helvetica,sans-Serif" font-size="10.00">Iterator.hpp</text>
</a>
</g>
</g>
<!-- Node17&#45;&gt;Node18 -->
<g id="edge24_Node000017_Node000018" class="edge">
<title>Node17&#45;&gt;Node18</title>
<g id="a_edge24_Node000017_Node000018"><a xlink:title=" ">
<path fill="none" stroke="#63b8ff" d="M598.97,-296.98C632.82,-287.97 686.4,-273.7 723.71,-263.76"/>
<polygon fill="#63b8ff" stroke="#63b8ff" points="725.01,-267.04 733.78,-261.08 723.21,-260.27 725.01,-267.04"/>
</a>
</g>
</g>
<!-- Node18&#45;&gt;Node7 -->
<g id="edge26_Node000018_Node000007" class="edge">
<title>Node18&#45;&gt;Node7</title>
<g id="a_edge26_Node000018_Node000007"><a xlink:title=" ">
<path fill="none" stroke="#63b8ff" d="M729.19,-245.56C654.56,-235.55 486.05,-212.94 409.79,-202.7"/>
<polygon fill="#63b8ff" stroke="#63b8ff" points="410.04,-199.21 399.66,-201.35 409.11,-206.14 410.04,-199.21"/>
</a>
</g>
</g>
<!-- Node19 -->
<g id="Node000019" class="node">
<title>Node19</title>
<g id="a_Node000019"><a xlink:title=" ">
<polygon fill="#e0e0e0" stroke="#999999" points="724,-206 668,-206 668,-187 724,-187 724,-206"/>
<text text-anchor="middle" x="696" y="-194" font-family="Helvetica,sans-Serif" font-size="10.00">numeric</text>
</a>
</g>
</g>
<!-- Node18&#45;&gt;Node19 -->
<g id="edge25_Node000018_Node000019" class="edge">
<title>Node18&#45;&gt;Node19</title>
<g id="a_edge25_Node000018_Node000019"><a xlink:title=" ">
<path fill="none" stroke="#63b8ff" d="M754.75,-241.98C744.2,-234 728.2,-221.88 715.56,-212.31"/>
<polygon fill="#63b8ff" stroke="#63b8ff" points="717.54,-209.42 707.45,-206.17 713.31,-215 717.54,-209.42"/>
</a>
</g>
</g>
<!-- Node20 -->
<g id="Node000020" class="node">
<title>Node20</title>
<g id="a_Node000020"><a xlink:title=" ">
<polygon fill="#e0e0e0" stroke="#999999" points="789.5,-206 742.5,-206 742.5,-187 789.5,-187 789.5,-206"/>
<text text-anchor="middle" x="766" y="-194" font-family="Helvetica,sans-Serif" font-size="10.00">vector</text>
</a>
</g>
</g>
<!-- Node18&#45;&gt;Node20 -->
<g id="edge27_Node000018_Node000020" class="edge">
<title>Node18&#45;&gt;Node20</title>
<g id="a_edge27_Node000018_Node000020"><a xlink:title=" ">
<path fill="none" stroke="#63b8ff" d="M766,-241.75C766,-234.8 766,-224.85 766,-216.13"/>
<polygon fill="#63b8ff" stroke="#63b8ff" points="769.5,-216.09 766,-206.09 762.5,-216.09 769.5,-216.09"/>
</a>
</g>
</g>
<!-- Node21 -->
<g id="Node000021" class="node">
<title>Node21</title>
<g id="a_Node000021"><a xlink:title=" ">
<polygon fill="#e0e0e0" stroke="#999999" points="941.5,-206 846.5,-206 846.5,-187 941.5,-187 941.5,-206"/>
<text text-anchor="middle" x="894" y="-194" font-family="Helvetica,sans-Serif" font-size="10.00">boost/utility.hpp</text>
</a>
</g>
</g>
<!-- Node18&#45;&gt;Node21 -->
<g id="edge28_Node000018_Node000021" class="edge">
<title>Node18&#45;&gt;Node21</title>
<g id="a_edge28_Node000018_Node000021"><a xlink:title=" ">
<path fill="none" stroke="#63b8ff" d="M786.57,-241.98C807.43,-233.34 839.97,-219.87 863.77,-210.02"/>
<polygon fill="#63b8ff" stroke="#63b8ff" points="865.16,-213.23 873.06,-206.17 862.48,-206.76 865.16,-213.23"/>
</a>
</g>
</g>
<!-- Node22 -->
<g id="Node000022" class="node">
<title>Node22</title>
<g id="a_Node000022"><a xlink:href="systemio_8hpp.html" target="_top" xlink:title=" ">
<polygon fill="white" stroke="#666666" points="946,-145.5 836,-145.5 836,-126.5 946,-126.5 946,-145.5"/>
<text text-anchor="middle" x="891" y="-133.5" font-family="Helvetica,sans-Serif" font-size="10.00">../util/systemio.hpp</text>
</a>
</g>
</g>
<!-- Node18&#45;&gt;Node22 -->
<g id="edge29_Node000018_Node000022" class="edge">
<title>Node18&#45;&gt;Node22</title>
<g id="a_edge29_Node000018_Node000022"><a xlink:title=" ">
<path fill="none" stroke="#63b8ff" d="M775.4,-241.97C796.39,-222.91 847.35,-176.63 874.05,-152.39"/>
<polygon fill="#63b8ff" stroke="#63b8ff" points="876.45,-154.94 881.5,-145.63 871.74,-149.76 876.45,-154.94"/>
</a>
</g>
</g>
<!-- Node27 -->
<g id="Node000027" class="node">
<title>Node27</title>
<g id="a_Node000027"><a xlink:href="ByteBuffer_8hpp.html" target="_top" xlink:title=" ">
<polygon fill="white" stroke="#666666" points="1285.5,-206 1196.5,-206 1196.5,-187 1285.5,-187 1285.5,-206"/>
<text text-anchor="middle" x="1241" y="-194" font-family="Helvetica,sans-Serif" font-size="10.00">ByteBuffer.hpp</text>
</a>
</g>
</g>
<!-- Node18&#45;&gt;Node27 -->
<g id="edge40_Node000018_Node000027" class="edge">
<title>Node18&#45;&gt;Node27</title>
<g id="a_edge40_Node000018_Node000027"><a xlink:title=" ">
<path fill="none" stroke="#63b8ff" d="M802.88,-246.39C886.03,-237.11 1088.51,-214.51 1186.33,-203.6"/>
<polygon fill="#63b8ff" stroke="#63b8ff" points="1186.76,-207.07 1196.31,-202.49 1185.98,-200.12 1186.76,-207.07"/>
</a>
</g>
</g>
<!-- Node22&#45;&gt;Node6 -->
<g id="edge33_Node000022_Node000006" class="edge">
<title>Node22&#45;&gt;Node6</title>
<g id="a_edge33_Node000022_Node000006"><a xlink:title=" ">
<path fill="none" stroke="#63b8ff" d="M835.97,-126.89C773.75,-117.19 676.73,-100.36 643,-85 623.1,-75.94 624.44,-62.77 604,-55 498.63,-14.93 210.15,-30.43 98,-19 91.63,-18.35 84.92,-17.57 78.34,-16.75"/>
<polygon fill="#63b8ff" stroke="#63b8ff" points="78.53,-13.24 68.17,-15.43 77.63,-20.18 78.53,-13.24"/>
</a>
</g>
</g>
<!-- Node22&#45;&gt;Node13 -->
<g id="edge34_Node000022_Node000013" class="edge">
<title>Node22&#45;&gt;Node13</title>
<g id="a_edge34_Node000022_Node000013"><a xlink:title=" ">
<path fill="none" stroke="#63b8ff" d="M903.66,-126.42C929.37,-109.48 990.11,-71.91 1047,-55 1187.29,-13.29 1363.67,-9.41 1437.72,-9.85"/>
<polygon fill="#63b8ff" stroke="#63b8ff" points="1437.86,-13.35 1447.89,-9.94 1437.92,-6.35 1437.86,-13.35"/>
</a>
</g>
</g>
<!-- Node22&#45;&gt;Node15 -->
<g id="edge39_Node000022_Node000015" class="edge">
<title>Node22&#45;&gt;Node15</title>
<g id="a_edge39_Node000022_Node000015"><a xlink:title=" ">
<path fill="none" stroke="#63b8ff" d="M899.2,-126.37C913.46,-111.47 943.9,-80.08 971,-55 981.9,-44.91 994.56,-34.07 1004.65,-25.61"/>
<polygon fill="#63b8ff" stroke="#63b8ff" points="1006.98,-28.22 1012.43,-19.13 1002.51,-22.84 1006.98,-28.22"/>
</a>
</g>
</g>
<!-- Node23 -->
<g id="Node000023" class="node">
<title>Node23</title>
<g id="a_Node000023"><a xlink:title=" ">
<polygon fill="#e0e0e0" stroke="#999999" points="919,-79.5 863,-79.5 863,-60.5 919,-60.5 919,-79.5"/>
<text text-anchor="middle" x="891" y="-67.5" font-family="Helvetica,sans-Serif" font-size="10.00">assert.h</text>
</a>
</g>
</g>
<!-- Node22&#45;&gt;Node23 -->
<g id="edge30_Node000022_Node000023" class="edge">
<title>Node22&#45;&gt;Node23</title>
<g id="a_edge30_Node000022_Node000023"><a xlink:title=" ">
<path fill="none" stroke="#63b8ff" d="M891,-126.37C891,-117.16 891,-102.29 891,-90.27"/>
<polygon fill="#63b8ff" stroke="#63b8ff" points="894.5,-89.91 891,-79.91 887.5,-89.91 894.5,-89.91"/>
</a>
</g>
</g>
<!-- Node24 -->
<g id="Node000024" class="node">
<title>Node24</title>
<g id="a_Node000024"><a xlink:title=" ">
<polygon fill="#e0e0e0" stroke="#999999" points="845,-79.5 795,-79.5 795,-60.5 845,-60.5 845,-79.5"/>
<text text-anchor="middle" x="820" y="-67.5" font-family="Helvetica,sans-Serif" font-size="10.00">climits</text>
</a>
</g>
</g>
<!-- Node22&#45;&gt;Node24 -->
<g id="edge31_Node000022_Node000024" class="edge">
<title>Node22&#45;&gt;Node24</title>
<g id="a_edge31_Node000022_Node000024"><a xlink:title=" ">
<path fill="none" stroke="#63b8ff" d="M881.42,-126.37C870.16,-116.21 851.24,-99.16 837.37,-86.65"/>
<polygon fill="#63b8ff" stroke="#63b8ff" points="839.65,-84 829.88,-79.91 834.96,-89.2 839.65,-84"/>
</a>
</g>
</g>
<!-- Node25 -->
<g id="Node000025" class="node">
<title>Node25</title>
<g id="a_Node000025"><a xlink:title=" ">
<polygon fill="#e0e0e0" stroke="#999999" points="1572,-19 1522,-19 1522,0 1572,0 1572,-19"/>
<text text-anchor="middle" x="1547" y="-7" font-family="Helvetica,sans-Serif" font-size="10.00">cstring</text>
</a>
</g>
</g>
<!-- Node22&#45;&gt;Node25 -->
<g id="edge32_Node000022_Node000025" class="edge">
<title>Node22&#45;&gt;Node25</title>
<g id="a_edge32_Node000022_Node000025"><a xlink:title=" ">
<path fill="none" stroke="#63b8ff" d="M914.29,-126.43C967.97,-106.71 1097.39,-59.51 1118,-55 1287.61,-17.86 1335.34,-45.09 1507,-19 1508.49,-18.77 1510.01,-18.53 1511.54,-18.26"/>
<polygon fill="#63b8ff" stroke="#63b8ff" points="1512.51,-21.64 1521.69,-16.35 1511.21,-14.76 1512.51,-21.64"/>
</a>
</g>
</g>
<!-- Node26 -->
<g id="Node000026" class="node">
<title>Node26</title>
<g id="a_Node000026"><a xlink:href="std__path__formatter_8hpp.html" target="_top" xlink:title="Defines an std::formatter for std::filesystem::path. MUST be deleted when C++26 is available with tha...">
<polygon fill="white" stroke="#666666" points="776.5,-85 651.5,-85 651.5,-55 776.5,-55 776.5,-85"/>
<text text-anchor="start" x="659.5" y="-73" font-family="Helvetica,sans-Serif" font-size="10.00">netspeak/util/std_path</text>
<text text-anchor="middle" x="714" y="-62" font-family="Helvetica,sans-Serif" font-size="10.00">_formatter.hpp</text>
</a>
</g>
</g>
<!-- Node22&#45;&gt;Node26 -->
<g id="edge35_Node000022_Node000026" class="edge">
<title>Node22&#45;&gt;Node26</title>
<g id="a_edge35_Node000022_Node000026"><a xlink:title=" ">
<path fill="none" stroke="#63b8ff" d="M867.13,-126.37C840.5,-116.74 796.72,-100.91 762.78,-88.64"/>
<polygon fill="#63b8ff" stroke="#63b8ff" points="763.63,-85.22 753.04,-85.12 761.25,-91.81 763.63,-85.22"/>
</a>
</g>
</g>
<!-- Node26&#45;&gt;Node4 -->
<g id="edge38_Node000026_Node000004" class="edge">
<title>Node26&#45;&gt;Node4</title>
<g id="a_edge38_Node000026_Node000004"><a xlink:title=" ">
<path fill="none" stroke="#63b8ff" d="M742.26,-54.99C761.42,-45.49 786.58,-33.02 805.39,-23.69"/>
<polygon fill="#63b8ff" stroke="#63b8ff" points="807.17,-26.72 814.57,-19.14 804.06,-20.45 807.17,-26.72"/>
</a>
</g>
</g>
<!-- Node26&#45;&gt;Node6 -->
<g id="edge36_Node000026_Node000006" class="edge">
<title>Node26&#45;&gt;Node6</title>
<g id="a_edge36_Node000026_Node000006"><a xlink:title=" ">
<path fill="none" stroke="#63b8ff" d="M651.48,-57.02C646.59,-56.27 641.72,-55.58 637,-55 398.73,-25.48 336.9,-42.82 98,-19 91.63,-18.37 84.92,-17.59 78.34,-16.77"/>
<polygon fill="#63b8ff" stroke="#63b8ff" points="78.53,-13.27 68.16,-15.46 77.63,-20.21 78.53,-13.27"/>
</a>
</g>
</g>
<!-- Node26&#45;&gt;Node13 -->
<g id="edge37_Node000026_Node000013" class="edge">
<title>Node26&#45;&gt;Node13</title>
<g id="a_edge37_Node000026_Node000013"><a xlink:title=" ">
<path fill="none" stroke="#63b8ff" d="M776.75,-56.31C779.87,-55.83 782.97,-55.39 786,-55 1034.43,-22.93 1336.55,-13.55 1437.94,-11.2"/>
<polygon fill="#63b8ff" stroke="#63b8ff" points="1438.02,-14.69 1447.93,-10.97 1437.86,-7.7 1438.02,-14.69"/>
</a>
</g>
</g>
<!-- Node27&#45;&gt;Node3 -->
<g id="edge44_Node000027_Node000003" class="edge">
<title>Node27&#45;&gt;Node3</title>
<g id="a_edge44_Node000027_Node000003"><a xlink:title=" ">
<path fill="none" stroke="#63b8ff" d="M1196.47,-193.45C1120.17,-189.32 959.83,-178 827,-151 742.88,-133.9 647.15,-100.95 598.34,-83.14"/>
<polygon fill="#63b8ff" stroke="#63b8ff" points="599.25,-79.75 588.66,-79.58 596.83,-86.32 599.25,-79.75"/>
</a>
</g>
</g>
<!-- Node27&#45;&gt;Node12 -->
<g id="edge41_Node000027_Node000012" class="edge">
<title>Node27&#45;&gt;Node12</title>
<g id="a_edge41_Node000027_Node000012"><a xlink:title=" ">
<path fill="none" stroke="#63b8ff" d="M1196.36,-195.57C1104.83,-194.87 889.69,-188.93 714,-151 642.43,-135.55 562.65,-102.23 521.65,-83.84"/>
<polygon fill="#63b8ff" stroke="#63b8ff" points="522.88,-80.55 512.33,-79.61 519.99,-86.93 522.88,-80.55"/>
</a>
</g>
</g>
<!-- Node27&#45;&gt;Node13 -->
<g id="edge43_Node000027_Node000013" class="edge">
<title>Node27&#45;&gt;Node13</title>
<g id="a_edge43_Node000027_Node000013"><a xlink:title=" ">
<path fill="none" stroke="#63b8ff" d="M1285.67,-194.62C1382.78,-192.13 1620.1,-183.02 1816,-151 1934.51,-131.63 2004.18,-179.72 2078,-85 2155.7,14.71 1638.23,-36.2 1513,-19 1511.51,-18.79 1509.98,-18.56 1508.45,-18.32"/>
<polygon fill="#63b8ff" stroke="#63b8ff" points="1508.76,-14.82 1498.29,-16.46 1507.5,-21.7 1508.76,-14.82"/>
</a>
</g>
</g>
<!-- Node27&#45;&gt;Node15 -->
<g id="edge45_Node000027_Node000015" class="edge">
<title>Node27&#45;&gt;Node15</title>
<g id="a_edge45_Node000027_Node000015"><a xlink:title=" ">
<path fill="none" stroke="#63b8ff" d="M1228.58,-186.98C1216.06,-178.28 1196.31,-164.19 1180,-151 1126.68,-107.87 1067.25,-52.55 1039.26,-26.03"/>
<polygon fill="#63b8ff" stroke="#63b8ff" points="1041.58,-23.42 1031.92,-19.06 1036.76,-28.49 1041.58,-23.42"/>
</a>
</g>
</g>
<!-- Node27&#45;&gt;Node22 -->
<g id="edge46_Node000027_Node000022" class="edge">
<title>Node27&#45;&gt;Node22</title>
<g id="a_edge46_Node000027_Node000022"><a xlink:title=" ">
<path fill="none" stroke="#63b8ff" d="M1196.32,-188.03C1134.22,-177.65 1021.64,-158.83 951.9,-147.18"/>
<polygon fill="#63b8ff" stroke="#63b8ff" points="952.37,-143.71 941.93,-145.51 951.22,-150.61 952.37,-143.71"/>
</a>
</g>
</g>
<!-- Node27&#45;&gt;Node25 -->
<g id="edge42_Node000027_Node000025" class="edge">
<title>Node27&#45;&gt;Node25</title>
<g id="a_edge42_Node000027_Node000025"><a xlink:title=" ">
<path fill="none" stroke="#63b8ff" d="M1285.81,-194.66C1419.93,-191.83 1816.6,-181.07 1942,-151 2014.02,-133.73 2054.31,-146.87 2095,-85 2102.33,-73.86 2104.09,-64.75 2095,-55 2056.04,-13.21 1638.46,-27.77 1582,-19 1581.9,-18.98 1581.8,-18.97 1581.7,-18.95"/>
<polygon fill="#63b8ff" stroke="#63b8ff" points="1582.61,-15.56 1572.13,-17.14 1581.31,-22.44 1582.61,-15.56"/>
</a>
</g>
</g>
<!-- Node28 -->
<g id="Node000028" class="node">
<title>Node28</title>
<g id="a_Node000028"><a xlink:href="pair__traits_8hpp.html" target="_top" xlink:title=" ">
<polygon fill="white" stroke="#666666" points="1629,-145.5 1503,-145.5 1503,-126.5 1629,-126.5 1629,-145.5"/>
<text text-anchor="middle" x="1566" y="-133.5" font-family="Helvetica,sans-Serif" font-size="10.00">../value/pair_traits.hpp</text>
</a>
</g>
</g>
<!-- Node27&#45;&gt;Node28 -->
<g id="edge47_Node000027_Node000028" class="edge">
<title>Node27&#45;&gt;Node28</title>
<g id="a_edge47_Node000027_Node000028"><a xlink:title=" ">
<path fill="none" stroke="#63b8ff" d="M1285.51,-187.49C1343.51,-177.05 1445.03,-158.77 1508.72,-147.31"/>
<polygon fill="#63b8ff" stroke="#63b8ff" points="1509.38,-150.75 1518.61,-145.53 1508.14,-143.86 1509.38,-150.75"/>
</a>
</g>
</g>
<!-- Node34 -->
<g id="Node000034" class="node">
<title>Node34</title>
<g id="a_Node000034"><a xlink:href="quadruple__traits_8hpp.html" target="_top" xlink:title=" ">
<polygon fill="white" stroke="#666666" points="1293,-151 1189,-151 1189,-121 1293,-121 1293,-151"/>
<text text-anchor="start" x="1197" y="-139" font-family="Helvetica,sans-Serif" font-size="10.00">../value/quadruple</text>
<text text-anchor="middle" x="1241" y="-128" font-family="Helvetica,sans-Serif" font-size="10.00">_traits.hpp</text>
</a>
</g>
</g>
<!-- Node27&#45;&gt;Node34 -->
<g id="edge61_Node000027_Node000034" class="edge">
<title>Node27&#45;&gt;Node34</title>
<g id="a_edge61_Node000027_Node000034"><a xlink:title=" ">
<path fill="none" stroke="#63b8ff" d="M1241,-186.87C1241,-180.11 1241,-170.35 1241,-161.26"/>
<polygon fill="#63b8ff" stroke="#63b8ff" points="1244.5,-161.11 1241,-151.11 1237.5,-161.11 1244.5,-161.11"/>
</a>
</g>
</g>
<!-- Node36 -->
<g id="Node000036" class="node">
<title>Node36</title>
<g id="a_Node000036"><a xlink:href="string__traits_8hpp.html" target="_top" xlink:title=" ">
<polygon fill="white" stroke="#666666" points="1806.5,-145.5 1671.5,-145.5 1671.5,-126.5 1806.5,-126.5 1806.5,-145.5"/>
<text text-anchor="middle" x="1739" y="-133.5" font-family="Helvetica,sans-Serif" font-size="10.00">../value/string_traits.hpp</text>
</a>
</g>
</g>
<!-- Node27&#45;&gt;Node36 -->
<g id="edge67_Node000027_Node000036" class="edge">
<title>Node27&#45;&gt;Node36</title>
<g id="a_edge67_Node000027_Node000036"><a xlink:title=" ">
<path fill="none" stroke="#63b8ff" d="M1285.7,-190.87C1359.24,-183.18 1510.34,-167 1638,-151 1648.18,-149.72 1658.93,-148.31 1669.47,-146.88"/>
<polygon fill="#63b8ff" stroke="#63b8ff" points="1670.05,-150.33 1679.49,-145.51 1669.1,-143.4 1670.05,-150.33"/>
</a>
</g>
</g>
<!-- Node39 -->
<g id="Node000039" class="node">
<title>Node39</title>
<g id="a_Node000039"><a xlink:href="triple__traits_8hpp.html" target="_top" xlink:title=" ">
<polygon fill="white" stroke="#666666" points="1461.5,-145.5 1328.5,-145.5 1328.5,-126.5 1461.5,-126.5 1461.5,-145.5"/>
<text text-anchor="middle" x="1395" y="-133.5" font-family="Helvetica,sans-Serif" font-size="10.00">../value/triple_traits.hpp</text>
</a>
</g>
</g>
<!-- Node27&#45;&gt;Node39 -->
<g id="edge74_Node000027_Node000039" class="edge">
<title>Node27&#45;&gt;Node39</title>
<g id="a_edge74_Node000027_Node000039"><a xlink:title=" ">
<path fill="none" stroke="#63b8ff" d="M1263.39,-186.99C1289.62,-177.03 1333.28,-160.45 1363.06,-149.13"/>
<polygon fill="#63b8ff" stroke="#63b8ff" points="1364.47,-152.34 1372.58,-145.52 1361.99,-145.8 1364.47,-152.34"/>
</a>
</g>
</g>
<!-- Node28&#45;&gt;Node4 -->
<g id="edge60_Node000028_Node000004" class="edge">
<title>Node28&#45;&gt;Node4</title>
<g id="a_edge60_Node000028_Node000004"><a xlink:title=" ">
<path fill="none" stroke="#63b8ff" d="M1557.69,-126.49C1540.31,-109.34 1498.06,-70.88 1454,-55 1426.04,-44.93 988.27,-19.39 864.42,-12.33"/>
<polygon fill="#63b8ff" stroke="#63b8ff" points="864.26,-8.82 854.08,-11.74 863.87,-15.8 864.26,-8.82"/>
</a>
</g>
</g>
<!-- Node28&#45;&gt;Node13 -->
<g id="edge58_Node000028_Node000013" class="edge">
<title>Node28&#45;&gt;Node13</title>
<g id="a_edge58_Node000028_Node000013"><a xlink:title=" ">
<path fill="none" stroke="#63b8ff" d="M1600.11,-126.46C1643.36,-114.02 1709.24,-88.66 1682,-55 1681.91,-54.89 1567.86,-30.65 1508.3,-18"/>
<polygon fill="#63b8ff" stroke="#63b8ff" points="1508.71,-14.51 1498.2,-15.85 1507.25,-21.35 1508.71,-14.51"/>
</a>
</g>
</g>
<!-- Node28&#45;&gt;Node14 -->
<g id="edge59_Node000028_Node000014" class="edge">
<title>Node28&#45;&gt;Node14</title>
<g id="a_edge59_Node000028_Node000014"><a xlink:title=" ">
<path fill="none" stroke="#63b8ff" d="M1530,-126.44C1479.13,-114.33 1386.65,-92.33 1334.82,-80"/>
<polygon fill="#63b8ff" stroke="#63b8ff" points="1335.55,-76.58 1325.02,-77.67 1333.93,-83.38 1335.55,-76.58"/>
</a>
</g>
</g>
<!-- Node29 -->
<g id="Node000029" class="node">
<title>Node29</title>
<g id="a_Node000029"><a xlink:href="pair_8hpp.html" target="_top" xlink:title=" ">
<polygon fill="white" stroke="#666666" points="1861,-79.5 1805,-79.5 1805,-60.5 1861,-60.5 1861,-79.5"/>
<text text-anchor="middle" x="1833" y="-67.5" font-family="Helvetica,sans-Serif" font-size="10.00">pair.hpp</text>
</a>
</g>
</g>
<!-- Node28&#45;&gt;Node29 -->
<g id="edge48_Node000028_Node000029" class="edge">
<title>Node28&#45;&gt;Node29</title>
<g id="a_edge48_Node000028_Node000029"><a xlink:title=" ">
<path fill="none" stroke="#63b8ff" d="M1601.73,-126.44C1652.09,-114.36 1743.53,-92.45 1795.06,-80.1"/>
<polygon fill="#63b8ff" stroke="#63b8ff" points="1795.9,-83.49 1804.81,-77.76 1794.27,-76.69 1795.9,-83.49"/>
</a>
</g>
</g>
<!-- Node31 -->
<g id="Node000031" class="node">
<title>Node31</title>
<g id="a_Node000031"><a xlink:href="value__traits_8hpp.html" target="_top" xlink:title=" ">
<polygon fill="white" stroke="#666666" points="1672.5,-79.5 1577.5,-79.5 1577.5,-60.5 1672.5,-60.5 1672.5,-79.5"/>
<text text-anchor="middle" x="1625" y="-67.5" font-family="Helvetica,sans-Serif" font-size="10.00">value_traits.hpp</text>
</a>
</g>
</g>
<!-- Node28&#45;&gt;Node31 -->
<g id="edge50_Node000028_Node000031" class="edge">
<title>Node28&#45;&gt;Node31</title>
<g id="a_edge50_Node000028_Node000031"><a xlink:title=" ">
<path fill="none" stroke="#63b8ff" d="M1573.96,-126.37C1583.14,-116.4 1598.46,-99.79 1609.92,-87.36"/>
<polygon fill="#63b8ff" stroke="#63b8ff" points="1612.59,-89.63 1616.79,-79.91 1607.44,-84.89 1612.59,-89.63"/>
</a>
</g>
</g>
<!-- Node30 -->
<g id="Node000030" class="node">
<title>Node30</title>
<g id="a_Node000030"><a xlink:title=" ">
<polygon fill="#e0e0e0" stroke="#999999" points="1855.5,-19 1810.5,-19 1810.5,0 1855.5,0 1855.5,-19"/>
<text text-anchor="middle" x="1833" y="-7" font-family="Helvetica,sans-Serif" font-size="10.00">utility</text>
</a>
</g>
</g>
<!-- Node29&#45;&gt;Node30 -->
<g id="edge49_Node000029_Node000030" class="edge">
<title>Node29&#45;&gt;Node30</title>
<g id="a_edge49_Node000029_Node000030"><a xlink:title=" ">
<path fill="none" stroke="#63b8ff" d="M1833,-60.37C1833,-52.25 1833,-39.81 1833,-29.39"/>
<polygon fill="#63b8ff" stroke="#63b8ff" points="1836.5,-29.17 1833,-19.17 1829.5,-29.17 1836.5,-29.17"/>
</a>
</g>
</g>
<!-- Node31&#45;&gt;Node4 -->
<g id="edge56_Node000031_Node000004" class="edge">
<title>Node31&#45;&gt;Node4</title>
<g id="a_edge56_Node000031_Node000004"><a xlink:title=" ">
<path fill="none" stroke="#63b8ff" d="M1591.72,-60.45C1582.48,-58.36 1572.4,-56.34 1563,-55 1527.99,-50.02 1001.75,-20.09 864.52,-12.33"/>
<polygon fill="#63b8ff" stroke="#63b8ff" points="864.43,-8.82 854.25,-11.75 864.04,-15.81 864.43,-8.82"/>
</a>
</g>
</g>
<!-- Node31&#45;&gt;Node9 -->
<g id="edge51_Node000031_Node000009" class="edge">
<title>Node31&#45;&gt;Node9</title>
<g id="a_edge51_Node000031_Node000009"><a xlink:title=" ">
<path fill="none" stroke="#63b8ff" d="M1577.5,-64.5C1543.21,-61.39 1495.78,-57.41 1454,-55 943.53,-25.53 320.98,-13.66 167.46,-11.07"/>
<polygon fill="#63b8ff" stroke="#63b8ff" points="167.28,-7.56 157.23,-10.9 167.17,-14.56 167.28,-7.56"/>
</a>
</g>
</g>
<!-- Node31&#45;&gt;Node13 -->
<g id="edge53_Node000031_Node000013" class="edge">
<title>Node31&#45;&gt;Node13</title>
<g id="a_edge53_Node000031_Node000013"><a xlink:title=" ">
<path fill="none" stroke="#63b8ff" d="M1602.9,-60.49C1577.01,-50.53 1533.92,-33.95 1504.53,-22.63"/>
<polygon fill="#63b8ff" stroke="#63b8ff" points="1505.72,-19.34 1495.13,-19.02 1503.2,-25.88 1505.72,-19.34"/>
</a>
</g>
</g>
<!-- Node31&#45;&gt;Node15 -->
<g id="edge55_Node000031_Node000015" class="edge">
<title>Node31&#45;&gt;Node15</title>
<g id="a_edge55_Node000031_Node000015"><a xlink:title=" ">
<path fill="none" stroke="#63b8ff" d="M1591.05,-60.44C1581.99,-58.4 1572.16,-56.4 1563,-55 1379.24,-26.82 1157.37,-15.63 1065.75,-11.99"/>
<polygon fill="#63b8ff" stroke="#63b8ff" points="1065.88,-8.49 1055.75,-11.6 1065.61,-15.49 1065.88,-8.49"/>
</a>
</g>
</g>
<!-- Node31&#45;&gt;Node25 -->
<g id="edge52_Node000031_Node000025" class="edge">
<title>Node31&#45;&gt;Node25</title>
<g id="a_edge52_Node000031_Node000025"><a xlink:title=" ">
<path fill="none" stroke="#63b8ff" d="M1613.49,-60.37C1601.16,-51.12 1581.38,-36.28 1566.59,-25.19"/>
<polygon fill="#63b8ff" stroke="#63b8ff" points="1568.66,-22.37 1558.56,-19.17 1564.46,-27.97 1568.66,-22.37"/>
</a>
</g>
</g>
<!-- Node32 -->
<g id="Node000032" class="node">
<title>Node32</title>
<g id="a_Node000032"><a xlink:title=" ">
<polygon fill="#e0e0e0" stroke="#999999" points="1738,-19 1678,-19 1678,0 1738,0 1738,-19"/>
<text text-anchor="middle" x="1708" y="-7" font-family="Helvetica,sans-Serif" font-size="10.00">iostream</text>
</a>
</g>
</g>
<!-- Node31&#45;&gt;Node32 -->
<g id="edge54_Node000031_Node000032" class="edge">
<title>Node31&#45;&gt;Node32</title>
<g id="a_edge54_Node000031_Node000032"><a xlink:title=" ">
<path fill="none" stroke="#63b8ff" d="M1637.25,-60.37C1650.36,-51.12 1671.42,-36.28 1687.15,-25.19"/>
<polygon fill="#63b8ff" stroke="#63b8ff" points="1689.55,-27.79 1695.7,-19.17 1685.51,-22.07 1689.55,-27.79"/>
</a>
</g>
</g>
<!-- Node33 -->
<g id="Node000033" class="node">
<title>Node33</title>
<g id="a_Node000033"><a xlink:title=" ">
<polygon fill="#e0e0e0" stroke="#999999" points="1659.5,-19 1590.5,-19 1590.5,0 1659.5,0 1659.5,-19"/>
<text text-anchor="middle" x="1625" y="-7" font-family="Helvetica,sans-Serif" font-size="10.00">type_traits</text>
</a>
</g>
</g>
<!-- Node31&#45;&gt;Node33 -->
<g id="edge57_Node000031_Node000033" class="edge">
<title>Node31&#45;&gt;Node33</title>
<g id="a_edge57_Node000031_Node000033"><a xlink:title=" ">
<path fill="none" stroke="#63b8ff" d="M1625,-60.37C1625,-52.25 1625,-39.81 1625,-29.39"/>
<polygon fill="#63b8ff" stroke="#63b8ff" points="1628.5,-29.17 1625,-19.17 1621.5,-29.17 1628.5,-29.17"/>
</a>
</g>
</g>
<!-- Node34&#45;&gt;Node4 -->
<g id="edge66_Node000034_Node000004" class="edge">
<title>Node34&#45;&gt;Node4</title>
<g id="a_edge66_Node000034_Node000004"><a xlink:title=" ">
<path fill="none" stroke="#63b8ff" d="M1194.88,-120.96C1111.25,-95.5 936.56,-42.33 864.33,-20.34"/>
<polygon fill="#63b8ff" stroke="#63b8ff" points="865.03,-16.89 854.44,-17.33 862.99,-23.59 865.03,-16.89"/>
</a>
</g>
</g>
<!-- Node34&#45;&gt;Node13 -->
<g id="edge64_Node000034_Node000013" class="edge">
<title>Node34&#45;&gt;Node13</title>
<g id="a_edge64_Node000034_Node000013"><a xlink:title=" ">
<path fill="none" stroke="#63b8ff" d="M1240.12,-120.97C1239.82,-103.06 1242.2,-72.32 1260,-55 1284.87,-30.79 1383.78,-18.41 1437.62,-13.35"/>
<polygon fill="#63b8ff" stroke="#63b8ff" points="1438.11,-16.82 1447.76,-12.43 1437.48,-9.85 1438.11,-16.82"/>
</a>
</g>
</g>
<!-- Node34&#45;&gt;Node14 -->
<g id="edge65_Node000034_Node000014" class="edge">
<title>Node34&#45;&gt;Node14</title>
<g id="a_edge65_Node000034_Node000014"><a xlink:title=" ">
<path fill="none" stroke="#63b8ff" d="M1253.43,-120.8C1262.07,-110.92 1273.62,-97.72 1282.66,-87.39"/>
<polygon fill="#63b8ff" stroke="#63b8ff" points="1285.31,-89.67 1289.26,-79.84 1280.04,-85.07 1285.31,-89.67"/>
</a>
</g>
</g>
<!-- Node34&#45;&gt;Node31 -->
<g id="edge63_Node000034_Node000031" class="edge">
<title>Node34&#45;&gt;Node31</title>
<g id="a_edge63_Node000034_Node000031"><a xlink:title=" ">
<path fill="none" stroke="#63b8ff" d="M1293.25,-125.64C1302.17,-124.07 1311.35,-122.48 1320,-121 1406.18,-106.3 1506.21,-90.06 1567.55,-80.19"/>
<polygon fill="#63b8ff" stroke="#63b8ff" points="1568.1,-83.65 1577.42,-78.6 1566.99,-76.74 1568.1,-83.65"/>
</a>
</g>
</g>
<!-- Node35 -->
<g id="Node000035" class="node">
<title>Node35</title>
<g id="a_Node000035"><a xlink:href="quadruple_8hpp.html" target="_top" xlink:title=" ">
<polygon fill="white" stroke="#666666" points="1213,-79.5 1127,-79.5 1127,-60.5 1213,-60.5 1213,-79.5"/>
<text text-anchor="middle" x="1170" y="-67.5" font-family="Helvetica,sans-Serif" font-size="10.00">quadruple.hpp</text>
</a>
</g>
</g>
<!-- Node34&#45;&gt;Node35 -->
<g id="edge62_Node000034_Node000035" class="edge">
<title>Node34&#45;&gt;Node35</title>
<g id="a_edge62_Node000034_Node000035"><a xlink:title=" ">
<path fill="none" stroke="#63b8ff" d="M1225.24,-120.8C1214.07,-110.72 1199.06,-97.19 1187.51,-86.78"/>
<polygon fill="#63b8ff" stroke="#63b8ff" points="1189.58,-83.94 1179.81,-79.84 1184.9,-89.14 1189.58,-83.94"/>
</a>
</g>
</g>
<!-- Node36&#45;&gt;Node4 -->
<g id="edge71_Node000036_Node000004" class="edge">
<title>Node36&#45;&gt;Node4</title>
<g id="a_edge71_Node000036_Node000004"><a xlink:title=" ">
<path fill="none" stroke="#63b8ff" d="M1706.76,-126.49C1672.35,-117.19 1616.39,-101.4 1569,-85 1535.07,-73.26 1529.01,-62.97 1494,-55 1463,-47.94 993.04,-19.96 864.36,-12.39"/>
<polygon fill="#63b8ff" stroke="#63b8ff" points="864.52,-8.9 854.33,-11.8 864.11,-15.88 864.52,-8.9"/>
</a>
</g>
</g>
<!-- Node36&#45;&gt;Node13 -->
<g id="edge69_Node000036_Node000013" class="edge">
<title>Node36&#45;&gt;Node13</title>
<g id="a_edge69_Node000036_Node000013"><a xlink:title=" ">
<path fill="none" stroke="#63b8ff" d="M1744.5,-126.35C1753.96,-110.26 1770.67,-75.51 1753,-55 1717.81,-14.14 1566.07,-28.61 1513,-19 1511.52,-18.73 1510,-18.45 1508.47,-18.16"/>
<polygon fill="#63b8ff" stroke="#63b8ff" points="1508.84,-14.66 1498.35,-16.13 1507.46,-21.52 1508.84,-14.66"/>
</a>
</g>
</g>
<!-- Node36&#45;&gt;Node15 -->
<g id="edge70_Node000036_Node000015" class="edge">
<title>Node36&#45;&gt;Node15</title>
<g id="a_edge70_Node000036_Node000015"><a xlink:title=" ">
<path fill="none" stroke="#63b8ff" d="M1735.78,-126.3C1728.91,-109.15 1711.03,-71.22 1682,-55 1628.4,-25.05 1203.25,-14.07 1065.74,-11.28"/>
<polygon fill="#63b8ff" stroke="#63b8ff" points="1065.66,-7.77 1055.59,-11.08 1065.52,-14.77 1065.66,-7.77"/>
</a>
</g>
</g>
<!-- Node36&#45;&gt;Node31 -->
<g id="edge73_Node000036_Node000031" class="edge">
<title>Node36&#45;&gt;Node31</title>
<g id="a_edge73_Node000036_Node000031"><a xlink:title=" ">
<path fill="none" stroke="#63b8ff" d="M1723.63,-126.37C1704.59,-115.68 1671.93,-97.35 1649.44,-84.72"/>
<polygon fill="#63b8ff" stroke="#63b8ff" points="1650.93,-81.54 1640.5,-79.7 1647.5,-87.65 1650.93,-81.54"/>
</a>
</g>
</g>
<!-- Node37 -->
<g id="Node000037" class="node">
<title>Node37</title>
<g id="a_Node000037"><a xlink:title=" ">
<polygon fill="#e0e0e0" stroke="#999999" points="2069,-79.5 2023,-79.5 2023,-60.5 2069,-60.5 2069,-79.5"/>
<text text-anchor="middle" x="2046" y="-67.5" font-family="Helvetica,sans-Serif" font-size="10.00">cstdio</text>
</a>
</g>
</g>
<!-- Node36&#45;&gt;Node37 -->
<g id="edge68_Node000036_Node000037" class="edge">
<title>Node36&#45;&gt;Node37</title>
<g id="a_edge68_Node000036_Node000037"><a xlink:title=" ">
<path fill="none" stroke="#63b8ff" d="M1806.72,-127.16C1863.03,-119.58 1944.84,-106.1 2014,-85 2015.63,-84.5 2017.3,-83.94 2018.96,-83.34"/>
<polygon fill="#63b8ff" stroke="#63b8ff" points="2020.35,-86.56 2028.34,-79.6 2017.75,-80.06 2020.35,-86.56"/>
</a>
</g>
</g>
<!-- Node38 -->
<g id="Node000038" class="node">
<title>Node38</title>
<g id="a_Node000038"><a xlink:title=" ">
<polygon fill="#e0e0e0" stroke="#999999" points="2004.5,-85 1879.5,-85 1879.5,-55 2004.5,-55 2004.5,-85"/>
<text text-anchor="start" x="1887.5" y="-73" font-family="Helvetica,sans-Serif" font-size="10.00">boost/algorithm/string</text>
<text text-anchor="middle" x="1942" y="-62" font-family="Helvetica,sans-Serif" font-size="10.00">/trim.hpp</text>
</a>
</g>
</g>
<!-- Node36&#45;&gt;Node38 -->
<g id="edge72_Node000036_Node000038" class="edge">
<title>Node36&#45;&gt;Node38</title>
<g id="a_edge72_Node000036_Node000038"><a xlink:title=" ">
<path fill="none" stroke="#63b8ff" d="M1766.38,-126.37C1797.31,-116.62 1848.42,-100.5 1887.56,-88.16"/>
<polygon fill="#63b8ff" stroke="#63b8ff" points="1888.74,-91.46 1897.23,-85.12 1886.64,-84.78 1888.74,-91.46"/>
</a>
</g>
</g>
<!-- Node39&#45;&gt;Node4 -->
<g id="edge79_Node000039_Node000004" class="edge">
<title>Node39&#45;&gt;Node4</title>
<g id="a_edge79_Node000039_Node000004"><a xlink:title=" ">
<path fill="none" stroke="#63b8ff" d="M1391.34,-126.34C1383.61,-109.25 1363.83,-71.44 1334,-55 1313.37,-43.63 972.2,-19.9 864.39,-12.65"/>
<polygon fill="#63b8ff" stroke="#63b8ff" points="864.34,-9.14 854.13,-11.96 863.87,-16.12 864.34,-9.14"/>
</a>
</g>
</g>
<!-- Node39&#45;&gt;Node13 -->
<g id="edge77_Node000039_Node000013" class="edge">
<title>Node39&#45;&gt;Node13</title>
<g id="a_edge77_Node000039_Node000013"><a xlink:title=" ">
<path fill="none" stroke="#63b8ff" d="M1409.63,-126.37C1423.17,-117.63 1442.83,-102.87 1454,-85 1464.59,-68.06 1469.29,-45.46 1471.37,-29.61"/>
<polygon fill="#63b8ff" stroke="#63b8ff" points="1474.88,-29.76 1472.47,-19.44 1467.92,-29.01 1474.88,-29.76"/>
</a>
</g>
</g>
<!-- Node39&#45;&gt;Node14 -->
<g id="edge78_Node000039_Node000014" class="edge">
<title>Node39&#45;&gt;Node14</title>
<g id="a_edge78_Node000039_Node000014"><a xlink:title=" ">
<path fill="none" stroke="#63b8ff" d="M1381.78,-126.37C1365.64,-115.82 1338.09,-97.84 1318.79,-85.23"/>
<polygon fill="#63b8ff" stroke="#63b8ff" points="1320.61,-82.24 1310.32,-79.7 1316.78,-88.1 1320.61,-82.24"/>
</a>
</g>
</g>
<!-- Node39&#45;&gt;Node31 -->
<g id="edge76_Node000039_Node000031" class="edge">
<title>Node39&#45;&gt;Node31</title>
<g id="a_edge76_Node000039_Node000031"><a xlink:title=" ">
<path fill="none" stroke="#63b8ff" d="M1426.02,-126.37C1466.94,-114.98 1539.07,-94.91 1584.32,-82.32"/>
<polygon fill="#63b8ff" stroke="#63b8ff" points="1585.41,-85.65 1594.11,-79.6 1583.53,-78.91 1585.41,-85.65"/>
</a>
</g>
</g>
<!-- Node40 -->
<g id="Node000040" class="node">
<title>Node40</title>
<g id="a_Node000040"><a xlink:href="triple_8hpp.html" target="_top" xlink:title=" ">
<polygon fill="white" stroke="#666666" points="1444.5,-79.5 1381.5,-79.5 1381.5,-60.5 1444.5,-60.5 1444.5,-79.5"/>
<text text-anchor="middle" x="1413" y="-67.5" font-family="Helvetica,sans-Serif" font-size="10.00">triple.hpp</text>
</a>
</g>
</g>
<!-- Node39&#45;&gt;Node40 -->
<g id="edge75_Node000039_Node000040" class="edge">
<title>Node39&#45;&gt;Node40</title>
<g id="a_edge75_Node000039_Node000040"><a xlink:title=" ">
<path fill="none" stroke="#63b8ff" d="M1397.43,-126.37C1400.04,-117.07 1404.29,-101.98 1407.68,-89.9"/>
<polygon fill="#63b8ff" stroke="#63b8ff" points="1411.16,-90.48 1410.5,-79.91 1404.42,-88.58 1411.16,-90.48"/>
</a>
</g>
</g>
</g>
</svg>
