<?xml version="1.0" encoding="UTF-8" standalone="no"?>
<!DOCTYPE svg PUBLIC "-//W3C//DTD SVG 1.1//EN"
 "http://www.w3.org/Graphics/SVG/1.1/DTD/svg11.dtd">
<!-- Generated by graphviz version 2.43.0 (0)
 -->
<!-- Title: netspeak/invertedindex/Record.hpp Pages: 1 -->
<svg width="1178pt" height="489pt"
 viewBox="0.00 0.00 1177.50 489.00" xmlns="http://www.w3.org/2000/svg" xmlns:xlink="http://www.w3.org/1999/xlink">
<g id="graph0" class="graph" transform="scale(1 1) rotate(0) translate(4 485)">
<title>netspeak/invertedindex/Record.hpp</title>
<!-- Node1 -->
<g id="Node000001" class="node">
<title>Node1</title>
<g id="a_Node000001"><a xlink:title=" ">
<polygon fill="#999999" stroke="#666666" points="435,-481 303,-481 303,-451 435,-451 435,-481"/>
<text text-anchor="start" x="311" y="-469" font-family="Helvetica,sans-Serif" font-size="10.00">netspeak/invertedindex</text>
<text text-anchor="middle" x="369" y="-458" font-family="Helvetica,sans-Serif" font-size="10.00">/Record.hpp</text>
</a>
</g>
</g>
<!-- Node2 -->
<g id="Node000002" class="node">
<title>Node2</title>
<g id="a_Node000002"><a xlink:href="IndexStrategy_8hpp.html" target="_top" xlink:title=" ">
<polygon fill="white" stroke="#666666" points="435,-415 303,-415 303,-385 435,-385 435,-415"/>
<text text-anchor="start" x="311" y="-403" font-family="Helvetica,sans-Serif" font-size="10.00">netspeak/invertedindex</text>
<text text-anchor="middle" x="369" y="-392" font-family="Helvetica,sans-Serif" font-size="10.00">/IndexStrategy.hpp</text>
</a>
</g>
</g>
<!-- Node1&#45;&gt;Node2 -->
<g id="edge1_Node000001_Node000002" class="edge">
<title>Node1&#45;&gt;Node2</title>
<g id="a_edge1_Node000001_Node000002"><a xlink:title=" ">
<path fill="none" stroke="#63b8ff" d="M369,-440.54C369,-431.96 369,-422.61 369,-415.16"/>
<polygon fill="#63b8ff" stroke="#63b8ff" points="365.5,-440.8 369,-450.8 372.5,-440.8 365.5,-440.8"/>
</a>
</g>
</g>
<!-- Node4 -->
<g id="Node000004" class="node">
<title>Node4</title>
<g id="a_Node000004"><a xlink:href="ManagedIndexer_8hpp.html" target="_top" xlink:title=" ">
<polygon fill="white" stroke="#666666" points="295,-217 163,-217 163,-187 295,-187 295,-217"/>
<text text-anchor="start" x="171" y="-205" font-family="Helvetica,sans-Serif" font-size="10.00">netspeak/invertedindex</text>
<text text-anchor="middle" x="229" y="-194" font-family="Helvetica,sans-Serif" font-size="10.00">/ManagedIndexer.hpp</text>
</a>
</g>
</g>
<!-- Node1&#45;&gt;Node4 -->
<g id="edge10_Node000001_Node000004" class="edge">
<title>Node1&#45;&gt;Node4</title>
<g id="a_edge10_Node000001_Node000004"><a xlink:title=" ">
<path fill="none" stroke="#63b8ff" d="M329.46,-445.7C316.6,-437.74 303.27,-427.44 294,-415 269.68,-382.35 241.18,-258.95 232.01,-217.03"/>
<polygon fill="#63b8ff" stroke="#63b8ff" points="327.84,-448.8 338.24,-450.83 331.37,-442.76 327.84,-448.8"/>
</a>
</g>
</g>
<!-- Node8 -->
<g id="Node000008" class="node">
<title>Node8</title>
<g id="a_Node000008"><a xlink:href="InvertedFileWriter_8hpp.html" target="_top" xlink:title=" ">
<polygon fill="white" stroke="#666666" points="735,-415 603,-415 603,-385 735,-385 735,-415"/>
<text text-anchor="start" x="611" y="-403" font-family="Helvetica,sans-Serif" font-size="10.00">netspeak/invertedindex</text>
<text text-anchor="middle" x="669" y="-392" font-family="Helvetica,sans-Serif" font-size="10.00">/InvertedFileWriter.hpp</text>
</a>
</g>
</g>
<!-- Node1&#45;&gt;Node8 -->
<g id="edge9_Node000001_Node000008" class="edge">
<title>Node1&#45;&gt;Node8</title>
<g id="a_edge9_Node000001_Node000008"><a xlink:title=" ">
<path fill="none" stroke="#63b8ff" d="M444.73,-448.84C493.61,-438.42 556.56,-424.99 603.32,-415.01"/>
<polygon fill="#63b8ff" stroke="#63b8ff" points="443.89,-445.45 434.84,-450.95 445.35,-452.29 443.89,-445.45"/>
</a>
</g>
</g>
<!-- Node9 -->
<g id="Node000009" class="node">
<title>Node9</title>
<g id="a_Node000009"><a xlink:href="RecordReader_8hpp.html" target="_top" xlink:title=" ">
<polygon fill="white" stroke="#666666" points="228,-349 96,-349 96,-319 228,-319 228,-349"/>
<text text-anchor="start" x="104" y="-337" font-family="Helvetica,sans-Serif" font-size="10.00">netspeak/invertedindex</text>
<text text-anchor="middle" x="162" y="-326" font-family="Helvetica,sans-Serif" font-size="10.00">/RecordReader.hpp</text>
</a>
</g>
</g>
<!-- Node1&#45;&gt;Node9 -->
<g id="edge11_Node000001_Node000009" class="edge">
<title>Node1&#45;&gt;Node9</title>
<g id="a_edge11_Node000001_Node000009"><a xlink:title=" ">
<path fill="none" stroke="#63b8ff" d="M310.27,-447.56C287.9,-439.5 262.8,-428.64 242,-415 213.75,-396.48 187.34,-366.73 173.06,-349.21"/>
<polygon fill="#63b8ff" stroke="#63b8ff" points="309.4,-450.97 320,-450.96 311.71,-444.36 309.4,-450.97"/>
</a>
</g>
</g>
<!-- Node12 -->
<g id="Node000012" class="node">
<title>Node12</title>
<g id="a_Node000012"><a xlink:href="StorageWriter_8hpp.html" target="_top" xlink:title=" ">
<polygon fill="white" stroke="#666666" points="585,-415 453,-415 453,-385 585,-385 585,-415"/>
<text text-anchor="start" x="461" y="-403" font-family="Helvetica,sans-Serif" font-size="10.00">netspeak/invertedindex</text>
<text text-anchor="middle" x="519" y="-392" font-family="Helvetica,sans-Serif" font-size="10.00">/StorageWriter.hpp</text>
</a>
</g>
</g>
<!-- Node1&#45;&gt;Node12 -->
<g id="edge16_Node000001_Node000012" class="edge">
<title>Node1&#45;&gt;Node12</title>
<g id="a_edge16_Node000001_Node000012"><a xlink:title=" ">
<path fill="none" stroke="#63b8ff" d="M411.38,-446.92C435.08,-436.8 464.19,-424.38 486.16,-415.01"/>
<polygon fill="#63b8ff" stroke="#63b8ff" points="409.74,-443.81 401.92,-450.95 412.49,-450.25 409.74,-443.81"/>
</a>
</g>
</g>
<!-- Node3 -->
<g id="Node000003" class="node">
<title>Node3</title>
<g id="a_Node000003"><a xlink:href="Indexer_8hpp.html" target="_top" xlink:title=" ">
<polygon fill="white" stroke="#666666" points="435,-283 303,-283 303,-253 435,-253 435,-283"/>
<text text-anchor="start" x="311" y="-271" font-family="Helvetica,sans-Serif" font-size="10.00">netspeak/invertedindex</text>
<text text-anchor="middle" x="369" y="-260" font-family="Helvetica,sans-Serif" font-size="10.00">/Indexer.hpp</text>
</a>
</g>
</g>
<!-- Node2&#45;&gt;Node3 -->
<g id="edge2_Node000002_Node000003" class="edge">
<title>Node2&#45;&gt;Node3</title>
<g id="a_edge2_Node000002_Node000003"><a xlink:title=" ">
<path fill="none" stroke="#63b8ff" d="M337.2,-378.61C327.58,-370.65 318.2,-360.62 313,-349 307.55,-336.83 307.55,-331.17 313,-319 319.66,-304.13 333.17,-291.86 345.25,-283.2"/>
<polygon fill="#63b8ff" stroke="#63b8ff" points="335.19,-381.48 345.25,-384.8 339.46,-375.93 335.19,-381.48"/>
</a>
</g>
</g>
<!-- Node6 -->
<g id="Node000006" class="node">
<title>Node6</title>
<g id="a_Node000006"><a xlink:href="SortedInput_8hpp.html" target="_top" xlink:title=" ">
<polygon fill="white" stroke="#666666" points="454,-349 322,-349 322,-319 454,-319 454,-349"/>
<text text-anchor="start" x="330" y="-337" font-family="Helvetica,sans-Serif" font-size="10.00">netspeak/invertedindex</text>
<text text-anchor="middle" x="388" y="-326" font-family="Helvetica,sans-Serif" font-size="10.00">/SortedInput.hpp</text>
</a>
</g>
</g>
<!-- Node2&#45;&gt;Node6 -->
<g id="edge5_Node000002_Node000006" class="edge">
<title>Node2&#45;&gt;Node6</title>
<g id="a_edge5_Node000002_Node000006"><a xlink:title=" ">
<path fill="none" stroke="#63b8ff" d="M376.09,-375.11C378.69,-366.38 381.53,-356.78 383.8,-349.16"/>
<polygon fill="#63b8ff" stroke="#63b8ff" points="372.71,-374.21 373.22,-384.8 379.42,-376.21 372.71,-374.21"/>
</a>
</g>
</g>
<!-- Node7 -->
<g id="Node000007" class="node">
<title>Node7</title>
<g id="a_Node000007"><a xlink:href="UnsortedInput_8hpp.html" target="_top" xlink:title=" ">
<polygon fill="white" stroke="#666666" points="604,-349 472,-349 472,-319 604,-319 604,-349"/>
<text text-anchor="start" x="480" y="-337" font-family="Helvetica,sans-Serif" font-size="10.00">netspeak/invertedindex</text>
<text text-anchor="middle" x="538" y="-326" font-family="Helvetica,sans-Serif" font-size="10.00">/UnsortedInput.hpp</text>
</a>
</g>
</g>
<!-- Node2&#45;&gt;Node7 -->
<g id="edge7_Node000002_Node000007" class="edge">
<title>Node2&#45;&gt;Node7</title>
<g id="a_edge7_Node000002_Node000007"><a xlink:title=" ">
<path fill="none" stroke="#63b8ff" d="M415.68,-381.32C442.58,-371.14 475.92,-358.51 501,-349.01"/>
<polygon fill="#63b8ff" stroke="#63b8ff" points="414.2,-378.14 406.09,-384.95 416.68,-384.69 414.2,-378.14"/>
</a>
</g>
</g>
<!-- Node3&#45;&gt;Node4 -->
<g id="edge3_Node000003_Node000004" class="edge">
<title>Node3&#45;&gt;Node4</title>
<g id="a_edge3_Node000003_Node000004"><a xlink:title=" ">
<path fill="none" stroke="#63b8ff" d="M329.15,-248.78C307.08,-238.69 280.06,-226.34 259.65,-217.01"/>
<polygon fill="#63b8ff" stroke="#63b8ff" points="327.73,-251.98 338.28,-252.95 330.64,-245.61 327.73,-251.98"/>
</a>
</g>
</g>
<!-- Node5 -->
<g id="Node000005" class="node">
<title>Node5</title>
<g id="a_Node000005"><a xlink:href="indexing_8cpp.html" target="_top" xlink:title=" ">
<polygon fill="white" stroke="#666666" points="271.5,-90.5 144.5,-90.5 144.5,-71.5 271.5,-71.5 271.5,-90.5"/>
<text text-anchor="middle" x="208" y="-78.5" font-family="Helvetica,sans-Serif" font-size="10.00">netspeak/indexing.cpp</text>
</a>
</g>
</g>
<!-- Node4&#45;&gt;Node5 -->
<g id="edge4_Node000004_Node000005" class="edge">
<title>Node4&#45;&gt;Node5</title>
<g id="a_edge4_Node000004_Node000005"><a xlink:title=" ">
<path fill="none" stroke="#63b8ff" d="M224.73,-176.8C220.02,-150.12 212.7,-108.62 209.54,-90.71"/>
<polygon fill="#63b8ff" stroke="#63b8ff" points="221.32,-177.64 226.51,-186.88 228.22,-176.43 221.32,-177.64"/>
</a>
</g>
</g>
<!-- Node6&#45;&gt;Node3 -->
<g id="edge6_Node000006_Node000003" class="edge">
<title>Node6&#45;&gt;Node3</title>
<g id="a_edge6_Node000006_Node000003"><a xlink:title=" ">
<path fill="none" stroke="#63b8ff" d="M380.91,-309.11C378.31,-300.38 375.47,-290.78 373.2,-283.16"/>
<polygon fill="#63b8ff" stroke="#63b8ff" points="377.58,-310.21 383.78,-318.8 384.29,-308.21 377.58,-310.21"/>
</a>
</g>
</g>
<!-- Node7&#45;&gt;Node3 -->
<g id="edge8_Node000007_Node000003" class="edge">
<title>Node7&#45;&gt;Node3</title>
<g id="a_edge8_Node000007_Node000003"><a xlink:title=" ">
<path fill="none" stroke="#63b8ff" d="M491.32,-315.32C464.42,-305.14 431.08,-292.51 406,-283.01"/>
<polygon fill="#63b8ff" stroke="#63b8ff" points="490.32,-318.69 500.91,-318.95 492.8,-312.14 490.32,-318.69"/>
</a>
</g>
</g>
<!-- Node10 -->
<g id="Node000010" class="node">
<title>Node10</title>
<g id="a_Node000010"><a xlink:href="PhraseFileReader_8hpp.html" target="_top" xlink:title=" ">
<polygon fill="white" stroke="#666666" points="170,-151 0,-151 0,-132 170,-132 170,-151"/>
<text text-anchor="middle" x="85" y="-139" font-family="Helvetica,sans-Serif" font-size="10.00">netspeak/PhraseFileReader.hpp</text>
</a>
</g>
</g>
<!-- Node9&#45;&gt;Node10 -->
<g id="edge12_Node000009_Node000010" class="edge">
<title>Node9&#45;&gt;Node10</title>
<g id="a_edge12_Node000009_Node000010"><a xlink:title=" ">
<path fill="none" stroke="#63b8ff" d="M118.1,-313.63C105.85,-305.95 93.98,-295.83 87,-283 62.86,-238.65 76.45,-174.16 82.54,-151.1"/>
<polygon fill="#63b8ff" stroke="#63b8ff" points="116.62,-316.82 127.03,-318.8 120.13,-310.76 116.62,-316.82"/>
</a>
</g>
</g>
<!-- Node11 -->
<g id="Node000011" class="node">
<title>Node11</title>
<g id="a_Node000011"><a xlink:href="InvertedFileReader_8hpp.html" target="_top" xlink:title=" ">
<polygon fill="white" stroke="#666666" points="228,-283 96,-283 96,-253 228,-253 228,-283"/>
<text text-anchor="start" x="104" y="-271" font-family="Helvetica,sans-Serif" font-size="10.00">netspeak/invertedindex</text>
<text text-anchor="middle" x="162" y="-260" font-family="Helvetica,sans-Serif" font-size="10.00">/InvertedFileReader.hpp</text>
</a>
</g>
</g>
<!-- Node9&#45;&gt;Node11 -->
<g id="edge14_Node000009_Node000011" class="edge">
<title>Node9&#45;&gt;Node11</title>
<g id="a_edge14_Node000009_Node000011"><a xlink:title=" ">
<path fill="none" stroke="#63b8ff" d="M162,-308.54C162,-299.96 162,-290.61 162,-283.16"/>
<polygon fill="#63b8ff" stroke="#63b8ff" points="158.5,-308.8 162,-318.8 165.5,-308.8 158.5,-308.8"/>
</a>
</g>
</g>
<!-- Node10&#45;&gt;Node5 -->
<g id="edge13_Node000010_Node000005" class="edge">
<title>Node10&#45;&gt;Node5</title>
<g id="a_edge13_Node000010_Node000005"><a xlink:title=" ">
<path fill="none" stroke="#63b8ff" d="M112.05,-127.63C135.78,-116.35 169.59,-100.27 190.09,-90.52"/>
<polygon fill="#63b8ff" stroke="#63b8ff" points="110.41,-124.54 102.89,-131.99 113.42,-130.86 110.41,-124.54"/>
</a>
</g>
</g>
<!-- Node11&#45;&gt;Node4 -->
<g id="edge15_Node000011_Node000004" class="edge">
<title>Node11&#45;&gt;Node4</title>
<g id="a_edge15_Node000011_Node000004"><a xlink:title=" ">
<path fill="none" stroke="#63b8ff" d="M184.35,-245.65C194.17,-236.27 205.42,-225.53 214.17,-217.16"/>
<polygon fill="#63b8ff" stroke="#63b8ff" points="181.68,-243.36 176.87,-252.8 186.52,-248.42 181.68,-243.36"/>
</a>
</g>
</g>
<!-- Node12&#45;&gt;Node6 -->
<g id="edge17_Node000012_Node000006" class="edge">
<title>Node12&#45;&gt;Node6</title>
<g id="a_edge17_Node000012_Node000006"><a xlink:title=" ">
<path fill="none" stroke="#63b8ff" d="M481.16,-380.51C460.61,-370.47 435.61,-358.26 416.68,-349.01"/>
<polygon fill="#63b8ff" stroke="#63b8ff" points="479.73,-383.71 490.25,-384.95 482.8,-377.42 479.73,-383.71"/>
</a>
</g>
</g>
<!-- Node12&#45;&gt;Node7 -->
<g id="edge34_Node000012_Node000007" class="edge">
<title>Node12&#45;&gt;Node7</title>
<g id="a_edge34_Node000012_Node000007"><a xlink:title=" ">
<path fill="none" stroke="#63b8ff" d="M526.09,-375.11C528.69,-366.38 531.53,-356.78 533.8,-349.16"/>
<polygon fill="#63b8ff" stroke="#63b8ff" points="522.71,-374.21 523.22,-384.8 529.42,-376.21 522.71,-374.21"/>
</a>
</g>
</g>
<!-- Node13 -->
<g id="Node000013" class="node">
<title>Node13</title>
<g id="a_Node000013"><a xlink:href="StorageReader_8hpp.html" target="_top" xlink:title=" ">
<polygon fill="white" stroke="#666666" points="754,-349 622,-349 622,-319 754,-319 754,-349"/>
<text text-anchor="start" x="630" y="-337" font-family="Helvetica,sans-Serif" font-size="10.00">netspeak/invertedindex</text>
<text text-anchor="middle" x="688" y="-326" font-family="Helvetica,sans-Serif" font-size="10.00">/StorageReader.hpp</text>
</a>
</g>
</g>
<!-- Node12&#45;&gt;Node13 -->
<g id="edge18_Node000012_Node000013" class="edge">
<title>Node12&#45;&gt;Node13</title>
<g id="a_edge18_Node000012_Node000013"><a xlink:title=" ">
<path fill="none" stroke="#63b8ff" d="M565.68,-381.32C592.58,-371.14 625.92,-358.51 651,-349.01"/>
<polygon fill="#63b8ff" stroke="#63b8ff" points="564.2,-378.14 556.09,-384.95 566.68,-384.69 564.2,-378.14"/>
</a>
</g>
</g>
<!-- Node14 -->
<g id="Node000014" class="node">
<title>Node14</title>
<g id="a_Node000014"><a xlink:href="Searcher_8hpp.html" target="_top" xlink:title=" ">
<polygon fill="white" stroke="#666666" points="754,-283 622,-283 622,-253 754,-253 754,-283"/>
<text text-anchor="start" x="630" y="-271" font-family="Helvetica,sans-Serif" font-size="10.00">netspeak/invertedindex</text>
<text text-anchor="middle" x="688" y="-260" font-family="Helvetica,sans-Serif" font-size="10.00">/Searcher.hpp</text>
</a>
</g>
</g>
<!-- Node13&#45;&gt;Node14 -->
<g id="edge19_Node000013_Node000014" class="edge">
<title>Node13&#45;&gt;Node14</title>
<g id="a_edge19_Node000013_Node000014"><a xlink:title=" ">
<path fill="none" stroke="#63b8ff" d="M688,-308.54C688,-299.96 688,-290.61 688,-283.16"/>
<polygon fill="#63b8ff" stroke="#63b8ff" points="684.5,-308.8 688,-318.8 691.5,-308.8 684.5,-308.8"/>
</a>
</g>
</g>
<!-- Node14&#45;&gt;Node5 -->
<g id="edge33_Node000014_Node000005" class="edge">
<title>Node14&#45;&gt;Node5</title>
<g id="a_edge33_Node000014_Node000005"><a xlink:title=" ">
<path fill="none" stroke="#63b8ff" d="M641.91,-249.24C541.03,-210.36 303.79,-118.92 230.18,-90.55"/>
<polygon fill="#63b8ff" stroke="#63b8ff" points="640.94,-252.61 651.53,-252.94 643.46,-246.08 640.94,-252.61"/>
</a>
</g>
</g>
<!-- Node15 -->
<g id="Node000015" class="node">
<title>Node15</title>
<g id="a_Node000015"><a xlink:href="RetrievalStrategy3_8hpp.html" target="_top" xlink:title=" ">
<polygon fill="white" stroke="#666666" points="779.5,-211.5 602.5,-211.5 602.5,-192.5 779.5,-192.5 779.5,-211.5"/>
<text text-anchor="middle" x="691" y="-199.5" font-family="Helvetica,sans-Serif" font-size="10.00">netspeak/RetrievalStrategy3.hpp</text>
</a>
</g>
</g>
<!-- Node14&#45;&gt;Node15 -->
<g id="edge20_Node000014_Node000015" class="edge">
<title>Node14&#45;&gt;Node15</title>
<g id="a_edge20_Node000014_Node000015"><a xlink:title=" ">
<path fill="none" stroke="#63b8ff" d="M689.14,-242.6C689.65,-231.8 690.21,-219.78 690.59,-211.84"/>
<polygon fill="#63b8ff" stroke="#63b8ff" points="685.64,-242.64 688.67,-252.8 692.63,-242.97 685.64,-242.64"/>
</a>
</g>
</g>
<!-- Node16 -->
<g id="Node000016" class="node">
<title>Node16</title>
<g id="a_Node000016"><a xlink:href="Netspeak_8hpp.html" target="_top" xlink:title=" ">
<polygon fill="white" stroke="#666666" points="759,-151 627,-151 627,-132 759,-132 759,-151"/>
<text text-anchor="middle" x="693" y="-139" font-family="Helvetica,sans-Serif" font-size="10.00">netspeak/Netspeak.hpp</text>
</a>
</g>
</g>
<!-- Node15&#45;&gt;Node16 -->
<g id="edge21_Node000015_Node000016" class="edge">
<title>Node15&#45;&gt;Node16</title>
<g id="a_edge21_Node000015_Node000016"><a xlink:title=" ">
<path fill="none" stroke="#63b8ff" d="M691.64,-182.16C692,-171.74 692.43,-159.3 692.7,-151.17"/>
<polygon fill="#63b8ff" stroke="#63b8ff" points="688.14,-182.25 691.3,-192.37 695.13,-182.49 688.14,-182.25"/>
</a>
</g>
</g>
<!-- Node16&#45;&gt;Node5 -->
<g id="edge26_Node000016_Node000005" class="edge">
<title>Node16&#45;&gt;Node5</title>
<g id="a_edge26_Node000016_Node000005"><a xlink:title=" ">
<path fill="none" stroke="#63b8ff" d="M616.86,-134.24C533.81,-126.97 397.06,-113.65 280,-96 269.8,-94.46 258.85,-92.5 248.64,-90.53"/>
<polygon fill="#63b8ff" stroke="#63b8ff" points="616.71,-137.74 626.97,-135.12 617.31,-130.77 616.71,-137.74"/>
</a>
</g>
</g>
<!-- Node17 -->
<g id="Node000017" class="node">
<title>Node17</title>
<g id="a_Node000017"><a xlink:href="ProxyCommand_8cpp.html" target="_top" xlink:title=" ">
<polygon fill="white" stroke="#666666" points="946.5,-90.5 817.5,-90.5 817.5,-71.5 946.5,-71.5 946.5,-90.5"/>
<text text-anchor="middle" x="882" y="-78.5" font-family="Helvetica,sans-Serif" font-size="10.00">cli/ProxyCommand.cpp</text>
</a>
</g>
</g>
<!-- Node16&#45;&gt;Node17 -->
<g id="edge22_Node000016_Node000017" class="edge">
<title>Node16&#45;&gt;Node17</title>
<g id="a_edge22_Node000016_Node000017"><a xlink:title=" ">
<path fill="none" stroke="#63b8ff" d="M730.27,-128.96C766.83,-117.65 821.72,-100.66 854.48,-90.52"/>
<polygon fill="#63b8ff" stroke="#63b8ff" points="729,-125.69 720.48,-131.99 731.07,-132.38 729,-125.69"/>
</a>
</g>
</g>
<!-- Node18 -->
<g id="Node000018" class="node">
<title>Node18</title>
<g id="a_Node000018"><a xlink:href="ServeCommand_8cpp.html" target="_top" xlink:title=" ">
<polygon fill="white" stroke="#666666" points="790.5,-24.5 661.5,-24.5 661.5,-5.5 790.5,-5.5 790.5,-24.5"/>
<text text-anchor="middle" x="726" y="-12.5" font-family="Helvetica,sans-Serif" font-size="10.00">cli/ServeCommand.cpp</text>
</a>
</g>
</g>
<!-- Node16&#45;&gt;Node18 -->
<g id="edge23_Node000016_Node000018" class="edge">
<title>Node16&#45;&gt;Node18</title>
<g id="a_edge23_Node000016_Node000018"><a xlink:title=" ">
<path fill="none" stroke="#63b8ff" d="M731.65,-127.77C746.35,-120.83 761.58,-110.59 770,-96 784.82,-70.33 754.51,-39.47 737.1,-24.71"/>
<polygon fill="#63b8ff" stroke="#63b8ff" points="729.93,-124.7 722.14,-131.87 732.71,-131.13 729.93,-124.7"/>
</a>
</g>
</g>
<!-- Node19 -->
<g id="Node000019" class="node">
<title>Node19</title>
<g id="a_Node000019"><a xlink:href="ShellCommand_8cpp.html" target="_top" xlink:title=" ">
<polygon fill="white" stroke="#666666" points="611.5,-90.5 486.5,-90.5 486.5,-71.5 611.5,-71.5 611.5,-90.5"/>
<text text-anchor="middle" x="549" y="-78.5" font-family="Helvetica,sans-Serif" font-size="10.00">cli/ShellCommand.cpp</text>
</a>
</g>
</g>
<!-- Node16&#45;&gt;Node19 -->
<g id="edge24_Node000016_Node000019" class="edge">
<title>Node16&#45;&gt;Node19</title>
<g id="a_edge24_Node000016_Node000019"><a xlink:title=" ">
<path fill="none" stroke="#63b8ff" d="M662.43,-128.08C634.61,-116.78 594.29,-100.4 569.96,-90.52"/>
<polygon fill="#63b8ff" stroke="#63b8ff" points="661.48,-131.47 672.06,-131.99 664.11,-124.99 661.48,-131.47"/>
</a>
</g>
</g>
<!-- Node20 -->
<g id="Node000020" class="node">
<title>Node20</title>
<g id="a_Node000020"><a xlink:href="Netspeak_8cpp.html" target="_top" xlink:title=" ">
<polygon fill="white" stroke="#666666" points="760.5,-90.5 629.5,-90.5 629.5,-71.5 760.5,-71.5 760.5,-90.5"/>
<text text-anchor="middle" x="695" y="-78.5" font-family="Helvetica,sans-Serif" font-size="10.00">netspeak/Netspeak.cpp</text>
</a>
</g>
</g>
<!-- Node16&#45;&gt;Node20 -->
<g id="edge25_Node000016_Node000020" class="edge">
<title>Node16&#45;&gt;Node20</title>
<g id="a_edge25_Node000016_Node000020"><a xlink:title=" ">
<path fill="none" stroke="#63b8ff" d="M693.64,-121.66C694,-111.24 694.43,-98.8 694.7,-90.67"/>
<polygon fill="#63b8ff" stroke="#63b8ff" points="690.14,-121.75 693.3,-131.87 697.13,-121.99 690.14,-121.75"/>
</a>
</g>
</g>
<!-- Node21 -->
<g id="Node000021" class="node">
<title>Node21</title>
<g id="a_Node000021"><a xlink:href="RequestLogger_8hpp.html" target="_top" xlink:title=" ">
<polygon fill="white" stroke="#666666" points="1107.5,-96 964.5,-96 964.5,-66 1107.5,-66 1107.5,-96"/>
<text text-anchor="start" x="972.5" y="-84" font-family="Helvetica,sans-Serif" font-size="10.00">netspeak/service/Request</text>
<text text-anchor="middle" x="1036" y="-73" font-family="Helvetica,sans-Serif" font-size="10.00">Logger.hpp</text>
</a>
</g>
</g>
<!-- Node16&#45;&gt;Node21 -->
<g id="edge27_Node000016_Node000021" class="edge">
<title>Node16&#45;&gt;Node21</title>
<g id="a_edge27_Node000016_Node000021"><a xlink:title=" ">
<path fill="none" stroke="#63b8ff" d="M753.9,-130.3C807.21,-121.34 886.76,-107.92 956,-96 958.78,-95.52 961.61,-95.03 964.47,-94.54"/>
<polygon fill="#63b8ff" stroke="#63b8ff" points="753.21,-126.86 743.92,-131.97 754.37,-133.77 753.21,-126.86"/>
</a>
</g>
</g>
<!-- Node24 -->
<g id="Node000024" class="node">
<title>Node24</title>
<g id="a_Node000024"><a xlink:href="UniqueMap_8hpp.html" target="_top" xlink:title=" ">
<polygon fill="white" stroke="#666666" points="468.5,-90.5 289.5,-90.5 289.5,-71.5 468.5,-71.5 468.5,-90.5"/>
<text text-anchor="middle" x="379" y="-78.5" font-family="Helvetica,sans-Serif" font-size="10.00">netspeak/service/UniqueMap.hpp</text>
</a>
</g>
</g>
<!-- Node16&#45;&gt;Node24 -->
<g id="edge30_Node000016_Node000024" class="edge">
<title>Node16&#45;&gt;Node24</title>
<g id="a_edge30_Node000016_Node000024"><a xlink:title=" ">
<path fill="none" stroke="#63b8ff" d="M637.19,-130.1C576.62,-118.82 481.02,-101.01 424.71,-90.52"/>
<polygon fill="#63b8ff" stroke="#63b8ff" points="636.87,-133.6 647.34,-131.99 638.15,-126.72 636.87,-133.6"/>
</a>
</g>
</g>
<!-- Node22 -->
<g id="Node000022" class="node">
<title>Node22</title>
<g id="a_Node000022"><a xlink:href="cli_2logging_8cpp.html" target="_top" xlink:title=" ">
<polygon fill="white" stroke="#666666" points="1008.5,-24.5 921.5,-24.5 921.5,-5.5 1008.5,-5.5 1008.5,-24.5"/>
<text text-anchor="middle" x="965" y="-12.5" font-family="Helvetica,sans-Serif" font-size="10.00">cli/logging.cpp</text>
</a>
</g>
</g>
<!-- Node21&#45;&gt;Node22 -->
<g id="edge28_Node000021_Node000022" class="edge">
<title>Node21&#45;&gt;Node22</title>
<g id="a_edge28_Node000021_Node000022"><a xlink:title=" ">
<path fill="none" stroke="#63b8ff" d="M1012.63,-58.93C999.78,-47.35 984.53,-33.61 974.81,-24.84"/>
<polygon fill="#63b8ff" stroke="#63b8ff" points="1010.47,-61.7 1020.24,-65.8 1015.16,-56.5 1010.47,-61.7"/>
</a>
</g>
</g>
<!-- Node23 -->
<g id="Node000023" class="node">
<title>Node23</title>
<g id="a_Node000023"><a xlink:href="RequestLogger_8cpp.html" target="_top" xlink:title=" ">
<polygon fill="white" stroke="#666666" points="1169.5,-30 1026.5,-30 1026.5,0 1169.5,0 1169.5,-30"/>
<text text-anchor="start" x="1034.5" y="-18" font-family="Helvetica,sans-Serif" font-size="10.00">netspeak/service/Request</text>
<text text-anchor="middle" x="1098" y="-7" font-family="Helvetica,sans-Serif" font-size="10.00">Logger.cpp</text>
</a>
</g>
</g>
<!-- Node21&#45;&gt;Node23 -->
<g id="edge29_Node000021_Node000023" class="edge">
<title>Node21&#45;&gt;Node23</title>
<g id="a_edge29_Node000021_Node000023"><a xlink:title=" ">
<path fill="none" stroke="#63b8ff" d="M1056.96,-58.37C1065.97,-49.06 1076.26,-38.44 1084.28,-30.16"/>
<polygon fill="#63b8ff" stroke="#63b8ff" points="1054.2,-56.18 1049.76,-65.8 1059.23,-61.05 1054.2,-56.18"/>
</a>
</g>
</g>
<!-- Node24&#45;&gt;Node18 -->
<g id="edge31_Node000024_Node000018" class="edge">
<title>Node24&#45;&gt;Node18</title>
<g id="a_edge31_Node000024_Node000018"><a xlink:title=" ">
<path fill="none" stroke="#63b8ff" d="M435.56,-69.57C503.66,-57.01 616.74,-36.15 679.84,-24.51"/>
<polygon fill="#63b8ff" stroke="#63b8ff" points="434.64,-66.18 425.44,-71.44 435.91,-73.06 434.64,-66.18"/>
</a>
</g>
</g>
<!-- Node25 -->
<g id="Node000025" class="node">
<title>Node25</title>
<g id="a_Node000025"><a xlink:href="UniqueMap_8cpp.html" target="_top" xlink:title=" ">
<polygon fill="white" stroke="#666666" points="468.5,-24.5 289.5,-24.5 289.5,-5.5 468.5,-5.5 468.5,-24.5"/>
<text text-anchor="middle" x="379" y="-12.5" font-family="Helvetica,sans-Serif" font-size="10.00">netspeak/service/UniqueMap.cpp</text>
</a>
</g>
</g>
<!-- Node24&#45;&gt;Node25 -->
<g id="edge32_Node000024_Node000025" class="edge">
<title>Node24&#45;&gt;Node25</title>
<g id="a_edge32_Node000024_Node000025"><a xlink:title=" ">
<path fill="none" stroke="#63b8ff" d="M379,-61.08C379,-49.13 379,-34.22 379,-24.91"/>
<polygon fill="#63b8ff" stroke="#63b8ff" points="375.5,-61.37 379,-71.37 382.5,-61.37 375.5,-61.37"/>
</a>
</g>
</g>
</g>
</svg>
