<?xml version="1.0" encoding="UTF-8" standalone="no"?>
<!DOCTYPE svg PUBLIC "-//W3C//DTD SVG 1.1//EN"
 "http://www.w3.org/Graphics/SVG/1.1/DTD/svg11.dtd">
<!-- Generated by graphviz version 2.43.0 (0)
 -->
<!-- Title: netspeak/regex/RegexIndex.hpp Pages: 1 -->
<svg width="1090pt" height="291pt"
 viewBox="0.00 0.00 1090.00 291.00" xmlns="http://www.w3.org/2000/svg" xmlns:xlink="http://www.w3.org/1999/xlink">
<g id="graph0" class="graph" transform="scale(1 1) rotate(0) translate(4 287)">
<title>netspeak/regex/RegexIndex.hpp</title>
<!-- Node1 -->
<g id="Node000001" class="node">
<title>Node1</title>
<g id="a_Node000001"><a xlink:title=" ">
<polygon fill="#999999" stroke="#666666" points="645.5,-283 471.5,-283 471.5,-264 645.5,-264 645.5,-283"/>
<text text-anchor="middle" x="558.5" y="-271" font-family="Helvetica,sans-Serif" font-size="10.00">netspeak/regex/RegexIndex.hpp</text>
</a>
</g>
</g>
<!-- Node2 -->
<g id="Node000002" class="node">
<title>Node2</title>
<g id="a_Node000002"><a xlink:href="QueryNormalizer_8hpp.html" target="_top" xlink:title=" ">
<polygon fill="white" stroke="#666666" points="459.5,-222.5 291.5,-222.5 291.5,-203.5 459.5,-203.5 459.5,-222.5"/>
<text text-anchor="middle" x="375.5" y="-210.5" font-family="Helvetica,sans-Serif" font-size="10.00">netspeak/QueryNormalizer.hpp</text>
</a>
</g>
</g>
<!-- Node1&#45;&gt;Node2 -->
<g id="edge1_Node000001_Node000002" class="edge">
<title>Node1&#45;&gt;Node2</title>
<g id="a_edge1_Node000001_Node000002"><a xlink:title=" ">
<path fill="none" stroke="#63b8ff" d="M521.95,-260.82C486.56,-249.5 433.73,-232.62 402.14,-222.52"/>
<polygon fill="#63b8ff" stroke="#63b8ff" points="521.3,-264.28 531.89,-263.99 523.43,-257.61 521.3,-264.28"/>
</a>
</g>
</g>
<!-- Node15 -->
<g id="Node000015" class="node">
<title>Node15</title>
<g id="a_Node000015"><a xlink:href="DefaultRegexIndex_8cpp.html" target="_top" xlink:title=" ">
<polygon fill="white" stroke="#666666" points="790.5,-162 628.5,-162 628.5,-132 790.5,-132 790.5,-162"/>
<text text-anchor="start" x="636.5" y="-150" font-family="Helvetica,sans-Serif" font-size="10.00">netspeak/regex/DefaultRegex</text>
<text text-anchor="middle" x="709.5" y="-139" font-family="Helvetica,sans-Serif" font-size="10.00">Index.cpp</text>
</a>
</g>
</g>
<!-- Node1&#45;&gt;Node15 -->
<g id="edge15_Node000001_Node000015" class="edge">
<title>Node1&#45;&gt;Node15</title>
<g id="a_edge15_Node000001_Node000015"><a xlink:title=" ">
<path fill="none" stroke="#63b8ff" d="M592.66,-260.02C610.47,-252.47 631.93,-241.66 648.5,-228 671.68,-208.89 691.25,-179.35 701.6,-162.02"/>
<polygon fill="#63b8ff" stroke="#63b8ff" points="591.13,-256.86 583.19,-263.88 593.77,-263.35 591.13,-256.86"/>
</a>
</g>
</g>
<!-- Node16 -->
<g id="Node000016" class="node">
<title>Node16</title>
<g id="a_Node000016"><a xlink:href="DefaultRegexIndex_8hpp.html" target="_top" xlink:title=" ">
<polygon fill="white" stroke="#666666" points="639.5,-228 477.5,-228 477.5,-198 639.5,-198 639.5,-228"/>
<text text-anchor="start" x="485.5" y="-216" font-family="Helvetica,sans-Serif" font-size="10.00">netspeak/regex/DefaultRegex</text>
<text text-anchor="middle" x="558.5" y="-205" font-family="Helvetica,sans-Serif" font-size="10.00">Index.hpp</text>
</a>
</g>
</g>
<!-- Node1&#45;&gt;Node16 -->
<g id="edge16_Node000001_Node000016" class="edge">
<title>Node1&#45;&gt;Node16</title>
<g id="a_edge16_Node000001_Node000016"><a xlink:title=" ">
<path fill="none" stroke="#63b8ff" d="M558.5,-253.65C558.5,-245.36 558.5,-235.78 558.5,-228.11"/>
<polygon fill="#63b8ff" stroke="#63b8ff" points="555,-253.87 558.5,-263.87 562,-253.87 555,-253.87"/>
</a>
</g>
</g>
<!-- Node3 -->
<g id="Node000003" class="node">
<title>Node3</title>
<g id="a_Node000003"><a xlink:href="Netspeak_8hpp.html" target="_top" xlink:title=" ">
<polygon fill="white" stroke="#666666" points="460.5,-156.5 328.5,-156.5 328.5,-137.5 460.5,-137.5 460.5,-156.5"/>
<text text-anchor="middle" x="394.5" y="-144.5" font-family="Helvetica,sans-Serif" font-size="10.00">netspeak/Netspeak.hpp</text>
</a>
</g>
</g>
<!-- Node2&#45;&gt;Node3 -->
<g id="edge2_Node000002_Node000003" class="edge">
<title>Node2&#45;&gt;Node3</title>
<g id="a_edge2_Node000002_Node000003"><a xlink:title=" ">
<path fill="none" stroke="#63b8ff" d="M381.01,-193.45C384.57,-181.43 389.06,-166.32 391.86,-156.91"/>
<polygon fill="#63b8ff" stroke="#63b8ff" points="377.55,-192.79 378.06,-203.37 384.26,-194.78 377.55,-192.79"/>
</a>
</g>
</g>
<!-- Node14 -->
<g id="Node000014" class="node">
<title>Node14</title>
<g id="a_Node000014"><a xlink:href="QueryNormalizer_8cpp.html" target="_top" xlink:title=" ">
<polygon fill="white" stroke="#666666" points="310,-156.5 143,-156.5 143,-137.5 310,-137.5 310,-156.5"/>
<text text-anchor="middle" x="226.5" y="-144.5" font-family="Helvetica,sans-Serif" font-size="10.00">netspeak/QueryNormalizer.cpp</text>
</a>
</g>
</g>
<!-- Node2&#45;&gt;Node14 -->
<g id="edge14_Node000002_Node000014" class="edge">
<title>Node2&#45;&gt;Node14</title>
<g id="a_edge14_Node000002_Node000014"><a xlink:title=" ">
<path fill="none" stroke="#63b8ff" d="M346.07,-199.36C316.71,-186.75 272.38,-167.71 246.75,-156.7"/>
<polygon fill="#63b8ff" stroke="#63b8ff" points="344.84,-202.64 355.41,-203.37 347.6,-196.21 344.84,-202.64"/>
</a>
</g>
</g>
<!-- Node4 -->
<g id="Node000004" class="node">
<title>Node4</title>
<g id="a_Node000004"><a xlink:href="ProxyCommand_8cpp.html" target="_top" xlink:title=" ">
<polygon fill="white" stroke="#666666" points="129,-90.5 0,-90.5 0,-71.5 129,-71.5 129,-90.5"/>
<text text-anchor="middle" x="64.5" y="-78.5" font-family="Helvetica,sans-Serif" font-size="10.00">cli/ProxyCommand.cpp</text>
</a>
</g>
</g>
<!-- Node3&#45;&gt;Node4 -->
<g id="edge3_Node000003_Node000004" class="edge">
<title>Node3&#45;&gt;Node4</title>
<g id="a_edge3_Node000003_Node000004"><a xlink:title=" ">
<path fill="none" stroke="#63b8ff" d="M340.31,-135.49C275.5,-122.92 168.28,-102.13 108.4,-90.51"/>
<polygon fill="#63b8ff" stroke="#63b8ff" points="339.85,-138.97 350.34,-137.44 341.19,-132.1 339.85,-138.97"/>
</a>
</g>
</g>
<!-- Node5 -->
<g id="Node000005" class="node">
<title>Node5</title>
<g id="a_Node000005"><a xlink:href="ServeCommand_8cpp.html" target="_top" xlink:title=" ">
<polygon fill="white" stroke="#666666" points="414,-24.5 285,-24.5 285,-5.5 414,-5.5 414,-24.5"/>
<text text-anchor="middle" x="349.5" y="-12.5" font-family="Helvetica,sans-Serif" font-size="10.00">cli/ServeCommand.cpp</text>
</a>
</g>
</g>
<!-- Node3&#45;&gt;Node5 -->
<g id="edge4_Node000003_Node000005" class="edge">
<title>Node3&#45;&gt;Node5</title>
<g id="a_edge4_Node000003_Node000005"><a xlink:title=" ">
<path fill="none" stroke="#63b8ff" d="M340.83,-135.42C277.98,-122.78 181.69,-102.52 176.5,-96 142.79,-53.68 222.71,-32.79 284.86,-23.21"/>
<polygon fill="#63b8ff" stroke="#63b8ff" points="340.5,-138.93 351,-137.46 341.88,-132.06 340.5,-138.93"/>
</a>
</g>
</g>
<!-- Node6 -->
<g id="Node000006" class="node">
<title>Node6</title>
<g id="a_Node000006"><a xlink:href="ShellCommand_8cpp.html" target="_top" xlink:title=" ">
<polygon fill="white" stroke="#666666" points="311,-90.5 186,-90.5 186,-71.5 311,-71.5 311,-90.5"/>
<text text-anchor="middle" x="248.5" y="-78.5" font-family="Helvetica,sans-Serif" font-size="10.00">cli/ShellCommand.cpp</text>
</a>
</g>
</g>
<!-- Node3&#45;&gt;Node6 -->
<g id="edge5_Node000003_Node000006" class="edge">
<title>Node3&#45;&gt;Node6</title>
<g id="a_edge5_Node000003_Node000006"><a xlink:title=" ">
<path fill="none" stroke="#63b8ff" d="M365.29,-133.19C336.51,-120.58 293.35,-101.66 268.34,-90.7"/>
<polygon fill="#63b8ff" stroke="#63b8ff" points="364.25,-136.56 374.81,-137.37 367.06,-130.15 364.25,-136.56"/>
</a>
</g>
</g>
<!-- Node7 -->
<g id="Node000007" class="node">
<title>Node7</title>
<g id="a_Node000007"><a xlink:href="Netspeak_8cpp.html" target="_top" xlink:title=" ">
<polygon fill="white" stroke="#666666" points="460,-90.5 329,-90.5 329,-71.5 460,-71.5 460,-90.5"/>
<text text-anchor="middle" x="394.5" y="-78.5" font-family="Helvetica,sans-Serif" font-size="10.00">netspeak/Netspeak.cpp</text>
</a>
</g>
</g>
<!-- Node3&#45;&gt;Node7 -->
<g id="edge6_Node000003_Node000007" class="edge">
<title>Node3&#45;&gt;Node7</title>
<g id="a_edge6_Node000003_Node000007"><a xlink:title=" ">
<path fill="none" stroke="#63b8ff" d="M394.5,-127.08C394.5,-115.13 394.5,-100.22 394.5,-90.91"/>
<polygon fill="#63b8ff" stroke="#63b8ff" points="391,-127.37 394.5,-137.37 398,-127.37 391,-127.37"/>
</a>
</g>
</g>
<!-- Node8 -->
<g id="Node000008" class="node">
<title>Node8</title>
<g id="a_Node000008"><a xlink:href="indexing_8cpp.html" target="_top" xlink:title=" ">
<polygon fill="white" stroke="#666666" points="605,-90.5 478,-90.5 478,-71.5 605,-71.5 605,-90.5"/>
<text text-anchor="middle" x="541.5" y="-78.5" font-family="Helvetica,sans-Serif" font-size="10.00">netspeak/indexing.cpp</text>
</a>
</g>
</g>
<!-- Node3&#45;&gt;Node8 -->
<g id="edge7_Node000003_Node000008" class="edge">
<title>Node3&#45;&gt;Node8</title>
<g id="a_edge7_Node000003_Node000008"><a xlink:title=" ">
<path fill="none" stroke="#63b8ff" d="M423.54,-133.36C452.5,-120.75 496.24,-101.71 521.52,-90.7"/>
<polygon fill="#63b8ff" stroke="#63b8ff" points="422.1,-130.17 414.33,-137.37 424.89,-136.59 422.1,-130.17"/>
</a>
</g>
</g>
<!-- Node9 -->
<g id="Node000009" class="node">
<title>Node9</title>
<g id="a_Node000009"><a xlink:href="RequestLogger_8hpp.html" target="_top" xlink:title=" ">
<polygon fill="white" stroke="#666666" points="963,-96 820,-96 820,-66 963,-66 963,-96"/>
<text text-anchor="start" x="828" y="-84" font-family="Helvetica,sans-Serif" font-size="10.00">netspeak/service/Request</text>
<text text-anchor="middle" x="891.5" y="-73" font-family="Helvetica,sans-Serif" font-size="10.00">Logger.hpp</text>
</a>
</g>
</g>
<!-- Node3&#45;&gt;Node9 -->
<g id="edge8_Node000003_Node000009" class="edge">
<title>Node3&#45;&gt;Node9</title>
<g id="a_edge8_Node000003_Node000009"><a xlink:title=" ">
<path fill="none" stroke="#63b8ff" d="M446.73,-135.7C454.35,-134.36 462.12,-133.08 469.5,-132 620.74,-109.96 660.14,-117.19 811.5,-96 814.15,-95.63 816.85,-95.24 819.58,-94.83"/>
<polygon fill="#63b8ff" stroke="#63b8ff" points="446.06,-132.26 436.84,-137.49 447.31,-139.15 446.06,-132.26"/>
</a>
</g>
</g>
<!-- Node12 -->
<g id="Node000012" class="node">
<title>Node12</title>
<g id="a_Node000012"><a xlink:href="UniqueMap_8hpp.html" target="_top" xlink:title=" ">
<polygon fill="white" stroke="#666666" points="802,-90.5 623,-90.5 623,-71.5 802,-71.5 802,-90.5"/>
<text text-anchor="middle" x="712.5" y="-78.5" font-family="Helvetica,sans-Serif" font-size="10.00">netspeak/service/UniqueMap.hpp</text>
</a>
</g>
</g>
<!-- Node3&#45;&gt;Node12 -->
<g id="edge11_Node000003_Node000012" class="edge">
<title>Node3&#45;&gt;Node12</title>
<g id="a_edge11_Node000003_Node000012"><a xlink:title=" ">
<path fill="none" stroke="#63b8ff" d="M447.1,-135.41C509.6,-122.84 612.61,-102.1 670.2,-90.51"/>
<polygon fill="#63b8ff" stroke="#63b8ff" points="446.17,-132.03 437.06,-137.44 447.55,-138.89 446.17,-132.03"/>
</a>
</g>
</g>
<!-- Node10 -->
<g id="Node000010" class="node">
<title>Node10</title>
<g id="a_Node000010"><a xlink:href="cli_2logging_8cpp.html" target="_top" xlink:title=" ">
<polygon fill="white" stroke="#666666" points="921,-24.5 834,-24.5 834,-5.5 921,-5.5 921,-24.5"/>
<text text-anchor="middle" x="877.5" y="-12.5" font-family="Helvetica,sans-Serif" font-size="10.00">cli/logging.cpp</text>
</a>
</g>
</g>
<!-- Node9&#45;&gt;Node10 -->
<g id="edge9_Node000009_Node000010" class="edge">
<title>Node9&#45;&gt;Node10</title>
<g id="a_edge9_Node000009_Node000010"><a xlink:title=" ">
<path fill="none" stroke="#63b8ff" d="M886.24,-55.94C883.86,-45.06 881.19,-32.86 879.43,-24.84"/>
<polygon fill="#63b8ff" stroke="#63b8ff" points="882.84,-56.78 888.39,-65.8 889.68,-55.28 882.84,-56.78"/>
</a>
</g>
</g>
<!-- Node11 -->
<g id="Node000011" class="node">
<title>Node11</title>
<g id="a_Node000011"><a xlink:href="RequestLogger_8cpp.html" target="_top" xlink:title=" ">
<polygon fill="white" stroke="#666666" points="1082,-30 939,-30 939,0 1082,0 1082,-30"/>
<text text-anchor="start" x="947" y="-18" font-family="Helvetica,sans-Serif" font-size="10.00">netspeak/service/Request</text>
<text text-anchor="middle" x="1010.5" y="-7" font-family="Helvetica,sans-Serif" font-size="10.00">Logger.cpp</text>
</a>
</g>
</g>
<!-- Node9&#45;&gt;Node11 -->
<g id="edge10_Node000009_Node000011" class="edge">
<title>Node9&#45;&gt;Node11</title>
<g id="a_edge10_Node000009_Node000011"><a xlink:title=" ">
<path fill="none" stroke="#63b8ff" d="M926.63,-61.11C945.15,-51.14 967.49,-39.13 984.45,-30.01"/>
<polygon fill="#63b8ff" stroke="#63b8ff" points="924.76,-58.14 917.62,-65.95 928.08,-64.3 924.76,-58.14"/>
</a>
</g>
</g>
<!-- Node12&#45;&gt;Node5 -->
<g id="edge12_Node000012_Node000005" class="edge">
<title>Node12&#45;&gt;Node5</title>
<g id="a_edge12_Node000012_Node000005"><a xlink:title=" ">
<path fill="none" stroke="#63b8ff" d="M653.77,-69.65C582.57,-57.09 463.93,-36.17 397.79,-24.51"/>
<polygon fill="#63b8ff" stroke="#63b8ff" points="653.47,-73.15 663.92,-71.44 654.68,-66.25 653.47,-73.15"/>
</a>
</g>
</g>
<!-- Node13 -->
<g id="Node000013" class="node">
<title>Node13</title>
<g id="a_Node000013"><a xlink:href="UniqueMap_8cpp.html" target="_top" xlink:title=" ">
<polygon fill="white" stroke="#666666" points="802,-24.5 623,-24.5 623,-5.5 802,-5.5 802,-24.5"/>
<text text-anchor="middle" x="712.5" y="-12.5" font-family="Helvetica,sans-Serif" font-size="10.00">netspeak/service/UniqueMap.cpp</text>
</a>
</g>
</g>
<!-- Node12&#45;&gt;Node13 -->
<g id="edge13_Node000012_Node000013" class="edge">
<title>Node12&#45;&gt;Node13</title>
<g id="a_edge13_Node000012_Node000013"><a xlink:title=" ">
<path fill="none" stroke="#63b8ff" d="M712.5,-61.08C712.5,-49.13 712.5,-34.22 712.5,-24.91"/>
<polygon fill="#63b8ff" stroke="#63b8ff" points="709,-61.37 712.5,-71.37 716,-61.37 709,-61.37"/>
</a>
</g>
</g>
<!-- Node16&#45;&gt;Node3 -->
<g id="edge18_Node000016_Node000003" class="edge">
<title>Node16&#45;&gt;Node3</title>
<g id="a_edge18_Node000016_Node000003"><a xlink:title=" ">
<path fill="none" stroke="#63b8ff" d="M513.04,-194.26C481.5,-181.95 440.9,-166.11 416.33,-156.52"/>
<polygon fill="#63b8ff" stroke="#63b8ff" points="511.92,-197.58 522.51,-197.95 514.47,-191.06 511.92,-197.58"/>
</a>
</g>
</g>
<!-- Node16&#45;&gt;Node15 -->
<g id="edge19_Node000016_Node000015" class="edge">
<title>Node16&#45;&gt;Node15</title>
<g id="a_edge19_Node000016_Node000015"><a xlink:title=" ">
<path fill="none" stroke="#63b8ff" d="M601.16,-193.92C625.03,-183.8 654.33,-171.38 676.44,-162.01"/>
<polygon fill="#63b8ff" stroke="#63b8ff" points="599.48,-190.83 591.64,-197.95 602.21,-197.28 599.48,-190.83"/>
</a>
</g>
</g>
<!-- Node17 -->
<g id="Node000017" class="node">
<title>Node17</title>
<g id="a_Node000017"><a xlink:href="RegexCommand_8cpp.html" target="_top" xlink:title=" ">
<polygon fill="white" stroke="#666666" points="610.5,-156.5 478.5,-156.5 478.5,-137.5 610.5,-137.5 610.5,-156.5"/>
<text text-anchor="middle" x="544.5" y="-144.5" font-family="Helvetica,sans-Serif" font-size="10.00">cli/RegexCommand.cpp</text>
</a>
</g>
</g>
<!-- Node16&#45;&gt;Node17 -->
<g id="edge17_Node000016_Node000017" class="edge">
<title>Node16&#45;&gt;Node17</title>
<g id="a_edge17_Node000016_Node000017"><a xlink:title=" ">
<path fill="none" stroke="#63b8ff" d="M553.24,-187.94C550.86,-177.06 548.19,-164.86 546.43,-156.84"/>
<polygon fill="#63b8ff" stroke="#63b8ff" points="549.84,-188.78 555.39,-197.8 556.68,-187.28 549.84,-188.78"/>
</a>
</g>
</g>
</g>
</svg>
