<?xml version="1.0" encoding="UTF-8" standalone="no"?>
<!DOCTYPE svg PUBLIC "-//W3C//DTD SVG 1.1//EN"
 "http://www.w3.org/Graphics/SVG/1.1/DTD/svg11.dtd">
<!-- Generated by graphviz version 2.43.0 (0)
 -->
<!-- Title: netspeak/RetrievalStrategy.hpp Pages: 1 -->
<svg width="915pt" height="247pt"
 viewBox="0.00 0.00 915.00 247.00" xmlns="http://www.w3.org/2000/svg" xmlns:xlink="http://www.w3.org/1999/xlink">
<g id="graph0" class="graph" transform="scale(1 1) rotate(0) translate(4 243)">
<title>netspeak/RetrievalStrategy.hpp</title>
<!-- Node1 -->
<g id="Node000001" class="node">
<title>Node1</title>
<g id="a_Node000001"><a xlink:title=" ">
<polygon fill="#999999" stroke="#666666" points="592,-239 422,-239 422,-220 592,-220 592,-239"/>
<text text-anchor="middle" x="507" y="-227" font-family="Helvetica,sans-Serif" font-size="10.00">netspeak/RetrievalStrategy.hpp</text>
</a>
</g>
</g>
<!-- Node2 -->
<g id="Node000002" class="node">
<title>Node2</title>
<g id="a_Node000002"><a xlink:href="Configuration_8hpp.html" target="_top" xlink:title=" ">
<polygon fill="white" stroke="#666666" points="453.5,-184 350.5,-184 350.5,-165 453.5,-165 453.5,-184"/>
<text text-anchor="middle" x="402" y="-172" font-family="Helvetica,sans-Serif" font-size="10.00">Configuration.hpp</text>
</a>
</g>
</g>
<!-- Node1&#45;&gt;Node2 -->
<g id="edge1_Node000001_Node000002" class="edge">
<title>Node1&#45;&gt;Node2</title>
<g id="a_edge1_Node000001_Node000002"><a xlink:title=" ">
<path fill="none" stroke="#63b8ff" d="M490.13,-219.98C473.39,-211.54 447.5,-198.47 428.11,-188.68"/>
<polygon fill="#63b8ff" stroke="#63b8ff" points="429.68,-185.55 419.18,-184.17 426.53,-191.8 429.68,-185.55"/>
</a>
</g>
</g>
<!-- Node14 -->
<g id="Node000014" class="node">
<title>Node14</title>
<g id="a_Node000014"><a xlink:href="Properties_8hpp.html" target="_top" xlink:title=" ">
<polygon fill="white" stroke="#666666" points="242.5,-184 155.5,-184 155.5,-165 242.5,-165 242.5,-184"/>
<text text-anchor="middle" x="199" y="-172" font-family="Helvetica,sans-Serif" font-size="10.00">Properties.hpp</text>
</a>
</g>
</g>
<!-- Node1&#45;&gt;Node14 -->
<g id="edge15_Node000001_Node000014" class="edge">
<title>Node1&#45;&gt;Node14</title>
<g id="a_edge15_Node000001_Node000014"><a xlink:title=" ">
<path fill="none" stroke="#63b8ff" d="M457.51,-219.98C401.53,-210.35 310.65,-194.71 252.9,-184.78"/>
<polygon fill="#63b8ff" stroke="#63b8ff" points="253.32,-181.3 242.88,-183.05 252.14,-188.2 253.32,-181.3"/>
</a>
</g>
</g>
<!-- Node15 -->
<g id="Node000015" class="node">
<title>Node15</title>
<g id="a_Node000015"><a xlink:href="NormQuery_8hpp.html" target="_top" xlink:title=" ">
<polygon fill="white" stroke="#666666" points="676,-184 550,-184 550,-165 676,-165 676,-184"/>
<text text-anchor="middle" x="613" y="-172" font-family="Helvetica,sans-Serif" font-size="10.00">model/NormQuery.hpp</text>
</a>
</g>
</g>
<!-- Node1&#45;&gt;Node15 -->
<g id="edge17_Node000001_Node000015" class="edge">
<title>Node1&#45;&gt;Node15</title>
<g id="a_edge17_Node000001_Node000015"><a xlink:title=" ">
<path fill="none" stroke="#63b8ff" d="M524.03,-219.98C540.93,-211.54 567.06,-198.47 586.64,-188.68"/>
<polygon fill="#63b8ff" stroke="#63b8ff" points="588.28,-191.77 595.66,-184.17 585.15,-185.51 588.28,-191.77"/>
</a>
</g>
</g>
<!-- Node20 -->
<g id="Node000020" class="node">
<title>Node20</title>
<g id="a_Node000020"><a xlink:href="SearchOptions_8hpp.html" target="_top" xlink:title=" ">
<polygon fill="white" stroke="#666666" points="894,-184 752,-184 752,-165 894,-165 894,-184"/>
<text text-anchor="middle" x="823" y="-172" font-family="Helvetica,sans-Serif" font-size="10.00">model/SearchOptions.hpp</text>
</a>
</g>
</g>
<!-- Node1&#45;&gt;Node20 -->
<g id="edge30_Node000001_Node000020" class="edge">
<title>Node1&#45;&gt;Node20</title>
<g id="a_edge30_Node000001_Node000020"><a xlink:title=" ">
<path fill="none" stroke="#63b8ff" d="M557.77,-219.98C613.43,-210.65 702.71,-195.67 762.1,-185.71"/>
<polygon fill="#63b8ff" stroke="#63b8ff" points="762.81,-189.14 772.09,-184.04 761.65,-182.24 762.81,-189.14"/>
</a>
</g>
</g>
<!-- Node3 -->
<g id="Node000003" class="node">
<title>Node3</title>
<g id="a_Node000003"><a xlink:title=" ">
<polygon fill="#e0e0e0" stroke="#999999" points="234,-74 166,-74 166,-55 234,-55 234,-74"/>
<text text-anchor="middle" x="200" y="-62" font-family="Helvetica,sans-Serif" font-size="10.00">filesystem</text>
</a>
</g>
</g>
<!-- Node2&#45;&gt;Node3 -->
<g id="edge2_Node000002_Node000003" class="edge">
<title>Node2&#45;&gt;Node3</title>
<g id="a_edge2_Node000002_Node000003"><a xlink:title=" ">
<path fill="none" stroke="#63b8ff" d="M350.13,-171.5C312.97,-167.56 263.74,-156.92 230,-129 216.23,-117.6 208.39,-98.43 204.21,-84.13"/>
<polygon fill="#63b8ff" stroke="#63b8ff" points="207.57,-83.16 201.68,-74.35 200.79,-84.91 207.57,-83.16"/>
</a>
</g>
</g>
<!-- Node4 -->
<g id="Node000004" class="node">
<title>Node4</title>
<g id="a_Node000004"><a xlink:title=" ">
<polygon fill="#e0e0e0" stroke="#999999" points="746,-74 688,-74 688,-55 746,-55 746,-74"/>
<text text-anchor="middle" x="717" y="-62" font-family="Helvetica,sans-Serif" font-size="10.00">memory</text>
</a>
</g>
</g>
<!-- Node2&#45;&gt;Node4 -->
<g id="edge3_Node000002_Node000004" class="edge">
<title>Node2&#45;&gt;Node4</title>
<g id="a_edge3_Node000002_Node000004"><a xlink:title=" ">
<path fill="none" stroke="#63b8ff" d="M453.73,-168.62C533.13,-160.69 677.8,-144.35 696,-129 709.03,-118.01 714.02,-98.75 715.91,-84.32"/>
<polygon fill="#63b8ff" stroke="#63b8ff" points="719.42,-84.3 716.85,-74.02 712.45,-83.66 719.42,-84.3"/>
</a>
</g>
</g>
<!-- Node5 -->
<g id="Node000005" class="node">
<title>Node5</title>
<g id="a_Node000005"><a xlink:title=" ">
<polygon fill="#e0e0e0" stroke="#999999" points="467,-74 411,-74 411,-55 467,-55 467,-74"/>
<text text-anchor="middle" x="439" y="-62" font-family="Helvetica,sans-Serif" font-size="10.00">optional</text>
</a>
</g>
</g>
<!-- Node2&#45;&gt;Node5 -->
<g id="edge4_Node000002_Node000005" class="edge">
<title>Node2&#45;&gt;Node5</title>
<g id="a_edge4_Node000002_Node000005"><a xlink:title=" ">
<path fill="none" stroke="#63b8ff" d="M418.03,-164.95C430.41,-157.35 446.65,-144.97 454,-129 460.8,-114.24 455.27,-96.09 449.09,-82.97"/>
<polygon fill="#63b8ff" stroke="#63b8ff" points="452.17,-81.31 444.44,-74.07 445.97,-84.55 452.17,-81.31"/>
</a>
</g>
</g>
<!-- Node6 -->
<g id="Node000006" class="node">
<title>Node6</title>
<g id="a_Node000006"><a xlink:title=" ">
<polygon fill="#e0e0e0" stroke="#999999" points="355,-74 311,-74 311,-55 355,-55 355,-74"/>
<text text-anchor="middle" x="333" y="-62" font-family="Helvetica,sans-Serif" font-size="10.00">string</text>
</a>
</g>
</g>
<!-- Node2&#45;&gt;Node6 -->
<g id="edge5_Node000002_Node000006" class="edge">
<title>Node2&#45;&gt;Node6</title>
<g id="a_edge5_Node000002_Node000006"><a xlink:title=" ">
<path fill="none" stroke="#63b8ff" d="M350.38,-166.39C307.61,-159.32 251.71,-146.93 238,-129 217.54,-102.25 265.98,-83.06 300.95,-73.16"/>
<polygon fill="#63b8ff" stroke="#63b8ff" points="302.08,-76.48 310.83,-70.5 300.26,-69.72 302.08,-76.48"/>
</a>
</g>
</g>
<!-- Node7 -->
<g id="Node000007" class="node">
<title>Node7</title>
<g id="a_Node000007"><a xlink:title=" ">
<polygon fill="#e0e0e0" stroke="#999999" points="340.5,-129 247.5,-129 247.5,-110 340.5,-110 340.5,-129"/>
<text text-anchor="middle" x="294" y="-117" font-family="Helvetica,sans-Serif" font-size="10.00">unordered_map</text>
</a>
</g>
</g>
<!-- Node2&#45;&gt;Node7 -->
<g id="edge6_Node000002_Node000007" class="edge">
<title>Node2&#45;&gt;Node7</title>
<g id="a_edge6_Node000002_Node000007"><a xlink:title=" ">
<path fill="none" stroke="#63b8ff" d="M384.65,-164.98C367.43,-156.54 340.8,-143.47 320.85,-133.68"/>
<polygon fill="#63b8ff" stroke="#63b8ff" points="322.19,-130.43 311.67,-129.17 319.1,-136.72 322.19,-130.43"/>
</a>
</g>
</g>
<!-- Node8 -->
<g id="Node000008" class="node">
<title>Node8</title>
<g id="a_Node000008"><a xlink:title=" ">
<polygon fill="#e0e0e0" stroke="#999999" points="445,-129 359,-129 359,-110 445,-110 445,-129"/>
<text text-anchor="middle" x="402" y="-117" font-family="Helvetica,sans-Serif" font-size="10.00">unordered_set</text>
</a>
</g>
</g>
<!-- Node2&#45;&gt;Node8 -->
<g id="edge7_Node000002_Node000008" class="edge">
<title>Node2&#45;&gt;Node8</title>
<g id="a_edge7_Node000002_Node000008"><a xlink:title=" ">
<path fill="none" stroke="#63b8ff" d="M402,-164.75C402,-157.8 402,-147.85 402,-139.13"/>
<polygon fill="#63b8ff" stroke="#63b8ff" points="405.5,-139.09 402,-129.09 398.5,-139.09 405.5,-139.09"/>
</a>
</g>
</g>
<!-- Node9 -->
<g id="Node000009" class="node">
<title>Node9</title>
<g id="a_Node000009"><a xlink:title=" ">
<polygon fill="#e0e0e0" stroke="#999999" points="814.5,-74 767.5,-74 767.5,-55 814.5,-55 814.5,-74"/>
<text text-anchor="middle" x="791" y="-62" font-family="Helvetica,sans-Serif" font-size="10.00">vector</text>
</a>
</g>
</g>
<!-- Node2&#45;&gt;Node9 -->
<g id="edge8_Node000002_Node000009" class="edge">
<title>Node2&#45;&gt;Node9</title>
<g id="a_edge8_Node000002_Node000009"><a xlink:title=" ">
<path fill="none" stroke="#63b8ff" d="M453.77,-169.66C530.48,-163.39 670.22,-149.53 716,-129 740.43,-118.04 763.09,-96.65 776.97,-81.74"/>
<polygon fill="#63b8ff" stroke="#63b8ff" points="779.65,-84.01 783.74,-74.23 774.45,-79.32 779.65,-84.01"/>
</a>
</g>
</g>
<!-- Node10 -->
<g id="Node000010" class="node">
<title>Node10</title>
<g id="a_Node000010"><a xlink:href="Config_8hpp.html" target="_top" xlink:title=" ">
<polygon fill="white" stroke="#666666" points="152.5,-129 65.5,-129 65.5,-110 152.5,-110 152.5,-129"/>
<text text-anchor="middle" x="109" y="-117" font-family="Helvetica,sans-Serif" font-size="10.00">util/Config.hpp</text>
</a>
</g>
</g>
<!-- Node2&#45;&gt;Node10 -->
<g id="edge9_Node000002_Node000010" class="edge">
<title>Node2&#45;&gt;Node10</title>
<g id="a_edge9_Node000002_Node000010"><a xlink:title=" ">
<path fill="none" stroke="#63b8ff" d="M354.92,-164.98C302.39,-155.48 217.54,-140.13 162.52,-130.18"/>
<polygon fill="#63b8ff" stroke="#63b8ff" points="163.07,-126.72 152.61,-128.39 161.83,-133.61 163.07,-126.72"/>
</a>
</g>
</g>
<!-- Node10&#45;&gt;Node3 -->
<g id="edge10_Node000010_Node000003" class="edge">
<title>Node10&#45;&gt;Node3</title>
<g id="a_edge10_Node000010_Node000003"><a xlink:title=" ">
<path fill="none" stroke="#63b8ff" d="M123.62,-109.98C137.86,-101.69 159.75,-88.94 176.45,-79.22"/>
<polygon fill="#63b8ff" stroke="#63b8ff" points="178.23,-82.23 185.11,-74.17 174.71,-76.18 178.23,-82.23"/>
</a>
</g>
</g>
<!-- Node10&#45;&gt;Node6 -->
<g id="edge14_Node000010_Node000006" class="edge">
<title>Node10&#45;&gt;Node6</title>
<g id="a_edge14_Node000010_Node000006"><a xlink:title=" ">
<path fill="none" stroke="#63b8ff" d="M144.99,-109.98C188.08,-99.79 259.61,-82.86 300.9,-73.09"/>
<polygon fill="#63b8ff" stroke="#63b8ff" points="301.79,-76.48 310.71,-70.77 300.18,-69.67 301.79,-76.48"/>
</a>
</g>
</g>
<!-- Node11 -->
<g id="Node000011" class="node">
<title>Node11</title>
<g id="a_Node000011"><a xlink:title=" ">
<polygon fill="#e0e0e0" stroke="#999999" points="54,-74 0,-74 0,-55 54,-55 54,-74"/>
<text text-anchor="middle" x="27" y="-62" font-family="Helvetica,sans-Serif" font-size="10.00">istream</text>
</a>
</g>
</g>
<!-- Node10&#45;&gt;Node11 -->
<g id="edge11_Node000010_Node000011" class="edge">
<title>Node10&#45;&gt;Node11</title>
<g id="a_edge11_Node000010_Node000011"><a xlink:title=" ">
<path fill="none" stroke="#63b8ff" d="M95.83,-109.98C83.23,-101.84 64,-89.41 49.06,-79.76"/>
<polygon fill="#63b8ff" stroke="#63b8ff" points="50.71,-76.66 40.41,-74.17 46.91,-82.54 50.71,-76.66"/>
</a>
</g>
</g>
<!-- Node12 -->
<g id="Node000012" class="node">
<title>Node12</title>
<g id="a_Node000012"><a xlink:title=" ">
<polygon fill="#e0e0e0" stroke="#999999" points="110,-74 72,-74 72,-55 110,-55 110,-74"/>
<text text-anchor="middle" x="91" y="-62" font-family="Helvetica,sans-Serif" font-size="10.00">map</text>
</a>
</g>
</g>
<!-- Node10&#45;&gt;Node12 -->
<g id="edge12_Node000010_Node000012" class="edge">
<title>Node10&#45;&gt;Node12</title>
<g id="a_edge12_Node000010_Node000012"><a xlink:title=" ">
<path fill="none" stroke="#63b8ff" d="M106.03,-109.75C103.64,-102.72 100.21,-92.62 97.23,-83.84"/>
<polygon fill="#63b8ff" stroke="#63b8ff" points="100.45,-82.43 93.92,-74.09 93.82,-84.68 100.45,-82.43"/>
</a>
</g>
</g>
<!-- Node13 -->
<g id="Node000013" class="node">
<title>Node13</title>
<g id="a_Node000013"><a xlink:title=" ">
<polygon fill="#e0e0e0" stroke="#999999" points="368.5,-19 311.5,-19 311.5,0 368.5,0 368.5,-19"/>
<text text-anchor="middle" x="340" y="-7" font-family="Helvetica,sans-Serif" font-size="10.00">ostream</text>
</a>
</g>
</g>
<!-- Node10&#45;&gt;Node13 -->
<g id="edge13_Node000010_Node000013" class="edge">
<title>Node10&#45;&gt;Node13</title>
<g id="a_edge13_Node000010_Node000013"><a xlink:title=" ">
<path fill="none" stroke="#63b8ff" d="M113.21,-109.57C120.25,-95.66 135.74,-68.96 157,-55 201.03,-26.09 262.12,-15.94 301.36,-12.39"/>
<polygon fill="#63b8ff" stroke="#63b8ff" points="301.64,-15.88 311.32,-11.59 301.07,-8.9 301.64,-15.88"/>
</a>
</g>
</g>
<!-- Node14&#45;&gt;Node10 -->
<g id="edge16_Node000014_Node000010" class="edge">
<title>Node14&#45;&gt;Node10</title>
<g id="a_edge16_Node000014_Node000010"><a xlink:title=" ">
<path fill="none" stroke="#63b8ff" d="M184.54,-164.98C170.58,-156.77 149.21,-144.18 132.75,-134.49"/>
<polygon fill="#63b8ff" stroke="#63b8ff" points="134.12,-131.23 123.72,-129.17 130.56,-137.26 134.12,-131.23"/>
</a>
</g>
</g>
<!-- Node15&#45;&gt;Node4 -->
<g id="edge18_Node000015_Node000004" class="edge">
<title>Node15&#45;&gt;Node4</title>
<g id="a_edge18_Node000015_Node000004"><a xlink:title=" ">
<path fill="none" stroke="#63b8ff" d="M672.47,-164.98C693.93,-158.71 716.05,-147.84 729,-129 738.22,-115.59 733.14,-96.99 727.01,-83.39"/>
<polygon fill="#63b8ff" stroke="#63b8ff" points="729.96,-81.48 722.33,-74.13 723.71,-84.64 729.96,-81.48"/>
</a>
</g>
</g>
<!-- Node15&#45;&gt;Node6 -->
<g id="edge19_Node000015_Node000006" class="edge">
<title>Node15&#45;&gt;Node6</title>
<g id="a_edge19_Node000015_Node000006"><a xlink:title=" ">
<path fill="none" stroke="#63b8ff" d="M592.24,-165C561.94,-152.64 503.82,-129.1 454,-110 423.88,-98.45 389.32,-85.8 364.86,-76.95"/>
<polygon fill="#63b8ff" stroke="#63b8ff" points="365.96,-73.62 355.37,-73.52 363.59,-80.21 365.96,-73.62"/>
</a>
</g>
</g>
<!-- Node15&#45;&gt;Node9 -->
<g id="edge20_Node000015_Node000009" class="edge">
<title>Node15&#45;&gt;Node9</title>
<g id="a_edge20_Node000015_Node000009"><a xlink:title=" ">
<path fill="none" stroke="#63b8ff" d="M676.28,-167.26C725.86,-160.92 789.03,-149.09 805,-129 815.29,-116.06 809.22,-97.14 802.15,-83.32"/>
<polygon fill="#63b8ff" stroke="#63b8ff" points="805.02,-81.29 797.04,-74.32 798.93,-84.74 805.02,-81.29"/>
</a>
</g>
</g>
<!-- Node16 -->
<g id="Node000016" class="node">
<title>Node16</title>
<g id="a_Node000016"><a xlink:href="Query_8hpp.html" target="_top" xlink:title=" ">
<polygon fill="white" stroke="#666666" points="686.5,-129 539.5,-129 539.5,-110 686.5,-110 686.5,-129"/>
<text text-anchor="middle" x="613" y="-117" font-family="Helvetica,sans-Serif" font-size="10.00">netspeak/model/Query.hpp</text>
</a>
</g>
</g>
<!-- Node15&#45;&gt;Node16 -->
<g id="edge21_Node000015_Node000016" class="edge">
<title>Node15&#45;&gt;Node16</title>
<g id="a_edge21_Node000015_Node000016"><a xlink:title=" ">
<path fill="none" stroke="#63b8ff" d="M613,-164.75C613,-157.8 613,-147.85 613,-139.13"/>
<polygon fill="#63b8ff" stroke="#63b8ff" points="616.5,-139.09 613,-129.09 609.5,-139.09 616.5,-139.09"/>
</a>
</g>
</g>
<!-- Node16&#45;&gt;Node4 -->
<g id="edge22_Node000016_Node000004" class="edge">
<title>Node16&#45;&gt;Node4</title>
<g id="a_edge22_Node000016_Node000004"><a xlink:title=" ">
<path fill="none" stroke="#63b8ff" d="M629.71,-109.98C646.21,-101.57 671.7,-88.59 690.88,-78.81"/>
<polygon fill="#63b8ff" stroke="#63b8ff" points="692.67,-81.83 699.99,-74.17 689.49,-75.59 692.67,-81.83"/>
</a>
</g>
</g>
<!-- Node16&#45;&gt;Node5 -->
<g id="edge23_Node000016_Node000005" class="edge">
<title>Node16&#45;&gt;Node5</title>
<g id="a_edge23_Node000016_Node000005"><a xlink:title=" ">
<path fill="none" stroke="#63b8ff" d="M585.04,-109.98C555.7,-101.05 509.4,-86.94 476.81,-77.02"/>
<polygon fill="#63b8ff" stroke="#63b8ff" points="477.76,-73.65 467.18,-74.08 475.72,-80.34 477.76,-73.65"/>
</a>
</g>
</g>
<!-- Node16&#45;&gt;Node6 -->
<g id="edge25_Node000016_Node000006" class="edge">
<title>Node16&#45;&gt;Node6</title>
<g id="a_edge25_Node000016_Node000006"><a xlink:title=" ">
<path fill="none" stroke="#63b8ff" d="M568.01,-109.98C511.29,-99.25 415.18,-81.06 365.26,-71.61"/>
<polygon fill="#63b8ff" stroke="#63b8ff" points="365.82,-68.15 355.34,-69.73 364.51,-75.03 365.82,-68.15"/>
</a>
</g>
</g>
<!-- Node16&#45;&gt;Node9 -->
<g id="edge26_Node000016_Node000009" class="edge">
<title>Node16&#45;&gt;Node9</title>
<g id="a_edge26_Node000016_Node000009"><a xlink:title=" ">
<path fill="none" stroke="#63b8ff" d="M641.6,-109.98C673.22,-100.57 724.09,-85.42 757.53,-75.46"/>
<polygon fill="#63b8ff" stroke="#63b8ff" points="758.73,-78.76 767.31,-72.55 756.73,-72.05 758.73,-78.76"/>
</a>
</g>
</g>
<!-- Node17 -->
<g id="Node000017" class="node">
<title>Node17</title>
<g id="a_Node000017"><a xlink:title=" ">
<polygon fill="#e0e0e0" stroke="#999999" points="550.5,-74 485.5,-74 485.5,-55 550.5,-55 550.5,-74"/>
<text text-anchor="middle" x="518" y="-62" font-family="Helvetica,sans-Serif" font-size="10.00">stdexcept</text>
</a>
</g>
</g>
<!-- Node16&#45;&gt;Node17 -->
<g id="edge24_Node000016_Node000017" class="edge">
<title>Node16&#45;&gt;Node17</title>
<g id="a_edge24_Node000016_Node000017"><a xlink:title=" ">
<path fill="none" stroke="#63b8ff" d="M597.74,-109.98C582.87,-101.69 560.02,-88.94 542.58,-79.22"/>
<polygon fill="#63b8ff" stroke="#63b8ff" points="543.98,-75.99 533.54,-74.17 540.57,-82.1 543.98,-75.99"/>
</a>
</g>
</g>
<!-- Node18 -->
<g id="Node000018" class="node">
<title>Node18</title>
<g id="a_Node000018"><a xlink:href="LengthRange_8hpp.html" target="_top" xlink:title=" ">
<polygon fill="white" stroke="#666666" points="669.5,-74 568.5,-74 568.5,-55 669.5,-55 669.5,-74"/>
<text text-anchor="middle" x="619" y="-62" font-family="Helvetica,sans-Serif" font-size="10.00">LengthRange.hpp</text>
</a>
</g>
</g>
<!-- Node16&#45;&gt;Node18 -->
<g id="edge27_Node000016_Node000018" class="edge">
<title>Node16&#45;&gt;Node18</title>
<g id="a_edge27_Node000016_Node000018"><a xlink:title=" ">
<path fill="none" stroke="#63b8ff" d="M613.99,-109.75C614.78,-102.8 615.9,-92.85 616.89,-84.13"/>
<polygon fill="#63b8ff" stroke="#63b8ff" points="620.38,-84.42 618.03,-74.09 613.42,-83.63 620.38,-84.42"/>
</a>
</g>
</g>
<!-- Node18&#45;&gt;Node13 -->
<g id="edge29_Node000018_Node000013" class="edge">
<title>Node18&#45;&gt;Node13</title>
<g id="a_edge29_Node000018_Node000013"><a xlink:title=" ">
<path fill="none" stroke="#63b8ff" d="M574.17,-54.98C519.99,-44.69 429.72,-27.54 378.53,-17.82"/>
<polygon fill="#63b8ff" stroke="#63b8ff" points="379.01,-14.35 368.53,-15.92 377.7,-21.22 379.01,-14.35"/>
</a>
</g>
</g>
<!-- Node19 -->
<g id="Node000019" class="node">
<title>Node19</title>
<g id="a_Node000019"><a xlink:title=" ">
<polygon fill="#e0e0e0" stroke="#999999" points="651.5,-19 586.5,-19 586.5,0 651.5,0 651.5,-19"/>
<text text-anchor="middle" x="619" y="-7" font-family="Helvetica,sans-Serif" font-size="10.00">inttypes.h</text>
</a>
</g>
</g>
<!-- Node18&#45;&gt;Node19 -->
<g id="edge28_Node000018_Node000019" class="edge">
<title>Node18&#45;&gt;Node19</title>
<g id="a_edge28_Node000018_Node000019"><a xlink:title=" ">
<path fill="none" stroke="#63b8ff" d="M619,-54.75C619,-47.8 619,-37.85 619,-29.13"/>
<polygon fill="#63b8ff" stroke="#63b8ff" points="622.5,-29.09 619,-19.09 615.5,-29.09 622.5,-29.09"/>
</a>
</g>
</g>
<!-- Node21 -->
<g id="Node000021" class="node">
<title>Node21</title>
<g id="a_Node000021"><a xlink:title=" ">
<polygon fill="#e0e0e0" stroke="#999999" points="907,-129 857,-129 857,-110 907,-110 907,-129"/>
<text text-anchor="middle" x="882" y="-117" font-family="Helvetica,sans-Serif" font-size="10.00">cstdint</text>
</a>
</g>
</g>
<!-- Node20&#45;&gt;Node21 -->
<g id="edge31_Node000020_Node000021" class="edge">
<title>Node20&#45;&gt;Node21</title>
<g id="a_edge31_Node000020_Node000021"><a xlink:title=" ">
<path fill="none" stroke="#63b8ff" d="M832.48,-164.98C841.2,-157.15 854.34,-145.34 864.9,-135.86"/>
<polygon fill="#63b8ff" stroke="#63b8ff" points="867.25,-138.46 872.35,-129.17 862.57,-133.25 867.25,-138.46"/>
</a>
</g>
</g>
</g>
</svg>
