<?xml version="1.0" encoding="UTF-8" standalone="no"?>
<!DOCTYPE svg PUBLIC "-//W3C//DTD SVG 1.1//EN"
 "http://www.w3.org/Graphics/SVG/1.1/DTD/svg11.dtd">
<!-- Generated by graphviz version 2.43.0 (0)
 -->
<!-- Title: netspeak/model/SearchOptions.hpp Pages: 1 -->
<svg width="1090pt" height="324pt"
 viewBox="0.00 0.00 1090.00 324.00" xmlns="http://www.w3.org/2000/svg" xmlns:xlink="http://www.w3.org/1999/xlink">
<g id="graph0" class="graph" transform="scale(1 1) rotate(0) translate(4 320)">
<title>netspeak/model/SearchOptions.hpp</title>
<!-- Node1 -->
<g id="Node000001" class="node">
<title>Node1</title>
<g id="a_Node000001"><a xlink:title=" ">
<polygon fill="#999999" stroke="#666666" points="506.5,-316 316.5,-316 316.5,-297 506.5,-297 506.5,-316"/>
<text text-anchor="middle" x="411.5" y="-304" font-family="Helvetica,sans-Serif" font-size="10.00">netspeak/model/SearchOptions.hpp</text>
</a>
</g>
</g>
<!-- Node2 -->
<g id="Node000002" class="node">
<title>Node2</title>
<g id="a_Node000002"><a xlink:href="Netspeak_8hpp.html" target="_top" xlink:title=" ">
<polygon fill="white" stroke="#666666" points="460.5,-151 328.5,-151 328.5,-132 460.5,-132 460.5,-151"/>
<text text-anchor="middle" x="394.5" y="-139" font-family="Helvetica,sans-Serif" font-size="10.00">netspeak/Netspeak.hpp</text>
</a>
</g>
</g>
<!-- Node1&#45;&gt;Node2 -->
<g id="edge1_Node000001_Node000002" class="edge">
<title>Node1&#45;&gt;Node2</title>
<g id="a_edge1_Node000001_Node000002"><a xlink:title=" ">
<path fill="none" stroke="#63b8ff" d="M387.54,-291.68C361.5,-275.12 321.36,-244.69 304.5,-206 292.39,-178.21 329.78,-160.49 360.01,-151.02"/>
<polygon fill="#63b8ff" stroke="#63b8ff" points="385.75,-294.69 396.1,-296.95 389.42,-288.73 385.75,-294.69"/>
</a>
</g>
</g>
<!-- Node13 -->
<g id="Node000013" class="node">
<title>Node13</title>
<g id="a_Node000013"><a xlink:href="QueryProcessor_8hpp.html" target="_top" xlink:title=" ">
<polygon fill="white" stroke="#666666" points="475,-206 314,-206 314,-187 475,-187 475,-206"/>
<text text-anchor="middle" x="394.5" y="-194" font-family="Helvetica,sans-Serif" font-size="10.00">netspeak/QueryProcessor.hpp</text>
</a>
</g>
</g>
<!-- Node1&#45;&gt;Node13 -->
<g id="edge13_Node000001_Node000013" class="edge">
<title>Node1&#45;&gt;Node13</title>
<g id="a_edge13_Node000001_Node000013"><a xlink:title=" ">
<path fill="none" stroke="#63b8ff" d="M393.86,-289.86C386.36,-282.04 378.44,-271.91 374.5,-261 367.51,-241.65 379.91,-218.51 388.11,-206.2"/>
<polygon fill="#63b8ff" stroke="#63b8ff" points="391.45,-292.4 401.06,-296.87 396.34,-287.39 391.45,-292.4"/>
</a>
</g>
</g>
<!-- Node14 -->
<g id="Node000014" class="node">
<title>Node14</title>
<g id="a_Node000014"><a xlink:href="RetrievalStrategy_8hpp.html" target="_top" xlink:title=" ">
<polygon fill="white" stroke="#666666" points="553.5,-261 383.5,-261 383.5,-242 553.5,-242 553.5,-261"/>
<text text-anchor="middle" x="468.5" y="-249" font-family="Helvetica,sans-Serif" font-size="10.00">netspeak/RetrievalStrategy.hpp</text>
</a>
</g>
</g>
<!-- Node1&#45;&gt;Node14 -->
<g id="edge15_Node000001_Node000014" class="edge">
<title>Node1&#45;&gt;Node14</title>
<g id="a_edge15_Node000001_Node000014"><a xlink:title=" ">
<path fill="none" stroke="#63b8ff" d="M428.12,-290.04C438.23,-280.64 450.78,-268.98 459.18,-261.17"/>
<polygon fill="#63b8ff" stroke="#63b8ff" points="425.6,-287.61 420.66,-296.98 430.36,-292.74 425.6,-287.61"/>
</a>
</g>
</g>
<!-- Node15 -->
<g id="Node000015" class="node">
<title>Node15</title>
<g id="a_Node000015"><a xlink:href="RetrievalStrategy3_8hpp.html" target="_top" xlink:title=" ">
<polygon fill="white" stroke="#666666" points="670,-206 493,-206 493,-187 670,-187 670,-206"/>
<text text-anchor="middle" x="581.5" y="-194" font-family="Helvetica,sans-Serif" font-size="10.00">netspeak/RetrievalStrategy3.hpp</text>
</a>
</g>
</g>
<!-- Node1&#45;&gt;Node15 -->
<g id="edge19_Node000001_Node000015" class="edge">
<title>Node1&#45;&gt;Node15</title>
<g id="a_edge19_Node000001_Node000015"><a xlink:title=" ">
<path fill="none" stroke="#63b8ff" d="M501.98,-294.28C524.13,-287.68 546.14,-277.3 562.5,-261 577.5,-246.06 580.75,-219.79 581.4,-206.2"/>
<polygon fill="#63b8ff" stroke="#63b8ff" points="500.87,-290.96 492.15,-296.97 502.72,-297.71 500.87,-290.96"/>
</a>
</g>
</g>
<!-- Node3 -->
<g id="Node000003" class="node">
<title>Node3</title>
<g id="a_Node000003"><a xlink:href="ProxyCommand_8cpp.html" target="_top" xlink:title=" ">
<polygon fill="white" stroke="#666666" points="129,-90.5 0,-90.5 0,-71.5 129,-71.5 129,-90.5"/>
<text text-anchor="middle" x="64.5" y="-78.5" font-family="Helvetica,sans-Serif" font-size="10.00">cli/ProxyCommand.cpp</text>
</a>
</g>
</g>
<!-- Node2&#45;&gt;Node3 -->
<g id="edge2_Node000002_Node000003" class="edge">
<title>Node2&#45;&gt;Node3</title>
<g id="a_edge2_Node000002_Node000003"><a xlink:title=" ">
<path fill="none" stroke="#63b8ff" d="M336.64,-130.24C273.02,-118.96 171.96,-101.05 112.54,-90.52"/>
<polygon fill="#63b8ff" stroke="#63b8ff" points="336.06,-133.69 346.52,-131.99 337.28,-126.8 336.06,-133.69"/>
</a>
</g>
</g>
<!-- Node4 -->
<g id="Node000004" class="node">
<title>Node4</title>
<g id="a_Node000004"><a xlink:href="ServeCommand_8cpp.html" target="_top" xlink:title=" ">
<polygon fill="white" stroke="#666666" points="414,-24.5 285,-24.5 285,-5.5 414,-5.5 414,-24.5"/>
<text text-anchor="middle" x="349.5" y="-12.5" font-family="Helvetica,sans-Serif" font-size="10.00">cli/ServeCommand.cpp</text>
</a>
</g>
</g>
<!-- Node2&#45;&gt;Node4 -->
<g id="edge3_Node000002_Node000004" class="edge">
<title>Node2&#45;&gt;Node4</title>
<g id="a_edge3_Node000002_Node000004"><a xlink:title=" ">
<path fill="none" stroke="#63b8ff" d="M318.13,-135C262.66,-129.23 194.32,-117.83 176.5,-96 142.23,-54.03 222.58,-33.02 284.95,-23.33"/>
<polygon fill="#63b8ff" stroke="#63b8ff" points="318.02,-138.51 328.32,-136.01 318.71,-131.54 318.02,-138.51"/>
</a>
</g>
</g>
<!-- Node5 -->
<g id="Node000005" class="node">
<title>Node5</title>
<g id="a_Node000005"><a xlink:href="ShellCommand_8cpp.html" target="_top" xlink:title=" ">
<polygon fill="white" stroke="#666666" points="311,-90.5 186,-90.5 186,-71.5 311,-71.5 311,-90.5"/>
<text text-anchor="middle" x="248.5" y="-78.5" font-family="Helvetica,sans-Serif" font-size="10.00">cli/ShellCommand.cpp</text>
</a>
</g>
</g>
<!-- Node2&#45;&gt;Node5 -->
<g id="edge4_Node000002_Node000005" class="edge">
<title>Node2&#45;&gt;Node5</title>
<g id="a_edge4_Node000002_Node000005"><a xlink:title=" ">
<path fill="none" stroke="#63b8ff" d="M363.88,-128.23C335.66,-116.92 294.53,-100.44 269.76,-90.52"/>
<polygon fill="#63b8ff" stroke="#63b8ff" points="362.69,-131.52 373.27,-131.99 365.29,-125.03 362.69,-131.52"/>
</a>
</g>
</g>
<!-- Node6 -->
<g id="Node000006" class="node">
<title>Node6</title>
<g id="a_Node000006"><a xlink:href="Netspeak_8cpp.html" target="_top" xlink:title=" ">
<polygon fill="white" stroke="#666666" points="460,-90.5 329,-90.5 329,-71.5 460,-71.5 460,-90.5"/>
<text text-anchor="middle" x="394.5" y="-78.5" font-family="Helvetica,sans-Serif" font-size="10.00">netspeak/Netspeak.cpp</text>
</a>
</g>
</g>
<!-- Node2&#45;&gt;Node6 -->
<g id="edge5_Node000002_Node000006" class="edge">
<title>Node2&#45;&gt;Node6</title>
<g id="a_edge5_Node000002_Node000006"><a xlink:title=" ">
<path fill="none" stroke="#63b8ff" d="M394.5,-121.66C394.5,-111.24 394.5,-98.8 394.5,-90.67"/>
<polygon fill="#63b8ff" stroke="#63b8ff" points="391,-121.87 394.5,-131.87 398,-121.87 391,-121.87"/>
</a>
</g>
</g>
<!-- Node7 -->
<g id="Node000007" class="node">
<title>Node7</title>
<g id="a_Node000007"><a xlink:href="indexing_8cpp.html" target="_top" xlink:title=" ">
<polygon fill="white" stroke="#666666" points="605,-90.5 478,-90.5 478,-71.5 605,-71.5 605,-90.5"/>
<text text-anchor="middle" x="541.5" y="-78.5" font-family="Helvetica,sans-Serif" font-size="10.00">netspeak/indexing.cpp</text>
</a>
</g>
</g>
<!-- Node2&#45;&gt;Node7 -->
<g id="edge6_Node000002_Node000007" class="edge">
<title>Node2&#45;&gt;Node7</title>
<g id="a_edge6_Node000002_Node000007"><a xlink:title=" ">
<path fill="none" stroke="#63b8ff" d="M425.33,-128.23C453.74,-116.92 495.16,-100.44 520.1,-90.52"/>
<polygon fill="#63b8ff" stroke="#63b8ff" points="423.87,-125.04 415.88,-131.99 426.46,-131.55 423.87,-125.04"/>
</a>
</g>
</g>
<!-- Node8 -->
<g id="Node000008" class="node">
<title>Node8</title>
<g id="a_Node000008"><a xlink:href="RequestLogger_8hpp.html" target="_top" xlink:title=" ">
<polygon fill="white" stroke="#666666" points="963,-96 820,-96 820,-66 963,-66 963,-96"/>
<text text-anchor="start" x="828" y="-84" font-family="Helvetica,sans-Serif" font-size="10.00">netspeak/service/Request</text>
<text text-anchor="middle" x="891.5" y="-73" font-family="Helvetica,sans-Serif" font-size="10.00">Logger.hpp</text>
</a>
</g>
</g>
<!-- Node2&#45;&gt;Node8 -->
<g id="edge7_Node000002_Node000008" class="edge">
<title>Node2&#45;&gt;Node8</title>
<g id="a_edge7_Node000002_Node000008"><a xlink:title=" ">
<path fill="none" stroke="#63b8ff" d="M470.94,-133.89C554.72,-126.28 692.98,-112.68 811.5,-96 814.15,-95.63 816.85,-95.23 819.58,-94.82"/>
<polygon fill="#63b8ff" stroke="#63b8ff" points="470.4,-130.42 460.75,-134.81 471.03,-137.4 470.4,-130.42"/>
</a>
</g>
</g>
<!-- Node11 -->
<g id="Node000011" class="node">
<title>Node11</title>
<g id="a_Node000011"><a xlink:href="UniqueMap_8hpp.html" target="_top" xlink:title=" ">
<polygon fill="white" stroke="#666666" points="802,-90.5 623,-90.5 623,-71.5 802,-71.5 802,-90.5"/>
<text text-anchor="middle" x="712.5" y="-78.5" font-family="Helvetica,sans-Serif" font-size="10.00">netspeak/service/UniqueMap.hpp</text>
</a>
</g>
</g>
<!-- Node2&#45;&gt;Node11 -->
<g id="edge10_Node000002_Node000011" class="edge">
<title>Node2&#45;&gt;Node11</title>
<g id="a_edge10_Node000002_Node000011"><a xlink:title=" ">
<path fill="none" stroke="#63b8ff" d="M450.64,-130.17C511.97,-118.89 609.07,-101.03 666.2,-90.52"/>
<polygon fill="#63b8ff" stroke="#63b8ff" points="449.94,-126.74 440.74,-131.99 451.21,-133.63 449.94,-126.74"/>
</a>
</g>
</g>
<!-- Node9 -->
<g id="Node000009" class="node">
<title>Node9</title>
<g id="a_Node000009"><a xlink:href="cli_2logging_8cpp.html" target="_top" xlink:title=" ">
<polygon fill="white" stroke="#666666" points="921,-24.5 834,-24.5 834,-5.5 921,-5.5 921,-24.5"/>
<text text-anchor="middle" x="877.5" y="-12.5" font-family="Helvetica,sans-Serif" font-size="10.00">cli/logging.cpp</text>
</a>
</g>
</g>
<!-- Node8&#45;&gt;Node9 -->
<g id="edge8_Node000008_Node000009" class="edge">
<title>Node8&#45;&gt;Node9</title>
<g id="a_edge8_Node000008_Node000009"><a xlink:title=" ">
<path fill="none" stroke="#63b8ff" d="M886.24,-55.94C883.86,-45.06 881.19,-32.86 879.43,-24.84"/>
<polygon fill="#63b8ff" stroke="#63b8ff" points="882.84,-56.78 888.39,-65.8 889.68,-55.28 882.84,-56.78"/>
</a>
</g>
</g>
<!-- Node10 -->
<g id="Node000010" class="node">
<title>Node10</title>
<g id="a_Node000010"><a xlink:href="RequestLogger_8cpp.html" target="_top" xlink:title=" ">
<polygon fill="white" stroke="#666666" points="1082,-30 939,-30 939,0 1082,0 1082,-30"/>
<text text-anchor="start" x="947" y="-18" font-family="Helvetica,sans-Serif" font-size="10.00">netspeak/service/Request</text>
<text text-anchor="middle" x="1010.5" y="-7" font-family="Helvetica,sans-Serif" font-size="10.00">Logger.cpp</text>
</a>
</g>
</g>
<!-- Node8&#45;&gt;Node10 -->
<g id="edge9_Node000008_Node000010" class="edge">
<title>Node8&#45;&gt;Node10</title>
<g id="a_edge9_Node000008_Node000010"><a xlink:title=" ">
<path fill="none" stroke="#63b8ff" d="M926.63,-61.11C945.15,-51.14 967.49,-39.13 984.45,-30.01"/>
<polygon fill="#63b8ff" stroke="#63b8ff" points="924.76,-58.14 917.62,-65.95 928.08,-64.3 924.76,-58.14"/>
</a>
</g>
</g>
<!-- Node11&#45;&gt;Node4 -->
<g id="edge11_Node000011_Node000004" class="edge">
<title>Node11&#45;&gt;Node4</title>
<g id="a_edge11_Node000011_Node000004"><a xlink:title=" ">
<path fill="none" stroke="#63b8ff" d="M653.77,-69.65C582.57,-57.09 463.93,-36.17 397.79,-24.51"/>
<polygon fill="#63b8ff" stroke="#63b8ff" points="653.47,-73.15 663.92,-71.44 654.68,-66.25 653.47,-73.15"/>
</a>
</g>
</g>
<!-- Node12 -->
<g id="Node000012" class="node">
<title>Node12</title>
<g id="a_Node000012"><a xlink:href="UniqueMap_8cpp.html" target="_top" xlink:title=" ">
<polygon fill="white" stroke="#666666" points="802,-24.5 623,-24.5 623,-5.5 802,-5.5 802,-24.5"/>
<text text-anchor="middle" x="712.5" y="-12.5" font-family="Helvetica,sans-Serif" font-size="10.00">netspeak/service/UniqueMap.cpp</text>
</a>
</g>
</g>
<!-- Node11&#45;&gt;Node12 -->
<g id="edge12_Node000011_Node000012" class="edge">
<title>Node11&#45;&gt;Node12</title>
<g id="a_edge12_Node000011_Node000012"><a xlink:title=" ">
<path fill="none" stroke="#63b8ff" d="M712.5,-61.08C712.5,-49.13 712.5,-34.22 712.5,-24.91"/>
<polygon fill="#63b8ff" stroke="#63b8ff" points="709,-61.37 712.5,-71.37 716,-61.37 709,-61.37"/>
</a>
</g>
</g>
<!-- Node13&#45;&gt;Node2 -->
<g id="edge14_Node000013_Node000002" class="edge">
<title>Node13&#45;&gt;Node2</title>
<g id="a_edge14_Node000013_Node000002"><a xlink:title=" ">
<path fill="none" stroke="#63b8ff" d="M394.5,-176.66C394.5,-167.93 394.5,-157.99 394.5,-151.09"/>
<polygon fill="#63b8ff" stroke="#63b8ff" points="391,-176.75 394.5,-186.75 398,-176.75 391,-176.75"/>
</a>
</g>
</g>
<!-- Node14&#45;&gt;Node13 -->
<g id="edge16_Node000014_Node000013" class="edge">
<title>Node14&#45;&gt;Node13</title>
<g id="a_edge16_Node000014_Node000013"><a xlink:title=" ">
<path fill="none" stroke="#63b8ff" d="M448.47,-236.15C435.09,-226.57 417.94,-214.29 406.61,-206.17"/>
<polygon fill="#63b8ff" stroke="#63b8ff" points="446.44,-239.01 456.61,-241.98 450.52,-233.32 446.44,-239.01"/>
</a>
</g>
</g>
<!-- Node14&#45;&gt;Node15 -->
<g id="edge17_Node000014_Node000015" class="edge">
<title>Node14&#45;&gt;Node15</title>
<g id="a_edge17_Node000014_Node000015"><a xlink:title=" ">
<path fill="none" stroke="#63b8ff" d="M495.93,-237.63C516.75,-227.87 544.8,-214.71 563.01,-206.17"/>
<polygon fill="#63b8ff" stroke="#63b8ff" points="494.22,-234.57 486.66,-241.98 497.2,-240.91 494.22,-234.57"/>
</a>
</g>
</g>
<!-- Node15&#45;&gt;Node2 -->
<g id="edge18_Node000015_Node000002" class="edge">
<title>Node15&#45;&gt;Node2</title>
<g id="a_edge18_Node000015_Node000002"><a xlink:title=" ">
<path fill="none" stroke="#63b8ff" d="M541.57,-184.18C506.6,-174.27 456.54,-160.08 424.78,-151.08"/>
<polygon fill="#63b8ff" stroke="#63b8ff" points="540.88,-187.63 551.46,-186.98 542.79,-180.89 540.88,-187.63"/>
</a>
</g>
</g>
</g>
</svg>
