<?xml version="1.0" encoding="UTF-8" standalone="no"?>
<!DOCTYPE svg PUBLIC "-//W3C//DTD SVG 1.1//EN"
 "http://www.w3.org/Graphics/SVG/1.1/DTD/svg11.dtd">
<!-- Generated by graphviz version 2.43.0 (0)
 -->
<!-- Title: netspeak/util/service.hpp Pages: 1 -->
<svg width="852pt" height="93pt"
 viewBox="0.00 0.00 852.00 93.00" xmlns="http://www.w3.org/2000/svg" xmlns:xlink="http://www.w3.org/1999/xlink">
<g id="graph0" class="graph" transform="scale(1 1) rotate(0) translate(4 89)">
<title>netspeak/util/service.hpp</title>
<!-- Node1 -->
<g id="Node000001" class="node">
<title>Node1</title>
<g id="a_Node000001"><a xlink:title=" ">
<polygon fill="#999999" stroke="#666666" points="483.5,-85 343.5,-85 343.5,-66 483.5,-66 483.5,-85"/>
<text text-anchor="middle" x="413.5" y="-73" font-family="Helvetica,sans-Serif" font-size="10.00">netspeak/util/service.hpp</text>
</a>
</g>
</g>
<!-- Node2 -->
<g id="Node000002" class="node">
<title>Node2</title>
<g id="a_Node000002"><a xlink:href="ProxyCommand_8cpp.html" target="_top" xlink:title=" ">
<polygon fill="white" stroke="#666666" points="129,-24.5 0,-24.5 0,-5.5 129,-5.5 129,-24.5"/>
<text text-anchor="middle" x="64.5" y="-12.5" font-family="Helvetica,sans-Serif" font-size="10.00">cli/ProxyCommand.cpp</text>
</a>
</g>
</g>
<!-- Node1&#45;&gt;Node2 -->
<g id="edge1_Node000001_Node000002" class="edge">
<title>Node1&#45;&gt;Node2</title>
<g id="a_edge1_Node000001_Node000002"><a xlink:title=" ">
<path fill="none" stroke="#63b8ff" d="M347.51,-64.42C291.54,-55.74 209.16,-42.65 137.5,-30 127.84,-28.3 117.48,-26.37 107.69,-24.5"/>
<polygon fill="#63b8ff" stroke="#63b8ff" points="347.23,-67.92 357.65,-65.99 348.3,-61 347.23,-67.92"/>
</a>
</g>
</g>
<!-- Node3 -->
<g id="Node000003" class="node">
<title>Node3</title>
<g id="a_Node000003"><a xlink:href="ServeCommand_8cpp.html" target="_top" xlink:title=" ">
<polygon fill="white" stroke="#666666" points="276,-24.5 147,-24.5 147,-5.5 276,-5.5 276,-24.5"/>
<text text-anchor="middle" x="211.5" y="-12.5" font-family="Helvetica,sans-Serif" font-size="10.00">cli/ServeCommand.cpp</text>
</a>
</g>
</g>
<!-- Node1&#45;&gt;Node3 -->
<g id="edge2_Node000001_Node000003" class="edge">
<title>Node1&#45;&gt;Node3</title>
<g id="a_edge2_Node000001_Node000003"><a xlink:title=" ">
<path fill="none" stroke="#63b8ff" d="M374.16,-63.11C335.09,-51.79 276.08,-34.7 240.91,-24.52"/>
<polygon fill="#63b8ff" stroke="#63b8ff" points="373.55,-66.57 384.13,-65.99 375.5,-59.85 373.55,-66.57"/>
</a>
</g>
</g>
<!-- Node4 -->
<g id="Node000004" class="node">
<title>Node4</title>
<g id="a_Node000004"><a xlink:href="ShellCommand_8cpp.html" target="_top" xlink:title=" ">
<polygon fill="white" stroke="#666666" points="419,-24.5 294,-24.5 294,-5.5 419,-5.5 419,-24.5"/>
<text text-anchor="middle" x="356.5" y="-12.5" font-family="Helvetica,sans-Serif" font-size="10.00">cli/ShellCommand.cpp</text>
</a>
</g>
</g>
<!-- Node1&#45;&gt;Node4 -->
<g id="edge3_Node000001_Node000004" class="edge">
<title>Node1&#45;&gt;Node4</title>
<g id="a_edge3_Node000001_Node000004"><a xlink:title=" ">
<path fill="none" stroke="#63b8ff" d="M398,-58.59C387.35,-47.67 373.63,-33.58 364.95,-24.67"/>
<polygon fill="#63b8ff" stroke="#63b8ff" points="395.6,-61.15 405.09,-65.87 400.62,-56.26 395.6,-61.15"/>
</a>
</g>
</g>
<!-- Node5 -->
<g id="Node000005" class="node">
<title>Node5</title>
<g id="a_Node000005"><a xlink:href="util_8cpp.html" target="_top" xlink:title=" ">
<polygon fill="white" stroke="#666666" points="504,-24.5 437,-24.5 437,-5.5 504,-5.5 504,-24.5"/>
<text text-anchor="middle" x="470.5" y="-12.5" font-family="Helvetica,sans-Serif" font-size="10.00">cli/util.cpp</text>
</a>
</g>
</g>
<!-- Node1&#45;&gt;Node5 -->
<g id="edge4_Node000001_Node000005" class="edge">
<title>Node1&#45;&gt;Node5</title>
<g id="a_edge4_Node000001_Node000005"><a xlink:title=" ">
<path fill="none" stroke="#63b8ff" d="M429,-58.59C439.65,-47.67 453.37,-33.58 462.05,-24.67"/>
<polygon fill="#63b8ff" stroke="#63b8ff" points="426.38,-56.26 421.91,-65.87 431.4,-61.15 426.38,-56.26"/>
</a>
</g>
</g>
<!-- Node6 -->
<g id="Node000006" class="node">
<title>Node6</title>
<g id="a_Node000006"><a xlink:href="LoadBalanceProxy_8cpp.html" target="_top" xlink:title=" ">
<polygon fill="white" stroke="#666666" points="687,-30 522,-30 522,0 687,0 687,-30"/>
<text text-anchor="start" x="530" y="-18" font-family="Helvetica,sans-Serif" font-size="10.00">netspeak/service/LoadBalance</text>
<text text-anchor="middle" x="604.5" y="-7" font-family="Helvetica,sans-Serif" font-size="10.00">Proxy.cpp</text>
</a>
</g>
</g>
<!-- Node1&#45;&gt;Node6 -->
<g id="edge5_Node000001_Node000006" class="edge">
<title>Node1&#45;&gt;Node6</title>
<g id="a_edge5_Node000001_Node000006"><a xlink:title=" ">
<path fill="none" stroke="#63b8ff" d="M451.2,-62.95C482.02,-53.51 525.72,-40.13 558.58,-30.06"/>
<polygon fill="#63b8ff" stroke="#63b8ff" points="449.81,-59.72 441.27,-65.99 451.86,-66.41 449.81,-59.72"/>
</a>
</g>
</g>
<!-- Node7 -->
<g id="Node000007" class="node">
<title>Node7</title>
<g id="a_Node000007"><a xlink:href="service_8cpp.html" target="_top" xlink:title=" ">
<polygon fill="white" stroke="#666666" points="844,-24.5 705,-24.5 705,-5.5 844,-5.5 844,-24.5"/>
<text text-anchor="middle" x="774.5" y="-12.5" font-family="Helvetica,sans-Serif" font-size="10.00">netspeak/util/service.cpp</text>
</a>
</g>
</g>
<!-- Node1&#45;&gt;Node7 -->
<g id="edge6_Node000001_Node000007" class="edge">
<title>Node1&#45;&gt;Node7</title>
<g id="a_edge6_Node000001_Node000007"><a xlink:title=" ">
<path fill="none" stroke="#63b8ff" d="M479.97,-64.46C537.36,-55.7 622.47,-42.46 696.5,-30 706.68,-28.29 717.58,-26.38 727.92,-24.53"/>
<polygon fill="#63b8ff" stroke="#63b8ff" points="479.3,-61.03 469.94,-65.99 480.35,-67.95 479.3,-61.03"/>
</a>
</g>
</g>
</g>
</svg>
