<?xml version="1.0" encoding="UTF-8" standalone="no"?>
<!DOCTYPE svg PUBLIC "-//W3C//DTD SVG 1.1//EN"
 "http://www.w3.org/Graphics/SVG/1.1/DTD/svg11.dtd">
<!-- Generated by graphviz version 2.43.0 (0)
 -->
<!-- Title: netspeak/model/SimpleQuery.hpp Pages: 1 -->
<svg width="488pt" height="247pt"
 viewBox="0.00 0.00 487.50 247.00" xmlns="http://www.w3.org/2000/svg" xmlns:xlink="http://www.w3.org/1999/xlink">
<g id="graph0" class="graph" transform="scale(1 1) rotate(0) translate(4 243)">
<title>netspeak/model/SimpleQuery.hpp</title>
<!-- Node1 -->
<g id="Node000001" class="node">
<title>Node1</title>
<g id="a_Node000001"><a xlink:title=" ">
<polygon fill="#999999" stroke="#666666" points="255.5,-239 74.5,-239 74.5,-220 255.5,-220 255.5,-239"/>
<text text-anchor="middle" x="165" y="-227" font-family="Helvetica,sans-Serif" font-size="10.00">netspeak/model/SimpleQuery.hpp</text>
</a>
</g>
</g>
<!-- Node2 -->
<g id="Node000002" class="node">
<title>Node2</title>
<g id="a_Node000002"><a xlink:title=" ">
<polygon fill="#e0e0e0" stroke="#999999" points="44,-74 0,-74 0,-55 44,-55 44,-74"/>
<text text-anchor="middle" x="22" y="-62" font-family="Helvetica,sans-Serif" font-size="10.00">string</text>
</a>
</g>
</g>
<!-- Node1&#45;&gt;Node2 -->
<g id="edge1_Node000001_Node000002" class="edge">
<title>Node1&#45;&gt;Node2</title>
<g id="a_edge1_Node000001_Node000002"><a xlink:title=" ">
<path fill="none" stroke="#63b8ff" d="M97.58,-219.99C74.72,-213.71 51.16,-202.82 36,-184 13.01,-155.46 15.11,-109.78 18.6,-84.27"/>
<polygon fill="#63b8ff" stroke="#63b8ff" points="22.1,-84.53 20.22,-74.11 15.19,-83.43 22.1,-84.53"/>
</a>
</g>
</g>
<!-- Node3 -->
<g id="Node000003" class="node">
<title>Node3</title>
<g id="a_Node000003"><a xlink:title=" ">
<polygon fill="#e0e0e0" stroke="#999999" points="185.5,-74 138.5,-74 138.5,-55 185.5,-55 185.5,-74"/>
<text text-anchor="middle" x="162" y="-62" font-family="Helvetica,sans-Serif" font-size="10.00">vector</text>
</a>
</g>
</g>
<!-- Node1&#45;&gt;Node3 -->
<g id="edge2_Node000001_Node000003" class="edge">
<title>Node1&#45;&gt;Node3</title>
<g id="a_edge2_Node000001_Node000003"><a xlink:title=" ">
<path fill="none" stroke="#63b8ff" d="M164.84,-219.74C164.37,-194.31 163,-120.08 162.35,-84.69"/>
<polygon fill="#63b8ff" stroke="#63b8ff" points="165.85,-84.24 162.16,-74.31 158.85,-84.37 165.85,-84.24"/>
</a>
</g>
</g>
<!-- Node4 -->
<g id="Node000004" class="node">
<title>Node4</title>
<g id="a_Node000004"><a xlink:href="LengthRange_8hpp.html" target="_top" xlink:title=" ">
<polygon fill="white" stroke="#666666" points="462.5,-74 361.5,-74 361.5,-55 462.5,-55 462.5,-74"/>
<text text-anchor="middle" x="412" y="-62" font-family="Helvetica,sans-Serif" font-size="10.00">LengthRange.hpp</text>
</a>
</g>
</g>
<!-- Node1&#45;&gt;Node4 -->
<g id="edge3_Node000001_Node000004" class="edge">
<title>Node1&#45;&gt;Node4</title>
<g id="a_edge3_Node000001_Node000004"><a xlink:title=" ">
<path fill="none" stroke="#63b8ff" d="M185.63,-219.9C221.13,-204.57 295.23,-170.24 350,-129 368.55,-115.03 386.75,-95.5 398.58,-81.8"/>
<polygon fill="#63b8ff" stroke="#63b8ff" points="401.29,-84.02 405.07,-74.12 395.94,-79.5 401.29,-84.02"/>
</a>
</g>
</g>
<!-- Node7 -->
<g id="Node000007" class="node">
<title>Node7</title>
<g id="a_Node000007"><a xlink:href="NormQuery_8hpp.html" target="_top" xlink:title=" ">
<polygon fill="white" stroke="#666666" points="137,-184 45,-184 45,-165 137,-165 137,-184"/>
<text text-anchor="middle" x="91" y="-172" font-family="Helvetica,sans-Serif" font-size="10.00">NormQuery.hpp</text>
</a>
</g>
</g>
<!-- Node1&#45;&gt;Node7 -->
<g id="edge6_Node000001_Node000007" class="edge">
<title>Node1&#45;&gt;Node7</title>
<g id="a_edge6_Node000001_Node000007"><a xlink:title=" ">
<path fill="none" stroke="#63b8ff" d="M153.11,-219.98C141.85,-211.92 124.71,-199.65 111.29,-190.03"/>
<polygon fill="#63b8ff" stroke="#63b8ff" points="113.27,-187.15 103.11,-184.17 109.2,-192.84 113.27,-187.15"/>
</a>
</g>
</g>
<!-- Node9 -->
<g id="Node000009" class="node">
<title>Node9</title>
<g id="a_Node000009"><a xlink:href="Query_8hpp.html" target="_top" xlink:title=" ">
<polygon fill="white" stroke="#666666" points="340.5,-129 193.5,-129 193.5,-110 340.5,-110 340.5,-129"/>
<text text-anchor="middle" x="267" y="-117" font-family="Helvetica,sans-Serif" font-size="10.00">netspeak/model/Query.hpp</text>
</a>
</g>
</g>
<!-- Node1&#45;&gt;Node9 -->
<g id="edge17_Node000001_Node000009" class="edge">
<title>Node1&#45;&gt;Node9</title>
<g id="a_edge17_Node000001_Node000009"><a xlink:title=" ">
<path fill="none" stroke="#63b8ff" d="M173.35,-219.66C190.54,-201.46 230.12,-159.55 251.92,-136.47"/>
<polygon fill="#63b8ff" stroke="#63b8ff" points="254.5,-138.83 258.82,-129.16 249.41,-134.03 254.5,-138.83"/>
</a>
</g>
</g>
<!-- Node5 -->
<g id="Node000005" class="node">
<title>Node5</title>
<g id="a_Node000005"><a xlink:title=" ">
<polygon fill="#e0e0e0" stroke="#999999" points="404.5,-19 339.5,-19 339.5,0 404.5,0 404.5,-19"/>
<text text-anchor="middle" x="372" y="-7" font-family="Helvetica,sans-Serif" font-size="10.00">inttypes.h</text>
</a>
</g>
</g>
<!-- Node4&#45;&gt;Node5 -->
<g id="edge4_Node000004_Node000005" class="edge">
<title>Node4&#45;&gt;Node5</title>
<g id="a_edge4_Node000004_Node000005"><a xlink:title=" ">
<path fill="none" stroke="#63b8ff" d="M405.39,-54.75C399.74,-47.26 391.46,-36.28 384.55,-27.13"/>
<polygon fill="#63b8ff" stroke="#63b8ff" points="387.3,-24.96 378.48,-19.09 381.71,-29.18 387.3,-24.96"/>
</a>
</g>
</g>
<!-- Node6 -->
<g id="Node000006" class="node">
<title>Node6</title>
<g id="a_Node000006"><a xlink:title=" ">
<polygon fill="#e0e0e0" stroke="#999999" points="479.5,-19 422.5,-19 422.5,0 479.5,0 479.5,-19"/>
<text text-anchor="middle" x="451" y="-7" font-family="Helvetica,sans-Serif" font-size="10.00">ostream</text>
</a>
</g>
</g>
<!-- Node4&#45;&gt;Node6 -->
<g id="edge5_Node000004_Node000006" class="edge">
<title>Node4&#45;&gt;Node6</title>
<g id="a_edge5_Node000004_Node000006"><a xlink:title=" ">
<path fill="none" stroke="#63b8ff" d="M418.44,-54.75C423.89,-47.34 431.86,-36.5 438.56,-27.41"/>
<polygon fill="#63b8ff" stroke="#63b8ff" points="441.57,-29.22 444.68,-19.09 435.93,-25.07 441.57,-29.22"/>
</a>
</g>
</g>
<!-- Node7&#45;&gt;Node2 -->
<g id="edge8_Node000007_Node000002" class="edge">
<title>Node7&#45;&gt;Node2</title>
<g id="a_edge8_Node000007_Node000002"><a xlink:title=" ">
<path fill="none" stroke="#63b8ff" d="M85.35,-164.66C73.92,-146.77 47.88,-106 32.98,-82.69"/>
<polygon fill="#63b8ff" stroke="#63b8ff" points="35.87,-80.7 27.53,-74.16 29.97,-84.47 35.87,-80.7"/>
</a>
</g>
</g>
<!-- Node7&#45;&gt;Node3 -->
<g id="edge9_Node000007_Node000003" class="edge">
<title>Node7&#45;&gt;Node3</title>
<g id="a_edge9_Node000007_Node000003"><a xlink:title=" ">
<path fill="none" stroke="#63b8ff" d="M96.81,-164.66C108.57,-146.77 135.37,-106 150.7,-82.69"/>
<polygon fill="#63b8ff" stroke="#63b8ff" points="153.74,-84.44 156.31,-74.16 147.89,-80.59 153.74,-84.44"/>
</a>
</g>
</g>
<!-- Node8 -->
<g id="Node000008" class="node">
<title>Node8</title>
<g id="a_Node000008"><a xlink:title=" ">
<polygon fill="#e0e0e0" stroke="#999999" points="120,-74 62,-74 62,-55 120,-55 120,-74"/>
<text text-anchor="middle" x="91" y="-62" font-family="Helvetica,sans-Serif" font-size="10.00">memory</text>
</a>
</g>
</g>
<!-- Node7&#45;&gt;Node8 -->
<g id="edge7_Node000007_Node000008" class="edge">
<title>Node7&#45;&gt;Node8</title>
<g id="a_edge7_Node000007_Node000008"><a xlink:title=" ">
<path fill="none" stroke="#63b8ff" d="M91,-164.66C91,-147.17 91,-107.8 91,-84.27"/>
<polygon fill="#63b8ff" stroke="#63b8ff" points="94.5,-84.16 91,-74.16 87.5,-84.16 94.5,-84.16"/>
</a>
</g>
</g>
<!-- Node7&#45;&gt;Node9 -->
<g id="edge10_Node000007_Node000009" class="edge">
<title>Node7&#45;&gt;Node9</title>
<g id="a_edge10_Node000007_Node000009"><a xlink:title=" ">
<path fill="none" stroke="#63b8ff" d="M119.28,-164.98C148.95,-156.05 195.79,-141.94 228.75,-132.02"/>
<polygon fill="#63b8ff" stroke="#63b8ff" points="229.93,-135.32 238.5,-129.08 227.92,-128.61 229.93,-135.32"/>
</a>
</g>
</g>
<!-- Node9&#45;&gt;Node2 -->
<g id="edge14_Node000009_Node000002" class="edge">
<title>Node9&#45;&gt;Node2</title>
<g id="a_edge14_Node000009_Node000002"><a xlink:title=" ">
<path fill="none" stroke="#63b8ff" d="M221.73,-109.94C180.41,-101.94 117.44,-89.26 54.07,-74.14"/>
<polygon fill="#63b8ff" stroke="#63b8ff" points="54.85,-70.73 44.31,-71.8 53.21,-77.54 54.85,-70.73"/>
</a>
</g>
</g>
<!-- Node9&#45;&gt;Node3 -->
<g id="edge15_Node000009_Node000003" class="edge">
<title>Node9&#45;&gt;Node3</title>
<g id="a_edge15_Node000009_Node000003"><a xlink:title=" ">
<path fill="none" stroke="#63b8ff" d="M250.13,-109.98C233.39,-101.54 207.5,-88.47 188.11,-78.68"/>
<polygon fill="#63b8ff" stroke="#63b8ff" points="189.68,-75.55 179.18,-74.17 186.53,-81.8 189.68,-75.55"/>
</a>
</g>
</g>
<!-- Node9&#45;&gt;Node4 -->
<g id="edge16_Node000009_Node000004" class="edge">
<title>Node9&#45;&gt;Node4</title>
<g id="a_edge16_Node000009_Node000004"><a xlink:title=" ">
<path fill="none" stroke="#63b8ff" d="M290.3,-109.98C314.25,-101.23 351.78,-87.51 378.83,-77.62"/>
<polygon fill="#63b8ff" stroke="#63b8ff" points="380.09,-80.89 388.28,-74.17 377.69,-74.32 380.09,-80.89"/>
</a>
</g>
</g>
<!-- Node9&#45;&gt;Node8 -->
<g id="edge11_Node000009_Node000008" class="edge">
<title>Node9&#45;&gt;Node8</title>
<g id="a_edge11_Node000009_Node000008"><a xlink:title=" ">
<path fill="none" stroke="#63b8ff" d="M238.72,-109.98C209.05,-101.05 162.21,-86.94 129.25,-77.02"/>
<polygon fill="#63b8ff" stroke="#63b8ff" points="130.08,-73.61 119.5,-74.08 128.07,-80.32 130.08,-73.61"/>
</a>
</g>
</g>
<!-- Node10 -->
<g id="Node000010" class="node">
<title>Node10</title>
<g id="a_Node000010"><a xlink:title=" ">
<polygon fill="#e0e0e0" stroke="#999999" points="260,-74 204,-74 204,-55 260,-55 260,-74"/>
<text text-anchor="middle" x="232" y="-62" font-family="Helvetica,sans-Serif" font-size="10.00">optional</text>
</a>
</g>
</g>
<!-- Node9&#45;&gt;Node10 -->
<g id="edge12_Node000009_Node000010" class="edge">
<title>Node9&#45;&gt;Node10</title>
<g id="a_edge12_Node000009_Node000010"><a xlink:title=" ">
<path fill="none" stroke="#63b8ff" d="M261.22,-109.75C256.38,-102.42 249.32,-91.73 243.36,-82.7"/>
<polygon fill="#63b8ff" stroke="#63b8ff" points="246.1,-80.5 237.67,-74.09 240.26,-84.36 246.1,-80.5"/>
</a>
</g>
</g>
<!-- Node11 -->
<g id="Node000011" class="node">
<title>Node11</title>
<g id="a_Node000011"><a xlink:title=" ">
<polygon fill="#e0e0e0" stroke="#999999" points="343.5,-74 278.5,-74 278.5,-55 343.5,-55 343.5,-74"/>
<text text-anchor="middle" x="311" y="-62" font-family="Helvetica,sans-Serif" font-size="10.00">stdexcept</text>
</a>
</g>
</g>
<!-- Node9&#45;&gt;Node11 -->
<g id="edge13_Node000009_Node000011" class="edge">
<title>Node9&#45;&gt;Node11</title>
<g id="a_edge13_Node000009_Node000011"><a xlink:title=" ">
<path fill="none" stroke="#63b8ff" d="M274.27,-109.75C280.54,-102.18 289.79,-91.05 297.43,-81.84"/>
<polygon fill="#63b8ff" stroke="#63b8ff" points="300.17,-84.02 303.87,-74.09 294.79,-79.55 300.17,-84.02"/>
</a>
</g>
</g>
</g>
</svg>
