<?xml version="1.0" encoding="UTF-8" standalone="no"?>
<!DOCTYPE svg PUBLIC "-//W3C//DTD SVG 1.1//EN"
 "http://www.w3.org/Graphics/SVG/1.1/DTD/svg11.dtd">
<!-- Generated by graphviz version 2.43.0 (0)
 -->
<!-- Title: netspeak/model/SimpleQuery.cpp Pages: 1 -->
<svg width="809pt" height="302pt"
 viewBox="0.00 0.00 808.59 302.00" xmlns="http://www.w3.org/2000/svg" xmlns:xlink="http://www.w3.org/1999/xlink">
<g id="graph0" class="graph" transform="scale(1 1) rotate(0) translate(4 298)">
<title>netspeak/model/SimpleQuery.cpp</title>
<!-- Node1 -->
<g id="Node000001" class="node">
<title>Node1</title>
<g id="a_Node000001"><a xlink:title=" ">
<polygon fill="#999999" stroke="#666666" points="533.59,-294 353.59,-294 353.59,-275 533.59,-275 533.59,-294"/>
<text text-anchor="middle" x="443.59" y="-282" font-family="Helvetica,sans-Serif" font-size="10.00">netspeak/model/SimpleQuery.cpp</text>
</a>
</g>
</g>
<!-- Node2 -->
<g id="Node000002" class="node">
<title>Node2</title>
<g id="a_Node000002"><a xlink:title=" ">
<polygon fill="#e0e0e0" stroke="#999999" points="286.59,-239 222.59,-239 222.59,-220 286.59,-220 286.59,-239"/>
<text text-anchor="middle" x="254.59" y="-227" font-family="Helvetica,sans-Serif" font-size="10.00">algorithm</text>
</a>
</g>
</g>
<!-- Node1&#45;&gt;Node2 -->
<g id="edge1_Node000001_Node000002" class="edge">
<title>Node1&#45;&gt;Node2</title>
<g id="a_edge1_Node000001_Node000002"><a xlink:title=" ">
<path fill="none" stroke="#63b8ff" d="M413.23,-274.98C381.22,-266.01 330.63,-251.82 295.21,-241.89"/>
<polygon fill="#63b8ff" stroke="#63b8ff" points="295.77,-238.41 285.2,-239.08 293.88,-245.15 295.77,-238.41"/>
</a>
</g>
</g>
<!-- Node3 -->
<g id="Node000003" class="node">
<title>Node3</title>
<g id="a_Node000003"><a xlink:title=" ">
<polygon fill="#e0e0e0" stroke="#999999" points="356.59,-239 304.59,-239 304.59,-220 356.59,-220 356.59,-239"/>
<text text-anchor="middle" x="330.59" y="-227" font-family="Helvetica,sans-Serif" font-size="10.00">cassert</text>
</a>
</g>
</g>
<!-- Node1&#45;&gt;Node3 -->
<g id="edge2_Node000001_Node000003" class="edge">
<title>Node1&#45;&gt;Node3</title>
<g id="a_edge2_Node000001_Node000003"><a xlink:title=" ">
<path fill="none" stroke="#63b8ff" d="M425.44,-274.98C407.34,-266.5 379.31,-253.35 358.41,-243.54"/>
<polygon fill="#63b8ff" stroke="#63b8ff" points="359.62,-240.25 349.08,-239.17 356.65,-246.59 359.62,-240.25"/>
</a>
</g>
</g>
<!-- Node4 -->
<g id="Node000004" class="node">
<title>Node4</title>
<g id="a_Node000004"><a xlink:href="error_8hpp.html" target="_top" xlink:title=" ">
<polygon fill="white" stroke="#666666" points="250.59,-184 142.59,-184 142.59,-165 250.59,-165 250.59,-184"/>
<text text-anchor="middle" x="196.59" y="-172" font-family="Helvetica,sans-Serif" font-size="10.00">netspeak/error.hpp</text>
</a>
</g>
</g>
<!-- Node1&#45;&gt;Node4 -->
<g id="edge3_Node000001_Node000004" class="edge">
<title>Node1&#45;&gt;Node4</title>
<g id="a_edge3_Node000001_Node000004"><a xlink:title=" ">
<path fill="none" stroke="#63b8ff" d="M435.35,-274.71C422,-261 394.23,-234.56 365.59,-220 332.87,-203.36 293.33,-192.51 260.73,-185.69"/>
<polygon fill="#63b8ff" stroke="#63b8ff" points="261.34,-182.25 250.85,-183.71 259.96,-189.11 261.34,-182.25"/>
</a>
</g>
</g>
<!-- Node11 -->
<g id="Node000011" class="node">
<title>Node11</title>
<g id="a_Node000011"><a xlink:href="SimpleQuery_8hpp.html" target="_top" xlink:title=" ">
<polygon fill="white" stroke="#666666" points="594.09,-239 413.09,-239 413.09,-220 594.09,-220 594.09,-239"/>
<text text-anchor="middle" x="503.59" y="-227" font-family="Helvetica,sans-Serif" font-size="10.00">netspeak/model/SimpleQuery.hpp</text>
</a>
</g>
</g>
<!-- Node1&#45;&gt;Node11 -->
<g id="edge11_Node000001_Node000011" class="edge">
<title>Node1&#45;&gt;Node11</title>
<g id="a_edge11_Node000001_Node000011"><a xlink:title=" ">
<path fill="none" stroke="#63b8ff" d="M453.23,-274.98C462.1,-267.15 475.47,-255.34 486.2,-245.86"/>
<polygon fill="#63b8ff" stroke="#63b8ff" points="488.6,-248.41 493.78,-239.17 483.97,-243.17 488.6,-248.41"/>
</a>
</g>
</g>
<!-- Node14 -->
<g id="Node000014" class="node">
<title>Node14</title>
<g id="a_Node000014"><a xlink:title=" ">
<polygon fill="#e0e0e0" stroke="#999999" points="584.09,-19 527.09,-19 527.09,0 584.09,0 584.09,-19"/>
<text text-anchor="middle" x="555.59" y="-7" font-family="Helvetica,sans-Serif" font-size="10.00">ostream</text>
</a>
</g>
</g>
<!-- Node1&#45;&gt;Node14 -->
<g id="edge31_Node000001_Node000014" class="edge">
<title>Node1&#45;&gt;Node14</title>
<g id="a_edge31_Node000001_Node000014"><a xlink:title=" ">
<path fill="none" stroke="#63b8ff" d="M527.75,-274.98C633.29,-261.91 800.59,-232.24 800.59,-175.5 800.59,-175.5 800.59,-175.5 800.59,-118.5 800.59,-29.41 663.27,-13.18 594.24,-10.65"/>
<polygon fill="#63b8ff" stroke="#63b8ff" points="594.27,-7.15 584.18,-10.36 594.07,-14.15 594.27,-7.15"/>
</a>
</g>
</g>
<!-- Node19 -->
<g id="Node000019" class="node">
<title>Node19</title>
<g id="a_Node000019"><a xlink:href="Vec_8hpp.html" target="_top" xlink:title=" ">
<polygon fill="white" stroke="#666666" points="772.59,-184 650.59,-184 650.59,-165 772.59,-165 772.59,-184"/>
<text text-anchor="middle" x="711.59" y="-172" font-family="Helvetica,sans-Serif" font-size="10.00">netspeak/util/Vec.hpp</text>
</a>
</g>
</g>
<!-- Node1&#45;&gt;Node19 -->
<g id="edge29_Node000001_Node000019" class="edge">
<title>Node1&#45;&gt;Node19</title>
<g id="a_edge29_Node000001_Node000019"><a xlink:title=" ">
<path fill="none" stroke="#63b8ff" d="M485.71,-274.95C518.57,-267.52 564.98,-255.39 603.59,-239 635.69,-225.38 669.93,-203.92 691.05,-189.78"/>
<polygon fill="#63b8ff" stroke="#63b8ff" points="693.21,-192.55 699.51,-184.03 689.27,-186.76 693.21,-192.55"/>
</a>
</g>
</g>
<!-- Node5 -->
<g id="Node000005" class="node">
<title>Node5</title>
<g id="a_Node000005"><a xlink:title=" ">
<polygon fill="#e0e0e0" stroke="#999999" points="331.09,-19 266.09,-19 266.09,0 331.09,0 331.09,-19"/>
<text text-anchor="middle" x="298.59" y="-7" font-family="Helvetica,sans-Serif" font-size="10.00">inttypes.h</text>
</a>
</g>
</g>
<!-- Node4&#45;&gt;Node5 -->
<g id="edge4_Node000004_Node000005" class="edge">
<title>Node4&#45;&gt;Node5</title>
<g id="a_edge4_Node000004_Node000005"><a xlink:title=" ">
<path fill="none" stroke="#63b8ff" d="M156.44,-164.94C88.64,-148.75 -36.76,-110.23 10.59,-55 41.67,-18.76 183.44,-11.77 255.81,-10.6"/>
<polygon fill="#63b8ff" stroke="#63b8ff" points="256.01,-14.09 265.96,-10.46 255.92,-7.09 256.01,-14.09"/>
</a>
</g>
</g>
<!-- Node6 -->
<g id="Node000006" class="node">
<title>Node6</title>
<g id="a_Node000006"><a xlink:title=" ">
<polygon fill="#e0e0e0" stroke="#999999" points="275.59,-74 231.59,-74 231.59,-55 275.59,-55 275.59,-74"/>
<text text-anchor="middle" x="253.59" y="-62" font-family="Helvetica,sans-Serif" font-size="10.00">string</text>
</a>
</g>
</g>
<!-- Node4&#45;&gt;Node6 -->
<g id="edge5_Node000004_Node000006" class="edge">
<title>Node4&#45;&gt;Node6</title>
<g id="a_edge5_Node000004_Node000006"><a xlink:title=" ">
<path fill="none" stroke="#63b8ff" d="M210.75,-164.8C222.19,-156.94 237.64,-144.29 245.59,-129 252.73,-115.27 254.47,-97.7 254.57,-84.52"/>
<polygon fill="#63b8ff" stroke="#63b8ff" points="258.07,-84.19 254.34,-74.27 251.07,-84.35 258.07,-84.19"/>
</a>
</g>
</g>
<!-- Node7 -->
<g id="Node000007" class="node">
<title>Node7</title>
<g id="a_Node000007"><a xlink:href="traceable__error_8hpp.html" target="_top" xlink:title=" ">
<polygon fill="white" stroke="#666666" points="236.59,-129 106.59,-129 106.59,-110 236.59,-110 236.59,-129"/>
<text text-anchor="middle" x="171.59" y="-117" font-family="Helvetica,sans-Serif" font-size="10.00">util/traceable_error.hpp</text>
</a>
</g>
</g>
<!-- Node4&#45;&gt;Node7 -->
<g id="edge6_Node000004_Node000007" class="edge">
<title>Node4&#45;&gt;Node7</title>
<g id="a_edge6_Node000004_Node000007"><a xlink:title=" ">
<path fill="none" stroke="#63b8ff" d="M192.47,-164.75C189.08,-157.57 184.18,-147.18 179.98,-138.27"/>
<polygon fill="#63b8ff" stroke="#63b8ff" points="183.08,-136.64 175.65,-129.09 176.75,-139.63 183.08,-136.64"/>
</a>
</g>
</g>
<!-- Node7&#45;&gt;Node6 -->
<g id="edge9_Node000007_Node000006" class="edge">
<title>Node7&#45;&gt;Node6</title>
<g id="a_edge9_Node000007_Node000006"><a xlink:title=" ">
<path fill="none" stroke="#63b8ff" d="M184.77,-109.98C197.37,-101.84 216.6,-89.41 231.53,-79.76"/>
<polygon fill="#63b8ff" stroke="#63b8ff" points="233.68,-82.54 240.18,-74.17 229.88,-76.66 233.68,-82.54"/>
</a>
</g>
</g>
<!-- Node8 -->
<g id="Node000008" class="node">
<title>Node8</title>
<g id="a_Node000008"><a xlink:title=" ">
<polygon fill="#e0e0e0" stroke="#999999" points="213.59,-74 157.59,-74 157.59,-55 213.59,-55 213.59,-74"/>
<text text-anchor="middle" x="185.59" y="-62" font-family="Helvetica,sans-Serif" font-size="10.00">sstream</text>
</a>
</g>
</g>
<!-- Node7&#45;&gt;Node8 -->
<g id="edge7_Node000007_Node000008" class="edge">
<title>Node7&#45;&gt;Node8</title>
<g id="a_edge7_Node000007_Node000008"><a xlink:title=" ">
<path fill="none" stroke="#63b8ff" d="M173.91,-109.75C175.76,-102.72 178.43,-92.62 180.75,-83.84"/>
<polygon fill="#63b8ff" stroke="#63b8ff" points="184.16,-84.65 183.33,-74.09 177.39,-82.86 184.16,-84.65"/>
</a>
</g>
</g>
<!-- Node9 -->
<g id="Node000009" class="node">
<title>Node9</title>
<g id="a_Node000009"><a xlink:title=" ">
<polygon fill="#e0e0e0" stroke="#999999" points="359.09,-74 294.09,-74 294.09,-55 359.09,-55 359.09,-74"/>
<text text-anchor="middle" x="326.59" y="-62" font-family="Helvetica,sans-Serif" font-size="10.00">stdexcept</text>
</a>
</g>
</g>
<!-- Node7&#45;&gt;Node9 -->
<g id="edge8_Node000007_Node000009" class="edge">
<title>Node7&#45;&gt;Node9</title>
<g id="a_edge8_Node000007_Node000009"><a xlink:title=" ">
<path fill="none" stroke="#63b8ff" d="M196.5,-109.98C222.3,-101.16 262.81,-87.31 291.78,-77.41"/>
<polygon fill="#63b8ff" stroke="#63b8ff" points="293.17,-80.63 301.5,-74.08 290.9,-74.01 293.17,-80.63"/>
</a>
</g>
</g>
<!-- Node10 -->
<g id="Node000010" class="node">
<title>Node10</title>
<g id="a_Node000010"><a xlink:title=" ">
<polygon fill="#e0e0e0" stroke="#999999" points="139.09,-74 20.09,-74 20.09,-55 139.09,-55 139.09,-74"/>
<text text-anchor="middle" x="79.59" y="-62" font-family="Helvetica,sans-Serif" font-size="10.00">boost/stacktrace.hpp</text>
</a>
</g>
</g>
<!-- Node7&#45;&gt;Node10 -->
<g id="edge10_Node000007_Node000010" class="edge">
<title>Node7&#45;&gt;Node10</title>
<g id="a_edge10_Node000007_Node000010"><a xlink:title=" ">
<path fill="none" stroke="#63b8ff" d="M156.81,-109.98C142.41,-101.69 120.28,-88.94 103.4,-79.22"/>
<polygon fill="#63b8ff" stroke="#63b8ff" points="105.06,-76.13 94.64,-74.17 101.56,-82.19 105.06,-76.13"/>
</a>
</g>
</g>
<!-- Node11&#45;&gt;Node6 -->
<g id="edge12_Node000011_Node000006" class="edge">
<title>Node11&#45;&gt;Node6</title>
<g id="a_edge12_Node000011_Node000006"><a xlink:title=" ">
<path fill="none" stroke="#63b8ff" d="M485.28,-219.84C467.78,-211.35 440.85,-197.73 418.59,-184 363.4,-149.97 302.38,-103.7 272.37,-80.32"/>
<polygon fill="#63b8ff" stroke="#63b8ff" points="274.46,-77.51 264.43,-74.1 270.14,-83.02 274.46,-77.51"/>
</a>
</g>
</g>
<!-- Node12 -->
<g id="Node000012" class="node">
<title>Node12</title>
<g id="a_Node000012"><a xlink:title=" ">
<polygon fill="#e0e0e0" stroke="#999999" points="694.09,-74 647.09,-74 647.09,-55 694.09,-55 694.09,-74"/>
<text text-anchor="middle" x="670.59" y="-62" font-family="Helvetica,sans-Serif" font-size="10.00">vector</text>
</a>
</g>
</g>
<!-- Node11&#45;&gt;Node12 -->
<g id="edge13_Node000011_Node000012" class="edge">
<title>Node11&#45;&gt;Node12</title>
<g id="a_edge13_Node000011_Node000012"><a xlink:title=" ">
<path fill="none" stroke="#63b8ff" d="M535.84,-219.94C557.04,-213.02 584.32,-201.5 603.59,-184 634.82,-155.63 655.07,-109.21 664.48,-83.71"/>
<polygon fill="#63b8ff" stroke="#63b8ff" points="667.81,-84.76 667.84,-74.17 661.21,-82.43 667.81,-84.76"/>
</a>
</g>
</g>
<!-- Node13 -->
<g id="Node000013" class="node">
<title>Node13</title>
<g id="a_Node000013"><a xlink:href="LengthRange_8hpp.html" target="_top" xlink:title=" ">
<polygon fill="white" stroke="#666666" points="478.09,-74 377.09,-74 377.09,-55 478.09,-55 478.09,-74"/>
<text text-anchor="middle" x="427.59" y="-62" font-family="Helvetica,sans-Serif" font-size="10.00">LengthRange.hpp</text>
</a>
</g>
</g>
<!-- Node11&#45;&gt;Node13 -->
<g id="edge14_Node000011_Node000013" class="edge">
<title>Node11&#45;&gt;Node13</title>
<g id="a_edge14_Node000011_Node000013"><a xlink:title=" ">
<path fill="none" stroke="#63b8ff" d="M488.34,-219.91C463.75,-205.09 416.24,-172.08 397.59,-129 390.52,-112.66 401.28,-94.3 411.82,-81.54"/>
<polygon fill="#63b8ff" stroke="#63b8ff" points="414.47,-83.83 418.54,-74.05 409.26,-79.16 414.47,-83.83"/>
</a>
</g>
</g>
<!-- Node15 -->
<g id="Node000015" class="node">
<title>Node15</title>
<g id="a_Node000015"><a xlink:href="NormQuery_8hpp.html" target="_top" xlink:title=" ">
<polygon fill="white" stroke="#666666" points="594.59,-184 502.59,-184 502.59,-165 594.59,-165 594.59,-184"/>
<text text-anchor="middle" x="548.59" y="-172" font-family="Helvetica,sans-Serif" font-size="10.00">NormQuery.hpp</text>
</a>
</g>
</g>
<!-- Node11&#45;&gt;Node15 -->
<g id="edge17_Node000011_Node000015" class="edge">
<title>Node11&#45;&gt;Node15</title>
<g id="a_edge17_Node000011_Node000015"><a xlink:title=" ">
<path fill="none" stroke="#63b8ff" d="M511.03,-219.75C517.45,-212.18 526.9,-201.05 534.72,-191.84"/>
<polygon fill="#63b8ff" stroke="#63b8ff" points="537.5,-193.98 541.3,-184.09 532.16,-189.45 537.5,-193.98"/>
</a>
</g>
</g>
<!-- Node17 -->
<g id="Node000017" class="node">
<title>Node17</title>
<g id="a_Node000017"><a xlink:href="Query_8hpp.html" target="_top" xlink:title=" ">
<polygon fill="white" stroke="#666666" points="554.09,-129 407.09,-129 407.09,-110 554.09,-110 554.09,-129"/>
<text text-anchor="middle" x="480.59" y="-117" font-family="Helvetica,sans-Serif" font-size="10.00">netspeak/model/Query.hpp</text>
</a>
</g>
</g>
<!-- Node11&#45;&gt;Node17 -->
<g id="edge28_Node000011_Node000017" class="edge">
<title>Node11&#45;&gt;Node17</title>
<g id="a_edge28_Node000011_Node000017"><a xlink:title=" ">
<path fill="none" stroke="#63b8ff" d="M501.63,-219.98C499.58,-211.03 496.29,-196.54 493.59,-184 490.34,-168.85 486.83,-151.63 484.27,-138.95"/>
<polygon fill="#63b8ff" stroke="#63b8ff" points="487.71,-138.26 482.31,-129.14 480.84,-139.63 487.71,-138.26"/>
</a>
</g>
</g>
<!-- Node13&#45;&gt;Node5 -->
<g id="edge15_Node000013_Node000005" class="edge">
<title>Node13&#45;&gt;Node5</title>
<g id="a_edge15_Node000013_Node000005"><a xlink:title=" ">
<path fill="none" stroke="#63b8ff" d="M406.87,-54.98C385.84,-46.34 353.05,-32.87 329.06,-23.02"/>
<polygon fill="#63b8ff" stroke="#63b8ff" points="330.28,-19.73 319.7,-19.17 327.62,-26.21 330.28,-19.73"/>
</a>
</g>
</g>
<!-- Node13&#45;&gt;Node14 -->
<g id="edge16_Node000013_Node000014" class="edge">
<title>Node13&#45;&gt;Node14</title>
<g id="a_edge16_Node000013_Node000014"><a xlink:title=" ">
<path fill="none" stroke="#63b8ff" d="M448.16,-54.98C469.03,-46.34 501.57,-32.87 525.37,-23.02"/>
<polygon fill="#63b8ff" stroke="#63b8ff" points="526.75,-26.23 534.65,-19.17 524.08,-19.76 526.75,-26.23"/>
</a>
</g>
</g>
<!-- Node15&#45;&gt;Node6 -->
<g id="edge19_Node000015_Node000006" class="edge">
<title>Node15&#45;&gt;Node6</title>
<g id="a_edge19_Node000015_Node000006"><a xlink:title=" ">
<path fill="none" stroke="#63b8ff" d="M515.2,-164.99C484.34,-156.8 437.37,-143.56 397.59,-129 355.82,-113.71 308.94,-92.18 280.34,-78.54"/>
<polygon fill="#63b8ff" stroke="#63b8ff" points="281.56,-75.24 271.03,-74.06 278.53,-81.55 281.56,-75.24"/>
</a>
</g>
</g>
<!-- Node15&#45;&gt;Node12 -->
<g id="edge20_Node000015_Node000012" class="edge">
<title>Node15&#45;&gt;Node12</title>
<g id="a_edge20_Node000015_Node000012"><a xlink:title=" ">
<path fill="none" stroke="#63b8ff" d="M558.58,-164.66C579.32,-146.3 627.31,-103.81 653.24,-80.87"/>
<polygon fill="#63b8ff" stroke="#63b8ff" points="655.65,-83.41 660.81,-74.16 651.01,-78.17 655.65,-83.41"/>
</a>
</g>
</g>
<!-- Node16 -->
<g id="Node000016" class="node">
<title>Node16</title>
<g id="a_Node000016"><a xlink:title=" ">
<polygon fill="#e0e0e0" stroke="#999999" points="628.59,-74 570.59,-74 570.59,-55 628.59,-55 628.59,-74"/>
<text text-anchor="middle" x="599.59" y="-62" font-family="Helvetica,sans-Serif" font-size="10.00">memory</text>
</a>
</g>
</g>
<!-- Node15&#45;&gt;Node16 -->
<g id="edge18_Node000015_Node000016" class="edge">
<title>Node15&#45;&gt;Node16</title>
<g id="a_edge18_Node000015_Node000016"><a xlink:title=" ">
<path fill="none" stroke="#63b8ff" d="M552.77,-164.66C561.14,-146.93 580.13,-106.73 591.18,-83.32"/>
<polygon fill="#63b8ff" stroke="#63b8ff" points="594.4,-84.7 595.51,-74.16 588.07,-81.71 594.4,-84.7"/>
</a>
</g>
</g>
<!-- Node15&#45;&gt;Node17 -->
<g id="edge21_Node000015_Node000017" class="edge">
<title>Node15&#45;&gt;Node17</title>
<g id="a_edge21_Node000015_Node000017"><a xlink:title=" ">
<path fill="none" stroke="#63b8ff" d="M537.67,-164.98C527.52,-157.07 512.17,-145.11 499.95,-135.58"/>
<polygon fill="#63b8ff" stroke="#63b8ff" points="501.76,-132.56 491.72,-129.17 497.45,-138.08 501.76,-132.56"/>
</a>
</g>
</g>
<!-- Node17&#45;&gt;Node6 -->
<g id="edge25_Node000017_Node000006" class="edge">
<title>Node17&#45;&gt;Node6</title>
<g id="a_edge25_Node000017_Node000006"><a xlink:title=" ">
<path fill="none" stroke="#63b8ff" d="M440.68,-109.98C403.08,-101.84 344.95,-88.93 285.8,-74.22"/>
<polygon fill="#63b8ff" stroke="#63b8ff" points="286.46,-70.78 275.91,-71.75 284.77,-77.57 286.46,-70.78"/>
</a>
</g>
</g>
<!-- Node17&#45;&gt;Node9 -->
<g id="edge24_Node000017_Node000009" class="edge">
<title>Node17&#45;&gt;Node9</title>
<g id="a_edge24_Node000017_Node000009"><a xlink:title=" ">
<path fill="none" stroke="#63b8ff" d="M455.85,-109.98C430.22,-101.16 389.96,-87.31 361.19,-77.41"/>
<polygon fill="#63b8ff" stroke="#63b8ff" points="362.13,-74.03 351.53,-74.08 359.85,-80.65 362.13,-74.03"/>
</a>
</g>
</g>
<!-- Node17&#45;&gt;Node12 -->
<g id="edge26_Node000017_Node000012" class="edge">
<title>Node17&#45;&gt;Node12</title>
<g id="a_edge26_Node000017_Node000012"><a xlink:title=" ">
<path fill="none" stroke="#63b8ff" d="M511.12,-109.98C545.59,-100.37 601.49,-84.78 637.13,-74.84"/>
<polygon fill="#63b8ff" stroke="#63b8ff" points="638.35,-78.13 647.04,-72.07 636.47,-71.38 638.35,-78.13"/>
</a>
</g>
</g>
<!-- Node17&#45;&gt;Node13 -->
<g id="edge27_Node000017_Node000013" class="edge">
<title>Node17&#45;&gt;Node13</title>
<g id="a_edge27_Node000017_Node000013"><a xlink:title=" ">
<path fill="none" stroke="#63b8ff" d="M471.84,-109.75C464.12,-102.03 452.69,-90.6 443.38,-81.28"/>
<polygon fill="#63b8ff" stroke="#63b8ff" points="445.73,-78.69 436.18,-74.09 440.78,-83.64 445.73,-78.69"/>
</a>
</g>
</g>
<!-- Node17&#45;&gt;Node16 -->
<g id="edge22_Node000017_Node000016" class="edge">
<title>Node17&#45;&gt;Node16</title>
<g id="a_edge22_Node000017_Node000016"><a xlink:title=" ">
<path fill="none" stroke="#63b8ff" d="M499.71,-109.98C518.94,-101.42 548.83,-88.11 570.9,-78.28"/>
<polygon fill="#63b8ff" stroke="#63b8ff" points="572.42,-81.44 580.13,-74.17 569.57,-75.04 572.42,-81.44"/>
</a>
</g>
</g>
<!-- Node18 -->
<g id="Node000018" class="node">
<title>Node18</title>
<g id="a_Node000018"><a xlink:title=" ">
<polygon fill="#e0e0e0" stroke="#999999" points="552.59,-74 496.59,-74 496.59,-55 552.59,-55 552.59,-74"/>
<text text-anchor="middle" x="524.59" y="-62" font-family="Helvetica,sans-Serif" font-size="10.00">optional</text>
</a>
</g>
</g>
<!-- Node17&#45;&gt;Node18 -->
<g id="edge23_Node000017_Node000018" class="edge">
<title>Node17&#45;&gt;Node18</title>
<g id="a_edge23_Node000017_Node000018"><a xlink:title=" ">
<path fill="none" stroke="#63b8ff" d="M487.86,-109.75C494.14,-102.18 503.38,-91.05 511.03,-81.84"/>
<polygon fill="#63b8ff" stroke="#63b8ff" points="513.77,-84.02 517.46,-74.09 508.38,-79.55 513.77,-84.02"/>
</a>
</g>
</g>
<!-- Node19&#45;&gt;Node12 -->
<g id="edge30_Node000019_Node000012" class="edge">
<title>Node19&#45;&gt;Node12</title>
<g id="a_edge30_Node000019_Node000012"><a xlink:title=" ">
<path fill="none" stroke="#63b8ff" d="M708.24,-164.66C701.54,-147.01 686.38,-107.09 677.48,-83.64"/>
<polygon fill="#63b8ff" stroke="#63b8ff" points="680.7,-82.27 673.88,-74.16 674.16,-84.75 680.7,-82.27"/>
</a>
</g>
</g>
</g>
</svg>
