<?xml version="1.0" encoding="UTF-8" standalone="no"?>
<!DOCTYPE svg PUBLIC "-//W3C//DTD SVG 1.1//EN"
 "http://www.w3.org/Graphics/SVG/1.1/DTD/svg11.dtd">
<!-- Generated by graphviz version 2.43.0 (0)
 -->
<!-- Title: cli/StressCommand.hpp Pages: 1 -->
<svg width="228pt" height="137pt"
 viewBox="0.00 0.00 228.00 137.00" xmlns="http://www.w3.org/2000/svg" xmlns:xlink="http://www.w3.org/1999/xlink">
<g id="graph0" class="graph" transform="scale(1 1) rotate(0) translate(4 133)">
<title>cli/StressCommand.hpp</title>
<!-- Node1 -->
<g id="Node000001" class="node">
<title>Node1</title>
<g id="a_Node000001"><a xlink:title=" ">
<polygon fill="#999999" stroke="#666666" points="132,-129 0,-129 0,-110 132,-110 132,-129"/>
<text text-anchor="middle" x="66" y="-117" font-family="Helvetica,sans-Serif" font-size="10.00">cli/StressCommand.hpp</text>
</a>
</g>
</g>
<!-- Node2 -->
<g id="Node000002" class="node">
<title>Node2</title>
<g id="a_Node000002"><a xlink:title=" ">
<polygon fill="#e0e0e0" stroke="#999999" points="52,-19 8,-19 8,0 52,0 52,-19"/>
<text text-anchor="middle" x="30" y="-7" font-family="Helvetica,sans-Serif" font-size="10.00">string</text>
</a>
</g>
</g>
<!-- Node1&#45;&gt;Node2 -->
<g id="edge1_Node000001_Node000002" class="edge">
<title>Node1&#45;&gt;Node2</title>
<g id="a_edge1_Node000001_Node000002"><a xlink:title=" ">
<path fill="none" stroke="#63b8ff" d="M62.42,-109.71C58.84,-100.78 53.26,-86.53 49,-74 43.9,-59 38.79,-41.77 35.16,-29.05"/>
<polygon fill="#63b8ff" stroke="#63b8ff" points="38.46,-27.87 32.38,-19.19 31.72,-29.77 38.46,-27.87"/>
</a>
</g>
</g>
<!-- Node3 -->
<g id="Node000003" class="node">
<title>Node3</title>
<g id="a_Node000003"><a xlink:href="Command_8hpp.html" target="_top" xlink:title=" ">
<polygon fill="white" stroke="#666666" points="146,-74 58,-74 58,-55 146,-55 146,-74"/>
<text text-anchor="middle" x="102" y="-62" font-family="Helvetica,sans-Serif" font-size="10.00">Command.hpp</text>
</a>
</g>
</g>
<!-- Node1&#45;&gt;Node3 -->
<g id="edge2_Node000001_Node000003" class="edge">
<title>Node1&#45;&gt;Node3</title>
<g id="a_edge2_Node000001_Node000003"><a xlink:title=" ">
<path fill="none" stroke="#63b8ff" d="M71.94,-109.75C76.98,-102.34 84.34,-91.5 90.51,-82.41"/>
<polygon fill="#63b8ff" stroke="#63b8ff" points="93.44,-84.33 96.17,-74.09 87.65,-80.39 93.44,-84.33"/>
</a>
</g>
</g>
<!-- Node3&#45;&gt;Node2 -->
<g id="edge3_Node000003_Node000002" class="edge">
<title>Node3&#45;&gt;Node2</title>
<g id="a_edge3_Node000003_Node000002"><a xlink:title=" ">
<path fill="none" stroke="#63b8ff" d="M90.43,-54.98C79.58,-47 63.12,-34.88 50.12,-25.31"/>
<polygon fill="#63b8ff" stroke="#63b8ff" points="51.91,-22.28 41.78,-19.17 47.76,-27.92 51.91,-22.28"/>
</a>
</g>
</g>
<!-- Node4 -->
<g id="Node000004" class="node">
<title>Node4</title>
<g id="a_Node000004"><a xlink:title=" ">
<polygon fill="#e0e0e0" stroke="#999999" points="220,-19 70,-19 70,0 220,0 220,-19"/>
<text text-anchor="middle" x="145" y="-7" font-family="Helvetica,sans-Serif" font-size="10.00">boost/program_options.hpp</text>
</a>
</g>
</g>
<!-- Node3&#45;&gt;Node4 -->
<g id="edge4_Node000003_Node000004" class="edge">
<title>Node3&#45;&gt;Node4</title>
<g id="a_edge4_Node000003_Node000004"><a xlink:title=" ">
<path fill="none" stroke="#63b8ff" d="M109.1,-54.75C115.17,-47.26 124.09,-36.28 131.51,-27.13"/>
<polygon fill="#63b8ff" stroke="#63b8ff" points="134.45,-29.06 138.03,-19.09 129.01,-24.65 134.45,-29.06"/>
</a>
</g>
</g>
</g>
</svg>
