<?xml version="1.0" encoding="UTF-8" standalone="no"?>
<!DOCTYPE svg PUBLIC "-//W3C//DTD SVG 1.1//EN"
 "http://www.w3.org/Graphics/SVG/1.1/DTD/svg11.dtd">
<!-- Generated by graphviz version 2.43.0 (0)
 -->
<!-- Title: cli/StressCommand.cpp Pages: 1 -->
<svg width="1955pt" height="192pt"
 viewBox="0.00 0.00 1954.50 192.00" xmlns="http://www.w3.org/2000/svg" xmlns:xlink="http://www.w3.org/1999/xlink">
<g id="graph0" class="graph" transform="scale(1 1) rotate(0) translate(4 188)">
<title>cli/StressCommand.cpp</title>
<!-- Node1 -->
<g id="Node000001" class="node">
<title>Node1</title>
<g id="a_Node000001"><a xlink:title=" ">
<polygon fill="#999999" stroke="#666666" points="1136.5,-184 1005.5,-184 1005.5,-165 1136.5,-165 1136.5,-184"/>
<text text-anchor="middle" x="1071" y="-172" font-family="Helvetica,sans-Serif" font-size="10.00">cli/StressCommand.cpp</text>
</a>
</g>
</g>
<!-- Node2 -->
<g id="Node000002" class="node">
<title>Node2</title>
<g id="a_Node000002"><a xlink:href="StressCommand_8hpp.html" target="_top" xlink:title=" ">
<polygon fill="white" stroke="#666666" points="157,-129 25,-129 25,-110 157,-110 157,-129"/>
<text text-anchor="middle" x="91" y="-117" font-family="Helvetica,sans-Serif" font-size="10.00">cli/StressCommand.hpp</text>
</a>
</g>
</g>
<!-- Node1&#45;&gt;Node2 -->
<g id="edge1_Node000001_Node000002" class="edge">
<title>Node1&#45;&gt;Node2</title>
<g id="a_edge1_Node000001_Node000002"><a xlink:title=" ">
<path fill="none" stroke="#63b8ff" d="M1005.42,-171.53C856.79,-166.78 482.94,-153.26 171,-129 169.89,-128.91 168.76,-128.82 167.63,-128.73"/>
<polygon fill="#63b8ff" stroke="#63b8ff" points="167.59,-125.22 157.33,-127.84 166.99,-132.19 167.59,-125.22"/>
</a>
</g>
</g>
<!-- Node3 -->
<g id="Node000003" class="node">
<title>Node3</title>
<g id="a_Node000003"><a xlink:title=" ">
<polygon fill="#e0e0e0" stroke="#999999" points="512,-19 468,-19 468,0 512,0 512,-19"/>
<text text-anchor="middle" x="490" y="-7" font-family="Helvetica,sans-Serif" font-size="10.00">string</text>
</a>
</g>
</g>
<!-- Node1&#45;&gt;Node3 -->
<g id="edge19_Node000001_Node000003" class="edge">
<title>Node1&#45;&gt;Node3</title>
<g id="a_edge19_Node000001_Node000003"><a xlink:title=" ">
<path fill="none" stroke="#63b8ff" d="M1005.41,-172.57C808.04,-169.47 231.51,-157.96 204,-129 126.37,-47.28 367.88,-19.92 457.73,-12.71"/>
<polygon fill="#63b8ff" stroke="#63b8ff" points="458.2,-16.18 467.91,-11.92 457.67,-9.2 458.2,-16.18"/>
</a>
</g>
</g>
<!-- Node6 -->
<g id="Node000006" class="node">
<title>Node6</title>
<g id="a_Node000006"><a xlink:title=" ">
<polygon fill="#e0e0e0" stroke="#999999" points="284.5,-129 213.5,-129 213.5,-110 284.5,-110 284.5,-129"/>
<text text-anchor="middle" x="249" y="-117" font-family="Helvetica,sans-Serif" font-size="10.00">grpc/grpc.h</text>
</a>
</g>
</g>
<!-- Node1&#45;&gt;Node6 -->
<g id="edge6_Node000001_Node000006" class="edge">
<title>Node1&#45;&gt;Node6</title>
<g id="a_edge6_Node000001_Node000006"><a xlink:title=" ">
<path fill="none" stroke="#63b8ff" d="M1005.25,-172.6C872.71,-170.17 563.85,-161.35 294.75,-128.91"/>
<polygon fill="#63b8ff" stroke="#63b8ff" points="295.15,-125.43 284.8,-127.69 294.3,-132.38 295.15,-125.43"/>
</a>
</g>
</g>
<!-- Node7 -->
<g id="Node000007" class="node">
<title>Node7</title>
<g id="a_Node000007"><a xlink:title=" ">
<polygon fill="#e0e0e0" stroke="#999999" points="403,-129 303,-129 303,-110 403,-110 403,-129"/>
<text text-anchor="middle" x="353" y="-117" font-family="Helvetica,sans-Serif" font-size="10.00">grpcpp/channel.h</text>
</a>
</g>
</g>
<!-- Node1&#45;&gt;Node7 -->
<g id="edge7_Node000001_Node000007" class="edge">
<title>Node1&#45;&gt;Node7</title>
<g id="a_edge7_Node000001_Node000007"><a xlink:title=" ">
<path fill="none" stroke="#63b8ff" d="M1005.38,-170.72C888.52,-165.4 636.45,-152.29 413.44,-129.07"/>
<polygon fill="#63b8ff" stroke="#63b8ff" points="413.49,-125.56 403.18,-127.99 412.76,-132.52 413.49,-125.56"/>
</a>
</g>
</g>
<!-- Node8 -->
<g id="Node000008" class="node">
<title>Node8</title>
<g id="a_Node000008"><a xlink:title=" ">
<polygon fill="#e0e0e0" stroke="#999999" points="552.5,-129 421.5,-129 421.5,-110 552.5,-110 552.5,-129"/>
<text text-anchor="middle" x="487" y="-117" font-family="Helvetica,sans-Serif" font-size="10.00">grpcpp/client_context.h</text>
</a>
</g>
</g>
<!-- Node1&#45;&gt;Node8 -->
<g id="edge8_Node000001_Node000008" class="edge">
<title>Node1&#45;&gt;Node8</title>
<g id="a_edge8_Node000001_Node000008"><a xlink:title=" ">
<path fill="none" stroke="#63b8ff" d="M1005.46,-168.31C910.48,-160.67 728.74,-145.6 563.21,-129.1"/>
<polygon fill="#63b8ff" stroke="#63b8ff" points="563.14,-125.57 552.84,-128.06 562.44,-132.54 563.14,-125.57"/>
</a>
</g>
</g>
<!-- Node9 -->
<g id="Node000009" class="node">
<title>Node9</title>
<g id="a_Node000009"><a xlink:title=" ">
<polygon fill="#e0e0e0" stroke="#999999" points="707,-129 571,-129 571,-110 707,-110 707,-129"/>
<text text-anchor="middle" x="639" y="-117" font-family="Helvetica,sans-Serif" font-size="10.00">grpcpp/create_channel.h</text>
</a>
</g>
</g>
<!-- Node1&#45;&gt;Node9 -->
<g id="edge9_Node000001_Node000009" class="edge">
<title>Node1&#45;&gt;Node9</title>
<g id="a_edge9_Node000001_Node000009"><a xlink:title=" ">
<path fill="none" stroke="#63b8ff" d="M1005.39,-165.45C928.01,-155.96 799.51,-140.19 717.08,-130.08"/>
<polygon fill="#63b8ff" stroke="#63b8ff" points="717.37,-126.59 707.01,-128.84 716.51,-133.54 717.37,-126.59"/>
</a>
</g>
</g>
<!-- Node10 -->
<g id="Node000010" class="node">
<title>Node10</title>
<g id="a_Node000010"><a xlink:title=" ">
<polygon fill="#e0e0e0" stroke="#999999" points="883,-129 725,-129 725,-110 883,-110 883,-129"/>
<text text-anchor="middle" x="804" y="-117" font-family="Helvetica,sans-Serif" font-size="10.00">grpcpp/security/credentials.h</text>
</a>
</g>
</g>
<!-- Node1&#45;&gt;Node10 -->
<g id="edge10_Node000001_Node000010" class="edge">
<title>Node1&#45;&gt;Node10</title>
<g id="a_edge10_Node000001_Node000010"><a xlink:title=" ">
<path fill="none" stroke="#63b8ff" d="M1028.1,-164.98C981.63,-155.76 907.41,-141.03 857.24,-131.07"/>
<polygon fill="#63b8ff" stroke="#63b8ff" points="857.72,-127.6 847.23,-129.08 856.36,-134.46 857.72,-127.6"/>
</a>
</g>
</g>
<!-- Node11 -->
<g id="Node000011" class="node">
<title>Node11</title>
<g id="a_Node000011"><a xlink:title=" ">
<polygon fill="#e0e0e0" stroke="#999999" points="951,-129 901,-129 901,-110 951,-110 951,-129"/>
<text text-anchor="middle" x="926" y="-117" font-family="Helvetica,sans-Serif" font-size="10.00">atomic</text>
</a>
</g>
</g>
<!-- Node1&#45;&gt;Node11 -->
<g id="edge11_Node000001_Node000011" class="edge">
<title>Node1&#45;&gt;Node11</title>
<g id="a_edge11_Node000001_Node000011"><a xlink:title=" ">
<path fill="none" stroke="#63b8ff" d="M1047.7,-164.98C1023.75,-156.23 986.22,-142.51 959.17,-132.62"/>
<polygon fill="#63b8ff" stroke="#63b8ff" points="960.31,-129.32 949.72,-129.17 957.91,-135.89 960.31,-129.32"/>
</a>
</g>
</g>
<!-- Node12 -->
<g id="Node000012" class="node">
<title>Node12</title>
<g id="a_Node000012"><a xlink:title=" ">
<polygon fill="#e0e0e0" stroke="#999999" points="1019,-129 969,-129 969,-110 1019,-110 1019,-129"/>
<text text-anchor="middle" x="994" y="-117" font-family="Helvetica,sans-Serif" font-size="10.00">chrono</text>
</a>
</g>
</g>
<!-- Node1&#45;&gt;Node12 -->
<g id="edge12_Node000001_Node000012" class="edge">
<title>Node1&#45;&gt;Node12</title>
<g id="a_edge12_Node000001_Node000012"><a xlink:title=" ">
<path fill="none" stroke="#63b8ff" d="M1058.63,-164.98C1046.91,-156.92 1029.08,-144.65 1015.11,-135.03"/>
<polygon fill="#63b8ff" stroke="#63b8ff" points="1016.82,-131.96 1006.6,-129.17 1012.85,-137.72 1016.82,-131.96"/>
</a>
</g>
</g>
<!-- Node13 -->
<g id="Node000013" class="node">
<title>Node13</title>
<g id="a_Node000013"><a xlink:title=" ">
<polygon fill="#e0e0e0" stroke="#999999" points="1105,-129 1037,-129 1037,-110 1105,-110 1105,-129"/>
<text text-anchor="middle" x="1071" y="-117" font-family="Helvetica,sans-Serif" font-size="10.00">filesystem</text>
</a>
</g>
</g>
<!-- Node1&#45;&gt;Node13 -->
<g id="edge13_Node000001_Node000013" class="edge">
<title>Node1&#45;&gt;Node13</title>
<g id="a_edge13_Node000001_Node000013"><a xlink:title=" ">
<path fill="none" stroke="#63b8ff" d="M1071,-164.75C1071,-157.8 1071,-147.85 1071,-139.13"/>
<polygon fill="#63b8ff" stroke="#63b8ff" points="1074.5,-139.09 1071,-129.09 1067.5,-139.09 1074.5,-139.09"/>
</a>
</g>
</g>
<!-- Node14 -->
<g id="Node000014" class="node">
<title>Node14</title>
<g id="a_Node000014"><a xlink:title=" ">
<polygon fill="#e0e0e0" stroke="#999999" points="1178.5,-129 1123.5,-129 1123.5,-110 1178.5,-110 1178.5,-129"/>
<text text-anchor="middle" x="1151" y="-117" font-family="Helvetica,sans-Serif" font-size="10.00">fstream</text>
</a>
</g>
</g>
<!-- Node1&#45;&gt;Node14 -->
<g id="edge14_Node000001_Node000014" class="edge">
<title>Node1&#45;&gt;Node14</title>
<g id="a_edge14_Node000001_Node000014"><a xlink:title=" ">
<path fill="none" stroke="#63b8ff" d="M1083.85,-164.98C1096.14,-156.84 1114.91,-144.41 1129.48,-134.76"/>
<polygon fill="#63b8ff" stroke="#63b8ff" points="1131.51,-137.61 1137.91,-129.17 1127.64,-131.78 1131.51,-137.61"/>
</a>
</g>
</g>
<!-- Node15 -->
<g id="Node000015" class="node">
<title>Node15</title>
<g id="a_Node000015"><a xlink:title=" ">
<polygon fill="#e0e0e0" stroke="#999999" points="1253,-129 1197,-129 1197,-110 1253,-110 1253,-129"/>
<text text-anchor="middle" x="1225" y="-117" font-family="Helvetica,sans-Serif" font-size="10.00">iomanip</text>
</a>
</g>
</g>
<!-- Node1&#45;&gt;Node15 -->
<g id="edge15_Node000001_Node000015" class="edge">
<title>Node1&#45;&gt;Node15</title>
<g id="a_edge15_Node000001_Node000015"><a xlink:title=" ">
<path fill="none" stroke="#63b8ff" d="M1095.74,-164.98C1121.37,-156.16 1161.63,-142.31 1190.41,-132.41"/>
<polygon fill="#63b8ff" stroke="#63b8ff" points="1191.75,-135.65 1200.06,-129.08 1189.47,-129.03 1191.75,-135.65"/>
</a>
</g>
</g>
<!-- Node16 -->
<g id="Node000016" class="node">
<title>Node16</title>
<g id="a_Node000016"><a xlink:title=" ">
<polygon fill="#e0e0e0" stroke="#999999" points="1331,-129 1271,-129 1271,-110 1331,-110 1331,-129"/>
<text text-anchor="middle" x="1301" y="-117" font-family="Helvetica,sans-Serif" font-size="10.00">iostream</text>
</a>
</g>
</g>
<!-- Node1&#45;&gt;Node16 -->
<g id="edge16_Node000001_Node000016" class="edge">
<title>Node1&#45;&gt;Node16</title>
<g id="a_edge16_Node000001_Node000016"><a xlink:title=" ">
<path fill="none" stroke="#63b8ff" d="M1107.95,-164.98C1149.8,-155.34 1217.77,-139.68 1260.88,-129.74"/>
<polygon fill="#63b8ff" stroke="#63b8ff" points="1261.79,-133.13 1270.75,-127.47 1260.22,-126.31 1261.79,-133.13"/>
</a>
</g>
</g>
<!-- Node17 -->
<g id="Node000017" class="node">
<title>Node17</title>
<g id="a_Node000017"><a xlink:title=" ">
<polygon fill="#e0e0e0" stroke="#999999" points="1397,-129 1349,-129 1349,-110 1397,-110 1397,-129"/>
<text text-anchor="middle" x="1373" y="-117" font-family="Helvetica,sans-Serif" font-size="10.00">mutex</text>
</a>
</g>
</g>
<!-- Node1&#45;&gt;Node17 -->
<g id="edge17_Node000001_Node000017" class="edge">
<title>Node1&#45;&gt;Node17</title>
<g id="a_edge17_Node000001_Node000017"><a xlink:title=" ">
<path fill="none" stroke="#63b8ff" d="M1131.91,-164.99C1184.38,-157.3 1262.31,-145.04 1339.07,-129.04"/>
<polygon fill="#63b8ff" stroke="#63b8ff" points="1339.84,-132.45 1348.91,-126.97 1338.4,-125.6 1339.84,-132.45"/>
</a>
</g>
</g>
<!-- Node18 -->
<g id="Node000018" class="node">
<title>Node18</title>
<g id="a_Node000018"><a xlink:title=" ">
<polygon fill="#e0e0e0" stroke="#999999" points="1469,-129 1415,-129 1415,-110 1469,-110 1469,-129"/>
<text text-anchor="middle" x="1442" y="-117" font-family="Helvetica,sans-Serif" font-size="10.00">random</text>
</a>
</g>
</g>
<!-- Node1&#45;&gt;Node18 -->
<g id="edge18_Node000001_Node000018" class="edge">
<title>Node1&#45;&gt;Node18</title>
<g id="a_edge18_Node000001_Node000018"><a xlink:title=" ">
<path fill="none" stroke="#63b8ff" d="M1136.78,-166.73C1202.37,-159.53 1306.15,-146.94 1405.07,-129.01"/>
<polygon fill="#63b8ff" stroke="#63b8ff" points="1405.73,-132.44 1414.93,-127.2 1404.47,-125.56 1405.73,-132.44"/>
</a>
</g>
</g>
<!-- Node19 -->
<g id="Node000019" class="node">
<title>Node19</title>
<g id="a_Node000019"><a xlink:title=" ">
<polygon fill="#e0e0e0" stroke="#999999" points="1535,-129 1487,-129 1487,-110 1535,-110 1535,-129"/>
<text text-anchor="middle" x="1511" y="-117" font-family="Helvetica,sans-Serif" font-size="10.00">thread</text>
</a>
</g>
</g>
<!-- Node1&#45;&gt;Node19 -->
<g id="edge20_Node000001_Node000019" class="edge">
<title>Node1&#45;&gt;Node19</title>
<g id="a_edge20_Node000001_Node000019"><a xlink:title=" ">
<path fill="none" stroke="#63b8ff" d="M1136.62,-169.23C1215.28,-163.46 1351.2,-151.44 1476.76,-128.97"/>
<polygon fill="#63b8ff" stroke="#63b8ff" points="1477.72,-132.35 1486.94,-127.12 1476.47,-125.47 1477.72,-132.35"/>
</a>
</g>
</g>
<!-- Node20 -->
<g id="Node000020" class="node">
<title>Node20</title>
<g id="a_Node000020"><a xlink:href="util_8hpp.html" target="_top" xlink:title=" ">
<polygon fill="white" stroke="#666666" points="1621,-129 1553,-129 1553,-110 1621,-110 1621,-129"/>
<text text-anchor="middle" x="1587" y="-117" font-family="Helvetica,sans-Serif" font-size="10.00">cli/util.hpp</text>
</a>
</g>
</g>
<!-- Node1&#45;&gt;Node20 -->
<g id="edge21_Node000001_Node000020" class="edge">
<title>Node1&#45;&gt;Node20</title>
<g id="a_edge21_Node000001_Node000020"><a xlink:title=" ">
<path fill="none" stroke="#63b8ff" d="M1136.67,-169.43C1226.27,-163.42 1392.01,-150.61 1542.87,-129.02"/>
<polygon fill="#63b8ff" stroke="#63b8ff" points="1543.39,-132.48 1552.79,-127.59 1542.39,-125.56 1543.39,-132.48"/>
</a>
</g>
</g>
<!-- Node22 -->
<g id="Node000022" class="node">
<title>Node22</title>
<g id="a_Node000022"><a xlink:href="tracking_8hpp.html" target="_top" xlink:title=" ">
<polygon fill="white" stroke="#666666" points="1803,-129 1639,-129 1639,-110 1803,-110 1803,-129"/>
<text text-anchor="middle" x="1721" y="-117" font-family="Helvetica,sans-Serif" font-size="10.00">netspeak/service/tracking.hpp</text>
</a>
</g>
</g>
<!-- Node1&#45;&gt;Node22 -->
<g id="edge24_Node000001_Node000022" class="edge">
<title>Node1&#45;&gt;Node22</title>
<g id="a_edge24_Node000001_Node000022"><a xlink:title=" ">
<path fill="none" stroke="#63b8ff" d="M1136.86,-168.55C1239.52,-160.77 1444.21,-145 1628.51,-129.12"/>
<polygon fill="#63b8ff" stroke="#63b8ff" points="1629,-132.59 1638.66,-128.24 1628.4,-125.62 1629,-132.59"/>
</a>
</g>
</g>
<!-- Node24 -->
<g id="Node000024" class="node">
<title>Node24</title>
<g id="a_Node000024"><a xlink:href="glob_8hpp.html" target="_top" xlink:title=" ">
<polygon fill="white" stroke="#666666" points="1946.5,-129 1821.5,-129 1821.5,-110 1946.5,-110 1946.5,-129"/>
<text text-anchor="middle" x="1884" y="-117" font-family="Helvetica,sans-Serif" font-size="10.00">netspeak/util/glob.hpp</text>
</a>
</g>
</g>
<!-- Node1&#45;&gt;Node24 -->
<g id="edge28_Node000001_Node000024" class="edge">
<title>Node1&#45;&gt;Node24</title>
<g id="a_edge28_Node000001_Node000024"><a xlink:title=" ">
<path fill="none" stroke="#63b8ff" d="M1136.52,-170.83C1264.13,-165.36 1555.16,-151.53 1810.96,-129.04"/>
<polygon fill="#63b8ff" stroke="#63b8ff" points="1811.54,-132.5 1821.19,-128.13 1810.92,-125.53 1811.54,-132.5"/>
</a>
</g>
</g>
<!-- Node2&#45;&gt;Node3 -->
<g id="edge2_Node000002_Node000003" class="edge">
<title>Node2&#45;&gt;Node3</title>
<g id="a_edge2_Node000002_Node000003"><a xlink:title=" ">
<path fill="none" stroke="#63b8ff" d="M98.87,-109.77C112.19,-95.62 140.68,-67.99 171,-55 222.21,-33.06 386.98,-18.31 457.49,-12.85"/>
<polygon fill="#63b8ff" stroke="#63b8ff" points="457.87,-16.34 467.58,-12.09 457.34,-9.36 457.87,-16.34"/>
</a>
</g>
</g>
<!-- Node4 -->
<g id="Node000004" class="node">
<title>Node4</title>
<g id="a_Node000004"><a xlink:href="Command_8hpp.html" target="_top" xlink:title=" ">
<polygon fill="white" stroke="#666666" points="119,-74 31,-74 31,-55 119,-55 119,-74"/>
<text text-anchor="middle" x="75" y="-62" font-family="Helvetica,sans-Serif" font-size="10.00">Command.hpp</text>
</a>
</g>
</g>
<!-- Node2&#45;&gt;Node4 -->
<g id="edge3_Node000002_Node000004" class="edge">
<title>Node2&#45;&gt;Node4</title>
<g id="a_edge3_Node000002_Node000004"><a xlink:title=" ">
<path fill="none" stroke="#63b8ff" d="M88.36,-109.75C86.24,-102.72 83.19,-92.62 80.54,-83.84"/>
<polygon fill="#63b8ff" stroke="#63b8ff" points="83.83,-82.65 77.59,-74.09 77.13,-84.67 83.83,-82.65"/>
</a>
</g>
</g>
<!-- Node4&#45;&gt;Node3 -->
<g id="edge4_Node000004_Node000003" class="edge">
<title>Node4&#45;&gt;Node3</title>
<g id="a_edge4_Node000004_Node000003"><a xlink:title=" ">
<path fill="none" stroke="#63b8ff" d="M119,-56.95C123.73,-56.28 128.46,-55.62 133,-55 252.65,-38.78 395.17,-21.68 457.79,-14.28"/>
<polygon fill="#63b8ff" stroke="#63b8ff" points="458.32,-17.74 467.84,-13.09 457.5,-10.79 458.32,-17.74"/>
</a>
</g>
</g>
<!-- Node5 -->
<g id="Node000005" class="node">
<title>Node5</title>
<g id="a_Node000005"><a xlink:title=" ">
<polygon fill="#e0e0e0" stroke="#999999" points="150,-19 0,-19 0,0 150,0 150,-19"/>
<text text-anchor="middle" x="75" y="-7" font-family="Helvetica,sans-Serif" font-size="10.00">boost/program_options.hpp</text>
</a>
</g>
</g>
<!-- Node4&#45;&gt;Node5 -->
<g id="edge5_Node000004_Node000005" class="edge">
<title>Node4&#45;&gt;Node5</title>
<g id="a_edge5_Node000004_Node000005"><a xlink:title=" ">
<path fill="none" stroke="#63b8ff" d="M75,-54.75C75,-47.8 75,-37.85 75,-29.13"/>
<polygon fill="#63b8ff" stroke="#63b8ff" points="78.5,-29.09 75,-19.09 71.5,-29.09 78.5,-29.09"/>
</a>
</g>
</g>
<!-- Node20&#45;&gt;Node3 -->
<g id="edge23_Node000020_Node000003" class="edge">
<title>Node20&#45;&gt;Node3</title>
<g id="a_edge23_Node000020_Node000003"><a xlink:title=" ">
<path fill="none" stroke="#63b8ff" d="M1552.79,-111.41C1549.82,-110.9 1546.86,-110.42 1544,-110 1143.31,-51.64 651.69,-20.04 522.39,-12.36"/>
<polygon fill="#63b8ff" stroke="#63b8ff" points="522.54,-8.86 512.35,-11.77 522.13,-15.85 522.54,-8.86"/>
</a>
</g>
</g>
<!-- Node21 -->
<g id="Node000021" class="node">
<title>Node21</title>
<g id="a_Node000021"><a xlink:title=" ">
<polygon fill="#e0e0e0" stroke="#999999" points="1603.5,-74 1408.5,-74 1408.5,-55 1603.5,-55 1603.5,-74"/>
<text text-anchor="middle" x="1506" y="-62" font-family="Helvetica,sans-Serif" font-size="10.00">netspeak/NetspeakService.grpc.pb.h</text>
</a>
</g>
</g>
<!-- Node20&#45;&gt;Node21 -->
<g id="edge22_Node000020_Node000021" class="edge">
<title>Node20&#45;&gt;Node21</title>
<g id="a_edge22_Node000020_Node000021"><a xlink:title=" ">
<path fill="none" stroke="#63b8ff" d="M1573.99,-109.98C1561.54,-101.84 1542.54,-89.41 1527.79,-79.76"/>
<polygon fill="#63b8ff" stroke="#63b8ff" points="1529.54,-76.72 1519.25,-74.17 1525.7,-82.57 1529.54,-76.72"/>
</a>
</g>
</g>
<!-- Node22&#45;&gt;Node3 -->
<g id="edge27_Node000022_Node000003" class="edge">
<title>Node22&#45;&gt;Node3</title>
<g id="a_edge27_Node000022_Node000003"><a xlink:title=" ">
<path fill="none" stroke="#63b8ff" d="M1707.13,-109.91C1680.13,-93.27 1622.25,-57.99 1612,-55 1505.1,-23.85 695.37,-12.86 522.43,-10.85"/>
<polygon fill="#63b8ff" stroke="#63b8ff" points="522.46,-7.35 512.42,-10.74 522.38,-14.35 522.46,-7.35"/>
</a>
</g>
</g>
<!-- Node22&#45;&gt;Node21 -->
<g id="edge25_Node000022_Node000021" class="edge">
<title>Node22&#45;&gt;Node21</title>
<g id="a_edge25_Node000022_Node000021"><a xlink:title=" ">
<path fill="none" stroke="#63b8ff" d="M1686.46,-109.98C1649.58,-100.89 1591.01,-86.46 1550.66,-76.51"/>
<polygon fill="#63b8ff" stroke="#63b8ff" points="1551.36,-73.08 1540.81,-74.08 1549.69,-79.87 1551.36,-73.08"/>
</a>
</g>
</g>
<!-- Node23 -->
<g id="Node000023" class="node">
<title>Node23</title>
<g id="a_Node000023"><a xlink:title=" ">
<polygon fill="#e0e0e0" stroke="#999999" points="1830.5,-74 1659.5,-74 1659.5,-55 1830.5,-55 1830.5,-74"/>
<text text-anchor="middle" x="1745" y="-62" font-family="Helvetica,sans-Serif" font-size="10.00">netspeak/NetspeakService.pb.h</text>
</a>
</g>
</g>
<!-- Node22&#45;&gt;Node23 -->
<g id="edge26_Node000022_Node000023" class="edge">
<title>Node22&#45;&gt;Node23</title>
<g id="a_edge26_Node000022_Node000023"><a xlink:title=" ">
<path fill="none" stroke="#63b8ff" d="M1724.96,-109.75C1728.21,-102.57 1732.92,-92.18 1736.95,-83.27"/>
<polygon fill="#63b8ff" stroke="#63b8ff" points="1740.17,-84.64 1741.11,-74.09 1733.8,-81.75 1740.17,-84.64"/>
</a>
</g>
</g>
<!-- Node24&#45;&gt;Node3 -->
<g id="edge29_Node000024_Node000003" class="edge">
<title>Node24&#45;&gt;Node3</title>
<g id="a_edge29_Node000024_Node000003"><a xlink:title=" ">
<path fill="none" stroke="#63b8ff" d="M1881.02,-109.99C1875.49,-95.66 1862.14,-67.06 1840,-55 1780.32,-22.48 721.35,-12.36 522.16,-10.75"/>
<polygon fill="#63b8ff" stroke="#63b8ff" points="522.08,-7.24 512.05,-10.66 522.02,-14.24 522.08,-7.24"/>
</a>
</g>
</g>
<!-- Node25 -->
<g id="Node000025" class="node">
<title>Node25</title>
<g id="a_Node000025"><a xlink:title=" ">
<polygon fill="#e0e0e0" stroke="#999999" points="1934.5,-74 1887.5,-74 1887.5,-55 1934.5,-55 1934.5,-74"/>
<text text-anchor="middle" x="1911" y="-62" font-family="Helvetica,sans-Serif" font-size="10.00">vector</text>
</a>
</g>
</g>
<!-- Node24&#45;&gt;Node25 -->
<g id="edge30_Node000024_Node000025" class="edge">
<title>Node24&#45;&gt;Node25</title>
<g id="a_edge30_Node000024_Node000025"><a xlink:title=" ">
<path fill="none" stroke="#63b8ff" d="M1888.46,-109.75C1892.12,-102.57 1897.41,-92.18 1901.95,-83.27"/>
<polygon fill="#63b8ff" stroke="#63b8ff" points="1905.2,-84.59 1906.62,-74.09 1898.97,-81.41 1905.2,-84.59"/>
</a>
</g>
</g>
</g>
</svg>
