<?xml version="1.0" encoding="UTF-8" standalone="no"?>
<!DOCTYPE svg PUBLIC "-//W3C//DTD SVG 1.1//EN"
 "http://www.w3.org/Graphics/SVG/1.1/DTD/svg11.dtd">
<!-- Generated by graphviz version 2.43.0 (0)
 -->
<!-- Title: netspeak/util/StringIdMap.hpp Pages: 1 -->
<svg width="949pt" height="269pt"
 viewBox="0.00 0.00 948.60 269.00" xmlns="http://www.w3.org/2000/svg" xmlns:xlink="http://www.w3.org/1999/xlink">
<g id="graph0" class="graph" transform="scale(1 1) rotate(0) translate(4 265)">
<title>netspeak/util/StringIdMap.hpp</title>
<!-- Node1 -->
<g id="Node000001" class="node">
<title>Node1</title>
<g id="a_Node000001"><a xlink:title=" ">
<polygon fill="#999999" stroke="#666666" points="810.6,-261 647.6,-261 647.6,-242 810.6,-242 810.6,-261"/>
<text text-anchor="middle" x="729.1" y="-249" font-family="Helvetica,sans-Serif" font-size="10.00">netspeak/util/StringIdMap.hpp</text>
</a>
</g>
</g>
<!-- Node2 -->
<g id="Node000002" class="node">
<title>Node2</title>
<g id="a_Node000002"><a xlink:href="PhraseCorpus_8hpp.html" target="_top" xlink:title=" ">
<polygon fill="white" stroke="#666666" points="805.1,-206 653.1,-206 653.1,-187 805.1,-187 805.1,-206"/>
<text text-anchor="middle" x="729.1" y="-194" font-family="Helvetica,sans-Serif" font-size="10.00">netspeak/PhraseCorpus.hpp</text>
</a>
</g>
</g>
<!-- Node1&#45;&gt;Node2 -->
<g id="edge1_Node000001_Node000002" class="edge">
<title>Node1&#45;&gt;Node2</title>
<g id="a_edge1_Node000001_Node000002"><a xlink:title=" ">
<path fill="none" stroke="#63b8ff" d="M729.1,-231.66C729.1,-222.93 729.1,-212.99 729.1,-206.09"/>
<polygon fill="#63b8ff" stroke="#63b8ff" points="725.6,-231.75 729.1,-241.75 732.6,-231.75 725.6,-231.75"/>
</a>
</g>
</g>
<!-- Node3 -->
<g id="Node000003" class="node">
<title>Node3</title>
<g id="a_Node000003"><a xlink:href="Netspeak_8hpp.html" target="_top" xlink:title=" ">
<polygon fill="white" stroke="#666666" points="553.1,-151 421.1,-151 421.1,-132 553.1,-132 553.1,-151"/>
<text text-anchor="middle" x="487.1" y="-139" font-family="Helvetica,sans-Serif" font-size="10.00">netspeak/Netspeak.hpp</text>
</a>
</g>
</g>
<!-- Node2&#45;&gt;Node3 -->
<g id="edge2_Node000002_Node000003" class="edge">
<title>Node2&#45;&gt;Node3</title>
<g id="a_edge2_Node000002_Node000003"><a xlink:title=" ">
<path fill="none" stroke="#63b8ff" d="M680.31,-184.82C634.96,-174.88 568.26,-160.28 526.28,-151.08"/>
<polygon fill="#63b8ff" stroke="#63b8ff" points="679.7,-188.26 690.22,-186.98 681.2,-181.43 679.7,-188.26"/>
</a>
</g>
</g>
<!-- Node8 -->
<g id="Node000008" class="node">
<title>Node8</title>
<g id="a_Node000008"><a xlink:href="indexing_8cpp.html" target="_top" xlink:title=" ">
<polygon fill="white" stroke="#666666" points="940.6,-90.5 813.6,-90.5 813.6,-71.5 940.6,-71.5 940.6,-90.5"/>
<text text-anchor="middle" x="877.1" y="-78.5" font-family="Helvetica,sans-Serif" font-size="10.00">netspeak/indexing.cpp</text>
</a>
</g>
</g>
<!-- Node2&#45;&gt;Node8 -->
<g id="edge15_Node000002_Node000008" class="edge">
<title>Node2&#45;&gt;Node8</title>
<g id="a_edge15_Node000002_Node000008"><a xlink:title=" ">
<path fill="none" stroke="#63b8ff" d="M730.38,-176.59C732.26,-162.68 736.87,-144.15 748.1,-132 768.47,-109.95 799.71,-97.51 826.34,-90.56"/>
<polygon fill="#63b8ff" stroke="#63b8ff" points="726.86,-176.65 729.35,-186.95 733.82,-177.34 726.86,-176.65"/>
</a>
</g>
</g>
<!-- Node14 -->
<g id="Node000014" class="node">
<title>Node14</title>
<g id="a_Node000014"><a xlink:href="PhraseCorpus_8cpp.html" target="_top" xlink:title=" ">
<polygon fill="white" stroke="#666666" points="909.1,-151 757.1,-151 757.1,-132 909.1,-132 909.1,-151"/>
<text text-anchor="middle" x="833.1" y="-139" font-family="Helvetica,sans-Serif" font-size="10.00">netspeak/PhraseCorpus.cpp</text>
</a>
</g>
</g>
<!-- Node2&#45;&gt;Node14 -->
<g id="edge14_Node000002_Node000014" class="edge">
<title>Node2&#45;&gt;Node14</title>
<g id="a_edge14_Node000002_Node000014"><a xlink:title=" ">
<path fill="none" stroke="#63b8ff" d="M754.87,-182.37C773.97,-172.63 799.47,-159.64 816.08,-151.17"/>
<polygon fill="#63b8ff" stroke="#63b8ff" points="753.13,-179.33 745.81,-186.98 756.31,-185.56 753.13,-179.33"/>
</a>
</g>
</g>
<!-- Node4 -->
<g id="Node000004" class="node">
<title>Node4</title>
<g id="a_Node000004"><a xlink:href="ProxyCommand_8cpp.html" target="_top" xlink:title=" ">
<polygon fill="white" stroke="#666666" points="795.6,-90.5 666.6,-90.5 666.6,-71.5 795.6,-71.5 795.6,-90.5"/>
<text text-anchor="middle" x="731.1" y="-78.5" font-family="Helvetica,sans-Serif" font-size="10.00">cli/ProxyCommand.cpp</text>
</a>
</g>
</g>
<!-- Node3&#45;&gt;Node4 -->
<g id="edge3_Node000003_Node000004" class="edge">
<title>Node3&#45;&gt;Node4</title>
<g id="a_edge3_Node000003_Node000004"><a xlink:title=" ">
<path fill="none" stroke="#63b8ff" d="M532.52,-129.61C579.68,-118.3 652.46,-100.85 695.58,-90.52"/>
<polygon fill="#63b8ff" stroke="#63b8ff" points="531.49,-126.26 522.58,-131.99 533.12,-133.07 531.49,-126.26"/>
</a>
</g>
</g>
<!-- Node5 -->
<g id="Node000005" class="node">
<title>Node5</title>
<g id="a_Node000005"><a xlink:href="ServeCommand_8cpp.html" target="_top" xlink:title=" ">
<polygon fill="white" stroke="#666666" points="171.6,-24.5 42.6,-24.5 42.6,-5.5 171.6,-5.5 171.6,-24.5"/>
<text text-anchor="middle" x="107.1" y="-12.5" font-family="Helvetica,sans-Serif" font-size="10.00">cli/ServeCommand.cpp</text>
</a>
</g>
</g>
<!-- Node3&#45;&gt;Node5 -->
<g id="edge4_Node000003_Node000005" class="edge">
<title>Node3&#45;&gt;Node5</title>
<g id="a_edge4_Node000003_Node000005"><a xlink:title=" ">
<path fill="none" stroke="#63b8ff" d="M410.91,-138.95C282.37,-135.54 33.72,-125.21 7.1,-96 -20.24,-66.01 42.22,-38.12 80.34,-24.58"/>
<polygon fill="#63b8ff" stroke="#63b8ff" points="411,-142.45 421.08,-139.21 411.18,-135.46 411,-142.45"/>
</a>
</g>
</g>
<!-- Node6 -->
<g id="Node000006" class="node">
<title>Node6</title>
<g id="a_Node000006"><a xlink:href="ShellCommand_8cpp.html" target="_top" xlink:title=" ">
<polygon fill="white" stroke="#666666" points="141.6,-90.5 16.6,-90.5 16.6,-71.5 141.6,-71.5 141.6,-90.5"/>
<text text-anchor="middle" x="79.1" y="-78.5" font-family="Helvetica,sans-Serif" font-size="10.00">cli/ShellCommand.cpp</text>
</a>
</g>
</g>
<!-- Node3&#45;&gt;Node6 -->
<g id="edge5_Node000003_Node000006" class="edge">
<title>Node3&#45;&gt;Node6</title>
<g id="a_edge5_Node000003_Node000006"><a xlink:title=" ">
<path fill="none" stroke="#63b8ff" d="M410.79,-131.82C342.35,-123.71 239.27,-110.66 150.1,-96 140.3,-94.39 129.79,-92.44 119.94,-90.51"/>
<polygon fill="#63b8ff" stroke="#63b8ff" points="410.71,-135.34 421.05,-133.03 411.53,-128.39 410.71,-135.34"/>
</a>
</g>
</g>
<!-- Node7 -->
<g id="Node000007" class="node">
<title>Node7</title>
<g id="a_Node000007"><a xlink:href="Netspeak_8cpp.html" target="_top" xlink:title=" ">
<polygon fill="white" stroke="#666666" points="290.6,-90.5 159.6,-90.5 159.6,-71.5 290.6,-71.5 290.6,-90.5"/>
<text text-anchor="middle" x="225.1" y="-78.5" font-family="Helvetica,sans-Serif" font-size="10.00">netspeak/Netspeak.cpp</text>
</a>
</g>
</g>
<!-- Node3&#45;&gt;Node7 -->
<g id="edge6_Node000003_Node000007" class="edge">
<title>Node3&#45;&gt;Node7</title>
<g id="a_edge6_Node000003_Node000007"><a xlink:title=" ">
<path fill="none" stroke="#63b8ff" d="M438.96,-129.75C388.34,-118.45 309.73,-100.9 263.24,-90.52"/>
<polygon fill="#63b8ff" stroke="#63b8ff" points="438.48,-133.23 449,-131.99 440,-126.4 438.48,-133.23"/>
</a>
</g>
</g>
<!-- Node3&#45;&gt;Node8 -->
<g id="edge7_Node000003_Node000008" class="edge">
<title>Node3&#45;&gt;Node8</title>
<g id="a_edge7_Node000003_Node000008"><a xlink:title=" ">
<path fill="none" stroke="#63b8ff" d="M563.43,-130.97C627.95,-122.64 722.77,-109.76 805.1,-96 814.89,-94.36 825.41,-92.42 835.29,-90.52"/>
<polygon fill="#63b8ff" stroke="#63b8ff" points="562.81,-127.52 553.34,-132.27 563.7,-134.47 562.81,-127.52"/>
</a>
</g>
</g>
<!-- Node9 -->
<g id="Node000009" class="node">
<title>Node9</title>
<g id="a_Node000009"><a xlink:href="RequestLogger_8hpp.html" target="_top" xlink:title=" ">
<polygon fill="white" stroke="#666666" points="648.6,-96 505.6,-96 505.6,-66 648.6,-66 648.6,-96"/>
<text text-anchor="start" x="513.6" y="-84" font-family="Helvetica,sans-Serif" font-size="10.00">netspeak/service/Request</text>
<text text-anchor="middle" x="577.1" y="-73" font-family="Helvetica,sans-Serif" font-size="10.00">Logger.hpp</text>
</a>
</g>
</g>
<!-- Node3&#45;&gt;Node9 -->
<g id="edge8_Node000003_Node000009" class="edge">
<title>Node3&#45;&gt;Node9</title>
<g id="a_edge8_Node000003_Node000009"><a xlink:title=" ">
<path fill="none" stroke="#63b8ff" d="M508.95,-126.29C523.05,-117.13 541.31,-105.26 555.38,-96.11"/>
<polygon fill="#63b8ff" stroke="#63b8ff" points="506.85,-123.48 500.38,-131.87 510.67,-129.35 506.85,-123.48"/>
</a>
</g>
</g>
<!-- Node12 -->
<g id="Node000012" class="node">
<title>Node12</title>
<g id="a_Node000012"><a xlink:href="UniqueMap_8hpp.html" target="_top" xlink:title=" ">
<polygon fill="white" stroke="#666666" points="487.6,-90.5 308.6,-90.5 308.6,-71.5 487.6,-71.5 487.6,-90.5"/>
<text text-anchor="middle" x="398.1" y="-78.5" font-family="Helvetica,sans-Serif" font-size="10.00">netspeak/service/UniqueMap.hpp</text>
</a>
</g>
</g>
<!-- Node3&#45;&gt;Node12 -->
<g id="edge11_Node000003_Node000012" class="edge">
<title>Node3&#45;&gt;Node12</title>
<g id="a_edge11_Node000003_Node000012"><a xlink:title=" ">
<path fill="none" stroke="#63b8ff" d="M465.28,-126.16C448.37,-115.05 425.5,-100.01 411.28,-90.67"/>
<polygon fill="#63b8ff" stroke="#63b8ff" points="463.69,-129.3 473.97,-131.87 467.53,-123.45 463.69,-129.3"/>
</a>
</g>
</g>
<!-- Node10 -->
<g id="Node000010" class="node">
<title>Node10</title>
<g id="a_Node000010"><a xlink:href="cli_2logging_8cpp.html" target="_top" xlink:title=" ">
<polygon fill="white" stroke="#666666" points="606.6,-24.5 519.6,-24.5 519.6,-5.5 606.6,-5.5 606.6,-24.5"/>
<text text-anchor="middle" x="563.1" y="-12.5" font-family="Helvetica,sans-Serif" font-size="10.00">cli/logging.cpp</text>
</a>
</g>
</g>
<!-- Node9&#45;&gt;Node10 -->
<g id="edge9_Node000009_Node000010" class="edge">
<title>Node9&#45;&gt;Node10</title>
<g id="a_edge9_Node000009_Node000010"><a xlink:title=" ">
<path fill="none" stroke="#63b8ff" d="M571.83,-55.94C569.45,-45.06 566.79,-32.86 565.03,-24.84"/>
<polygon fill="#63b8ff" stroke="#63b8ff" points="568.43,-56.78 573.99,-65.8 575.27,-55.28 568.43,-56.78"/>
</a>
</g>
</g>
<!-- Node11 -->
<g id="Node000011" class="node">
<title>Node11</title>
<g id="a_Node000011"><a xlink:href="RequestLogger_8cpp.html" target="_top" xlink:title=" ">
<polygon fill="white" stroke="#666666" points="767.6,-30 624.6,-30 624.6,0 767.6,0 767.6,-30"/>
<text text-anchor="start" x="632.6" y="-18" font-family="Helvetica,sans-Serif" font-size="10.00">netspeak/service/Request</text>
<text text-anchor="middle" x="696.1" y="-7" font-family="Helvetica,sans-Serif" font-size="10.00">Logger.cpp</text>
</a>
</g>
</g>
<!-- Node9&#45;&gt;Node11 -->
<g id="edge10_Node000009_Node000011" class="edge">
<title>Node9&#45;&gt;Node11</title>
<g id="a_edge10_Node000009_Node000011"><a xlink:title=" ">
<path fill="none" stroke="#63b8ff" d="M612.23,-61.11C630.75,-51.14 653.08,-39.13 670.04,-30.01"/>
<polygon fill="#63b8ff" stroke="#63b8ff" points="610.36,-58.14 603.21,-65.95 613.68,-64.3 610.36,-58.14"/>
</a>
</g>
</g>
<!-- Node12&#45;&gt;Node5 -->
<g id="edge12_Node000012_Node000005" class="edge">
<title>Node12&#45;&gt;Node5</title>
<g id="a_edge12_Node000012_Node000005"><a xlink:title=" ">
<path fill="none" stroke="#63b8ff" d="M349.25,-69.26C292,-56.67 198.29,-36.06 145.81,-24.51"/>
<polygon fill="#63b8ff" stroke="#63b8ff" points="348.64,-72.71 359.15,-71.44 350.14,-65.87 348.64,-72.71"/>
</a>
</g>
</g>
<!-- Node13 -->
<g id="Node000013" class="node">
<title>Node13</title>
<g id="a_Node000013"><a xlink:href="UniqueMap_8cpp.html" target="_top" xlink:title=" ">
<polygon fill="white" stroke="#666666" points="487.6,-24.5 308.6,-24.5 308.6,-5.5 487.6,-5.5 487.6,-24.5"/>
<text text-anchor="middle" x="398.1" y="-12.5" font-family="Helvetica,sans-Serif" font-size="10.00">netspeak/service/UniqueMap.cpp</text>
</a>
</g>
</g>
<!-- Node12&#45;&gt;Node13 -->
<g id="edge13_Node000012_Node000013" class="edge">
<title>Node12&#45;&gt;Node13</title>
<g id="a_edge13_Node000012_Node000013"><a xlink:title=" ">
<path fill="none" stroke="#63b8ff" d="M398.1,-61.08C398.1,-49.13 398.1,-34.22 398.1,-24.91"/>
<polygon fill="#63b8ff" stroke="#63b8ff" points="394.6,-61.37 398.1,-71.37 401.6,-61.37 394.6,-61.37"/>
</a>
</g>
</g>
</g>
</svg>
