<?xml version="1.0" encoding="UTF-8" standalone="no"?>
<!DOCTYPE svg PUBLIC "-//W3C//DTD SVG 1.1//EN"
 "http://www.w3.org/Graphics/SVG/1.1/DTD/svg11.dtd">
<!-- Generated by graphviz version 2.43.0 (0)
 -->
<!-- Title: netspeak/value/string_traits.hpp Pages: 1 -->
<svg width="1816pt" height="764pt"
 viewBox="0.00 0.00 1815.89 764.00" xmlns="http://www.w3.org/2000/svg" xmlns:xlink="http://www.w3.org/1999/xlink">
<g id="graph0" class="graph" transform="scale(1 1) rotate(0) translate(4 760)">
<title>netspeak/value/string_traits.hpp</title>
<!-- Node1 -->
<g id="Node000001" class="node">
<title>Node1</title>
<g id="a_Node000001"><a xlink:title=" ">
<polygon fill="#999999" stroke="#666666" points="1660.89,-756 1538.89,-756 1538.89,-726 1660.89,-726 1660.89,-756"/>
<text text-anchor="start" x="1546.89" y="-744" font-family="Helvetica,sans-Serif" font-size="10.00">netspeak/value/string</text>
<text text-anchor="middle" x="1599.89" y="-733" font-family="Helvetica,sans-Serif" font-size="10.00">_traits.hpp</text>
</a>
</g>
</g>
<!-- Node2 -->
<g id="Node000002" class="node">
<title>Node2</title>
<g id="a_Node000002"><a xlink:href="Netspeak_8hpp.html" target="_top" xlink:title=" ">
<polygon fill="white" stroke="#666666" points="463.89,-156.5 331.89,-156.5 331.89,-137.5 463.89,-137.5 463.89,-156.5"/>
<text text-anchor="middle" x="397.89" y="-144.5" font-family="Helvetica,sans-Serif" font-size="10.00">netspeak/Netspeak.hpp</text>
</a>
</g>
</g>
<!-- Node1&#45;&gt;Node2 -->
<g id="edge1_Node000001_Node000002" class="edge">
<title>Node1&#45;&gt;Node2</title>
<g id="a_edge1_Node000001_Node000002"><a xlink:title=" ">
<path fill="none" stroke="#63b8ff" d="M1528.53,-738.35C1326.74,-733.38 754.6,-717.24 568.89,-690 422.56,-668.54 245.89,-757.89 245.89,-610 245.89,-610 245.89,-610 245.89,-278 245.89,-212.37 328.74,-172.79 372.1,-156.57"/>
<polygon fill="#63b8ff" stroke="#63b8ff" points="1528.63,-741.85 1538.72,-738.59 1528.81,-734.85 1528.63,-741.85"/>
</a>
</g>
</g>
<!-- Node13 -->
<g id="Node000013" class="node">
<title>Node13</title>
<g id="a_Node000013"><a xlink:href="ByteBuffer_8hpp.html" target="_top" xlink:title=" ">
<polygon fill="white" stroke="#666666" points="709.89,-690 577.89,-690 577.89,-660 709.89,-660 709.89,-690"/>
<text text-anchor="start" x="585.89" y="-678" font-family="Helvetica,sans-Serif" font-size="10.00">netspeak/invertedindex</text>
<text text-anchor="middle" x="643.89" y="-667" font-family="Helvetica,sans-Serif" font-size="10.00">/ByteBuffer.hpp</text>
</a>
</g>
</g>
<!-- Node1&#45;&gt;Node13 -->
<g id="edge13_Node000001_Node000013" class="edge">
<title>Node1&#45;&gt;Node13</title>
<g id="a_edge13_Node000001_Node000013"><a xlink:title=" ">
<path fill="none" stroke="#63b8ff" d="M1528.53,-735.22C1349.5,-723.24 883.21,-692.02 709.97,-680.42"/>
<polygon fill="#63b8ff" stroke="#63b8ff" points="1528.42,-738.72 1538.63,-735.9 1528.89,-731.74 1528.42,-738.72"/>
</a>
</g>
</g>
<!-- Node34 -->
<g id="Node000034" class="node">
<title>Node34</title>
<g id="a_Node000034"><a xlink:href="InvertedFileReader_8hpp.html" target="_top" xlink:title=" ">
<polygon fill="white" stroke="#666666" points="1672.89,-360 1540.89,-360 1540.89,-330 1672.89,-330 1672.89,-360"/>
<text text-anchor="start" x="1548.89" y="-348" font-family="Helvetica,sans-Serif" font-size="10.00">netspeak/invertedindex</text>
<text text-anchor="middle" x="1606.89" y="-337" font-family="Helvetica,sans-Serif" font-size="10.00">/InvertedFileReader.hpp</text>
</a>
</g>
</g>
<!-- Node1&#45;&gt;Node34 -->
<g id="edge51_Node000001_Node000034" class="edge">
<title>Node1&#45;&gt;Node34</title>
<g id="a_edge51_Node000001_Node000034"><a xlink:title=" ">
<path fill="none" stroke="#63b8ff" d="M1614.09,-716.89C1644.2,-666.4 1713.62,-541.51 1737.89,-426 1740.63,-412.95 1745.45,-406.98 1737.89,-396 1723.05,-374.45 1697.57,-362.18 1673.01,-355.2"/>
<polygon fill="#63b8ff" stroke="#63b8ff" points="1610.95,-715.33 1608.79,-725.7 1616.95,-718.94 1610.95,-715.33"/>
</a>
</g>
</g>
<!-- Node35 -->
<g id="Node000035" class="node">
<title>Node35</title>
<g id="a_Node000035"><a xlink:href="InvertedFileWriter_8hpp.html" target="_top" xlink:title=" ">
<polygon fill="white" stroke="#666666" points="1728.89,-426 1596.89,-426 1596.89,-396 1728.89,-396 1728.89,-426"/>
<text text-anchor="start" x="1604.89" y="-414" font-family="Helvetica,sans-Serif" font-size="10.00">netspeak/invertedindex</text>
<text text-anchor="middle" x="1662.89" y="-403" font-family="Helvetica,sans-Serif" font-size="10.00">/InvertedFileWriter.hpp</text>
</a>
</g>
</g>
<!-- Node1&#45;&gt;Node35 -->
<g id="edge53_Node000001_Node000035" class="edge">
<title>Node1&#45;&gt;Node35</title>
<g id="a_edge53_Node000001_Node000035"><a xlink:title=" ">
<path fill="none" stroke="#63b8ff" d="M1620.36,-718.17C1641.02,-693.78 1669.89,-652.14 1669.89,-610 1669.89,-610 1669.89,-610 1669.89,-542 1669.89,-499.73 1666.15,-449.85 1664.14,-426.03"/>
<polygon fill="#63b8ff" stroke="#63b8ff" points="1617.67,-715.93 1613.72,-725.76 1622.94,-720.54 1617.67,-715.93"/>
</a>
</g>
</g>
<!-- Node36 -->
<g id="Node000036" class="node">
<title>Node36</title>
<g id="a_Node000036"><a xlink:href="Record_8hpp.html" target="_top" xlink:title=" ">
<polygon fill="white" stroke="#666666" points="1531.89,-492 1399.89,-492 1399.89,-462 1531.89,-462 1531.89,-492"/>
<text text-anchor="start" x="1407.89" y="-480" font-family="Helvetica,sans-Serif" font-size="10.00">netspeak/invertedindex</text>
<text text-anchor="middle" x="1465.89" y="-469" font-family="Helvetica,sans-Serif" font-size="10.00">/Record.hpp</text>
</a>
</g>
</g>
<!-- Node1&#45;&gt;Node36 -->
<g id="edge54_Node000001_Node000036" class="edge">
<title>Node1&#45;&gt;Node36</title>
<g id="a_edge54_Node000001_Node000036"><a xlink:title=" ">
<path fill="none" stroke="#63b8ff" d="M1588.1,-716.96C1561.04,-664.04 1495.08,-535.08 1473.13,-492.16"/>
<polygon fill="#63b8ff" stroke="#63b8ff" points="1585.01,-718.6 1592.68,-725.91 1591.25,-715.42 1585.01,-718.6"/>
</a>
</g>
</g>
<!-- Node40 -->
<g id="Node000040" class="node">
<title>Node40</title>
<g id="a_Node000040"><a xlink:href="big__string__traits_8hpp.html" target="_top" xlink:title=" ">
<polygon fill="white" stroke="#666666" points="1807.89,-690 1697.89,-690 1697.89,-660 1807.89,-660 1807.89,-690"/>
<text text-anchor="start" x="1705.89" y="-678" font-family="Helvetica,sans-Serif" font-size="10.00">netspeak/value/big</text>
<text text-anchor="middle" x="1752.89" y="-667" font-family="Helvetica,sans-Serif" font-size="10.00">_string_traits.hpp</text>
</a>
</g>
</g>
<!-- Node1&#45;&gt;Node40 -->
<g id="edge66_Node000001_Node000040" class="edge">
<title>Node1&#45;&gt;Node40</title>
<g id="a_edge66_Node000001_Node000040"><a xlink:title=" ">
<path fill="none" stroke="#63b8ff" d="M1642.79,-722.05C1667.03,-711.91 1696.89,-699.43 1719.39,-690.01"/>
<polygon fill="#63b8ff" stroke="#63b8ff" points="1641.34,-718.87 1633.47,-725.95 1644.04,-725.32 1641.34,-718.87"/>
</a>
</g>
</g>
<!-- Node3 -->
<g id="Node000003" class="node">
<title>Node3</title>
<g id="a_Node000003"><a xlink:href="ProxyCommand_8cpp.html" target="_top" xlink:title=" ">
<polygon fill="white" stroke="#666666" points="795.39,-90.5 666.39,-90.5 666.39,-71.5 795.39,-71.5 795.39,-90.5"/>
<text text-anchor="middle" x="730.89" y="-78.5" font-family="Helvetica,sans-Serif" font-size="10.00">cli/ProxyCommand.cpp</text>
</a>
</g>
</g>
<!-- Node2&#45;&gt;Node3 -->
<g id="edge2_Node000002_Node000003" class="edge">
<title>Node2&#45;&gt;Node3</title>
<g id="a_edge2_Node000002_Node000003"><a xlink:title=" ">
<path fill="none" stroke="#63b8ff" d="M452.57,-135.49C517.97,-122.92 626.17,-102.13 686.59,-90.51"/>
<polygon fill="#63b8ff" stroke="#63b8ff" points="451.61,-132.11 442.45,-137.44 452.93,-138.98 451.61,-132.11"/>
</a>
</g>
</g>
<!-- Node4 -->
<g id="Node000004" class="node">
<title>Node4</title>
<g id="a_Node000004"><a xlink:href="ServeCommand_8cpp.html" target="_top" xlink:title=" ">
<polygon fill="white" stroke="#666666" points="171.39,-24.5 42.39,-24.5 42.39,-5.5 171.39,-5.5 171.39,-24.5"/>
<text text-anchor="middle" x="106.89" y="-12.5" font-family="Helvetica,sans-Serif" font-size="10.00">cli/ServeCommand.cpp</text>
</a>
</g>
</g>
<!-- Node2&#45;&gt;Node4 -->
<g id="edge3_Node000002_Node000004" class="edge">
<title>Node2&#45;&gt;Node4</title>
<g id="a_edge3_Node000002_Node000004"><a xlink:title=" ">
<path fill="none" stroke="#63b8ff" d="M321.55,-141.59C213.66,-134.56 27.31,-119.2 6.89,-96 -19.85,-65.63 41.97,-38.01 79.95,-24.58"/>
<polygon fill="#63b8ff" stroke="#63b8ff" points="321.54,-145.09 331.74,-142.24 321.99,-138.11 321.54,-145.09"/>
</a>
</g>
</g>
<!-- Node5 -->
<g id="Node000005" class="node">
<title>Node5</title>
<g id="a_Node000005"><a xlink:href="ShellCommand_8cpp.html" target="_top" xlink:title=" ">
<polygon fill="white" stroke="#666666" points="141.39,-90.5 16.39,-90.5 16.39,-71.5 141.39,-71.5 141.39,-90.5"/>
<text text-anchor="middle" x="78.89" y="-78.5" font-family="Helvetica,sans-Serif" font-size="10.00">cli/ShellCommand.cpp</text>
</a>
</g>
</g>
<!-- Node2&#45;&gt;Node5 -->
<g id="edge4_Node000002_Node000005" class="edge">
<title>Node2&#45;&gt;Node5</title>
<g id="a_edge4_Node000002_Node000005"><a xlink:title=" ">
<path fill="none" stroke="#63b8ff" d="M345.12,-135.41C282.43,-122.84 179.09,-102.1 121.33,-90.51"/>
<polygon fill="#63b8ff" stroke="#63b8ff" points="344.7,-138.9 355.2,-137.44 346.08,-132.04 344.7,-138.9"/>
</a>
</g>
</g>
<!-- Node6 -->
<g id="Node000006" class="node">
<title>Node6</title>
<g id="a_Node000006"><a xlink:href="Netspeak_8cpp.html" target="_top" xlink:title=" ">
<polygon fill="white" stroke="#666666" points="290.39,-90.5 159.39,-90.5 159.39,-71.5 290.39,-71.5 290.39,-90.5"/>
<text text-anchor="middle" x="224.89" y="-78.5" font-family="Helvetica,sans-Serif" font-size="10.00">netspeak/Netspeak.cpp</text>
</a>
</g>
</g>
<!-- Node2&#45;&gt;Node6 -->
<g id="edge5_Node000002_Node000006" class="edge">
<title>Node2&#45;&gt;Node6</title>
<g id="a_edge5_Node000002_Node000006"><a xlink:title=" ">
<path fill="none" stroke="#63b8ff" d="M365.01,-133.84C330.84,-121.2 278.21,-101.73 248.13,-90.6"/>
<polygon fill="#63b8ff" stroke="#63b8ff" points="363.96,-137.18 374.56,-137.37 366.39,-130.62 363.96,-137.18"/>
</a>
</g>
</g>
<!-- Node7 -->
<g id="Node000007" class="node">
<title>Node7</title>
<g id="a_Node000007"><a xlink:href="indexing_8cpp.html" target="_top" xlink:title=" ">
<polygon fill="white" stroke="#666666" points="940.39,-90.5 813.39,-90.5 813.39,-71.5 940.39,-71.5 940.39,-90.5"/>
<text text-anchor="middle" x="876.89" y="-78.5" font-family="Helvetica,sans-Serif" font-size="10.00">netspeak/indexing.cpp</text>
</a>
</g>
</g>
<!-- Node2&#45;&gt;Node7 -->
<g id="edge6_Node000002_Node000007" class="edge">
<title>Node2&#45;&gt;Node7</title>
<g id="a_edge6_Node000002_Node000007"><a xlink:title=" ">
<path fill="none" stroke="#63b8ff" d="M453.96,-135.72C461.98,-134.39 470.13,-133.1 477.89,-132 622.64,-111.39 660.34,-117.97 804.89,-96 815.09,-94.45 826.04,-92.48 836.25,-90.51"/>
<polygon fill="#63b8ff" stroke="#63b8ff" points="453.19,-132.3 443.92,-137.43 454.37,-139.2 453.19,-132.3"/>
</a>
</g>
</g>
<!-- Node8 -->
<g id="Node000008" class="node">
<title>Node8</title>
<g id="a_Node000008"><a xlink:href="RequestLogger_8hpp.html" target="_top" xlink:title=" ">
<polygon fill="white" stroke="#666666" points="648.39,-96 505.39,-96 505.39,-66 648.39,-66 648.39,-96"/>
<text text-anchor="start" x="513.39" y="-84" font-family="Helvetica,sans-Serif" font-size="10.00">netspeak/service/Request</text>
<text text-anchor="middle" x="576.89" y="-73" font-family="Helvetica,sans-Serif" font-size="10.00">Logger.hpp</text>
</a>
</g>
</g>
<!-- Node2&#45;&gt;Node8 -->
<g id="edge7_Node000002_Node000008" class="edge">
<title>Node2&#45;&gt;Node8</title>
<g id="a_edge7_Node000002_Node000008"><a xlink:title=" ">
<path fill="none" stroke="#63b8ff" d="M431.65,-133.93C461.72,-123.18 505.72,-107.44 537.41,-96.12"/>
<polygon fill="#63b8ff" stroke="#63b8ff" points="430.27,-130.71 422.03,-137.37 432.62,-137.3 430.27,-130.71"/>
</a>
</g>
</g>
<!-- Node11 -->
<g id="Node000011" class="node">
<title>Node11</title>
<g id="a_Node000011"><a xlink:href="UniqueMap_8hpp.html" target="_top" xlink:title=" ">
<polygon fill="white" stroke="#666666" points="487.39,-90.5 308.39,-90.5 308.39,-71.5 487.39,-71.5 487.39,-90.5"/>
<text text-anchor="middle" x="397.89" y="-78.5" font-family="Helvetica,sans-Serif" font-size="10.00">netspeak/service/UniqueMap.hpp</text>
</a>
</g>
</g>
<!-- Node2&#45;&gt;Node11 -->
<g id="edge10_Node000002_Node000011" class="edge">
<title>Node2&#45;&gt;Node11</title>
<g id="a_edge10_Node000002_Node000011"><a xlink:title=" ">
<path fill="none" stroke="#63b8ff" d="M397.89,-127.08C397.89,-115.13 397.89,-100.22 397.89,-90.91"/>
<polygon fill="#63b8ff" stroke="#63b8ff" points="394.39,-127.37 397.89,-137.37 401.39,-127.37 394.39,-127.37"/>
</a>
</g>
</g>
<!-- Node9 -->
<g id="Node000009" class="node">
<title>Node9</title>
<g id="a_Node000009"><a xlink:href="cli_2logging_8cpp.html" target="_top" xlink:title=" ">
<polygon fill="white" stroke="#666666" points="606.39,-24.5 519.39,-24.5 519.39,-5.5 606.39,-5.5 606.39,-24.5"/>
<text text-anchor="middle" x="562.89" y="-12.5" font-family="Helvetica,sans-Serif" font-size="10.00">cli/logging.cpp</text>
</a>
</g>
</g>
<!-- Node8&#45;&gt;Node9 -->
<g id="edge8_Node000008_Node000009" class="edge">
<title>Node8&#45;&gt;Node9</title>
<g id="a_edge8_Node000008_Node000009"><a xlink:title=" ">
<path fill="none" stroke="#63b8ff" d="M571.63,-55.94C569.24,-45.06 566.58,-32.86 564.82,-24.84"/>
<polygon fill="#63b8ff" stroke="#63b8ff" points="568.23,-56.78 573.78,-65.8 575.06,-55.28 568.23,-56.78"/>
</a>
</g>
</g>
<!-- Node10 -->
<g id="Node000010" class="node">
<title>Node10</title>
<g id="a_Node000010"><a xlink:href="RequestLogger_8cpp.html" target="_top" xlink:title=" ">
<polygon fill="white" stroke="#666666" points="767.39,-30 624.39,-30 624.39,0 767.39,0 767.39,-30"/>
<text text-anchor="start" x="632.39" y="-18" font-family="Helvetica,sans-Serif" font-size="10.00">netspeak/service/Request</text>
<text text-anchor="middle" x="695.89" y="-7" font-family="Helvetica,sans-Serif" font-size="10.00">Logger.cpp</text>
</a>
</g>
</g>
<!-- Node8&#45;&gt;Node10 -->
<g id="edge9_Node000008_Node000010" class="edge">
<title>Node8&#45;&gt;Node10</title>
<g id="a_edge9_Node000008_Node000010"><a xlink:title=" ">
<path fill="none" stroke="#63b8ff" d="M612.02,-61.11C630.54,-51.14 652.87,-39.13 669.83,-30.01"/>
<polygon fill="#63b8ff" stroke="#63b8ff" points="610.15,-58.14 603,-65.95 613.47,-64.3 610.15,-58.14"/>
</a>
</g>
</g>
<!-- Node11&#45;&gt;Node4 -->
<g id="edge11_Node000011_Node000004" class="edge">
<title>Node11&#45;&gt;Node4</title>
<g id="a_edge11_Node000011_Node000004"><a xlink:title=" ">
<path fill="none" stroke="#63b8ff" d="M349.04,-69.26C291.79,-56.67 198.08,-36.06 145.6,-24.51"/>
<polygon fill="#63b8ff" stroke="#63b8ff" points="348.43,-72.71 358.94,-71.44 349.93,-65.87 348.43,-72.71"/>
</a>
</g>
</g>
<!-- Node12 -->
<g id="Node000012" class="node">
<title>Node12</title>
<g id="a_Node000012"><a xlink:href="UniqueMap_8cpp.html" target="_top" xlink:title=" ">
<polygon fill="white" stroke="#666666" points="487.39,-24.5 308.39,-24.5 308.39,-5.5 487.39,-5.5 487.39,-24.5"/>
<text text-anchor="middle" x="397.89" y="-12.5" font-family="Helvetica,sans-Serif" font-size="10.00">netspeak/service/UniqueMap.cpp</text>
</a>
</g>
</g>
<!-- Node11&#45;&gt;Node12 -->
<g id="edge12_Node000011_Node000012" class="edge">
<title>Node11&#45;&gt;Node12</title>
<g id="a_edge12_Node000011_Node000012"><a xlink:title=" ">
<path fill="none" stroke="#63b8ff" d="M397.89,-61.08C397.89,-49.13 397.89,-34.22 397.89,-24.91"/>
<polygon fill="#63b8ff" stroke="#63b8ff" points="394.39,-61.37 397.89,-71.37 401.39,-61.37 394.39,-61.37"/>
</a>
</g>
</g>
<!-- Node14 -->
<g id="Node000014" class="node">
<title>Node14</title>
<g id="a_Node000014"><a xlink:href="PhraseCorpus_8cpp.html" target="_top" xlink:title=" ">
<polygon fill="white" stroke="#666666" points="425.89,-552.5 273.89,-552.5 273.89,-533.5 425.89,-533.5 425.89,-552.5"/>
<text text-anchor="middle" x="349.89" y="-540.5" font-family="Helvetica,sans-Serif" font-size="10.00">netspeak/PhraseCorpus.cpp</text>
</a>
</g>
</g>
<!-- Node13&#45;&gt;Node14 -->
<g id="edge14_Node000013_Node000014" class="edge">
<title>Node13&#45;&gt;Node14</title>
<g id="a_edge14_Node000013_Node000014"><a xlink:title=" ">
<path fill="none" stroke="#63b8ff" d="M567.48,-666.7C502.49,-659.13 415.43,-645.38 387.89,-624 364.33,-605.71 354.65,-569.2 351.35,-552.59"/>
<polygon fill="#63b8ff" stroke="#63b8ff" points="567.38,-670.21 577.71,-667.86 568.17,-663.25 567.38,-670.21"/>
</a>
</g>
</g>
<!-- Node15 -->
<g id="Node000015" class="node">
<title>Node15</title>
<g id="a_Node000015"><a xlink:href="PhraseCorpus_8hpp.html" target="_top" xlink:title=" ">
<polygon fill="white" stroke="#666666" points="548.89,-618.5 396.89,-618.5 396.89,-599.5 548.89,-599.5 548.89,-618.5"/>
<text text-anchor="middle" x="472.89" y="-606.5" font-family="Helvetica,sans-Serif" font-size="10.00">netspeak/PhraseCorpus.hpp</text>
</a>
</g>
</g>
<!-- Node13&#45;&gt;Node15 -->
<g id="edge15_Node000013_Node000015" class="edge">
<title>Node13&#45;&gt;Node15</title>
<g id="a_edge15_Node000013_Node000015"><a xlink:title=" ">
<path fill="none" stroke="#63b8ff" d="M596.91,-656.42C563.97,-644.09 521.38,-628.15 495.65,-618.52"/>
<polygon fill="#63b8ff" stroke="#63b8ff" points="595.77,-659.73 606.36,-659.95 598.22,-653.17 595.77,-659.73"/>
</a>
</g>
</g>
<!-- Node16 -->
<g id="Node000016" class="node">
<title>Node16</title>
<g id="a_Node000016"><a xlink:href="ByteBuffer_8cpp.html" target="_top" xlink:title=" ">
<polygon fill="white" stroke="#666666" points="709.89,-624 577.89,-624 577.89,-594 709.89,-594 709.89,-624"/>
<text text-anchor="start" x="585.89" y="-612" font-family="Helvetica,sans-Serif" font-size="10.00">netspeak/invertedindex</text>
<text text-anchor="middle" x="643.89" y="-601" font-family="Helvetica,sans-Serif" font-size="10.00">/ByteBuffer.cpp</text>
</a>
</g>
</g>
<!-- Node13&#45;&gt;Node16 -->
<g id="edge19_Node000013_Node000016" class="edge">
<title>Node13&#45;&gt;Node16</title>
<g id="a_edge19_Node000013_Node000016"><a xlink:title=" ">
<path fill="none" stroke="#63b8ff" d="M643.89,-649.54C643.89,-640.96 643.89,-631.61 643.89,-624.16"/>
<polygon fill="#63b8ff" stroke="#63b8ff" points="640.39,-649.8 643.89,-659.8 647.39,-649.8 640.39,-649.8"/>
</a>
</g>
</g>
<!-- Node17 -->
<g id="Node000017" class="node">
<title>Node17</title>
<g id="a_Node000017"><a xlink:href="Iterator_8hpp.html" target="_top" xlink:title=" ">
<polygon fill="white" stroke="#666666" points="899.89,-624 767.89,-624 767.89,-594 899.89,-594 899.89,-624"/>
<text text-anchor="start" x="775.89" y="-612" font-family="Helvetica,sans-Serif" font-size="10.00">netspeak/invertedindex</text>
<text text-anchor="middle" x="833.89" y="-601" font-family="Helvetica,sans-Serif" font-size="10.00">/Iterator.hpp</text>
</a>
</g>
</g>
<!-- Node13&#45;&gt;Node17 -->
<g id="edge20_Node000013_Node000017" class="edge">
<title>Node13&#45;&gt;Node17</title>
<g id="a_edge20_Node000013_Node000017"><a xlink:title=" ">
<path fill="none" stroke="#63b8ff" d="M695.18,-656.72C725.62,-646.47 763.73,-633.63 792.29,-624.01"/>
<polygon fill="#63b8ff" stroke="#63b8ff" points="693.94,-653.45 685.58,-659.95 696.18,-660.08 693.94,-653.45"/>
</a>
</g>
</g>
<!-- Node15&#45;&gt;Node2 -->
<g id="edge16_Node000015_Node000002" class="edge">
<title>Node15&#45;&gt;Node2</title>
<g id="a_edge16_Node000015_Node000002"><a xlink:title=" ">
<path fill="none" stroke="#63b8ff" d="M468.4,-589.25C462.78,-564.1 453.89,-517.96 453.89,-478 453.89,-478 453.89,-478 453.89,-278 453.89,-228.61 419.37,-176.63 404.53,-156.58"/>
<polygon fill="#63b8ff" stroke="#63b8ff" points="465.05,-590.28 470.71,-599.24 471.87,-588.71 465.05,-590.28"/>
</a>
</g>
</g>
<!-- Node15&#45;&gt;Node7 -->
<g id="edge18_Node000015_Node000007" class="edge">
<title>Node15&#45;&gt;Node7</title>
<g id="a_edge18_Node000015_Node000007"><a xlink:title=" ">
<path fill="none" stroke="#63b8ff" d="M477.37,-589.25C482.99,-564.1 491.89,-517.96 491.89,-478 491.89,-478 491.89,-478 491.89,-212 491.89,-175.54 743,-113.18 839.62,-90.53"/>
<polygon fill="#63b8ff" stroke="#63b8ff" points="473.91,-588.71 475.07,-599.24 480.73,-590.28 473.91,-588.71"/>
</a>
</g>
</g>
<!-- Node15&#45;&gt;Node14 -->
<g id="edge17_Node000015_Node000014" class="edge">
<title>Node15&#45;&gt;Node14</title>
<g id="a_edge17_Node000015_Node000014"><a xlink:title=" ">
<path fill="none" stroke="#63b8ff" d="M447.32,-594.69C423.09,-582.09 387.39,-563.51 366.61,-552.7"/>
<polygon fill="#63b8ff" stroke="#63b8ff" points="445.81,-597.86 456.3,-599.37 449.04,-591.65 445.81,-597.86"/>
</a>
</g>
</g>
<!-- Node18 -->
<g id="Node000018" class="node">
<title>Node18</title>
<g id="a_Node000018"><a xlink:href="PostlistBuilder_8hpp.html" target="_top" xlink:title=" ">
<polygon fill="white" stroke="#666666" points="1247.89,-426 1115.89,-426 1115.89,-396 1247.89,-396 1247.89,-426"/>
<text text-anchor="start" x="1123.89" y="-414" font-family="Helvetica,sans-Serif" font-size="10.00">netspeak/invertedindex</text>
<text text-anchor="middle" x="1181.89" y="-403" font-family="Helvetica,sans-Serif" font-size="10.00">/PostlistBuilder.hpp</text>
</a>
</g>
</g>
<!-- Node17&#45;&gt;Node18 -->
<g id="edge21_Node000017_Node000018" class="edge">
<title>Node17&#45;&gt;Node18</title>
<g id="a_edge21_Node000017_Node000018"><a xlink:title=" ">
<path fill="none" stroke="#63b8ff" d="M867.74,-588.93C937.33,-549.74 1095.07,-460.9 1156.62,-426.23"/>
<polygon fill="#63b8ff" stroke="#63b8ff" points="865.91,-585.95 858.92,-593.9 869.35,-592.05 865.91,-585.95"/>
</a>
</g>
</g>
<!-- Node24 -->
<g id="Node000024" class="node">
<title>Node24</title>
<g id="a_Node000024"><a xlink:href="RawPostlist_8hpp.html" target="_top" xlink:title=" ">
<polygon fill="white" stroke="#666666" points="899.89,-558 767.89,-558 767.89,-528 899.89,-528 899.89,-558"/>
<text text-anchor="start" x="775.89" y="-546" font-family="Helvetica,sans-Serif" font-size="10.00">netspeak/invertedindex</text>
<text text-anchor="middle" x="833.89" y="-535" font-family="Helvetica,sans-Serif" font-size="10.00">/RawPostlist.hpp</text>
</a>
</g>
</g>
<!-- Node17&#45;&gt;Node24 -->
<g id="edge31_Node000017_Node000024" class="edge">
<title>Node17&#45;&gt;Node24</title>
<g id="a_edge31_Node000017_Node000024"><a xlink:title=" ">
<path fill="none" stroke="#63b8ff" d="M833.89,-583.54C833.89,-574.96 833.89,-565.61 833.89,-558.16"/>
<polygon fill="#63b8ff" stroke="#63b8ff" points="830.39,-583.8 833.89,-593.8 837.39,-583.8 830.39,-583.8"/>
</a>
</g>
</g>
<!-- Node19 -->
<g id="Node000019" class="node">
<title>Node19</title>
<g id="a_Node000019"><a xlink:href="PostlistSorter_8hpp.html" target="_top" xlink:title=" ">
<polygon fill="white" stroke="#666666" points="1173.89,-360 1041.89,-360 1041.89,-330 1173.89,-330 1173.89,-360"/>
<text text-anchor="start" x="1049.89" y="-348" font-family="Helvetica,sans-Serif" font-size="10.00">netspeak/invertedindex</text>
<text text-anchor="middle" x="1107.89" y="-337" font-family="Helvetica,sans-Serif" font-size="10.00">/PostlistSorter.hpp</text>
</a>
</g>
</g>
<!-- Node18&#45;&gt;Node19 -->
<g id="edge22_Node000018_Node000019" class="edge">
<title>Node18&#45;&gt;Node19</title>
<g id="a_edge22_Node000018_Node000019"><a xlink:title=" ">
<path fill="none" stroke="#63b8ff" d="M1157.84,-389.2C1146.85,-379.7 1134.12,-368.69 1124.27,-360.16"/>
<polygon fill="#63b8ff" stroke="#63b8ff" points="1155.61,-391.9 1165.47,-395.8 1160.19,-386.61 1155.61,-391.9"/>
</a>
</g>
</g>
<!-- Node20 -->
<g id="Node000020" class="node">
<title>Node20</title>
<g id="a_Node000020"><a xlink:href="SortedInput_8hpp.html" target="_top" xlink:title=" ">
<polygon fill="white" stroke="#666666" points="1155.89,-294 1023.89,-294 1023.89,-264 1155.89,-264 1155.89,-294"/>
<text text-anchor="start" x="1031.89" y="-282" font-family="Helvetica,sans-Serif" font-size="10.00">netspeak/invertedindex</text>
<text text-anchor="middle" x="1089.89" y="-271" font-family="Helvetica,sans-Serif" font-size="10.00">/SortedInput.hpp</text>
</a>
</g>
</g>
<!-- Node18&#45;&gt;Node20 -->
<g id="edge29_Node000018_Node000020" class="edge">
<title>Node18&#45;&gt;Node20</title>
<g id="a_edge29_Node000018_Node000020"><a xlink:title=" ">
<path fill="none" stroke="#63b8ff" d="M1106.35,-393.33C1074.33,-384.59 1042.24,-373 1032.89,-360 1016.36,-337.02 1045.23,-310.2 1067.58,-294.19"/>
<polygon fill="#63b8ff" stroke="#63b8ff" points="1105.69,-396.77 1116.25,-395.95 1107.48,-390.01 1105.69,-396.77"/>
</a>
</g>
</g>
<!-- Node23 -->
<g id="Node000023" class="node">
<title>Node23</title>
<g id="a_Node000023"><a xlink:href="UnsortedInput_8hpp.html" target="_top" xlink:title=" ">
<polygon fill="white" stroke="#666666" points="1305.89,-294 1173.89,-294 1173.89,-264 1305.89,-264 1305.89,-294"/>
<text text-anchor="start" x="1181.89" y="-282" font-family="Helvetica,sans-Serif" font-size="10.00">netspeak/invertedindex</text>
<text text-anchor="middle" x="1239.89" y="-271" font-family="Helvetica,sans-Serif" font-size="10.00">/UnsortedInput.hpp</text>
</a>
</g>
</g>
<!-- Node18&#45;&gt;Node23 -->
<g id="edge30_Node000018_Node000023" class="edge">
<title>Node18&#45;&gt;Node23</title>
<g id="a_edge30_Node000018_Node000023"><a xlink:title=" ">
<path fill="none" stroke="#63b8ff" d="M1199.19,-387.72C1205.09,-379.36 1211.33,-369.57 1215.89,-360 1226.36,-338 1233.42,-310.43 1237.04,-294.06"/>
<polygon fill="#63b8ff" stroke="#63b8ff" points="1196.33,-385.7 1193.25,-395.84 1201.98,-389.83 1196.33,-385.7"/>
</a>
</g>
</g>
<!-- Node19&#45;&gt;Node20 -->
<g id="edge23_Node000019_Node000020" class="edge">
<title>Node19&#45;&gt;Node20</title>
<g id="a_edge23_Node000019_Node000020"><a xlink:title=" ">
<path fill="none" stroke="#63b8ff" d="M1101.17,-320.11C1098.71,-311.38 1096.01,-301.78 1093.87,-294.16"/>
<polygon fill="#63b8ff" stroke="#63b8ff" points="1097.82,-321.12 1103.89,-329.8 1104.56,-319.22 1097.82,-321.12"/>
</a>
</g>
</g>
<!-- Node19&#45;&gt;Node23 -->
<g id="edge27_Node000019_Node000023" class="edge">
<title>Node19&#45;&gt;Node23</title>
<g id="a_edge27_Node000019_Node000023"><a xlink:title=" ">
<path fill="none" stroke="#63b8ff" d="M1146.02,-325.51C1166.73,-315.47 1191.92,-303.26 1210.99,-294.01"/>
<polygon fill="#63b8ff" stroke="#63b8ff" points="1144.33,-322.44 1136.86,-329.95 1147.38,-328.74 1144.33,-322.44"/>
</a>
</g>
</g>
<!-- Node21 -->
<g id="Node000021" class="node">
<title>Node21</title>
<g id="a_Node000021"><a xlink:href="Indexer_8hpp.html" target="_top" xlink:title=" ">
<polygon fill="white" stroke="#666666" points="1336.89,-228 1204.89,-228 1204.89,-198 1336.89,-198 1336.89,-228"/>
<text text-anchor="start" x="1212.89" y="-216" font-family="Helvetica,sans-Serif" font-size="10.00">netspeak/invertedindex</text>
<text text-anchor="middle" x="1270.89" y="-205" font-family="Helvetica,sans-Serif" font-size="10.00">/Indexer.hpp</text>
</a>
</g>
</g>
<!-- Node20&#45;&gt;Node21 -->
<g id="edge24_Node000020_Node000021" class="edge">
<title>Node20&#45;&gt;Node21</title>
<g id="a_edge24_Node000020_Node000021"><a xlink:title=" ">
<path fill="none" stroke="#63b8ff" d="M1139.13,-260.59C1168.07,-250.36 1204.17,-237.59 1231.26,-228.01"/>
<polygon fill="#63b8ff" stroke="#63b8ff" points="1137.87,-257.32 1129.61,-263.95 1140.2,-263.92 1137.87,-257.32"/>
</a>
</g>
</g>
<!-- Node22 -->
<g id="Node000022" class="node">
<title>Node22</title>
<g id="a_Node000022"><a xlink:href="ManagedIndexer_8hpp.html" target="_top" xlink:title=" ">
<polygon fill="white" stroke="#666666" points="1397.89,-162 1265.89,-162 1265.89,-132 1397.89,-132 1397.89,-162"/>
<text text-anchor="start" x="1273.89" y="-150" font-family="Helvetica,sans-Serif" font-size="10.00">netspeak/invertedindex</text>
<text text-anchor="middle" x="1331.89" y="-139" font-family="Helvetica,sans-Serif" font-size="10.00">/ManagedIndexer.hpp</text>
</a>
</g>
</g>
<!-- Node21&#45;&gt;Node22 -->
<g id="edge25_Node000021_Node000022" class="edge">
<title>Node21&#45;&gt;Node22</title>
<g id="a_edge25_Node000021_Node000022"><a xlink:title=" ">
<path fill="none" stroke="#63b8ff" d="M1291.51,-190.37C1300.38,-181.06 1310.5,-170.44 1318.39,-162.16"/>
<polygon fill="#63b8ff" stroke="#63b8ff" points="1288.79,-188.14 1284.43,-197.8 1293.86,-192.97 1288.79,-188.14"/>
</a>
</g>
</g>
<!-- Node22&#45;&gt;Node7 -->
<g id="edge26_Node000022_Node000007" class="edge">
<title>Node22&#45;&gt;Node7</title>
<g id="a_edge26_Node000022_Node000007"><a xlink:title=" ">
<path fill="none" stroke="#63b8ff" d="M1255.65,-135.28C1166.23,-122.7 1019.81,-102.1 937.67,-90.55"/>
<polygon fill="#63b8ff" stroke="#63b8ff" points="1255.34,-138.77 1265.73,-136.69 1256.31,-131.84 1255.34,-138.77"/>
</a>
</g>
</g>
<!-- Node23&#45;&gt;Node21 -->
<g id="edge28_Node000023_Node000021" class="edge">
<title>Node23&#45;&gt;Node21</title>
<g id="a_edge28_Node000023_Node000021"><a xlink:title=" ">
<path fill="none" stroke="#63b8ff" d="M1251.18,-254.68C1255.49,-245.79 1260.26,-235.95 1264.03,-228.16"/>
<polygon fill="#63b8ff" stroke="#63b8ff" points="1247.98,-253.27 1246.77,-263.8 1254.28,-256.32 1247.98,-253.27"/>
</a>
</g>
</g>
<!-- Node25 -->
<g id="Node000025" class="node">
<title>Node25</title>
<g id="a_Node000025"><a xlink:href="Postlist_8hpp.html" target="_top" xlink:title=" ">
<polygon fill="white" stroke="#666666" points="909.89,-492 777.89,-492 777.89,-462 909.89,-462 909.89,-492"/>
<text text-anchor="start" x="785.89" y="-480" font-family="Helvetica,sans-Serif" font-size="10.00">netspeak/invertedindex</text>
<text text-anchor="middle" x="843.89" y="-469" font-family="Helvetica,sans-Serif" font-size="10.00">/Postlist.hpp</text>
</a>
</g>
</g>
<!-- Node24&#45;&gt;Node25 -->
<g id="edge32_Node000024_Node000025" class="edge">
<title>Node24&#45;&gt;Node25</title>
<g id="a_edge32_Node000024_Node000025"><a xlink:title=" ">
<path fill="none" stroke="#63b8ff" d="M837.67,-517.83C839.02,-509.17 840.5,-499.7 841.68,-492.16"/>
<polygon fill="#63b8ff" stroke="#63b8ff" points="834.19,-517.38 836.11,-527.8 841.11,-518.46 834.19,-517.38"/>
</a>
</g>
</g>
<!-- Node33 -->
<g id="Node000033" class="node">
<title>Node33</title>
<g id="a_Node000033"><a xlink:href="RawSearcher_8hpp.html" target="_top" xlink:title=" ">
<polygon fill="white" stroke="#666666" points="705.89,-492 573.89,-492 573.89,-462 705.89,-462 705.89,-492"/>
<text text-anchor="start" x="581.89" y="-480" font-family="Helvetica,sans-Serif" font-size="10.00">netspeak/invertedindex</text>
<text text-anchor="middle" x="639.89" y="-469" font-family="Helvetica,sans-Serif" font-size="10.00">/RawSearcher.hpp</text>
</a>
</g>
</g>
<!-- Node24&#45;&gt;Node33 -->
<g id="edge49_Node000024_Node000033" class="edge">
<title>Node24&#45;&gt;Node33</title>
<g id="a_edge49_Node000024_Node000033"><a xlink:title=" ">
<path fill="none" stroke="#63b8ff" d="M781.52,-524.72C750.43,-514.47 711.53,-501.63 682.36,-492.01"/>
<polygon fill="#63b8ff" stroke="#63b8ff" points="780.72,-528.15 791.31,-527.95 782.91,-521.5 780.72,-528.15"/>
</a>
</g>
</g>
<!-- Node25&#45;&gt;Node7 -->
<g id="edge33_Node000025_Node000007" class="edge">
<title>Node25&#45;&gt;Node7</title>
<g id="a_edge33_Node000025_Node000007"><a xlink:title=" ">
<path fill="none" stroke="#63b8ff" d="M884.2,-456.83C897,-448.93 910.1,-438.63 918.89,-426 939.76,-396 937.89,-382.54 937.89,-346 937.89,-346 937.89,-346 937.89,-212 937.89,-162.14 900.66,-110.84 884.37,-90.78"/>
<polygon fill="#63b8ff" stroke="#63b8ff" points="882.33,-453.87 875.44,-461.92 885.84,-459.92 882.33,-453.87"/>
</a>
</g>
</g>
<!-- Node25&#45;&gt;Node18 -->
<g id="edge37_Node000025_Node000018" class="edge">
<title>Node25&#45;&gt;Node18</title>
<g id="a_edge37_Node000025_Node000018"><a xlink:title=" ">
<path fill="none" stroke="#63b8ff" d="M920.25,-461.54C979.06,-450.4 1059.55,-435.16 1115.67,-424.54"/>
<polygon fill="#63b8ff" stroke="#63b8ff" points="919.44,-458.13 910.26,-463.43 920.74,-465.01 919.44,-458.13"/>
</a>
</g>
</g>
<!-- Node26 -->
<g id="Node000026" class="node">
<title>Node26</title>
<g id="a_Node000026"><a xlink:href="indexing_8hpp.html" target="_top" xlink:title=" ">
<polygon fill="white" stroke="#666666" points="759.89,-420.5 631.89,-420.5 631.89,-401.5 759.89,-401.5 759.89,-420.5"/>
<text text-anchor="middle" x="695.89" y="-408.5" font-family="Helvetica,sans-Serif" font-size="10.00">netspeak/indexing.hpp</text>
</a>
</g>
</g>
<!-- Node25&#45;&gt;Node26 -->
<g id="edge34_Node000025_Node000026" class="edge">
<title>Node25&#45;&gt;Node26</title>
<g id="a_edge34_Node000025_Node000026"><a xlink:title=" ">
<path fill="none" stroke="#63b8ff" d="M802.13,-457.94C773.77,-445.68 737.57,-430.02 715.58,-420.52"/>
<polygon fill="#63b8ff" stroke="#63b8ff" points="800.84,-461.2 811.41,-461.95 803.62,-454.77 800.84,-461.2"/>
</a>
</g>
</g>
<!-- Node28 -->
<g id="Node000028" class="node">
<title>Node28</title>
<g id="a_Node000028"><a xlink:href="PostlistReader_8hpp.html" target="_top" xlink:title=" ">
<polygon fill="white" stroke="#666666" points="909.89,-426 777.89,-426 777.89,-396 909.89,-396 909.89,-426"/>
<text text-anchor="start" x="785.89" y="-414" font-family="Helvetica,sans-Serif" font-size="10.00">netspeak/invertedindex</text>
<text text-anchor="middle" x="843.89" y="-403" font-family="Helvetica,sans-Serif" font-size="10.00">/PostlistReader.hpp</text>
</a>
</g>
</g>
<!-- Node25&#45;&gt;Node28 -->
<g id="edge38_Node000025_Node000028" class="edge">
<title>Node25&#45;&gt;Node28</title>
<g id="a_edge38_Node000025_Node000028"><a xlink:title=" ">
<path fill="none" stroke="#63b8ff" d="M843.89,-451.54C843.89,-442.96 843.89,-433.61 843.89,-426.16"/>
<polygon fill="#63b8ff" stroke="#63b8ff" points="840.39,-451.8 843.89,-461.8 847.39,-451.8 840.39,-451.8"/>
</a>
</g>
</g>
<!-- Node30 -->
<g id="Node000030" class="node">
<title>Node30</title>
<g id="a_Node000030"><a xlink:href="Searcher_8hpp.html" target="_top" xlink:title=" ">
<polygon fill="white" stroke="#666666" points="673.89,-294 541.89,-294 541.89,-264 673.89,-264 673.89,-294"/>
<text text-anchor="start" x="549.89" y="-282" font-family="Helvetica,sans-Serif" font-size="10.00">netspeak/invertedindex</text>
<text text-anchor="middle" x="607.89" y="-271" font-family="Helvetica,sans-Serif" font-size="10.00">/Searcher.hpp</text>
</a>
</g>
</g>
<!-- Node25&#45;&gt;Node30 -->
<g id="edge44_Node000025_Node000030" class="edge">
<title>Node25&#45;&gt;Node30</title>
<g id="a_edge44_Node000025_Node000030"><a xlink:title=" ">
<path fill="none" stroke="#63b8ff" d="M767.82,-465.6C713.28,-456.9 645.6,-443.16 622.89,-426 586.53,-398.53 577.89,-374.67 586.89,-330 589.42,-317.45 595.19,-304.12 600.04,-294.39"/>
<polygon fill="#63b8ff" stroke="#63b8ff" points="767.41,-469.08 777.83,-467.17 768.49,-462.16 767.41,-469.08"/>
</a>
</g>
</g>
<!-- Node32 -->
<g id="Node000032" class="node">
<title>Node32</title>
<g id="a_Node000032"><a xlink:href="StorageWriter_8hpp.html" target="_top" xlink:title=" ">
<polygon fill="white" stroke="#666666" points="1097.89,-426 965.89,-426 965.89,-396 1097.89,-396 1097.89,-426"/>
<text text-anchor="start" x="973.89" y="-414" font-family="Helvetica,sans-Serif" font-size="10.00">netspeak/invertedindex</text>
<text text-anchor="middle" x="1031.89" y="-403" font-family="Helvetica,sans-Serif" font-size="10.00">/StorageWriter.hpp</text>
</a>
</g>
</g>
<!-- Node25&#45;&gt;Node32 -->
<g id="edge45_Node000025_Node000032" class="edge">
<title>Node25&#45;&gt;Node32</title>
<g id="a_edge45_Node000025_Node000032"><a xlink:title=" ">
<path fill="none" stroke="#63b8ff" d="M894.64,-458.72C924.76,-448.47 962.46,-435.63 990.73,-426.01"/>
<polygon fill="#63b8ff" stroke="#63b8ff" points="893.48,-455.42 885.15,-461.95 895.74,-462.05 893.48,-455.42"/>
</a>
</g>
</g>
<!-- Node26&#45;&gt;Node7 -->
<g id="edge36_Node000026_Node000007" class="edge">
<title>Node26&#45;&gt;Node7</title>
<g id="a_edge36_Node000026_Node000007"><a xlink:title=" ">
<path fill="none" stroke="#63b8ff" d="M708.46,-393.19C715.38,-383.65 723.95,-371.38 730.89,-360 793.29,-257.58 856.26,-125.88 872.74,-90.87"/>
<polygon fill="#63b8ff" stroke="#63b8ff" points="705.54,-391.25 702.43,-401.38 711.18,-395.4 705.54,-391.25"/>
</a>
</g>
</g>
<!-- Node27 -->
<g id="Node000027" class="node">
<title>Node27</title>
<g id="a_Node000027"><a xlink:href="BuildCommand_8cpp.html" target="_top" xlink:title=" ">
<polygon fill="white" stroke="#666666" points="721.89,-354.5 595.89,-354.5 595.89,-335.5 721.89,-335.5 721.89,-354.5"/>
<text text-anchor="middle" x="658.89" y="-342.5" font-family="Helvetica,sans-Serif" font-size="10.00">cli/BuildCommand.cpp</text>
</a>
</g>
</g>
<!-- Node26&#45;&gt;Node27 -->
<g id="edge35_Node000026_Node000027" class="edge">
<title>Node26&#45;&gt;Node27</title>
<g id="a_edge35_Node000026_Node000027"><a xlink:title=" ">
<path fill="none" stroke="#63b8ff" d="M685.8,-392.55C678.76,-380.36 669.64,-364.61 664.04,-354.91"/>
<polygon fill="#63b8ff" stroke="#63b8ff" points="682.86,-394.46 690.9,-401.37 688.92,-390.96 682.86,-394.46"/>
</a>
</g>
</g>
<!-- Node29 -->
<g id="Node000029" class="node">
<title>Node29</title>
<g id="a_Node000029"><a xlink:href="StorageReader_8hpp.html" target="_top" xlink:title=" ">
<polygon fill="white" stroke="#666666" points="909.89,-360 777.89,-360 777.89,-330 909.89,-330 909.89,-360"/>
<text text-anchor="start" x="785.89" y="-348" font-family="Helvetica,sans-Serif" font-size="10.00">netspeak/invertedindex</text>
<text text-anchor="middle" x="843.89" y="-337" font-family="Helvetica,sans-Serif" font-size="10.00">/StorageReader.hpp</text>
</a>
</g>
</g>
<!-- Node28&#45;&gt;Node29 -->
<g id="edge39_Node000028_Node000029" class="edge">
<title>Node28&#45;&gt;Node29</title>
<g id="a_edge39_Node000028_Node000029"><a xlink:title=" ">
<path fill="none" stroke="#63b8ff" d="M843.89,-385.54C843.89,-376.96 843.89,-367.61 843.89,-360.16"/>
<polygon fill="#63b8ff" stroke="#63b8ff" points="840.39,-385.8 843.89,-395.8 847.39,-385.8 840.39,-385.8"/>
</a>
</g>
</g>
<!-- Node29&#45;&gt;Node30 -->
<g id="edge40_Node000029_Node000030" class="edge">
<title>Node29&#45;&gt;Node30</title>
<g id="a_edge40_Node000029_Node000030"><a xlink:title=" ">
<path fill="none" stroke="#63b8ff" d="M782.14,-327.25C744.01,-316.91 695.65,-303.8 659.56,-294.01"/>
<polygon fill="#63b8ff" stroke="#63b8ff" points="781.53,-330.72 792.1,-329.95 783.36,-323.96 781.53,-330.72"/>
</a>
</g>
</g>
<!-- Node30&#45;&gt;Node7 -->
<g id="edge43_Node000030_Node000007" class="edge">
<title>Node30&#45;&gt;Node7</title>
<g id="a_edge43_Node000030_Node000007"><a xlink:title=" ">
<path fill="none" stroke="#63b8ff" d="M659.65,-259.69C676.05,-251.92 693.19,-241.48 705.89,-228 737.83,-194.11 714.26,-164.22 747.89,-132 770.61,-110.23 803.85,-97.65 830.91,-90.55"/>
<polygon fill="#63b8ff" stroke="#63b8ff" points="657.82,-256.68 650.13,-263.96 660.68,-263.07 657.82,-256.68"/>
</a>
</g>
</g>
<!-- Node31 -->
<g id="Node000031" class="node">
<title>Node31</title>
<g id="a_Node000031"><a xlink:href="RetrievalStrategy3_8hpp.html" target="_top" xlink:title=" ">
<polygon fill="white" stroke="#666666" points="696.39,-222.5 519.39,-222.5 519.39,-203.5 696.39,-203.5 696.39,-222.5"/>
<text text-anchor="middle" x="607.89" y="-210.5" font-family="Helvetica,sans-Serif" font-size="10.00">netspeak/RetrievalStrategy3.hpp</text>
</a>
</g>
</g>
<!-- Node30&#45;&gt;Node31 -->
<g id="edge41_Node000030_Node000031" class="edge">
<title>Node30&#45;&gt;Node31</title>
<g id="a_edge41_Node000030_Node000031"><a xlink:title=" ">
<path fill="none" stroke="#63b8ff" d="M607.89,-253.6C607.89,-242.8 607.89,-230.78 607.89,-222.84"/>
<polygon fill="#63b8ff" stroke="#63b8ff" points="604.39,-253.8 607.89,-263.8 611.39,-253.8 604.39,-253.8"/>
</a>
</g>
</g>
<!-- Node31&#45;&gt;Node2 -->
<g id="edge42_Node000031_Node000002" class="edge">
<title>Node31&#45;&gt;Node2</title>
<g id="a_edge42_Node000031_Node000002"><a xlink:title=" ">
<path fill="none" stroke="#63b8ff" d="M569.84,-200.4C528.42,-187.78 463.17,-167.89 426.1,-156.6"/>
<polygon fill="#63b8ff" stroke="#63b8ff" points="568.98,-203.8 579.57,-203.37 571.02,-197.11 568.98,-203.8"/>
</a>
</g>
</g>
<!-- Node32&#45;&gt;Node20 -->
<g id="edge46_Node000032_Node000020" class="edge">
<title>Node32&#45;&gt;Node20</title>
<g id="a_edge46_Node000032_Node000020"><a xlink:title=" ">
<path fill="none" stroke="#63b8ff" d="M1012.36,-387.8C1000.31,-371.26 989.04,-348.44 999.89,-330 1009.68,-313.36 1027.23,-301.86 1044.24,-294.13"/>
<polygon fill="#63b8ff" stroke="#63b8ff" points="1009.71,-390.09 1018.63,-395.82 1015.23,-385.78 1009.71,-390.09"/>
</a>
</g>
</g>
<!-- Node32&#45;&gt;Node23 -->
<g id="edge48_Node000032_Node000023" class="edge">
<title>Node32&#45;&gt;Node23</title>
<g id="a_edge48_Node000032_Node000023"><a xlink:title=" ">
<path fill="none" stroke="#63b8ff" d="M1107.89,-394.94C1133.4,-387.36 1160.92,-376.21 1182.89,-360 1206.63,-342.48 1224.31,-312.11 1233.28,-294.25"/>
<polygon fill="#63b8ff" stroke="#63b8ff" points="1106.9,-391.58 1098.23,-397.67 1108.8,-398.31 1106.9,-391.58"/>
</a>
</g>
</g>
<!-- Node32&#45;&gt;Node29 -->
<g id="edge47_Node000032_Node000029" class="edge">
<title>Node32&#45;&gt;Node29</title>
<g id="a_edge47_Node000032_Node000029"><a xlink:title=" ">
<path fill="none" stroke="#63b8ff" d="M981.14,-392.72C951.01,-382.47 913.31,-369.63 885.05,-360.01"/>
<polygon fill="#63b8ff" stroke="#63b8ff" points="980.04,-396.05 990.63,-395.95 982.29,-389.42 980.04,-396.05"/>
</a>
</g>
</g>
<!-- Node33&#45;&gt;Node30 -->
<g id="edge50_Node000033_Node000030" class="edge">
<title>Node33&#45;&gt;Node30</title>
<g id="a_edge50_Node000033_Node000030"><a xlink:title=" ">
<path fill="none" stroke="#63b8ff" d="M588.19,-457.25C574.64,-449.71 561.66,-439.51 553.89,-426 532.61,-389.02 536.81,-369.1 553.89,-330 560.33,-315.25 573.52,-302.91 585.24,-294.17"/>
<polygon fill="#63b8ff" stroke="#63b8ff" points="586.63,-460.38 597.12,-461.83 589.82,-454.15 586.63,-460.38"/>
</a>
</g>
</g>
<!-- Node34&#45;&gt;Node22 -->
<g id="edge52_Node000034_Node000022" class="edge">
<title>Node34&#45;&gt;Node22</title>
<g id="a_edge52_Node000034_Node000022"><a xlink:title=" ">
<path fill="none" stroke="#63b8ff" d="M1586.68,-322.44C1557.11,-291.8 1499.33,-235.26 1441.89,-198 1419.36,-183.39 1391.86,-170.89 1369.99,-162.04"/>
<polygon fill="#63b8ff" stroke="#63b8ff" points="1584.47,-325.19 1593.91,-330 1589.53,-320.35 1584.47,-325.19"/>
</a>
</g>
</g>
<!-- Node36&#45;&gt;Node22 -->
<g id="edge60_Node000036_Node000022" class="edge">
<title>Node36&#45;&gt;Node22</title>
<g id="a_edge60_Node000036_Node000022"><a xlink:title=" ">
<path fill="none" stroke="#63b8ff" d="M1451.74,-453.19C1446.93,-444.84 1441.79,-435.18 1437.89,-426 1420.45,-384.98 1424.04,-371.92 1408.89,-330 1385.92,-266.44 1352.7,-192.92 1338.61,-162.42"/>
<polygon fill="#63b8ff" stroke="#63b8ff" points="1448.84,-455.16 1456.95,-461.98 1454.86,-451.59 1448.84,-455.16"/>
</a>
</g>
</g>
<!-- Node36&#45;&gt;Node32 -->
<g id="edge65_Node000036_Node000032" class="edge">
<title>Node36&#45;&gt;Node32</title>
<g id="a_edge65_Node000036_Node000032"><a xlink:title=" ">
<path fill="none" stroke="#63b8ff" d="M1389.58,-466.41C1316.8,-457.02 1204.17,-441.85 1106.89,-426 1104.01,-425.53 1101.08,-425.04 1098.11,-424.53"/>
<polygon fill="#63b8ff" stroke="#63b8ff" points="1389.22,-469.89 1399.58,-467.7 1390.11,-462.95 1389.22,-469.89"/>
</a>
</g>
</g>
<!-- Node36&#45;&gt;Node35 -->
<g id="edge59_Node000036_Node000035" class="edge">
<title>Node36&#45;&gt;Node35</title>
<g id="a_edge59_Node000036_Node000035"><a xlink:title=" ">
<path fill="none" stroke="#63b8ff" d="M1518.66,-458.86C1550.29,-448.58 1590.01,-435.68 1619.76,-426.01"/>
<polygon fill="#63b8ff" stroke="#63b8ff" points="1517.55,-455.54 1509.12,-461.95 1519.71,-462.19 1517.55,-455.54"/>
</a>
</g>
</g>
<!-- Node37 -->
<g id="Node000037" class="node">
<title>Node37</title>
<g id="a_Node000037"><a xlink:href="IndexStrategy_8hpp.html" target="_top" xlink:title=" ">
<polygon fill="white" stroke="#666666" points="1399.89,-360 1267.89,-360 1267.89,-330 1399.89,-330 1399.89,-360"/>
<text text-anchor="start" x="1275.89" y="-348" font-family="Helvetica,sans-Serif" font-size="10.00">netspeak/invertedindex</text>
<text text-anchor="middle" x="1333.89" y="-337" font-family="Helvetica,sans-Serif" font-size="10.00">/IndexStrategy.hpp</text>
</a>
</g>
</g>
<!-- Node36&#45;&gt;Node37 -->
<g id="edge55_Node000036_Node000037" class="edge">
<title>Node36&#45;&gt;Node37</title>
<g id="a_edge55_Node000036_Node000037"><a xlink:title=" ">
<path fill="none" stroke="#63b8ff" d="M1439.1,-455.56C1428.16,-446.82 1415.59,-436.29 1404.89,-426 1382.4,-404.38 1358.85,-376.68 1345.32,-360.2"/>
<polygon fill="#63b8ff" stroke="#63b8ff" points="1437.07,-458.41 1447.09,-461.85 1441.4,-452.91 1437.07,-458.41"/>
</a>
</g>
</g>
<!-- Node38 -->
<g id="Node000038" class="node">
<title>Node38</title>
<g id="a_Node000038"><a xlink:href="RecordReader_8hpp.html" target="_top" xlink:title=" ">
<polygon fill="white" stroke="#666666" points="1578.89,-426 1446.89,-426 1446.89,-396 1578.89,-396 1578.89,-426"/>
<text text-anchor="start" x="1454.89" y="-414" font-family="Helvetica,sans-Serif" font-size="10.00">netspeak/invertedindex</text>
<text text-anchor="middle" x="1512.89" y="-403" font-family="Helvetica,sans-Serif" font-size="10.00">/RecordReader.hpp</text>
</a>
</g>
</g>
<!-- Node36&#45;&gt;Node38 -->
<g id="edge61_Node000036_Node000038" class="edge">
<title>Node36&#45;&gt;Node38</title>
<g id="a_edge61_Node000036_Node000038"><a xlink:title=" ">
<path fill="none" stroke="#63b8ff" d="M1482.39,-453.53C1489.08,-444.43 1496.59,-434.19 1502.49,-426.16"/>
<polygon fill="#63b8ff" stroke="#63b8ff" points="1479.42,-451.66 1476.32,-461.8 1485.06,-455.81 1479.42,-451.66"/>
</a>
</g>
</g>
<!-- Node37&#45;&gt;Node20 -->
<g id="edge57_Node000037_Node000020" class="edge">
<title>Node37&#45;&gt;Node20</title>
<g id="a_edge57_Node000037_Node000020"><a xlink:title=" ">
<path fill="none" stroke="#63b8ff" d="M1270.55,-327.39C1231.05,-317.03 1180.79,-303.84 1143.31,-294.01"/>
<polygon fill="#63b8ff" stroke="#63b8ff" points="1269.78,-330.8 1280.34,-329.95 1271.56,-324.03 1269.78,-330.8"/>
</a>
</g>
</g>
<!-- Node37&#45;&gt;Node21 -->
<g id="edge56_Node000037_Node000021" class="edge">
<title>Node37&#45;&gt;Node21</title>
<g id="a_edge56_Node000037_Node000021"><a xlink:title=" ">
<path fill="none" stroke="#63b8ff" d="M1331.3,-320.06C1328.8,-303.58 1323.98,-281.58 1314.89,-264 1307.88,-250.44 1296.4,-237.57 1286.92,-228.29"/>
<polygon fill="#63b8ff" stroke="#63b8ff" points="1327.84,-320.54 1332.64,-329.99 1334.77,-319.61 1327.84,-320.54"/>
</a>
</g>
</g>
<!-- Node37&#45;&gt;Node23 -->
<g id="edge58_Node000037_Node000023" class="edge">
<title>Node37&#45;&gt;Node23</title>
<g id="a_edge58_Node000037_Node000023"><a xlink:title=" ">
<path fill="none" stroke="#63b8ff" d="M1304.55,-324.03C1290.33,-314.34 1273.58,-302.94 1260.69,-294.16"/>
<polygon fill="#63b8ff" stroke="#63b8ff" points="1302.79,-327.06 1313.03,-329.8 1306.73,-321.28 1302.79,-327.06"/>
</a>
</g>
</g>
<!-- Node38&#45;&gt;Node34 -->
<g id="edge64_Node000038_Node000034" class="edge">
<title>Node38&#45;&gt;Node34</title>
<g id="a_edge64_Node000038_Node000034"><a xlink:title=" ">
<path fill="none" stroke="#63b8ff" d="M1542.22,-390.03C1556.45,-380.34 1573.2,-368.94 1586.09,-360.16"/>
<polygon fill="#63b8ff" stroke="#63b8ff" points="1540.05,-387.28 1533.75,-395.8 1543.99,-393.06 1540.05,-387.28"/>
</a>
</g>
</g>
<!-- Node39 -->
<g id="Node000039" class="node">
<title>Node39</title>
<g id="a_Node000039"><a xlink:href="PhraseFileReader_8hpp.html" target="_top" xlink:title=" ">
<polygon fill="white" stroke="#666666" points="1663.89,-222.5 1493.89,-222.5 1493.89,-203.5 1663.89,-203.5 1663.89,-222.5"/>
<text text-anchor="middle" x="1578.89" y="-210.5" font-family="Helvetica,sans-Serif" font-size="10.00">netspeak/PhraseFileReader.hpp</text>
</a>
</g>
</g>
<!-- Node38&#45;&gt;Node39 -->
<g id="edge62_Node000038_Node000039" class="edge">
<title>Node38&#45;&gt;Node39</title>
<g id="a_edge62_Node000038_Node000039"><a xlink:title=" ">
<path fill="none" stroke="#63b8ff" d="M1517.63,-385.83C1521.01,-369.82 1526,-348.45 1531.89,-330 1545.04,-288.81 1566.15,-241.56 1574.89,-222.57"/>
<polygon fill="#63b8ff" stroke="#63b8ff" points="1514.13,-385.45 1515.55,-395.95 1520.99,-386.86 1514.13,-385.45"/>
</a>
</g>
</g>
<!-- Node39&#45;&gt;Node7 -->
<g id="edge63_Node000039_Node000007" class="edge">
<title>Node39&#45;&gt;Node7</title>
<g id="a_edge63_Node000039_Node000007"><a xlink:title=" ">
<path fill="none" stroke="#63b8ff" d="M1555.78,-198.12C1523.64,-179.55 1463.06,-147.23 1406.89,-132 1242.98,-87.57 1041.31,-81.16 940.54,-81.08"/>
<polygon fill="#63b8ff" stroke="#63b8ff" points="1554.41,-201.37 1564.8,-203.4 1557.94,-195.33 1554.41,-201.37"/>
</a>
</g>
</g>
</g>
</svg>
