<?xml version="1.0" encoding="UTF-8" standalone="no"?>
<!DOCTYPE svg PUBLIC "-//W3C//DTD SVG 1.1//EN"
 "http://www.w3.org/Graphics/SVG/1.1/DTD/svg11.dtd">
<!-- Generated by graphviz version 2.43.0 (0)
 -->
<!-- Title: netspeak::invertedindex::iterator_type Pages: 1 -->
<svg width="284pt" height="549pt"
 viewBox="0.00 0.00 284.00 549.00" xmlns="http://www.w3.org/2000/svg" xmlns:xlink="http://www.w3.org/1999/xlink">
<g id="graph0" class="graph" transform="scale(1 1) rotate(0) translate(4 545)">
<title>netspeak::invertedindex::iterator_type</title>
<!-- Node1 -->
<g id="Node000001" class="node">
<title>Node1</title>
<g id="a_Node000001"><a xlink:title=" ">
<polygon fill="#999999" stroke="transparent" points="202,-456 73,-456 73,-246 202,-246 202,-456"/>
<text text-anchor="start" x="78.5" y="-444" font-family="Helvetica,sans-Serif" font-size="10.00">netspeak::invertedindex</text>
<text text-anchor="start" x="103" y="-433" font-family="Helvetica,sans-Serif" font-size="10.00">::iterator_type</text>
<text text-anchor="start" x="84.5" y="-418" font-family="Helvetica,sans-Serif" font-size="10.00">#</text>
<text text-anchor="start" x="104.5" y="-418" font-family="Helvetica,sans-Serif" font-size="10.00">page_</text>
<text text-anchor="start" x="84.5" y="-403" font-family="Helvetica,sans-Serif" font-size="10.00">#</text>
<text text-anchor="start" x="104.5" y="-403" font-family="Helvetica,sans-Serif" font-size="10.00">swap_</text>
<text text-anchor="start" x="84.5" y="-388" font-family="Helvetica,sans-Serif" font-size="10.00">+</text>
<text text-anchor="start" x="104.5" y="-388" font-family="Helvetica,sans-Serif" font-size="10.00">iterator_type()</text>
<text text-anchor="start" x="84.5" y="-373" font-family="Helvetica,sans-Serif" font-size="10.00">+</text>
<text text-anchor="start" x="104.5" y="-373" font-family="Helvetica,sans-Serif" font-size="10.00">iterator_type()</text>
<text text-anchor="start" x="84.5" y="-358" font-family="Helvetica,sans-Serif" font-size="10.00">+</text>
<text text-anchor="start" x="104.5" y="-358" font-family="Helvetica,sans-Serif" font-size="10.00">iterator_type()</text>
<text text-anchor="start" x="84.5" y="-343" font-family="Helvetica,sans-Serif" font-size="10.00">+</text>
<text text-anchor="start" x="104.5" y="-343" font-family="Helvetica,sans-Serif" font-size="10.00">~iterator_type()</text>
<text text-anchor="start" x="84.5" y="-328" font-family="Helvetica,sans-Serif" font-size="10.00">+</text>
<text text-anchor="start" x="104.5" y="-328" font-family="Helvetica,sans-Serif" font-size="10.00">print()</text>
<text text-anchor="start" x="84.5" y="-313" font-family="Helvetica,sans-Serif" font-size="10.00">+</text>
<text text-anchor="start" x="104.5" y="-313" font-family="Helvetica,sans-Serif" font-size="10.00">byte_size()</text>
<text text-anchor="start" x="84.5" y="-298" font-family="Helvetica,sans-Serif" font-size="10.00">+</text>
<text text-anchor="start" x="104.5" y="-298" font-family="Helvetica,sans-Serif" font-size="10.00">next()</text>
<text text-anchor="start" x="84.5" y="-283" font-family="Helvetica,sans-Serif" font-size="10.00">+</text>
<text text-anchor="start" x="104.5" y="-283" font-family="Helvetica,sans-Serif" font-size="10.00">rewind()</text>
<text text-anchor="start" x="84.5" y="-268" font-family="Helvetica,sans-Serif" font-size="10.00">+</text>
<text text-anchor="start" x="104.5" y="-268" font-family="Helvetica,sans-Serif" font-size="10.00">size()</text>
<text text-anchor="start" x="84.5" y="-253" font-family="Helvetica,sans-Serif" font-size="10.00">+</text>
<text text-anchor="start" x="104.5" y="-253" font-family="Helvetica,sans-Serif" font-size="10.00">write()</text>
<polygon fill="#666666" stroke="#666666" points="73.5,-428 73.5,-428 202.5,-428 202.5,-428 73.5,-428"/>
<polygon fill="#666666" stroke="#666666" points="73.5,-398 73.5,-398 102.5,-398 102.5,-398 73.5,-398"/>
<polygon fill="#666666" stroke="#666666" points="102.5,-398 102.5,-398 202.5,-398 202.5,-398 102.5,-398"/>
<polygon fill="none" stroke="#666666" points="73,-246 73,-456 202,-456 202,-246 73,-246"/>
</a>
</g>
</g>
<!-- Node3 -->
<g id="Node000003" class="node">
<title>Node3</title>
<g id="a_Node000003"><a xlink:href="structnetspeak_1_1invertedindex_1_1constant__size__iter.html" target="_top" xlink:title=" ">
<polygon fill="white" stroke="transparent" points="129,-210 0,-210 0,0 129,0 129,-210"/>
<text text-anchor="start" x="5.5" y="-198" font-family="Helvetica,sans-Serif" font-size="10.00">netspeak::invertedindex</text>
<text text-anchor="start" x="17.5" y="-187" font-family="Helvetica,sans-Serif" font-size="10.00">::constant_size_iter</text>
<text text-anchor="start" x="7.5" y="-172" font-family="Helvetica,sans-Serif" font-size="10.00">&#45;</text>
<text text-anchor="start" x="18.5" y="-172" font-family="Helvetica,sans-Serif" font-size="10.00">count_</text>
<text text-anchor="start" x="7.5" y="-157" font-family="Helvetica,sans-Serif" font-size="10.00">&#45;</text>
<text text-anchor="start" x="18.5" y="-157" font-family="Helvetica,sans-Serif" font-size="10.00">size_</text>
<text text-anchor="start" x="5" y="-142" font-family="Helvetica,sans-Serif" font-size="10.00">+</text>
<text text-anchor="start" x="18.5" y="-142" font-family="Helvetica,sans-Serif" font-size="10.00">constant_size_iter()</text>
<text text-anchor="start" x="5" y="-127" font-family="Helvetica,sans-Serif" font-size="10.00">+</text>
<text text-anchor="start" x="18.5" y="-127" font-family="Helvetica,sans-Serif" font-size="10.00">constant_size_iter()</text>
<text text-anchor="start" x="5" y="-112" font-family="Helvetica,sans-Serif" font-size="10.00">+</text>
<text text-anchor="start" x="18.5" y="-112" font-family="Helvetica,sans-Serif" font-size="10.00">constant_size_iter()</text>
<text text-anchor="start" x="5" y="-97" font-family="Helvetica,sans-Serif" font-size="10.00">+</text>
<text text-anchor="start" x="18.5" y="-97" font-family="Helvetica,sans-Serif" font-size="10.00">~constant_size_iter()</text>
<text text-anchor="start" x="5" y="-82" font-family="Helvetica,sans-Serif" font-size="10.00">+</text>
<text text-anchor="start" x="18.5" y="-82" font-family="Helvetica,sans-Serif" font-size="10.00">byte_size()</text>
<text text-anchor="start" x="5" y="-67" font-family="Helvetica,sans-Serif" font-size="10.00">+</text>
<text text-anchor="start" x="18.5" y="-67" font-family="Helvetica,sans-Serif" font-size="10.00">next()</text>
<text text-anchor="start" x="5" y="-52" font-family="Helvetica,sans-Serif" font-size="10.00">+</text>
<text text-anchor="start" x="18.5" y="-52" font-family="Helvetica,sans-Serif" font-size="10.00">rewind()</text>
<text text-anchor="start" x="5" y="-37" font-family="Helvetica,sans-Serif" font-size="10.00">+</text>
<text text-anchor="start" x="18.5" y="-37" font-family="Helvetica,sans-Serif" font-size="10.00">size()</text>
<text text-anchor="start" x="5" y="-22" font-family="Helvetica,sans-Serif" font-size="10.00">+</text>
<text text-anchor="start" x="18.5" y="-22" font-family="Helvetica,sans-Serif" font-size="10.00">write()</text>
<text text-anchor="start" x="7.5" y="-7" font-family="Helvetica,sans-Serif" font-size="10.00">&#45;</text>
<text text-anchor="start" x="18.5" y="-7" font-family="Helvetica,sans-Serif" font-size="10.00">swap()</text>
<polygon fill="#666666" stroke="#666666" points="0.5,-182 0.5,-182 129.5,-182 129.5,-182 0.5,-182"/>
<polygon fill="#666666" stroke="#666666" points="0.5,-152 0.5,-152 16.5,-152 16.5,-152 0.5,-152"/>
<polygon fill="#666666" stroke="#666666" points="16.5,-152 16.5,-152 129.5,-152 129.5,-152 16.5,-152"/>
<polygon fill="none" stroke="#666666" points="0,0 0,-210 129,-210 129,0 0,0"/>
</a>
</g>
</g>
<!-- Node1&#45;&gt;Node3 -->
<g id="edge2_Node000001_Node000003" class="edge">
<title>Node1&#45;&gt;Node3</title>
<g id="a_edge2_Node000001_Node000003"><a xlink:title=" ">
<path fill="none" stroke="#63b8ff" d="M103.42,-236.1C100.84,-227.47 98.24,-218.79 95.68,-210.23"/>
<polygon fill="none" stroke="#63b8ff" points="100.11,-237.24 106.33,-245.81 106.82,-235.23 100.11,-237.24"/>
</a>
</g>
</g>
<!-- Node4 -->
<g id="Node000004" class="node">
<title>Node4</title>
<g id="a_Node000004"><a xlink:href="structnetspeak_1_1invertedindex_1_1variable__size__iter.html" target="_top" xlink:title=" ">
<polygon fill="white" stroke="transparent" points="276,-202.5 147,-202.5 147,-7.5 276,-7.5 276,-202.5"/>
<text text-anchor="start" x="152.5" y="-190" font-family="Helvetica,sans-Serif" font-size="10.00">netspeak::invertedindex</text>
<text text-anchor="start" x="165.5" y="-179" font-family="Helvetica,sans-Serif" font-size="10.00">::variable_size_iter</text>
<text text-anchor="start" x="155" y="-164" font-family="Helvetica,sans-Serif" font-size="10.00">&#45;</text>
<text text-anchor="start" x="166.5" y="-164" font-family="Helvetica,sans-Serif" font-size="10.00">sizes_</text>
<text text-anchor="start" x="155" y="-149" font-family="Helvetica,sans-Serif" font-size="10.00">&#45;</text>
<text text-anchor="start" x="166.5" y="-149" font-family="Helvetica,sans-Serif" font-size="10.00">offset_</text>
<text text-anchor="start" x="152.5" y="-134" font-family="Helvetica,sans-Serif" font-size="10.00">+</text>
<text text-anchor="start" x="166.5" y="-134" font-family="Helvetica,sans-Serif" font-size="10.00">variable_size_iter()</text>
<text text-anchor="start" x="152.5" y="-119" font-family="Helvetica,sans-Serif" font-size="10.00">+</text>
<text text-anchor="start" x="166.5" y="-119" font-family="Helvetica,sans-Serif" font-size="10.00">variable_size_iter()</text>
<text text-anchor="start" x="152.5" y="-104" font-family="Helvetica,sans-Serif" font-size="10.00">+</text>
<text text-anchor="start" x="166.5" y="-104" font-family="Helvetica,sans-Serif" font-size="10.00">~variable_size_iter()</text>
<text text-anchor="start" x="152.5" y="-89" font-family="Helvetica,sans-Serif" font-size="10.00">+</text>
<text text-anchor="start" x="166.5" y="-89" font-family="Helvetica,sans-Serif" font-size="10.00">byte_size()</text>
<text text-anchor="start" x="152.5" y="-74" font-family="Helvetica,sans-Serif" font-size="10.00">+</text>
<text text-anchor="start" x="166.5" y="-74" font-family="Helvetica,sans-Serif" font-size="10.00">next()</text>
<text text-anchor="start" x="152.5" y="-59" font-family="Helvetica,sans-Serif" font-size="10.00">+</text>
<text text-anchor="start" x="166.5" y="-59" font-family="Helvetica,sans-Serif" font-size="10.00">rewind()</text>
<text text-anchor="start" x="152.5" y="-44" font-family="Helvetica,sans-Serif" font-size="10.00">+</text>
<text text-anchor="start" x="166.5" y="-44" font-family="Helvetica,sans-Serif" font-size="10.00">size()</text>
<text text-anchor="start" x="152.5" y="-29" font-family="Helvetica,sans-Serif" font-size="10.00">+</text>
<text text-anchor="start" x="166.5" y="-29" font-family="Helvetica,sans-Serif" font-size="10.00">write()</text>
<text text-anchor="start" x="155" y="-14" font-family="Helvetica,sans-Serif" font-size="10.00">&#45;</text>
<text text-anchor="start" x="166.5" y="-14" font-family="Helvetica,sans-Serif" font-size="10.00">swap()</text>
<polygon fill="#666666" stroke="#666666" points="147.5,-174 147.5,-174 276.5,-174 276.5,-174 147.5,-174"/>
<polygon fill="#666666" stroke="#666666" points="147.5,-144 147.5,-144 164.5,-144 164.5,-144 147.5,-144"/>
<polygon fill="#666666" stroke="#666666" points="164.5,-144 164.5,-144 276.5,-144 276.5,-144 164.5,-144"/>
<polygon fill="none" stroke="#666666" points="147,-7.5 147,-202.5 276,-202.5 276,-7.5 147,-7.5"/>
</a>
</g>
</g>
<!-- Node1&#45;&gt;Node4 -->
<g id="edge3_Node000001_Node000004" class="edge">
<title>Node1&#45;&gt;Node4</title>
<g id="a_edge3_Node000001_Node000004"><a xlink:title=" ">
<path fill="none" stroke="#63b8ff" d="M172.05,-236.09C175.41,-224.98 178.81,-213.79 182.12,-202.88"/>
<polygon fill="none" stroke="#63b8ff" points="168.65,-235.23 169.1,-245.81 175.35,-237.26 168.65,-235.23"/>
</a>
</g>
</g>
<!-- Node2 -->
<g id="Node000002" class="node">
<title>Node2</title>
<g id="a_Node000002"><a xlink:title=" ">
<polygon fill="white" stroke="transparent" points="190.5,-541 84.5,-541 84.5,-492 190.5,-492 190.5,-541"/>
<text text-anchor="start" x="89.5" y="-528.5" font-family="Helvetica,sans-Serif" font-size="10.00">boost::noncopyable</text>
<text text-anchor="start" x="135.5" y="-513.5" font-family="Helvetica,sans-Serif" font-size="10.00"> </text>
<text text-anchor="start" x="135.5" y="-498.5" font-family="Helvetica,sans-Serif" font-size="10.00"> </text>
<polygon fill="#666666" stroke="#666666" points="84.5,-523.5 84.5,-523.5 190.5,-523.5 190.5,-523.5 84.5,-523.5"/>
<polygon fill="#666666" stroke="#666666" points="84.5,-508.5 84.5,-508.5 190.5,-508.5 190.5,-508.5 84.5,-508.5"/>
<polygon fill="none" stroke="#666666" points="84.5,-492 84.5,-541 190.5,-541 190.5,-492 84.5,-492"/>
</a>
</g>
</g>
<!-- Node2&#45;&gt;Node1 -->
<g id="edge1_Node000001_Node000002" class="edge">
<title>Node2&#45;&gt;Node1</title>
<g id="a_edge1_Node000001_Node000002"><a xlink:title=" ">
<path fill="none" stroke="#63b8ff" d="M137.5,-481.69C137.5,-473.89 137.5,-465.18 137.5,-456.08"/>
<polygon fill="none" stroke="#63b8ff" points="134,-481.73 137.5,-491.73 141,-481.73 134,-481.73"/>
</a>
</g>
</g>
</g>
</svg>
