<?xml version="1.0" encoding="UTF-8" standalone="no"?>
<!DOCTYPE svg PUBLIC "-//W3C//DTD SVG 1.1//EN"
 "http://www.w3.org/Graphics/SVG/1.1/DTD/svg11.dtd">
<!-- Generated by graphviz version 2.43.0 (0)
 -->
<!-- Title: netspeak::model::LengthRange::empty Pages: 1 -->
<svg width="380pt" height="150pt"
 viewBox="0.00 0.00 380.00 149.50" xmlns="http://www.w3.org/2000/svg" xmlns:xlink="http://www.w3.org/1999/xlink">
<g id="graph0" class="graph" transform="scale(1 1) rotate(0) translate(4 145.5)">
<title>netspeak::model::LengthRange::empty</title>
<!-- Node1 -->
<g id="Node000001" class="node">
<title>Node1</title>
<g id="a_Node000001"><a xlink:title="Returns whether this range is empty.">
<polygon fill="#999999" stroke="#666666" points="372,-79.5 204,-79.5 204,-49.5 372,-49.5 372,-79.5"/>
<text text-anchor="start" x="212" y="-67.5" font-family="Helvetica,sans-Serif" font-size="10.00">netspeak::model::LengthRange</text>
<text text-anchor="middle" x="288" y="-56.5" font-family="Helvetica,sans-Serif" font-size="10.00">::empty</text>
</a>
</g>
</g>
<!-- Node2 -->
<g id="Node000002" class="node">
<title>Node2</title>
<g id="a_Node000002"><a xlink:href="structnetspeak_1_1model_1_1LengthRange.html#a63de1394c50513e0d5dfaf5c2d1ded4c" target="_top" xlink:title=" ">
<polygon fill="white" stroke="#666666" points="168,-141.5 0,-141.5 0,-111.5 168,-111.5 168,-141.5"/>
<text text-anchor="start" x="8" y="-129.5" font-family="Helvetica,sans-Serif" font-size="10.00">netspeak::model::LengthRange</text>
<text text-anchor="middle" x="84" y="-118.5" font-family="Helvetica,sans-Serif" font-size="10.00">::accepts</text>
</a>
</g>
</g>
<!-- Node1&#45;&gt;Node2 -->
<g id="edge1_Node000001_Node000002" class="edge">
<title>Node1&#45;&gt;Node2</title>
<g id="a_edge1_Node000001_Node000002"><a xlink:title=" ">
<path fill="none" stroke="#63b8ff" d="M231.47,-82.58C211.5,-88.99 188.77,-96.18 168,-102.5 158.24,-105.47 147.81,-108.55 137.75,-111.48"/>
<polygon fill="#63b8ff" stroke="#63b8ff" points="232.59,-85.9 241.04,-79.5 230.44,-79.24 232.59,-85.9"/>
</a>
</g>
</g>
<!-- Node3 -->
<g id="Node000003" class="node">
<title>Node3</title>
<g id="a_Node000003"><a xlink:href="namespacenetspeak_1_1model.html#a6f9b0039c33e4d97e66d5512db27d0ba" target="_top" xlink:title=" ">
<polygon fill="white" stroke="#666666" points="164.5,-93 3.5,-93 3.5,-74 164.5,-74 164.5,-93"/>
<text text-anchor="middle" x="84" y="-81" font-family="Helvetica,sans-Serif" font-size="10.00">netspeak::model::operator&amp;=</text>
</a>
</g>
</g>
<!-- Node1&#45;&gt;Node3 -->
<g id="edge2_Node000001_Node000003" class="edge">
<title>Node1&#45;&gt;Node3</title>
<g id="a_edge2_Node000001_Node000003"><a xlink:title=" ">
<path fill="none" stroke="#63b8ff" d="M193.88,-73.26C184.16,-74.17 174.34,-75.1 164.78,-76"/>
<polygon fill="#63b8ff" stroke="#63b8ff" points="194.34,-76.73 203.96,-72.31 193.68,-69.76 194.34,-76.73"/>
</a>
</g>
</g>
<!-- Node4 -->
<g id="Node000004" class="node">
<title>Node4</title>
<g id="a_Node000004"><a xlink:href="namespacenetspeak_1_1model.html#a8bc836cce7ec89bd64d079880af88238" target="_top" xlink:title=" ">
<polygon fill="white" stroke="#666666" points="165,-56 3,-56 3,-37 165,-37 165,-56"/>
<text text-anchor="middle" x="84" y="-44" font-family="Helvetica,sans-Serif" font-size="10.00">netspeak::model::operator&lt;&lt;</text>
</a>
</g>
</g>
<!-- Node1&#45;&gt;Node4 -->
<g id="edge3_Node000001_Node000004" class="edge">
<title>Node1&#45;&gt;Node4</title>
<g id="a_edge3_Node000001_Node000004"><a xlink:title=" ">
<path fill="none" stroke="#63b8ff" d="M193.97,-56.21C184.33,-55.35 174.59,-54.48 165.11,-53.64"/>
<polygon fill="#63b8ff" stroke="#63b8ff" points="193.69,-59.7 203.96,-57.1 194.31,-52.73 193.69,-59.7"/>
</a>
</g>
</g>
<!-- Node5 -->
<g id="Node000005" class="node">
<title>Node5</title>
<g id="a_Node000005"><a xlink:href="namespacenetspeak_1_1model.html#a32ddf911b8ae3838ee11847023822f7d" target="_top" xlink:title=" ">
<polygon fill="white" stroke="#666666" points="162.5,-19 5.5,-19 5.5,0 162.5,0 162.5,-19"/>
<text text-anchor="middle" x="84" y="-7" font-family="Helvetica,sans-Serif" font-size="10.00">netspeak::model::operator|=</text>
</a>
</g>
</g>
<!-- Node1&#45;&gt;Node5 -->
<g id="edge4_Node000001_Node000005" class="edge">
<title>Node1&#45;&gt;Node5</title>
<g id="a_edge4_Node000001_Node000005"><a xlink:title=" ">
<path fill="none" stroke="#63b8ff" d="M230.3,-46.48C210.65,-40.47 188.43,-33.92 168,-28.5 155.57,-25.2 142,-21.95 129.51,-19.1"/>
<polygon fill="#63b8ff" stroke="#63b8ff" points="229.43,-49.87 240.02,-49.47 231.49,-43.18 229.43,-49.87"/>
</a>
</g>
</g>
</g>
</svg>
