<?xml version="1.0" encoding="UTF-8" standalone="no"?>
<!DOCTYPE svg PUBLIC "-//W3C//DTD SVG 1.1//EN"
 "http://www.w3.org/Graphics/SVG/1.1/DTD/svg11.dtd">
<!-- Generated by graphviz version 2.43.0 (0)
 -->
<!-- Title: netspeak::regex::utf8_finite_regex_unit Pages: 1 -->
<svg width="144pt" height="98pt"
 viewBox="0.00 0.00 144.00 98.00" xmlns="http://www.w3.org/2000/svg" xmlns:xlink="http://www.w3.org/1999/xlink">
<g id="graph0" class="graph" transform="scale(1 1) rotate(0) translate(4 94)">
<title>netspeak::regex::utf8_finite_regex_unit</title>
<!-- Node1 -->
<g id="Node000001" class="node">
<title>Node1</title>
<g id="a_Node000001"><a xlink:title="A UTF8 encoded regex unit which describes a finite formal language.">
<polygon fill="#999999" stroke="transparent" points="136,-90 0,-90 0,0 136,0 136,-90"/>
<text text-anchor="start" x="15.5" y="-78" font-family="Helvetica,sans-Serif" font-size="10.00">netspeak::regex::utf8</text>
<text text-anchor="start" x="24" y="-67" font-family="Helvetica,sans-Serif" font-size="10.00">_finite_regex_unit</text>
<text text-anchor="start" x="4" y="-52" font-family="Helvetica,sans-Serif" font-size="10.00">+</text>
<text text-anchor="start" x="17" y="-52" font-family="Helvetica,sans-Serif" font-size="10.00">alternatives</text>
<text text-anchor="start" x="4" y="-37" font-family="Helvetica,sans-Serif" font-size="10.00">+</text>
<text text-anchor="start" x="17" y="-37" font-family="Helvetica,sans-Serif" font-size="10.00">utf8_finite_regex_unit()</text>
<text text-anchor="start" x="4" y="-22" font-family="Helvetica,sans-Serif" font-size="10.00">+</text>
<text text-anchor="start" x="17" y="-22" font-family="Helvetica,sans-Serif" font-size="10.00">utf8_finite_regex_unit()</text>
<text text-anchor="start" x="4" y="-7" font-family="Helvetica,sans-Serif" font-size="10.00">+</text>
<text text-anchor="start" x="17" y="-7" font-family="Helvetica,sans-Serif" font-size="10.00">utf8_finite_regex_unit()</text>
<polygon fill="#666666" stroke="#666666" points="0,-62 0,-62 136,-62 136,-62 0,-62"/>
<polygon fill="#666666" stroke="#666666" points="0,-47 0,-47 15,-47 15,-47 0,-47"/>
<polygon fill="#666666" stroke="#666666" points="15,-47 15,-47 136,-47 136,-47 15,-47"/>
<polygon fill="none" stroke="#666666" points="0,0 0,-90 136,-90 136,0 0,0"/>
</a>
</g>
</g>
</g>
</svg>
