<?xml version="1.0" encoding="UTF-8" standalone="no"?>
<!DOCTYPE svg PUBLIC "-//W3C//DTD SVG 1.1//EN"
 "http://www.w3.org/Graphics/SVG/1.1/DTD/svg11.dtd">
<!-- Generated by graphviz version 2.43.0 (0)
 -->
<!-- Title: netspeak::ref_ Pages: 1 -->
<svg width="159pt" height="393pt"
 viewBox="0.00 0.00 159.00 393.00" xmlns="http://www.w3.org/2000/svg" xmlns:xlink="http://www.w3.org/1999/xlink">
<g id="graph0" class="graph" transform="scale(1 1) rotate(0) translate(4 389)">
<title>netspeak::ref_</title>
<!-- Node1 -->
<g id="Node000001" class="node">
<title>Node1</title>
<g id="a_Node000001"><a xlink:title=" ">
<polygon fill="#999999" stroke="transparent" points="119,-124 32,-124 32,0 119,0 119,-124"/>
<text text-anchor="start" x="41" y="-112" font-family="Helvetica,sans-Serif" font-size="10.00">netspeak::ref_</text>
<text text-anchor="start" x="36.5" y="-97" font-family="Helvetica,sans-Serif" font-size="10.00">+</text>
<text text-anchor="start" x="49.5" y="-97" font-family="Helvetica,sans-Serif" font-size="10.00">query</text>
<text text-anchor="start" x="36.5" y="-82" font-family="Helvetica,sans-Serif" font-size="10.00">+</text>
<text text-anchor="start" x="49.5" y="-82" font-family="Helvetica,sans-Serif" font-size="10.00">freq</text>
<text text-anchor="start" x="36.5" y="-67" font-family="Helvetica,sans-Serif" font-size="10.00">+</text>
<text text-anchor="start" x="49.5" y="-67" font-family="Helvetica,sans-Serif" font-size="10.00">ref_()</text>
<text text-anchor="start" x="36.5" y="-52" font-family="Helvetica,sans-Serif" font-size="10.00">+</text>
<text text-anchor="start" x="49.5" y="-52" font-family="Helvetica,sans-Serif" font-size="10.00">ref_()</text>
<text text-anchor="start" x="36.5" y="-37" font-family="Helvetica,sans-Serif" font-size="10.00">+</text>
<text text-anchor="start" x="49.5" y="-37" font-family="Helvetica,sans-Serif" font-size="10.00">operator==()</text>
<text text-anchor="start" x="36.5" y="-22" font-family="Helvetica,sans-Serif" font-size="10.00">+</text>
<text text-anchor="start" x="49.5" y="-22" font-family="Helvetica,sans-Serif" font-size="10.00">operator!=()</text>
<text text-anchor="start" x="36.5" y="-7" font-family="Helvetica,sans-Serif" font-size="10.00">+</text>
<text text-anchor="start" x="49.5" y="-7" font-family="Helvetica,sans-Serif" font-size="10.00">operator&lt;()</text>
<polygon fill="#666666" stroke="#666666" points="32.5,-107 32.5,-107 119.5,-107 119.5,-107 32.5,-107"/>
<polygon fill="#666666" stroke="#666666" points="32.5,-77 32.5,-77 47.5,-77 47.5,-77 32.5,-77"/>
<polygon fill="#666666" stroke="#666666" points="47.5,-77 47.5,-77 119.5,-77 119.5,-77 47.5,-77"/>
<polygon fill="none" stroke="#666666" points="32,0 32,-124 119,-124 119,0 32,0"/>
</a>
</g>
</g>
<!-- Node2 -->
<g id="Node000002" class="node">
<title>Node2</title>
<g id="a_Node000002"><a xlink:href="structnetspeak_1_1model_1_1PhraseId____.html" target="_top" xlink:title=" ">
<polygon fill="white" stroke="transparent" points="151,-385 0,-385 0,-171 151,-171 151,-385"/>
<text text-anchor="start" x="5.5" y="-373" font-family="Helvetica,sans-Serif" font-size="10.00">netspeak::model::PhraseId__</text>
<text text-anchor="start" x="16.5" y="-358" font-family="Helvetica,sans-Serif" font-size="10.00">&#45;</text>
<text text-anchor="start" x="36.5" y="-358" font-family="Helvetica,sans-Serif" font-size="10.00">length_</text>
<text text-anchor="start" x="16.5" y="-343" font-family="Helvetica,sans-Serif" font-size="10.00">&#45;</text>
<text text-anchor="start" x="36.5" y="-343" font-family="Helvetica,sans-Serif" font-size="10.00">local_</text>
<text text-anchor="start" x="14" y="-328" font-family="Helvetica,sans-Serif" font-size="10.00">+</text>
<text text-anchor="start" x="36.5" y="-328" font-family="Helvetica,sans-Serif" font-size="10.00">PhraseId__()</text>
<text text-anchor="start" x="14" y="-313" font-family="Helvetica,sans-Serif" font-size="10.00">+</text>
<text text-anchor="start" x="36.5" y="-313" font-family="Helvetica,sans-Serif" font-size="10.00">PhraseId__()</text>
<text text-anchor="start" x="14" y="-298" font-family="Helvetica,sans-Serif" font-size="10.00">+</text>
<text text-anchor="start" x="36.5" y="-298" font-family="Helvetica,sans-Serif" font-size="10.00">length()</text>
<text text-anchor="start" x="14" y="-283" font-family="Helvetica,sans-Serif" font-size="10.00">+</text>
<text text-anchor="start" x="36.5" y="-283" font-family="Helvetica,sans-Serif" font-size="10.00">local()</text>
<text text-anchor="start" x="14" y="-268" font-family="Helvetica,sans-Serif" font-size="10.00">+</text>
<text text-anchor="start" x="36.5" y="-268" font-family="Helvetica,sans-Serif" font-size="10.00">operator uint64_t()</text>
<text text-anchor="start" x="14" y="-253" font-family="Helvetica,sans-Serif" font-size="10.00">+</text>
<text text-anchor="start" x="36.5" y="-253" font-family="Helvetica,sans-Serif" font-size="10.00">operator==()</text>
<text text-anchor="start" x="14" y="-238" font-family="Helvetica,sans-Serif" font-size="10.00">+</text>
<text text-anchor="start" x="36.5" y="-238" font-family="Helvetica,sans-Serif" font-size="10.00">operator!=()</text>
<text text-anchor="start" x="14" y="-223" font-family="Helvetica,sans-Serif" font-size="10.00">+</text>
<text text-anchor="start" x="36.5" y="-223" font-family="Helvetica,sans-Serif" font-size="10.00">operator&lt;()</text>
<text text-anchor="start" x="14" y="-208" font-family="Helvetica,sans-Serif" font-size="10.00">+</text>
<text text-anchor="start" x="36.5" y="-208" font-family="Helvetica,sans-Serif" font-size="10.00">operator&lt;=()</text>
<text text-anchor="start" x="14" y="-193" font-family="Helvetica,sans-Serif" font-size="10.00">+</text>
<text text-anchor="start" x="36.5" y="-193" font-family="Helvetica,sans-Serif" font-size="10.00">operator&gt;()</text>
<text text-anchor="start" x="14" y="-178" font-family="Helvetica,sans-Serif" font-size="10.00">+</text>
<text text-anchor="start" x="36.5" y="-178" font-family="Helvetica,sans-Serif" font-size="10.00">operator&gt;=()</text>
<polygon fill="#666666" stroke="#666666" points="0.5,-368 0.5,-368 151.5,-368 151.5,-368 0.5,-368"/>
<polygon fill="#666666" stroke="#666666" points="0.5,-338 0.5,-338 34.5,-338 34.5,-338 0.5,-338"/>
<polygon fill="#666666" stroke="#666666" points="34.5,-338 34.5,-338 151.5,-338 151.5,-338 34.5,-338"/>
<polygon fill="none" stroke="#666666" points="0,-171 0,-385 151,-385 151,-171 0,-171"/>
</a>
</g>
</g>
<!-- Node2&#45;&gt;Node1 -->
<g id="edge1_Node000001_Node000002" class="edge">
<title>Node2&#45;&gt;Node1</title>
<g id="a_edge1_Node000001_Node000002"><a xlink:title=" ">
<path fill="none" stroke="#63b8ff" d="M75.5,-170.94C75.5,-159.26 75.5,-147.56 75.5,-136.4"/>
<polygon fill="none" stroke="#63b8ff" points="75.5,-136.07 71.5,-130.07 75.5,-124.07 79.5,-130.07 75.5,-136.07"/>
</a>
</g>
<text text-anchor="middle" x="86" y="-145" font-family="Helvetica,sans-Serif" font-size="10.00" fill="grey"> +id</text>
</g>
</g>
</svg>
