<?xml version="1.0" encoding="UTF-8" standalone="no"?>
<!DOCTYPE svg PUBLIC "-//W3C//DTD SVG 1.1//EN"
 "http://www.w3.org/Graphics/SVG/1.1/DTD/svg11.dtd">
<!-- Generated by graphviz version 2.43.0 (0)
 -->
<!-- Title: netspeak::value::value_traits&lt; quadruple&lt; T1, T2, T3, T4 &gt; &gt;::copy_from Pages: 1 -->
<svg width="359pt" height="138pt"
 viewBox="0.00 0.00 359.00 138.00" xmlns="http://www.w3.org/2000/svg" xmlns:xlink="http://www.w3.org/1999/xlink">
<g id="graph0" class="graph" transform="scale(1 1) rotate(0) translate(4 134)">
<title>netspeak::value::value_traits&lt; quadruple&lt; T1, T2, T3, T4 &gt; &gt;::copy_from</title>
<!-- Node1 -->
<g id="Node000001" class="node">
<title>Node1</title>
<g id="a_Node000001"><a xlink:title=" ">
<polygon fill="#999999" stroke="#666666" points="148,-85 0,-85 0,-44 148,-44 148,-85"/>
<text text-anchor="start" x="8" y="-73" font-family="Helvetica,sans-Serif" font-size="10.00">netspeak::value::value</text>
<text text-anchor="start" x="8" y="-62" font-family="Helvetica,sans-Serif" font-size="10.00">_traits&lt; quadruple&lt; T1,</text>
<text text-anchor="middle" x="74" y="-51" font-family="Helvetica,sans-Serif" font-size="10.00"> T2, T3, T4 &gt; &gt;::copy_from</text>
</a>
</g>
</g>
<!-- Node2 -->
<g id="Node000002" class="node">
<title>Node2</title>
<g id="a_Node000002"><a xlink:href="classnetspeak_1_1value_1_1quadruple.html#ad39c4759bc75b68caf8fcf9d63d83f32" target="_top" xlink:title=" ">
<polygon fill="white" stroke="#666666" points="351,-130 184,-130 184,-111 351,-111 351,-130"/>
<text text-anchor="middle" x="267.5" y="-118" font-family="Helvetica,sans-Serif" font-size="10.00">netspeak::value::quadruple::e1</text>
</a>
</g>
</g>
<!-- Node1&#45;&gt;Node2 -->
<g id="edge1_Node000001_Node000002" class="edge">
<title>Node1&#45;&gt;Node2</title>
<g id="a_edge1_Node000001_Node000002"><a xlink:title=" ">
<path fill="none" stroke="#63b8ff" d="M129.76,-85.04C146.98,-91.11 166.16,-97.46 184,-102.5 191.72,-104.68 199.92,-106.75 208.02,-108.66"/>
<polygon fill="#63b8ff" stroke="#63b8ff" points="207.31,-112.09 217.84,-110.9 208.87,-105.26 207.31,-112.09"/>
</a>
</g>
</g>
<!-- Node3 -->
<g id="Node000003" class="node">
<title>Node3</title>
<g id="a_Node000003"><a xlink:href="classnetspeak_1_1value_1_1quadruple.html#a5bf0442db99788dc3835d9be853ecf00" target="_top" xlink:title=" ">
<polygon fill="white" stroke="#666666" points="351,-93 184,-93 184,-74 351,-74 351,-93"/>
<text text-anchor="middle" x="267.5" y="-81" font-family="Helvetica,sans-Serif" font-size="10.00">netspeak::value::quadruple::e2</text>
</a>
</g>
</g>
<!-- Node1&#45;&gt;Node3 -->
<g id="edge2_Node000001_Node000003" class="edge">
<title>Node1&#45;&gt;Node3</title>
<g id="a_edge2_Node000001_Node000003"><a xlink:title=" ">
<path fill="none" stroke="#63b8ff" d="M148.22,-71.76C156.57,-72.59 165.16,-73.44 173.71,-74.29"/>
<polygon fill="#63b8ff" stroke="#63b8ff" points="173.43,-77.78 183.73,-75.29 174.13,-70.82 173.43,-77.78"/>
</a>
</g>
</g>
<!-- Node4 -->
<g id="Node000004" class="node">
<title>Node4</title>
<g id="a_Node000004"><a xlink:href="classnetspeak_1_1value_1_1quadruple.html#a19b8695d26a93073e7afca44c2f8790c" target="_top" xlink:title=" ">
<polygon fill="white" stroke="#666666" points="351,-56 184,-56 184,-37 351,-37 351,-56"/>
<text text-anchor="middle" x="267.5" y="-44" font-family="Helvetica,sans-Serif" font-size="10.00">netspeak::value::quadruple::e3</text>
</a>
</g>
</g>
<!-- Node1&#45;&gt;Node4 -->
<g id="edge3_Node000001_Node000004" class="edge">
<title>Node1&#45;&gt;Node4</title>
<g id="a_edge3_Node000001_Node000004"><a xlink:title=" ">
<path fill="none" stroke="#63b8ff" d="M148.22,-57.62C156.57,-56.83 165.16,-56.03 173.71,-55.22"/>
<polygon fill="#63b8ff" stroke="#63b8ff" points="174.1,-58.7 183.73,-54.28 173.45,-51.73 174.1,-58.7"/>
</a>
</g>
</g>
<!-- Node5 -->
<g id="Node000005" class="node">
<title>Node5</title>
<g id="a_Node000005"><a xlink:href="classnetspeak_1_1value_1_1quadruple.html#ad3063cff6a86e51c886a2c9316d043c3" target="_top" xlink:title=" ">
<polygon fill="white" stroke="#666666" points="351,-19 184,-19 184,0 351,0 351,-19"/>
<text text-anchor="middle" x="267.5" y="-7" font-family="Helvetica,sans-Serif" font-size="10.00">netspeak::value::quadruple::e4</text>
</a>
</g>
</g>
<!-- Node1&#45;&gt;Node5 -->
<g id="edge4_Node000001_Node000005" class="edge">
<title>Node1&#45;&gt;Node5</title>
<g id="a_edge4_Node000001_Node000005"><a xlink:title=" ">
<path fill="none" stroke="#63b8ff" d="M133.81,-43.97C149.98,-38.63 167.59,-33.09 184,-28.5 192.94,-26 202.49,-23.58 211.8,-21.35"/>
<polygon fill="#63b8ff" stroke="#63b8ff" points="212.84,-24.7 221.78,-19 211.25,-17.88 212.84,-24.7"/>
</a>
</g>
</g>
</g>
</svg>
