<?xml version="1.0" encoding="UTF-8" standalone="no"?>
<!DOCTYPE svg PUBLIC "-//W3C//DTD SVG 1.1//EN"
 "http://www.w3.org/Graphics/SVG/1.1/DTD/svg11.dtd">
<!-- Generated by graphviz version 2.43.0 (0)
 -->
<!-- Title: netspeak::util::FileDescriptor::open Pages: 1 -->
<svg width="655pt" height="56pt"
 viewBox="0.00 0.00 655.00 56.00" xmlns="http://www.w3.org/2000/svg" xmlns:xlink="http://www.w3.org/1999/xlink">
<g id="graph0" class="graph" transform="scale(1 1) rotate(0) translate(4 52)">
<title>netspeak::util::FileDescriptor::open</title>
<!-- Node1 -->
<g id="Node000001" class="node">
<title>Node1</title>
<g id="a_Node000001"><a xlink:title=" ">
<polygon fill="#999999" stroke="#666666" points="647,-30 490,-30 490,0 647,0 647,-30"/>
<text text-anchor="start" x="498" y="-18" font-family="Helvetica,sans-Serif" font-size="10.00">netspeak::util::FileDescriptor</text>
<text text-anchor="middle" x="568.5" y="-7" font-family="Helvetica,sans-Serif" font-size="10.00">::open</text>
</a>
</g>
</g>
<!-- Node1&#45;&gt;Node1 -->
<g id="edge1_Node000001_Node000001" class="edge">
<title>Node1&#45;&gt;Node1</title>
<g id="a_edge1_Node000001_Node000001"><a xlink:title=" ">
<path fill="none" stroke="#63b8ff" d="M600.01,-40.6C595.7,-44.97 585.2,-48 568.5,-48 540.38,-48 529.83,-39.41 536.86,-30.28"/>
<polygon fill="#63b8ff" stroke="#63b8ff" points="603.51,-40.32 600.14,-30.28 596.51,-40.23 603.51,-40.32"/>
</a>
</g>
</g>
<!-- Node2 -->
<g id="Node000002" class="node">
<title>Node2</title>
<g id="a_Node000002"><a xlink:href="classnetspeak_1_1PhraseCorpus.html#a59d4f58c04dbe6951096baad931ad6d7" target="_top" xlink:title=" ">
<polygon fill="white" stroke="#666666" points="454,-30 320,-30 320,0 454,0 454,-30"/>
<text text-anchor="start" x="328" y="-18" font-family="Helvetica,sans-Serif" font-size="10.00">netspeak::PhraseCorpus</text>
<text text-anchor="middle" x="387" y="-7" font-family="Helvetica,sans-Serif" font-size="10.00">::open_phrase_files_</text>
</a>
</g>
</g>
<!-- Node1&#45;&gt;Node2 -->
<g id="edge2_Node000001_Node000002" class="edge">
<title>Node1&#45;&gt;Node2</title>
<g id="a_edge2_Node000001_Node000002"><a xlink:title=" ">
<path fill="none" stroke="#63b8ff" d="M479.77,-15C471.19,-15 462.59,-15 454.27,-15"/>
<polygon fill="#63b8ff" stroke="#63b8ff" points="479.81,-18.5 489.81,-15 479.81,-11.5 479.81,-18.5"/>
</a>
</g>
</g>
<!-- Node3 -->
<g id="Node000003" class="node">
<title>Node3</title>
<g id="a_Node000003"><a xlink:href="classnetspeak_1_1PhraseCorpus.html#aff99b4d730ffeff6a21ad3760284c6cf" target="_top" xlink:title=" ">
<polygon fill="white" stroke="#666666" points="284,-30 150,-30 150,0 284,0 284,-30"/>
<text text-anchor="start" x="158" y="-18" font-family="Helvetica,sans-Serif" font-size="10.00">netspeak::PhraseCorpus</text>
<text text-anchor="middle" x="217" y="-7" font-family="Helvetica,sans-Serif" font-size="10.00">::open</text>
</a>
</g>
</g>
<!-- Node2&#45;&gt;Node3 -->
<g id="edge3_Node000002_Node000003" class="edge">
<title>Node2&#45;&gt;Node3</title>
<g id="a_edge3_Node000002_Node000003"><a xlink:title=" ">
<path fill="none" stroke="#63b8ff" d="M309.41,-15C300.99,-15 292.47,-15 284.19,-15"/>
<polygon fill="#63b8ff" stroke="#63b8ff" points="309.6,-18.5 319.6,-15 309.6,-11.5 309.6,-18.5"/>
</a>
</g>
</g>
<!-- Node4 -->
<g id="Node000004" class="node">
<title>Node4</title>
<g id="a_Node000004"><a xlink:href="classnetspeak_1_1Netspeak.html#a4fa7fcfd57d5c943e1bf476c61610c99" target="_top" xlink:title=" ">
<polygon fill="white" stroke="#666666" points="114,-30 0,-30 0,0 114,0 114,-30"/>
<text text-anchor="start" x="8" y="-18" font-family="Helvetica,sans-Serif" font-size="10.00">netspeak::Netspeak</text>
<text text-anchor="middle" x="57" y="-7" font-family="Helvetica,sans-Serif" font-size="10.00">::initialize</text>
</a>
</g>
</g>
<!-- Node3&#45;&gt;Node4 -->
<g id="edge4_Node000003_Node000004" class="edge">
<title>Node3&#45;&gt;Node4</title>
<g id="a_edge4_Node000003_Node000004"><a xlink:title=" ">
<path fill="none" stroke="#63b8ff" d="M139.85,-15C131.24,-15 122.59,-15 114.3,-15"/>
<polygon fill="#63b8ff" stroke="#63b8ff" points="139.91,-18.5 149.91,-15 139.91,-11.5 139.91,-18.5"/>
</a>
</g>
</g>
</g>
</svg>
