<?xml version="1.0" encoding="UTF-8" standalone="no"?>
<!DOCTYPE svg PUBLIC "-//W3C//DTD SVG 1.1//EN"
 "http://www.w3.org/Graphics/SVG/1.1/DTD/svg11.dtd">
<!-- Generated by graphviz version 2.43.0 (0)
 -->
<!-- Title: netspeak::StarQuery::Unit::Unit Pages: 1 -->
<svg width="276pt" height="134pt"
 viewBox="0.00 0.00 276.00 134.00" xmlns="http://www.w3.org/2000/svg" xmlns:xlink="http://www.w3.org/1999/xlink">
<g id="graph0" class="graph" transform="scale(1 1) rotate(0) translate(4 130)">
<title>netspeak::StarQuery::Unit::Unit</title>
<!-- Node1 -->
<g id="Node000001" class="node">
<title>Node1</title>
<g id="a_Node000001"><a xlink:title=" ">
<polygon fill="#999999" stroke="#666666" points="268,-78 152,-78 152,-48 268,-48 268,-78"/>
<text text-anchor="start" x="160" y="-66" font-family="Helvetica,sans-Serif" font-size="10.00">netspeak::StarQuery</text>
<text text-anchor="middle" x="210" y="-55" font-family="Helvetica,sans-Serif" font-size="10.00">::Unit::Unit</text>
</a>
</g>
</g>
<!-- Node2 -->
<g id="Node000002" class="node">
<title>Node2</title>
<g id="a_Node000002"><a xlink:href="structnetspeak_1_1StarQuery_1_1Unit.html#aa3552eb59e1a918f1e4809fcbfbc9248" target="_top" xlink:title=" ">
<polygon fill="white" stroke="#666666" points="116,-126 0,-126 0,-96 116,-96 116,-126"/>
<text text-anchor="start" x="8" y="-114" font-family="Helvetica,sans-Serif" font-size="10.00">netspeak::StarQuery</text>
<text text-anchor="middle" x="58" y="-103" font-family="Helvetica,sans-Serif" font-size="10.00">::Unit::new_qmark</text>
</a>
</g>
</g>
<!-- Node1&#45;&gt;Node2 -->
<g id="edge1_Node000001_Node000002" class="edge">
<title>Node1&#45;&gt;Node2</title>
<g id="a_edge1_Node000001_Node000002"><a xlink:title=" ">
<path fill="none" stroke="#63b8ff" d="M152.11,-81.21C136.85,-86.09 120.53,-91.31 105.88,-96"/>
<polygon fill="#63b8ff" stroke="#63b8ff" points="153.49,-84.44 161.95,-78.06 151.36,-77.77 153.49,-84.44"/>
</a>
</g>
</g>
<!-- Node3 -->
<g id="Node000003" class="node">
<title>Node3</title>
<g id="a_Node000003"><a xlink:href="structnetspeak_1_1StarQuery_1_1Unit.html#aa7158f6ad528959580c93d9100bf5a86" target="_top" xlink:title=" ">
<polygon fill="white" stroke="#666666" points="116,-78 0,-78 0,-48 116,-48 116,-78"/>
<text text-anchor="start" x="8" y="-66" font-family="Helvetica,sans-Serif" font-size="10.00">netspeak::StarQuery</text>
<text text-anchor="middle" x="58" y="-55" font-family="Helvetica,sans-Serif" font-size="10.00">::Unit::new_star</text>
</a>
</g>
</g>
<!-- Node1&#45;&gt;Node3 -->
<g id="edge2_Node000001_Node000003" class="edge">
<title>Node1&#45;&gt;Node3</title>
<g id="a_edge2_Node000001_Node000003"><a xlink:title=" ">
<path fill="none" stroke="#63b8ff" d="M141.69,-63C133.27,-63 124.72,-63 116.47,-63"/>
<polygon fill="#63b8ff" stroke="#63b8ff" points="141.86,-66.5 151.86,-63 141.86,-59.5 141.86,-66.5"/>
</a>
</g>
</g>
<!-- Node4 -->
<g id="Node000004" class="node">
<title>Node4</title>
<g id="a_Node000004"><a xlink:href="structnetspeak_1_1StarQuery_1_1Unit.html#a6d67c78813f8cdd55415ea050f38ec6f" target="_top" xlink:title=" ">
<polygon fill="white" stroke="#666666" points="116,-30 0,-30 0,0 116,0 116,-30"/>
<text text-anchor="start" x="8" y="-18" font-family="Helvetica,sans-Serif" font-size="10.00">netspeak::StarQuery</text>
<text text-anchor="middle" x="58" y="-7" font-family="Helvetica,sans-Serif" font-size="10.00">::Unit::new_word</text>
</a>
</g>
</g>
<!-- Node1&#45;&gt;Node4 -->
<g id="edge3_Node000001_Node000004" class="edge">
<title>Node1&#45;&gt;Node4</title>
<g id="a_edge3_Node000001_Node000004"><a xlink:title=" ">
<path fill="none" stroke="#63b8ff" d="M152.11,-44.79C136.85,-39.91 120.53,-34.69 105.88,-30"/>
<polygon fill="#63b8ff" stroke="#63b8ff" points="151.36,-48.23 161.95,-47.94 153.49,-41.56 151.36,-48.23"/>
</a>
</g>
</g>
</g>
</svg>
