<?xml version="1.0" encoding="UTF-8" standalone="no"?>
<!DOCTYPE svg PUBLIC "-//W3C//DTD SVG 1.1//EN"
 "http://www.w3.org/Graphics/SVG/1.1/DTD/svg11.dtd">
<!-- Generated by graphviz version 2.43.0 (0)
 -->
<!-- Title: netspeak::util::tracable_runtime_error Pages: 1 -->
<svg width="304pt" height="290pt"
 viewBox="0.00 0.00 303.50 290.00" xmlns="http://www.w3.org/2000/svg" xmlns:xlink="http://www.w3.org/1999/xlink">
<g id="graph0" class="graph" transform="scale(1 1) rotate(0) translate(4 286)">
<title>netspeak::util::tracable_runtime_error</title>
<!-- Node1 -->
<g id="Node000001" class="node">
<title>Node1</title>
<g id="a_Node000001"><a xlink:title=" ">
<polygon fill="#999999" stroke="transparent" points="218.5,-197 69.5,-197 69.5,-122 218.5,-122 218.5,-197"/>
<text text-anchor="start" x="88" y="-184.5" font-family="Helvetica,sans-Serif" font-size="10.00">netspeak::util::tracable</text>
<text text-anchor="start" x="108" y="-173.5" font-family="Helvetica,sans-Serif" font-size="10.00">_runtime_error</text>
<text text-anchor="start" x="142.5" y="-158.5" font-family="Helvetica,sans-Serif" font-size="10.00"> </text>
<text text-anchor="start" x="74" y="-143.5" font-family="Helvetica,sans-Serif" font-size="10.00">+</text>
<text text-anchor="start" x="87" y="-143.5" font-family="Helvetica,sans-Serif" font-size="10.00">tracable_runtime_error()</text>
<text text-anchor="start" x="74" y="-128.5" font-family="Helvetica,sans-Serif" font-size="10.00">+</text>
<text text-anchor="start" x="87" y="-128.5" font-family="Helvetica,sans-Serif" font-size="10.00">~tracable_runtime_error()</text>
<polygon fill="#666666" stroke="#666666" points="70,-168.5 70,-168.5 219,-168.5 219,-168.5 70,-168.5"/>
<polygon fill="#666666" stroke="#666666" points="70,-153.5 70,-153.5 219,-153.5 219,-153.5 70,-153.5"/>
<polygon fill="none" stroke="#666666" points="69.5,-122 69.5,-197 218.5,-197 218.5,-122 69.5,-122"/>
</a>
</g>
</g>
<!-- Node3 -->
<g id="Node000003" class="node">
<title>Node3</title>
<g id="a_Node000003"><a xlink:href="structnetspeak_1_1invalid__query__error.html" target="_top" xlink:title=" ">
<polygon fill="white" stroke="transparent" points="132,-80.5 0,-80.5 0,-5.5 132,-5.5 132,-80.5"/>
<text text-anchor="start" x="7" y="-68" font-family="Helvetica,sans-Serif" font-size="10.00">netspeak::invalid_query</text>
<text text-anchor="start" x="51.5" y="-57" font-family="Helvetica,sans-Serif" font-size="10.00">_error</text>
<text text-anchor="start" x="64" y="-42" font-family="Helvetica,sans-Serif" font-size="10.00"> </text>
<text text-anchor="start" x="4" y="-27" font-family="Helvetica,sans-Serif" font-size="10.00">+</text>
<text text-anchor="start" x="17" y="-27" font-family="Helvetica,sans-Serif" font-size="10.00">invalid_query_error()</text>
<text text-anchor="start" x="4" y="-12" font-family="Helvetica,sans-Serif" font-size="10.00">+</text>
<text text-anchor="start" x="17" y="-12" font-family="Helvetica,sans-Serif" font-size="10.00">~invalid_query_error()</text>
<polygon fill="#666666" stroke="#666666" points="0,-52 0,-52 132,-52 132,-52 0,-52"/>
<polygon fill="#666666" stroke="#666666" points="0,-37 0,-37 132,-37 132,-37 0,-37"/>
<polygon fill="none" stroke="#666666" points="0,-5.5 0,-80.5 132,-80.5 132,-5.5 0,-5.5"/>
</a>
</g>
</g>
<!-- Node1&#45;&gt;Node3 -->
<g id="edge2_Node000001_Node000003" class="edge">
<title>Node1&#45;&gt;Node3</title>
<g id="a_edge2_Node000001_Node000003"><a xlink:title=" ">
<path fill="none" stroke="#63b8ff" d="M113.27,-113.4C105.86,-102.52 98.03,-91.02 90.93,-80.59"/>
<polygon fill="none" stroke="#63b8ff" points="110.58,-115.66 119.11,-121.96 116.37,-111.72 110.58,-115.66"/>
</a>
</g>
</g>
<!-- Node4 -->
<g id="Node000004" class="node">
<title>Node4</title>
<g id="a_Node000004"><a xlink:href="structnetspeak_1_1util_1_1format__properties__error.html" target="_top" xlink:title=" ">
<polygon fill="white" stroke="transparent" points="295.5,-86 150.5,-86 150.5,0 295.5,0 295.5,-86"/>
<text text-anchor="start" x="170.5" y="-74" font-family="Helvetica,sans-Serif" font-size="10.00">netspeak::util::format</text>
<text text-anchor="start" x="181.5" y="-63" font-family="Helvetica,sans-Serif" font-size="10.00">_properties_error</text>
<text text-anchor="start" x="221.5" y="-48" font-family="Helvetica,sans-Serif" font-size="10.00"> </text>
<text text-anchor="start" x="155" y="-33" font-family="Helvetica,sans-Serif" font-size="10.00">+</text>
<text text-anchor="start" x="168" y="-33" font-family="Helvetica,sans-Serif" font-size="10.00">format_properties_error()</text>
<text text-anchor="start" x="155" y="-18" font-family="Helvetica,sans-Serif" font-size="10.00">+</text>
<text text-anchor="start" x="168" y="-18" font-family="Helvetica,sans-Serif" font-size="10.00">~format_properties</text>
<text text-anchor="start" x="168" y="-7" font-family="Helvetica,sans-Serif" font-size="10.00">_error()</text>
<polygon fill="#666666" stroke="#666666" points="151,-58 151,-58 296,-58 296,-58 151,-58"/>
<polygon fill="#666666" stroke="#666666" points="151,-43 151,-43 296,-43 296,-43 151,-43"/>
<polygon fill="none" stroke="#666666" points="150.5,0 150.5,-86 295.5,-86 295.5,0 150.5,0"/>
</a>
</g>
</g>
<!-- Node1&#45;&gt;Node4 -->
<g id="edge3_Node000001_Node000004" class="edge">
<title>Node1&#45;&gt;Node4</title>
<g id="a_edge3_Node000001_Node000004"><a xlink:title=" ">
<path fill="none" stroke="#63b8ff" d="M175.05,-113.49C181.26,-104.49 187.76,-95.07 193.9,-86.18"/>
<polygon fill="none" stroke="#63b8ff" points="172.01,-111.74 169.21,-121.96 177.77,-115.71 172.01,-111.74"/>
</a>
</g>
</g>
<!-- Node2 -->
<g id="Node000002" class="node">
<title>Node2</title>
<g id="a_Node000002"><a xlink:title=" ">
<polygon fill="white" stroke="transparent" points="193,-282 95,-282 95,-233 193,-233 193,-282"/>
<text text-anchor="start" x="100" y="-269.5" font-family="Helvetica,sans-Serif" font-size="10.00">std::runtime_error</text>
<text text-anchor="start" x="142" y="-254.5" font-family="Helvetica,sans-Serif" font-size="10.00"> </text>
<text text-anchor="start" x="142" y="-239.5" font-family="Helvetica,sans-Serif" font-size="10.00"> </text>
<polygon fill="#666666" stroke="#666666" points="95,-264.5 95,-264.5 193,-264.5 193,-264.5 95,-264.5"/>
<polygon fill="#666666" stroke="#666666" points="95,-249.5 95,-249.5 193,-249.5 193,-249.5 95,-249.5"/>
<polygon fill="none" stroke="#666666" points="95,-233 95,-282 193,-282 193,-233 95,-233"/>
</a>
</g>
</g>
<!-- Node2&#45;&gt;Node1 -->
<g id="edge1_Node000001_Node000002" class="edge">
<title>Node2&#45;&gt;Node1</title>
<g id="a_edge1_Node000001_Node000002"><a xlink:title=" ">
<path fill="none" stroke="#63b8ff" d="M144,-222.68C144,-214.38 144,-205.46 144,-197.04"/>
<polygon fill="none" stroke="#63b8ff" points="140.5,-222.77 144,-232.77 147.5,-222.77 140.5,-222.77"/>
</a>
</g>
</g>
</g>
</svg>
