<?xml version="1.0" encoding="UTF-8" standalone="no"?>
<!DOCTYPE svg PUBLIC "-//W3C//DTD SVG 1.1//EN"
 "http://www.w3.org/Graphics/SVG/1.1/DTD/svg11.dtd">
<!-- Generated by graphviz version 2.43.0 (0)
 -->
<!-- Title: netspeak::value::generator&lt; quadruple&lt; T1, T2, T3, T4 &gt; &gt;::randomized Pages: 1 -->
<svg width="359pt" height="187pt"
 viewBox="0.00 0.00 359.00 186.50" xmlns="http://www.w3.org/2000/svg" xmlns:xlink="http://www.w3.org/1999/xlink">
<g id="graph0" class="graph" transform="scale(1 1) rotate(0) translate(4 182.5)">
<title>netspeak::value::generator&lt; quadruple&lt; T1, T2, T3, T4 &gt; &gt;::randomized</title>
<!-- Node1 -->
<g id="Node000001" class="node">
<title>Node1</title>
<g id="a_Node000001"><a xlink:title=" ">
<polygon fill="#999999" stroke="#666666" points="148,-115.5 0,-115.5 0,-74.5 148,-74.5 148,-115.5"/>
<text text-anchor="start" x="8" y="-103.5" font-family="Helvetica,sans-Serif" font-size="10.00">netspeak::value::generator</text>
<text text-anchor="start" x="8" y="-92.5" font-family="Helvetica,sans-Serif" font-size="10.00">&lt; quadruple&lt; T1, T2, T3,</text>
<text text-anchor="middle" x="74" y="-81.5" font-family="Helvetica,sans-Serif" font-size="10.00"> T4 &gt; &gt;::randomized</text>
</a>
</g>
</g>
<!-- Node2 -->
<g id="Node000002" class="node">
<title>Node2</title>
<g id="a_Node000002"><a xlink:href="classnetspeak_1_1value_1_1quadruple.html#ad39c4759bc75b68caf8fcf9d63d83f32" target="_top" xlink:title=" ">
<polygon fill="white" stroke="#666666" points="351,-178.5 184,-178.5 184,-159.5 351,-159.5 351,-178.5"/>
<text text-anchor="middle" x="267.5" y="-166.5" font-family="Helvetica,sans-Serif" font-size="10.00">netspeak::value::quadruple::e1</text>
</a>
</g>
</g>
<!-- Node1&#45;&gt;Node2 -->
<g id="edge1_Node000001_Node000002" class="edge">
<title>Node1&#45;&gt;Node2</title>
<g id="a_edge1_Node000001_Node000002"><a xlink:title=" ">
<path fill="none" stroke="#63b8ff" d="M109.31,-115.55C130.27,-127.36 157.97,-141.65 184,-151 190.21,-153.23 196.79,-155.23 203.41,-157.02"/>
<polygon fill="#63b8ff" stroke="#63b8ff" points="202.56,-160.41 213.11,-159.48 204.28,-153.63 202.56,-160.41"/>
</a>
</g>
</g>
<!-- Node3 -->
<g id="Node000003" class="node">
<title>Node3</title>
<g id="a_Node000003"><a xlink:href="classnetspeak_1_1value_1_1quadruple.html#a5bf0442db99788dc3835d9be853ecf00" target="_top" xlink:title=" ">
<polygon fill="white" stroke="#666666" points="351,-141.5 184,-141.5 184,-122.5 351,-122.5 351,-141.5"/>
<text text-anchor="middle" x="267.5" y="-129.5" font-family="Helvetica,sans-Serif" font-size="10.00">netspeak::value::quadruple::e2</text>
</a>
</g>
</g>
<!-- Node1&#45;&gt;Node3 -->
<g id="edge2_Node000001_Node000003" class="edge">
<title>Node1&#45;&gt;Node3</title>
<g id="a_edge2_Node000001_Node000003"><a xlink:title=" ">
<path fill="none" stroke="#63b8ff" d="M148.22,-109.15C167.73,-112.92 188.56,-116.94 207.23,-120.55"/>
<polygon fill="#63b8ff" stroke="#63b8ff" points="206.57,-123.99 217.06,-122.45 207.9,-117.11 206.57,-123.99"/>
</a>
</g>
</g>
<!-- Node4 -->
<g id="Node000004" class="node">
<title>Node4</title>
<g id="a_Node000004"><a xlink:href="classnetspeak_1_1value_1_1quadruple.html#a19b8695d26a93073e7afca44c2f8790c" target="_top" xlink:title=" ">
<polygon fill="white" stroke="#666666" points="351,-104.5 184,-104.5 184,-85.5 351,-85.5 351,-104.5"/>
<text text-anchor="middle" x="267.5" y="-92.5" font-family="Helvetica,sans-Serif" font-size="10.00">netspeak::value::quadruple::e3</text>
</a>
</g>
</g>
<!-- Node1&#45;&gt;Node4 -->
<g id="edge3_Node000001_Node000004" class="edge">
<title>Node1&#45;&gt;Node4</title>
<g id="a_edge3_Node000001_Node000004"><a xlink:title=" ">
<path fill="none" stroke="#63b8ff" d="M148.22,-95C156.57,-95 165.16,-95 173.71,-95"/>
<polygon fill="#63b8ff" stroke="#63b8ff" points="173.73,-98.5 183.73,-95 173.73,-91.5 173.73,-98.5"/>
</a>
</g>
</g>
<!-- Node5 -->
<g id="Node000005" class="node">
<title>Node5</title>
<g id="a_Node000005"><a xlink:href="classnetspeak_1_1value_1_1quadruple.html#ad3063cff6a86e51c886a2c9316d043c3" target="_top" xlink:title=" ">
<polygon fill="white" stroke="#666666" points="351,-67.5 184,-67.5 184,-48.5 351,-48.5 351,-67.5"/>
<text text-anchor="middle" x="267.5" y="-55.5" font-family="Helvetica,sans-Serif" font-size="10.00">netspeak::value::quadruple::e4</text>
</a>
</g>
</g>
<!-- Node1&#45;&gt;Node5 -->
<g id="edge4_Node000001_Node000005" class="edge">
<title>Node1&#45;&gt;Node5</title>
<g id="a_edge4_Node000001_Node000005"><a xlink:title=" ">
<path fill="none" stroke="#63b8ff" d="M148.22,-80.85C167.73,-77.08 188.56,-73.06 207.23,-69.45"/>
<polygon fill="#63b8ff" stroke="#63b8ff" points="207.9,-72.89 217.06,-67.55 206.57,-66.01 207.9,-72.89"/>
</a>
</g>
</g>
<!-- Node6 -->
<g id="Node000006" class="node">
<title>Node6</title>
<g id="a_Node000006"><a xlink:href="structnetspeak_1_1value_1_1generator.html#a702144b3db3fdf65c4faa870aab3dc73" target="_top" xlink:title=" ">
<polygon fill="white" stroke="#666666" points="341.5,-30 193.5,-30 193.5,0 341.5,0 341.5,-30"/>
<text text-anchor="start" x="201.5" y="-18" font-family="Helvetica,sans-Serif" font-size="10.00">netspeak::value::generator</text>
<text text-anchor="middle" x="267.5" y="-7" font-family="Helvetica,sans-Serif" font-size="10.00">::randomized</text>
</a>
</g>
</g>
<!-- Node1&#45;&gt;Node6 -->
<g id="edge5_Node000001_Node000006" class="edge">
<title>Node1&#45;&gt;Node6</title>
<g id="a_edge5_Node000001_Node000006"><a xlink:title=" ">
<path fill="none" stroke="#63b8ff" d="M112.09,-74.27C132.84,-63.19 159.4,-49.85 184,-40 189.84,-37.66 195.98,-35.42 202.17,-33.3"/>
<polygon fill="#63b8ff" stroke="#63b8ff" points="203.5,-36.55 211.9,-30.09 201.3,-29.9 203.5,-36.55"/>
</a>
</g>
</g>
</g>
</svg>
