<?xml version="1.0" encoding="UTF-8" standalone="no"?>
<!DOCTYPE svg PUBLIC "-//W3C//DTD SVG 1.1//EN"
 "http://www.w3.org/Graphics/SVG/1.1/DTD/svg11.dtd">
<!-- Generated by graphviz version 2.43.0 (0)
 -->
<!-- Title: netspeak::value::value_traits::print_to Pages: 1 -->
<svg width="486pt" height="489pt"
 viewBox="0.00 0.00 486.00 489.00" xmlns="http://www.w3.org/2000/svg" xmlns:xlink="http://www.w3.org/1999/xlink">
<g id="graph0" class="graph" transform="scale(1 1) rotate(0) translate(4 485)">
<title>netspeak::value::value_traits::print_to</title>
<!-- Node1 -->
<g id="Node000001" class="node">
<title>Node1</title>
<g id="a_Node000001"><a xlink:title=" ">
<polygon fill="#999999" stroke="#666666" points="478,-250 350,-250 350,-220 478,-220 478,-250"/>
<text text-anchor="start" x="358" y="-238" font-family="Helvetica,sans-Serif" font-size="10.00">netspeak::value::value</text>
<text text-anchor="middle" x="414" y="-227" font-family="Helvetica,sans-Serif" font-size="10.00">_traits::print_to</text>
</a>
</g>
</g>
<!-- Node2 -->
<g id="Node000002" class="node">
<title>Node2</title>
<g id="a_Node000002"><a xlink:href="classnetspeak_1_1invertedindex_1_1Record.html#a8a3a96f35d3b255ecf232bc1bbd0c7b7" target="_top" xlink:title=" ">
<polygon fill="white" stroke="#666666" points="310,-481 175,-481 175,-451 310,-451 310,-481"/>
<text text-anchor="start" x="183" y="-469" font-family="Helvetica,sans-Serif" font-size="10.00">netspeak::invertedindex</text>
<text text-anchor="middle" x="242.5" y="-458" font-family="Helvetica,sans-Serif" font-size="10.00">::Record::print</text>
</a>
</g>
</g>
<!-- Node1&#45;&gt;Node2 -->
<g id="edge1_Node000001_Node000002" class="edge">
<title>Node1&#45;&gt;Node2</title>
<g id="a_edge1_Node000001_Node000002"><a xlink:title=" ">
<path fill="none" stroke="#63b8ff" d="M407.69,-260.17C397.29,-303.45 370.14,-392.12 314,-442 310.13,-445.44 305.75,-448.38 301.12,-450.91"/>
<polygon fill="#63b8ff" stroke="#63b8ff" points="411.16,-260.72 409.99,-250.19 404.33,-259.15 411.16,-260.72"/>
</a>
</g>
</g>
<!-- Node4 -->
<g id="Node000004" class="node">
<title>Node4</title>
<g id="a_Node000004"><a xlink:href="structnetspeak_1_1value_1_1value__traits_3_01big__string_01_4.html#af64fe313bc1dc5672492ee44f104ad81" target="_top" xlink:title=" ">
<polygon fill="white" stroke="#666666" points="306.5,-432.5 178.5,-432.5 178.5,-391.5 306.5,-391.5 306.5,-432.5"/>
<text text-anchor="start" x="186.5" y="-420.5" font-family="Helvetica,sans-Serif" font-size="10.00">netspeak::value::value</text>
<text text-anchor="start" x="186.5" y="-409.5" font-family="Helvetica,sans-Serif" font-size="10.00">_traits&lt; big_string &gt;</text>
<text text-anchor="middle" x="242.5" y="-398.5" font-family="Helvetica,sans-Serif" font-size="10.00">::print_to</text>
</a>
</g>
</g>
<!-- Node1&#45;&gt;Node4 -->
<g id="edge3_Node000001_Node000004" class="edge">
<title>Node1&#45;&gt;Node4</title>
<g id="a_edge3_Node000001_Node000004"><a xlink:title=" ">
<path fill="none" stroke="#63b8ff" d="M402.33,-259.34C387.04,-291.64 356.06,-348.58 314,-383 310.21,-386.1 306.04,-388.91 301.69,-391.45"/>
<polygon fill="#63b8ff" stroke="#63b8ff" points="405.55,-260.7 406.56,-250.16 399.19,-257.77 405.55,-260.7"/>
</a>
</g>
</g>
<!-- Node5 -->
<g id="Node000005" class="node">
<title>Node5</title>
<g id="a_Node000005"><a xlink:href="structnetspeak_1_1value_1_1value__traits_3_01pair_3_01T1_00_01T2_01_4_01_4.html#ae1f8bdc5c12906eb28429cf4a90e8771" target="_top" xlink:title=" ">
<polygon fill="white" stroke="#666666" points="306.5,-373.5 178.5,-373.5 178.5,-332.5 306.5,-332.5 306.5,-373.5"/>
<text text-anchor="start" x="186.5" y="-361.5" font-family="Helvetica,sans-Serif" font-size="10.00">netspeak::value::value</text>
<text text-anchor="start" x="186.5" y="-350.5" font-family="Helvetica,sans-Serif" font-size="10.00">_traits&lt; pair&lt; T1, T2</text>
<text text-anchor="middle" x="242.5" y="-339.5" font-family="Helvetica,sans-Serif" font-size="10.00"> &gt; &gt;::println_to</text>
</a>
</g>
</g>
<!-- Node1&#45;&gt;Node5 -->
<g id="edge4_Node000001_Node000005" class="edge">
<title>Node1&#45;&gt;Node5</title>
<g id="a_edge4_Node000001_Node000005"><a xlink:title=" ">
<path fill="none" stroke="#63b8ff" d="M392.25,-257.59C373.35,-277.17 343.88,-305.21 314,-324 309.18,-327.03 303.99,-329.86 298.7,-332.47"/>
<polygon fill="#63b8ff" stroke="#63b8ff" points="394.85,-259.95 399.2,-250.29 389.77,-255.12 394.85,-259.95"/>
</a>
</g>
</g>
<!-- Node6 -->
<g id="Node000006" class="node">
<title>Node6</title>
<g id="a_Node000006"><a xlink:href="structnetspeak_1_1value_1_1value__traits_3_01quadruple_3_01T1_00_01T2_00_01T3_00_01T4_01_4_01_4.html#ab08be69ac6500534ab43659d674f2b84" target="_top" xlink:title=" ">
<polygon fill="white" stroke="#666666" points="314,-314.5 171,-314.5 171,-273.5 314,-273.5 314,-314.5"/>
<text text-anchor="start" x="179" y="-302.5" font-family="Helvetica,sans-Serif" font-size="10.00">netspeak::value::value</text>
<text text-anchor="start" x="179" y="-291.5" font-family="Helvetica,sans-Serif" font-size="10.00">_traits&lt; quadruple&lt; T1,</text>
<text text-anchor="middle" x="242.5" y="-280.5" font-family="Helvetica,sans-Serif" font-size="10.00"> T2, T3, T4 &gt; &gt;::println_to</text>
</a>
</g>
</g>
<!-- Node1&#45;&gt;Node6 -->
<g id="edge5_Node000001_Node000006" class="edge">
<title>Node1&#45;&gt;Node6</title>
<g id="a_edge5_Node000001_Node000006"><a xlink:title=" ">
<path fill="none" stroke="#63b8ff" d="M360.19,-253.38C341.93,-259.74 321.35,-266.9 302.62,-273.42"/>
<polygon fill="#63b8ff" stroke="#63b8ff" points="361.5,-256.63 369.79,-250.04 359.19,-250.02 361.5,-256.63"/>
</a>
</g>
</g>
<!-- Node7 -->
<g id="Node000007" class="node">
<title>Node7</title>
<g id="a_Node000007"><a xlink:href="structnetspeak_1_1value_1_1value__traits_3_01triple_3_01T1_00_01T2_00_01T3_01_4_01_4.html#a2448429419dad2afbf7f09b93bd6094f" target="_top" xlink:title=" ">
<polygon fill="white" stroke="#666666" points="306.5,-255.5 178.5,-255.5 178.5,-214.5 306.5,-214.5 306.5,-255.5"/>
<text text-anchor="start" x="186.5" y="-243.5" font-family="Helvetica,sans-Serif" font-size="10.00">netspeak::value::value</text>
<text text-anchor="start" x="186.5" y="-232.5" font-family="Helvetica,sans-Serif" font-size="10.00">_traits&lt; triple&lt; T1, T2,</text>
<text text-anchor="middle" x="242.5" y="-221.5" font-family="Helvetica,sans-Serif" font-size="10.00"> T3 &gt; &gt;::println_to</text>
</a>
</g>
</g>
<!-- Node1&#45;&gt;Node7 -->
<g id="edge6_Node000001_Node000007" class="edge">
<title>Node1&#45;&gt;Node7</title>
<g id="a_edge6_Node000001_Node000007"><a xlink:title=" ">
<path fill="none" stroke="#63b8ff" d="M339.84,-235C328.79,-235 317.48,-235 306.67,-235"/>
<polygon fill="#63b8ff" stroke="#63b8ff" points="339.88,-238.5 349.88,-235 339.88,-231.5 339.88,-238.5"/>
</a>
</g>
</g>
<!-- Node8 -->
<g id="Node000008" class="node">
<title>Node8</title>
<g id="a_Node000008"><a xlink:href="structnetspeak_1_1value_1_1value__traits_3_01big__string_01_4.html#aafd73d56b1d2c1aba7b2b532f7160e15" target="_top" xlink:title=" ">
<polygon fill="white" stroke="#666666" points="306.5,-196.5 178.5,-196.5 178.5,-155.5 306.5,-155.5 306.5,-196.5"/>
<text text-anchor="start" x="186.5" y="-184.5" font-family="Helvetica,sans-Serif" font-size="10.00">netspeak::value::value</text>
<text text-anchor="start" x="186.5" y="-173.5" font-family="Helvetica,sans-Serif" font-size="10.00">_traits&lt; big_string &gt;</text>
<text text-anchor="middle" x="242.5" y="-162.5" font-family="Helvetica,sans-Serif" font-size="10.00">::println_to</text>
</a>
</g>
</g>
<!-- Node1&#45;&gt;Node8 -->
<g id="edge7_Node000001_Node000008" class="edge">
<title>Node1&#45;&gt;Node8</title>
<g id="a_edge7_Node000001_Node000008"><a xlink:title=" ">
<path fill="none" stroke="#63b8ff" d="M360.19,-216.62C341.93,-210.26 321.35,-203.1 302.62,-196.58"/>
<polygon fill="#63b8ff" stroke="#63b8ff" points="359.19,-219.98 369.79,-219.96 361.5,-213.37 359.19,-219.98"/>
</a>
</g>
</g>
<!-- Node9 -->
<g id="Node000009" class="node">
<title>Node9</title>
<g id="a_Node000009"><a xlink:href="structnetspeak_1_1value_1_1value__traits_3_01std_1_1string_01_4.html#a1e63526973583a2e146bb1a1db170986" target="_top" xlink:title=" ">
<polygon fill="white" stroke="#666666" points="306.5,-137.5 178.5,-137.5 178.5,-96.5 306.5,-96.5 306.5,-137.5"/>
<text text-anchor="start" x="186.5" y="-125.5" font-family="Helvetica,sans-Serif" font-size="10.00">netspeak::value::value</text>
<text text-anchor="start" x="186.5" y="-114.5" font-family="Helvetica,sans-Serif" font-size="10.00">_traits&lt; std::string &gt;</text>
<text text-anchor="middle" x="242.5" y="-103.5" font-family="Helvetica,sans-Serif" font-size="10.00">::println_to</text>
</a>
</g>
</g>
<!-- Node1&#45;&gt;Node9 -->
<g id="edge8_Node000001_Node000009" class="edge">
<title>Node1&#45;&gt;Node9</title>
<g id="a_edge8_Node000001_Node000009"><a xlink:title=" ">
<path fill="none" stroke="#63b8ff" d="M392.15,-212.76C373.18,-193.48 343.67,-165.79 314,-147 308.72,-143.66 303,-140.53 297.18,-137.65"/>
<polygon fill="#63b8ff" stroke="#63b8ff" points="389.65,-215.22 399.13,-219.96 394.68,-210.34 389.65,-215.22"/>
</a>
</g>
</g>
<!-- Node10 -->
<g id="Node000010" class="node">
<title>Node10</title>
<g id="a_Node000010"><a xlink:href="structnetspeak_1_1value_1_1value__traits.html#a62dd263b6d365ae7d14b77fa253e62df" target="_top" xlink:title=" ">
<polygon fill="white" stroke="#666666" points="306.5,-78 178.5,-78 178.5,-48 306.5,-48 306.5,-78"/>
<text text-anchor="start" x="186.5" y="-66" font-family="Helvetica,sans-Serif" font-size="10.00">netspeak::value::value</text>
<text text-anchor="middle" x="242.5" y="-55" font-family="Helvetica,sans-Serif" font-size="10.00">_traits::println_to</text>
</a>
</g>
</g>
<!-- Node1&#45;&gt;Node10 -->
<g id="edge9_Node000001_Node000010" class="edge">
<title>Node1&#45;&gt;Node10</title>
<g id="a_edge9_Node000001_Node000010"><a xlink:title=" ">
<path fill="none" stroke="#63b8ff" d="M402.53,-210.52C387.48,-178.1 356.75,-121.14 314,-88 309.07,-84.18 303.52,-80.92 297.74,-78.13"/>
<polygon fill="#63b8ff" stroke="#63b8ff" points="399.39,-212.07 406.69,-219.74 405.77,-209.19 399.39,-212.07"/>
</a>
</g>
</g>
<!-- Node11 -->
<g id="Node000011" class="node">
<title>Node11</title>
<g id="a_Node000011"><a xlink:href="classnetspeak_1_1invertedindex_1_1InvertedFileWriter.html#ab0ee3e2c4ff6ee5c79b55f6bee575d3d" target="_top" xlink:title=" ">
<polygon fill="white" stroke="#666666" points="313,-30 172,-30 172,0 313,0 313,-30"/>
<text text-anchor="start" x="180" y="-18" font-family="Helvetica,sans-Serif" font-size="10.00">netspeak::invertedindex</text>
<text text-anchor="middle" x="242.5" y="-7" font-family="Helvetica,sans-Serif" font-size="10.00">::InvertedFileWriter::write</text>
</a>
</g>
</g>
<!-- Node1&#45;&gt;Node11 -->
<g id="edge10_Node000001_Node000011" class="edge">
<title>Node1&#45;&gt;Node11</title>
<g id="a_edge10_Node000001_Node000011"><a xlink:title=" ">
<path fill="none" stroke="#63b8ff" d="M406.98,-209.98C395.75,-168.57 367.73,-85.71 314,-39 310.1,-35.61 305.69,-32.69 301.04,-30.18"/>
<polygon fill="#63b8ff" stroke="#63b8ff" points="403.63,-211.01 409.54,-219.8 410.4,-209.25 403.63,-211.01"/>
</a>
</g>
</g>
<!-- Node3 -->
<g id="Node000003" class="node">
<title>Node3</title>
<g id="a_Node000003"><a xlink:href="namespacenetspeak_1_1invertedindex.html#add1483a386182f1d7216a4023ba4b151" target="_top" xlink:title=" ">
<polygon fill="white" stroke="#666666" points="135,-481 0,-481 0,-451 135,-451 135,-481"/>
<text text-anchor="start" x="8" y="-469" font-family="Helvetica,sans-Serif" font-size="10.00">netspeak::invertedindex</text>
<text text-anchor="middle" x="67.5" y="-458" font-family="Helvetica,sans-Serif" font-size="10.00">::operator&lt;&lt;</text>
</a>
</g>
</g>
<!-- Node2&#45;&gt;Node3 -->
<g id="edge2_Node000002_Node000003" class="edge">
<title>Node2&#45;&gt;Node3</title>
<g id="a_edge2_Node000002_Node000003"><a xlink:title=" ">
<path fill="none" stroke="#63b8ff" d="M164.51,-466C154.74,-466 144.8,-466 135.21,-466"/>
<polygon fill="#63b8ff" stroke="#63b8ff" points="164.61,-469.5 174.61,-466 164.61,-462.5 164.61,-469.5"/>
</a>
</g>
</g>
</g>
</svg>
