<?xml version="1.0" encoding="UTF-8" standalone="no"?>
<!DOCTYPE svg PUBLIC "-//W3C//DTD SVG 1.1//EN"
 "http://www.w3.org/Graphics/SVG/1.1/DTD/svg11.dtd">
<!-- Generated by graphviz version 2.43.0 (0)
 -->
<!-- Title: netspeak::invertedindex::Properties::default_filename Pages: 1 -->
<svg width="505pt" height="124pt"
 viewBox="0.00 0.00 505.00 123.50" xmlns="http://www.w3.org/2000/svg" xmlns:xlink="http://www.w3.org/1999/xlink">
<g id="graph0" class="graph" transform="scale(1 1) rotate(0) translate(4 119.5)">
<title>netspeak::invertedindex::Properties::default_filename</title>
<!-- Node1 -->
<g id="Node000001" class="node">
<title>Node1</title>
<g id="a_Node000001"><a xlink:title=" ">
<polygon fill="#999999" stroke="#666666" points="497,-59.5 362,-59.5 362,-18.5 497,-18.5 497,-59.5"/>
<text text-anchor="start" x="370" y="-47.5" font-family="Helvetica,sans-Serif" font-size="10.00">netspeak::invertedindex</text>
<text text-anchor="start" x="370" y="-36.5" font-family="Helvetica,sans-Serif" font-size="10.00">::Properties::default</text>
<text text-anchor="middle" x="429.5" y="-25.5" font-family="Helvetica,sans-Serif" font-size="10.00">_filename</text>
</a>
</g>
</g>
<!-- Node2 -->
<g id="Node000002" class="node">
<title>Node2</title>
<g id="a_Node000002"><a xlink:href="classnetspeak_1_1invertedindex_1_1Indexer.html#a01a9448341a44ad65f23452dd8487961" target="_top" xlink:title=" ">
<polygon fill="white" stroke="#666666" points="326,-78 191,-78 191,-48 326,-48 326,-78"/>
<text text-anchor="start" x="199" y="-66" font-family="Helvetica,sans-Serif" font-size="10.00">netspeak::invertedindex</text>
<text text-anchor="middle" x="258.5" y="-55" font-family="Helvetica,sans-Serif" font-size="10.00">::Indexer::index</text>
</a>
</g>
</g>
<!-- Node1&#45;&gt;Node2 -->
<g id="edge1_Node000001_Node000002" class="edge">
<title>Node1&#45;&gt;Node2</title>
<g id="a_edge1_Node000001_Node000002"><a xlink:title=" ">
<path fill="none" stroke="#63b8ff" d="M351.73,-49.9C343.17,-51.12 334.5,-52.35 326.08,-53.54"/>
<polygon fill="#63b8ff" stroke="#63b8ff" points="352.3,-53.36 361.71,-48.49 351.31,-46.43 352.3,-53.36"/>
</a>
</g>
</g>
<!-- Node5 -->
<g id="Node000005" class="node">
<title>Node5</title>
<g id="a_Node000005"><a xlink:href="classnetspeak_1_1invertedindex_1_1Searcher.html#a7892a42a3c0e390af6f33815de970002" target="_top" xlink:title=" ">
<polygon fill="white" stroke="#666666" points="326,-30 191,-30 191,0 326,0 326,-30"/>
<text text-anchor="start" x="199" y="-18" font-family="Helvetica,sans-Serif" font-size="10.00">netspeak::invertedindex</text>
<text text-anchor="middle" x="258.5" y="-7" font-family="Helvetica,sans-Serif" font-size="10.00">::Searcher::open</text>
</a>
</g>
</g>
<!-- Node1&#45;&gt;Node5 -->
<g id="edge4_Node000001_Node000005" class="edge">
<title>Node1&#45;&gt;Node5</title>
<g id="a_edge4_Node000001_Node000005"><a xlink:title=" ">
<path fill="none" stroke="#63b8ff" d="M351.73,-28.1C343.17,-26.88 334.5,-25.65 326.08,-24.46"/>
<polygon fill="#63b8ff" stroke="#63b8ff" points="351.31,-31.57 361.71,-29.51 352.3,-24.64 351.31,-31.57"/>
</a>
</g>
</g>
<!-- Node3 -->
<g id="Node000003" class="node">
<title>Node3</title>
<g id="a_Node000003"><a xlink:href="namespacenetspeak.html#af42806304a02200d2a12099b3b54f35d" target="_top" xlink:title=" ">
<polygon fill="white" stroke="#666666" points="155,-115.5 0,-115.5 0,-96.5 155,-96.5 155,-115.5"/>
<text text-anchor="middle" x="77.5" y="-103.5" font-family="Helvetica,sans-Serif" font-size="10.00">netspeak::BuildPostlistIndex</text>
</a>
</g>
</g>
<!-- Node2&#45;&gt;Node3 -->
<g id="edge2_Node000002_Node000003" class="edge">
<title>Node2&#45;&gt;Node3</title>
<g id="a_edge2_Node000002_Node000003"><a xlink:title=" ">
<path fill="none" stroke="#63b8ff" d="M184.89,-80.44C162.09,-85.92 137.76,-91.76 118.14,-96.48"/>
<polygon fill="#63b8ff" stroke="#63b8ff" points="185.99,-83.78 194.89,-78.04 184.35,-76.97 185.99,-83.78"/>
</a>
</g>
</g>
<!-- Node4 -->
<g id="Node000004" class="node">
<title>Node4</title>
<g id="a_Node000004"><a xlink:href="classnetspeak_1_1invertedindex_1_1ManagedIndexer.html#ac43570be49a3700fc731358ffc45919d" target="_top" xlink:title=" ">
<polygon fill="white" stroke="#666666" points="146,-78 9,-78 9,-48 146,-48 146,-78"/>
<text text-anchor="start" x="17" y="-66" font-family="Helvetica,sans-Serif" font-size="10.00">netspeak::invertedindex</text>
<text text-anchor="middle" x="77.5" y="-55" font-family="Helvetica,sans-Serif" font-size="10.00">::ManagedIndexer::index</text>
</a>
</g>
</g>
<!-- Node2&#45;&gt;Node4 -->
<g id="edge3_Node000002_Node000004" class="edge">
<title>Node2&#45;&gt;Node4</title>
<g id="a_edge3_Node000002_Node000004"><a xlink:title=" ">
<path fill="none" stroke="#63b8ff" d="M180.8,-63C169.26,-63 157.43,-63 146.1,-63"/>
<polygon fill="#63b8ff" stroke="#63b8ff" points="180.85,-66.5 190.85,-63 180.85,-59.5 180.85,-66.5"/>
</a>
</g>
</g>
<!-- Node6 -->
<g id="Node000006" class="node">
<title>Node6</title>
<g id="a_Node000006"><a xlink:href="classnetspeak_1_1invertedindex_1_1Searcher.html#a89859cbc571a9e0ff7ff6830cb21ce72" target="_top" xlink:title=" ">
<polygon fill="white" stroke="#666666" points="145,-30 10,-30 10,0 145,0 145,-30"/>
<text text-anchor="start" x="18" y="-18" font-family="Helvetica,sans-Serif" font-size="10.00">netspeak::invertedindex</text>
<text text-anchor="middle" x="77.5" y="-7" font-family="Helvetica,sans-Serif" font-size="10.00">::Searcher::Searcher</text>
</a>
</g>
</g>
<!-- Node5&#45;&gt;Node6 -->
<g id="edge5_Node000005_Node000006" class="edge">
<title>Node5&#45;&gt;Node6</title>
<g id="a_edge5_Node000005_Node000006"><a xlink:title=" ">
<path fill="none" stroke="#63b8ff" d="M180.59,-15C168.82,-15 156.74,-15 145.21,-15"/>
<polygon fill="#63b8ff" stroke="#63b8ff" points="180.85,-18.5 190.85,-15 180.85,-11.5 180.85,-18.5"/>
</a>
</g>
</g>
</g>
</svg>
