<?xml version="1.0" encoding="UTF-8" standalone="no"?>
<!DOCTYPE svg PUBLIC "-//W3C//DTD SVG 1.1//EN"
 "http://www.w3.org/Graphics/SVG/1.1/DTD/svg11.dtd">
<!-- Generated by graphviz version 2.43.0 (0)
 -->
<!-- Title: netspeak::value::value_traits::parse_from Pages: 1 -->
<svg width="486pt" height="206pt"
 viewBox="0.00 0.00 486.00 205.50" xmlns="http://www.w3.org/2000/svg" xmlns:xlink="http://www.w3.org/1999/xlink">
<g id="graph0" class="graph" transform="scale(1 1) rotate(0) translate(4 201.5)">
<title>netspeak::value::value_traits::parse_from</title>
<!-- Node1 -->
<g id="Node000001" class="node">
<title>Node1</title>
<g id="a_Node000001"><a xlink:title=" ">
<polygon fill="#999999" stroke="#666666" points="478,-111 350,-111 350,-81 478,-81 478,-111"/>
<text text-anchor="start" x="358" y="-99" font-family="Helvetica,sans-Serif" font-size="10.00">netspeak::value::value</text>
<text text-anchor="middle" x="414" y="-88" font-family="Helvetica,sans-Serif" font-size="10.00">_traits::parse_from</text>
</a>
</g>
</g>
<!-- Node2 -->
<g id="Node000002" class="node">
<title>Node2</title>
<g id="a_Node000002"><a xlink:href="classnetspeak_1_1invertedindex_1_1InvertedFileReader.html#a932902c1e861d7d5c88f4b854fc19a97" target="_top" xlink:title=" ">
<polygon fill="white" stroke="#666666" points="310,-197.5 175,-197.5 175,-156.5 310,-156.5 310,-197.5"/>
<text text-anchor="start" x="183" y="-185.5" font-family="Helvetica,sans-Serif" font-size="10.00">netspeak::invertedindex</text>
<text text-anchor="start" x="183" y="-174.5" font-family="Helvetica,sans-Serif" font-size="10.00">::InvertedFileReader::</text>
<text text-anchor="middle" x="242.5" y="-163.5" font-family="Helvetica,sans-Serif" font-size="10.00">InvertedFileReader</text>
</a>
</g>
</g>
<!-- Node1&#45;&gt;Node2 -->
<g id="edge1_Node000001_Node000002" class="edge">
<title>Node1&#45;&gt;Node2</title>
<g id="a_edge1_Node000001_Node000002"><a xlink:title=" ">
<path fill="none" stroke="#63b8ff" d="M376.14,-115.81C357.65,-125.53 334.81,-137.23 314,-147 307.26,-150.17 300.09,-153.38 293.01,-156.48"/>
<polygon fill="#63b8ff" stroke="#63b8ff" points="377.9,-118.83 385.11,-111.06 374.63,-112.64 377.9,-118.83"/>
</a>
</g>
</g>
<!-- Node3 -->
<g id="Node000003" class="node">
<title>Node3</title>
<g id="a_Node000003"><a xlink:href="classnetspeak_1_1invertedindex_1_1Record.html#aaa1d19622935a005c0d7ef4518ee3271" target="_top" xlink:title=" ">
<polygon fill="white" stroke="#666666" points="310,-138 175,-138 175,-108 310,-108 310,-138"/>
<text text-anchor="start" x="183" y="-126" font-family="Helvetica,sans-Serif" font-size="10.00">netspeak::invertedindex</text>
<text text-anchor="middle" x="242.5" y="-115" font-family="Helvetica,sans-Serif" font-size="10.00">::Record::parse</text>
</a>
</g>
</g>
<!-- Node1&#45;&gt;Node3 -->
<g id="edge2_Node000001_Node000003" class="edge">
<title>Node1&#45;&gt;Node3</title>
<g id="a_edge2_Node000001_Node000003"><a xlink:title=" ">
<path fill="none" stroke="#63b8ff" d="M339.72,-107.67C329.86,-109.24 319.8,-110.85 310.07,-112.4"/>
<polygon fill="#63b8ff" stroke="#63b8ff" points="340.56,-111.08 349.88,-106.05 339.46,-104.17 340.56,-111.08"/>
</a>
</g>
</g>
<!-- Node5 -->
<g id="Node000005" class="node">
<title>Node5</title>
<g id="a_Node000005"><a xlink:href="structnetspeak_1_1value_1_1value__traits_3_01big__string_01_4.html#a545b761508653bfce9320030e814295f" target="_top" xlink:title=" ">
<polygon fill="white" stroke="#666666" points="306.5,-89.5 178.5,-89.5 178.5,-48.5 306.5,-48.5 306.5,-89.5"/>
<text text-anchor="start" x="186.5" y="-77.5" font-family="Helvetica,sans-Serif" font-size="10.00">netspeak::value::value</text>
<text text-anchor="start" x="186.5" y="-66.5" font-family="Helvetica,sans-Serif" font-size="10.00">_traits&lt; big_string &gt;</text>
<text text-anchor="middle" x="242.5" y="-55.5" font-family="Helvetica,sans-Serif" font-size="10.00">::parse_from</text>
</a>
</g>
</g>
<!-- Node1&#45;&gt;Node5 -->
<g id="edge4_Node000001_Node000005" class="edge">
<title>Node1&#45;&gt;Node5</title>
<g id="a_edge4_Node000001_Node000005"><a xlink:title=" ">
<path fill="none" stroke="#63b8ff" d="M339.84,-84.35C328.79,-82.59 317.48,-80.78 306.67,-79.06"/>
<polygon fill="#63b8ff" stroke="#63b8ff" points="339.46,-87.83 349.88,-85.95 340.56,-80.92 339.46,-87.83"/>
</a>
</g>
</g>
<!-- Node6 -->
<g id="Node000006" class="node">
<title>Node6</title>
<g id="a_Node000006"><a xlink:href="classnetspeak_1_1invertedindex_1_1InvertedFileReader.html#a3279c699261f38ce5afe35a0bb5a49c2" target="_top" xlink:title=" ">
<polygon fill="white" stroke="#666666" points="314,-30 171,-30 171,0 314,0 314,-30"/>
<text text-anchor="start" x="179" y="-18" font-family="Helvetica,sans-Serif" font-size="10.00">netspeak::invertedindex</text>
<text text-anchor="middle" x="242.5" y="-7" font-family="Helvetica,sans-Serif" font-size="10.00">::InvertedFileReader::read</text>
</a>
</g>
</g>
<!-- Node1&#45;&gt;Node6 -->
<g id="edge5_Node000001_Node000006" class="edge">
<title>Node1&#45;&gt;Node6</title>
<g id="a_edge5_Node000001_Node000006"><a xlink:title=" ">
<path fill="none" stroke="#63b8ff" d="M380.64,-75.8C361.66,-64.43 336.96,-50.47 314,-40 306.32,-36.5 297.99,-33.16 289.85,-30.14"/>
<polygon fill="#63b8ff" stroke="#63b8ff" points="378.84,-78.8 389.21,-80.98 382.46,-72.81 378.84,-78.8"/>
</a>
</g>
</g>
<!-- Node4 -->
<g id="Node000004" class="node">
<title>Node4</title>
<g id="a_Node000004"><a xlink:href="namespacenetspeak_1_1invertedindex.html#a1dc3397b77c0c0104967f2a9276d4638" target="_top" xlink:title=" ">
<polygon fill="white" stroke="#666666" points="135,-138 0,-138 0,-108 135,-108 135,-138"/>
<text text-anchor="start" x="8" y="-126" font-family="Helvetica,sans-Serif" font-size="10.00">netspeak::invertedindex</text>
<text text-anchor="middle" x="67.5" y="-115" font-family="Helvetica,sans-Serif" font-size="10.00">::operator&gt;&gt;</text>
</a>
</g>
</g>
<!-- Node3&#45;&gt;Node4 -->
<g id="edge3_Node000003_Node000004" class="edge">
<title>Node3&#45;&gt;Node4</title>
<g id="a_edge3_Node000003_Node000004"><a xlink:title=" ">
<path fill="none" stroke="#63b8ff" d="M164.51,-123C154.74,-123 144.8,-123 135.21,-123"/>
<polygon fill="#63b8ff" stroke="#63b8ff" points="164.61,-126.5 174.61,-123 164.61,-119.5 164.61,-126.5"/>
</a>
</g>
</g>
</g>
</svg>
