<?xml version="1.0" encoding="UTF-8" standalone="no"?>
<!DOCTYPE svg PUBLIC "-//W3C//DTD SVG 1.1//EN"
 "http://www.w3.org/Graphics/SVG/1.1/DTD/svg11.dtd">
<!-- Generated by graphviz version 2.43.0 (0)
 -->
<!-- Title: netspeak::invertedindex::iterator_type::print Pages: 1 -->
<svg width="485pt" height="86pt"
 viewBox="0.00 0.00 485.00 86.00" xmlns="http://www.w3.org/2000/svg" xmlns:xlink="http://www.w3.org/1999/xlink">
<g id="graph0" class="graph" transform="scale(1 1) rotate(0) translate(4 82)">
<title>netspeak::invertedindex::iterator_type::print</title>
<!-- Node1 -->
<g id="Node000001" class="node">
<title>Node1</title>
<g id="a_Node000001"><a xlink:title=" ">
<polygon fill="#999999" stroke="#666666" points="135,-54 0,-54 0,-24 135,-24 135,-54"/>
<text text-anchor="start" x="8" y="-42" font-family="Helvetica,sans-Serif" font-size="10.00">netspeak::invertedindex</text>
<text text-anchor="middle" x="67.5" y="-31" font-family="Helvetica,sans-Serif" font-size="10.00">::iterator_type::print</text>
</a>
</g>
</g>
<!-- Node2 -->
<g id="Node000002" class="node">
<title>Node2</title>
<g id="a_Node000002"><a xlink:href="structnetspeak_1_1invertedindex_1_1page__type.html#a377db12b685a7deefdb5b129743c3251" target="_top" xlink:title=" ">
<polygon fill="white" stroke="#666666" points="306,-78 171,-78 171,-48 306,-48 306,-78"/>
<text text-anchor="start" x="179" y="-66" font-family="Helvetica,sans-Serif" font-size="10.00">netspeak::invertedindex</text>
<text text-anchor="middle" x="238.5" y="-55" font-family="Helvetica,sans-Serif" font-size="10.00">::page_type::print</text>
</a>
</g>
</g>
<!-- Node1&#45;&gt;Node2 -->
<g id="edge1_Node000001_Node000002" class="edge">
<title>Node1&#45;&gt;Node2</title>
<g id="a_edge1_Node000001_Node000002"><a xlink:title=" ">
<path fill="none" stroke="#63b8ff" d="M135.29,-48.49C143.72,-49.68 152.38,-50.91 160.94,-52.13"/>
<polygon fill="#63b8ff" stroke="#63b8ff" points="160.52,-55.6 170.92,-53.54 161.51,-48.67 160.52,-55.6"/>
</a>
</g>
</g>
<!-- Node4 -->
<g id="Node000004" class="node">
<title>Node4</title>
<g id="a_Node000004"><a xlink:href="structnetspeak_1_1invertedindex_1_1swap__type.html#a383a9a398fe325a75d356849d6078ace" target="_top" xlink:title=" ">
<polygon fill="white" stroke="#666666" points="306,-30 171,-30 171,0 306,0 306,-30"/>
<text text-anchor="start" x="179" y="-18" font-family="Helvetica,sans-Serif" font-size="10.00">netspeak::invertedindex</text>
<text text-anchor="middle" x="238.5" y="-7" font-family="Helvetica,sans-Serif" font-size="10.00">::swap_type::print</text>
</a>
</g>
</g>
<!-- Node1&#45;&gt;Node4 -->
<g id="edge3_Node000001_Node000004" class="edge">
<title>Node1&#45;&gt;Node4</title>
<g id="a_edge3_Node000001_Node000004"><a xlink:title=" ">
<path fill="none" stroke="#63b8ff" d="M135.29,-29.51C143.72,-28.32 152.38,-27.09 160.94,-25.87"/>
<polygon fill="#63b8ff" stroke="#63b8ff" points="161.51,-29.33 170.92,-24.46 160.52,-22.4 161.51,-29.33"/>
</a>
</g>
</g>
<!-- Node3 -->
<g id="Node000003" class="node">
<title>Node3</title>
<g id="a_Node000003"><a xlink:href="classnetspeak_1_1invertedindex_1_1ByteBuffer.html#ac7160f8bd36f86815662909c0722556f" target="_top" xlink:title=" ">
<polygon fill="white" stroke="#666666" points="477,-78 342,-78 342,-48 477,-48 477,-78"/>
<text text-anchor="start" x="350" y="-66" font-family="Helvetica,sans-Serif" font-size="10.00">netspeak::invertedindex</text>
<text text-anchor="middle" x="409.5" y="-55" font-family="Helvetica,sans-Serif" font-size="10.00">::ByteBuffer::size</text>
</a>
</g>
</g>
<!-- Node2&#45;&gt;Node3 -->
<g id="edge2_Node000002_Node000003" class="edge">
<title>Node2&#45;&gt;Node3</title>
<g id="a_edge2_Node000002_Node000003"><a xlink:title=" ">
<path fill="none" stroke="#63b8ff" d="M306.29,-63C314.62,-63 323.19,-63 331.66,-63"/>
<polygon fill="#63b8ff" stroke="#63b8ff" points="331.92,-66.5 341.92,-63 331.92,-59.5 331.92,-66.5"/>
</a>
</g>
</g>
</g>
</svg>
