<?xml version="1.0" encoding="UTF-8" standalone="no"?>
<!DOCTYPE svg PUBLIC "-//W3C//DTD SVG 1.1//EN"
 "http://www.w3.org/Graphics/SVG/1.1/DTD/svg11.dtd">
<!-- Generated by graphviz version 2.43.0 (0)
 -->
<!-- Title: netspeak::index_entry_traits&lt; RetrievalStrategy3Tag &gt;::set_phrase_frequency Pages: 1 -->
<svg width="494pt" height="49pt"
 viewBox="0.00 0.00 494.00 49.00" xmlns="http://www.w3.org/2000/svg" xmlns:xlink="http://www.w3.org/1999/xlink">
<g id="graph0" class="graph" transform="scale(1 1) rotate(0) translate(4 45)">
<title>netspeak::index_entry_traits&lt; RetrievalStrategy3Tag &gt;::set_phrase_frequency</title>
<!-- Node1 -->
<g id="Node000001" class="node">
<title>Node1</title>
<g id="a_Node000001"><a xlink:title=" ">
<polygon fill="#999999" stroke="#666666" points="158,-41 0,-41 0,0 158,0 158,-41"/>
<text text-anchor="start" x="8" y="-29" font-family="Helvetica,sans-Serif" font-size="10.00">netspeak::index_entry</text>
<text text-anchor="start" x="8" y="-18" font-family="Helvetica,sans-Serif" font-size="10.00">_traits&lt; RetrievalStrategy3</text>
<text text-anchor="middle" x="79" y="-7" font-family="Helvetica,sans-Serif" font-size="10.00">Tag &gt;::set_phrase_frequency</text>
</a>
</g>
</g>
<!-- Node2 -->
<g id="Node000002" class="node">
<title>Node2</title>
<g id="a_Node000002"><a xlink:href="classnetspeak_1_1value_1_1pair.html#a5fa59bfb0238ad39a6aa497bd4e2dab6" target="_top" xlink:title=" ">
<polygon fill="white" stroke="#666666" points="313,-35.5 194,-35.5 194,-5.5 313,-5.5 313,-35.5"/>
<text text-anchor="start" x="202" y="-23.5" font-family="Helvetica,sans-Serif" font-size="10.00">netspeak::value::pair</text>
<text text-anchor="middle" x="253.5" y="-12.5" font-family="Helvetica,sans-Serif" font-size="10.00">::set_e1</text>
</a>
</g>
</g>
<!-- Node1&#45;&gt;Node2 -->
<g id="edge1_Node000001_Node000002" class="edge">
<title>Node1&#45;&gt;Node2</title>
<g id="a_edge1_Node000001_Node000002"><a xlink:title=" ">
<path fill="none" stroke="#63b8ff" d="M158.17,-20.5C166.73,-20.5 175.39,-20.5 183.82,-20.5"/>
<polygon fill="#63b8ff" stroke="#63b8ff" points="183.96,-24 193.96,-20.5 183.96,-17 183.96,-24"/>
</a>
</g>
</g>
<!-- Node3 -->
<g id="Node000003" class="node">
<title>Node3</title>
<g id="a_Node000003"><a xlink:href="classnetspeak_1_1value_1_1pair.html#aa0eed395020ba5b37636746da8619982" target="_top" xlink:title=" ">
<polygon fill="white" stroke="#666666" points="486,-30 349,-30 349,-11 486,-11 486,-30"/>
<text text-anchor="middle" x="417.5" y="-18" font-family="Helvetica,sans-Serif" font-size="10.00">netspeak::value::pair::e1</text>
</a>
</g>
</g>
<!-- Node2&#45;&gt;Node3 -->
<g id="edge2_Node000002_Node000003" class="edge">
<title>Node2&#45;&gt;Node3</title>
<g id="a_edge2_Node000002_Node000003"><a xlink:title=" ">
<path fill="none" stroke="#63b8ff" d="M313.44,-20.5C321.61,-20.5 330.1,-20.5 338.55,-20.5"/>
<polygon fill="#63b8ff" stroke="#63b8ff" points="338.81,-24 348.81,-20.5 338.81,-17 338.81,-24"/>
</a>
</g>
</g>
</g>
</svg>
