<?xml version="1.0" encoding="UTF-8" standalone="no"?>
<!DOCTYPE svg PUBLIC "-//W3C//DTD SVG 1.1//EN"
 "http://www.w3.org/Graphics/SVG/1.1/DTD/svg11.dtd">
<!-- Generated by graphviz version 2.43.0 (0)
 -->
<!-- Title: netspeak::value::generator&lt; pair&lt; T1, T2 &gt; &gt;::numbered Pages: 1 -->
<svg width="358pt" height="113pt"
 viewBox="0.00 0.00 358.00 112.50" xmlns="http://www.w3.org/2000/svg" xmlns:xlink="http://www.w3.org/1999/xlink">
<g id="graph0" class="graph" transform="scale(1 1) rotate(0) translate(4 108.5)">
<title>netspeak::value::generator&lt; pair&lt; T1, T2 &gt; &gt;::numbered</title>
<!-- Node1 -->
<g id="Node000001" class="node">
<title>Node1</title>
<g id="a_Node000001"><a xlink:title=" ">
<polygon fill="#999999" stroke="#666666" points="166,-73 0,-73 0,-43 166,-43 166,-73"/>
<text text-anchor="start" x="8" y="-61" font-family="Helvetica,sans-Serif" font-size="10.00">netspeak::value::generator</text>
<text text-anchor="middle" x="83" y="-50" font-family="Helvetica,sans-Serif" font-size="10.00">&lt; pair&lt; T1, T2 &gt; &gt;::numbered</text>
</a>
</g>
</g>
<!-- Node2 -->
<g id="Node000002" class="node">
<title>Node2</title>
<g id="a_Node000002"><a xlink:href="classnetspeak_1_1value_1_1pair.html#aa0eed395020ba5b37636746da8619982" target="_top" xlink:title=" ">
<polygon fill="white" stroke="#666666" points="344.5,-104.5 207.5,-104.5 207.5,-85.5 344.5,-85.5 344.5,-104.5"/>
<text text-anchor="middle" x="276" y="-92.5" font-family="Helvetica,sans-Serif" font-size="10.00">netspeak::value::pair::e1</text>
</a>
</g>
</g>
<!-- Node1&#45;&gt;Node2 -->
<g id="edge1_Node000001_Node000002" class="edge">
<title>Node1&#45;&gt;Node2</title>
<g id="a_edge1_Node000001_Node000002"><a xlink:title=" ">
<path fill="none" stroke="#63b8ff" d="M161.69,-73.05C179.82,-76.56 198.84,-80.25 216,-83.57"/>
<polygon fill="#63b8ff" stroke="#63b8ff" points="215.39,-87.02 225.87,-85.48 216.72,-80.15 215.39,-87.02"/>
</a>
</g>
</g>
<!-- Node3 -->
<g id="Node000003" class="node">
<title>Node3</title>
<g id="a_Node000003"><a xlink:href="classnetspeak_1_1value_1_1pair.html#a52d349f5f25b356c4436a983182e4b6c" target="_top" xlink:title=" ">
<polygon fill="white" stroke="#666666" points="344.5,-67.5 207.5,-67.5 207.5,-48.5 344.5,-48.5 344.5,-67.5"/>
<text text-anchor="middle" x="276" y="-55.5" font-family="Helvetica,sans-Serif" font-size="10.00">netspeak::value::pair::e2</text>
</a>
</g>
</g>
<!-- Node1&#45;&gt;Node3 -->
<g id="edge2_Node000001_Node000003" class="edge">
<title>Node1&#45;&gt;Node3</title>
<g id="a_edge2_Node000001_Node000003"><a xlink:title=" ">
<path fill="none" stroke="#63b8ff" d="M166.11,-58C176.42,-58 186.95,-58 197.19,-58"/>
<polygon fill="#63b8ff" stroke="#63b8ff" points="197.32,-61.5 207.32,-58 197.32,-54.5 197.32,-61.5"/>
</a>
</g>
</g>
<!-- Node4 -->
<g id="Node000004" class="node">
<title>Node4</title>
<g id="a_Node000004"><a xlink:href="structnetspeak_1_1value_1_1generator.html#aa6e3bd27c3d82bbc4723852da5d639dc" target="_top" xlink:title=" ">
<polygon fill="white" stroke="#666666" points="350,-30 202,-30 202,0 350,0 350,-30"/>
<text text-anchor="start" x="210" y="-18" font-family="Helvetica,sans-Serif" font-size="10.00">netspeak::value::generator</text>
<text text-anchor="middle" x="276" y="-7" font-family="Helvetica,sans-Serif" font-size="10.00">::numbered</text>
</a>
</g>
</g>
<!-- Node1&#45;&gt;Node4 -->
<g id="edge3_Node000001_Node000004" class="edge">
<title>Node1&#45;&gt;Node4</title>
<g id="a_edge3_Node000001_Node000004"><a xlink:title=" ">
<path fill="none" stroke="#63b8ff" d="M150.8,-42.96C166.07,-39.52 182.41,-35.84 198.07,-32.32"/>
<polygon fill="#63b8ff" stroke="#63b8ff" points="199.25,-35.64 208.24,-30.03 197.71,-28.81 199.25,-35.64"/>
</a>
</g>
</g>
</g>
</svg>
