<?xml version="1.0" encoding="UTF-8" standalone="no"?>
<!DOCTYPE svg PUBLIC "-//W3C//DTD SVG 1.1//EN"
 "http://www.w3.org/Graphics/SVG/1.1/DTD/svg11.dtd">
<!-- Generated by graphviz version 2.43.0 (0)
 -->
<!-- Title: netspeak::value::value_traits::write_to Pages: 1 -->
<svg width="1039pt" height="317pt"
 viewBox="0.00 0.00 1039.00 316.50" xmlns="http://www.w3.org/2000/svg" xmlns:xlink="http://www.w3.org/1999/xlink">
<g id="graph0" class="graph" transform="scale(1 1) rotate(0) translate(4 312.5)">
<title>netspeak::value::value_traits::write_to</title>
<!-- Node1 -->
<g id="Node000001" class="node">
<title>Node1</title>
<g id="a_Node000001"><a xlink:title=" ">
<polygon fill="#999999" stroke="#666666" points="1031,-170 903,-170 903,-140 1031,-140 1031,-170"/>
<text text-anchor="start" x="911" y="-158" font-family="Helvetica,sans-Serif" font-size="10.00">netspeak::value::value</text>
<text text-anchor="middle" x="967" y="-147" font-family="Helvetica,sans-Serif" font-size="10.00">_traits::write_to</text>
</a>
</g>
</g>
<!-- Node2 -->
<g id="Node000002" class="node">
<title>Node2</title>
<g id="a_Node000002"><a xlink:href="classnetspeak_1_1invertedindex_1_1PostlistBuilder.html#ab81c87c60382f082e402313fdbc92521" target="_top" xlink:title=" ">
<polygon fill="white" stroke="#666666" points="696,-212 545,-212 545,-182 696,-182 696,-212"/>
<text text-anchor="start" x="553" y="-200" font-family="Helvetica,sans-Serif" font-size="10.00">netspeak::invertedindex</text>
<text text-anchor="middle" x="620.5" y="-189" font-family="Helvetica,sans-Serif" font-size="10.00">::PostlistBuilder::push_back</text>
</a>
</g>
</g>
<!-- Node1&#45;&gt;Node2 -->
<g id="edge1_Node000001_Node000002" class="edge">
<title>Node1&#45;&gt;Node2</title>
<g id="a_edge1_Node000001_Node000002"><a xlink:title=" ">
<path fill="none" stroke="#63b8ff" d="M892.65,-163.94C834.81,-170.99 754.48,-180.79 696.28,-187.88"/>
<polygon fill="#63b8ff" stroke="#63b8ff" points="893.31,-167.39 902.81,-162.7 892.46,-160.44 893.31,-167.39"/>
</a>
</g>
</g>
<!-- Node8 -->
<g id="Node000008" class="node">
<title>Node8</title>
<g id="a_Node000008"><a xlink:href="classnetspeak_1_1invertedindex_1_1PostlistBuilder.html#a8ddce60535a42049c39477e03bdc43ed" target="_top" xlink:title=" ">
<polygon fill="white" stroke="#666666" points="867,-249.5 732,-249.5 732,-208.5 867,-208.5 867,-249.5"/>
<text text-anchor="start" x="740" y="-237.5" font-family="Helvetica,sans-Serif" font-size="10.00">netspeak::invertedindex</text>
<text text-anchor="start" x="740" y="-226.5" font-family="Helvetica,sans-Serif" font-size="10.00">::PostlistBuilder::swap</text>
<text text-anchor="middle" x="799.5" y="-215.5" font-family="Helvetica,sans-Serif" font-size="10.00">_out_values_</text>
</a>
</g>
</g>
<!-- Node1&#45;&gt;Node8 -->
<g id="edge8_Node000001_Node000008" class="edge">
<title>Node1&#45;&gt;Node8</title>
<g id="a_edge8_Node000001_Node000008"><a xlink:title=" ">
<path fill="none" stroke="#63b8ff" d="M922.77,-174.33C899.36,-184.8 870.42,-197.73 846.58,-208.4"/>
<polygon fill="#63b8ff" stroke="#63b8ff" points="924.41,-177.43 932.11,-170.15 921.55,-171.04 924.41,-177.43"/>
</a>
</g>
</g>
<!-- Node9 -->
<g id="Node000009" class="node">
<title>Node9</title>
<g id="a_Node000009"><a xlink:href="classnetspeak_1_1invertedindex_1_1Record.html#a33ee9ec074a6f0f11e862bf9aec78160" target="_top" xlink:title=" ">
<polygon fill="white" stroke="#666666" points="867,-33 732,-33 732,-3 867,-3 867,-33"/>
<text text-anchor="start" x="740" y="-21" font-family="Helvetica,sans-Serif" font-size="10.00">netspeak::invertedindex</text>
<text text-anchor="middle" x="799.5" y="-10" font-family="Helvetica,sans-Serif" font-size="10.00">::Record::write</text>
</a>
</g>
</g>
<!-- Node1&#45;&gt;Node9 -->
<g id="edge10_Node000001_Node000009" class="edge">
<title>Node1&#45;&gt;Node9</title>
<g id="a_edge10_Node000001_Node000009"><a xlink:title=" ">
<path fill="none" stroke="#63b8ff" d="M950.37,-131.3C932.77,-106.26 902.02,-67.13 867,-43 861.52,-39.22 855.39,-35.92 849.13,-33.07"/>
<polygon fill="#63b8ff" stroke="#63b8ff" points="947.69,-133.58 956.24,-139.83 953.46,-129.61 947.69,-133.58"/>
</a>
</g>
</g>
<!-- Node14 -->
<g id="Node000014" class="node">
<title>Node14</title>
<g id="a_Node000014"><a xlink:href="structnetspeak_1_1value_1_1value__traits_3_01big__string_01_4.html#a09696e68f9efa712db1383f67563e0af" target="_top" xlink:title=" ">
<polygon fill="white" stroke="#666666" points="863.5,-151.5 735.5,-151.5 735.5,-110.5 863.5,-110.5 863.5,-151.5"/>
<text text-anchor="start" x="743.5" y="-139.5" font-family="Helvetica,sans-Serif" font-size="10.00">netspeak::value::value</text>
<text text-anchor="start" x="743.5" y="-128.5" font-family="Helvetica,sans-Serif" font-size="10.00">_traits&lt; big_string &gt;</text>
<text text-anchor="middle" x="799.5" y="-117.5" font-family="Helvetica,sans-Serif" font-size="10.00">::write_to</text>
</a>
</g>
</g>
<!-- Node1&#45;&gt;Node14 -->
<g id="edge16_Node000001_Node000014" class="edge">
<title>Node1&#45;&gt;Node14</title>
<g id="a_edge16_Node000001_Node000014"><a xlink:title=" ">
<path fill="none" stroke="#63b8ff" d="M892.89,-144.4C883.13,-142.98 873.2,-141.54 863.64,-140.16"/>
<polygon fill="#63b8ff" stroke="#63b8ff" points="892.56,-147.89 902.96,-145.86 893.57,-140.96 892.56,-147.89"/>
</a>
</g>
</g>
<!-- Node15 -->
<g id="Node000015" class="node">
<title>Node15</title>
<g id="a_Node000015"><a xlink:href="structnetspeak_1_1value_1_1value__traits_3_01std_1_1string_01_4.html#ac18332e1ce4401242151ee4c80b68952" target="_top" xlink:title=" ">
<polygon fill="white" stroke="#666666" points="863.5,-92.5 735.5,-92.5 735.5,-51.5 863.5,-51.5 863.5,-92.5"/>
<text text-anchor="start" x="743.5" y="-80.5" font-family="Helvetica,sans-Serif" font-size="10.00">netspeak::value::value</text>
<text text-anchor="start" x="743.5" y="-69.5" font-family="Helvetica,sans-Serif" font-size="10.00">_traits&lt; std::string &gt;</text>
<text text-anchor="middle" x="799.5" y="-58.5" font-family="Helvetica,sans-Serif" font-size="10.00">::write_to</text>
</a>
</g>
</g>
<!-- Node1&#45;&gt;Node15 -->
<g id="edge17_Node000001_Node000015" class="edge">
<title>Node1&#45;&gt;Node15</title>
<g id="a_edge17_Node000001_Node000015"><a xlink:title=" ">
<path fill="none" stroke="#63b8ff" d="M929.92,-134.93C911.29,-124.76 888.1,-112.39 867,-102 860.64,-98.87 853.88,-95.67 847.2,-92.58"/>
<polygon fill="#63b8ff" stroke="#63b8ff" points="928.49,-138.14 938.94,-139.88 931.86,-132 928.49,-138.14"/>
</a>
</g>
</g>
<!-- Node16 -->
<g id="Node000016" class="node">
<title>Node16</title>
<g id="a_Node000016"><a xlink:href="classnetspeak_1_1invertedindex_1_1PostlistSorter.html#a25b3202fca3d22c1ac9f24470196f6d3" target="_top" xlink:title=" ">
<polygon fill="white" stroke="#666666" points="867,-308.5 732,-308.5 732,-267.5 867,-267.5 867,-308.5"/>
<text text-anchor="start" x="740" y="-296.5" font-family="Helvetica,sans-Serif" font-size="10.00">netspeak::invertedindex</text>
<text text-anchor="start" x="740" y="-285.5" font-family="Helvetica,sans-Serif" font-size="10.00">::PostlistSorter::write</text>
<text text-anchor="middle" x="799.5" y="-274.5" font-family="Helvetica,sans-Serif" font-size="10.00">_to_tmpfile</text>
</a>
</g>
</g>
<!-- Node1&#45;&gt;Node16 -->
<g id="edge18_Node000001_Node000016" class="edge">
<title>Node1&#45;&gt;Node16</title>
<g id="a_edge18_Node000001_Node000016"><a xlink:title=" ">
<path fill="none" stroke="#63b8ff" d="M948.33,-178.43C930.03,-201.39 899.6,-236.19 867,-259 862.67,-262.03 857.96,-264.85 853.13,-267.44"/>
<polygon fill="#63b8ff" stroke="#63b8ff" points="951.32,-180.29 954.72,-170.25 945.81,-175.97 951.32,-180.29"/>
</a>
</g>
</g>
<!-- Node3 -->
<g id="Node000003" class="node">
<title>Node3</title>
<g id="a_Node000003"><a xlink:href="classnetspeak_1_1invertedindex_1_1SortedInput.html#a6aff15206149d6721ea2bbd44a1aebd6" target="_top" xlink:title=" ">
<polygon fill="white" stroke="#666666" points="493,-260 358,-260 358,-230 493,-230 493,-260"/>
<text text-anchor="start" x="366" y="-248" font-family="Helvetica,sans-Serif" font-size="10.00">netspeak::invertedindex</text>
<text text-anchor="middle" x="425.5" y="-237" font-family="Helvetica,sans-Serif" font-size="10.00">::SortedInput::insert_</text>
</a>
</g>
</g>
<!-- Node2&#45;&gt;Node3 -->
<g id="edge2_Node000002_Node000003" class="edge">
<title>Node2&#45;&gt;Node3</title>
<g id="a_edge2_Node000002_Node000003"><a xlink:title=" ">
<path fill="none" stroke="#63b8ff" d="M549.09,-214.51C528.67,-219.59 506.57,-225.09 486.82,-230"/>
<polygon fill="#63b8ff" stroke="#63b8ff" points="550.1,-217.87 558.96,-212.06 548.41,-211.07 550.1,-217.87"/>
</a>
</g>
</g>
<!-- Node4 -->
<g id="Node000004" class="node">
<title>Node4</title>
<g id="a_Node000004"><a xlink:href="classnetspeak_1_1invertedindex_1_1PostlistSorter.html#a0bb0492d40e3460f4463a35843df5bf7" target="_top" xlink:title=" ">
<polygon fill="white" stroke="#666666" points="503,-164 348,-164 348,-134 503,-134 503,-164"/>
<text text-anchor="start" x="356" y="-152" font-family="Helvetica,sans-Serif" font-size="10.00">netspeak::invertedindex</text>
<text text-anchor="middle" x="425.5" y="-141" font-family="Helvetica,sans-Serif" font-size="10.00">::PostlistSorter::internal_sort</text>
</a>
</g>
</g>
<!-- Node2&#45;&gt;Node4 -->
<g id="edge3_Node000002_Node000004" class="edge">
<title>Node2&#45;&gt;Node4</title>
<g id="a_edge3_Node000002_Node000004"><a xlink:title=" ">
<path fill="none" stroke="#63b8ff" d="M549.09,-179.49C528.67,-174.41 506.57,-168.91 486.82,-164"/>
<polygon fill="#63b8ff" stroke="#63b8ff" points="548.41,-182.93 558.96,-181.94 550.1,-176.13 548.41,-182.93"/>
</a>
</g>
</g>
<!-- Node7 -->
<g id="Node000007" class="node">
<title>Node7</title>
<g id="a_Node000007"><a xlink:href="classnetspeak_1_1invertedindex_1_1PostlistSorter.html#a3a4bdc4279ad3c23c77d69c629f4b89a" target="_top" xlink:title=" ">
<polygon fill="white" stroke="#666666" points="493,-212 358,-212 358,-182 493,-182 493,-212"/>
<text text-anchor="start" x="366" y="-200" font-family="Helvetica,sans-Serif" font-size="10.00">netspeak::invertedindex</text>
<text text-anchor="middle" x="425.5" y="-189" font-family="Helvetica,sans-Serif" font-size="10.00">::PostlistSorter::merge</text>
</a>
</g>
</g>
<!-- Node2&#45;&gt;Node7 -->
<g id="edge6_Node000002_Node000007" class="edge">
<title>Node2&#45;&gt;Node7</title>
<g id="a_edge6_Node000002_Node000007"><a xlink:title=" ">
<path fill="none" stroke="#63b8ff" d="M534.78,-197C520.81,-197 506.5,-197 493.05,-197"/>
<polygon fill="#63b8ff" stroke="#63b8ff" points="534.88,-200.5 544.88,-197 534.88,-193.5 534.88,-200.5"/>
</a>
</g>
</g>
<!-- Node5 -->
<g id="Node000005" class="node">
<title>Node5</title>
<g id="a_Node000005"><a xlink:href="classnetspeak_1_1invertedindex_1_1PostlistSorter.html#a58f01b8d58f6487a4ceb2f1ab3d2f0a1" target="_top" xlink:title=" ">
<polygon fill="white" stroke="#666666" points="306,-212 171,-212 171,-182 306,-182 306,-212"/>
<text text-anchor="start" x="179" y="-200" font-family="Helvetica,sans-Serif" font-size="10.00">netspeak::invertedindex</text>
<text text-anchor="middle" x="238.5" y="-189" font-family="Helvetica,sans-Serif" font-size="10.00">::PostlistSorter::sort</text>
</a>
</g>
</g>
<!-- Node4&#45;&gt;Node5 -->
<g id="edge4_Node000004_Node000005" class="edge">
<title>Node4&#45;&gt;Node5</title>
<g id="a_edge4_Node000004_Node000005"><a xlink:title=" ">
<path fill="none" stroke="#63b8ff" d="M356.74,-166.58C337.24,-171.64 316.16,-177.11 297.32,-182"/>
<polygon fill="#63b8ff" stroke="#63b8ff" points="357.67,-169.96 366.47,-164.06 355.91,-163.18 357.67,-169.96"/>
</a>
</g>
</g>
<!-- Node6 -->
<g id="Node000006" class="node">
<title>Node6</title>
<g id="a_Node000006"><a xlink:href="classnetspeak_1_1invertedindex_1_1UnsortedInput.html#ac107e445403ad38a4774f83e92e9bb70" target="_top" xlink:title=" ">
<polygon fill="white" stroke="#666666" points="135,-212 0,-212 0,-182 135,-182 135,-212"/>
<text text-anchor="start" x="8" y="-200" font-family="Helvetica,sans-Serif" font-size="10.00">netspeak::invertedindex</text>
<text text-anchor="middle" x="67.5" y="-189" font-family="Helvetica,sans-Serif" font-size="10.00">::UnsortedInput::sort</text>
</a>
</g>
</g>
<!-- Node5&#45;&gt;Node6 -->
<g id="edge5_Node000005_Node000006" class="edge">
<title>Node5&#45;&gt;Node6</title>
<g id="a_edge5_Node000005_Node000006"><a xlink:title=" ">
<path fill="none" stroke="#63b8ff" d="M160.45,-197C151.98,-197 143.41,-197 135.08,-197"/>
<polygon fill="#63b8ff" stroke="#63b8ff" points="160.71,-200.5 170.71,-197 160.71,-193.5 160.71,-200.5"/>
</a>
</g>
</g>
<!-- Node7&#45;&gt;Node5 -->
<g id="edge7_Node000007_Node000005" class="edge">
<title>Node7&#45;&gt;Node5</title>
<g id="a_edge7_Node000007_Node000005"><a xlink:title=" ">
<path fill="none" stroke="#63b8ff" d="M347.95,-197C334.05,-197 319.65,-197 306.06,-197"/>
<polygon fill="#63b8ff" stroke="#63b8ff" points="347.97,-200.5 357.97,-197 347.97,-193.5 347.97,-200.5"/>
</a>
</g>
</g>
<!-- Node8&#45;&gt;Node2 -->
<g id="edge9_Node000008_Node000002" class="edge">
<title>Node8&#45;&gt;Node2</title>
<g id="a_edge9_Node000008_Node000002"><a xlink:title=" ">
<path fill="none" stroke="#63b8ff" d="M721.89,-215.15C713.34,-213.6 704.64,-212.03 696.11,-210.49"/>
<polygon fill="#63b8ff" stroke="#63b8ff" points="721.37,-218.61 731.84,-216.95 722.62,-211.72 721.37,-218.61"/>
</a>
</g>
</g>
<!-- Node10 -->
<g id="Node000010" class="node">
<title>Node10</title>
<g id="a_Node000010"><a xlink:href="classnetspeak_1_1invertedindex_1_1UnsortedInput.html#a14d1dabae0597d0f84e11d9f97eda34e" target="_top" xlink:title=" ">
<polygon fill="white" stroke="#666666" points="306,-30 171,-30 171,0 306,0 306,-30"/>
<text text-anchor="start" x="179" y="-18" font-family="Helvetica,sans-Serif" font-size="10.00">netspeak::invertedindex</text>
<text text-anchor="middle" x="238.5" y="-7" font-family="Helvetica,sans-Serif" font-size="10.00">::UnsortedInput::insert_</text>
</a>
</g>
</g>
<!-- Node9&#45;&gt;Node10 -->
<g id="edge11_Node000009_Node000010" class="edge">
<title>Node9&#45;&gt;Node10</title>
<g id="a_edge11_Node000009_Node000010"><a xlink:title=" ">
<path fill="none" stroke="#63b8ff" d="M721.68,-13.01C713.02,-12.6 704.32,-12.24 696,-12 538.73,-7.4 499.32,-9.7 342,-12 330.43,-12.17 318.13,-12.45 306.21,-12.76"/>
<polygon fill="#63b8ff" stroke="#63b8ff" points="721.64,-16.52 731.81,-13.53 722,-9.53 721.64,-16.52"/>
</a>
</g>
</g>
<!-- Node11 -->
<g id="Node000011" class="node">
<title>Node11</title>
<g id="a_Node000011"><a xlink:href="classnetspeak_1_1invertedindex_1_1UnsortedInput.html#aa5262dcbf66a5e0cb722f0bec7775b62" target="_top" xlink:title=" ">
<polygon fill="white" stroke="#666666" points="688,-51 553,-51 553,-21 688,-21 688,-51"/>
<text text-anchor="start" x="561" y="-39" font-family="Helvetica,sans-Serif" font-size="10.00">netspeak::invertedindex</text>
<text text-anchor="middle" x="620.5" y="-28" font-family="Helvetica,sans-Serif" font-size="10.00">::UnsortedInput::rehash</text>
</a>
</g>
</g>
<!-- Node9&#45;&gt;Node11 -->
<g id="edge12_Node000009_Node000011" class="edge">
<title>Node9&#45;&gt;Node11</title>
<g id="a_edge12_Node000009_Node000011"><a xlink:title=" ">
<path fill="none" stroke="#63b8ff" d="M721.66,-25.81C710.49,-26.95 699.06,-28.11 688.1,-29.23"/>
<polygon fill="#63b8ff" stroke="#63b8ff" points="722.24,-29.27 731.84,-24.78 721.53,-22.31 722.24,-29.27"/>
</a>
</g>
</g>
<!-- Node12 -->
<g id="Node000012" class="node">
<title>Node12</title>
<g id="a_Node000012"><a xlink:href="classnetspeak_1_1invertedindex_1_1UnsortedInput.html#abb4d4db8952dbc7771f13d7ea978ada7" target="_top" xlink:title=" ">
<polygon fill="white" stroke="#666666" points="493.5,-51 357.5,-51 357.5,-21 493.5,-21 493.5,-51"/>
<text text-anchor="start" x="365.5" y="-39" font-family="Helvetica,sans-Serif" font-size="10.00">netspeak::invertedindex</text>
<text text-anchor="middle" x="425.5" y="-28" font-family="Helvetica,sans-Serif" font-size="10.00">::UnsortedInput::rehash_</text>
</a>
</g>
</g>
<!-- Node11&#45;&gt;Node12 -->
<g id="edge13_Node000011_Node000012" class="edge">
<title>Node11&#45;&gt;Node12</title>
<g id="a_edge13_Node000011_Node000012"><a xlink:title=" ">
<path fill="none" stroke="#63b8ff" d="M542.79,-36C526.49,-36 509.42,-36 493.52,-36"/>
<polygon fill="#63b8ff" stroke="#63b8ff" points="542.81,-39.5 552.81,-36 542.81,-32.5 542.81,-39.5"/>
</a>
</g>
</g>
<!-- Node13 -->
<g id="Node000013" class="node">
<title>Node13</title>
<g id="a_Node000013"><a xlink:href="classnetspeak_1_1invertedindex_1_1UnsortedInput.html#a08ef9014c5622dbb729cf8c12ffc92fc" target="_top" xlink:title=" ">
<polygon fill="white" stroke="#666666" points="509,-99 342,-99 342,-69 509,-69 509,-99"/>
<text text-anchor="start" x="350" y="-87" font-family="Helvetica,sans-Serif" font-size="10.00">netspeak::invertedindex</text>
<text text-anchor="middle" x="425.5" y="-76" font-family="Helvetica,sans-Serif" font-size="10.00">::UnsortedInput::UnsortedInput</text>
</a>
</g>
</g>
<!-- Node11&#45;&gt;Node13 -->
<g id="edge15_Node000011_Node000013" class="edge">
<title>Node11&#45;&gt;Node13</title>
<g id="a_edge15_Node000011_Node000013"><a xlink:title=" ">
<path fill="none" stroke="#63b8ff" d="M549.09,-53.51C528.67,-58.59 506.57,-64.09 486.82,-69"/>
<polygon fill="#63b8ff" stroke="#63b8ff" points="550.1,-56.87 558.96,-51.06 548.41,-50.07 550.1,-56.87"/>
</a>
</g>
</g>
<!-- Node12&#45;&gt;Node10 -->
<g id="edge14_Node000012_Node000010" class="edge">
<title>Node12&#45;&gt;Node10</title>
<g id="a_edge14_Node000012_Node000010"><a xlink:title=" ">
<path fill="none" stroke="#63b8ff" d="M347.11,-27.22C333.45,-25.66 319.34,-24.06 306.01,-22.55"/>
<polygon fill="#63b8ff" stroke="#63b8ff" points="347.12,-30.74 357.45,-28.39 347.91,-23.78 347.12,-30.74"/>
</a>
</g>
</g>
<!-- Node17 -->
<g id="Node000017" class="node">
<title>Node17</title>
<g id="a_Node000017"><a xlink:href="classnetspeak_1_1invertedindex_1_1PostlistSorter.html#a7fe08d86571e6379cfed197d2570e0e4" target="_top" xlink:title=" ">
<polygon fill="white" stroke="#666666" points="688,-303 553,-303 553,-273 688,-273 688,-303"/>
<text text-anchor="start" x="561" y="-291" font-family="Helvetica,sans-Serif" font-size="10.00">netspeak::invertedindex</text>
<text text-anchor="middle" x="620.5" y="-280" font-family="Helvetica,sans-Serif" font-size="10.00">::PostlistSorter::scatter</text>
</a>
</g>
</g>
<!-- Node16&#45;&gt;Node17 -->
<g id="edge19_Node000016_Node000017" class="edge">
<title>Node16&#45;&gt;Node17</title>
<g id="a_edge19_Node000016_Node000017"><a xlink:title=" ">
<path fill="none" stroke="#63b8ff" d="M721.66,-288C710.49,-288 699.06,-288 688.1,-288"/>
<polygon fill="#63b8ff" stroke="#63b8ff" points="721.84,-291.5 731.84,-288 721.84,-284.5 721.84,-291.5"/>
</a>
</g>
</g>
<!-- Node17&#45;&gt;Node5 -->
<g id="edge20_Node000017_Node000005" class="edge">
<title>Node17&#45;&gt;Node5</title>
<g id="a_edge20_Node000017_Node000005"><a xlink:title=" ">
<path fill="none" stroke="#63b8ff" d="M542.7,-293.65C485.7,-295.26 406.95,-292 342,-269 307.36,-256.73 273.78,-229.28 254.96,-212.04"/>
<polygon fill="#63b8ff" stroke="#63b8ff" points="542.84,-297.14 552.72,-293.31 542.61,-290.15 542.84,-297.14"/>
</a>
</g>
</g>
</g>
</svg>
