<?xml version="1.0" encoding="UTF-8" standalone="no"?>
<!DOCTYPE svg PUBLIC "-//W3C//DTD SVG 1.1//EN"
 "http://www.w3.org/Graphics/SVG/1.1/DTD/svg11.dtd">
<!-- Generated by graphviz version 2.43.0 (0)
 -->
<!-- Title: netspeak::invertedindex::variable_size_iter::write Pages: 1 -->
<svg width="970pt" height="258pt"
 viewBox="0.00 0.00 970.00 257.50" xmlns="http://www.w3.org/2000/svg" xmlns:xlink="http://www.w3.org/1999/xlink">
<g id="graph0" class="graph" transform="scale(1 1) rotate(0) translate(4 253.5)">
<title>netspeak::invertedindex::variable_size_iter::write</title>
<!-- Node1 -->
<g id="Node000001" class="node">
<title>Node1</title>
<g id="a_Node000001"><a xlink:title=" ">
<polygon fill="#999999" stroke="#666666" points="140,-187 0,-187 0,-157 140,-157 140,-187"/>
<text text-anchor="start" x="8" y="-175" font-family="Helvetica,sans-Serif" font-size="10.00">netspeak::invertedindex</text>
<text text-anchor="middle" x="70" y="-164" font-family="Helvetica,sans-Serif" font-size="10.00">::variable_size_iter::write</text>
</a>
</g>
</g>
<!-- Node2 -->
<g id="Node000002" class="node">
<title>Node2</title>
<g id="a_Node000002"><a xlink:href="namespacenetspeak_1_1util.html#a33fbb28caf0f5be34cbce2f84faecb87" target="_top" xlink:title=" ">
<polygon fill="white" stroke="#666666" points="649,-249.5 532,-249.5 532,-230.5 649,-230.5 649,-249.5"/>
<text text-anchor="middle" x="590.5" y="-237.5" font-family="Helvetica,sans-Serif" font-size="10.00">netspeak::util::fwrite</text>
</a>
</g>
</g>
<!-- Node1&#45;&gt;Node2 -->
<g id="edge1_Node000001_Node000002" class="edge">
<title>Node1&#45;&gt;Node2</title>
<g id="a_edge1_Node000001_Node000002"><a xlink:title=" ">
<path fill="none" stroke="#63b8ff" d="M124.12,-187.06C140.64,-191.37 158.99,-195.76 176,-199 296.46,-221.92 439.26,-232.48 521.62,-236.99"/>
<polygon fill="#63b8ff" stroke="#63b8ff" points="521.67,-240.49 531.85,-237.53 522.05,-233.5 521.67,-240.49"/>
</a>
</g>
</g>
<!-- Node5 -->
<g id="Node000005" class="node">
<title>Node5</title>
<g id="a_Node000005"><a xlink:href="structnetspeak_1_1invertedindex_1_1variable__size__iter.html#acc89c6573d07269b3ba6d5fb22498601" target="_top" xlink:title=" ">
<polygon fill="white" stroke="#666666" points="313.5,-168.5 178.5,-168.5 178.5,-127.5 313.5,-127.5 313.5,-168.5"/>
<text text-anchor="start" x="186.5" y="-156.5" font-family="Helvetica,sans-Serif" font-size="10.00">netspeak::invertedindex</text>
<text text-anchor="start" x="186.5" y="-145.5" font-family="Helvetica,sans-Serif" font-size="10.00">::variable_size_iter::</text>
<text text-anchor="middle" x="246" y="-134.5" font-family="Helvetica,sans-Serif" font-size="10.00">rewind</text>
</a>
</g>
</g>
<!-- Node1&#45;&gt;Node5 -->
<g id="edge5_Node000001_Node000005" class="edge">
<title>Node1&#45;&gt;Node5</title>
<g id="a_edge5_Node000001_Node000005"><a xlink:title=" ">
<path fill="none" stroke="#63b8ff" d="M140.02,-162.48C149.29,-161.2 158.84,-159.88 168.23,-158.59"/>
<polygon fill="#63b8ff" stroke="#63b8ff" points="168.91,-162.03 178.33,-157.2 167.95,-155.09 168.91,-162.03"/>
</a>
</g>
</g>
<!-- Node9 -->
<g id="Node000009" class="node">
<title>Node9</title>
<g id="a_Node000009"><a xlink:href="structnetspeak_1_1invertedindex_1_1variable__size__iter.html#a84f326125a36a1055b2c34923767737d" target="_top" xlink:title=" ">
<polygon fill="white" stroke="#666666" points="316,-78 176,-78 176,-48 316,-48 316,-78"/>
<text text-anchor="start" x="184" y="-66" font-family="Helvetica,sans-Serif" font-size="10.00">netspeak::invertedindex</text>
<text text-anchor="middle" x="246" y="-55" font-family="Helvetica,sans-Serif" font-size="10.00">::variable_size_iter::swap</text>
</a>
</g>
</g>
<!-- Node1&#45;&gt;Node9 -->
<g id="edge11_Node000001_Node000009" class="edge">
<title>Node1&#45;&gt;Node9</title>
<g id="a_edge11_Node000001_Node000009"><a xlink:title=" ">
<path fill="none" stroke="#63b8ff" d="M95.19,-156.84C125.71,-137.73 178.3,-104.78 212.36,-83.45"/>
<polygon fill="#63b8ff" stroke="#63b8ff" points="214.4,-86.3 221.01,-78.03 210.68,-80.37 214.4,-86.3"/>
</a>
</g>
</g>
<!-- Node14 -->
<g id="Node000014" class="node">
<title>Node14</title>
<g id="a_Node000014"><a xlink:href="classnetspeak_1_1invertedindex_1_1ByteBuffer.html#aa1d97fc0d4ab34140ed20f41ad28ec49" target="_top" xlink:title=" ">
<polygon fill="white" stroke="#666666" points="487,-212 352,-212 352,-182 487,-182 487,-212"/>
<text text-anchor="start" x="360" y="-200" font-family="Helvetica,sans-Serif" font-size="10.00">netspeak::invertedindex</text>
<text text-anchor="middle" x="419.5" y="-189" font-family="Helvetica,sans-Serif" font-size="10.00">::ByteBuffer::write</text>
</a>
</g>
</g>
<!-- Node1&#45;&gt;Node14 -->
<g id="edge21_Node000001_Node000014" class="edge">
<title>Node1&#45;&gt;Node14</title>
<g id="a_edge21_Node000001_Node000014"><a xlink:title=" ">
<path fill="none" stroke="#63b8ff" d="M140.07,-176.97C198.26,-181.16 281.43,-187.14 341.7,-191.47"/>
<polygon fill="#63b8ff" stroke="#63b8ff" points="341.69,-194.98 351.92,-192.21 342.2,-188 341.69,-194.98"/>
</a>
</g>
</g>
<!-- Node3 -->
<g id="Node000003" class="node">
<title>Node3</title>
<g id="a_Node000003"><a xlink:href="namespacenetspeak_1_1util.html#a4c91ad572508b4021399ac7dddff574d" target="_top" xlink:title=" ">
<polygon fill="white" stroke="#666666" points="962,-152.5 849,-152.5 849,-133.5 962,-133.5 962,-152.5"/>
<text text-anchor="middle" x="905.5" y="-140.5" font-family="Helvetica,sans-Serif" font-size="10.00">netspeak::util::hash</text>
</a>
</g>
</g>
<!-- Node2&#45;&gt;Node3 -->
<g id="edge2_Node000002_Node000003" class="edge">
<title>Node2&#45;&gt;Node3</title>
<g id="a_edge2_Node000002_Node000003"><a xlink:title=" ">
<path fill="none" stroke="#63b8ff" d="M649.02,-230.67C694.38,-222.38 758.8,-208.54 813,-189 836.5,-180.53 861.77,-167.5 879.78,-157.47"/>
<polygon fill="#63b8ff" stroke="#63b8ff" points="881.52,-160.51 888.5,-152.53 878.07,-154.41 881.52,-160.51"/>
</a>
</g>
</g>
<!-- Node4 -->
<g id="Node000004" class="node">
<title>Node4</title>
<g id="a_Node000004"><a xlink:href="namespacenetspeak_1_1util.html#af94d48fda5f335ddcb461a8237079866" target="_top" xlink:title=" ">
<polygon fill="white" stroke="#666666" points="813,-180 694,-180 694,-150 813,-150 813,-180"/>
<text text-anchor="start" x="702" y="-168" font-family="Helvetica,sans-Serif" font-size="10.00">netspeak::util::signal</text>
<text text-anchor="middle" x="753.5" y="-157" font-family="Helvetica,sans-Serif" font-size="10.00">_error</text>
</a>
</g>
</g>
<!-- Node2&#45;&gt;Node4 -->
<g id="edge3_Node000002_Node000004" class="edge">
<title>Node2&#45;&gt;Node4</title>
<g id="a_edge3_Node000002_Node000004"><a xlink:title=" ">
<path fill="none" stroke="#63b8ff" d="M631.12,-230.49C640.11,-227.83 649.51,-224.66 658,-221 680.58,-211.28 704.38,-197.15 722.45,-185.51"/>
<polygon fill="#63b8ff" stroke="#63b8ff" points="724.37,-188.44 730.83,-180.03 720.54,-182.58 724.37,-188.44"/>
</a>
</g>
</g>
<!-- Node4&#45;&gt;Node3 -->
<g id="edge4_Node000004_Node000003" class="edge">
<title>Node4&#45;&gt;Node3</title>
<g id="a_edge4_Node000004_Node000003"><a xlink:title=" ">
<path fill="none" stroke="#63b8ff" d="M813.35,-156.37C821.64,-155.15 830.2,-153.9 838.61,-152.66"/>
<polygon fill="#63b8ff" stroke="#63b8ff" points="839.37,-156.09 848.76,-151.18 838.36,-149.16 839.37,-156.09"/>
</a>
</g>
</g>
<!-- Node6 -->
<g id="Node000006" class="node">
<title>Node6</title>
<g id="a_Node000006"><a xlink:href="classnetspeak_1_1invertedindex_1_1ByteBuffer.html#a8bf3b64f0b8396aaf781e0e166fda2a4" target="_top" xlink:title=" ">
<polygon fill="white" stroke="#666666" points="487,-126 352,-126 352,-96 487,-96 487,-126"/>
<text text-anchor="start" x="360" y="-114" font-family="Helvetica,sans-Serif" font-size="10.00">netspeak::invertedindex</text>
<text text-anchor="middle" x="419.5" y="-103" font-family="Helvetica,sans-Serif" font-size="10.00">::ByteBuffer::clear</text>
</a>
</g>
</g>
<!-- Node5&#45;&gt;Node6 -->
<g id="edge6_Node000005_Node000006" class="edge">
<title>Node5&#45;&gt;Node6</title>
<g id="a_edge6_Node000005_Node000006"><a xlink:title=" ">
<path fill="none" stroke="#63b8ff" d="M313.8,-133.59C322.98,-131.61 332.48,-129.56 341.82,-127.54"/>
<polygon fill="#63b8ff" stroke="#63b8ff" points="342.85,-130.9 351.88,-125.37 341.37,-124.06 342.85,-130.9"/>
</a>
</g>
</g>
<!-- Node8 -->
<g id="Node000008" class="node">
<title>Node8</title>
<g id="a_Node000008"><a xlink:href="namespacenetspeak_1_1util.html#a3015ae7c69935f843a1915958d0de042" target="_top" xlink:title=" ">
<polygon fill="white" stroke="#666666" points="648.5,-163.5 532.5,-163.5 532.5,-144.5 648.5,-144.5 648.5,-163.5"/>
<text text-anchor="middle" x="590.5" y="-151.5" font-family="Helvetica,sans-Serif" font-size="10.00">netspeak::util::fseek</text>
</a>
</g>
</g>
<!-- Node5&#45;&gt;Node8 -->
<g id="edge8_Node000005_Node000008" class="edge">
<title>Node5&#45;&gt;Node8</title>
<g id="a_edge8_Node000005_Node000008"><a xlink:title=" ">
<path fill="none" stroke="#63b8ff" d="M313.85,-149.17C374.03,-150.23 462.02,-151.77 522.3,-152.82"/>
<polygon fill="#63b8ff" stroke="#63b8ff" points="522.42,-156.33 532.48,-153 522.54,-149.33 522.42,-156.33"/>
</a>
</g>
</g>
<!-- Node7 -->
<g id="Node000007" class="node">
<title>Node7</title>
<g id="a_Node000007"><a xlink:href="classnetspeak_1_1invertedindex_1_1ByteBuffer.html#a109be725161102fab0e4b4ee0651491e" target="_top" xlink:title=" ">
<polygon fill="white" stroke="#666666" points="658,-78 523,-78 523,-48 658,-48 658,-78"/>
<text text-anchor="start" x="531" y="-66" font-family="Helvetica,sans-Serif" font-size="10.00">netspeak::invertedindex</text>
<text text-anchor="middle" x="590.5" y="-55" font-family="Helvetica,sans-Serif" font-size="10.00">::ByteBuffer::rewind</text>
</a>
</g>
</g>
<!-- Node6&#45;&gt;Node7 -->
<g id="edge7_Node000006_Node000007" class="edge">
<title>Node6&#45;&gt;Node7</title>
<g id="a_edge7_Node000006_Node000007"><a xlink:title=" ">
<path fill="none" stroke="#63b8ff" d="M473.51,-95.94C490.34,-91.16 509.12,-85.83 526.58,-80.87"/>
<polygon fill="#63b8ff" stroke="#63b8ff" points="528.02,-84.1 536.68,-78 526.1,-77.37 528.02,-84.1"/>
</a>
</g>
</g>
<!-- Node8&#45;&gt;Node3 -->
<g id="edge9_Node000008_Node000003" class="edge">
<title>Node8&#45;&gt;Node3</title>
<g id="a_edge9_Node000008_Node000003"><a xlink:title=" ">
<path fill="none" stroke="#63b8ff" d="M648.57,-145.47C663.34,-143.61 679.23,-141.93 694,-141 746.78,-137.67 760.11,-140.42 813,-141 821.34,-141.09 830.1,-141.23 838.76,-141.39"/>
<polygon fill="#63b8ff" stroke="#63b8ff" points="838.79,-144.89 848.86,-141.59 838.93,-137.89 838.79,-144.89"/>
</a>
</g>
</g>
<!-- Node8&#45;&gt;Node4 -->
<g id="edge10_Node000008_Node000004" class="edge">
<title>Node8&#45;&gt;Node4</title>
<g id="a_edge10_Node000008_Node000004"><a xlink:title=" ">
<path fill="none" stroke="#63b8ff" d="M648.72,-157.91C660.04,-158.68 672.04,-159.5 683.7,-160.3"/>
<polygon fill="#63b8ff" stroke="#63b8ff" points="683.62,-163.8 693.84,-160.99 684.1,-156.82 683.62,-163.8"/>
</a>
</g>
</g>
<!-- Node10 -->
<g id="Node000010" class="node">
<title>Node10</title>
<g id="a_Node000010"><a xlink:href="classnetspeak_1_1invertedindex_1_1ByteBuffer.html#a2f5a59f9d290bd2116bbd73244666171" target="_top" xlink:title=" ">
<polygon fill="white" stroke="#666666" points="487,-30 352,-30 352,0 487,0 487,-30"/>
<text text-anchor="start" x="360" y="-18" font-family="Helvetica,sans-Serif" font-size="10.00">netspeak::invertedindex</text>
<text text-anchor="middle" x="419.5" y="-7" font-family="Helvetica,sans-Serif" font-size="10.00">::ByteBuffer::read</text>
</a>
</g>
</g>
<!-- Node9&#45;&gt;Node10 -->
<g id="edge12_Node000009_Node000010" class="edge">
<title>Node9&#45;&gt;Node10</title>
<g id="a_edge12_Node000009_Node000010"><a xlink:title=" ">
<path fill="none" stroke="#63b8ff" d="M300.79,-47.94C318.03,-43.12 337.28,-37.73 355.14,-32.73"/>
<polygon fill="#63b8ff" stroke="#63b8ff" points="356.21,-36.07 364.9,-30 354.32,-29.33 356.21,-36.07"/>
</a>
</g>
</g>
<!-- Node13 -->
<g id="Node000013" class="node">
<title>Node13</title>
<g id="a_Node000013"><a xlink:href="classnetspeak_1_1invertedindex_1_1ByteBuffer.html#ab83184815805ed4606aa924eb9a6f42c" target="_top" xlink:title=" ">
<polygon fill="white" stroke="#666666" points="487,-78 352,-78 352,-48 487,-48 487,-78"/>
<text text-anchor="start" x="360" y="-66" font-family="Helvetica,sans-Serif" font-size="10.00">netspeak::invertedindex</text>
<text text-anchor="middle" x="419.5" y="-55" font-family="Helvetica,sans-Serif" font-size="10.00">::ByteBuffer::resize</text>
</a>
</g>
</g>
<!-- Node9&#45;&gt;Node13 -->
<g id="edge18_Node000009_Node000013" class="edge">
<title>Node9&#45;&gt;Node13</title>
<g id="a_edge18_Node000009_Node000013"><a xlink:title=" ">
<path fill="none" stroke="#63b8ff" d="M316.26,-63C324.59,-63 333.13,-63 341.56,-63"/>
<polygon fill="#63b8ff" stroke="#63b8ff" points="341.76,-66.5 351.76,-63 341.76,-59.5 341.76,-66.5"/>
</a>
</g>
</g>
<!-- Node10&#45;&gt;Node7 -->
<g id="edge16_Node000010_Node000007" class="edge">
<title>Node10&#45;&gt;Node7</title>
<g id="a_edge16_Node000010_Node000007"><a xlink:title=" ">
<path fill="none" stroke="#63b8ff" d="M473.51,-30.06C490.34,-34.84 509.12,-40.17 526.58,-45.13"/>
<polygon fill="#63b8ff" stroke="#63b8ff" points="526.1,-48.63 536.68,-48 528.02,-41.9 526.1,-48.63"/>
</a>
</g>
</g>
<!-- Node11 -->
<g id="Node000011" class="node">
<title>Node11</title>
<g id="a_Node000011"><a xlink:href="namespacenetspeak_1_1util.html#a0f64660040077bd1ae3a46941a000b07" target="_top" xlink:title=" ">
<polygon fill="white" stroke="#666666" points="648,-29.5 533,-29.5 533,-10.5 648,-10.5 648,-29.5"/>
<text text-anchor="middle" x="590.5" y="-17.5" font-family="Helvetica,sans-Serif" font-size="10.00">netspeak::util::fread</text>
</a>
</g>
</g>
<!-- Node10&#45;&gt;Node11 -->
<g id="edge13_Node000010_Node000011" class="edge">
<title>Node10&#45;&gt;Node11</title>
<g id="a_edge13_Node000010_Node000011"><a xlink:title=" ">
<path fill="none" stroke="#63b8ff" d="M487.29,-16.98C498.92,-17.32 511.03,-17.68 522.66,-18.02"/>
<polygon fill="#63b8ff" stroke="#63b8ff" points="522.64,-21.52 532.74,-18.32 522.84,-14.53 522.64,-21.52"/>
</a>
</g>
</g>
<!-- Node12 -->
<g id="Node000012" class="node">
<title>Node12</title>
<g id="a_Node000012"><a xlink:href="classnetspeak_1_1invertedindex_1_1ByteBuffer.html#ac7160f8bd36f86815662909c0722556f" target="_top" xlink:title=" ">
<polygon fill="white" stroke="#666666" points="658,-126 523,-126 523,-96 658,-96 658,-126"/>
<text text-anchor="start" x="531" y="-114" font-family="Helvetica,sans-Serif" font-size="10.00">netspeak::invertedindex</text>
<text text-anchor="middle" x="590.5" y="-103" font-family="Helvetica,sans-Serif" font-size="10.00">::ByteBuffer::size</text>
</a>
</g>
</g>
<!-- Node10&#45;&gt;Node12 -->
<g id="edge17_Node000010_Node000012" class="edge">
<title>Node10&#45;&gt;Node12</title>
<g id="a_edge17_Node000010_Node000012"><a xlink:title=" ">
<path fill="none" stroke="#63b8ff" d="M471.82,-30.01C477.19,-32.59 482.36,-35.57 487,-39 508.44,-54.86 501.56,-71.14 523,-87 525.03,-88.5 527.16,-89.92 529.37,-91.25"/>
<polygon fill="#63b8ff" stroke="#63b8ff" points="527.71,-94.33 538.18,-95.99 531.03,-88.17 527.71,-94.33"/>
</a>
</g>
</g>
<!-- Node11&#45;&gt;Node3 -->
<g id="edge14_Node000011_Node000003" class="edge">
<title>Node11&#45;&gt;Node3</title>
<g id="a_edge14_Node000011_Node000003"><a xlink:title=" ">
<path fill="none" stroke="#63b8ff" d="M627.99,-29.57C637.81,-32.37 648.37,-35.61 658,-39 737.79,-67.11 828.82,-107.87 874.71,-129.04"/>
<polygon fill="#63b8ff" stroke="#63b8ff" points="873.51,-132.35 884.06,-133.38 876.45,-126 873.51,-132.35"/>
</a>
</g>
</g>
<!-- Node11&#45;&gt;Node4 -->
<g id="edge15_Node000011_Node000004" class="edge">
<title>Node11&#45;&gt;Node4</title>
<g id="a_edge15_Node000011_Node000004"><a xlink:title=" ">
<path fill="none" stroke="#63b8ff" d="M639.36,-29.56C645.94,-32.03 652.36,-35.12 658,-39 678.18,-52.89 716.4,-109.05 737.52,-141.51"/>
<polygon fill="#63b8ff" stroke="#63b8ff" points="734.63,-143.49 743,-149.98 740.51,-139.69 734.63,-143.49"/>
</a>
</g>
</g>
<!-- Node13&#45;&gt;Node7 -->
<g id="edge19_Node000013_Node000007" class="edge">
<title>Node13&#45;&gt;Node7</title>
<g id="a_edge19_Node000013_Node000007"><a xlink:title=" ">
<path fill="none" stroke="#63b8ff" d="M487.29,-63C495.62,-63 504.19,-63 512.66,-63"/>
<polygon fill="#63b8ff" stroke="#63b8ff" points="512.92,-66.5 522.92,-63 512.92,-59.5 512.92,-66.5"/>
</a>
</g>
</g>
<!-- Node13&#45;&gt;Node12 -->
<g id="edge20_Node000013_Node000012" class="edge">
<title>Node13&#45;&gt;Node12</title>
<g id="a_edge20_Node000013_Node000012"><a xlink:title=" ">
<path fill="none" stroke="#63b8ff" d="M473.51,-78.06C490.34,-82.84 509.12,-88.17 526.58,-93.13"/>
<polygon fill="#63b8ff" stroke="#63b8ff" points="526.1,-96.63 536.68,-96 528.02,-89.9 526.1,-96.63"/>
</a>
</g>
</g>
<!-- Node14&#45;&gt;Node2 -->
<g id="edge23_Node000014_Node000002" class="edge">
<title>Node14&#45;&gt;Node2</title>
<g id="a_edge23_Node000014_Node000002"><a xlink:title=" ">
<path fill="none" stroke="#63b8ff" d="M479.61,-212.04C500.12,-217.26 522.82,-223.03 542.25,-227.98"/>
<polygon fill="#63b8ff" stroke="#63b8ff" points="541.52,-231.4 552.08,-230.48 543.25,-224.62 541.52,-231.4"/>
</a>
</g>
</g>
<!-- Node14&#45;&gt;Node12 -->
<g id="edge24_Node000014_Node000012" class="edge">
<title>Node14&#45;&gt;Node12</title>
<g id="a_edge24_Node000014_Node000012"><a xlink:title=" ">
<path fill="none" stroke="#63b8ff" d="M442.58,-181.88C462.87,-168.43 494.09,-148.79 523,-135 526.74,-133.22 530.65,-131.49 534.62,-129.83"/>
<polygon fill="#63b8ff" stroke="#63b8ff" points="535.96,-133.06 543.93,-126.09 533.35,-126.56 535.96,-133.06"/>
</a>
</g>
</g>
<!-- Node15 -->
<g id="Node000015" class="node">
<title>Node15</title>
<g id="a_Node000015"><a xlink:href="classnetspeak_1_1invertedindex_1_1ByteBuffer.html#ad475d7f84f0c84151455988a2c08e486" target="_top" xlink:title=" ">
<polygon fill="white" stroke="#666666" points="658,-212 523,-212 523,-182 658,-182 658,-212"/>
<text text-anchor="start" x="531" y="-200" font-family="Helvetica,sans-Serif" font-size="10.00">netspeak::invertedindex</text>
<text text-anchor="middle" x="590.5" y="-189" font-family="Helvetica,sans-Serif" font-size="10.00">::ByteBuffer::begin</text>
</a>
</g>
</g>
<!-- Node14&#45;&gt;Node15 -->
<g id="edge22_Node000014_Node000015" class="edge">
<title>Node14&#45;&gt;Node15</title>
<g id="a_edge22_Node000014_Node000015"><a xlink:title=" ">
<path fill="none" stroke="#63b8ff" d="M487.29,-197C495.62,-197 504.19,-197 512.66,-197"/>
<polygon fill="#63b8ff" stroke="#63b8ff" points="512.92,-200.5 522.92,-197 512.92,-193.5 512.92,-200.5"/>
</a>
</g>
</g>
</g>
</svg>
