<?xml version="1.0" encoding="UTF-8" standalone="no"?>
<!DOCTYPE svg PUBLIC "-//W3C//DTD SVG 1.1//EN"
 "http://www.w3.org/Graphics/SVG/1.1/DTD/svg11.dtd">
<!-- Generated by graphviz version 2.43.0 (0)
 -->
<!-- Title: std::formatter&lt; netspeak::value::pair&lt; T1, T2 &gt; &gt; Pages: 1 -->
<svg width="142pt" height="164pt"
 viewBox="0.00 0.00 142.00 164.00" xmlns="http://www.w3.org/2000/svg" xmlns:xlink="http://www.w3.org/1999/xlink">
<g id="graph0" class="graph" transform="scale(1 1) rotate(0) translate(4 160)">
<title>std::formatter&lt; netspeak::value::pair&lt; T1, T2 &gt; &gt;</title>
<!-- Node1 -->
<g id="Node000001" class="node">
<title>Node1</title>
<g id="a_Node000001"><a xlink:title=" ">
<polygon fill="#999999" stroke="transparent" points="134,-60 0,-60 0,0 134,0 134,-60"/>
<text text-anchor="start" x="5" y="-48" font-family="Helvetica,sans-Serif" font-size="10.00">std::formatter&lt; netspeak</text>
<text text-anchor="start" x="6" y="-37" font-family="Helvetica,sans-Serif" font-size="10.00">::value::pair&lt; T1, T2 &gt; &gt;</text>
<text text-anchor="start" x="65" y="-22" font-family="Helvetica,sans-Serif" font-size="10.00"> </text>
<text text-anchor="start" x="22" y="-7" font-family="Helvetica,sans-Serif" font-size="10.00">+</text>
<text text-anchor="start" x="53" y="-7" font-family="Helvetica,sans-Serif" font-size="10.00">format()</text>
<polygon fill="#666666" stroke="#666666" points="0,-32 0,-32 134,-32 134,-32 0,-32"/>
<polygon fill="#666666" stroke="#666666" points="0,-17 0,-17 134,-17 134,-17 0,-17"/>
<polygon fill="none" stroke="#666666" points="0,0 0,-60 134,-60 134,0 0,0"/>
</a>
</g>
</g>
<!-- Node2 -->
<g id="Node000002" class="node">
<title>Node2</title>
<g id="a_Node000002"><a xlink:title=" ">
<polygon fill="white" stroke="transparent" points="119,-156 15,-156 15,-96 119,-96 119,-156"/>
<text text-anchor="start" x="20" y="-144" font-family="Helvetica,sans-Serif" font-size="10.00">std::formatter&lt; std</text>
<text text-anchor="start" x="44" y="-133" font-family="Helvetica,sans-Serif" font-size="10.00">::string &gt;</text>
<text text-anchor="start" x="65" y="-118" font-family="Helvetica,sans-Serif" font-size="10.00"> </text>
<text text-anchor="start" x="65" y="-103" font-family="Helvetica,sans-Serif" font-size="10.00"> </text>
<polygon fill="#666666" stroke="#666666" points="15,-128 15,-128 119,-128 119,-128 15,-128"/>
<polygon fill="#666666" stroke="#666666" points="15,-113 15,-113 119,-113 119,-113 15,-113"/>
<polygon fill="none" stroke="#666666" points="15,-96 15,-156 119,-156 119,-96 15,-96"/>
</a>
</g>
</g>
<!-- Node2&#45;&gt;Node1 -->
<g id="edge1_Node000001_Node000002" class="edge">
<title>Node2&#45;&gt;Node1</title>
<g id="a_edge1_Node000001_Node000002"><a xlink:title=" ">
<path fill="none" stroke="#63b8ff" d="M67,-85.63C67,-77.11 67,-68.25 67,-60.21"/>
<polygon fill="none" stroke="#63b8ff" points="63.5,-85.77 67,-95.77 70.5,-85.77 63.5,-85.77"/>
</a>
</g>
</g>
</g>
</svg>
