<?xml version="1.0" encoding="UTF-8" standalone="no"?>
<!DOCTYPE svg PUBLIC "-//W3C//DTD SVG 1.1//EN"
 "http://www.w3.org/Graphics/SVG/1.1/DTD/svg11.dtd">
<!-- Generated by graphviz version 2.43.0 (0)
 -->
<!-- Title: netspeak::NormQueryCounter::UnitResult Pages: 1 -->
<svg width="164pt" height="278pt"
 viewBox="0.00 0.00 164.00 278.00" xmlns="http://www.w3.org/2000/svg" xmlns:xlink="http://www.w3.org/1999/xlink">
<g id="graph0" class="graph" transform="scale(1 1) rotate(0) translate(4 274)">
<title>netspeak::NormQueryCounter::UnitResult</title>
<!-- Node1 -->
<g id="Node000001" class="node">
<title>Node1</title>
<g id="a_Node000001"><a xlink:title="This is the result of an estimate. It&#39;s either a constant value or a function dependent on the number...">
<polygon fill="#999999" stroke="transparent" points="156,-270 0,-270 0,0 156,0 156,-270"/>
<text text-anchor="start" x="5" y="-258" font-family="Helvetica,sans-Serif" font-size="10.00">netspeak::NormQueryCounter</text>
<text text-anchor="start" x="49" y="-247" font-family="Helvetica,sans-Serif" font-size="10.00">::UnitResult</text>
<text text-anchor="start" x="24" y="-232" font-family="Helvetica,sans-Serif" font-size="10.00">&#45;</text>
<text text-anchor="start" x="52" y="-232" font-family="Helvetica,sans-Serif" font-size="10.00">_is_constant</text>
<text text-anchor="start" x="24" y="-217" font-family="Helvetica,sans-Serif" font-size="10.00">&#45;</text>
<text text-anchor="start" x="52" y="-217" font-family="Helvetica,sans-Serif" font-size="10.00">_constant</text>
<text text-anchor="start" x="24" y="-202" font-family="Helvetica,sans-Serif" font-size="10.00">&#45;</text>
<text text-anchor="start" x="52" y="-202" font-family="Helvetica,sans-Serif" font-size="10.00">_function</text>
<text text-anchor="start" x="21.5" y="-187" font-family="Helvetica,sans-Serif" font-size="10.00">+</text>
<text text-anchor="start" x="52" y="-187" font-family="Helvetica,sans-Serif" font-size="10.00">UnitResult()</text>
<text text-anchor="start" x="21.5" y="-172" font-family="Helvetica,sans-Serif" font-size="10.00">+</text>
<text text-anchor="start" x="52" y="-172" font-family="Helvetica,sans-Serif" font-size="10.00">UnitResult()</text>
<text text-anchor="start" x="21.5" y="-157" font-family="Helvetica,sans-Serif" font-size="10.00">+</text>
<text text-anchor="start" x="52" y="-157" font-family="Helvetica,sans-Serif" font-size="10.00">is_constant()</text>
<text text-anchor="start" x="21.5" y="-142" font-family="Helvetica,sans-Serif" font-size="10.00">+</text>
<text text-anchor="start" x="52" y="-142" font-family="Helvetica,sans-Serif" font-size="10.00">constant()</text>
<text text-anchor="start" x="21.5" y="-127" font-family="Helvetica,sans-Serif" font-size="10.00">+</text>
<text text-anchor="start" x="52" y="-127" font-family="Helvetica,sans-Serif" font-size="10.00">function()</text>
<text text-anchor="start" x="21.5" y="-112" font-family="Helvetica,sans-Serif" font-size="10.00">+</text>
<text text-anchor="start" x="52" y="-112" font-family="Helvetica,sans-Serif" font-size="10.00">operator+()</text>
<text text-anchor="start" x="21.5" y="-97" font-family="Helvetica,sans-Serif" font-size="10.00">+</text>
<text text-anchor="start" x="52" y="-97" font-family="Helvetica,sans-Serif" font-size="10.00">operator*()</text>
<text text-anchor="start" x="21.5" y="-82" font-family="Helvetica,sans-Serif" font-size="10.00">+</text>
<text text-anchor="start" x="52" y="-82" font-family="Helvetica,sans-Serif" font-size="10.00">safe_add()</text>
<text text-anchor="start" x="21.5" y="-67" font-family="Helvetica,sans-Serif" font-size="10.00">+</text>
<text text-anchor="start" x="52" y="-67" font-family="Helvetica,sans-Serif" font-size="10.00">safe_add()</text>
<text text-anchor="start" x="21.5" y="-52" font-family="Helvetica,sans-Serif" font-size="10.00">+</text>
<text text-anchor="start" x="52" y="-52" font-family="Helvetica,sans-Serif" font-size="10.00">safe_add()</text>
<text text-anchor="start" x="21.5" y="-37" font-family="Helvetica,sans-Serif" font-size="10.00">+</text>
<text text-anchor="start" x="52" y="-37" font-family="Helvetica,sans-Serif" font-size="10.00">safe_mult()</text>
<text text-anchor="start" x="21.5" y="-22" font-family="Helvetica,sans-Serif" font-size="10.00">+</text>
<text text-anchor="start" x="52" y="-22" font-family="Helvetica,sans-Serif" font-size="10.00">safe_mult()</text>
<text text-anchor="start" x="21.5" y="-7" font-family="Helvetica,sans-Serif" font-size="10.00">+</text>
<text text-anchor="start" x="52" y="-7" font-family="Helvetica,sans-Serif" font-size="10.00">safe_mult()</text>
<polygon fill="#666666" stroke="#666666" points="0,-242 0,-242 156,-242 156,-242 0,-242"/>
<polygon fill="#666666" stroke="#666666" points="0,-197 0,-197 50,-197 50,-197 0,-197"/>
<polygon fill="#666666" stroke="#666666" points="50,-197 50,-197 156,-197 156,-197 50,-197"/>
<polygon fill="none" stroke="#666666" points="0,0 0,-270 156,-270 156,0 0,0"/>
</a>
</g>
</g>
</g>
</svg>
