<?xml version="1.0" encoding="UTF-8" standalone="no"?>
<!DOCTYPE svg PUBLIC "-//W3C//DTD SVG 1.1//EN"
 "http://www.w3.org/Graphics/SVG/1.1/DTD/svg11.dtd">
<!-- Generated by graphviz version 2.43.0 (0)
 -->
<!-- Title: netspeak::invertedindex::variable_size_iter::next Pages: 1 -->
<svg width="967pt" height="214pt"
 viewBox="0.00 0.00 967.00 214.00" xmlns="http://www.w3.org/2000/svg" xmlns:xlink="http://www.w3.org/1999/xlink">
<g id="graph0" class="graph" transform="scale(1 1) rotate(0) translate(4 210)">
<title>netspeak::invertedindex::variable_size_iter::next</title>
<!-- Node1 -->
<g id="Node000001" class="node">
<title>Node1</title>
<g id="a_Node000001"><a xlink:title=" ">
<polygon fill="#999999" stroke="#666666" points="137,-141 0,-141 0,-111 137,-111 137,-141"/>
<text text-anchor="start" x="8" y="-129" font-family="Helvetica,sans-Serif" font-size="10.00">netspeak::invertedindex</text>
<text text-anchor="middle" x="68.5" y="-118" font-family="Helvetica,sans-Serif" font-size="10.00">::variable_size_iter::next</text>
</a>
</g>
</g>
<!-- Node2 -->
<g id="Node000002" class="node">
<title>Node2</title>
<g id="a_Node000002"><a xlink:href="classnetspeak_1_1invertedindex_1_1ByteBuffer.html#af6a5e40f34b9a46557e519b5a4998450" target="_top" xlink:title=" ">
<polygon fill="white" stroke="#666666" points="310.5,-206 175.5,-206 175.5,-176 310.5,-176 310.5,-206"/>
<text text-anchor="start" x="183.5" y="-194" font-family="Helvetica,sans-Serif" font-size="10.00">netspeak::invertedindex</text>
<text text-anchor="middle" x="243" y="-183" font-family="Helvetica,sans-Serif" font-size="10.00">::ByteBuffer::position</text>
</a>
</g>
</g>
<!-- Node1&#45;&gt;Node2 -->
<g id="edge1_Node000001_Node000002" class="edge">
<title>Node1&#45;&gt;Node2</title>
<g id="a_edge1_Node000001_Node000002"><a xlink:title=" ">
<path fill="none" stroke="#63b8ff" d="M109.51,-141.08C134.24,-150.39 166.17,-162.43 192.49,-172.34"/>
<polygon fill="#63b8ff" stroke="#63b8ff" points="191.32,-175.64 201.91,-175.89 193.79,-169.09 191.32,-175.64"/>
</a>
</g>
</g>
<!-- Node3 -->
<g id="Node000003" class="node">
<title>Node3</title>
<g id="a_Node000003"><a xlink:href="classnetspeak_1_1invertedindex_1_1ByteBuffer.html#aa4bd7f0747700d422b5fe2dbd19b8eda" target="_top" xlink:title=" ">
<polygon fill="white" stroke="#666666" points="484,-168 349,-168 349,-138 484,-138 484,-168"/>
<text text-anchor="start" x="357" y="-156" font-family="Helvetica,sans-Serif" font-size="10.00">netspeak::invertedindex</text>
<text text-anchor="middle" x="416.5" y="-145" font-family="Helvetica,sans-Serif" font-size="10.00">::ByteBuffer::seek</text>
</a>
</g>
</g>
<!-- Node1&#45;&gt;Node3 -->
<g id="edge2_Node000001_Node000003" class="edge">
<title>Node1&#45;&gt;Node3</title>
<g id="a_edge2_Node000001_Node000003"><a xlink:title=" ">
<path fill="none" stroke="#63b8ff" d="M137.03,-131.27C194.85,-135.78 278.08,-142.28 338.48,-146.99"/>
<polygon fill="#63b8ff" stroke="#63b8ff" points="338.48,-150.5 348.73,-147.79 339.03,-143.52 338.48,-150.5"/>
</a>
</g>
</g>
<!-- Node5 -->
<g id="Node000005" class="node">
<title>Node5</title>
<g id="a_Node000005"><a xlink:href="structnetspeak_1_1invertedindex_1_1variable__size__iter.html#a894551e3170fb4996369ef145659a4bf" target="_top" xlink:title=" ">
<polygon fill="white" stroke="#666666" points="310.5,-72 175.5,-72 175.5,-42 310.5,-42 310.5,-72"/>
<text text-anchor="start" x="183.5" y="-60" font-family="Helvetica,sans-Serif" font-size="10.00">netspeak::invertedindex</text>
<text text-anchor="middle" x="243" y="-49" font-family="Helvetica,sans-Serif" font-size="10.00">::variable_size_iter::size</text>
</a>
</g>
</g>
<!-- Node1&#45;&gt;Node5 -->
<g id="edge4_Node000001_Node000005" class="edge">
<title>Node1&#45;&gt;Node5</title>
<g id="a_edge4_Node000001_Node000005"><a xlink:title=" ">
<path fill="none" stroke="#63b8ff" d="M102.33,-110.97C122.55,-101.9 149.09,-90.34 173,-81 177.75,-79.14 182.71,-77.28 187.7,-75.45"/>
<polygon fill="#63b8ff" stroke="#63b8ff" points="189.06,-78.68 197.28,-72 186.68,-72.1 189.06,-78.68"/>
</a>
</g>
</g>
<!-- Node6 -->
<g id="Node000006" class="node">
<title>Node6</title>
<g id="a_Node000006"><a xlink:href="structnetspeak_1_1invertedindex_1_1variable__size__iter.html#a84f326125a36a1055b2c34923767737d" target="_top" xlink:title=" ">
<polygon fill="white" stroke="#666666" points="313,-120 173,-120 173,-90 313,-90 313,-120"/>
<text text-anchor="start" x="181" y="-108" font-family="Helvetica,sans-Serif" font-size="10.00">netspeak::invertedindex</text>
<text text-anchor="middle" x="243" y="-97" font-family="Helvetica,sans-Serif" font-size="10.00">::variable_size_iter::swap</text>
</a>
</g>
</g>
<!-- Node1&#45;&gt;Node6 -->
<g id="edge5_Node000001_Node000006" class="edge">
<title>Node1&#45;&gt;Node6</title>
<g id="a_edge5_Node000001_Node000006"><a xlink:title=" ">
<path fill="none" stroke="#63b8ff" d="M137.18,-117.76C145.59,-116.74 154.25,-115.68 162.82,-114.64"/>
<polygon fill="#63b8ff" stroke="#63b8ff" points="163.31,-118.11 172.81,-113.42 162.46,-111.16 163.31,-118.11"/>
</a>
</g>
</g>
<!-- Node4 -->
<g id="Node000004" class="node">
<title>Node4</title>
<g id="a_Node000004"><a xlink:href="classnetspeak_1_1invertedindex_1_1ByteBuffer.html#ac7160f8bd36f86815662909c0722556f" target="_top" xlink:title=" ">
<polygon fill="white" stroke="#666666" points="655,-142 520,-142 520,-112 655,-112 655,-142"/>
<text text-anchor="start" x="528" y="-130" font-family="Helvetica,sans-Serif" font-size="10.00">netspeak::invertedindex</text>
<text text-anchor="middle" x="587.5" y="-119" font-family="Helvetica,sans-Serif" font-size="10.00">::ByteBuffer::size</text>
</a>
</g>
</g>
<!-- Node3&#45;&gt;Node4 -->
<g id="edge3_Node000003_Node000004" class="edge">
<title>Node3&#45;&gt;Node4</title>
<g id="a_edge3_Node000003_Node000004"><a xlink:title=" ">
<path fill="none" stroke="#63b8ff" d="M484.29,-142.72C492.72,-141.43 501.38,-140.09 509.94,-138.78"/>
<polygon fill="#63b8ff" stroke="#63b8ff" points="510.56,-142.22 519.92,-137.24 509.5,-135.31 510.56,-142.22"/>
</a>
</g>
</g>
<!-- Node7 -->
<g id="Node000007" class="node">
<title>Node7</title>
<g id="a_Node000007"><a xlink:href="classnetspeak_1_1invertedindex_1_1ByteBuffer.html#a2f5a59f9d290bd2116bbd73244666171" target="_top" xlink:title=" ">
<polygon fill="white" stroke="#666666" points="484,-72 349,-72 349,-42 484,-42 484,-72"/>
<text text-anchor="start" x="357" y="-60" font-family="Helvetica,sans-Serif" font-size="10.00">netspeak::invertedindex</text>
<text text-anchor="middle" x="416.5" y="-49" font-family="Helvetica,sans-Serif" font-size="10.00">::ByteBuffer::read</text>
</a>
</g>
</g>
<!-- Node6&#45;&gt;Node7 -->
<g id="edge6_Node000006_Node000007" class="edge">
<title>Node6&#45;&gt;Node7</title>
<g id="a_edge6_Node000006_Node000007"><a xlink:title=" ">
<path fill="none" stroke="#63b8ff" d="M297.79,-89.94C315.03,-85.12 334.28,-79.73 352.14,-74.73"/>
<polygon fill="#63b8ff" stroke="#63b8ff" points="353.21,-78.07 361.9,-72 351.32,-71.33 353.21,-78.07"/>
</a>
</g>
</g>
<!-- Node12 -->
<g id="Node000012" class="node">
<title>Node12</title>
<g id="a_Node000012"><a xlink:href="classnetspeak_1_1invertedindex_1_1ByteBuffer.html#ab83184815805ed4606aa924eb9a6f42c" target="_top" xlink:title=" ">
<polygon fill="white" stroke="#666666" points="484,-120 349,-120 349,-90 484,-90 484,-120"/>
<text text-anchor="start" x="357" y="-108" font-family="Helvetica,sans-Serif" font-size="10.00">netspeak::invertedindex</text>
<text text-anchor="middle" x="416.5" y="-97" font-family="Helvetica,sans-Serif" font-size="10.00">::ByteBuffer::resize</text>
</a>
</g>
</g>
<!-- Node6&#45;&gt;Node12 -->
<g id="edge13_Node000006_Node000012" class="edge">
<title>Node6&#45;&gt;Node12</title>
<g id="a_edge13_Node000006_Node000012"><a xlink:title=" ">
<path fill="none" stroke="#63b8ff" d="M313.26,-105C321.59,-105 330.13,-105 338.56,-105"/>
<polygon fill="#63b8ff" stroke="#63b8ff" points="338.76,-108.5 348.76,-105 338.76,-101.5 338.76,-108.5"/>
</a>
</g>
</g>
<!-- Node7&#45;&gt;Node4 -->
<g id="edge12_Node000007_Node000004" class="edge">
<title>Node7&#45;&gt;Node4</title>
<g id="a_edge12_Node000007_Node000004"><a xlink:title=" ">
<path fill="none" stroke="#63b8ff" d="M463.08,-72.06C470.18,-74.8 477.36,-77.81 484,-81 500.91,-89.11 503.09,-94.89 520,-103 523.73,-104.79 527.64,-106.53 531.61,-108.19"/>
<polygon fill="#63b8ff" stroke="#63b8ff" points="530.34,-111.46 540.92,-111.94 532.95,-104.96 530.34,-111.46"/>
</a>
</g>
</g>
<!-- Node8 -->
<g id="Node000008" class="node">
<title>Node8</title>
<g id="a_Node000008"><a xlink:href="namespacenetspeak_1_1util.html#a0f64660040077bd1ae3a46941a000b07" target="_top" xlink:title=" ">
<polygon fill="white" stroke="#666666" points="645,-45.5 530,-45.5 530,-26.5 645,-26.5 645,-45.5"/>
<text text-anchor="middle" x="587.5" y="-33.5" font-family="Helvetica,sans-Serif" font-size="10.00">netspeak::util::fread</text>
</a>
</g>
</g>
<!-- Node7&#45;&gt;Node8 -->
<g id="edge7_Node000007_Node000008" class="edge">
<title>Node7&#45;&gt;Node8</title>
<g id="a_edge7_Node000007_Node000008"><a xlink:title=" ">
<path fill="none" stroke="#63b8ff" d="M484.29,-48.7C495.92,-47.25 508.03,-45.75 519.66,-44.31"/>
<polygon fill="#63b8ff" stroke="#63b8ff" points="520.24,-47.76 529.74,-43.05 519.38,-40.81 520.24,-47.76"/>
</a>
</g>
</g>
<!-- Node11 -->
<g id="Node000011" class="node">
<title>Node11</title>
<g id="a_Node000011"><a xlink:href="classnetspeak_1_1invertedindex_1_1ByteBuffer.html#a109be725161102fab0e4b4ee0651491e" target="_top" xlink:title=" ">
<polygon fill="white" stroke="#666666" points="655,-94 520,-94 520,-64 655,-64 655,-94"/>
<text text-anchor="start" x="528" y="-82" font-family="Helvetica,sans-Serif" font-size="10.00">netspeak::invertedindex</text>
<text text-anchor="middle" x="587.5" y="-71" font-family="Helvetica,sans-Serif" font-size="10.00">::ByteBuffer::rewind</text>
</a>
</g>
</g>
<!-- Node7&#45;&gt;Node11 -->
<g id="edge11_Node000007_Node000011" class="edge">
<title>Node7&#45;&gt;Node11</title>
<g id="a_edge11_Node000007_Node000011"><a xlink:title=" ">
<path fill="none" stroke="#63b8ff" d="M484.29,-65.69C492.72,-66.79 501.38,-67.92 509.94,-69.03"/>
<polygon fill="#63b8ff" stroke="#63b8ff" points="509.55,-72.51 519.92,-70.33 510.45,-65.57 509.55,-72.51"/>
</a>
</g>
</g>
<!-- Node9 -->
<g id="Node000009" class="node">
<title>Node9</title>
<g id="a_Node000009"><a xlink:href="namespacenetspeak_1_1util.html#a4c91ad572508b4021399ac7dddff574d" target="_top" xlink:title=" ">
<polygon fill="white" stroke="#666666" points="959,-45.5 846,-45.5 846,-26.5 959,-26.5 959,-45.5"/>
<text text-anchor="middle" x="902.5" y="-33.5" font-family="Helvetica,sans-Serif" font-size="10.00">netspeak::util::hash</text>
</a>
</g>
</g>
<!-- Node8&#45;&gt;Node9 -->
<g id="edge8_Node000008_Node000009" class="edge">
<title>Node8&#45;&gt;Node9</title>
<g id="a_edge8_Node000008_Node000009"><a xlink:title=" ">
<path fill="none" stroke="#63b8ff" d="M645.15,-37.95C660.06,-38.39 676.14,-38.78 691,-39 743.88,-39.77 757.12,-39.87 810,-39 818.34,-38.86 827.1,-38.66 835.77,-38.41"/>
<polygon fill="#63b8ff" stroke="#63b8ff" points="835.97,-41.91 845.86,-38.12 835.76,-34.91 835.97,-41.91"/>
</a>
</g>
</g>
<!-- Node10 -->
<g id="Node000010" class="node">
<title>Node10</title>
<g id="a_Node000010"><a xlink:href="namespacenetspeak_1_1util.html#af94d48fda5f335ddcb461a8237079866" target="_top" xlink:title=" ">
<polygon fill="white" stroke="#666666" points="810,-30 691,-30 691,0 810,0 810,-30"/>
<text text-anchor="start" x="699" y="-18" font-family="Helvetica,sans-Serif" font-size="10.00">netspeak::util::signal</text>
<text text-anchor="middle" x="750.5" y="-7" font-family="Helvetica,sans-Serif" font-size="10.00">_error</text>
</a>
</g>
</g>
<!-- Node8&#45;&gt;Node10 -->
<g id="edge9_Node000008_Node000010" class="edge">
<title>Node8&#45;&gt;Node10</title>
<g id="a_edge9_Node000008_Node000010"><a xlink:title=" ">
<path fill="none" stroke="#63b8ff" d="M645.26,-28.6C656.68,-27.11 668.79,-25.53 680.56,-23.99"/>
<polygon fill="#63b8ff" stroke="#63b8ff" points="681.34,-27.42 690.8,-22.66 680.43,-20.48 681.34,-27.42"/>
</a>
</g>
</g>
<!-- Node10&#45;&gt;Node9 -->
<g id="edge10_Node000010_Node000009" class="edge">
<title>Node10&#45;&gt;Node9</title>
<g id="a_edge10_Node000010_Node000009"><a xlink:title=" ">
<path fill="none" stroke="#63b8ff" d="M810.35,-23.24C818.64,-24.4 827.2,-25.6 835.61,-26.78"/>
<polygon fill="#63b8ff" stroke="#63b8ff" points="835.37,-30.28 845.76,-28.2 836.34,-23.34 835.37,-30.28"/>
</a>
</g>
</g>
<!-- Node12&#45;&gt;Node4 -->
<g id="edge15_Node000012_Node000004" class="edge">
<title>Node12&#45;&gt;Node4</title>
<g id="a_edge15_Node000012_Node000004"><a xlink:title=" ">
<path fill="none" stroke="#63b8ff" d="M484.29,-113.69C492.72,-114.79 501.38,-115.92 509.94,-117.03"/>
<polygon fill="#63b8ff" stroke="#63b8ff" points="509.55,-120.51 519.92,-118.33 510.45,-113.57 509.55,-120.51"/>
</a>
</g>
</g>
<!-- Node12&#45;&gt;Node11 -->
<g id="edge14_Node000012_Node000011" class="edge">
<title>Node12&#45;&gt;Node11</title>
<g id="a_edge14_Node000012_Node000011"><a xlink:title=" ">
<path fill="none" stroke="#63b8ff" d="M484.29,-94.72C492.72,-93.43 501.38,-92.09 509.94,-90.78"/>
<polygon fill="#63b8ff" stroke="#63b8ff" points="510.56,-94.22 519.92,-89.24 509.5,-87.31 510.56,-94.22"/>
</a>
</g>
</g>
</g>
</svg>
