<?xml version="1.0" encoding="UTF-8" standalone="no"?>
<!DOCTYPE svg PUBLIC "-//W3C//DTD SVG 1.1//EN"
 "http://www.w3.org/Graphics/SVG/1.1/DTD/svg11.dtd">
<!-- Generated by graphviz version 2.43.0 (0)
 -->
<!-- Title: netspeak::StarQuery::Unit Pages: 1 -->
<svg width="163pt" height="265pt"
 viewBox="0.00 0.00 163.00 265.00" xmlns="http://www.w3.org/2000/svg" xmlns:xlink="http://www.w3.org/1999/xlink">
<g id="graph0" class="graph" transform="scale(1 1) rotate(0) translate(4 261)">
<title>netspeak::StarQuery::Unit</title>
<!-- Node1 -->
<g id="Node000001" class="node">
<title>Node1</title>
<g id="a_Node000001"><a xlink:title=" ">
<polygon fill="#999999" stroke="transparent" points="132.5,-135 22.5,-135 22.5,0 132.5,0 132.5,-135"/>
<text text-anchor="start" x="27.5" y="-122.5" font-family="Helvetica,sans-Serif" font-size="10.00">netspeak::StarQuery</text>
<text text-anchor="start" x="64" y="-111.5" font-family="Helvetica,sans-Serif" font-size="10.00">::Unit</text>
<text text-anchor="start" x="32.5" y="-96.5" font-family="Helvetica,sans-Serif" font-size="10.00">+</text>
<text text-anchor="start" x="51.5" y="-96.5" font-family="Helvetica,sans-Serif" font-size="10.00">tag</text>
<text text-anchor="start" x="32.5" y="-81.5" font-family="Helvetica,sans-Serif" font-size="10.00">+</text>
<text text-anchor="start" x="51.5" y="-81.5" font-family="Helvetica,sans-Serif" font-size="10.00">text</text>
<text text-anchor="start" x="32.5" y="-66.5" font-family="Helvetica,sans-Serif" font-size="10.00">+</text>
<text text-anchor="start" x="51.5" y="-66.5" font-family="Helvetica,sans-Serif" font-size="10.00">Unit()</text>
<text text-anchor="start" x="32.5" y="-51.5" font-family="Helvetica,sans-Serif" font-size="10.00">+</text>
<text text-anchor="start" x="51.5" y="-51.5" font-family="Helvetica,sans-Serif" font-size="10.00">Unit()</text>
<text text-anchor="start" x="32.5" y="-36.5" font-family="Helvetica,sans-Serif" font-size="10.00">+</text>
<text text-anchor="start" x="51.5" y="-36.5" font-family="Helvetica,sans-Serif" font-size="10.00">new_word()</text>
<text text-anchor="start" x="32.5" y="-21.5" font-family="Helvetica,sans-Serif" font-size="10.00">+</text>
<text text-anchor="start" x="51.5" y="-21.5" font-family="Helvetica,sans-Serif" font-size="10.00">new_qmark()</text>
<text text-anchor="start" x="32.5" y="-6.5" font-family="Helvetica,sans-Serif" font-size="10.00">+</text>
<text text-anchor="start" x="51.5" y="-6.5" font-family="Helvetica,sans-Serif" font-size="10.00">new_star()</text>
<polygon fill="#666666" stroke="#666666" points="22.5,-106.5 22.5,-106.5 132.5,-106.5 132.5,-106.5 22.5,-106.5"/>
<polygon fill="#666666" stroke="#666666" points="22.5,-76.5 22.5,-76.5 49.5,-76.5 49.5,-76.5 22.5,-76.5"/>
<polygon fill="#666666" stroke="#666666" points="49.5,-76.5 49.5,-76.5 132.5,-76.5 132.5,-76.5 49.5,-76.5"/>
<polygon fill="none" stroke="#666666" points="22.5,0 22.5,-135 132.5,-135 132.5,0 22.5,0"/>
</a>
</g>
</g>
<!-- Node2 -->
<g id="Node000002" class="node">
<title>Node2</title>
<g id="a_Node000002"><a xlink:href="structnetspeak_1_1model_1_1NormQueryUnit_____1_1Source.html" target="_top" xlink:title=" ">
<polygon fill="white" stroke="transparent" points="155,-257 0,-257 0,-182 155,-182 155,-257"/>
<text text-anchor="start" x="5.5" y="-244.5" font-family="Helvetica,sans-Serif" font-size="10.00">netspeak::model::NormQuery</text>
<text text-anchor="start" x="43" y="-233.5" font-family="Helvetica,sans-Serif" font-size="10.00">Unit__::Source</text>
<text text-anchor="start" x="27.5" y="-218.5" font-family="Helvetica,sans-Serif" font-size="10.00">+</text>
<text text-anchor="start" x="63.5" y="-218.5" font-family="Helvetica,sans-Serif" font-size="10.00">query</text>
<text text-anchor="start" x="27.5" y="-203.5" font-family="Helvetica,sans-Serif" font-size="10.00">+</text>
<text text-anchor="start" x="63.5" y="-203.5" font-family="Helvetica,sans-Serif" font-size="10.00">unit</text>
<text text-anchor="start" x="27.5" y="-188.5" font-family="Helvetica,sans-Serif" font-size="10.00">+</text>
<text text-anchor="start" x="63.5" y="-188.5" font-family="Helvetica,sans-Serif" font-size="10.00">Source()</text>
<polygon fill="#666666" stroke="#666666" points="0.5,-228.5 0.5,-228.5 155.5,-228.5 155.5,-228.5 0.5,-228.5"/>
<polygon fill="#666666" stroke="#666666" points="0.5,-198.5 0.5,-198.5 61.5,-198.5 61.5,-198.5 0.5,-198.5"/>
<polygon fill="#666666" stroke="#666666" points="61.5,-198.5 61.5,-198.5 155.5,-198.5 155.5,-198.5 61.5,-198.5"/>
<polygon fill="none" stroke="#666666" points="0,-182 0,-257 155,-257 155,-182 0,-182"/>
</a>
</g>
</g>
<!-- Node2&#45;&gt;Node1 -->
<g id="edge1_Node000001_Node000002" class="edge">
<title>Node2&#45;&gt;Node1</title>
<g id="a_edge1_Node000001_Node000002"><a xlink:title=" ">
<path fill="none" stroke="#63b8ff" d="M77.5,-181.81C77.5,-171.27 77.5,-159.35 77.5,-147.3"/>
<polygon fill="none" stroke="#63b8ff" points="77.5,-147.26 73.5,-141.26 77.5,-135.26 81.5,-141.26 77.5,-147.26"/>
</a>
</g>
<text text-anchor="middle" x="99.5" y="-156" font-family="Helvetica,sans-Serif" font-size="10.00" fill="grey"> +source</text>
</g>
</g>
</svg>
