<?xml version="1.0" encoding="UTF-8" standalone="no"?>
<!DOCTYPE svg PUBLIC "-//W3C//DTD SVG 1.1//EN"
 "http://www.w3.org/Graphics/SVG/1.1/DTD/svg11.dtd">
<!-- Generated by graphviz version 2.43.0 (0)
 -->
<!-- Title: netspeak::invertedindex::constant_size_iter::next Pages: 1 -->
<svg width="974pt" height="182pt"
 viewBox="0.00 0.00 974.00 182.00" xmlns="http://www.w3.org/2000/svg" xmlns:xlink="http://www.w3.org/1999/xlink">
<g id="graph0" class="graph" transform="scale(1 1) rotate(0) translate(4 178)">
<title>netspeak::invertedindex::constant_size_iter::next</title>
<!-- Node1 -->
<g id="Node000001" class="node">
<title>Node1</title>
<g id="a_Node000001"><a xlink:title=" ">
<polygon fill="#999999" stroke="#666666" points="139,-102 0,-102 0,-72 139,-72 139,-102"/>
<text text-anchor="start" x="8" y="-90" font-family="Helvetica,sans-Serif" font-size="10.00">netspeak::invertedindex</text>
<text text-anchor="middle" x="69.5" y="-79" font-family="Helvetica,sans-Serif" font-size="10.00">::constant_size_iter::next</text>
</a>
</g>
</g>
<!-- Node2 -->
<g id="Node000002" class="node">
<title>Node2</title>
<g id="a_Node000002"><a xlink:href="classnetspeak_1_1invertedindex_1_1ByteBuffer.html#af6a5e40f34b9a46557e519b5a4998450" target="_top" xlink:title=" ">
<polygon fill="white" stroke="#666666" points="314,-174 179,-174 179,-144 314,-144 314,-174"/>
<text text-anchor="start" x="187" y="-162" font-family="Helvetica,sans-Serif" font-size="10.00">netspeak::invertedindex</text>
<text text-anchor="middle" x="246.5" y="-151" font-family="Helvetica,sans-Serif" font-size="10.00">::ByteBuffer::position</text>
</a>
</g>
</g>
<!-- Node1&#45;&gt;Node2 -->
<g id="edge1_Node000001_Node000002" class="edge">
<title>Node1&#45;&gt;Node2</title>
<g id="a_edge1_Node000001_Node000002"><a xlink:title=" ">
<path fill="none" stroke="#63b8ff" d="M101.23,-102.12C121.86,-112.03 149.78,-124.95 175,-135 179.68,-136.87 184.58,-138.72 189.51,-140.53"/>
<polygon fill="#63b8ff" stroke="#63b8ff" points="188.39,-143.84 198.99,-143.92 190.75,-137.25 188.39,-143.84"/>
</a>
</g>
</g>
<!-- Node3 -->
<g id="Node000003" class="node">
<title>Node3</title>
<g id="a_Node000003"><a xlink:href="classnetspeak_1_1invertedindex_1_1ByteBuffer.html#aa4bd7f0747700d422b5fe2dbd19b8eda" target="_top" xlink:title=" ">
<polygon fill="white" stroke="#666666" points="314,-126 179,-126 179,-96 314,-96 314,-126"/>
<text text-anchor="start" x="187" y="-114" font-family="Helvetica,sans-Serif" font-size="10.00">netspeak::invertedindex</text>
<text text-anchor="middle" x="246.5" y="-103" font-family="Helvetica,sans-Serif" font-size="10.00">::ByteBuffer::seek</text>
</a>
</g>
</g>
<!-- Node1&#45;&gt;Node3 -->
<g id="edge2_Node000001_Node000003" class="edge">
<title>Node1&#45;&gt;Node3</title>
<g id="a_edge2_Node000001_Node000003"><a xlink:title=" ">
<path fill="none" stroke="#63b8ff" d="M139.16,-96.42C148.83,-97.74 158.82,-99.11 168.62,-100.46"/>
<polygon fill="#63b8ff" stroke="#63b8ff" points="168.37,-103.96 178.75,-101.85 169.32,-97.02 168.37,-103.96"/>
</a>
</g>
</g>
<!-- Node5 -->
<g id="Node000005" class="node">
<title>Node5</title>
<g id="a_Node000005"><a xlink:href="structnetspeak_1_1invertedindex_1_1constant__size__iter.html#a9392dae9283acde150cfdea06a0936be" target="_top" xlink:title=" ">
<polygon fill="white" stroke="#666666" points="491,-30 354,-30 354,0 491,0 491,-30"/>
<text text-anchor="start" x="362" y="-18" font-family="Helvetica,sans-Serif" font-size="10.00">netspeak::invertedindex</text>
<text text-anchor="middle" x="422.5" y="-7" font-family="Helvetica,sans-Serif" font-size="10.00">::constant_size_iter::size</text>
</a>
</g>
</g>
<!-- Node1&#45;&gt;Node5 -->
<g id="edge4_Node000001_Node000005" class="edge">
<title>Node1&#45;&gt;Node5</title>
<g id="a_edge4_Node000001_Node000005"><a xlink:title=" ">
<path fill="none" stroke="#63b8ff" d="M97.07,-71.78C117.65,-60.75 147.25,-46.5 175,-39 230.22,-24.08 294.62,-18.19 343.74,-15.97"/>
<polygon fill="#63b8ff" stroke="#63b8ff" points="344.14,-19.45 353.99,-15.55 343.85,-12.46 344.14,-19.45"/>
</a>
</g>
</g>
<!-- Node6 -->
<g id="Node000006" class="node">
<title>Node6</title>
<g id="a_Node000006"><a xlink:href="structnetspeak_1_1invertedindex_1_1constant__size__iter.html#a8c043bcbf0384d03394ab5ced5fc0feb" target="_top" xlink:title=" ">
<polygon fill="white" stroke="#666666" points="318,-78 175,-78 175,-48 318,-48 318,-78"/>
<text text-anchor="start" x="183" y="-66" font-family="Helvetica,sans-Serif" font-size="10.00">netspeak::invertedindex</text>
<text text-anchor="middle" x="246.5" y="-55" font-family="Helvetica,sans-Serif" font-size="10.00">::constant_size_iter::swap</text>
</a>
</g>
</g>
<!-- Node1&#45;&gt;Node6 -->
<g id="edge5_Node000001_Node000006" class="edge">
<title>Node1&#45;&gt;Node6</title>
<g id="a_edge5_Node000001_Node000006"><a xlink:title=" ">
<path fill="none" stroke="#63b8ff" d="M139.16,-77.58C147.56,-76.43 156.2,-75.25 164.75,-74.07"/>
<polygon fill="#63b8ff" stroke="#63b8ff" points="165.3,-77.53 174.73,-72.71 164.35,-70.6 165.3,-77.53"/>
</a>
</g>
</g>
<!-- Node4 -->
<g id="Node000004" class="node">
<title>Node4</title>
<g id="a_Node000004"><a xlink:href="classnetspeak_1_1invertedindex_1_1ByteBuffer.html#ac7160f8bd36f86815662909c0722556f" target="_top" xlink:title=" ">
<polygon fill="white" stroke="#666666" points="662,-148 527,-148 527,-118 662,-118 662,-148"/>
<text text-anchor="start" x="535" y="-136" font-family="Helvetica,sans-Serif" font-size="10.00">netspeak::invertedindex</text>
<text text-anchor="middle" x="594.5" y="-125" font-family="Helvetica,sans-Serif" font-size="10.00">::ByteBuffer::size</text>
</a>
</g>
</g>
<!-- Node3&#45;&gt;Node4 -->
<g id="edge3_Node000003_Node000004" class="edge">
<title>Node3&#45;&gt;Node4</title>
<g id="a_edge3_Node000003_Node000004"><a xlink:title=" ">
<path fill="none" stroke="#63b8ff" d="M303.48,-126.06C319.66,-129.74 337.42,-133.16 354,-135 408.19,-141.03 469.7,-140.36 516.82,-138.27"/>
<polygon fill="#63b8ff" stroke="#63b8ff" points="517.13,-141.76 526.95,-137.79 516.8,-134.77 517.13,-141.76"/>
</a>
</g>
</g>
<!-- Node6&#45;&gt;Node5 -->
<g id="edge16_Node000006_Node000005" class="edge">
<title>Node6&#45;&gt;Node5</title>
<g id="a_edge16_Node000006_Node000005"><a xlink:title=" ">
<path fill="none" stroke="#63b8ff" d="M302.08,-47.94C319.65,-43.1 339.28,-37.68 357.47,-32.66"/>
<polygon fill="#63b8ff" stroke="#63b8ff" points="358.41,-36.04 367.12,-30 356.55,-29.29 358.41,-36.04"/>
</a>
</g>
</g>
<!-- Node7 -->
<g id="Node000007" class="node">
<title>Node7</title>
<g id="a_Node000007"><a xlink:href="classnetspeak_1_1invertedindex_1_1ByteBuffer.html#a2f5a59f9d290bd2116bbd73244666171" target="_top" xlink:title=" ">
<polygon fill="white" stroke="#666666" points="490,-78 355,-78 355,-48 490,-48 490,-78"/>
<text text-anchor="start" x="363" y="-66" font-family="Helvetica,sans-Serif" font-size="10.00">netspeak::invertedindex</text>
<text text-anchor="middle" x="422.5" y="-55" font-family="Helvetica,sans-Serif" font-size="10.00">::ByteBuffer::read</text>
</a>
</g>
</g>
<!-- Node6&#45;&gt;Node7 -->
<g id="edge6_Node000006_Node000007" class="edge">
<title>Node6&#45;&gt;Node7</title>
<g id="a_edge6_Node000006_Node000007"><a xlink:title=" ">
<path fill="none" stroke="#63b8ff" d="M318.02,-63C326.76,-63 335.72,-63 344.55,-63"/>
<polygon fill="#63b8ff" stroke="#63b8ff" points="344.82,-66.5 354.82,-63 344.82,-59.5 344.82,-66.5"/>
</a>
</g>
</g>
<!-- Node12 -->
<g id="Node000012" class="node">
<title>Node12</title>
<g id="a_Node000012"><a xlink:href="classnetspeak_1_1invertedindex_1_1ByteBuffer.html#ab83184815805ed4606aa924eb9a6f42c" target="_top" xlink:title=" ">
<polygon fill="white" stroke="#666666" points="490,-126 355,-126 355,-96 490,-96 490,-126"/>
<text text-anchor="start" x="363" y="-114" font-family="Helvetica,sans-Serif" font-size="10.00">netspeak::invertedindex</text>
<text text-anchor="middle" x="422.5" y="-103" font-family="Helvetica,sans-Serif" font-size="10.00">::ByteBuffer::resize</text>
</a>
</g>
</g>
<!-- Node6&#45;&gt;Node12 -->
<g id="edge13_Node000006_Node000012" class="edge">
<title>Node6&#45;&gt;Node12</title>
<g id="a_edge13_Node000006_Node000012"><a xlink:title=" ">
<path fill="none" stroke="#63b8ff" d="M302.08,-78.06C319.65,-82.9 339.28,-88.32 357.47,-93.34"/>
<polygon fill="#63b8ff" stroke="#63b8ff" points="356.55,-96.71 367.12,-96 358.41,-89.96 356.55,-96.71"/>
</a>
</g>
</g>
<!-- Node7&#45;&gt;Node4 -->
<g id="edge12_Node000007_Node000004" class="edge">
<title>Node7&#45;&gt;Node4</title>
<g id="a_edge12_Node000007_Node000004"><a xlink:title=" ">
<path fill="none" stroke="#63b8ff" d="M469.77,-78.01C476.98,-80.76 484.26,-83.79 491,-87 507.92,-95.07 510.09,-100.89 527,-109 530.73,-110.79 534.64,-112.53 538.61,-114.19"/>
<polygon fill="#63b8ff" stroke="#63b8ff" points="537.34,-117.46 547.92,-117.94 539.95,-110.96 537.34,-117.46"/>
</a>
</g>
</g>
<!-- Node8 -->
<g id="Node000008" class="node">
<title>Node8</title>
<g id="a_Node000008"><a xlink:href="namespacenetspeak_1_1util.html#a0f64660040077bd1ae3a46941a000b07" target="_top" xlink:title=" ">
<polygon fill="white" stroke="#666666" points="652,-51.5 537,-51.5 537,-32.5 652,-32.5 652,-51.5"/>
<text text-anchor="middle" x="594.5" y="-39.5" font-family="Helvetica,sans-Serif" font-size="10.00">netspeak::util::fread</text>
</a>
</g>
</g>
<!-- Node7&#45;&gt;Node8 -->
<g id="edge7_Node000007_Node000008" class="edge">
<title>Node7&#45;&gt;Node8</title>
<g id="a_edge7_Node000007_Node000008"><a xlink:title=" ">
<path fill="none" stroke="#63b8ff" d="M490.2,-54.76C502.26,-53.27 514.84,-51.72 526.9,-50.23"/>
<polygon fill="#63b8ff" stroke="#63b8ff" points="527.4,-53.69 536.89,-48.99 526.54,-46.75 527.4,-53.69"/>
</a>
</g>
</g>
<!-- Node11 -->
<g id="Node000011" class="node">
<title>Node11</title>
<g id="a_Node000011"><a xlink:href="classnetspeak_1_1invertedindex_1_1ByteBuffer.html#a109be725161102fab0e4b4ee0651491e" target="_top" xlink:title=" ">
<polygon fill="white" stroke="#666666" points="662,-100 527,-100 527,-70 662,-70 662,-100"/>
<text text-anchor="start" x="535" y="-88" font-family="Helvetica,sans-Serif" font-size="10.00">netspeak::invertedindex</text>
<text text-anchor="middle" x="594.5" y="-77" font-family="Helvetica,sans-Serif" font-size="10.00">::ByteBuffer::rewind</text>
</a>
</g>
</g>
<!-- Node7&#45;&gt;Node11 -->
<g id="edge11_Node000007_Node000011" class="edge">
<title>Node7&#45;&gt;Node11</title>
<g id="a_edge11_Node000007_Node000011"><a xlink:title=" ">
<path fill="none" stroke="#63b8ff" d="M490.2,-71.63C498.99,-72.77 508.05,-73.94 516.98,-75.1"/>
<polygon fill="#63b8ff" stroke="#63b8ff" points="516.63,-78.58 526.99,-76.39 517.52,-71.64 516.63,-78.58"/>
</a>
</g>
</g>
<!-- Node9 -->
<g id="Node000009" class="node">
<title>Node9</title>
<g id="a_Node000009"><a xlink:href="namespacenetspeak_1_1util.html#a4c91ad572508b4021399ac7dddff574d" target="_top" xlink:title=" ">
<polygon fill="white" stroke="#666666" points="966,-51.5 853,-51.5 853,-32.5 966,-32.5 966,-51.5"/>
<text text-anchor="middle" x="909.5" y="-39.5" font-family="Helvetica,sans-Serif" font-size="10.00">netspeak::util::hash</text>
</a>
</g>
</g>
<!-- Node8&#45;&gt;Node9 -->
<g id="edge8_Node000008_Node000009" class="edge">
<title>Node8&#45;&gt;Node9</title>
<g id="a_edge8_Node000008_Node000009"><a xlink:title=" ">
<path fill="none" stroke="#63b8ff" d="M652.15,-43.95C667.06,-44.39 683.14,-44.78 698,-45 750.88,-45.77 764.12,-45.87 817,-45 825.34,-44.86 834.1,-44.66 842.77,-44.41"/>
<polygon fill="#63b8ff" stroke="#63b8ff" points="842.97,-47.91 852.86,-44.12 842.76,-40.91 842.97,-47.91"/>
</a>
</g>
</g>
<!-- Node10 -->
<g id="Node000010" class="node">
<title>Node10</title>
<g id="a_Node000010"><a xlink:href="namespacenetspeak_1_1util.html#af94d48fda5f335ddcb461a8237079866" target="_top" xlink:title=" ">
<polygon fill="white" stroke="#666666" points="817,-36 698,-36 698,-6 817,-6 817,-36"/>
<text text-anchor="start" x="706" y="-24" font-family="Helvetica,sans-Serif" font-size="10.00">netspeak::util::signal</text>
<text text-anchor="middle" x="757.5" y="-13" font-family="Helvetica,sans-Serif" font-size="10.00">_error</text>
</a>
</g>
</g>
<!-- Node8&#45;&gt;Node10 -->
<g id="edge9_Node000008_Node000010" class="edge">
<title>Node8&#45;&gt;Node10</title>
<g id="a_edge9_Node000008_Node000010"><a xlink:title=" ">
<path fill="none" stroke="#63b8ff" d="M652.26,-34.6C663.68,-33.11 675.79,-31.53 687.56,-29.99"/>
<polygon fill="#63b8ff" stroke="#63b8ff" points="688.34,-33.42 697.8,-28.66 687.43,-26.48 688.34,-33.42"/>
</a>
</g>
</g>
<!-- Node10&#45;&gt;Node9 -->
<g id="edge10_Node000010_Node000009" class="edge">
<title>Node10&#45;&gt;Node9</title>
<g id="a_edge10_Node000010_Node000009"><a xlink:title=" ">
<path fill="none" stroke="#63b8ff" d="M817.35,-29.24C825.64,-30.4 834.2,-31.6 842.61,-32.78"/>
<polygon fill="#63b8ff" stroke="#63b8ff" points="842.37,-36.28 852.76,-34.2 843.34,-29.34 842.37,-36.28"/>
</a>
</g>
</g>
<!-- Node12&#45;&gt;Node4 -->
<g id="edge15_Node000012_Node000004" class="edge">
<title>Node12&#45;&gt;Node4</title>
<g id="a_edge15_Node000012_Node000004"><a xlink:title=" ">
<path fill="none" stroke="#63b8ff" d="M490.2,-119.63C498.99,-120.77 508.05,-121.94 516.98,-123.1"/>
<polygon fill="#63b8ff" stroke="#63b8ff" points="516.63,-126.58 526.99,-124.39 517.52,-119.64 516.63,-126.58"/>
</a>
</g>
</g>
<!-- Node12&#45;&gt;Node11 -->
<g id="edge14_Node000012_Node000011" class="edge">
<title>Node12&#45;&gt;Node11</title>
<g id="a_edge14_Node000012_Node000011"><a xlink:title=" ">
<path fill="none" stroke="#63b8ff" d="M490.2,-100.8C498.99,-99.45 508.05,-98.07 516.98,-96.7"/>
<polygon fill="#63b8ff" stroke="#63b8ff" points="517.64,-100.14 526.99,-95.17 516.58,-93.22 517.64,-100.14"/>
</a>
</g>
</g>
</g>
</svg>
