<?xml version="1.0" encoding="UTF-8" standalone="no"?>
<!DOCTYPE svg PUBLIC "-//W3C//DTD SVG 1.1//EN"
 "http://www.w3.org/Graphics/SVG/1.1/DTD/svg11.dtd">
<!-- Generated by graphviz version 2.43.0 (0)
 -->
<!-- Title: netspeak::invertedindex::variable_size_iter::swap Pages: 1 -->
<svg width="324pt" height="86pt"
 viewBox="0.00 0.00 324.00 86.00" xmlns="http://www.w3.org/2000/svg" xmlns:xlink="http://www.w3.org/1999/xlink">
<g id="graph0" class="graph" transform="scale(1 1) rotate(0) translate(4 82)">
<title>netspeak::invertedindex::variable_size_iter::swap</title>
<!-- Node1 -->
<g id="Node000001" class="node">
<title>Node1</title>
<g id="a_Node000001"><a xlink:title=" ">
<polygon fill="#999999" stroke="#666666" points="316,-54 176,-54 176,-24 316,-24 316,-54"/>
<text text-anchor="start" x="184" y="-42" font-family="Helvetica,sans-Serif" font-size="10.00">netspeak::invertedindex</text>
<text text-anchor="middle" x="246" y="-31" font-family="Helvetica,sans-Serif" font-size="10.00">::variable_size_iter::swap</text>
</a>
</g>
</g>
<!-- Node2 -->
<g id="Node000002" class="node">
<title>Node2</title>
<g id="a_Node000002"><a xlink:href="structnetspeak_1_1invertedindex_1_1variable__size__iter.html#accad1a29b6fa4e264f6de1ab478828b2" target="_top" xlink:title=" ">
<polygon fill="white" stroke="#666666" points="138.5,-78 1.5,-78 1.5,-48 138.5,-48 138.5,-78"/>
<text text-anchor="start" x="9.5" y="-66" font-family="Helvetica,sans-Serif" font-size="10.00">netspeak::invertedindex</text>
<text text-anchor="middle" x="70" y="-55" font-family="Helvetica,sans-Serif" font-size="10.00">::variable_size_iter::next</text>
</a>
</g>
</g>
<!-- Node1&#45;&gt;Node2 -->
<g id="edge1_Node000001_Node000002" class="edge">
<title>Node1&#45;&gt;Node2</title>
<g id="a_edge1_Node000001_Node000002"><a xlink:title=" ">
<path fill="none" stroke="#63b8ff" d="M166.06,-49.89C156.86,-51.16 147.54,-52.44 138.52,-53.69"/>
<polygon fill="#63b8ff" stroke="#63b8ff" points="166.55,-53.35 175.98,-48.52 165.6,-46.42 166.55,-53.35"/>
</a>
</g>
</g>
<!-- Node3 -->
<g id="Node000003" class="node">
<title>Node3</title>
<g id="a_Node000003"><a xlink:href="structnetspeak_1_1invertedindex_1_1variable__size__iter.html#ac34d912dfd281b76d060021c24c9fc63" target="_top" xlink:title=" ">
<polygon fill="white" stroke="#666666" points="140,-30 0,-30 0,0 140,0 140,-30"/>
<text text-anchor="start" x="8" y="-18" font-family="Helvetica,sans-Serif" font-size="10.00">netspeak::invertedindex</text>
<text text-anchor="middle" x="70" y="-7" font-family="Helvetica,sans-Serif" font-size="10.00">::variable_size_iter::write</text>
</a>
</g>
</g>
<!-- Node1&#45;&gt;Node3 -->
<g id="edge2_Node000001_Node000003" class="edge">
<title>Node1&#45;&gt;Node3</title>
<g id="a_edge2_Node000001_Node000003"><a xlink:title=" ">
<path fill="none" stroke="#63b8ff" d="M165.97,-28.1C157.38,-26.91 148.68,-25.71 140.22,-24.55"/>
<polygon fill="#63b8ff" stroke="#63b8ff" points="165.6,-31.58 175.98,-29.48 166.55,-24.65 165.6,-31.58"/>
</a>
</g>
</g>
</g>
</svg>
