<?xml version="1.0" encoding="UTF-8" standalone="no"?>
<!DOCTYPE svg PUBLIC "-//W3C//DTD SVG 1.1//EN"
 "http://www.w3.org/Graphics/SVG/1.1/DTD/svg11.dtd">
<!-- Generated by graphviz version 2.43.0 (0)
 -->
<!-- Title: netspeak::invertedindex::constant_size_iter::write Pages: 1 -->
<svg width="977pt" height="257pt"
 viewBox="0.00 0.00 977.00 257.47" xmlns="http://www.w3.org/2000/svg" xmlns:xlink="http://www.w3.org/1999/xlink">
<g id="graph0" class="graph" transform="scale(1 1) rotate(0) translate(4 253.47)">
<title>netspeak::invertedindex::constant_size_iter::write</title>
<!-- Node1 -->
<g id="Node000001" class="node">
<title>Node1</title>
<g id="a_Node000001"><a xlink:title=" ">
<polygon fill="#999999" stroke="#666666" points="142,-140 0,-140 0,-110 142,-110 142,-140"/>
<text text-anchor="start" x="8" y="-128" font-family="Helvetica,sans-Serif" font-size="10.00">netspeak::invertedindex</text>
<text text-anchor="middle" x="71" y="-117" font-family="Helvetica,sans-Serif" font-size="10.00">::constant_size_iter::write</text>
</a>
</g>
</g>
<!-- Node2 -->
<g id="Node000002" class="node">
<title>Node2</title>
<g id="a_Node000002"><a xlink:href="structnetspeak_1_1invertedindex_1_1constant__size__iter.html#a56adf8c6704d75f087464f7117c367c4" target="_top" xlink:title=" ">
<polygon fill="white" stroke="#666666" points="317,-241.5 182,-241.5 182,-200.5 317,-200.5 317,-241.5"/>
<text text-anchor="start" x="190" y="-229.5" font-family="Helvetica,sans-Serif" font-size="10.00">netspeak::invertedindex</text>
<text text-anchor="start" x="190" y="-218.5" font-family="Helvetica,sans-Serif" font-size="10.00">::constant_size_iter::</text>
<text text-anchor="middle" x="249.5" y="-207.5" font-family="Helvetica,sans-Serif" font-size="10.00">rewind</text>
</a>
</g>
</g>
<!-- Node1&#45;&gt;Node2 -->
<g id="edge1_Node000001_Node000002" class="edge">
<title>Node1&#45;&gt;Node2</title>
<g id="a_edge1_Node000001_Node000002"><a xlink:title=" ">
<path fill="none" stroke="#63b8ff" d="M99.58,-140C126.87,-154.85 169.18,-177.86 201.73,-195.56"/>
<polygon fill="#63b8ff" stroke="#63b8ff" points="200.18,-198.7 210.64,-200.41 203.52,-192.55 200.18,-198.7"/>
</a>
</g>
</g>
<!-- Node8 -->
<g id="Node000008" class="node">
<title>Node8</title>
<g id="a_Node000008"><a xlink:href="structnetspeak_1_1invertedindex_1_1constant__size__iter.html#a8c043bcbf0384d03394ab5ced5fc0feb" target="_top" xlink:title=" ">
<polygon fill="white" stroke="#666666" points="321,-140 178,-140 178,-110 321,-110 321,-140"/>
<text text-anchor="start" x="186" y="-128" font-family="Helvetica,sans-Serif" font-size="10.00">netspeak::invertedindex</text>
<text text-anchor="middle" x="249.5" y="-117" font-family="Helvetica,sans-Serif" font-size="10.00">::constant_size_iter::swap</text>
</a>
</g>
</g>
<!-- Node1&#45;&gt;Node8 -->
<g id="edge8_Node000001_Node000008" class="edge">
<title>Node1&#45;&gt;Node8</title>
<g id="a_edge8_Node000001_Node000008"><a xlink:title=" ">
<path fill="none" stroke="#63b8ff" d="M142.01,-125C150.52,-125 159.26,-125 167.91,-125"/>
<polygon fill="#63b8ff" stroke="#63b8ff" points="168,-128.5 178,-125 168,-121.5 168,-128.5"/>
</a>
</g>
</g>
<!-- Node14 -->
<g id="Node000014" class="node">
<title>Node14</title>
<g id="a_Node000014"><a xlink:href="classnetspeak_1_1invertedindex_1_1ByteBuffer.html#aa1d97fc0d4ab34140ed20f41ad28ec49" target="_top" xlink:title=" ">
<polygon fill="white" stroke="#666666" points="493,-44 358,-44 358,-14 493,-14 493,-44"/>
<text text-anchor="start" x="366" y="-32" font-family="Helvetica,sans-Serif" font-size="10.00">netspeak::invertedindex</text>
<text text-anchor="middle" x="425.5" y="-21" font-family="Helvetica,sans-Serif" font-size="10.00">::ByteBuffer::write</text>
</a>
</g>
</g>
<!-- Node1&#45;&gt;Node14 -->
<g id="edge19_Node000001_Node000014" class="edge">
<title>Node1&#45;&gt;Node14</title>
<g id="a_edge19_Node000001_Node000014"><a xlink:title=" ">
<path fill="none" stroke="#63b8ff" d="M127.08,-110C189.88,-92.9 292.48,-64.96 359.24,-46.77"/>
<polygon fill="#63b8ff" stroke="#63b8ff" points="360.5,-50.06 369.23,-44.05 358.66,-43.3 360.5,-50.06"/>
</a>
</g>
</g>
<!-- Node3 -->
<g id="Node000003" class="node">
<title>Node3</title>
<g id="a_Node000003"><a xlink:href="classnetspeak_1_1invertedindex_1_1ByteBuffer.html#a8bf3b64f0b8396aaf781e0e166fda2a4" target="_top" xlink:title=" ">
<polygon fill="white" stroke="#666666" points="493,-236 358,-236 358,-206 493,-206 493,-236"/>
<text text-anchor="start" x="366" y="-224" font-family="Helvetica,sans-Serif" font-size="10.00">netspeak::invertedindex</text>
<text text-anchor="middle" x="425.5" y="-213" font-family="Helvetica,sans-Serif" font-size="10.00">::ByteBuffer::clear</text>
</a>
</g>
</g>
<!-- Node2&#45;&gt;Node3 -->
<g id="edge2_Node000002_Node000003" class="edge">
<title>Node2&#45;&gt;Node3</title>
<g id="a_edge2_Node000002_Node000003"><a xlink:title=" ">
<path fill="none" stroke="#63b8ff" d="M317.28,-221C327.27,-221 337.63,-221 347.81,-221"/>
<polygon fill="#63b8ff" stroke="#63b8ff" points="347.9,-224.5 357.9,-221 347.9,-217.5 347.9,-224.5"/>
</a>
</g>
</g>
<!-- Node5 -->
<g id="Node000005" class="node">
<title>Node5</title>
<g id="a_Node000005"><a xlink:href="namespacenetspeak_1_1util.html#a3015ae7c69935f843a1915958d0de042" target="_top" xlink:title=" ">
<polygon fill="white" stroke="#666666" points="655.5,-239.5 539.5,-239.5 539.5,-220.5 655.5,-220.5 655.5,-239.5"/>
<text text-anchor="middle" x="597.5" y="-227.5" font-family="Helvetica,sans-Serif" font-size="10.00">netspeak::util::fseek</text>
</a>
</g>
</g>
<!-- Node2&#45;&gt;Node5 -->
<g id="edge4_Node000002_Node000005" class="edge">
<title>Node2&#45;&gt;Node5</title>
<g id="a_edge4_Node000002_Node000005"><a xlink:title=" ">
<path fill="none" stroke="#63b8ff" d="M317.15,-238.39C330.27,-241.14 344,-243.55 357,-245 417.52,-251.73 433.27,-249.42 494,-245 506.12,-244.12 518.99,-242.66 531.36,-240.98"/>
<polygon fill="#63b8ff" stroke="#63b8ff" points="532.19,-244.4 541.6,-239.53 531.21,-237.47 532.19,-244.4"/>
</a>
</g>
</g>
<!-- Node4 -->
<g id="Node000004" class="node">
<title>Node4</title>
<g id="a_Node000004"><a xlink:href="classnetspeak_1_1invertedindex_1_1ByteBuffer.html#a109be725161102fab0e4b4ee0651491e" target="_top" xlink:title=" ">
<polygon fill="white" stroke="#666666" points="665,-202 530,-202 530,-172 665,-172 665,-202"/>
<text text-anchor="start" x="538" y="-190" font-family="Helvetica,sans-Serif" font-size="10.00">netspeak::invertedindex</text>
<text text-anchor="middle" x="597.5" y="-179" font-family="Helvetica,sans-Serif" font-size="10.00">::ByteBuffer::rewind</text>
</a>
</g>
</g>
<!-- Node3&#45;&gt;Node4 -->
<g id="edge3_Node000003_Node000004" class="edge">
<title>Node3&#45;&gt;Node4</title>
<g id="a_edge3_Node000003_Node000004"><a xlink:title=" ">
<path fill="none" stroke="#63b8ff" d="M493.2,-207.66C501.99,-205.9 511.05,-204.09 519.98,-202.3"/>
<polygon fill="#63b8ff" stroke="#63b8ff" points="520.87,-205.69 529.99,-200.3 519.5,-198.83 520.87,-205.69"/>
</a>
</g>
</g>
<!-- Node6 -->
<g id="Node000006" class="node">
<title>Node6</title>
<g id="a_Node000006"><a xlink:href="namespacenetspeak_1_1util.html#a4c91ad572508b4021399ac7dddff574d" target="_top" xlink:title=" ">
<polygon fill="white" stroke="#666666" points="969,-142.5 856,-142.5 856,-123.5 969,-123.5 969,-142.5"/>
<text text-anchor="middle" x="912.5" y="-130.5" font-family="Helvetica,sans-Serif" font-size="10.00">netspeak::util::hash</text>
</a>
</g>
</g>
<!-- Node5&#45;&gt;Node6 -->
<g id="edge5_Node000005_Node000006" class="edge">
<title>Node5&#45;&gt;Node6</title>
<g id="a_edge5_Node000005_Node000006"><a xlink:title=" ">
<path fill="none" stroke="#63b8ff" d="M655.56,-220.75C700.94,-212.48 765.62,-198.61 820,-179 843.5,-170.53 868.77,-157.5 886.78,-147.47"/>
<polygon fill="#63b8ff" stroke="#63b8ff" points="888.52,-150.51 895.5,-142.53 885.07,-144.41 888.52,-150.51"/>
</a>
</g>
</g>
<!-- Node7 -->
<g id="Node000007" class="node">
<title>Node7</title>
<g id="a_Node000007"><a xlink:href="namespacenetspeak_1_1util.html#af94d48fda5f335ddcb461a8237079866" target="_top" xlink:title=" ">
<polygon fill="white" stroke="#666666" points="820,-170 701,-170 701,-140 820,-140 820,-170"/>
<text text-anchor="start" x="709" y="-158" font-family="Helvetica,sans-Serif" font-size="10.00">netspeak::util::signal</text>
<text text-anchor="middle" x="760.5" y="-147" font-family="Helvetica,sans-Serif" font-size="10.00">_error</text>
</a>
</g>
</g>
<!-- Node5&#45;&gt;Node7 -->
<g id="edge6_Node000005_Node000007" class="edge">
<title>Node5&#45;&gt;Node7</title>
<g id="a_edge6_Node000005_Node000007"><a xlink:title=" ">
<path fill="none" stroke="#63b8ff" d="M638.12,-220.49C647.11,-217.83 656.51,-214.66 665,-211 687.58,-201.28 711.38,-187.15 729.45,-175.51"/>
<polygon fill="#63b8ff" stroke="#63b8ff" points="731.37,-178.44 737.83,-170.03 727.54,-172.58 731.37,-178.44"/>
</a>
</g>
</g>
<!-- Node7&#45;&gt;Node6 -->
<g id="edge7_Node000007_Node000006" class="edge">
<title>Node7&#45;&gt;Node6</title>
<g id="a_edge7_Node000007_Node000006"><a xlink:title=" ">
<path fill="none" stroke="#63b8ff" d="M820.35,-146.37C828.64,-145.15 837.2,-143.9 845.61,-142.66"/>
<polygon fill="#63b8ff" stroke="#63b8ff" points="846.37,-146.09 855.76,-141.18 845.36,-139.16 846.37,-146.09"/>
</a>
</g>
</g>
<!-- Node9 -->
<g id="Node000009" class="node">
<title>Node9</title>
<g id="a_Node000009"><a xlink:href="classnetspeak_1_1invertedindex_1_1ByteBuffer.html#a2f5a59f9d290bd2116bbd73244666171" target="_top" xlink:title=" ">
<polygon fill="white" stroke="#666666" points="493,-140 358,-140 358,-110 493,-110 493,-140"/>
<text text-anchor="start" x="366" y="-128" font-family="Helvetica,sans-Serif" font-size="10.00">netspeak::invertedindex</text>
<text text-anchor="middle" x="425.5" y="-117" font-family="Helvetica,sans-Serif" font-size="10.00">::ByteBuffer::read</text>
</a>
</g>
</g>
<!-- Node8&#45;&gt;Node9 -->
<g id="edge9_Node000008_Node000009" class="edge">
<title>Node8&#45;&gt;Node9</title>
<g id="a_edge9_Node000008_Node000009"><a xlink:title=" ">
<path fill="none" stroke="#63b8ff" d="M321.02,-125C329.76,-125 338.72,-125 347.55,-125"/>
<polygon fill="#63b8ff" stroke="#63b8ff" points="347.82,-128.5 357.82,-125 347.82,-121.5 347.82,-128.5"/>
</a>
</g>
</g>
<!-- Node12 -->
<g id="Node000012" class="node">
<title>Node12</title>
<g id="a_Node000012"><a xlink:href="classnetspeak_1_1invertedindex_1_1ByteBuffer.html#ab83184815805ed4606aa924eb9a6f42c" target="_top" xlink:title=" ">
<polygon fill="white" stroke="#666666" points="493,-188 358,-188 358,-158 493,-158 493,-188"/>
<text text-anchor="start" x="366" y="-176" font-family="Helvetica,sans-Serif" font-size="10.00">netspeak::invertedindex</text>
<text text-anchor="middle" x="425.5" y="-165" font-family="Helvetica,sans-Serif" font-size="10.00">::ByteBuffer::resize</text>
</a>
</g>
</g>
<!-- Node8&#45;&gt;Node12 -->
<g id="edge15_Node000008_Node000012" class="edge">
<title>Node8&#45;&gt;Node12</title>
<g id="a_edge15_Node000008_Node000012"><a xlink:title=" ">
<path fill="none" stroke="#63b8ff" d="M305.08,-140.06C322.65,-144.9 342.28,-150.32 360.47,-155.34"/>
<polygon fill="#63b8ff" stroke="#63b8ff" points="359.55,-158.71 370.12,-158 361.41,-151.96 359.55,-158.71"/>
</a>
</g>
</g>
<!-- Node13 -->
<g id="Node000013" class="node">
<title>Node13</title>
<g id="a_Node000013"><a xlink:href="structnetspeak_1_1invertedindex_1_1constant__size__iter.html#a9392dae9283acde150cfdea06a0936be" target="_top" xlink:title=" ">
<polygon fill="white" stroke="#666666" points="494,-92 357,-92 357,-62 494,-62 494,-92"/>
<text text-anchor="start" x="365" y="-80" font-family="Helvetica,sans-Serif" font-size="10.00">netspeak::invertedindex</text>
<text text-anchor="middle" x="425.5" y="-69" font-family="Helvetica,sans-Serif" font-size="10.00">::constant_size_iter::size</text>
</a>
</g>
</g>
<!-- Node8&#45;&gt;Node13 -->
<g id="edge18_Node000008_Node000013" class="edge">
<title>Node8&#45;&gt;Node13</title>
<g id="a_edge18_Node000008_Node000013"><a xlink:title=" ">
<path fill="none" stroke="#63b8ff" d="M305.08,-109.94C322.65,-105.1 342.28,-99.68 360.47,-94.66"/>
<polygon fill="#63b8ff" stroke="#63b8ff" points="361.41,-98.04 370.12,-92 359.55,-91.29 361.41,-98.04"/>
</a>
</g>
</g>
<!-- Node9&#45;&gt;Node4 -->
<g id="edge13_Node000009_Node000004" class="edge">
<title>Node9&#45;&gt;Node4</title>
<g id="a_edge13_Node000009_Node000004"><a xlink:title=" ">
<path fill="none" stroke="#63b8ff" d="M469.42,-140.05C477.6,-142.97 486.07,-146.05 494,-149 510.09,-154.99 513.92,-156.97 530,-163 534.76,-164.79 539.73,-166.62 544.7,-168.44"/>
<polygon fill="#63b8ff" stroke="#63b8ff" points="543.63,-171.78 554.23,-171.92 546.03,-165.21 543.63,-171.78"/>
</a>
</g>
</g>
<!-- Node10 -->
<g id="Node000010" class="node">
<title>Node10</title>
<g id="a_Node000010"><a xlink:href="namespacenetspeak_1_1util.html#a0f64660040077bd1ae3a46941a000b07" target="_top" xlink:title=" ">
<polygon fill="white" stroke="#666666" points="655,-153.5 540,-153.5 540,-134.5 655,-134.5 655,-153.5"/>
<text text-anchor="middle" x="597.5" y="-141.5" font-family="Helvetica,sans-Serif" font-size="10.00">netspeak::util::fread</text>
</a>
</g>
</g>
<!-- Node9&#45;&gt;Node10 -->
<g id="edge10_Node000009_Node000010" class="edge">
<title>Node9&#45;&gt;Node10</title>
<g id="a_edge10_Node000009_Node000010"><a xlink:title=" ">
<path fill="none" stroke="#63b8ff" d="M493.2,-132.45C505.26,-133.8 517.84,-135.21 529.9,-136.56"/>
<polygon fill="#63b8ff" stroke="#63b8ff" points="529.56,-140.04 539.89,-137.67 530.34,-133.08 529.56,-140.04"/>
</a>
</g>
</g>
<!-- Node11 -->
<g id="Node000011" class="node">
<title>Node11</title>
<g id="a_Node000011"><a xlink:href="classnetspeak_1_1invertedindex_1_1ByteBuffer.html#ac7160f8bd36f86815662909c0722556f" target="_top" xlink:title=" ">
<polygon fill="white" stroke="#666666" points="665,-116 530,-116 530,-86 665,-86 665,-116"/>
<text text-anchor="start" x="538" y="-104" font-family="Helvetica,sans-Serif" font-size="10.00">netspeak::invertedindex</text>
<text text-anchor="middle" x="597.5" y="-93" font-family="Helvetica,sans-Serif" font-size="10.00">::ByteBuffer::size</text>
</a>
</g>
</g>
<!-- Node9&#45;&gt;Node11 -->
<g id="edge14_Node000009_Node000011" class="edge">
<title>Node9&#45;&gt;Node11</title>
<g id="a_edge14_Node000009_Node000011"><a xlink:title=" ">
<path fill="none" stroke="#63b8ff" d="M493.2,-115.58C501.99,-114.34 511.05,-113.06 519.98,-111.8"/>
<polygon fill="#63b8ff" stroke="#63b8ff" points="520.58,-115.25 529.99,-110.39 519.6,-108.32 520.58,-115.25"/>
</a>
</g>
</g>
<!-- Node10&#45;&gt;Node6 -->
<g id="edge11_Node000010_Node000006" class="edge">
<title>Node10&#45;&gt;Node6</title>
<g id="a_edge11_Node000010_Node000006"><a xlink:title=" ">
<path fill="none" stroke="#63b8ff" d="M655.04,-135.53C669.95,-133.66 686.05,-131.94 701,-131 753.78,-127.67 767.11,-130.42 820,-131 828.34,-131.09 837.1,-131.23 845.76,-131.39"/>
<polygon fill="#63b8ff" stroke="#63b8ff" points="845.79,-134.89 855.86,-131.59 845.93,-127.89 845.79,-134.89"/>
</a>
</g>
</g>
<!-- Node10&#45;&gt;Node7 -->
<g id="edge12_Node000010_Node000007" class="edge">
<title>Node10&#45;&gt;Node7</title>
<g id="a_edge12_Node000010_Node000007"><a xlink:title=" ">
<path fill="none" stroke="#63b8ff" d="M655.26,-147.88C666.68,-148.66 678.79,-149.49 690.56,-150.29"/>
<polygon fill="#63b8ff" stroke="#63b8ff" points="690.58,-153.8 700.8,-150.99 691.06,-146.82 690.58,-153.8"/>
</a>
</g>
</g>
<!-- Node12&#45;&gt;Node4 -->
<g id="edge16_Node000012_Node000004" class="edge">
<title>Node12&#45;&gt;Node4</title>
<g id="a_edge16_Node000012_Node000004"><a xlink:title=" ">
<path fill="none" stroke="#63b8ff" d="M493.2,-178.49C501.99,-179.22 511.05,-179.96 519.98,-180.7"/>
<polygon fill="#63b8ff" stroke="#63b8ff" points="519.74,-184.19 529.99,-181.52 520.31,-177.21 519.74,-184.19"/>
</a>
</g>
</g>
<!-- Node12&#45;&gt;Node11 -->
<g id="edge17_Node000012_Node000011" class="edge">
<title>Node12&#45;&gt;Node11</title>
<g id="a_edge17_Node000012_Node000011"><a xlink:title=" ">
<path fill="none" stroke="#63b8ff" d="M473.19,-157.97C480.27,-155.24 487.41,-152.23 494,-149 511.05,-140.65 513.02,-134.5 530,-126 534.08,-123.96 538.37,-121.98 542.73,-120.1"/>
<polygon fill="#63b8ff" stroke="#63b8ff" points="544.4,-123.19 552.3,-116.13 541.72,-116.73 544.4,-123.19"/>
</a>
</g>
</g>
<!-- Node14&#45;&gt;Node11 -->
<g id="edge24_Node000014_Node000011" class="edge">
<title>Node14&#45;&gt;Node11</title>
<g id="a_edge24_Node000014_Node000011"><a xlink:title=" ">
<path fill="none" stroke="#63b8ff" d="M473.6,-44.06C480.56,-46.77 487.55,-49.77 494,-53 511.19,-61.62 512.83,-68.34 530,-77 533.48,-78.75 537.11,-80.44 540.81,-82.05"/>
<polygon fill="#63b8ff" stroke="#63b8ff" points="539.52,-85.3 550.1,-85.89 542.2,-78.84 539.52,-85.3"/>
</a>
</g>
</g>
<!-- Node15 -->
<g id="Node000015" class="node">
<title>Node15</title>
<g id="a_Node000015"><a xlink:href="classnetspeak_1_1invertedindex_1_1ByteBuffer.html#ad475d7f84f0c84151455988a2c08e486" target="_top" xlink:title=" ">
<polygon fill="white" stroke="#666666" points="665,-30 530,-30 530,0 665,0 665,-30"/>
<text text-anchor="start" x="538" y="-18" font-family="Helvetica,sans-Serif" font-size="10.00">netspeak::invertedindex</text>
<text text-anchor="middle" x="597.5" y="-7" font-family="Helvetica,sans-Serif" font-size="10.00">::ByteBuffer::begin</text>
</a>
</g>
</g>
<!-- Node14&#45;&gt;Node15 -->
<g id="edge20_Node000014_Node000015" class="edge">
<title>Node14&#45;&gt;Node15</title>
<g id="a_edge20_Node000014_Node000015"><a xlink:title=" ">
<path fill="none" stroke="#63b8ff" d="M493.2,-23.51C501.99,-22.78 511.05,-22.04 519.98,-21.3"/>
<polygon fill="#63b8ff" stroke="#63b8ff" points="520.31,-24.79 529.99,-20.48 519.74,-17.81 520.31,-24.79"/>
</a>
</g>
</g>
<!-- Node16 -->
<g id="Node000016" class="node">
<title>Node16</title>
<g id="a_Node000016"><a xlink:href="namespacenetspeak_1_1util.html#a33fbb28caf0f5be34cbce2f84faecb87" target="_top" xlink:title=" ">
<polygon fill="white" stroke="#666666" points="656,-67.5 539,-67.5 539,-48.5 656,-48.5 656,-67.5"/>
<text text-anchor="middle" x="597.5" y="-55.5" font-family="Helvetica,sans-Serif" font-size="10.00">netspeak::util::fwrite</text>
</a>
</g>
</g>
<!-- Node14&#45;&gt;Node16 -->
<g id="edge21_Node000014_Node000016" class="edge">
<title>Node14&#45;&gt;Node16</title>
<g id="a_edge21_Node000014_Node000016"><a xlink:title=" ">
<path fill="none" stroke="#63b8ff" d="M493.2,-40.38C505.48,-42.47 518.3,-44.66 530.56,-46.75"/>
<polygon fill="#63b8ff" stroke="#63b8ff" points="530.25,-50.25 540.7,-48.48 531.43,-43.35 530.25,-50.25"/>
</a>
</g>
</g>
<!-- Node16&#45;&gt;Node6 -->
<g id="edge22_Node000016_Node000006" class="edge">
<title>Node16&#45;&gt;Node6</title>
<g id="a_edge22_Node000016_Node000006"><a xlink:title=" ">
<path fill="none" stroke="#63b8ff" d="M638.46,-67.57C695.44,-81.23 799.98,-106.28 861.86,-121.1"/>
<polygon fill="#63b8ff" stroke="#63b8ff" points="861.24,-124.56 871.78,-123.48 862.87,-117.75 861.24,-124.56"/>
</a>
</g>
</g>
<!-- Node16&#45;&gt;Node7 -->
<g id="edge23_Node000016_Node000007" class="edge">
<title>Node16&#45;&gt;Node7</title>
<g id="a_edge23_Node000016_Node000007"><a xlink:title=" ">
<path fill="none" stroke="#63b8ff" d="M641.72,-67.54C649.69,-70.08 657.77,-73.2 665,-77 692.84,-91.64 720.05,-115.39 738.07,-132.85"/>
<polygon fill="#63b8ff" stroke="#63b8ff" points="735.63,-135.36 745.2,-139.9 740.55,-130.38 735.63,-135.36"/>
</a>
</g>
</g>
</g>
</svg>
