<?xml version="1.0" encoding="UTF-8" standalone="no"?>
<!DOCTYPE svg PUBLIC "-//W3C//DTD SVG 1.1//EN"
 "http://www.w3.org/Graphics/SVG/1.1/DTD/svg11.dtd">
<!-- Generated by graphviz version 2.43.0 (0)
 -->
<!-- Title: netspeak::value::value_traits::type_name Pages: 1 -->
<svg width="650pt" height="206pt"
 viewBox="0.00 0.00 650.00 205.50" xmlns="http://www.w3.org/2000/svg" xmlns:xlink="http://www.w3.org/1999/xlink">
<g id="graph0" class="graph" transform="scale(1 1) rotate(0) translate(4 201.5)">
<title>netspeak::value::value_traits::type_name</title>
<!-- Node1 -->
<g id="Node000001" class="node">
<title>Node1</title>
<g id="a_Node000001"><a xlink:title=" ">
<polygon fill="#999999" stroke="#666666" points="642,-78 514,-78 514,-48 642,-48 642,-78"/>
<text text-anchor="start" x="522" y="-66" font-family="Helvetica,sans-Serif" font-size="10.00">netspeak::value::value</text>
<text text-anchor="middle" x="578" y="-55" font-family="Helvetica,sans-Serif" font-size="10.00">_traits::type_name</text>
</a>
</g>
</g>
<!-- Node2 -->
<g id="Node000002" class="node">
<title>Node2</title>
<g id="a_Node000002"><a xlink:href="structnetspeak_1_1value_1_1value__traits.html#ac31a9953614e416777f4652b215bd560" target="_top" xlink:title=" ">
<polygon fill="white" stroke="#666666" points="478,-111 350,-111 350,-81 478,-81 478,-111"/>
<text text-anchor="start" x="358" y="-99" font-family="Helvetica,sans-Serif" font-size="10.00">netspeak::value::value</text>
<text text-anchor="middle" x="414" y="-88" font-family="Helvetica,sans-Serif" font-size="10.00">_traits::parse_from</text>
</a>
</g>
</g>
<!-- Node1&#45;&gt;Node2 -->
<g id="edge1_Node000001_Node000002" class="edge">
<title>Node1&#45;&gt;Node2</title>
<g id="a_edge1_Node000001_Node000002"><a xlink:title=" ">
<path fill="none" stroke="#63b8ff" d="M503.91,-77.89C495.32,-79.64 486.62,-81.41 478.19,-83.13"/>
<polygon fill="#63b8ff" stroke="#63b8ff" points="504.8,-81.28 513.9,-75.85 503.41,-74.42 504.8,-81.28"/>
</a>
</g>
</g>
<!-- Node8 -->
<g id="Node000008" class="node">
<title>Node8</title>
<g id="a_Node000008"><a xlink:href="classnetspeak_1_1Netspeak.html#a1787a53ca109ed1cc26504ea0f589dd3" target="_top" xlink:title=" ">
<polygon fill="white" stroke="#666666" points="471,-45 357,-45 357,-15 471,-15 471,-45"/>
<text text-anchor="start" x="365" y="-33" font-family="Helvetica,sans-Serif" font-size="10.00">netspeak::Netspeak</text>
<text text-anchor="middle" x="414" y="-22" font-family="Helvetica,sans-Serif" font-size="10.00">::properties</text>
</a>
</g>
</g>
<!-- Node1&#45;&gt;Node8 -->
<g id="edge7_Node000001_Node000008" class="edge">
<title>Node1&#45;&gt;Node8</title>
<g id="a_edge7_Node000001_Node000008"><a xlink:title=" ">
<path fill="none" stroke="#63b8ff" d="M503.87,-48.1C492.86,-45.86 481.65,-43.58 471.07,-41.42"/>
<polygon fill="#63b8ff" stroke="#63b8ff" points="503.41,-51.58 513.9,-50.15 504.8,-44.72 503.41,-51.58"/>
</a>
</g>
</g>
<!-- Node3 -->
<g id="Node000003" class="node">
<title>Node3</title>
<g id="a_Node000003"><a xlink:href="classnetspeak_1_1invertedindex_1_1InvertedFileReader.html#a932902c1e861d7d5c88f4b854fc19a97" target="_top" xlink:title=" ">
<polygon fill="white" stroke="#666666" points="310,-197.5 175,-197.5 175,-156.5 310,-156.5 310,-197.5"/>
<text text-anchor="start" x="183" y="-185.5" font-family="Helvetica,sans-Serif" font-size="10.00">netspeak::invertedindex</text>
<text text-anchor="start" x="183" y="-174.5" font-family="Helvetica,sans-Serif" font-size="10.00">::InvertedFileReader::</text>
<text text-anchor="middle" x="242.5" y="-163.5" font-family="Helvetica,sans-Serif" font-size="10.00">InvertedFileReader</text>
</a>
</g>
</g>
<!-- Node2&#45;&gt;Node3 -->
<g id="edge2_Node000002_Node000003" class="edge">
<title>Node2&#45;&gt;Node3</title>
<g id="a_edge2_Node000002_Node000003"><a xlink:title=" ">
<path fill="none" stroke="#63b8ff" d="M376.14,-115.81C357.65,-125.53 334.81,-137.23 314,-147 307.26,-150.17 300.09,-153.38 293.01,-156.48"/>
<polygon fill="#63b8ff" stroke="#63b8ff" points="377.9,-118.83 385.11,-111.06 374.63,-112.64 377.9,-118.83"/>
</a>
</g>
</g>
<!-- Node4 -->
<g id="Node000004" class="node">
<title>Node4</title>
<g id="a_Node000004"><a xlink:href="classnetspeak_1_1invertedindex_1_1Record.html#aaa1d19622935a005c0d7ef4518ee3271" target="_top" xlink:title=" ">
<polygon fill="white" stroke="#666666" points="310,-138 175,-138 175,-108 310,-108 310,-138"/>
<text text-anchor="start" x="183" y="-126" font-family="Helvetica,sans-Serif" font-size="10.00">netspeak::invertedindex</text>
<text text-anchor="middle" x="242.5" y="-115" font-family="Helvetica,sans-Serif" font-size="10.00">::Record::parse</text>
</a>
</g>
</g>
<!-- Node2&#45;&gt;Node4 -->
<g id="edge3_Node000002_Node000004" class="edge">
<title>Node2&#45;&gt;Node4</title>
<g id="a_edge3_Node000002_Node000004"><a xlink:title=" ">
<path fill="none" stroke="#63b8ff" d="M339.72,-107.67C329.86,-109.24 319.8,-110.85 310.07,-112.4"/>
<polygon fill="#63b8ff" stroke="#63b8ff" points="340.56,-111.08 349.88,-106.05 339.46,-104.17 340.56,-111.08"/>
</a>
</g>
</g>
<!-- Node6 -->
<g id="Node000006" class="node">
<title>Node6</title>
<g id="a_Node000006"><a xlink:href="structnetspeak_1_1value_1_1value__traits_3_01big__string_01_4.html#a545b761508653bfce9320030e814295f" target="_top" xlink:title=" ">
<polygon fill="white" stroke="#666666" points="306.5,-89.5 178.5,-89.5 178.5,-48.5 306.5,-48.5 306.5,-89.5"/>
<text text-anchor="start" x="186.5" y="-77.5" font-family="Helvetica,sans-Serif" font-size="10.00">netspeak::value::value</text>
<text text-anchor="start" x="186.5" y="-66.5" font-family="Helvetica,sans-Serif" font-size="10.00">_traits&lt; big_string &gt;</text>
<text text-anchor="middle" x="242.5" y="-55.5" font-family="Helvetica,sans-Serif" font-size="10.00">::parse_from</text>
</a>
</g>
</g>
<!-- Node2&#45;&gt;Node6 -->
<g id="edge5_Node000002_Node000006" class="edge">
<title>Node2&#45;&gt;Node6</title>
<g id="a_edge5_Node000002_Node000006"><a xlink:title=" ">
<path fill="none" stroke="#63b8ff" d="M339.84,-84.35C328.79,-82.59 317.48,-80.78 306.67,-79.06"/>
<polygon fill="#63b8ff" stroke="#63b8ff" points="339.46,-87.83 349.88,-85.95 340.56,-80.92 339.46,-87.83"/>
</a>
</g>
</g>
<!-- Node7 -->
<g id="Node000007" class="node">
<title>Node7</title>
<g id="a_Node000007"><a xlink:href="classnetspeak_1_1invertedindex_1_1InvertedFileReader.html#a3279c699261f38ce5afe35a0bb5a49c2" target="_top" xlink:title=" ">
<polygon fill="white" stroke="#666666" points="314,-30 171,-30 171,0 314,0 314,-30"/>
<text text-anchor="start" x="179" y="-18" font-family="Helvetica,sans-Serif" font-size="10.00">netspeak::invertedindex</text>
<text text-anchor="middle" x="242.5" y="-7" font-family="Helvetica,sans-Serif" font-size="10.00">::InvertedFileReader::read</text>
</a>
</g>
</g>
<!-- Node2&#45;&gt;Node7 -->
<g id="edge6_Node000002_Node000007" class="edge">
<title>Node2&#45;&gt;Node7</title>
<g id="a_edge6_Node000002_Node000007"><a xlink:title=" ">
<path fill="none" stroke="#63b8ff" d="M358.17,-76.54C355.36,-75.1 352.62,-73.59 350,-72 331.7,-60.9 332.43,-50.89 314,-40 307.63,-36.23 300.6,-32.91 293.52,-30.01"/>
<polygon fill="#63b8ff" stroke="#63b8ff" points="356.78,-79.76 367.32,-80.88 359.78,-73.43 356.78,-79.76"/>
</a>
</g>
</g>
<!-- Node5 -->
<g id="Node000005" class="node">
<title>Node5</title>
<g id="a_Node000005"><a xlink:href="namespacenetspeak_1_1invertedindex.html#a1dc3397b77c0c0104967f2a9276d4638" target="_top" xlink:title=" ">
<polygon fill="white" stroke="#666666" points="135,-138 0,-138 0,-108 135,-108 135,-138"/>
<text text-anchor="start" x="8" y="-126" font-family="Helvetica,sans-Serif" font-size="10.00">netspeak::invertedindex</text>
<text text-anchor="middle" x="67.5" y="-115" font-family="Helvetica,sans-Serif" font-size="10.00">::operator&gt;&gt;</text>
</a>
</g>
</g>
<!-- Node4&#45;&gt;Node5 -->
<g id="edge4_Node000004_Node000005" class="edge">
<title>Node4&#45;&gt;Node5</title>
<g id="a_edge4_Node000004_Node000005"><a xlink:title=" ">
<path fill="none" stroke="#63b8ff" d="M164.51,-123C154.74,-123 144.8,-123 135.21,-123"/>
<polygon fill="#63b8ff" stroke="#63b8ff" points="164.61,-126.5 174.61,-123 164.61,-119.5 164.61,-126.5"/>
</a>
</g>
</g>
<!-- Node8&#45;&gt;Node8 -->
<g id="edge8_Node000008_Node000008" class="edge">
<title>Node8&#45;&gt;Node8</title>
<g id="a_edge8_Node000008_Node000008"><a xlink:title=" ">
<path fill="none" stroke="#63b8ff" d="M442.71,-55.6C438.78,-59.97 429.21,-63 414,-63 388.38,-63 378.77,-54.41 385.17,-45.28"/>
<polygon fill="#63b8ff" stroke="#63b8ff" points="446.21,-55.32 442.83,-45.28 439.21,-55.23 446.21,-55.32"/>
</a>
</g>
</g>
</g>
</svg>
