<?xml version="1.0" encoding="UTF-8" standalone="no"?>
<!DOCTYPE svg PUBLIC "-//W3C//DTD SVG 1.1//EN"
 "http://www.w3.org/Graphics/SVG/1.1/DTD/svg11.dtd">
<!-- Generated by graphviz version 2.43.0 (0)
 -->
<!-- Title: netspeak::invertedindex::page_type Pages: 1 -->
<svg width="137pt" height="415pt"
 viewBox="0.00 0.00 137.00 415.00" xmlns="http://www.w3.org/2000/svg" xmlns:xlink="http://www.w3.org/1999/xlink">
<g id="graph0" class="graph" transform="scale(1 1) rotate(0) translate(4 411)">
<title>netspeak::invertedindex::page_type</title>
<!-- Node1 -->
<g id="Node000001" class="node">
<title>Node1</title>
<g id="a_Node000001"><a xlink:title=" ">
<polygon fill="#999999" stroke="transparent" points="129,-120 0,-120 0,0 129,0 129,-120"/>
<text text-anchor="start" x="5.5" y="-108" font-family="Helvetica,sans-Serif" font-size="10.00">netspeak::invertedindex</text>
<text text-anchor="start" x="36" y="-97" font-family="Helvetica,sans-Serif" font-size="10.00">::page_type</text>
<text text-anchor="start" x="15" y="-82" font-family="Helvetica,sans-Serif" font-size="10.00">+</text>
<text text-anchor="start" x="38.5" y="-82" font-family="Helvetica,sans-Serif" font-size="10.00">index_begin_</text>
<text text-anchor="start" x="15" y="-67" font-family="Helvetica,sans-Serif" font-size="10.00">+</text>
<text text-anchor="start" x="38.5" y="-67" font-family="Helvetica,sans-Serif" font-size="10.00">index_end_</text>
<text text-anchor="start" x="15" y="-52" font-family="Helvetica,sans-Serif" font-size="10.00">+</text>
<text text-anchor="start" x="38.5" y="-52" font-family="Helvetica,sans-Serif" font-size="10.00">index_cur_</text>
<text text-anchor="start" x="15" y="-37" font-family="Helvetica,sans-Serif" font-size="10.00">+</text>
<text text-anchor="start" x="38.5" y="-37" font-family="Helvetica,sans-Serif" font-size="10.00">page_type()</text>
<text text-anchor="start" x="15" y="-22" font-family="Helvetica,sans-Serif" font-size="10.00">+</text>
<text text-anchor="start" x="38.5" y="-22" font-family="Helvetica,sans-Serif" font-size="10.00">page_type()</text>
<text text-anchor="start" x="15" y="-7" font-family="Helvetica,sans-Serif" font-size="10.00">+</text>
<text text-anchor="start" x="38.5" y="-7" font-family="Helvetica,sans-Serif" font-size="10.00">print()</text>
<polygon fill="#666666" stroke="#666666" points="0.5,-92 0.5,-92 129.5,-92 129.5,-92 0.5,-92"/>
<polygon fill="#666666" stroke="#666666" points="0.5,-47 0.5,-47 36.5,-47 36.5,-47 0.5,-47"/>
<polygon fill="#666666" stroke="#666666" points="36.5,-47 36.5,-47 129.5,-47 129.5,-47 36.5,-47"/>
<polygon fill="none" stroke="#666666" points="0,0 0,-120 129,-120 129,0 0,0"/>
</a>
</g>
</g>
<!-- Node2 -->
<g id="Node000002" class="node">
<title>Node2</title>
<g id="a_Node000002"><a xlink:href="classnetspeak_1_1invertedindex_1_1ByteBuffer.html" target="_top" xlink:title=" ">
<polygon fill="white" stroke="transparent" points="129,-407 0,-407 0,-167 129,-167 129,-407"/>
<text text-anchor="start" x="5.5" y="-395" font-family="Helvetica,sans-Serif" font-size="10.00">netspeak::invertedindex</text>
<text text-anchor="start" x="36" y="-384" font-family="Helvetica,sans-Serif" font-size="10.00">::ByteBuffer</text>
<text text-anchor="start" x="12.5" y="-369" font-family="Helvetica,sans-Serif" font-size="10.00">&#45;</text>
<text text-anchor="start" x="28.5" y="-369" font-family="Helvetica,sans-Serif" font-size="10.00">buffer_</text>
<text text-anchor="start" x="12.5" y="-354" font-family="Helvetica,sans-Serif" font-size="10.00">&#45;</text>
<text text-anchor="start" x="28.5" y="-354" font-family="Helvetica,sans-Serif" font-size="10.00">bufpos_</text>
<text text-anchor="start" x="10" y="-339" font-family="Helvetica,sans-Serif" font-size="10.00">+</text>
<text text-anchor="start" x="28.5" y="-339" font-family="Helvetica,sans-Serif" font-size="10.00">ByteBuffer()</text>
<text text-anchor="start" x="10" y="-324" font-family="Helvetica,sans-Serif" font-size="10.00">+</text>
<text text-anchor="start" x="28.5" y="-324" font-family="Helvetica,sans-Serif" font-size="10.00">ByteBuffer()</text>
<text text-anchor="start" x="10" y="-309" font-family="Helvetica,sans-Serif" font-size="10.00">+</text>
<text text-anchor="start" x="28.5" y="-309" font-family="Helvetica,sans-Serif" font-size="10.00">~ByteBuffer()</text>
<text text-anchor="start" x="10" y="-294" font-family="Helvetica,sans-Serif" font-size="10.00">+</text>
<text text-anchor="start" x="28.5" y="-294" font-family="Helvetica,sans-Serif" font-size="10.00">begin()</text>
<text text-anchor="start" x="10" y="-279" font-family="Helvetica,sans-Serif" font-size="10.00">+</text>
<text text-anchor="start" x="28.5" y="-279" font-family="Helvetica,sans-Serif" font-size="10.00">begin()</text>
<text text-anchor="start" x="10" y="-264" font-family="Helvetica,sans-Serif" font-size="10.00">+</text>
<text text-anchor="start" x="28.5" y="-264" font-family="Helvetica,sans-Serif" font-size="10.00">end()</text>
<text text-anchor="start" x="10" y="-249" font-family="Helvetica,sans-Serif" font-size="10.00">+</text>
<text text-anchor="start" x="28.5" y="-249" font-family="Helvetica,sans-Serif" font-size="10.00">end()</text>
<text text-anchor="start" x="10" y="-234" font-family="Helvetica,sans-Serif" font-size="10.00">+</text>
<text text-anchor="start" x="28.5" y="-234" font-family="Helvetica,sans-Serif" font-size="10.00">clear()</text>
<text text-anchor="start" x="10" y="-219" font-family="Helvetica,sans-Serif" font-size="10.00">+</text>
<text text-anchor="start" x="28.5" y="-219" font-family="Helvetica,sans-Serif" font-size="10.00">clone()</text>
<text text-anchor="start" x="10" y="-204" font-family="Helvetica,sans-Serif" font-size="10.00">+</text>
<text text-anchor="start" x="28.5" y="-204" font-family="Helvetica,sans-Serif" font-size="10.00">operator=()</text>
<text text-anchor="start" x="28.5" y="-189" font-family="Helvetica,sans-Serif" font-size="10.00">and 10 more...</text>
<text text-anchor="start" x="12.5" y="-174" font-family="Helvetica,sans-Serif" font-size="10.00">&#45;</text>
<text text-anchor="start" x="28.5" y="-174" font-family="Helvetica,sans-Serif" font-size="10.00">bytes_available()</text>
<polygon fill="#666666" stroke="#666666" points="0.5,-379 0.5,-379 129.5,-379 129.5,-379 0.5,-379"/>
<polygon fill="#666666" stroke="#666666" points="0.5,-349 0.5,-349 26.5,-349 26.5,-349 0.5,-349"/>
<polygon fill="#666666" stroke="#666666" points="26.5,-349 26.5,-349 129.5,-349 129.5,-349 26.5,-349"/>
<polygon fill="none" stroke="#666666" points="0,-167 0,-407 129,-407 129,-167 0,-167"/>
</a>
</g>
</g>
<!-- Node2&#45;&gt;Node1 -->
<g id="edge1_Node000001_Node000002" class="edge">
<title>Node2&#45;&gt;Node1</title>
<g id="a_edge1_Node000001_Node000002"><a xlink:title=" ">
<path fill="none" stroke="#63b8ff" d="M64.5,-166.91C64.5,-155.12 64.5,-143.42 64.5,-132.34"/>
<polygon fill="none" stroke="#63b8ff" points="64.5,-132.12 60.5,-126.12 64.5,-120.12 68.5,-126.12 64.5,-132.12"/>
</a>
</g>
<text text-anchor="middle" x="87.5" y="-141" font-family="Helvetica,sans-Serif" font-size="10.00" fill="grey"> +buffer_</text>
</g>
</g>
</svg>
