<?xml version="1.0" encoding="UTF-8" standalone="no"?>
<!DOCTYPE svg PUBLIC "-//W3C//DTD SVG 1.1//EN"
 "http://www.w3.org/Graphics/SVG/1.1/DTD/svg11.dtd">
<!-- Generated by graphviz version 2.43.0 (0)
 -->
<!-- Title: netspeak::value::value_traits&lt; quadruple&lt; T1, T2, T3, T4 &gt; &gt;::println_to Pages: 1 -->
<svg width="474pt" height="49pt"
 viewBox="0.00 0.00 474.00 49.00" xmlns="http://www.w3.org/2000/svg" xmlns:xlink="http://www.w3.org/1999/xlink">
<g id="graph0" class="graph" transform="scale(1 1) rotate(0) translate(4 45)">
<title>netspeak::value::value_traits&lt; quadruple&lt; T1, T2, T3, T4 &gt; &gt;::println_to</title>
<!-- Node1 -->
<g id="Node000001" class="node">
<title>Node1</title>
<g id="a_Node000001"><a xlink:title=" ">
<polygon fill="#999999" stroke="#666666" points="143,-41 0,-41 0,0 143,0 143,-41"/>
<text text-anchor="start" x="8" y="-29" font-family="Helvetica,sans-Serif" font-size="10.00">netspeak::value::value</text>
<text text-anchor="start" x="8" y="-18" font-family="Helvetica,sans-Serif" font-size="10.00">_traits&lt; quadruple&lt; T1,</text>
<text text-anchor="middle" x="71.5" y="-7" font-family="Helvetica,sans-Serif" font-size="10.00"> T2, T3, T4 &gt; &gt;::println_to</text>
</a>
</g>
</g>
<!-- Node2 -->
<g id="Node000002" class="node">
<title>Node2</title>
<g id="a_Node000002"><a xlink:href="structnetspeak_1_1value_1_1value__traits.html#a55ccc1c45a80bd3a713fc7f9b5a5374a" target="_top" xlink:title=" ">
<polygon fill="white" stroke="#666666" points="307,-35.5 179,-35.5 179,-5.5 307,-5.5 307,-35.5"/>
<text text-anchor="start" x="187" y="-23.5" font-family="Helvetica,sans-Serif" font-size="10.00">netspeak::value::value</text>
<text text-anchor="middle" x="243" y="-12.5" font-family="Helvetica,sans-Serif" font-size="10.00">_traits::print_to</text>
</a>
</g>
</g>
<!-- Node1&#45;&gt;Node2 -->
<g id="edge1_Node000001_Node000002" class="edge">
<title>Node1&#45;&gt;Node2</title>
<g id="a_edge1_Node000001_Node000002"><a xlink:title=" ">
<path fill="none" stroke="#63b8ff" d="M143.4,-20.5C151.79,-20.5 160.36,-20.5 168.77,-20.5"/>
<polygon fill="#63b8ff" stroke="#63b8ff" points="168.94,-24 178.94,-20.5 168.94,-17 168.94,-24"/>
</a>
</g>
</g>
<!-- Node3 -->
<g id="Node000003" class="node">
<title>Node3</title>
<g id="a_Node000003"><a xlink:href="namespacenetspeak_1_1value.html#a407a0fb424f1ce9cdd3b7fd92620a572" target="_top" xlink:title=" ">
<polygon fill="white" stroke="#666666" points="466,-35.5 343,-35.5 343,-5.5 466,-5.5 466,-35.5"/>
<text text-anchor="start" x="351" y="-23.5" font-family="Helvetica,sans-Serif" font-size="10.00">netspeak::value::print</text>
<text text-anchor="middle" x="404.5" y="-12.5" font-family="Helvetica,sans-Serif" font-size="10.00">_to_os</text>
</a>
</g>
</g>
<!-- Node2&#45;&gt;Node3 -->
<g id="edge2_Node000002_Node000003" class="edge">
<title>Node2&#45;&gt;Node3</title>
<g id="a_edge2_Node000002_Node000003"><a xlink:title=" ">
<path fill="none" stroke="#63b8ff" d="M307.04,-20.5C315.4,-20.5 324.01,-20.5 332.49,-20.5"/>
<polygon fill="#63b8ff" stroke="#63b8ff" points="332.74,-24 342.74,-20.5 332.74,-17 332.74,-24"/>
</a>
</g>
</g>
</g>
</svg>
