<?xml version="1.0" encoding="UTF-8" standalone="no"?>
<!DOCTYPE svg PUBLIC "-//W3C//DTD SVG 1.1//EN"
 "http://www.w3.org/Graphics/SVG/1.1/DTD/svg11.dtd">
<!-- Generated by graphviz version 2.43.0 (0)
 -->
<!-- Title: netspeak::value::value_traits::size_of Pages: 1 -->
<svg width="1068pt" height="367pt"
 viewBox="0.00 0.00 1068.00 366.50" xmlns="http://www.w3.org/2000/svg" xmlns:xlink="http://www.w3.org/1999/xlink">
<g id="graph0" class="graph" transform="scale(1 1) rotate(0) translate(4 362.5)">
<title>netspeak::value::value_traits::size_of</title>
<!-- Node1 -->
<g id="Node000001" class="node">
<title>Node1</title>
<g id="a_Node000001"><a xlink:title=" ">
<polygon fill="#999999" stroke="#666666" points="1060,-198 932,-198 932,-168 1060,-168 1060,-198"/>
<text text-anchor="start" x="940" y="-186" font-family="Helvetica,sans-Serif" font-size="10.00">netspeak::value::value</text>
<text text-anchor="middle" x="996" y="-175" font-family="Helvetica,sans-Serif" font-size="10.00">_traits::size_of</text>
</a>
</g>
</g>
<!-- Node2 -->
<g id="Node000002" class="node">
<title>Node2</title>
<g id="a_Node000002"><a xlink:href="classnetspeak_1_1bighashmap_1_1Builder.html#a333ad1bb51cee1f0177b6b631148a423" target="_top" xlink:title=" ">
<polygon fill="white" stroke="#666666" points="889.5,-318 751.5,-318 751.5,-288 889.5,-288 889.5,-318"/>
<text text-anchor="start" x="759.5" y="-306" font-family="Helvetica,sans-Serif" font-size="10.00">netspeak::bighashmap</text>
<text text-anchor="middle" x="820.5" y="-295" font-family="Helvetica,sans-Serif" font-size="10.00">::Builder::BuildHashTable</text>
</a>
</g>
</g>
<!-- Node1&#45;&gt;Node2 -->
<g id="edge1_Node000001_Node000002" class="edge">
<title>Node1&#45;&gt;Node2</title>
<g id="a_edge1_Node000001_Node000002"><a xlink:title=" ">
<path fill="none" stroke="#63b8ff" d="M976.78,-205.94C958.48,-227.59 928.39,-259.54 896,-279 890.41,-282.36 884.29,-285.3 878.05,-287.87"/>
<polygon fill="#63b8ff" stroke="#63b8ff" points="979.52,-208.13 983.2,-198.19 974.13,-203.66 979.52,-208.13"/>
</a>
</g>
</g>
<!-- Node11 -->
<g id="Node000011" class="node">
<title>Node11</title>
<g id="a_Node000011"><a xlink:href="classnetspeak_1_1bighashmap_1_1ExternalMap.html#ab4c1b42fd3ea23b4bb6543f24d4fa062" target="_top" xlink:title=" ">
<polygon fill="white" stroke="#666666" points="884.5,-270 756.5,-270 756.5,-240 884.5,-240 884.5,-270"/>
<text text-anchor="start" x="764.5" y="-258" font-family="Helvetica,sans-Serif" font-size="10.00">netspeak::bighashmap</text>
<text text-anchor="middle" x="820.5" y="-247" font-family="Helvetica,sans-Serif" font-size="10.00">::ExternalMap::Get</text>
</a>
</g>
</g>
<!-- Node1&#45;&gt;Node11 -->
<g id="edge10_Node000001_Node000011" class="edge">
<title>Node1&#45;&gt;Node11</title>
<g id="a_edge10_Node000001_Node000011"><a xlink:title=" ">
<path fill="none" stroke="#63b8ff" d="M957.32,-202.81C939.07,-212 916.68,-222.7 896,-231 888.18,-234.14 879.78,-237.16 871.54,-239.95"/>
<polygon fill="#63b8ff" stroke="#63b8ff" points="959.13,-205.81 966.46,-198.16 955.96,-199.57 959.13,-205.81"/>
</a>
</g>
</g>
<!-- Node12 -->
<g id="Node000012" class="node">
<title>Node12</title>
<g id="a_Node000012"><a xlink:href="classnetspeak_1_1bighashmap_1_1InternalMap.html#af7547d2d66d8db1f2e9585ac049a414a" target="_top" xlink:title=" ">
<polygon fill="white" stroke="#666666" points="884.5,-222 756.5,-222 756.5,-192 884.5,-192 884.5,-222"/>
<text text-anchor="start" x="764.5" y="-210" font-family="Helvetica,sans-Serif" font-size="10.00">netspeak::bighashmap</text>
<text text-anchor="middle" x="820.5" y="-199" font-family="Helvetica,sans-Serif" font-size="10.00">::InternalMap::Get</text>
</a>
</g>
</g>
<!-- Node1&#45;&gt;Node12 -->
<g id="edge11_Node000001_Node000012" class="edge">
<title>Node1&#45;&gt;Node12</title>
<g id="a_edge11_Node000001_Node000012"><a xlink:title=" ">
<path fill="none" stroke="#63b8ff" d="M921.63,-193.15C909.31,-194.85 896.62,-196.61 884.58,-198.27"/>
<polygon fill="#63b8ff" stroke="#63b8ff" points="922.45,-196.57 931.87,-191.73 921.49,-189.64 922.45,-196.57"/>
</a>
</g>
</g>
<!-- Node13 -->
<g id="Node000013" class="node">
<title>Node13</title>
<g id="a_Node000013"><a xlink:href="classnetspeak_1_1invertedindex_1_1IndexStrategy.html#a7780270f95ab7bef53f4774895120997" target="_top" xlink:title=" ">
<polygon fill="white" stroke="#666666" points="888,-174 753,-174 753,-144 888,-144 888,-174"/>
<text text-anchor="start" x="761" y="-162" font-family="Helvetica,sans-Serif" font-size="10.00">netspeak::invertedindex</text>
<text text-anchor="middle" x="820.5" y="-151" font-family="Helvetica,sans-Serif" font-size="10.00">::IndexStrategy::insert</text>
</a>
</g>
</g>
<!-- Node1&#45;&gt;Node13 -->
<g id="edge12_Node000001_Node000013" class="edge">
<title>Node1&#45;&gt;Node13</title>
<g id="a_edge12_Node000001_Node000013"><a xlink:title=" ">
<path fill="none" stroke="#63b8ff" d="M921.73,-172.86C910.56,-171.32 899.1,-169.73 888.09,-168.21"/>
<polygon fill="#63b8ff" stroke="#63b8ff" points="921.49,-176.36 931.87,-174.27 922.45,-169.43 921.49,-176.36"/>
</a>
</g>
</g>
<!-- Node14 -->
<g id="Node000014" class="node">
<title>Node14</title>
<g id="a_Node000014"><a xlink:href="classnetspeak_1_1bighashmap_1_1InternalMap.html#a2bf5f719141050961f5967e006036043" target="_top" xlink:title=" ">
<polygon fill="white" stroke="#666666" points="893.5,-126 747.5,-126 747.5,-96 893.5,-96 893.5,-126"/>
<text text-anchor="start" x="755.5" y="-114" font-family="Helvetica,sans-Serif" font-size="10.00">netspeak::bighashmap</text>
<text text-anchor="middle" x="820.5" y="-103" font-family="Helvetica,sans-Serif" font-size="10.00">::InternalMap::InternalMap</text>
</a>
</g>
</g>
<!-- Node1&#45;&gt;Node14 -->
<g id="edge13_Node000001_Node000014" class="edge">
<title>Node1&#45;&gt;Node14</title>
<g id="a_edge13_Node000001_Node000014"><a xlink:title=" ">
<path fill="none" stroke="#63b8ff" d="M957.32,-163.19C939.07,-154 916.68,-143.3 896,-135 888.18,-131.86 879.78,-128.84 871.54,-126.05"/>
<polygon fill="#63b8ff" stroke="#63b8ff" points="955.96,-166.43 966.46,-167.84 959.13,-160.19 955.96,-166.43"/>
</a>
</g>
</g>
<!-- Node15 -->
<g id="Node000015" class="node">
<title>Node15</title>
<g id="a_Node000015"><a xlink:href="classnetspeak_1_1invertedindex_1_1PostlistBuilder.html#ab81c87c60382f082e402313fdbc92521" target="_top" xlink:title=" ">
<polygon fill="white" stroke="#666666" points="896,-78 745,-78 745,-48 896,-48 896,-78"/>
<text text-anchor="start" x="753" y="-66" font-family="Helvetica,sans-Serif" font-size="10.00">netspeak::invertedindex</text>
<text text-anchor="middle" x="820.5" y="-55" font-family="Helvetica,sans-Serif" font-size="10.00">::PostlistBuilder::push_back</text>
</a>
</g>
</g>
<!-- Node1&#45;&gt;Node15 -->
<g id="edge14_Node000001_Node000015" class="edge">
<title>Node1&#45;&gt;Node15</title>
<g id="a_edge14_Node000001_Node000015"><a xlink:title=" ">
<path fill="none" stroke="#63b8ff" d="M976.78,-160.06C958.48,-138.41 928.39,-106.46 896,-87 890.41,-83.64 884.29,-80.7 878.05,-78.13"/>
<polygon fill="#63b8ff" stroke="#63b8ff" points="974.13,-162.34 983.2,-167.81 979.52,-157.87 974.13,-162.34"/>
</a>
</g>
</g>
<!-- Node3 -->
<g id="Node000003" class="node">
<title>Node3</title>
<g id="a_Node000003"><a xlink:href="classnetspeak_1_1bighashmap_1_1Builder.html#a8435164185bac78bacf97c66e78b9a27" target="_top" xlink:title=" ">
<polygon fill="white" stroke="#666666" points="695.5,-318 567.5,-318 567.5,-288 695.5,-288 695.5,-318"/>
<text text-anchor="start" x="575.5" y="-306" font-family="Helvetica,sans-Serif" font-size="10.00">netspeak::bighashmap</text>
<text text-anchor="middle" x="631.5" y="-295" font-family="Helvetica,sans-Serif" font-size="10.00">::Builder::BuildMap</text>
</a>
</g>
</g>
<!-- Node2&#45;&gt;Node3 -->
<g id="edge2_Node000002_Node000003" class="edge">
<title>Node2&#45;&gt;Node3</title>
<g id="a_edge2_Node000002_Node000003"><a xlink:title=" ">
<path fill="none" stroke="#63b8ff" d="M741.05,-303C725.86,-303 710.13,-303 695.52,-303"/>
<polygon fill="#63b8ff" stroke="#63b8ff" points="741.46,-306.5 751.46,-303 741.46,-299.5 741.46,-306.5"/>
</a>
</g>
</g>
<!-- Node4 -->
<g id="Node000004" class="node">
<title>Node4</title>
<g id="a_Node000004"><a xlink:href="classnetspeak_1_1bighashmap_1_1Builder.html#a66906e74a9afa4707cfb7c999c0c635a" target="_top" xlink:title=" ">
<polygon fill="white" stroke="#666666" points="514.5,-318 386.5,-318 386.5,-288 514.5,-288 514.5,-318"/>
<text text-anchor="start" x="394.5" y="-306" font-family="Helvetica,sans-Serif" font-size="10.00">netspeak::bighashmap</text>
<text text-anchor="middle" x="450.5" y="-295" font-family="Helvetica,sans-Serif" font-size="10.00">::Builder::Build</text>
</a>
</g>
</g>
<!-- Node3&#45;&gt;Node4 -->
<g id="edge3_Node000003_Node000004" class="edge">
<title>Node3&#45;&gt;Node4</title>
<g id="a_edge3_Node000003_Node000004"><a xlink:title=" ">
<path fill="none" stroke="#63b8ff" d="M557.22,-303C543.1,-303 528.41,-303 514.64,-303"/>
<polygon fill="#63b8ff" stroke="#63b8ff" points="557.39,-306.5 567.39,-303 557.39,-299.5 557.39,-306.5"/>
</a>
</g>
</g>
<!-- Node5 -->
<g id="Node000005" class="node">
<title>Node5</title>
<g id="a_Node000005"><a xlink:href="classnetspeak_1_1bighashmap_1_1BigHashMap.html#a962d40196fcce78f1ddef98eb3d8344c" target="_top" xlink:title=" ">
<polygon fill="white" stroke="#666666" points="343.5,-353 215.5,-353 215.5,-323 343.5,-323 343.5,-353"/>
<text text-anchor="start" x="223.5" y="-341" font-family="Helvetica,sans-Serif" font-size="10.00">netspeak::bighashmap</text>
<text text-anchor="middle" x="279.5" y="-330" font-family="Helvetica,sans-Serif" font-size="10.00">::BigHashMap::Build</text>
</a>
</g>
</g>
<!-- Node4&#45;&gt;Node5 -->
<g id="edge4_Node000004_Node000005" class="edge">
<title>Node4&#45;&gt;Node5</title>
<g id="a_edge4_Node000004_Node000005"><a xlink:title=" ">
<path fill="none" stroke="#63b8ff" d="M376.23,-318.17C365.4,-320.42 354.31,-322.71 343.7,-324.91"/>
<polygon fill="#63b8ff" stroke="#63b8ff" points="377.01,-321.59 386.09,-316.13 375.59,-314.73 377.01,-321.59"/>
</a>
</g>
</g>
<!-- Node7 -->
<g id="Node000007" class="node">
<title>Node7</title>
<g id="a_Node000007"><a xlink:href="classnetspeak_1_1invertedindex_1_1StorageWriter.html#a504b8f6d78f6946fcdb5ee52b85348ce" target="_top" xlink:title=" ">
<polygon fill="white" stroke="#666666" points="347,-284 212,-284 212,-254 347,-254 347,-284"/>
<text text-anchor="start" x="220" y="-272" font-family="Helvetica,sans-Serif" font-size="10.00">netspeak::invertedindex</text>
<text text-anchor="middle" x="279.5" y="-261" font-family="Helvetica,sans-Serif" font-size="10.00">::StorageWriter::close</text>
</a>
</g>
</g>
<!-- Node4&#45;&gt;Node7 -->
<g id="edge6_Node000004_Node000007" class="edge">
<title>Node4&#45;&gt;Node7</title>
<g id="a_edge6_Node000004_Node000007"><a xlink:title=" ">
<path fill="none" stroke="#63b8ff" d="M376.12,-288.24C366.47,-286.3 356.62,-284.31 347.09,-282.4"/>
<polygon fill="#63b8ff" stroke="#63b8ff" points="375.6,-291.7 386.09,-290.24 376.98,-284.84 375.6,-291.7"/>
</a>
</g>
</g>
<!-- Node6 -->
<g id="Node000006" class="node">
<title>Node6</title>
<g id="a_Node000006"><a xlink:href="namespacenetspeak.html#a84f2fcf7a89eca20f721ce3c30b85001" target="_top" xlink:title=" ">
<polygon fill="white" stroke="#666666" points="176,-358.5 0,-358.5 0,-339.5 176,-339.5 176,-358.5"/>
<text text-anchor="middle" x="88" y="-346.5" font-family="Helvetica,sans-Serif" font-size="10.00">netspeak::BuildPhraseDictionary</text>
</a>
</g>
</g>
<!-- Node5&#45;&gt;Node6 -->
<g id="edge5_Node000005_Node000006" class="edge">
<title>Node5&#45;&gt;Node6</title>
<g id="a_edge5_Node000005_Node000006"><a xlink:title=" ">
<path fill="none" stroke="#63b8ff" d="M205.2,-342.25C195.68,-342.81 185.84,-343.38 176.12,-343.94"/>
<polygon fill="#63b8ff" stroke="#63b8ff" points="205.62,-345.74 215.4,-341.66 205.21,-338.75 205.62,-345.74"/>
</a>
</g>
</g>
<!-- Node8 -->
<g id="Node000008" class="node">
<title>Node8</title>
<g id="a_Node000008"><a xlink:href="classnetspeak_1_1invertedindex_1_1UnsortedInput.html#a3bf52078c65c198e542a3e16d42eff20" target="_top" xlink:title=" ">
<polygon fill="white" stroke="#666666" points="155.5,-321 20.5,-321 20.5,-291 155.5,-291 155.5,-321"/>
<text text-anchor="start" x="28.5" y="-309" font-family="Helvetica,sans-Serif" font-size="10.00">netspeak::invertedindex</text>
<text text-anchor="middle" x="88" y="-298" font-family="Helvetica,sans-Serif" font-size="10.00">::UnsortedInput::index</text>
</a>
</g>
</g>
<!-- Node7&#45;&gt;Node8 -->
<g id="edge7_Node000007_Node000008" class="edge">
<title>Node7&#45;&gt;Node8</title>
<g id="a_edge7_Node000007_Node000008"><a xlink:title=" ">
<path fill="none" stroke="#63b8ff" d="M201.99,-283.94C186.66,-286.93 170.67,-290.05 155.7,-292.98"/>
<polygon fill="#63b8ff" stroke="#63b8ff" points="202.81,-287.34 211.96,-281.99 201.47,-280.47 202.81,-287.34"/>
</a>
</g>
</g>
<!-- Node9 -->
<g id="Node000009" class="node">
<title>Node9</title>
<g id="a_Node000009"><a xlink:href="classnetspeak_1_1invertedindex_1_1SortedInput.html#ae3183e635b4fa91c0b855773b95ce99c" target="_top" xlink:title=" ">
<polygon fill="white" stroke="#666666" points="155.5,-273 20.5,-273 20.5,-243 155.5,-243 155.5,-273"/>
<text text-anchor="start" x="28.5" y="-261" font-family="Helvetica,sans-Serif" font-size="10.00">netspeak::invertedindex</text>
<text text-anchor="middle" x="88" y="-250" font-family="Helvetica,sans-Serif" font-size="10.00">::SortedInput::index</text>
</a>
</g>
</g>
<!-- Node7&#45;&gt;Node9 -->
<g id="edge8_Node000007_Node000009" class="edge">
<title>Node7&#45;&gt;Node9</title>
<g id="a_edge8_Node000007_Node000009"><a xlink:title=" ">
<path fill="none" stroke="#63b8ff" d="M201.56,-264.53C186.36,-263.65 170.53,-262.73 155.7,-261.87"/>
<polygon fill="#63b8ff" stroke="#63b8ff" points="201.77,-268.05 211.96,-265.14 202.18,-261.06 201.77,-268.05"/>
</a>
</g>
</g>
<!-- Node10 -->
<g id="Node000010" class="node">
<title>Node10</title>
<g id="a_Node000010"><a xlink:href="classnetspeak_1_1invertedindex_1_1StorageWriter.html#af783f33c33c210523e44c0aef00b7ccd" target="_top" xlink:title=" ">
<polygon fill="white" stroke="#666666" points="174,-225 2,-225 2,-195 174,-195 174,-225"/>
<text text-anchor="start" x="10" y="-213" font-family="Helvetica,sans-Serif" font-size="10.00">netspeak::invertedindex</text>
<text text-anchor="middle" x="88" y="-202" font-family="Helvetica,sans-Serif" font-size="10.00">::StorageWriter::~StorageWriter</text>
</a>
</g>
</g>
<!-- Node7&#45;&gt;Node10 -->
<g id="edge9_Node000007_Node000010" class="edge">
<title>Node7&#45;&gt;Node10</title>
<g id="a_edge9_Node000007_Node000010"><a xlink:title=" ">
<path fill="none" stroke="#63b8ff" d="M226.51,-250.57C210.39,-245.04 192.52,-239.09 176,-234 166.12,-230.95 155.55,-227.88 145.3,-225"/>
<polygon fill="#63b8ff" stroke="#63b8ff" points="225.7,-254 236.3,-253.95 227.99,-247.38 225.7,-254"/>
</a>
</g>
</g>
<!-- Node16 -->
<g id="Node000016" class="node">
<title>Node16</title>
<g id="a_Node000016"><a xlink:href="classnetspeak_1_1invertedindex_1_1SortedInput.html#a6aff15206149d6721ea2bbd44a1aebd6" target="_top" xlink:title=" ">
<polygon fill="white" stroke="#666666" points="699,-126 564,-126 564,-96 699,-96 699,-126"/>
<text text-anchor="start" x="572" y="-114" font-family="Helvetica,sans-Serif" font-size="10.00">netspeak::invertedindex</text>
<text text-anchor="middle" x="631.5" y="-103" font-family="Helvetica,sans-Serif" font-size="10.00">::SortedInput::insert_</text>
</a>
</g>
</g>
<!-- Node15&#45;&gt;Node16 -->
<g id="edge15_Node000015_Node000016" class="edge">
<title>Node15&#45;&gt;Node16</title>
<g id="a_edge15_Node000015_Node000016"><a xlink:title=" ">
<path fill="none" stroke="#63b8ff" d="M751.01,-80.58C731.3,-85.64 709.99,-91.11 690.95,-96"/>
<polygon fill="#63b8ff" stroke="#63b8ff" points="752.03,-83.93 760.85,-78.06 750.29,-77.15 752.03,-83.93"/>
</a>
</g>
</g>
<!-- Node17 -->
<g id="Node000017" class="node">
<title>Node17</title>
<g id="a_Node000017"><a xlink:href="classnetspeak_1_1invertedindex_1_1PostlistSorter.html#a0bb0492d40e3460f4463a35843df5bf7" target="_top" xlink:title=" ">
<polygon fill="white" stroke="#666666" points="709,-78 554,-78 554,-48 709,-48 709,-78"/>
<text text-anchor="start" x="562" y="-66" font-family="Helvetica,sans-Serif" font-size="10.00">netspeak::invertedindex</text>
<text text-anchor="middle" x="631.5" y="-55" font-family="Helvetica,sans-Serif" font-size="10.00">::PostlistSorter::internal_sort</text>
</a>
</g>
</g>
<!-- Node15&#45;&gt;Node17 -->
<g id="edge16_Node000015_Node000017" class="edge">
<title>Node15&#45;&gt;Node17</title>
<g id="a_edge16_Node000015_Node000017"><a xlink:title=" ">
<path fill="none" stroke="#63b8ff" d="M734.56,-63C726.12,-63 717.58,-63 709.24,-63"/>
<polygon fill="#63b8ff" stroke="#63b8ff" points="734.79,-66.5 744.79,-63 734.79,-59.5 734.79,-66.5"/>
</a>
</g>
</g>
<!-- Node20 -->
<g id="Node000020" class="node">
<title>Node20</title>
<g id="a_Node000020"><a xlink:href="classnetspeak_1_1invertedindex_1_1PostlistSorter.html#a3a4bdc4279ad3c23c77d69c629f4b89a" target="_top" xlink:title=" ">
<polygon fill="white" stroke="#666666" points="699,-30 564,-30 564,0 699,0 699,-30"/>
<text text-anchor="start" x="572" y="-18" font-family="Helvetica,sans-Serif" font-size="10.00">netspeak::invertedindex</text>
<text text-anchor="middle" x="631.5" y="-7" font-family="Helvetica,sans-Serif" font-size="10.00">::PostlistSorter::merge</text>
</a>
</g>
</g>
<!-- Node15&#45;&gt;Node20 -->
<g id="edge19_Node000015_Node000020" class="edge">
<title>Node15&#45;&gt;Node20</title>
<g id="a_edge19_Node000015_Node000020"><a xlink:title=" ">
<path fill="none" stroke="#63b8ff" d="M751.01,-45.42C731.3,-40.36 709.99,-34.89 690.95,-30"/>
<polygon fill="#63b8ff" stroke="#63b8ff" points="750.29,-48.85 760.85,-47.94 752.03,-42.07 750.29,-48.85"/>
</a>
</g>
</g>
<!-- Node18 -->
<g id="Node000018" class="node">
<title>Node18</title>
<g id="a_Node000018"><a xlink:href="classnetspeak_1_1invertedindex_1_1PostlistSorter.html#a58f01b8d58f6487a4ceb2f1ab3d2f0a1" target="_top" xlink:title=" ">
<polygon fill="white" stroke="#666666" points="518,-54 383,-54 383,-24 518,-24 518,-54"/>
<text text-anchor="start" x="391" y="-42" font-family="Helvetica,sans-Serif" font-size="10.00">netspeak::invertedindex</text>
<text text-anchor="middle" x="450.5" y="-31" font-family="Helvetica,sans-Serif" font-size="10.00">::PostlistSorter::sort</text>
</a>
</g>
</g>
<!-- Node17&#45;&gt;Node18 -->
<g id="edge17_Node000017_Node000018" class="edge">
<title>Node17&#45;&gt;Node18</title>
<g id="a_edge17_Node000017_Node000018"><a xlink:title=" ">
<path fill="none" stroke="#63b8ff" d="M543.75,-51.37C535.15,-50.22 526.51,-49.06 518.16,-47.94"/>
<polygon fill="#63b8ff" stroke="#63b8ff" points="543.43,-54.86 553.81,-52.72 544.36,-47.92 543.43,-54.86"/>
</a>
</g>
</g>
<!-- Node19 -->
<g id="Node000019" class="node">
<title>Node19</title>
<g id="a_Node000019"><a xlink:href="classnetspeak_1_1invertedindex_1_1UnsortedInput.html#ac107e445403ad38a4774f83e92e9bb70" target="_top" xlink:title=" ">
<polygon fill="white" stroke="#666666" points="347,-54 212,-54 212,-24 347,-24 347,-54"/>
<text text-anchor="start" x="220" y="-42" font-family="Helvetica,sans-Serif" font-size="10.00">netspeak::invertedindex</text>
<text text-anchor="middle" x="279.5" y="-31" font-family="Helvetica,sans-Serif" font-size="10.00">::UnsortedInput::sort</text>
</a>
</g>
</g>
<!-- Node18&#45;&gt;Node19 -->
<g id="edge18_Node000018_Node000019" class="edge">
<title>Node18&#45;&gt;Node19</title>
<g id="a_edge18_Node000018_Node000019"><a xlink:title=" ">
<path fill="none" stroke="#63b8ff" d="M372.45,-39C363.98,-39 355.41,-39 347.08,-39"/>
<polygon fill="#63b8ff" stroke="#63b8ff" points="372.71,-42.5 382.71,-39 372.71,-35.5 372.71,-42.5"/>
</a>
</g>
</g>
<!-- Node20&#45;&gt;Node18 -->
<g id="edge20_Node000020_Node000018" class="edge">
<title>Node20&#45;&gt;Node18</title>
<g id="a_edge20_Node000020_Node000018"><a xlink:title=" ">
<path fill="none" stroke="#63b8ff" d="M553.59,-25.31C541.82,-26.89 529.74,-28.51 518.21,-30.06"/>
<polygon fill="#63b8ff" stroke="#63b8ff" points="554.4,-28.73 563.85,-23.94 553.47,-21.8 554.4,-28.73"/>
</a>
</g>
</g>
</g>
</svg>
