<?xml version="1.0" encoding="UTF-8" standalone="no"?>
<!DOCTYPE svg PUBLIC "-//W3C//DTD SVG 1.1//EN"
 "http://www.w3.org/Graphics/SVG/1.1/DTD/svg11.dtd">
<!-- Generated by graphviz version 2.43.0 (0)
 -->
<!-- Title: netspeak::model::PhraseId__::operator== Pages: 1 -->
<svg width="336pt" height="86pt"
 viewBox="0.00 0.00 336.00 86.00" xmlns="http://www.w3.org/2000/svg" xmlns:xlink="http://www.w3.org/1999/xlink">
<g id="graph0" class="graph" transform="scale(1 1) rotate(0) translate(4 82)">
<title>netspeak::model::PhraseId__::operator==</title>
<!-- Node1 -->
<g id="Node000001" class="node">
<title>Node1</title>
<g id="a_Node000001"><a xlink:title=" ">
<polygon fill="#999999" stroke="#666666" points="146,-54 0,-54 0,-24 146,-24 146,-54"/>
<text text-anchor="start" x="8" y="-42" font-family="Helvetica,sans-Serif" font-size="10.00">netspeak::model::PhraseId</text>
<text text-anchor="middle" x="73" y="-31" font-family="Helvetica,sans-Serif" font-size="10.00">__::operator==</text>
</a>
</g>
</g>
<!-- Node2 -->
<g id="Node000002" class="node">
<title>Node2</title>
<g id="a_Node000002"><a xlink:href="structnetspeak_1_1model_1_1PhraseId____.html#a8ea8ca72bd59bb7bad83fa536559b9b0" target="_top" xlink:title=" ">
<polygon fill="white" stroke="#666666" points="328,-78 182,-78 182,-48 328,-48 328,-78"/>
<text text-anchor="start" x="190" y="-66" font-family="Helvetica,sans-Serif" font-size="10.00">netspeak::model::PhraseId</text>
<text text-anchor="middle" x="255" y="-55" font-family="Helvetica,sans-Serif" font-size="10.00">__::length</text>
</a>
</g>
</g>
<!-- Node1&#45;&gt;Node2 -->
<g id="edge1_Node000001_Node000002" class="edge">
<title>Node1&#45;&gt;Node2</title>
<g id="a_edge1_Node000001_Node000002"><a xlink:title=" ">
<path fill="none" stroke="#63b8ff" d="M146.18,-48.62C154.61,-49.75 163.27,-50.9 171.82,-52.04"/>
<polygon fill="#63b8ff" stroke="#63b8ff" points="171.43,-55.52 181.81,-53.37 172.36,-48.58 171.43,-55.52"/>
</a>
</g>
</g>
<!-- Node3 -->
<g id="Node000003" class="node">
<title>Node3</title>
<g id="a_Node000003"><a xlink:href="structnetspeak_1_1model_1_1PhraseId____.html#ac831216b2c992a73284e5ac7bb09e361" target="_top" xlink:title=" ">
<polygon fill="white" stroke="#666666" points="328,-30 182,-30 182,0 328,0 328,-30"/>
<text text-anchor="start" x="190" y="-18" font-family="Helvetica,sans-Serif" font-size="10.00">netspeak::model::PhraseId</text>
<text text-anchor="middle" x="255" y="-7" font-family="Helvetica,sans-Serif" font-size="10.00">__::local</text>
</a>
</g>
</g>
<!-- Node1&#45;&gt;Node3 -->
<g id="edge2_Node000001_Node000003" class="edge">
<title>Node1&#45;&gt;Node3</title>
<g id="a_edge2_Node000001_Node000003"><a xlink:title=" ">
<path fill="none" stroke="#63b8ff" d="M146.18,-29.38C154.61,-28.25 163.27,-27.1 171.82,-25.96"/>
<polygon fill="#63b8ff" stroke="#63b8ff" points="172.36,-29.42 181.81,-24.63 171.43,-22.48 172.36,-29.42"/>
</a>
</g>
</g>
</g>
</svg>
