<?xml version="1.0" encoding="UTF-8" standalone="no"?>
<!DOCTYPE svg PUBLIC "-//W3C//DTD SVG 1.1//EN"
 "http://www.w3.org/Graphics/SVG/1.1/DTD/svg11.dtd">
<!-- Generated by graphviz version 2.43.0 (0)
 -->
<!-- Title: netspeak::invalid_query_error Pages: 1 -->
<svg width="157pt" height="279pt"
 viewBox="0.00 0.00 157.00 279.00" xmlns="http://www.w3.org/2000/svg" xmlns:xlink="http://www.w3.org/1999/xlink">
<g id="graph0" class="graph" transform="scale(1 1) rotate(0) translate(4 275)">
<title>netspeak::invalid_query_error</title>
<!-- Node1 -->
<g id="Node000001" class="node">
<title>Node1</title>
<g id="a_Node000001"><a xlink:title=" ">
<polygon fill="#999999" stroke="transparent" points="140.5,-75 8.5,-75 8.5,0 140.5,0 140.5,-75"/>
<text text-anchor="start" x="15.5" y="-62.5" font-family="Helvetica,sans-Serif" font-size="10.00">netspeak::invalid_query</text>
<text text-anchor="start" x="60" y="-51.5" font-family="Helvetica,sans-Serif" font-size="10.00">_error</text>
<text text-anchor="start" x="72.5" y="-36.5" font-family="Helvetica,sans-Serif" font-size="10.00"> </text>
<text text-anchor="start" x="12.5" y="-21.5" font-family="Helvetica,sans-Serif" font-size="10.00">+</text>
<text text-anchor="start" x="25.5" y="-21.5" font-family="Helvetica,sans-Serif" font-size="10.00">invalid_query_error()</text>
<text text-anchor="start" x="12.5" y="-6.5" font-family="Helvetica,sans-Serif" font-size="10.00">+</text>
<text text-anchor="start" x="25.5" y="-6.5" font-family="Helvetica,sans-Serif" font-size="10.00">~invalid_query_error()</text>
<polygon fill="#666666" stroke="#666666" points="8.5,-46.5 8.5,-46.5 140.5,-46.5 140.5,-46.5 8.5,-46.5"/>
<polygon fill="#666666" stroke="#666666" points="8.5,-31.5 8.5,-31.5 140.5,-31.5 140.5,-31.5 8.5,-31.5"/>
<polygon fill="none" stroke="#666666" points="8.5,0 8.5,-75 140.5,-75 140.5,0 8.5,0"/>
</a>
</g>
</g>
<!-- Node2 -->
<g id="Node000002" class="node">
<title>Node2</title>
<g id="a_Node000002"><a xlink:href="structnetspeak_1_1util_1_1tracable__runtime__error.html" target="_top" xlink:title=" ">
<polygon fill="white" stroke="transparent" points="149,-186 0,-186 0,-111 149,-111 149,-186"/>
<text text-anchor="start" x="18.5" y="-173.5" font-family="Helvetica,sans-Serif" font-size="10.00">netspeak::util::tracable</text>
<text text-anchor="start" x="38.5" y="-162.5" font-family="Helvetica,sans-Serif" font-size="10.00">_runtime_error</text>
<text text-anchor="start" x="73" y="-147.5" font-family="Helvetica,sans-Serif" font-size="10.00"> </text>
<text text-anchor="start" x="4.5" y="-132.5" font-family="Helvetica,sans-Serif" font-size="10.00">+</text>
<text text-anchor="start" x="17.5" y="-132.5" font-family="Helvetica,sans-Serif" font-size="10.00">tracable_runtime_error()</text>
<text text-anchor="start" x="4.5" y="-117.5" font-family="Helvetica,sans-Serif" font-size="10.00">+</text>
<text text-anchor="start" x="17.5" y="-117.5" font-family="Helvetica,sans-Serif" font-size="10.00">~tracable_runtime_error()</text>
<polygon fill="#666666" stroke="#666666" points="0.5,-157.5 0.5,-157.5 149.5,-157.5 149.5,-157.5 0.5,-157.5"/>
<polygon fill="#666666" stroke="#666666" points="0.5,-142.5 0.5,-142.5 149.5,-142.5 149.5,-142.5 0.5,-142.5"/>
<polygon fill="none" stroke="#666666" points="0,-111 0,-186 149,-186 149,-111 0,-111"/>
</a>
</g>
</g>
<!-- Node2&#45;&gt;Node1 -->
<g id="edge1_Node000001_Node000002" class="edge">
<title>Node2&#45;&gt;Node1</title>
<g id="a_edge1_Node000001_Node000002"><a xlink:title=" ">
<path fill="none" stroke="#63b8ff" d="M74.5,-100.68C74.5,-92.15 74.5,-83.37 74.5,-75.19"/>
<polygon fill="none" stroke="#63b8ff" points="71,-100.9 74.5,-110.9 78,-100.9 71,-100.9"/>
</a>
</g>
</g>
<!-- Node3 -->
<g id="Node000003" class="node">
<title>Node3</title>
<g id="a_Node000003"><a xlink:title=" ">
<polygon fill="white" stroke="transparent" points="123.5,-271 25.5,-271 25.5,-222 123.5,-222 123.5,-271"/>
<text text-anchor="start" x="30.5" y="-258.5" font-family="Helvetica,sans-Serif" font-size="10.00">std::runtime_error</text>
<text text-anchor="start" x="72.5" y="-243.5" font-family="Helvetica,sans-Serif" font-size="10.00"> </text>
<text text-anchor="start" x="72.5" y="-228.5" font-family="Helvetica,sans-Serif" font-size="10.00"> </text>
<polygon fill="#666666" stroke="#666666" points="25.5,-253.5 25.5,-253.5 123.5,-253.5 123.5,-253.5 25.5,-253.5"/>
<polygon fill="#666666" stroke="#666666" points="25.5,-238.5 25.5,-238.5 123.5,-238.5 123.5,-238.5 25.5,-238.5"/>
<polygon fill="none" stroke="#666666" points="25.5,-222 25.5,-271 123.5,-271 123.5,-222 25.5,-222"/>
</a>
</g>
</g>
<!-- Node3&#45;&gt;Node2 -->
<g id="edge2_Node000002_Node000003" class="edge">
<title>Node3&#45;&gt;Node2</title>
<g id="a_edge2_Node000002_Node000003"><a xlink:title=" ">
<path fill="none" stroke="#63b8ff" d="M74.5,-211.68C74.5,-203.38 74.5,-194.46 74.5,-186.04"/>
<polygon fill="none" stroke="#63b8ff" points="71,-211.77 74.5,-221.77 78,-211.77 71,-211.77"/>
</a>
</g>
</g>
</g>
</svg>
