<?xml version="1.0" encoding="UTF-8" standalone="no"?>
<!DOCTYPE svg PUBLIC "-//W3C//DTD SVG 1.1//EN"
 "http://www.w3.org/Graphics/SVG/1.1/DTD/svg11.dtd">
<!-- Generated by graphviz version 2.43.0 (0)
 -->
<!-- Title: netspeak::invertedindex::constant_size_iter::constant_size_iter Pages: 1 -->
<svg width="314pt" height="98pt"
 viewBox="0.00 0.00 314.00 97.50" xmlns="http://www.w3.org/2000/svg" xmlns:xlink="http://www.w3.org/1999/xlink">
<g id="graph0" class="graph" transform="scale(1 1) rotate(0) translate(4 93.5)">
<title>netspeak::invertedindex::constant_size_iter::constant_size_iter</title>
<!-- Node1 -->
<g id="Node000001" class="node">
<title>Node1</title>
<g id="a_Node000001"><a xlink:title=" ">
<polygon fill="#999999" stroke="#666666" points="135,-62.5 0,-62.5 0,-21.5 135,-21.5 135,-62.5"/>
<text text-anchor="start" x="8" y="-50.5" font-family="Helvetica,sans-Serif" font-size="10.00">netspeak::invertedindex</text>
<text text-anchor="start" x="8" y="-39.5" font-family="Helvetica,sans-Serif" font-size="10.00">::constant_size_iter::</text>
<text text-anchor="middle" x="67.5" y="-28.5" font-family="Helvetica,sans-Serif" font-size="10.00">constant_size_iter</text>
</a>
</g>
</g>
<!-- Node2 -->
<g id="Node000002" class="node">
<title>Node2</title>
<g id="a_Node000002"><a xlink:href="structnetspeak_1_1invertedindex_1_1constant__size__iter.html#aab2c809ce0699995b1bb6f00db391248" target="_top" xlink:title=" ">
<polygon fill="white" stroke="#666666" points="306,-89.5 171,-89.5 171,-48.5 306,-48.5 306,-89.5"/>
<text text-anchor="start" x="179" y="-77.5" font-family="Helvetica,sans-Serif" font-size="10.00">netspeak::invertedindex</text>
<text text-anchor="start" x="179" y="-66.5" font-family="Helvetica,sans-Serif" font-size="10.00">::constant_size_iter::</text>
<text text-anchor="middle" x="238.5" y="-55.5" font-family="Helvetica,sans-Serif" font-size="10.00">byte_size</text>
</a>
</g>
</g>
<!-- Node1&#45;&gt;Node2 -->
<g id="edge1_Node000001_Node000002" class="edge">
<title>Node1&#45;&gt;Node2</title>
<g id="a_edge1_Node000001_Node000002"><a xlink:title=" ">
<path fill="none" stroke="#63b8ff" d="M135.29,-52.67C143.72,-54.02 152.38,-55.4 160.94,-56.77"/>
<polygon fill="#63b8ff" stroke="#63b8ff" points="160.49,-60.24 170.92,-58.36 161.59,-53.33 160.49,-60.24"/>
</a>
</g>
</g>
<!-- Node3 -->
<g id="Node000003" class="node">
<title>Node3</title>
<g id="a_Node000003"><a xlink:href="classnetspeak_1_1invertedindex_1_1ByteBuffer.html#ac7160f8bd36f86815662909c0722556f" target="_top" xlink:title=" ">
<polygon fill="white" stroke="#666666" points="306,-30 171,-30 171,0 306,0 306,-30"/>
<text text-anchor="start" x="179" y="-18" font-family="Helvetica,sans-Serif" font-size="10.00">netspeak::invertedindex</text>
<text text-anchor="middle" x="238.5" y="-7" font-family="Helvetica,sans-Serif" font-size="10.00">::ByteBuffer::size</text>
</a>
</g>
</g>
<!-- Node1&#45;&gt;Node3 -->
<g id="edge2_Node000001_Node000003" class="edge">
<title>Node1&#45;&gt;Node3</title>
<g id="a_edge2_Node000001_Node000003"><a xlink:title=" ">
<path fill="none" stroke="#63b8ff" d="M135.29,-31.33C143.72,-29.98 152.38,-28.6 160.94,-27.23"/>
<polygon fill="#63b8ff" stroke="#63b8ff" points="161.59,-30.67 170.92,-25.64 160.49,-23.76 161.59,-30.67"/>
</a>
</g>
</g>
</g>
</svg>
