<?xml version="1.0" encoding="UTF-8" standalone="no"?>
<!DOCTYPE svg PUBLIC "-//W3C//DTD SVG 1.1//EN"
 "http://www.w3.org/Graphics/SVG/1.1/DTD/svg11.dtd">
<!-- Generated by graphviz version 2.43.0 (0)
 -->
<!-- Title: netspeak::value::value_traits&lt; quadruple&lt; T1, T2, T3, T4 &gt; &gt;::print_to Pages: 1 -->
<svg width="345pt" height="138pt"
 viewBox="0.00 0.00 345.00 138.00" xmlns="http://www.w3.org/2000/svg" xmlns:xlink="http://www.w3.org/1999/xlink">
<g id="graph0" class="graph" transform="scale(1 1) rotate(0) translate(4 134)">
<title>netspeak::value::value_traits&lt; quadruple&lt; T1, T2, T3, T4 &gt; &gt;::print_to</title>
<!-- Node1 -->
<g id="Node000001" class="node">
<title>Node1</title>
<g id="a_Node000001"><a xlink:title=" ">
<polygon fill="#999999" stroke="#666666" points="134,-85 0,-85 0,-44 134,-44 134,-85"/>
<text text-anchor="start" x="8" y="-73" font-family="Helvetica,sans-Serif" font-size="10.00">netspeak::value::value</text>
<text text-anchor="start" x="8" y="-62" font-family="Helvetica,sans-Serif" font-size="10.00">_traits&lt; quadruple&lt; T1,</text>
<text text-anchor="middle" x="67" y="-51" font-family="Helvetica,sans-Serif" font-size="10.00"> T2, T3, T4 &gt; &gt;::print_to</text>
</a>
</g>
</g>
<!-- Node2 -->
<g id="Node000002" class="node">
<title>Node2</title>
<g id="a_Node000002"><a xlink:href="classnetspeak_1_1value_1_1quadruple.html#ad39c4759bc75b68caf8fcf9d63d83f32" target="_top" xlink:title=" ">
<polygon fill="white" stroke="#666666" points="337,-130 170,-130 170,-111 337,-111 337,-130"/>
<text text-anchor="middle" x="253.5" y="-118" font-family="Helvetica,sans-Serif" font-size="10.00">netspeak::value::quadruple::e1</text>
</a>
</g>
</g>
<!-- Node1&#45;&gt;Node2 -->
<g id="edge1_Node000001_Node000002" class="edge">
<title>Node1&#45;&gt;Node2</title>
<g id="a_edge1_Node000001_Node000002"><a xlink:title=" ">
<path fill="none" stroke="#63b8ff" d="M118.89,-85.07C135.07,-91.18 153.14,-97.55 170,-102.5 177.52,-104.71 185.49,-106.78 193.4,-108.67"/>
<polygon fill="#63b8ff" stroke="#63b8ff" points="192.82,-112.13 203.35,-110.97 194.4,-105.31 192.82,-112.13"/>
</a>
</g>
</g>
<!-- Node3 -->
<g id="Node000003" class="node">
<title>Node3</title>
<g id="a_Node000003"><a xlink:href="classnetspeak_1_1value_1_1quadruple.html#a5bf0442db99788dc3835d9be853ecf00" target="_top" xlink:title=" ">
<polygon fill="white" stroke="#666666" points="337,-93 170,-93 170,-74 337,-74 337,-93"/>
<text text-anchor="middle" x="253.5" y="-81" font-family="Helvetica,sans-Serif" font-size="10.00">netspeak::value::quadruple::e2</text>
</a>
</g>
</g>
<!-- Node1&#45;&gt;Node3 -->
<g id="edge2_Node000001_Node000003" class="edge">
<title>Node1&#45;&gt;Node3</title>
<g id="a_edge2_Node000001_Node000003"><a xlink:title=" ">
<path fill="none" stroke="#63b8ff" d="M134.09,-71.31C142.41,-72.16 151.04,-73.05 159.68,-73.94"/>
<polygon fill="#63b8ff" stroke="#63b8ff" points="159.51,-77.44 169.81,-74.98 160.22,-70.48 159.51,-77.44"/>
</a>
</g>
</g>
<!-- Node4 -->
<g id="Node000004" class="node">
<title>Node4</title>
<g id="a_Node000004"><a xlink:href="classnetspeak_1_1value_1_1quadruple.html#a19b8695d26a93073e7afca44c2f8790c" target="_top" xlink:title=" ">
<polygon fill="white" stroke="#666666" points="337,-56 170,-56 170,-37 337,-37 337,-56"/>
<text text-anchor="middle" x="253.5" y="-44" font-family="Helvetica,sans-Serif" font-size="10.00">netspeak::value::quadruple::e3</text>
</a>
</g>
</g>
<!-- Node1&#45;&gt;Node4 -->
<g id="edge3_Node000001_Node000004" class="edge">
<title>Node1&#45;&gt;Node4</title>
<g id="a_edge3_Node000001_Node000004"><a xlink:title=" ">
<path fill="none" stroke="#63b8ff" d="M134.09,-58.05C142.41,-57.24 151.04,-56.4 159.68,-55.56"/>
<polygon fill="#63b8ff" stroke="#63b8ff" points="160.2,-59.02 169.81,-54.57 159.52,-52.05 160.2,-59.02"/>
</a>
</g>
</g>
<!-- Node5 -->
<g id="Node000005" class="node">
<title>Node5</title>
<g id="a_Node000005"><a xlink:href="classnetspeak_1_1value_1_1quadruple.html#ad3063cff6a86e51c886a2c9316d043c3" target="_top" xlink:title=" ">
<polygon fill="white" stroke="#666666" points="337,-19 170,-19 170,0 337,0 337,-19"/>
<text text-anchor="middle" x="253.5" y="-7" font-family="Helvetica,sans-Serif" font-size="10.00">netspeak::value::quadruple::e4</text>
</a>
</g>
</g>
<!-- Node1&#45;&gt;Node5 -->
<g id="edge4_Node000001_Node000005" class="edge">
<title>Node1&#45;&gt;Node5</title>
<g id="a_edge4_Node000001_Node000005"><a xlink:title=" ">
<path fill="none" stroke="#63b8ff" d="M122.68,-43.92C137.89,-38.55 154.49,-33.01 170,-28.5 178.71,-25.97 188.01,-23.56 197.11,-21.35"/>
<polygon fill="#63b8ff" stroke="#63b8ff" points="197.95,-24.75 206.87,-19.04 196.34,-17.94 197.95,-24.75"/>
</a>
</g>
</g>
</g>
</svg>
