<?xml version="1.0" encoding="UTF-8" standalone="no"?>
<!DOCTYPE svg PUBLIC "-//W3C//DTD SVG 1.1//EN"
 "http://www.w3.org/Graphics/SVG/1.1/DTD/svg11.dtd">
<!-- Generated by graphviz version 2.43.0 (0)
 -->
<!-- Title: netspeak::value::value_traits&lt; quadruple&lt; T1, T2, T3, T4 &gt; &gt; Pages: 1 -->
<svg width="136pt" height="199pt"
 viewBox="0.00 0.00 136.00 199.00" xmlns="http://www.w3.org/2000/svg" xmlns:xlink="http://www.w3.org/1999/xlink">
<g id="graph0" class="graph" transform="scale(1 1) rotate(0) translate(4 195)">
<title>netspeak::value::value_traits&lt; quadruple&lt; T1, T2, T3, T4 &gt; &gt;</title>
<!-- Node1 -->
<g id="Node000001" class="node">
<title>Node1</title>
<g id="a_Node000001"><a xlink:title=" ">
<polygon fill="#999999" stroke="transparent" points="128,-191 0,-191 0,0 128,0 128,-191"/>
<text text-anchor="start" x="5" y="-178.5" font-family="Helvetica,sans-Serif" font-size="10.00">netspeak::value::value</text>
<text text-anchor="start" x="5" y="-167.5" font-family="Helvetica,sans-Serif" font-size="10.00">_traits&lt; quadruple&lt; T1,</text>
<text text-anchor="start" x="27" y="-156.5" font-family="Helvetica,sans-Serif" font-size="10.00"> T2, T3, T4 &gt; &gt;</text>
<text text-anchor="start" x="62" y="-141.5" font-family="Helvetica,sans-Serif" font-size="10.00"> </text>
<text text-anchor="start" x="14.5" y="-126.5" font-family="Helvetica,sans-Serif" font-size="10.00">+</text>
<text text-anchor="start" x="38" y="-126.5" font-family="Helvetica,sans-Serif" font-size="10.00">size_of()</text>
<text text-anchor="start" x="14.5" y="-111.5" font-family="Helvetica,sans-Serif" font-size="10.00">+</text>
<text text-anchor="start" x="38" y="-111.5" font-family="Helvetica,sans-Serif" font-size="10.00">copy_to()</text>
<text text-anchor="start" x="14.5" y="-96.5" font-family="Helvetica,sans-Serif" font-size="10.00">+</text>
<text text-anchor="start" x="38" y="-96.5" font-family="Helvetica,sans-Serif" font-size="10.00">copy_from()</text>
<text text-anchor="start" x="14.5" y="-81.5" font-family="Helvetica,sans-Serif" font-size="10.00">+</text>
<text text-anchor="start" x="38" y="-81.5" font-family="Helvetica,sans-Serif" font-size="10.00">write_to()</text>
<text text-anchor="start" x="14.5" y="-66.5" font-family="Helvetica,sans-Serif" font-size="10.00">+</text>
<text text-anchor="start" x="38" y="-66.5" font-family="Helvetica,sans-Serif" font-size="10.00">read_from()</text>
<text text-anchor="start" x="14.5" y="-51.5" font-family="Helvetica,sans-Serif" font-size="10.00">+</text>
<text text-anchor="start" x="38" y="-51.5" font-family="Helvetica,sans-Serif" font-size="10.00">print_to()</text>
<text text-anchor="start" x="14.5" y="-36.5" font-family="Helvetica,sans-Serif" font-size="10.00">+</text>
<text text-anchor="start" x="38" y="-36.5" font-family="Helvetica,sans-Serif" font-size="10.00">println_to()</text>
<text text-anchor="start" x="14.5" y="-21.5" font-family="Helvetica,sans-Serif" font-size="10.00">+</text>
<text text-anchor="start" x="38" y="-21.5" font-family="Helvetica,sans-Serif" font-size="10.00">parse_from()</text>
<text text-anchor="start" x="14.5" y="-6.5" font-family="Helvetica,sans-Serif" font-size="10.00">+</text>
<text text-anchor="start" x="38" y="-6.5" font-family="Helvetica,sans-Serif" font-size="10.00">type_name()</text>
<polygon fill="#666666" stroke="#666666" points="0,-151.5 0,-151.5 128,-151.5 128,-151.5 0,-151.5"/>
<polygon fill="#666666" stroke="#666666" points="0,-136.5 0,-136.5 128,-136.5 128,-136.5 0,-136.5"/>
<polygon fill="none" stroke="#666666" points="0,0 0,-191 128,-191 128,0 0,0"/>
</a>
</g>
</g>
</g>
</svg>
