<?xml version="1.0" encoding="UTF-8" standalone="no"?>
<!DOCTYPE svg PUBLIC "-//W3C//DTD SVG 1.1//EN"
 "http://www.w3.org/Graphics/SVG/1.1/DTD/svg11.dtd">
<!-- Generated by graphviz version 2.43.0 (0)
 -->
<!-- Title: netspeak::MinLengthMargin Pages: 1 -->
<svg width="154pt" height="102pt"
 viewBox="0.00 0.00 154.00 102.00" xmlns="http://www.w3.org/2000/svg" xmlns:xlink="http://www.w3.org/1999/xlink">
<g id="graph0" class="graph" transform="scale(1 1) rotate(0) translate(4 98)">
<title>netspeak::MinLengthMargin</title>
<!-- Node1 -->
<g id="Node000001" class="node">
<title>Node1</title>
<g id="a_Node000001"><a xlink:title="A min length margin represents the minimum length it takes to reach a unit and the minimum length it ...">
<polygon fill="#999999" stroke="transparent" points="146,-94 0,-94 0,0 146,0 146,-94"/>
<text text-anchor="start" x="5" y="-82" font-family="Helvetica,sans-Serif" font-size="10.00">netspeak::MinLengthMargin</text>
<text text-anchor="start" x="12" y="-67" font-family="Helvetica,sans-Serif" font-size="10.00">+</text>
<text text-anchor="start" x="33" y="-67" font-family="Helvetica,sans-Serif" font-size="10.00">before</text>
<text text-anchor="start" x="12" y="-52" font-family="Helvetica,sans-Serif" font-size="10.00">+</text>
<text text-anchor="start" x="33" y="-52" font-family="Helvetica,sans-Serif" font-size="10.00">after</text>
<text text-anchor="start" x="12" y="-37" font-family="Helvetica,sans-Serif" font-size="10.00">+</text>
<text text-anchor="start" x="33" y="-37" font-family="Helvetica,sans-Serif" font-size="10.00">total()</text>
<text text-anchor="start" x="12" y="-22" font-family="Helvetica,sans-Serif" font-size="10.00">+</text>
<text text-anchor="start" x="33" y="-22" font-family="Helvetica,sans-Serif" font-size="10.00">MinLengthMargin()</text>
<text text-anchor="start" x="12" y="-7" font-family="Helvetica,sans-Serif" font-size="10.00">+</text>
<text text-anchor="start" x="33" y="-7" font-family="Helvetica,sans-Serif" font-size="10.00">MinLengthMargin()</text>
<polygon fill="#666666" stroke="#666666" points="0,-77 0,-77 146,-77 146,-77 0,-77"/>
<polygon fill="#666666" stroke="#666666" points="0,-47 0,-47 31,-47 31,-47 0,-47"/>
<polygon fill="#666666" stroke="#666666" points="31,-47 31,-47 146,-47 146,-47 31,-47"/>
<polygon fill="none" stroke="#666666" points="0,0 0,-94 146,-94 146,0 0,0"/>
</a>
</g>
</g>
</g>
</svg>
