<?xml version="1.0" encoding="UTF-8" standalone="no"?>
<!DOCTYPE svg PUBLIC "-//W3C//DTD SVG 1.1//EN"
 "http://www.w3.org/Graphics/SVG/1.1/DTD/svg11.dtd">
<!-- Generated by graphviz version 2.43.0 (0)
 -->
<!-- Title: netspeak::NormQueryCounter::estimate_impl Pages: 1 -->
<svg width="857pt" height="56pt"
 viewBox="0.00 0.00 857.00 56.00" xmlns="http://www.w3.org/2000/svg" xmlns:xlink="http://www.w3.org/1999/xlink">
<g id="graph0" class="graph" transform="scale(1 1) rotate(0) translate(4 52)">
<title>netspeak::NormQueryCounter::estimate_impl</title>
<!-- Node1 -->
<g id="Node000001" class="node">
<title>Node1</title>
<g id="a_Node000001"><a xlink:title=" ">
<polygon fill="#999999" stroke="#666666" points="849,-30 687,-30 687,0 849,0 849,-30"/>
<text text-anchor="start" x="695" y="-18" font-family="Helvetica,sans-Serif" font-size="10.00">netspeak::NormQueryCounter</text>
<text text-anchor="middle" x="768" y="-7" font-family="Helvetica,sans-Serif" font-size="10.00">::estimate_impl</text>
</a>
</g>
</g>
<!-- Node1&#45;&gt;Node1 -->
<g id="edge5_Node000001_Node000001" class="edge">
<title>Node1&#45;&gt;Node1</title>
<g id="a_edge5_Node000001_Node000001"><a xlink:title=" ">
<path fill="none" stroke="#63b8ff" d="M802.66,-40.6C797.92,-44.97 786.37,-48 768,-48 737.06,-48 725.46,-39.41 733.2,-30.28"/>
<polygon fill="#63b8ff" stroke="#63b8ff" points="806.16,-40.32 802.8,-30.28 799.16,-40.22 806.16,-40.32"/>
</a>
</g>
</g>
<!-- Node2 -->
<g id="Node000002" class="node">
<title>Node2</title>
<g id="a_Node000002"><a xlink:href="structnetspeak_1_1NormQueryCounter.html#a853463fd07c510eeef9767164fbfd5bd" target="_top" xlink:title="Returns a function that, given the number of words each regex will be replaced with,...">
<polygon fill="white" stroke="#666666" points="651,-30 489,-30 489,0 651,0 651,-30"/>
<text text-anchor="start" x="497" y="-18" font-family="Helvetica,sans-Serif" font-size="10.00">netspeak::NormQueryCounter</text>
<text text-anchor="middle" x="570" y="-7" font-family="Helvetica,sans-Serif" font-size="10.00">::estimate</text>
</a>
</g>
</g>
<!-- Node1&#45;&gt;Node2 -->
<g id="edge1_Node000001_Node000002" class="edge">
<title>Node1&#45;&gt;Node2</title>
<g id="a_edge1_Node000001_Node000002"><a xlink:title=" ">
<path fill="none" stroke="#63b8ff" d="M676.92,-15C668.3,-15 659.59,-15 651.07,-15"/>
<polygon fill="#63b8ff" stroke="#63b8ff" points="677,-18.5 687,-15 677,-11.5 677,-18.5"/>
</a>
</g>
</g>
<!-- Node3 -->
<g id="Node000003" class="node">
<title>Node3</title>
<g id="a_Node000003"><a xlink:href="namespacenetspeak.html#abad07282259830ea1d26af81f1755844" target="_top" xlink:title=" ">
<polygon fill="white" stroke="#666666" points="453,-30 337,-30 337,0 453,0 453,-30"/>
<text text-anchor="start" x="345" y="-18" font-family="Helvetica,sans-Serif" font-size="10.00">netspeak::normalize</text>
<text text-anchor="middle" x="395" y="-7" font-family="Helvetica,sans-Serif" font-size="10.00">_regexes</text>
</a>
</g>
</g>
<!-- Node2&#45;&gt;Node3 -->
<g id="edge2_Node000002_Node000003" class="edge">
<title>Node2&#45;&gt;Node3</title>
<g id="a_edge2_Node000002_Node000003"><a xlink:title=" ">
<path fill="none" stroke="#63b8ff" d="M478.67,-15C470.02,-15 461.42,-15 453.21,-15"/>
<polygon fill="#63b8ff" stroke="#63b8ff" points="478.83,-18.5 488.83,-15 478.83,-11.5 478.83,-18.5"/>
</a>
</g>
</g>
<!-- Node4 -->
<g id="Node000004" class="node">
<title>Node4</title>
<g id="a_Node000004"><a xlink:href="classnetspeak_1_1QueryNormalizer.html#a70187ab668d98c93cfc3a8d05ca1508e" target="_top" xlink:title=" ">
<polygon fill="white" stroke="#666666" points="301,-30 150,-30 150,0 301,0 301,-30"/>
<text text-anchor="start" x="158" y="-18" font-family="Helvetica,sans-Serif" font-size="10.00">netspeak::QueryNormalizer</text>
<text text-anchor="middle" x="225.5" y="-7" font-family="Helvetica,sans-Serif" font-size="10.00">::normalize</text>
</a>
</g>
</g>
<!-- Node3&#45;&gt;Node4 -->
<g id="edge3_Node000003_Node000004" class="edge">
<title>Node3&#45;&gt;Node4</title>
<g id="a_edge3_Node000003_Node000004"><a xlink:title=" ">
<path fill="none" stroke="#63b8ff" d="M326.72,-15C318.32,-15 309.69,-15 301.19,-15"/>
<polygon fill="#63b8ff" stroke="#63b8ff" points="326.82,-18.5 336.82,-15 326.82,-11.5 326.82,-18.5"/>
</a>
</g>
</g>
<!-- Node5 -->
<g id="Node000005" class="node">
<title>Node5</title>
<g id="a_Node000005"><a xlink:href="classnetspeak_1_1Netspeak.html#aaa049275c7a0a7f6721acf7422402bff" target="_top" xlink:title=" ">
<polygon fill="white" stroke="#666666" points="114,-30 0,-30 0,0 114,0 114,-30"/>
<text text-anchor="start" x="8" y="-18" font-family="Helvetica,sans-Serif" font-size="10.00">netspeak::Netspeak</text>
<text text-anchor="middle" x="57" y="-7" font-family="Helvetica,sans-Serif" font-size="10.00">::search_raw_</text>
</a>
</g>
</g>
<!-- Node4&#45;&gt;Node5 -->
<g id="edge4_Node000004_Node000005" class="edge">
<title>Node4&#45;&gt;Node5</title>
<g id="a_edge4_Node000004_Node000005"><a xlink:title=" ">
<path fill="none" stroke="#63b8ff" d="M139.45,-15C130.85,-15 122.28,-15 114.1,-15"/>
<polygon fill="#63b8ff" stroke="#63b8ff" points="139.53,-18.5 149.53,-15 139.53,-11.5 139.53,-18.5"/>
</a>
</g>
</g>
</g>
</svg>
