<?xml version="1.0" encoding="UTF-8" standalone="no"?>
<!DOCTYPE svg PUBLIC "-//W3C//DTD SVG 1.1//EN"
 "http://www.w3.org/Graphics/SVG/1.1/DTD/svg11.dtd">
<!-- Generated by graphviz version 2.43.0 (0)
 -->
<!-- Title: netspeak::invertedindex::iterator_type Pages: 1 -->
<svg width="409pt" height="687pt"
 viewBox="0.00 0.00 408.50 687.00" xmlns="http://www.w3.org/2000/svg" xmlns:xlink="http://www.w3.org/1999/xlink">
<g id="graph0" class="graph" transform="scale(1 1) rotate(0) translate(4 683)">
<title>netspeak::invertedindex::iterator_type</title>
<!-- Node1 -->
<g id="Node000001" class="node">
<title>Node1</title>
<g id="a_Node000001"><a xlink:title=" ">
<polygon fill="#999999" stroke="transparent" points="253.5,-195 124.5,-195 124.5,0 253.5,0 253.5,-195"/>
<text text-anchor="start" x="130" y="-182.5" font-family="Helvetica,sans-Serif" font-size="10.00">netspeak::invertedindex</text>
<text text-anchor="start" x="154.5" y="-171.5" font-family="Helvetica,sans-Serif" font-size="10.00">::iterator_type</text>
<text text-anchor="start" x="187.5" y="-156.5" font-family="Helvetica,sans-Serif" font-size="10.00"> </text>
<text text-anchor="start" x="136" y="-141.5" font-family="Helvetica,sans-Serif" font-size="10.00">+</text>
<text text-anchor="start" x="156" y="-141.5" font-family="Helvetica,sans-Serif" font-size="10.00">iterator_type()</text>
<text text-anchor="start" x="136" y="-126.5" font-family="Helvetica,sans-Serif" font-size="10.00">+</text>
<text text-anchor="start" x="156" y="-126.5" font-family="Helvetica,sans-Serif" font-size="10.00">iterator_type()</text>
<text text-anchor="start" x="136" y="-111.5" font-family="Helvetica,sans-Serif" font-size="10.00">+</text>
<text text-anchor="start" x="156" y="-111.5" font-family="Helvetica,sans-Serif" font-size="10.00">iterator_type()</text>
<text text-anchor="start" x="136" y="-96.5" font-family="Helvetica,sans-Serif" font-size="10.00">+</text>
<text text-anchor="start" x="156" y="-96.5" font-family="Helvetica,sans-Serif" font-size="10.00">~iterator_type()</text>
<text text-anchor="start" x="136" y="-81.5" font-family="Helvetica,sans-Serif" font-size="10.00">+</text>
<text text-anchor="start" x="156" y="-81.5" font-family="Helvetica,sans-Serif" font-size="10.00">print()</text>
<text text-anchor="start" x="136" y="-66.5" font-family="Helvetica,sans-Serif" font-size="10.00">+</text>
<text text-anchor="start" x="156" y="-66.5" font-family="Helvetica,sans-Serif" font-size="10.00">byte_size()</text>
<text text-anchor="start" x="136" y="-51.5" font-family="Helvetica,sans-Serif" font-size="10.00">+</text>
<text text-anchor="start" x="156" y="-51.5" font-family="Helvetica,sans-Serif" font-size="10.00">next()</text>
<text text-anchor="start" x="136" y="-36.5" font-family="Helvetica,sans-Serif" font-size="10.00">+</text>
<text text-anchor="start" x="156" y="-36.5" font-family="Helvetica,sans-Serif" font-size="10.00">rewind()</text>
<text text-anchor="start" x="136" y="-21.5" font-family="Helvetica,sans-Serif" font-size="10.00">+</text>
<text text-anchor="start" x="156" y="-21.5" font-family="Helvetica,sans-Serif" font-size="10.00">size()</text>
<text text-anchor="start" x="136" y="-6.5" font-family="Helvetica,sans-Serif" font-size="10.00">+</text>
<text text-anchor="start" x="156" y="-6.5" font-family="Helvetica,sans-Serif" font-size="10.00">write()</text>
<polygon fill="#666666" stroke="#666666" points="125,-166.5 125,-166.5 254,-166.5 254,-166.5 125,-166.5"/>
<polygon fill="#666666" stroke="#666666" points="125,-151.5 125,-151.5 254,-151.5 254,-151.5 125,-151.5"/>
<polygon fill="none" stroke="#666666" points="124.5,0 124.5,-195 253.5,-195 253.5,0 124.5,0"/>
</a>
</g>
</g>
<!-- Node2 -->
<g id="Node000002" class="node">
<title>Node2</title>
<g id="a_Node000002"><a xlink:title=" ">
<polygon fill="white" stroke="transparent" points="106,-341.5 0,-341.5 0,-292.5 106,-292.5 106,-341.5"/>
<text text-anchor="start" x="5" y="-329" font-family="Helvetica,sans-Serif" font-size="10.00">boost::noncopyable</text>
<text text-anchor="start" x="51" y="-314" font-family="Helvetica,sans-Serif" font-size="10.00"> </text>
<text text-anchor="start" x="51" y="-299" font-family="Helvetica,sans-Serif" font-size="10.00"> </text>
<polygon fill="#666666" stroke="#666666" points="0,-324 0,-324 106,-324 106,-324 0,-324"/>
<polygon fill="#666666" stroke="#666666" points="0,-309 0,-309 106,-309 106,-309 0,-309"/>
<polygon fill="none" stroke="#666666" points="0,-292.5 0,-341.5 106,-341.5 106,-292.5 0,-292.5"/>
</a>
</g>
</g>
<!-- Node2&#45;&gt;Node1 -->
<g id="edge1_Node000001_Node000002" class="edge">
<title>Node2&#45;&gt;Node1</title>
<g id="a_edge1_Node000001_Node000002"><a xlink:title=" ">
<path fill="none" stroke="#63b8ff" d="M73.15,-283.78C87.88,-260.22 108.68,-226.95 128.6,-195.09"/>
<polygon fill="none" stroke="#63b8ff" points="70.15,-281.98 67.81,-292.31 76.08,-285.69 70.15,-281.98"/>
</a>
</g>
</g>
<!-- Node3 -->
<g id="Node000003" class="node">
<title>Node3</title>
<g id="a_Node000003"><a xlink:href="structnetspeak_1_1invertedindex_1_1page__type.html" target="_top" xlink:title=" ">
<polygon fill="white" stroke="transparent" points="253.5,-377 124.5,-377 124.5,-257 253.5,-257 253.5,-377"/>
<text text-anchor="start" x="130" y="-365" font-family="Helvetica,sans-Serif" font-size="10.00">netspeak::invertedindex</text>
<text text-anchor="start" x="160.5" y="-354" font-family="Helvetica,sans-Serif" font-size="10.00">::page_type</text>
<text text-anchor="start" x="139.5" y="-339" font-family="Helvetica,sans-Serif" font-size="10.00">+</text>
<text text-anchor="start" x="163" y="-339" font-family="Helvetica,sans-Serif" font-size="10.00">index_begin_</text>
<text text-anchor="start" x="139.5" y="-324" font-family="Helvetica,sans-Serif" font-size="10.00">+</text>
<text text-anchor="start" x="163" y="-324" font-family="Helvetica,sans-Serif" font-size="10.00">index_end_</text>
<text text-anchor="start" x="139.5" y="-309" font-family="Helvetica,sans-Serif" font-size="10.00">+</text>
<text text-anchor="start" x="163" y="-309" font-family="Helvetica,sans-Serif" font-size="10.00">index_cur_</text>
<text text-anchor="start" x="139.5" y="-294" font-family="Helvetica,sans-Serif" font-size="10.00">+</text>
<text text-anchor="start" x="163" y="-294" font-family="Helvetica,sans-Serif" font-size="10.00">page_type()</text>
<text text-anchor="start" x="139.5" y="-279" font-family="Helvetica,sans-Serif" font-size="10.00">+</text>
<text text-anchor="start" x="163" y="-279" font-family="Helvetica,sans-Serif" font-size="10.00">page_type()</text>
<text text-anchor="start" x="139.5" y="-264" font-family="Helvetica,sans-Serif" font-size="10.00">+</text>
<text text-anchor="start" x="163" y="-264" font-family="Helvetica,sans-Serif" font-size="10.00">print()</text>
<polygon fill="#666666" stroke="#666666" points="125,-349 125,-349 254,-349 254,-349 125,-349"/>
<polygon fill="#666666" stroke="#666666" points="125,-304 125,-304 161,-304 161,-304 125,-304"/>
<polygon fill="#666666" stroke="#666666" points="161,-304 161,-304 254,-304 254,-304 161,-304"/>
<polygon fill="none" stroke="#666666" points="124.5,-257 124.5,-377 253.5,-377 253.5,-257 124.5,-257"/>
</a>
</g>
</g>
<!-- Node3&#45;&gt;Node1 -->
<g id="edge2_Node000001_Node000003" class="edge">
<title>Node3&#45;&gt;Node1</title>
<g id="a_edge2_Node000001_Node000003"><a xlink:title=" ">
<path fill="none" stroke="#63b8ff" d="M189,-256.85C189,-241.57 189,-224.62 189,-207.66"/>
<polygon fill="none" stroke="#63b8ff" points="189,-207.33 185,-201.33 189,-195.33 193,-201.33 189,-207.33"/>
</a>
</g>
<text text-anchor="middle" x="209.5" y="-216" font-family="Helvetica,sans-Serif" font-size="10.00" fill="grey"> #page_</text>
</g>
<!-- Node4 -->
<g id="Node000004" class="node">
<title>Node4</title>
<g id="a_Node000004"><a xlink:href="classnetspeak_1_1invertedindex_1_1ByteBuffer.html" target="_top" xlink:title=" ">
<polygon fill="white" stroke="transparent" points="253.5,-679 124.5,-679 124.5,-439 253.5,-439 253.5,-679"/>
<text text-anchor="start" x="130" y="-667" font-family="Helvetica,sans-Serif" font-size="10.00">netspeak::invertedindex</text>
<text text-anchor="start" x="160.5" y="-656" font-family="Helvetica,sans-Serif" font-size="10.00">::ByteBuffer</text>
<text text-anchor="start" x="137" y="-641" font-family="Helvetica,sans-Serif" font-size="10.00">&#45;</text>
<text text-anchor="start" x="153" y="-641" font-family="Helvetica,sans-Serif" font-size="10.00">buffer_</text>
<text text-anchor="start" x="137" y="-626" font-family="Helvetica,sans-Serif" font-size="10.00">&#45;</text>
<text text-anchor="start" x="153" y="-626" font-family="Helvetica,sans-Serif" font-size="10.00">bufpos_</text>
<text text-anchor="start" x="134.5" y="-611" font-family="Helvetica,sans-Serif" font-size="10.00">+</text>
<text text-anchor="start" x="153" y="-611" font-family="Helvetica,sans-Serif" font-size="10.00">ByteBuffer()</text>
<text text-anchor="start" x="134.5" y="-596" font-family="Helvetica,sans-Serif" font-size="10.00">+</text>
<text text-anchor="start" x="153" y="-596" font-family="Helvetica,sans-Serif" font-size="10.00">ByteBuffer()</text>
<text text-anchor="start" x="134.5" y="-581" font-family="Helvetica,sans-Serif" font-size="10.00">+</text>
<text text-anchor="start" x="153" y="-581" font-family="Helvetica,sans-Serif" font-size="10.00">~ByteBuffer()</text>
<text text-anchor="start" x="134.5" y="-566" font-family="Helvetica,sans-Serif" font-size="10.00">+</text>
<text text-anchor="start" x="153" y="-566" font-family="Helvetica,sans-Serif" font-size="10.00">begin()</text>
<text text-anchor="start" x="134.5" y="-551" font-family="Helvetica,sans-Serif" font-size="10.00">+</text>
<text text-anchor="start" x="153" y="-551" font-family="Helvetica,sans-Serif" font-size="10.00">begin()</text>
<text text-anchor="start" x="134.5" y="-536" font-family="Helvetica,sans-Serif" font-size="10.00">+</text>
<text text-anchor="start" x="153" y="-536" font-family="Helvetica,sans-Serif" font-size="10.00">end()</text>
<text text-anchor="start" x="134.5" y="-521" font-family="Helvetica,sans-Serif" font-size="10.00">+</text>
<text text-anchor="start" x="153" y="-521" font-family="Helvetica,sans-Serif" font-size="10.00">end()</text>
<text text-anchor="start" x="134.5" y="-506" font-family="Helvetica,sans-Serif" font-size="10.00">+</text>
<text text-anchor="start" x="153" y="-506" font-family="Helvetica,sans-Serif" font-size="10.00">clear()</text>
<text text-anchor="start" x="134.5" y="-491" font-family="Helvetica,sans-Serif" font-size="10.00">+</text>
<text text-anchor="start" x="153" y="-491" font-family="Helvetica,sans-Serif" font-size="10.00">clone()</text>
<text text-anchor="start" x="134.5" y="-476" font-family="Helvetica,sans-Serif" font-size="10.00">+</text>
<text text-anchor="start" x="153" y="-476" font-family="Helvetica,sans-Serif" font-size="10.00">operator=()</text>
<text text-anchor="start" x="153" y="-461" font-family="Helvetica,sans-Serif" font-size="10.00">and 10 more...</text>
<text text-anchor="start" x="137" y="-446" font-family="Helvetica,sans-Serif" font-size="10.00">&#45;</text>
<text text-anchor="start" x="153" y="-446" font-family="Helvetica,sans-Serif" font-size="10.00">bytes_available()</text>
<polygon fill="#666666" stroke="#666666" points="125,-651 125,-651 254,-651 254,-651 125,-651"/>
<polygon fill="#666666" stroke="#666666" points="125,-621 125,-621 151,-621 151,-621 125,-621"/>
<polygon fill="#666666" stroke="#666666" points="151,-621 151,-621 254,-621 254,-621 151,-621"/>
<polygon fill="none" stroke="#666666" points="124.5,-439 124.5,-679 253.5,-679 253.5,-439 124.5,-439"/>
</a>
</g>
</g>
<!-- Node4&#45;&gt;Node3 -->
<g id="edge3_Node000003_Node000004" class="edge">
<title>Node4&#45;&gt;Node3</title>
<g id="a_edge3_Node000003_Node000004"><a xlink:title=" ">
<path fill="none" stroke="#63b8ff" d="M189,-438.7C189,-421.81 189,-404.9 189,-389.3"/>
<polygon fill="none" stroke="#63b8ff" points="189,-389.11 185,-383.11 189,-377.11 193,-383.11 189,-389.11"/>
</a>
</g>
<text text-anchor="middle" x="212" y="-413" font-family="Helvetica,sans-Serif" font-size="10.00" fill="grey"> +buffer_</text>
</g>
<!-- Node5 -->
<g id="Node000005" class="node">
<title>Node5</title>
<g id="a_Node000005"><a xlink:href="structnetspeak_1_1invertedindex_1_1swap__type.html" target="_top" xlink:title=" ">
<polygon fill="white" stroke="transparent" points="400.5,-392 271.5,-392 271.5,-242 400.5,-242 400.5,-392"/>
<text text-anchor="start" x="277" y="-380" font-family="Helvetica,sans-Serif" font-size="10.00">netspeak::invertedindex</text>
<text text-anchor="start" x="307" y="-369" font-family="Helvetica,sans-Serif" font-size="10.00">::swap_type</text>
<text text-anchor="start" x="282" y="-354" font-family="Helvetica,sans-Serif" font-size="10.00">+</text>
<text text-anchor="start" x="301" y="-354" font-family="Helvetica,sans-Serif" font-size="10.00">pagesize_</text>
<text text-anchor="start" x="282" y="-339" font-family="Helvetica,sans-Serif" font-size="10.00">+</text>
<text text-anchor="start" x="301" y="-339" font-family="Helvetica,sans-Serif" font-size="10.00">offset_</text>
<text text-anchor="start" x="282" y="-324" font-family="Helvetica,sans-Serif" font-size="10.00">+</text>
<text text-anchor="start" x="301" y="-324" font-family="Helvetica,sans-Serif" font-size="10.00">stream_</text>
<text text-anchor="start" x="282" y="-309" font-family="Helvetica,sans-Serif" font-size="10.00">+</text>
<text text-anchor="start" x="301" y="-309" font-family="Helvetica,sans-Serif" font-size="10.00">default_pagesize</text>
<text text-anchor="start" x="282" y="-294" font-family="Helvetica,sans-Serif" font-size="10.00">+</text>
<text text-anchor="start" x="301" y="-294" font-family="Helvetica,sans-Serif" font-size="10.00">swap_type()</text>
<text text-anchor="start" x="282" y="-279" font-family="Helvetica,sans-Serif" font-size="10.00">+</text>
<text text-anchor="start" x="301" y="-279" font-family="Helvetica,sans-Serif" font-size="10.00">swap_type()</text>
<text text-anchor="start" x="282" y="-264" font-family="Helvetica,sans-Serif" font-size="10.00">+</text>
<text text-anchor="start" x="301" y="-264" font-family="Helvetica,sans-Serif" font-size="10.00">swap_type()</text>
<text text-anchor="start" x="282" y="-249" font-family="Helvetica,sans-Serif" font-size="10.00">+</text>
<text text-anchor="start" x="301" y="-249" font-family="Helvetica,sans-Serif" font-size="10.00">print()</text>
<polygon fill="#666666" stroke="#666666" points="272,-364 272,-364 401,-364 401,-364 272,-364"/>
<polygon fill="#666666" stroke="#666666" points="272,-304 272,-304 299,-304 299,-304 272,-304"/>
<polygon fill="#666666" stroke="#666666" points="299,-304 299,-304 401,-304 401,-304 299,-304"/>
<polygon fill="none" stroke="#666666" points="271.5,-242 271.5,-392 400.5,-392 400.5,-242 271.5,-242"/>
</a>
</g>
</g>
<!-- Node5&#45;&gt;Node1 -->
<g id="edge4_Node000001_Node000005" class="edge">
<title>Node5&#45;&gt;Node1</title>
<g id="a_edge4_Node000001_Node000005"><a xlink:title=" ">
<path fill="none" stroke="#63b8ff" d="M285.82,-241.76C277.62,-229.62 268.98,-216.84 260.38,-204.12"/>
<polygon fill="none" stroke="#63b8ff" points="260.23,-203.89 253.55,-201.16 253.51,-193.94 260.18,-196.68 260.23,-203.89"/>
</a>
</g>
<text text-anchor="middle" x="292.5" y="-216" font-family="Helvetica,sans-Serif" font-size="10.00" fill="grey"> #swap_</text>
</g>
</g>
</svg>
