<?xml version="1.0" encoding="UTF-8" standalone="no"?>
<!DOCTYPE svg PUBLIC "-//W3C//DTD SVG 1.1//EN"
 "http://www.w3.org/Graphics/SVG/1.1/DTD/svg11.dtd">
<!-- Generated by graphviz version 2.43.0 (0)
 -->
<!-- Title: netspeak::util::format_properties_error Pages: 1 -->
<svg width="157pt" height="290pt"
 viewBox="0.00 0.00 157.00 290.00" xmlns="http://www.w3.org/2000/svg" xmlns:xlink="http://www.w3.org/1999/xlink">
<g id="graph0" class="graph" transform="scale(1 1) rotate(0) translate(4 286)">
<title>netspeak::util::format_properties_error</title>
<!-- Node1 -->
<g id="Node000001" class="node">
<title>Node1</title>
<g id="a_Node000001"><a xlink:title=" ">
<polygon fill="#999999" stroke="transparent" points="147,-86 2,-86 2,0 147,0 147,-86"/>
<text text-anchor="start" x="22" y="-74" font-family="Helvetica,sans-Serif" font-size="10.00">netspeak::util::format</text>
<text text-anchor="start" x="33" y="-63" font-family="Helvetica,sans-Serif" font-size="10.00">_properties_error</text>
<text text-anchor="start" x="73" y="-48" font-family="Helvetica,sans-Serif" font-size="10.00"> </text>
<text text-anchor="start" x="6.5" y="-33" font-family="Helvetica,sans-Serif" font-size="10.00">+</text>
<text text-anchor="start" x="19.5" y="-33" font-family="Helvetica,sans-Serif" font-size="10.00">format_properties_error()</text>
<text text-anchor="start" x="6.5" y="-18" font-family="Helvetica,sans-Serif" font-size="10.00">+</text>
<text text-anchor="start" x="19.5" y="-18" font-family="Helvetica,sans-Serif" font-size="10.00">~format_properties</text>
<text text-anchor="start" x="19.5" y="-7" font-family="Helvetica,sans-Serif" font-size="10.00">_error()</text>
<polygon fill="#666666" stroke="#666666" points="2.5,-58 2.5,-58 147.5,-58 147.5,-58 2.5,-58"/>
<polygon fill="#666666" stroke="#666666" points="2.5,-43 2.5,-43 147.5,-43 147.5,-43 2.5,-43"/>
<polygon fill="none" stroke="#666666" points="2,0 2,-86 147,-86 147,0 2,0"/>
</a>
</g>
</g>
<!-- Node2 -->
<g id="Node000002" class="node">
<title>Node2</title>
<g id="a_Node000002"><a xlink:href="structnetspeak_1_1util_1_1tracable__runtime__error.html" target="_top" xlink:title=" ">
<polygon fill="white" stroke="transparent" points="149,-197 0,-197 0,-122 149,-122 149,-197"/>
<text text-anchor="start" x="18.5" y="-184.5" font-family="Helvetica,sans-Serif" font-size="10.00">netspeak::util::tracable</text>
<text text-anchor="start" x="38.5" y="-173.5" font-family="Helvetica,sans-Serif" font-size="10.00">_runtime_error</text>
<text text-anchor="start" x="73" y="-158.5" font-family="Helvetica,sans-Serif" font-size="10.00"> </text>
<text text-anchor="start" x="4.5" y="-143.5" font-family="Helvetica,sans-Serif" font-size="10.00">+</text>
<text text-anchor="start" x="17.5" y="-143.5" font-family="Helvetica,sans-Serif" font-size="10.00">tracable_runtime_error()</text>
<text text-anchor="start" x="4.5" y="-128.5" font-family="Helvetica,sans-Serif" font-size="10.00">+</text>
<text text-anchor="start" x="17.5" y="-128.5" font-family="Helvetica,sans-Serif" font-size="10.00">~tracable_runtime_error()</text>
<polygon fill="#666666" stroke="#666666" points="0.5,-168.5 0.5,-168.5 149.5,-168.5 149.5,-168.5 0.5,-168.5"/>
<polygon fill="#666666" stroke="#666666" points="0.5,-153.5 0.5,-153.5 149.5,-153.5 149.5,-153.5 0.5,-153.5"/>
<polygon fill="none" stroke="#666666" points="0,-122 0,-197 149,-197 149,-122 0,-122"/>
</a>
</g>
</g>
<!-- Node2&#45;&gt;Node1 -->
<g id="edge1_Node000001_Node000002" class="edge">
<title>Node2&#45;&gt;Node1</title>
<g id="a_edge1_Node000001_Node000002"><a xlink:title=" ">
<path fill="none" stroke="#63b8ff" d="M74.5,-111.82C74.5,-103.33 74.5,-94.52 74.5,-86.18"/>
<polygon fill="none" stroke="#63b8ff" points="71,-111.96 74.5,-121.96 78,-111.96 71,-111.96"/>
</a>
</g>
</g>
<!-- Node3 -->
<g id="Node000003" class="node">
<title>Node3</title>
<g id="a_Node000003"><a xlink:title=" ">
<polygon fill="white" stroke="transparent" points="123.5,-282 25.5,-282 25.5,-233 123.5,-233 123.5,-282"/>
<text text-anchor="start" x="30.5" y="-269.5" font-family="Helvetica,sans-Serif" font-size="10.00">std::runtime_error</text>
<text text-anchor="start" x="72.5" y="-254.5" font-family="Helvetica,sans-Serif" font-size="10.00"> </text>
<text text-anchor="start" x="72.5" y="-239.5" font-family="Helvetica,sans-Serif" font-size="10.00"> </text>
<polygon fill="#666666" stroke="#666666" points="25.5,-264.5 25.5,-264.5 123.5,-264.5 123.5,-264.5 25.5,-264.5"/>
<polygon fill="#666666" stroke="#666666" points="25.5,-249.5 25.5,-249.5 123.5,-249.5 123.5,-249.5 25.5,-249.5"/>
<polygon fill="none" stroke="#666666" points="25.5,-233 25.5,-282 123.5,-282 123.5,-233 25.5,-233"/>
</a>
</g>
</g>
<!-- Node3&#45;&gt;Node2 -->
<g id="edge2_Node000002_Node000003" class="edge">
<title>Node3&#45;&gt;Node2</title>
<g id="a_edge2_Node000002_Node000003"><a xlink:title=" ">
<path fill="none" stroke="#63b8ff" d="M74.5,-222.68C74.5,-214.38 74.5,-205.46 74.5,-197.04"/>
<polygon fill="none" stroke="#63b8ff" points="71,-222.77 74.5,-232.77 78,-222.77 71,-222.77"/>
</a>
</g>
</g>
</g>
</svg>
