<?xml version="1.0" encoding="UTF-8" standalone="no"?>
<!DOCTYPE svg PUBLIC "-//W3C//DTD SVG 1.1//EN"
 "http://www.w3.org/Graphics/SVG/1.1/DTD/svg11.dtd">
<!-- Generated by graphviz version 2.43.0 (0)
 -->
<!-- Title: netspeak::value::value_traits::copy_to Pages: 1 -->
<svg width="1021pt" height="197pt"
 viewBox="0.00 0.00 1021.00 197.00" xmlns="http://www.w3.org/2000/svg" xmlns:xlink="http://www.w3.org/1999/xlink">
<g id="graph0" class="graph" transform="scale(1 1) rotate(0) translate(4 193)">
<title>netspeak::value::value_traits::copy_to</title>
<!-- Node1 -->
<g id="Node000001" class="node">
<title>Node1</title>
<g id="a_Node000001"><a xlink:title=" ">
<polygon fill="#999999" stroke="#666666" points="1013,-94.5 885,-94.5 885,-64.5 1013,-64.5 1013,-94.5"/>
<text text-anchor="start" x="893" y="-82.5" font-family="Helvetica,sans-Serif" font-size="10.00">netspeak::value::value</text>
<text text-anchor="middle" x="949" y="-71.5" font-family="Helvetica,sans-Serif" font-size="10.00">_traits::copy_to</text>
</a>
</g>
</g>
<!-- Node2 -->
<g id="Node000002" class="node">
<title>Node2</title>
<g id="a_Node000002"><a xlink:href="classnetspeak_1_1bighashmap_1_1Builder.html#a333ad1bb51cee1f0177b6b631148a423" target="_top" xlink:title=" ">
<polygon fill="white" stroke="#666666" points="849,-148.5 711,-148.5 711,-118.5 849,-118.5 849,-148.5"/>
<text text-anchor="start" x="719" y="-136.5" font-family="Helvetica,sans-Serif" font-size="10.00">netspeak::bighashmap</text>
<text text-anchor="middle" x="780" y="-125.5" font-family="Helvetica,sans-Serif" font-size="10.00">::Builder::BuildHashTable</text>
</a>
</g>
</g>
<!-- Node1&#45;&gt;Node2 -->
<g id="edge1_Node000001_Node000002" class="edge">
<title>Node1&#45;&gt;Node2</title>
<g id="a_edge1_Node000001_Node000002"><a xlink:title=" ">
<path fill="none" stroke="#63b8ff" d="M891.78,-97.68C870.91,-104.43 847.48,-112 827.56,-118.45"/>
<polygon fill="#63b8ff" stroke="#63b8ff" points="893.04,-100.95 901.48,-94.54 890.89,-94.29 893.04,-100.95"/>
</a>
</g>
</g>
<!-- Node11 -->
<g id="Node000011" class="node">
<title>Node11</title>
<g id="a_Node000011"><a xlink:href="structnetspeak_1_1value_1_1value__traits_3_01big__string_01_4.html#a9bde9b0a40dc0305511603da9eed3ac7" target="_top" xlink:title=" ">
<polygon fill="white" stroke="#666666" points="844,-100 716,-100 716,-59 844,-59 844,-100"/>
<text text-anchor="start" x="724" y="-88" font-family="Helvetica,sans-Serif" font-size="10.00">netspeak::value::value</text>
<text text-anchor="start" x="724" y="-77" font-family="Helvetica,sans-Serif" font-size="10.00">_traits&lt; big_string &gt;</text>
<text text-anchor="middle" x="780" y="-66" font-family="Helvetica,sans-Serif" font-size="10.00">::copy_to</text>
</a>
</g>
</g>
<!-- Node1&#45;&gt;Node11 -->
<g id="edge10_Node000001_Node000011" class="edge">
<title>Node1&#45;&gt;Node11</title>
<g id="a_edge10_Node000001_Node000011"><a xlink:title=" ">
<path fill="none" stroke="#63b8ff" d="M874.77,-79.5C864.59,-79.5 854.2,-79.5 844.22,-79.5"/>
<polygon fill="#63b8ff" stroke="#63b8ff" points="874.86,-83 884.86,-79.5 874.86,-76 874.86,-83"/>
</a>
</g>
</g>
<!-- Node12 -->
<g id="Node000012" class="node">
<title>Node12</title>
<g id="a_Node000012"><a xlink:href="structnetspeak_1_1value_1_1value__traits_3_01std_1_1string_01_4.html#a329c50a8c14e7f07078dc39d3ec3a628" target="_top" xlink:title=" ">
<polygon fill="white" stroke="#666666" points="844,-41 716,-41 716,0 844,0 844,-41"/>
<text text-anchor="start" x="724" y="-29" font-family="Helvetica,sans-Serif" font-size="10.00">netspeak::value::value</text>
<text text-anchor="start" x="724" y="-18" font-family="Helvetica,sans-Serif" font-size="10.00">_traits&lt; std::string &gt;</text>
<text text-anchor="middle" x="780" y="-7" font-family="Helvetica,sans-Serif" font-size="10.00">::copy_to</text>
</a>
</g>
</g>
<!-- Node1&#45;&gt;Node12 -->
<g id="edge11_Node000001_Node000012" class="edge">
<title>Node1&#45;&gt;Node12</title>
<g id="a_edge11_Node000001_Node000012"><a xlink:title=" ">
<path fill="none" stroke="#63b8ff" d="M895.72,-61.03C877.79,-54.7 857.62,-47.57 839.25,-41.08"/>
<polygon fill="#63b8ff" stroke="#63b8ff" points="894.83,-64.43 905.43,-64.46 897.16,-57.83 894.83,-64.43"/>
</a>
</g>
</g>
<!-- Node3 -->
<g id="Node000003" class="node">
<title>Node3</title>
<g id="a_Node000003"><a xlink:href="classnetspeak_1_1bighashmap_1_1Builder.html#a8435164185bac78bacf97c66e78b9a27" target="_top" xlink:title=" ">
<polygon fill="white" stroke="#666666" points="675,-148.5 547,-148.5 547,-118.5 675,-118.5 675,-148.5"/>
<text text-anchor="start" x="555" y="-136.5" font-family="Helvetica,sans-Serif" font-size="10.00">netspeak::bighashmap</text>
<text text-anchor="middle" x="611" y="-125.5" font-family="Helvetica,sans-Serif" font-size="10.00">::Builder::BuildMap</text>
</a>
</g>
</g>
<!-- Node2&#45;&gt;Node3 -->
<g id="edge2_Node000002_Node000003" class="edge">
<title>Node2&#45;&gt;Node3</title>
<g id="a_edge2_Node000002_Node000003"><a xlink:title=" ">
<path fill="none" stroke="#63b8ff" d="M700.36,-133.5C691.92,-133.5 683.42,-133.5 675.2,-133.5"/>
<polygon fill="#63b8ff" stroke="#63b8ff" points="700.59,-137 710.59,-133.5 700.59,-130 700.59,-137"/>
</a>
</g>
</g>
<!-- Node4 -->
<g id="Node000004" class="node">
<title>Node4</title>
<g id="a_Node000004"><a xlink:href="classnetspeak_1_1bighashmap_1_1Builder.html#a66906e74a9afa4707cfb7c999c0c635a" target="_top" xlink:title=" ">
<polygon fill="white" stroke="#666666" points="511,-148.5 383,-148.5 383,-118.5 511,-118.5 511,-148.5"/>
<text text-anchor="start" x="391" y="-136.5" font-family="Helvetica,sans-Serif" font-size="10.00">netspeak::bighashmap</text>
<text text-anchor="middle" x="447" y="-125.5" font-family="Helvetica,sans-Serif" font-size="10.00">::Builder::Build</text>
</a>
</g>
</g>
<!-- Node3&#45;&gt;Node4 -->
<g id="edge3_Node000003_Node000004" class="edge">
<title>Node3&#45;&gt;Node4</title>
<g id="a_edge3_Node000003_Node000004"><a xlink:title=" ">
<path fill="none" stroke="#63b8ff" d="M536.63,-133.5C528.14,-133.5 519.53,-133.5 511.19,-133.5"/>
<polygon fill="#63b8ff" stroke="#63b8ff" points="536.9,-137 546.9,-133.5 536.9,-130 536.9,-137"/>
</a>
</g>
</g>
<!-- Node5 -->
<g id="Node000005" class="node">
<title>Node5</title>
<g id="a_Node000005"><a xlink:href="classnetspeak_1_1bighashmap_1_1BigHashMap.html#a962d40196fcce78f1ddef98eb3d8344c" target="_top" xlink:title=" ">
<polygon fill="white" stroke="#666666" points="343.5,-183.5 215.5,-183.5 215.5,-153.5 343.5,-153.5 343.5,-183.5"/>
<text text-anchor="start" x="223.5" y="-171.5" font-family="Helvetica,sans-Serif" font-size="10.00">netspeak::bighashmap</text>
<text text-anchor="middle" x="279.5" y="-160.5" font-family="Helvetica,sans-Serif" font-size="10.00">::BigHashMap::Build</text>
</a>
</g>
</g>
<!-- Node4&#45;&gt;Node5 -->
<g id="edge4_Node000004_Node000005" class="edge">
<title>Node4&#45;&gt;Node5</title>
<g id="a_edge4_Node000004_Node000005"><a xlink:title=" ">
<path fill="none" stroke="#63b8ff" d="M372.89,-148.96C363.13,-151.02 353.2,-153.13 343.64,-155.15"/>
<polygon fill="#63b8ff" stroke="#63b8ff" points="373.9,-152.33 382.96,-146.83 372.45,-145.48 373.9,-152.33"/>
</a>
</g>
</g>
<!-- Node7 -->
<g id="Node000007" class="node">
<title>Node7</title>
<g id="a_Node000007"><a xlink:href="classnetspeak_1_1invertedindex_1_1StorageWriter.html#a504b8f6d78f6946fcdb5ee52b85348ce" target="_top" xlink:title=" ">
<polygon fill="white" stroke="#666666" points="347,-124.5 212,-124.5 212,-94.5 347,-94.5 347,-124.5"/>
<text text-anchor="start" x="220" y="-112.5" font-family="Helvetica,sans-Serif" font-size="10.00">netspeak::invertedindex</text>
<text text-anchor="middle" x="279.5" y="-101.5" font-family="Helvetica,sans-Serif" font-size="10.00">::StorageWriter::close</text>
</a>
</g>
</g>
<!-- Node4&#45;&gt;Node7 -->
<g id="edge6_Node000004_Node000007" class="edge">
<title>Node4&#45;&gt;Node7</title>
<g id="a_edge6_Node000004_Node000007"><a xlink:title=" ">
<path fill="none" stroke="#63b8ff" d="M372.98,-122.91C364.41,-121.67 355.7,-120.4 347.22,-119.18"/>
<polygon fill="#63b8ff" stroke="#63b8ff" points="372.56,-126.39 382.96,-124.36 373.57,-119.46 372.56,-126.39"/>
</a>
</g>
</g>
<!-- Node6 -->
<g id="Node000006" class="node">
<title>Node6</title>
<g id="a_Node000006"><a xlink:href="namespacenetspeak.html#a84f2fcf7a89eca20f721ce3c30b85001" target="_top" xlink:title=" ">
<polygon fill="white" stroke="#666666" points="176,-189 0,-189 0,-170 176,-170 176,-189"/>
<text text-anchor="middle" x="88" y="-177" font-family="Helvetica,sans-Serif" font-size="10.00">netspeak::BuildPhraseDictionary</text>
</a>
</g>
</g>
<!-- Node5&#45;&gt;Node6 -->
<g id="edge5_Node000005_Node000006" class="edge">
<title>Node5&#45;&gt;Node6</title>
<g id="a_edge5_Node000005_Node000006"><a xlink:title=" ">
<path fill="none" stroke="#63b8ff" d="M205.2,-172.75C195.68,-173.31 185.84,-173.88 176.12,-174.44"/>
<polygon fill="#63b8ff" stroke="#63b8ff" points="205.62,-176.24 215.4,-172.16 205.21,-169.25 205.62,-176.24"/>
</a>
</g>
</g>
<!-- Node8 -->
<g id="Node000008" class="node">
<title>Node8</title>
<g id="a_Node000008"><a xlink:href="classnetspeak_1_1invertedindex_1_1UnsortedInput.html#a3bf52078c65c198e542a3e16d42eff20" target="_top" xlink:title=" ">
<polygon fill="white" stroke="#666666" points="155.5,-151.5 20.5,-151.5 20.5,-121.5 155.5,-121.5 155.5,-151.5"/>
<text text-anchor="start" x="28.5" y="-139.5" font-family="Helvetica,sans-Serif" font-size="10.00">netspeak::invertedindex</text>
<text text-anchor="middle" x="88" y="-128.5" font-family="Helvetica,sans-Serif" font-size="10.00">::UnsortedInput::index</text>
</a>
</g>
</g>
<!-- Node7&#45;&gt;Node8 -->
<g id="edge7_Node000007_Node000008" class="edge">
<title>Node7&#45;&gt;Node8</title>
<g id="a_edge7_Node000007_Node000008"><a xlink:title=" ">
<path fill="none" stroke="#63b8ff" d="M201.99,-120.4C186.66,-122.58 170.67,-124.86 155.7,-127"/>
<polygon fill="#63b8ff" stroke="#63b8ff" points="202.55,-123.86 211.96,-118.98 201.56,-116.93 202.55,-123.86"/>
</a>
</g>
</g>
<!-- Node9 -->
<g id="Node000009" class="node">
<title>Node9</title>
<g id="a_Node000009"><a xlink:href="classnetspeak_1_1invertedindex_1_1SortedInput.html#ae3183e635b4fa91c0b855773b95ce99c" target="_top" xlink:title=" ">
<polygon fill="white" stroke="#666666" points="155.5,-103.5 20.5,-103.5 20.5,-73.5 155.5,-73.5 155.5,-103.5"/>
<text text-anchor="start" x="28.5" y="-91.5" font-family="Helvetica,sans-Serif" font-size="10.00">netspeak::invertedindex</text>
<text text-anchor="middle" x="88" y="-80.5" font-family="Helvetica,sans-Serif" font-size="10.00">::SortedInput::index</text>
</a>
</g>
</g>
<!-- Node7&#45;&gt;Node9 -->
<g id="edge8_Node000007_Node000009" class="edge">
<title>Node7&#45;&gt;Node9</title>
<g id="a_edge8_Node000007_Node000009"><a xlink:title=" ">
<path fill="none" stroke="#63b8ff" d="M201.99,-101.02C186.66,-99.32 170.67,-97.55 155.7,-95.89"/>
<polygon fill="#63b8ff" stroke="#63b8ff" points="201.63,-104.5 211.96,-102.13 202.4,-97.55 201.63,-104.5"/>
</a>
</g>
</g>
<!-- Node10 -->
<g id="Node000010" class="node">
<title>Node10</title>
<g id="a_Node000010"><a xlink:href="classnetspeak_1_1invertedindex_1_1StorageWriter.html#af783f33c33c210523e44c0aef00b7ccd" target="_top" xlink:title=" ">
<polygon fill="white" stroke="#666666" points="174,-55.5 2,-55.5 2,-25.5 174,-25.5 174,-55.5"/>
<text text-anchor="start" x="10" y="-43.5" font-family="Helvetica,sans-Serif" font-size="10.00">netspeak::invertedindex</text>
<text text-anchor="middle" x="88" y="-32.5" font-family="Helvetica,sans-Serif" font-size="10.00">::StorageWriter::~StorageWriter</text>
</a>
</g>
</g>
<!-- Node7&#45;&gt;Node10 -->
<g id="edge9_Node000007_Node000010" class="edge">
<title>Node7&#45;&gt;Node10</title>
<g id="a_edge9_Node000007_Node000010"><a xlink:title=" ">
<path fill="none" stroke="#63b8ff" d="M238.04,-90.12C219.4,-81.62 196.84,-71.9 176,-64.5 167.14,-61.35 157.66,-58.36 148.33,-55.63"/>
<polygon fill="#63b8ff" stroke="#63b8ff" points="236.57,-93.3 247.12,-94.31 239.51,-86.94 236.57,-93.3"/>
</a>
</g>
</g>
</g>
</svg>
