<?xml version="1.0" encoding="UTF-8" standalone="no"?>
<!DOCTYPE svg PUBLIC "-//W3C//DTD SVG 1.1//EN"
 "http://www.w3.org/Graphics/SVG/1.1/DTD/svg11.dtd">
<!-- Generated by graphviz version 2.43.0 (0)
 -->
<!-- Title: netspeak::value::generator&lt; pair&lt; T1, T2 &gt; &gt;::randomized Pages: 1 -->
<svg width="366pt" height="113pt"
 viewBox="0.00 0.00 366.00 112.50" xmlns="http://www.w3.org/2000/svg" xmlns:xlink="http://www.w3.org/1999/xlink">
<g id="graph0" class="graph" transform="scale(1 1) rotate(0) translate(4 108.5)">
<title>netspeak::value::generator&lt; pair&lt; T1, T2 &gt; &gt;::randomized</title>
<!-- Node1 -->
<g id="Node000001" class="node">
<title>Node1</title>
<g id="a_Node000001"><a xlink:title=" ">
<polygon fill="#999999" stroke="#666666" points="174,-73 0,-73 0,-43 174,-43 174,-73"/>
<text text-anchor="start" x="8" y="-61" font-family="Helvetica,sans-Serif" font-size="10.00">netspeak::value::generator</text>
<text text-anchor="middle" x="87" y="-50" font-family="Helvetica,sans-Serif" font-size="10.00">&lt; pair&lt; T1, T2 &gt; &gt;::randomized</text>
</a>
</g>
</g>
<!-- Node2 -->
<g id="Node000002" class="node">
<title>Node2</title>
<g id="a_Node000002"><a xlink:href="classnetspeak_1_1value_1_1pair.html#aa0eed395020ba5b37636746da8619982" target="_top" xlink:title=" ">
<polygon fill="white" stroke="#666666" points="352.5,-104.5 215.5,-104.5 215.5,-85.5 352.5,-85.5 352.5,-104.5"/>
<text text-anchor="middle" x="284" y="-92.5" font-family="Helvetica,sans-Serif" font-size="10.00">netspeak::value::pair::e1</text>
</a>
</g>
</g>
<!-- Node1&#45;&gt;Node2 -->
<g id="edge1_Node000001_Node000002" class="edge">
<title>Node1&#45;&gt;Node2</title>
<g id="a_edge1_Node000001_Node000002"><a xlink:title=" ">
<path fill="none" stroke="#63b8ff" d="M167.31,-73.05C185.82,-76.56 205.24,-80.25 222.77,-83.57"/>
<polygon fill="#63b8ff" stroke="#63b8ff" points="222.37,-87.06 232.85,-85.48 223.67,-80.18 222.37,-87.06"/>
</a>
</g>
</g>
<!-- Node3 -->
<g id="Node000003" class="node">
<title>Node3</title>
<g id="a_Node000003"><a xlink:href="classnetspeak_1_1value_1_1pair.html#a52d349f5f25b356c4436a983182e4b6c" target="_top" xlink:title=" ">
<polygon fill="white" stroke="#666666" points="352.5,-67.5 215.5,-67.5 215.5,-48.5 352.5,-48.5 352.5,-67.5"/>
<text text-anchor="middle" x="284" y="-55.5" font-family="Helvetica,sans-Serif" font-size="10.00">netspeak::value::pair::e2</text>
</a>
</g>
</g>
<!-- Node1&#45;&gt;Node3 -->
<g id="edge2_Node000001_Node000003" class="edge">
<title>Node1&#45;&gt;Node3</title>
<g id="a_edge2_Node000001_Node000003"><a xlink:title=" ">
<path fill="none" stroke="#63b8ff" d="M174.1,-58C184.43,-58 194.93,-58 205.14,-58"/>
<polygon fill="#63b8ff" stroke="#63b8ff" points="205.22,-61.5 215.22,-58 205.22,-54.5 205.22,-61.5"/>
</a>
</g>
</g>
<!-- Node4 -->
<g id="Node000004" class="node">
<title>Node4</title>
<g id="a_Node000004"><a xlink:href="structnetspeak_1_1value_1_1generator.html#a702144b3db3fdf65c4faa870aab3dc73" target="_top" xlink:title=" ">
<polygon fill="white" stroke="#666666" points="358,-30 210,-30 210,0 358,0 358,-30"/>
<text text-anchor="start" x="218" y="-18" font-family="Helvetica,sans-Serif" font-size="10.00">netspeak::value::generator</text>
<text text-anchor="middle" x="284" y="-7" font-family="Helvetica,sans-Serif" font-size="10.00">::randomized</text>
</a>
</g>
</g>
<!-- Node1&#45;&gt;Node4 -->
<g id="edge3_Node000001_Node000004" class="edge">
<title>Node1&#45;&gt;Node4</title>
<g id="a_edge3_Node000001_Node000004"><a xlink:title=" ">
<path fill="none" stroke="#63b8ff" d="M156.2,-42.96C171.94,-39.49 188.79,-35.77 204.91,-32.22"/>
<polygon fill="#63b8ff" stroke="#63b8ff" points="205.83,-35.6 214.84,-30.03 204.32,-28.77 205.83,-35.6"/>
</a>
</g>
</g>
</g>
</svg>
