<?xml version="1.0" encoding="UTF-8" standalone="no"?>
<!DOCTYPE svg PUBLIC "-//W3C//DTD SVG 1.1//EN"
 "http://www.w3.org/Graphics/SVG/1.1/DTD/svg11.dtd">
<!-- Generated by graphviz version 2.43.0 (0)
 -->
<!-- Title: netspeak::value::generator::numbered Pages: 1 -->
<svg width="358pt" height="157pt"
 viewBox="0.00 0.00 358.00 156.50" xmlns="http://www.w3.org/2000/svg" xmlns:xlink="http://www.w3.org/1999/xlink">
<g id="graph0" class="graph" transform="scale(1 1) rotate(0) translate(4 152.5)">
<title>netspeak::value::generator::numbered</title>
<!-- Node1 -->
<g id="Node000001" class="node">
<title>Node1</title>
<g id="a_Node000001"><a xlink:title=" ">
<polygon fill="#999999" stroke="#666666" points="350,-94.5 202,-94.5 202,-64.5 350,-64.5 350,-94.5"/>
<text text-anchor="start" x="210" y="-82.5" font-family="Helvetica,sans-Serif" font-size="10.00">netspeak::value::generator</text>
<text text-anchor="middle" x="276" y="-71.5" font-family="Helvetica,sans-Serif" font-size="10.00">::numbered</text>
</a>
</g>
</g>
<!-- Node2 -->
<g id="Node000002" class="node">
<title>Node2</title>
<g id="a_Node000002"><a xlink:href="structnetspeak_1_1value_1_1generator_3_01pair_3_01T1_00_01T2_01_4_01_4.html#a75e609f11748792ed009382b6b17dc62" target="_top" xlink:title=" ">
<polygon fill="white" stroke="#666666" points="166,-148.5 0,-148.5 0,-118.5 166,-118.5 166,-148.5"/>
<text text-anchor="start" x="8" y="-136.5" font-family="Helvetica,sans-Serif" font-size="10.00">netspeak::value::generator</text>
<text text-anchor="middle" x="83" y="-125.5" font-family="Helvetica,sans-Serif" font-size="10.00">&lt; pair&lt; T1, T2 &gt; &gt;::numbered</text>
</a>
</g>
</g>
<!-- Node1&#45;&gt;Node2 -->
<g id="edge1_Node000001_Node000002" class="edge">
<title>Node1&#45;&gt;Node2</title>
<g id="a_edge1_Node000001_Node000002"><a xlink:title=" ">
<path fill="none" stroke="#63b8ff" d="M211.99,-97.31C187.8,-104.15 160.44,-111.89 137.25,-118.45"/>
<polygon fill="#63b8ff" stroke="#63b8ff" points="213.13,-100.63 221.8,-94.54 211.22,-93.89 213.13,-100.63"/>
</a>
</g>
</g>
<!-- Node3 -->
<g id="Node000003" class="node">
<title>Node3</title>
<g id="a_Node000003"><a xlink:href="structnetspeak_1_1value_1_1generator_3_01quadruple_3_01T1_00_01T2_00_01T3_00_01T4_01_4_01_4.html#a81923d2c555375c68a16ea8b1875b83a" target="_top" xlink:title=" ">
<polygon fill="white" stroke="#666666" points="157,-100 9,-100 9,-59 157,-59 157,-100"/>
<text text-anchor="start" x="17" y="-88" font-family="Helvetica,sans-Serif" font-size="10.00">netspeak::value::generator</text>
<text text-anchor="start" x="17" y="-77" font-family="Helvetica,sans-Serif" font-size="10.00">&lt; quadruple&lt; T1, T2, T3,</text>
<text text-anchor="middle" x="83" y="-66" font-family="Helvetica,sans-Serif" font-size="10.00"> T4 &gt; &gt;::numbered</text>
</a>
</g>
</g>
<!-- Node1&#45;&gt;Node3 -->
<g id="edge2_Node000001_Node000003" class="edge">
<title>Node1&#45;&gt;Node3</title>
<g id="a_edge2_Node000001_Node000003"><a xlink:title=" ">
<path fill="none" stroke="#63b8ff" d="M191.93,-79.5C180.4,-79.5 168.63,-79.5 157.3,-79.5"/>
<polygon fill="#63b8ff" stroke="#63b8ff" points="191.97,-83 201.97,-79.5 191.97,-76 191.97,-83"/>
</a>
</g>
</g>
<!-- Node4 -->
<g id="Node000004" class="node">
<title>Node4</title>
<g id="a_Node000004"><a xlink:href="structnetspeak_1_1value_1_1generator_3_01triple_3_01T1_00_01T2_00_01T3_01_4_01_4.html#a5e9b1b4aebb5c9f87c06efdf0a06bd5f" target="_top" xlink:title=" ">
<polygon fill="white" stroke="#666666" points="157,-41 9,-41 9,0 157,0 157,-41"/>
<text text-anchor="start" x="17" y="-29" font-family="Helvetica,sans-Serif" font-size="10.00">netspeak::value::generator</text>
<text text-anchor="start" x="17" y="-18" font-family="Helvetica,sans-Serif" font-size="10.00">&lt; triple&lt; T1, T2, T3 &gt; &gt;</text>
<text text-anchor="middle" x="83" y="-7" font-family="Helvetica,sans-Serif" font-size="10.00">::numbered</text>
</a>
</g>
</g>
<!-- Node1&#45;&gt;Node4 -->
<g id="edge3_Node000001_Node000004" class="edge">
<title>Node1&#45;&gt;Node4</title>
<g id="a_edge3_Node000001_Node000004"><a xlink:title=" ">
<path fill="none" stroke="#63b8ff" d="M216.63,-61.47C195.77,-55.03 172.12,-47.72 150.62,-41.08"/>
<polygon fill="#63b8ff" stroke="#63b8ff" points="215.72,-64.85 226.31,-64.46 217.79,-58.16 215.72,-64.85"/>
</a>
</g>
</g>
</g>
</svg>
