<?xml version="1.0" encoding="UTF-8" standalone="no"?>
<!DOCTYPE svg PUBLIC "-//W3C//DTD SVG 1.1//EN"
 "http://www.w3.org/Graphics/SVG/1.1/DTD/svg11.dtd">
<!-- Generated by graphviz version 2.43.0 (0)
 -->
<!-- Title: netspeak::NormQueryCounter Pages: 1 -->
<svg width="164pt" height="254pt"
 viewBox="0.00 0.00 164.00 254.00" xmlns="http://www.w3.org/2000/svg" xmlns:xlink="http://www.w3.org/1999/xlink">
<g id="graph0" class="graph" transform="scale(1 1) rotate(0) translate(4 250)">
<title>netspeak::NormQueryCounter</title>
<!-- Node1 -->
<g id="Node000001" class="node">
<title>Node1</title>
<g id="a_Node000001"><a xlink:title=" ">
<polygon fill="#999999" stroke="transparent" points="156,-79 0,-79 0,0 156,0 156,-79"/>
<text text-anchor="start" x="5" y="-66.5" font-family="Helvetica,sans-Serif" font-size="10.00">netspeak::NormQueryCounter</text>
<text text-anchor="start" x="76" y="-51.5" font-family="Helvetica,sans-Serif" font-size="10.00"> </text>
<text text-anchor="start" x="12" y="-36.5" font-family="Helvetica,sans-Serif" font-size="10.00">+</text>
<text text-anchor="start" x="33" y="-36.5" font-family="Helvetica,sans-Serif" font-size="10.00">NormQueryCounter()</text>
<text text-anchor="start" x="12" y="-21.5" font-family="Helvetica,sans-Serif" font-size="10.00">+</text>
<text text-anchor="start" x="33" y="-21.5" font-family="Helvetica,sans-Serif" font-size="10.00">estimate()</text>
<text text-anchor="start" x="14.5" y="-6.5" font-family="Helvetica,sans-Serif" font-size="10.00">&#45;</text>
<text text-anchor="start" x="33" y="-6.5" font-family="Helvetica,sans-Serif" font-size="10.00">estimate_impl()</text>
<polygon fill="#666666" stroke="#666666" points="0,-61.5 0,-61.5 156,-61.5 156,-61.5 0,-61.5"/>
<polygon fill="#666666" stroke="#666666" points="0,-46.5 0,-46.5 156,-46.5 156,-46.5 0,-46.5"/>
<polygon fill="none" stroke="#666666" points="0,0 0,-79 156,-79 156,0 0,0"/>
</a>
</g>
</g>
<!-- Node2 -->
<g id="Node000002" class="node">
<title>Node2</title>
<g id="a_Node000002"><a xlink:href="structnetspeak_1_1QueryNormalizer_1_1Options.html" target="_top" xlink:title=" ">
<polygon fill="white" stroke="transparent" points="150.5,-246 5.5,-246 5.5,-126 150.5,-126 150.5,-246"/>
<text text-anchor="start" x="11" y="-234" font-family="Helvetica,sans-Serif" font-size="10.00">netspeak::QueryNormalizer</text>
<text text-anchor="start" x="56.5" y="-223" font-family="Helvetica,sans-Serif" font-size="10.00">::Options</text>
<text text-anchor="start" x="15" y="-208" font-family="Helvetica,sans-Serif" font-size="10.00">+</text>
<text text-anchor="start" x="33" y="-208" font-family="Helvetica,sans-Serif" font-size="10.00">max_norm_queries</text>
<text text-anchor="start" x="15" y="-193" font-family="Helvetica,sans-Serif" font-size="10.00">+</text>
<text text-anchor="start" x="33" y="-193" font-family="Helvetica,sans-Serif" font-size="10.00">min_length</text>
<text text-anchor="start" x="15" y="-178" font-family="Helvetica,sans-Serif" font-size="10.00">+</text>
<text text-anchor="start" x="33" y="-178" font-family="Helvetica,sans-Serif" font-size="10.00">max_length</text>
<text text-anchor="start" x="15" y="-163" font-family="Helvetica,sans-Serif" font-size="10.00">+</text>
<text text-anchor="start" x="33" y="-163" font-family="Helvetica,sans-Serif" font-size="10.00">max_regex_matches</text>
<text text-anchor="start" x="15" y="-148" font-family="Helvetica,sans-Serif" font-size="10.00">+</text>
<text text-anchor="start" x="33" y="-148" font-family="Helvetica,sans-Serif" font-size="10.00">max_regex_time</text>
<text text-anchor="start" x="76.5" y="-133" font-family="Helvetica,sans-Serif" font-size="10.00"> </text>
<polygon fill="#666666" stroke="#666666" points="6,-218 6,-218 151,-218 151,-218 6,-218"/>
<polygon fill="#666666" stroke="#666666" points="6,-143 6,-143 31,-143 31,-143 6,-143"/>
<polygon fill="#666666" stroke="#666666" points="31,-143 31,-143 151,-143 151,-143 31,-143"/>
<polygon fill="none" stroke="#666666" points="5.5,-126 5.5,-246 150.5,-246 150.5,-126 5.5,-126"/>
</a>
</g>
</g>
<!-- Node2&#45;&gt;Node1 -->
<g id="edge1_Node000001_Node000002" class="edge">
<title>Node2&#45;&gt;Node1</title>
<g id="a_edge1_Node000001_Node000002"><a xlink:title=" ">
<path fill="none" stroke="#63b8ff" d="M78,-125.81C78,-114.37 78,-102.48 78,-91.34"/>
<polygon fill="none" stroke="#63b8ff" points="78,-91.14 74,-85.14 78,-79.14 82,-85.14 78,-91.14"/>
</a>
</g>
<text text-anchor="middle" x="102" y="-100" font-family="Helvetica,sans-Serif" font-size="10.00" fill="grey"> +options</text>
</g>
</g>
</svg>
