<?xml version="1.0" encoding="UTF-8" standalone="no"?>
<!DOCTYPE svg PUBLIC "-//W3C//DTD SVG 1.1//EN"
 "http://www.w3.org/Graphics/SVG/1.1/DTD/svg11.dtd">
<!-- Generated by graphviz version 2.43.0 (0)
 -->
<!-- Title: netspeak/model/typedefs.hpp Pages: 1 -->
<svg width="1504pt" height="390pt"
 viewBox="0.00 0.00 1503.50 390.00" xmlns="http://www.w3.org/2000/svg" xmlns:xlink="http://www.w3.org/1999/xlink">
<g id="graph0" class="graph" transform="scale(1 1) rotate(0) translate(4 386)">
<title>netspeak/model/typedefs.hpp</title>
<!-- Node1 -->
<g id="Node000001" class="node">
<title>Node1</title>
<g id="a_Node000001"><a xlink:title=" ">
<polygon fill="#999999" stroke="#666666" points="423,-382 261,-382 261,-363 423,-363 423,-382"/>
<text text-anchor="middle" x="342" y="-370" font-family="Helvetica,sans-Serif" font-size="10.00">netspeak/model/typedefs.hpp</text>
</a>
</g>
</g>
<!-- Node2 -->
<g id="Node000002" class="node">
<title>Node2</title>
<g id="a_Node000002"><a xlink:href="PhraseCorpus_8hpp.html" target="_top" xlink:title=" ">
<polygon fill="white" stroke="#666666" points="562,-266.5 410,-266.5 410,-247.5 562,-247.5 562,-266.5"/>
<text text-anchor="middle" x="486" y="-254.5" font-family="Helvetica,sans-Serif" font-size="10.00">netspeak/PhraseCorpus.hpp</text>
</a>
</g>
</g>
<!-- Node1&#45;&gt;Node2 -->
<g id="edge1_Node000001_Node000002" class="edge">
<title>Node1&#45;&gt;Node2</title>
<g id="a_edge1_Node000001_Node000002"><a xlink:title=" ">
<path fill="none" stroke="#63b8ff" d="M360.97,-356.55C391.52,-332.47 450.64,-285.87 475.05,-266.63"/>
<polygon fill="#63b8ff" stroke="#63b8ff" points="358.51,-354.03 352.82,-362.97 362.84,-359.53 358.51,-354.03"/>
</a>
</g>
</g>
<!-- Node15 -->
<g id="Node000015" class="node">
<title>Node15</title>
<g id="a_Node000015"><a xlink:href="PhraseFileReader_8hpp.html" target="_top" xlink:title=" ">
<polygon fill="white" stroke="#666666" points="170,-206 0,-206 0,-187 170,-187 170,-206"/>
<text text-anchor="middle" x="85" y="-194" font-family="Helvetica,sans-Serif" font-size="10.00">netspeak/PhraseFileReader.hpp</text>
</a>
</g>
</g>
<!-- Node1&#45;&gt;Node15 -->
<g id="edge16_Node000001_Node000015" class="edge">
<title>Node1&#45;&gt;Node15</title>
<g id="a_edge16_Node000001_Node000015"><a xlink:title=" ">
<path fill="none" stroke="#63b8ff" d="M258.84,-361.35C217.61,-354.61 167.64,-343.8 125,-327 81.39,-309.81 57.93,-312.89 35,-272 28.48,-260.37 29.54,-254.16 35,-242 42.04,-226.31 57.65,-213.89 69.57,-206.2"/>
<polygon fill="#63b8ff" stroke="#63b8ff" points="258.42,-364.83 268.85,-362.94 259.52,-357.92 258.42,-364.83"/>
</a>
</g>
</g>
<!-- Node16 -->
<g id="Node000016" class="node">
<title>Node16</title>
<g id="a_Node000016"><a xlink:href="indexing_8hpp.html" target="_top" xlink:title=" ">
<polygon fill="white" stroke="#666666" points="262,-327 134,-327 134,-308 262,-308 262,-327"/>
<text text-anchor="middle" x="198" y="-315" font-family="Helvetica,sans-Serif" font-size="10.00">netspeak/indexing.hpp</text>
</a>
</g>
</g>
<!-- Node1&#45;&gt;Node16 -->
<g id="edge18_Node000001_Node000016" class="edge">
<title>Node1&#45;&gt;Node16</title>
<g id="a_edge18_Node000001_Node000016"><a xlink:title=" ">
<path fill="none" stroke="#63b8ff" d="M309.18,-359.42C282.47,-349.59 245.4,-335.95 221.56,-327.17"/>
<polygon fill="#63b8ff" stroke="#63b8ff" points="308.27,-362.82 318.86,-362.98 310.69,-356.25 308.27,-362.82"/>
</a>
</g>
</g>
<!-- Node18 -->
<g id="Node000018" class="node">
<title>Node18</title>
<g id="a_Node000018"><a xlink:href="Phrase_8hpp.html" target="_top" xlink:title=" ">
<polygon fill="white" stroke="#666666" points="770,-327 618,-327 618,-308 770,-308 770,-327"/>
<text text-anchor="middle" x="694" y="-315" font-family="Helvetica,sans-Serif" font-size="10.00">netspeak/model/Phrase.hpp</text>
</a>
</g>
</g>
<!-- Node1&#45;&gt;Node18 -->
<g id="edge21_Node000001_Node000018" class="edge">
<title>Node1&#45;&gt;Node18</title>
<g id="a_edge21_Node000001_Node000018"><a xlink:title=" ">
<path fill="none" stroke="#63b8ff" d="M408.45,-361.49C474.54,-351.54 574.85,-336.44 637.29,-327.04"/>
<polygon fill="#63b8ff" stroke="#63b8ff" points="407.92,-358.03 398.55,-362.98 408.96,-364.96 407.92,-358.03"/>
</a>
</g>
</g>
<!-- Node3 -->
<g id="Node000003" class="node">
<title>Node3</title>
<g id="a_Node000003"><a xlink:href="Netspeak_8hpp.html" target="_top" xlink:title=" ">
<polygon fill="white" stroke="#666666" points="931,-151 799,-151 799,-132 931,-132 931,-151"/>
<text text-anchor="middle" x="865" y="-139" font-family="Helvetica,sans-Serif" font-size="10.00">netspeak/Netspeak.hpp</text>
</a>
</g>
</g>
<!-- Node2&#45;&gt;Node3 -->
<g id="edge2_Node000002_Node000003" class="edge">
<title>Node2&#45;&gt;Node3</title>
<g id="a_edge2_Node000002_Node000003"><a xlink:title=" ">
<path fill="none" stroke="#63b8ff" d="M507.53,-241.73C532.39,-225.93 575,-200.87 615,-187 675.4,-166.06 747.58,-154.57 798.82,-148.54"/>
<polygon fill="#63b8ff" stroke="#63b8ff" points="505.43,-238.93 498.92,-247.29 509.22,-244.81 505.43,-238.93"/>
</a>
</g>
</g>
<!-- Node8 -->
<g id="Node000008" class="node">
<title>Node8</title>
<g id="a_Node000008"><a xlink:href="indexing_8cpp.html" target="_top" xlink:title=" ">
<polygon fill="white" stroke="#666666" points="483.5,-90.5 356.5,-90.5 356.5,-71.5 483.5,-71.5 483.5,-90.5"/>
<text text-anchor="middle" x="420" y="-78.5" font-family="Helvetica,sans-Serif" font-size="10.00">netspeak/indexing.cpp</text>
</a>
</g>
</g>
<!-- Node2&#45;&gt;Node8 -->
<g id="edge15_Node000002_Node000008" class="edge">
<title>Node2&#45;&gt;Node8</title>
<g id="a_edge15_Node000002_Node000008"><a xlink:title=" ">
<path fill="none" stroke="#63b8ff" d="M481.72,-237.49C478.27,-223.46 473.03,-203.79 467,-187 453.77,-150.16 433.25,-108.18 424.35,-90.53"/>
<polygon fill="#63b8ff" stroke="#63b8ff" points="478.35,-238.46 484.07,-247.37 485.16,-236.83 478.35,-238.46"/>
</a>
</g>
</g>
<!-- Node14 -->
<g id="Node000014" class="node">
<title>Node14</title>
<g id="a_Node000014"><a xlink:href="PhraseCorpus_8cpp.html" target="_top" xlink:title=" ">
<polygon fill="white" stroke="#666666" points="458,-206 306,-206 306,-187 458,-187 458,-206"/>
<text text-anchor="middle" x="382" y="-194" font-family="Helvetica,sans-Serif" font-size="10.00">netspeak/PhraseCorpus.cpp</text>
</a>
</g>
</g>
<!-- Node2&#45;&gt;Node14 -->
<g id="edge14_Node000002_Node000014" class="edge">
<title>Node2&#45;&gt;Node14</title>
<g id="a_edge14_Node000002_Node000014"><a xlink:title=" ">
<path fill="none" stroke="#63b8ff" d="M461.86,-242.42C441.99,-231.24 414.41,-215.73 397.41,-206.17"/>
<polygon fill="#63b8ff" stroke="#63b8ff" points="460.22,-245.52 470.65,-247.37 463.65,-239.41 460.22,-245.52"/>
</a>
</g>
</g>
<!-- Node4 -->
<g id="Node000004" class="node">
<title>Node4</title>
<g id="a_Node000004"><a xlink:href="ProxyCommand_8cpp.html" target="_top" xlink:title=" ">
<polygon fill="white" stroke="#666666" points="1280.5,-90.5 1151.5,-90.5 1151.5,-71.5 1280.5,-71.5 1280.5,-90.5"/>
<text text-anchor="middle" x="1216" y="-78.5" font-family="Helvetica,sans-Serif" font-size="10.00">cli/ProxyCommand.cpp</text>
</a>
</g>
</g>
<!-- Node3&#45;&gt;Node4 -->
<g id="edge3_Node000003_Node000004" class="edge">
<title>Node3&#45;&gt;Node4</title>
<g id="a_edge3_Node000003_Node000004"><a xlink:title=" ">
<path fill="none" stroke="#63b8ff" d="M931.73,-130.41C988.11,-121.74 1070.94,-108.67 1143,-96 1152.66,-94.3 1163.02,-92.38 1172.81,-90.51"/>
<polygon fill="#63b8ff" stroke="#63b8ff" points="930.88,-127 921.52,-131.97 931.94,-133.92 930.88,-127"/>
</a>
</g>
</g>
<!-- Node5 -->
<g id="Node000005" class="node">
<title>Node5</title>
<g id="a_Node000005"><a xlink:href="ServeCommand_8cpp.html" target="_top" xlink:title=" ">
<polygon fill="white" stroke="#666666" points="1326.5,-24.5 1197.5,-24.5 1197.5,-5.5 1326.5,-5.5 1326.5,-24.5"/>
<text text-anchor="middle" x="1262" y="-12.5" font-family="Helvetica,sans-Serif" font-size="10.00">cli/ServeCommand.cpp</text>
</a>
</g>
</g>
<!-- Node3&#45;&gt;Node5 -->
<g id="edge4_Node000003_Node000005" class="edge">
<title>Node3&#45;&gt;Node5</title>
<g id="a_edge4_Node000003_Node000005"><a xlink:title=" ">
<path fill="none" stroke="#63b8ff" d="M941.53,-132.1C1010.32,-127.4 1265.29,-123.38 1290,-96 1308.93,-75.03 1283.71,-40.51 1269.92,-24.57"/>
<polygon fill="#63b8ff" stroke="#63b8ff" points="940.92,-128.63 931.25,-132.95 941.51,-135.61 940.92,-128.63"/>
</a>
</g>
</g>
<!-- Node6 -->
<g id="Node000006" class="node">
<title>Node6</title>
<g id="a_Node000006"><a xlink:href="ShellCommand_8cpp.html" target="_top" xlink:title=" ">
<polygon fill="white" stroke="#666666" points="626.5,-90.5 501.5,-90.5 501.5,-71.5 626.5,-71.5 626.5,-90.5"/>
<text text-anchor="middle" x="564" y="-78.5" font-family="Helvetica,sans-Serif" font-size="10.00">cli/ShellCommand.cpp</text>
</a>
</g>
</g>
<!-- Node3&#45;&gt;Node6 -->
<g id="edge5_Node000003_Node000006" class="edge">
<title>Node3&#45;&gt;Node6</title>
<g id="a_edge5_Node000003_Node000006"><a xlink:title=" ">
<path fill="none" stroke="#63b8ff" d="M810.58,-130.03C763.97,-121.04 695.06,-107.73 635,-96 626,-94.24 616.36,-92.35 607.17,-90.54"/>
<polygon fill="#63b8ff" stroke="#63b8ff" points="809.99,-133.48 820.47,-131.93 811.31,-126.6 809.99,-133.48"/>
</a>
</g>
</g>
<!-- Node7 -->
<g id="Node000007" class="node">
<title>Node7</title>
<g id="a_Node000007"><a xlink:href="Netspeak_8cpp.html" target="_top" xlink:title=" ">
<polygon fill="white" stroke="#666666" points="775.5,-90.5 644.5,-90.5 644.5,-71.5 775.5,-71.5 775.5,-90.5"/>
<text text-anchor="middle" x="710" y="-78.5" font-family="Helvetica,sans-Serif" font-size="10.00">netspeak/Netspeak.cpp</text>
</a>
</g>
</g>
<!-- Node3&#45;&gt;Node7 -->
<g id="edge6_Node000003_Node000007" class="edge">
<title>Node3&#45;&gt;Node7</title>
<g id="a_edge6_Node000003_Node000007"><a xlink:title=" ">
<path fill="none" stroke="#63b8ff" d="M832.88,-128.38C802.92,-117.07 758.98,-100.49 732.57,-90.52"/>
<polygon fill="#63b8ff" stroke="#63b8ff" points="831.87,-131.74 842.46,-131.99 834.34,-125.19 831.87,-131.74"/>
</a>
</g>
</g>
<!-- Node3&#45;&gt;Node8 -->
<g id="edge7_Node000003_Node000008" class="edge">
<title>Node3&#45;&gt;Node8</title>
<g id="a_edge7_Node000003_Node000008"><a xlink:title=" ">
<path fill="none" stroke="#63b8ff" d="M788.4,-133.02C712.84,-125.25 594.15,-112 492,-96 481.94,-94.42 471.13,-92.46 461.03,-90.52"/>
<polygon fill="#63b8ff" stroke="#63b8ff" points="788.46,-136.55 798.77,-134.08 789.18,-129.58 788.46,-136.55"/>
</a>
</g>
</g>
<!-- Node9 -->
<g id="Node000009" class="node">
<title>Node9</title>
<g id="a_Node000009"><a xlink:href="RequestLogger_8hpp.html" target="_top" xlink:title=" ">
<polygon fill="white" stroke="#666666" points="936.5,-96 793.5,-96 793.5,-66 936.5,-66 936.5,-96"/>
<text text-anchor="start" x="801.5" y="-84" font-family="Helvetica,sans-Serif" font-size="10.00">netspeak/service/Request</text>
<text text-anchor="middle" x="865" y="-73" font-family="Helvetica,sans-Serif" font-size="10.00">Logger.hpp</text>
</a>
</g>
</g>
<!-- Node3&#45;&gt;Node9 -->
<g id="edge8_Node000003_Node000009" class="edge">
<title>Node3&#45;&gt;Node9</title>
<g id="a_edge8_Node000003_Node000009"><a xlink:title=" ">
<path fill="none" stroke="#63b8ff" d="M865,-121.65C865,-113.36 865,-103.78 865,-96.11"/>
<polygon fill="#63b8ff" stroke="#63b8ff" points="861.5,-121.87 865,-131.87 868.5,-121.87 861.5,-121.87"/>
</a>
</g>
</g>
<!-- Node12 -->
<g id="Node000012" class="node">
<title>Node12</title>
<g id="a_Node000012"><a xlink:href="UniqueMap_8hpp.html" target="_top" xlink:title=" ">
<polygon fill="white" stroke="#666666" points="1133.5,-90.5 954.5,-90.5 954.5,-71.5 1133.5,-71.5 1133.5,-90.5"/>
<text text-anchor="middle" x="1044" y="-78.5" font-family="Helvetica,sans-Serif" font-size="10.00">netspeak/service/UniqueMap.hpp</text>
</a>
</g>
</g>
<!-- Node3&#45;&gt;Node12 -->
<g id="edge11_Node000003_Node000012" class="edge">
<title>Node3&#45;&gt;Node12</title>
<g id="a_edge11_Node000003_Node000012"><a xlink:title=" ">
<path fill="none" stroke="#63b8ff" d="M900.75,-128.82C935.37,-117.5 987.04,-100.62 1017.94,-90.52"/>
<polygon fill="#63b8ff" stroke="#63b8ff" points="899.45,-125.56 891.03,-131.99 901.62,-132.21 899.45,-125.56"/>
</a>
</g>
</g>
<!-- Node10 -->
<g id="Node000010" class="node">
<title>Node10</title>
<g id="a_Node000010"><a xlink:href="cli_2logging_8cpp.html" target="_top" xlink:title=" ">
<polygon fill="white" stroke="#666666" points="922.5,-24.5 835.5,-24.5 835.5,-5.5 922.5,-5.5 922.5,-24.5"/>
<text text-anchor="middle" x="879" y="-12.5" font-family="Helvetica,sans-Serif" font-size="10.00">cli/logging.cpp</text>
</a>
</g>
</g>
<!-- Node9&#45;&gt;Node10 -->
<g id="edge9_Node000009_Node000010" class="edge">
<title>Node9&#45;&gt;Node10</title>
<g id="a_edge9_Node000009_Node000010"><a xlink:title=" ">
<path fill="none" stroke="#63b8ff" d="M870.26,-55.94C872.64,-45.06 875.31,-32.86 877.07,-24.84"/>
<polygon fill="#63b8ff" stroke="#63b8ff" points="866.82,-55.28 868.11,-65.8 873.66,-56.78 866.82,-55.28"/>
</a>
</g>
</g>
<!-- Node11 -->
<g id="Node000011" class="node">
<title>Node11</title>
<g id="a_Node000011"><a xlink:href="RequestLogger_8cpp.html" target="_top" xlink:title=" ">
<polygon fill="white" stroke="#666666" points="817.5,-30 674.5,-30 674.5,0 817.5,0 817.5,-30"/>
<text text-anchor="start" x="682.5" y="-18" font-family="Helvetica,sans-Serif" font-size="10.00">netspeak/service/Request</text>
<text text-anchor="middle" x="746" y="-7" font-family="Helvetica,sans-Serif" font-size="10.00">Logger.cpp</text>
</a>
</g>
</g>
<!-- Node9&#45;&gt;Node11 -->
<g id="edge10_Node000009_Node000011" class="edge">
<title>Node9&#45;&gt;Node11</title>
<g id="a_edge10_Node000009_Node000011"><a xlink:title=" ">
<path fill="none" stroke="#63b8ff" d="M829.87,-61.11C811.35,-51.14 789.01,-39.13 772.05,-30.01"/>
<polygon fill="#63b8ff" stroke="#63b8ff" points="828.42,-64.3 838.88,-65.95 831.74,-58.14 828.42,-64.3"/>
</a>
</g>
</g>
<!-- Node12&#45;&gt;Node5 -->
<g id="edge12_Node000012_Node000005" class="edge">
<title>Node12&#45;&gt;Node5</title>
<g id="a_edge12_Node000012_Node000005"><a xlink:title=" ">
<path fill="none" stroke="#63b8ff" d="M1083.23,-68.48C1126.21,-55.87 1194.15,-35.92 1232.72,-24.6"/>
<polygon fill="#63b8ff" stroke="#63b8ff" points="1082.01,-65.19 1073.4,-71.37 1083.98,-71.91 1082.01,-65.19"/>
</a>
</g>
</g>
<!-- Node13 -->
<g id="Node000013" class="node">
<title>Node13</title>
<g id="a_Node000013"><a xlink:href="UniqueMap_8cpp.html" target="_top" xlink:title=" ">
<polygon fill="white" stroke="#666666" points="1133.5,-24.5 954.5,-24.5 954.5,-5.5 1133.5,-5.5 1133.5,-24.5"/>
<text text-anchor="middle" x="1044" y="-12.5" font-family="Helvetica,sans-Serif" font-size="10.00">netspeak/service/UniqueMap.cpp</text>
</a>
</g>
</g>
<!-- Node12&#45;&gt;Node13 -->
<g id="edge13_Node000012_Node000013" class="edge">
<title>Node12&#45;&gt;Node13</title>
<g id="a_edge13_Node000012_Node000013"><a xlink:title=" ">
<path fill="none" stroke="#63b8ff" d="M1044,-61.08C1044,-49.13 1044,-34.22 1044,-24.91"/>
<polygon fill="#63b8ff" stroke="#63b8ff" points="1040.5,-61.37 1044,-71.37 1047.5,-61.37 1040.5,-61.37"/>
</a>
</g>
</g>
<!-- Node15&#45;&gt;Node8 -->
<g id="edge17_Node000015_Node000008" class="edge">
<title>Node15&#45;&gt;Node8</title>
<g id="a_edge17_Node000015_Node000008"><a xlink:title=" ">
<path fill="none" stroke="#63b8ff" d="M103.68,-180.56C122.77,-166.03 153.83,-144.38 184,-132 239.89,-109.06 307.72,-96.09 356.3,-89.15"/>
<polygon fill="#63b8ff" stroke="#63b8ff" points="101.31,-177.97 95.56,-186.87 105.6,-183.5 101.31,-177.97"/>
</a>
</g>
</g>
<!-- Node16&#45;&gt;Node8 -->
<g id="edge20_Node000016_Node000008" class="edge">
<title>Node16&#45;&gt;Node8</title>
<g id="a_edge20_Node000016_Node000008"><a xlink:title=" ">
<path fill="none" stroke="#63b8ff" d="M199.41,-297.8C201.36,-281.87 205.99,-258.93 217,-242 266.17,-166.38 363.27,-110.87 402.72,-90.51"/>
<polygon fill="#63b8ff" stroke="#63b8ff" points="195.91,-297.68 198.41,-307.98 202.87,-298.37 195.91,-297.68"/>
</a>
</g>
</g>
<!-- Node17 -->
<g id="Node000017" class="node">
<title>Node17</title>
<g id="a_Node000017"><a xlink:href="BuildCommand_8cpp.html" target="_top" xlink:title=" ">
<polygon fill="white" stroke="#666666" points="170,-266.5 44,-266.5 44,-247.5 170,-247.5 170,-266.5"/>
<text text-anchor="middle" x="107" y="-254.5" font-family="Helvetica,sans-Serif" font-size="10.00">cli/BuildCommand.cpp</text>
</a>
</g>
</g>
<!-- Node16&#45;&gt;Node17 -->
<g id="edge19_Node000016_Node000017" class="edge">
<title>Node16&#45;&gt;Node17</title>
<g id="a_edge19_Node000016_Node000017"><a xlink:title=" ">
<path fill="none" stroke="#63b8ff" d="M175.69,-302.16C158.4,-291.05 135.02,-276.01 120.48,-266.67"/>
<polygon fill="#63b8ff" stroke="#63b8ff" points="174.27,-305.4 184.57,-307.87 178.05,-299.52 174.27,-305.4"/>
</a>
</g>
</g>
<!-- Node18&#45;&gt;Node2 -->
<g id="edge23_Node000018_Node000002" class="edge">
<title>Node18&#45;&gt;Node2</title>
<g id="a_edge23_Node000018_Node000002"><a xlink:title=" ">
<path fill="none" stroke="#63b8ff" d="M654.01,-305.25C613.78,-293.94 552.65,-276.75 516.28,-266.52"/>
<polygon fill="#63b8ff" stroke="#63b8ff" points="653.18,-308.66 663.76,-307.99 655.08,-301.92 653.18,-308.66"/>
</a>
</g>
</g>
<!-- Node18&#45;&gt;Node3 -->
<g id="edge22_Node000018_Node000003" class="edge">
<title>Node18&#45;&gt;Node3</title>
<g id="a_edge22_Node000018_Node000003"><a xlink:title=" ">
<path fill="none" stroke="#63b8ff" d="M737.65,-304.69C757.26,-297.69 779.62,-287.15 796,-272 834.53,-236.37 855.73,-174.23 862.54,-151.31"/>
<polygon fill="#63b8ff" stroke="#63b8ff" points="736.35,-301.43 727.99,-307.94 738.58,-308.07 736.35,-301.43"/>
</a>
</g>
</g>
<!-- Node18&#45;&gt;Node8 -->
<g id="edge26_Node000018_Node000008" class="edge">
<title>Node18&#45;&gt;Node8</title>
<g id="a_edge26_Node000018_Node000008"><a xlink:title=" ">
<path fill="none" stroke="#63b8ff" d="M664,-303.56C647.1,-295.61 626.04,-284.56 609,-272 567.99,-241.77 458.83,-124.22 428.13,-90.87"/>
<polygon fill="#63b8ff" stroke="#63b8ff" points="662.85,-306.89 673.4,-307.87 665.77,-300.52 662.85,-306.89"/>
</a>
</g>
</g>
<!-- Node19 -->
<g id="Node000019" class="node">
<title>Node19</title>
<g id="a_Node000019"><a xlink:href="PhraseFileParser_8hpp.html" target="_top" xlink:title=" ">
<polygon fill="white" stroke="#666666" points="391.5,-266.5 226.5,-266.5 226.5,-247.5 391.5,-247.5 391.5,-266.5"/>
<text text-anchor="middle" x="309" y="-254.5" font-family="Helvetica,sans-Serif" font-size="10.00">netspeak/PhraseFileParser.hpp</text>
</a>
</g>
</g>
<!-- Node18&#45;&gt;Node19 -->
<g id="edge24_Node000018_Node000019" class="edge">
<title>Node18&#45;&gt;Node19</title>
<g id="a_edge24_Node000018_Node000019"><a xlink:title=" ">
<path fill="none" stroke="#63b8ff" d="M627.83,-306.46C568.45,-297.44 478.9,-283.84 401,-272 389.34,-270.23 376.85,-268.33 364.95,-266.52"/>
<polygon fill="#63b8ff" stroke="#63b8ff" points="627.42,-309.93 637.83,-307.97 628.47,-303.01 627.42,-309.93"/>
</a>
</g>
</g>
<!-- Node20 -->
<g id="Node000020" class="node">
<title>Node20</title>
<g id="a_Node000020"><a xlink:href="Phrase_8cpp.html" target="_top" xlink:title=" ">
<polygon fill="white" stroke="#666666" points="770,-266.5 618,-266.5 618,-247.5 770,-247.5 770,-266.5"/>
<text text-anchor="middle" x="694" y="-254.5" font-family="Helvetica,sans-Serif" font-size="10.00">netspeak/model/Phrase.cpp</text>
</a>
</g>
</g>
<!-- Node18&#45;&gt;Node20 -->
<g id="edge27_Node000018_Node000020" class="edge">
<title>Node18&#45;&gt;Node20</title>
<g id="a_edge27_Node000018_Node000020"><a xlink:title=" ">
<path fill="none" stroke="#63b8ff" d="M694,-297.66C694,-287.24 694,-274.8 694,-266.67"/>
<polygon fill="#63b8ff" stroke="#63b8ff" points="690.5,-297.87 694,-307.87 697.5,-297.87 690.5,-297.87"/>
</a>
</g>
</g>
<!-- Node21 -->
<g id="Node000021" class="node">
<title>Node21</title>
<g id="a_Node000021"><a xlink:href="RawPhraseResult_8hpp.html" target="_top" xlink:title=" ">
<polygon fill="white" stroke="#666666" points="1016,-272 864,-272 864,-242 1016,-242 1016,-272"/>
<text text-anchor="start" x="872" y="-260" font-family="Helvetica,sans-Serif" font-size="10.00">netspeak/model/RawPhrase</text>
<text text-anchor="middle" x="940" y="-249" font-family="Helvetica,sans-Serif" font-size="10.00">Result.hpp</text>
</a>
</g>
</g>
<!-- Node18&#45;&gt;Node21 -->
<g id="edge28_Node000018_Node000021" class="edge">
<title>Node18&#45;&gt;Node21</title>
<g id="a_edge28_Node000018_Node000021"><a xlink:title=" ">
<path fill="none" stroke="#63b8ff" d="M739.73,-305.62C779.55,-296.16 837.52,-282.37 880.86,-272.06"/>
<polygon fill="#63b8ff" stroke="#63b8ff" points="738.69,-302.27 729.77,-307.99 740.31,-309.09 738.69,-302.27"/>
</a>
</g>
</g>
<!-- Node24 -->
<g id="Node000024" class="node">
<title>Node24</title>
<g id="a_Node000024"><a xlink:href="RawRefResult_8hpp.html" target="_top" xlink:title=" ">
<polygon fill="white" stroke="#666666" points="1222,-266.5 1034,-266.5 1034,-247.5 1222,-247.5 1222,-266.5"/>
<text text-anchor="middle" x="1128" y="-254.5" font-family="Helvetica,sans-Serif" font-size="10.00">netspeak/model/RawRefResult.hpp</text>
</a>
</g>
</g>
<!-- Node18&#45;&gt;Node24 -->
<g id="edge33_Node000018_Node000024" class="edge">
<title>Node18&#45;&gt;Node24</title>
<g id="a_edge33_Node000018_Node000024"><a xlink:title=" ">
<path fill="none" stroke="#63b8ff" d="M767.51,-306.65C834.59,-297.65 936.46,-283.97 1025,-272 1038.06,-270.24 1052.04,-268.34 1065.36,-266.53"/>
<polygon fill="#63b8ff" stroke="#63b8ff" points="766.9,-303.2 757.46,-308 767.84,-310.14 766.9,-303.2"/>
</a>
</g>
</g>
<!-- Node27 -->
<g id="Node000027" class="node">
<title>Node27</title>
<g id="a_Node000027"><a xlink:href="SearchResult_8hpp.html" target="_top" xlink:title=" ">
<polygon fill="white" stroke="#666666" points="807.5,-206 624.5,-206 624.5,-187 807.5,-187 807.5,-206"/>
<text text-anchor="middle" x="716" y="-194" font-family="Helvetica,sans-Serif" font-size="10.00">netspeak/model/SearchResult.hpp</text>
</a>
</g>
</g>
<!-- Node18&#45;&gt;Node27 -->
<g id="edge39_Node000018_Node000027" class="edge">
<title>Node18&#45;&gt;Node27</title>
<g id="a_edge39_Node000018_Node000027"><a xlink:title=" ">
<path fill="none" stroke="#63b8ff" d="M737.93,-304.13C753.71,-297.33 769.86,-287.11 779,-272 785.9,-260.59 785.13,-253.84 779,-242 770.25,-225.12 751.83,-213.27 737.15,-206.07"/>
<polygon fill="#63b8ff" stroke="#63b8ff" points="736.26,-301.03 728.22,-307.93 738.81,-307.54 736.26,-301.03"/>
</a>
</g>
</g>
<!-- Node19&#45;&gt;Node15 -->
<g id="edge25_Node000019_Node000015" class="edge">
<title>Node19&#45;&gt;Node15</title>
<g id="a_edge25_Node000019_Node000015"><a xlink:title=" ">
<path fill="none" stroke="#63b8ff" d="M266.48,-244.9C223.17,-233.58 156.95,-216.29 117.61,-206.02"/>
<polygon fill="#63b8ff" stroke="#63b8ff" points="265.87,-248.35 276.43,-247.49 267.64,-241.58 265.87,-248.35"/>
</a>
</g>
</g>
<!-- Node21&#45;&gt;Node3 -->
<g id="edge29_Node000021_Node000003" class="edge">
<title>Node21&#45;&gt;Node3</title>
<g id="a_edge29_Node000021_Node000003"><a xlink:title=" ">
<path fill="none" stroke="#63b8ff" d="M919.89,-234.19C912.56,-225.71 904.49,-215.72 898,-206 885.58,-187.4 874.31,-163.57 868.71,-151.05"/>
<polygon fill="#63b8ff" stroke="#63b8ff" points="917.37,-236.62 926.61,-241.79 922.61,-231.98 917.37,-236.62"/>
</a>
</g>
</g>
<!-- Node22 -->
<g id="Node000022" class="node">
<title>Node22</title>
<g id="a_Node000022"><a xlink:href="RawResult_8hpp.html" target="_top" xlink:title=" ">
<polygon fill="white" stroke="#666666" points="1111.5,-206 940.5,-206 940.5,-187 1111.5,-187 1111.5,-206"/>
<text text-anchor="middle" x="1026" y="-194" font-family="Helvetica,sans-Serif" font-size="10.00">netspeak/model/RawResult.hpp</text>
</a>
</g>
</g>
<!-- Node21&#45;&gt;Node22 -->
<g id="edge30_Node000021_Node000022" class="edge">
<title>Node21&#45;&gt;Node22</title>
<g id="a_edge30_Node000021_Node000022"><a xlink:title=" ">
<path fill="none" stroke="#63b8ff" d="M969.31,-236.06C984.32,-225.85 1001.82,-213.95 1013.37,-206.09"/>
<polygon fill="#63b8ff" stroke="#63b8ff" points="967.12,-233.32 960.82,-241.84 971.06,-239.11 967.12,-233.32"/>
</a>
</g>
</g>
<!-- Node22&#45;&gt;Node3 -->
<g id="edge31_Node000022_Node000003" class="edge">
<title>Node22&#45;&gt;Node3</title>
<g id="a_edge31_Node000022_Node000003"><a xlink:title=" ">
<path fill="none" stroke="#63b8ff" d="M990.45,-183.8C960.41,-173.91 918.06,-159.97 891.07,-151.08"/>
<polygon fill="#63b8ff" stroke="#63b8ff" points="989.54,-187.18 1000.13,-186.98 991.73,-180.53 989.54,-187.18"/>
</a>
</g>
</g>
<!-- Node23 -->
<g id="Node000023" class="node">
<title>Node23</title>
<g id="a_Node000023"><a xlink:href="RawResult_8cpp.html" target="_top" xlink:title=" ">
<polygon fill="white" stroke="#666666" points="1119,-151 949,-151 949,-132 1119,-132 1119,-151"/>
<text text-anchor="middle" x="1034" y="-139" font-family="Helvetica,sans-Serif" font-size="10.00">netspeak/model/RawResult.cpp</text>
</a>
</g>
</g>
<!-- Node22&#45;&gt;Node23 -->
<g id="edge32_Node000022_Node000023" class="edge">
<title>Node22&#45;&gt;Node23</title>
<g id="a_edge32_Node000022_Node000023"><a xlink:title=" ">
<path fill="none" stroke="#63b8ff" d="M1028.84,-176.66C1030.16,-167.93 1031.66,-157.99 1032.7,-151.09"/>
<polygon fill="#63b8ff" stroke="#63b8ff" points="1025.35,-176.34 1027.32,-186.75 1032.27,-177.38 1025.35,-176.34"/>
</a>
</g>
</g>
<!-- Node24&#45;&gt;Node3 -->
<g id="edge34_Node000024_Node000003" class="edge">
<title>Node24&#45;&gt;Node3</title>
<g id="a_edge34_Node000024_Node000003"><a xlink:title=" ">
<path fill="none" stroke="#63b8ff" d="M1050.57,-245.61C1013.08,-238.29 968.41,-226.09 932,-206 906.18,-191.75 882.86,-165.18 871.79,-151.36"/>
<polygon fill="#63b8ff" stroke="#63b8ff" points="1049.96,-249.05 1060.43,-247.45 1051.25,-242.17 1049.96,-249.05"/>
</a>
</g>
</g>
<!-- Node24&#45;&gt;Node22 -->
<g id="edge38_Node000024_Node000022" class="edge">
<title>Node24&#45;&gt;Node22</title>
<g id="a_edge38_Node000024_Node000022"><a xlink:title=" ">
<path fill="none" stroke="#63b8ff" d="M1104.06,-242.27C1084.59,-231.1 1057.71,-215.69 1041.11,-206.17"/>
<polygon fill="#63b8ff" stroke="#63b8ff" points="1102.53,-245.43 1112.95,-247.37 1106.02,-239.36 1102.53,-245.43"/>
</a>
</g>
</g>
<!-- Node25 -->
<g id="Node000025" class="node">
<title>Node25</title>
<g id="a_Node000025"><a xlink:href="QueryProcessor_8hpp.html" target="_top" xlink:title=" ">
<polygon fill="white" stroke="#666666" points="1290.5,-206 1129.5,-206 1129.5,-187 1290.5,-187 1290.5,-206"/>
<text text-anchor="middle" x="1210" y="-194" font-family="Helvetica,sans-Serif" font-size="10.00">netspeak/QueryProcessor.hpp</text>
</a>
</g>
</g>
<!-- Node24&#45;&gt;Node25 -->
<g id="edge35_Node000024_Node000025" class="edge">
<title>Node24&#45;&gt;Node25</title>
<g id="a_edge35_Node000024_Node000025"><a xlink:title=" ">
<path fill="none" stroke="#63b8ff" d="M1148.54,-241.35C1164.07,-230.27 1184.87,-215.43 1197.85,-206.17"/>
<polygon fill="#63b8ff" stroke="#63b8ff" points="1146.21,-238.71 1140.1,-247.37 1150.27,-244.41 1146.21,-238.71"/>
</a>
</g>
</g>
<!-- Node26 -->
<g id="Node000026" class="node">
<title>Node26</title>
<g id="a_Node000026"><a xlink:href="RawRefResult_8cpp.html" target="_top" xlink:title=" ">
<polygon fill="white" stroke="#666666" points="1495.5,-206 1308.5,-206 1308.5,-187 1495.5,-187 1495.5,-206"/>
<text text-anchor="middle" x="1402" y="-194" font-family="Helvetica,sans-Serif" font-size="10.00">netspeak/model/RawRefResult.cpp</text>
</a>
</g>
</g>
<!-- Node24&#45;&gt;Node26 -->
<g id="edge37_Node000024_Node000026" class="edge">
<title>Node24&#45;&gt;Node26</title>
<g id="a_edge37_Node000024_Node000026"><a xlink:title=" ">
<path fill="none" stroke="#63b8ff" d="M1177.68,-245.39C1230.59,-234.1 1313.28,-216.44 1362.11,-206.02"/>
<polygon fill="#63b8ff" stroke="#63b8ff" points="1176.89,-241.98 1167.84,-247.49 1178.35,-248.83 1176.89,-241.98"/>
</a>
</g>
</g>
<!-- Node25&#45;&gt;Node3 -->
<g id="edge36_Node000025_Node000003" class="edge">
<title>Node25&#45;&gt;Node3</title>
<g id="a_edge36_Node000025_Node000003"><a xlink:title=" ">
<path fill="none" stroke="#63b8ff" d="M1144.47,-185.43C1079.69,-175.48 981.66,-160.42 920.58,-151.04"/>
<polygon fill="#63b8ff" stroke="#63b8ff" points="1144.15,-188.93 1154.57,-186.98 1145.22,-182.01 1144.15,-188.93"/>
</a>
</g>
</g>
<!-- Node27&#45;&gt;Node3 -->
<g id="edge40_Node000027_Node000003" class="edge">
<title>Node27&#45;&gt;Node3</title>
<g id="a_edge40_Node000027_Node000003"><a xlink:title=" ">
<path fill="none" stroke="#63b8ff" d="M749.59,-183.55C777.26,-173.71 815.84,-159.98 840.62,-151.17"/>
<polygon fill="#63b8ff" stroke="#63b8ff" points="748.19,-180.34 739.94,-186.98 750.53,-186.93 748.19,-180.34"/>
</a>
</g>
</g>
</g>
</svg>
